<?xml version="1.0" encoding="UTF-8" standalone="no"?>
<!DOCTYPE svg PUBLIC "-//W3C//DTD SVG 1.1//EN"
 "http://www.w3.org/Graphics/SVG/1.1/DTD/svg11.dtd">
<!-- Generated by graphviz version 2.48.0 (20210717.1556)
 -->
<!-- Title: binder.cpp Pages: 1 -->
<svg width="1712pt" height="350pt"
 viewBox="0.00 0.00 1712.24 350.00" xmlns="http://www.w3.org/2000/svg" xmlns:xlink="http://www.w3.org/1999/xlink">
<g id="graph0" class="graph" transform="scale(1 1) rotate(0) translate(4 346)">
<title>binder.cpp</title>
<!-- Node1 -->
<g id="Node000001" class="node">
<title>Node1</title>
<g id="a_Node000001"><a xlink:title=" ">
<polygon fill="#999999" stroke="#666666" points="830.38,-342 768.08,-342 768.08,-324 830.38,-324 830.38,-342"/>
<text text-anchor="middle" x="799.23" y="-330" font-family="Helvetica,sans-Serif" font-size="10.00">binder.cpp</text>
</a>
</g>
</g>
<!-- Node2 -->
<g id="Node000002" class="node">
<title>Node2</title>
<g id="a_Node000002"><a xlink:href="container_8hpp.html" target="_top" xlink:title=" ">
<polygon fill="white" stroke="#666666" points="306.29,-288 230.18,-288 230.18,-270 306.29,-270 306.29,-288"/>
<text text-anchor="middle" x="268.23" y="-276" font-family="Helvetica,sans-Serif" font-size="10.00">container.hpp</text>
</a>
</g>
</g>
<!-- Node1&#45;&gt;Node2 -->
<g id="edge1_Node000001_Node000002" class="edge">
<title>Node1&#45;&gt;Node2</title>
<g id="a_edge1_Node000001_Node000002"><a xlink:title=" ">
<path fill="none" stroke="#63b8ff" d="M768,-328.94C679.03,-320.23 423.84,-295.24 316.61,-284.74"/>
<polygon fill="#63b8ff" stroke="#63b8ff" points="316.69,-281.23 306.4,-283.74 316.01,-288.2 316.69,-281.23"/>
</a>
</g>
</g>
<!-- Node7 -->
<g id="Node000007" class="node">
<title>Node7</title>
<g id="a_Node000007"><a xlink:title=" ">
<polygon fill="#e0e0e0" stroke="#999999" points="1535.76,-18 1484.7,-18 1484.7,0 1535.76,0 1535.76,-18"/>
<text text-anchor="middle" x="1510.23" y="-6" font-family="Helvetica,sans-Serif" font-size="10.00">optional</text>
</a>
</g>
</g>
<!-- Node1&#45;&gt;Node7 -->
<g id="edge57_Node000001_Node000007" class="edge">
<title>Node1&#45;&gt;Node7</title>
<g id="a_edge57_Node000001_Node000007"><a xlink:title=" ">
<path fill="none" stroke="#63b8ff" d="M830.46,-330.93C972.22,-325.66 1548.23,-299.71 1548.23,-226 1548.23,-226 1548.23,-226 1548.23,-116 1548.23,-82.9 1531.61,-47.22 1520.36,-26.85"/>
<polygon fill="#63b8ff" stroke="#63b8ff" points="1523.38,-25.08 1515.36,-18.16 1517.31,-28.57 1523.38,-25.08"/>
</a>
</g>
</g>
<!-- Node9 -->
<g id="Node000009" class="node">
<title>Node9</title>
<g id="a_Node000009"><a xlink:title=" ">
<polygon fill="#e0e0e0" stroke="#999999" points="222.69,-72 161.78,-72 161.78,-54 222.69,-54 222.69,-72"/>
<text text-anchor="middle" x="192.23" y="-60" font-family="Helvetica,sans-Serif" font-size="10.00">filesystem</text>
</a>
</g>
</g>
<!-- Node1&#45;&gt;Node9 -->
<g id="edge55_Node000001_Node000009" class="edge">
<title>Node1&#45;&gt;Node9</title>
<g id="a_edge55_Node000001_Node000009"><a xlink:title=" ">
<path fill="none" stroke="#63b8ff" d="M767.96,-331.73C653.67,-330.48 263.04,-323.59 221.23,-288 160.53,-236.32 177.95,-125.45 187.7,-82"/>
<polygon fill="#63b8ff" stroke="#63b8ff" points="191.1,-82.8 190.01,-72.27 184.29,-81.19 191.1,-82.8"/>
</a>
</g>
</g>
<!-- Node14 -->
<g id="Node000014" class="node">
<title>Node14</title>
<g id="a_Node000014"><a xlink:title=" ">
<polygon fill="#e0e0e0" stroke="#999999" points="576.96,-126 533.5,-126 533.5,-108 576.96,-108 576.96,-126"/>
<text text-anchor="middle" x="555.23" y="-114" font-family="Helvetica,sans-Serif" font-size="10.00">vector</text>
</a>
</g>
</g>
<!-- Node1&#45;&gt;Node14 -->
<g id="edge59_Node000001_Node000014" class="edge">
<title>Node1&#45;&gt;Node14</title>
<g id="a_edge59_Node000001_Node000014"><a xlink:title=" ">
<path fill="none" stroke="#63b8ff" d="M788.54,-323.74C777.35,-315.03 759.34,-300.82 744.23,-288 679.05,-232.69 604.31,-163.76 571.79,-133.48"/>
<polygon fill="#63b8ff" stroke="#63b8ff" points="573.82,-130.59 564.12,-126.33 569.04,-135.71 573.82,-130.59"/>
</a>
</g>
</g>
<!-- Node20 -->
<g id="Node000020" class="node">
<title>Node20</title>
<g id="a_Node000020"><a xlink:title=" ">
<polygon fill="#e0e0e0" stroke="#999999" points="649.58,-126 594.89,-126 594.89,-108 649.58,-108 649.58,-126"/>
<text text-anchor="middle" x="622.23" y="-114" font-family="Helvetica,sans-Serif" font-size="10.00">iostream</text>
</a>
</g>
</g>
<!-- Node1&#45;&gt;Node20 -->
<g id="edge56_Node000001_Node000020" class="edge">
<title>Node1&#45;&gt;Node20</title>
<g id="a_edge56_Node000001_Node000020"><a xlink:title=" ">
<path fill="none" stroke="#63b8ff" d="M792.51,-323.87C766.33,-292.23 670.93,-176.88 635.55,-134.11"/>
<polygon fill="#63b8ff" stroke="#63b8ff" points="638.03,-131.61 628.96,-126.14 632.64,-136.07 638.03,-131.61"/>
</a>
</g>
</g>
<!-- Node21 -->
<g id="Node000021" class="node">
<title>Node21</title>
<g id="a_Node000021"><a xlink:href="options_8hpp.html" target="_top" xlink:title=" ">
<polygon fill="white" stroke="#666666" points="939.94,-180 872.52,-180 872.52,-162 939.94,-162 939.94,-180"/>
<text text-anchor="middle" x="906.23" y="-168" font-family="Helvetica,sans-Serif" font-size="10.00">options.hpp</text>
</a>
</g>
</g>
<!-- Node1&#45;&gt;Node21 -->
<g id="edge37_Node000001_Node000021" class="edge">
<title>Node1&#45;&gt;Node21</title>
<g id="a_edge37_Node000001_Node000021"><a xlink:title=" ">
<path fill="none" stroke="#63b8ff" d="M804.69,-323.85C821.42,-298.82 872.31,-222.73 895.05,-188.73"/>
<polygon fill="#63b8ff" stroke="#63b8ff" points="898.01,-190.59 900.66,-180.33 892.19,-186.7 898.01,-190.59"/>
</a>
</g>
</g>
<!-- Node29 -->
<g id="Node000029" class="node">
<title>Node29</title>
<g id="a_Node000029"><a xlink:title=" ">
<polygon fill="#e0e0e0" stroke="#999999" points="1620.58,-288 1575.89,-288 1575.89,-270 1620.58,-270 1620.58,-288"/>
<text text-anchor="middle" x="1598.23" y="-276" font-family="Helvetica,sans-Serif" font-size="10.00">cstdlib</text>
</a>
</g>
</g>
<!-- Node1&#45;&gt;Node29 -->
<g id="edge54_Node000001_Node000029" class="edge">
<title>Node1&#45;&gt;Node29</title>
<g id="a_edge54_Node000001_Node000029"><a xlink:title=" ">
<path fill="none" stroke="#63b8ff" d="M830.66,-332C935.16,-331.6 1280.33,-327.19 1562.23,-288 1563.48,-287.83 1564.75,-287.63 1566.03,-287.42"/>
<polygon fill="#63b8ff" stroke="#63b8ff" points="1566.69,-290.86 1575.86,-285.56 1565.39,-283.98 1566.69,-290.86"/>
</a>
</g>
</g>
<!-- Node30 -->
<g id="Node000030" class="node">
<title>Node30</title>
<g id="a_Node000030"><a xlink:title=" ">
<polygon fill="#e0e0e0" stroke="#999999" points="1704.25,-288 1638.21,-288 1638.21,-270 1704.25,-270 1704.25,-288"/>
<text text-anchor="middle" x="1671.23" y="-276" font-family="Helvetica,sans-Serif" font-size="10.00">string_view</text>
</a>
</g>
</g>
<!-- Node1&#45;&gt;Node30 -->
<g id="edge58_Node000001_Node000030" class="edge">
<title>Node1&#45;&gt;Node30</title>
<g id="a_edge58_Node000001_Node000030"><a xlink:title=" ">
<path fill="none" stroke="#63b8ff" d="M830.64,-331.86C939.59,-331.06 1311.35,-325.66 1627.54,-288.02"/>
<polygon fill="#63b8ff" stroke="#63b8ff" points="1628.32,-291.46 1637.83,-286.79 1627.48,-284.51 1628.32,-291.46"/>
</a>
</g>
</g>
<!-- Node3 -->
<g id="Node000003" class="node">
<title>Node3</title>
<g id="a_Node000003"><a xlink:href="navigation_8hpp.html" target="_top" xlink:title=" ">
<polygon fill="white" stroke="#666666" points="415.79,-180 334.68,-180 334.68,-162 415.79,-162 415.79,-180"/>
<text text-anchor="middle" x="375.23" y="-168" font-family="Helvetica,sans-Serif" font-size="10.00">navigation.hpp</text>
</a>
</g>
</g>
<!-- Node2&#45;&gt;Node3 -->
<g id="edge2_Node000002_Node000003" class="edge">
<title>Node2&#45;&gt;Node3</title>
<g id="a_edge2_Node000002_Node000003"><a xlink:title=" ">
<path fill="none" stroke="#63b8ff" d="M276.78,-269.97C286.08,-261.2 301.33,-246.73 314.23,-234 330.11,-218.35 347.96,-200.12 360.23,-187.5"/>
<polygon fill="#63b8ff" stroke="#63b8ff" points="362.96,-189.72 367.41,-180.1 357.94,-184.84 362.96,-189.72"/>
</a>
</g>
</g>
<!-- Node6 -->
<g id="Node000006" class="node">
<title>Node6</title>
<g id="a_Node000006"><a xlink:title=" ">
<polygon fill="#e0e0e0" stroke="#999999" points="306.19,-18 270.28,-18 270.28,0 306.19,0 306.19,-18"/>
<text text-anchor="middle" x="288.23" y="-6" font-family="Helvetica,sans-Serif" font-size="10.00">map</text>
</a>
</g>
</g>
<!-- Node2&#45;&gt;Node6 -->
<g id="edge36_Node000002_Node000006" class="edge">
<title>Node2&#45;&gt;Node6</title>
<g id="a_edge36_Node000002_Node000006"><a xlink:title=" ">
<path fill="none" stroke="#63b8ff" d="M230.04,-272.2C152.6,-258.16 -14.33,-215.27 1.23,-108 4.82,-83.23 -1.56,-70.54 17.23,-54 53.01,-22.51 198.28,-13.37 260.13,-10.87"/>
<polygon fill="#63b8ff" stroke="#63b8ff" points="260.47,-14.36 270.33,-10.49 260.2,-7.37 260.47,-14.36"/>
</a>
</g>
</g>
<!-- Node2&#45;&gt;Node9 -->
<g id="edge35_Node000002_Node000009" class="edge">
<title>Node2&#45;&gt;Node9</title>
<g id="a_edge35_Node000002_Node000009"><a xlink:title=" ">
<path fill="none" stroke="#63b8ff" d="M255.97,-269.76C245.27,-261.88 230.26,-249.01 222.23,-234 195.42,-183.87 191.87,-114.68 191.83,-82.21"/>
<polygon fill="#63b8ff" stroke="#63b8ff" points="195.33,-82.05 191.94,-72.01 188.33,-81.98 195.33,-82.05"/>
</a>
</g>
</g>
<!-- Node15 -->
<g id="Node000015" class="node">
<title>Node15</title>
<g id="a_Node000015"><a xlink:href="package_8hpp.html" target="_top" xlink:title=" ">
<polygon fill="white" stroke="#666666" points="305,-234 231.46,-234 231.46,-216 305,-216 305,-234"/>
<text text-anchor="middle" x="268.23" y="-222" font-family="Helvetica,sans-Serif" font-size="10.00">package.hpp</text>
</a>
</g>
</g>
<!-- Node2&#45;&gt;Node15 -->
<g id="edge20_Node000002_Node000015" class="edge">
<title>Node2&#45;&gt;Node15</title>
<g id="a_edge20_Node000002_Node000015"><a xlink:title=" ">
<path fill="none" stroke="#63b8ff" d="M268.23,-269.88C268.23,-263.05 268.23,-253.03 268.23,-244.29"/>
<polygon fill="#63b8ff" stroke="#63b8ff" points="271.73,-244.24 268.23,-234.24 264.73,-244.24 271.73,-244.24"/>
</a>
</g>
</g>
<!-- Node4 -->
<g id="Node000004" class="node">
<title>Node4</title>
<g id="a_Node000004"><a xlink:href="manifest_8hpp.html" target="_top" xlink:title=" ">
<polygon fill="white" stroke="#666666" points="400.99,-126 327.48,-126 327.48,-108 400.99,-108 400.99,-126"/>
<text text-anchor="middle" x="364.23" y="-114" font-family="Helvetica,sans-Serif" font-size="10.00">manifest.hpp</text>
</a>
</g>
</g>
<!-- Node3&#45;&gt;Node4 -->
<g id="edge3_Node000003_Node000004" class="edge">
<title>Node3&#45;&gt;Node4</title>
<g id="a_edge3_Node000003_Node000004"><a xlink:title=" ">
<path fill="none" stroke="#63b8ff" d="M373.51,-161.88C372.07,-155.05 369.95,-145.03 368.1,-136.29"/>
<polygon fill="#63b8ff" stroke="#63b8ff" points="371.47,-135.3 365.97,-126.24 364.62,-136.75 371.47,-135.3"/>
</a>
</g>
</g>
<!-- Node3&#45;&gt;Node9 -->
<g id="edge17_Node000003_Node000009" class="edge">
<title>Node3&#45;&gt;Node9</title>
<g id="a_edge17_Node000003_Node000009"><a xlink:title=" ">
<path fill="none" stroke="#63b8ff" d="M337.48,-161.99C311.23,-155.23 276.24,-143.76 249.23,-126 230.59,-113.74 213.92,-94.07 203.5,-80.18"/>
<polygon fill="#63b8ff" stroke="#63b8ff" points="206.29,-78.07 197.59,-72.02 200.62,-82.17 206.29,-78.07"/>
</a>
</g>
</g>
<!-- Node10 -->
<g id="Node000010" class="node">
<title>Node10</title>
<g id="a_Node000010"><a xlink:title=" ">
<polygon fill="#e0e0e0" stroke="#999999" points="623.35,-72 571.12,-72 571.12,-54 623.35,-54 623.35,-72"/>
<text text-anchor="middle" x="597.23" y="-60" font-family="Helvetica,sans-Serif" font-size="10.00">memory</text>
</a>
</g>
</g>
<!-- Node3&#45;&gt;Node10 -->
<g id="edge18_Node000003_Node000010" class="edge">
<title>Node3&#45;&gt;Node10</title>
<g id="a_edge18_Node000003_Node000010"><a xlink:title=" ">
<path fill="none" stroke="#63b8ff" d="M392.28,-161.86C430.88,-143.43 525.13,-98.43 571.12,-76.47"/>
<polygon fill="#63b8ff" stroke="#63b8ff" points="572.91,-79.49 580.43,-72.02 569.89,-73.17 572.91,-79.49"/>
</a>
</g>
</g>
<!-- Node13 -->
<g id="Node000013" class="node">
<title>Node13</title>
<g id="a_Node000013"><a xlink:href="xml_8hpp.html" target="_top" xlink:title=" ">
<polygon fill="white" stroke="#666666" points="309.75,-126 258.72,-126 258.72,-108 309.75,-108 309.75,-126"/>
<text text-anchor="middle" x="284.23" y="-114" font-family="Helvetica,sans-Serif" font-size="10.00">xml.hpp</text>
</a>
</g>
</g>
<!-- Node3&#45;&gt;Node13 -->
<g id="edge13_Node000003_Node000013" class="edge">
<title>Node3&#45;&gt;Node13</title>
<g id="a_edge13_Node000003_Node000013"><a xlink:title=" ">
<path fill="none" stroke="#63b8ff" d="M361.01,-161.88C346.59,-153.63 324.03,-140.74 307.1,-131.07"/>
<polygon fill="#63b8ff" stroke="#63b8ff" points="308.77,-127.99 298.35,-126.07 305.3,-134.07 308.77,-127.99"/>
</a>
</g>
</g>
<!-- Node3&#45;&gt;Node14 -->
<g id="edge19_Node000003_Node000014" class="edge">
<title>Node3&#45;&gt;Node14</title>
<g id="a_edge19_Node000003_Node000014"><a xlink:title=" ">
<path fill="none" stroke="#63b8ff" d="M402.96,-161.99C435.49,-152.59 489.31,-137.04 523.49,-127.17"/>
<polygon fill="#63b8ff" stroke="#63b8ff" points="524.78,-130.44 533.42,-124.3 522.84,-123.72 524.78,-130.44"/>
</a>
</g>
</g>
<!-- Node5 -->
<g id="Node000005" class="node">
<title>Node5</title>
<g id="a_Node000005"><a xlink:href="file__metadata_8hpp.html" target="_top" xlink:title=" ">
<polygon fill="white" stroke="#666666" points="411.74,-72 316.73,-72 316.73,-54 411.74,-54 411.74,-72"/>
<text text-anchor="middle" x="364.23" y="-60" font-family="Helvetica,sans-Serif" font-size="10.00">file_metadata.hpp</text>
</a>
</g>
</g>
<!-- Node4&#45;&gt;Node5 -->
<g id="edge4_Node000004_Node000005" class="edge">
<title>Node4&#45;&gt;Node5</title>
<g id="a_edge4_Node000004_Node000005"><a xlink:title=" ">
<path fill="none" stroke="#63b8ff" d="M364.23,-107.88C364.23,-101.05 364.23,-91.03 364.23,-82.29"/>
<polygon fill="#63b8ff" stroke="#63b8ff" points="367.73,-82.24 364.23,-72.24 360.73,-82.24 367.73,-82.24"/>
</a>
</g>
</g>
<!-- Node4&#45;&gt;Node6 -->
<g id="edge9_Node000004_Node000006" class="edge">
<title>Node4&#45;&gt;Node6</title>
<g id="a_edge9_Node000004_Node000006"><a xlink:title=" ">
<path fill="none" stroke="#63b8ff" d="M349.01,-107.85C336.11,-100.21 318.05,-87.62 307.23,-72 298.21,-58.97 293.37,-41.52 290.83,-28.46"/>
<polygon fill="#63b8ff" stroke="#63b8ff" points="294.24,-27.62 289.15,-18.32 287.34,-28.76 294.24,-27.62"/>
</a>
</g>
</g>
<!-- Node4&#45;&gt;Node9 -->
<g id="edge8_Node000004_Node000009" class="edge">
<title>Node4&#45;&gt;Node9</title>
<g id="a_edge8_Node000004_Node000009"><a xlink:title=" ">
<path fill="none" stroke="#63b8ff" d="M337.73,-107.99C308.44,-99.13 261.09,-84.82 228.4,-74.93"/>
<polygon fill="#63b8ff" stroke="#63b8ff" points="229.35,-71.56 218.76,-72.02 227.32,-78.26 229.35,-71.56"/>
</a>
</g>
</g>
<!-- Node4&#45;&gt;Node10 -->
<g id="edge10_Node000004_Node000010" class="edge">
<title>Node4&#45;&gt;Node10</title>
<g id="a_edge10_Node000004_Node000010"><a xlink:title=" ">
<path fill="none" stroke="#63b8ff" d="M400.74,-107.96C438.46,-99.63 499.32,-86.15 560.97,-72.28"/>
<polygon fill="#63b8ff" stroke="#63b8ff" points="561.88,-75.66 570.86,-70.05 560.34,-68.83 561.88,-75.66"/>
</a>
</g>
</g>
<!-- Node11 -->
<g id="Node000011" class="node">
<title>Node11</title>
<g id="a_Node000011"><a xlink:title=" ">
<polygon fill="#e0e0e0" stroke="#999999" points="553.31,-72 507.15,-72 507.15,-54 553.31,-54 553.31,-72"/>
<text text-anchor="middle" x="530.23" y="-60" font-family="Helvetica,sans-Serif" font-size="10.00">ranges</text>
</a>
</g>
</g>
<!-- Node4&#45;&gt;Node11 -->
<g id="edge11_Node000004_Node000011" class="edge">
<title>Node4&#45;&gt;Node11</title>
<g id="a_edge11_Node000004_Node000011"><a xlink:title=" ">
<path fill="none" stroke="#63b8ff" d="M389.81,-107.99C418.69,-98.94 465.78,-84.19 497.37,-74.29"/>
<polygon fill="#63b8ff" stroke="#63b8ff" points="498.54,-77.59 507.04,-71.26 496.45,-70.91 498.54,-77.59"/>
</a>
</g>
</g>
<!-- Node12 -->
<g id="Node000012" class="node">
<title>Node12</title>
<g id="a_Node000012"><a xlink:title=" ">
<polygon fill="#e0e0e0" stroke="#999999" points="488.53,-72 429.93,-72 429.93,-54 488.53,-54 488.53,-72"/>
<text text-anchor="middle" x="459.23" y="-60" font-family="Helvetica,sans-Serif" font-size="10.00">stdexcept</text>
</a>
</g>
</g>
<!-- Node4&#45;&gt;Node12 -->
<g id="edge12_Node000004_Node000012" class="edge">
<title>Node4&#45;&gt;Node12</title>
<g id="a_edge12_Node000004_Node000012"><a xlink:title=" ">
<path fill="none" stroke="#63b8ff" d="M379.08,-107.88C394.13,-99.63 417.68,-86.74 435.36,-77.07"/>
<polygon fill="#63b8ff" stroke="#63b8ff" points="437.4,-79.94 444.49,-72.07 434.04,-73.8 437.4,-79.94"/>
</a>
</g>
</g>
<!-- Node5&#45;&gt;Node6 -->
<g id="edge5_Node000005_Node000006" class="edge">
<title>Node5&#45;&gt;Node6</title>
<g id="a_edge5_Node000005_Node000006"><a xlink:title=" ">
<path fill="none" stroke="#63b8ff" d="M352.36,-53.88C340.71,-45.91 322.73,-33.6 308.76,-24.05"/>
<polygon fill="#63b8ff" stroke="#63b8ff" points="310.5,-21 300.27,-18.24 306.55,-26.78 310.5,-21"/>
</a>
</g>
</g>
<!-- Node5&#45;&gt;Node7 -->
<g id="edge6_Node000005_Node000007" class="edge">
<title>Node5&#45;&gt;Node7</title>
<g id="a_edge6_Node000005_Node000007"><a xlink:title=" ">
<path fill="none" stroke="#63b8ff" d="M411.78,-54.97C414.97,-54.61 418.15,-54.28 421.23,-54 833.61,-16.82 1336.68,-11.05 1474.1,-10.16"/>
<polygon fill="#63b8ff" stroke="#63b8ff" points="1474.47,-13.66 1484.45,-10.1 1474.42,-6.66 1474.47,-13.66"/>
</a>
</g>
</g>
<!-- Node8 -->
<g id="Node000008" class="node">
<title>Node8</title>
<g id="a_Node000008"><a xlink:title=" ">
<polygon fill="#e0e0e0" stroke="#999999" points="384.69,-18 343.78,-18 343.78,0 384.69,0 384.69,-18"/>
<text text-anchor="middle" x="364.23" y="-6" font-family="Helvetica,sans-Serif" font-size="10.00">string</text>
</a>
</g>
</g>
<!-- Node5&#45;&gt;Node8 -->
<g id="edge7_Node000005_Node000008" class="edge">
<title>Node5&#45;&gt;Node8</title>
<g id="a_edge7_Node000005_Node000008"><a xlink:title=" ">
<path fill="none" stroke="#63b8ff" d="M364.23,-53.88C364.23,-47.05 364.23,-37.03 364.23,-28.29"/>
<polygon fill="#63b8ff" stroke="#63b8ff" points="367.73,-28.24 364.23,-18.24 360.73,-28.24 367.73,-28.24"/>
</a>
</g>
</g>
<!-- Node13&#45;&gt;Node5 -->
<g id="edge14_Node000013_Node000005" class="edge">
<title>Node13&#45;&gt;Node5</title>
<g id="a_edge14_Node000013_Node000005"><a xlink:title=" ">
<path fill="none" stroke="#63b8ff" d="M296.73,-107.88C309.18,-99.79 328.51,-87.22 343.3,-77.61"/>
<polygon fill="#63b8ff" stroke="#63b8ff" points="345.34,-80.45 351.82,-72.07 341.53,-74.58 345.34,-80.45"/>
</a>
</g>
</g>
<!-- Node13&#45;&gt;Node6 -->
<g id="edge16_Node000013_Node000006" class="edge">
<title>Node13&#45;&gt;Node6</title>
<g id="a_edge16_Node000013_Node000006"><a xlink:title=" ">
<path fill="none" stroke="#63b8ff" d="M281.32,-107.98C277.39,-96.17 271.22,-73.39 274.23,-54 275.6,-45.18 278.43,-35.7 281.19,-27.81"/>
<polygon fill="#63b8ff" stroke="#63b8ff" points="284.54,-28.84 284.76,-18.25 277.98,-26.39 284.54,-28.84"/>
</a>
</g>
</g>
<!-- Node13&#45;&gt;Node9 -->
<g id="edge15_Node000013_Node000009" class="edge">
<title>Node13&#45;&gt;Node9</title>
<g id="a_edge15_Node000013_Node000009"><a xlink:title=" ">
<path fill="none" stroke="#63b8ff" d="M269.86,-107.88C255.27,-99.63 232.47,-86.74 215.35,-77.07"/>
<polygon fill="#63b8ff" stroke="#63b8ff" points="216.93,-73.94 206.51,-72.07 213.49,-80.04 216.93,-73.94"/>
</a>
</g>
</g>
<!-- Node15&#45;&gt;Node4 -->
<g id="edge21_Node000015_Node000004" class="edge">
<title>Node15&#45;&gt;Node4</title>
<g id="a_edge21_Node000015_Node000004"><a xlink:title=" ">
<path fill="none" stroke="#63b8ff" d="M275.76,-215.68C291.75,-198.03 329.28,-156.59 349.95,-133.77"/>
<polygon fill="#63b8ff" stroke="#63b8ff" points="352.62,-136.04 356.73,-126.28 347.43,-131.34 352.62,-136.04"/>
</a>
</g>
</g>
<!-- Node15&#45;&gt;Node9 -->
<g id="edge34_Node000015_Node000009" class="edge">
<title>Node15&#45;&gt;Node9</title>
<g id="a_edge34_Node000015_Node000009"><a xlink:title=" ">
<path fill="none" stroke="#63b8ff" d="M264.36,-215.85C252.57,-191.03 216.94,-116.03 200.6,-81.61"/>
<polygon fill="#63b8ff" stroke="#63b8ff" points="203.64,-79.86 196.19,-72.33 197.32,-82.86 203.64,-79.86"/>
</a>
</g>
</g>
<!-- Node15&#45;&gt;Node13 -->
<g id="edge33_Node000015_Node000013" class="edge">
<title>Node15&#45;&gt;Node13</title>
<g id="a_edge33_Node000015_Node000013"><a xlink:title=" ">
<path fill="none" stroke="#63b8ff" d="M269.49,-215.68C272.06,-198.65 277.97,-159.47 281.48,-136.24"/>
<polygon fill="#63b8ff" stroke="#63b8ff" points="284.95,-136.69 282.98,-126.28 278.03,-135.64 284.95,-136.69"/>
</a>
</g>
</g>
<!-- Node16 -->
<g id="Node000016" class="node">
<title>Node16</title>
<g id="a_Node000016"><a xlink:href="metadata_8hpp.html" target="_top" xlink:title=" ">
<polygon fill="white" stroke="#666666" points="87.89,-126 10.57,-126 10.57,-108 87.89,-108 87.89,-126"/>
<text text-anchor="middle" x="49.23" y="-114" font-family="Helvetica,sans-Serif" font-size="10.00">metadata.hpp</text>
</a>
</g>
</g>
<!-- Node15&#45;&gt;Node16 -->
<g id="edge22_Node000015_Node000016" class="edge">
<title>Node15&#45;&gt;Node16</title>
<g id="a_edge22_Node000015_Node000016"><a xlink:title=" ">
<path fill="none" stroke="#63b8ff" d="M251.41,-215.86C213.34,-197.43 120.36,-152.43 74.99,-130.47"/>
<polygon fill="#63b8ff" stroke="#63b8ff" points="76.34,-127.23 65.81,-126.02 73.29,-133.53 76.34,-127.23"/>
</a>
</g>
</g>
<!-- Node18 -->
<g id="Node000018" class="node">
<title>Node18</title>
<g id="a_Node000018"><a xlink:href="spine_8hpp.html" target="_top" xlink:title=" ">
<polygon fill="white" stroke="#666666" points="535.1,-180 475.36,-180 475.36,-162 535.1,-162 535.1,-180"/>
<text text-anchor="middle" x="505.23" y="-168" font-family="Helvetica,sans-Serif" font-size="10.00">spine.hpp</text>
</a>
</g>
</g>
<!-- Node15&#45;&gt;Node18 -->
<g id="edge26_Node000015_Node000018" class="edge">
<title>Node15&#45;&gt;Node18</title>
<g id="a_edge26_Node000015_Node000018"><a xlink:title=" ">
<path fill="none" stroke="#63b8ff" d="M304.74,-215.99C348.23,-206.45 420.61,-190.57 465.48,-180.72"/>
<polygon fill="#63b8ff" stroke="#63b8ff" points="466.42,-184.1 475.43,-178.54 464.92,-177.26 466.42,-184.1"/>
</a>
</g>
</g>
<!-- Node16&#45;&gt;Node8 -->
<g id="edge25_Node000016_Node000008" class="edge">
<title>Node16&#45;&gt;Node8</title>
<g id="a_edge25_Node000016_Node000008"><a xlink:title=" ">
<path fill="none" stroke="#63b8ff" d="M60.14,-107.81C78.41,-94.49 116.8,-68.2 153.23,-54 185.86,-41.28 283.59,-23.64 333.76,-15.07"/>
<polygon fill="#63b8ff" stroke="#63b8ff" points="334.43,-18.51 343.71,-13.39 333.26,-11.61 334.43,-18.51"/>
</a>
</g>
</g>
<!-- Node16&#45;&gt;Node12 -->
<g id="edge24_Node000016_Node000012" class="edge">
<title>Node16&#45;&gt;Node12</title>
<g id="a_edge24_Node000016_Node000012"><a xlink:title=" ">
<path fill="none" stroke="#63b8ff" d="M87.95,-112.58C154.03,-106.48 292.97,-92.58 419.93,-72.08"/>
<polygon fill="#63b8ff" stroke="#63b8ff" points="420.52,-75.53 429.82,-70.46 419.39,-68.62 420.52,-75.53"/>
</a>
</g>
</g>
<!-- Node17 -->
<g id="Node000017" class="node">
<title>Node17</title>
<g id="a_Node000017"><a xlink:title=" ">
<polygon fill="#e0e0e0" stroke="#999999" points="72.31,-72 26.15,-72 26.15,-54 72.31,-54 72.31,-72"/>
<text text-anchor="middle" x="49.23" y="-60" font-family="Helvetica,sans-Serif" font-size="10.00">chrono</text>
</a>
</g>
</g>
<!-- Node16&#45;&gt;Node17 -->
<g id="edge23_Node000016_Node000017" class="edge">
<title>Node16&#45;&gt;Node17</title>
<g id="a_edge23_Node000016_Node000017"><a xlink:title=" ">
<path fill="none" stroke="#63b8ff" d="M49.23,-107.88C49.23,-101.05 49.23,-91.03 49.23,-82.29"/>
<polygon fill="#63b8ff" stroke="#63b8ff" points="52.73,-82.24 49.23,-72.24 45.73,-82.24 52.73,-82.24"/>
</a>
</g>
</g>
<!-- Node18&#45;&gt;Node4 -->
<g id="edge27_Node000018_Node000004" class="edge">
<title>Node18&#45;&gt;Node4</title>
<g id="a_edge27_Node000018_Node000004"><a xlink:title=" ">
<path fill="none" stroke="#63b8ff" d="M483.51,-161.99C460.08,-153.35 422.56,-139.51 395.86,-129.67"/>
<polygon fill="#63b8ff" stroke="#63b8ff" points="396.8,-126.28 386.21,-126.11 394.38,-132.85 396.8,-126.28"/>
</a>
</g>
</g>
<!-- Node18&#45;&gt;Node10 -->
<g id="edge30_Node000018_Node000010" class="edge">
<title>Node18&#45;&gt;Node10</title>
<g id="a_edge30_Node000018_Node000010"><a xlink:title=" ">
<path fill="none" stroke="#63b8ff" d="M505.87,-161.92C507.25,-149.21 511.48,-124.33 524.23,-108 535.06,-94.13 551.59,-83.65 566.18,-76.4"/>
<polygon fill="#63b8ff" stroke="#63b8ff" points="567.82,-79.5 575.41,-72.1 564.86,-73.15 567.82,-79.5"/>
</a>
</g>
</g>
<!-- Node18&#45;&gt;Node11 -->
<g id="edge31_Node000018_Node000011" class="edge">
<title>Node18&#45;&gt;Node11</title>
<g id="a_edge31_Node000018_Node000011"><a xlink:title=" ">
<path fill="none" stroke="#63b8ff" d="M500.4,-161.76C493.97,-149.68 484.19,-126.57 491.23,-108 495.47,-96.83 503.98,-86.68 511.97,-78.95"/>
<polygon fill="#63b8ff" stroke="#63b8ff" points="514.52,-81.37 519.61,-72.08 509.84,-76.16 514.52,-81.37"/>
</a>
</g>
</g>
<!-- Node18&#45;&gt;Node14 -->
<g id="edge32_Node000018_Node000014" class="edge">
<title>Node18&#45;&gt;Node14</title>
<g id="a_edge32_Node000018_Node000014"><a xlink:title=" ">
<path fill="none" stroke="#63b8ff" d="M513.04,-161.88C520.27,-154.36 531.2,-142.99 540.13,-133.71"/>
<polygon fill="#63b8ff" stroke="#63b8ff" points="542.9,-135.87 547.31,-126.24 537.86,-131.02 542.9,-135.87"/>
</a>
</g>
</g>
<!-- Node19 -->
<g id="Node000019" class="node">
<title>Node19</title>
<g id="a_Node000019"><a xlink:title=" ">
<polygon fill="#e0e0e0" stroke="#999999" points="726.54,-126 667.92,-126 667.92,-108 726.54,-108 726.54,-126"/>
<text text-anchor="middle" x="697.23" y="-114" font-family="Helvetica,sans-Serif" font-size="10.00">functional</text>
</a>
</g>
</g>
<!-- Node18&#45;&gt;Node19 -->
<g id="edge28_Node000018_Node000019" class="edge">
<title>Node18&#45;&gt;Node19</title>
<g id="a_edge28_Node000018_Node000019"><a xlink:title=" ">
<path fill="none" stroke="#63b8ff" d="M534.81,-161.99C567.79,-153.06 621.28,-138.57 657.8,-128.68"/>
<polygon fill="#63b8ff" stroke="#63b8ff" points="658.88,-132.01 667.62,-126.02 657.05,-125.26 658.88,-132.01"/>
</a>
</g>
</g>
<!-- Node18&#45;&gt;Node20 -->
<g id="edge29_Node000018_Node000020" class="edge">
<title>Node18&#45;&gt;Node20</title>
<g id="a_edge29_Node000018_Node000020"><a xlink:title=" ">
<path fill="none" stroke="#63b8ff" d="M523.26,-161.99C542.35,-153.5 572.74,-140 594.81,-130.19"/>
<polygon fill="#63b8ff" stroke="#63b8ff" points="596.28,-133.37 603.99,-126.11 593.43,-126.97 596.28,-133.37"/>
</a>
</g>
</g>
<!-- Node21&#45;&gt;Node6 -->
<g id="edge43_Node000021_Node000006" class="edge">
<title>Node21&#45;&gt;Node6</title>
<g id="a_edge43_Node000021_Node000006"><a xlink:title=" ">
<path fill="none" stroke="#63b8ff" d="M899.62,-161.81C888.41,-148.49 864.34,-122.19 838.23,-108 638.69,0.45 559.97,-50.73 335.23,-18 329.04,-17.1 322.41,-16.03 316.13,-14.98"/>
<polygon fill="#63b8ff" stroke="#63b8ff" points="316.5,-11.49 306.05,-13.24 315.32,-18.39 316.5,-11.49"/>
</a>
</g>
</g>
<!-- Node21&#45;&gt;Node7 -->
<g id="edge45_Node000021_Node000007" class="edge">
<title>Node21&#45;&gt;Node7</title>
<g id="a_edge45_Node000021_Node000007"><a xlink:title=" ">
<path fill="none" stroke="#63b8ff" d="M939.99,-169.85C1058.48,-168.99 1450.49,-163.33 1491.23,-126 1518.23,-101.26 1516.72,-54.21 1513.39,-28.28"/>
<polygon fill="#63b8ff" stroke="#63b8ff" points="1516.84,-27.66 1511.89,-18.3 1509.92,-28.71 1516.84,-27.66"/>
</a>
</g>
</g>
<!-- Node21&#45;&gt;Node8 -->
<g id="edge50_Node000021_Node000008" class="edge">
<title>Node21&#45;&gt;Node8</title>
<g id="a_edge50_Node000021_Node000008"><a xlink:title=" ">
<path fill="none" stroke="#63b8ff" d="M907.43,-161.98C910.11,-140.66 914.07,-82.25 882.23,-54 845.68,-21.57 500.28,-12.52 394.72,-10.5"/>
<polygon fill="#63b8ff" stroke="#63b8ff" points="394.78,-7 384.72,-10.32 394.65,-14 394.78,-7"/>
</a>
</g>
</g>
<!-- Node21&#45;&gt;Node10 -->
<g id="edge44_Node000021_Node000010" class="edge">
<title>Node21&#45;&gt;Node10</title>
<g id="a_edge44_Node000021_Node000010"><a xlink:title=" ">
<path fill="none" stroke="#63b8ff" d="M895.8,-161.8C878.31,-148.46 841.5,-122.14 806.23,-108 748.33,-84.79 676.26,-73.08 633.66,-67.78"/>
<polygon fill="#63b8ff" stroke="#63b8ff" points="633.83,-64.28 623.49,-66.57 633.01,-71.23 633.83,-64.28"/>
</a>
</g>
</g>
<!-- Node21&#45;&gt;Node11 -->
<g id="edge46_Node000021_Node000011" class="edge">
<title>Node21&#45;&gt;Node11</title>
<g id="a_edge46_Node000021_Node000011"><a xlink:title=" ">
<path fill="none" stroke="#63b8ff" d="M887.36,-161.88C867.21,-153.17 834.35,-138.84 806.23,-126 789.23,-118.24 786.04,-113.66 768.23,-108 682.68,-80.81 655.04,-90.55 563.56,-72.12"/>
<polygon fill="#63b8ff" stroke="#63b8ff" points="564.11,-68.65 553.61,-70.05 562.69,-75.51 564.11,-68.65"/>
</a>
</g>
</g>
<!-- Node21&#45;&gt;Node12 -->
<g id="edge49_Node000021_Node000012" class="edge">
<title>Node21&#45;&gt;Node12</title>
<g id="a_edge49_Node000021_Node000012"><a xlink:title=" ">
<path fill="none" stroke="#63b8ff" d="M875.2,-161.94C846.82,-154.14 803.96,-141.27 768.23,-126 752.87,-119.43 751.06,-113.34 735.23,-108 637.23,-74.97 605,-89.77 498.44,-71.9"/>
<polygon fill="#63b8ff" stroke="#63b8ff" points="499.04,-68.45 488.59,-70.19 497.84,-75.35 499.04,-68.45"/>
</a>
</g>
</g>
<!-- Node21&#45;&gt;Node14 -->
<g id="edge53_Node000021_Node000014" class="edge">
<title>Node21&#45;&gt;Node14</title>
<g id="a_edge53_Node000021_Node000014"><a xlink:title=" ">
<path fill="none" stroke="#63b8ff" d="M872.39,-166.65C815.48,-160.74 696.88,-147.21 587.09,-125.94"/>
<polygon fill="#63b8ff" stroke="#63b8ff" points="587.66,-122.49 577.18,-124 586.31,-129.36 587.66,-122.49"/>
</a>
</g>
</g>
<!-- Node21&#45;&gt;Node19 -->
<g id="edge41_Node000021_Node000019" class="edge">
<title>Node21&#45;&gt;Node19</title>
<g id="a_edge41_Node000021_Node000019"><a xlink:title=" ">
<path fill="none" stroke="#63b8ff" d="M874.03,-161.99C837.06,-152.79 776.4,-137.7 736.64,-127.81"/>
<polygon fill="#63b8ff" stroke="#63b8ff" points="737.31,-124.37 726.76,-125.35 735.62,-131.16 737.31,-124.37"/>
</a>
</g>
</g>
<!-- Node21&#45;&gt;Node20 -->
<g id="edge42_Node000021_Node000020" class="edge">
<title>Node21&#45;&gt;Node20</title>
<g id="a_edge42_Node000021_Node000020"><a xlink:title=" ">
<path fill="none" stroke="#63b8ff" d="M872.2,-164.34C826.36,-156.64 742.01,-142.14 659.71,-126.03"/>
<polygon fill="#63b8ff" stroke="#63b8ff" points="660.18,-122.55 649.69,-124.05 658.82,-129.42 660.18,-122.55"/>
</a>
</g>
</g>
<!-- Node22 -->
<g id="Node000022" class="node">
<title>Node22</title>
<g id="a_Node000022"><a xlink:title=" ">
<polygon fill="#e0e0e0" stroke="#999999" points="1068.65,-126 933.82,-126 933.82,-108 1068.65,-108 1068.65,-126"/>
<text text-anchor="middle" x="1001.23" y="-114" font-family="Helvetica,sans-Serif" font-size="10.00">__ranges/elements_view.h</text>
</a>
</g>
</g>
<!-- Node21&#45;&gt;Node22 -->
<g id="edge38_Node000021_Node000022" class="edge">
<title>Node21&#45;&gt;Node22</title>
<g id="a_edge38_Node000021_Node000022"><a xlink:title=" ">
<path fill="none" stroke="#63b8ff" d="M921.08,-161.88C936.13,-153.63 959.68,-140.74 977.36,-131.07"/>
<polygon fill="#63b8ff" stroke="#63b8ff" points="979.4,-133.94 986.49,-126.07 976.04,-127.8 979.4,-133.94"/>
</a>
</g>
</g>
<!-- Node23 -->
<g id="Node000023" class="node">
<title>Node23</title>
<g id="a_Node000023"><a xlink:title=" ">
<polygon fill="#e0e0e0" stroke="#999999" points="1143.86,-126 1086.6,-126 1086.6,-108 1143.86,-108 1143.86,-126"/>
<text text-anchor="middle" x="1115.23" y="-114" font-family="Helvetica,sans-Serif" font-size="10.00">algorithm</text>
</a>
</g>
</g>
<!-- Node21&#45;&gt;Node23 -->
<g id="edge39_Node000021_Node000023" class="edge">
<title>Node21&#45;&gt;Node23</title>
<g id="a_edge39_Node000021_Node000023"><a xlink:title=" ">
<path fill="none" stroke="#63b8ff" d="M938.43,-161.99C975.61,-152.74 1036.75,-137.53 1076.5,-127.64"/>
<polygon fill="#63b8ff" stroke="#63b8ff" points="1077.51,-130.99 1086.36,-125.18 1075.81,-124.2 1077.51,-130.99"/>
</a>
</g>
</g>
<!-- Node24 -->
<g id="Node000024" class="node">
<title>Node24</title>
<g id="a_Node000024"><a xlink:title=" ">
<polygon fill="#e0e0e0" stroke="#999999" points="1210.46,-126 1162,-126 1162,-108 1210.46,-108 1210.46,-126"/>
<text text-anchor="middle" x="1186.23" y="-114" font-family="Helvetica,sans-Serif" font-size="10.00">cassert</text>
</a>
</g>
</g>
<!-- Node21&#45;&gt;Node24 -->
<g id="edge40_Node000021_Node000024" class="edge">
<title>Node21&#45;&gt;Node24</title>
<g id="a_edge40_Node000021_Node000024"><a xlink:title=" ">
<path fill="none" stroke="#63b8ff" d="M940.32,-164.61C986.22,-157.2 1070.64,-143.06 1151.87,-126.18"/>
<polygon fill="#63b8ff" stroke="#63b8ff" points="1152.69,-129.59 1161.76,-124.11 1151.26,-122.73 1152.69,-129.59"/>
</a>
</g>
</g>
<!-- Node25 -->
<g id="Node000025" class="node">
<title>Node25</title>
<g id="a_Node000025"><a xlink:title=" ">
<polygon fill="#e0e0e0" stroke="#999999" points="1258.07,-126 1228.39,-126 1228.39,-108 1258.07,-108 1258.07,-126"/>
<text text-anchor="middle" x="1243.23" y="-114" font-family="Helvetica,sans-Serif" font-size="10.00">set</text>
</a>
</g>
</g>
<!-- Node21&#45;&gt;Node25 -->
<g id="edge47_Node000021_Node000025" class="edge">
<title>Node21&#45;&gt;Node25</title>
<g id="a_edge47_Node000021_Node000025"><a xlink:title=" ">
<path fill="none" stroke="#63b8ff" d="M939.95,-167.29C995.97,-162.35 1111.78,-150.29 1218.42,-125.75"/>
<polygon fill="#63b8ff" stroke="#63b8ff" points="1219.44,-129.11 1228.37,-123.42 1217.84,-122.29 1219.44,-129.11"/>
</a>
</g>
</g>
<!-- Node26 -->
<g id="Node000026" class="node">
<title>Node26</title>
<g id="a_Node000026"><a xlink:title=" ">
<polygon fill="#e0e0e0" stroke="#999999" points="1362.28,-126 1276.19,-126 1276.19,-108 1362.28,-108 1362.28,-126"/>
<text text-anchor="middle" x="1319.23" y="-114" font-family="Helvetica,sans-Serif" font-size="10.00">source_location</text>
</a>
</g>
</g>
<!-- Node21&#45;&gt;Node26 -->
<g id="edge48_Node000021_Node000026" class="edge">
<title>Node21&#45;&gt;Node26</title>
<g id="a_edge48_Node000021_Node000026"><a xlink:title=" ">
<path fill="none" stroke="#63b8ff" d="M940.12,-166.23C1002.44,-159.22 1139.66,-143.41 1265.89,-126.15"/>
<polygon fill="#63b8ff" stroke="#63b8ff" points="1266.69,-129.57 1276.12,-124.74 1265.73,-122.63 1266.69,-129.57"/>
</a>
</g>
</g>
<!-- Node27 -->
<g id="Node000027" class="node">
<title>Node27</title>
<g id="a_Node000027"><a xlink:title=" ">
<polygon fill="#e0e0e0" stroke="#999999" points="1417.92,-126 1380.55,-126 1380.55,-108 1417.92,-108 1417.92,-126"/>
<text text-anchor="middle" x="1399.23" y="-114" font-family="Helvetica,sans-Serif" font-size="10.00">tuple</text>
</a>
</g>
</g>
<!-- Node21&#45;&gt;Node27 -->
<g id="edge51_Node000021_Node000027" class="edge">
<title>Node21&#45;&gt;Node27</title>
<g id="a_edge51_Node000021_Node000027"><a xlink:title=" ">
<path fill="none" stroke="#63b8ff" d="M940.08,-168.93C1015.7,-166.08 1204.11,-156.47 1370.45,-125.76"/>
<polygon fill="#63b8ff" stroke="#63b8ff" points="1371.18,-129.18 1380.37,-123.9 1369.89,-122.3 1371.18,-129.18"/>
</a>
</g>
</g>
<!-- Node28 -->
<g id="Node000028" class="node">
<title>Node28</title>
<g id="a_Node000028"><a xlink:title=" ">
<polygon fill="#e0e0e0" stroke="#999999" points="1482.25,-126 1436.22,-126 1436.22,-108 1482.25,-108 1482.25,-126"/>
<text text-anchor="middle" x="1459.23" y="-114" font-family="Helvetica,sans-Serif" font-size="10.00">variant</text>
</a>
</g>
</g>
<!-- Node21&#45;&gt;Node28 -->
<g id="edge52_Node000021_Node000028" class="edge">
<title>Node21&#45;&gt;Node28</title>
<g id="a_edge52_Node000021_Node000028"><a xlink:title=" ">
<path fill="none" stroke="#63b8ff" d="M939.99,-169.03C1021.81,-166.27 1237.25,-156.62 1425.81,-125.96"/>
<polygon fill="#63b8ff" stroke="#63b8ff" points="1426.61,-129.37 1435.9,-124.29 1425.47,-122.47 1426.61,-129.37"/>
</a>
</g>
</g>
</g>
</svg>
