<?xml version="1.0" encoding="UTF-8" standalone="no"?>
<!DOCTYPE svg PUBLIC "-//W3C//DTD SVG 1.1//EN"
 "http://www.w3.org/Graphics/SVG/1.1/DTD/svg11.dtd">
<!-- Generated by graphviz version 2.48.0 (20210717.1556)
 -->
<!-- Title: main Pages: 1 -->
<svg width="641pt" height="128pt"
 viewBox="0.00 0.00 641.12 128.00" xmlns="http://www.w3.org/2000/svg" xmlns:xlink="http://www.w3.org/1999/xlink">
<g id="graph0" class="graph" transform="scale(1 1) rotate(0) translate(4 124)">
<title>main</title>
<!-- Node1 -->
<g id="Node000001" class="node">
<title>Node1</title>
<g id="a_Node000001"><a xlink:title=" ">
<polygon fill="#999999" stroke="#666666" points="37.51,-51 0.16,-51 0.16,-33 37.51,-33 37.51,-51"/>
<text text-anchor="middle" x="18.84" y="-39" font-family="Helvetica,sans-Serif" font-size="10.00">main</text>
</a>
</g>
</g>
<!-- Node2 -->
<g id="Node000002" class="node">
<title>Node2</title>
<g id="a_Node000002"><a xlink:href="namespaceepub.html#aa43689073ca465e36f86c08fed102987" target="_top" xlink:title="Common options for EPUB command&#45;line utilities.">
<polygon fill="white" stroke="#666666" points="197.78,-69 77.87,-69 77.87,-51 197.78,-51 197.78,-69"/>
<text text-anchor="middle" x="137.83" y="-57" font-family="Helvetica,sans-Serif" font-size="10.00">epub::common_options</text>
</a>
</g>
</g>
<!-- Node1&#45;&gt;Node2 -->
<g id="edge1_Node000001_Node000002" class="edge">
<title>Node1&#45;&gt;Node2</title>
<g id="a_edge1_Node000001_Node000002"><a xlink:title=" ">
<path fill="none" stroke="#63b8ff" d="M37.61,-44.73C46.11,-46.04 56.89,-47.7 68.2,-49.44"/>
<polygon fill="#63b8ff" stroke="#63b8ff" points="67.8,-52.92 78.22,-50.98 68.87,-46 67.8,-52.92"/>
</a>
</g>
</g>
<!-- Node8 -->
<g id="Node000008" class="node">
<title>Node8</title>
<g id="a_Node000008"><a xlink:href="classepub_1_1container.html#a744c29b0aa74a35021828ba4d7bdb3ce" target="_top" xlink:title="The package document.">
<polygon fill="white" stroke="#666666" points="202.13,-33 73.52,-33 73.52,-15 202.13,-15 202.13,-33"/>
<text text-anchor="middle" x="137.83" y="-21" font-family="Helvetica,sans-Serif" font-size="10.00">epub::container::package</text>
</a>
</g>
</g>
<!-- Node1&#45;&gt;Node8 -->
<g id="edge9_Node000001_Node000008" class="edge">
<title>Node1&#45;&gt;Node8</title>
<g id="a_edge9_Node000001_Node000008"><a xlink:title=" ">
<path fill="none" stroke="#63b8ff" d="M37.61,-39.27C46.11,-37.96 56.89,-36.3 68.2,-34.56"/>
<polygon fill="#63b8ff" stroke="#63b8ff" points="68.87,-38 78.22,-33.02 67.8,-31.08 68.87,-38"/>
</a>
</g>
</g>
<!-- Node3 -->
<g id="Node000003" class="node">
<title>Node3</title>
<g id="a_Node000003"><a xlink:href="classcli_1_1option__processor.html#a1beb9030eaaccca08a3e71378c66be4c" target="_top" xlink:title=" ">
<polygon fill="white" stroke="#666666" points="345.55,-120 238.12,-120 238.12,-92 345.55,-92 345.55,-120"/>
<text text-anchor="start" x="245.98" y="-108" font-family="Helvetica,sans-Serif" font-size="10.00">cli::option_processor</text>
<text text-anchor="middle" x="291.84" y="-98" font-family="Helvetica,sans-Serif" font-size="10.00">::add_flag</text>
</a>
</g>
</g>
<!-- Node2&#45;&gt;Node3 -->
<g id="edge2_Node000002_Node000003" class="edge">
<title>Node2&#45;&gt;Node3</title>
<g id="a_edge2_Node000002_Node000003"><a xlink:title=" ">
<path fill="none" stroke="#63b8ff" d="M168.86,-69.09C187.63,-74.77 212.38,-82.26 234.69,-89.01"/>
<polygon fill="#63b8ff" stroke="#63b8ff" points="233.82,-92.4 244.4,-91.95 235.84,-85.7 233.82,-92.4"/>
</a>
</g>
</g>
<!-- Node6 -->
<g id="Node000006" class="node">
<title>Node6</title>
<g id="a_Node000006"><a xlink:href="classcli_1_1option__processor.html#a7e490c083572fb89a9d7c559c95eab73" target="_top" xlink:title=" ">
<polygon fill="white" stroke="#666666" points="345.55,-74 238.12,-74 238.12,-46 345.55,-46 345.55,-74"/>
<text text-anchor="start" x="245.98" y="-62" font-family="Helvetica,sans-Serif" font-size="10.00">cli::option_processor</text>
<text text-anchor="middle" x="291.84" y="-52" font-family="Helvetica,sans-Serif" font-size="10.00">::add_option</text>
</a>
</g>
</g>
<!-- Node2&#45;&gt;Node6 -->
<g id="edge6_Node000002_Node000006" class="edge">
<title>Node2&#45;&gt;Node6</title>
<g id="a_edge6_Node000002_Node000006"><a xlink:title=" ">
<path fill="none" stroke="#63b8ff" d="M198.03,-60C207.81,-60 217.97,-60 227.84,-60"/>
<polygon fill="#63b8ff" stroke="#63b8ff" points="227.98,-63.5 237.98,-60 227.98,-56.5 227.98,-63.5"/>
</a>
</g>
</g>
<!-- Node7 -->
<g id="Node000007" class="node">
<title>Node7</title>
<g id="a_Node000007"><a xlink:href="classcli_1_1option__processor.html#a02399e5ea59c24143752d5345de45e83" target="_top" xlink:title=" ">
<polygon fill="white" stroke="#666666" points="345.55,-28 238.12,-28 238.12,0 345.55,0 345.55,-28"/>
<text text-anchor="start" x="245.98" y="-16" font-family="Helvetica,sans-Serif" font-size="10.00">cli::option_processor</text>
<text text-anchor="middle" x="291.84" y="-6" font-family="Helvetica,sans-Serif" font-size="10.00">::synopsis</text>
</a>
</g>
</g>
<!-- Node2&#45;&gt;Node7 -->
<g id="edge8_Node000002_Node000007" class="edge">
<title>Node2&#45;&gt;Node7</title>
<g id="a_edge8_Node000002_Node000007"><a xlink:title=" ">
<path fill="none" stroke="#63b8ff" d="M171.33,-50.92C181.19,-48.12 192.04,-44.98 201.98,-42 213.48,-38.55 225.78,-34.75 237.45,-31.09"/>
<polygon fill="#63b8ff" stroke="#63b8ff" points="238.58,-34.4 247.07,-28.05 236.48,-27.72 238.58,-34.4"/>
</a>
</g>
</g>
<!-- Node4 -->
<g id="Node000004" class="node">
<title>Node4</title>
<g id="a_Node000004"><a xlink:href="classcli_1_1option__processor.html#a46aa5749ada745f8fa0e8188d317c590" target="_top" xlink:title=" ">
<polygon fill="white" stroke="#666666" points="489.26,-97 381.84,-97 381.84,-69 489.26,-69 489.26,-97"/>
<text text-anchor="start" x="389.69" y="-85" font-family="Helvetica,sans-Serif" font-size="10.00">cli::option_processor</text>
<text text-anchor="middle" x="435.55" y="-75" font-family="Helvetica,sans-Serif" font-size="10.00">::usage</text>
</a>
</g>
</g>
<!-- Node3&#45;&gt;Node4 -->
<g id="edge3_Node000003_Node000004" class="edge">
<title>Node3&#45;&gt;Node4</title>
<g id="a_edge3_Node000003_Node000004"><a xlink:title=" ">
<path fill="none" stroke="#63b8ff" d="M345.61,-97.44C354.09,-96.06 362.94,-94.62 371.64,-93.21"/>
<polygon fill="#63b8ff" stroke="#63b8ff" points="372.43,-96.63 381.74,-91.57 371.31,-89.72 372.43,-96.63"/>
</a>
</g>
</g>
<!-- Node5 -->
<g id="Node000005" class="node">
<title>Node5</title>
<g id="a_Node000005"><a xlink:href="classcli_1_1option__processor.html#a963a0b0a7cf5bf1d738f5d8d290d0ec1" target="_top" xlink:title=" ">
<polygon fill="white" stroke="#666666" points="632.98,-97 525.55,-97 525.55,-69 632.98,-69 632.98,-97"/>
<text text-anchor="start" x="533.41" y="-85" font-family="Helvetica,sans-Serif" font-size="10.00">cli::option_processor</text>
<text text-anchor="middle" x="579.26" y="-75" font-family="Helvetica,sans-Serif" font-size="10.00">::wrap</text>
</a>
</g>
</g>
<!-- Node4&#45;&gt;Node5 -->
<g id="edge4_Node000004_Node000005" class="edge">
<title>Node4&#45;&gt;Node5</title>
<g id="a_edge4_Node000004_Node000005"><a xlink:title=" ">
<path fill="none" stroke="#63b8ff" d="M489.32,-83C497.8,-83 506.66,-83 515.35,-83"/>
<polygon fill="#63b8ff" stroke="#63b8ff" points="515.45,-86.5 525.45,-83 515.45,-79.5 515.45,-86.5"/>
</a>
</g>
</g>
<!-- Node5&#45;&gt;Node5 -->
<g id="edge5_Node000005_Node000005" class="edge">
<title>Node5&#45;&gt;Node5</title>
<g id="a_edge5_Node000005_Node000005"><a xlink:title=" ">
<path fill="none" stroke="#63b8ff" d="M554.75,-97.15C548.35,-106.24 556.52,-115 579.26,-115 593.12,-115 601.57,-111.75 604.61,-107.15"/>
<polygon fill="#63b8ff" stroke="#63b8ff" points="608.09,-106.83 603.78,-97.15 601.12,-107.4 608.09,-106.83"/>
</a>
</g>
</g>
<!-- Node6&#45;&gt;Node4 -->
<g id="edge7_Node000006_Node000004" class="edge">
<title>Node6&#45;&gt;Node4</title>
<g id="a_edge7_Node000006_Node000004"><a xlink:title=" ">
<path fill="none" stroke="#63b8ff" d="M345.61,-68.56C354.09,-69.94 362.94,-71.38 371.64,-72.79"/>
<polygon fill="#63b8ff" stroke="#63b8ff" points="371.31,-76.28 381.74,-74.43 372.43,-69.37 371.31,-76.28"/>
</a>
</g>
</g>
</g>
</svg>
