<?xml version="1.0" encoding="UTF-8" standalone="no"?>
<!DOCTYPE svg PUBLIC "-//W3C//DTD SVG 1.1//EN"
 "http://www.w3.org/Graphics/SVG/1.1/DTD/svg11.dtd">
<!-- Generated by graphviz version 2.48.0 (20210717.1556)
 -->
<!-- Title: binder.cpp Pages: 1 -->
<svg width="1682pt" height="296pt"
 viewBox="0.00 0.00 1682.16 296.00" xmlns="http://www.w3.org/2000/svg" xmlns:xlink="http://www.w3.org/1999/xlink">
<g id="graph0" class="graph" transform="scale(1 1) rotate(0) translate(4 292)">
<title>binder.cpp</title>
<!-- Node1 -->
<g id="Node000001" class="node">
<title>Node1</title>
<g id="a_Node000001"><a xlink:title=" ">
<polygon fill="#999999" stroke="#666666" points="1154.3,-288 1091.99,-288 1091.99,-270 1154.3,-270 1154.3,-288"/>
<text text-anchor="middle" x="1123.15" y="-276" font-family="Helvetica,sans-Serif" font-size="10.00">binder.cpp</text>
</a>
</g>
</g>
<!-- Node2 -->
<g id="Node000002" class="node">
<title>Node2</title>
<g id="a_Node000002"><a xlink:href="container_8hpp.html" target="_top" xlink:title=" ">
<polygon fill="white" stroke="#666666" points="165.2,-234 89.09,-234 89.09,-216 165.2,-216 165.2,-234"/>
<text text-anchor="middle" x="127.15" y="-222" font-family="Helvetica,sans-Serif" font-size="10.00">container.hpp</text>
</a>
</g>
</g>
<!-- Node1&#45;&gt;Node2 -->
<g id="edge1_Node000001_Node000002" class="edge">
<title>Node1&#45;&gt;Node2</title>
<g id="a_edge1_Node000001_Node000002"><a xlink:title=" ">
<path fill="none" stroke="#63b8ff" d="M1091.97,-276.37C948.43,-268.88 350.76,-237.67 175.59,-228.53"/>
<polygon fill="#63b8ff" stroke="#63b8ff" points="175.56,-225.02 165.39,-228 175.2,-232.01 175.56,-225.02"/>
</a>
</g>
</g>
<!-- Node7 -->
<g id="Node000007" class="node">
<title>Node7</title>
<g id="a_Node000007"><a xlink:title=" ">
<polygon fill="#e0e0e0" stroke="#999999" points="1371.67,-18 1320.62,-18 1320.62,0 1371.67,0 1371.67,-18"/>
<text text-anchor="middle" x="1346.15" y="-6" font-family="Helvetica,sans-Serif" font-size="10.00">optional</text>
</a>
</g>
</g>
<!-- Node1&#45;&gt;Node7 -->
<g id="edge54_Node000001_Node000007" class="edge">
<title>Node1&#45;&gt;Node7</title>
<g id="a_edge54_Node000001_Node000007"><a xlink:title=" ">
<path fill="none" stroke="#63b8ff" d="M1154.47,-276.33C1247.9,-270.51 1518.15,-247.17 1518.15,-172 1518.15,-172 1518.15,-172 1518.15,-116 1518.15,-87.18 1519.7,-74.2 1499.15,-54 1467.79,-23.19 1416.34,-13.68 1381.87,-10.89"/>
<polygon fill="#63b8ff" stroke="#63b8ff" points="1381.96,-7.39 1371.75,-10.23 1381.5,-14.38 1381.96,-7.39"/>
</a>
</g>
</g>
<!-- Node9 -->
<g id="Node000009" class="node">
<title>Node9</title>
<g id="a_Node000009"><a xlink:title=" ">
<polygon fill="#e0e0e0" stroke="#999999" points="80.6,-72 19.69,-72 19.69,-54 80.6,-54 80.6,-72"/>
<text text-anchor="middle" x="50.15" y="-60" font-family="Helvetica,sans-Serif" font-size="10.00">filesystem</text>
</a>
</g>
</g>
<!-- Node1&#45;&gt;Node9 -->
<g id="edge52_Node000001_Node000009" class="edge">
<title>Node1&#45;&gt;Node9</title>
<g id="a_edge52_Node000001_Node000009"><a xlink:title=" ">
<path fill="none" stroke="#63b8ff" d="M1091.84,-277.74C922.25,-276.22 119.9,-267.29 80.15,-234 35.36,-196.5 41.38,-117.56 46.8,-82.02"/>
<polygon fill="#63b8ff" stroke="#63b8ff" points="50.26,-82.55 48.48,-72.11 43.36,-81.39 50.26,-82.55"/>
</a>
</g>
</g>
<!-- Node13 -->
<g id="Node000013" class="node">
<title>Node13</title>
<g id="a_Node000013"><a xlink:href="metadata_8hpp.html" target="_top" xlink:title=" ">
<polygon fill="white" stroke="#666666" points="523.8,-126 446.49,-126 446.49,-108 523.8,-108 523.8,-126"/>
<text text-anchor="middle" x="485.15" y="-114" font-family="Helvetica,sans-Serif" font-size="10.00">metadata.hpp</text>
</a>
</g>
</g>
<!-- Node1&#45;&gt;Node13 -->
<g id="edge49_Node000001_Node000013" class="edge">
<title>Node1&#45;&gt;Node13</title>
<g id="a_edge49_Node000001_Node000013"><a xlink:title=" ">
<path fill="none" stroke="#63b8ff" d="M1091.84,-275.53C1009.68,-268.32 781.99,-243.65 604.15,-180 568.29,-167.17 529.7,-145.44 506.49,-131.41"/>
<polygon fill="#63b8ff" stroke="#63b8ff" points="508.18,-128.34 497.82,-126.1 504.52,-134.31 508.18,-128.34"/>
</a>
</g>
</g>
<!-- Node19 -->
<g id="Node000019" class="node">
<title>Node19</title>
<g id="a_Node000019"><a xlink:href="epub__options_8hpp.html" target="_top" xlink:title=" ">
<polygon fill="white" stroke="#666666" points="708.66,-180 613.63,-180 613.63,-162 708.66,-162 708.66,-180"/>
<text text-anchor="middle" x="661.15" y="-168" font-family="Helvetica,sans-Serif" font-size="10.00">epub_options.hpp</text>
</a>
</g>
</g>
<!-- Node1&#45;&gt;Node19 -->
<g id="edge26_Node000001_Node000019" class="edge">
<title>Node1&#45;&gt;Node19</title>
<g id="a_edge26_Node000001_Node000019"><a xlink:title=" ">
<path fill="none" stroke="#63b8ff" d="M1091.75,-270.8C1011.69,-252.43 799.63,-203.77 706.31,-182.36"/>
<polygon fill="#63b8ff" stroke="#63b8ff" points="706.86,-178.9 696.33,-180.07 705.29,-185.72 706.86,-178.9"/>
</a>
</g>
</g>
<!-- Node20 -->
<g id="Node000020" class="node">
<title>Node20</title>
<g id="a_Node000020"><a xlink:href="options_8hpp.html" target="_top" xlink:title=" ">
<polygon fill="white" stroke="#666666" points="1027.86,-126 960.44,-126 960.44,-108 1027.86,-108 1027.86,-126"/>
<text text-anchor="middle" x="994.15" y="-114" font-family="Helvetica,sans-Serif" font-size="10.00">options.hpp</text>
</a>
</g>
</g>
<!-- Node1&#45;&gt;Node20 -->
<g id="edge50_Node000001_Node000020" class="edge">
<title>Node1&#45;&gt;Node20</title>
<g id="a_edge50_Node000001_Node000020"><a xlink:title=" ">
<path fill="none" stroke="#63b8ff" d="M1116.57,-269.85C1096.3,-244.71 1034.52,-168.08 1007.28,-134.29"/>
<polygon fill="#63b8ff" stroke="#63b8ff" points="1009.86,-131.92 1000.86,-126.33 1004.41,-136.31 1009.86,-131.92"/>
</a>
</g>
</g>
<!-- Node24 -->
<g id="Node000024" class="node">
<title>Node24</title>
<g id="a_Node000024"><a xlink:title=" ">
<polygon fill="#e0e0e0" stroke="#999999" points="1428.49,-72 1373.8,-72 1373.8,-54 1428.49,-54 1428.49,-72"/>
<text text-anchor="middle" x="1401.15" y="-60" font-family="Helvetica,sans-Serif" font-size="10.00">iostream</text>
</a>
</g>
</g>
<!-- Node1&#45;&gt;Node24 -->
<g id="edge53_Node000001_Node000024" class="edge">
<title>Node1&#45;&gt;Node24</title>
<g id="a_edge53_Node000001_Node000024"><a xlink:title=" ">
<path fill="none" stroke="#63b8ff" d="M1133.7,-269.87C1175.42,-237.76 1329.07,-119.49 1382.6,-78.27"/>
<polygon fill="#63b8ff" stroke="#63b8ff" points="1384.79,-81.01 1390.58,-72.14 1380.52,-75.46 1384.79,-81.01"/>
</a>
</g>
</g>
<!-- Node29 -->
<g id="Node000029" class="node">
<title>Node29</title>
<g id="a_Node000029"><a xlink:title=" ">
<polygon fill="#e0e0e0" stroke="#999999" points="1489.88,-72 1446.41,-72 1446.41,-54 1489.88,-54 1489.88,-72"/>
<text text-anchor="middle" x="1468.15" y="-60" font-family="Helvetica,sans-Serif" font-size="10.00">vector</text>
</a>
</g>
</g>
<!-- Node1&#45;&gt;Node29 -->
<g id="edge56_Node000001_Node000029" class="edge">
<title>Node1&#45;&gt;Node29</title>
<g id="a_edge56_Node000001_Node000029"><a xlink:title=" ">
<path fill="none" stroke="#63b8ff" d="M1140.03,-269.89C1157.38,-261.41 1185.04,-247.49 1208.15,-234 1300.14,-180.3 1404.94,-108.27 1448.04,-78.16"/>
<polygon fill="#63b8ff" stroke="#63b8ff" points="1450.31,-80.84 1456.49,-72.23 1446.3,-75.1 1450.31,-80.84"/>
</a>
</g>
</g>
<!-- Node33 -->
<g id="Node000033" class="node">
<title>Node33</title>
<g id="a_Node000033"><a xlink:title=" ">
<polygon fill="#e0e0e0" stroke="#999999" points="1590.49,-234 1545.8,-234 1545.8,-216 1590.49,-216 1590.49,-234"/>
<text text-anchor="middle" x="1568.15" y="-222" font-family="Helvetica,sans-Serif" font-size="10.00">cstdlib</text>
</a>
</g>
</g>
<!-- Node1&#45;&gt;Node33 -->
<g id="edge51_Node000001_Node000033" class="edge">
<title>Node1&#45;&gt;Node33</title>
<g id="a_edge51_Node000001_Node000033"><a xlink:title=" ">
<path fill="none" stroke="#63b8ff" d="M1154.35,-275.84C1222.98,-270.82 1392.08,-257.02 1532.15,-234 1533.39,-233.8 1534.65,-233.58 1535.93,-233.34"/>
<polygon fill="#63b8ff" stroke="#63b8ff" points="1536.63,-236.77 1545.75,-231.38 1535.26,-229.91 1536.63,-236.77"/>
</a>
</g>
</g>
<!-- Node34 -->
<g id="Node000034" class="node">
<title>Node34</title>
<g id="a_Node000034"><a xlink:title=" ">
<polygon fill="#e0e0e0" stroke="#999999" points="1674.16,-234 1608.13,-234 1608.13,-216 1674.16,-216 1674.16,-234"/>
<text text-anchor="middle" x="1641.15" y="-222" font-family="Helvetica,sans-Serif" font-size="10.00">string_view</text>
</a>
</g>
</g>
<!-- Node1&#45;&gt;Node34 -->
<g id="edge55_Node000001_Node000034" class="edge">
<title>Node1&#45;&gt;Node34</title>
<g id="a_edge55_Node000001_Node000034"><a xlink:title=" ">
<path fill="none" stroke="#63b8ff" d="M1154.45,-276.15C1229.31,-271.51 1424.69,-258.07 1597.68,-234.08"/>
<polygon fill="#63b8ff" stroke="#63b8ff" points="1598.31,-237.52 1607.72,-232.67 1597.33,-230.59 1598.31,-237.52"/>
</a>
</g>
</g>
<!-- Node3 -->
<g id="Node000003" class="node">
<title>Node3</title>
<g id="a_Node000003"><a xlink:href="package_8hpp.html" target="_top" xlink:title=" ">
<polygon fill="white" stroke="#666666" points="249.92,-180 176.37,-180 176.37,-162 249.92,-162 249.92,-180"/>
<text text-anchor="middle" x="213.15" y="-168" font-family="Helvetica,sans-Serif" font-size="10.00">package.hpp</text>
</a>
</g>
</g>
<!-- Node2&#45;&gt;Node3 -->
<g id="edge2_Node000002_Node000003" class="edge">
<title>Node2&#45;&gt;Node3</title>
<g id="a_edge2_Node000002_Node000003"><a xlink:title=" ">
<path fill="none" stroke="#63b8ff" d="M140.58,-215.88C154.09,-207.71 175.14,-194.98 191.09,-185.33"/>
<polygon fill="#63b8ff" stroke="#63b8ff" points="193.06,-188.24 199.8,-180.07 189.43,-182.25 193.06,-188.24"/>
</a>
</g>
</g>
<!-- Node6 -->
<g id="Node000006" class="node">
<title>Node6</title>
<g id="a_Node000006"><a xlink:title=" ">
<polygon fill="#e0e0e0" stroke="#999999" points="164.1,-18 128.19,-18 128.19,0 164.1,0 164.1,-18"/>
<text text-anchor="middle" x="146.15" y="-6" font-family="Helvetica,sans-Serif" font-size="10.00">map</text>
</a>
</g>
</g>
<!-- Node2&#45;&gt;Node6 -->
<g id="edge24_Node000002_Node000006" class="edge">
<title>Node2&#45;&gt;Node6</title>
<g id="a_edge24_Node000002_Node000006"><a xlink:title=" ">
<path fill="none" stroke="#63b8ff" d="M113.82,-215.92C74.89,-191.3 -33.25,-115.16 11.15,-54 35.6,-20.3 86.56,-11.92 118.39,-10.11"/>
<polygon fill="#63b8ff" stroke="#63b8ff" points="118.54,-13.61 128.39,-9.73 118.26,-6.62 118.54,-13.61"/>
</a>
</g>
</g>
<!-- Node2&#45;&gt;Node9 -->
<g id="edge23_Node000002_Node000009" class="edge">
<title>Node2&#45;&gt;Node9</title>
<g id="a_edge23_Node000002_Node000009"><a xlink:title=" ">
<path fill="none" stroke="#63b8ff" d="M117.63,-215.8C108.62,-207.58 95.3,-194.13 87.15,-180 68.72,-148.06 58.22,-105.78 53.41,-82.09"/>
<polygon fill="#63b8ff" stroke="#63b8ff" points="56.81,-81.24 51.49,-72.08 49.93,-82.56 56.81,-81.24"/>
</a>
</g>
</g>
<!-- Node18 -->
<g id="Node000018" class="node">
<title>Node18</title>
<g id="a_Node000018"><a xlink:title=" ">
<polygon fill="#e0e0e0" stroke="#999999" points="158.28,-180 96.01,-180 96.01,-162 158.28,-162 158.28,-180"/>
<text text-anchor="middle" x="127.15" y="-168" font-family="Helvetica,sans-Serif" font-size="10.00">type_traits</text>
</a>
</g>
</g>
<!-- Node2&#45;&gt;Node18 -->
<g id="edge25_Node000002_Node000018" class="edge">
<title>Node2&#45;&gt;Node18</title>
<g id="a_edge25_Node000002_Node000018"><a xlink:title=" ">
<path fill="none" stroke="#63b8ff" d="M127.15,-215.88C127.15,-209.05 127.15,-199.03 127.15,-190.29"/>
<polygon fill="#63b8ff" stroke="#63b8ff" points="130.65,-190.24 127.15,-180.24 123.65,-190.24 130.65,-190.24"/>
</a>
</g>
</g>
<!-- Node4 -->
<g id="Node000004" class="node">
<title>Node4</title>
<g id="a_Node000004"><a xlink:href="manifest__item_8hpp.html" target="_top" xlink:title=" ">
<polygon fill="white" stroke="#666666" points="339.85,-126 242.44,-126 242.44,-108 339.85,-108 339.85,-126"/>
<text text-anchor="middle" x="291.15" y="-114" font-family="Helvetica,sans-Serif" font-size="10.00">manifest_item.hpp</text>
</a>
</g>
</g>
<!-- Node3&#45;&gt;Node4 -->
<g id="edge3_Node000003_Node000004" class="edge">
<title>Node3&#45;&gt;Node4</title>
<g id="a_edge3_Node000003_Node000004"><a xlink:title=" ">
<path fill="none" stroke="#63b8ff" d="M225.33,-161.88C237.35,-153.86 255.96,-141.46 270.33,-131.88"/>
<polygon fill="#63b8ff" stroke="#63b8ff" points="272.66,-134.53 279.04,-126.07 268.78,-128.7 272.66,-134.53"/>
</a>
</g>
</g>
<!-- Node3&#45;&gt;Node9 -->
<g id="edge22_Node000003_Node000009" class="edge">
<title>Node3&#45;&gt;Node9</title>
<g id="a_edge22_Node000003_Node000009"><a xlink:title=" ">
<path fill="none" stroke="#63b8ff" d="M193.93,-161.91C175.62,-153.87 147.62,-140.63 125.15,-126 103.61,-111.97 81.18,-92.72 66.53,-79.41"/>
<polygon fill="#63b8ff" stroke="#63b8ff" points="68.59,-76.55 58.86,-72.34 63.84,-81.69 68.59,-76.55"/>
</a>
</g>
</g>
<!-- Node3&#45;&gt;Node13 -->
<g id="edge13_Node000003_Node000013" class="edge">
<title>Node3&#45;&gt;Node13</title>
<g id="a_edge13_Node000003_Node000013"><a xlink:title=" ">
<path fill="none" stroke="#63b8ff" d="M249.83,-162.99C298.05,-153.77 382.91,-137.54 436.47,-127.31"/>
<polygon fill="#63b8ff" stroke="#63b8ff" points="437.25,-130.72 446.41,-125.4 435.93,-123.84 437.25,-130.72"/>
</a>
</g>
</g>
<!-- Node17 -->
<g id="Node000017" class="node">
<title>Node17</title>
<g id="a_Node000017"><a xlink:href="xml_8hpp.html" target="_top" xlink:title=" ">
<polygon fill="white" stroke="#666666" points="185.66,-126 134.63,-126 134.63,-108 185.66,-108 185.66,-126"/>
<text text-anchor="middle" x="160.15" y="-114" font-family="Helvetica,sans-Serif" font-size="10.00">xml.hpp</text>
</a>
</g>
</g>
<!-- Node3&#45;&gt;Node17 -->
<g id="edge19_Node000003_Node000017" class="edge">
<title>Node3&#45;&gt;Node17</title>
<g id="a_edge19_Node000003_Node000017"><a xlink:title=" ">
<path fill="none" stroke="#63b8ff" d="M204.86,-161.88C197.13,-154.29 185.39,-142.76 175.87,-133.43"/>
<polygon fill="#63b8ff" stroke="#63b8ff" points="178.13,-130.74 168.54,-126.24 173.23,-135.74 178.13,-130.74"/>
</a>
</g>
</g>
<!-- Node5 -->
<g id="Node000005" class="node">
<title>Node5</title>
<g id="a_Node000005"><a xlink:href="file__metadata_8hpp.html" target="_top" xlink:title=" ">
<polygon fill="white" stroke="#666666" points="231.65,-72 136.64,-72 136.64,-54 231.65,-54 231.65,-72"/>
<text text-anchor="middle" x="184.15" y="-60" font-family="Helvetica,sans-Serif" font-size="10.00">file_metadata.hpp</text>
</a>
</g>
</g>
<!-- Node4&#45;&gt;Node5 -->
<g id="edge4_Node000004_Node000005" class="edge">
<title>Node4&#45;&gt;Node5</title>
<g id="a_edge4_Node000004_Node000005"><a xlink:title=" ">
<path fill="none" stroke="#63b8ff" d="M274.43,-107.88C257.15,-99.48 229.96,-86.27 209.93,-76.53"/>
<polygon fill="#63b8ff" stroke="#63b8ff" points="211.27,-73.29 200.75,-72.07 208.21,-79.59 211.27,-73.29"/>
</a>
</g>
</g>
<!-- Node4&#45;&gt;Node6 -->
<g id="edge9_Node000004_Node000006" class="edge">
<title>Node4&#45;&gt;Node6</title>
<g id="a_edge9_Node000004_Node000006"><a xlink:title=" ">
<path fill="none" stroke="#63b8ff" d="M242.03,-109.46C198.98,-102.59 141.14,-90.24 127.15,-72 116.9,-58.65 125.1,-39.74 133.7,-26.33"/>
<polygon fill="#63b8ff" stroke="#63b8ff" points="136.62,-28.25 139.49,-18.05 130.89,-24.24 136.62,-28.25"/>
</a>
</g>
</g>
<!-- Node4&#45;&gt;Node9 -->
<g id="edge8_Node000004_Node000009" class="edge">
<title>Node4&#45;&gt;Node9</title>
<g id="a_edge8_Node000004_Node000009"><a xlink:title=" ">
<path fill="none" stroke="#63b8ff" d="M254.02,-107.99C209.7,-98.43 135.89,-82.5 90.28,-72.66"/>
<polygon fill="#63b8ff" stroke="#63b8ff" points="90.96,-69.23 80.45,-70.54 89.48,-76.07 90.96,-69.23"/>
</a>
</g>
</g>
<!-- Node10 -->
<g id="Node000010" class="node">
<title>Node10</title>
<g id="a_Node000010"><a xlink:title=" ">
<polygon fill="#e0e0e0" stroke="#999999" points="583.26,-72 531.03,-72 531.03,-54 583.26,-54 583.26,-72"/>
<text text-anchor="middle" x="557.15" y="-60" font-family="Helvetica,sans-Serif" font-size="10.00">memory</text>
</a>
</g>
</g>
<!-- Node4&#45;&gt;Node10 -->
<g id="edge10_Node000004_Node000010" class="edge">
<title>Node4&#45;&gt;Node10</title>
<g id="a_edge10_Node000004_Node000010"><a xlink:title=" ">
<path fill="none" stroke="#63b8ff" d="M335.96,-107.96C380.47,-99.87 450.93,-86.76 520.92,-72.2"/>
<polygon fill="#63b8ff" stroke="#63b8ff" points="521.72,-75.6 530.79,-70.13 520.29,-68.75 521.72,-75.6"/>
</a>
</g>
</g>
<!-- Node11 -->
<g id="Node000011" class="node">
<title>Node11</title>
<g id="a_Node000011"><a xlink:title=" ">
<polygon fill="#e0e0e0" stroke="#999999" points="373.22,-72 327.07,-72 327.07,-54 373.22,-54 373.22,-72"/>
<text text-anchor="middle" x="350.15" y="-60" font-family="Helvetica,sans-Serif" font-size="10.00">ranges</text>
</a>
</g>
</g>
<!-- Node4&#45;&gt;Node11 -->
<g id="edge11_Node000004_Node000011" class="edge">
<title>Node4&#45;&gt;Node11</title>
<g id="a_edge11_Node000004_Node000011"><a xlink:title=" ">
<path fill="none" stroke="#63b8ff" d="M300.36,-107.88C309.15,-100.14 322.57,-88.3 333.27,-78.87"/>
<polygon fill="#63b8ff" stroke="#63b8ff" points="335.61,-81.48 340.8,-72.24 330.98,-76.23 335.61,-81.48"/>
</a>
</g>
</g>
<!-- Node12 -->
<g id="Node000012" class="node">
<title>Node12</title>
<g id="a_Node000012"><a xlink:title=" ">
<polygon fill="#e0e0e0" stroke="#999999" points="308.45,-72 249.84,-72 249.84,-54 308.45,-54 308.45,-72"/>
<text text-anchor="middle" x="279.15" y="-60" font-family="Helvetica,sans-Serif" font-size="10.00">stdexcept</text>
</a>
</g>
</g>
<!-- Node4&#45;&gt;Node12 -->
<g id="edge12_Node000004_Node000012" class="edge">
<title>Node4&#45;&gt;Node12</title>
<g id="a_edge12_Node000004_Node000012"><a xlink:title=" ">
<path fill="none" stroke="#63b8ff" d="M289.27,-107.88C287.68,-100.97 285.33,-90.81 283.3,-82"/>
<polygon fill="#63b8ff" stroke="#63b8ff" points="286.71,-81.2 281.05,-72.24 279.89,-82.77 286.71,-81.2"/>
</a>
</g>
</g>
<!-- Node5&#45;&gt;Node6 -->
<g id="edge5_Node000005_Node000006" class="edge">
<title>Node5&#45;&gt;Node6</title>
<g id="a_edge5_Node000005_Node000006"><a xlink:title=" ">
<path fill="none" stroke="#63b8ff" d="M178.21,-53.88C172.89,-46.59 164.91,-35.68 158.25,-26.56"/>
<polygon fill="#63b8ff" stroke="#63b8ff" points="160.89,-24.25 152.17,-18.24 155.24,-28.38 160.89,-24.25"/>
</a>
</g>
</g>
<!-- Node5&#45;&gt;Node7 -->
<g id="edge6_Node000005_Node000007" class="edge">
<title>Node5&#45;&gt;Node7</title>
<g id="a_edge6_Node000005_Node000007"><a xlink:title=" ">
<path fill="none" stroke="#63b8ff" d="M231.69,-54.97C234.89,-54.6 238.06,-54.28 241.15,-54 660.47,-16.32 1172.21,-10.91 1310.36,-10.13"/>
<polygon fill="#63b8ff" stroke="#63b8ff" points="1310.4,-13.63 1320.39,-10.08 1310.37,-6.63 1310.4,-13.63"/>
</a>
</g>
</g>
<!-- Node8 -->
<g id="Node000008" class="node">
<title>Node8</title>
<g id="a_Node000008"><a xlink:title=" ">
<polygon fill="#e0e0e0" stroke="#999999" points="742.6,-18 701.69,-18 701.69,0 742.6,0 742.6,-18"/>
<text text-anchor="middle" x="722.15" y="-6" font-family="Helvetica,sans-Serif" font-size="10.00">string</text>
</a>
</g>
</g>
<!-- Node5&#45;&gt;Node8 -->
<g id="edge7_Node000005_Node000008" class="edge">
<title>Node5&#45;&gt;Node8</title>
<g id="a_edge7_Node000005_Node000008"><a xlink:title=" ">
<path fill="none" stroke="#63b8ff" d="M231.71,-55.15C234.9,-54.74 238.07,-54.36 241.15,-54 410.65,-34.36 614.6,-18.14 691.13,-12.32"/>
<polygon fill="#63b8ff" stroke="#63b8ff" points="691.77,-15.78 701.48,-11.53 691.25,-8.8 691.77,-15.78"/>
</a>
</g>
</g>
<!-- Node13&#45;&gt;Node8 -->
<g id="edge17_Node000013_Node000008" class="edge">
<title>Node13&#45;&gt;Node8</title>
<g id="a_edge17_Node000013_Node000008"><a xlink:title=" ">
<path fill="none" stroke="#63b8ff" d="M523.92,-109.11C578.06,-99.24 671.18,-81.24 684.15,-72 699.38,-61.14 709.71,-42.07 715.71,-27.94"/>
<polygon fill="#63b8ff" stroke="#63b8ff" points="719.09,-28.9 719.46,-18.31 712.57,-26.36 719.09,-28.9"/>
</a>
</g>
</g>
<!-- Node13&#45;&gt;Node12 -->
<g id="edge16_Node000013_Node000012" class="edge">
<title>Node13&#45;&gt;Node12</title>
<g id="a_edge16_Node000013_Node000012"><a xlink:title=" ">
<path fill="none" stroke="#63b8ff" d="M453.41,-107.99C417.07,-98.82 357.52,-83.78 318.32,-73.89"/>
<polygon fill="#63b8ff" stroke="#63b8ff" points="319.13,-70.48 308.58,-71.43 317.42,-77.27 319.13,-70.48"/>
</a>
</g>
</g>
<!-- Node14 -->
<g id="Node000014" class="node">
<title>Node14</title>
<g id="a_Node000014"><a xlink:title=" ">
<polygon fill="#e0e0e0" stroke="#999999" points="513.22,-72 457.07,-72 457.07,-54 513.22,-54 513.22,-72"/>
<text text-anchor="middle" x="485.15" y="-60" font-family="Helvetica,sans-Serif" font-size="10.00">charconv</text>
</a>
</g>
</g>
<!-- Node13&#45;&gt;Node14 -->
<g id="edge14_Node000013_Node000014" class="edge">
<title>Node13&#45;&gt;Node14</title>
<g id="a_edge14_Node000013_Node000014"><a xlink:title=" ">
<path fill="none" stroke="#63b8ff" d="M485.15,-107.88C485.15,-101.05 485.15,-91.03 485.15,-82.29"/>
<polygon fill="#63b8ff" stroke="#63b8ff" points="488.65,-82.24 485.15,-72.24 481.65,-82.24 488.65,-82.24"/>
</a>
</g>
</g>
<!-- Node15 -->
<g id="Node000015" class="node">
<title>Node15</title>
<g id="a_Node000015"><a xlink:title=" ">
<polygon fill="#e0e0e0" stroke="#999999" points="438.22,-72 392.07,-72 392.07,-54 438.22,-54 438.22,-72"/>
<text text-anchor="middle" x="415.15" y="-60" font-family="Helvetica,sans-Serif" font-size="10.00">chrono</text>
</a>
</g>
</g>
<!-- Node13&#45;&gt;Node15 -->
<g id="edge15_Node000013_Node000015" class="edge">
<title>Node13&#45;&gt;Node15</title>
<g id="a_edge15_Node000013_Node000015"><a xlink:title=" ">
<path fill="none" stroke="#63b8ff" d="M474.21,-107.88C463.59,-99.98 447.23,-87.84 434.42,-78.32"/>
<polygon fill="#63b8ff" stroke="#63b8ff" points="436.35,-75.39 426.24,-72.24 432.18,-81.01 436.35,-75.39"/>
</a>
</g>
</g>
<!-- Node16 -->
<g id="Node000016" class="node">
<title>Node16</title>
<g id="a_Node000016"><a xlink:title=" ">
<polygon fill="#e0e0e0" stroke="#999999" points="675.49,-72 600.8,-72 600.8,-54 675.49,-54 675.49,-72"/>
<text text-anchor="middle" x="638.15" y="-60" font-family="Helvetica,sans-Serif" font-size="10.00">system_error</text>
</a>
</g>
</g>
<!-- Node13&#45;&gt;Node16 -->
<g id="edge18_Node000013_Node000016" class="edge">
<title>Node13&#45;&gt;Node16</title>
<g id="a_edge18_Node000013_Node000016"><a xlink:title=" ">
<path fill="none" stroke="#63b8ff" d="M508.72,-107.99C534.44,-99.25 575.81,-85.19 604.84,-75.32"/>
<polygon fill="#63b8ff" stroke="#63b8ff" points="606.21,-78.55 614.55,-72.02 603.95,-71.92 606.21,-78.55"/>
</a>
</g>
</g>
<!-- Node17&#45;&gt;Node5 -->
<g id="edge20_Node000017_Node000005" class="edge">
<title>Node17&#45;&gt;Node5</title>
<g id="a_edge20_Node000017_Node000005"><a xlink:title=" ">
<path fill="none" stroke="#63b8ff" d="M163.9,-107.88C167.15,-100.82 171.98,-90.36 176.11,-81.42"/>
<polygon fill="#63b8ff" stroke="#63b8ff" points="179.33,-82.79 180.34,-72.24 172.97,-79.85 179.33,-82.79"/>
</a>
</g>
</g>
<!-- Node17&#45;&gt;Node9 -->
<g id="edge21_Node000017_Node000009" class="edge">
<title>Node17&#45;&gt;Node9</title>
<g id="a_edge21_Node000017_Node000009"><a xlink:title=" ">
<path fill="none" stroke="#63b8ff" d="M142.96,-107.88C125.12,-99.44 96.99,-86.15 76.37,-76.4"/>
<polygon fill="#63b8ff" stroke="#63b8ff" points="77.75,-73.18 67.21,-72.07 74.76,-79.51 77.75,-73.18"/>
</a>
</g>
</g>
<!-- Node19&#45;&gt;Node8 -->
<g id="edge48_Node000019_Node000008" class="edge">
<title>Node19&#45;&gt;Node8</title>
<g id="a_edge48_Node000019_Node000008"><a xlink:title=" ">
<path fill="none" stroke="#63b8ff" d="M680.74,-161.86C695.1,-154.73 713.52,-142.86 722.15,-126 738.22,-94.58 732.29,-51.82 726.94,-27.97"/>
<polygon fill="#63b8ff" stroke="#63b8ff" points="730.32,-27.05 724.54,-18.18 723.53,-28.72 730.32,-27.05"/>
</a>
</g>
</g>
<!-- Node19&#45;&gt;Node9 -->
<g id="edge44_Node000019_Node000009" class="edge">
<title>Node19&#45;&gt;Node9</title>
<g id="a_edge44_Node000019_Node000009"><a xlink:title=" ">
<path fill="none" stroke="#63b8ff" d="M613.63,-170.32C533.6,-169.72 367.5,-163.53 233.15,-126 215.15,-120.97 212.58,-114.73 195.15,-108 160.46,-94.61 119.88,-82.59 90.48,-74.51"/>
<polygon fill="#63b8ff" stroke="#63b8ff" points="91.14,-71.07 80.58,-71.82 89.31,-77.82 91.14,-71.07"/>
</a>
</g>
</g>
<!-- Node19&#45;&gt;Node13 -->
<g id="edge27_Node000019_Node000013" class="edge">
<title>Node19&#45;&gt;Node13</title>
<g id="a_edge27_Node000019_Node000013"><a xlink:title=" ">
<path fill="none" stroke="#63b8ff" d="M634.03,-161.99C604.06,-153.13 555.6,-138.82 522.15,-128.93"/>
<polygon fill="#63b8ff" stroke="#63b8ff" points="522.87,-125.5 512.29,-126.02 520.89,-132.21 522.87,-125.5"/>
</a>
</g>
</g>
<!-- Node19&#45;&gt;Node20 -->
<g id="edge28_Node000019_Node000020" class="edge">
<title>Node19&#45;&gt;Node20</title>
<g id="a_edge28_Node000019_Node000020"><a xlink:title=" ">
<path fill="none" stroke="#63b8ff" d="M708.86,-162.55C773.42,-152.47 887.71,-134.62 950.25,-124.86"/>
<polygon fill="#63b8ff" stroke="#63b8ff" points="950.85,-128.3 960.19,-123.3 949.77,-121.39 950.85,-128.3"/>
</a>
</g>
</g>
<!-- Node30 -->
<g id="Node000030" class="node">
<title>Node30</title>
<g id="a_Node000030"><a xlink:title=" ">
<polygon fill="#e0e0e0" stroke="#999999" points="590.99,-126 541.3,-126 541.3,-108 590.99,-108 590.99,-126"/>
<text text-anchor="middle" x="566.15" y="-114" font-family="Helvetica,sans-Serif" font-size="10.00">fstream</text>
</a>
</g>
</g>
<!-- Node19&#45;&gt;Node30 -->
<g id="edge45_Node000019_Node000030" class="edge">
<title>Node19&#45;&gt;Node30</title>
<g id="a_edge45_Node000019_Node000030"><a xlink:title=" ">
<path fill="none" stroke="#63b8ff" d="M646.3,-161.88C631.24,-153.63 607.7,-140.74 590.01,-131.07"/>
<polygon fill="#63b8ff" stroke="#63b8ff" points="591.34,-127.8 580.88,-126.07 587.98,-133.94 591.34,-127.8"/>
</a>
</g>
</g>
<!-- Node31 -->
<g id="Node000031" class="node">
<title>Node31</title>
<g id="a_Node000031"><a xlink:title=" ">
<polygon fill="#e0e0e0" stroke="#999999" points="653.49,-126 608.8,-126 608.8,-108 653.49,-108 653.49,-126"/>
<text text-anchor="middle" x="631.15" y="-114" font-family="Helvetica,sans-Serif" font-size="10.00">iosfwd</text>
</a>
</g>
</g>
<!-- Node19&#45;&gt;Node31 -->
<g id="edge46_Node000019_Node000031" class="edge">
<title>Node19&#45;&gt;Node31</title>
<g id="a_edge46_Node000019_Node000031"><a xlink:title=" ">
<path fill="none" stroke="#63b8ff" d="M656.46,-161.88C652.34,-154.74 646.22,-144.13 641.03,-135.13"/>
<polygon fill="#63b8ff" stroke="#63b8ff" points="643.93,-133.15 635.9,-126.24 637.86,-136.65 643.93,-133.15"/>
</a>
</g>
</g>
<!-- Node32 -->
<g id="Node000032" class="node">
<title>Node32</title>
<g id="a_Node000032"><a xlink:title=" ">
<polygon fill="#e0e0e0" stroke="#999999" points="712.66,-126 671.63,-126 671.63,-108 712.66,-108 712.66,-126"/>
<text text-anchor="middle" x="692.15" y="-114" font-family="Helvetica,sans-Serif" font-size="10.00">regex</text>
</a>
</g>
</g>
<!-- Node19&#45;&gt;Node32 -->
<g id="edge47_Node000019_Node000032" class="edge">
<title>Node19&#45;&gt;Node32</title>
<g id="a_edge47_Node000019_Node000032"><a xlink:title=" ">
<path fill="none" stroke="#63b8ff" d="M665.99,-161.88C670.29,-154.67 676.7,-143.91 682.1,-134.85"/>
<polygon fill="#63b8ff" stroke="#63b8ff" points="685.12,-136.62 687.23,-126.24 679.11,-133.04 685.12,-136.62"/>
</a>
</g>
</g>
<!-- Node20&#45;&gt;Node6 -->
<g id="edge33_Node000020_Node000006" class="edge">
<title>Node20&#45;&gt;Node6</title>
<g id="a_edge33_Node000020_Node000006"><a xlink:title=" ">
<path fill="none" stroke="#63b8ff" d="M960.42,-107.92C903.71,-94.63 785.51,-68.23 684.15,-54 490.03,-26.74 253.97,-14.65 174.09,-11.14"/>
<polygon fill="#63b8ff" stroke="#63b8ff" points="174.02,-7.64 163.88,-10.7 173.72,-14.63 174.02,-7.64"/>
</a>
</g>
</g>
<!-- Node20&#45;&gt;Node7 -->
<g id="edge35_Node000020_Node000007" class="edge">
<title>Node20&#45;&gt;Node7</title>
<g id="a_edge35_Node000020_Node000007"><a xlink:title=" ">
<path fill="none" stroke="#63b8ff" d="M1028.02,-116.02C1103.53,-115.37 1282.52,-109.77 1327.15,-72 1339.76,-61.33 1344.15,-42.51 1345.61,-28.4"/>
<polygon fill="#63b8ff" stroke="#63b8ff" points="1349.11,-28.54 1346.25,-18.34 1342.12,-28.1 1349.11,-28.54"/>
</a>
</g>
</g>
<!-- Node20&#45;&gt;Node8 -->
<g id="edge40_Node000020_Node000008" class="edge">
<title>Node20&#45;&gt;Node8</title>
<g id="a_edge40_Node000020_Node000008"><a xlink:title=" ">
<path fill="none" stroke="#63b8ff" d="M960.43,-108.95C927.94,-101.61 877.71,-88.84 836.15,-72 802.34,-58.31 765.71,-37.14 743.34,-23.43"/>
<polygon fill="#63b8ff" stroke="#63b8ff" points="745.02,-20.35 734.67,-18.05 741.32,-26.3 745.02,-20.35"/>
</a>
</g>
</g>
<!-- Node20&#45;&gt;Node10 -->
<g id="edge34_Node000020_Node000010" class="edge">
<title>Node20&#45;&gt;Node10</title>
<g id="a_edge34_Node000020_Node000010"><a xlink:title=" ">
<path fill="none" stroke="#63b8ff" d="M960.35,-113.63C892.61,-108.59 735.27,-95.46 593.62,-72.06"/>
<polygon fill="#63b8ff" stroke="#63b8ff" points="593.89,-68.56 583.45,-70.36 592.74,-75.46 593.89,-68.56"/>
</a>
</g>
</g>
<!-- Node20&#45;&gt;Node11 -->
<g id="edge36_Node000020_Node000011" class="edge">
<title>Node20&#45;&gt;Node11</title>
<g id="a_edge36_Node000020_Node000011"><a xlink:title=" ">
<path fill="none" stroke="#63b8ff" d="M960.14,-115.53C868.54,-113.83 608.94,-106.26 383.52,-71.72"/>
<polygon fill="#63b8ff" stroke="#63b8ff" points="383.9,-68.24 373.48,-70.17 382.83,-75.16 383.9,-68.24"/>
</a>
</g>
</g>
<!-- Node20&#45;&gt;Node12 -->
<g id="edge39_Node000020_Node000012" class="edge">
<title>Node20&#45;&gt;Node12</title>
<g id="a_edge39_Node000020_Node000012"><a xlink:title=" ">
<path fill="none" stroke="#63b8ff" d="M960.22,-115.44C862.31,-113.46 570.75,-105.14 318.55,-71.81"/>
<polygon fill="#63b8ff" stroke="#63b8ff" points="318.83,-68.32 308.46,-70.46 317.91,-75.26 318.83,-68.32"/>
</a>
</g>
</g>
<!-- Node21 -->
<g id="Node000021" class="node">
<title>Node21</title>
<g id="a_Node000021"><a xlink:title=" ">
<polygon fill="#e0e0e0" stroke="#999999" points="1022.77,-72 965.52,-72 965.52,-54 1022.77,-54 1022.77,-72"/>
<text text-anchor="middle" x="994.15" y="-60" font-family="Helvetica,sans-Serif" font-size="10.00">algorithm</text>
</a>
</g>
</g>
<!-- Node20&#45;&gt;Node21 -->
<g id="edge29_Node000020_Node000021" class="edge">
<title>Node20&#45;&gt;Node21</title>
<g id="a_edge29_Node000020_Node000021"><a xlink:title=" ">
<path fill="none" stroke="#63b8ff" d="M994.15,-107.88C994.15,-101.05 994.15,-91.03 994.15,-82.29"/>
<polygon fill="#63b8ff" stroke="#63b8ff" points="997.65,-82.24 994.15,-72.24 990.65,-82.24 997.65,-82.24"/>
</a>
</g>
</g>
<!-- Node22 -->
<g id="Node000022" class="node">
<title>Node22</title>
<g id="a_Node000022"><a xlink:title=" ">
<polygon fill="#e0e0e0" stroke="#999999" points="1089.38,-72 1040.91,-72 1040.91,-54 1089.38,-54 1089.38,-72"/>
<text text-anchor="middle" x="1065.15" y="-60" font-family="Helvetica,sans-Serif" font-size="10.00">cassert</text>
</a>
</g>
</g>
<!-- Node20&#45;&gt;Node22 -->
<g id="edge30_Node000020_Node000022" class="edge">
<title>Node20&#45;&gt;Node22</title>
<g id="a_edge30_Node000020_Node000022"><a xlink:title=" ">
<path fill="none" stroke="#63b8ff" d="M1005.24,-107.88C1016.01,-99.98 1032.6,-87.84 1045.59,-78.32"/>
<polygon fill="#63b8ff" stroke="#63b8ff" points="1047.9,-80.97 1053.9,-72.24 1043.76,-75.32 1047.9,-80.97"/>
</a>
</g>
</g>
<!-- Node23 -->
<g id="Node000023" class="node">
<title>Node23</title>
<g id="a_Node000023"><a xlink:title=" ">
<polygon fill="#e0e0e0" stroke="#999999" points="1166.45,-72 1107.84,-72 1107.84,-54 1166.45,-54 1166.45,-72"/>
<text text-anchor="middle" x="1137.15" y="-60" font-family="Helvetica,sans-Serif" font-size="10.00">functional</text>
</a>
</g>
</g>
<!-- Node20&#45;&gt;Node23 -->
<g id="edge31_Node000020_Node000023" class="edge">
<title>Node20&#45;&gt;Node23</title>
<g id="a_edge31_Node000020_Node000023"><a xlink:title=" ">
<path fill="none" stroke="#63b8ff" d="M1016.18,-107.99C1040.04,-99.31 1078.32,-85.39 1105.42,-75.54"/>
<polygon fill="#63b8ff" stroke="#63b8ff" points="1106.65,-78.81 1114.85,-72.11 1104.26,-72.23 1106.65,-78.81"/>
</a>
</g>
</g>
<!-- Node20&#45;&gt;Node24 -->
<g id="edge32_Node000020_Node000024" class="edge">
<title>Node20&#45;&gt;Node24</title>
<g id="a_edge32_Node000020_Node000024"><a xlink:title=" ">
<path fill="none" stroke="#63b8ff" d="M1028.07,-112.76C1092.82,-106.39 1238.45,-91.16 1360.15,-72 1361.39,-71.8 1362.66,-71.6 1363.94,-71.38"/>
<polygon fill="#63b8ff" stroke="#63b8ff" points="1364.62,-74.82 1373.85,-69.61 1363.39,-67.93 1364.62,-74.82"/>
</a>
</g>
</g>
<!-- Node25 -->
<g id="Node000025" class="node">
<title>Node25</title>
<g id="a_Node000025"><a xlink:title=" ">
<polygon fill="#e0e0e0" stroke="#999999" points="1213.99,-72 1184.3,-72 1184.3,-54 1213.99,-54 1213.99,-72"/>
<text text-anchor="middle" x="1199.15" y="-60" font-family="Helvetica,sans-Serif" font-size="10.00">set</text>
</a>
</g>
</g>
<!-- Node20&#45;&gt;Node25 -->
<g id="edge37_Node000020_Node000025" class="edge">
<title>Node20&#45;&gt;Node25</title>
<g id="a_edge37_Node000020_Node000025"><a xlink:title=" ">
<path fill="none" stroke="#63b8ff" d="M1028.06,-108.64C1062.6,-100.96 1117.87,-88.12 1174.41,-72.01"/>
<polygon fill="#63b8ff" stroke="#63b8ff" points="1175.59,-75.32 1184.23,-69.19 1173.65,-68.59 1175.59,-75.32"/>
</a>
</g>
</g>
<!-- Node26 -->
<g id="Node000026" class="node">
<title>Node26</title>
<g id="a_Node000026"><a xlink:title=" ">
<polygon fill="#e0e0e0" stroke="#999999" points="1318.19,-72 1232.1,-72 1232.1,-54 1318.19,-54 1318.19,-72"/>
<text text-anchor="middle" x="1275.15" y="-60" font-family="Helvetica,sans-Serif" font-size="10.00">source_location</text>
</a>
</g>
</g>
<!-- Node20&#45;&gt;Node26 -->
<g id="edge38_Node000020_Node000026" class="edge">
<title>Node20&#45;&gt;Node26</title>
<g id="a_edge38_Node000020_Node000026"><a xlink:title=" ">
<path fill="none" stroke="#63b8ff" d="M1028.04,-109.73C1076.24,-100.81 1165.03,-84.38 1222.02,-73.83"/>
<polygon fill="#63b8ff" stroke="#63b8ff" points="1222.73,-77.26 1231.93,-72 1221.46,-70.38 1222.73,-77.26"/>
</a>
</g>
</g>
<!-- Node27 -->
<g id="Node000027" class="node">
<title>Node27</title>
<g id="a_Node000027"><a xlink:title=" ">
<polygon fill="#e0e0e0" stroke="#999999" points="882.83,-72 845.46,-72 845.46,-54 882.83,-54 882.83,-72"/>
<text text-anchor="middle" x="864.15" y="-60" font-family="Helvetica,sans-Serif" font-size="10.00">tuple</text>
</a>
</g>
</g>
<!-- Node20&#45;&gt;Node27 -->
<g id="edge41_Node000020_Node000027" class="edge">
<title>Node20&#45;&gt;Node27</title>
<g id="a_edge41_Node000020_Node000027"><a xlink:title=" ">
<path fill="none" stroke="#63b8ff" d="M974.12,-107.99C952.33,-99.28 917.33,-85.27 892.68,-75.41"/>
<polygon fill="#63b8ff" stroke="#63b8ff" points="893.72,-72.06 883.14,-71.6 891.12,-78.56 893.72,-72.06"/>
</a>
</g>
</g>
<!-- Node28 -->
<g id="Node000028" class="node">
<title>Node28</title>
<g id="a_Node000028"><a xlink:title=" ">
<polygon fill="#e0e0e0" stroke="#999999" points="947.16,-72 901.13,-72 901.13,-54 947.16,-54 947.16,-72"/>
<text text-anchor="middle" x="924.15" y="-60" font-family="Helvetica,sans-Serif" font-size="10.00">variant</text>
</a>
</g>
</g>
<!-- Node20&#45;&gt;Node28 -->
<g id="edge42_Node000020_Node000028" class="edge">
<title>Node20&#45;&gt;Node28</title>
<g id="a_edge42_Node000020_Node000028"><a xlink:title=" ">
<path fill="none" stroke="#63b8ff" d="M983.21,-107.88C972.59,-99.98 956.23,-87.84 943.42,-78.32"/>
<polygon fill="#63b8ff" stroke="#63b8ff" points="945.35,-75.39 935.24,-72.24 941.18,-81.01 945.35,-75.39"/>
</a>
</g>
</g>
<!-- Node20&#45;&gt;Node29 -->
<g id="edge43_Node000020_Node000029" class="edge">
<title>Node20&#45;&gt;Node29</title>
<g id="a_edge43_Node000020_Node000029"><a xlink:title=" ">
<path fill="none" stroke="#63b8ff" d="M1028.01,-114.41C1100.96,-110.61 1278.42,-99.34 1436.33,-71.85"/>
<polygon fill="#63b8ff" stroke="#63b8ff" points="1436.98,-75.29 1446.22,-70.1 1435.76,-68.4 1436.98,-75.29"/>
</a>
</g>
</g>
</g>
</svg>
