<?xml version="1.0" encoding="UTF-8" standalone="no"?>
<!DOCTYPE svg PUBLIC "-//W3C//DTD SVG 1.1//EN"
 "http://www.w3.org/Graphics/SVG/1.1/DTD/svg11.dtd">
<!-- Generated by graphviz version 2.48.0 (20210717.1556)
 -->
<!-- Title: binder.cpp Pages: 1 -->
<svg width="1184pt" height="350pt"
 viewBox="0.00 0.00 1184.14 350.00" xmlns="http://www.w3.org/2000/svg" xmlns:xlink="http://www.w3.org/1999/xlink">
<g id="graph0" class="graph" transform="scale(1 1) rotate(0) translate(4 346)">
<title>binder.cpp</title>
<!-- Node1 -->
<g id="Node000001" class="node">
<title>Node1</title>
<g id="a_Node000001"><a xlink:title=" ">
<polygon fill="#999999" stroke="#666666" points="782.29,-342 719.98,-342 719.98,-324 782.29,-324 782.29,-342"/>
<text text-anchor="middle" x="751.13" y="-330" font-family="Helvetica,sans-Serif" font-size="10.00">binder.cpp</text>
</a>
</g>
</g>
<!-- Node2 -->
<g id="Node000002" class="node">
<title>Node2</title>
<g id="a_Node000002"><a xlink:href="container_8hpp.html" target="_top" xlink:title=" ">
<polygon fill="white" stroke="#666666" points="279.19,-288 203.08,-288 203.08,-270 279.19,-270 279.19,-288"/>
<text text-anchor="middle" x="241.13" y="-276" font-family="Helvetica,sans-Serif" font-size="10.00">container.hpp</text>
</a>
</g>
</g>
<!-- Node1&#45;&gt;Node2 -->
<g id="edge1_Node000001_Node000002" class="edge">
<title>Node1&#45;&gt;Node2</title>
<g id="a_edge1_Node000001_Node000002"><a xlink:title=" ">
<path fill="none" stroke="#63b8ff" d="M720,-328.83C634.06,-320.06 393.09,-295.49 289.48,-284.93"/>
<polygon fill="#63b8ff" stroke="#63b8ff" points="289.61,-281.42 279.31,-283.89 288.9,-288.39 289.61,-281.42"/>
</a>
</g>
</g>
<!-- Node7 -->
<g id="Node000007" class="node">
<title>Node7</title>
<g id="a_Node000007"><a xlink:title=" ">
<polygon fill="#e0e0e0" stroke="#999999" points="997.66,-18 946.6,-18 946.6,0 997.66,0 997.66,-18"/>
<text text-anchor="middle" x="972.13" y="-6" font-family="Helvetica,sans-Serif" font-size="10.00">optional</text>
</a>
</g>
</g>
<!-- Node1&#45;&gt;Node7 -->
<g id="edge51_Node000001_Node000007" class="edge">
<title>Node1&#45;&gt;Node7</title>
<g id="a_edge51_Node000001_Node000007"><a xlink:title=" ">
<path fill="none" stroke="#63b8ff" d="M782.27,-328.77C864.67,-319.36 1082.13,-288.6 1082.13,-226 1082.13,-226 1082.13,-226 1082.13,-116 1082.13,-87.18 1081.89,-75.88 1063.13,-54 1048.74,-37.21 1026.46,-26.29 1007.55,-19.53"/>
<polygon fill="#63b8ff" stroke="#63b8ff" points="1008.62,-16.19 998.03,-16.36 1006.41,-22.84 1008.62,-16.19"/>
</a>
</g>
</g>
<!-- Node9 -->
<g id="Node000009" class="node">
<title>Node9</title>
<g id="a_Node000009"><a xlink:title=" ">
<polygon fill="#e0e0e0" stroke="#999999" points="72.59,-72 11.68,-72 11.68,-54 72.59,-54 72.59,-72"/>
<text text-anchor="middle" x="42.13" y="-60" font-family="Helvetica,sans-Serif" font-size="10.00">filesystem</text>
</a>
</g>
</g>
<!-- Node1&#45;&gt;Node9 -->
<g id="edge49_Node000001_Node000009" class="edge">
<title>Node1&#45;&gt;Node9</title>
<g id="a_edge49_Node000001_Node000009"><a xlink:title=" ">
<path fill="none" stroke="#63b8ff" d="M719.9,-330.99C609.33,-327.23 240.56,-312.91 194.13,-288 109.38,-242.53 62.99,-126.6 47.79,-81.93"/>
<polygon fill="#63b8ff" stroke="#63b8ff" points="51.04,-80.6 44.6,-72.19 44.39,-82.79 51.04,-80.6"/>
</a>
</g>
</g>
<!-- Node14 -->
<g id="Node000014" class="node">
<title>Node14</title>
<g id="a_Node000014"><a xlink:title=" ">
<polygon fill="#e0e0e0" stroke="#999999" points="403.86,-126 360.4,-126 360.4,-108 403.86,-108 403.86,-126"/>
<text text-anchor="middle" x="382.13" y="-114" font-family="Helvetica,sans-Serif" font-size="10.00">vector</text>
</a>
</g>
</g>
<!-- Node1&#45;&gt;Node14 -->
<g id="edge53_Node000001_Node000014" class="edge">
<title>Node1&#45;&gt;Node14</title>
<g id="a_edge53_Node000001_Node000014"><a xlink:title=" ">
<path fill="none" stroke="#63b8ff" d="M719.87,-327.37C651.74,-315.62 488.97,-278.31 401.13,-180 390.35,-167.93 385.69,-149.87 383.67,-136.35"/>
<polygon fill="#63b8ff" stroke="#63b8ff" points="387.13,-135.83 382.52,-126.29 380.18,-136.62 387.13,-135.83"/>
</a>
</g>
</g>
<!-- Node20 -->
<g id="Node000020" class="node">
<title>Node20</title>
<g id="a_Node000020"><a xlink:title=" ">
<polygon fill="#e0e0e0" stroke="#999999" points="1054.48,-72 999.79,-72 999.79,-54 1054.48,-54 1054.48,-72"/>
<text text-anchor="middle" x="1027.13" y="-60" font-family="Helvetica,sans-Serif" font-size="10.00">iostream</text>
</a>
</g>
</g>
<!-- Node1&#45;&gt;Node20 -->
<g id="edge50_Node000001_Node000020" class="edge">
<title>Node1&#45;&gt;Node20</title>
<g id="a_edge50_Node000001_Node000020"><a xlink:title=" ">
<path fill="none" stroke="#63b8ff" d="M782.6,-328.63C836.12,-320.97 939.13,-297 939.13,-226 939.13,-226 939.13,-226 939.13,-170 939.13,-129.13 978.33,-95.6 1004.4,-77.82"/>
<polygon fill="#63b8ff" stroke="#63b8ff" points="1006.54,-80.6 1012.99,-72.2 1002.71,-74.74 1006.54,-80.6"/>
</a>
</g>
</g>
<!-- Node21 -->
<g id="Node000021" class="node">
<title>Node21</title>
<g id="a_Node000021"><a xlink:href="options_8hpp.html" target="_top" xlink:title=" ">
<polygon fill="white" stroke="#666666" points="784.84,-126 717.42,-126 717.42,-108 784.84,-108 784.84,-126"/>
<text text-anchor="middle" x="751.13" y="-114" font-family="Helvetica,sans-Serif" font-size="10.00">options.hpp</text>
</a>
</g>
</g>
<!-- Node1&#45;&gt;Node21 -->
<g id="edge37_Node000001_Node000021" class="edge">
<title>Node1&#45;&gt;Node21</title>
<g id="a_edge37_Node000001_Node000021"><a xlink:title=" ">
<path fill="none" stroke="#63b8ff" d="M751.13,-323.87C751.13,-292.75 751.13,-180.72 751.13,-136.31"/>
<polygon fill="#63b8ff" stroke="#63b8ff" points="754.63,-136.14 751.13,-126.14 747.63,-136.14 754.63,-136.14"/>
</a>
</g>
</g>
<!-- Node25 -->
<g id="Node000025" class="node">
<title>Node25</title>
<g id="a_Node000025"><a xlink:title=" ">
<polygon fill="#e0e0e0" stroke="#999999" points="1176.15,-288 1110.11,-288 1110.11,-270 1176.15,-270 1176.15,-288"/>
<text text-anchor="middle" x="1143.13" y="-276" font-family="Helvetica,sans-Serif" font-size="10.00">string_view</text>
</a>
</g>
</g>
<!-- Node1&#45;&gt;Node25 -->
<g id="edge52_Node000001_Node000025" class="edge">
<title>Node1&#45;&gt;Node25</title>
<g id="a_edge52_Node000001_Node000025"><a xlink:title=" ">
<path fill="none" stroke="#63b8ff" d="M782.59,-328.43C843.31,-321.45 980.87,-305.15 1096.13,-288 1097.4,-287.81 1098.68,-287.62 1099.98,-287.42"/>
<polygon fill="#63b8ff" stroke="#63b8ff" points="1100.71,-290.84 1110.04,-285.81 1099.61,-283.93 1100.71,-290.84"/>
</a>
</g>
</g>
<!-- Node3 -->
<g id="Node000003" class="node">
<title>Node3</title>
<g id="a_Node000003"><a xlink:href="navigation_8hpp.html" target="_top" xlink:title=" ">
<polygon fill="white" stroke="#666666" points="281.69,-180 200.58,-180 200.58,-162 281.69,-162 281.69,-180"/>
<text text-anchor="middle" x="241.13" y="-168" font-family="Helvetica,sans-Serif" font-size="10.00">navigation.hpp</text>
</a>
</g>
</g>
<!-- Node2&#45;&gt;Node3 -->
<g id="edge2_Node000002_Node000003" class="edge">
<title>Node2&#45;&gt;Node3</title>
<g id="a_edge2_Node000002_Node000003"><a xlink:title=" ">
<path fill="none" stroke="#63b8ff" d="M241.13,-269.68C241.13,-252.73 241.13,-213.83 241.13,-190.55"/>
<polygon fill="#63b8ff" stroke="#63b8ff" points="244.63,-190.28 241.13,-180.28 237.63,-190.28 244.63,-190.28"/>
</a>
</g>
</g>
<!-- Node6 -->
<g id="Node000006" class="node">
<title>Node6</title>
<g id="a_Node000006"><a xlink:title=" ">
<polygon fill="#e0e0e0" stroke="#999999" points="156.09,-18 120.18,-18 120.18,0 156.09,0 156.09,-18"/>
<text text-anchor="middle" x="138.13" y="-6" font-family="Helvetica,sans-Serif" font-size="10.00">map</text>
</a>
</g>
</g>
<!-- Node2&#45;&gt;Node6 -->
<g id="edge36_Node000002_Node000006" class="edge">
<title>Node2&#45;&gt;Node6</title>
<g id="a_edge36_Node000002_Node000006"><a xlink:title=" ">
<path fill="none" stroke="#63b8ff" d="M223.48,-269.87C176.18,-246.93 47.16,-176.5 3.13,-72 -15.64,-27.44 65.48,-14.9 110.25,-11.37"/>
<polygon fill="#63b8ff" stroke="#63b8ff" points="110.51,-14.86 120.25,-10.69 110.04,-7.88 110.51,-14.86"/>
</a>
</g>
</g>
<!-- Node2&#45;&gt;Node9 -->
<g id="edge35_Node000002_Node000009" class="edge">
<title>Node2&#45;&gt;Node9</title>
<g id="a_edge35_Node000002_Node000009"><a xlink:title=" ">
<path fill="none" stroke="#63b8ff" d="M231.26,-269.72C205.43,-247.8 134.39,-185.85 84.13,-126 72.01,-111.56 60.14,-93.58 52.13,-80.71"/>
<polygon fill="#63b8ff" stroke="#63b8ff" points="55.02,-78.72 46.82,-72 49.04,-82.36 55.02,-78.72"/>
</a>
</g>
</g>
<!-- Node15 -->
<g id="Node000015" class="node">
<title>Node15</title>
<g id="a_Node000015"><a xlink:href="package_8hpp.html" target="_top" xlink:title=" ">
<polygon fill="white" stroke="#666666" points="344.9,-234 271.36,-234 271.36,-216 344.9,-216 344.9,-234"/>
<text text-anchor="middle" x="308.13" y="-222" font-family="Helvetica,sans-Serif" font-size="10.00">package.hpp</text>
</a>
</g>
</g>
<!-- Node2&#45;&gt;Node15 -->
<g id="edge20_Node000002_Node000015" class="edge">
<title>Node2&#45;&gt;Node15</title>
<g id="a_edge20_Node000002_Node000015"><a xlink:title=" ">
<path fill="none" stroke="#63b8ff" d="M251.6,-269.88C261.67,-262.06 277.12,-250.07 289.33,-240.6"/>
<polygon fill="#63b8ff" stroke="#63b8ff" points="291.76,-243.14 297.52,-234.24 287.47,-237.61 291.76,-243.14"/>
</a>
</g>
</g>
<!-- Node4 -->
<g id="Node000004" class="node">
<title>Node4</title>
<g id="a_Node000004"><a xlink:href="manifest_8hpp.html" target="_top" xlink:title=" ">
<polygon fill="white" stroke="#666666" points="342.89,-126 269.38,-126 269.38,-108 342.89,-108 342.89,-126"/>
<text text-anchor="middle" x="306.13" y="-114" font-family="Helvetica,sans-Serif" font-size="10.00">manifest.hpp</text>
</a>
</g>
</g>
<!-- Node3&#45;&gt;Node4 -->
<g id="edge3_Node000003_Node000004" class="edge">
<title>Node3&#45;&gt;Node4</title>
<g id="a_edge3_Node000003_Node000004"><a xlink:title=" ">
<path fill="none" stroke="#63b8ff" d="M251.29,-161.88C261.06,-154.06 276.05,-142.07 287.89,-132.6"/>
<polygon fill="#63b8ff" stroke="#63b8ff" points="290.21,-135.22 295.83,-126.24 285.84,-129.75 290.21,-135.22"/>
</a>
</g>
</g>
<!-- Node3&#45;&gt;Node9 -->
<g id="edge17_Node000003_Node000009" class="edge">
<title>Node3&#45;&gt;Node9</title>
<g id="a_edge17_Node000003_Node000009"><a xlink:title=" ">
<path fill="none" stroke="#63b8ff" d="M224.26,-162C206.26,-153.38 176.97,-139.13 152.13,-126 121.57,-109.85 86.93,-90.07 64.83,-77.27"/>
<polygon fill="#63b8ff" stroke="#63b8ff" points="66.3,-74.07 55.89,-72.07 62.78,-80.12 66.3,-74.07"/>
</a>
</g>
</g>
<!-- Node10 -->
<g id="Node000010" class="node">
<title>Node10</title>
<g id="a_Node000010"><a xlink:title=" ">
<polygon fill="#e0e0e0" stroke="#999999" points="332.25,-72 280.02,-72 280.02,-54 332.25,-54 332.25,-72"/>
<text text-anchor="middle" x="306.13" y="-60" font-family="Helvetica,sans-Serif" font-size="10.00">memory</text>
</a>
</g>
</g>
<!-- Node3&#45;&gt;Node10 -->
<g id="edge18_Node000003_Node000010" class="edge">
<title>Node3&#45;&gt;Node10</title>
<g id="a_edge18_Node000003_Node000010"><a xlink:title=" ">
<path fill="none" stroke="#63b8ff" d="M242.28,-161.83C244.31,-149.42 249.38,-125.44 260.13,-108 267.06,-96.76 277.54,-86.44 286.74,-78.61"/>
<polygon fill="#63b8ff" stroke="#63b8ff" points="289.12,-81.19 294.7,-72.18 284.72,-75.74 289.12,-81.19"/>
</a>
</g>
</g>
<!-- Node13 -->
<g id="Node000013" class="node">
<title>Node13</title>
<g id="a_Node000013"><a xlink:href="xml_8hpp.html" target="_top" xlink:title=" ">
<polygon fill="white" stroke="#666666" points="212.65,-126 161.62,-126 161.62,-108 212.65,-108 212.65,-126"/>
<text text-anchor="middle" x="187.13" y="-114" font-family="Helvetica,sans-Serif" font-size="10.00">xml.hpp</text>
</a>
</g>
</g>
<!-- Node3&#45;&gt;Node13 -->
<g id="edge13_Node000003_Node000013" class="edge">
<title>Node3&#45;&gt;Node13</title>
<g id="a_edge13_Node000003_Node000013"><a xlink:title=" ">
<path fill="none" stroke="#63b8ff" d="M232.7,-161.88C224.82,-154.29 212.85,-142.76 203.16,-133.43"/>
<polygon fill="#63b8ff" stroke="#63b8ff" points="205.32,-130.65 195.69,-126.24 200.46,-135.7 205.32,-130.65"/>
</a>
</g>
</g>
<!-- Node3&#45;&gt;Node14 -->
<g id="edge19_Node000003_Node000014" class="edge">
<title>Node3&#45;&gt;Node14</title>
<g id="a_edge19_Node000003_Node000014"><a xlink:title=" ">
<path fill="none" stroke="#63b8ff" d="M262.86,-161.99C286.28,-153.35 323.8,-139.51 350.5,-129.67"/>
<polygon fill="#63b8ff" stroke="#63b8ff" points="351.98,-132.85 360.15,-126.11 349.56,-126.28 351.98,-132.85"/>
</a>
</g>
</g>
<!-- Node5 -->
<g id="Node000005" class="node">
<title>Node5</title>
<g id="a_Node000005"><a xlink:href="file__metadata_8hpp.html" target="_top" xlink:title=" ">
<polygon fill="white" stroke="#666666" points="261.64,-72 166.63,-72 166.63,-54 261.64,-54 261.64,-72"/>
<text text-anchor="middle" x="214.13" y="-60" font-family="Helvetica,sans-Serif" font-size="10.00">file_metadata.hpp</text>
</a>
</g>
</g>
<!-- Node4&#45;&gt;Node5 -->
<g id="edge4_Node000004_Node000005" class="edge">
<title>Node4&#45;&gt;Node5</title>
<g id="a_edge4_Node000004_Node000005"><a xlink:title=" ">
<path fill="none" stroke="#63b8ff" d="M291.76,-107.88C277.17,-99.63 254.37,-86.74 237.25,-77.07"/>
<polygon fill="#63b8ff" stroke="#63b8ff" points="238.83,-73.94 228.41,-72.07 235.39,-80.04 238.83,-73.94"/>
</a>
</g>
</g>
<!-- Node4&#45;&gt;Node6 -->
<g id="edge9_Node000004_Node000006" class="edge">
<title>Node4&#45;&gt;Node6</title>
<g id="a_edge9_Node000004_Node000006"><a xlink:title=" ">
<path fill="none" stroke="#63b8ff" d="M269.38,-114.65C235.83,-111.46 187.04,-101.6 157.13,-72 145.51,-60.49 140.96,-42.07 139.2,-28.29"/>
<polygon fill="#63b8ff" stroke="#63b8ff" points="142.66,-27.72 138.28,-18.07 135.69,-28.34 142.66,-27.72"/>
</a>
</g>
</g>
<!-- Node4&#45;&gt;Node9 -->
<g id="edge8_Node000004_Node000009" class="edge">
<title>Node4&#45;&gt;Node9</title>
<g id="a_edge8_Node000004_Node000009"><a xlink:title=" ">
<path fill="none" stroke="#63b8ff" d="M269.42,-108.77C220.25,-99.08 133.29,-81.96 82.38,-71.93"/>
<polygon fill="#63b8ff" stroke="#63b8ff" points="82.88,-68.46 72.39,-69.96 81.53,-75.33 82.88,-68.46"/>
</a>
</g>
</g>
<!-- Node4&#45;&gt;Node10 -->
<g id="edge10_Node000004_Node000010" class="edge">
<title>Node4&#45;&gt;Node10</title>
<g id="a_edge10_Node000004_Node000010"><a xlink:title=" ">
<path fill="none" stroke="#63b8ff" d="M306.13,-107.88C306.13,-101.05 306.13,-91.03 306.13,-82.29"/>
<polygon fill="#63b8ff" stroke="#63b8ff" points="309.63,-82.24 306.13,-72.24 302.63,-82.24 309.63,-82.24"/>
</a>
</g>
</g>
<!-- Node11 -->
<g id="Node000011" class="node">
<title>Node11</title>
<g id="a_Node000011"><a xlink:title=" ">
<polygon fill="#e0e0e0" stroke="#999999" points="396.21,-72 350.05,-72 350.05,-54 396.21,-54 396.21,-72"/>
<text text-anchor="middle" x="373.13" y="-60" font-family="Helvetica,sans-Serif" font-size="10.00">ranges</text>
</a>
</g>
</g>
<!-- Node4&#45;&gt;Node11 -->
<g id="edge11_Node000004_Node000011" class="edge">
<title>Node4&#45;&gt;Node11</title>
<g id="a_edge11_Node000004_Node000011"><a xlink:title=" ">
<path fill="none" stroke="#63b8ff" d="M316.6,-107.88C326.67,-100.06 342.12,-88.07 354.33,-78.6"/>
<polygon fill="#63b8ff" stroke="#63b8ff" points="356.76,-81.14 362.52,-72.24 352.47,-75.61 356.76,-81.14"/>
</a>
</g>
</g>
<!-- Node12 -->
<g id="Node000012" class="node">
<title>Node12</title>
<g id="a_Node000012"><a xlink:title=" ">
<polygon fill="#e0e0e0" stroke="#999999" points="473.44,-72 414.83,-72 414.83,-54 473.44,-54 473.44,-72"/>
<text text-anchor="middle" x="444.13" y="-60" font-family="Helvetica,sans-Serif" font-size="10.00">stdexcept</text>
</a>
</g>
</g>
<!-- Node4&#45;&gt;Node12 -->
<g id="edge12_Node000004_Node000012" class="edge">
<title>Node4&#45;&gt;Node12</title>
<g id="a_edge12_Node000004_Node000012"><a xlink:title=" ">
<path fill="none" stroke="#63b8ff" d="M327.39,-107.99C350.32,-99.35 387.04,-85.51 413.18,-75.67"/>
<polygon fill="#63b8ff" stroke="#63b8ff" points="414.5,-78.91 422.62,-72.11 412.03,-72.36 414.5,-78.91"/>
</a>
</g>
</g>
<!-- Node5&#45;&gt;Node6 -->
<g id="edge5_Node000005_Node000006" class="edge">
<title>Node5&#45;&gt;Node6</title>
<g id="a_edge5_Node000005_Node000006"><a xlink:title=" ">
<path fill="none" stroke="#63b8ff" d="M202.26,-53.88C190.61,-45.91 172.63,-33.6 158.66,-24.05"/>
<polygon fill="#63b8ff" stroke="#63b8ff" points="160.4,-21 150.18,-18.24 156.45,-26.78 160.4,-21"/>
</a>
</g>
</g>
<!-- Node5&#45;&gt;Node7 -->
<g id="edge6_Node000005_Node000007" class="edge">
<title>Node5&#45;&gt;Node7</title>
<g id="a_edge6_Node000005_Node000007"><a xlink:title=" ">
<path fill="none" stroke="#63b8ff" d="M261.69,-55.05C264.88,-54.67 268.05,-54.31 271.13,-54 525.4,-28.22 833.18,-15.16 936.43,-11.27"/>
<polygon fill="#63b8ff" stroke="#63b8ff" points="936.75,-14.76 946.61,-10.89 936.49,-7.77 936.75,-14.76"/>
</a>
</g>
</g>
<!-- Node8 -->
<g id="Node000008" class="node">
<title>Node8</title>
<g id="a_Node000008"><a xlink:title=" ">
<polygon fill="#e0e0e0" stroke="#999999" points="586.59,-18 545.68,-18 545.68,0 586.59,0 586.59,-18"/>
<text text-anchor="middle" x="566.13" y="-6" font-family="Helvetica,sans-Serif" font-size="10.00">string</text>
</a>
</g>
</g>
<!-- Node5&#45;&gt;Node8 -->
<g id="edge7_Node000005_Node000008" class="edge">
<title>Node5&#45;&gt;Node8</title>
<g id="a_edge7_Node000005_Node000008"><a xlink:title=" ">
<path fill="none" stroke="#63b8ff" d="M261.97,-54.93C335.39,-44.09 473.78,-23.64 535.3,-14.55"/>
<polygon fill="#63b8ff" stroke="#63b8ff" points="536.14,-17.97 545.52,-13.04 535.12,-11.04 536.14,-17.97"/>
</a>
</g>
</g>
<!-- Node13&#45;&gt;Node5 -->
<g id="edge14_Node000013_Node000005" class="edge">
<title>Node13&#45;&gt;Node5</title>
<g id="a_edge14_Node000013_Node000005"><a xlink:title=" ">
<path fill="none" stroke="#63b8ff" d="M191.35,-107.88C195.05,-100.74 200.56,-90.13 205.24,-81.13"/>
<polygon fill="#63b8ff" stroke="#63b8ff" points="208.35,-82.73 209.85,-72.24 202.14,-79.5 208.35,-82.73"/>
</a>
</g>
</g>
<!-- Node13&#45;&gt;Node6 -->
<g id="edge16_Node000013_Node000006" class="edge">
<title>Node13&#45;&gt;Node6</title>
<g id="a_edge16_Node000013_Node000006"><a xlink:title=" ">
<path fill="none" stroke="#63b8ff" d="M166.61,-107.89C151.84,-100.83 133.01,-89.04 124.13,-72 116.81,-57.95 122.11,-40.15 128.17,-27.23"/>
<polygon fill="#63b8ff" stroke="#63b8ff" points="131.42,-28.56 132.97,-18.08 125.23,-25.31 131.42,-28.56"/>
</a>
</g>
</g>
<!-- Node13&#45;&gt;Node9 -->
<g id="edge15_Node000013_Node000009" class="edge">
<title>Node13&#45;&gt;Node9</title>
<g id="a_edge15_Node000013_Node000009"><a xlink:title=" ">
<path fill="none" stroke="#63b8ff" d="M164.79,-107.99C140.6,-99.31 101.78,-85.39 74.3,-75.54"/>
<polygon fill="#63b8ff" stroke="#63b8ff" points="75.33,-72.19 64.74,-72.11 72.97,-78.78 75.33,-72.19"/>
</a>
</g>
</g>
<!-- Node15&#45;&gt;Node4 -->
<g id="edge21_Node000015_Node000004" class="edge">
<title>Node15&#45;&gt;Node4</title>
<g id="a_edge21_Node000015_Node000004"><a xlink:title=" ">
<path fill="none" stroke="#63b8ff" d="M307.98,-215.68C307.66,-198.73 306.92,-159.83 306.48,-136.55"/>
<polygon fill="#63b8ff" stroke="#63b8ff" points="309.98,-136.21 306.29,-126.28 302.98,-136.34 309.98,-136.21"/>
</a>
</g>
</g>
<!-- Node15&#45;&gt;Node9 -->
<g id="edge34_Node000015_Node000009" class="edge">
<title>Node15&#45;&gt;Node9</title>
<g id="a_edge34_Node000015_Node000009"><a xlink:title=" ">
<path fill="none" stroke="#63b8ff" d="M274.08,-215.97C247.42,-208.83 209.99,-196.9 180.13,-180 129.97,-151.61 80.55,-104.03 56.78,-79.56"/>
<polygon fill="#63b8ff" stroke="#63b8ff" points="59.18,-77.01 49.73,-72.21 54.13,-81.86 59.18,-77.01"/>
</a>
</g>
</g>
<!-- Node15&#45;&gt;Node13 -->
<g id="edge33_Node000015_Node000013" class="edge">
<title>Node15&#45;&gt;Node13</title>
<g id="a_edge33_Node000015_Node000013"><a xlink:title=" ">
<path fill="none" stroke="#63b8ff" d="M271.23,-220.52C244.43,-215.89 209.74,-205.11 191.13,-180 181.9,-167.54 181.78,-149.53 183.44,-136.12"/>
<polygon fill="#63b8ff" stroke="#63b8ff" points="186.91,-136.61 185.1,-126.17 180,-135.46 186.91,-136.61"/>
</a>
</g>
</g>
<!-- Node16 -->
<g id="Node000016" class="node">
<title>Node16</title>
<g id="a_Node000016"><a xlink:href="metadata_8hpp.html" target="_top" xlink:title=" ">
<polygon fill="white" stroke="#666666" points="575.79,-126 498.48,-126 498.48,-108 575.79,-108 575.79,-126"/>
<text text-anchor="middle" x="537.13" y="-114" font-family="Helvetica,sans-Serif" font-size="10.00">metadata.hpp</text>
</a>
</g>
</g>
<!-- Node15&#45;&gt;Node16 -->
<g id="edge22_Node000015_Node000016" class="edge">
<title>Node15&#45;&gt;Node16</title>
<g id="a_edge22_Node000015_Node000016"><a xlink:title=" ">
<path fill="none" stroke="#63b8ff" d="M344.78,-220.59C381.05,-215.88 437.08,-204.94 479.13,-180 498.48,-168.53 515.37,-148.71 525.85,-134.56"/>
<polygon fill="#63b8ff" stroke="#63b8ff" points="528.84,-136.41 531.78,-126.24 523.13,-132.35 528.84,-136.41"/>
</a>
</g>
</g>
<!-- Node18 -->
<g id="Node000018" class="node">
<title>Node18</title>
<g id="a_Node000018"><a xlink:href="spine_8hpp.html" target="_top" xlink:title=" ">
<polygon fill="white" stroke="#666666" points="470,-180 410.26,-180 410.26,-162 470,-162 470,-180"/>
<text text-anchor="middle" x="440.13" y="-168" font-family="Helvetica,sans-Serif" font-size="10.00">spine.hpp</text>
</a>
</g>
</g>
<!-- Node15&#45;&gt;Node18 -->
<g id="edge26_Node000015_Node000018" class="edge">
<title>Node15&#45;&gt;Node18</title>
<g id="a_edge26_Node000015_Node000018"><a xlink:title=" ">
<path fill="none" stroke="#63b8ff" d="M328.47,-215.99C350.3,-207.39 385.22,-193.63 410.19,-183.8"/>
<polygon fill="#63b8ff" stroke="#63b8ff" points="411.54,-187.03 419.56,-180.11 408.97,-180.51 411.54,-187.03"/>
</a>
</g>
</g>
<!-- Node16&#45;&gt;Node8 -->
<g id="edge25_Node000016_Node000008" class="edge">
<title>Node16&#45;&gt;Node8</title>
<g id="a_edge25_Node000016_Node000008"><a xlink:title=" ">
<path fill="none" stroke="#63b8ff" d="M539.41,-107.68C544.07,-90.65 554.79,-51.47 561.14,-28.24"/>
<polygon fill="#63b8ff" stroke="#63b8ff" points="564.6,-28.85 563.87,-18.28 557.85,-27 564.6,-28.85"/>
</a>
</g>
</g>
<!-- Node16&#45;&gt;Node12 -->
<g id="edge24_Node000016_Node000012" class="edge">
<title>Node16&#45;&gt;Node12</title>
<g id="a_edge24_Node000016_Node000012"><a xlink:title=" ">
<path fill="none" stroke="#63b8ff" d="M522.6,-107.88C507.86,-99.63 484.81,-86.74 467.5,-77.07"/>
<polygon fill="#63b8ff" stroke="#63b8ff" points="469,-73.89 458.56,-72.07 465.58,-80 469,-73.89"/>
</a>
</g>
</g>
<!-- Node17 -->
<g id="Node000017" class="node">
<title>Node17</title>
<g id="a_Node000017"><a xlink:title=" ">
<polygon fill="#e0e0e0" stroke="#999999" points="538.21,-72 492.05,-72 492.05,-54 538.21,-54 538.21,-72"/>
<text text-anchor="middle" x="515.13" y="-60" font-family="Helvetica,sans-Serif" font-size="10.00">chrono</text>
</a>
</g>
</g>
<!-- Node16&#45;&gt;Node17 -->
<g id="edge23_Node000016_Node000017" class="edge">
<title>Node16&#45;&gt;Node17</title>
<g id="a_edge23_Node000016_Node000017"><a xlink:title=" ">
<path fill="none" stroke="#63b8ff" d="M533.7,-107.88C530.74,-100.89 526.38,-90.58 522.63,-81.71"/>
<polygon fill="#63b8ff" stroke="#63b8ff" points="525.74,-80.09 518.62,-72.24 519.29,-82.81 525.74,-80.09"/>
</a>
</g>
</g>
<!-- Node18&#45;&gt;Node4 -->
<g id="edge27_Node000018_Node000004" class="edge">
<title>Node18&#45;&gt;Node4</title>
<g id="a_edge27_Node000018_Node000004"><a xlink:title=" ">
<path fill="none" stroke="#63b8ff" d="M419.49,-161.99C397.32,-153.39 361.88,-139.63 336.53,-129.8"/>
<polygon fill="#63b8ff" stroke="#63b8ff" points="337.61,-126.46 327.02,-126.11 335.08,-132.99 337.61,-126.46"/>
</a>
</g>
</g>
<!-- Node18&#45;&gt;Node10 -->
<g id="edge30_Node000018_Node000010" class="edge">
<title>Node18&#45;&gt;Node10</title>
<g id="a_edge30_Node000018_Node000010"><a xlink:title=" ">
<path fill="none" stroke="#63b8ff" d="M438.59,-161.63C435.76,-148.53 428.56,-123.12 413.13,-108 402.46,-97.55 368.07,-84.39 341.13,-75.2"/>
<polygon fill="#63b8ff" stroke="#63b8ff" points="342.19,-71.86 331.59,-72 339.96,-78.5 342.19,-71.86"/>
</a>
</g>
</g>
<!-- Node18&#45;&gt;Node11 -->
<g id="edge31_Node000018_Node000011" class="edge">
<title>Node18&#45;&gt;Node11</title>
<g id="a_edge31_Node000018_Node000011"><a xlink:title=" ">
<path fill="none" stroke="#63b8ff" d="M443.77,-161.75C448.7,-149.24 455.81,-125.14 446.13,-108 437.48,-92.67 421.1,-82.09 406.06,-75.15"/>
<polygon fill="#63b8ff" stroke="#63b8ff" points="407.03,-71.76 396.45,-71.11 404.31,-78.21 407.03,-71.76"/>
</a>
</g>
</g>
<!-- Node18&#45;&gt;Node14 -->
<g id="edge32_Node000018_Node000014" class="edge">
<title>Node18&#45;&gt;Node14</title>
<g id="a_edge32_Node000018_Node000014"><a xlink:title=" ">
<path fill="none" stroke="#63b8ff" d="M431.07,-161.88C422.52,-154.21 409.5,-142.53 399.03,-133.15"/>
<polygon fill="#63b8ff" stroke="#63b8ff" points="401.11,-130.31 391.32,-126.24 396.43,-135.52 401.11,-130.31"/>
</a>
</g>
</g>
<!-- Node19 -->
<g id="Node000019" class="node">
<title>Node19</title>
<g id="a_Node000019"><a xlink:title=" ">
<polygon fill="#e0e0e0" stroke="#999999" points="652.44,-72 593.82,-72 593.82,-54 652.44,-54 652.44,-72"/>
<text text-anchor="middle" x="623.13" y="-60" font-family="Helvetica,sans-Serif" font-size="10.00">functional</text>
</a>
</g>
</g>
<!-- Node18&#45;&gt;Node19 -->
<g id="edge28_Node000018_Node000019" class="edge">
<title>Node18&#45;&gt;Node19</title>
<g id="a_edge28_Node000018_Node000019"><a xlink:title=" ">
<path fill="none" stroke="#63b8ff" d="M469.91,-167.22C501.39,-162.95 551.1,-152.3 585.13,-126 599.94,-114.56 610.34,-95.58 616.47,-81.63"/>
<polygon fill="#63b8ff" stroke="#63b8ff" points="619.8,-82.73 620.33,-72.15 613.32,-80.09 619.8,-82.73"/>
</a>
</g>
</g>
<!-- Node18&#45;&gt;Node20 -->
<g id="edge29_Node000018_Node000020" class="edge">
<title>Node18&#45;&gt;Node20</title>
<g id="a_edge29_Node000018_Node000020"><a xlink:title=" ">
<path fill="none" stroke="#63b8ff" d="M470.19,-167.66C531.5,-162.57 675.28,-149.09 794.13,-126 865.19,-112.2 946.56,-88.75 991.89,-74.99"/>
<polygon fill="#63b8ff" stroke="#63b8ff" points="993,-78.31 1001.54,-72.04 990.95,-71.62 993,-78.31"/>
</a>
</g>
</g>
<!-- Node21&#45;&gt;Node6 -->
<g id="edge40_Node000021_Node000006" class="edge">
<title>Node21&#45;&gt;Node6</title>
<g id="a_edge40_Node000021_Node000006"><a xlink:title=" ">
<path fill="none" stroke="#63b8ff" d="M742.57,-107.74C727.51,-93.82 694.72,-66.02 661.13,-54 568.7,-20.93 261.36,-12.36 166.36,-10.47"/>
<polygon fill="#63b8ff" stroke="#63b8ff" points="166.17,-6.97 156.1,-10.28 166.03,-13.97 166.17,-6.97"/>
</a>
</g>
</g>
<!-- Node21&#45;&gt;Node7 -->
<g id="edge42_Node000021_Node000007" class="edge">
<title>Node21&#45;&gt;Node7</title>
<g id="a_edge42_Node000021_Node000007"><a xlink:title=" ">
<path fill="none" stroke="#63b8ff" d="M785.15,-112.73C836.13,-107.17 928.97,-94.24 953.13,-72 965.17,-60.92 969.66,-42.44 971.3,-28.54"/>
<polygon fill="#63b8ff" stroke="#63b8ff" points="974.82,-28.43 972.1,-18.19 967.84,-27.89 974.82,-28.43"/>
</a>
</g>
</g>
<!-- Node21&#45;&gt;Node8 -->
<g id="edge47_Node000021_Node000008" class="edge">
<title>Node21&#45;&gt;Node8</title>
<g id="a_edge47_Node000021_Node000008"><a xlink:title=" ">
<path fill="none" stroke="#63b8ff" d="M785.01,-110.67C827.99,-102.51 893.57,-84.58 867.13,-54 832.38,-13.8 666.27,-9.61 596.79,-9.66"/>
<polygon fill="#63b8ff" stroke="#63b8ff" points="596.49,-6.16 586.51,-9.7 596.52,-13.16 596.49,-6.16"/>
</a>
</g>
</g>
<!-- Node21&#45;&gt;Node10 -->
<g id="edge41_Node000021_Node000010" class="edge">
<title>Node21&#45;&gt;Node10</title>
<g id="a_edge41_Node000021_Node000010"><a xlink:title=" ">
<path fill="none" stroke="#63b8ff" d="M717.2,-113.72C648.35,-108.8 487.16,-95.79 342.39,-72.02"/>
<polygon fill="#63b8ff" stroke="#63b8ff" points="342.88,-68.55 332.44,-70.36 341.73,-75.46 342.88,-68.55"/>
</a>
</g>
</g>
<!-- Node21&#45;&gt;Node11 -->
<g id="edge43_Node000021_Node000011" class="edge">
<title>Node21&#45;&gt;Node11</title>
<g id="a_edge43_Node000021_Node000011"><a xlink:title=" ">
<path fill="none" stroke="#63b8ff" d="M717.15,-112.93C656.76,-107.2 526.62,-93.63 406.6,-71.86"/>
<polygon fill="#63b8ff" stroke="#63b8ff" points="406.97,-68.37 396.5,-70 405.7,-75.25 406.97,-68.37"/>
</a>
</g>
</g>
<!-- Node21&#45;&gt;Node12 -->
<g id="edge46_Node000021_Node000012" class="edge">
<title>Node21&#45;&gt;Node12</title>
<g id="a_edge46_Node000021_Node000012"><a xlink:title=" ">
<path fill="none" stroke="#63b8ff" d="M717.21,-110.87C668.07,-103.35 573.97,-88.58 483.38,-71.97"/>
<polygon fill="#63b8ff" stroke="#63b8ff" points="483.96,-68.52 473.5,-70.15 482.7,-75.41 483.96,-68.52"/>
</a>
</g>
</g>
<!-- Node21&#45;&gt;Node19 -->
<g id="edge38_Node000021_Node000019" class="edge">
<title>Node21&#45;&gt;Node19</title>
<g id="a_edge38_Node000021_Node000019"><a xlink:title=" ">
<path fill="none" stroke="#63b8ff" d="M731.41,-107.99C710.33,-99.43 676.68,-85.76 652.49,-75.93"/>
<polygon fill="#63b8ff" stroke="#63b8ff" points="653.67,-72.63 643.09,-72.11 651.03,-79.11 653.67,-72.63"/>
</a>
</g>
</g>
<!-- Node21&#45;&gt;Node20 -->
<g id="edge39_Node000021_Node000020" class="edge">
<title>Node21&#45;&gt;Node20</title>
<g id="a_edge39_Node000021_Node000020"><a xlink:title=" ">
<path fill="none" stroke="#63b8ff" d="M785.01,-109.74C830.69,-101.28 914.58,-85.68 986.13,-72 987.38,-71.76 988.64,-71.52 989.91,-71.28"/>
<polygon fill="#63b8ff" stroke="#63b8ff" points="990.64,-74.7 999.79,-69.36 989.31,-67.83 990.64,-74.7"/>
</a>
</g>
</g>
<!-- Node22 -->
<g id="Node000022" class="node">
<title>Node22</title>
<g id="a_Node000022"><a xlink:title=" ">
<polygon fill="#e0e0e0" stroke="#999999" points="943.97,-72 914.29,-72 914.29,-54 943.97,-54 943.97,-72"/>
<text text-anchor="middle" x="929.13" y="-60" font-family="Helvetica,sans-Serif" font-size="10.00">set</text>
</a>
</g>
</g>
<!-- Node21&#45;&gt;Node22 -->
<g id="edge44_Node000021_Node000022" class="edge">
<title>Node21&#45;&gt;Node22</title>
<g id="a_edge44_Node000021_Node000022"><a xlink:title=" ">
<path fill="none" stroke="#63b8ff" d="M778.56,-107.99C812.87,-97.96 871.15,-80.94 904.24,-71.27"/>
<polygon fill="#63b8ff" stroke="#63b8ff" points="905.42,-74.57 914.04,-68.41 903.46,-67.85 905.42,-74.57"/>
</a>
</g>
</g>
<!-- Node23 -->
<g id="Node000023" class="node">
<title>Node23</title>
<g id="a_Node000023"><a xlink:title=" ">
<polygon fill="#e0e0e0" stroke="#999999" points="794.18,-72 708.09,-72 708.09,-54 794.18,-54 794.18,-72"/>
<text text-anchor="middle" x="751.13" y="-60" font-family="Helvetica,sans-Serif" font-size="10.00">source_location</text>
</a>
</g>
</g>
<!-- Node21&#45;&gt;Node23 -->
<g id="edge45_Node000021_Node000023" class="edge">
<title>Node21&#45;&gt;Node23</title>
<g id="a_edge45_Node000021_Node000023"><a xlink:title=" ">
<path fill="none" stroke="#63b8ff" d="M751.13,-107.88C751.13,-101.05 751.13,-91.03 751.13,-82.29"/>
<polygon fill="#63b8ff" stroke="#63b8ff" points="754.63,-82.24 751.13,-72.24 747.63,-82.24 754.63,-82.24"/>
</a>
</g>
</g>
<!-- Node24 -->
<g id="Node000024" class="node">
<title>Node24</title>
<g id="a_Node000024"><a xlink:title=" ">
<polygon fill="#e0e0e0" stroke="#999999" points="858.15,-72 812.12,-72 812.12,-54 858.15,-54 858.15,-72"/>
<text text-anchor="middle" x="835.13" y="-60" font-family="Helvetica,sans-Serif" font-size="10.00">variant</text>
</a>
</g>
</g>
<!-- Node21&#45;&gt;Node24 -->
<g id="edge48_Node000021_Node000024" class="edge">
<title>Node21&#45;&gt;Node24</title>
<g id="a_edge48_Node000021_Node000024"><a xlink:title=" ">
<path fill="none" stroke="#63b8ff" d="M764.26,-107.88C777.45,-99.71 798.01,-86.98 813.59,-77.33"/>
<polygon fill="#63b8ff" stroke="#63b8ff" points="815.44,-80.31 822.1,-72.07 811.76,-74.36 815.44,-80.31"/>
</a>
</g>
</g>
</g>
</svg>
