<?xml version="1.0" encoding="UTF-8" standalone="no"?>
<!DOCTYPE svg PUBLIC "-//W3C//DTD SVG 1.1//EN"
 "http://www.w3.org/Graphics/SVG/1.1/DTD/svg11.dtd">
<!-- Generated by graphviz version 2.48.0 (20210717.1556)
 -->
<!-- Title: binder.cpp Pages: 1 -->
<svg width="1865pt" height="350pt"
 viewBox="0.00 0.00 1865.01 350.00" xmlns="http://www.w3.org/2000/svg" xmlns:xlink="http://www.w3.org/1999/xlink">
<g id="graph0" class="graph" transform="scale(1 1) rotate(0) translate(4 346)">
<title>binder.cpp</title>
<!-- Node1 -->
<g id="Node000001" class="node">
<title>Node1</title>
<g id="a_Node000001"><a xlink:title=" ">
<polygon fill="#999999" stroke="#666666" points="1235.15,-342 1172.85,-342 1172.85,-324 1235.15,-324 1235.15,-342"/>
<text text-anchor="middle" x="1204" y="-330" font-family="Helvetica,sans-Serif" font-size="10.00">binder.cpp</text>
</a>
</g>
</g>
<!-- Node2 -->
<g id="Node000002" class="node">
<title>Node2</title>
<g id="a_Node000002"><a xlink:href="container_8hpp.html" target="_top" xlink:title=" ">
<polygon fill="white" stroke="#666666" points="329.05,-288 252.95,-288 252.95,-270 329.05,-270 329.05,-288"/>
<text text-anchor="middle" x="291" y="-276" font-family="Helvetica,sans-Serif" font-size="10.00">container.hpp</text>
</a>
</g>
</g>
<!-- Node1&#45;&gt;Node2 -->
<g id="edge1_Node000001_Node000002" class="edge">
<title>Node1&#45;&gt;Node2</title>
<g id="a_edge1_Node000001_Node000002"><a xlink:title=" ">
<path fill="none" stroke="#63b8ff" d="M1172.88,-330.92C1062.9,-326.97 682.34,-312.31 369,-288 359.33,-287.25 349,-286.3 339.13,-285.31"/>
<polygon fill="#63b8ff" stroke="#63b8ff" points="339.36,-281.82 329.05,-284.28 338.64,-288.78 339.36,-281.82"/>
</a>
</g>
</g>
<!-- Node7 -->
<g id="Node000007" class="node">
<title>Node7</title>
<g id="a_Node000007"><a xlink:title=" ">
<polygon fill="#e0e0e0" stroke="#999999" points="918.53,-18 867.47,-18 867.47,0 918.53,0 918.53,-18"/>
<text text-anchor="middle" x="893" y="-6" font-family="Helvetica,sans-Serif" font-size="10.00">optional</text>
</a>
</g>
</g>
<!-- Node1&#45;&gt;Node7 -->
<g id="edge68_Node000001_Node000007" class="edge">
<title>Node1&#45;&gt;Node7</title>
<g id="a_edge68_Node000001_Node000007"><a xlink:title=" ">
<path fill="none" stroke="#63b8ff" d="M1235.09,-332.03C1343.9,-331.33 1701,-321.72 1701,-226 1701,-226 1701,-226 1701,-116 1701,-36.91 1084.52,-15.11 928.53,-10.86"/>
<polygon fill="#63b8ff" stroke="#63b8ff" points="928.61,-7.36 918.52,-10.6 928.42,-14.36 928.61,-7.36"/>
</a>
</g>
</g>
<!-- Node9 -->
<g id="Node000009" class="node">
<title>Node9</title>
<g id="a_Node000009"><a xlink:title=" ">
<polygon fill="#e0e0e0" stroke="#999999" points="182.45,-72 121.55,-72 121.55,-54 182.45,-54 182.45,-72"/>
<text text-anchor="middle" x="152" y="-60" font-family="Helvetica,sans-Serif" font-size="10.00">filesystem</text>
</a>
</g>
</g>
<!-- Node1&#45;&gt;Node9 -->
<g id="edge66_Node000001_Node000009" class="edge">
<title>Node1&#45;&gt;Node9</title>
<g id="a_edge66_Node000001_Node000009"><a xlink:title=" ">
<path fill="none" stroke="#63b8ff" d="M1172.87,-331.42C1029.21,-328.63 429.46,-315.52 244,-288 133.32,-271.58 0,-337.89 0,-226 0,-226 0,-226 0,-170 0,-115.41 66.77,-86.62 111.8,-73.41"/>
<polygon fill="#63b8ff" stroke="#63b8ff" points="112.91,-76.73 121.61,-70.68 111.03,-69.99 112.91,-76.73"/>
</a>
</g>
</g>
<!-- Node14 -->
<g id="Node000014" class="node">
<title>Node14</title>
<g id="a_Node000014"><a xlink:title=" ">
<polygon fill="#e0e0e0" stroke="#999999" points="369.73,-126 326.27,-126 326.27,-108 369.73,-108 369.73,-126"/>
<text text-anchor="middle" x="348" y="-114" font-family="Helvetica,sans-Serif" font-size="10.00">vector</text>
</a>
</g>
</g>
<!-- Node1&#45;&gt;Node14 -->
<g id="edge70_Node000001_Node000014" class="edge">
<title>Node1&#45;&gt;Node14</title>
<g id="a_edge70_Node000001_Node000014"><a xlink:title=" ">
<path fill="none" stroke="#63b8ff" d="M1172.88,-332.12C1040.88,-332.04 528.25,-325.73 402,-234 369.6,-210.45 356.05,-162.53 350.87,-136.25"/>
<polygon fill="#63b8ff" stroke="#63b8ff" points="354.27,-135.39 349.09,-126.15 347.38,-136.61 354.27,-135.39"/>
</a>
</g>
</g>
<!-- Node16 -->
<g id="Node000016" class="node">
<title>Node16</title>
<g id="a_Node000016"><a xlink:href="metadata_8hpp.html" target="_top" xlink:title=" ">
<polygon fill="white" stroke="#666666" points="1395.66,-180 1318.34,-180 1318.34,-162 1395.66,-162 1395.66,-180"/>
<text text-anchor="middle" x="1357" y="-168" font-family="Helvetica,sans-Serif" font-size="10.00">metadata.hpp</text>
</a>
</g>
</g>
<!-- Node1&#45;&gt;Node16 -->
<g id="edge63_Node000001_Node000016" class="edge">
<title>Node1&#45;&gt;Node16</title>
<g id="a_edge63_Node000001_Node000016"><a xlink:title=" ">
<path fill="none" stroke="#63b8ff" d="M1211.8,-323.85C1235.94,-298.6 1309.74,-221.43 1341.83,-187.86"/>
<polygon fill="#63b8ff" stroke="#63b8ff" points="1344.65,-189.98 1349.03,-180.33 1339.59,-185.14 1344.65,-189.98"/>
</a>
</g>
</g>
<!-- Node22 -->
<g id="Node000022" class="node">
<title>Node22</title>
<g id="a_Node000022"><a xlink:title=" ">
<polygon fill="#e0e0e0" stroke="#999999" points="610.35,-126 555.65,-126 555.65,-108 610.35,-108 610.35,-126"/>
<text text-anchor="middle" x="583" y="-114" font-family="Helvetica,sans-Serif" font-size="10.00">iostream</text>
</a>
</g>
</g>
<!-- Node1&#45;&gt;Node22 -->
<g id="edge67_Node000001_Node000022" class="edge">
<title>Node1&#45;&gt;Node22</title>
<g id="a_edge67_Node000001_Node000022"><a xlink:title=" ">
<path fill="none" stroke="#63b8ff" d="M1180.41,-323.87C1084.92,-290.96 726.79,-167.55 615.92,-129.35"/>
<polygon fill="#63b8ff" stroke="#63b8ff" points="616.87,-125.97 606.28,-126.02 614.59,-132.59 616.87,-125.97"/>
</a>
</g>
</g>
<!-- Node24 -->
<g id="Node000024" class="node">
<title>Node24</title>
<g id="a_Node000024"><a xlink:href="epub__options_8hpp.html" target="_top" xlink:title=" ">
<polygon fill="white" stroke="#666666" points="1445.52,-234 1350.48,-234 1350.48,-216 1445.52,-216 1445.52,-234"/>
<text text-anchor="middle" x="1398" y="-222" font-family="Helvetica,sans-Serif" font-size="10.00">epub_options.hpp</text>
</a>
</g>
</g>
<!-- Node1&#45;&gt;Node24 -->
<g id="edge40_Node000001_Node000024" class="edge">
<title>Node1&#45;&gt;Node24</title>
<g id="a_edge40_Node000001_Node000024"><a xlink:title=" ">
<path fill="none" stroke="#63b8ff" d="M1218.9,-323.86C1252.41,-305.55 1333.95,-260.99 1374.42,-238.88"/>
<polygon fill="#63b8ff" stroke="#63b8ff" points="1376.22,-241.89 1383.31,-234.02 1372.86,-235.75 1376.22,-241.89"/>
</a>
</g>
</g>
<!-- Node25 -->
<g id="Node000025" class="node">
<title>Node25</title>
<g id="a_Node000025"><a xlink:href="options_8hpp.html" target="_top" xlink:title=" ">
<polygon fill="white" stroke="#666666" points="983.71,-180 916.29,-180 916.29,-162 983.71,-162 983.71,-180"/>
<text text-anchor="middle" x="950" y="-168" font-family="Helvetica,sans-Serif" font-size="10.00">options.hpp</text>
</a>
</g>
</g>
<!-- Node1&#45;&gt;Node25 -->
<g id="edge64_Node000001_Node000025" class="edge">
<title>Node1&#45;&gt;Node25</title>
<g id="a_edge64_Node000001_Node000025"><a xlink:title=" ">
<path fill="none" stroke="#63b8ff" d="M1191.05,-323.85C1150.04,-298.01 1022.64,-217.76 971.54,-185.57"/>
<polygon fill="#63b8ff" stroke="#63b8ff" points="973.25,-182.51 962.92,-180.14 969.51,-188.43 973.25,-182.51"/>
</a>
</g>
</g>
<!-- Node35 -->
<g id="Node000035" class="node">
<title>Node35</title>
<g id="a_Node000035"><a xlink:title=" ">
<polygon fill="#e0e0e0" stroke="#999999" points="1773.35,-288 1728.65,-288 1728.65,-270 1773.35,-270 1773.35,-288"/>
<text text-anchor="middle" x="1751" y="-276" font-family="Helvetica,sans-Serif" font-size="10.00">cstdlib</text>
</a>
</g>
</g>
<!-- Node1&#45;&gt;Node35 -->
<g id="edge65_Node000001_Node000035" class="edge">
<title>Node1&#45;&gt;Node35</title>
<g id="a_edge65_Node000001_Node000035"><a xlink:title=" ">
<path fill="none" stroke="#63b8ff" d="M1235.28,-330.75C1315.43,-327.25 1534.57,-315.69 1715,-288 1716.25,-287.81 1717.51,-287.6 1718.79,-287.38"/>
<polygon fill="#63b8ff" stroke="#63b8ff" points="1719.48,-290.81 1728.62,-285.46 1718.13,-283.94 1719.48,-290.81"/>
</a>
</g>
</g>
<!-- Node36 -->
<g id="Node000036" class="node">
<title>Node36</title>
<g id="a_Node000036"><a xlink:title=" ">
<polygon fill="#e0e0e0" stroke="#999999" points="1857.02,-288 1790.98,-288 1790.98,-270 1857.02,-270 1857.02,-288"/>
<text text-anchor="middle" x="1824" y="-276" font-family="Helvetica,sans-Serif" font-size="10.00">string_view</text>
</a>
</g>
</g>
<!-- Node1&#45;&gt;Node36 -->
<g id="edge69_Node000001_Node000036" class="edge">
<title>Node1&#45;&gt;Node36</title>
<g id="a_edge69_Node000001_Node000036"><a xlink:title=" ">
<path fill="none" stroke="#63b8ff" d="M1235.14,-330.86C1320.65,-327.47 1566.41,-315.97 1780.42,-288.06"/>
<polygon fill="#63b8ff" stroke="#63b8ff" points="1781.13,-291.49 1790.58,-286.72 1780.21,-284.55 1781.13,-291.49"/>
</a>
</g>
</g>
<!-- Node3 -->
<g id="Node000003" class="node">
<title>Node3</title>
<g id="a_Node000003"><a xlink:href="navigation_8hpp.html" target="_top" xlink:title=" ">
<polygon fill="white" stroke="#666666" points="322.55,-180 241.45,-180 241.45,-162 322.55,-162 322.55,-180"/>
<text text-anchor="middle" x="282" y="-168" font-family="Helvetica,sans-Serif" font-size="10.00">navigation.hpp</text>
</a>
</g>
</g>
<!-- Node2&#45;&gt;Node3 -->
<g id="edge2_Node000002_Node000003" class="edge">
<title>Node2&#45;&gt;Node3</title>
<g id="a_edge2_Node000002_Node000003"><a xlink:title=" ">
<path fill="none" stroke="#63b8ff" d="M289.4,-269.93C287.74,-261.13 285.2,-246.63 284,-234 282.61,-219.38 282.13,-202.73 281.99,-190.38"/>
<polygon fill="#63b8ff" stroke="#63b8ff" points="285.49,-190.03 281.94,-180.05 278.49,-190.06 285.49,-190.03"/>
</a>
</g>
</g>
<!-- Node6 -->
<g id="Node000006" class="node">
<title>Node6</title>
<g id="a_Node000006"><a xlink:title=" ">
<polygon fill="#e0e0e0" stroke="#999999" points="469.96,-18 434.04,-18 434.04,0 469.96,0 469.96,-18"/>
<text text-anchor="middle" x="452" y="-6" font-family="Helvetica,sans-Serif" font-size="10.00">map</text>
</a>
</g>
</g>
<!-- Node2&#45;&gt;Node6 -->
<g id="edge38_Node000002_Node000006" class="edge">
<title>Node2&#45;&gt;Node6</title>
<g id="a_edge38_Node000002_Node000006"><a xlink:title=" ">
<path fill="none" stroke="#63b8ff" d="M252.85,-278.6C182.17,-277.52 38,-264.03 38,-172 38,-172 38,-172 38,-116 38,-72.75 73.33,-71.24 113,-54 168.8,-29.75 352.67,-16.12 423.67,-11.65"/>
<polygon fill="#63b8ff" stroke="#63b8ff" points="424.3,-15.12 434.06,-11.02 423.87,-8.14 424.3,-15.12"/>
</a>
</g>
</g>
<!-- Node2&#45;&gt;Node9 -->
<g id="edge37_Node000002_Node000009" class="edge">
<title>Node2&#45;&gt;Node9</title>
<g id="a_edge37_Node000002_Node000009"><a xlink:title=" ">
<path fill="none" stroke="#63b8ff" d="M275.09,-269.95C239.58,-250.87 155.08,-198.95 131,-126 125.89,-110.52 133.1,-92.92 140.43,-80.44"/>
<polygon fill="#63b8ff" stroke="#63b8ff" points="143.38,-82.32 145.85,-72.01 137.5,-78.53 143.38,-82.32"/>
</a>
</g>
</g>
<!-- Node15 -->
<g id="Node000015" class="node">
<title>Node15</title>
<g id="a_Node000015"><a xlink:href="package_8hpp.html" target="_top" xlink:title=" ">
<polygon fill="white" stroke="#666666" points="484.77,-234 411.23,-234 411.23,-216 484.77,-216 484.77,-234"/>
<text text-anchor="middle" x="448" y="-222" font-family="Helvetica,sans-Serif" font-size="10.00">package.hpp</text>
</a>
</g>
</g>
<!-- Node2&#45;&gt;Node15 -->
<g id="edge20_Node000002_Node000015" class="edge">
<title>Node2&#45;&gt;Node15</title>
<g id="a_edge20_Node000002_Node000015"><a xlink:title=" ">
<path fill="none" stroke="#63b8ff" d="M315.19,-269.99C341.69,-261.21 384.41,-247.06 414.21,-237.19"/>
<polygon fill="#63b8ff" stroke="#63b8ff" points="415.39,-240.49 423.79,-234.02 413.19,-233.84 415.39,-240.49"/>
</a>
</g>
</g>
<!-- Node23 -->
<g id="Node000023" class="node">
<title>Node23</title>
<g id="a_Node000023"><a xlink:title=" ">
<polygon fill="#e0e0e0" stroke="#999999" points="355.13,-234 292.87,-234 292.87,-216 355.13,-216 355.13,-234"/>
<text text-anchor="middle" x="324" y="-222" font-family="Helvetica,sans-Serif" font-size="10.00">type_traits</text>
</a>
</g>
</g>
<!-- Node2&#45;&gt;Node23 -->
<g id="edge39_Node000002_Node000023" class="edge">
<title>Node2&#45;&gt;Node23</title>
<g id="a_edge39_Node000002_Node000023"><a xlink:title=" ">
<path fill="none" stroke="#63b8ff" d="M296.16,-269.88C300.73,-262.67 307.56,-251.91 313.31,-242.85"/>
<polygon fill="#63b8ff" stroke="#63b8ff" points="316.37,-244.56 318.77,-234.24 310.46,-240.81 316.37,-244.56"/>
</a>
</g>
</g>
<!-- Node4 -->
<g id="Node000004" class="node">
<title>Node4</title>
<g id="a_Node000004"><a xlink:href="manifest_8hpp.html" target="_top" xlink:title=" ">
<polygon fill="white" stroke="#666666" points="499.76,-126 426.24,-126 426.24,-108 499.76,-108 499.76,-126"/>
<text text-anchor="middle" x="463" y="-114" font-family="Helvetica,sans-Serif" font-size="10.00">manifest.hpp</text>
</a>
</g>
</g>
<!-- Node3&#45;&gt;Node4 -->
<g id="edge3_Node000003_Node000004" class="edge">
<title>Node3&#45;&gt;Node4</title>
<g id="a_edge3_Node000003_Node000004"><a xlink:title=" ">
<path fill="none" stroke="#63b8ff" d="M309.88,-161.99C340.84,-153.1 390.97,-138.69 425.39,-128.81"/>
<polygon fill="#63b8ff" stroke="#63b8ff" points="426.44,-132.15 435.08,-126.02 424.51,-125.42 426.44,-132.15"/>
</a>
</g>
</g>
<!-- Node3&#45;&gt;Node9 -->
<g id="edge17_Node000003_Node000009" class="edge">
<title>Node3&#45;&gt;Node9</title>
<g id="a_edge17_Node000003_Node000009"><a xlink:title=" ">
<path fill="none" stroke="#63b8ff" d="M265.76,-161.94C250.37,-153.92 226.99,-140.7 209,-126 192.09,-112.19 175.52,-93.4 164.64,-80.14"/>
<polygon fill="#63b8ff" stroke="#63b8ff" points="167.36,-77.93 158.37,-72.33 161.9,-82.32 167.36,-77.93"/>
</a>
</g>
</g>
<!-- Node10 -->
<g id="Node000010" class="node">
<title>Node10</title>
<g id="a_Node000010"><a xlink:title=" ">
<polygon fill="#e0e0e0" stroke="#999999" points="424.11,-72 371.89,-72 371.89,-54 424.11,-54 424.11,-72"/>
<text text-anchor="middle" x="398" y="-60" font-family="Helvetica,sans-Serif" font-size="10.00">memory</text>
</a>
</g>
</g>
<!-- Node3&#45;&gt;Node10 -->
<g id="edge18_Node000003_Node000010" class="edge">
<title>Node3&#45;&gt;Node10</title>
<g id="a_edge18_Node000003_Node000010"><a xlink:title=" ">
<path fill="none" stroke="#63b8ff" d="M284.9,-161.83C289.8,-149 300.79,-123.95 317,-108 330.98,-94.24 350.14,-83.57 366.32,-76.19"/>
<polygon fill="#63b8ff" stroke="#63b8ff" points="368.15,-79.21 375.93,-72.02 365.36,-72.79 368.15,-79.21"/>
</a>
</g>
</g>
<!-- Node13 -->
<g id="Node000013" class="node">
<title>Node13</title>
<g id="a_Node000013"><a xlink:href="xml_8hpp.html" target="_top" xlink:title=" ">
<polygon fill="white" stroke="#666666" points="269.51,-126 218.49,-126 218.49,-108 269.51,-108 269.51,-126"/>
<text text-anchor="middle" x="244" y="-114" font-family="Helvetica,sans-Serif" font-size="10.00">xml.hpp</text>
</a>
</g>
</g>
<!-- Node3&#45;&gt;Node13 -->
<g id="edge13_Node000003_Node000013" class="edge">
<title>Node3&#45;&gt;Node13</title>
<g id="a_edge13_Node000003_Node000013"><a xlink:title=" ">
<path fill="none" stroke="#63b8ff" d="M276.06,-161.88C270.74,-154.59 262.77,-143.68 256.1,-134.56"/>
<polygon fill="#63b8ff" stroke="#63b8ff" points="258.75,-132.25 250.02,-126.24 253.1,-136.38 258.75,-132.25"/>
</a>
</g>
</g>
<!-- Node3&#45;&gt;Node14 -->
<g id="edge19_Node000003_Node000014" class="edge">
<title>Node3&#45;&gt;Node14</title>
<g id="a_edge19_Node000003_Node000014"><a xlink:title=" ">
<path fill="none" stroke="#63b8ff" d="M292.31,-161.88C302.23,-154.06 317.45,-142.07 329.47,-132.6"/>
<polygon fill="#63b8ff" stroke="#63b8ff" points="331.85,-135.18 337.54,-126.24 327.52,-129.68 331.85,-135.18"/>
</a>
</g>
</g>
<!-- Node5 -->
<g id="Node000005" class="node">
<title>Node5</title>
<g id="a_Node000005"><a xlink:href="file__metadata_8hpp.html" target="_top" xlink:title=" ">
<polygon fill="white" stroke="#666666" points="575.5,-72 480.5,-72 480.5,-54 575.5,-54 575.5,-72"/>
<text text-anchor="middle" x="528" y="-60" font-family="Helvetica,sans-Serif" font-size="10.00">file_metadata.hpp</text>
</a>
</g>
</g>
<!-- Node4&#45;&gt;Node5 -->
<g id="edge4_Node000004_Node000005" class="edge">
<title>Node4&#45;&gt;Node5</title>
<g id="a_edge4_Node000004_Node000005"><a xlink:title=" ">
<path fill="none" stroke="#63b8ff" d="M473.16,-107.88C482.93,-100.06 497.91,-88.07 509.75,-78.6"/>
<polygon fill="#63b8ff" stroke="#63b8ff" points="512.08,-81.22 517.7,-72.24 507.71,-75.75 512.08,-81.22"/>
</a>
</g>
</g>
<!-- Node4&#45;&gt;Node6 -->
<g id="edge9_Node000004_Node000006" class="edge">
<title>Node4&#45;&gt;Node6</title>
<g id="a_edge9_Node000004_Node000006"><a xlink:title=" ">
<path fill="none" stroke="#63b8ff" d="M462.14,-107.68C460.37,-90.65 456.3,-51.47 453.89,-28.24"/>
<polygon fill="#63b8ff" stroke="#63b8ff" points="457.37,-27.86 452.86,-18.28 450.41,-28.59 457.37,-27.86"/>
</a>
</g>
</g>
<!-- Node4&#45;&gt;Node9 -->
<g id="edge8_Node000004_Node000009" class="edge">
<title>Node4&#45;&gt;Node9</title>
<g id="a_edge8_Node000004_Node000009"><a xlink:title=" ">
<path fill="none" stroke="#63b8ff" d="M426.1,-109.83C367.39,-100.01 253.15,-80.91 192.34,-70.75"/>
<polygon fill="#63b8ff" stroke="#63b8ff" points="192.79,-67.27 182.35,-69.07 191.63,-74.18 192.79,-67.27"/>
</a>
</g>
</g>
<!-- Node4&#45;&gt;Node10 -->
<g id="edge10_Node000004_Node000010" class="edge">
<title>Node4&#45;&gt;Node10</title>
<g id="a_edge10_Node000004_Node000010"><a xlink:title=" ">
<path fill="none" stroke="#63b8ff" d="M452.84,-107.88C443.07,-100.06 428.09,-88.07 416.25,-78.6"/>
<polygon fill="#63b8ff" stroke="#63b8ff" points="418.29,-75.75 408.3,-72.24 413.92,-81.22 418.29,-75.75"/>
</a>
</g>
</g>
<!-- Node11 -->
<g id="Node000011" class="node">
<title>Node11</title>
<g id="a_Node000011"><a xlink:title=" ">
<polygon fill="#e0e0e0" stroke="#999999" points="640.08,-72 593.92,-72 593.92,-54 640.08,-54 640.08,-72"/>
<text text-anchor="middle" x="617" y="-60" font-family="Helvetica,sans-Serif" font-size="10.00">ranges</text>
</a>
</g>
</g>
<!-- Node4&#45;&gt;Node11 -->
<g id="edge11_Node000004_Node000011" class="edge">
<title>Node4&#45;&gt;Node11</title>
<g id="a_edge11_Node000004_Node000011"><a xlink:title=" ">
<path fill="none" stroke="#63b8ff" d="M486.73,-107.99C512.69,-99.22 554.5,-85.1 583.73,-75.23"/>
<polygon fill="#63b8ff" stroke="#63b8ff" points="585.15,-78.45 593.5,-71.93 582.91,-71.82 585.15,-78.45"/>
</a>
</g>
</g>
<!-- Node12 -->
<g id="Node000012" class="node">
<title>Node12</title>
<g id="a_Node000012"><a xlink:title=" ">
<polygon fill="#e0e0e0" stroke="#999999" points="1291.3,-72 1232.7,-72 1232.7,-54 1291.3,-54 1291.3,-72"/>
<text text-anchor="middle" x="1262" y="-60" font-family="Helvetica,sans-Serif" font-size="10.00">stdexcept</text>
</a>
</g>
</g>
<!-- Node4&#45;&gt;Node12 -->
<g id="edge12_Node000004_Node000012" class="edge">
<title>Node4&#45;&gt;Node12</title>
<g id="a_edge12_Node000004_Node000012"><a xlink:title=" ">
<path fill="none" stroke="#63b8ff" d="M499.78,-112.23C514.46,-110.79 531.52,-109.21 547,-108 804.38,-87.83 1114.49,-71.44 1222.57,-65.96"/>
<polygon fill="#63b8ff" stroke="#63b8ff" points="1222.88,-69.45 1232.69,-65.45 1222.53,-62.46 1222.88,-69.45"/>
</a>
</g>
</g>
<!-- Node5&#45;&gt;Node6 -->
<g id="edge5_Node000005_Node000006" class="edge">
<title>Node5&#45;&gt;Node6</title>
<g id="a_edge5_Node000005_Node000006"><a xlink:title=" ">
<path fill="none" stroke="#63b8ff" d="M516.12,-53.88C504.48,-45.91 486.49,-33.6 472.53,-24.05"/>
<polygon fill="#63b8ff" stroke="#63b8ff" points="474.27,-21 464.04,-18.24 470.32,-26.78 474.27,-21"/>
</a>
</g>
</g>
<!-- Node5&#45;&gt;Node7 -->
<g id="edge6_Node000005_Node000007" class="edge">
<title>Node5&#45;&gt;Node7</title>
<g id="a_edge6_Node000005_Node000007"><a xlink:title=" ">
<path fill="none" stroke="#63b8ff" d="M575.72,-55.2C650,-44.62 791.61,-24.44 857.56,-15.05"/>
<polygon fill="#63b8ff" stroke="#63b8ff" points="858.07,-18.51 867.47,-13.64 857.08,-11.58 858.07,-18.51"/>
</a>
</g>
</g>
<!-- Node8 -->
<g id="Node000008" class="node">
<title>Node8</title>
<g id="a_Node000008"><a xlink:title=" ">
<polygon fill="#e0e0e0" stroke="#999999" points="1492.46,-18 1451.54,-18 1451.54,0 1492.46,0 1492.46,-18"/>
<text text-anchor="middle" x="1472" y="-6" font-family="Helvetica,sans-Serif" font-size="10.00">string</text>
</a>
</g>
</g>
<!-- Node5&#45;&gt;Node8 -->
<g id="edge7_Node000005_Node000008" class="edge">
<title>Node5&#45;&gt;Node8</title>
<g id="a_edge7_Node000005_Node000008"><a xlink:title=" ">
<path fill="none" stroke="#63b8ff" d="M575.55,-55C578.74,-54.63 581.92,-54.29 585,-54 919.94,-22.25 1328.34,-12.66 1441.62,-10.52"/>
<polygon fill="#63b8ff" stroke="#63b8ff" points="1441.71,-14.02 1451.65,-10.33 1441.58,-7.02 1441.71,-14.02"/>
</a>
</g>
</g>
<!-- Node13&#45;&gt;Node5 -->
<g id="edge14_Node000013_Node000005" class="edge">
<title>Node13&#45;&gt;Node5</title>
<g id="a_edge14_Node000013_Node000005"><a xlink:title=" ">
<path fill="none" stroke="#63b8ff" d="M269.7,-111.29C315.75,-102.86 413.19,-85.02 474.35,-73.82"/>
<polygon fill="#63b8ff" stroke="#63b8ff" points="475.01,-77.26 484.21,-72.02 473.75,-70.38 475.01,-77.26"/>
</a>
</g>
</g>
<!-- Node13&#45;&gt;Node6 -->
<g id="edge16_Node000013_Node000006" class="edge">
<title>Node13&#45;&gt;Node6</title>
<g id="a_edge16_Node000013_Node000006"><a xlink:title=" ">
<path fill="none" stroke="#63b8ff" d="M259.35,-107.87C281.97,-95.92 325.61,-72.98 363,-54 384.27,-43.2 408.55,-31.22 426.37,-22.49"/>
<polygon fill="#63b8ff" stroke="#63b8ff" points="428.1,-25.54 435.54,-18.01 425.02,-19.25 428.1,-25.54"/>
</a>
</g>
</g>
<!-- Node13&#45;&gt;Node9 -->
<g id="edge15_Node000013_Node000009" class="edge">
<title>Node13&#45;&gt;Node9</title>
<g id="a_edge15_Node000013_Node000009"><a xlink:title=" ">
<path fill="none" stroke="#63b8ff" d="M229.62,-107.88C215.04,-99.63 192.24,-86.74 175.12,-77.07"/>
<polygon fill="#63b8ff" stroke="#63b8ff" points="176.7,-73.94 166.27,-72.07 173.26,-80.04 176.7,-73.94"/>
</a>
</g>
</g>
<!-- Node15&#45;&gt;Node4 -->
<g id="edge21_Node000015_Node000004" class="edge">
<title>Node15&#45;&gt;Node4</title>
<g id="a_edge21_Node000015_Node000004"><a xlink:title=" ">
<path fill="none" stroke="#63b8ff" d="M449.18,-215.68C451.59,-198.65 457.13,-159.47 460.42,-136.24"/>
<polygon fill="#63b8ff" stroke="#63b8ff" points="463.89,-136.67 461.83,-126.28 456.96,-135.69 463.89,-136.67"/>
</a>
</g>
</g>
<!-- Node15&#45;&gt;Node9 -->
<g id="edge36_Node000015_Node000009" class="edge">
<title>Node15&#45;&gt;Node9</title>
<g id="a_edge36_Node000015_Node000009"><a xlink:title=" ">
<path fill="none" stroke="#63b8ff" d="M411.36,-221.05C365.84,-216.44 286.4,-205.29 223,-180 181.43,-163.42 159.55,-165.23 138,-126 130.37,-112.11 135.71,-94.29 141.86,-81.33"/>
<polygon fill="#63b8ff" stroke="#63b8ff" points="145.14,-82.61 146.74,-72.13 138.96,-79.33 145.14,-82.61"/>
</a>
</g>
</g>
<!-- Node15&#45;&gt;Node13 -->
<g id="edge35_Node000015_Node000013" class="edge">
<title>Node15&#45;&gt;Node13</title>
<g id="a_edge35_Node000015_Node000013"><a xlink:title=" ">
<path fill="none" stroke="#63b8ff" d="M410.91,-219.02C352.18,-210.76 243.26,-193.78 232,-180 221.73,-167.43 227.35,-148.66 233.92,-135.07"/>
<polygon fill="#63b8ff" stroke="#63b8ff" points="237.01,-136.71 238.66,-126.25 230.84,-133.4 237.01,-136.71"/>
</a>
</g>
</g>
<!-- Node15&#45;&gt;Node16 -->
<g id="edge22_Node000015_Node000016" class="edge">
<title>Node15&#45;&gt;Node16</title>
<g id="a_edge22_Node000015_Node000016"><a xlink:title=" ">
<path fill="none" stroke="#63b8ff" d="M484.76,-221.9C627.6,-213.73 1145.87,-184.08 1308.1,-174.8"/>
<polygon fill="#63b8ff" stroke="#63b8ff" points="1308.48,-178.28 1318.27,-174.22 1308.08,-171.29 1308.48,-178.28"/>
</a>
</g>
</g>
<!-- Node20 -->
<g id="Node000020" class="node">
<title>Node20</title>
<g id="a_Node000020"><a xlink:href="spine_8hpp.html" target="_top" xlink:title=" ">
<polygon fill="white" stroke="#666666" points="535.87,-180 476.13,-180 476.13,-162 535.87,-162 535.87,-180"/>
<text text-anchor="middle" x="506" y="-168" font-family="Helvetica,sans-Serif" font-size="10.00">spine.hpp</text>
</a>
</g>
</g>
<!-- Node15&#45;&gt;Node20 -->
<g id="edge28_Node000015_Node000020" class="edge">
<title>Node15&#45;&gt;Node20</title>
<g id="a_edge28_Node000015_Node000020"><a xlink:title=" ">
<path fill="none" stroke="#63b8ff" d="M457.06,-215.88C465.61,-208.21 478.64,-196.53 489.1,-187.15"/>
<polygon fill="#63b8ff" stroke="#63b8ff" points="491.7,-189.52 496.81,-180.24 487.03,-184.31 491.7,-189.52"/>
</a>
</g>
</g>
<!-- Node16&#45;&gt;Node8 -->
<g id="edge26_Node000016_Node000008" class="edge">
<title>Node16&#45;&gt;Node8</title>
<g id="a_edge26_Node000016_Node000008"><a xlink:title=" ">
<path fill="none" stroke="#63b8ff" d="M1395.75,-163.31C1465.51,-151.25 1605.15,-127.01 1606,-126 1643.46,-81.34 1552.09,-39.25 1502.06,-20.39"/>
<polygon fill="#63b8ff" stroke="#63b8ff" points="1502.95,-16.99 1492.36,-16.83 1500.54,-23.56 1502.95,-16.99"/>
</a>
</g>
</g>
<!-- Node16&#45;&gt;Node12 -->
<g id="edge25_Node000016_Node000012" class="edge">
<title>Node16&#45;&gt;Node12</title>
<g id="a_edge25_Node000016_Node000012"><a xlink:title=" ">
<path fill="none" stroke="#63b8ff" d="M1349.55,-161.68C1333.73,-144.03 1296.59,-102.59 1276.13,-79.77"/>
<polygon fill="#63b8ff" stroke="#63b8ff" points="1278.7,-77.39 1269.42,-72.28 1273.49,-82.06 1278.7,-77.39"/>
</a>
</g>
</g>
<!-- Node17 -->
<g id="Node000017" class="node">
<title>Node17</title>
<g id="a_Node000017"><a xlink:title=" ">
<polygon fill="#e0e0e0" stroke="#999999" points="1597.08,-126 1540.92,-126 1540.92,-108 1597.08,-108 1597.08,-126"/>
<text text-anchor="middle" x="1569" y="-114" font-family="Helvetica,sans-Serif" font-size="10.00">charconv</text>
</a>
</g>
</g>
<!-- Node16&#45;&gt;Node17 -->
<g id="edge23_Node000016_Node000017" class="edge">
<title>Node16&#45;&gt;Node17</title>
<g id="a_edge23_Node000016_Node000017"><a xlink:title=" ">
<path fill="none" stroke="#63b8ff" d="M1389.66,-161.99C1427.78,-152.64 1490.72,-137.2 1530.99,-127.32"/>
<polygon fill="#63b8ff" stroke="#63b8ff" points="1531.84,-130.72 1540.71,-124.94 1530.17,-123.92 1531.84,-130.72"/>
</a>
</g>
</g>
<!-- Node18 -->
<g id="Node000018" class="node">
<title>Node18</title>
<g id="a_Node000018"><a xlink:title=" ">
<polygon fill="#e0e0e0" stroke="#999999" points="1431.08,-126 1384.92,-126 1384.92,-108 1431.08,-108 1431.08,-126"/>
<text text-anchor="middle" x="1408" y="-114" font-family="Helvetica,sans-Serif" font-size="10.00">chrono</text>
</a>
</g>
</g>
<!-- Node16&#45;&gt;Node18 -->
<g id="edge24_Node000016_Node000018" class="edge">
<title>Node16&#45;&gt;Node18</title>
<g id="a_edge24_Node000016_Node000018"><a xlink:title=" ">
<path fill="none" stroke="#63b8ff" d="M1364.97,-161.88C1372.41,-154.29 1383.71,-142.76 1392.87,-133.43"/>
<polygon fill="#63b8ff" stroke="#63b8ff" points="1395.42,-135.83 1399.92,-126.24 1390.42,-130.93 1395.42,-135.83"/>
</a>
</g>
</g>
<!-- Node19 -->
<g id="Node000019" class="node">
<title>Node19</title>
<g id="a_Node000019"><a xlink:title=" ">
<polygon fill="#e0e0e0" stroke="#999999" points="1523.35,-126 1448.65,-126 1448.65,-108 1523.35,-108 1523.35,-126"/>
<text text-anchor="middle" x="1486" y="-114" font-family="Helvetica,sans-Serif" font-size="10.00">system_error</text>
</a>
</g>
</g>
<!-- Node16&#45;&gt;Node19 -->
<g id="edge27_Node000016_Node000019" class="edge">
<title>Node16&#45;&gt;Node19</title>
<g id="a_edge27_Node000016_Node000019"><a xlink:title=" ">
<path fill="none" stroke="#63b8ff" d="M1376.87,-161.99C1398.12,-153.43 1432.03,-139.76 1456.41,-129.93"/>
<polygon fill="#63b8ff" stroke="#63b8ff" points="1457.93,-133.09 1465.89,-126.11 1455.31,-126.6 1457.93,-133.09"/>
</a>
</g>
</g>
<!-- Node20&#45;&gt;Node4 -->
<g id="edge29_Node000020_Node000004" class="edge">
<title>Node20&#45;&gt;Node4</title>
<g id="a_edge29_Node000020_Node000004"><a xlink:title=" ">
<path fill="none" stroke="#63b8ff" d="M499.28,-161.88C493.13,-154.44 483.86,-143.22 476.22,-133.99"/>
<polygon fill="#63b8ff" stroke="#63b8ff" points="478.88,-131.72 469.81,-126.24 473.49,-136.18 478.88,-131.72"/>
</a>
</g>
</g>
<!-- Node20&#45;&gt;Node10 -->
<g id="edge32_Node000020_Node000010" class="edge">
<title>Node20&#45;&gt;Node10</title>
<g id="a_edge32_Node000020_Node000010"><a xlink:title=" ">
<path fill="none" stroke="#63b8ff" d="M476.1,-161.98C456.71,-155.33 432.29,-143.99 417,-126 406.52,-113.67 401.82,-95.64 399.71,-82.2"/>
<polygon fill="#63b8ff" stroke="#63b8ff" points="403.18,-81.71 398.48,-72.21 396.23,-82.56 403.18,-81.71"/>
</a>
</g>
</g>
<!-- Node20&#45;&gt;Node11 -->
<g id="edge33_Node000020_Node000011" class="edge">
<title>Node20&#45;&gt;Node11</title>
<g id="a_edge33_Node000020_Node000011"><a xlink:title=" ">
<path fill="none" stroke="#63b8ff" d="M509.88,-161.98C516.27,-149.36 530.02,-124.59 547,-108 559.85,-95.45 576.86,-84.65 590.89,-76.9"/>
<polygon fill="#63b8ff" stroke="#63b8ff" points="592.86,-79.82 600.05,-72.03 589.57,-73.64 592.86,-79.82"/>
</a>
</g>
</g>
<!-- Node20&#45;&gt;Node14 -->
<g id="edge34_Node000020_Node000014" class="edge">
<title>Node20&#45;&gt;Node14</title>
<g id="a_edge34_Node000020_Node000014"><a xlink:title=" ">
<path fill="none" stroke="#63b8ff" d="M481.66,-161.99C454.28,-152.98 409.73,-138.32 379.67,-128.42"/>
<polygon fill="#63b8ff" stroke="#63b8ff" points="380.67,-125.07 370.07,-125.26 378.48,-131.72 380.67,-125.07"/>
</a>
</g>
</g>
<!-- Node21 -->
<g id="Node000021" class="node">
<title>Node21</title>
<g id="a_Node000021"><a xlink:title=" ">
<polygon fill="#e0e0e0" stroke="#999999" points="687.31,-126 628.69,-126 628.69,-108 687.31,-108 687.31,-126"/>
<text text-anchor="middle" x="658" y="-114" font-family="Helvetica,sans-Serif" font-size="10.00">functional</text>
</a>
</g>
</g>
<!-- Node20&#45;&gt;Node21 -->
<g id="edge30_Node000020_Node000021" class="edge">
<title>Node20&#45;&gt;Node21</title>
<g id="a_edge30_Node000020_Node000021"><a xlink:title=" ">
<path fill="none" stroke="#63b8ff" d="M529.42,-161.99C554.97,-153.25 596.07,-139.19 624.91,-129.32"/>
<polygon fill="#63b8ff" stroke="#63b8ff" points="626.23,-132.57 634.56,-126.02 623.96,-125.95 626.23,-132.57"/>
</a>
</g>
</g>
<!-- Node20&#45;&gt;Node22 -->
<g id="edge31_Node000020_Node000022" class="edge">
<title>Node20&#45;&gt;Node22</title>
<g id="a_edge31_Node000020_Node000022"><a xlink:title=" ">
<path fill="none" stroke="#63b8ff" d="M518.03,-161.88C529.9,-153.86 548.27,-141.46 562.45,-131.88"/>
<polygon fill="#63b8ff" stroke="#63b8ff" points="564.72,-134.57 571.05,-126.07 560.81,-128.76 564.72,-134.57"/>
</a>
</g>
</g>
<!-- Node24&#45;&gt;Node8 -->
<g id="edge62_Node000024_Node000008" class="edge">
<title>Node24&#45;&gt;Node8</title>
<g id="a_edge62_Node000024_Node000008"><a xlink:title=" ">
<path fill="none" stroke="#63b8ff" d="M1445.65,-223.96C1488.4,-221.62 1550.85,-212.28 1594,-180 1615.98,-163.55 1617.11,-152.58 1624,-126 1632.53,-93.07 1623.37,-76.66 1598,-54 1571.03,-29.91 1530.12,-18.84 1502.28,-13.87"/>
<polygon fill="#63b8ff" stroke="#63b8ff" points="1502.75,-10.4 1492.31,-12.25 1501.62,-17.31 1502.75,-10.4"/>
</a>
</g>
</g>
<!-- Node24&#45;&gt;Node9 -->
<g id="edge58_Node000024_Node000009" class="edge">
<title>Node24&#45;&gt;Node9</title>
<g id="a_edge58_Node000024_Node000009"><a xlink:title=" ">
<path fill="none" stroke="#63b8ff" d="M1350.28,-223.28C1137.44,-219.94 282.9,-205.02 232,-180 191.67,-160.18 168.03,-109.08 157.89,-81.79"/>
<polygon fill="#63b8ff" stroke="#63b8ff" points="161.07,-80.29 154.46,-72.01 154.47,-82.61 161.07,-80.29"/>
</a>
</g>
</g>
<!-- Node24&#45;&gt;Node16 -->
<g id="edge41_Node000024_Node000016" class="edge">
<title>Node24&#45;&gt;Node16</title>
<g id="a_edge41_Node000024_Node000016"><a xlink:title=" ">
<path fill="none" stroke="#63b8ff" d="M1391.59,-215.88C1385.79,-208.52 1377.07,-197.45 1369.83,-188.28"/>
<polygon fill="#63b8ff" stroke="#63b8ff" points="1372.44,-185.93 1363.5,-180.24 1366.94,-190.26 1372.44,-185.93"/>
</a>
</g>
</g>
<!-- Node24&#45;&gt;Node25 -->
<g id="edge42_Node000024_Node000025" class="edge">
<title>Node24&#45;&gt;Node25</title>
<g id="a_edge42_Node000024_Node000025"><a xlink:title=" ">
<path fill="none" stroke="#63b8ff" d="M1350.48,-218.48C1263.15,-208.35 1078.34,-186.9 993.83,-177.09"/>
<polygon fill="#63b8ff" stroke="#63b8ff" points="994.13,-173.6 983.8,-175.92 993.33,-180.55 994.13,-173.6"/>
</a>
</g>
</g>
<!-- Node32 -->
<g id="Node000032" class="node">
<title>Node32</title>
<g id="a_Node000032"><a xlink:title=" ">
<polygon fill="#e0e0e0" stroke="#999999" points="1462.84,-180 1413.16,-180 1413.16,-162 1462.84,-162 1462.84,-180"/>
<text text-anchor="middle" x="1438" y="-168" font-family="Helvetica,sans-Serif" font-size="10.00">fstream</text>
</a>
</g>
</g>
<!-- Node24&#45;&gt;Node32 -->
<g id="edge59_Node000024_Node000032" class="edge">
<title>Node24&#45;&gt;Node32</title>
<g id="a_edge59_Node000024_Node000032"><a xlink:title=" ">
<path fill="none" stroke="#63b8ff" d="M1404.25,-215.88C1409.91,-208.52 1418.42,-197.45 1425.48,-188.28"/>
<polygon fill="#63b8ff" stroke="#63b8ff" points="1428.34,-190.3 1431.66,-180.24 1422.79,-186.03 1428.34,-190.3"/>
</a>
</g>
</g>
<!-- Node33 -->
<g id="Node000033" class="node">
<title>Node33</title>
<g id="a_Node000033"><a xlink:title=" ">
<polygon fill="#e0e0e0" stroke="#999999" points="1525.35,-180 1480.65,-180 1480.65,-162 1525.35,-162 1525.35,-180"/>
<text text-anchor="middle" x="1503" y="-168" font-family="Helvetica,sans-Serif" font-size="10.00">iosfwd</text>
</a>
</g>
</g>
<!-- Node24&#45;&gt;Node33 -->
<g id="edge60_Node000024_Node000033" class="edge">
<title>Node24&#45;&gt;Node33</title>
<g id="a_edge60_Node000024_Node000033"><a xlink:title=" ">
<path fill="none" stroke="#63b8ff" d="M1414.41,-215.88C1431.36,-207.48 1458.04,-194.27 1477.7,-184.53"/>
<polygon fill="#63b8ff" stroke="#63b8ff" points="1479.3,-187.64 1486.71,-180.07 1476.19,-181.37 1479.3,-187.64"/>
</a>
</g>
</g>
<!-- Node34 -->
<g id="Node000034" class="node">
<title>Node34</title>
<g id="a_Node000034"><a xlink:title=" ">
<polygon fill="#e0e0e0" stroke="#999999" points="1584.51,-180 1543.49,-180 1543.49,-162 1584.51,-162 1584.51,-180"/>
<text text-anchor="middle" x="1564" y="-168" font-family="Helvetica,sans-Serif" font-size="10.00">regex</text>
</a>
</g>
</g>
<!-- Node24&#45;&gt;Node34 -->
<g id="edge61_Node000024_Node000034" class="edge">
<title>Node24&#45;&gt;Node34</title>
<g id="a_edge61_Node000024_Node000034"><a xlink:title=" ">
<path fill="none" stroke="#63b8ff" d="M1423.57,-215.99C1453.28,-206.68 1502.24,-191.35 1533.79,-181.46"/>
<polygon fill="#63b8ff" stroke="#63b8ff" points="1534.88,-184.79 1543.38,-178.46 1532.79,-178.11 1534.88,-184.79"/>
</a>
</g>
</g>
<!-- Node25&#45;&gt;Node6 -->
<g id="edge47_Node000025_Node000006" class="edge">
<title>Node25&#45;&gt;Node6</title>
<g id="a_edge47_Node000025_Node000006"><a xlink:title=" ">
<path fill="none" stroke="#63b8ff" d="M915.96,-164.59C879.45,-158.11 820.22,-145.59 772,-126 713.32,-102.15 707.95,-77.18 649,-54 591.17,-31.26 518.93,-18.91 479.99,-13.47"/>
<polygon fill="#63b8ff" stroke="#63b8ff" points="480.31,-9.98 469.93,-12.11 479.38,-16.92 480.31,-9.98"/>
</a>
</g>
</g>
<!-- Node25&#45;&gt;Node7 -->
<g id="edge49_Node000025_Node000007" class="edge">
<title>Node25&#45;&gt;Node7</title>
<g id="a_edge49_Node000025_Node000007"><a xlink:title=" ">
<path fill="none" stroke="#63b8ff" d="M940.53,-161.94C931.65,-153.82 918.75,-140.45 912,-126 896.99,-93.9 893.6,-51.97 892.97,-28.32"/>
<polygon fill="#63b8ff" stroke="#63b8ff" points="896.47,-27.99 892.85,-18.03 889.47,-28.07 896.47,-27.99"/>
</a>
</g>
</g>
<!-- Node25&#45;&gt;Node8 -->
<g id="edge54_Node000025_Node000008" class="edge">
<title>Node25&#45;&gt;Node8</title>
<g id="a_edge54_Node000025_Node000008"><a xlink:title=" ">
<path fill="none" stroke="#63b8ff" d="M983.83,-170C1044.8,-169.01 1176.4,-162.42 1280,-126 1349.52,-101.56 1421.16,-49.88 1453.81,-24.58"/>
<polygon fill="#63b8ff" stroke="#63b8ff" points="1456.25,-27.11 1461.95,-18.18 1451.92,-21.61 1456.25,-27.11"/>
</a>
</g>
</g>
<!-- Node25&#45;&gt;Node10 -->
<g id="edge48_Node000025_Node000010" class="edge">
<title>Node25&#45;&gt;Node10</title>
<g id="a_edge48_Node000025_Node000010"><a xlink:title=" ">
<path fill="none" stroke="#63b8ff" d="M916.24,-165C874.16,-158.31 800.29,-145.03 739,-126 719.21,-119.86 715.96,-113.56 696,-108 647.46,-94.49 503.16,-76.39 434.75,-68.26"/>
<polygon fill="#63b8ff" stroke="#63b8ff" points="434.8,-64.74 424.45,-67.05 433.97,-71.69 434.8,-64.74"/>
</a>
</g>
</g>
<!-- Node25&#45;&gt;Node11 -->
<g id="edge50_Node000025_Node000011" class="edge">
<title>Node25&#45;&gt;Node11</title>
<g id="a_edge50_Node000025_Node000011"><a xlink:title=" ">
<path fill="none" stroke="#63b8ff" d="M937.93,-161.84C917.72,-148.55 875.39,-122.3 836,-108 772.52,-84.96 694.07,-72.9 650.38,-67.55"/>
<polygon fill="#63b8ff" stroke="#63b8ff" points="650.66,-64.06 640.32,-66.36 649.84,-71.01 650.66,-64.06"/>
</a>
</g>
</g>
<!-- Node25&#45;&gt;Node12 -->
<g id="edge53_Node000025_Node000012" class="edge">
<title>Node25&#45;&gt;Node12</title>
<g id="a_edge53_Node000025_Node000012"><a xlink:title=" ">
<path fill="none" stroke="#63b8ff" d="M983.93,-170.54C1057.15,-170.89 1226.26,-167.14 1262,-126 1272.25,-114.2 1270.87,-95.85 1267.76,-82.16"/>
<polygon fill="#63b8ff" stroke="#63b8ff" points="1271.11,-81.12 1265.08,-72.41 1264.36,-82.98 1271.11,-81.12"/>
</a>
</g>
</g>
<!-- Node25&#45;&gt;Node14 -->
<g id="edge57_Node000025_Node000014" class="edge">
<title>Node25&#45;&gt;Node14</title>
<g id="a_edge57_Node000025_Node000014"><a xlink:title=" ">
<path fill="none" stroke="#63b8ff" d="M915.98,-167.58C831.48,-161.5 605.26,-144.68 417,-126 404.87,-124.8 391.57,-123.3 379.9,-121.92"/>
<polygon fill="#63b8ff" stroke="#63b8ff" points="380.08,-118.42 369.73,-120.71 379.25,-125.37 380.08,-118.42"/>
</a>
</g>
</g>
<!-- Node25&#45;&gt;Node21 -->
<g id="edge45_Node000025_Node000021" class="edge">
<title>Node25&#45;&gt;Node21</title>
<g id="a_edge45_Node000025_Node000021"><a xlink:title=" ">
<path fill="none" stroke="#63b8ff" d="M916.15,-164.12C868.23,-155.77 777.89,-139.94 701,-126 699.92,-125.8 698.82,-125.6 697.71,-125.4"/>
<polygon fill="#63b8ff" stroke="#63b8ff" points="698.07,-121.91 687.6,-123.54 696.8,-128.79 698.07,-121.91"/>
</a>
</g>
</g>
<!-- Node25&#45;&gt;Node22 -->
<g id="edge46_Node000025_Node000022" class="edge">
<title>Node25&#45;&gt;Node22</title>
<g id="a_edge46_Node000025_Node000022"><a xlink:title=" ">
<path fill="none" stroke="#63b8ff" d="M916.13,-166.39C857.9,-160 734.84,-145.62 620.41,-125.92"/>
<polygon fill="#63b8ff" stroke="#63b8ff" points="620.88,-122.45 610.43,-124.19 619.68,-129.35 620.88,-122.45"/>
</a>
</g>
</g>
<!-- Node26 -->
<g id="Node000026" class="node">
<title>Node26</title>
<g id="a_Node000026"><a xlink:title=" ">
<polygon fill="#e0e0e0" stroke="#999999" points="978.63,-126 921.37,-126 921.37,-108 978.63,-108 978.63,-126"/>
<text text-anchor="middle" x="950" y="-114" font-family="Helvetica,sans-Serif" font-size="10.00">algorithm</text>
</a>
</g>
</g>
<!-- Node25&#45;&gt;Node26 -->
<g id="edge43_Node000025_Node000026" class="edge">
<title>Node25&#45;&gt;Node26</title>
<g id="a_edge43_Node000025_Node000026"><a xlink:title=" ">
<path fill="none" stroke="#63b8ff" d="M950,-161.88C950,-155.05 950,-145.03 950,-136.29"/>
<polygon fill="#63b8ff" stroke="#63b8ff" points="953.5,-136.24 950,-126.24 946.5,-136.24 953.5,-136.24"/>
</a>
</g>
</g>
<!-- Node27 -->
<g id="Node000027" class="node">
<title>Node27</title>
<g id="a_Node000027"><a xlink:title=" ">
<polygon fill="#e0e0e0" stroke="#999999" points="1045.23,-126 996.77,-126 996.77,-108 1045.23,-108 1045.23,-126"/>
<text text-anchor="middle" x="1021" y="-114" font-family="Helvetica,sans-Serif" font-size="10.00">cassert</text>
</a>
</g>
</g>
<!-- Node25&#45;&gt;Node27 -->
<g id="edge44_Node000025_Node000027" class="edge">
<title>Node25&#45;&gt;Node27</title>
<g id="a_edge44_Node000025_Node000027"><a xlink:title=" ">
<path fill="none" stroke="#63b8ff" d="M961.09,-161.88C971.87,-153.98 988.46,-141.84 1001.45,-132.32"/>
<polygon fill="#63b8ff" stroke="#63b8ff" points="1003.75,-134.97 1009.75,-126.24 999.61,-129.32 1003.75,-134.97"/>
</a>
</g>
</g>
<!-- Node28 -->
<g id="Node000028" class="node">
<title>Node28</title>
<g id="a_Node000028"><a xlink:title=" ">
<polygon fill="#e0e0e0" stroke="#999999" points="1092.84,-126 1063.16,-126 1063.16,-108 1092.84,-108 1092.84,-126"/>
<text text-anchor="middle" x="1078" y="-114" font-family="Helvetica,sans-Serif" font-size="10.00">set</text>
</a>
</g>
</g>
<!-- Node25&#45;&gt;Node28 -->
<g id="edge51_Node000025_Node000028" class="edge">
<title>Node25&#45;&gt;Node28</title>
<g id="a_edge51_Node000025_Node000028"><a xlink:title=" ">
<path fill="none" stroke="#63b8ff" d="M969.72,-161.99C992.3,-152.82 1029.31,-137.78 1053.66,-127.89"/>
<polygon fill="#63b8ff" stroke="#63b8ff" points="1055.3,-131 1063.25,-123.99 1052.66,-124.51 1055.3,-131"/>
</a>
</g>
</g>
<!-- Node29 -->
<g id="Node000029" class="node">
<title>Node29</title>
<g id="a_Node000029"><a xlink:title=" ">
<polygon fill="#e0e0e0" stroke="#999999" points="1197.04,-126 1110.96,-126 1110.96,-108 1197.04,-108 1197.04,-126"/>
<text text-anchor="middle" x="1154" y="-114" font-family="Helvetica,sans-Serif" font-size="10.00">source_location</text>
</a>
</g>
</g>
<!-- Node25&#45;&gt;Node29 -->
<g id="edge52_Node000025_Node000029" class="edge">
<title>Node25&#45;&gt;Node29</title>
<g id="a_edge52_Node000025_Node000029"><a xlink:title=" ">
<path fill="none" stroke="#63b8ff" d="M981.43,-161.99C1016.62,-153.02 1073.79,-138.45 1112.6,-128.55"/>
<polygon fill="#63b8ff" stroke="#63b8ff" points="1113.71,-131.88 1122.54,-126.02 1111.98,-125.1 1113.71,-131.88"/>
</a>
</g>
</g>
<!-- Node30 -->
<g id="Node000030" class="node">
<title>Node30</title>
<g id="a_Node000030"><a xlink:title=" ">
<polygon fill="#e0e0e0" stroke="#999999" points="1252.69,-126 1215.31,-126 1215.31,-108 1252.69,-108 1252.69,-126"/>
<text text-anchor="middle" x="1234" y="-114" font-family="Helvetica,sans-Serif" font-size="10.00">tuple</text>
</a>
</g>
</g>
<!-- Node25&#45;&gt;Node30 -->
<g id="edge55_Node000025_Node000030" class="edge">
<title>Node25&#45;&gt;Node30</title>
<g id="a_edge55_Node000025_Node000030"><a xlink:title=" ">
<path fill="none" stroke="#63b8ff" d="M983.78,-165.38C1031.15,-158.65 1120.16,-145.06 1205.27,-125.94"/>
<polygon fill="#63b8ff" stroke="#63b8ff" points="1206.12,-129.33 1215.09,-123.7 1204.57,-122.51 1206.12,-129.33"/>
</a>
</g>
</g>
<!-- Node31 -->
<g id="Node000031" class="node">
<title>Node31</title>
<g id="a_Node000031"><a xlink:title=" ">
<polygon fill="#e0e0e0" stroke="#999999" points="827.01,-126 780.99,-126 780.99,-108 827.01,-108 827.01,-126"/>
<text text-anchor="middle" x="804" y="-114" font-family="Helvetica,sans-Serif" font-size="10.00">variant</text>
</a>
</g>
</g>
<!-- Node25&#45;&gt;Node31 -->
<g id="edge56_Node000025_Node000031" class="edge">
<title>Node25&#45;&gt;Node31</title>
<g id="a_edge56_Node000025_Node000031"><a xlink:title=" ">
<path fill="none" stroke="#63b8ff" d="M927.51,-161.99C903.14,-153.31 864.06,-139.39 836.39,-129.54"/>
<polygon fill="#63b8ff" stroke="#63b8ff" points="837.35,-126.16 826.76,-126.11 835,-132.76 837.35,-126.16"/>
</a>
</g>
</g>
</g>
</svg>
