<?xml version="1.0" encoding="UTF-8" standalone="no"?>
<!DOCTYPE svg PUBLIC "-//W3C//DTD SVG 1.1//EN"
 "http://www.w3.org/Graphics/SVG/1.1/DTD/svg11.dtd">
<!-- Generated by graphviz version 2.48.0 (20210717.1556)
 -->
<!-- Title: binder.cpp Pages: 1 -->
<svg width="1827pt" height="350pt"
 viewBox="0.00 0.00 1827.01 350.00" xmlns="http://www.w3.org/2000/svg" xmlns:xlink="http://www.w3.org/1999/xlink">
<g id="graph0" class="graph" transform="scale(1 1) rotate(0) translate(4 346)">
<title>binder.cpp</title>
<!-- Node1 -->
<g id="Node000001" class="node">
<title>Node1</title>
<g id="a_Node000001"><a xlink:title=" ">
<polygon fill="#999999" stroke="#666666" points="997.15,-342 934.85,-342 934.85,-324 997.15,-324 997.15,-342"/>
<text text-anchor="middle" x="966" y="-330" font-family="Helvetica,sans-Serif" font-size="10.00">binder.cpp</text>
</a>
</g>
</g>
<!-- Node2 -->
<g id="Node000002" class="node">
<title>Node2</title>
<g id="a_Node000002"><a xlink:href="container_8hpp.html" target="_top" xlink:title=" ">
<polygon fill="white" stroke="#666666" points="252.05,-288 175.95,-288 175.95,-270 252.05,-270 252.05,-288"/>
<text text-anchor="middle" x="214" y="-276" font-family="Helvetica,sans-Serif" font-size="10.00">container.hpp</text>
</a>
</g>
</g>
<!-- Node1&#45;&gt;Node2 -->
<g id="edge1_Node000001_Node000002" class="edge">
<title>Node1&#45;&gt;Node2</title>
<g id="a_edge1_Node000001_Node000002"><a xlink:title=" ">
<path fill="none" stroke="#63b8ff" d="M934.64,-329.83C817.36,-321.72 403.96,-293.14 262.16,-283.33"/>
<polygon fill="#63b8ff" stroke="#63b8ff" points="262.25,-279.83 252.03,-282.63 261.77,-286.81 262.25,-279.83"/>
</a>
</g>
</g>
<!-- Node7 -->
<g id="Node000007" class="node">
<title>Node7</title>
<g id="a_Node000007"><a xlink:title=" ">
<polygon fill="#e0e0e0" stroke="#999999" points="1650.53,-18 1599.47,-18 1599.47,0 1650.53,0 1650.53,-18"/>
<text text-anchor="middle" x="1625" y="-6" font-family="Helvetica,sans-Serif" font-size="10.00">optional</text>
</a>
</g>
</g>
<!-- Node1&#45;&gt;Node7 -->
<g id="edge65_Node000001_Node000007" class="edge">
<title>Node1&#45;&gt;Node7</title>
<g id="a_edge65_Node000001_Node000007"><a xlink:title=" ">
<path fill="none" stroke="#63b8ff" d="M997.3,-330.59C1132.93,-324.09 1663,-294.31 1663,-226 1663,-226 1663,-226 1663,-116 1663,-82.9 1646.38,-47.22 1635.12,-26.85"/>
<polygon fill="#63b8ff" stroke="#63b8ff" points="1638.14,-25.08 1630.12,-18.16 1632.08,-28.57 1638.14,-25.08"/>
</a>
</g>
</g>
<!-- Node9 -->
<g id="Node000009" class="node">
<title>Node9</title>
<g id="a_Node000009"><a xlink:title=" ">
<polygon fill="#e0e0e0" stroke="#999999" points="182.45,-72 121.55,-72 121.55,-54 182.45,-54 182.45,-72"/>
<text text-anchor="middle" x="152" y="-60" font-family="Helvetica,sans-Serif" font-size="10.00">filesystem</text>
</a>
</g>
</g>
<!-- Node1&#45;&gt;Node9 -->
<g id="edge63_Node000001_Node000009" class="edge">
<title>Node1&#45;&gt;Node9</title>
<g id="a_edge63_Node000001_Node000009"><a xlink:title=" ">
<path fill="none" stroke="#63b8ff" d="M934.5,-331.9C805.32,-331.26 316.02,-326.29 167,-288 105.39,-272.17 38,-289.61 38,-226 38,-226 38,-226 38,-170 38,-124.13 88.12,-92.48 121.9,-76.37"/>
<polygon fill="#63b8ff" stroke="#63b8ff" points="123.71,-79.39 131.36,-72.05 120.8,-73.02 123.71,-79.39"/>
</a>
</g>
</g>
<!-- Node14 -->
<g id="Node000014" class="node">
<title>Node14</title>
<g id="a_Node000014"><a xlink:title=" ">
<polygon fill="#e0e0e0" stroke="#999999" points="422.73,-126 379.27,-126 379.27,-108 422.73,-108 422.73,-126"/>
<text text-anchor="middle" x="401" y="-114" font-family="Helvetica,sans-Serif" font-size="10.00">vector</text>
</a>
</g>
</g>
<!-- Node1&#45;&gt;Node14 -->
<g id="edge67_Node000001_Node000014" class="edge">
<title>Node1&#45;&gt;Node14</title>
<g id="a_edge67_Node000001_Node000014"><a xlink:title=" ">
<path fill="none" stroke="#63b8ff" d="M934.67,-327.29C830.16,-310.99 495.84,-253.91 420,-180 408.28,-168.58 403.75,-150.15 402.01,-136.35"/>
<polygon fill="#63b8ff" stroke="#63b8ff" points="405.48,-135.75 401.12,-126.09 398.5,-136.36 405.48,-135.75"/>
</a>
</g>
</g>
<!-- Node16 -->
<g id="Node000016" class="node">
<title>Node16</title>
<g id="a_Node000016"><a xlink:href="metadata_8hpp.html" target="_top" xlink:title=" ">
<polygon fill="white" stroke="#666666" points="841.66,-180 764.34,-180 764.34,-162 841.66,-162 841.66,-180"/>
<text text-anchor="middle" x="803" y="-168" font-family="Helvetica,sans-Serif" font-size="10.00">metadata.hpp</text>
</a>
</g>
</g>
<!-- Node1&#45;&gt;Node16 -->
<g id="edge60_Node000001_Node000016" class="edge">
<title>Node1&#45;&gt;Node16</title>
<g id="a_edge60_Node000001_Node000016"><a xlink:title=" ">
<path fill="none" stroke="#63b8ff" d="M955.76,-323.87C945.07,-315.26 927.95,-301.13 914,-288 877.63,-253.79 837.82,-210.67 817.18,-187.85"/>
<polygon fill="#63b8ff" stroke="#63b8ff" points="819.55,-185.25 810.26,-180.16 814.35,-189.93 819.55,-185.25"/>
</a>
</g>
</g>
<!-- Node22 -->
<g id="Node000022" class="node">
<title>Node22</title>
<g id="a_Node000022"><a xlink:title=" ">
<polygon fill="#e0e0e0" stroke="#999999" points="955.35,-126 900.65,-126 900.65,-108 955.35,-108 955.35,-126"/>
<text text-anchor="middle" x="928" y="-114" font-family="Helvetica,sans-Serif" font-size="10.00">iostream</text>
</a>
</g>
</g>
<!-- Node1&#45;&gt;Node22 -->
<g id="edge64_Node000001_Node000022" class="edge">
<title>Node1&#45;&gt;Node22</title>
<g id="a_edge64_Node000001_Node000022"><a xlink:title=" ">
<path fill="none" stroke="#63b8ff" d="M964.34,-323.88C960.94,-307.12 952.98,-267.44 947,-234 940.82,-199.46 934.37,-158.98 930.8,-136.13"/>
<polygon fill="#63b8ff" stroke="#63b8ff" points="934.25,-135.51 929.25,-126.17 927.33,-136.59 934.25,-135.51"/>
</a>
</g>
</g>
<!-- Node24 -->
<g id="Node000024" class="node">
<title>Node24</title>
<g id="a_Node000024"><a xlink:href="epub__options_8hpp.html" target="_top" xlink:title=" ">
<polygon fill="white" stroke="#666666" points="1051.52,-234 956.48,-234 956.48,-216 1051.52,-216 1051.52,-234"/>
<text text-anchor="middle" x="1004" y="-222" font-family="Helvetica,sans-Serif" font-size="10.00">epub_options.hpp</text>
</a>
</g>
</g>
<!-- Node1&#45;&gt;Node24 -->
<g id="edge40_Node000001_Node000024" class="edge">
<title>Node1&#45;&gt;Node24</title>
<g id="a_edge40_Node000001_Node000024"><a xlink:title=" ">
<path fill="none" stroke="#63b8ff" d="M968.98,-323.68C975.11,-306.58 989.26,-267.11 997.58,-243.92"/>
<polygon fill="#63b8ff" stroke="#63b8ff" points="1000.95,-244.87 1001.03,-234.28 994.36,-242.51 1000.95,-244.87"/>
</a>
</g>
</g>
<!-- Node25 -->
<g id="Node000025" class="node">
<title>Node25</title>
<g id="a_Node000025"><a xlink:href="options_8hpp.html" target="_top" xlink:title=" ">
<polygon fill="white" stroke="#666666" points="1168.71,-180 1101.29,-180 1101.29,-162 1168.71,-162 1168.71,-180"/>
<text text-anchor="middle" x="1135" y="-168" font-family="Helvetica,sans-Serif" font-size="10.00">options.hpp</text>
</a>
</g>
</g>
<!-- Node1&#45;&gt;Node25 -->
<g id="edge61_Node000001_Node000025" class="edge">
<title>Node1&#45;&gt;Node25</title>
<g id="a_edge61_Node000001_Node000025"><a xlink:title=" ">
<path fill="none" stroke="#63b8ff" d="M974.61,-323.85C1001.39,-298.49 1083.49,-220.77 1118.69,-187.44"/>
<polygon fill="#63b8ff" stroke="#63b8ff" points="1121.35,-189.75 1126.2,-180.33 1116.53,-184.66 1121.35,-189.75"/>
</a>
</g>
</g>
<!-- Node33 -->
<g id="Node000033" class="node">
<title>Node33</title>
<g id="a_Node000033"><a xlink:title=" ">
<polygon fill="#e0e0e0" stroke="#999999" points="1735.35,-288 1690.65,-288 1690.65,-270 1735.35,-270 1735.35,-288"/>
<text text-anchor="middle" x="1713" y="-276" font-family="Helvetica,sans-Serif" font-size="10.00">cstdlib</text>
</a>
</g>
</g>
<!-- Node1&#45;&gt;Node33 -->
<g id="edge62_Node000001_Node000033" class="edge">
<title>Node1&#45;&gt;Node33</title>
<g id="a_edge62_Node000001_Node000033"><a xlink:title=" ">
<path fill="none" stroke="#63b8ff" d="M997.36,-331.81C1097.17,-330.83 1416.16,-324.82 1677,-288 1678.25,-287.82 1679.52,-287.63 1680.8,-287.41"/>
<polygon fill="#63b8ff" stroke="#63b8ff" points="1681.46,-290.85 1690.63,-285.54 1680.15,-283.97 1681.46,-290.85"/>
</a>
</g>
</g>
<!-- Node34 -->
<g id="Node000034" class="node">
<title>Node34</title>
<g id="a_Node000034"><a xlink:title=" ">
<polygon fill="#e0e0e0" stroke="#999999" points="1819.02,-288 1752.98,-288 1752.98,-270 1819.02,-270 1819.02,-288"/>
<text text-anchor="middle" x="1786" y="-276" font-family="Helvetica,sans-Serif" font-size="10.00">string_view</text>
</a>
</g>
</g>
<!-- Node1&#45;&gt;Node34 -->
<g id="edge66_Node000001_Node000034" class="edge">
<title>Node1&#45;&gt;Node34</title>
<g id="a_edge66_Node000001_Node000034"><a xlink:title=" ">
<path fill="none" stroke="#63b8ff" d="M997.26,-331.71C1101.59,-330.42 1447.42,-323.66 1742.56,-288"/>
<polygon fill="#63b8ff" stroke="#63b8ff" points="1743.09,-291.46 1752.59,-286.77 1742.24,-284.51 1743.09,-291.46"/>
</a>
</g>
</g>
<!-- Node3 -->
<g id="Node000003" class="node">
<title>Node3</title>
<g id="a_Node000003"><a xlink:href="navigation_8hpp.html" target="_top" xlink:title=" ">
<polygon fill="white" stroke="#666666" points="300.55,-180 219.45,-180 219.45,-162 300.55,-162 300.55,-180"/>
<text text-anchor="middle" x="260" y="-168" font-family="Helvetica,sans-Serif" font-size="10.00">navigation.hpp</text>
</a>
</g>
</g>
<!-- Node2&#45;&gt;Node3 -->
<g id="edge2_Node000002_Node000003" class="edge">
<title>Node2&#45;&gt;Node3</title>
<g id="a_edge2_Node000002_Node000003"><a xlink:title=" ">
<path fill="none" stroke="#63b8ff" d="M209.57,-269.93C203.49,-257.66 194.23,-233.86 203,-216 209.5,-202.77 222.11,-192.39 233.82,-185.04"/>
<polygon fill="#63b8ff" stroke="#63b8ff" points="235.59,-188.06 242.48,-180.02 232.08,-182.01 235.59,-188.06"/>
</a>
</g>
</g>
<!-- Node6 -->
<g id="Node000006" class="node">
<title>Node6</title>
<g id="a_Node000006"><a xlink:title=" ">
<polygon fill="#e0e0e0" stroke="#999999" points="269.96,-18 234.04,-18 234.04,0 269.96,0 269.96,-18"/>
<text text-anchor="middle" x="252" y="-6" font-family="Helvetica,sans-Serif" font-size="10.00">map</text>
</a>
</g>
</g>
<!-- Node2&#45;&gt;Node6 -->
<g id="edge38_Node000002_Node000006" class="edge">
<title>Node2&#45;&gt;Node6</title>
<g id="a_edge38_Node000002_Node000006"><a xlink:title=" ">
<path fill="none" stroke="#63b8ff" d="M175.74,-275.95C114.19,-270.35 0,-249.53 0,-172 0,-172 0,-172 0,-116 0,-19.79 158.01,-9.48 223.79,-9.36"/>
<polygon fill="#63b8ff" stroke="#63b8ff" points="223.86,-12.86 233.88,-9.42 223.9,-5.86 223.86,-12.86"/>
</a>
</g>
</g>
<!-- Node2&#45;&gt;Node9 -->
<g id="edge37_Node000002_Node000009" class="edge">
<title>Node2&#45;&gt;Node9</title>
<g id="a_edge37_Node000002_Node000009"><a xlink:title=" ">
<path fill="none" stroke="#63b8ff" d="M209.15,-269.81C196.34,-247.62 161.73,-184.1 150,-126 147.06,-111.45 147.87,-94.6 149.24,-82.14"/>
<polygon fill="#63b8ff" stroke="#63b8ff" points="152.72,-82.5 150.56,-72.12 145.78,-81.58 152.72,-82.5"/>
</a>
</g>
</g>
<!-- Node15 -->
<g id="Node000015" class="node">
<title>Node15</title>
<g id="a_Node000015"><a xlink:href="package_8hpp.html" target="_top" xlink:title=" ">
<polygon fill="white" stroke="#666666" points="365.77,-234 292.23,-234 292.23,-216 365.77,-216 365.77,-234"/>
<text text-anchor="middle" x="329" y="-222" font-family="Helvetica,sans-Serif" font-size="10.00">package.hpp</text>
</a>
</g>
</g>
<!-- Node2&#45;&gt;Node15 -->
<g id="edge20_Node000002_Node000015" class="edge">
<title>Node2&#45;&gt;Node15</title>
<g id="a_edge20_Node000002_Node000015"><a xlink:title=" ">
<path fill="none" stroke="#63b8ff" d="M231.97,-269.88C250.7,-261.4 280.29,-248.02 301.87,-238.27"/>
<polygon fill="#63b8ff" stroke="#63b8ff" points="303.49,-241.38 311.16,-234.07 300.6,-235 303.49,-241.38"/>
</a>
</g>
</g>
<!-- Node23 -->
<g id="Node000023" class="node">
<title>Node23</title>
<g id="a_Node000023"><a xlink:title=" ">
<polygon fill="#e0e0e0" stroke="#999999" points="274.13,-234 211.87,-234 211.87,-216 274.13,-216 274.13,-234"/>
<text text-anchor="middle" x="243" y="-222" font-family="Helvetica,sans-Serif" font-size="10.00">type_traits</text>
</a>
</g>
</g>
<!-- Node2&#45;&gt;Node23 -->
<g id="edge39_Node000002_Node000023" class="edge">
<title>Node2&#45;&gt;Node23</title>
<g id="a_edge39_Node000002_Node000023"><a xlink:title=" ">
<path fill="none" stroke="#63b8ff" d="M218.53,-269.88C222.51,-262.74 228.43,-252.13 233.45,-243.13"/>
<polygon fill="#63b8ff" stroke="#63b8ff" points="236.59,-244.68 238.4,-234.24 230.48,-241.27 236.59,-244.68"/>
</a>
</g>
</g>
<!-- Node4 -->
<g id="Node000004" class="node">
<title>Node4</title>
<g id="a_Node000004"><a xlink:href="manifest_8hpp.html" target="_top" xlink:title=" ">
<polygon fill="white" stroke="#666666" points="361.76,-126 288.24,-126 288.24,-108 361.76,-108 361.76,-126"/>
<text text-anchor="middle" x="325" y="-114" font-family="Helvetica,sans-Serif" font-size="10.00">manifest.hpp</text>
</a>
</g>
</g>
<!-- Node3&#45;&gt;Node4 -->
<g id="edge3_Node000003_Node000004" class="edge">
<title>Node3&#45;&gt;Node4</title>
<g id="a_edge3_Node000003_Node000004"><a xlink:title=" ">
<path fill="none" stroke="#63b8ff" d="M270.16,-161.88C279.93,-154.06 294.91,-142.07 306.75,-132.6"/>
<polygon fill="#63b8ff" stroke="#63b8ff" points="309.08,-135.22 314.7,-126.24 304.71,-129.75 309.08,-135.22"/>
</a>
</g>
</g>
<!-- Node3&#45;&gt;Node9 -->
<g id="edge17_Node000003_Node000009" class="edge">
<title>Node3&#45;&gt;Node9</title>
<g id="a_edge17_Node000003_Node000009"><a xlink:title=" ">
<path fill="none" stroke="#63b8ff" d="M230.1,-161.98C210.71,-155.33 186.29,-143.99 171,-126 160.52,-113.67 155.82,-95.64 153.71,-82.2"/>
<polygon fill="#63b8ff" stroke="#63b8ff" points="157.18,-81.71 152.48,-72.21 150.23,-82.56 157.18,-81.71"/>
</a>
</g>
</g>
<!-- Node10 -->
<g id="Node000010" class="node">
<title>Node10</title>
<g id="a_Node000010"><a xlink:title=" ">
<polygon fill="#e0e0e0" stroke="#999999" points="447.11,-72 394.89,-72 394.89,-54 447.11,-54 447.11,-72"/>
<text text-anchor="middle" x="421" y="-60" font-family="Helvetica,sans-Serif" font-size="10.00">memory</text>
</a>
</g>
</g>
<!-- Node3&#45;&gt;Node10 -->
<g id="edge18_Node000003_Node000010" class="edge">
<title>Node3&#45;&gt;Node10</title>
<g id="a_edge18_Node000003_Node000010"><a xlink:title=" ">
<path fill="none" stroke="#63b8ff" d="M260.17,-161.95C260.89,-148.84 264.22,-122.83 279,-108 286.65,-100.33 345.34,-83.8 384.83,-73.32"/>
<polygon fill="#63b8ff" stroke="#63b8ff" points="385.88,-76.67 394.66,-70.74 384.1,-69.9 385.88,-76.67"/>
</a>
</g>
</g>
<!-- Node13 -->
<g id="Node000013" class="node">
<title>Node13</title>
<g id="a_Node000013"><a xlink:href="xml_8hpp.html" target="_top" xlink:title=" ">
<polygon fill="white" stroke="#666666" points="231.51,-126 180.49,-126 180.49,-108 231.51,-108 231.51,-126"/>
<text text-anchor="middle" x="206" y="-114" font-family="Helvetica,sans-Serif" font-size="10.00">xml.hpp</text>
</a>
</g>
</g>
<!-- Node3&#45;&gt;Node13 -->
<g id="edge13_Node000003_Node000013" class="edge">
<title>Node3&#45;&gt;Node13</title>
<g id="a_edge13_Node000003_Node000013"><a xlink:title=" ">
<path fill="none" stroke="#63b8ff" d="M251.56,-161.88C243.68,-154.29 231.72,-142.76 222.02,-133.43"/>
<polygon fill="#63b8ff" stroke="#63b8ff" points="224.19,-130.65 214.56,-126.24 219.33,-135.7 224.19,-130.65"/>
</a>
</g>
</g>
<!-- Node3&#45;&gt;Node14 -->
<g id="edge19_Node000003_Node000014" class="edge">
<title>Node3&#45;&gt;Node14</title>
<g id="a_edge19_Node000003_Node000014"><a xlink:title=" ">
<path fill="none" stroke="#63b8ff" d="M281.72,-161.99C305.15,-153.35 342.67,-139.51 369.37,-129.67"/>
<polygon fill="#63b8ff" stroke="#63b8ff" points="370.85,-132.85 379.02,-126.11 368.43,-126.28 370.85,-132.85"/>
</a>
</g>
</g>
<!-- Node5 -->
<g id="Node000005" class="node">
<title>Node5</title>
<g id="a_Node000005"><a xlink:href="file__metadata_8hpp.html" target="_top" xlink:title=" ">
<polygon fill="white" stroke="#666666" points="375.5,-72 280.5,-72 280.5,-54 375.5,-54 375.5,-72"/>
<text text-anchor="middle" x="328" y="-60" font-family="Helvetica,sans-Serif" font-size="10.00">file_metadata.hpp</text>
</a>
</g>
</g>
<!-- Node4&#45;&gt;Node5 -->
<g id="edge4_Node000004_Node000005" class="edge">
<title>Node4&#45;&gt;Node5</title>
<g id="a_edge4_Node000004_Node000005"><a xlink:title=" ">
<path fill="none" stroke="#63b8ff" d="M325.47,-107.88C325.86,-101.05 326.44,-91.03 326.94,-82.29"/>
<polygon fill="#63b8ff" stroke="#63b8ff" points="330.44,-82.42 327.52,-72.24 323.45,-82.02 330.44,-82.42"/>
</a>
</g>
</g>
<!-- Node4&#45;&gt;Node6 -->
<g id="edge9_Node000004_Node000006" class="edge">
<title>Node4&#45;&gt;Node6</title>
<g id="a_edge9_Node000004_Node000006"><a xlink:title=" ">
<path fill="none" stroke="#63b8ff" d="M311.06,-107.97C298.83,-100.24 281.4,-87.45 271,-72 262.15,-58.85 257.29,-41.42 254.71,-28.39"/>
<polygon fill="#63b8ff" stroke="#63b8ff" points="258.11,-27.55 252.98,-18.29 251.21,-28.73 258.11,-27.55"/>
</a>
</g>
</g>
<!-- Node4&#45;&gt;Node9 -->
<g id="edge8_Node000004_Node000009" class="edge">
<title>Node4&#45;&gt;Node9</title>
<g id="a_edge8_Node000004_Node000009"><a xlink:title=" ">
<path fill="none" stroke="#63b8ff" d="M298.35,-107.99C268.89,-99.13 221.26,-84.82 188.38,-74.93"/>
<polygon fill="#63b8ff" stroke="#63b8ff" points="189.27,-71.55 178.68,-72.02 187.25,-78.25 189.27,-71.55"/>
</a>
</g>
</g>
<!-- Node4&#45;&gt;Node10 -->
<g id="edge10_Node000004_Node000010" class="edge">
<title>Node4&#45;&gt;Node10</title>
<g id="a_edge10_Node000004_Node000010"><a xlink:title=" ">
<path fill="none" stroke="#63b8ff" d="M340,-107.88C355.22,-99.63 379.01,-86.74 396.88,-77.07"/>
<polygon fill="#63b8ff" stroke="#63b8ff" points="398.98,-79.91 406.11,-72.07 395.65,-73.75 398.98,-79.91"/>
</a>
</g>
</g>
<!-- Node11 -->
<g id="Node000011" class="node">
<title>Node11</title>
<g id="a_Node000011"><a xlink:title=" ">
<polygon fill="#e0e0e0" stroke="#999999" points="512.08,-72 465.92,-72 465.92,-54 512.08,-54 512.08,-72"/>
<text text-anchor="middle" x="489" y="-60" font-family="Helvetica,sans-Serif" font-size="10.00">ranges</text>
</a>
</g>
</g>
<!-- Node4&#45;&gt;Node11 -->
<g id="edge11_Node000004_Node000011" class="edge">
<title>Node4&#45;&gt;Node11</title>
<g id="a_edge11_Node000004_Node000011"><a xlink:title=" ">
<path fill="none" stroke="#63b8ff" d="M350.27,-107.99C378.72,-98.97 425.06,-84.27 456.27,-74.38"/>
<polygon fill="#63b8ff" stroke="#63b8ff" points="457.35,-77.71 465.83,-71.35 455.24,-71.03 457.35,-77.71"/>
</a>
</g>
</g>
<!-- Node12 -->
<g id="Node000012" class="node">
<title>Node12</title>
<g id="a_Node000012"><a xlink:title=" ">
<polygon fill="#e0e0e0" stroke="#999999" points="845.3,-72 786.7,-72 786.7,-54 845.3,-54 845.3,-72"/>
<text text-anchor="middle" x="816" y="-60" font-family="Helvetica,sans-Serif" font-size="10.00">stdexcept</text>
</a>
</g>
</g>
<!-- Node4&#45;&gt;Node12 -->
<g id="edge12_Node000004_Node000012" class="edge">
<title>Node4&#45;&gt;Node12</title>
<g id="a_edge12_Node000004_Node000012"><a xlink:title=" ">
<path fill="none" stroke="#63b8ff" d="M361.8,-109.22C364.57,-108.78 367.33,-108.37 370,-108 519.44,-87.38 698.34,-72.75 776.36,-66.87"/>
<polygon fill="#63b8ff" stroke="#63b8ff" points="776.97,-70.34 786.69,-66.1 776.45,-63.36 776.97,-70.34"/>
</a>
</g>
</g>
<!-- Node5&#45;&gt;Node6 -->
<g id="edge5_Node000005_Node000006" class="edge">
<title>Node5&#45;&gt;Node6</title>
<g id="a_edge5_Node000005_Node000006"><a xlink:title=" ">
<path fill="none" stroke="#63b8ff" d="M316.12,-53.88C304.48,-45.91 286.49,-33.6 272.53,-24.05"/>
<polygon fill="#63b8ff" stroke="#63b8ff" points="274.27,-21 264.04,-18.24 270.32,-26.78 274.27,-21"/>
</a>
</g>
</g>
<!-- Node5&#45;&gt;Node7 -->
<g id="edge6_Node000005_Node000007" class="edge">
<title>Node5&#45;&gt;Node7</title>
<g id="a_edge6_Node000005_Node000007"><a xlink:title=" ">
<path fill="none" stroke="#63b8ff" d="M375.75,-55.02C379.21,-54.64 382.66,-54.29 386,-54 860.37,-12.97 1440.08,-9.99 1588.86,-9.94"/>
<polygon fill="#63b8ff" stroke="#63b8ff" points="1589.21,-13.44 1599.21,-9.94 1589.22,-6.44 1589.21,-13.44"/>
</a>
</g>
</g>
<!-- Node8 -->
<g id="Node000008" class="node">
<title>Node8</title>
<g id="a_Node000008"><a xlink:title=" ">
<polygon fill="#e0e0e0" stroke="#999999" points="893.46,-18 852.54,-18 852.54,0 893.46,0 893.46,-18"/>
<text text-anchor="middle" x="873" y="-6" font-family="Helvetica,sans-Serif" font-size="10.00">string</text>
</a>
</g>
</g>
<!-- Node5&#45;&gt;Node8 -->
<g id="edge7_Node000005_Node000008" class="edge">
<title>Node5&#45;&gt;Node8</title>
<g id="a_edge7_Node000005_Node000008"><a xlink:title=" ">
<path fill="none" stroke="#63b8ff" d="M375.77,-55.23C379.23,-54.8 382.67,-54.38 386,-54 558.04,-34.37 765.09,-18.09 842.15,-12.28"/>
<polygon fill="#63b8ff" stroke="#63b8ff" points="842.84,-15.74 852.55,-11.5 842.32,-8.76 842.84,-15.74"/>
</a>
</g>
</g>
<!-- Node13&#45;&gt;Node5 -->
<g id="edge14_Node000013_Node000005" class="edge">
<title>Node13&#45;&gt;Node5</title>
<g id="a_edge14_Node000013_Node000005"><a xlink:title=" ">
<path fill="none" stroke="#63b8ff" d="M224.8,-107.99C244.8,-99.46 276.67,-85.88 299.71,-76.06"/>
<polygon fill="#63b8ff" stroke="#63b8ff" points="301.16,-79.25 308.98,-72.11 298.41,-72.81 301.16,-79.25"/>
</a>
</g>
</g>
<!-- Node13&#45;&gt;Node6 -->
<g id="edge16_Node000013_Node000006" class="edge">
<title>Node13&#45;&gt;Node6</title>
<g id="a_edge16_Node000013_Node000006"><a xlink:title=" ">
<path fill="none" stroke="#63b8ff" d="M209.61,-107.68C217.07,-90.5 234.31,-50.76 244.36,-27.61"/>
<polygon fill="#63b8ff" stroke="#63b8ff" points="247.64,-28.85 248.41,-18.28 241.22,-26.06 247.64,-28.85"/>
</a>
</g>
</g>
<!-- Node13&#45;&gt;Node9 -->
<g id="edge15_Node000013_Node000009" class="edge">
<title>Node13&#45;&gt;Node9</title>
<g id="a_edge15_Node000013_Node000009"><a xlink:title=" ">
<path fill="none" stroke="#63b8ff" d="M197.56,-107.88C189.68,-100.29 177.72,-88.76 168.02,-79.43"/>
<polygon fill="#63b8ff" stroke="#63b8ff" points="170.19,-76.65 160.56,-72.24 165.33,-81.7 170.19,-76.65"/>
</a>
</g>
</g>
<!-- Node15&#45;&gt;Node4 -->
<g id="edge21_Node000015_Node000004" class="edge">
<title>Node15&#45;&gt;Node4</title>
<g id="a_edge21_Node000015_Node000004"><a xlink:title=" ">
<path fill="none" stroke="#63b8ff" d="M328.69,-215.68C328.05,-198.73 326.58,-159.83 325.7,-136.55"/>
<polygon fill="#63b8ff" stroke="#63b8ff" points="329.19,-136.14 325.31,-126.28 322.19,-136.4 329.19,-136.14"/>
</a>
</g>
</g>
<!-- Node15&#45;&gt;Node9 -->
<g id="edge36_Node000015_Node000009" class="edge">
<title>Node15&#45;&gt;Node9</title>
<g id="a_edge36_Node000015_Node000009"><a xlink:title=" ">
<path fill="none" stroke="#63b8ff" d="M292.11,-217.61C264.5,-211.46 226.85,-200.04 199,-180 174.54,-162.4 168.98,-154.06 158,-126 152.57,-112.12 151.25,-95.22 151.18,-82.57"/>
<polygon fill="#63b8ff" stroke="#63b8ff" points="154.69,-82.43 151.4,-72.36 147.69,-82.28 154.69,-82.43"/>
</a>
</g>
</g>
<!-- Node15&#45;&gt;Node13 -->
<g id="edge35_Node000015_Node000013" class="edge">
<title>Node15&#45;&gt;Node13</title>
<g id="a_edge35_Node000015_Node000013"><a xlink:title=" ">
<path fill="none" stroke="#63b8ff" d="M295.5,-215.96C264.11,-207.7 220.5,-194.08 210,-180 200.73,-167.57 200.61,-149.55 202.29,-136.14"/>
<polygon fill="#63b8ff" stroke="#63b8ff" points="205.76,-136.62 203.96,-126.18 198.85,-135.46 205.76,-136.62"/>
</a>
</g>
</g>
<!-- Node15&#45;&gt;Node16 -->
<g id="edge22_Node000015_Node000016" class="edge">
<title>Node15&#45;&gt;Node16</title>
<g id="a_edge22_Node000015_Node000016"><a xlink:title=" ">
<path fill="none" stroke="#63b8ff" d="M365.8,-219.96C450.4,-210.68 658.74,-187.83 754.02,-177.37"/>
<polygon fill="#63b8ff" stroke="#63b8ff" points="754.69,-180.82 764.24,-176.25 753.92,-173.86 754.69,-180.82"/>
</a>
</g>
</g>
<!-- Node20 -->
<g id="Node000020" class="node">
<title>Node20</title>
<g id="a_Node000020"><a xlink:href="spine_8hpp.html" target="_top" xlink:title=" ">
<polygon fill="white" stroke="#666666" points="488.87,-180 429.13,-180 429.13,-162 488.87,-162 488.87,-180"/>
<text text-anchor="middle" x="459" y="-168" font-family="Helvetica,sans-Serif" font-size="10.00">spine.hpp</text>
</a>
</g>
</g>
<!-- Node15&#45;&gt;Node20 -->
<g id="edge28_Node000015_Node000020" class="edge">
<title>Node15&#45;&gt;Node20</title>
<g id="a_edge28_Node000015_Node000020"><a xlink:title=" ">
<path fill="none" stroke="#63b8ff" d="M349.03,-215.99C370.44,-207.43 404.61,-193.76 429.18,-183.93"/>
<polygon fill="#63b8ff" stroke="#63b8ff" points="430.75,-187.07 438.74,-180.11 428.15,-180.57 430.75,-187.07"/>
</a>
</g>
</g>
<!-- Node16&#45;&gt;Node8 -->
<g id="edge26_Node000016_Node000008" class="edge">
<title>Node16&#45;&gt;Node8</title>
<g id="a_edge26_Node000016_Node000008"><a xlink:title=" ">
<path fill="none" stroke="#63b8ff" d="M808.79,-161.81C814.77,-153.15 824.17,-138.98 831,-126 848.32,-93.1 861.47,-51.48 868.13,-28.09"/>
<polygon fill="#63b8ff" stroke="#63b8ff" points="871.58,-28.77 870.87,-18.2 864.83,-26.9 871.58,-28.77"/>
</a>
</g>
</g>
<!-- Node16&#45;&gt;Node12 -->
<g id="edge25_Node000016_Node000012" class="edge">
<title>Node16&#45;&gt;Node12</title>
<g id="a_edge25_Node000016_Node000012"><a xlink:title=" ">
<path fill="none" stroke="#63b8ff" d="M806.22,-161.73C809.44,-153 814.15,-138.77 816,-126 818.1,-111.47 817.96,-94.82 817.38,-82.44"/>
<polygon fill="#63b8ff" stroke="#63b8ff" points="820.85,-81.84 816.73,-72.08 813.86,-82.28 820.85,-81.84"/>
</a>
</g>
</g>
<!-- Node17 -->
<g id="Node000017" class="node">
<title>Node17</title>
<g id="a_Node000017"><a xlink:title=" ">
<polygon fill="#e0e0e0" stroke="#999999" points="715.08,-126 658.92,-126 658.92,-108 715.08,-108 715.08,-126"/>
<text text-anchor="middle" x="687" y="-114" font-family="Helvetica,sans-Serif" font-size="10.00">charconv</text>
</a>
</g>
</g>
<!-- Node16&#45;&gt;Node17 -->
<g id="edge23_Node000016_Node000017" class="edge">
<title>Node16&#45;&gt;Node17</title>
<g id="a_edge23_Node000016_Node000017"><a xlink:title=" ">
<path fill="none" stroke="#63b8ff" d="M785.13,-161.99C766.28,-153.54 736.34,-140.12 714.49,-130.32"/>
<polygon fill="#63b8ff" stroke="#63b8ff" points="715.64,-127 705.08,-126.11 712.78,-133.39 715.64,-127"/>
</a>
</g>
</g>
<!-- Node18 -->
<g id="Node000018" class="node">
<title>Node18</title>
<g id="a_Node000018"><a xlink:title=" ">
<polygon fill="#e0e0e0" stroke="#999999" points="563.08,-126 516.92,-126 516.92,-108 563.08,-108 563.08,-126"/>
<text text-anchor="middle" x="540" y="-114" font-family="Helvetica,sans-Serif" font-size="10.00">chrono</text>
</a>
</g>
</g>
<!-- Node16&#45;&gt;Node18 -->
<g id="edge24_Node000016_Node000018" class="edge">
<title>Node16&#45;&gt;Node18</title>
<g id="a_edge24_Node000016_Node000018"><a xlink:title=" ">
<path fill="none" stroke="#63b8ff" d="M764.22,-163.18C720.38,-155.33 646.63,-141.74 573.28,-125.96"/>
<polygon fill="#63b8ff" stroke="#63b8ff" points="573.92,-122.52 563.4,-123.82 572.44,-129.36 573.92,-122.52"/>
</a>
</g>
</g>
<!-- Node19 -->
<g id="Node000019" class="node">
<title>Node19</title>
<g id="a_Node000019"><a xlink:title=" ">
<polygon fill="#e0e0e0" stroke="#999999" points="807.35,-126 732.65,-126 732.65,-108 807.35,-108 807.35,-126"/>
<text text-anchor="middle" x="770" y="-114" font-family="Helvetica,sans-Serif" font-size="10.00">system_error</text>
</a>
</g>
</g>
<!-- Node16&#45;&gt;Node19 -->
<g id="edge27_Node000016_Node000019" class="edge">
<title>Node16&#45;&gt;Node19</title>
<g id="a_edge27_Node000016_Node000019"><a xlink:title=" ">
<path fill="none" stroke="#63b8ff" d="M797.84,-161.88C793.27,-154.67 786.44,-143.91 780.69,-134.85"/>
<polygon fill="#63b8ff" stroke="#63b8ff" points="783.54,-132.81 775.23,-126.24 777.63,-136.56 783.54,-132.81"/>
</a>
</g>
</g>
<!-- Node20&#45;&gt;Node4 -->
<g id="edge29_Node000020_Node000004" class="edge">
<title>Node20&#45;&gt;Node4</title>
<g id="a_edge29_Node000020_Node000004"><a xlink:title=" ">
<path fill="none" stroke="#63b8ff" d="M438.36,-161.99C416.19,-153.39 380.75,-139.63 355.4,-129.8"/>
<polygon fill="#63b8ff" stroke="#63b8ff" points="356.48,-126.46 345.89,-126.11 353.94,-132.99 356.48,-126.46"/>
</a>
</g>
</g>
<!-- Node20&#45;&gt;Node10 -->
<g id="edge32_Node000020_Node000010" class="edge">
<title>Node20&#45;&gt;Node10</title>
<g id="a_edge32_Node000020_Node000010"><a xlink:title=" ">
<path fill="none" stroke="#63b8ff" d="M456.02,-161.68C449.89,-144.58 435.74,-105.11 427.42,-81.92"/>
<polygon fill="#63b8ff" stroke="#63b8ff" points="430.64,-80.51 423.97,-72.28 424.05,-82.87 430.64,-80.51"/>
</a>
</g>
</g>
<!-- Node20&#45;&gt;Node11 -->
<g id="edge33_Node000020_Node000011" class="edge">
<title>Node20&#45;&gt;Node11</title>
<g id="a_edge33_Node000020_Node000011"><a xlink:title=" ">
<path fill="none" stroke="#63b8ff" d="M461.35,-161.68C466.2,-144.58 477.36,-105.11 483.93,-81.92"/>
<polygon fill="#63b8ff" stroke="#63b8ff" points="487.3,-82.85 486.66,-72.28 480.57,-80.95 487.3,-82.85"/>
</a>
</g>
</g>
<!-- Node20&#45;&gt;Node14 -->
<g id="edge34_Node000020_Node000014" class="edge">
<title>Node20&#45;&gt;Node14</title>
<g id="a_edge34_Node000020_Node000014"><a xlink:title=" ">
<path fill="none" stroke="#63b8ff" d="M449.94,-161.88C441.39,-154.21 428.36,-142.53 417.9,-133.15"/>
<polygon fill="#63b8ff" stroke="#63b8ff" points="419.97,-130.31 410.19,-126.24 415.3,-135.52 419.97,-130.31"/>
</a>
</g>
</g>
<!-- Node21 -->
<g id="Node000021" class="node">
<title>Node21</title>
<g id="a_Node000021"><a xlink:title=" ">
<polygon fill="#e0e0e0" stroke="#999999" points="640.31,-126 581.69,-126 581.69,-108 640.31,-108 640.31,-126"/>
<text text-anchor="middle" x="611" y="-114" font-family="Helvetica,sans-Serif" font-size="10.00">functional</text>
</a>
</g>
</g>
<!-- Node20&#45;&gt;Node21 -->
<g id="edge30_Node000020_Node000021" class="edge">
<title>Node20&#45;&gt;Node21</title>
<g id="a_edge30_Node000020_Node000021"><a xlink:title=" ">
<path fill="none" stroke="#63b8ff" d="M482.42,-161.99C507.97,-153.25 549.07,-139.19 577.91,-129.32"/>
<polygon fill="#63b8ff" stroke="#63b8ff" points="579.23,-132.57 587.56,-126.02 576.96,-125.95 579.23,-132.57"/>
</a>
</g>
</g>
<!-- Node20&#45;&gt;Node22 -->
<g id="edge31_Node000020_Node000022" class="edge">
<title>Node20&#45;&gt;Node22</title>
<g id="a_edge31_Node000020_Node000022"><a xlink:title=" ">
<path fill="none" stroke="#63b8ff" d="M488.69,-166.71C570.72,-157.61 800.32,-132.16 890.74,-122.13"/>
<polygon fill="#63b8ff" stroke="#63b8ff" points="891.25,-125.6 900.8,-121.02 890.48,-118.64 891.25,-125.6"/>
</a>
</g>
</g>
<!-- Node24&#45;&gt;Node9 -->
<g id="edge58_Node000024_Node000009" class="edge">
<title>Node24&#45;&gt;Node9</title>
<g id="a_edge58_Node000024_Node000009"><a xlink:title=" ">
<path fill="none" stroke="#63b8ff" d="M1004.04,-215.79C1003.64,-194 999.23,-134.52 964,-108 902.4,-61.63 347.97,-76.59 271,-72 244.83,-70.44 215.44,-68.47 192.41,-66.87"/>
<polygon fill="#63b8ff" stroke="#63b8ff" points="192.54,-63.37 182.32,-66.17 192.05,-70.35 192.54,-63.37"/>
</a>
</g>
</g>
<!-- Node24&#45;&gt;Node16 -->
<g id="edge41_Node000024_Node000016" class="edge">
<title>Node24&#45;&gt;Node16</title>
<g id="a_edge41_Node000024_Node000016"><a xlink:title=" ">
<path fill="none" stroke="#63b8ff" d="M973.03,-215.99C938.36,-207.02 882.03,-192.45 843.79,-182.55"/>
<polygon fill="#63b8ff" stroke="#63b8ff" points="844.56,-179.14 834,-180.02 842.81,-185.91 844.56,-179.14"/>
</a>
</g>
</g>
<!-- Node24&#45;&gt;Node25 -->
<g id="edge42_Node000024_Node000025" class="edge">
<title>Node24&#45;&gt;Node25</title>
<g id="a_edge42_Node000024_Node000025"><a xlink:title=" ">
<path fill="none" stroke="#63b8ff" d="M1024.18,-215.99C1045.85,-207.39 1080.5,-193.63 1105.28,-183.8"/>
<polygon fill="#63b8ff" stroke="#63b8ff" points="1106.58,-187.05 1114.58,-180.11 1103.99,-180.54 1106.58,-187.05"/>
</a>
</g>
</g>
<!-- Node32 -->
<g id="Node000032" class="node">
<title>Node32</title>
<g id="a_Node000032"><a xlink:title=" ">
<polygon fill="#e0e0e0" stroke="#999999" points="1052.51,-180 1011.49,-180 1011.49,-162 1052.51,-162 1052.51,-180"/>
<text text-anchor="middle" x="1032" y="-168" font-family="Helvetica,sans-Serif" font-size="10.00">regex</text>
</a>
</g>
</g>
<!-- Node24&#45;&gt;Node32 -->
<g id="edge59_Node000024_Node000032" class="edge">
<title>Node24&#45;&gt;Node32</title>
<g id="a_edge59_Node000024_Node000032"><a xlink:title=" ">
<path fill="none" stroke="#63b8ff" d="M1008.38,-215.88C1012.22,-208.74 1017.93,-198.13 1022.77,-189.13"/>
<polygon fill="#63b8ff" stroke="#63b8ff" points="1025.9,-190.7 1027.56,-180.24 1019.74,-187.38 1025.9,-190.7"/>
</a>
</g>
</g>
<!-- Node25&#45;&gt;Node6 -->
<g id="edge47_Node000025_Node000006" class="edge">
<title>Node25&#45;&gt;Node6</title>
<g id="a_edge47_Node000025_Node000006"><a xlink:title=" ">
<path fill="none" stroke="#63b8ff" d="M1132.45,-161.69C1127.87,-148.19 1116.9,-121.65 1098,-108 1007.95,-42.99 963.9,-70.09 854,-54 634.25,-21.83 365.76,-12.77 279.84,-10.6"/>
<polygon fill="#63b8ff" stroke="#63b8ff" points="279.91,-7.1 269.83,-10.36 279.74,-14.1 279.91,-7.1"/>
</a>
</g>
</g>
<!-- Node25&#45;&gt;Node7 -->
<g id="edge49_Node000025_Node000007" class="edge">
<title>Node25&#45;&gt;Node7</title>
<g id="a_edge49_Node000025_Node000007"><a xlink:title=" ">
<path fill="none" stroke="#63b8ff" d="M1168.77,-169.19C1271.34,-166.41 1574.14,-155.73 1606,-126 1632.77,-101.02 1631.35,-54.06 1628.1,-28.21"/>
<polygon fill="#63b8ff" stroke="#63b8ff" points="1631.56,-27.64 1626.63,-18.26 1624.63,-28.67 1631.56,-27.64"/>
</a>
</g>
</g>
<!-- Node25&#45;&gt;Node8 -->
<g id="edge54_Node000025_Node000008" class="edge">
<title>Node25&#45;&gt;Node8</title>
<g id="a_edge54_Node000025_Node000008"><a xlink:title=" ">
<path fill="none" stroke="#63b8ff" d="M1168.97,-169.02C1225.21,-166.09 1328.4,-154.42 1296,-108 1250.5,-42.81 992.82,-18.52 903.49,-11.98"/>
<polygon fill="#63b8ff" stroke="#63b8ff" points="903.68,-8.49 893.46,-11.27 903.18,-15.47 903.68,-8.49"/>
</a>
</g>
</g>
<!-- Node25&#45;&gt;Node10 -->
<g id="edge48_Node000025_Node000010" class="edge">
<title>Node25&#45;&gt;Node10</title>
<g id="a_edge48_Node000025_Node000010"><a xlink:title=" ">
<path fill="none" stroke="#63b8ff" d="M1116.13,-161.88C1095.97,-153.17 1063.12,-138.84 1035,-126 1018,-118.24 1015.09,-112.7 997,-108 767.4,-48.28 697.01,-104.6 457.33,-71.74"/>
<polygon fill="#63b8ff" stroke="#63b8ff" points="457.65,-68.25 447.26,-70.32 456.67,-75.18 457.65,-68.25"/>
</a>
</g>
</g>
<!-- Node25&#45;&gt;Node11 -->
<g id="edge50_Node000025_Node000011" class="edge">
<title>Node25&#45;&gt;Node11</title>
<g id="a_edge50_Node000025_Node000011"><a xlink:title=" ">
<path fill="none" stroke="#63b8ff" d="M1123.56,-161.94C1101.55,-146.6 1053.82,-114.19 1035,-108 938.91,-76.4 625.52,-66.94 522.3,-64.64"/>
<polygon fill="#63b8ff" stroke="#63b8ff" points="522.22,-61.14 512.15,-64.42 522.07,-68.13 522.22,-61.14"/>
</a>
</g>
</g>
<!-- Node25&#45;&gt;Node12 -->
<g id="edge53_Node000025_Node000012" class="edge">
<title>Node25&#45;&gt;Node12</title>
<g id="a_edge53_Node000025_Node000012"><a xlink:title=" ">
<path fill="none" stroke="#63b8ff" d="M1129.58,-161.98C1119.94,-148.42 1098.42,-121.15 1073,-108 1002.66,-71.61 908.44,-64.41 855.82,-63.49"/>
<polygon fill="#63b8ff" stroke="#63b8ff" points="855.6,-59.99 845.56,-63.39 855.52,-66.99 855.6,-59.99"/>
</a>
</g>
</g>
<!-- Node25&#45;&gt;Node14 -->
<g id="edge57_Node000025_Node000014" class="edge">
<title>Node25&#45;&gt;Node14</title>
<g id="a_edge57_Node000025_Node000014"><a xlink:title=" ">
<path fill="none" stroke="#63b8ff" d="M1101.23,-165.98C1088.9,-164.6 1074.83,-163.12 1062,-162 816.19,-140.56 754.14,-143.2 508,-126 482.72,-124.23 454.1,-122.09 432.82,-120.46"/>
<polygon fill="#63b8ff" stroke="#63b8ff" points="432.96,-116.96 422.72,-119.69 432.42,-123.94 432.96,-116.96"/>
</a>
</g>
</g>
<!-- Node25&#45;&gt;Node21 -->
<g id="edge45_Node000025_Node000021" class="edge">
<title>Node25&#45;&gt;Node21</title>
<g id="a_edge45_Node000025_Node000021"><a xlink:title=" ">
<path fill="none" stroke="#63b8ff" d="M1101.22,-166.14C1088.88,-164.77 1074.82,-163.26 1062,-162 882.29,-144.3 833.59,-152.22 650.29,-125.84"/>
<polygon fill="#63b8ff" stroke="#63b8ff" points="650.72,-122.37 640.32,-124.39 649.72,-129.29 650.72,-122.37"/>
</a>
</g>
</g>
<!-- Node25&#45;&gt;Node22 -->
<g id="edge46_Node000025_Node000022" class="edge">
<title>Node25&#45;&gt;Node22</title>
<g id="a_edge46_Node000025_Node000022"><a xlink:title=" ">
<path fill="none" stroke="#63b8ff" d="M1103.11,-161.99C1065.87,-152.63 1004.35,-137.18 965.03,-127.3"/>
<polygon fill="#63b8ff" stroke="#63b8ff" points="965.85,-123.9 955.3,-124.86 964.14,-130.69 965.85,-123.9"/>
</a>
</g>
</g>
<!-- Node26 -->
<g id="Node000026" class="node">
<title>Node26</title>
<g id="a_Node000026"><a xlink:title=" ">
<polygon fill="#e0e0e0" stroke="#999999" points="1220.63,-126 1163.37,-126 1163.37,-108 1220.63,-108 1220.63,-126"/>
<text text-anchor="middle" x="1192" y="-114" font-family="Helvetica,sans-Serif" font-size="10.00">algorithm</text>
</a>
</g>
</g>
<!-- Node25&#45;&gt;Node26 -->
<g id="edge43_Node000025_Node000026" class="edge">
<title>Node25&#45;&gt;Node26</title>
<g id="a_edge43_Node000025_Node000026"><a xlink:title=" ">
<path fill="none" stroke="#63b8ff" d="M1143.91,-161.88C1152.31,-154.21 1165.11,-142.53 1175.39,-133.15"/>
<polygon fill="#63b8ff" stroke="#63b8ff" points="1177.94,-135.56 1182.97,-126.24 1173.22,-130.39 1177.94,-135.56"/>
</a>
</g>
</g>
<!-- Node27 -->
<g id="Node000027" class="node">
<title>Node27</title>
<g id="a_Node000027"><a xlink:title=" ">
<polygon fill="#e0e0e0" stroke="#999999" points="1287.23,-126 1238.77,-126 1238.77,-108 1287.23,-108 1287.23,-126"/>
<text text-anchor="middle" x="1263" y="-114" font-family="Helvetica,sans-Serif" font-size="10.00">cassert</text>
</a>
</g>
</g>
<!-- Node25&#45;&gt;Node27 -->
<g id="edge44_Node000025_Node000027" class="edge">
<title>Node25&#45;&gt;Node27</title>
<g id="a_edge44_Node000025_Node000027"><a xlink:title=" ">
<path fill="none" stroke="#63b8ff" d="M1154.72,-161.99C1175.8,-153.43 1209.45,-139.76 1233.64,-129.93"/>
<polygon fill="#63b8ff" stroke="#63b8ff" points="1235.1,-133.11 1243.05,-126.11 1232.47,-126.63 1235.1,-133.11"/>
</a>
</g>
</g>
<!-- Node28 -->
<g id="Node000028" class="node">
<title>Node28</title>
<g id="a_Node000028"><a xlink:title=" ">
<polygon fill="#e0e0e0" stroke="#999999" points="1372.84,-126 1343.16,-126 1343.16,-108 1372.84,-108 1372.84,-126"/>
<text text-anchor="middle" x="1358" y="-114" font-family="Helvetica,sans-Serif" font-size="10.00">set</text>
</a>
</g>
</g>
<!-- Node25&#45;&gt;Node28 -->
<g id="edge51_Node000025_Node000028" class="edge">
<title>Node25&#45;&gt;Node28</title>
<g id="a_edge51_Node000025_Node000028"><a xlink:title=" ">
<path fill="none" stroke="#63b8ff" d="M1168.76,-162.84C1207.55,-154.49 1273.06,-140.05 1329,-126 1330.46,-125.63 1331.95,-125.25 1333.46,-124.86"/>
<polygon fill="#63b8ff" stroke="#63b8ff" points="1334.54,-128.19 1343.28,-122.2 1332.72,-121.43 1334.54,-128.19"/>
</a>
</g>
</g>
<!-- Node29 -->
<g id="Node000029" class="node">
<title>Node29</title>
<g id="a_Node000029"><a xlink:title=" ">
<polygon fill="#e0e0e0" stroke="#999999" points="1477.04,-126 1390.96,-126 1390.96,-108 1477.04,-108 1477.04,-126"/>
<text text-anchor="middle" x="1434" y="-114" font-family="Helvetica,sans-Serif" font-size="10.00">source_location</text>
</a>
</g>
</g>
<!-- Node25&#45;&gt;Node29 -->
<g id="edge52_Node000025_Node000029" class="edge">
<title>Node25&#45;&gt;Node29</title>
<g id="a_edge52_Node000025_Node000029"><a xlink:title=" ">
<path fill="none" stroke="#63b8ff" d="M1168.72,-164.14C1220.37,-155.15 1319.52,-137.91 1380.89,-127.24"/>
<polygon fill="#63b8ff" stroke="#63b8ff" points="1381.52,-130.68 1390.77,-125.52 1380.32,-123.78 1381.52,-130.68"/>
</a>
</g>
</g>
<!-- Node30 -->
<g id="Node000030" class="node">
<title>Node30</title>
<g id="a_Node000030"><a xlink:title=" ">
<polygon fill="#e0e0e0" stroke="#999999" points="1532.69,-126 1495.31,-126 1495.31,-108 1532.69,-108 1532.69,-126"/>
<text text-anchor="middle" x="1514" y="-114" font-family="Helvetica,sans-Serif" font-size="10.00">tuple</text>
</a>
</g>
</g>
<!-- Node25&#45;&gt;Node30 -->
<g id="edge55_Node000025_Node000030" class="edge">
<title>Node25&#45;&gt;Node30</title>
<g id="a_edge55_Node000025_Node000030"><a xlink:title=" ">
<path fill="none" stroke="#63b8ff" d="M1169.17,-167.47C1230.59,-162.55 1363.8,-150.15 1485.28,-125.82"/>
<polygon fill="#63b8ff" stroke="#63b8ff" points="1486.02,-129.24 1495.12,-123.82 1484.62,-122.38 1486.02,-129.24"/>
</a>
</g>
</g>
<!-- Node31 -->
<g id="Node000031" class="node">
<title>Node31</title>
<g id="a_Node000031"><a xlink:title=" ">
<polygon fill="#e0e0e0" stroke="#999999" points="1597.01,-126 1550.99,-126 1550.99,-108 1597.01,-108 1597.01,-126"/>
<text text-anchor="middle" x="1574" y="-114" font-family="Helvetica,sans-Serif" font-size="10.00">variant</text>
</a>
</g>
</g>
<!-- Node25&#45;&gt;Node31 -->
<g id="edge56_Node000025_Node000031" class="edge">
<title>Node25&#45;&gt;Node31</title>
<g id="a_edge56_Node000025_Node000031"><a xlink:title=" ">
<path fill="none" stroke="#63b8ff" d="M1168.72,-167.93C1237.14,-163.38 1397.28,-151.04 1540.8,-125.98"/>
<polygon fill="#63b8ff" stroke="#63b8ff" points="1541.43,-129.42 1550.66,-124.23 1540.2,-122.53 1541.43,-129.42"/>
</a>
</g>
</g>
</g>
</svg>
