<?xml version="1.0" encoding="UTF-8" standalone="no"?>
<!DOCTYPE svg PUBLIC "-//W3C//DTD SVG 1.1//EN"
 "http://www.w3.org/Graphics/SVG/1.1/DTD/svg11.dtd">
<!-- Generated by graphviz version 2.48.0 (20210717.1556)
 -->
<!-- Title: page Pages: 1 -->
<svg width="218pt" height="438pt"
 viewBox="0.00 0.00 217.50 438.00" xmlns="http://www.w3.org/2000/svg" xmlns:xlink="http://www.w3.org/1999/xlink">
<g id="graph0" class="graph" transform="scale(1 1) rotate(0) translate(4 434)">
<title>page</title>
<!-- Node1 -->
<g id="Node000001" class="node">
<title>Node1</title>
<g id="a_Node000001"><a xlink:title="A collection of images that can fit on a single content page.">
<polygon fill="#999999" stroke="transparent" points="162.5,-208 30.5,-208 30.5,0 162.5,0 162.5,-208"/>
<text text-anchor="start" x="85.38" y="-196" font-family="Helvetica,sans-Serif" font-size="10.00">page</text>
<text text-anchor="start" x="35.33" y="-182" font-family="Helvetica,sans-Serif" font-size="10.00">&#45;</text>
<text text-anchor="start" x="43.5" y="-182" font-family="Helvetica,sans-Serif" font-size="10.00">fs::path _path</text>
<text text-anchor="start" x="34.08" y="-168" font-family="Helvetica,sans-Serif" font-size="10.00">+</text>
<text text-anchor="start" x="43.5" y="-168" font-family="Helvetica,sans-Serif" font-size="10.00">page(unsigned num)</text>
<text text-anchor="start" x="34.08" y="-154" font-family="Helvetica,sans-Serif" font-size="10.00">+</text>
<text text-anchor="start" x="43.5" y="-154" font-family="Helvetica,sans-Serif" font-size="10.00">auto width() const</text>
<text text-anchor="start" x="34.08" y="-140" font-family="Helvetica,sans-Serif" font-size="10.00">+</text>
<text text-anchor="start" x="43.5" y="-140" font-family="Helvetica,sans-Serif" font-size="10.00">auto height() const</text>
<text text-anchor="start" x="34.08" y="-126" font-family="Helvetica,sans-Serif" font-size="10.00">+</text>
<text text-anchor="start" x="43.5" y="-126" font-family="Helvetica,sans-Serif" font-size="10.00">auto path() const</text>
<text text-anchor="start" x="34.08" y="-112" font-family="Helvetica,sans-Serif" font-size="10.00">+</text>
<text text-anchor="start" x="43.5" y="-112" font-family="Helvetica,sans-Serif" font-size="10.00">epub::file_metadata</text>
<text text-anchor="start" x="43.5" y="-102" font-family="Helvetica,sans-Serif" font-size="10.00"> metadata(const std</text>
<text text-anchor="start" x="43.5" y="-92" font-family="Helvetica,sans-Serif" font-size="10.00">::string &amp;chapter) const</text>
<text text-anchor="start" x="34.08" y="-78" font-family="Helvetica,sans-Serif" font-size="10.00">+</text>
<text text-anchor="start" x="43.5" y="-78" font-family="Helvetica,sans-Serif" font-size="10.00">void push_back(image</text>
<text text-anchor="start" x="43.5" y="-68" font-family="Helvetica,sans-Serif" font-size="10.00">_ref image)</text>
<text text-anchor="start" x="34.08" y="-54" font-family="Helvetica,sans-Serif" font-size="10.00">+</text>
<text text-anchor="start" x="43.5" y="-54" font-family="Helvetica,sans-Serif" font-size="10.00">auto begin() const</text>
<text text-anchor="start" x="34.08" y="-40" font-family="Helvetica,sans-Serif" font-size="10.00">+</text>
<text text-anchor="start" x="43.5" y="-40" font-family="Helvetica,sans-Serif" font-size="10.00">auto end() const</text>
<text text-anchor="start" x="34.08" y="-26" font-family="Helvetica,sans-Serif" font-size="10.00">+</text>
<text text-anchor="start" x="43.5" y="-26" font-family="Helvetica,sans-Serif" font-size="10.00">void layout(separation</text>
<text text-anchor="start" x="43.5" y="-16" font-family="Helvetica,sans-Serif" font-size="10.00">_mode mode, const geom</text>
<text text-anchor="start" x="43.5" y="-6" font-family="Helvetica,sans-Serif" font-size="10.00">::size &amp;page_size)</text>
<polygon fill="#666666" stroke="#666666" points="30.5,-192 30.5,-192 162.5,-192 162.5,-192 30.5,-192"/>
<polygon fill="#666666" stroke="#666666" points="30.5,-178 30.5,-178 41.5,-178 41.5,-178 30.5,-178"/>
<polygon fill="#666666" stroke="#666666" points="41.5,-178 41.5,-178 162.5,-178 162.5,-178 41.5,-178"/>
<polygon fill="none" stroke="#666666" points="30.5,0 30.5,-208 162.5,-208 162.5,0 30.5,0"/>
</a>
</g>
</g>
<!-- Node2 -->
<g id="Node000002" class="node">
<title>Node2</title>
<g id="a_Node000002"><a xlink:title=" ">
<polygon fill="white" stroke="transparent" points="79,-319 0,-319 0,-273 79,-273 79,-319"/>
<text text-anchor="start" x="5.44" y="-307" font-family="Helvetica,sans-Serif" font-size="10.00">std::vector&lt; T &gt;</text>
<text text-anchor="start" x="38.61" y="-293" font-family="Helvetica,sans-Serif" font-size="10.00"> </text>
<text text-anchor="start" x="38.61" y="-279" font-family="Helvetica,sans-Serif" font-size="10.00"> </text>
<polygon fill="#666666" stroke="#666666" points="0.5,-303 0.5,-303 79.5,-303 79.5,-303 0.5,-303"/>
<polygon fill="#666666" stroke="#666666" points="0.5,-289 0.5,-289 79.5,-289 79.5,-289 0.5,-289"/>
<polygon fill="none" stroke="#666666" points="0,-273 0,-319 79,-319 79,-273 0,-273"/>
</a>
</g>
</g>
<!-- Node2&#45;&gt;Node1 -->
<g id="edge1_Node000001_Node000002" class="edge">
<title>Node2&#45;&gt;Node1</title>
<g id="a_edge1_Node000001_Node000002"><a xlink:title=" ">
<path fill="none" stroke="#8b1a1a" d="M49.14,-262.86C53.76,-247.47 59.58,-228.08 65.54,-208.21"/>
<polygon fill="none" stroke="#8b1a1a" points="45.67,-262.25 46.15,-272.83 52.38,-264.26 45.67,-262.25"/>
</a>
</g>
</g>
<!-- Node3 -->
<g id="Node000003" class="node">
<title>Node3</title>
<g id="a_Node000003"><a xlink:title=" ">
<polygon fill="white" stroke="transparent" points="47.5,-430 31.5,-430 31.5,-384 47.5,-384 47.5,-430"/>
<text text-anchor="start" x="36.45" y="-418" font-family="Helvetica,sans-Serif" font-size="10.00">T</text>
<text text-anchor="start" x="38.11" y="-404" font-family="Helvetica,sans-Serif" font-size="10.00"> </text>
<text text-anchor="start" x="38.11" y="-390" font-family="Helvetica,sans-Serif" font-size="10.00"> </text>
<polygon fill="#666666" stroke="#666666" points="31.5,-414 31.5,-414 47.5,-414 47.5,-414 31.5,-414"/>
<polygon fill="#666666" stroke="#666666" points="31.5,-400 31.5,-400 47.5,-400 47.5,-400 31.5,-400"/>
<polygon fill="none" stroke="#666666" points="31.5,-384 31.5,-430 47.5,-430 47.5,-384 31.5,-384"/>
</a>
</g>
</g>
<!-- Node3&#45;&gt;Node2 -->
<g id="edge2_Node000002_Node000003" class="edge">
<title>Node3&#45;&gt;Node2</title>
<g id="a_edge2_Node000002_Node000003"><a xlink:title=" ">
<path fill="none" stroke="#63b8ff" d="M39.5,-383.94C39.5,-368.8 39.5,-348.4 39.5,-331.17"/>
<polygon fill="none" stroke="#63b8ff" points="39.5,-331.02 35.5,-325.03 39.5,-319.02 43.5,-325.02 39.5,-331.02"/>
</a>
</g>
<text text-anchor="middle" x="64.1" y="-358" font-family="Helvetica,sans-Serif" font-size="10.00" fill="grey"> +elements</text>
</g>
<!-- Node4 -->
<g id="Node000004" class="node">
<title>Node4</title>
<g id="a_Node000004"><a xlink:href="structgeom_1_1size.html" target="_top" xlink:title=" ">
<polygon fill="white" stroke="transparent" points="209.5,-338 97.5,-338 97.5,-254 209.5,-254 209.5,-338"/>
<text text-anchor="start" x="129.32" y="-326" font-family="Helvetica,sans-Serif" font-size="10.00">geom::size</text>
<text text-anchor="start" x="101.08" y="-312" font-family="Helvetica,sans-Serif" font-size="10.00">+</text>
<text text-anchor="start" x="110.5" y="-312" font-family="Helvetica,sans-Serif" font-size="10.00">std::size_t w</text>
<text text-anchor="start" x="101.08" y="-298" font-family="Helvetica,sans-Serif" font-size="10.00">+</text>
<text text-anchor="start" x="110.5" y="-298" font-family="Helvetica,sans-Serif" font-size="10.00">std::size_t h</text>
<text text-anchor="start" x="101.08" y="-284" font-family="Helvetica,sans-Serif" font-size="10.00">+</text>
<text text-anchor="start" x="110.5" y="-284" font-family="Helvetica,sans-Serif" font-size="10.00">size()</text>
<text text-anchor="start" x="101.08" y="-270" font-family="Helvetica,sans-Serif" font-size="10.00">+</text>
<text text-anchor="start" x="110.5" y="-270" font-family="Helvetica,sans-Serif" font-size="10.00">size(std::size_t width,</text>
<text text-anchor="start" x="110.5" y="-260" font-family="Helvetica,sans-Serif" font-size="10.00"> std::size_t height)</text>
<polygon fill="#666666" stroke="#666666" points="97.5,-322 97.5,-322 209.5,-322 209.5,-322 97.5,-322"/>
<polygon fill="#666666" stroke="#666666" points="97.5,-294 97.5,-294 108.5,-294 108.5,-294 97.5,-294"/>
<polygon fill="#666666" stroke="#666666" points="108.5,-294 108.5,-294 209.5,-294 209.5,-294 108.5,-294"/>
<polygon fill="none" stroke="#666666" points="97.5,-254 97.5,-338 209.5,-338 209.5,-254 97.5,-254"/>
</a>
</g>
</g>
<!-- Node4&#45;&gt;Node1 -->
<g id="edge3_Node000001_Node000004" class="edge">
<title>Node4&#45;&gt;Node1</title>
<g id="a_edge3_Node000001_Node000004"><a xlink:title=" ">
<path fill="none" stroke="#63b8ff" d="M141.13,-253.77C138.03,-243.43 134.55,-231.83 130.93,-219.78"/>
<polygon fill="none" stroke="#63b8ff" points="130.88,-219.61 125.33,-215.01 127.44,-208.12 132.99,-212.71 130.88,-219.61"/>
</a>
</g>
<text text-anchor="middle" x="168.41" y="-228" font-family="Helvetica,sans-Serif" font-size="10.00" fill="grey"> &#45;_content_size</text>
</g>
</g>
</svg>
