<?xml version="1.0" encoding="UTF-8" standalone="no"?>
<!DOCTYPE svg PUBLIC "-//W3C//DTD SVG 1.1//EN"
 "http://www.w3.org/Graphics/SVG/1.1/DTD/svg11.dtd">
<!-- Generated by graphviz version 2.48.0 (20210717.1556)
 -->
<!-- Title: epub::manifest::item Pages: 1 -->
<svg width="219pt" height="411pt"
 viewBox="0.00 0.00 219.19 411.00" xmlns="http://www.w3.org/2000/svg" xmlns:xlink="http://www.w3.org/1999/xlink">
<g id="graph0" class="graph" transform="scale(1 1) rotate(0) translate(4 407)">
<title>epub::manifest::item</title>
<!-- Node1 -->
<g id="Node000001" class="node">
<title>Node1</title>
<g id="a_Node000001"><a xlink:title=" ">
<polygon fill="#999999" stroke="transparent" points="145,-102 45,-102 45,0 145,0 145,-102"/>
<text text-anchor="start" x="49.98" y="-90" font-family="Helvetica,sans-Serif" font-size="10.00">epub::manifest::item</text>
<text text-anchor="start" x="57.83" y="-76" font-family="Helvetica,sans-Serif" font-size="10.00">&#45;</text>
<text text-anchor="start" x="74" y="-76" font-family="Helvetica,sans-Serif" font-size="10.00">_path</text>
<text text-anchor="start" x="56.58" y="-62" font-family="Helvetica,sans-Serif" font-size="10.00">+</text>
<text text-anchor="start" x="74" y="-62" font-family="Helvetica,sans-Serif" font-size="10.00">item()</text>
<text text-anchor="start" x="56.58" y="-48" font-family="Helvetica,sans-Serif" font-size="10.00">+</text>
<text text-anchor="start" x="74" y="-48" font-family="Helvetica,sans-Serif" font-size="10.00">id()</text>
<text text-anchor="start" x="56.58" y="-34" font-family="Helvetica,sans-Serif" font-size="10.00">+</text>
<text text-anchor="start" x="74" y="-34" font-family="Helvetica,sans-Serif" font-size="10.00">path()</text>
<text text-anchor="start" x="56.58" y="-20" font-family="Helvetica,sans-Serif" font-size="10.00">+</text>
<text text-anchor="start" x="74" y="-20" font-family="Helvetica,sans-Serif" font-size="10.00">properties()</text>
<text text-anchor="start" x="56.58" y="-6" font-family="Helvetica,sans-Serif" font-size="10.00">+</text>
<text text-anchor="start" x="74" y="-6" font-family="Helvetica,sans-Serif" font-size="10.00">metadata()</text>
<polygon fill="#666666" stroke="#666666" points="45,-86 45,-86 145,-86 145,-86 45,-86"/>
<polygon fill="#666666" stroke="#666666" points="45,-72 45,-72 72,-72 72,-72 45,-72"/>
<polygon fill="#666666" stroke="#666666" points="72,-72 72,-72 145,-72 145,-72 72,-72"/>
<polygon fill="none" stroke="#666666" points="45,0 45,-102 145,-102 145,0 45,0"/>
</a>
</g>
</g>
<!-- Node2 -->
<g id="Node000002" class="node">
<title>Node2</title>
<g id="a_Node000002"><a xlink:title=" ">
<polygon fill="white" stroke="transparent" points="78,-211 14,-211 14,-165 78,-165 78,-211"/>
<text text-anchor="start" x="18.76" y="-199" font-family="Helvetica,sans-Serif" font-size="10.00">std::u8string</text>
<text text-anchor="start" x="44.61" y="-185" font-family="Helvetica,sans-Serif" font-size="10.00"> </text>
<text text-anchor="start" x="44.61" y="-171" font-family="Helvetica,sans-Serif" font-size="10.00"> </text>
<polygon fill="#666666" stroke="#666666" points="14,-195 14,-195 78,-195 78,-195 14,-195"/>
<polygon fill="#666666" stroke="#666666" points="14,-181 14,-181 78,-181 78,-181 14,-181"/>
<polygon fill="none" stroke="#666666" points="14,-165 14,-211 78,-211 78,-165 14,-165"/>
</a>
</g>
</g>
<!-- Node2&#45;&gt;Node1 -->
<g id="edge1_Node000001_Node000002" class="edge">
<title>Node2&#45;&gt;Node1</title>
<g id="a_edge1_Node000001_Node000002"><a xlink:title=" ">
<path fill="none" stroke="#63b8ff" d="M50.77,-164.98C53.89,-151.76 58.36,-134.72 63.64,-120 64.43,-117.8 65.27,-115.57 66.13,-113.33"/>
<polygon fill="none" stroke="#63b8ff" points="66.18,-113.21 64.74,-106.14 70.71,-102.09 72.15,-109.16 66.18,-113.21"/>
</a>
</g>
<text text-anchor="middle" x="90.68" y="-132" font-family="Helvetica,sans-Serif" font-size="10.00" fill="grey"> &#45;_id</text>
<text text-anchor="middle" x="90.68" y="-122" font-family="Helvetica,sans-Serif" font-size="10.00" fill="grey">&#45;_properties</text>
</g>
<!-- Node3 -->
<g id="Node000003" class="node">
<title>Node3</title>
<g id="a_Node000003"><a xlink:title=" ">
<polygon fill="white" stroke="transparent" points="88,-311 0,-311 0,-255 88,-255 88,-311"/>
<text text-anchor="start" x="4.95" y="-299" font-family="Helvetica,sans-Serif" font-size="10.00">std::basic_string&lt;</text>
<text text-anchor="start" x="27.46" y="-289" font-family="Helvetica,sans-Serif" font-size="10.00"> Char &gt;</text>
<text text-anchor="start" x="42.61" y="-275" font-family="Helvetica,sans-Serif" font-size="10.00"> </text>
<text text-anchor="start" x="42.61" y="-261" font-family="Helvetica,sans-Serif" font-size="10.00"> </text>
<polygon fill="#666666" stroke="#666666" points="0,-285 0,-285 88,-285 88,-285 0,-285"/>
<polygon fill="#666666" stroke="#666666" points="0,-271 0,-271 88,-271 88,-271 0,-271"/>
<polygon fill="none" stroke="#666666" points="0,-255 0,-311 88,-311 88,-255 0,-255"/>
</a>
</g>
</g>
<!-- Node3&#45;&gt;Node2 -->
<g id="edge2_Node000002_Node000003" class="edge">
<title>Node3&#45;&gt;Node2</title>
<g id="a_edge2_Node000002_Node000003"><a xlink:title=" ">
<path fill="none" stroke="#63b8ff" d="M44.81,-244.51C45.05,-233.21 45.31,-221.18 45.52,-211.21"/>
<polygon fill="none" stroke="#63b8ff" points="41.31,-244.53 44.59,-254.6 48.3,-244.68 41.31,-244.53"/>
</a>
</g>
</g>
<!-- Node4 -->
<g id="Node000004" class="node">
<title>Node4</title>
<g id="a_Node000004"><a xlink:href="structepub_1_1file__metadata.html" target="_top" xlink:title="A class for managing metadata key&#45;value pairs.">
<polygon fill="white" stroke="transparent" points="194.5,-218 97.5,-218 97.5,-158 194.5,-158 194.5,-218"/>
<text text-anchor="start" x="102.58" y="-206" font-family="Helvetica,sans-Serif" font-size="10.00">epub::file_metadata</text>
<text text-anchor="start" x="145.11" y="-192" font-family="Helvetica,sans-Serif" font-size="10.00"> </text>
<text text-anchor="start" x="116.58" y="-178" font-family="Helvetica,sans-Serif" font-size="10.00">+</text>
<text text-anchor="start" x="141" y="-178" font-family="Helvetica,sans-Serif" font-size="10.00">get()</text>
<text text-anchor="start" x="116.58" y="-164" font-family="Helvetica,sans-Serif" font-size="10.00">+</text>
<text text-anchor="start" x="141" y="-164" font-family="Helvetica,sans-Serif" font-size="10.00">get()</text>
<polygon fill="#666666" stroke="#666666" points="98,-202 98,-202 195,-202 195,-202 98,-202"/>
<polygon fill="#666666" stroke="#666666" points="98,-188 98,-188 195,-188 195,-188 98,-188"/>
<polygon fill="none" stroke="#666666" points="97.5,-158 97.5,-218 194.5,-218 194.5,-158 97.5,-158"/>
</a>
</g>
</g>
<!-- Node4&#45;&gt;Node1 -->
<g id="edge3_Node000001_Node000004" class="edge">
<title>Node4&#45;&gt;Node1</title>
<g id="a_edge3_Node000001_Node000004"><a xlink:title=" ">
<path fill="none" stroke="#63b8ff" d="M134.93,-157.71C130.05,-144.79 124.12,-129.09 118.34,-113.79"/>
<polygon fill="none" stroke="#63b8ff" points="118.21,-113.44 112.35,-109.24 113.97,-102.22 119.83,-106.42 118.21,-113.44"/>
</a>
</g>
<text text-anchor="middle" x="155.68" y="-127" font-family="Helvetica,sans-Serif" font-size="10.00" fill="grey"> &#45;_metadata</text>
</g>
<!-- Node5 -->
<g id="Node000005" class="node">
<title>Node5</title>
<g id="a_Node000005"><a xlink:title=" ">
<polygon fill="white" stroke="transparent" points="189.5,-306 106.5,-306 106.5,-260 189.5,-260 189.5,-306"/>
<text text-anchor="start" x="111.72" y="-294" font-family="Helvetica,sans-Serif" font-size="10.00">std::map&lt; K, T &gt;</text>
<text text-anchor="start" x="147.11" y="-280" font-family="Helvetica,sans-Serif" font-size="10.00"> </text>
<text text-anchor="start" x="147.11" y="-266" font-family="Helvetica,sans-Serif" font-size="10.00"> </text>
<polygon fill="#666666" stroke="#666666" points="107,-290 107,-290 190,-290 190,-290 107,-290"/>
<polygon fill="#666666" stroke="#666666" points="107,-276 107,-276 190,-276 190,-276 107,-276"/>
<polygon fill="none" stroke="#666666" points="106.5,-260 106.5,-306 189.5,-306 189.5,-260 106.5,-260"/>
</a>
</g>
</g>
<!-- Node5&#45;&gt;Node4 -->
<g id="edge4_Node000004_Node000005" class="edge">
<title>Node5&#45;&gt;Node4</title>
<g id="a_edge4_Node000004_Node000005"><a xlink:title=" ">
<path fill="none" stroke="#63b8ff" d="M147.31,-249.76C147.09,-239.53 146.84,-228.28 146.63,-218.27"/>
<polygon fill="none" stroke="#63b8ff" points="143.81,-250.04 147.53,-259.96 150.81,-249.89 143.81,-250.04"/>
</a>
</g>
</g>
<!-- Node6 -->
<g id="Node000006" class="node">
<title>Node6</title>
<g id="a_Node000006"><a xlink:title=" ">
<polygon fill="white" stroke="transparent" points="130,-403 114,-403 114,-357 130,-357 130,-403"/>
<text text-anchor="start" x="118.67" y="-391" font-family="Helvetica,sans-Serif" font-size="10.00">K</text>
<text text-anchor="start" x="120.61" y="-377" font-family="Helvetica,sans-Serif" font-size="10.00"> </text>
<text text-anchor="start" x="120.61" y="-363" font-family="Helvetica,sans-Serif" font-size="10.00"> </text>
<polygon fill="#666666" stroke="#666666" points="114,-387 114,-387 130,-387 130,-387 114,-387"/>
<polygon fill="#666666" stroke="#666666" points="114,-373 114,-373 130,-373 130,-373 114,-373"/>
<polygon fill="none" stroke="#666666" points="114,-357 114,-403 130,-403 130,-357 114,-357"/>
</a>
</g>
</g>
<!-- Node6&#45;&gt;Node5 -->
<g id="edge5_Node000005_Node000006" class="edge">
<title>Node6&#45;&gt;Node5</title>
<g id="a_edge5_Node000005_Node000006"><a xlink:title=" ">
<path fill="none" stroke="#63b8ff" d="M120.05,-356.77C119.87,-347.99 120.43,-337.89 122.82,-329 123.87,-325.11 125.33,-321.2 127.02,-317.39"/>
<polygon fill="none" stroke="#63b8ff" points="127.16,-317.1 126.32,-309.94 132.61,-306.41 133.45,-313.57 127.16,-317.1"/>
</a>
</g>
<text text-anchor="middle" x="137.59" y="-331" font-family="Helvetica,sans-Serif" font-size="10.00" fill="grey"> +keys</text>
</g>
<!-- Node7 -->
<g id="Node000007" class="node">
<title>Node7</title>
<g id="a_Node000007"><a xlink:title=" ">
<polygon fill="white" stroke="transparent" points="182,-403 166,-403 166,-357 182,-357 182,-403"/>
<text text-anchor="start" x="170.95" y="-391" font-family="Helvetica,sans-Serif" font-size="10.00">T</text>
<text text-anchor="start" x="172.61" y="-377" font-family="Helvetica,sans-Serif" font-size="10.00"> </text>
<text text-anchor="start" x="172.61" y="-363" font-family="Helvetica,sans-Serif" font-size="10.00"> </text>
<polygon fill="#666666" stroke="#666666" points="166,-387 166,-387 182,-387 182,-387 166,-387"/>
<polygon fill="#666666" stroke="#666666" points="166,-373 166,-373 182,-373 182,-373 166,-373"/>
<polygon fill="none" stroke="#666666" points="166,-357 166,-403 182,-403 182,-357 166,-357"/>
</a>
</g>
</g>
<!-- Node7&#45;&gt;Node5 -->
<g id="edge6_Node000005_Node000007" class="edge">
<title>Node7&#45;&gt;Node5</title>
<g id="a_edge6_Node000005_Node000007"><a xlink:title=" ">
<path fill="none" stroke="#63b8ff" d="M167.97,-356.97C164.81,-345.42 160.87,-331.02 157.33,-318.07"/>
<polygon fill="none" stroke="#63b8ff" points="157.26,-317.82 151.81,-313.09 154.09,-306.24 159.53,-310.97 157.26,-317.82"/>
</a>
</g>
<text text-anchor="middle" x="186.6" y="-331" font-family="Helvetica,sans-Serif" font-size="10.00" fill="grey"> +elements</text>
</g>
</g>
</svg>
