<?xml version="1.0" encoding="UTF-8" standalone="no"?>
<!DOCTYPE svg PUBLIC "-//W3C//DTD SVG 1.1//EN"
 "http://www.w3.org/Graphics/SVG/1.1/DTD/svg11.dtd">
<!-- Generated by graphviz version 2.48.0 (20210717.1556)
 -->
<!-- Title: cli::arg_option Pages: 1 -->
<svg width="133pt" height="386pt"
 viewBox="0.00 0.00 133.00 386.00" xmlns="http://www.w3.org/2000/svg" xmlns:xlink="http://www.w3.org/1999/xlink">
<g id="graph0" class="graph" transform="scale(1 1) rotate(0) translate(4 382)">
<title>cli::arg_option</title>
<!-- Node1 -->
<g id="Node000001" class="node">
<title>Node1</title>
<g id="a_Node000001"><a xlink:title=" ">
<polygon fill="#999999" stroke="transparent" points="122,-114 3,-114 3,0 122,0 122,-114"/>
<text text-anchor="start" x="31.87" y="-102" font-family="Helvetica,sans-Serif" font-size="10.00">cli::arg_option</text>
<text text-anchor="start" x="8.33" y="-88" font-family="Helvetica,sans-Serif" font-size="10.00">&#45;</text>
<text text-anchor="start" x="16.5" y="-88" font-family="Helvetica,sans-Serif" font-size="10.00">std::function&lt; void</text>
<text text-anchor="start" x="16.5" y="-78" font-family="Helvetica,sans-Serif" font-size="10.00">(std::string)&gt; _cb</text>
<text text-anchor="start" x="7.08" y="-64" font-family="Helvetica,sans-Serif" font-size="10.00">+</text>
<text text-anchor="start" x="16.5" y="-64" font-family="Helvetica,sans-Serif" font-size="10.00">arg_option(Callback</text>
<text text-anchor="start" x="16.5" y="-54" font-family="Helvetica,sans-Serif" font-size="10.00"> &amp;&amp;cb)</text>
<text text-anchor="start" x="7.08" y="-40" font-family="Helvetica,sans-Serif" font-size="10.00">+</text>
<text text-anchor="start" x="16.5" y="-40" font-family="Helvetica,sans-Serif" font-size="10.00">bool needs_arg() const</text>
<text text-anchor="start" x="16.5" y="-30" font-family="Helvetica,sans-Serif" font-size="10.00"> noexcept override</text>
<text text-anchor="start" x="7.08" y="-16" font-family="Helvetica,sans-Serif" font-size="10.00">+</text>
<text text-anchor="start" x="16.5" y="-16" font-family="Helvetica,sans-Serif" font-size="10.00">void set_arg(std::string</text>
<text text-anchor="start" x="16.5" y="-6" font-family="Helvetica,sans-Serif" font-size="10.00"> arg) const override</text>
<polygon fill="#666666" stroke="#666666" points="3.5,-98 3.5,-98 122.5,-98 122.5,-98 3.5,-98"/>
<polygon fill="#666666" stroke="#666666" points="3.5,-74 3.5,-74 14.5,-74 14.5,-74 3.5,-74"/>
<polygon fill="#666666" stroke="#666666" points="14.5,-74 14.5,-74 122.5,-74 122.5,-74 14.5,-74"/>
<polygon fill="none" stroke="#666666" points="3,0 3,-114 122,-114 122,0 3,0"/>
</a>
</g>
</g>
<!-- Node2 -->
<g id="Node000002" class="node">
<title>Node2</title>
<g id="a_Node000002"><a xlink:href="classcli_1_1option.html" target="_top" xlink:title=" ">
<polygon fill="white" stroke="transparent" points="125,-378 0,-378 0,-150 125,-150 125,-378"/>
<text text-anchor="start" x="41.88" y="-366" font-family="Helvetica,sans-Serif" font-size="10.00">cli::option</text>
<text text-anchor="start" x="61.61" y="-352" font-family="Helvetica,sans-Serif" font-size="10.00"> </text>
<text text-anchor="start" x="4.08" y="-338" font-family="Helvetica,sans-Serif" font-size="10.00">+</text>
<text text-anchor="start" x="13.5" y="-338" font-family="Helvetica,sans-Serif" font-size="10.00">option()</text>
<text text-anchor="start" x="4.08" y="-324" font-family="Helvetica,sans-Serif" font-size="10.00">+</text>
<text text-anchor="start" x="13.5" y="-324" font-family="Helvetica,sans-Serif" font-size="10.00">option(const option</text>
<text text-anchor="start" x="13.5" y="-314" font-family="Helvetica,sans-Serif" font-size="10.00"> &amp;)=default</text>
<text text-anchor="start" x="4.08" y="-300" font-family="Helvetica,sans-Serif" font-size="10.00">+</text>
<text text-anchor="start" x="13.5" y="-300" font-family="Helvetica,sans-Serif" font-size="10.00">option(option &amp;&amp;)</text>
<text text-anchor="start" x="13.5" y="-290" font-family="Helvetica,sans-Serif" font-size="10.00">=default</text>
<text text-anchor="start" x="4.08" y="-276" font-family="Helvetica,sans-Serif" font-size="10.00">+</text>
<text text-anchor="start" x="13.5" y="-276" font-family="Helvetica,sans-Serif" font-size="10.00">option &amp; operator=</text>
<text text-anchor="start" x="13.5" y="-266" font-family="Helvetica,sans-Serif" font-size="10.00">(const option &amp;)=default</text>
<text text-anchor="start" x="4.08" y="-252" font-family="Helvetica,sans-Serif" font-size="10.00">+</text>
<text text-anchor="start" x="13.5" y="-252" font-family="Helvetica,sans-Serif" font-size="10.00">option &amp; operator=</text>
<text text-anchor="start" x="13.5" y="-242" font-family="Helvetica,sans-Serif" font-size="10.00">(option &amp;&amp;)=default</text>
<text text-anchor="start" x="4.08" y="-228" font-family="Helvetica,sans-Serif" font-size="10.00">+</text>
<text text-anchor="start" x="13.5" y="-228" font-family="Helvetica,sans-Serif" font-size="10.00">virtual ~option()=default</text>
<text text-anchor="start" x="4.08" y="-214" font-family="Helvetica,sans-Serif" font-size="10.00">+</text>
<text text-anchor="start" x="13.5" y="-214" font-family="Helvetica,sans-Serif" font-size="10.00">virtual bool needs</text>
<text text-anchor="start" x="13.5" y="-204" font-family="Helvetica,sans-Serif" font-size="10.00">_arg() const noexcept=0</text>
<text text-anchor="start" x="4.08" y="-190" font-family="Helvetica,sans-Serif" font-size="10.00">+</text>
<text text-anchor="start" x="13.5" y="-190" font-family="Helvetica,sans-Serif" font-size="10.00">virtual void set()</text>
<text text-anchor="start" x="13.5" y="-180" font-family="Helvetica,sans-Serif" font-size="10.00"> const</text>
<text text-anchor="start" x="4.08" y="-166" font-family="Helvetica,sans-Serif" font-size="10.00">+</text>
<text text-anchor="start" x="13.5" y="-166" font-family="Helvetica,sans-Serif" font-size="10.00">virtual void set_arg</text>
<text text-anchor="start" x="13.5" y="-156" font-family="Helvetica,sans-Serif" font-size="10.00">(std::string) const</text>
<polygon fill="#666666" stroke="#666666" points="0.5,-362 0.5,-362 125.5,-362 125.5,-362 0.5,-362"/>
<polygon fill="#666666" stroke="#666666" points="0.5,-348 0.5,-348 125.5,-348 125.5,-348 0.5,-348"/>
<polygon fill="none" stroke="#666666" points="0,-150 0,-378 125,-378 125,-150 0,-150"/>
</a>
</g>
</g>
<!-- Node2&#45;&gt;Node1 -->
<g id="edge1_Node000001_Node000002" class="edge">
<title>Node2&#45;&gt;Node1</title>
<g id="a_edge1_Node000001_Node000002"><a xlink:title=" ">
<path fill="none" stroke="#63b8ff" d="M62.5,-139.67C62.5,-130.84 62.5,-122.23 62.5,-114.11"/>
<polygon fill="none" stroke="#63b8ff" points="59,-139.71 62.5,-149.71 66,-139.71 59,-139.71"/>
</a>
</g>
</g>
</g>
</svg>
