<?xml version="1.0" encoding="UTF-8" standalone="no"?>
<!DOCTYPE svg PUBLIC "-//W3C//DTD SVG 1.1//EN"
 "http://www.w3.org/Graphics/SVG/1.1/DTD/svg11.dtd">
<!-- Generated by graphviz version 2.48.0 (20210717.1556)
 -->
<!-- Title: cli::option_processor::usage Pages: 1 -->
<svg width="259pt" height="54pt"
 viewBox="0.00 0.00 259.43 54.00" xmlns="http://www.w3.org/2000/svg" xmlns:xlink="http://www.w3.org/1999/xlink">
<g id="graph0" class="graph" transform="scale(1 1) rotate(0) translate(4 50)">
<title>cli::option_processor::usage</title>
<!-- Node1 -->
<g id="Node000001" class="node">
<title>Node1</title>
<g id="a_Node000001"><a xlink:title=" ">
<polygon fill="#999999" stroke="#666666" points="107.57,-28 0.14,-28 0.14,0 107.57,0 107.57,-28"/>
<text text-anchor="start" x="8" y="-16" font-family="Helvetica,sans-Serif" font-size="10.00">cli::option_processor</text>
<text text-anchor="middle" x="53.86" y="-6" font-family="Helvetica,sans-Serif" font-size="10.00">::usage</text>
</a>
</g>
</g>
<!-- Node2 -->
<g id="Node000002" class="node">
<title>Node2</title>
<g id="a_Node000002"><a xlink:href="classcli_1_1option__processor.html#a963a0b0a7cf5bf1d738f5d8d290d0ec1" target="_top" xlink:title=" ">
<polygon fill="white" stroke="#666666" points="251.29,-28 143.86,-28 143.86,0 251.29,0 251.29,-28"/>
<text text-anchor="start" x="151.71" y="-16" font-family="Helvetica,sans-Serif" font-size="10.00">cli::option_processor</text>
<text text-anchor="middle" x="197.57" y="-6" font-family="Helvetica,sans-Serif" font-size="10.00">::wrap</text>
</a>
</g>
</g>
<!-- Node1&#45;&gt;Node2 -->
<g id="edge1_Node000001_Node000002" class="edge">
<title>Node1&#45;&gt;Node2</title>
<g id="a_edge1_Node000001_Node000002"><a xlink:title=" ">
<path fill="none" stroke="#63b8ff" d="M107.63,-14C116.11,-14 124.97,-14 133.66,-14"/>
<polygon fill="#63b8ff" stroke="#63b8ff" points="133.76,-17.5 143.76,-14 133.76,-10.5 133.76,-17.5"/>
</a>
</g>
</g>
<!-- Node2&#45;&gt;Node2 -->
<g id="edge2_Node000002_Node000002" class="edge">
<title>Node2&#45;&gt;Node2</title>
<g id="a_edge2_Node000002_Node000002"><a xlink:title=" ">
<path fill="none" stroke="#63b8ff" d="M173.05,-28.15C166.66,-37.24 174.83,-46 197.57,-46 211.43,-46 219.88,-42.75 222.92,-38.15"/>
<polygon fill="#63b8ff" stroke="#63b8ff" points="226.4,-37.83 222.09,-28.15 219.42,-38.4 226.4,-37.83"/>
</a>
</g>
</g>
</g>
</svg>
