<?xml version="1.0" encoding="UTF-8" standalone="no"?>
<!DOCTYPE svg PUBLIC "-//W3C//DTD SVG 1.1//EN"
 "http://www.w3.org/Graphics/SVG/1.1/DTD/svg11.dtd">
<!-- Generated by graphviz version 2.48.0 (20210717.1556)
 -->
<!-- Title: cli::option_processor Pages: 1 -->
<svg width="260pt" height="570pt"
 viewBox="0.00 0.00 260.00 570.00" xmlns="http://www.w3.org/2000/svg" xmlns:xlink="http://www.w3.org/1999/xlink">
<g id="graph0" class="graph" transform="scale(1 1) rotate(0) translate(4 566)">
<title>cli::option_processor</title>
<!-- Node1 -->
<g id="Node000001" class="node">
<title>Node1</title>
<g id="a_Node000001"><a xlink:title=" ">
<polygon fill="#999999" stroke="transparent" points="169,-144 68,-144 68,0 169,0 169,-144"/>
<text text-anchor="start" x="73.14" y="-132" font-family="Helvetica,sans-Serif" font-size="10.00">cli::option_processor</text>
<text text-anchor="start" x="117.61" y="-118" font-family="Helvetica,sans-Serif" font-size="10.00"> </text>
<text text-anchor="start" x="79.08" y="-104" font-family="Helvetica,sans-Serif" font-size="10.00">+</text>
<text text-anchor="start" x="95.5" y="-104" font-family="Helvetica,sans-Serif" font-size="10.00">add_flag()</text>
<text text-anchor="start" x="79.08" y="-90" font-family="Helvetica,sans-Serif" font-size="10.00">+</text>
<text text-anchor="start" x="95.5" y="-90" font-family="Helvetica,sans-Serif" font-size="10.00">add_flag()</text>
<text text-anchor="start" x="79.08" y="-76" font-family="Helvetica,sans-Serif" font-size="10.00">+</text>
<text text-anchor="start" x="95.5" y="-76" font-family="Helvetica,sans-Serif" font-size="10.00">add_flag()</text>
<text text-anchor="start" x="79.08" y="-62" font-family="Helvetica,sans-Serif" font-size="10.00">+</text>
<text text-anchor="start" x="95.5" y="-62" font-family="Helvetica,sans-Serif" font-size="10.00">add_option()</text>
<text text-anchor="start" x="79.08" y="-48" font-family="Helvetica,sans-Serif" font-size="10.00">+</text>
<text text-anchor="start" x="95.5" y="-48" font-family="Helvetica,sans-Serif" font-size="10.00">add_option()</text>
<text text-anchor="start" x="79.08" y="-34" font-family="Helvetica,sans-Serif" font-size="10.00">+</text>
<text text-anchor="start" x="95.5" y="-34" font-family="Helvetica,sans-Serif" font-size="10.00">add_option()</text>
<text text-anchor="start" x="79.08" y="-20" font-family="Helvetica,sans-Serif" font-size="10.00">+</text>
<text text-anchor="start" x="95.5" y="-20" font-family="Helvetica,sans-Serif" font-size="10.00">process()</text>
<text text-anchor="start" x="79.08" y="-6" font-family="Helvetica,sans-Serif" font-size="10.00">+</text>
<text text-anchor="start" x="95.5" y="-6" font-family="Helvetica,sans-Serif" font-size="10.00">usage()</text>
<polygon fill="#666666" stroke="#666666" points="68.5,-128 68.5,-128 169.5,-128 169.5,-128 68.5,-128"/>
<polygon fill="#666666" stroke="#666666" points="68.5,-114 68.5,-114 169.5,-114 169.5,-114 68.5,-114"/>
<polygon fill="none" stroke="#666666" points="68,0 68,-144 169,-144 169,0 68,0"/>
</a>
</g>
</g>
<!-- Node2 -->
<g id="Node000002" class="node">
<title>Node2</title>
<g id="a_Node000002"><a xlink:title=" ">
<polygon fill="white" stroke="transparent" points="252,-251 121,-251 121,-195 252,-195 252,-251"/>
<text text-anchor="start" x="126.27" y="-239" font-family="Helvetica,sans-Serif" font-size="10.00">std::map&lt; char, std</text>
<text text-anchor="start" x="126.27" y="-229" font-family="Helvetica,sans-Serif" font-size="10.00">::shared_ptr&lt; cli::option &gt; &gt;</text>
<text text-anchor="start" x="148.58" y="-215" font-family="Helvetica,sans-Serif" font-size="10.00">+</text>
<text text-anchor="start" x="181.5" y="-215" font-family="Helvetica,sans-Serif" font-size="10.00">keys</text>
<text text-anchor="start" x="185.61" y="-201" font-family="Helvetica,sans-Serif" font-size="10.00"> </text>
<polygon fill="#666666" stroke="#666666" points="121.5,-225 121.5,-225 252.5,-225 252.5,-225 121.5,-225"/>
<polygon fill="#666666" stroke="#666666" points="121.5,-211 121.5,-211 179.5,-211 179.5,-211 121.5,-211"/>
<polygon fill="#666666" stroke="#666666" points="179.5,-211 179.5,-211 252.5,-211 252.5,-211 179.5,-211"/>
<polygon fill="none" stroke="#666666" points="121,-195 121,-251 252,-251 252,-195 121,-195"/>
</a>
</g>
</g>
<!-- Node2&#45;&gt;Node1 -->
<g id="edge1_Node000001_Node000002" class="edge">
<title>Node2&#45;&gt;Node1</title>
<g id="a_edge1_Node000001_Node000002"><a xlink:title=" ">
<path fill="none" stroke="#63b8ff" d="M174.03,-194.67C168.83,-183.29 162.5,-169.41 156,-155.16"/>
<polygon fill="none" stroke="#63b8ff" points="155.99,-155.14 149.86,-151.34 151,-144.22 157.13,-148.02 155.99,-155.14"/>
</a>
</g>
<text text-anchor="middle" x="179.45" y="-164" font-family="Helvetica,sans-Serif" font-size="10.00" fill="grey"> &#45;_short</text>
</g>
<!-- Node3 -->
<g id="Node000003" class="node">
<title>Node3</title>
<g id="a_Node000003"><a xlink:title=" ">
<polygon fill="white" stroke="transparent" points="208.5,-358 114.5,-358 114.5,-302 208.5,-302 208.5,-358"/>
<text text-anchor="start" x="119.12" y="-346" font-family="Helvetica,sans-Serif" font-size="10.00">std::shared_ptr&lt; cli</text>
<text text-anchor="start" x="140.79" y="-336" font-family="Helvetica,sans-Serif" font-size="10.00">::option &gt;</text>
<text text-anchor="start" x="160.11" y="-322" font-family="Helvetica,sans-Serif" font-size="10.00"> </text>
<text text-anchor="start" x="124.08" y="-308" font-family="Helvetica,sans-Serif" font-size="10.00">+</text>
<text text-anchor="start" x="139.5" y="-308" font-family="Helvetica,sans-Serif" font-size="10.00">operator&#45;&gt;()</text>
<polygon fill="#666666" stroke="#666666" points="114.5,-332 114.5,-332 208.5,-332 208.5,-332 114.5,-332"/>
<polygon fill="#666666" stroke="#666666" points="114.5,-318 114.5,-318 208.5,-318 208.5,-318 114.5,-318"/>
<polygon fill="none" stroke="#666666" points="114.5,-302 114.5,-358 208.5,-358 208.5,-302 114.5,-302"/>
</a>
</g>
</g>
<!-- Node3&#45;&gt;Node2 -->
<g id="edge2_Node000002_Node000003" class="edge">
<title>Node3&#45;&gt;Node2</title>
<g id="a_edge2_Node000002_Node000003"><a xlink:title=" ">
<path fill="none" stroke="#63b8ff" d="M167.94,-301.96C170.74,-290.17 174.09,-276.12 177.16,-263.22"/>
<polygon fill="none" stroke="#63b8ff" points="177.22,-262.99 174.72,-256.22 180,-251.31 182.5,-258.08 177.22,-262.99"/>
</a>
</g>
<text text-anchor="middle" x="198.1" y="-276" font-family="Helvetica,sans-Serif" font-size="10.00" fill="grey"> +elements</text>
</g>
<!-- Node5 -->
<g id="Node000005" class="node">
<title>Node5</title>
<g id="a_Node000005"><a xlink:title=" ">
<polygon fill="white" stroke="transparent" points="103,-256 0,-256 0,-190 103,-190 103,-256"/>
<text text-anchor="start" x="5.45" y="-244" font-family="Helvetica,sans-Serif" font-size="10.00">std::map&lt; std::string,</text>
<text text-anchor="start" x="5.45" y="-234" font-family="Helvetica,sans-Serif" font-size="10.00"> std::shared_ptr&lt; cli</text>
<text text-anchor="start" x="26.98" y="-224" font-family="Helvetica,sans-Serif" font-size="10.00">::option &gt; &gt;</text>
<text text-anchor="start" x="50.61" y="-210" font-family="Helvetica,sans-Serif" font-size="10.00"> </text>
<text text-anchor="start" x="50.61" y="-196" font-family="Helvetica,sans-Serif" font-size="10.00"> </text>
<polygon fill="#666666" stroke="#666666" points="0.5,-220 0.5,-220 103.5,-220 103.5,-220 0.5,-220"/>
<polygon fill="#666666" stroke="#666666" points="0.5,-206 0.5,-206 103.5,-206 103.5,-206 0.5,-206"/>
<polygon fill="none" stroke="#666666" points="0,-190 0,-256 103,-256 103,-190 0,-190"/>
</a>
</g>
</g>
<!-- Node3&#45;&gt;Node5 -->
<g id="edge7_Node000005_Node000003" class="edge">
<title>Node3&#45;&gt;Node5</title>
<g id="a_edge7_Node000005_Node000003"><a xlink:title=" ">
<path fill="none" stroke="#63b8ff" d="M133.17,-301.96C121.28,-290.6 107.18,-277.15 94.08,-264.65"/>
<polygon fill="none" stroke="#63b8ff" points="93.89,-264.46 86.79,-263.22 85.21,-256.18 92.31,-257.43 93.89,-264.46"/>
</a>
</g>
<text text-anchor="middle" x="138.1" y="-276" font-family="Helvetica,sans-Serif" font-size="10.00" fill="grey"> +elements</text>
</g>
<!-- Node4 -->
<g id="Node000004" class="node">
<title>Node4</title>
<g id="a_Node000004"><a xlink:href="classcli_1_1option.html" target="_top" xlink:title=" ">
<polygon fill="white" stroke="transparent" points="196.5,-562 126.5,-562 126.5,-404 196.5,-404 196.5,-562"/>
<text text-anchor="start" x="140.38" y="-550" font-family="Helvetica,sans-Serif" font-size="10.00">cli::option</text>
<text text-anchor="start" x="160.11" y="-536" font-family="Helvetica,sans-Serif" font-size="10.00"> </text>
<text text-anchor="start" x="130.08" y="-522" font-family="Helvetica,sans-Serif" font-size="10.00">+</text>
<text text-anchor="start" x="139.5" y="-522" font-family="Helvetica,sans-Serif" font-size="10.00">option()</text>
<text text-anchor="start" x="130.08" y="-508" font-family="Helvetica,sans-Serif" font-size="10.00">+</text>
<text text-anchor="start" x="139.5" y="-508" font-family="Helvetica,sans-Serif" font-size="10.00">option()</text>
<text text-anchor="start" x="130.08" y="-494" font-family="Helvetica,sans-Serif" font-size="10.00">+</text>
<text text-anchor="start" x="139.5" y="-494" font-family="Helvetica,sans-Serif" font-size="10.00">option()</text>
<text text-anchor="start" x="130.08" y="-480" font-family="Helvetica,sans-Serif" font-size="10.00">+</text>
<text text-anchor="start" x="139.5" y="-480" font-family="Helvetica,sans-Serif" font-size="10.00">operator=()</text>
<text text-anchor="start" x="130.08" y="-466" font-family="Helvetica,sans-Serif" font-size="10.00">+</text>
<text text-anchor="start" x="139.5" y="-466" font-family="Helvetica,sans-Serif" font-size="10.00">operator=()</text>
<text text-anchor="start" x="130.08" y="-452" font-family="Helvetica,sans-Serif" font-size="10.00">+</text>
<text text-anchor="start" x="139.5" y="-452" font-family="Helvetica,sans-Serif" font-size="10.00">~option()</text>
<text text-anchor="start" x="130.08" y="-438" font-family="Helvetica,sans-Serif" font-size="10.00">+</text>
<text text-anchor="start" x="139.5" y="-438" font-family="Helvetica,sans-Serif" font-size="10.00">needs_arg()</text>
<text text-anchor="start" x="130.08" y="-424" font-family="Helvetica,sans-Serif" font-size="10.00">+</text>
<text text-anchor="start" x="139.5" y="-424" font-family="Helvetica,sans-Serif" font-size="10.00">set()</text>
<text text-anchor="start" x="130.08" y="-410" font-family="Helvetica,sans-Serif" font-size="10.00">+</text>
<text text-anchor="start" x="139.5" y="-410" font-family="Helvetica,sans-Serif" font-size="10.00">set_arg()</text>
<polygon fill="#666666" stroke="#666666" points="126.5,-546 126.5,-546 196.5,-546 196.5,-546 126.5,-546"/>
<polygon fill="#666666" stroke="#666666" points="126.5,-532 126.5,-532 196.5,-532 196.5,-532 126.5,-532"/>
<polygon fill="none" stroke="#666666" points="126.5,-404 126.5,-562 196.5,-562 196.5,-404 126.5,-404"/>
</a>
</g>
</g>
<!-- Node4&#45;&gt;Node3 -->
<g id="edge3_Node000003_Node000004" class="edge">
<title>Node4&#45;&gt;Node3</title>
<g id="a_edge3_Node000003_Node000004"><a xlink:title=" ">
<path fill="none" stroke="#63b8ff" d="M161.5,-403.85C161.5,-392.31 161.5,-380.86 161.5,-370.56"/>
<polygon fill="none" stroke="#63b8ff" points="161.5,-370.23 157.5,-364.23 161.5,-358.23 165.5,-364.23 161.5,-370.23"/>
</a>
</g>
<text text-anchor="middle" x="171.64" y="-378" font-family="Helvetica,sans-Serif" font-size="10.00" fill="grey"> +ptr</text>
</g>
<!-- Node5&#45;&gt;Node1 -->
<g id="edge4_Node000001_Node000005" class="edge">
<title>Node5&#45;&gt;Node1</title>
<g id="a_edge4_Node000001_Node000005"><a xlink:title=" ">
<path fill="none" stroke="#63b8ff" d="M66.04,-189.67C70.66,-179.38 76.01,-167.49 81.48,-155.32"/>
<polygon fill="none" stroke="#63b8ff" points="81.6,-155.05 80.42,-147.94 86.53,-144.11 87.71,-151.22 81.6,-155.05"/>
</a>
</g>
<text text-anchor="middle" x="92.79" y="-164" font-family="Helvetica,sans-Serif" font-size="10.00" fill="grey"> &#45;_long</text>
</g>
<!-- Node6 -->
<g id="Node000006" class="node">
<title>Node6</title>
<g id="a_Node000006"><a xlink:title=" ">
<polygon fill="white" stroke="transparent" points="78,-353 25,-353 25,-307 78,-307 78,-353"/>
<text text-anchor="start" x="30.33" y="-341" font-family="Helvetica,sans-Serif" font-size="10.00">std::string</text>
<text text-anchor="start" x="50.61" y="-327" font-family="Helvetica,sans-Serif" font-size="10.00"> </text>
<text text-anchor="start" x="50.61" y="-313" font-family="Helvetica,sans-Serif" font-size="10.00"> </text>
<polygon fill="#666666" stroke="#666666" points="25.5,-337 25.5,-337 78.5,-337 78.5,-337 25.5,-337"/>
<polygon fill="#666666" stroke="#666666" points="25.5,-323 25.5,-323 78.5,-323 78.5,-323 25.5,-323"/>
<polygon fill="none" stroke="#666666" points="25,-307 25,-353 78,-353 78,-307 25,-307"/>
</a>
</g>
</g>
<!-- Node6&#45;&gt;Node5 -->
<g id="edge5_Node000005_Node000006" class="edge">
<title>Node6&#45;&gt;Node5</title>
<g id="a_edge5_Node000005_Node000006"><a xlink:title=" ">
<path fill="none" stroke="#63b8ff" d="M51.5,-306.99C51.5,-295.87 51.5,-281.96 51.5,-268.72"/>
<polygon fill="none" stroke="#63b8ff" points="51.5,-268.35 47.5,-262.35 51.5,-256.35 55.5,-262.35 51.5,-268.35"/>
</a>
</g>
<text text-anchor="middle" x="66.09" y="-276" font-family="Helvetica,sans-Serif" font-size="10.00" fill="grey"> +keys</text>
</g>
<!-- Node7 -->
<g id="Node000007" class="node">
<title>Node7</title>
<g id="a_Node000007"><a xlink:title=" ">
<polygon fill="white" stroke="transparent" points="95.5,-511 7.5,-511 7.5,-455 95.5,-455 95.5,-511"/>
<text text-anchor="start" x="12.45" y="-499" font-family="Helvetica,sans-Serif" font-size="10.00">std::basic_string&lt;</text>
<text text-anchor="start" x="34.96" y="-489" font-family="Helvetica,sans-Serif" font-size="10.00"> Char &gt;</text>
<text text-anchor="start" x="50.11" y="-475" font-family="Helvetica,sans-Serif" font-size="10.00"> </text>
<text text-anchor="start" x="50.11" y="-461" font-family="Helvetica,sans-Serif" font-size="10.00"> </text>
<polygon fill="#666666" stroke="#666666" points="7.5,-485 7.5,-485 95.5,-485 95.5,-485 7.5,-485"/>
<polygon fill="#666666" stroke="#666666" points="7.5,-471 7.5,-471 95.5,-471 95.5,-471 7.5,-471"/>
<polygon fill="none" stroke="#666666" points="7.5,-455 7.5,-511 95.5,-511 95.5,-455 7.5,-455"/>
</a>
</g>
</g>
<!-- Node7&#45;&gt;Node6 -->
<g id="edge6_Node000006_Node000007" class="edge">
<title>Node7&#45;&gt;Node6</title>
<g id="a_edge6_Node000006_Node000007"><a xlink:title=" ">
<path fill="none" stroke="#63b8ff" d="M51.5,-444.58C51.5,-415.88 51.5,-377.23 51.5,-353.23"/>
<polygon fill="none" stroke="#63b8ff" points="48,-444.66 51.5,-454.66 55,-444.66 48,-444.66"/>
</a>
</g>
</g>
</g>
</svg>
