<?xml version="1.0" encoding="UTF-8" standalone="no"?>
<!DOCTYPE svg PUBLIC "-//W3C//DTD SVG 1.1//EN"
 "http://www.w3.org/Graphics/SVG/1.1/DTD/svg11.dtd">
<!-- Generated by graphviz version 2.48.0 (20210717.1556)
 -->
<!-- Title: IIReadInterface Pages: 1 -->
<svg width="150pt" height="462pt"
 viewBox="0.00 0.00 149.54 462.00" xmlns="http://www.w3.org/2000/svg" xmlns:xlink="http://www.w3.org/1999/xlink">
<g id="graph0" class="graph" transform="scale(1 1) rotate(0) translate(4 458)">
<title>IIReadInterface</title>
<!-- Node1 -->
<g id="Node000001" class="node">
<title>Node1</title>
<g id="a_Node000001"><a xlink:title=" ">
<polygon fill="#999999" stroke="transparent" points="107.5,-116 15.5,-116 15.5,0 107.5,0 107.5,-116"/>
<text text-anchor="start" x="27.31" y="-104" font-family="Helvetica,sans-Serif" font-size="10.00">IIReadInterface</text>
<text text-anchor="start" x="20.33" y="-90" font-family="Helvetica,sans-Serif" font-size="10.00">&#45;</text>
<text text-anchor="start" x="28.5" y="-90" font-family="Helvetica,sans-Serif" font-size="10.00">m_readFunc</text>
<text text-anchor="start" x="20.33" y="-76" font-family="Helvetica,sans-Serif" font-size="10.00">&#45;</text>
<text text-anchor="start" x="28.5" y="-76" font-family="Helvetica,sans-Serif" font-size="10.00">m_length</text>
<text text-anchor="start" x="19.08" y="-62" font-family="Helvetica,sans-Serif" font-size="10.00">+</text>
<text text-anchor="start" x="28.5" y="-62" font-family="Helvetica,sans-Serif" font-size="10.00">IIReadInterface()</text>
<text text-anchor="start" x="19.08" y="-48" font-family="Helvetica,sans-Serif" font-size="10.00">+</text>
<text text-anchor="start" x="28.5" y="-48" font-family="Helvetica,sans-Serif" font-size="10.00">IIReadInterface()</text>
<text text-anchor="start" x="19.08" y="-34" font-family="Helvetica,sans-Serif" font-size="10.00">+</text>
<text text-anchor="start" x="28.5" y="-34" font-family="Helvetica,sans-Serif" font-size="10.00">readBuffer()</text>
<text text-anchor="start" x="19.08" y="-20" font-family="Helvetica,sans-Serif" font-size="10.00">+</text>
<text text-anchor="start" x="28.5" y="-20" font-family="Helvetica,sans-Serif" font-size="10.00">length()</text>
<text text-anchor="start" x="20.33" y="-6" font-family="Helvetica,sans-Serif" font-size="10.00">&#45;</text>
<text text-anchor="start" x="28.5" y="-6" font-family="Helvetica,sans-Serif" font-size="10.00">read()</text>
<polygon fill="#666666" stroke="#666666" points="15.5,-100 15.5,-100 107.5,-100 107.5,-100 15.5,-100"/>
<polygon fill="#666666" stroke="#666666" points="15.5,-72 15.5,-72 26.5,-72 26.5,-72 15.5,-72"/>
<polygon fill="#666666" stroke="#666666" points="26.5,-72 26.5,-72 107.5,-72 107.5,-72 26.5,-72"/>
<polygon fill="none" stroke="#666666" points="15.5,0 15.5,-116 107.5,-116 107.5,0 15.5,0"/>
</a>
</g>
</g>
<!-- Node2 -->
<g id="Node000002" class="node">
<title>Node2</title>
<g id="a_Node000002"><a xlink:href="class_i_i_buffer.html" target="_top" xlink:title=" ">
<polygon fill="white" stroke="transparent" points="102,-362 21,-362 21,-162 102,-162 102,-362"/>
<text text-anchor="start" x="45.97" y="-350" font-family="Helvetica,sans-Serif" font-size="10.00">IIBuffer</text>
<text text-anchor="start" x="26.33" y="-336" font-family="Helvetica,sans-Serif" font-size="10.00">&#45;</text>
<text text-anchor="start" x="34.5" y="-336" font-family="Helvetica,sans-Serif" font-size="10.00">m_size</text>
<text text-anchor="start" x="25.08" y="-322" font-family="Helvetica,sans-Serif" font-size="10.00">+</text>
<text text-anchor="start" x="34.5" y="-322" font-family="Helvetica,sans-Serif" font-size="10.00">IIBuffer()</text>
<text text-anchor="start" x="25.08" y="-308" font-family="Helvetica,sans-Serif" font-size="10.00">+</text>
<text text-anchor="start" x="34.5" y="-308" font-family="Helvetica,sans-Serif" font-size="10.00">IIBuffer()</text>
<text text-anchor="start" x="25.08" y="-294" font-family="Helvetica,sans-Serif" font-size="10.00">+</text>
<text text-anchor="start" x="34.5" y="-294" font-family="Helvetica,sans-Serif" font-size="10.00">alloc()</text>
<text text-anchor="start" x="25.08" y="-280" font-family="Helvetica,sans-Serif" font-size="10.00">+</text>
<text text-anchor="start" x="34.5" y="-280" font-family="Helvetica,sans-Serif" font-size="10.00">data()</text>
<text text-anchor="start" x="25.08" y="-266" font-family="Helvetica,sans-Serif" font-size="10.00">+</text>
<text text-anchor="start" x="34.5" y="-266" font-family="Helvetica,sans-Serif" font-size="10.00">data()</text>
<text text-anchor="start" x="25.08" y="-252" font-family="Helvetica,sans-Serif" font-size="10.00">+</text>
<text text-anchor="start" x="34.5" y="-252" font-family="Helvetica,sans-Serif" font-size="10.00">size()</text>
<text text-anchor="start" x="25.08" y="-238" font-family="Helvetica,sans-Serif" font-size="10.00">+</text>
<text text-anchor="start" x="34.5" y="-238" font-family="Helvetica,sans-Serif" font-size="10.00">operator[]()</text>
<text text-anchor="start" x="25.08" y="-224" font-family="Helvetica,sans-Serif" font-size="10.00">+</text>
<text text-anchor="start" x="34.5" y="-224" font-family="Helvetica,sans-Serif" font-size="10.00">operator[]()</text>
<text text-anchor="start" x="25.08" y="-210" font-family="Helvetica,sans-Serif" font-size="10.00">+</text>
<text text-anchor="start" x="34.5" y="-210" font-family="Helvetica,sans-Serif" font-size="10.00">readU8()</text>
<text text-anchor="start" x="25.08" y="-196" font-family="Helvetica,sans-Serif" font-size="10.00">+</text>
<text text-anchor="start" x="34.5" y="-196" font-family="Helvetica,sans-Serif" font-size="10.00">readS8()</text>
<text text-anchor="start" x="34.26" y="-182" font-family="Helvetica,sans-Serif" font-size="10.00">and 17 more...</text>
<text text-anchor="start" x="26.33" y="-168" font-family="Helvetica,sans-Serif" font-size="10.00">&#45;</text>
<text text-anchor="start" x="34.5" y="-168" font-family="Helvetica,sans-Serif" font-size="10.00">swapE()</text>
<polygon fill="#666666" stroke="#666666" points="21.5,-346 21.5,-346 102.5,-346 102.5,-346 21.5,-346"/>
<polygon fill="#666666" stroke="#666666" points="21.5,-332 21.5,-332 32.5,-332 32.5,-332 21.5,-332"/>
<polygon fill="#666666" stroke="#666666" points="32.5,-332 32.5,-332 102.5,-332 102.5,-332 32.5,-332"/>
<polygon fill="none" stroke="#666666" points="21,-162 21,-362 102,-362 102,-162 21,-162"/>
</a>
</g>
</g>
<!-- Node2&#45;&gt;Node1 -->
<g id="edge1_Node000001_Node000002" class="edge">
<title>Node2&#45;&gt;Node1</title>
<g id="a_edge1_Node000001_Node000002"><a xlink:title=" ">
<path fill="none" stroke="#63b8ff" d="M61.5,-161.78C61.5,-150.39 61.5,-138.98 61.5,-128.12"/>
<polygon fill="none" stroke="#63b8ff" points="61.5,-128.12 57.5,-122.12 61.5,-116.12 65.5,-122.12 61.5,-128.12"/>
</a>
</g>
<text text-anchor="middle" x="101.52" y="-136" font-family="Helvetica,sans-Serif" font-size="10.00" fill="grey"> &#45;m_headerCache</text>
</g>
<!-- Node3 -->
<g id="Node000003" class="node">
<title>Node3</title>
<g id="a_Node000003"><a xlink:title=" ">
<polygon fill="white" stroke="transparent" points="123,-454 0,-454 0,-408 123,-408 123,-454"/>
<text text-anchor="start" x="5.02" y="-442" font-family="Helvetica,sans-Serif" font-size="10.00">std::shared_ptr&lt; uint8_t &gt;</text>
<text text-anchor="start" x="17.08" y="-428" font-family="Helvetica,sans-Serif" font-size="10.00">+</text>
<text text-anchor="start" x="39.5" y="-428" font-family="Helvetica,sans-Serif" font-size="10.00">ptr</text>
<text text-anchor="start" x="17.08" y="-414" font-family="Helvetica,sans-Serif" font-size="10.00">+</text>
<text text-anchor="start" x="39.5" y="-414" font-family="Helvetica,sans-Serif" font-size="10.00">operator&#45;&gt;()</text>
<polygon fill="#666666" stroke="#666666" points="0.5,-438 0.5,-438 123.5,-438 123.5,-438 0.5,-438"/>
<polygon fill="#666666" stroke="#666666" points="0.5,-424 0.5,-424 37.5,-424 37.5,-424 0.5,-424"/>
<polygon fill="#666666" stroke="#666666" points="37.5,-424 37.5,-424 123.5,-424 123.5,-424 37.5,-424"/>
<polygon fill="none" stroke="#666666" points="0,-408 0,-454 123,-454 123,-408 0,-408"/>
</a>
</g>
</g>
<!-- Node3&#45;&gt;Node2 -->
<g id="edge2_Node000002_Node000003" class="edge">
<title>Node3&#45;&gt;Node2</title>
<g id="a_edge2_Node000002_Node000003"><a xlink:title=" ">
<path fill="none" stroke="#63b8ff" d="M61.5,-407.82C61.5,-398.54 61.5,-387.01 61.5,-374.54"/>
<polygon fill="none" stroke="#63b8ff" points="61.5,-374.33 57.5,-368.33 61.5,-362.33 65.5,-368.33 61.5,-374.33"/>
</a>
</g>
<text text-anchor="middle" x="81.23" y="-382" font-family="Helvetica,sans-Serif" font-size="10.00" fill="grey"> &#45;m_data</text>
</g>
</g>
</svg>
