<?xml version="1.0" encoding="UTF-8" standalone="no"?>
<!DOCTYPE svg PUBLIC "-//W3C//DTD SVG 1.1//EN"
 "http://www.w3.org/Graphics/SVG/1.1/DTD/svg11.dtd">
<!-- Generated by graphviz version 2.48.0 (20210717.1556)
 -->
<!-- Title: epub::manifest_item Pages: 1 -->
<svg width="219pt" height="425pt"
 viewBox="0.00 0.00 219.19 425.00" xmlns="http://www.w3.org/2000/svg" xmlns:xlink="http://www.w3.org/1999/xlink">
<g id="graph0" class="graph" transform="scale(1 1) rotate(0) translate(4 421)">
<title>epub::manifest_item</title>
<!-- Node1 -->
<g id="Node000001" class="node">
<title>Node1</title>
<g id="a_Node000001"><a xlink:title="An asset of the EPUB.">
<polygon fill="#999999" stroke="transparent" points="145,-116 45,-116 45,0 145,0 145,-116"/>
<text text-anchor="start" x="49.98" y="-104" font-family="Helvetica,sans-Serif" font-size="10.00">epub::manifest_item</text>
<text text-anchor="start" x="53.33" y="-90" font-family="Helvetica,sans-Serif" font-size="10.00">&#45;</text>
<text text-anchor="start" x="65" y="-90" font-family="Helvetica,sans-Serif" font-size="10.00">_path</text>
<text text-anchor="start" x="52.08" y="-76" font-family="Helvetica,sans-Serif" font-size="10.00">+</text>
<text text-anchor="start" x="65" y="-76" font-family="Helvetica,sans-Serif" font-size="10.00">manifest_item()</text>
<text text-anchor="start" x="52.08" y="-62" font-family="Helvetica,sans-Serif" font-size="10.00">+</text>
<text text-anchor="start" x="65" y="-62" font-family="Helvetica,sans-Serif" font-size="10.00">id()</text>
<text text-anchor="start" x="52.08" y="-48" font-family="Helvetica,sans-Serif" font-size="10.00">+</text>
<text text-anchor="start" x="65" y="-48" font-family="Helvetica,sans-Serif" font-size="10.00">id()</text>
<text text-anchor="start" x="52.08" y="-34" font-family="Helvetica,sans-Serif" font-size="10.00">+</text>
<text text-anchor="start" x="65" y="-34" font-family="Helvetica,sans-Serif" font-size="10.00">path()</text>
<text text-anchor="start" x="52.08" y="-20" font-family="Helvetica,sans-Serif" font-size="10.00">+</text>
<text text-anchor="start" x="65" y="-20" font-family="Helvetica,sans-Serif" font-size="10.00">properties()</text>
<text text-anchor="start" x="52.08" y="-6" font-family="Helvetica,sans-Serif" font-size="10.00">+</text>
<text text-anchor="start" x="65" y="-6" font-family="Helvetica,sans-Serif" font-size="10.00">metadata()</text>
<polygon fill="#666666" stroke="#666666" points="45,-100 45,-100 145,-100 145,-100 45,-100"/>
<polygon fill="#666666" stroke="#666666" points="45,-86 45,-86 63,-86 63,-86 45,-86"/>
<polygon fill="#666666" stroke="#666666" points="63,-86 63,-86 145,-86 145,-86 63,-86"/>
<polygon fill="none" stroke="#666666" points="45,0 45,-116 145,-116 145,0 45,0"/>
</a>
</g>
</g>
<!-- Node2 -->
<g id="Node000002" class="node">
<title>Node2</title>
<g id="a_Node000002"><a xlink:title=" ">
<polygon fill="white" stroke="transparent" points="78,-225 14,-225 14,-179 78,-179 78,-225"/>
<text text-anchor="start" x="18.76" y="-213" font-family="Helvetica,sans-Serif" font-size="10.00">std::u8string</text>
<text text-anchor="start" x="44.61" y="-199" font-family="Helvetica,sans-Serif" font-size="10.00"> </text>
<text text-anchor="start" x="44.61" y="-185" font-family="Helvetica,sans-Serif" font-size="10.00"> </text>
<polygon fill="#666666" stroke="#666666" points="14,-209 14,-209 78,-209 78,-209 14,-209"/>
<polygon fill="#666666" stroke="#666666" points="14,-195 14,-195 78,-195 78,-195 14,-195"/>
<polygon fill="none" stroke="#666666" points="14,-179 14,-225 78,-225 78,-179 14,-179"/>
</a>
</g>
</g>
<!-- Node2&#45;&gt;Node1 -->
<g id="edge1_Node000001_Node000002" class="edge">
<title>Node2&#45;&gt;Node1</title>
<g id="a_edge1_Node000001_Node000002"><a xlink:title=" ">
<path fill="none" stroke="#63b8ff" d="M51.04,-178.74C54.22,-165.59 58.66,-148.7 63.64,-134 64.39,-131.79 65.17,-129.56 65.98,-127.31"/>
<polygon fill="none" stroke="#63b8ff" points="66,-127.25 64.35,-120.23 70.2,-116.01 71.85,-123.04 66,-127.25"/>
</a>
</g>
<text text-anchor="middle" x="90.68" y="-146" font-family="Helvetica,sans-Serif" font-size="10.00" fill="grey"> &#45;_id</text>
<text text-anchor="middle" x="90.68" y="-136" font-family="Helvetica,sans-Serif" font-size="10.00" fill="grey">&#45;_properties</text>
</g>
<!-- Node3 -->
<g id="Node000003" class="node">
<title>Node3</title>
<g id="a_Node000003"><a xlink:title=" ">
<polygon fill="white" stroke="transparent" points="88,-325 0,-325 0,-269 88,-269 88,-325"/>
<text text-anchor="start" x="4.95" y="-313" font-family="Helvetica,sans-Serif" font-size="10.00">std::basic_string&lt;</text>
<text text-anchor="start" x="27.46" y="-303" font-family="Helvetica,sans-Serif" font-size="10.00"> Char &gt;</text>
<text text-anchor="start" x="42.61" y="-289" font-family="Helvetica,sans-Serif" font-size="10.00"> </text>
<text text-anchor="start" x="42.61" y="-275" font-family="Helvetica,sans-Serif" font-size="10.00"> </text>
<polygon fill="#666666" stroke="#666666" points="0,-299 0,-299 88,-299 88,-299 0,-299"/>
<polygon fill="#666666" stroke="#666666" points="0,-285 0,-285 88,-285 88,-285 0,-285"/>
<polygon fill="none" stroke="#666666" points="0,-269 0,-325 88,-325 88,-269 0,-269"/>
</a>
</g>
</g>
<!-- Node3&#45;&gt;Node2 -->
<g id="edge2_Node000002_Node000003" class="edge">
<title>Node3&#45;&gt;Node2</title>
<g id="a_edge2_Node000002_Node000003"><a xlink:title=" ">
<path fill="none" stroke="#63b8ff" d="M44.81,-258.51C45.05,-247.21 45.31,-235.18 45.52,-225.21"/>
<polygon fill="none" stroke="#63b8ff" points="41.31,-258.53 44.59,-268.6 48.3,-258.68 41.31,-258.53"/>
</a>
</g>
</g>
<!-- Node4 -->
<g id="Node000004" class="node">
<title>Node4</title>
<g id="a_Node000004"><a xlink:href="structepub_1_1file__metadata.html" target="_top" xlink:title="A class for managing metadata key&#45;value pairs.">
<polygon fill="white" stroke="transparent" points="194.5,-232 97.5,-232 97.5,-172 194.5,-172 194.5,-232"/>
<text text-anchor="start" x="102.58" y="-220" font-family="Helvetica,sans-Serif" font-size="10.00">epub::file_metadata</text>
<text text-anchor="start" x="145.11" y="-206" font-family="Helvetica,sans-Serif" font-size="10.00"> </text>
<text text-anchor="start" x="116.58" y="-192" font-family="Helvetica,sans-Serif" font-size="10.00">+</text>
<text text-anchor="start" x="141" y="-192" font-family="Helvetica,sans-Serif" font-size="10.00">get()</text>
<text text-anchor="start" x="116.58" y="-178" font-family="Helvetica,sans-Serif" font-size="10.00">+</text>
<text text-anchor="start" x="141" y="-178" font-family="Helvetica,sans-Serif" font-size="10.00">get()</text>
<polygon fill="#666666" stroke="#666666" points="98,-216 98,-216 195,-216 195,-216 98,-216"/>
<polygon fill="#666666" stroke="#666666" points="98,-202 98,-202 195,-202 195,-202 98,-202"/>
<polygon fill="none" stroke="#666666" points="97.5,-172 97.5,-232 194.5,-232 194.5,-172 97.5,-172"/>
</a>
</g>
</g>
<!-- Node4&#45;&gt;Node1 -->
<g id="edge3_Node000001_Node000004" class="edge">
<title>Node4&#45;&gt;Node1</title>
<g id="a_edge3_Node000001_Node000004"><a xlink:title=" ">
<path fill="none" stroke="#63b8ff" d="M135.56,-171.92C130.91,-158.99 125.23,-143.18 119.61,-127.52"/>
<polygon fill="none" stroke="#63b8ff" points="119.6,-127.49 113.8,-123.19 115.54,-116.19 121.33,-120.49 119.6,-127.49"/>
</a>
</g>
<text text-anchor="middle" x="155.68" y="-141" font-family="Helvetica,sans-Serif" font-size="10.00" fill="grey"> &#45;_metadata</text>
</g>
<!-- Node5 -->
<g id="Node000005" class="node">
<title>Node5</title>
<g id="a_Node000005"><a xlink:title=" ">
<polygon fill="white" stroke="transparent" points="189.5,-320 106.5,-320 106.5,-274 189.5,-274 189.5,-320"/>
<text text-anchor="start" x="111.72" y="-308" font-family="Helvetica,sans-Serif" font-size="10.00">std::map&lt; K, T &gt;</text>
<text text-anchor="start" x="147.11" y="-294" font-family="Helvetica,sans-Serif" font-size="10.00"> </text>
<text text-anchor="start" x="147.11" y="-280" font-family="Helvetica,sans-Serif" font-size="10.00"> </text>
<polygon fill="#666666" stroke="#666666" points="107,-304 107,-304 190,-304 190,-304 107,-304"/>
<polygon fill="#666666" stroke="#666666" points="107,-290 107,-290 190,-290 190,-290 107,-290"/>
<polygon fill="none" stroke="#666666" points="106.5,-274 106.5,-320 189.5,-320 189.5,-274 106.5,-274"/>
</a>
</g>
</g>
<!-- Node5&#45;&gt;Node4 -->
<g id="edge4_Node000004_Node000005" class="edge">
<title>Node5&#45;&gt;Node4</title>
<g id="a_edge4_Node000004_Node000005"><a xlink:title=" ">
<path fill="none" stroke="#63b8ff" d="M147.31,-263.76C147.09,-253.53 146.84,-242.28 146.63,-232.27"/>
<polygon fill="none" stroke="#63b8ff" points="143.81,-264.04 147.53,-273.96 150.81,-263.89 143.81,-264.04"/>
</a>
</g>
</g>
<!-- Node6 -->
<g id="Node000006" class="node">
<title>Node6</title>
<g id="a_Node000006"><a xlink:title=" ">
<polygon fill="white" stroke="transparent" points="130,-417 114,-417 114,-371 130,-371 130,-417"/>
<text text-anchor="start" x="118.67" y="-405" font-family="Helvetica,sans-Serif" font-size="10.00">K</text>
<text text-anchor="start" x="120.61" y="-391" font-family="Helvetica,sans-Serif" font-size="10.00"> </text>
<text text-anchor="start" x="120.61" y="-377" font-family="Helvetica,sans-Serif" font-size="10.00"> </text>
<polygon fill="#666666" stroke="#666666" points="114,-401 114,-401 130,-401 130,-401 114,-401"/>
<polygon fill="#666666" stroke="#666666" points="114,-387 114,-387 130,-387 130,-387 114,-387"/>
<polygon fill="none" stroke="#666666" points="114,-371 114,-417 130,-417 130,-371 114,-371"/>
</a>
</g>
</g>
<!-- Node6&#45;&gt;Node5 -->
<g id="edge5_Node000005_Node000006" class="edge">
<title>Node6&#45;&gt;Node5</title>
<g id="a_edge5_Node000005_Node000006"><a xlink:title=" ">
<path fill="none" stroke="#63b8ff" d="M120.05,-370.77C119.87,-361.99 120.43,-351.89 122.82,-343 123.87,-339.11 125.33,-335.2 127.02,-331.39"/>
<polygon fill="none" stroke="#63b8ff" points="127.16,-331.1 126.32,-323.94 132.61,-320.41 133.45,-327.57 127.16,-331.1"/>
</a>
</g>
<text text-anchor="middle" x="137.59" y="-345" font-family="Helvetica,sans-Serif" font-size="10.00" fill="grey"> +keys</text>
</g>
<!-- Node7 -->
<g id="Node000007" class="node">
<title>Node7</title>
<g id="a_Node000007"><a xlink:title=" ">
<polygon fill="white" stroke="transparent" points="182,-417 166,-417 166,-371 182,-371 182,-417"/>
<text text-anchor="start" x="170.95" y="-405" font-family="Helvetica,sans-Serif" font-size="10.00">T</text>
<text text-anchor="start" x="172.61" y="-391" font-family="Helvetica,sans-Serif" font-size="10.00"> </text>
<text text-anchor="start" x="172.61" y="-377" font-family="Helvetica,sans-Serif" font-size="10.00"> </text>
<polygon fill="#666666" stroke="#666666" points="166,-401 166,-401 182,-401 182,-401 166,-401"/>
<polygon fill="#666666" stroke="#666666" points="166,-387 166,-387 182,-387 182,-387 166,-387"/>
<polygon fill="none" stroke="#666666" points="166,-371 166,-417 182,-417 182,-371 166,-371"/>
</a>
</g>
</g>
<!-- Node7&#45;&gt;Node5 -->
<g id="edge6_Node000005_Node000007" class="edge">
<title>Node7&#45;&gt;Node5</title>
<g id="a_edge6_Node000005_Node000007"><a xlink:title=" ">
<path fill="none" stroke="#63b8ff" d="M167.97,-370.97C164.81,-359.42 160.87,-345.02 157.33,-332.07"/>
<polygon fill="none" stroke="#63b8ff" points="157.26,-331.82 151.81,-327.09 154.09,-320.24 159.53,-324.97 157.26,-331.82"/>
</a>
</g>
<text text-anchor="middle" x="186.6" y="-345" font-family="Helvetica,sans-Serif" font-size="10.00" fill="grey"> +elements</text>
</g>
</g>
</svg>
