<?xml version="1.0" encoding="UTF-8" standalone="no"?>
<!DOCTYPE svg PUBLIC "-//W3C//DTD SVG 1.1//EN"
 "http://www.w3.org/Graphics/SVG/1.1/DTD/svg11.dtd">
<!-- Generated by graphviz version 2.48.0 (20210717.1556)
 -->
<!-- Title: epub::package Pages: 1 -->
<svg width="483pt" height="1173pt"
 viewBox="0.00 0.00 482.78 1173.00" xmlns="http://www.w3.org/2000/svg" xmlns:xlink="http://www.w3.org/1999/xlink">
<g id="graph0" class="graph" transform="scale(1 1) rotate(0) translate(4 1169)">
<title>epub::package</title>
<!-- Node1 -->
<g id="Node000001" class="node">
<title>Node1</title>
<g id="a_Node000001"><a xlink:title=" ">
<polygon fill="#999999" stroke="transparent" points="342.28,-130 267.28,-130 267.28,0 342.28,0 342.28,-130"/>
<text text-anchor="start" x="272.48" y="-118" font-family="Helvetica,sans-Serif" font-size="10.00">epub::package</text>
<text text-anchor="start" x="303.9" y="-104" font-family="Helvetica,sans-Serif" font-size="10.00"> </text>
<text text-anchor="start" x="273.86" y="-90" font-family="Helvetica,sans-Serif" font-size="10.00">+</text>
<text text-anchor="start" x="285.78" y="-90" font-family="Helvetica,sans-Serif" font-size="10.00">metadata()</text>
<text text-anchor="start" x="273.86" y="-76" font-family="Helvetica,sans-Serif" font-size="10.00">+</text>
<text text-anchor="start" x="285.78" y="-76" font-family="Helvetica,sans-Serif" font-size="10.00">metadata()</text>
<text text-anchor="start" x="273.86" y="-62" font-family="Helvetica,sans-Serif" font-size="10.00">+</text>
<text text-anchor="start" x="285.78" y="-62" font-family="Helvetica,sans-Serif" font-size="10.00">manifest()</text>
<text text-anchor="start" x="273.86" y="-48" font-family="Helvetica,sans-Serif" font-size="10.00">+</text>
<text text-anchor="start" x="285.78" y="-48" font-family="Helvetica,sans-Serif" font-size="10.00">manifest()</text>
<text text-anchor="start" x="273.86" y="-34" font-family="Helvetica,sans-Serif" font-size="10.00">+</text>
<text text-anchor="start" x="285.78" y="-34" font-family="Helvetica,sans-Serif" font-size="10.00">spine()</text>
<text text-anchor="start" x="273.86" y="-20" font-family="Helvetica,sans-Serif" font-size="10.00">+</text>
<text text-anchor="start" x="285.78" y="-20" font-family="Helvetica,sans-Serif" font-size="10.00">spine()</text>
<text text-anchor="start" x="273.86" y="-6" font-family="Helvetica,sans-Serif" font-size="10.00">+</text>
<text text-anchor="start" x="285.78" y="-6" font-family="Helvetica,sans-Serif" font-size="10.00">write()</text>
<polygon fill="#666666" stroke="#666666" points="267.78,-114 267.78,-114 342.78,-114 342.78,-114 267.78,-114"/>
<polygon fill="#666666" stroke="#666666" points="267.78,-100 267.78,-100 342.78,-100 342.78,-100 267.78,-100"/>
<polygon fill="none" stroke="#666666" points="267.28,0 267.28,-130 342.28,-130 342.28,0 267.28,0"/>
</a>
</g>
</g>
<!-- Node2 -->
<g id="Node000002" class="node">
<title>Node2</title>
<g id="a_Node000002"><a xlink:href="classepub_1_1metadata.html" target="_top" xlink:title="The metadata component of the package document.">
<polygon fill="white" stroke="transparent" points="170.28,-572 83.28,-572 83.28,-176 170.28,-176 170.28,-572"/>
<text text-anchor="start" x="92.54" y="-560" font-family="Helvetica,sans-Serif" font-size="10.00">epub::metadata</text>
<text text-anchor="start" x="88.62" y="-546" font-family="Helvetica,sans-Serif" font-size="10.00">&#45;</text>
<text text-anchor="start" x="96.78" y="-546" font-family="Helvetica,sans-Serif" font-size="10.00">_pre_paginated</text>
<text text-anchor="start" x="87.36" y="-532" font-family="Helvetica,sans-Serif" font-size="10.00">+</text>
<text text-anchor="start" x="96.78" y="-532" font-family="Helvetica,sans-Serif" font-size="10.00">metadata()</text>
<text text-anchor="start" x="87.36" y="-518" font-family="Helvetica,sans-Serif" font-size="10.00">+</text>
<text text-anchor="start" x="96.78" y="-518" font-family="Helvetica,sans-Serif" font-size="10.00">pre_paginated()</text>
<text text-anchor="start" x="87.36" y="-504" font-family="Helvetica,sans-Serif" font-size="10.00">+</text>
<text text-anchor="start" x="96.78" y="-504" font-family="Helvetica,sans-Serif" font-size="10.00">reflow()</text>
<text text-anchor="start" x="87.36" y="-490" font-family="Helvetica,sans-Serif" font-size="10.00">+</text>
<text text-anchor="start" x="96.78" y="-490" font-family="Helvetica,sans-Serif" font-size="10.00">layout()</text>
<text text-anchor="start" x="87.36" y="-476" font-family="Helvetica,sans-Serif" font-size="10.00">+</text>
<text text-anchor="start" x="96.78" y="-476" font-family="Helvetica,sans-Serif" font-size="10.00">identifier()</text>
<text text-anchor="start" x="87.36" y="-462" font-family="Helvetica,sans-Serif" font-size="10.00">+</text>
<text text-anchor="start" x="96.78" y="-462" font-family="Helvetica,sans-Serif" font-size="10.00">identifier()</text>
<text text-anchor="start" x="87.36" y="-448" font-family="Helvetica,sans-Serif" font-size="10.00">+</text>
<text text-anchor="start" x="96.78" y="-448" font-family="Helvetica,sans-Serif" font-size="10.00">title()</text>
<text text-anchor="start" x="87.36" y="-434" font-family="Helvetica,sans-Serif" font-size="10.00">+</text>
<text text-anchor="start" x="96.78" y="-434" font-family="Helvetica,sans-Serif" font-size="10.00">title()</text>
<text text-anchor="start" x="87.36" y="-420" font-family="Helvetica,sans-Serif" font-size="10.00">+</text>
<text text-anchor="start" x="96.78" y="-420" font-family="Helvetica,sans-Serif" font-size="10.00">language()</text>
<text text-anchor="start" x="87.36" y="-406" font-family="Helvetica,sans-Serif" font-size="10.00">+</text>
<text text-anchor="start" x="96.78" y="-406" font-family="Helvetica,sans-Serif" font-size="10.00">description()</text>
<text text-anchor="start" x="87.36" y="-392" font-family="Helvetica,sans-Serif" font-size="10.00">+</text>
<text text-anchor="start" x="96.78" y="-392" font-family="Helvetica,sans-Serif" font-size="10.00">description()</text>
<text text-anchor="start" x="87.36" y="-378" font-family="Helvetica,sans-Serif" font-size="10.00">+</text>
<text text-anchor="start" x="96.78" y="-378" font-family="Helvetica,sans-Serif" font-size="10.00">creators()</text>
<text text-anchor="start" x="87.36" y="-364" font-family="Helvetica,sans-Serif" font-size="10.00">+</text>
<text text-anchor="start" x="96.78" y="-364" font-family="Helvetica,sans-Serif" font-size="10.00">creators()</text>
<text text-anchor="start" x="87.36" y="-350" font-family="Helvetica,sans-Serif" font-size="10.00">+</text>
<text text-anchor="start" x="96.78" y="-350" font-family="Helvetica,sans-Serif" font-size="10.00">collections()</text>
<text text-anchor="start" x="87.36" y="-336" font-family="Helvetica,sans-Serif" font-size="10.00">+</text>
<text text-anchor="start" x="96.78" y="-336" font-family="Helvetica,sans-Serif" font-size="10.00">collections()</text>
<text text-anchor="start" x="88.34" y="-322" font-family="Helvetica,sans-Serif" font-size="10.00">*</text>
<text text-anchor="start" x="96.78" y="-322" font-family="Helvetica,sans-Serif" font-size="10.00">identifier()</text>
<text text-anchor="start" x="88.34" y="-308" font-family="Helvetica,sans-Serif" font-size="10.00">*</text>
<text text-anchor="start" x="96.78" y="-308" font-family="Helvetica,sans-Serif" font-size="10.00">identifier()</text>
<text text-anchor="start" x="88.34" y="-294" font-family="Helvetica,sans-Serif" font-size="10.00">*</text>
<text text-anchor="start" x="96.78" y="-294" font-family="Helvetica,sans-Serif" font-size="10.00">title()</text>
<text text-anchor="start" x="88.34" y="-280" font-family="Helvetica,sans-Serif" font-size="10.00">*</text>
<text text-anchor="start" x="96.78" y="-280" font-family="Helvetica,sans-Serif" font-size="10.00">title()</text>
<text text-anchor="start" x="88.34" y="-266" font-family="Helvetica,sans-Serif" font-size="10.00">*</text>
<text text-anchor="start" x="96.78" y="-266" font-family="Helvetica,sans-Serif" font-size="10.00">language()</text>
<text text-anchor="start" x="88.34" y="-252" font-family="Helvetica,sans-Serif" font-size="10.00">*</text>
<text text-anchor="start" x="96.78" y="-252" font-family="Helvetica,sans-Serif" font-size="10.00">description()</text>
<text text-anchor="start" x="88.34" y="-238" font-family="Helvetica,sans-Serif" font-size="10.00">*</text>
<text text-anchor="start" x="96.78" y="-238" font-family="Helvetica,sans-Serif" font-size="10.00">description()</text>
<text text-anchor="start" x="88.34" y="-224" font-family="Helvetica,sans-Serif" font-size="10.00">*</text>
<text text-anchor="start" x="96.78" y="-224" font-family="Helvetica,sans-Serif" font-size="10.00">creators()</text>
<text text-anchor="start" x="88.34" y="-210" font-family="Helvetica,sans-Serif" font-size="10.00">*</text>
<text text-anchor="start" x="96.78" y="-210" font-family="Helvetica,sans-Serif" font-size="10.00">creators()</text>
<text text-anchor="start" x="88.34" y="-196" font-family="Helvetica,sans-Serif" font-size="10.00">*</text>
<text text-anchor="start" x="96.78" y="-196" font-family="Helvetica,sans-Serif" font-size="10.00">collections()</text>
<text text-anchor="start" x="88.34" y="-182" font-family="Helvetica,sans-Serif" font-size="10.00">*</text>
<text text-anchor="start" x="96.78" y="-182" font-family="Helvetica,sans-Serif" font-size="10.00">collections()</text>
<polygon fill="#666666" stroke="#666666" points="83.78,-556 83.78,-556 170.78,-556 170.78,-556 83.78,-556"/>
<polygon fill="#666666" stroke="#666666" points="83.78,-542 83.78,-542 94.78,-542 94.78,-542 83.78,-542"/>
<polygon fill="#666666" stroke="#666666" points="94.78,-542 94.78,-542 170.78,-542 170.78,-542 94.78,-542"/>
<polygon fill="none" stroke="#666666" points="83.28,-176 83.28,-572 170.28,-572 170.28,-176 83.28,-176"/>
</a>
</g>
</g>
<!-- Node2&#45;&gt;Node1 -->
<g id="edge1_Node000001_Node000002" class="edge">
<title>Node2&#45;&gt;Node1</title>
<g id="a_edge1_Node000001_Node000002"><a xlink:title=" ">
<path fill="none" stroke="#63b8ff" d="M170.41,-285.91C192.37,-243.62 220.08,-192.46 247.42,-148 251.42,-141.49 255.74,-134.8 260.15,-128.18"/>
<polygon fill="none" stroke="#63b8ff" points="260.4,-127.82 260.45,-120.6 267.12,-117.88 267.07,-125.09 260.4,-127.82"/>
</a>
</g>
<text text-anchor="middle" x="274.47" y="-150" font-family="Helvetica,sans-Serif" font-size="10.00" fill="grey"> &#45;_metadata</text>
</g>
<!-- Node3 -->
<g id="Node000003" class="node">
<title>Node3</title>
<g id="a_Node000003"><a xlink:title=" ">
<polygon fill="white" stroke="transparent" points="117.78,-1072 53.78,-1072 53.78,-1026 117.78,-1026 117.78,-1072"/>
<text text-anchor="start" x="58.55" y="-1060" font-family="Helvetica,sans-Serif" font-size="10.00">std::u8string</text>
<text text-anchor="start" x="84.4" y="-1046" font-family="Helvetica,sans-Serif" font-size="10.00"> </text>
<text text-anchor="start" x="84.4" y="-1032" font-family="Helvetica,sans-Serif" font-size="10.00"> </text>
<polygon fill="#666666" stroke="#666666" points="53.78,-1056 53.78,-1056 117.78,-1056 117.78,-1056 53.78,-1056"/>
<polygon fill="#666666" stroke="#666666" points="53.78,-1042 53.78,-1042 117.78,-1042 117.78,-1042 53.78,-1042"/>
<polygon fill="none" stroke="#666666" points="53.78,-1026 53.78,-1072 117.78,-1072 117.78,-1026 53.78,-1026"/>
</a>
</g>
</g>
<!-- Node3&#45;&gt;Node2 -->
<g id="edge2_Node000002_Node000003" class="edge">
<title>Node3&#45;&gt;Node2</title>
<g id="a_edge2_Node000002_Node000003"><a xlink:title=" ">
<path fill="none" stroke="#63b8ff" d="M66.06,-1025.97C52.42,-1009.2 35.41,-984.84 27.78,-960 -16.86,-814.66 -2.29,-765.2 35.78,-618 47,-574.65 63.23,-528.32 78.88,-487.87"/>
<polygon fill="none" stroke="#63b8ff" points="78.91,-487.8 77.37,-480.76 83.28,-476.63 84.82,-483.67 78.91,-487.8"/>
</a>
</g>
<text text-anchor="middle" x="46.8" y="-724" font-family="Helvetica,sans-Serif" font-size="10.00" fill="grey"> &#45;_description</text>
<text text-anchor="middle" x="46.8" y="-714" font-family="Helvetica,sans-Serif" font-size="10.00" fill="grey">&#45;_identifier</text>
<text text-anchor="middle" x="46.8" y="-704" font-family="Helvetica,sans-Serif" font-size="10.00" fill="grey">&#45;_language</text>
<text text-anchor="middle" x="46.8" y="-694" font-family="Helvetica,sans-Serif" font-size="10.00" fill="grey">&#45;_title</text>
</g>
<!-- Node6 -->
<g id="Node000006" class="node">
<title>Node6</title>
<g id="a_Node000006"><a xlink:href="classepub_1_1creator.html" target="_top" xlink:title="An individual or organizational creator.">
<polygon fill="white" stroke="transparent" points="134.28,-918 37.28,-918 37.28,-792 134.28,-792 134.28,-918"/>
<text text-anchor="start" x="56.82" y="-906" font-family="Helvetica,sans-Serif" font-size="10.00">epub::creator</text>
<text text-anchor="start" x="84.9" y="-892" font-family="Helvetica,sans-Serif" font-size="10.00"> </text>
<text text-anchor="start" x="41.36" y="-878" font-family="Helvetica,sans-Serif" font-size="10.00">+</text>
<text text-anchor="start" x="50.78" y="-878" font-family="Helvetica,sans-Serif" font-size="10.00">creator()</text>
<text text-anchor="start" x="41.36" y="-864" font-family="Helvetica,sans-Serif" font-size="10.00">+</text>
<text text-anchor="start" x="50.78" y="-864" font-family="Helvetica,sans-Serif" font-size="10.00">operator const std</text>
<text text-anchor="start" x="50.78" y="-854" font-family="Helvetica,sans-Serif" font-size="10.00">::u8string &amp;()</text>
<text text-anchor="start" x="41.36" y="-840" font-family="Helvetica,sans-Serif" font-size="10.00">+</text>
<text text-anchor="start" x="50.78" y="-840" font-family="Helvetica,sans-Serif" font-size="10.00">file_as()</text>
<text text-anchor="start" x="41.36" y="-826" font-family="Helvetica,sans-Serif" font-size="10.00">+</text>
<text text-anchor="start" x="50.78" y="-826" font-family="Helvetica,sans-Serif" font-size="10.00">file_as()</text>
<text text-anchor="start" x="41.36" y="-812" font-family="Helvetica,sans-Serif" font-size="10.00">+</text>
<text text-anchor="start" x="50.78" y="-812" font-family="Helvetica,sans-Serif" font-size="10.00">role()</text>
<text text-anchor="start" x="41.36" y="-798" font-family="Helvetica,sans-Serif" font-size="10.00">+</text>
<text text-anchor="start" x="50.78" y="-798" font-family="Helvetica,sans-Serif" font-size="10.00">role()</text>
<polygon fill="#666666" stroke="#666666" points="37.78,-902 37.78,-902 134.78,-902 134.78,-902 37.78,-902"/>
<polygon fill="#666666" stroke="#666666" points="37.78,-888 37.78,-888 134.78,-888 134.78,-888 37.78,-888"/>
<polygon fill="none" stroke="#666666" points="37.28,-792 37.28,-918 134.28,-918 134.28,-792 37.28,-792"/>
</a>
</g>
</g>
<!-- Node3&#45;&gt;Node6 -->
<g id="edge6_Node000006_Node000003" class="edge">
<title>Node3&#45;&gt;Node6</title>
<g id="a_edge6_Node000006_Node000003"><a xlink:title=" ">
<path fill="none" stroke="#63b8ff" d="M85.78,-1025.98C85.78,-1002.73 85.78,-964.79 85.78,-930.65"/>
<polygon fill="none" stroke="#63b8ff" points="85.78,-930.28 81.78,-924.28 85.78,-918.28 89.78,-924.28 85.78,-930.28"/>
</a>
</g>
<text text-anchor="middle" x="106.07" y="-1000" font-family="Helvetica,sans-Serif" font-size="10.00" fill="grey"> &#45;_file_as</text>
<text text-anchor="middle" x="106.07" y="-990" font-family="Helvetica,sans-Serif" font-size="10.00" fill="grey">&#45;_name</text>
<text text-anchor="middle" x="106.07" y="-980" font-family="Helvetica,sans-Serif" font-size="10.00" fill="grey">&#45;_role</text>
</g>
<!-- Node8 -->
<g id="Node000008" class="node">
<title>Node8</title>
<g id="a_Node000008"><a xlink:href="classepub_1_1collection.html" target="_top" xlink:title="An indication that the publication is part of a larger set.">
<polygon fill="white" stroke="transparent" points="249.28,-960 152.28,-960 152.28,-750 249.28,-750 249.28,-960"/>
<text text-anchor="start" x="166.54" y="-948" font-family="Helvetica,sans-Serif" font-size="10.00">epub::collection</text>
<text text-anchor="start" x="157.62" y="-934" font-family="Helvetica,sans-Serif" font-size="10.00">&#45;</text>
<text text-anchor="start" x="165.78" y="-934" font-family="Helvetica,sans-Serif" font-size="10.00">_type</text>
<text text-anchor="start" x="156.36" y="-920" font-family="Helvetica,sans-Serif" font-size="10.00">+</text>
<text text-anchor="start" x="165.78" y="-920" font-family="Helvetica,sans-Serif" font-size="10.00">collection()</text>
<text text-anchor="start" x="156.36" y="-906" font-family="Helvetica,sans-Serif" font-size="10.00">+</text>
<text text-anchor="start" x="165.78" y="-906" font-family="Helvetica,sans-Serif" font-size="10.00">collection()</text>
<text text-anchor="start" x="156.36" y="-892" font-family="Helvetica,sans-Serif" font-size="10.00">+</text>
<text text-anchor="start" x="165.78" y="-892" font-family="Helvetica,sans-Serif" font-size="10.00">collection()</text>
<text text-anchor="start" x="156.36" y="-878" font-family="Helvetica,sans-Serif" font-size="10.00">+</text>
<text text-anchor="start" x="165.78" y="-878" font-family="Helvetica,sans-Serif" font-size="10.00">~collection()</text>
<text text-anchor="start" x="156.36" y="-864" font-family="Helvetica,sans-Serif" font-size="10.00">+</text>
<text text-anchor="start" x="165.78" y="-864" font-family="Helvetica,sans-Serif" font-size="10.00">operator=()</text>
<text text-anchor="start" x="156.36" y="-850" font-family="Helvetica,sans-Serif" font-size="10.00">+</text>
<text text-anchor="start" x="165.78" y="-850" font-family="Helvetica,sans-Serif" font-size="10.00">operator=()</text>
<text text-anchor="start" x="156.36" y="-836" font-family="Helvetica,sans-Serif" font-size="10.00">+</text>
<text text-anchor="start" x="165.78" y="-836" font-family="Helvetica,sans-Serif" font-size="10.00">operator const std</text>
<text text-anchor="start" x="165.78" y="-826" font-family="Helvetica,sans-Serif" font-size="10.00">::u8string &amp;()</text>
<text text-anchor="start" x="156.36" y="-812" font-family="Helvetica,sans-Serif" font-size="10.00">+</text>
<text text-anchor="start" x="165.78" y="-812" font-family="Helvetica,sans-Serif" font-size="10.00">type()</text>
<text text-anchor="start" x="156.36" y="-798" font-family="Helvetica,sans-Serif" font-size="10.00">+</text>
<text text-anchor="start" x="165.78" y="-798" font-family="Helvetica,sans-Serif" font-size="10.00">type()</text>
<text text-anchor="start" x="156.36" y="-784" font-family="Helvetica,sans-Serif" font-size="10.00">+</text>
<text text-anchor="start" x="165.78" y="-784" font-family="Helvetica,sans-Serif" font-size="10.00">group_position()</text>
<text text-anchor="start" x="156.36" y="-770" font-family="Helvetica,sans-Serif" font-size="10.00">+</text>
<text text-anchor="start" x="165.78" y="-770" font-family="Helvetica,sans-Serif" font-size="10.00">group_position()</text>
<text text-anchor="start" x="156.36" y="-756" font-family="Helvetica,sans-Serif" font-size="10.00">+</text>
<text text-anchor="start" x="165.78" y="-756" font-family="Helvetica,sans-Serif" font-size="10.00">group_position()</text>
<polygon fill="#666666" stroke="#666666" points="152.78,-944 152.78,-944 249.78,-944 249.78,-944 152.78,-944"/>
<polygon fill="#666666" stroke="#666666" points="152.78,-930 152.78,-930 163.78,-930 163.78,-930 152.78,-930"/>
<polygon fill="#666666" stroke="#666666" points="163.78,-930 163.78,-930 249.78,-930 249.78,-930 163.78,-930"/>
<polygon fill="none" stroke="#666666" points="152.28,-750 152.28,-960 249.28,-960 249.28,-750 152.28,-750"/>
</a>
</g>
</g>
<!-- Node3&#45;&gt;Node8 -->
<g id="edge9_Node000008_Node000003" class="edge">
<title>Node3&#45;&gt;Node8</title>
<g id="a_edge9_Node000008_Node000003"><a xlink:title=" ">
<path fill="none" stroke="#63b8ff" d="M114.22,-1025.95C120.17,-1020.5 126.05,-1014.38 130.78,-1008 139.23,-996.6 147,-984.02 154.05,-971.13"/>
<polygon fill="none" stroke="#63b8ff" points="154.19,-970.85 153.46,-963.68 159.8,-960.24 160.53,-967.41 154.19,-970.85"/>
</a>
</g>
<text text-anchor="middle" x="187.42" y="-995" font-family="Helvetica,sans-Serif" font-size="10.00" fill="grey"> &#45;_group_position</text>
<text text-anchor="middle" x="187.42" y="-985" font-family="Helvetica,sans-Serif" font-size="10.00" fill="grey">&#45;_name</text>
</g>
<!-- Node4 -->
<g id="Node000004" class="node">
<title>Node4</title>
<g id="a_Node000004"><a xlink:title=" ">
<polygon fill="white" stroke="transparent" points="129.78,-1165 41.78,-1165 41.78,-1109 129.78,-1109 129.78,-1165"/>
<text text-anchor="start" x="46.74" y="-1153" font-family="Helvetica,sans-Serif" font-size="10.00">std::basic_string&lt;</text>
<text text-anchor="start" x="69.25" y="-1143" font-family="Helvetica,sans-Serif" font-size="10.00"> Char &gt;</text>
<text text-anchor="start" x="84.4" y="-1129" font-family="Helvetica,sans-Serif" font-size="10.00"> </text>
<text text-anchor="start" x="84.4" y="-1115" font-family="Helvetica,sans-Serif" font-size="10.00"> </text>
<polygon fill="#666666" stroke="#666666" points="41.78,-1139 41.78,-1139 129.78,-1139 129.78,-1139 41.78,-1139"/>
<polygon fill="#666666" stroke="#666666" points="41.78,-1125 41.78,-1125 129.78,-1125 129.78,-1125 41.78,-1125"/>
<polygon fill="none" stroke="#666666" points="41.78,-1109 41.78,-1165 129.78,-1165 129.78,-1109 41.78,-1109"/>
</a>
</g>
</g>
<!-- Node4&#45;&gt;Node3 -->
<g id="edge3_Node000003_Node000004" class="edge">
<title>Node4&#45;&gt;Node3</title>
<g id="a_edge3_Node000003_Node000004"><a xlink:title=" ">
<path fill="none" stroke="#63b8ff" d="M85.78,-1098.78C85.78,-1089.7 85.78,-1080.27 85.78,-1072.15"/>
<polygon fill="none" stroke="#63b8ff" points="82.28,-1098.79 85.78,-1108.79 89.28,-1098.79 82.28,-1098.79"/>
</a>
</g>
</g>
<!-- Node5 -->
<g id="Node000005" class="node">
<title>Node5</title>
<g id="a_Node000005"><a xlink:title=" ">
<polygon fill="white" stroke="transparent" points="136.78,-674 44.78,-674 44.78,-618 136.78,-618 136.78,-674"/>
<text text-anchor="start" x="49.51" y="-662" font-family="Helvetica,sans-Serif" font-size="10.00">std::vector&lt; epub::</text>
<text text-anchor="start" x="70.91" y="-652" font-family="Helvetica,sans-Serif" font-size="10.00">creator &gt;</text>
<text text-anchor="start" x="89.4" y="-638" font-family="Helvetica,sans-Serif" font-size="10.00"> </text>
<text text-anchor="start" x="89.4" y="-624" font-family="Helvetica,sans-Serif" font-size="10.00"> </text>
<polygon fill="#666666" stroke="#666666" points="44.78,-648 44.78,-648 136.78,-648 136.78,-648 44.78,-648"/>
<polygon fill="#666666" stroke="#666666" points="44.78,-634 44.78,-634 136.78,-634 136.78,-634 44.78,-634"/>
<polygon fill="none" stroke="#666666" points="44.78,-618 44.78,-674 136.78,-674 136.78,-618 44.78,-618"/>
</a>
</g>
</g>
<!-- Node5&#45;&gt;Node2 -->
<g id="edge4_Node000002_Node000005" class="edge">
<title>Node5&#45;&gt;Node2</title>
<g id="a_edge4_Node000002_Node000005"><a xlink:title=" ">
<path fill="none" stroke="#63b8ff" d="M94.4,-617.88C95.66,-608.4 97.2,-596.91 98.9,-584.12"/>
<polygon fill="none" stroke="#63b8ff" points="98.93,-583.94 95.75,-577.46 100.51,-572.05 103.68,-578.52 98.93,-583.94"/>
</a>
</g>
<text text-anchor="middle" x="121.68" y="-592" font-family="Helvetica,sans-Serif" font-size="10.00" fill="grey"> &#45;_creators</text>
</g>
<!-- Node6&#45;&gt;Node5 -->
<g id="edge5_Node000005_Node000006" class="edge">
<title>Node6&#45;&gt;Node5</title>
<g id="a_edge5_Node000005_Node000006"><a xlink:title=" ">
<path fill="none" stroke="#63b8ff" d="M87.28,-791.89C88.11,-757.66 89.11,-716.19 89.83,-686.41"/>
<polygon fill="none" stroke="#63b8ff" points="89.84,-686.01 85.99,-679.91 90.13,-674.01 93.99,-680.11 89.84,-686.01"/>
</a>
</g>
<text text-anchor="middle" x="114.38" y="-709" font-family="Helvetica,sans-Serif" font-size="10.00" fill="grey"> +elements</text>
</g>
<!-- Node7 -->
<g id="Node000007" class="node">
<title>Node7</title>
<g id="a_Node000007"><a xlink:title=" ">
<polygon fill="white" stroke="transparent" points="246.78,-674 154.78,-674 154.78,-618 246.78,-618 246.78,-674"/>
<text text-anchor="start" x="159.51" y="-662" font-family="Helvetica,sans-Serif" font-size="10.00">std::vector&lt; epub::</text>
<text text-anchor="start" x="175.63" y="-652" font-family="Helvetica,sans-Serif" font-size="10.00">collection &gt;</text>
<text text-anchor="start" x="199.4" y="-638" font-family="Helvetica,sans-Serif" font-size="10.00"> </text>
<text text-anchor="start" x="199.4" y="-624" font-family="Helvetica,sans-Serif" font-size="10.00"> </text>
<polygon fill="#666666" stroke="#666666" points="154.78,-648 154.78,-648 246.78,-648 246.78,-648 154.78,-648"/>
<polygon fill="#666666" stroke="#666666" points="154.78,-634 154.78,-634 246.78,-634 246.78,-634 154.78,-634"/>
<polygon fill="none" stroke="#666666" points="154.78,-618 154.78,-674 246.78,-674 246.78,-618 154.78,-618"/>
</a>
</g>
</g>
<!-- Node7&#45;&gt;Node2 -->
<g id="edge7_Node000002_Node000007" class="edge">
<title>Node7&#45;&gt;Node2</title>
<g id="a_edge7_Node000002_Node000007"><a xlink:title=" ">
<path fill="none" stroke="#63b8ff" d="M193.35,-617.88C188.32,-599.54 181.22,-573.61 173.5,-545.46"/>
<polygon fill="none" stroke="#63b8ff" points="173.46,-545.29 168.01,-540.56 170.28,-533.72 175.73,-538.45 173.46,-545.29"/>
</a>
</g>
<text text-anchor="middle" x="217.96" y="-592" font-family="Helvetica,sans-Serif" font-size="10.00" fill="grey"> &#45;_collections</text>
</g>
<!-- Node8&#45;&gt;Node7 -->
<g id="edge8_Node000007_Node000008" class="edge">
<title>Node8&#45;&gt;Node7</title>
<g id="a_edge8_Node000007_Node000008"><a xlink:title=" ">
<path fill="none" stroke="#63b8ff" d="M200.78,-749.89C200.78,-727.26 200.78,-704.67 200.78,-686.44"/>
<polygon fill="none" stroke="#63b8ff" points="200.78,-686.29 196.78,-680.29 200.78,-674.29 204.78,-680.29 200.78,-686.29"/>
</a>
</g>
<text text-anchor="middle" x="225.38" y="-709" font-family="Helvetica,sans-Serif" font-size="10.00" fill="grey"> +elements</text>
</g>
<!-- Node9 -->
<g id="Node000009" class="node">
<title>Node9</title>
<g id="a_Node000009"><a xlink:href="classepub_1_1manifest.html" target="_top" xlink:title="A listing of all the assets in a container.">
<polygon fill="white" stroke="transparent" points="342.28,-432 267.28,-432 267.28,-316 342.28,-316 342.28,-432"/>
<text text-anchor="start" x="272.49" y="-420" font-family="Helvetica,sans-Serif" font-size="10.00">epub::manifest</text>
<text text-anchor="start" x="303.9" y="-406" font-family="Helvetica,sans-Serif" font-size="10.00"> </text>
<text text-anchor="start" x="273.36" y="-392" font-family="Helvetica,sans-Serif" font-size="10.00">+</text>
<text text-anchor="start" x="284.78" y="-392" font-family="Helvetica,sans-Serif" font-size="10.00">manifest()</text>
<text text-anchor="start" x="273.36" y="-378" font-family="Helvetica,sans-Serif" font-size="10.00">+</text>
<text text-anchor="start" x="284.78" y="-378" font-family="Helvetica,sans-Serif" font-size="10.00">manifest()</text>
<text text-anchor="start" x="273.36" y="-364" font-family="Helvetica,sans-Serif" font-size="10.00">+</text>
<text text-anchor="start" x="284.78" y="-364" font-family="Helvetica,sans-Serif" font-size="10.00">manifest()</text>
<text text-anchor="start" x="273.36" y="-350" font-family="Helvetica,sans-Serif" font-size="10.00">+</text>
<text text-anchor="start" x="284.78" y="-350" font-family="Helvetica,sans-Serif" font-size="10.00">~manifest()</text>
<text text-anchor="start" x="273.36" y="-336" font-family="Helvetica,sans-Serif" font-size="10.00">+</text>
<text text-anchor="start" x="284.78" y="-336" font-family="Helvetica,sans-Serif" font-size="10.00">operator=()</text>
<text text-anchor="start" x="273.36" y="-322" font-family="Helvetica,sans-Serif" font-size="10.00">+</text>
<text text-anchor="start" x="284.78" y="-322" font-family="Helvetica,sans-Serif" font-size="10.00">operator=()</text>
<polygon fill="#666666" stroke="#666666" points="267.78,-416 267.78,-416 342.78,-416 342.78,-416 267.78,-416"/>
<polygon fill="#666666" stroke="#666666" points="267.78,-402 267.78,-402 342.78,-402 342.78,-402 267.78,-402"/>
<polygon fill="none" stroke="#666666" points="267.28,-316 267.28,-432 342.28,-432 342.28,-316 267.28,-316"/>
</a>
</g>
</g>
<!-- Node9&#45;&gt;Node1 -->
<g id="edge10_Node000001_Node000009" class="edge">
<title>Node9&#45;&gt;Node1</title>
<g id="a_edge10_Node000001_Node000009"><a xlink:title=" ">
<path fill="none" stroke="#63b8ff" d="M304.78,-315.98C304.78,-267.07 304.78,-196.19 304.78,-142.39"/>
<polygon fill="none" stroke="#63b8ff" points="304.78,-142.15 300.78,-136.15 304.78,-130.15 308.78,-136.15 304.78,-142.15"/>
</a>
</g>
<text text-anchor="middle" x="329.52" y="-150" font-family="Helvetica,sans-Serif" font-size="10.00" fill="grey"> &#45;_manifest</text>
</g>
<!-- Node10 -->
<g id="Node000010" class="node">
<title>Node10</title>
<g id="a_Node000010"><a xlink:title=" ">
<polygon fill="white" stroke="transparent" points="344.28,-669 265.28,-669 265.28,-623 344.28,-623 344.28,-669"/>
<text text-anchor="start" x="270.72" y="-657" font-family="Helvetica,sans-Serif" font-size="10.00">std::vector&lt; T &gt;</text>
<text text-anchor="start" x="303.9" y="-643" font-family="Helvetica,sans-Serif" font-size="10.00"> </text>
<text text-anchor="start" x="303.9" y="-629" font-family="Helvetica,sans-Serif" font-size="10.00"> </text>
<polygon fill="#666666" stroke="#666666" points="265.78,-653 265.78,-653 344.78,-653 344.78,-653 265.78,-653"/>
<polygon fill="#666666" stroke="#666666" points="265.78,-639 265.78,-639 344.78,-639 344.78,-639 265.78,-639"/>
<polygon fill="none" stroke="#666666" points="265.28,-623 265.28,-669 344.28,-669 344.28,-623 265.28,-623"/>
</a>
</g>
</g>
<!-- Node10&#45;&gt;Node9 -->
<g id="edge11_Node000009_Node000010" class="edge">
<title>Node10&#45;&gt;Node9</title>
<g id="a_edge11_Node000009_Node000010"><a xlink:title=" ">
<path fill="none" stroke="#8b1a1a" d="M304.78,-612.65C304.78,-568.04 304.78,-486.95 304.78,-432.03"/>
<polygon fill="none" stroke="#8b1a1a" points="301.28,-612.9 304.78,-622.9 308.28,-612.9 301.28,-612.9"/>
</a>
</g>
</g>
<!-- Node11 -->
<g id="Node000011" class="node">
<title>Node11</title>
<g id="a_Node000011"><a xlink:title=" ">
<polygon fill="white" stroke="transparent" points="312.78,-878 296.78,-878 296.78,-832 312.78,-832 312.78,-878"/>
<text text-anchor="start" x="301.73" y="-866" font-family="Helvetica,sans-Serif" font-size="10.00">T</text>
<text text-anchor="start" x="303.4" y="-852" font-family="Helvetica,sans-Serif" font-size="10.00"> </text>
<text text-anchor="start" x="303.4" y="-838" font-family="Helvetica,sans-Serif" font-size="10.00"> </text>
<polygon fill="#666666" stroke="#666666" points="296.78,-862 296.78,-862 312.78,-862 312.78,-862 296.78,-862"/>
<polygon fill="#666666" stroke="#666666" points="296.78,-848 296.78,-848 312.78,-848 312.78,-848 296.78,-848"/>
<polygon fill="none" stroke="#666666" points="296.78,-832 296.78,-878 312.78,-878 312.78,-832 296.78,-832"/>
</a>
</g>
</g>
<!-- Node11&#45;&gt;Node10 -->
<g id="edge12_Node000010_Node000011" class="edge">
<title>Node11&#45;&gt;Node10</title>
<g id="a_edge12_Node000010_Node000011"><a xlink:title=" ">
<path fill="none" stroke="#63b8ff" d="M304.78,-831.85C304.78,-795.84 304.78,-724.33 304.78,-681.58"/>
<polygon fill="none" stroke="#63b8ff" points="304.78,-681.31 300.78,-675.31 304.78,-669.31 308.78,-675.31 304.78,-681.31"/>
</a>
</g>
<text text-anchor="middle" x="329.38" y="-709" font-family="Helvetica,sans-Serif" font-size="10.00" fill="grey"> +elements</text>
</g>
<!-- Node12 -->
<g id="Node000012" class="node">
<title>Node12</title>
<g id="a_Node000012"><a xlink:href="classepub_1_1spine.html" target="_top" xlink:title=" ">
<polygon fill="white" stroke="transparent" points="438.78,-453 372.78,-453 372.78,-295 438.78,-295 438.78,-453"/>
<text text-anchor="start" x="379.93" y="-441" font-family="Helvetica,sans-Serif" font-size="10.00">epub::spine</text>
<text text-anchor="start" x="404.4" y="-427" font-family="Helvetica,sans-Serif" font-size="10.00"> </text>
<text text-anchor="start" x="376.36" y="-413" font-family="Helvetica,sans-Serif" font-size="10.00">+</text>
<text text-anchor="start" x="385.78" y="-413" font-family="Helvetica,sans-Serif" font-size="10.00">spine()</text>
<text text-anchor="start" x="376.36" y="-399" font-family="Helvetica,sans-Serif" font-size="10.00">+</text>
<text text-anchor="start" x="385.78" y="-399" font-family="Helvetica,sans-Serif" font-size="10.00">spine()</text>
<text text-anchor="start" x="376.36" y="-385" font-family="Helvetica,sans-Serif" font-size="10.00">+</text>
<text text-anchor="start" x="385.78" y="-385" font-family="Helvetica,sans-Serif" font-size="10.00">spine()</text>
<text text-anchor="start" x="376.36" y="-371" font-family="Helvetica,sans-Serif" font-size="10.00">+</text>
<text text-anchor="start" x="385.78" y="-371" font-family="Helvetica,sans-Serif" font-size="10.00">~spine()</text>
<text text-anchor="start" x="376.36" y="-357" font-family="Helvetica,sans-Serif" font-size="10.00">+</text>
<text text-anchor="start" x="385.78" y="-357" font-family="Helvetica,sans-Serif" font-size="10.00">operator=()</text>
<text text-anchor="start" x="376.36" y="-343" font-family="Helvetica,sans-Serif" font-size="10.00">+</text>
<text text-anchor="start" x="385.78" y="-343" font-family="Helvetica,sans-Serif" font-size="10.00">operator=()</text>
<text text-anchor="start" x="376.36" y="-329" font-family="Helvetica,sans-Serif" font-size="10.00">+</text>
<text text-anchor="start" x="385.78" y="-329" font-family="Helvetica,sans-Serif" font-size="10.00">add()</text>
<text text-anchor="start" x="376.36" y="-315" font-family="Helvetica,sans-Serif" font-size="10.00">+</text>
<text text-anchor="start" x="385.78" y="-315" font-family="Helvetica,sans-Serif" font-size="10.00">begin()</text>
<text text-anchor="start" x="376.36" y="-301" font-family="Helvetica,sans-Serif" font-size="10.00">+</text>
<text text-anchor="start" x="385.78" y="-301" font-family="Helvetica,sans-Serif" font-size="10.00">end()</text>
<polygon fill="#666666" stroke="#666666" points="372.78,-437 372.78,-437 438.78,-437 438.78,-437 372.78,-437"/>
<polygon fill="#666666" stroke="#666666" points="372.78,-423 372.78,-423 438.78,-423 438.78,-423 372.78,-423"/>
<polygon fill="none" stroke="#666666" points="372.78,-295 372.78,-453 438.78,-453 438.78,-295 372.78,-295"/>
</a>
</g>
</g>
<!-- Node12&#45;&gt;Node1 -->
<g id="edge13_Node000001_Node000012" class="edge">
<title>Node12&#45;&gt;Node1</title>
<g id="a_edge13_Node000001_Node000012"><a xlink:title=" ">
<path fill="none" stroke="#63b8ff" d="M396.26,-294.89C389.13,-250.62 377.16,-194.88 357.78,-148 355.13,-141.58 351.97,-135.11 348.52,-128.77"/>
<polygon fill="none" stroke="#63b8ff" points="348.47,-128.68 342.02,-125.46 342.51,-118.27 348.96,-121.49 348.47,-128.68"/>
</a>
</g>
<text text-anchor="middle" x="378.57" y="-150" font-family="Helvetica,sans-Serif" font-size="10.00" fill="grey"> &#45;_spine</text>
</g>
<!-- Node13 -->
<g id="Node000013" class="node">
<title>Node13</title>
<g id="a_Node000013"><a xlink:title=" ">
<polygon fill="white" stroke="transparent" points="474.78,-674 362.78,-674 362.78,-618 474.78,-618 474.78,-674"/>
<text text-anchor="start" x="367.51" y="-662" font-family="Helvetica,sans-Serif" font-size="10.00">std::vector&lt; weak_item</text>
<text text-anchor="start" x="405.86" y="-652" font-family="Helvetica,sans-Serif" font-size="10.00">_ptr &gt;</text>
<text text-anchor="start" x="379.86" y="-638" font-family="Helvetica,sans-Serif" font-size="10.00">+</text>
<text text-anchor="start" x="402.78" y="-638" font-family="Helvetica,sans-Serif" font-size="10.00">elements</text>
<text text-anchor="start" x="417.4" y="-624" font-family="Helvetica,sans-Serif" font-size="10.00"> </text>
<polygon fill="#666666" stroke="#666666" points="362.78,-648 362.78,-648 474.78,-648 474.78,-648 362.78,-648"/>
<polygon fill="#666666" stroke="#666666" points="362.78,-634 362.78,-634 400.78,-634 400.78,-634 362.78,-634"/>
<polygon fill="#666666" stroke="#666666" points="400.78,-634 400.78,-634 474.78,-634 474.78,-634 400.78,-634"/>
<polygon fill="none" stroke="#666666" points="362.78,-618 362.78,-674 474.78,-674 474.78,-618 362.78,-618"/>
</a>
</g>
</g>
<!-- Node13&#45;&gt;Node12 -->
<g id="edge14_Node000012_Node000013" class="edge">
<title>Node13&#45;&gt;Node12</title>
<g id="a_edge14_Node000012_Node000013"><a xlink:title=" ">
<path fill="none" stroke="#63b8ff" d="M417.48,-617.88C415.77,-582.46 412.7,-518.68 410.14,-465.37"/>
<polygon fill="none" stroke="#63b8ff" points="410.12,-465.11 405.84,-459.31 409.55,-453.12 413.83,-458.93 410.12,-465.11"/>
</a>
</g>
<text text-anchor="middle" x="433.56" y="-592" font-family="Helvetica,sans-Serif" font-size="10.00" fill="grey"> &#45;_items</text>
</g>
</g>
</svg>
