<?xml version="1.0" encoding="UTF-8" standalone="no"?>
<!DOCTYPE svg PUBLIC "-//W3C//DTD SVG 1.1//EN"
 "http://www.w3.org/Graphics/SVG/1.1/DTD/svg11.dtd">
<!-- Generated by graphviz version 2.48.0 (20210717.1556)
 -->
<!-- Title: IIRawDataReader Pages: 1 -->
<svg width="111pt" height="188pt"
 viewBox="0.00 0.00 111.00 188.00" xmlns="http://www.w3.org/2000/svg" xmlns:xlink="http://www.w3.org/1999/xlink">
<g id="graph0" class="graph" transform="scale(1 1) rotate(0) translate(4 184)">
<title>IIRawDataReader</title>
<!-- Node1 -->
<g id="Node000001" class="node">
<title>Node1</title>
<g id="a_Node000001"><a xlink:title=" ">
<polygon fill="#999999" stroke="transparent" points="103,-74 0,-74 0,0 103,0 103,-74"/>
<text text-anchor="start" x="12.26" y="-62" font-family="Helvetica,sans-Serif" font-size="10.00">IIRawDataReader</text>
<text text-anchor="start" x="50.61" y="-48" font-family="Helvetica,sans-Serif" font-size="10.00"> </text>
<text text-anchor="start" x="4.08" y="-34" font-family="Helvetica,sans-Serif" font-size="10.00">+</text>
<text text-anchor="start" x="13.5" y="-34" font-family="Helvetica,sans-Serif" font-size="10.00">IIRawDataReader()</text>
<text text-anchor="start" x="4.08" y="-20" font-family="Helvetica,sans-Serif" font-size="10.00">+</text>
<text text-anchor="start" x="13.5" y="-20" font-family="Helvetica,sans-Serif" font-size="10.00">size()</text>
<text text-anchor="start" x="4.08" y="-6" font-family="Helvetica,sans-Serif" font-size="10.00">+</text>
<text text-anchor="start" x="13.5" y="-6" font-family="Helvetica,sans-Serif" font-size="10.00">read()</text>
<polygon fill="#666666" stroke="#666666" points="0.5,-58 0.5,-58 103.5,-58 103.5,-58 0.5,-58"/>
<polygon fill="#666666" stroke="#666666" points="0.5,-44 0.5,-44 103.5,-44 103.5,-44 0.5,-44"/>
<polygon fill="none" stroke="#666666" points="0,0 0,-74 103,-74 103,0 0,0"/>
</a>
</g>
</g>
<!-- Node2 -->
<g id="Node000002" class="node">
<title>Node2</title>
<g id="a_Node000002"><a xlink:href="struct_i_i_raw_data.html" target="_top" xlink:title=" ">
<polygon fill="white" stroke="transparent" points="86.5,-180 16.5,-180 16.5,-120 86.5,-120 86.5,-180"/>
<text text-anchor="start" x="28.16" y="-168" font-family="Helvetica,sans-Serif" font-size="10.00">IIRawData</text>
<text text-anchor="start" x="20.08" y="-154" font-family="Helvetica,sans-Serif" font-size="10.00">+</text>
<text text-anchor="start" x="29.5" y="-154" font-family="Helvetica,sans-Serif" font-size="10.00">data</text>
<text text-anchor="start" x="20.08" y="-140" font-family="Helvetica,sans-Serif" font-size="10.00">+</text>
<text text-anchor="start" x="29.5" y="-140" font-family="Helvetica,sans-Serif" font-size="10.00">length</text>
<text text-anchor="start" x="20.08" y="-126" font-family="Helvetica,sans-Serif" font-size="10.00">+</text>
<text text-anchor="start" x="29.5" y="-126" font-family="Helvetica,sans-Serif" font-size="10.00">IIRawData()</text>
<polygon fill="#666666" stroke="#666666" points="16.5,-164 16.5,-164 86.5,-164 86.5,-164 16.5,-164"/>
<polygon fill="#666666" stroke="#666666" points="16.5,-136 16.5,-136 27.5,-136 27.5,-136 16.5,-136"/>
<polygon fill="#666666" stroke="#666666" points="27.5,-136 27.5,-136 86.5,-136 86.5,-136 27.5,-136"/>
<polygon fill="none" stroke="#666666" points="16.5,-120 16.5,-180 86.5,-180 86.5,-120 16.5,-120"/>
</a>
</g>
</g>
<!-- Node2&#45;&gt;Node1 -->
<g id="edge1_Node000001_Node000002" class="edge">
<title>Node2&#45;&gt;Node1</title>
<g id="a_edge1_Node000001_Node000002"><a xlink:title=" ">
<path fill="none" stroke="#63b8ff" d="M51.5,-119.84C51.5,-109.55 51.5,-97.7 51.5,-86.26"/>
<polygon fill="none" stroke="#63b8ff" points="51.5,-86.11 47.5,-80.11 51.5,-74.11 55.5,-80.11 51.5,-86.11"/>
</a>
</g>
<text text-anchor="middle" x="71.23" y="-94" font-family="Helvetica,sans-Serif" font-size="10.00" fill="grey"> &#45;m_data</text>
</g>
</g>
</svg>
