<?xml version="1.0" encoding="UTF-8" standalone="no"?>
<!DOCTYPE svg PUBLIC "-//W3C//DTD SVG 1.1//EN"
 "http://www.w3.org/Graphics/SVG/1.1/DTD/svg11.dtd">
<!-- Generated by graphviz version 2.48.0 (20210717.1556)
 -->
<!-- Title: IIFilePathReader Pages: 1 -->
<svg width="117pt" height="540pt"
 viewBox="0.00 0.00 117.00 540.00" xmlns="http://www.w3.org/2000/svg" xmlns:xlink="http://www.w3.org/1999/xlink">
<g id="graph0" class="graph" transform="scale(1 1) rotate(0) translate(4 536)">
<title>IIFilePathReader</title>
<!-- Node1 -->
<g id="Node000001" class="node">
<title>Node1</title>
<g id="a_Node000001"><a xlink:title=" ">
<polygon fill="#999999" stroke="transparent" points="106.5,-88 2.5,-88 2.5,0 106.5,0 106.5,-88"/>
<text text-anchor="start" x="16.98" y="-76" font-family="Helvetica,sans-Serif" font-size="10.00">IIFilePathReader</text>
<text text-anchor="start" x="53.11" y="-62" font-family="Helvetica,sans-Serif" font-size="10.00"> </text>
<text text-anchor="start" x="6.08" y="-48" font-family="Helvetica,sans-Serif" font-size="10.00">+</text>
<text text-anchor="start" x="15.5" y="-48" font-family="Helvetica,sans-Serif" font-size="10.00">IIFilePathReader()</text>
<text text-anchor="start" x="6.08" y="-34" font-family="Helvetica,sans-Serif" font-size="10.00">+</text>
<text text-anchor="start" x="15.5" y="-34" font-family="Helvetica,sans-Serif" font-size="10.00">~IIFilePathReader()</text>
<text text-anchor="start" x="6.08" y="-20" font-family="Helvetica,sans-Serif" font-size="10.00">+</text>
<text text-anchor="start" x="15.5" y="-20" font-family="Helvetica,sans-Serif" font-size="10.00">size()</text>
<text text-anchor="start" x="6.08" y="-6" font-family="Helvetica,sans-Serif" font-size="10.00">+</text>
<text text-anchor="start" x="15.5" y="-6" font-family="Helvetica,sans-Serif" font-size="10.00">read()</text>
<polygon fill="#666666" stroke="#666666" points="2.5,-72 2.5,-72 106.5,-72 106.5,-72 2.5,-72"/>
<polygon fill="#666666" stroke="#666666" points="2.5,-58 2.5,-58 106.5,-58 106.5,-58 2.5,-58"/>
<polygon fill="none" stroke="#666666" points="2.5,0 2.5,-88 106.5,-88 106.5,0 2.5,0"/>
</a>
</g>
</g>
<!-- Node2 -->
<g id="Node000002" class="node">
<title>Node2</title>
<g id="a_Node000002"><a xlink:title=" ">
<polygon fill="white" stroke="transparent" points="86.5,-180 22.5,-180 22.5,-134 86.5,-134 86.5,-180"/>
<text text-anchor="start" x="27.27" y="-168" font-family="Helvetica,sans-Serif" font-size="10.00">std::ifstream</text>
<text text-anchor="start" x="53.11" y="-154" font-family="Helvetica,sans-Serif" font-size="10.00"> </text>
<text text-anchor="start" x="53.11" y="-140" font-family="Helvetica,sans-Serif" font-size="10.00"> </text>
<polygon fill="#666666" stroke="#666666" points="22.5,-164 22.5,-164 86.5,-164 86.5,-164 22.5,-164"/>
<polygon fill="#666666" stroke="#666666" points="22.5,-150 22.5,-150 86.5,-150 86.5,-150 22.5,-150"/>
<polygon fill="none" stroke="#666666" points="22.5,-134 22.5,-180 86.5,-180 86.5,-134 22.5,-134"/>
</a>
</g>
</g>
<!-- Node2&#45;&gt;Node1 -->
<g id="edge1_Node000001_Node000002" class="edge">
<title>Node2&#45;&gt;Node1</title>
<g id="a_edge1_Node000001_Node000002"><a xlink:title=" ">
<path fill="none" stroke="#63b8ff" d="M54.5,-133.8C54.5,-124.13 54.5,-112.32 54.5,-100.5"/>
<polygon fill="none" stroke="#63b8ff" points="54.5,-100.28 50.5,-94.28 54.5,-88.28 58.5,-94.28 54.5,-100.28"/>
</a>
</g>
<text text-anchor="middle" x="70.89" y="-108" font-family="Helvetica,sans-Serif" font-size="10.00" fill="grey"> &#45;m_file</text>
</g>
<!-- Node3 -->
<g id="Node000003" class="node">
<title>Node3</title>
<g id="a_Node000003"><a xlink:title=" ">
<polygon fill="white" stroke="transparent" points="101,-273 8,-273 8,-217 101,-217 101,-273"/>
<text text-anchor="start" x="13.32" y="-261" font-family="Helvetica,sans-Serif" font-size="10.00">std::basic_ifstream</text>
<text text-anchor="start" x="35.54" y="-251" font-family="Helvetica,sans-Serif" font-size="10.00">&lt; Char &gt;</text>
<text text-anchor="start" x="53.61" y="-237" font-family="Helvetica,sans-Serif" font-size="10.00"> </text>
<text text-anchor="start" x="53.61" y="-223" font-family="Helvetica,sans-Serif" font-size="10.00"> </text>
<polygon fill="#666666" stroke="#666666" points="8.5,-247 8.5,-247 101.5,-247 101.5,-247 8.5,-247"/>
<polygon fill="#666666" stroke="#666666" points="8.5,-233 8.5,-233 101.5,-233 101.5,-233 8.5,-233"/>
<polygon fill="none" stroke="#666666" points="8,-217 8,-273 101,-273 101,-217 8,-217"/>
</a>
</g>
</g>
<!-- Node3&#45;&gt;Node2 -->
<g id="edge2_Node000002_Node000003" class="edge">
<title>Node3&#45;&gt;Node2</title>
<g id="a_edge2_Node000002_Node000003"><a xlink:title=" ">
<path fill="none" stroke="#63b8ff" d="M54.5,-206.78C54.5,-197.7 54.5,-188.27 54.5,-180.15"/>
<polygon fill="none" stroke="#63b8ff" points="51,-206.79 54.5,-216.79 58,-206.79 51,-206.79"/>
</a>
</g>
</g>
<!-- Node4 -->
<g id="Node000004" class="node">
<title>Node4</title>
<g id="a_Node000004"><a xlink:title=" ">
<polygon fill="white" stroke="transparent" points="99.5,-366 9.5,-366 9.5,-310 99.5,-310 99.5,-366"/>
<text text-anchor="start" x="14.21" y="-354" font-family="Helvetica,sans-Serif" font-size="10.00">std::basic_istream</text>
<text text-anchor="start" x="35.04" y="-344" font-family="Helvetica,sans-Serif" font-size="10.00">&lt; Char &gt;</text>
<text text-anchor="start" x="53.11" y="-330" font-family="Helvetica,sans-Serif" font-size="10.00"> </text>
<text text-anchor="start" x="53.11" y="-316" font-family="Helvetica,sans-Serif" font-size="10.00"> </text>
<polygon fill="#666666" stroke="#666666" points="9.5,-340 9.5,-340 99.5,-340 99.5,-340 9.5,-340"/>
<polygon fill="#666666" stroke="#666666" points="9.5,-326 9.5,-326 99.5,-326 99.5,-326 9.5,-326"/>
<polygon fill="none" stroke="#666666" points="9.5,-310 9.5,-366 99.5,-366 99.5,-310 9.5,-310"/>
</a>
</g>
</g>
<!-- Node4&#45;&gt;Node3 -->
<g id="edge3_Node000003_Node000004" class="edge">
<title>Node4&#45;&gt;Node3</title>
<g id="a_edge3_Node000003_Node000004"><a xlink:title=" ">
<path fill="none" stroke="#63b8ff" d="M54.5,-299.62C54.5,-290.8 54.5,-281.56 54.5,-273.28"/>
<polygon fill="none" stroke="#63b8ff" points="51,-299.7 54.5,-309.7 58,-299.7 51,-299.7"/>
</a>
</g>
</g>
<!-- Node5 -->
<g id="Node000005" class="node">
<title>Node5</title>
<g id="a_Node000005"><a xlink:title=" ">
<polygon fill="white" stroke="transparent" points="109,-449 0,-449 0,-403 109,-403 109,-449"/>
<text text-anchor="start" x="5.25" y="-437" font-family="Helvetica,sans-Serif" font-size="10.00">std::basic_ios&lt; Char &gt;</text>
<text text-anchor="start" x="53.61" y="-423" font-family="Helvetica,sans-Serif" font-size="10.00"> </text>
<text text-anchor="start" x="53.61" y="-409" font-family="Helvetica,sans-Serif" font-size="10.00"> </text>
<polygon fill="#666666" stroke="#666666" points="0.5,-433 0.5,-433 109.5,-433 109.5,-433 0.5,-433"/>
<polygon fill="#666666" stroke="#666666" points="0.5,-419 0.5,-419 109.5,-419 109.5,-419 0.5,-419"/>
<polygon fill="none" stroke="#666666" points="0,-403 0,-449 109,-449 109,-403 0,-403"/>
</a>
</g>
</g>
<!-- Node5&#45;&gt;Node4 -->
<g id="edge4_Node000004_Node000005" class="edge">
<title>Node5&#45;&gt;Node4</title>
<g id="a_edge4_Node000004_Node000005"><a xlink:title=" ">
<path fill="none" stroke="#63b8ff" d="M54.5,-392.67C54.5,-383.99 54.5,-374.68 54.5,-366.3"/>
<polygon fill="none" stroke="#63b8ff" points="51,-392.85 54.5,-402.85 58,-392.85 51,-392.85"/>
</a>
</g>
</g>
<!-- Node6 -->
<g id="Node000006" class="node">
<title>Node6</title>
<g id="a_Node000006"><a xlink:title=" ">
<polygon fill="white" stroke="transparent" points="88.5,-532 20.5,-532 20.5,-486 88.5,-486 88.5,-532"/>
<text text-anchor="start" x="25.04" y="-520" font-family="Helvetica,sans-Serif" font-size="10.00">std::ios_base</text>
<text text-anchor="start" x="53.11" y="-506" font-family="Helvetica,sans-Serif" font-size="10.00"> </text>
<text text-anchor="start" x="53.11" y="-492" font-family="Helvetica,sans-Serif" font-size="10.00"> </text>
<polygon fill="#666666" stroke="#666666" points="20.5,-516 20.5,-516 88.5,-516 88.5,-516 20.5,-516"/>
<polygon fill="#666666" stroke="#666666" points="20.5,-502 20.5,-502 88.5,-502 88.5,-502 20.5,-502"/>
<polygon fill="none" stroke="#666666" points="20.5,-486 20.5,-532 88.5,-532 88.5,-486 20.5,-486"/>
</a>
</g>
</g>
<!-- Node6&#45;&gt;Node5 -->
<g id="edge5_Node000005_Node000006" class="edge">
<title>Node6&#45;&gt;Node5</title>
<g id="a_edge5_Node000005_Node000006"><a xlink:title=" ">
<path fill="none" stroke="#63b8ff" d="M54.5,-475.75C54.5,-466.81 54.5,-457.32 54.5,-449.11"/>
<polygon fill="none" stroke="#63b8ff" points="51,-475.87 54.5,-485.87 58,-475.87 51,-475.87"/>
</a>
</g>
</g>
</g>
</svg>
