<?xml version="1.0" encoding="UTF-8" standalone="no"?>
<!DOCTYPE svg PUBLIC "-//W3C//DTD SVG 1.1//EN"
 "http://www.w3.org/Graphics/SVG/1.1/DTD/svg11.dtd">
<!-- Generated by graphviz version 2.48.0 (20210717.1556)
 -->
<!-- Title: epub::container::container Pages: 1 -->
<svg width="412pt" height="36pt"
 viewBox="0.00 0.00 412.11 36.00" xmlns="http://www.w3.org/2000/svg" xmlns:xlink="http://www.w3.org/1999/xlink">
<g id="graph0" class="graph" transform="scale(1 1) rotate(0) translate(4 32)">
<title>epub::container::container</title>
<!-- Node1 -->
<g id="Node000001" class="node">
<title>Node1</title>
<g id="a_Node000001"><a xlink:title=" ">
<polygon fill="#999999" stroke="#666666" points="131.45,-23 0.18,-23 0.18,-5 131.45,-5 131.45,-23"/>
<text text-anchor="middle" x="65.82" y="-11" font-family="Helvetica,sans-Serif" font-size="10.00">epub::container::container</text>
</a>
</g>
</g>
<!-- Node2 -->
<g id="Node000002" class="node">
<title>Node2</title>
<g id="a_Node000002"><a xlink:href="classepub_1_1package.html#af7f9775a7953713b225cc85cd4cb75f1" target="_top" xlink:title=" ">
<polygon fill="white" stroke="#666666" points="271.41,-28 167.71,-28 167.71,0 271.41,0 271.41,-28"/>
<text text-anchor="start" x="175.63" y="-16" font-family="Helvetica,sans-Serif" font-size="10.00">epub::package::add</text>
<text text-anchor="middle" x="219.56" y="-6" font-family="Helvetica,sans-Serif" font-size="10.00">_to_manifest</text>
</a>
</g>
</g>
<!-- Node1&#45;&gt;Node2 -->
<g id="edge1_Node000001_Node000002" class="edge">
<title>Node1&#45;&gt;Node2</title>
<g id="a_edge1_Node000001_Node000002"><a xlink:title=" ">
<path fill="none" stroke="#63b8ff" d="M131.61,-14C140.09,-14 148.75,-14 157.17,-14"/>
<polygon fill="#63b8ff" stroke="#63b8ff" points="157.28,-17.5 167.28,-14 157.28,-10.5 157.28,-17.5"/>
</a>
</g>
</g>
<!-- Node3 -->
<g id="Node000003" class="node">
<title>Node3</title>
<g id="a_Node000003"><a xlink:href="namespaceepub.html#a066b00e6e19cee9ebbb898c4182c0ad0" target="_top" xlink:title="Generate a XML ID.">
<polygon fill="white" stroke="#666666" points="403.92,-23 307.67,-23 307.67,-5 403.92,-5 403.92,-23"/>
<text text-anchor="middle" x="355.8" y="-11" font-family="Helvetica,sans-Serif" font-size="10.00">epub::generate_id</text>
</a>
</g>
</g>
<!-- Node2&#45;&gt;Node3 -->
<g id="edge2_Node000002_Node000003" class="edge">
<title>Node2&#45;&gt;Node3</title>
<g id="a_edge2_Node000002_Node000003"><a xlink:title=" ">
<path fill="none" stroke="#63b8ff" d="M271.69,-14C280.02,-14 288.69,-14 297.15,-14"/>
<polygon fill="#63b8ff" stroke="#63b8ff" points="297.34,-17.5 307.34,-14 297.34,-10.5 297.34,-17.5"/>
</a>
</g>
</g>
</g>
</svg>
