<?xml version="1.0" encoding="UTF-8" standalone="no"?>
<!DOCTYPE svg PUBLIC "-//W3C//DTD SVG 1.1//EN"
 "http://www.w3.org/Graphics/SVG/1.1/DTD/svg11.dtd">
<!-- Generated by graphviz version 2.48.0 (20210717.1556)
 -->
<!-- Title: epub::metadata Pages: 1 -->
<svg width="253pt" height="997pt"
 viewBox="0.00 0.00 253.30 997.00" xmlns="http://www.w3.org/2000/svg" xmlns:xlink="http://www.w3.org/1999/xlink">
<g id="graph0" class="graph" transform="scale(1 1) rotate(0) translate(4 993)">
<title>epub::metadata</title>
<!-- Node1 -->
<g id="Node000001" class="node">
<title>Node1</title>
<g id="a_Node000001"><a xlink:title="The metadata component of the package document.">
<polygon fill="#999999" stroke="transparent" points="129.61,-396 42.61,-396 42.61,0 129.61,0 129.61,-396"/>
<text text-anchor="start" x="51.86" y="-384" font-family="Helvetica,sans-Serif" font-size="10.00">epub::metadata</text>
<text text-anchor="start" x="47.94" y="-370" font-family="Helvetica,sans-Serif" font-size="10.00">&#45;</text>
<text text-anchor="start" x="56.11" y="-370" font-family="Helvetica,sans-Serif" font-size="10.00">_pre_paginated</text>
<text text-anchor="start" x="46.69" y="-356" font-family="Helvetica,sans-Serif" font-size="10.00">+</text>
<text text-anchor="start" x="56.11" y="-356" font-family="Helvetica,sans-Serif" font-size="10.00">metadata()</text>
<text text-anchor="start" x="46.69" y="-342" font-family="Helvetica,sans-Serif" font-size="10.00">+</text>
<text text-anchor="start" x="56.11" y="-342" font-family="Helvetica,sans-Serif" font-size="10.00">pre_paginated()</text>
<text text-anchor="start" x="46.69" y="-328" font-family="Helvetica,sans-Serif" font-size="10.00">+</text>
<text text-anchor="start" x="56.11" y="-328" font-family="Helvetica,sans-Serif" font-size="10.00">reflow()</text>
<text text-anchor="start" x="46.69" y="-314" font-family="Helvetica,sans-Serif" font-size="10.00">+</text>
<text text-anchor="start" x="56.11" y="-314" font-family="Helvetica,sans-Serif" font-size="10.00">layout()</text>
<text text-anchor="start" x="46.69" y="-300" font-family="Helvetica,sans-Serif" font-size="10.00">+</text>
<text text-anchor="start" x="56.11" y="-300" font-family="Helvetica,sans-Serif" font-size="10.00">identifier()</text>
<text text-anchor="start" x="46.69" y="-286" font-family="Helvetica,sans-Serif" font-size="10.00">+</text>
<text text-anchor="start" x="56.11" y="-286" font-family="Helvetica,sans-Serif" font-size="10.00">identifier()</text>
<text text-anchor="start" x="46.69" y="-272" font-family="Helvetica,sans-Serif" font-size="10.00">+</text>
<text text-anchor="start" x="56.11" y="-272" font-family="Helvetica,sans-Serif" font-size="10.00">title()</text>
<text text-anchor="start" x="46.69" y="-258" font-family="Helvetica,sans-Serif" font-size="10.00">+</text>
<text text-anchor="start" x="56.11" y="-258" font-family="Helvetica,sans-Serif" font-size="10.00">title()</text>
<text text-anchor="start" x="46.69" y="-244" font-family="Helvetica,sans-Serif" font-size="10.00">+</text>
<text text-anchor="start" x="56.11" y="-244" font-family="Helvetica,sans-Serif" font-size="10.00">language()</text>
<text text-anchor="start" x="46.69" y="-230" font-family="Helvetica,sans-Serif" font-size="10.00">+</text>
<text text-anchor="start" x="56.11" y="-230" font-family="Helvetica,sans-Serif" font-size="10.00">description()</text>
<text text-anchor="start" x="46.69" y="-216" font-family="Helvetica,sans-Serif" font-size="10.00">+</text>
<text text-anchor="start" x="56.11" y="-216" font-family="Helvetica,sans-Serif" font-size="10.00">description()</text>
<text text-anchor="start" x="46.69" y="-202" font-family="Helvetica,sans-Serif" font-size="10.00">+</text>
<text text-anchor="start" x="56.11" y="-202" font-family="Helvetica,sans-Serif" font-size="10.00">creators()</text>
<text text-anchor="start" x="46.69" y="-188" font-family="Helvetica,sans-Serif" font-size="10.00">+</text>
<text text-anchor="start" x="56.11" y="-188" font-family="Helvetica,sans-Serif" font-size="10.00">creators()</text>
<text text-anchor="start" x="46.69" y="-174" font-family="Helvetica,sans-Serif" font-size="10.00">+</text>
<text text-anchor="start" x="56.11" y="-174" font-family="Helvetica,sans-Serif" font-size="10.00">collections()</text>
<text text-anchor="start" x="46.69" y="-160" font-family="Helvetica,sans-Serif" font-size="10.00">+</text>
<text text-anchor="start" x="56.11" y="-160" font-family="Helvetica,sans-Serif" font-size="10.00">collections()</text>
<text text-anchor="start" x="47.66" y="-146" font-family="Helvetica,sans-Serif" font-size="10.00">*</text>
<text text-anchor="start" x="56.11" y="-146" font-family="Helvetica,sans-Serif" font-size="10.00">identifier()</text>
<text text-anchor="start" x="47.66" y="-132" font-family="Helvetica,sans-Serif" font-size="10.00">*</text>
<text text-anchor="start" x="56.11" y="-132" font-family="Helvetica,sans-Serif" font-size="10.00">identifier()</text>
<text text-anchor="start" x="47.66" y="-118" font-family="Helvetica,sans-Serif" font-size="10.00">*</text>
<text text-anchor="start" x="56.11" y="-118" font-family="Helvetica,sans-Serif" font-size="10.00">title()</text>
<text text-anchor="start" x="47.66" y="-104" font-family="Helvetica,sans-Serif" font-size="10.00">*</text>
<text text-anchor="start" x="56.11" y="-104" font-family="Helvetica,sans-Serif" font-size="10.00">title()</text>
<text text-anchor="start" x="47.66" y="-90" font-family="Helvetica,sans-Serif" font-size="10.00">*</text>
<text text-anchor="start" x="56.11" y="-90" font-family="Helvetica,sans-Serif" font-size="10.00">language()</text>
<text text-anchor="start" x="47.66" y="-76" font-family="Helvetica,sans-Serif" font-size="10.00">*</text>
<text text-anchor="start" x="56.11" y="-76" font-family="Helvetica,sans-Serif" font-size="10.00">description()</text>
<text text-anchor="start" x="47.66" y="-62" font-family="Helvetica,sans-Serif" font-size="10.00">*</text>
<text text-anchor="start" x="56.11" y="-62" font-family="Helvetica,sans-Serif" font-size="10.00">description()</text>
<text text-anchor="start" x="47.66" y="-48" font-family="Helvetica,sans-Serif" font-size="10.00">*</text>
<text text-anchor="start" x="56.11" y="-48" font-family="Helvetica,sans-Serif" font-size="10.00">creators()</text>
<text text-anchor="start" x="47.66" y="-34" font-family="Helvetica,sans-Serif" font-size="10.00">*</text>
<text text-anchor="start" x="56.11" y="-34" font-family="Helvetica,sans-Serif" font-size="10.00">creators()</text>
<text text-anchor="start" x="47.66" y="-20" font-family="Helvetica,sans-Serif" font-size="10.00">*</text>
<text text-anchor="start" x="56.11" y="-20" font-family="Helvetica,sans-Serif" font-size="10.00">collections()</text>
<text text-anchor="start" x="47.66" y="-6" font-family="Helvetica,sans-Serif" font-size="10.00">*</text>
<text text-anchor="start" x="56.11" y="-6" font-family="Helvetica,sans-Serif" font-size="10.00">collections()</text>
<polygon fill="#666666" stroke="#666666" points="43.11,-380 43.11,-380 130.11,-380 130.11,-380 43.11,-380"/>
<polygon fill="#666666" stroke="#666666" points="43.11,-366 43.11,-366 54.11,-366 54.11,-366 43.11,-366"/>
<polygon fill="#666666" stroke="#666666" points="54.11,-366 54.11,-366 130.11,-366 130.11,-366 54.11,-366"/>
<polygon fill="none" stroke="#666666" points="42.61,0 42.61,-396 129.61,-396 129.61,0 42.61,0"/>
</a>
</g>
</g>
<!-- Node2 -->
<g id="Node000002" class="node">
<title>Node2</title>
<g id="a_Node000002"><a xlink:title=" ">
<polygon fill="white" stroke="transparent" points="113.11,-896 49.11,-896 49.11,-850 113.11,-850 113.11,-896"/>
<text text-anchor="start" x="53.87" y="-884" font-family="Helvetica,sans-Serif" font-size="10.00">std::u8string</text>
<text text-anchor="start" x="79.72" y="-870" font-family="Helvetica,sans-Serif" font-size="10.00"> </text>
<text text-anchor="start" x="79.72" y="-856" font-family="Helvetica,sans-Serif" font-size="10.00"> </text>
<polygon fill="#666666" stroke="#666666" points="49.11,-880 49.11,-880 113.11,-880 113.11,-880 49.11,-880"/>
<polygon fill="#666666" stroke="#666666" points="49.11,-866 49.11,-866 113.11,-866 113.11,-866 49.11,-866"/>
<polygon fill="none" stroke="#666666" points="49.11,-850 49.11,-896 113.11,-896 113.11,-850 49.11,-850"/>
</a>
</g>
</g>
<!-- Node2&#45;&gt;Node1 -->
<g id="edge1_Node000001_Node000002" class="edge">
<title>Node2&#45;&gt;Node1</title>
<g id="a_edge1_Node000001_Node000002"><a xlink:title=" ">
<path fill="none" stroke="#63b8ff" d="M61.38,-849.97C47.75,-833.2 30.74,-808.84 23.11,-784 -21.81,-637.76 7.39,-462.42 39.36,-342.07"/>
<polygon fill="none" stroke="#63b8ff" points="39.42,-341.81 37.13,-334.98 42.56,-330.23 44.85,-337.07 39.42,-341.81"/>
</a>
</g>
<text text-anchor="middle" x="36.12" y="-548" font-family="Helvetica,sans-Serif" font-size="10.00" fill="grey"> &#45;_description</text>
<text text-anchor="middle" x="36.12" y="-538" font-family="Helvetica,sans-Serif" font-size="10.00" fill="grey">&#45;_identifier</text>
<text text-anchor="middle" x="36.12" y="-528" font-family="Helvetica,sans-Serif" font-size="10.00" fill="grey">&#45;_language</text>
<text text-anchor="middle" x="36.12" y="-518" font-family="Helvetica,sans-Serif" font-size="10.00" fill="grey">&#45;_title</text>
</g>
<!-- Node5 -->
<g id="Node000005" class="node">
<title>Node5</title>
<g id="a_Node000005"><a xlink:href="classepub_1_1creator.html" target="_top" xlink:title="An individual or organizational creator.">
<polygon fill="white" stroke="transparent" points="129.61,-742 32.61,-742 32.61,-616 129.61,-616 129.61,-742"/>
<text text-anchor="start" x="52.14" y="-730" font-family="Helvetica,sans-Serif" font-size="10.00">epub::creator</text>
<text text-anchor="start" x="80.22" y="-716" font-family="Helvetica,sans-Serif" font-size="10.00"> </text>
<text text-anchor="start" x="36.69" y="-702" font-family="Helvetica,sans-Serif" font-size="10.00">+</text>
<text text-anchor="start" x="46.11" y="-702" font-family="Helvetica,sans-Serif" font-size="10.00">creator()</text>
<text text-anchor="start" x="36.69" y="-688" font-family="Helvetica,sans-Serif" font-size="10.00">+</text>
<text text-anchor="start" x="46.11" y="-688" font-family="Helvetica,sans-Serif" font-size="10.00">operator const std</text>
<text text-anchor="start" x="46.11" y="-678" font-family="Helvetica,sans-Serif" font-size="10.00">::u8string &amp;()</text>
<text text-anchor="start" x="36.69" y="-664" font-family="Helvetica,sans-Serif" font-size="10.00">+</text>
<text text-anchor="start" x="46.11" y="-664" font-family="Helvetica,sans-Serif" font-size="10.00">file_as()</text>
<text text-anchor="start" x="36.69" y="-650" font-family="Helvetica,sans-Serif" font-size="10.00">+</text>
<text text-anchor="start" x="46.11" y="-650" font-family="Helvetica,sans-Serif" font-size="10.00">file_as()</text>
<text text-anchor="start" x="36.69" y="-636" font-family="Helvetica,sans-Serif" font-size="10.00">+</text>
<text text-anchor="start" x="46.11" y="-636" font-family="Helvetica,sans-Serif" font-size="10.00">role()</text>
<text text-anchor="start" x="36.69" y="-622" font-family="Helvetica,sans-Serif" font-size="10.00">+</text>
<text text-anchor="start" x="46.11" y="-622" font-family="Helvetica,sans-Serif" font-size="10.00">role()</text>
<polygon fill="#666666" stroke="#666666" points="33.11,-726 33.11,-726 130.11,-726 130.11,-726 33.11,-726"/>
<polygon fill="#666666" stroke="#666666" points="33.11,-712 33.11,-712 130.11,-712 130.11,-712 33.11,-712"/>
<polygon fill="none" stroke="#666666" points="32.61,-616 32.61,-742 129.61,-742 129.61,-616 32.61,-616"/>
</a>
</g>
</g>
<!-- Node2&#45;&gt;Node5 -->
<g id="edge5_Node000005_Node000002" class="edge">
<title>Node2&#45;&gt;Node5</title>
<g id="a_edge5_Node000005_Node000002"><a xlink:title=" ">
<path fill="none" stroke="#63b8ff" d="M81.11,-849.98C81.11,-826.73 81.11,-788.79 81.11,-754.65"/>
<polygon fill="none" stroke="#63b8ff" points="81.11,-754.28 77.11,-748.28 81.11,-742.28 85.11,-748.28 81.11,-754.28"/>
</a>
</g>
<text text-anchor="middle" x="101.4" y="-824" font-family="Helvetica,sans-Serif" font-size="10.00" fill="grey"> &#45;_file_as</text>
<text text-anchor="middle" x="101.4" y="-814" font-family="Helvetica,sans-Serif" font-size="10.00" fill="grey">&#45;_name</text>
<text text-anchor="middle" x="101.4" y="-804" font-family="Helvetica,sans-Serif" font-size="10.00" fill="grey">&#45;_role</text>
</g>
<!-- Node7 -->
<g id="Node000007" class="node">
<title>Node7</title>
<g id="a_Node000007"><a xlink:href="classepub_1_1collection.html" target="_top" xlink:title="An indication that the publication is part of a larger set.">
<polygon fill="white" stroke="transparent" points="244.61,-784 147.61,-784 147.61,-574 244.61,-574 244.61,-784"/>
<text text-anchor="start" x="161.86" y="-772" font-family="Helvetica,sans-Serif" font-size="10.00">epub::collection</text>
<text text-anchor="start" x="152.94" y="-758" font-family="Helvetica,sans-Serif" font-size="10.00">&#45;</text>
<text text-anchor="start" x="161.11" y="-758" font-family="Helvetica,sans-Serif" font-size="10.00">_type</text>
<text text-anchor="start" x="151.69" y="-744" font-family="Helvetica,sans-Serif" font-size="10.00">+</text>
<text text-anchor="start" x="161.11" y="-744" font-family="Helvetica,sans-Serif" font-size="10.00">collection()</text>
<text text-anchor="start" x="151.69" y="-730" font-family="Helvetica,sans-Serif" font-size="10.00">+</text>
<text text-anchor="start" x="161.11" y="-730" font-family="Helvetica,sans-Serif" font-size="10.00">collection()</text>
<text text-anchor="start" x="151.69" y="-716" font-family="Helvetica,sans-Serif" font-size="10.00">+</text>
<text text-anchor="start" x="161.11" y="-716" font-family="Helvetica,sans-Serif" font-size="10.00">collection()</text>
<text text-anchor="start" x="151.69" y="-702" font-family="Helvetica,sans-Serif" font-size="10.00">+</text>
<text text-anchor="start" x="161.11" y="-702" font-family="Helvetica,sans-Serif" font-size="10.00">~collection()</text>
<text text-anchor="start" x="151.69" y="-688" font-family="Helvetica,sans-Serif" font-size="10.00">+</text>
<text text-anchor="start" x="161.11" y="-688" font-family="Helvetica,sans-Serif" font-size="10.00">operator=()</text>
<text text-anchor="start" x="151.69" y="-674" font-family="Helvetica,sans-Serif" font-size="10.00">+</text>
<text text-anchor="start" x="161.11" y="-674" font-family="Helvetica,sans-Serif" font-size="10.00">operator=()</text>
<text text-anchor="start" x="151.69" y="-660" font-family="Helvetica,sans-Serif" font-size="10.00">+</text>
<text text-anchor="start" x="161.11" y="-660" font-family="Helvetica,sans-Serif" font-size="10.00">operator const std</text>
<text text-anchor="start" x="161.11" y="-650" font-family="Helvetica,sans-Serif" font-size="10.00">::u8string &amp;()</text>
<text text-anchor="start" x="151.69" y="-636" font-family="Helvetica,sans-Serif" font-size="10.00">+</text>
<text text-anchor="start" x="161.11" y="-636" font-family="Helvetica,sans-Serif" font-size="10.00">type()</text>
<text text-anchor="start" x="151.69" y="-622" font-family="Helvetica,sans-Serif" font-size="10.00">+</text>
<text text-anchor="start" x="161.11" y="-622" font-family="Helvetica,sans-Serif" font-size="10.00">type()</text>
<text text-anchor="start" x="151.69" y="-608" font-family="Helvetica,sans-Serif" font-size="10.00">+</text>
<text text-anchor="start" x="161.11" y="-608" font-family="Helvetica,sans-Serif" font-size="10.00">group_position()</text>
<text text-anchor="start" x="151.69" y="-594" font-family="Helvetica,sans-Serif" font-size="10.00">+</text>
<text text-anchor="start" x="161.11" y="-594" font-family="Helvetica,sans-Serif" font-size="10.00">group_position()</text>
<text text-anchor="start" x="151.69" y="-580" font-family="Helvetica,sans-Serif" font-size="10.00">+</text>
<text text-anchor="start" x="161.11" y="-580" font-family="Helvetica,sans-Serif" font-size="10.00">group_position()</text>
<polygon fill="#666666" stroke="#666666" points="148.11,-768 148.11,-768 245.11,-768 245.11,-768 148.11,-768"/>
<polygon fill="#666666" stroke="#666666" points="148.11,-754 148.11,-754 159.11,-754 159.11,-754 148.11,-754"/>
<polygon fill="#666666" stroke="#666666" points="159.11,-754 159.11,-754 245.11,-754 245.11,-754 159.11,-754"/>
<polygon fill="none" stroke="#666666" points="147.61,-574 147.61,-784 244.61,-784 244.61,-574 147.61,-574"/>
</a>
</g>
</g>
<!-- Node2&#45;&gt;Node7 -->
<g id="edge8_Node000007_Node000002" class="edge">
<title>Node2&#45;&gt;Node7</title>
<g id="a_edge8_Node000007_Node000002"><a xlink:title=" ">
<path fill="none" stroke="#63b8ff" d="M109.55,-849.95C115.49,-844.5 121.38,-838.38 126.11,-832 134.55,-820.6 142.33,-808.02 149.37,-795.13"/>
<polygon fill="none" stroke="#63b8ff" points="149.52,-794.85 148.78,-787.68 155.12,-784.24 155.86,-791.41 149.52,-794.85"/>
</a>
</g>
<text text-anchor="middle" x="182.75" y="-819" font-family="Helvetica,sans-Serif" font-size="10.00" fill="grey"> &#45;_group_position</text>
<text text-anchor="middle" x="182.75" y="-809" font-family="Helvetica,sans-Serif" font-size="10.00" fill="grey">&#45;_name</text>
</g>
<!-- Node3 -->
<g id="Node000003" class="node">
<title>Node3</title>
<g id="a_Node000003"><a xlink:title=" ">
<polygon fill="white" stroke="transparent" points="125.11,-989 37.11,-989 37.11,-933 125.11,-933 125.11,-989"/>
<text text-anchor="start" x="42.06" y="-977" font-family="Helvetica,sans-Serif" font-size="10.00">std::basic_string&lt;</text>
<text text-anchor="start" x="64.57" y="-967" font-family="Helvetica,sans-Serif" font-size="10.00"> Char &gt;</text>
<text text-anchor="start" x="79.72" y="-953" font-family="Helvetica,sans-Serif" font-size="10.00"> </text>
<text text-anchor="start" x="79.72" y="-939" font-family="Helvetica,sans-Serif" font-size="10.00"> </text>
<polygon fill="#666666" stroke="#666666" points="37.11,-963 37.11,-963 125.11,-963 125.11,-963 37.11,-963"/>
<polygon fill="#666666" stroke="#666666" points="37.11,-949 37.11,-949 125.11,-949 125.11,-949 37.11,-949"/>
<polygon fill="none" stroke="#666666" points="37.11,-933 37.11,-989 125.11,-989 125.11,-933 37.11,-933"/>
</a>
</g>
</g>
<!-- Node3&#45;&gt;Node2 -->
<g id="edge2_Node000002_Node000003" class="edge">
<title>Node3&#45;&gt;Node2</title>
<g id="a_edge2_Node000002_Node000003"><a xlink:title=" ">
<path fill="none" stroke="#63b8ff" d="M81.11,-922.78C81.11,-913.7 81.11,-904.27 81.11,-896.15"/>
<polygon fill="none" stroke="#63b8ff" points="77.61,-922.79 81.11,-932.79 84.61,-922.79 77.61,-922.79"/>
</a>
</g>
</g>
<!-- Node4 -->
<g id="Node000004" class="node">
<title>Node4</title>
<g id="a_Node000004"><a xlink:title=" ">
<polygon fill="white" stroke="transparent" points="132.11,-498 40.11,-498 40.11,-442 132.11,-442 132.11,-498"/>
<text text-anchor="start" x="44.83" y="-486" font-family="Helvetica,sans-Serif" font-size="10.00">std::vector&lt; epub::</text>
<text text-anchor="start" x="66.24" y="-476" font-family="Helvetica,sans-Serif" font-size="10.00">creator &gt;</text>
<text text-anchor="start" x="84.72" y="-462" font-family="Helvetica,sans-Serif" font-size="10.00"> </text>
<text text-anchor="start" x="84.72" y="-448" font-family="Helvetica,sans-Serif" font-size="10.00"> </text>
<polygon fill="#666666" stroke="#666666" points="40.11,-472 40.11,-472 132.11,-472 132.11,-472 40.11,-472"/>
<polygon fill="#666666" stroke="#666666" points="40.11,-458 40.11,-458 132.11,-458 132.11,-458 40.11,-458"/>
<polygon fill="none" stroke="#666666" points="40.11,-442 40.11,-498 132.11,-498 132.11,-442 40.11,-442"/>
</a>
</g>
</g>
<!-- Node4&#45;&gt;Node1 -->
<g id="edge3_Node000001_Node000004" class="edge">
<title>Node4&#45;&gt;Node1</title>
<g id="a_edge3_Node000001_Node000004"><a xlink:title=" ">
<path fill="none" stroke="#63b8ff" d="M86.11,-441.88C86.11,-432.4 86.11,-420.91 86.11,-408.12"/>
<polygon fill="none" stroke="#63b8ff" points="86.11,-408.05 82.11,-402.05 86.11,-396.05 90.11,-402.05 86.11,-408.05"/>
</a>
</g>
<text text-anchor="middle" x="110" y="-416" font-family="Helvetica,sans-Serif" font-size="10.00" fill="grey"> &#45;_creators</text>
</g>
<!-- Node5&#45;&gt;Node4 -->
<g id="edge4_Node000004_Node000005" class="edge">
<title>Node5&#45;&gt;Node4</title>
<g id="a_edge4_Node000004_Node000005"><a xlink:title=" ">
<path fill="none" stroke="#63b8ff" d="M82.61,-615.89C83.43,-581.66 84.44,-540.19 85.16,-510.41"/>
<polygon fill="none" stroke="#63b8ff" points="85.17,-510.01 81.31,-503.91 85.45,-498.01 89.31,-504.11 85.17,-510.01"/>
</a>
</g>
<text text-anchor="middle" x="109.7" y="-533" font-family="Helvetica,sans-Serif" font-size="10.00" fill="grey"> +elements</text>
</g>
<!-- Node6 -->
<g id="Node000006" class="node">
<title>Node6</title>
<g id="a_Node000006"><a xlink:title=" ">
<polygon fill="white" stroke="transparent" points="242.11,-498 150.11,-498 150.11,-442 242.11,-442 242.11,-498"/>
<text text-anchor="start" x="154.83" y="-486" font-family="Helvetica,sans-Serif" font-size="10.00">std::vector&lt; epub::</text>
<text text-anchor="start" x="170.95" y="-476" font-family="Helvetica,sans-Serif" font-size="10.00">collection &gt;</text>
<text text-anchor="start" x="194.72" y="-462" font-family="Helvetica,sans-Serif" font-size="10.00"> </text>
<text text-anchor="start" x="194.72" y="-448" font-family="Helvetica,sans-Serif" font-size="10.00"> </text>
<polygon fill="#666666" stroke="#666666" points="150.11,-472 150.11,-472 242.11,-472 242.11,-472 150.11,-472"/>
<polygon fill="#666666" stroke="#666666" points="150.11,-458 150.11,-458 242.11,-458 242.11,-458 150.11,-458"/>
<polygon fill="none" stroke="#666666" points="150.11,-442 150.11,-498 242.11,-498 242.11,-442 150.11,-442"/>
</a>
</g>
</g>
<!-- Node6&#45;&gt;Node1 -->
<g id="edge6_Node000001_Node000006" class="edge">
<title>Node6&#45;&gt;Node1</title>
<g id="a_edge6_Node000001_Node000006"><a xlink:title=" ">
<path fill="none" stroke="#63b8ff" d="M185.06,-441.88C173.08,-412.47 153.14,-363.53 134.29,-317.26"/>
<polygon fill="none" stroke="#63b8ff" points="134.18,-316.99 128.21,-312.95 129.65,-305.88 135.62,-309.93 134.18,-316.99"/>
</a>
</g>
<text text-anchor="middle" x="207.29" y="-416" font-family="Helvetica,sans-Serif" font-size="10.00" fill="grey"> &#45;_collections</text>
</g>
<!-- Node7&#45;&gt;Node6 -->
<g id="edge7_Node000006_Node000007" class="edge">
<title>Node7&#45;&gt;Node6</title>
<g id="a_edge7_Node000006_Node000007"><a xlink:title=" ">
<path fill="none" stroke="#63b8ff" d="M196.11,-573.89C196.11,-551.26 196.11,-528.67 196.11,-510.44"/>
<polygon fill="none" stroke="#63b8ff" points="196.11,-510.29 192.11,-504.29 196.11,-498.29 200.11,-504.29 196.11,-510.29"/>
</a>
</g>
<text text-anchor="middle" x="220.7" y="-533" font-family="Helvetica,sans-Serif" font-size="10.00" fill="grey"> +elements</text>
</g>
</g>
</svg>
