<?xml version="1.0" encoding="UTF-8" standalone="no"?>
<!DOCTYPE svg PUBLIC "-//W3C//DTD SVG 1.1//EN"
 "http://www.w3.org/Graphics/SVG/1.1/DTD/svg11.dtd">
<!-- Generated by graphviz version 2.48.0 (20210717.1556)
 -->
<!-- Title: book Pages: 1 -->
<svg width="119pt" height="253pt"
 viewBox="0.00 0.00 119.00 253.00" xmlns="http://www.w3.org/2000/svg" xmlns:xlink="http://www.w3.org/1999/xlink">
<g id="graph0" class="graph" transform="scale(1 1) rotate(0) translate(4 249)">
<title>book</title>
<!-- Node1 -->
<g id="Node000001" class="node">
<title>Node1</title>
<g id="a_Node000001"><a xlink:title=" ">
<polygon fill="#999999" stroke="transparent" points="111,-70 0,-70 0,0 111,0 111,-70"/>
<text text-anchor="start" x="45.16" y="-58" font-family="Helvetica,sans-Serif" font-size="10.00">book</text>
<text text-anchor="start" x="54.61" y="-44" font-family="Helvetica,sans-Serif" font-size="10.00"> </text>
<text text-anchor="start" x="4.08" y="-30" font-family="Helvetica,sans-Serif" font-size="10.00">+</text>
<text text-anchor="start" x="13.5" y="-30" font-family="Helvetica,sans-Serif" font-size="10.00">auto &amp; last_chapter()</text>
<text text-anchor="start" x="4.08" y="-16" font-family="Helvetica,sans-Serif" font-size="10.00">+</text>
<text text-anchor="start" x="13.5" y="-16" font-family="Helvetica,sans-Serif" font-size="10.00">auto add_chapter(std</text>
<text text-anchor="start" x="13.5" y="-6" font-family="Helvetica,sans-Serif" font-size="10.00">::u8string name)</text>
<polygon fill="#666666" stroke="#666666" points="0.5,-54 0.5,-54 111.5,-54 111.5,-54 0.5,-54"/>
<polygon fill="#666666" stroke="#666666" points="0.5,-40 0.5,-40 111.5,-40 111.5,-40 0.5,-40"/>
<polygon fill="none" stroke="#666666" points="0,0 0,-70 111,-70 111,0 0,0"/>
</a>
</g>
</g>
<!-- Node2 -->
<g id="Node000002" class="node">
<title>Node2</title>
<g id="a_Node000002"><a xlink:title=" ">
<polygon fill="white" stroke="transparent" points="95,-153 16,-153 16,-107 95,-107 95,-153"/>
<text text-anchor="start" x="21.44" y="-141" font-family="Helvetica,sans-Serif" font-size="10.00">std::vector&lt; T &gt;</text>
<text text-anchor="start" x="54.61" y="-127" font-family="Helvetica,sans-Serif" font-size="10.00"> </text>
<text text-anchor="start" x="54.61" y="-113" font-family="Helvetica,sans-Serif" font-size="10.00"> </text>
<polygon fill="#666666" stroke="#666666" points="16.5,-137 16.5,-137 95.5,-137 95.5,-137 16.5,-137"/>
<polygon fill="#666666" stroke="#666666" points="16.5,-123 16.5,-123 95.5,-123 95.5,-123 16.5,-123"/>
<polygon fill="none" stroke="#666666" points="16,-107 16,-153 95,-153 95,-107 16,-107"/>
</a>
</g>
</g>
<!-- Node2&#45;&gt;Node1 -->
<g id="edge1_Node000001_Node000002" class="edge">
<title>Node2&#45;&gt;Node1</title>
<g id="a_edge1_Node000001_Node000002"><a xlink:title=" ">
<path fill="none" stroke="#8b1a1a" d="M55.5,-96.91C55.5,-88.31 55.5,-78.97 55.5,-70.25"/>
<polygon fill="none" stroke="#8b1a1a" points="52,-96.96 55.5,-106.96 59,-96.96 52,-96.96"/>
</a>
</g>
</g>
<!-- Node3 -->
<g id="Node000003" class="node">
<title>Node3</title>
<g id="a_Node000003"><a xlink:title=" ">
<polygon fill="white" stroke="transparent" points="63.5,-245 47.5,-245 47.5,-199 63.5,-199 63.5,-245"/>
<text text-anchor="start" x="52.45" y="-233" font-family="Helvetica,sans-Serif" font-size="10.00">T</text>
<text text-anchor="start" x="54.11" y="-219" font-family="Helvetica,sans-Serif" font-size="10.00"> </text>
<text text-anchor="start" x="54.11" y="-205" font-family="Helvetica,sans-Serif" font-size="10.00"> </text>
<polygon fill="#666666" stroke="#666666" points="47.5,-229 47.5,-229 63.5,-229 63.5,-229 47.5,-229"/>
<polygon fill="#666666" stroke="#666666" points="47.5,-215 47.5,-215 63.5,-215 63.5,-215 47.5,-215"/>
<polygon fill="none" stroke="#666666" points="47.5,-199 47.5,-245 63.5,-245 63.5,-199 47.5,-199"/>
</a>
</g>
</g>
<!-- Node3&#45;&gt;Node2 -->
<g id="edge2_Node000002_Node000003" class="edge">
<title>Node3&#45;&gt;Node2</title>
<g id="a_edge2_Node000002_Node000003"><a xlink:title=" ">
<path fill="none" stroke="#63b8ff" d="M55.5,-198.75C55.5,-188.69 55.5,-176.57 55.5,-165.38"/>
<polygon fill="none" stroke="#63b8ff" points="55.5,-165.3 51.5,-159.3 55.5,-153.3 59.5,-159.3 55.5,-165.3"/>
</a>
</g>
<text text-anchor="middle" x="80.1" y="-173" font-family="Helvetica,sans-Serif" font-size="10.00" fill="grey"> +elements</text>
</g>
</g>
</svg>
