<?xml version="1.0" encoding="UTF-8" standalone="no"?>
<!DOCTYPE svg PUBLIC "-//W3C//DTD SVG 1.1//EN"
 "http://www.w3.org/Graphics/SVG/1.1/DTD/svg11.dtd">
<!-- Generated by graphviz version 2.48.0 (20210717.1556)
 -->
<!-- Title: cli::option Pages: 1 -->
<svg width="268pt" height="386pt"
 viewBox="0.00 0.00 268.00 386.00" xmlns="http://www.w3.org/2000/svg" xmlns:xlink="http://www.w3.org/1999/xlink">
<g id="graph0" class="graph" transform="scale(1 1) rotate(0) translate(4 382)">
<title>cli::option</title>
<!-- Node1 -->
<g id="Node000001" class="node">
<title>Node1</title>
<g id="a_Node000001"><a xlink:title=" ">
<polygon fill="#999999" stroke="transparent" points="191,-378 66,-378 66,-150 191,-150 191,-378"/>
<text text-anchor="start" x="107.88" y="-366" font-family="Helvetica,sans-Serif" font-size="10.00">cli::option</text>
<text text-anchor="start" x="127.61" y="-352" font-family="Helvetica,sans-Serif" font-size="10.00"> </text>
<text text-anchor="start" x="70.08" y="-338" font-family="Helvetica,sans-Serif" font-size="10.00">+</text>
<text text-anchor="start" x="79.5" y="-338" font-family="Helvetica,sans-Serif" font-size="10.00">option()</text>
<text text-anchor="start" x="70.08" y="-324" font-family="Helvetica,sans-Serif" font-size="10.00">+</text>
<text text-anchor="start" x="79.5" y="-324" font-family="Helvetica,sans-Serif" font-size="10.00">option(const option</text>
<text text-anchor="start" x="79.5" y="-314" font-family="Helvetica,sans-Serif" font-size="10.00"> &amp;)=default</text>
<text text-anchor="start" x="70.08" y="-300" font-family="Helvetica,sans-Serif" font-size="10.00">+</text>
<text text-anchor="start" x="79.5" y="-300" font-family="Helvetica,sans-Serif" font-size="10.00">option(option &amp;&amp;)</text>
<text text-anchor="start" x="79.5" y="-290" font-family="Helvetica,sans-Serif" font-size="10.00">=default</text>
<text text-anchor="start" x="70.08" y="-276" font-family="Helvetica,sans-Serif" font-size="10.00">+</text>
<text text-anchor="start" x="79.5" y="-276" font-family="Helvetica,sans-Serif" font-size="10.00">option &amp; operator=</text>
<text text-anchor="start" x="79.5" y="-266" font-family="Helvetica,sans-Serif" font-size="10.00">(const option &amp;)=default</text>
<text text-anchor="start" x="70.08" y="-252" font-family="Helvetica,sans-Serif" font-size="10.00">+</text>
<text text-anchor="start" x="79.5" y="-252" font-family="Helvetica,sans-Serif" font-size="10.00">option &amp; operator=</text>
<text text-anchor="start" x="79.5" y="-242" font-family="Helvetica,sans-Serif" font-size="10.00">(option &amp;&amp;)=default</text>
<text text-anchor="start" x="70.08" y="-228" font-family="Helvetica,sans-Serif" font-size="10.00">+</text>
<text text-anchor="start" x="79.5" y="-228" font-family="Helvetica,sans-Serif" font-size="10.00">virtual ~option()=default</text>
<text text-anchor="start" x="70.08" y="-214" font-family="Helvetica,sans-Serif" font-size="10.00">+</text>
<text text-anchor="start" x="79.5" y="-214" font-family="Helvetica,sans-Serif" font-size="10.00">virtual bool needs</text>
<text text-anchor="start" x="79.5" y="-204" font-family="Helvetica,sans-Serif" font-size="10.00">_arg() const noexcept=0</text>
<text text-anchor="start" x="70.08" y="-190" font-family="Helvetica,sans-Serif" font-size="10.00">+</text>
<text text-anchor="start" x="79.5" y="-190" font-family="Helvetica,sans-Serif" font-size="10.00">virtual void set()</text>
<text text-anchor="start" x="79.5" y="-180" font-family="Helvetica,sans-Serif" font-size="10.00"> const</text>
<text text-anchor="start" x="70.08" y="-166" font-family="Helvetica,sans-Serif" font-size="10.00">+</text>
<text text-anchor="start" x="79.5" y="-166" font-family="Helvetica,sans-Serif" font-size="10.00">virtual void set_arg</text>
<text text-anchor="start" x="79.5" y="-156" font-family="Helvetica,sans-Serif" font-size="10.00">(std::string) const</text>
<polygon fill="#666666" stroke="#666666" points="66.5,-362 66.5,-362 191.5,-362 191.5,-362 66.5,-362"/>
<polygon fill="#666666" stroke="#666666" points="66.5,-348 66.5,-348 191.5,-348 191.5,-348 66.5,-348"/>
<polygon fill="none" stroke="#666666" points="66,-150 66,-378 191,-378 191,-150 66,-150"/>
</a>
</g>
</g>
<!-- Node2 -->
<g id="Node000002" class="node">
<title>Node2</title>
<g id="a_Node000002"><a xlink:href="classcli_1_1arg__option.html" target="_top" xlink:title=" ">
<polygon fill="white" stroke="transparent" points="119,-114 0,-114 0,0 119,0 119,-114"/>
<text text-anchor="start" x="28.87" y="-102" font-family="Helvetica,sans-Serif" font-size="10.00">cli::arg_option</text>
<text text-anchor="start" x="5.33" y="-88" font-family="Helvetica,sans-Serif" font-size="10.00">&#45;</text>
<text text-anchor="start" x="13.5" y="-88" font-family="Helvetica,sans-Serif" font-size="10.00">std::function&lt; void</text>
<text text-anchor="start" x="13.5" y="-78" font-family="Helvetica,sans-Serif" font-size="10.00">(std::string)&gt; _cb</text>
<text text-anchor="start" x="4.08" y="-64" font-family="Helvetica,sans-Serif" font-size="10.00">+</text>
<text text-anchor="start" x="13.5" y="-64" font-family="Helvetica,sans-Serif" font-size="10.00">arg_option(Callback</text>
<text text-anchor="start" x="13.5" y="-54" font-family="Helvetica,sans-Serif" font-size="10.00"> &amp;&amp;cb)</text>
<text text-anchor="start" x="4.08" y="-40" font-family="Helvetica,sans-Serif" font-size="10.00">+</text>
<text text-anchor="start" x="13.5" y="-40" font-family="Helvetica,sans-Serif" font-size="10.00">bool needs_arg() const</text>
<text text-anchor="start" x="13.5" y="-30" font-family="Helvetica,sans-Serif" font-size="10.00"> noexcept override</text>
<text text-anchor="start" x="4.08" y="-16" font-family="Helvetica,sans-Serif" font-size="10.00">+</text>
<text text-anchor="start" x="13.5" y="-16" font-family="Helvetica,sans-Serif" font-size="10.00">void set_arg(std::string</text>
<text text-anchor="start" x="13.5" y="-6" font-family="Helvetica,sans-Serif" font-size="10.00"> arg) const override</text>
<polygon fill="#666666" stroke="#666666" points="0.5,-98 0.5,-98 119.5,-98 119.5,-98 0.5,-98"/>
<polygon fill="#666666" stroke="#666666" points="0.5,-74 0.5,-74 11.5,-74 11.5,-74 0.5,-74"/>
<polygon fill="#666666" stroke="#666666" points="11.5,-74 11.5,-74 119.5,-74 119.5,-74 11.5,-74"/>
<polygon fill="none" stroke="#666666" points="0,0 0,-114 119,-114 119,0 0,0"/>
</a>
</g>
</g>
<!-- Node1&#45;&gt;Node2 -->
<g id="edge1_Node000001_Node000002" class="edge">
<title>Node1&#45;&gt;Node2</title>
<g id="a_edge1_Node000001_Node000002"><a xlink:title=" ">
<path fill="none" stroke="#63b8ff" d="M87.08,-139.95C84.08,-131.03 81.15,-122.32 78.39,-114.11"/>
<polygon fill="none" stroke="#63b8ff" points="83.86,-141.35 90.37,-149.71 90.49,-139.11 83.86,-141.35"/>
</a>
</g>
</g>
<!-- Node3 -->
<g id="Node000003" class="node">
<title>Node3</title>
<g id="a_Node000003"><a xlink:href="classcli_1_1flag__option.html" target="_top" xlink:title=" ">
<polygon fill="white" stroke="transparent" points="260,-109 137,-109 137,-5 260,-5 260,-109"/>
<text text-anchor="start" x="167.03" y="-97" font-family="Helvetica,sans-Serif" font-size="10.00">cli::flag_option</text>
<text text-anchor="start" x="142.33" y="-83" font-family="Helvetica,sans-Serif" font-size="10.00">&#45;</text>
<text text-anchor="start" x="150.5" y="-83" font-family="Helvetica,sans-Serif" font-size="10.00">std::function&lt; void</text>
<text text-anchor="start" x="150.5" y="-73" font-family="Helvetica,sans-Serif" font-size="10.00">()&gt; _cb</text>
<text text-anchor="start" x="141.08" y="-59" font-family="Helvetica,sans-Serif" font-size="10.00">+</text>
<text text-anchor="start" x="150.5" y="-59" font-family="Helvetica,sans-Serif" font-size="10.00">flag_option(Callback</text>
<text text-anchor="start" x="150.5" y="-49" font-family="Helvetica,sans-Serif" font-size="10.00"> &amp;&amp;cb)</text>
<text text-anchor="start" x="141.08" y="-35" font-family="Helvetica,sans-Serif" font-size="10.00">+</text>
<text text-anchor="start" x="150.5" y="-35" font-family="Helvetica,sans-Serif" font-size="10.00">bool needs_arg() const</text>
<text text-anchor="start" x="150.5" y="-25" font-family="Helvetica,sans-Serif" font-size="10.00"> noexcept override</text>
<text text-anchor="start" x="141.08" y="-11" font-family="Helvetica,sans-Serif" font-size="10.00">+</text>
<text text-anchor="start" x="150.5" y="-11" font-family="Helvetica,sans-Serif" font-size="10.00">void set() const override</text>
<polygon fill="#666666" stroke="#666666" points="137.5,-93 137.5,-93 260.5,-93 260.5,-93 137.5,-93"/>
<polygon fill="#666666" stroke="#666666" points="137.5,-69 137.5,-69 148.5,-69 148.5,-69 137.5,-69"/>
<polygon fill="#666666" stroke="#666666" points="148.5,-69 148.5,-69 260.5,-69 260.5,-69 148.5,-69"/>
<polygon fill="none" stroke="#666666" points="137,-5 137,-109 260,-109 260,-5 137,-5"/>
</a>
</g>
</g>
<!-- Node1&#45;&gt;Node3 -->
<g id="edge2_Node000001_Node000003" class="edge">
<title>Node1&#45;&gt;Node3</title>
<g id="a_edge2_Node000001_Node000003"><a xlink:title=" ">
<path fill="none" stroke="#63b8ff" d="M170.43,-140.2C174.1,-129.45 177.67,-119.01 180.95,-109.38"/>
<polygon fill="none" stroke="#63b8ff" points="167.1,-139.11 167.19,-149.71 173.73,-141.37 167.1,-139.11"/>
</a>
</g>
</g>
</g>
</svg>
