<?xml version="1.0" encoding="UTF-8" standalone="no"?>
<!DOCTYPE svg PUBLIC "-//W3C//DTD SVG 1.1//EN"
 "http://www.w3.org/Graphics/SVG/1.1/DTD/svg11.dtd">
<!-- Generated by graphviz version 2.48.0 (20210717.1556)
 -->
<!-- Title: epub::container::add Pages: 1 -->
<svg width="626pt" height="216pt"
 viewBox="0.00 0.00 625.84 216.00" xmlns="http://www.w3.org/2000/svg" xmlns:xlink="http://www.w3.org/1999/xlink">
<g id="graph0" class="graph" transform="scale(1 1) rotate(0) translate(4 212)">
<title>epub::container::add</title>
<!-- Node1 -->
<g id="Node000001" class="node">
<title>Node1</title>
<g id="a_Node000001"><a xlink:title="Add a file to the container.">
<polygon fill="#999999" stroke="#666666" points="107.27,-130 -0.09,-130 -0.09,-112 107.27,-112 107.27,-130"/>
<text text-anchor="middle" x="53.59" y="-118" font-family="Helvetica,sans-Serif" font-size="10.00">epub::container::add</text>
</a>
</g>
</g>
<!-- Node2 -->
<g id="Node000002" class="node">
<title>Node2</title>
<g id="a_Node000002"><a xlink:href="classepub_1_1package.html#af7f9775a7953713b225cc85cd4cb75f1" target="_top" xlink:title=" ">
<polygon fill="white" stroke="#666666" points="258.91,-205 155.2,-205 155.2,-177 258.91,-177 258.91,-205"/>
<text text-anchor="start" x="163.13" y="-193" font-family="Helvetica,sans-Serif" font-size="10.00">epub::package::add</text>
<text text-anchor="middle" x="207.06" y="-183" font-family="Helvetica,sans-Serif" font-size="10.00">_to_manifest</text>
</a>
</g>
</g>
<!-- Node1&#45;&gt;Node2 -->
<g id="edge1_Node000001_Node000002" class="edge">
<title>Node1&#45;&gt;Node2</title>
<g id="a_edge1_Node000001_Node000002"><a xlink:title=" ">
<path fill="none" stroke="#63b8ff" d="M74.08,-130.01C97.3,-140.74 136.66,-158.93 166.38,-172.66"/>
<polygon fill="#63b8ff" stroke="#63b8ff" points="165.1,-175.93 175.65,-176.95 168.04,-169.58 165.1,-175.93"/>
</a>
</g>
</g>
<!-- Node4 -->
<g id="Node000004" class="node">
<title>Node4</title>
<g id="a_Node000004"><a xlink:href="structepub_1_1file__metadata.html#a1860a627a4400926c2ea7c0f5dc3d28a" target="_top" xlink:title="Access a specified element.">
<polygon fill="white" stroke="#666666" points="268.86,-151 145.26,-151 145.26,-133 268.86,-133 268.86,-151"/>
<text text-anchor="middle" x="207.06" y="-139" font-family="Helvetica,sans-Serif" font-size="10.00">epub::file_metadata::get</text>
</a>
</g>
</g>
<!-- Node1&#45;&gt;Node4 -->
<g id="edge3_Node000001_Node000004" class="edge">
<title>Node1&#45;&gt;Node4</title>
<g id="a_edge3_Node000001_Node000004"><a xlink:title=" ">
<path fill="none" stroke="#63b8ff" d="M107.57,-128.34C116.52,-129.59 125.95,-130.89 135.28,-132.19"/>
<polygon fill="#63b8ff" stroke="#63b8ff" points="134.95,-135.67 145.33,-133.58 135.91,-128.74 134.95,-135.67"/>
</a>
</g>
</g>
<!-- Node5 -->
<g id="Node000005" class="node">
<title>Node5</title>
<g id="a_Node000005"><a xlink:href="namespaceepub_1_1xml.html#af7cb46a3f8e02006f205fc5d4461363e" target="_top" xlink:title=" ">
<polygon fill="white" stroke="#666666" points="261.32,-115 152.79,-115 152.79,-87 261.32,-87 261.32,-115"/>
<text text-anchor="start" x="160.92" y="-103" font-family="Helvetica,sans-Serif" font-size="10.00">epub::xml::get_xhtml</text>
<text text-anchor="middle" x="207.06" y="-93" font-family="Helvetica,sans-Serif" font-size="10.00">_metadata</text>
</a>
</g>
</g>
<!-- Node1&#45;&gt;Node5 -->
<g id="edge4_Node000001_Node000005" class="edge">
<title>Node1&#45;&gt;Node5</title>
<g id="a_edge4_Node000001_Node000005"><a xlink:title=" ">
<path fill="none" stroke="#63b8ff" d="M107.57,-114C118.91,-112.51 131.01,-110.91 142.71,-109.36"/>
<polygon fill="#63b8ff" stroke="#63b8ff" points="143.4,-112.8 152.85,-108.02 142.48,-105.86 143.4,-112.8"/>
</a>
</g>
</g>
<!-- Node12 -->
<g id="Node000012" class="node">
<title>Node12</title>
<g id="a_Node000012"><a xlink:href="namespaceepub.html#a23b48ddfbe26f7c4240f3772b035a163" target="_top" xlink:title="Guess the MIME type based on the file extension.">
<polygon fill="white" stroke="#666666" points="270.8,-69 143.31,-69 143.31,-51 270.8,-51 270.8,-69"/>
<text text-anchor="middle" x="207.06" y="-57" font-family="Helvetica,sans-Serif" font-size="10.00">epub::guess_media_type</text>
</a>
</g>
</g>
<!-- Node1&#45;&gt;Node12 -->
<g id="edge11_Node000001_Node000012" class="edge">
<title>Node1&#45;&gt;Node12</title>
<g id="a_edge11_Node000001_Node000012"><a xlink:title=" ">
<path fill="none" stroke="#63b8ff" d="M71.19,-111.87C88.71,-102.49 117.31,-87.9 143.18,-78 148.75,-75.87 154.68,-73.85 160.59,-72"/>
<polygon fill="#63b8ff" stroke="#63b8ff" points="161.89,-75.27 170.45,-69.03 159.87,-68.56 161.89,-75.27"/>
</a>
</g>
</g>
<!-- Node3 -->
<g id="Node000003" class="node">
<title>Node3</title>
<g id="a_Node000003"><a xlink:href="namespaceepub.html#a066b00e6e19cee9ebbb898c4182c0ad0" target="_top" xlink:title="Generate a XML ID.">
<polygon fill="white" stroke="#666666" points="427.25,-208 331,-208 331,-190 427.25,-190 427.25,-208"/>
<text text-anchor="middle" x="379.13" y="-196" font-family="Helvetica,sans-Serif" font-size="10.00">epub::generate_id</text>
</a>
</g>
</g>
<!-- Node2&#45;&gt;Node3 -->
<g id="edge2_Node000002_Node000003" class="edge">
<title>Node2&#45;&gt;Node3</title>
<g id="a_edge2_Node000002_Node000003"><a xlink:title=" ">
<path fill="none" stroke="#63b8ff" d="M259.08,-193.4C278.5,-194.31 300.74,-195.36 320.71,-196.3"/>
<polygon fill="#63b8ff" stroke="#63b8ff" points="320.76,-199.81 330.91,-196.78 321.09,-192.81 320.76,-199.81"/>
</a>
</g>
</g>
<!-- Node6 -->
<g id="Node000006" class="node">
<title>Node6</title>
<g id="a_Node000006"><a xlink:href="namespaceepub_1_1xml_1_1xpath.html#a3ddb6b7c8b6f479466d5f5e6744ba73f" target="_top" xlink:title=" ">
<polygon fill="white" stroke="#666666" points="435.9,-172 322.35,-172 322.35,-154 435.9,-154 435.9,-172"/>
<text text-anchor="middle" x="379.13" y="-160" font-family="Helvetica,sans-Serif" font-size="10.00">epub::xml::xpath::eval</text>
</a>
</g>
</g>
<!-- Node5&#45;&gt;Node6 -->
<g id="edge5_Node000005_Node000006" class="edge">
<title>Node5&#45;&gt;Node6</title>
<g id="a_edge5_Node000005_Node000006"><a xlink:title=" ">
<path fill="none" stroke="#63b8ff" d="M249.75,-115.07C256.9,-117.82 264.2,-120.84 270.93,-124 287.69,-131.88 289.78,-137.99 306.93,-145 312.45,-147.26 318.33,-149.29 324.25,-151.1"/>
<polygon fill="#63b8ff" stroke="#63b8ff" points="323.63,-154.56 334.2,-153.95 325.56,-147.83 323.63,-154.56"/>
</a>
</g>
</g>
<!-- Node8 -->
<g id="Node000008" class="node">
<title>Node8</title>
<g id="a_Node000008"><a xlink:href="namespaceepub_1_1xml.html#adb9b3025131fbd5e1dda00e726b90a2e" target="_top" xlink:title=" ">
<polygon fill="white" stroke="#666666" points="439.14,-136 319.12,-136 319.12,-118 439.14,-118 439.14,-136"/>
<text text-anchor="middle" x="379.13" y="-124" font-family="Helvetica,sans-Serif" font-size="10.00">epub::xml::get_attribute</text>
</a>
</g>
</g>
<!-- Node5&#45;&gt;Node8 -->
<g id="edge7_Node000005_Node000008" class="edge">
<title>Node5&#45;&gt;Node8</title>
<g id="a_edge7_Node000005_Node000008"><a xlink:title=" ">
<path fill="none" stroke="#63b8ff" d="M261.4,-109.16C276.42,-111.45 292.99,-113.98 308.8,-116.4"/>
<polygon fill="#63b8ff" stroke="#63b8ff" points="308.65,-119.92 319.06,-117.97 309.7,-113 308.65,-119.92"/>
</a>
</g>
</g>
<!-- Node9 -->
<g id="Node000009" class="node">
<title>Node9</title>
<g id="a_Node000009"><a xlink:href="namespaceepub_1_1xml_1_1xpath.html#a744d92700f8fe704d7c4171125ffb50e" target="_top" xlink:title=" ">
<polygon fill="white" stroke="#666666" points="435.9,-100 322.35,-100 322.35,-72 435.9,-72 435.9,-100"/>
<text text-anchor="start" x="330.49" y="-88" font-family="Helvetica,sans-Serif" font-size="10.00">epub::xml::xpath::new</text>
<text text-anchor="middle" x="379.13" y="-78" font-family="Helvetica,sans-Serif" font-size="10.00">_context</text>
</a>
</g>
</g>
<!-- Node5&#45;&gt;Node9 -->
<g id="edge8_Node000005_Node000009" class="edge">
<title>Node5&#45;&gt;Node9</title>
<g id="a_edge8_Node000005_Node000009"><a xlink:title=" ">
<path fill="none" stroke="#63b8ff" d="M261.4,-96.3C277.46,-94.88 295.27,-93.31 312.04,-91.83"/>
<polygon fill="#63b8ff" stroke="#63b8ff" points="312.68,-95.29 322.33,-90.92 312.06,-88.31 312.68,-95.29"/>
</a>
</g>
</g>
<!-- Node10 -->
<g id="Node000010" class="node">
<title>Node10</title>
<g id="a_Node000010"><a xlink:href="namespaceepub_1_1xml.html#aaf0bffb7886a36821341a97094892086" target="_top" xlink:title=" ">
<polygon fill="white" stroke="#666666" points="430.9,-54 327.36,-54 327.36,-36 430.9,-36 430.9,-54"/>
<text text-anchor="middle" x="379.13" y="-42" font-family="Helvetica,sans-Serif" font-size="10.00">epub::xml::read_file</text>
</a>
</g>
</g>
<!-- Node5&#45;&gt;Node10 -->
<g id="edge9_Node000005_Node000010" class="edge">
<title>Node5&#45;&gt;Node10</title>
<g id="a_edge9_Node000005_Node000010"><a xlink:title=" ">
<path fill="none" stroke="#63b8ff" d="M247.4,-86.91C255.22,-84.03 263.35,-80.96 270.93,-78 287.07,-71.69 290.48,-68.47 306.93,-63 313.75,-60.73 321.02,-58.59 328.21,-56.63"/>
<polygon fill="#63b8ff" stroke="#63b8ff" points="329.14,-60 337.91,-54.07 327.35,-53.23 329.14,-60"/>
</a>
</g>
</g>
<!-- Node11 -->
<g id="Node000011" class="node">
<title>Node11</title>
<g id="a_Node000011"><a xlink:href="namespaceepub_1_1xml_1_1xpath.html#a543037a98da24d06682a680af1173d70" target="_top" xlink:title=" ">
<polygon fill="white" stroke="#666666" points="451.53,-18 306.73,-18 306.73,0 451.53,0 451.53,-18"/>
<text text-anchor="middle" x="379.13" y="-6" font-family="Helvetica,sans-Serif" font-size="10.00">epub::xml::xpath::register_ns</text>
</a>
</g>
</g>
<!-- Node5&#45;&gt;Node11 -->
<g id="edge10_Node000005_Node000011" class="edge">
<title>Node5&#45;&gt;Node11</title>
<g id="a_edge10_Node000005_Node000011"><a xlink:title=" ">
<path fill="none" stroke="#63b8ff" d="M256.03,-87C261.31,-84.44 266.41,-81.46 270.93,-78 292.96,-61.13 284.06,-42.71 306.93,-27 309.53,-25.22 312.28,-23.61 315.15,-22.16"/>
<polygon fill="#63b8ff" stroke="#63b8ff" points="316.82,-25.25 324.59,-18.06 314.03,-18.83 316.82,-25.25"/>
</a>
</g>
</g>
<!-- Node7 -->
<g id="Node000007" class="node">
<title>Node7</title>
<g id="a_Node000007"><a xlink:href="namespaceepub_1_1xml_1_1xpath.html#aa18238d88cd31a713575de9b3e3892a1" target="_top" xlink:title=" ">
<polygon fill="white" stroke="#666666" points="617.6,-172 487.57,-172 487.57,-154 617.6,-154 617.6,-172"/>
<text text-anchor="middle" x="552.59" y="-160" font-family="Helvetica,sans-Serif" font-size="10.00">epub::xml::xpath::nodeset</text>
</a>
</g>
</g>
<!-- Node6&#45;&gt;Node7 -->
<g id="edge6_Node000006_Node000007" class="edge">
<title>Node6&#45;&gt;Node7</title>
<g id="a_edge6_Node000006_Node000007"><a xlink:title=" ">
<path fill="none" stroke="#63b8ff" d="M435.8,-163C449.09,-163 463.5,-163 477.48,-163"/>
<polygon fill="#63b8ff" stroke="#63b8ff" points="477.56,-166.5 487.56,-163 477.56,-159.5 477.56,-166.5"/>
</a>
</g>
</g>
</g>
</svg>
