<?xml version="1.0" encoding="UTF-8" standalone="no"?>
<!DOCTYPE svg PUBLIC "-//W3C//DTD SVG 1.1//EN"
 "http://www.w3.org/Graphics/SVG/1.1/DTD/svg11.dtd">
<!-- Generated by graphviz version 2.48.0 (20210717.1556)
 -->
<!-- Title: epub::metadata Pages: 1 -->
<svg width="496pt" height="1287pt"
 viewBox="0.00 0.00 495.87 1287.00" xmlns="http://www.w3.org/2000/svg" xmlns:xlink="http://www.w3.org/1999/xlink">
<g id="graph0" class="graph" transform="scale(1 1) rotate(0) translate(4 1283)">
<title>epub::metadata</title>
<!-- Node1 -->
<g id="Node000001" class="node">
<title>Node1</title>
<g id="a_Node000001"><a xlink:title="The metadata component of the package document.">
<polygon fill="#999999" stroke="transparent" points="179.37,-586 57.37,-586 57.37,0 179.37,0 179.37,-586"/>
<text text-anchor="start" x="83.62" y="-574" font-family="Helvetica,sans-Serif" font-size="10.00">epub::metadata</text>
<text text-anchor="start" x="62.2" y="-560" font-family="Helvetica,sans-Serif" font-size="10.00">&#45;</text>
<text text-anchor="start" x="70.37" y="-560" font-family="Helvetica,sans-Serif" font-size="10.00">bool _pre_paginated</text>
<text text-anchor="start" x="60.95" y="-546" font-family="Helvetica,sans-Serif" font-size="10.00">+</text>
<text text-anchor="start" x="70.37" y="-546" font-family="Helvetica,sans-Serif" font-size="10.00">metadata()</text>
<text text-anchor="start" x="60.95" y="-532" font-family="Helvetica,sans-Serif" font-size="10.00">+</text>
<text text-anchor="start" x="70.37" y="-532" font-family="Helvetica,sans-Serif" font-size="10.00">void pre_paginated()</text>
<text text-anchor="start" x="60.95" y="-518" font-family="Helvetica,sans-Serif" font-size="10.00">+</text>
<text text-anchor="start" x="70.37" y="-518" font-family="Helvetica,sans-Serif" font-size="10.00">void reflow()</text>
<text text-anchor="start" x="60.95" y="-504" font-family="Helvetica,sans-Serif" font-size="10.00">+</text>
<text text-anchor="start" x="70.37" y="-504" font-family="Helvetica,sans-Serif" font-size="10.00">std::u8string layout</text>
<text text-anchor="start" x="70.37" y="-494" font-family="Helvetica,sans-Serif" font-size="10.00">() const</text>
<text text-anchor="start" x="60.95" y="-480" font-family="Helvetica,sans-Serif" font-size="10.00">+</text>
<text text-anchor="start" x="70.37" y="-480" font-family="Helvetica,sans-Serif" font-size="10.00">const std::u8string</text>
<text text-anchor="start" x="70.37" y="-470" font-family="Helvetica,sans-Serif" font-size="10.00"> identifier() const</text>
<text text-anchor="start" x="60.95" y="-456" font-family="Helvetica,sans-Serif" font-size="10.00">+</text>
<text text-anchor="start" x="70.37" y="-456" font-family="Helvetica,sans-Serif" font-size="10.00">void identifier(std</text>
<text text-anchor="start" x="70.37" y="-446" font-family="Helvetica,sans-Serif" font-size="10.00">::u8string identifier)</text>
<text text-anchor="start" x="60.95" y="-432" font-family="Helvetica,sans-Serif" font-size="10.00">+</text>
<text text-anchor="start" x="70.37" y="-432" font-family="Helvetica,sans-Serif" font-size="10.00">const std::u8string</text>
<text text-anchor="start" x="70.37" y="-422" font-family="Helvetica,sans-Serif" font-size="10.00"> title() const</text>
<text text-anchor="start" x="60.95" y="-408" font-family="Helvetica,sans-Serif" font-size="10.00">+</text>
<text text-anchor="start" x="70.37" y="-408" font-family="Helvetica,sans-Serif" font-size="10.00">void title(std::u8string</text>
<text text-anchor="start" x="70.37" y="-398" font-family="Helvetica,sans-Serif" font-size="10.00"> title)</text>
<text text-anchor="start" x="60.95" y="-384" font-family="Helvetica,sans-Serif" font-size="10.00">+</text>
<text text-anchor="start" x="70.37" y="-384" font-family="Helvetica,sans-Serif" font-size="10.00">const std::u8string</text>
<text text-anchor="start" x="70.37" y="-374" font-family="Helvetica,sans-Serif" font-size="10.00"> language() const</text>
<text text-anchor="start" x="60.95" y="-360" font-family="Helvetica,sans-Serif" font-size="10.00">+</text>
<text text-anchor="start" x="70.37" y="-360" font-family="Helvetica,sans-Serif" font-size="10.00">const std::u8string</text>
<text text-anchor="start" x="70.37" y="-350" font-family="Helvetica,sans-Serif" font-size="10.00"> description() const</text>
<text text-anchor="start" x="60.95" y="-336" font-family="Helvetica,sans-Serif" font-size="10.00">+</text>
<text text-anchor="start" x="70.37" y="-336" font-family="Helvetica,sans-Serif" font-size="10.00">void description(std</text>
<text text-anchor="start" x="70.37" y="-326" font-family="Helvetica,sans-Serif" font-size="10.00">::u8string description)</text>
<text text-anchor="start" x="60.95" y="-312" font-family="Helvetica,sans-Serif" font-size="10.00">+</text>
<text text-anchor="start" x="70.37" y="-312" font-family="Helvetica,sans-Serif" font-size="10.00">const auto &amp; creators</text>
<text text-anchor="start" x="70.37" y="-302" font-family="Helvetica,sans-Serif" font-size="10.00">() const</text>
<text text-anchor="start" x="60.95" y="-288" font-family="Helvetica,sans-Serif" font-size="10.00">+</text>
<text text-anchor="start" x="70.37" y="-288" font-family="Helvetica,sans-Serif" font-size="10.00">auto &amp; creators()</text>
<text text-anchor="start" x="60.95" y="-274" font-family="Helvetica,sans-Serif" font-size="10.00">+</text>
<text text-anchor="start" x="70.37" y="-274" font-family="Helvetica,sans-Serif" font-size="10.00">const auto &amp; collections</text>
<text text-anchor="start" x="70.37" y="-264" font-family="Helvetica,sans-Serif" font-size="10.00">() const</text>
<text text-anchor="start" x="60.95" y="-250" font-family="Helvetica,sans-Serif" font-size="10.00">+</text>
<text text-anchor="start" x="70.37" y="-250" font-family="Helvetica,sans-Serif" font-size="10.00">auto &amp; collections()</text>
<text text-anchor="start" x="61.92" y="-236" font-family="Helvetica,sans-Serif" font-size="10.00">*</text>
<text text-anchor="start" x="70.37" y="-236" font-family="Helvetica,sans-Serif" font-size="10.00">const std::u8string</text>
<text text-anchor="start" x="70.37" y="-226" font-family="Helvetica,sans-Serif" font-size="10.00"> identifier() const</text>
<text text-anchor="start" x="61.92" y="-212" font-family="Helvetica,sans-Serif" font-size="10.00">*</text>
<text text-anchor="start" x="70.37" y="-212" font-family="Helvetica,sans-Serif" font-size="10.00">void identifier(std</text>
<text text-anchor="start" x="70.37" y="-202" font-family="Helvetica,sans-Serif" font-size="10.00">::u8string identifier)</text>
<text text-anchor="start" x="61.92" y="-188" font-family="Helvetica,sans-Serif" font-size="10.00">*</text>
<text text-anchor="start" x="70.37" y="-188" font-family="Helvetica,sans-Serif" font-size="10.00">const std::u8string</text>
<text text-anchor="start" x="70.37" y="-178" font-family="Helvetica,sans-Serif" font-size="10.00"> title() const</text>
<text text-anchor="start" x="61.92" y="-164" font-family="Helvetica,sans-Serif" font-size="10.00">*</text>
<text text-anchor="start" x="70.37" y="-164" font-family="Helvetica,sans-Serif" font-size="10.00">void title(std::u8string</text>
<text text-anchor="start" x="70.37" y="-154" font-family="Helvetica,sans-Serif" font-size="10.00"> title)</text>
<text text-anchor="start" x="61.92" y="-140" font-family="Helvetica,sans-Serif" font-size="10.00">*</text>
<text text-anchor="start" x="70.37" y="-140" font-family="Helvetica,sans-Serif" font-size="10.00">const std::u8string</text>
<text text-anchor="start" x="70.37" y="-130" font-family="Helvetica,sans-Serif" font-size="10.00"> language() const</text>
<text text-anchor="start" x="61.92" y="-116" font-family="Helvetica,sans-Serif" font-size="10.00">*</text>
<text text-anchor="start" x="70.37" y="-116" font-family="Helvetica,sans-Serif" font-size="10.00">const std::u8string</text>
<text text-anchor="start" x="70.37" y="-106" font-family="Helvetica,sans-Serif" font-size="10.00"> description() const</text>
<text text-anchor="start" x="61.92" y="-92" font-family="Helvetica,sans-Serif" font-size="10.00">*</text>
<text text-anchor="start" x="70.37" y="-92" font-family="Helvetica,sans-Serif" font-size="10.00">void description(std</text>
<text text-anchor="start" x="70.37" y="-82" font-family="Helvetica,sans-Serif" font-size="10.00">::u8string description)</text>
<text text-anchor="start" x="61.92" y="-68" font-family="Helvetica,sans-Serif" font-size="10.00">*</text>
<text text-anchor="start" x="70.37" y="-68" font-family="Helvetica,sans-Serif" font-size="10.00">const auto &amp; creators</text>
<text text-anchor="start" x="70.37" y="-58" font-family="Helvetica,sans-Serif" font-size="10.00">() const</text>
<text text-anchor="start" x="61.92" y="-44" font-family="Helvetica,sans-Serif" font-size="10.00">*</text>
<text text-anchor="start" x="70.37" y="-44" font-family="Helvetica,sans-Serif" font-size="10.00">auto &amp; creators()</text>
<text text-anchor="start" x="61.92" y="-30" font-family="Helvetica,sans-Serif" font-size="10.00">*</text>
<text text-anchor="start" x="70.37" y="-30" font-family="Helvetica,sans-Serif" font-size="10.00">const auto &amp; collections</text>
<text text-anchor="start" x="70.37" y="-20" font-family="Helvetica,sans-Serif" font-size="10.00">() const</text>
<text text-anchor="start" x="61.92" y="-6" font-family="Helvetica,sans-Serif" font-size="10.00">*</text>
<text text-anchor="start" x="70.37" y="-6" font-family="Helvetica,sans-Serif" font-size="10.00">auto &amp; collections()</text>
<polygon fill="#666666" stroke="#666666" points="57.37,-570 57.37,-570 179.37,-570 179.37,-570 57.37,-570"/>
<polygon fill="#666666" stroke="#666666" points="57.37,-556 57.37,-556 68.37,-556 68.37,-556 57.37,-556"/>
<polygon fill="#666666" stroke="#666666" points="68.37,-556 68.37,-556 179.37,-556 179.37,-556 68.37,-556"/>
<polygon fill="none" stroke="#666666" points="57.37,0 57.37,-586 179.37,-586 179.37,0 57.37,0"/>
</a>
</g>
</g>
<!-- Node2 -->
<g id="Node000002" class="node">
<title>Node2</title>
<g id="a_Node000002"><a xlink:title=" ">
<polygon fill="white" stroke="transparent" points="150.37,-1186 86.37,-1186 86.37,-1140 150.37,-1140 150.37,-1186"/>
<text text-anchor="start" x="91.13" y="-1174" font-family="Helvetica,sans-Serif" font-size="10.00">std::u8string</text>
<text text-anchor="start" x="116.98" y="-1160" font-family="Helvetica,sans-Serif" font-size="10.00"> </text>
<text text-anchor="start" x="116.98" y="-1146" font-family="Helvetica,sans-Serif" font-size="10.00"> </text>
<polygon fill="#666666" stroke="#666666" points="86.37,-1170 86.37,-1170 150.37,-1170 150.37,-1170 86.37,-1170"/>
<polygon fill="#666666" stroke="#666666" points="86.37,-1156 86.37,-1156 150.37,-1156 150.37,-1156 86.37,-1156"/>
<polygon fill="none" stroke="#666666" points="86.37,-1140 86.37,-1186 150.37,-1186 150.37,-1140 86.37,-1140"/>
</a>
</g>
</g>
<!-- Node2&#45;&gt;Node1 -->
<g id="edge1_Node000001_Node000002" class="edge">
<title>Node2&#45;&gt;Node1</title>
<g id="a_edge1_Node000001_Node000002"><a xlink:title=" ">
<path fill="none" stroke="#63b8ff" d="M90.3,-1139.94C72.25,-1123.86 50.36,-1100.34 40.37,-1074 -32.98,-880.66 8.22,-642.04 53.83,-480.01"/>
<polygon fill="none" stroke="#63b8ff" points="53.97,-479.53 51.77,-472.66 57.26,-467.99 59.46,-474.85 53.97,-479.53"/>
</a>
</g>
<text text-anchor="middle" x="37.38" y="-738" font-family="Helvetica,sans-Serif" font-size="10.00" fill="grey"> &#45;_description</text>
<text text-anchor="middle" x="37.38" y="-728" font-family="Helvetica,sans-Serif" font-size="10.00" fill="grey">&#45;_identifier</text>
<text text-anchor="middle" x="37.38" y="-718" font-family="Helvetica,sans-Serif" font-size="10.00" fill="grey">&#45;_language</text>
<text text-anchor="middle" x="37.38" y="-708" font-family="Helvetica,sans-Serif" font-size="10.00" fill="grey">&#45;_title</text>
</g>
<!-- Node5 -->
<g id="Node000005" class="node">
<title>Node5</title>
<g id="a_Node000005"><a xlink:href="classepub_1_1creator.html" target="_top" xlink:title="An individual or organizational creator.">
<polygon fill="white" stroke="transparent" points="187.37,-997 49.37,-997 49.37,-841 187.37,-841 187.37,-997"/>
<text text-anchor="start" x="88.9" y="-985" font-family="Helvetica,sans-Serif" font-size="10.00">epub::creator</text>
<text text-anchor="start" x="116.98" y="-971" font-family="Helvetica,sans-Serif" font-size="10.00"> </text>
<text text-anchor="start" x="52.95" y="-957" font-family="Helvetica,sans-Serif" font-size="10.00">+</text>
<text text-anchor="start" x="62.37" y="-957" font-family="Helvetica,sans-Serif" font-size="10.00">creator(std::u8string</text>
<text text-anchor="start" x="62.37" y="-947" font-family="Helvetica,sans-Serif" font-size="10.00"> name)</text>
<text text-anchor="start" x="52.95" y="-933" font-family="Helvetica,sans-Serif" font-size="10.00">+</text>
<text text-anchor="start" x="62.37" y="-933" font-family="Helvetica,sans-Serif" font-size="10.00">operator const std</text>
<text text-anchor="start" x="62.37" y="-923" font-family="Helvetica,sans-Serif" font-size="10.00">::u8string &amp;() const</text>
<text text-anchor="start" x="52.95" y="-909" font-family="Helvetica,sans-Serif" font-size="10.00">+</text>
<text text-anchor="start" x="62.37" y="-909" font-family="Helvetica,sans-Serif" font-size="10.00">const std::u8string</text>
<text text-anchor="start" x="62.37" y="-899" font-family="Helvetica,sans-Serif" font-size="10.00"> &amp; file_as() const</text>
<text text-anchor="start" x="52.95" y="-885" font-family="Helvetica,sans-Serif" font-size="10.00">+</text>
<text text-anchor="start" x="62.37" y="-885" font-family="Helvetica,sans-Serif" font-size="10.00">void file_as(auto &amp;&amp;file_as)</text>
<text text-anchor="start" x="52.95" y="-871" font-family="Helvetica,sans-Serif" font-size="10.00">+</text>
<text text-anchor="start" x="62.37" y="-871" font-family="Helvetica,sans-Serif" font-size="10.00">const std::u8string</text>
<text text-anchor="start" x="62.37" y="-861" font-family="Helvetica,sans-Serif" font-size="10.00"> &amp; role() const</text>
<text text-anchor="start" x="52.95" y="-847" font-family="Helvetica,sans-Serif" font-size="10.00">+</text>
<text text-anchor="start" x="62.37" y="-847" font-family="Helvetica,sans-Serif" font-size="10.00">void role(auto &amp;&amp;role)</text>
<polygon fill="#666666" stroke="#666666" points="49.37,-981 49.37,-981 187.37,-981 187.37,-981 49.37,-981"/>
<polygon fill="#666666" stroke="#666666" points="49.37,-967 49.37,-967 187.37,-967 187.37,-967 49.37,-967"/>
<polygon fill="none" stroke="#666666" points="49.37,-841 49.37,-997 187.37,-997 187.37,-841 49.37,-841"/>
</a>
</g>
</g>
<!-- Node2&#45;&gt;Node5 -->
<g id="edge5_Node000005_Node000002" class="edge">
<title>Node2&#45;&gt;Node5</title>
<g id="a_edge5_Node000005_Node000002"><a xlink:title=" ">
<path fill="none" stroke="#63b8ff" d="M118.37,-1139.67C118.37,-1110.12 118.37,-1056.28 118.37,-1009.31"/>
<polygon fill="none" stroke="#63b8ff" points="118.37,-1009.21 114.37,-1003.21 118.37,-997.21 122.37,-1003.21 118.37,-1009.21"/>
</a>
</g>
<text text-anchor="middle" x="138.66" y="-1114" font-family="Helvetica,sans-Serif" font-size="10.00" fill="grey"> &#45;_file_as</text>
<text text-anchor="middle" x="138.66" y="-1104" font-family="Helvetica,sans-Serif" font-size="10.00" fill="grey">&#45;_name</text>
<text text-anchor="middle" x="138.66" y="-1094" font-family="Helvetica,sans-Serif" font-size="10.00" fill="grey">&#45;_role</text>
</g>
<!-- Node9 -->
<g id="Node000009" class="node">
<title>Node9</title>
<g id="a_Node000009"><a xlink:href="classepub_1_1collection.html" target="_top" xlink:title="An indication that the publication is part of a larger set.">
<polygon fill="white" stroke="transparent" points="335.37,-1074 205.37,-1074 205.37,-764 335.37,-764 335.37,-1074"/>
<text text-anchor="start" x="235.62" y="-1062" font-family="Helvetica,sans-Serif" font-size="10.00">epub::collection</text>
<text text-anchor="start" x="210.2" y="-1048" font-family="Helvetica,sans-Serif" font-size="10.00">&#45;</text>
<text text-anchor="start" x="218.37" y="-1048" font-family="Helvetica,sans-Serif" font-size="10.00">type _type</text>
<text text-anchor="start" x="208.95" y="-1034" font-family="Helvetica,sans-Serif" font-size="10.00">+</text>
<text text-anchor="start" x="218.37" y="-1034" font-family="Helvetica,sans-Serif" font-size="10.00">collection(std::u8string</text>
<text text-anchor="start" x="218.37" y="-1024" font-family="Helvetica,sans-Serif" font-size="10.00"> name)</text>
<text text-anchor="start" x="208.95" y="-1010" font-family="Helvetica,sans-Serif" font-size="10.00">+</text>
<text text-anchor="start" x="218.37" y="-1010" font-family="Helvetica,sans-Serif" font-size="10.00">collection(const collection</text>
<text text-anchor="start" x="218.37" y="-1000" font-family="Helvetica,sans-Serif" font-size="10.00"> &amp;)=default</text>
<text text-anchor="start" x="208.95" y="-986" font-family="Helvetica,sans-Serif" font-size="10.00">+</text>
<text text-anchor="start" x="218.37" y="-986" font-family="Helvetica,sans-Serif" font-size="10.00">collection(collection</text>
<text text-anchor="start" x="218.37" y="-976" font-family="Helvetica,sans-Serif" font-size="10.00"> &amp;&amp;)=default</text>
<text text-anchor="start" x="208.95" y="-962" font-family="Helvetica,sans-Serif" font-size="10.00">+</text>
<text text-anchor="start" x="218.37" y="-962" font-family="Helvetica,sans-Serif" font-size="10.00">~collection()=default</text>
<text text-anchor="start" x="208.95" y="-948" font-family="Helvetica,sans-Serif" font-size="10.00">+</text>
<text text-anchor="start" x="218.37" y="-948" font-family="Helvetica,sans-Serif" font-size="10.00">collection &amp; operator</text>
<text text-anchor="start" x="218.37" y="-938" font-family="Helvetica,sans-Serif" font-size="10.00">=(const collection &amp;)</text>
<text text-anchor="start" x="218.37" y="-928" font-family="Helvetica,sans-Serif" font-size="10.00">=default</text>
<text text-anchor="start" x="208.95" y="-914" font-family="Helvetica,sans-Serif" font-size="10.00">+</text>
<text text-anchor="start" x="218.37" y="-914" font-family="Helvetica,sans-Serif" font-size="10.00">collection &amp; operator</text>
<text text-anchor="start" x="218.37" y="-904" font-family="Helvetica,sans-Serif" font-size="10.00">=(collection &amp;&amp;)=default</text>
<text text-anchor="start" x="208.95" y="-890" font-family="Helvetica,sans-Serif" font-size="10.00">+</text>
<text text-anchor="start" x="218.37" y="-890" font-family="Helvetica,sans-Serif" font-size="10.00">operator const std</text>
<text text-anchor="start" x="218.37" y="-880" font-family="Helvetica,sans-Serif" font-size="10.00">::u8string &amp;() const</text>
<text text-anchor="start" x="208.95" y="-866" font-family="Helvetica,sans-Serif" font-size="10.00">+</text>
<text text-anchor="start" x="218.37" y="-866" font-family="Helvetica,sans-Serif" font-size="10.00">enum type type() const</text>
<text text-anchor="start" x="208.95" y="-852" font-family="Helvetica,sans-Serif" font-size="10.00">+</text>
<text text-anchor="start" x="218.37" y="-852" font-family="Helvetica,sans-Serif" font-size="10.00">void type(enum type</text>
<text text-anchor="start" x="218.37" y="-842" font-family="Helvetica,sans-Serif" font-size="10.00"> type)</text>
<text text-anchor="start" x="208.95" y="-828" font-family="Helvetica,sans-Serif" font-size="10.00">+</text>
<text text-anchor="start" x="218.37" y="-828" font-family="Helvetica,sans-Serif" font-size="10.00">std::u8string group</text>
<text text-anchor="start" x="218.37" y="-818" font-family="Helvetica,sans-Serif" font-size="10.00">_position() const</text>
<text text-anchor="start" x="208.95" y="-804" font-family="Helvetica,sans-Serif" font-size="10.00">+</text>
<text text-anchor="start" x="218.37" y="-804" font-family="Helvetica,sans-Serif" font-size="10.00">void group_position</text>
<text text-anchor="start" x="218.37" y="-794" font-family="Helvetica,sans-Serif" font-size="10.00">(unsigned position)</text>
<text text-anchor="start" x="208.95" y="-780" font-family="Helvetica,sans-Serif" font-size="10.00">+</text>
<text text-anchor="start" x="218.37" y="-780" font-family="Helvetica,sans-Serif" font-size="10.00">void group_position</text>
<text text-anchor="start" x="218.37" y="-770" font-family="Helvetica,sans-Serif" font-size="10.00">(std::u8string position)</text>
<polygon fill="#666666" stroke="#666666" points="205.37,-1058 205.37,-1058 335.37,-1058 335.37,-1058 205.37,-1058"/>
<polygon fill="#666666" stroke="#666666" points="205.37,-1044 205.37,-1044 216.37,-1044 216.37,-1044 205.37,-1044"/>
<polygon fill="#666666" stroke="#666666" points="216.37,-1044 216.37,-1044 335.37,-1044 335.37,-1044 216.37,-1044"/>
<polygon fill="none" stroke="#666666" points="205.37,-764 205.37,-1074 335.37,-1074 335.37,-764 205.37,-764"/>
</a>
</g>
</g>
<!-- Node2&#45;&gt;Node9 -->
<g id="edge10_Node000009_Node000002" class="edge">
<title>Node2&#45;&gt;Node9</title>
<g id="a_edge10_Node000009_Node000002"><a xlink:title=" ">
<path fill="none" stroke="#63b8ff" d="M145.55,-1139.74C151.69,-1134.21 157.97,-1128.11 163.37,-1122 176.2,-1107.46 188.03,-1091.12 198.78,-1074.18"/>
<polygon fill="none" stroke="#63b8ff" points="199.02,-1073.78 198.77,-1066.58 205.33,-1063.57 205.58,-1070.78 199.02,-1073.78"/>
</a>
</g>
<text text-anchor="middle" x="224.01" y="-1109" font-family="Helvetica,sans-Serif" font-size="10.00" fill="grey"> &#45;_group_position</text>
<text text-anchor="middle" x="224.01" y="-1099" font-family="Helvetica,sans-Serif" font-size="10.00" fill="grey">&#45;_name</text>
</g>
<!-- Node3 -->
<g id="Node000003" class="node">
<title>Node3</title>
<g id="a_Node000003"><a xlink:title=" ">
<polygon fill="white" stroke="transparent" points="162.37,-1279 74.37,-1279 74.37,-1223 162.37,-1223 162.37,-1279"/>
<text text-anchor="start" x="79.32" y="-1267" font-family="Helvetica,sans-Serif" font-size="10.00">std::basic_string&lt;</text>
<text text-anchor="start" x="101.83" y="-1257" font-family="Helvetica,sans-Serif" font-size="10.00"> Char &gt;</text>
<text text-anchor="start" x="116.98" y="-1243" font-family="Helvetica,sans-Serif" font-size="10.00"> </text>
<text text-anchor="start" x="116.98" y="-1229" font-family="Helvetica,sans-Serif" font-size="10.00"> </text>
<polygon fill="#666666" stroke="#666666" points="74.37,-1253 74.37,-1253 162.37,-1253 162.37,-1253 74.37,-1253"/>
<polygon fill="#666666" stroke="#666666" points="74.37,-1239 74.37,-1239 162.37,-1239 162.37,-1239 74.37,-1239"/>
<polygon fill="none" stroke="#666666" points="74.37,-1223 74.37,-1279 162.37,-1279 162.37,-1223 74.37,-1223"/>
</a>
</g>
</g>
<!-- Node3&#45;&gt;Node2 -->
<g id="edge2_Node000002_Node000003" class="edge">
<title>Node3&#45;&gt;Node2</title>
<g id="a_edge2_Node000002_Node000003"><a xlink:title=" ">
<path fill="none" stroke="#63b8ff" d="M118.37,-1212.78C118.37,-1203.7 118.37,-1194.27 118.37,-1186.15"/>
<polygon fill="none" stroke="#63b8ff" points="114.87,-1212.79 118.37,-1222.79 121.87,-1212.79 114.87,-1212.79"/>
</a>
</g>
</g>
<!-- Node4 -->
<g id="Node000004" class="node">
<title>Node4</title>
<g id="a_Node000004"><a xlink:title=" ">
<polygon fill="white" stroke="transparent" points="164.37,-688 72.37,-688 72.37,-632 164.37,-632 164.37,-688"/>
<text text-anchor="start" x="77.09" y="-676" font-family="Helvetica,sans-Serif" font-size="10.00">std::vector&lt; epub::</text>
<text text-anchor="start" x="98.5" y="-666" font-family="Helvetica,sans-Serif" font-size="10.00">creator &gt;</text>
<text text-anchor="start" x="116.98" y="-652" font-family="Helvetica,sans-Serif" font-size="10.00"> </text>
<text text-anchor="start" x="116.98" y="-638" font-family="Helvetica,sans-Serif" font-size="10.00"> </text>
<polygon fill="#666666" stroke="#666666" points="72.37,-662 72.37,-662 164.37,-662 164.37,-662 72.37,-662"/>
<polygon fill="#666666" stroke="#666666" points="72.37,-648 72.37,-648 164.37,-648 164.37,-648 72.37,-648"/>
<polygon fill="none" stroke="#666666" points="72.37,-632 72.37,-688 164.37,-688 164.37,-632 72.37,-632"/>
</a>
</g>
</g>
<!-- Node4&#45;&gt;Node1 -->
<g id="edge3_Node000001_Node000004" class="edge">
<title>Node4&#45;&gt;Node1</title>
<g id="a_edge3_Node000001_Node000004"><a xlink:title=" ">
<path fill="none" stroke="#63b8ff" d="M118.37,-631.86C118.37,-622.57 118.37,-611.23 118.37,-598.42"/>
<polygon fill="none" stroke="#63b8ff" points="118.37,-598.25 114.37,-592.25 118.37,-586.25 122.37,-592.25 118.37,-598.25"/>
</a>
</g>
<text text-anchor="middle" x="142.26" y="-606" font-family="Helvetica,sans-Serif" font-size="10.00" fill="grey"> &#45;_creators</text>
</g>
<!-- Node5&#45;&gt;Node4 -->
<g id="edge4_Node000004_Node000005" class="edge">
<title>Node5&#45;&gt;Node4</title>
<g id="a_edge4_Node000004_Node000005"><a xlink:title=" ">
<path fill="none" stroke="#63b8ff" d="M118.37,-840.89C118.37,-794.6 118.37,-737.66 118.37,-700.4"/>
<polygon fill="none" stroke="#63b8ff" points="118.37,-700.09 114.37,-694.09 118.37,-688.09 122.37,-694.09 118.37,-700.09"/>
</a>
</g>
<text text-anchor="middle" x="142.96" y="-723" font-family="Helvetica,sans-Serif" font-size="10.00" fill="grey"> +elements</text>
</g>
<!-- Node6 -->
<g id="Node000006" class="node">
<title>Node6</title>
<g id="a_Node000006"><a xlink:title=" ">
<polygon fill="white" stroke="transparent" points="436.87,-942 357.87,-942 357.87,-896 436.87,-896 436.87,-942"/>
<text text-anchor="start" x="363.31" y="-930" font-family="Helvetica,sans-Serif" font-size="10.00">std::vector&lt; T &gt;</text>
<text text-anchor="start" x="396.48" y="-916" font-family="Helvetica,sans-Serif" font-size="10.00"> </text>
<text text-anchor="start" x="396.48" y="-902" font-family="Helvetica,sans-Serif" font-size="10.00"> </text>
<polygon fill="#666666" stroke="#666666" points="358.37,-926 358.37,-926 437.37,-926 437.37,-926 358.37,-926"/>
<polygon fill="#666666" stroke="#666666" points="358.37,-912 358.37,-912 437.37,-912 437.37,-912 358.37,-912"/>
<polygon fill="none" stroke="#666666" points="357.87,-896 357.87,-942 436.87,-942 436.87,-896 357.87,-896"/>
</a>
</g>
</g>
<!-- Node6&#45;&gt;Node4 -->
<g id="edge6_Node000004_Node000006" class="edge">
<title>Node6&#45;&gt;Node4</title>
<g id="a_edge6_Node000004_Node000006"><a xlink:title=" ">
<path fill="none" stroke="orange" d="M394.41,-885.73C389.59,-851.26 377.01,-797.12 344.37,-764 327.81,-747.2 311.91,-761.84 294.43,-746 279.83,-732.78 291.04,-717.92 275.37,-706 238.73,-678.13 217.13,-702.28 173.37,-688 170.43,-687.04 167.46,-685.96 164.49,-684.78"/>
<polygon fill="orange" stroke="orange" points="390.95,-886.27 395.67,-895.75 397.89,-885.39 390.95,-886.27"/>
</a>
</g>
<text text-anchor="middle" x="333.84" y="-723" font-family="Helvetica,sans-Serif" font-size="10.00" fill="grey"> &lt; epub::creator &gt;</text>
</g>
<!-- Node8 -->
<g id="Node000008" class="node">
<title>Node8</title>
<g id="a_Node000008"><a xlink:title=" ">
<polygon fill="white" stroke="transparent" points="274.37,-688 182.37,-688 182.37,-632 274.37,-632 274.37,-688"/>
<text text-anchor="start" x="187.09" y="-676" font-family="Helvetica,sans-Serif" font-size="10.00">std::vector&lt; epub::</text>
<text text-anchor="start" x="203.21" y="-666" font-family="Helvetica,sans-Serif" font-size="10.00">collection &gt;</text>
<text text-anchor="start" x="226.98" y="-652" font-family="Helvetica,sans-Serif" font-size="10.00"> </text>
<text text-anchor="start" x="226.98" y="-638" font-family="Helvetica,sans-Serif" font-size="10.00"> </text>
<polygon fill="#666666" stroke="#666666" points="182.37,-662 182.37,-662 274.37,-662 274.37,-662 182.37,-662"/>
<polygon fill="#666666" stroke="#666666" points="182.37,-648 182.37,-648 274.37,-648 274.37,-648 182.37,-648"/>
<polygon fill="none" stroke="#666666" points="182.37,-632 182.37,-688 274.37,-688 274.37,-632 182.37,-632"/>
</a>
</g>
</g>
<!-- Node6&#45;&gt;Node8 -->
<g id="edge11_Node000008_Node000006" class="edge">
<title>Node6&#45;&gt;Node8</title>
<g id="a_edge11_Node000008_Node000006"><a xlink:title=" ">
<path fill="none" stroke="orange" d="M404.39,-885.94C412.35,-840.51 419.29,-757.23 377.37,-706 352.64,-675.78 308.36,-665.34 274.47,-661.98"/>
<polygon fill="orange" stroke="orange" points="400.94,-885.36 402.54,-895.83 407.82,-886.65 400.94,-885.36"/>
</a>
</g>
<text text-anchor="middle" x="443.12" y="-723" font-family="Helvetica,sans-Serif" font-size="10.00" fill="grey"> &lt; epub::collection &gt;</text>
</g>
<!-- Node7 -->
<g id="Node000007" class="node">
<title>Node7</title>
<g id="a_Node000007"><a xlink:title=" ">
<polygon fill="white" stroke="transparent" points="405.37,-1186 389.37,-1186 389.37,-1140 405.37,-1140 405.37,-1186"/>
<text text-anchor="start" x="394.31" y="-1174" font-family="Helvetica,sans-Serif" font-size="10.00">T</text>
<text text-anchor="start" x="395.98" y="-1160" font-family="Helvetica,sans-Serif" font-size="10.00"> </text>
<text text-anchor="start" x="395.98" y="-1146" font-family="Helvetica,sans-Serif" font-size="10.00"> </text>
<polygon fill="#666666" stroke="#666666" points="389.37,-1170 389.37,-1170 405.37,-1170 405.37,-1170 389.37,-1170"/>
<polygon fill="#666666" stroke="#666666" points="389.37,-1156 389.37,-1156 405.37,-1156 405.37,-1156 389.37,-1156"/>
<polygon fill="none" stroke="#666666" points="389.37,-1140 389.37,-1186 405.37,-1186 405.37,-1140 389.37,-1140"/>
</a>
</g>
</g>
<!-- Node7&#45;&gt;Node6 -->
<g id="edge7_Node000006_Node000007" class="edge">
<title>Node7&#45;&gt;Node6</title>
<g id="a_edge7_Node000006_Node000007"><a xlink:title=" ">
<path fill="none" stroke="#63b8ff" d="M397.37,-1139.67C397.37,-1097.26 397.37,-1004.81 397.37,-954.42"/>
<polygon fill="none" stroke="#63b8ff" points="397.37,-954.28 393.37,-948.28 397.37,-942.28 401.37,-948.28 397.37,-954.28"/>
</a>
</g>
<text text-anchor="middle" x="421.96" y="-1104" font-family="Helvetica,sans-Serif" font-size="10.00" fill="grey"> +elements</text>
</g>
<!-- Node8&#45;&gt;Node1 -->
<g id="edge8_Node000001_Node000008" class="edge">
<title>Node8&#45;&gt;Node1</title>
<g id="a_edge8_Node000001_Node000008"><a xlink:title=" ">
<path fill="none" stroke="#63b8ff" d="M220.19,-631.86C211.78,-603.97 197.85,-557.73 182.94,-508.27"/>
<polygon fill="none" stroke="#63b8ff" points="182.91,-508.16 177.35,-503.56 179.44,-496.67 185.01,-501.26 182.91,-508.16"/>
</a>
</g>
<text text-anchor="middle" x="243.55" y="-606" font-family="Helvetica,sans-Serif" font-size="10.00" fill="grey"> &#45;_collections</text>
</g>
<!-- Node9&#45;&gt;Node8 -->
<g id="edge9_Node000008_Node000009" class="edge">
<title>Node9&#45;&gt;Node8</title>
<g id="a_edge9_Node000008_Node000009"><a xlink:title=" ">
<path fill="none" stroke="#63b8ff" d="M228.76,-763.64C227.78,-757.71 226.91,-751.81 226.17,-746 223.94,-728.36 225.74,-723.77 226.17,-706 226.22,-704.1 226.28,-702.16 226.34,-700.2"/>
<polygon fill="none" stroke="#63b8ff" points="226.35,-700.11 222.59,-693.95 226.83,-688.12 230.59,-694.28 226.35,-700.11"/>
</a>
</g>
<text text-anchor="middle" x="249.96" y="-723" font-family="Helvetica,sans-Serif" font-size="10.00" fill="grey"> +elements</text>
</g>
</g>
</svg>
