<?xml version="1.0" encoding="UTF-8" standalone="no"?>
<!DOCTYPE svg PUBLIC "-//W3C//DTD SVG 1.1//EN"
 "http://www.w3.org/Graphics/SVG/1.1/DTD/svg11.dtd">
<!-- Generated by graphviz version 2.48.0 (20210717.1556)
 -->
<!-- Title: epub::package Pages: 1 -->
<svg width="374pt" height="1375pt"
 viewBox="0.00 0.00 374.19 1375.00" xmlns="http://www.w3.org/2000/svg" xmlns:xlink="http://www.w3.org/1999/xlink">
<g id="graph0" class="graph" transform="scale(1 1) rotate(0) translate(4 1371)">
<title>epub::package</title>
<!-- Node1 -->
<g id="Node000001" class="node">
<title>Node1</title>
<g id="a_Node000001"><a xlink:title=" ">
<polygon fill="#999999" stroke="transparent" points="216.69,-130 141.69,-130 141.69,0 216.69,0 216.69,-130"/>
<text text-anchor="start" x="146.89" y="-118" font-family="Helvetica,sans-Serif" font-size="10.00">epub::package</text>
<text text-anchor="start" x="178.3" y="-104" font-family="Helvetica,sans-Serif" font-size="10.00"> </text>
<text text-anchor="start" x="148.27" y="-90" font-family="Helvetica,sans-Serif" font-size="10.00">+</text>
<text text-anchor="start" x="160.19" y="-90" font-family="Helvetica,sans-Serif" font-size="10.00">metadata()</text>
<text text-anchor="start" x="148.27" y="-76" font-family="Helvetica,sans-Serif" font-size="10.00">+</text>
<text text-anchor="start" x="160.19" y="-76" font-family="Helvetica,sans-Serif" font-size="10.00">metadata()</text>
<text text-anchor="start" x="148.27" y="-62" font-family="Helvetica,sans-Serif" font-size="10.00">+</text>
<text text-anchor="start" x="160.19" y="-62" font-family="Helvetica,sans-Serif" font-size="10.00">manifest()</text>
<text text-anchor="start" x="148.27" y="-48" font-family="Helvetica,sans-Serif" font-size="10.00">+</text>
<text text-anchor="start" x="160.19" y="-48" font-family="Helvetica,sans-Serif" font-size="10.00">manifest()</text>
<text text-anchor="start" x="148.27" y="-34" font-family="Helvetica,sans-Serif" font-size="10.00">+</text>
<text text-anchor="start" x="160.19" y="-34" font-family="Helvetica,sans-Serif" font-size="10.00">spine()</text>
<text text-anchor="start" x="148.27" y="-20" font-family="Helvetica,sans-Serif" font-size="10.00">+</text>
<text text-anchor="start" x="160.19" y="-20" font-family="Helvetica,sans-Serif" font-size="10.00">spine()</text>
<text text-anchor="start" x="148.27" y="-6" font-family="Helvetica,sans-Serif" font-size="10.00">+</text>
<text text-anchor="start" x="160.19" y="-6" font-family="Helvetica,sans-Serif" font-size="10.00">write()</text>
<polygon fill="#666666" stroke="#666666" points="142.19,-114 142.19,-114 217.19,-114 217.19,-114 142.19,-114"/>
<polygon fill="#666666" stroke="#666666" points="142.19,-100 142.19,-100 217.19,-100 217.19,-100 142.19,-100"/>
<polygon fill="none" stroke="#666666" points="141.69,0 141.69,-130 216.69,-130 216.69,0 141.69,0"/>
</a>
</g>
</g>
<!-- Node2 -->
<g id="Node000002" class="node">
<title>Node2</title>
<g id="a_Node000002"><a xlink:href="classepub_1_1metadata.html" target="_top" xlink:title=" ">
<polygon fill="white" stroke="transparent" points="103.69,-706 16.69,-706 16.69,-422 103.69,-422 103.69,-706"/>
<text text-anchor="start" x="25.94" y="-694" font-family="Helvetica,sans-Serif" font-size="10.00">epub::metadata</text>
<text text-anchor="start" x="22.03" y="-680" font-family="Helvetica,sans-Serif" font-size="10.00">&#45;</text>
<text text-anchor="start" x="30.19" y="-680" font-family="Helvetica,sans-Serif" font-size="10.00">_pre_paginated</text>
<text text-anchor="start" x="20.77" y="-666" font-family="Helvetica,sans-Serif" font-size="10.00">+</text>
<text text-anchor="start" x="30.19" y="-666" font-family="Helvetica,sans-Serif" font-size="10.00">metadata()</text>
<text text-anchor="start" x="20.77" y="-652" font-family="Helvetica,sans-Serif" font-size="10.00">+</text>
<text text-anchor="start" x="30.19" y="-652" font-family="Helvetica,sans-Serif" font-size="10.00">pre_paginated()</text>
<text text-anchor="start" x="20.77" y="-638" font-family="Helvetica,sans-Serif" font-size="10.00">+</text>
<text text-anchor="start" x="30.19" y="-638" font-family="Helvetica,sans-Serif" font-size="10.00">reflow()</text>
<text text-anchor="start" x="20.77" y="-624" font-family="Helvetica,sans-Serif" font-size="10.00">+</text>
<text text-anchor="start" x="30.19" y="-624" font-family="Helvetica,sans-Serif" font-size="10.00">layout()</text>
<text text-anchor="start" x="20.77" y="-610" font-family="Helvetica,sans-Serif" font-size="10.00">+</text>
<text text-anchor="start" x="30.19" y="-610" font-family="Helvetica,sans-Serif" font-size="10.00">identifier()</text>
<text text-anchor="start" x="20.77" y="-596" font-family="Helvetica,sans-Serif" font-size="10.00">+</text>
<text text-anchor="start" x="30.19" y="-596" font-family="Helvetica,sans-Serif" font-size="10.00">identifier()</text>
<text text-anchor="start" x="20.77" y="-582" font-family="Helvetica,sans-Serif" font-size="10.00">+</text>
<text text-anchor="start" x="30.19" y="-582" font-family="Helvetica,sans-Serif" font-size="10.00">title()</text>
<text text-anchor="start" x="20.77" y="-568" font-family="Helvetica,sans-Serif" font-size="10.00">+</text>
<text text-anchor="start" x="30.19" y="-568" font-family="Helvetica,sans-Serif" font-size="10.00">title()</text>
<text text-anchor="start" x="20.77" y="-554" font-family="Helvetica,sans-Serif" font-size="10.00">+</text>
<text text-anchor="start" x="30.19" y="-554" font-family="Helvetica,sans-Serif" font-size="10.00">language()</text>
<text text-anchor="start" x="20.77" y="-540" font-family="Helvetica,sans-Serif" font-size="10.00">+</text>
<text text-anchor="start" x="30.19" y="-540" font-family="Helvetica,sans-Serif" font-size="10.00">creators()</text>
<text text-anchor="start" x="20.77" y="-526" font-family="Helvetica,sans-Serif" font-size="10.00">+</text>
<text text-anchor="start" x="30.19" y="-526" font-family="Helvetica,sans-Serif" font-size="10.00">creators()</text>
<text text-anchor="start" x="21.75" y="-512" font-family="Helvetica,sans-Serif" font-size="10.00">*</text>
<text text-anchor="start" x="30.19" y="-512" font-family="Helvetica,sans-Serif" font-size="10.00">identifier()</text>
<text text-anchor="start" x="21.75" y="-498" font-family="Helvetica,sans-Serif" font-size="10.00">*</text>
<text text-anchor="start" x="30.19" y="-498" font-family="Helvetica,sans-Serif" font-size="10.00">identifier()</text>
<text text-anchor="start" x="21.75" y="-484" font-family="Helvetica,sans-Serif" font-size="10.00">*</text>
<text text-anchor="start" x="30.19" y="-484" font-family="Helvetica,sans-Serif" font-size="10.00">title()</text>
<text text-anchor="start" x="21.75" y="-470" font-family="Helvetica,sans-Serif" font-size="10.00">*</text>
<text text-anchor="start" x="30.19" y="-470" font-family="Helvetica,sans-Serif" font-size="10.00">title()</text>
<text text-anchor="start" x="21.75" y="-456" font-family="Helvetica,sans-Serif" font-size="10.00">*</text>
<text text-anchor="start" x="30.19" y="-456" font-family="Helvetica,sans-Serif" font-size="10.00">language()</text>
<text text-anchor="start" x="21.75" y="-442" font-family="Helvetica,sans-Serif" font-size="10.00">*</text>
<text text-anchor="start" x="30.19" y="-442" font-family="Helvetica,sans-Serif" font-size="10.00">creators()</text>
<text text-anchor="start" x="21.75" y="-428" font-family="Helvetica,sans-Serif" font-size="10.00">*</text>
<text text-anchor="start" x="30.19" y="-428" font-family="Helvetica,sans-Serif" font-size="10.00">creators()</text>
<polygon fill="#666666" stroke="#666666" points="17.19,-690 17.19,-690 104.19,-690 104.19,-690 17.19,-690"/>
<polygon fill="#666666" stroke="#666666" points="17.19,-676 17.19,-676 28.19,-676 28.19,-676 17.19,-676"/>
<polygon fill="#666666" stroke="#666666" points="28.19,-676 28.19,-676 104.19,-676 104.19,-676 28.19,-676"/>
<polygon fill="none" stroke="#666666" points="16.69,-422 16.69,-706 103.69,-706 103.69,-422 16.69,-422"/>
</a>
</g>
</g>
<!-- Node2&#45;&gt;Node1 -->
<g id="edge1_Node000001_Node000002" class="edge">
<title>Node2&#45;&gt;Node1</title>
<g id="a_edge1_Node000001_Node000002"><a xlink:title=" ">
<path fill="none" stroke="#63b8ff" d="M44.42,-421.87C41.45,-346.23 46.82,-253.02 78.83,-176 90.41,-148.13 112.29,-122.81 132.68,-103.5"/>
<polygon fill="none" stroke="#63b8ff" points="132.74,-103.45 134.47,-96.44 141.59,-95.34 139.87,-102.34 132.74,-103.45"/>
</a>
</g>
<text text-anchor="middle" x="105.87" y="-273" font-family="Helvetica,sans-Serif" font-size="10.00" fill="grey"> &#45;_metadata</text>
</g>
<!-- Node3 -->
<g id="Node000003" class="node">
<title>Node3</title>
<g id="a_Node000003"><a xlink:title=" ">
<polygon fill="white" stroke="transparent" points="172.19,-1175 108.19,-1175 108.19,-1129 172.19,-1129 172.19,-1175"/>
<text text-anchor="start" x="112.96" y="-1163" font-family="Helvetica,sans-Serif" font-size="10.00">std::u8string</text>
<text text-anchor="start" x="138.8" y="-1149" font-family="Helvetica,sans-Serif" font-size="10.00"> </text>
<text text-anchor="start" x="138.8" y="-1135" font-family="Helvetica,sans-Serif" font-size="10.00"> </text>
<polygon fill="#666666" stroke="#666666" points="108.19,-1159 108.19,-1159 172.19,-1159 172.19,-1159 108.19,-1159"/>
<polygon fill="#666666" stroke="#666666" points="108.19,-1145 108.19,-1145 172.19,-1145 172.19,-1145 108.19,-1145"/>
<polygon fill="none" stroke="#666666" points="108.19,-1129 108.19,-1175 172.19,-1175 172.19,-1129 108.19,-1129"/>
</a>
</g>
</g>
<!-- Node3&#45;&gt;Node2 -->
<g id="edge2_Node000002_Node000003" class="edge">
<title>Node3&#45;&gt;Node2</title>
<g id="a_edge2_Node000002_Node000003"><a xlink:title=" ">
<path fill="none" stroke="#63b8ff" d="M107.99,-1132.7C82.65,-1116.29 49.21,-1089.62 34.19,-1056 -13.1,-950.1 -2.87,-818.3 17.15,-717.93"/>
<polygon fill="none" stroke="#63b8ff" points="17.15,-717.91 14.44,-711.23 19.57,-706.16 22.28,-712.84 17.15,-717.91"/>
</a>
</g>
<text text-anchor="middle" x="27.21" y="-848" font-family="Helvetica,sans-Serif" font-size="10.00" fill="grey"> &#45;_identifier</text>
<text text-anchor="middle" x="27.21" y="-838" font-family="Helvetica,sans-Serif" font-size="10.00" fill="grey">&#45;_language</text>
<text text-anchor="middle" x="27.21" y="-828" font-family="Helvetica,sans-Serif" font-size="10.00" fill="grey">&#45;_title</text>
</g>
<!-- Node6 -->
<g id="Node000006" class="node">
<title>Node6</title>
<g id="a_Node000006"><a xlink:href="classepub_1_1creator.html" target="_top" xlink:title=" ">
<polygon fill="white" stroke="transparent" points="140.69,-1056 43.69,-1056 43.69,-874 140.69,-874 140.69,-1056"/>
<text text-anchor="start" x="63.23" y="-1044" font-family="Helvetica,sans-Serif" font-size="10.00">epub::creator</text>
<text text-anchor="start" x="91.3" y="-1030" font-family="Helvetica,sans-Serif" font-size="10.00"> </text>
<text text-anchor="start" x="47.77" y="-1016" font-family="Helvetica,sans-Serif" font-size="10.00">+</text>
<text text-anchor="start" x="57.19" y="-1016" font-family="Helvetica,sans-Serif" font-size="10.00">creator()</text>
<text text-anchor="start" x="47.77" y="-1002" font-family="Helvetica,sans-Serif" font-size="10.00">+</text>
<text text-anchor="start" x="57.19" y="-1002" font-family="Helvetica,sans-Serif" font-size="10.00">creator()</text>
<text text-anchor="start" x="47.77" y="-988" font-family="Helvetica,sans-Serif" font-size="10.00">+</text>
<text text-anchor="start" x="57.19" y="-988" font-family="Helvetica,sans-Serif" font-size="10.00">creator()</text>
<text text-anchor="start" x="47.77" y="-974" font-family="Helvetica,sans-Serif" font-size="10.00">+</text>
<text text-anchor="start" x="57.19" y="-974" font-family="Helvetica,sans-Serif" font-size="10.00">operator=()</text>
<text text-anchor="start" x="47.77" y="-960" font-family="Helvetica,sans-Serif" font-size="10.00">+</text>
<text text-anchor="start" x="57.19" y="-960" font-family="Helvetica,sans-Serif" font-size="10.00">operator=()</text>
<text text-anchor="start" x="47.77" y="-946" font-family="Helvetica,sans-Serif" font-size="10.00">+</text>
<text text-anchor="start" x="57.19" y="-946" font-family="Helvetica,sans-Serif" font-size="10.00">operator const std</text>
<text text-anchor="start" x="57.19" y="-936" font-family="Helvetica,sans-Serif" font-size="10.00">::u8string &amp;()</text>
<text text-anchor="start" x="47.77" y="-922" font-family="Helvetica,sans-Serif" font-size="10.00">+</text>
<text text-anchor="start" x="57.19" y="-922" font-family="Helvetica,sans-Serif" font-size="10.00">file_as()</text>
<text text-anchor="start" x="47.77" y="-908" font-family="Helvetica,sans-Serif" font-size="10.00">+</text>
<text text-anchor="start" x="57.19" y="-908" font-family="Helvetica,sans-Serif" font-size="10.00">file_as()</text>
<text text-anchor="start" x="47.77" y="-894" font-family="Helvetica,sans-Serif" font-size="10.00">+</text>
<text text-anchor="start" x="57.19" y="-894" font-family="Helvetica,sans-Serif" font-size="10.00">role()</text>
<text text-anchor="start" x="47.77" y="-880" font-family="Helvetica,sans-Serif" font-size="10.00">+</text>
<text text-anchor="start" x="57.19" y="-880" font-family="Helvetica,sans-Serif" font-size="10.00">role()</text>
<polygon fill="#666666" stroke="#666666" points="44.19,-1040 44.19,-1040 141.19,-1040 141.19,-1040 44.19,-1040"/>
<polygon fill="#666666" stroke="#666666" points="44.19,-1026 44.19,-1026 141.19,-1026 141.19,-1026 44.19,-1026"/>
<polygon fill="none" stroke="#666666" points="43.69,-874 43.69,-1056 140.69,-1056 140.69,-874 43.69,-874"/>
</a>
</g>
</g>
<!-- Node3&#45;&gt;Node6 -->
<g id="edge6_Node000006_Node000003" class="edge">
<title>Node3&#45;&gt;Node6</title>
<g id="a_edge6_Node000006_Node000003"><a xlink:title=" ">
<path fill="none" stroke="#63b8ff" d="M124.75,-1128.93C120.1,-1121.33 115.43,-1112.58 112.4,-1104 108.41,-1092.7 105.2,-1080.61 102.63,-1068.46"/>
<polygon fill="none" stroke="#63b8ff" points="102.56,-1068.09 97.48,-1062.97 100.26,-1056.31 105.34,-1061.44 102.56,-1068.09"/>
</a>
</g>
<text text-anchor="middle" x="134.59" y="-1096" font-family="Helvetica,sans-Serif" font-size="10.00" fill="grey"> &#45;_creator</text>
<text text-anchor="middle" x="134.59" y="-1086" font-family="Helvetica,sans-Serif" font-size="10.00" fill="grey">&#45;_file_as</text>
<text text-anchor="middle" x="134.59" y="-1076" font-family="Helvetica,sans-Serif" font-size="10.00" fill="grey">&#45;_role</text>
</g>
<!-- Node8 -->
<g id="Node000008" class="node">
<title>Node8</title>
<g id="a_Node000008"><a xlink:title=" ">
<polygon fill="white" stroke="transparent" points="236.19,-597 122.19,-597 122.19,-531 236.19,-531 236.19,-597"/>
<text text-anchor="start" x="127.08" y="-585" font-family="Helvetica,sans-Serif" font-size="10.00">std::map&lt; std::u8string,</text>
<text text-anchor="start" x="127.08" y="-575" font-family="Helvetica,sans-Serif" font-size="10.00"> std::shared_ptr&lt; epub</text>
<text text-anchor="start" x="136.68" y="-565" font-family="Helvetica,sans-Serif" font-size="10.00">::manifest::item &gt; &gt;</text>
<text text-anchor="start" x="177.8" y="-551" font-family="Helvetica,sans-Serif" font-size="10.00"> </text>
<text text-anchor="start" x="177.8" y="-537" font-family="Helvetica,sans-Serif" font-size="10.00"> </text>
<polygon fill="#666666" stroke="#666666" points="122.19,-561 122.19,-561 236.19,-561 236.19,-561 122.19,-561"/>
<polygon fill="#666666" stroke="#666666" points="122.19,-547 122.19,-547 236.19,-547 236.19,-547 122.19,-547"/>
<polygon fill="none" stroke="#666666" points="122.19,-531 122.19,-597 236.19,-597 236.19,-531 122.19,-531"/>
</a>
</g>
</g>
<!-- Node3&#45;&gt;Node8 -->
<g id="edge9_Node000008_Node000003" class="edge">
<title>Node3&#45;&gt;Node8</title>
<g id="a_edge9_Node000008_Node000003"><a xlink:title=" ">
<path fill="none" stroke="#63b8ff" d="M148.59,-1128.83C151.17,-1121.09 153.72,-1112.26 155.19,-1104 187.55,-922.8 184.37,-702.19 181.15,-609.44"/>
<polygon fill="none" stroke="#63b8ff" points="181.14,-609.21 176.92,-603.36 180.7,-597.22 184.92,-603.07 181.14,-609.21"/>
</a>
</g>
<text text-anchor="middle" x="196.78" y="-838" font-family="Helvetica,sans-Serif" font-size="10.00" fill="grey"> +keys</text>
</g>
<!-- Node10 -->
<g id="Node000010" class="node">
<title>Node10</title>
<g id="a_Node000010"><a xlink:href="classepub_1_1manifest_1_1item.html" target="_top" xlink:title=" ">
<polygon fill="white" stroke="transparent" points="301.19,-1016 201.19,-1016 201.19,-914 301.19,-914 301.19,-1016"/>
<text text-anchor="start" x="206.17" y="-1004" font-family="Helvetica,sans-Serif" font-size="10.00">epub::manifest::item</text>
<text text-anchor="start" x="214.03" y="-990" font-family="Helvetica,sans-Serif" font-size="10.00">&#45;</text>
<text text-anchor="start" x="230.19" y="-990" font-family="Helvetica,sans-Serif" font-size="10.00">_path</text>
<text text-anchor="start" x="212.77" y="-976" font-family="Helvetica,sans-Serif" font-size="10.00">+</text>
<text text-anchor="start" x="230.19" y="-976" font-family="Helvetica,sans-Serif" font-size="10.00">item()</text>
<text text-anchor="start" x="212.77" y="-962" font-family="Helvetica,sans-Serif" font-size="10.00">+</text>
<text text-anchor="start" x="230.19" y="-962" font-family="Helvetica,sans-Serif" font-size="10.00">id()</text>
<text text-anchor="start" x="212.77" y="-948" font-family="Helvetica,sans-Serif" font-size="10.00">+</text>
<text text-anchor="start" x="230.19" y="-948" font-family="Helvetica,sans-Serif" font-size="10.00">path()</text>
<text text-anchor="start" x="212.77" y="-934" font-family="Helvetica,sans-Serif" font-size="10.00">+</text>
<text text-anchor="start" x="230.19" y="-934" font-family="Helvetica,sans-Serif" font-size="10.00">properties()</text>
<text text-anchor="start" x="212.77" y="-920" font-family="Helvetica,sans-Serif" font-size="10.00">+</text>
<text text-anchor="start" x="230.19" y="-920" font-family="Helvetica,sans-Serif" font-size="10.00">metadata()</text>
<polygon fill="#666666" stroke="#666666" points="201.19,-1000 201.19,-1000 301.19,-1000 301.19,-1000 201.19,-1000"/>
<polygon fill="#666666" stroke="#666666" points="201.19,-986 201.19,-986 228.19,-986 228.19,-986 201.19,-986"/>
<polygon fill="#666666" stroke="#666666" points="228.19,-986 228.19,-986 301.19,-986 301.19,-986 228.19,-986"/>
<polygon fill="none" stroke="#666666" points="201.19,-914 201.19,-1016 301.19,-1016 301.19,-914 201.19,-914"/>
</a>
</g>
</g>
<!-- Node3&#45;&gt;Node10 -->
<g id="edge12_Node000010_Node000003" class="edge">
<title>Node3&#45;&gt;Node10</title>
<g id="a_edge12_Node000010_Node000003"><a xlink:title=" ">
<path fill="none" stroke="#63b8ff" d="M160.83,-1128.89C167.41,-1121.29 174.47,-1112.55 180.19,-1104 196.31,-1079.93 211.42,-1051.73 223.52,-1027.12"/>
<polygon fill="none" stroke="#63b8ff" points="223.63,-1026.89 222.64,-1019.75 228.86,-1016.09 229.84,-1023.24 223.63,-1026.89"/>
</a>
</g>
<text text-anchor="middle" x="224.87" y="-1091" font-family="Helvetica,sans-Serif" font-size="10.00" fill="grey"> &#45;_id</text>
<text text-anchor="middle" x="224.87" y="-1081" font-family="Helvetica,sans-Serif" font-size="10.00" fill="grey">&#45;_properties</text>
</g>
<!-- Node4 -->
<g id="Node000004" class="node">
<title>Node4</title>
<g id="a_Node000004"><a xlink:title=" ">
<polygon fill="white" stroke="transparent" points="184.19,-1275 96.19,-1275 96.19,-1219 184.19,-1219 184.19,-1275"/>
<text text-anchor="start" x="101.14" y="-1263" font-family="Helvetica,sans-Serif" font-size="10.00">std::basic_string&lt;</text>
<text text-anchor="start" x="123.66" y="-1253" font-family="Helvetica,sans-Serif" font-size="10.00"> Char &gt;</text>
<text text-anchor="start" x="138.8" y="-1239" font-family="Helvetica,sans-Serif" font-size="10.00"> </text>
<text text-anchor="start" x="138.8" y="-1225" font-family="Helvetica,sans-Serif" font-size="10.00"> </text>
<polygon fill="#666666" stroke="#666666" points="96.19,-1249 96.19,-1249 184.19,-1249 184.19,-1249 96.19,-1249"/>
<polygon fill="#666666" stroke="#666666" points="96.19,-1235 96.19,-1235 184.19,-1235 184.19,-1235 96.19,-1235"/>
<polygon fill="none" stroke="#666666" points="96.19,-1219 96.19,-1275 184.19,-1275 184.19,-1219 96.19,-1219"/>
</a>
</g>
</g>
<!-- Node4&#45;&gt;Node3 -->
<g id="edge3_Node000003_Node000004" class="edge">
<title>Node4&#45;&gt;Node3</title>
<g id="a_edge3_Node000003_Node000004"><a xlink:title=" ">
<path fill="none" stroke="#63b8ff" d="M140.19,-1208.51C140.19,-1197.21 140.19,-1185.18 140.19,-1175.21"/>
<polygon fill="none" stroke="#63b8ff" points="136.69,-1208.6 140.19,-1218.6 143.69,-1208.6 136.69,-1208.6"/>
</a>
</g>
</g>
<!-- Node5 -->
<g id="Node000005" class="node">
<title>Node5</title>
<g id="a_Node000005"><a xlink:title=" ">
<polygon fill="white" stroke="transparent" points="136.19,-808 44.19,-808 44.19,-752 136.19,-752 136.19,-808"/>
<text text-anchor="start" x="48.92" y="-796" font-family="Helvetica,sans-Serif" font-size="10.00">std::vector&lt; epub::</text>
<text text-anchor="start" x="70.32" y="-786" font-family="Helvetica,sans-Serif" font-size="10.00">creator &gt;</text>
<text text-anchor="start" x="88.8" y="-772" font-family="Helvetica,sans-Serif" font-size="10.00"> </text>
<text text-anchor="start" x="88.8" y="-758" font-family="Helvetica,sans-Serif" font-size="10.00"> </text>
<polygon fill="#666666" stroke="#666666" points="44.19,-782 44.19,-782 136.19,-782 136.19,-782 44.19,-782"/>
<polygon fill="#666666" stroke="#666666" points="44.19,-768 44.19,-768 136.19,-768 136.19,-768 44.19,-768"/>
<polygon fill="none" stroke="#666666" points="44.19,-752 44.19,-808 136.19,-808 136.19,-752 44.19,-752"/>
</a>
</g>
</g>
<!-- Node5&#45;&gt;Node2 -->
<g id="edge4_Node000002_Node000005" class="edge">
<title>Node5&#45;&gt;Node2</title>
<g id="a_edge4_Node000002_Node000005"><a xlink:title=" ">
<path fill="none" stroke="#63b8ff" d="M86.39,-751.9C85.07,-742.44 83.47,-731.04 81.72,-718.6"/>
<polygon fill="none" stroke="#63b8ff" points="81.68,-718.26 76.88,-712.88 80.01,-706.38 84.81,-711.77 81.68,-718.26"/>
</a>
</g>
<text text-anchor="middle" x="108.09" y="-726" font-family="Helvetica,sans-Serif" font-size="10.00" fill="grey"> &#45;_creators</text>
</g>
<!-- Node6&#45;&gt;Node5 -->
<g id="edge5_Node000005_Node000006" class="edge">
<title>Node6&#45;&gt;Node5</title>
<g id="a_edge5_Node000005_Node000006"><a xlink:title=" ">
<path fill="none" stroke="#63b8ff" d="M91.21,-873.84C91,-855.09 90.8,-836.27 90.62,-820.52"/>
<polygon fill="none" stroke="#63b8ff" points="90.62,-820.08 86.55,-814.12 90.49,-808.08 94.55,-814.04 90.62,-820.08"/>
</a>
</g>
<text text-anchor="middle" x="115.79" y="-838" font-family="Helvetica,sans-Serif" font-size="10.00" fill="grey"> +elements</text>
</g>
<!-- Node7 -->
<g id="Node000007" class="node">
<title>Node7</title>
<g id="a_Node000007"><a xlink:href="classepub_1_1manifest.html" target="_top" xlink:title=" ">
<polygon fill="white" stroke="transparent" points="216.69,-376 141.69,-376 141.69,-176 216.69,-176 216.69,-376"/>
<text text-anchor="start" x="146.89" y="-364" font-family="Helvetica,sans-Serif" font-size="10.00">epub::manifest</text>
<text text-anchor="start" x="178.3" y="-350" font-family="Helvetica,sans-Serif" font-size="10.00"> </text>
<text text-anchor="start" x="147.77" y="-336" font-family="Helvetica,sans-Serif" font-size="10.00">+</text>
<text text-anchor="start" x="159.19" y="-336" font-family="Helvetica,sans-Serif" font-size="10.00">manifest()</text>
<text text-anchor="start" x="147.77" y="-322" font-family="Helvetica,sans-Serif" font-size="10.00">+</text>
<text text-anchor="start" x="159.19" y="-322" font-family="Helvetica,sans-Serif" font-size="10.00">manifest()</text>
<text text-anchor="start" x="147.77" y="-308" font-family="Helvetica,sans-Serif" font-size="10.00">+</text>
<text text-anchor="start" x="159.19" y="-308" font-family="Helvetica,sans-Serif" font-size="10.00">manifest()</text>
<text text-anchor="start" x="147.77" y="-294" font-family="Helvetica,sans-Serif" font-size="10.00">+</text>
<text text-anchor="start" x="159.19" y="-294" font-family="Helvetica,sans-Serif" font-size="10.00">~manifest()</text>
<text text-anchor="start" x="147.77" y="-280" font-family="Helvetica,sans-Serif" font-size="10.00">+</text>
<text text-anchor="start" x="159.19" y="-280" font-family="Helvetica,sans-Serif" font-size="10.00">operator=()</text>
<text text-anchor="start" x="147.77" y="-266" font-family="Helvetica,sans-Serif" font-size="10.00">+</text>
<text text-anchor="start" x="159.19" y="-266" font-family="Helvetica,sans-Serif" font-size="10.00">operator=()</text>
<text text-anchor="start" x="147.77" y="-252" font-family="Helvetica,sans-Serif" font-size="10.00">+</text>
<text text-anchor="start" x="159.19" y="-252" font-family="Helvetica,sans-Serif" font-size="10.00">add()</text>
<text text-anchor="start" x="147.77" y="-238" font-family="Helvetica,sans-Serif" font-size="10.00">+</text>
<text text-anchor="start" x="159.19" y="-238" font-family="Helvetica,sans-Serif" font-size="10.00">begin()</text>
<text text-anchor="start" x="147.77" y="-224" font-family="Helvetica,sans-Serif" font-size="10.00">+</text>
<text text-anchor="start" x="159.19" y="-224" font-family="Helvetica,sans-Serif" font-size="10.00">end()</text>
<text text-anchor="start" x="147.77" y="-210" font-family="Helvetica,sans-Serif" font-size="10.00">+</text>
<text text-anchor="start" x="159.19" y="-210" font-family="Helvetica,sans-Serif" font-size="10.00">front()</text>
<text text-anchor="start" x="147.77" y="-196" font-family="Helvetica,sans-Serif" font-size="10.00">+</text>
<text text-anchor="start" x="159.19" y="-196" font-family="Helvetica,sans-Serif" font-size="10.00">back()</text>
<text text-anchor="start" x="147.77" y="-182" font-family="Helvetica,sans-Serif" font-size="10.00">+</text>
<text text-anchor="start" x="159.19" y="-182" font-family="Helvetica,sans-Serif" font-size="10.00">at()</text>
<polygon fill="#666666" stroke="#666666" points="142.19,-360 142.19,-360 217.19,-360 217.19,-360 142.19,-360"/>
<polygon fill="#666666" stroke="#666666" points="142.19,-346 142.19,-346 217.19,-346 217.19,-346 142.19,-346"/>
<polygon fill="none" stroke="#666666" points="141.69,-176 141.69,-376 216.69,-376 216.69,-176 141.69,-176"/>
</a>
</g>
</g>
<!-- Node7&#45;&gt;Node1 -->
<g id="edge7_Node000001_Node000007" class="edge">
<title>Node7&#45;&gt;Node1</title>
<g id="a_edge7_Node000001_Node000007"><a xlink:title=" ">
<path fill="none" stroke="#63b8ff" d="M179.19,-175.7C179.19,-164.45 179.19,-153.12 179.19,-142.24"/>
<polygon fill="none" stroke="#63b8ff" points="179.19,-142.16 175.19,-136.16 179.19,-130.16 183.19,-136.16 179.19,-142.16"/>
</a>
</g>
<text text-anchor="middle" x="203.92" y="-150" font-family="Helvetica,sans-Serif" font-size="10.00" fill="grey"> &#45;_manifest</text>
</g>
<!-- Node8&#45;&gt;Node7 -->
<g id="edge8_Node000007_Node000008" class="edge">
<title>Node8&#45;&gt;Node7</title>
<g id="a_edge8_Node000007_Node000008"><a xlink:title=" ">
<path fill="none" stroke="#63b8ff" d="M179.19,-530.75C179.19,-496.19 179.19,-439.41 179.19,-388.31"/>
<polygon fill="none" stroke="#63b8ff" points="179.19,-388.14 175.19,-382.14 179.19,-376.14 183.19,-382.14 179.19,-388.14"/>
</a>
</g>
<text text-anchor="middle" x="196.97" y="-396" font-family="Helvetica,sans-Serif" font-size="10.00" fill="grey"> &#45;_items</text>
</g>
<!-- Node9 -->
<g id="Node000009" class="node">
<title>Node9</title>
<g id="a_Node000009"><a xlink:title=" ">
<polygon fill="white" stroke="transparent" points="304.69,-808 197.69,-808 197.69,-752 304.69,-752 304.69,-808"/>
<text text-anchor="start" x="202.91" y="-796" font-family="Helvetica,sans-Serif" font-size="10.00">std::shared_ptr&lt; epub</text>
<text text-anchor="start" x="213.48" y="-786" font-family="Helvetica,sans-Serif" font-size="10.00">::manifest::item &gt;</text>
<text text-anchor="start" x="250.3" y="-772" font-family="Helvetica,sans-Serif" font-size="10.00"> </text>
<text text-anchor="start" x="210.77" y="-758" font-family="Helvetica,sans-Serif" font-size="10.00">+</text>
<text text-anchor="start" x="229.19" y="-758" font-family="Helvetica,sans-Serif" font-size="10.00">operator&#45;&gt;()</text>
<polygon fill="#666666" stroke="#666666" points="198.19,-782 198.19,-782 305.19,-782 305.19,-782 198.19,-782"/>
<polygon fill="#666666" stroke="#666666" points="198.19,-768 198.19,-768 305.19,-768 305.19,-768 198.19,-768"/>
<polygon fill="none" stroke="#666666" points="197.69,-752 197.69,-808 304.69,-808 304.69,-752 197.69,-752"/>
</a>
</g>
</g>
<!-- Node9&#45;&gt;Node8 -->
<g id="edge10_Node000008_Node000009" class="edge">
<title>Node9&#45;&gt;Node8</title>
<g id="a_edge10_Node000008_Node000009"><a xlink:title=" ">
<path fill="none" stroke="#63b8ff" d="M242.07,-751.9C229.93,-715.81 208.32,-651.56 193.87,-608.62"/>
<polygon fill="none" stroke="#63b8ff" points="193.82,-608.48 188.12,-604.07 190,-597.11 195.7,-601.52 193.82,-608.48"/>
</a>
</g>
<text text-anchor="middle" x="260.79" y="-726" font-family="Helvetica,sans-Serif" font-size="10.00" fill="grey"> +elements</text>
</g>
<!-- Node10&#45;&gt;Node9 -->
<g id="edge11_Node000009_Node000010" class="edge">
<title>Node10&#45;&gt;Node9</title>
<g id="a_edge11_Node000009_Node000010"><a xlink:title=" ">
<path fill="none" stroke="#63b8ff" d="M251.19,-913.99C251.19,-884.49 251.19,-847.67 251.19,-820.26"/>
<polygon fill="none" stroke="#63b8ff" points="251.19,-820.01 247.19,-814.01 251.19,-808.01 255.19,-814.01 251.19,-820.01"/>
</a>
</g>
<text text-anchor="middle" x="261.34" y="-838" font-family="Helvetica,sans-Serif" font-size="10.00" fill="grey"> +ptr</text>
</g>
<!-- Node11 -->
<g id="Node000011" class="node">
<title>Node11</title>
<g id="a_Node000011"><a xlink:href="structepub_1_1file__metadata.html" target="_top" xlink:title="A class for managing metadata key&#45;value pairs.">
<polygon fill="white" stroke="transparent" points="326.69,-1182 229.69,-1182 229.69,-1122 326.69,-1122 326.69,-1182"/>
<text text-anchor="start" x="234.77" y="-1170" font-family="Helvetica,sans-Serif" font-size="10.00">epub::file_metadata</text>
<text text-anchor="start" x="277.3" y="-1156" font-family="Helvetica,sans-Serif" font-size="10.00"> </text>
<text text-anchor="start" x="248.77" y="-1142" font-family="Helvetica,sans-Serif" font-size="10.00">+</text>
<text text-anchor="start" x="273.19" y="-1142" font-family="Helvetica,sans-Serif" font-size="10.00">get()</text>
<text text-anchor="start" x="248.77" y="-1128" font-family="Helvetica,sans-Serif" font-size="10.00">+</text>
<text text-anchor="start" x="273.19" y="-1128" font-family="Helvetica,sans-Serif" font-size="10.00">get()</text>
<polygon fill="#666666" stroke="#666666" points="230.19,-1166 230.19,-1166 327.19,-1166 327.19,-1166 230.19,-1166"/>
<polygon fill="#666666" stroke="#666666" points="230.19,-1152 230.19,-1152 327.19,-1152 327.19,-1152 230.19,-1152"/>
<polygon fill="none" stroke="#666666" points="229.69,-1122 229.69,-1182 326.69,-1182 326.69,-1122 229.69,-1122"/>
</a>
</g>
</g>
<!-- Node11&#45;&gt;Node10 -->
<g id="edge13_Node000010_Node000011" class="edge">
<title>Node11&#45;&gt;Node10</title>
<g id="a_edge13_Node000010_Node000011"><a xlink:title=" ">
<path fill="none" stroke="#63b8ff" d="M273.91,-1121.69C270.26,-1096.68 264.89,-1059.88 260.29,-1028.33"/>
<polygon fill="none" stroke="#63b8ff" points="260.24,-1027.96 255.41,-1022.6 258.5,-1016.08 263.33,-1021.44 260.24,-1027.96"/>
</a>
</g>
<text text-anchor="middle" x="297.87" y="-1086" font-family="Helvetica,sans-Serif" font-size="10.00" fill="grey"> &#45;_metadata</text>
</g>
<!-- Node12 -->
<g id="Node000012" class="node">
<title>Node12</title>
<g id="a_Node000012"><a xlink:title=" ">
<polygon fill="white" stroke="transparent" points="319.69,-1270 236.69,-1270 236.69,-1224 319.69,-1224 319.69,-1270"/>
<text text-anchor="start" x="241.91" y="-1258" font-family="Helvetica,sans-Serif" font-size="10.00">std::map&lt; K, T &gt;</text>
<text text-anchor="start" x="277.3" y="-1244" font-family="Helvetica,sans-Serif" font-size="10.00"> </text>
<text text-anchor="start" x="277.3" y="-1230" font-family="Helvetica,sans-Serif" font-size="10.00"> </text>
<polygon fill="#666666" stroke="#666666" points="237.19,-1254 237.19,-1254 320.19,-1254 320.19,-1254 237.19,-1254"/>
<polygon fill="#666666" stroke="#666666" points="237.19,-1240 237.19,-1240 320.19,-1240 320.19,-1240 237.19,-1240"/>
<polygon fill="none" stroke="#666666" points="236.69,-1224 236.69,-1270 319.69,-1270 319.69,-1224 236.69,-1224"/>
</a>
</g>
</g>
<!-- Node12&#45;&gt;Node11 -->
<g id="edge14_Node000011_Node000012" class="edge">
<title>Node12&#45;&gt;Node11</title>
<g id="a_edge14_Node000011_Node000012"><a xlink:title=" ">
<path fill="none" stroke="#63b8ff" d="M278.19,-1213.76C278.19,-1203.53 278.19,-1192.28 278.19,-1182.27"/>
<polygon fill="none" stroke="#63b8ff" points="274.69,-1213.96 278.19,-1223.96 281.69,-1213.96 274.69,-1213.96"/>
</a>
</g>
</g>
<!-- Node13 -->
<g id="Node000013" class="node">
<title>Node13</title>
<g id="a_Node000013"><a xlink:title=" ">
<polygon fill="white" stroke="transparent" points="260.19,-1367 244.19,-1367 244.19,-1321 260.19,-1321 260.19,-1367"/>
<text text-anchor="start" x="248.86" y="-1355" font-family="Helvetica,sans-Serif" font-size="10.00">K</text>
<text text-anchor="start" x="250.8" y="-1341" font-family="Helvetica,sans-Serif" font-size="10.00"> </text>
<text text-anchor="start" x="250.8" y="-1327" font-family="Helvetica,sans-Serif" font-size="10.00"> </text>
<polygon fill="#666666" stroke="#666666" points="244.19,-1351 244.19,-1351 260.19,-1351 260.19,-1351 244.19,-1351"/>
<polygon fill="#666666" stroke="#666666" points="244.19,-1337 244.19,-1337 260.19,-1337 260.19,-1337 244.19,-1337"/>
<polygon fill="none" stroke="#666666" points="244.19,-1321 244.19,-1367 260.19,-1367 260.19,-1321 244.19,-1321"/>
</a>
</g>
</g>
<!-- Node13&#45;&gt;Node12 -->
<g id="edge15_Node000012_Node000013" class="edge">
<title>Node13&#45;&gt;Node12</title>
<g id="a_edge15_Node000012_Node000013"><a xlink:title=" ">
<path fill="none" stroke="#63b8ff" d="M250.24,-1320.77C250.07,-1311.99 250.62,-1301.89 253.01,-1293 254.06,-1289.11 255.52,-1285.2 257.21,-1281.39"/>
<polygon fill="none" stroke="#63b8ff" points="257.36,-1281.1 256.52,-1273.94 262.81,-1270.41 263.64,-1277.57 257.36,-1281.1"/>
</a>
</g>
<text text-anchor="middle" x="267.78" y="-1295" font-family="Helvetica,sans-Serif" font-size="10.00" fill="grey"> +keys</text>
</g>
<!-- Node14 -->
<g id="Node000014" class="node">
<title>Node14</title>
<g id="a_Node000014"><a xlink:title=" ">
<polygon fill="white" stroke="transparent" points="312.19,-1367 296.19,-1367 296.19,-1321 312.19,-1321 312.19,-1367"/>
<text text-anchor="start" x="301.14" y="-1355" font-family="Helvetica,sans-Serif" font-size="10.00">T</text>
<text text-anchor="start" x="302.8" y="-1341" font-family="Helvetica,sans-Serif" font-size="10.00"> </text>
<text text-anchor="start" x="302.8" y="-1327" font-family="Helvetica,sans-Serif" font-size="10.00"> </text>
<polygon fill="#666666" stroke="#666666" points="296.19,-1351 296.19,-1351 312.19,-1351 312.19,-1351 296.19,-1351"/>
<polygon fill="#666666" stroke="#666666" points="296.19,-1337 296.19,-1337 312.19,-1337 312.19,-1337 296.19,-1337"/>
<polygon fill="none" stroke="#666666" points="296.19,-1321 296.19,-1367 312.19,-1367 312.19,-1321 296.19,-1321"/>
</a>
</g>
</g>
<!-- Node14&#45;&gt;Node12 -->
<g id="edge16_Node000012_Node000014" class="edge">
<title>Node14&#45;&gt;Node12</title>
<g id="a_edge16_Node000012_Node000014"><a xlink:title=" ">
<path fill="none" stroke="#63b8ff" d="M298.16,-1320.97C295,-1309.42 291.06,-1295.02 287.52,-1282.07"/>
<polygon fill="none" stroke="#63b8ff" points="287.45,-1281.82 282.01,-1277.09 284.28,-1270.24 289.72,-1274.97 287.45,-1281.82"/>
</a>
</g>
<text text-anchor="middle" x="317.79" y="-1295" font-family="Helvetica,sans-Serif" font-size="10.00" fill="grey"> +elements</text>
</g>
<!-- Node15 -->
<g id="Node000015" class="node">
<title>Node15</title>
<g id="a_Node000015"><a xlink:href="classepub_1_1spine.html" target="_top" xlink:title=" ">
<polygon fill="white" stroke="transparent" points="328.19,-355 262.19,-355 262.19,-197 328.19,-197 328.19,-355"/>
<text text-anchor="start" x="269.34" y="-343" font-family="Helvetica,sans-Serif" font-size="10.00">epub::spine</text>
<text text-anchor="start" x="293.8" y="-329" font-family="Helvetica,sans-Serif" font-size="10.00"> </text>
<text text-anchor="start" x="265.77" y="-315" font-family="Helvetica,sans-Serif" font-size="10.00">+</text>
<text text-anchor="start" x="275.19" y="-315" font-family="Helvetica,sans-Serif" font-size="10.00">spine()</text>
<text text-anchor="start" x="265.77" y="-301" font-family="Helvetica,sans-Serif" font-size="10.00">+</text>
<text text-anchor="start" x="275.19" y="-301" font-family="Helvetica,sans-Serif" font-size="10.00">spine()</text>
<text text-anchor="start" x="265.77" y="-287" font-family="Helvetica,sans-Serif" font-size="10.00">+</text>
<text text-anchor="start" x="275.19" y="-287" font-family="Helvetica,sans-Serif" font-size="10.00">spine()</text>
<text text-anchor="start" x="265.77" y="-273" font-family="Helvetica,sans-Serif" font-size="10.00">+</text>
<text text-anchor="start" x="275.19" y="-273" font-family="Helvetica,sans-Serif" font-size="10.00">~spine()</text>
<text text-anchor="start" x="265.77" y="-259" font-family="Helvetica,sans-Serif" font-size="10.00">+</text>
<text text-anchor="start" x="275.19" y="-259" font-family="Helvetica,sans-Serif" font-size="10.00">operator=()</text>
<text text-anchor="start" x="265.77" y="-245" font-family="Helvetica,sans-Serif" font-size="10.00">+</text>
<text text-anchor="start" x="275.19" y="-245" font-family="Helvetica,sans-Serif" font-size="10.00">operator=()</text>
<text text-anchor="start" x="265.77" y="-231" font-family="Helvetica,sans-Serif" font-size="10.00">+</text>
<text text-anchor="start" x="275.19" y="-231" font-family="Helvetica,sans-Serif" font-size="10.00">add()</text>
<text text-anchor="start" x="265.77" y="-217" font-family="Helvetica,sans-Serif" font-size="10.00">+</text>
<text text-anchor="start" x="275.19" y="-217" font-family="Helvetica,sans-Serif" font-size="10.00">begin()</text>
<text text-anchor="start" x="265.77" y="-203" font-family="Helvetica,sans-Serif" font-size="10.00">+</text>
<text text-anchor="start" x="275.19" y="-203" font-family="Helvetica,sans-Serif" font-size="10.00">end()</text>
<polygon fill="#666666" stroke="#666666" points="262.19,-339 262.19,-339 328.19,-339 328.19,-339 262.19,-339"/>
<polygon fill="#666666" stroke="#666666" points="262.19,-325 262.19,-325 328.19,-325 328.19,-325 262.19,-325"/>
<polygon fill="none" stroke="#666666" points="262.19,-197 262.19,-355 328.19,-355 328.19,-197 262.19,-197"/>
</a>
</g>
</g>
<!-- Node15&#45;&gt;Node1 -->
<g id="edge17_Node000001_Node000015" class="edge">
<title>Node15&#45;&gt;Node1</title>
<g id="a_edge17_Node000001_Node000015"><a xlink:title=" ">
<path fill="none" stroke="#63b8ff" d="M262.1,-204.72C252.83,-186.06 242.47,-166.08 232.19,-148 229.36,-143.01 226.34,-137.91 223.25,-132.81"/>
<polygon fill="none" stroke="#63b8ff" points="223.12,-132.6 216.57,-129.6 216.82,-122.39 223.37,-125.4 223.12,-132.6"/>
</a>
</g>
<text text-anchor="middle" x="253.98" y="-150" font-family="Helvetica,sans-Serif" font-size="10.00" fill="grey"> &#45;_spine</text>
</g>
<!-- Node16 -->
<g id="Node000016" class="node">
<title>Node16</title>
<g id="a_Node000016"><a xlink:title=" ">
<polygon fill="white" stroke="transparent" points="366.19,-592 254.19,-592 254.19,-536 366.19,-536 366.19,-592"/>
<text text-anchor="start" x="258.92" y="-580" font-family="Helvetica,sans-Serif" font-size="10.00">std::vector&lt; weak_item</text>
<text text-anchor="start" x="297.27" y="-570" font-family="Helvetica,sans-Serif" font-size="10.00">_ptr &gt;</text>
<text text-anchor="start" x="271.27" y="-556" font-family="Helvetica,sans-Serif" font-size="10.00">+</text>
<text text-anchor="start" x="294.19" y="-556" font-family="Helvetica,sans-Serif" font-size="10.00">elements</text>
<text text-anchor="start" x="308.8" y="-542" font-family="Helvetica,sans-Serif" font-size="10.00"> </text>
<polygon fill="#666666" stroke="#666666" points="254.19,-566 254.19,-566 366.19,-566 366.19,-566 254.19,-566"/>
<polygon fill="#666666" stroke="#666666" points="254.19,-552 254.19,-552 292.19,-552 292.19,-552 254.19,-552"/>
<polygon fill="#666666" stroke="#666666" points="292.19,-552 292.19,-552 366.19,-552 366.19,-552 292.19,-552"/>
<polygon fill="none" stroke="#666666" points="254.19,-536 254.19,-592 366.19,-592 366.19,-536 254.19,-536"/>
</a>
</g>
</g>
<!-- Node16&#45;&gt;Node15 -->
<g id="edge18_Node000015_Node000016" class="edge">
<title>Node16&#45;&gt;Node15</title>
<g id="a_edge18_Node000015_Node000016"><a xlink:title=" ">
<path fill="none" stroke="#63b8ff" d="M308.77,-535.84C306.76,-497.5 302.99,-425.7 299.93,-367.42"/>
<polygon fill="none" stroke="#63b8ff" points="299.92,-367.2 295.61,-361.41 299.29,-355.21 303.6,-360.99 299.92,-367.2"/>
</a>
</g>
<text text-anchor="middle" x="319.97" y="-396" font-family="Helvetica,sans-Serif" font-size="10.00" fill="grey"> &#45;_items</text>
</g>
</g>
</svg>
