<?xml version="1.0" encoding="UTF-8" standalone="no"?>
<!DOCTYPE svg PUBLIC "-//W3C//DTD SVG 1.1//EN"
 "http://www.w3.org/Graphics/SVG/1.1/DTD/svg11.dtd">
<!-- Generated by graphviz version 2.48.0 (20210717.1556)
 -->
<!-- Title: epub::collection Pages: 1 -->
<svg width="150pt" height="513pt"
 viewBox="0.00 0.00 150.28 513.00" xmlns="http://www.w3.org/2000/svg" xmlns:xlink="http://www.w3.org/1999/xlink">
<g id="graph0" class="graph" transform="scale(1 1) rotate(0) translate(4 509)">
<title>epub::collection</title>
<!-- Node1 -->
<g id="Node000001" class="node">
<title>Node1</title>
<g id="a_Node000001"><a xlink:title="An indication that the publication is part of a larger set.">
<polygon fill="#999999" stroke="transparent" points="130,-310 0,-310 0,0 130,0 130,-310"/>
<text text-anchor="start" x="30.25" y="-298" font-family="Helvetica,sans-Serif" font-size="10.00">epub::collection</text>
<text text-anchor="start" x="4.83" y="-284" font-family="Helvetica,sans-Serif" font-size="10.00">&#45;</text>
<text text-anchor="start" x="13" y="-284" font-family="Helvetica,sans-Serif" font-size="10.00">type _type</text>
<text text-anchor="start" x="3.58" y="-270" font-family="Helvetica,sans-Serif" font-size="10.00">+</text>
<text text-anchor="start" x="13" y="-270" font-family="Helvetica,sans-Serif" font-size="10.00">collection(std::u8string</text>
<text text-anchor="start" x="13" y="-260" font-family="Helvetica,sans-Serif" font-size="10.00"> name)</text>
<text text-anchor="start" x="3.58" y="-246" font-family="Helvetica,sans-Serif" font-size="10.00">+</text>
<text text-anchor="start" x="13" y="-246" font-family="Helvetica,sans-Serif" font-size="10.00">collection(const collection</text>
<text text-anchor="start" x="13" y="-236" font-family="Helvetica,sans-Serif" font-size="10.00"> &amp;)=default</text>
<text text-anchor="start" x="3.58" y="-222" font-family="Helvetica,sans-Serif" font-size="10.00">+</text>
<text text-anchor="start" x="13" y="-222" font-family="Helvetica,sans-Serif" font-size="10.00">collection(collection</text>
<text text-anchor="start" x="13" y="-212" font-family="Helvetica,sans-Serif" font-size="10.00"> &amp;&amp;)=default</text>
<text text-anchor="start" x="3.58" y="-198" font-family="Helvetica,sans-Serif" font-size="10.00">+</text>
<text text-anchor="start" x="13" y="-198" font-family="Helvetica,sans-Serif" font-size="10.00">~collection()=default</text>
<text text-anchor="start" x="3.58" y="-184" font-family="Helvetica,sans-Serif" font-size="10.00">+</text>
<text text-anchor="start" x="13" y="-184" font-family="Helvetica,sans-Serif" font-size="10.00">collection &amp; operator</text>
<text text-anchor="start" x="13" y="-174" font-family="Helvetica,sans-Serif" font-size="10.00">=(const collection &amp;)</text>
<text text-anchor="start" x="13" y="-164" font-family="Helvetica,sans-Serif" font-size="10.00">=default</text>
<text text-anchor="start" x="3.58" y="-150" font-family="Helvetica,sans-Serif" font-size="10.00">+</text>
<text text-anchor="start" x="13" y="-150" font-family="Helvetica,sans-Serif" font-size="10.00">collection &amp; operator</text>
<text text-anchor="start" x="13" y="-140" font-family="Helvetica,sans-Serif" font-size="10.00">=(collection &amp;&amp;)=default</text>
<text text-anchor="start" x="3.58" y="-126" font-family="Helvetica,sans-Serif" font-size="10.00">+</text>
<text text-anchor="start" x="13" y="-126" font-family="Helvetica,sans-Serif" font-size="10.00">operator const std</text>
<text text-anchor="start" x="13" y="-116" font-family="Helvetica,sans-Serif" font-size="10.00">::u8string &amp;() const</text>
<text text-anchor="start" x="3.58" y="-102" font-family="Helvetica,sans-Serif" font-size="10.00">+</text>
<text text-anchor="start" x="13" y="-102" font-family="Helvetica,sans-Serif" font-size="10.00">enum type type() const</text>
<text text-anchor="start" x="3.58" y="-88" font-family="Helvetica,sans-Serif" font-size="10.00">+</text>
<text text-anchor="start" x="13" y="-88" font-family="Helvetica,sans-Serif" font-size="10.00">void type(enum type</text>
<text text-anchor="start" x="13" y="-78" font-family="Helvetica,sans-Serif" font-size="10.00"> type)</text>
<text text-anchor="start" x="3.58" y="-64" font-family="Helvetica,sans-Serif" font-size="10.00">+</text>
<text text-anchor="start" x="13" y="-64" font-family="Helvetica,sans-Serif" font-size="10.00">std::u8string group</text>
<text text-anchor="start" x="13" y="-54" font-family="Helvetica,sans-Serif" font-size="10.00">_position() const</text>
<text text-anchor="start" x="3.58" y="-40" font-family="Helvetica,sans-Serif" font-size="10.00">+</text>
<text text-anchor="start" x="13" y="-40" font-family="Helvetica,sans-Serif" font-size="10.00">void group_position</text>
<text text-anchor="start" x="13" y="-30" font-family="Helvetica,sans-Serif" font-size="10.00">(unsigned position)</text>
<text text-anchor="start" x="3.58" y="-16" font-family="Helvetica,sans-Serif" font-size="10.00">+</text>
<text text-anchor="start" x="13" y="-16" font-family="Helvetica,sans-Serif" font-size="10.00">void group_position</text>
<text text-anchor="start" x="13" y="-6" font-family="Helvetica,sans-Serif" font-size="10.00">(std::u8string position)</text>
<polygon fill="#666666" stroke="#666666" points="0,-294 0,-294 130,-294 130,-294 0,-294"/>
<polygon fill="#666666" stroke="#666666" points="0,-280 0,-280 11,-280 11,-280 0,-280"/>
<polygon fill="#666666" stroke="#666666" points="11,-280 11,-280 130,-280 130,-280 11,-280"/>
<polygon fill="none" stroke="#666666" points="0,0 0,-310 130,-310 130,0 0,0"/>
</a>
</g>
</g>
<!-- Node2 -->
<g id="Node000002" class="node">
<title>Node2</title>
<g id="a_Node000002"><a xlink:title=" ">
<polygon fill="white" stroke="transparent" points="97,-412 33,-412 33,-366 97,-366 97,-412"/>
<text text-anchor="start" x="37.76" y="-400" font-family="Helvetica,sans-Serif" font-size="10.00">std::u8string</text>
<text text-anchor="start" x="63.61" y="-386" font-family="Helvetica,sans-Serif" font-size="10.00"> </text>
<text text-anchor="start" x="63.61" y="-372" font-family="Helvetica,sans-Serif" font-size="10.00"> </text>
<polygon fill="#666666" stroke="#666666" points="33,-396 33,-396 97,-396 97,-396 33,-396"/>
<polygon fill="#666666" stroke="#666666" points="33,-382 33,-382 97,-382 97,-382 33,-382"/>
<polygon fill="none" stroke="#666666" points="33,-366 33,-412 97,-412 97,-366 33,-366"/>
</a>
</g>
</g>
<!-- Node2&#45;&gt;Node1 -->
<g id="edge1_Node000001_Node000002" class="edge">
<title>Node2&#45;&gt;Node1</title>
<g id="a_edge1_Node000001_Node000002"><a xlink:title=" ">
<path fill="none" stroke="#63b8ff" d="M65,-365.75C65,-354.24 65,-339.03 65,-322.06"/>
<polygon fill="none" stroke="#63b8ff" points="65,-322.05 61,-316.05 65,-310.05 69,-316.05 65,-322.05"/>
</a>
</g>
<text text-anchor="middle" x="103.64" y="-340" font-family="Helvetica,sans-Serif" font-size="10.00" fill="grey"> &#45;_group_position</text>
<text text-anchor="middle" x="103.64" y="-330" font-family="Helvetica,sans-Serif" font-size="10.00" fill="grey">&#45;_name</text>
</g>
<!-- Node3 -->
<g id="Node000003" class="node">
<title>Node3</title>
<g id="a_Node000003"><a xlink:title=" ">
<polygon fill="white" stroke="transparent" points="109,-505 21,-505 21,-449 109,-449 109,-505"/>
<text text-anchor="start" x="25.95" y="-493" font-family="Helvetica,sans-Serif" font-size="10.00">std::basic_string&lt;</text>
<text text-anchor="start" x="48.46" y="-483" font-family="Helvetica,sans-Serif" font-size="10.00"> Char &gt;</text>
<text text-anchor="start" x="63.61" y="-469" font-family="Helvetica,sans-Serif" font-size="10.00"> </text>
<text text-anchor="start" x="63.61" y="-455" font-family="Helvetica,sans-Serif" font-size="10.00"> </text>
<polygon fill="#666666" stroke="#666666" points="21,-479 21,-479 109,-479 109,-479 21,-479"/>
<polygon fill="#666666" stroke="#666666" points="21,-465 21,-465 109,-465 109,-465 21,-465"/>
<polygon fill="none" stroke="#666666" points="21,-449 21,-505 109,-505 109,-449 21,-449"/>
</a>
</g>
</g>
<!-- Node3&#45;&gt;Node2 -->
<g id="edge2_Node000002_Node000003" class="edge">
<title>Node3&#45;&gt;Node2</title>
<g id="a_edge2_Node000002_Node000003"><a xlink:title=" ">
<path fill="none" stroke="#63b8ff" d="M65,-438.78C65,-429.7 65,-420.27 65,-412.15"/>
<polygon fill="none" stroke="#63b8ff" points="61.5,-438.79 65,-448.79 68.5,-438.79 61.5,-438.79"/>
</a>
</g>
</g>
</g>
</svg>
