<?xml version="1.0" encoding="UTF-8" standalone="no"?>
<!DOCTYPE svg PUBLIC "-//W3C//DTD SVG 1.1//EN"
 "http://www.w3.org/Graphics/SVG/1.1/DTD/svg11.dtd">
<!-- Generated by graphviz version 2.48.0 (20210717.1556)
 -->
<!-- Title: epub::creator Pages: 1 -->
<svg width="105pt" height="339pt"
 viewBox="0.00 0.00 105.00 339.00" xmlns="http://www.w3.org/2000/svg" xmlns:xlink="http://www.w3.org/1999/xlink">
<g id="graph0" class="graph" transform="scale(1 1) rotate(0) translate(4 335)">
<title>epub::creator</title>
<!-- Node1 -->
<g id="Node000001" class="node">
<title>Node1</title>
<g id="a_Node000001"><a xlink:title="An individual or organizational creator.">
<polygon fill="#999999" stroke="transparent" points="97,-126 0,-126 0,0 97,0 97,-126"/>
<text text-anchor="start" x="19.54" y="-114" font-family="Helvetica,sans-Serif" font-size="10.00">epub::creator</text>
<text text-anchor="start" x="47.61" y="-100" font-family="Helvetica,sans-Serif" font-size="10.00"> </text>
<text text-anchor="start" x="4.08" y="-86" font-family="Helvetica,sans-Serif" font-size="10.00">+</text>
<text text-anchor="start" x="13.5" y="-86" font-family="Helvetica,sans-Serif" font-size="10.00">creator()</text>
<text text-anchor="start" x="4.08" y="-72" font-family="Helvetica,sans-Serif" font-size="10.00">+</text>
<text text-anchor="start" x="13.5" y="-72" font-family="Helvetica,sans-Serif" font-size="10.00">operator const std</text>
<text text-anchor="start" x="13.5" y="-62" font-family="Helvetica,sans-Serif" font-size="10.00">::u8string &amp;()</text>
<text text-anchor="start" x="4.08" y="-48" font-family="Helvetica,sans-Serif" font-size="10.00">+</text>
<text text-anchor="start" x="13.5" y="-48" font-family="Helvetica,sans-Serif" font-size="10.00">file_as()</text>
<text text-anchor="start" x="4.08" y="-34" font-family="Helvetica,sans-Serif" font-size="10.00">+</text>
<text text-anchor="start" x="13.5" y="-34" font-family="Helvetica,sans-Serif" font-size="10.00">file_as()</text>
<text text-anchor="start" x="4.08" y="-20" font-family="Helvetica,sans-Serif" font-size="10.00">+</text>
<text text-anchor="start" x="13.5" y="-20" font-family="Helvetica,sans-Serif" font-size="10.00">role()</text>
<text text-anchor="start" x="4.08" y="-6" font-family="Helvetica,sans-Serif" font-size="10.00">+</text>
<text text-anchor="start" x="13.5" y="-6" font-family="Helvetica,sans-Serif" font-size="10.00">role()</text>
<polygon fill="#666666" stroke="#666666" points="0.5,-110 0.5,-110 97.5,-110 97.5,-110 0.5,-110"/>
<polygon fill="#666666" stroke="#666666" points="0.5,-96 0.5,-96 97.5,-96 97.5,-96 0.5,-96"/>
<polygon fill="none" stroke="#666666" points="0,0 0,-126 97,-126 97,0 0,0"/>
</a>
</g>
</g>
<!-- Node2 -->
<g id="Node000002" class="node">
<title>Node2</title>
<g id="a_Node000002"><a xlink:title=" ">
<polygon fill="white" stroke="transparent" points="80.5,-238 16.5,-238 16.5,-192 80.5,-192 80.5,-238"/>
<text text-anchor="start" x="21.26" y="-226" font-family="Helvetica,sans-Serif" font-size="10.00">std::u8string</text>
<text text-anchor="start" x="47.11" y="-212" font-family="Helvetica,sans-Serif" font-size="10.00"> </text>
<text text-anchor="start" x="47.11" y="-198" font-family="Helvetica,sans-Serif" font-size="10.00"> </text>
<polygon fill="#666666" stroke="#666666" points="16.5,-222 16.5,-222 80.5,-222 80.5,-222 16.5,-222"/>
<polygon fill="#666666" stroke="#666666" points="16.5,-208 16.5,-208 80.5,-208 80.5,-208 16.5,-208"/>
<polygon fill="none" stroke="#666666" points="16.5,-192 16.5,-238 80.5,-238 80.5,-192 16.5,-192"/>
</a>
</g>
</g>
<!-- Node2&#45;&gt;Node1 -->
<g id="edge1_Node000001_Node000002" class="edge">
<title>Node2&#45;&gt;Node1</title>
<g id="a_edge1_Node000001_Node000002"><a xlink:title=" ">
<path fill="none" stroke="#63b8ff" d="M48.5,-191.87C48.5,-177.49 48.5,-157.85 48.5,-138.27"/>
<polygon fill="none" stroke="#63b8ff" points="48.5,-138.13 44.5,-132.13 48.5,-126.13 52.5,-132.13 48.5,-138.13"/>
</a>
</g>
<text text-anchor="middle" x="68.79" y="-166" font-family="Helvetica,sans-Serif" font-size="10.00" fill="grey"> &#45;_file_as</text>
<text text-anchor="middle" x="68.79" y="-156" font-family="Helvetica,sans-Serif" font-size="10.00" fill="grey">&#45;_name</text>
<text text-anchor="middle" x="68.79" y="-146" font-family="Helvetica,sans-Serif" font-size="10.00" fill="grey">&#45;_role</text>
</g>
<!-- Node3 -->
<g id="Node000003" class="node">
<title>Node3</title>
<g id="a_Node000003"><a xlink:title=" ">
<polygon fill="white" stroke="transparent" points="92.5,-331 4.5,-331 4.5,-275 92.5,-275 92.5,-331"/>
<text text-anchor="start" x="9.45" y="-319" font-family="Helvetica,sans-Serif" font-size="10.00">std::basic_string&lt;</text>
<text text-anchor="start" x="31.96" y="-309" font-family="Helvetica,sans-Serif" font-size="10.00"> Char &gt;</text>
<text text-anchor="start" x="47.11" y="-295" font-family="Helvetica,sans-Serif" font-size="10.00"> </text>
<text text-anchor="start" x="47.11" y="-281" font-family="Helvetica,sans-Serif" font-size="10.00"> </text>
<polygon fill="#666666" stroke="#666666" points="4.5,-305 4.5,-305 92.5,-305 92.5,-305 4.5,-305"/>
<polygon fill="#666666" stroke="#666666" points="4.5,-291 4.5,-291 92.5,-291 92.5,-291 4.5,-291"/>
<polygon fill="none" stroke="#666666" points="4.5,-275 4.5,-331 92.5,-331 92.5,-275 4.5,-275"/>
</a>
</g>
</g>
<!-- Node3&#45;&gt;Node2 -->
<g id="edge2_Node000002_Node000003" class="edge">
<title>Node3&#45;&gt;Node2</title>
<g id="a_edge2_Node000002_Node000003"><a xlink:title=" ">
<path fill="none" stroke="#63b8ff" d="M48.5,-264.78C48.5,-255.7 48.5,-246.27 48.5,-238.15"/>
<polygon fill="none" stroke="#63b8ff" points="45,-264.79 48.5,-274.79 52,-264.79 45,-264.79"/>
</a>
</g>
</g>
</g>
</svg>
