<?xml version="1.0" encoding="UTF-8" standalone="no"?>
<!DOCTYPE svg PUBLIC "-//W3C//DTD SVG 1.1//EN"
 "http://www.w3.org/Graphics/SVG/1.1/DTD/svg11.dtd">
<!-- Generated by graphviz version 2.48.0 (20210717.1556)
 -->
<!-- Title: IIFileStreamReader Pages: 1 -->
<svg width="118pt" height="540pt"
 viewBox="0.00 0.00 118.00 540.00" xmlns="http://www.w3.org/2000/svg" xmlns:xlink="http://www.w3.org/1999/xlink">
<g id="graph0" class="graph" transform="scale(1 1) rotate(0) translate(4 536)">
<title>IIFileStreamReader</title>
<!-- Node1 -->
<g id="Node000001" class="node">
<title>Node1</title>
<g id="a_Node000001"><a xlink:title=" ">
<polygon fill="#999999" stroke="transparent" points="110,-88 0,-88 0,0 110,0 110,-88"/>
<text text-anchor="start" x="11.65" y="-76" font-family="Helvetica,sans-Serif" font-size="10.00">IIFileStreamReader</text>
<text text-anchor="start" x="53.61" y="-62" font-family="Helvetica,sans-Serif" font-size="10.00"> </text>
<text text-anchor="start" x="3.58" y="-48" font-family="Helvetica,sans-Serif" font-size="10.00">+</text>
<text text-anchor="start" x="13" y="-48" font-family="Helvetica,sans-Serif" font-size="10.00">IIFileStreamReader()</text>
<text text-anchor="start" x="3.58" y="-34" font-family="Helvetica,sans-Serif" font-size="10.00">+</text>
<text text-anchor="start" x="13" y="-34" font-family="Helvetica,sans-Serif" font-size="10.00">IIFileStreamReader()</text>
<text text-anchor="start" x="3.58" y="-20" font-family="Helvetica,sans-Serif" font-size="10.00">+</text>
<text text-anchor="start" x="13" y="-20" font-family="Helvetica,sans-Serif" font-size="10.00">size()</text>
<text text-anchor="start" x="3.58" y="-6" font-family="Helvetica,sans-Serif" font-size="10.00">+</text>
<text text-anchor="start" x="13" y="-6" font-family="Helvetica,sans-Serif" font-size="10.00">read()</text>
<polygon fill="#666666" stroke="#666666" points="0,-72 0,-72 110,-72 110,-72 0,-72"/>
<polygon fill="#666666" stroke="#666666" points="0,-58 0,-58 110,-58 110,-58 0,-58"/>
<polygon fill="none" stroke="#666666" points="0,0 0,-88 110,-88 110,0 0,0"/>
</a>
</g>
</g>
<!-- Node2 -->
<g id="Node000002" class="node">
<title>Node2</title>
<g id="a_Node000002"><a xlink:title=" ">
<polygon fill="white" stroke="transparent" points="87,-180 23,-180 23,-134 87,-134 87,-180"/>
<text text-anchor="start" x="27.77" y="-168" font-family="Helvetica,sans-Serif" font-size="10.00">std::ifstream</text>
<text text-anchor="start" x="53.61" y="-154" font-family="Helvetica,sans-Serif" font-size="10.00"> </text>
<text text-anchor="start" x="53.61" y="-140" font-family="Helvetica,sans-Serif" font-size="10.00"> </text>
<polygon fill="#666666" stroke="#666666" points="23,-164 23,-164 87,-164 87,-164 23,-164"/>
<polygon fill="#666666" stroke="#666666" points="23,-150 23,-150 87,-150 87,-150 23,-150"/>
<polygon fill="none" stroke="#666666" points="23,-134 23,-180 87,-180 87,-134 23,-134"/>
</a>
</g>
</g>
<!-- Node2&#45;&gt;Node1 -->
<g id="edge1_Node000001_Node000002" class="edge">
<title>Node2&#45;&gt;Node1</title>
<g id="a_edge1_Node000001_Node000002"><a xlink:title=" ">
<path fill="none" stroke="#63b8ff" d="M55,-133.8C55,-124.13 55,-112.32 55,-100.5"/>
<polygon fill="none" stroke="#63b8ff" points="55,-100.28 51,-94.28 55,-88.28 59,-94.28 55,-100.28"/>
</a>
</g>
<text text-anchor="middle" x="71.39" y="-108" font-family="Helvetica,sans-Serif" font-size="10.00" fill="grey"> &#45;m_file</text>
</g>
<!-- Node3 -->
<g id="Node000003" class="node">
<title>Node3</title>
<g id="a_Node000003"><a xlink:title=" ">
<polygon fill="white" stroke="transparent" points="101.5,-273 8.5,-273 8.5,-217 101.5,-217 101.5,-273"/>
<text text-anchor="start" x="13.82" y="-261" font-family="Helvetica,sans-Serif" font-size="10.00">std::basic_ifstream</text>
<text text-anchor="start" x="36.04" y="-251" font-family="Helvetica,sans-Serif" font-size="10.00">&lt; Char &gt;</text>
<text text-anchor="start" x="54.11" y="-237" font-family="Helvetica,sans-Serif" font-size="10.00"> </text>
<text text-anchor="start" x="54.11" y="-223" font-family="Helvetica,sans-Serif" font-size="10.00"> </text>
<polygon fill="#666666" stroke="#666666" points="9,-247 9,-247 102,-247 102,-247 9,-247"/>
<polygon fill="#666666" stroke="#666666" points="9,-233 9,-233 102,-233 102,-233 9,-233"/>
<polygon fill="none" stroke="#666666" points="8.5,-217 8.5,-273 101.5,-273 101.5,-217 8.5,-217"/>
</a>
</g>
</g>
<!-- Node3&#45;&gt;Node2 -->
<g id="edge2_Node000002_Node000003" class="edge">
<title>Node3&#45;&gt;Node2</title>
<g id="a_edge2_Node000002_Node000003"><a xlink:title=" ">
<path fill="none" stroke="#63b8ff" d="M55,-206.78C55,-197.7 55,-188.27 55,-180.15"/>
<polygon fill="none" stroke="#63b8ff" points="51.5,-206.79 55,-216.79 58.5,-206.79 51.5,-206.79"/>
</a>
</g>
</g>
<!-- Node4 -->
<g id="Node000004" class="node">
<title>Node4</title>
<g id="a_Node000004"><a xlink:title=" ">
<polygon fill="white" stroke="transparent" points="100,-366 10,-366 10,-310 100,-310 100,-366"/>
<text text-anchor="start" x="14.71" y="-354" font-family="Helvetica,sans-Serif" font-size="10.00">std::basic_istream</text>
<text text-anchor="start" x="35.54" y="-344" font-family="Helvetica,sans-Serif" font-size="10.00">&lt; Char &gt;</text>
<text text-anchor="start" x="53.61" y="-330" font-family="Helvetica,sans-Serif" font-size="10.00"> </text>
<text text-anchor="start" x="53.61" y="-316" font-family="Helvetica,sans-Serif" font-size="10.00"> </text>
<polygon fill="#666666" stroke="#666666" points="10,-340 10,-340 100,-340 100,-340 10,-340"/>
<polygon fill="#666666" stroke="#666666" points="10,-326 10,-326 100,-326 100,-326 10,-326"/>
<polygon fill="none" stroke="#666666" points="10,-310 10,-366 100,-366 100,-310 10,-310"/>
</a>
</g>
</g>
<!-- Node4&#45;&gt;Node3 -->
<g id="edge3_Node000003_Node000004" class="edge">
<title>Node4&#45;&gt;Node3</title>
<g id="a_edge3_Node000003_Node000004"><a xlink:title=" ">
<path fill="none" stroke="#63b8ff" d="M55,-299.62C55,-290.8 55,-281.56 55,-273.28"/>
<polygon fill="none" stroke="#63b8ff" points="51.5,-299.7 55,-309.7 58.5,-299.7 51.5,-299.7"/>
</a>
</g>
</g>
<!-- Node5 -->
<g id="Node000005" class="node">
<title>Node5</title>
<g id="a_Node000005"><a xlink:title=" ">
<polygon fill="white" stroke="transparent" points="109.5,-449 0.5,-449 0.5,-403 109.5,-403 109.5,-449"/>
<text text-anchor="start" x="5.75" y="-437" font-family="Helvetica,sans-Serif" font-size="10.00">std::basic_ios&lt; Char &gt;</text>
<text text-anchor="start" x="54.11" y="-423" font-family="Helvetica,sans-Serif" font-size="10.00"> </text>
<text text-anchor="start" x="54.11" y="-409" font-family="Helvetica,sans-Serif" font-size="10.00"> </text>
<polygon fill="#666666" stroke="#666666" points="1,-433 1,-433 110,-433 110,-433 1,-433"/>
<polygon fill="#666666" stroke="#666666" points="1,-419 1,-419 110,-419 110,-419 1,-419"/>
<polygon fill="none" stroke="#666666" points="0.5,-403 0.5,-449 109.5,-449 109.5,-403 0.5,-403"/>
</a>
</g>
</g>
<!-- Node5&#45;&gt;Node4 -->
<g id="edge4_Node000004_Node000005" class="edge">
<title>Node5&#45;&gt;Node4</title>
<g id="a_edge4_Node000004_Node000005"><a xlink:title=" ">
<path fill="none" stroke="#63b8ff" d="M55,-392.67C55,-383.99 55,-374.68 55,-366.3"/>
<polygon fill="none" stroke="#63b8ff" points="51.5,-392.85 55,-402.85 58.5,-392.85 51.5,-392.85"/>
</a>
</g>
</g>
<!-- Node6 -->
<g id="Node000006" class="node">
<title>Node6</title>
<g id="a_Node000006"><a xlink:title=" ">
<polygon fill="white" stroke="transparent" points="89,-532 21,-532 21,-486 89,-486 89,-532"/>
<text text-anchor="start" x="25.54" y="-520" font-family="Helvetica,sans-Serif" font-size="10.00">std::ios_base</text>
<text text-anchor="start" x="53.61" y="-506" font-family="Helvetica,sans-Serif" font-size="10.00"> </text>
<text text-anchor="start" x="53.61" y="-492" font-family="Helvetica,sans-Serif" font-size="10.00"> </text>
<polygon fill="#666666" stroke="#666666" points="21,-516 21,-516 89,-516 89,-516 21,-516"/>
<polygon fill="#666666" stroke="#666666" points="21,-502 21,-502 89,-502 89,-502 21,-502"/>
<polygon fill="none" stroke="#666666" points="21,-486 21,-532 89,-532 89,-486 21,-486"/>
</a>
</g>
</g>
<!-- Node6&#45;&gt;Node5 -->
<g id="edge5_Node000005_Node000006" class="edge">
<title>Node6&#45;&gt;Node5</title>
<g id="a_edge5_Node000005_Node000006"><a xlink:title=" ">
<path fill="none" stroke="#63b8ff" d="M55,-475.75C55,-466.81 55,-457.32 55,-449.11"/>
<polygon fill="none" stroke="#63b8ff" points="51.5,-475.87 55,-485.87 58.5,-475.87 51.5,-475.87"/>
</a>
</g>
</g>
</g>
</svg>
