<?xml version="1.0" encoding="UTF-8" standalone="no"?>
<!DOCTYPE svg PUBLIC "-//W3C//DTD SVG 1.1//EN"
 "http://www.w3.org/Graphics/SVG/1.1/DTD/svg11.dtd">
<!-- Generated by graphviz version 2.48.0 (20210717.1556)
 -->
<!-- Title: IIFileReader Pages: 1 -->
<svg width="86pt" height="82pt"
 viewBox="0.00 0.00 86.00 82.00" xmlns="http://www.w3.org/2000/svg" xmlns:xlink="http://www.w3.org/1999/xlink">
<g id="graph0" class="graph" transform="scale(1 1) rotate(0) translate(4 78)">
<title>IIFileReader</title>
<!-- Node1 -->
<g id="Node000001" class="node">
<title>Node1</title>
<g id="a_Node000001"><a xlink:title=" ">
<polygon fill="#999999" stroke="transparent" points="78,-74 0,-74 0,0 78,0 78,-74"/>
<text text-anchor="start" x="11.77" y="-62" font-family="Helvetica,sans-Serif" font-size="10.00">IIFileReader</text>
<text text-anchor="start" x="4.83" y="-48" font-family="Helvetica,sans-Serif" font-size="10.00">&#45;</text>
<text text-anchor="start" x="13" y="-48" font-family="Helvetica,sans-Serif" font-size="10.00">m_file</text>
<text text-anchor="start" x="3.58" y="-34" font-family="Helvetica,sans-Serif" font-size="10.00">+</text>
<text text-anchor="start" x="13" y="-34" font-family="Helvetica,sans-Serif" font-size="10.00">IIFileReader()</text>
<text text-anchor="start" x="3.58" y="-20" font-family="Helvetica,sans-Serif" font-size="10.00">+</text>
<text text-anchor="start" x="13" y="-20" font-family="Helvetica,sans-Serif" font-size="10.00">size()</text>
<text text-anchor="start" x="3.58" y="-6" font-family="Helvetica,sans-Serif" font-size="10.00">+</text>
<text text-anchor="start" x="13" y="-6" font-family="Helvetica,sans-Serif" font-size="10.00">read()</text>
<polygon fill="#666666" stroke="#666666" points="0,-58 0,-58 78,-58 78,-58 0,-58"/>
<polygon fill="#666666" stroke="#666666" points="0,-44 0,-44 11,-44 11,-44 0,-44"/>
<polygon fill="#666666" stroke="#666666" points="11,-44 11,-44 78,-44 78,-44 11,-44"/>
<polygon fill="none" stroke="#666666" points="0,0 0,-74 78,-74 78,0 0,0"/>
</a>
</g>
</g>
</g>
</svg>
