<?xml version="1.0" encoding="UTF-8" standalone="no"?>
<!DOCTYPE svg PUBLIC "-//W3C//DTD SVG 1.1//EN"
 "http://www.w3.org/Graphics/SVG/1.1/DTD/svg11.dtd">
<!-- Generated by graphviz version 2.48.0 (20210717.1556)
 -->
<!-- Title: epub::duplicate_error Pages: 1 -->
<svg width="141pt" height="176pt"
 viewBox="0.00 0.00 141.00 176.00" xmlns="http://www.w3.org/2000/svg" xmlns:xlink="http://www.w3.org/1999/xlink">
<g id="graph0" class="graph" transform="scale(1 1) rotate(0) translate(4 172)">
<title>epub::duplicate_error</title>
<!-- Node1 -->
<g id="Node000001" class="node">
<title>Node1</title>
<g id="a_Node000001"><a xlink:title="An exception indicating a duplicate local path.">
<polygon fill="#999999" stroke="transparent" points="133,-76 0,-76 0,0 133,0 133,-76"/>
<text text-anchor="start" x="19.75" y="-64" font-family="Helvetica,sans-Serif" font-size="10.00">epub::duplicate_error</text>
<text text-anchor="start" x="65.61" y="-50" font-family="Helvetica,sans-Serif" font-size="10.00"> </text>
<text text-anchor="start" x="4.08" y="-36" font-family="Helvetica,sans-Serif" font-size="10.00">+</text>
<text text-anchor="start" x="13.5" y="-36" font-family="Helvetica,sans-Serif" font-size="10.00">duplicate_error(const</text>
<text text-anchor="start" x="13.5" y="-26" font-family="Helvetica,sans-Serif" font-size="10.00"> std::filesystem::path</text>
<text text-anchor="start" x="13.5" y="-16" font-family="Helvetica,sans-Serif" font-size="10.00"> &amp;p1, const std::filesystem</text>
<text text-anchor="start" x="13.5" y="-6" font-family="Helvetica,sans-Serif" font-size="10.00">::path &amp;p2)</text>
<polygon fill="#666666" stroke="#666666" points="0.5,-60 0.5,-60 133.5,-60 133.5,-60 0.5,-60"/>
<polygon fill="#666666" stroke="#666666" points="0.5,-46 0.5,-46 133.5,-46 133.5,-46 0.5,-46"/>
<polygon fill="none" stroke="#666666" points="0,0 0,-76 133,-76 133,0 0,0"/>
</a>
</g>
</g>
<!-- Node2 -->
<g id="Node000002" class="node">
<title>Node2</title>
<g id="a_Node000002"><a xlink:title=" ">
<polygon fill="white" stroke="transparent" points="128,-168 5,-168 5,-112 128,-112 128,-168"/>
<text text-anchor="start" x="10.32" y="-156" font-family="Helvetica,sans-Serif" font-size="10.00">std::filesystem::filesystem</text>
<text text-anchor="start" x="53.66" y="-146" font-family="Helvetica,sans-Serif" font-size="10.00">_error</text>
<text text-anchor="start" x="65.61" y="-132" font-family="Helvetica,sans-Serif" font-size="10.00"> </text>
<text text-anchor="start" x="65.61" y="-118" font-family="Helvetica,sans-Serif" font-size="10.00"> </text>
<polygon fill="#666666" stroke="#666666" points="5.5,-142 5.5,-142 128.5,-142 128.5,-142 5.5,-142"/>
<polygon fill="#666666" stroke="#666666" points="5.5,-128 5.5,-128 128.5,-128 128.5,-128 5.5,-128"/>
<polygon fill="none" stroke="#666666" points="5,-112 5,-168 128,-168 128,-112 5,-112"/>
</a>
</g>
</g>
<!-- Node2&#45;&gt;Node1 -->
<g id="edge1_Node000001_Node000002" class="edge">
<title>Node2&#45;&gt;Node1</title>
<g id="a_edge1_Node000001_Node000002"><a xlink:title=" ">
<path fill="none" stroke="#63b8ff" d="M66.5,-101.73C66.5,-93.39 66.5,-84.55 66.5,-76.22"/>
<polygon fill="none" stroke="#63b8ff" points="63,-101.94 66.5,-111.94 70,-101.94 63,-101.94"/>
</a>
</g>
</g>
</g>
</svg>
