<?xml version="1.0" encoding="UTF-8" standalone="no"?>
<!DOCTYPE svg PUBLIC "-//W3C//DTD SVG 1.1//EN"
 "http://www.w3.org/Graphics/SVG/1.1/DTD/svg11.dtd">
<!-- Generated by graphviz version 2.48.0 (20210717.1556)
 -->
<!-- Title: epub::container::add Pages: 1 -->
<svg width="769pt" height="216pt"
 viewBox="0.00 0.00 769.03 216.00" xmlns="http://www.w3.org/2000/svg" xmlns:xlink="http://www.w3.org/1999/xlink">
<g id="graph0" class="graph" transform="scale(1 1) rotate(0) translate(4 212)">
<title>epub::container::add</title>
<!-- Node1 -->
<g id="Node000001" class="node">
<title>Node1</title>
<g id="a_Node000001"><a xlink:title="Add a file to the container.">
<polygon fill="#999999" stroke="#666666" points="107.27,-130 -0.09,-130 -0.09,-112 107.27,-112 107.27,-130"/>
<text text-anchor="middle" x="53.59" y="-118" font-family="Helvetica,sans-Serif" font-size="10.00">epub::container::add</text>
</a>
</g>
</g>
<!-- Node2 -->
<g id="Node000002" class="node">
<title>Node2</title>
<g id="a_Node000002"><a xlink:href="classepub_1_1container.html#a21f09459a7a7707799595d1199f36823" target="_top" xlink:title="Add a file to the container.">
<polygon fill="white" stroke="#666666" points="250.45,-130 143.09,-130 143.09,-112 250.45,-112 250.45,-130"/>
<text text-anchor="middle" x="196.77" y="-118" font-family="Helvetica,sans-Serif" font-size="10.00">epub::container::add</text>
</a>
</g>
</g>
<!-- Node1&#45;&gt;Node2 -->
<g id="edge1_Node000001_Node000002" class="edge">
<title>Node1&#45;&gt;Node2</title>
<g id="a_edge1_Node000001_Node000002"><a xlink:title=" ">
<path fill="none" stroke="#63b8ff" d="M107.56,-121C115.8,-121 124.37,-121 132.8,-121"/>
<polygon fill="#63b8ff" stroke="#63b8ff" points="132.97,-124.5 142.97,-121 132.97,-117.5 132.97,-124.5"/>
</a>
</g>
</g>
<!-- Node3 -->
<g id="Node000003" class="node">
<title>Node3</title>
<g id="a_Node000003"><a xlink:href="classepub_1_1package.html#af7f9775a7953713b225cc85cd4cb75f1" target="_top" xlink:title=" ">
<polygon fill="white" stroke="#666666" points="402.09,-205 298.39,-205 298.39,-177 402.09,-177 402.09,-205"/>
<text text-anchor="start" x="306.31" y="-193" font-family="Helvetica,sans-Serif" font-size="10.00">epub::package::add</text>
<text text-anchor="middle" x="350.24" y="-183" font-family="Helvetica,sans-Serif" font-size="10.00">_to_manifest</text>
</a>
</g>
</g>
<!-- Node2&#45;&gt;Node3 -->
<g id="edge2_Node000002_Node000003" class="edge">
<title>Node2&#45;&gt;Node3</title>
<g id="a_edge2_Node000002_Node000003"><a xlink:title=" ">
<path fill="none" stroke="#63b8ff" d="M217.26,-130.01C240.48,-140.74 279.85,-158.93 309.56,-172.66"/>
<polygon fill="#63b8ff" stroke="#63b8ff" points="308.29,-175.93 318.83,-176.95 311.22,-169.58 308.29,-175.93"/>
</a>
</g>
</g>
<!-- Node5 -->
<g id="Node000005" class="node">
<title>Node5</title>
<g id="a_Node000005"><a xlink:href="structepub_1_1file__metadata.html#a1860a627a4400926c2ea7c0f5dc3d28a" target="_top" xlink:title="Access a specified element.">
<polygon fill="white" stroke="#666666" points="412.04,-151 288.44,-151 288.44,-133 412.04,-133 412.04,-151"/>
<text text-anchor="middle" x="350.24" y="-139" font-family="Helvetica,sans-Serif" font-size="10.00">epub::file_metadata::get</text>
</a>
</g>
</g>
<!-- Node2&#45;&gt;Node5 -->
<g id="edge4_Node000002_Node000005" class="edge">
<title>Node2&#45;&gt;Node5</title>
<g id="a_edge4_Node000002_Node000005"><a xlink:title=" ">
<path fill="none" stroke="#63b8ff" d="M250.75,-128.34C259.71,-129.59 269.13,-130.89 278.46,-132.19"/>
<polygon fill="#63b8ff" stroke="#63b8ff" points="278.13,-135.67 288.51,-133.58 279.09,-128.74 278.13,-135.67"/>
</a>
</g>
</g>
<!-- Node6 -->
<g id="Node000006" class="node">
<title>Node6</title>
<g id="a_Node000006"><a xlink:href="namespaceepub_1_1xml.html#af7cb46a3f8e02006f205fc5d4461363e" target="_top" xlink:title=" ">
<polygon fill="white" stroke="#666666" points="404.5,-115 295.97,-115 295.97,-87 404.5,-87 404.5,-115"/>
<text text-anchor="start" x="304.1" y="-103" font-family="Helvetica,sans-Serif" font-size="10.00">epub::xml::get_xhtml</text>
<text text-anchor="middle" x="350.24" y="-93" font-family="Helvetica,sans-Serif" font-size="10.00">_metadata</text>
</a>
</g>
</g>
<!-- Node2&#45;&gt;Node6 -->
<g id="edge5_Node000002_Node000006" class="edge">
<title>Node2&#45;&gt;Node6</title>
<g id="a_edge5_Node000002_Node000006"><a xlink:title=" ">
<path fill="none" stroke="#63b8ff" d="M250.75,-114C262.1,-112.51 274.2,-110.91 285.89,-109.36"/>
<polygon fill="#63b8ff" stroke="#63b8ff" points="286.58,-112.8 296.04,-108.02 285.66,-105.86 286.58,-112.8"/>
</a>
</g>
</g>
<!-- Node13 -->
<g id="Node000013" class="node">
<title>Node13</title>
<g id="a_Node000013"><a xlink:href="namespaceepub.html#a23b48ddfbe26f7c4240f3772b035a163" target="_top" xlink:title="Guess the MIME type based on the file extension.">
<polygon fill="white" stroke="#666666" points="413.99,-69 286.49,-69 286.49,-51 413.99,-51 413.99,-69"/>
<text text-anchor="middle" x="350.24" y="-57" font-family="Helvetica,sans-Serif" font-size="10.00">epub::guess_media_type</text>
</a>
</g>
</g>
<!-- Node2&#45;&gt;Node13 -->
<g id="edge12_Node000002_Node000013" class="edge">
<title>Node2&#45;&gt;Node13</title>
<g id="a_edge12_Node000002_Node000013"><a xlink:title=" ">
<path fill="none" stroke="#63b8ff" d="M214.37,-111.87C231.89,-102.49 260.5,-87.9 286.36,-78 291.93,-75.87 297.87,-73.85 303.78,-72"/>
<polygon fill="#63b8ff" stroke="#63b8ff" points="305.07,-75.27 313.64,-69.03 303.05,-68.56 305.07,-75.27"/>
</a>
</g>
</g>
<!-- Node4 -->
<g id="Node000004" class="node">
<title>Node4</title>
<g id="a_Node000004"><a xlink:href="namespaceepub.html#a066b00e6e19cee9ebbb898c4182c0ad0" target="_top" xlink:title="Generate a XML ID.">
<polygon fill="white" stroke="#666666" points="570.44,-208 474.18,-208 474.18,-190 570.44,-190 570.44,-208"/>
<text text-anchor="middle" x="522.31" y="-196" font-family="Helvetica,sans-Serif" font-size="10.00">epub::generate_id</text>
</a>
</g>
</g>
<!-- Node3&#45;&gt;Node4 -->
<g id="edge3_Node000003_Node000004" class="edge">
<title>Node3&#45;&gt;Node4</title>
<g id="a_edge3_Node000003_Node000004"><a xlink:title=" ">
<path fill="none" stroke="#63b8ff" d="M402.26,-193.4C421.68,-194.31 443.92,-195.36 463.89,-196.3"/>
<polygon fill="#63b8ff" stroke="#63b8ff" points="463.94,-199.81 474.1,-196.78 464.27,-192.81 463.94,-199.81"/>
</a>
</g>
</g>
<!-- Node7 -->
<g id="Node000007" class="node">
<title>Node7</title>
<g id="a_Node000007"><a xlink:href="namespaceepub_1_1xml_1_1xpath.html#a3ddb6b7c8b6f479466d5f5e6744ba73f" target="_top" xlink:title=" ">
<polygon fill="white" stroke="#666666" points="579.09,-172 465.53,-172 465.53,-154 579.09,-154 579.09,-172"/>
<text text-anchor="middle" x="522.31" y="-160" font-family="Helvetica,sans-Serif" font-size="10.00">epub::xml::xpath::eval</text>
</a>
</g>
</g>
<!-- Node6&#45;&gt;Node7 -->
<g id="edge6_Node000006_Node000007" class="edge">
<title>Node6&#45;&gt;Node7</title>
<g id="a_edge6_Node000006_Node000007"><a xlink:title=" ">
<path fill="none" stroke="#63b8ff" d="M392.93,-115.07C400.08,-117.82 407.38,-120.84 414.11,-124 430.88,-131.88 432.96,-137.99 450.11,-145 455.63,-147.26 461.51,-149.29 467.43,-151.1"/>
<polygon fill="#63b8ff" stroke="#63b8ff" points="466.81,-154.56 477.39,-153.95 468.74,-147.83 466.81,-154.56"/>
</a>
</g>
</g>
<!-- Node9 -->
<g id="Node000009" class="node">
<title>Node9</title>
<g id="a_Node000009"><a xlink:href="namespaceepub_1_1xml.html#adb9b3025131fbd5e1dda00e726b90a2e" target="_top" xlink:title=" ">
<polygon fill="white" stroke="#666666" points="582.32,-136 462.3,-136 462.3,-118 582.32,-118 582.32,-136"/>
<text text-anchor="middle" x="522.31" y="-124" font-family="Helvetica,sans-Serif" font-size="10.00">epub::xml::get_attribute</text>
</a>
</g>
</g>
<!-- Node6&#45;&gt;Node9 -->
<g id="edge8_Node000006_Node000009" class="edge">
<title>Node6&#45;&gt;Node9</title>
<g id="a_edge8_Node000006_Node000009"><a xlink:title=" ">
<path fill="none" stroke="#63b8ff" d="M404.58,-109.16C419.61,-111.45 436.17,-113.98 451.98,-116.4"/>
<polygon fill="#63b8ff" stroke="#63b8ff" points="451.83,-119.92 462.24,-117.97 452.88,-113 451.83,-119.92"/>
</a>
</g>
</g>
<!-- Node10 -->
<g id="Node000010" class="node">
<title>Node10</title>
<g id="a_Node000010"><a xlink:href="namespaceepub_1_1xml_1_1xpath.html#a744d92700f8fe704d7c4171125ffb50e" target="_top" xlink:title=" ">
<polygon fill="white" stroke="#666666" points="579.09,-100 465.53,-100 465.53,-72 579.09,-72 579.09,-100"/>
<text text-anchor="start" x="473.67" y="-88" font-family="Helvetica,sans-Serif" font-size="10.00">epub::xml::xpath::new</text>
<text text-anchor="middle" x="522.31" y="-78" font-family="Helvetica,sans-Serif" font-size="10.00">_context</text>
</a>
</g>
</g>
<!-- Node6&#45;&gt;Node10 -->
<g id="edge9_Node000006_Node000010" class="edge">
<title>Node6&#45;&gt;Node10</title>
<g id="a_edge9_Node000006_Node000010"><a xlink:title=" ">
<path fill="none" stroke="#63b8ff" d="M404.58,-96.3C420.64,-94.88 438.45,-93.31 455.22,-91.83"/>
<polygon fill="#63b8ff" stroke="#63b8ff" points="455.86,-95.29 465.51,-90.92 455.24,-88.31 455.86,-95.29"/>
</a>
</g>
</g>
<!-- Node11 -->
<g id="Node000011" class="node">
<title>Node11</title>
<g id="a_Node000011"><a xlink:href="namespaceepub_1_1xml.html#aaf0bffb7886a36821341a97094892086" target="_top" xlink:title=" ">
<polygon fill="white" stroke="#666666" points="574.08,-54 470.54,-54 470.54,-36 574.08,-36 574.08,-54"/>
<text text-anchor="middle" x="522.31" y="-42" font-family="Helvetica,sans-Serif" font-size="10.00">epub::xml::read_file</text>
</a>
</g>
</g>
<!-- Node6&#45;&gt;Node11 -->
<g id="edge10_Node000006_Node000011" class="edge">
<title>Node6&#45;&gt;Node11</title>
<g id="a_edge10_Node000006_Node000011"><a xlink:title=" ">
<path fill="none" stroke="#63b8ff" d="M390.58,-86.91C398.4,-84.03 406.53,-80.96 414.11,-78 430.25,-71.69 433.66,-68.47 450.11,-63 456.93,-60.73 464.2,-58.59 471.39,-56.63"/>
<polygon fill="#63b8ff" stroke="#63b8ff" points="472.32,-60 481.1,-54.07 470.53,-53.23 472.32,-60"/>
</a>
</g>
</g>
<!-- Node12 -->
<g id="Node000012" class="node">
<title>Node12</title>
<g id="a_Node000012"><a xlink:href="namespaceepub_1_1xml_1_1xpath.html#a543037a98da24d06682a680af1173d70" target="_top" xlink:title=" ">
<polygon fill="white" stroke="#666666" points="594.71,-18 449.91,-18 449.91,0 594.71,0 594.71,-18"/>
<text text-anchor="middle" x="522.31" y="-6" font-family="Helvetica,sans-Serif" font-size="10.00">epub::xml::xpath::register_ns</text>
</a>
</g>
</g>
<!-- Node6&#45;&gt;Node12 -->
<g id="edge11_Node000006_Node000012" class="edge">
<title>Node6&#45;&gt;Node12</title>
<g id="a_edge11_Node000006_Node000012"><a xlink:title=" ">
<path fill="none" stroke="#63b8ff" d="M399.21,-87C404.49,-84.44 409.59,-81.46 414.11,-78 436.14,-61.13 427.24,-42.71 450.11,-27 452.71,-25.22 455.47,-23.61 458.33,-22.16"/>
<polygon fill="#63b8ff" stroke="#63b8ff" points="460,-25.25 467.77,-18.06 457.21,-18.83 460,-25.25"/>
</a>
</g>
</g>
<!-- Node8 -->
<g id="Node000008" class="node">
<title>Node8</title>
<g id="a_Node000008"><a xlink:href="namespaceepub_1_1xml_1_1xpath.html#aa18238d88cd31a713575de9b3e3892a1" target="_top" xlink:title=" ">
<polygon fill="white" stroke="#666666" points="760.79,-172 630.75,-172 630.75,-154 760.79,-154 760.79,-172"/>
<text text-anchor="middle" x="695.77" y="-160" font-family="Helvetica,sans-Serif" font-size="10.00">epub::xml::xpath::nodeset</text>
</a>
</g>
</g>
<!-- Node7&#45;&gt;Node8 -->
<g id="edge7_Node000007_Node000008" class="edge">
<title>Node7&#45;&gt;Node8</title>
<g id="a_edge7_Node000007_Node000008"><a xlink:title=" ">
<path fill="none" stroke="#63b8ff" d="M578.98,-163C592.28,-163 606.68,-163 620.66,-163"/>
<polygon fill="#63b8ff" stroke="#63b8ff" points="620.75,-166.5 630.75,-163 620.75,-159.5 620.75,-166.5"/>
</a>
</g>
</g>
</g>
</svg>
