<?xml version="1.0" encoding="UTF-8" standalone="no"?>
<!DOCTYPE svg PUBLIC "-//W3C//DTD SVG 1.1//EN"
 "http://www.w3.org/Graphics/SVG/1.1/DTD/svg11.dtd">
<!-- Generated by graphviz version 2.48.0 (20210717.1556)
 -->
<!-- Title: epub::navigation Pages: 1 -->
<svg width="120pt" height="198pt"
 viewBox="0.00 0.00 120.00 198.00" xmlns="http://www.w3.org/2000/svg" xmlns:xlink="http://www.w3.org/1999/xlink">
<g id="graph0" class="graph" transform="scale(1 1) rotate(0) translate(4 194)">
<title>epub::navigation</title>
<!-- Node1 -->
<g id="Node000001" class="node">
<title>Node1</title>
<g id="a_Node000001"><a xlink:title=" ">
<polygon fill="#999999" stroke="transparent" points="97.5,-88 14.5,-88 14.5,0 97.5,0 97.5,-88"/>
<text text-anchor="start" x="19.8" y="-76" font-family="Helvetica,sans-Serif" font-size="10.00">epub::navigation</text>
<text text-anchor="start" x="55.11" y="-62" font-family="Helvetica,sans-Serif" font-size="10.00"> </text>
<text text-anchor="start" x="27.08" y="-48" font-family="Helvetica,sans-Serif" font-size="10.00">+</text>
<text text-anchor="start" x="45" y="-48" font-family="Helvetica,sans-Serif" font-size="10.00">add()</text>
<text text-anchor="start" x="27.08" y="-34" font-family="Helvetica,sans-Serif" font-size="10.00">+</text>
<text text-anchor="start" x="45" y="-34" font-family="Helvetica,sans-Serif" font-size="10.00">write()</text>
<text text-anchor="start" x="27.08" y="-20" font-family="Helvetica,sans-Serif" font-size="10.00">+</text>
<text text-anchor="start" x="45" y="-20" font-family="Helvetica,sans-Serif" font-size="10.00">begin()</text>
<text text-anchor="start" x="27.08" y="-6" font-family="Helvetica,sans-Serif" font-size="10.00">+</text>
<text text-anchor="start" x="45" y="-6" font-family="Helvetica,sans-Serif" font-size="10.00">end()</text>
<polygon fill="#666666" stroke="#666666" points="15,-72 15,-72 98,-72 98,-72 15,-72"/>
<polygon fill="#666666" stroke="#666666" points="15,-58 15,-58 98,-58 98,-58 15,-58"/>
<polygon fill="none" stroke="#666666" points="14.5,0 14.5,-88 97.5,-88 97.5,0 14.5,0"/>
</a>
</g>
</g>
<!-- Node2 -->
<g id="Node000002" class="node">
<title>Node2</title>
<g id="a_Node000002"><a xlink:title=" ">
<polygon fill="white" stroke="transparent" points="112,-190 0,-190 0,-134 112,-134 112,-190"/>
<text text-anchor="start" x="4.73" y="-178" font-family="Helvetica,sans-Serif" font-size="10.00">std::vector&lt; weak_item</text>
<text text-anchor="start" x="43.08" y="-168" font-family="Helvetica,sans-Serif" font-size="10.00">_ptr &gt;</text>
<text text-anchor="start" x="17.08" y="-154" font-family="Helvetica,sans-Serif" font-size="10.00">+</text>
<text text-anchor="start" x="40" y="-154" font-family="Helvetica,sans-Serif" font-size="10.00">elements</text>
<text text-anchor="start" x="54.61" y="-140" font-family="Helvetica,sans-Serif" font-size="10.00"> </text>
<polygon fill="#666666" stroke="#666666" points="0,-164 0,-164 112,-164 112,-164 0,-164"/>
<polygon fill="#666666" stroke="#666666" points="0,-150 0,-150 38,-150 38,-150 0,-150"/>
<polygon fill="#666666" stroke="#666666" points="38,-150 38,-150 112,-150 112,-150 38,-150"/>
<polygon fill="none" stroke="#666666" points="0,-134 0,-190 112,-190 112,-134 0,-134"/>
</a>
</g>
</g>
<!-- Node2&#45;&gt;Node1 -->
<g id="edge1_Node000001_Node000002" class="edge">
<title>Node2&#45;&gt;Node1</title>
<g id="a_edge1_Node000001_Node000002"><a xlink:title=" ">
<path fill="none" stroke="#63b8ff" d="M56,-133.8C56,-123.87 56,-112.24 56,-100.72"/>
<polygon fill="none" stroke="#63b8ff" points="56,-100.37 52,-94.37 56,-88.37 60,-94.37 56,-100.37"/>
</a>
</g>
<text text-anchor="middle" x="73.78" y="-108" font-family="Helvetica,sans-Serif" font-size="10.00" fill="grey"> &#45;_items</text>
</g>
</g>
</svg>
