<?xml version="1.0" encoding="UTF-8" standalone="no"?>
<!DOCTYPE svg PUBLIC "-//W3C//DTD SVG 1.1//EN"
 "http://www.w3.org/Graphics/SVG/1.1/DTD/svg11.dtd">
<!-- Generated by graphviz version 2.48.0 (20210717.1556)
 -->
<!-- Title: cli::option_processor Pages: 1 -->
<svg width="703pt" height="1084pt"
 viewBox="0.00 0.00 703.33 1084.00" xmlns="http://www.w3.org/2000/svg" xmlns:xlink="http://www.w3.org/1999/xlink">
<g id="graph0" class="graph" transform="scale(1 1) rotate(0) translate(4 1080)">
<title>cli::option_processor</title>
<!-- Node1 -->
<g id="Node000001" class="node">
<title>Node1</title>
<g id="a_Node000001"><a xlink:title=" ">
<polygon fill="#999999" stroke="transparent" points="275,-440 105,-440 105,0 275,0 275,-440"/>
<text text-anchor="start" x="144.14" y="-428" font-family="Helvetica,sans-Serif" font-size="10.00">cli::option_processor</text>
<text text-anchor="start" x="109.83" y="-414" font-family="Helvetica,sans-Serif" font-size="10.00">&#45;</text>
<text text-anchor="start" x="118" y="-414" font-family="Helvetica,sans-Serif" font-size="10.00">bool _passthru</text>
<text text-anchor="start" x="108.58" y="-400" font-family="Helvetica,sans-Serif" font-size="10.00">+</text>
<text text-anchor="start" x="118" y="-400" font-family="Helvetica,sans-Serif" font-size="10.00">option_processor(std</text>
<text text-anchor="start" x="118" y="-390" font-family="Helvetica,sans-Serif" font-size="10.00">::string progname, bool</text>
<text text-anchor="start" x="118" y="-380" font-family="Helvetica,sans-Serif" font-size="10.00"> passthru=false)</text>
<text text-anchor="start" x="108.58" y="-366" font-family="Helvetica,sans-Serif" font-size="10.00">+</text>
<text text-anchor="start" x="118" y="-366" font-family="Helvetica,sans-Serif" font-size="10.00">std::string &amp; synopsis()</text>
<text text-anchor="start" x="108.58" y="-352" font-family="Helvetica,sans-Serif" font-size="10.00">+</text>
<text text-anchor="start" x="118" y="-352" font-family="Helvetica,sans-Serif" font-size="10.00">const std::string &amp;</text>
<text text-anchor="start" x="118" y="-342" font-family="Helvetica,sans-Serif" font-size="10.00"> synopsis() const</text>
<text text-anchor="start" x="108.58" y="-328" font-family="Helvetica,sans-Serif" font-size="10.00">+</text>
<text text-anchor="start" x="118" y="-328" font-family="Helvetica,sans-Serif" font-size="10.00">void add_flag(char</text>
<text text-anchor="start" x="118" y="-318" font-family="Helvetica,sans-Serif" font-size="10.00"> ch, std::string longopt,</text>
<text text-anchor="start" x="118" y="-308" font-family="Helvetica,sans-Serif" font-size="10.00"> Callback &amp;&amp;cb, std::string</text>
<text text-anchor="start" x="118" y="-298" font-family="Helvetica,sans-Serif" font-size="10.00"> description)</text>
<text text-anchor="start" x="108.58" y="-284" font-family="Helvetica,sans-Serif" font-size="10.00">+</text>
<text text-anchor="start" x="118" y="-284" font-family="Helvetica,sans-Serif" font-size="10.00">void add_flag(char</text>
<text text-anchor="start" x="118" y="-274" font-family="Helvetica,sans-Serif" font-size="10.00"> ch, Callback &amp;&amp;cb,</text>
<text text-anchor="start" x="118" y="-264" font-family="Helvetica,sans-Serif" font-size="10.00"> std::string description)</text>
<text text-anchor="start" x="108.58" y="-250" font-family="Helvetica,sans-Serif" font-size="10.00">+</text>
<text text-anchor="start" x="118" y="-250" font-family="Helvetica,sans-Serif" font-size="10.00">void add_flag(std::</text>
<text text-anchor="start" x="118" y="-240" font-family="Helvetica,sans-Serif" font-size="10.00">string longopt, Callback</text>
<text text-anchor="start" x="118" y="-230" font-family="Helvetica,sans-Serif" font-size="10.00"> &amp;&amp;cb, std::string description)</text>
<text text-anchor="start" x="108.58" y="-216" font-family="Helvetica,sans-Serif" font-size="10.00">+</text>
<text text-anchor="start" x="118" y="-216" font-family="Helvetica,sans-Serif" font-size="10.00">void add_option(char</text>
<text text-anchor="start" x="118" y="-206" font-family="Helvetica,sans-Serif" font-size="10.00"> ch, std::string longopt,</text>
<text text-anchor="start" x="118" y="-196" font-family="Helvetica,sans-Serif" font-size="10.00"> Callback &amp;&amp;cb, std::string</text>
<text text-anchor="start" x="118" y="-186" font-family="Helvetica,sans-Serif" font-size="10.00"> description)</text>
<text text-anchor="start" x="108.58" y="-172" font-family="Helvetica,sans-Serif" font-size="10.00">+</text>
<text text-anchor="start" x="118" y="-172" font-family="Helvetica,sans-Serif" font-size="10.00">void add_option(char</text>
<text text-anchor="start" x="118" y="-162" font-family="Helvetica,sans-Serif" font-size="10.00"> ch, Callback &amp;&amp;cb, std</text>
<text text-anchor="start" x="118" y="-152" font-family="Helvetica,sans-Serif" font-size="10.00">::string description)</text>
<text text-anchor="start" x="108.58" y="-138" font-family="Helvetica,sans-Serif" font-size="10.00">+</text>
<text text-anchor="start" x="118" y="-138" font-family="Helvetica,sans-Serif" font-size="10.00">void add_option(std</text>
<text text-anchor="start" x="118" y="-128" font-family="Helvetica,sans-Serif" font-size="10.00">::string longopt, Callback</text>
<text text-anchor="start" x="118" y="-118" font-family="Helvetica,sans-Serif" font-size="10.00"> &amp;&amp;cb, std::string description)</text>
<text text-anchor="start" x="108.58" y="-104" font-family="Helvetica,sans-Serif" font-size="10.00">+</text>
<text text-anchor="start" x="118" y="-104" font-family="Helvetica,sans-Serif" font-size="10.00">ForwardIt process(Forward</text>
<text text-anchor="start" x="118" y="-94" font-family="Helvetica,sans-Serif" font-size="10.00">It first, ForwardIt last)</text>
<text text-anchor="start" x="108.58" y="-80" font-family="Helvetica,sans-Serif" font-size="10.00">+</text>
<text text-anchor="start" x="118" y="-80" font-family="Helvetica,sans-Serif" font-size="10.00">void usage(std::ostream</text>
<text text-anchor="start" x="118" y="-70" font-family="Helvetica,sans-Serif" font-size="10.00"> &amp;out=std::cerr, std::</text>
<text text-anchor="start" x="118" y="-60" font-family="Helvetica,sans-Serif" font-size="10.00">size_t screen_width=72) const</text>
<text text-anchor="start" x="108.58" y="-46" font-family="Helvetica,sans-Serif" font-size="10.00">+</text>
<text text-anchor="start" x="118" y="-46" font-family="Helvetica,sans-Serif" font-size="10.00">static auto wrap(StringLike</text>
<text text-anchor="start" x="118" y="-36" font-family="Helvetica,sans-Serif" font-size="10.00"> &amp;&amp;s, typename std::decay</text>
<text text-anchor="start" x="118" y="-26" font-family="Helvetica,sans-Serif" font-size="10.00">&lt; StringLike &gt;::type::size</text>
<text text-anchor="start" x="118" y="-16" font-family="Helvetica,sans-Serif" font-size="10.00">_type w, typename std::decay</text>
<text text-anchor="start" x="118" y="-6" font-family="Helvetica,sans-Serif" font-size="10.00">&lt; StringLike &gt;::type::size_type i=0)</text>
<polygon fill="#666666" stroke="#666666" points="105,-424 105,-424 275,-424 275,-424 105,-424"/>
<polygon fill="#666666" stroke="#666666" points="105,-410 105,-410 116,-410 116,-410 105,-410"/>
<polygon fill="#666666" stroke="#666666" points="116,-410 116,-410 275,-410 275,-410 116,-410"/>
<polygon fill="none" stroke="#666666" points="105,0 105,-440 275,-440 275,0 105,0"/>
</a>
</g>
</g>
<!-- Node2 -->
<g id="Node000002" class="node">
<title>Node2</title>
<g id="a_Node000002"><a xlink:title=" ">
<polygon fill="white" stroke="transparent" points="70.5,-883 17.5,-883 17.5,-837 70.5,-837 70.5,-883"/>
<text text-anchor="start" x="22.83" y="-871" font-family="Helvetica,sans-Serif" font-size="10.00">std::string</text>
<text text-anchor="start" x="43.11" y="-857" font-family="Helvetica,sans-Serif" font-size="10.00"> </text>
<text text-anchor="start" x="43.11" y="-843" font-family="Helvetica,sans-Serif" font-size="10.00"> </text>
<polygon fill="#666666" stroke="#666666" points="18,-867 18,-867 71,-867 71,-867 18,-867"/>
<polygon fill="#666666" stroke="#666666" points="18,-853 18,-853 71,-853 71,-853 18,-853"/>
<polygon fill="none" stroke="#666666" points="17.5,-837 17.5,-883 70.5,-883 70.5,-837 17.5,-837"/>
</a>
</g>
</g>
<!-- Node2&#45;&gt;Node1 -->
<g id="edge1_Node000001_Node000002" class="edge">
<title>Node2&#45;&gt;Node1</title>
<g id="a_edge1_Node000001_Node000002"><a xlink:title=" ">
<path fill="none" stroke="#63b8ff" d="M43.34,-836.9C42.51,-803.37 41.59,-737.67 45,-682 50.37,-594.46 44.26,-570.43 68,-486 76.39,-456.17 87.74,-425.46 100.15,-396"/>
<polygon fill="none" stroke="#63b8ff" points="100.23,-395.8 98.92,-388.71 104.96,-384.77 106.27,-391.86 100.23,-395.8"/>
</a>
</g>
<text text-anchor="middle" x="76.29" y="-577" font-family="Helvetica,sans-Serif" font-size="10.00" fill="grey"> &#45;_synopsis</text>
</g>
<!-- Node5 -->
<g id="Node000005" class="node">
<title>Node5</title>
<g id="a_Node000005"><a xlink:title=" ">
<polygon fill="white" stroke="transparent" points="182,-664 82,-664 82,-608 182,-608 182,-664"/>
<text text-anchor="start" x="86.84" y="-652" font-family="Helvetica,sans-Serif" font-size="10.00">std::pair&lt; std::string,</text>
<text text-anchor="start" x="104.63" y="-642" font-family="Helvetica,sans-Serif" font-size="10.00"> std::string &gt;</text>
<text text-anchor="start" x="130.61" y="-628" font-family="Helvetica,sans-Serif" font-size="10.00"> </text>
<text text-anchor="start" x="130.61" y="-614" font-family="Helvetica,sans-Serif" font-size="10.00"> </text>
<polygon fill="#666666" stroke="#666666" points="82,-638 82,-638 182,-638 182,-638 82,-638"/>
<polygon fill="#666666" stroke="#666666" points="82,-624 82,-624 182,-624 182,-624 82,-624"/>
<polygon fill="none" stroke="#666666" points="82,-608 82,-664 182,-664 182,-608 82,-608"/>
</a>
</g>
</g>
<!-- Node2&#45;&gt;Node5 -->
<g id="edge5_Node000005_Node000002" class="edge">
<title>Node2&#45;&gt;Node5</title>
<g id="a_edge5_Node000005_Node000002"><a xlink:title=" ">
<path fill="none" stroke="#63b8ff" d="M41.34,-837C38.18,-801.57 36.61,-730.92 66.45,-682 68.5,-678.64 70.9,-675.47 73.56,-672.49"/>
<polygon fill="none" stroke="#63b8ff" points="73.57,-672.48 75.09,-665.43 82.18,-664.12 80.66,-671.17 73.57,-672.48"/>
</a>
</g>
<text text-anchor="middle" x="98.27" y="-707" font-family="Helvetica,sans-Serif" font-size="10.00" fill="grey"> +first_type</text>
<text text-anchor="middle" x="98.27" y="-697" font-family="Helvetica,sans-Serif" font-size="10.00" fill="grey">+second_type</text>
</g>
<!-- Node17 -->
<g id="Node000017" class="node">
<title>Node17</title>
<g id="a_Node000017"><a xlink:title=" ">
<polygon fill="white" stroke="transparent" points="326.5,-552 223.5,-552 223.5,-486 326.5,-486 326.5,-552"/>
<text text-anchor="start" x="228.95" y="-540" font-family="Helvetica,sans-Serif" font-size="10.00">std::map&lt; std::string,</text>
<text text-anchor="start" x="228.95" y="-530" font-family="Helvetica,sans-Serif" font-size="10.00"> std::shared_ptr&lt; cli</text>
<text text-anchor="start" x="250.48" y="-520" font-family="Helvetica,sans-Serif" font-size="10.00">::option &gt; &gt;</text>
<text text-anchor="start" x="274.11" y="-506" font-family="Helvetica,sans-Serif" font-size="10.00"> </text>
<text text-anchor="start" x="274.11" y="-492" font-family="Helvetica,sans-Serif" font-size="10.00"> </text>
<polygon fill="#666666" stroke="#666666" points="224,-516 224,-516 327,-516 327,-516 224,-516"/>
<polygon fill="#666666" stroke="#666666" points="224,-502 224,-502 327,-502 327,-502 224,-502"/>
<polygon fill="none" stroke="#666666" points="223.5,-486 223.5,-552 326.5,-552 326.5,-486 223.5,-486"/>
</a>
</g>
</g>
<!-- Node2&#45;&gt;Node17 -->
<g id="edge20_Node000017_Node000002" class="edge">
<title>Node2&#45;&gt;Node17</title>
<g id="a_edge20_Node000017_Node000002"><a xlink:title=" ">
<path fill="none" stroke="#63b8ff" d="M44.19,-836.97C45.7,-811.03 52.41,-768.63 79,-746 122.75,-708.77 166.89,-769.13 207,-728 244.48,-689.57 203.26,-658.73 220.82,-608 226.29,-592.19 234.96,-576.23 243.78,-562.32"/>
<polygon fill="none" stroke="#63b8ff" points="243.9,-562.14 243.86,-554.92 250.5,-552.11 250.54,-559.32 243.9,-562.14"/>
</a>
</g>
<text text-anchor="middle" x="234.59" y="-633" font-family="Helvetica,sans-Serif" font-size="10.00" fill="grey"> +keys</text>
</g>
<!-- Node3 -->
<g id="Node000003" class="node">
<title>Node3</title>
<g id="a_Node000003"><a xlink:title=" ">
<polygon fill="white" stroke="transparent" points="88,-1076 0,-1076 0,-1020 88,-1020 88,-1076"/>
<text text-anchor="start" x="4.95" y="-1064" font-family="Helvetica,sans-Serif" font-size="10.00">std::basic_string&lt;</text>
<text text-anchor="start" x="27.46" y="-1054" font-family="Helvetica,sans-Serif" font-size="10.00"> Char &gt;</text>
<text text-anchor="start" x="42.61" y="-1040" font-family="Helvetica,sans-Serif" font-size="10.00"> </text>
<text text-anchor="start" x="42.61" y="-1026" font-family="Helvetica,sans-Serif" font-size="10.00"> </text>
<polygon fill="#666666" stroke="#666666" points="0,-1050 0,-1050 88,-1050 88,-1050 0,-1050"/>
<polygon fill="#666666" stroke="#666666" points="0,-1036 0,-1036 88,-1036 88,-1036 0,-1036"/>
<polygon fill="none" stroke="#666666" points="0,-1020 0,-1076 88,-1076 88,-1020 0,-1020"/>
</a>
</g>
</g>
<!-- Node3&#45;&gt;Node2 -->
<g id="edge2_Node000002_Node000003" class="edge">
<title>Node3&#45;&gt;Node2</title>
<g id="a_edge2_Node000002_Node000003"><a xlink:title=" ">
<path fill="none" stroke="#63b8ff" d="M44,-1009.82C44,-971.93 44,-914.4 44,-883.13"/>
<polygon fill="none" stroke="#63b8ff" points="40.5,-1009.95 44,-1019.95 47.5,-1009.95 40.5,-1009.95"/>
</a>
</g>
</g>
<!-- Node4 -->
<g id="Node000004" class="node">
<title>Node4</title>
<g id="a_Node000004"><a xlink:title=" ">
<polygon fill="white" stroke="transparent" points="205,-547 77,-547 77,-491 205,-491 205,-547"/>
<text text-anchor="start" x="81.94" y="-535" font-family="Helvetica,sans-Serif" font-size="10.00">std::vector&lt; std::pair</text>
<text text-anchor="start" x="81.94" y="-525" font-family="Helvetica,sans-Serif" font-size="10.00">&lt; std::string, std::string &gt; &gt;</text>
<text text-anchor="start" x="139.61" y="-511" font-family="Helvetica,sans-Serif" font-size="10.00"> </text>
<text text-anchor="start" x="139.61" y="-497" font-family="Helvetica,sans-Serif" font-size="10.00"> </text>
<polygon fill="#666666" stroke="#666666" points="77,-521 77,-521 205,-521 205,-521 77,-521"/>
<polygon fill="#666666" stroke="#666666" points="77,-507 77,-507 205,-507 205,-507 77,-507"/>
<polygon fill="none" stroke="#666666" points="77,-491 77,-547 205,-547 205,-491 77,-491"/>
</a>
</g>
</g>
<!-- Node4&#45;&gt;Node1 -->
<g id="edge3_Node000001_Node000004" class="edge">
<title>Node4&#45;&gt;Node1</title>
<g id="a_edge3_Node000001_Node000004"><a xlink:title=" ">
<path fill="none" stroke="#63b8ff" d="M145.48,-490.86C147.22,-480.29 149.39,-467.17 151.82,-452.44"/>
<polygon fill="none" stroke="#63b8ff" points="151.86,-452.15 148.89,-445.58 153.82,-440.31 156.79,-446.88 151.86,-452.15"/>
</a>
</g>
<text text-anchor="middle" x="169.46" y="-460" font-family="Helvetica,sans-Serif" font-size="10.00" fill="grey"> &#45;_usage</text>
</g>
<!-- Node5&#45;&gt;Node4 -->
<g id="edge4_Node000004_Node000005" class="edge">
<title>Node5&#45;&gt;Node4</title>
<g id="a_edge4_Node000004_Node000005"><a xlink:title=" ">
<path fill="none" stroke="#63b8ff" d="M134.13,-607.75C135.26,-593.28 136.68,-575.25 137.92,-559.3"/>
<polygon fill="none" stroke="#63b8ff" points="137.95,-559.02 134.43,-552.73 138.88,-547.06 142.4,-553.35 137.95,-559.02"/>
</a>
</g>
<text text-anchor="middle" x="162.6" y="-577" font-family="Helvetica,sans-Serif" font-size="10.00" fill="grey"> +elements</text>
</g>
<!-- Node6 -->
<g id="Node000006" class="node">
<title>Node6</title>
<g id="a_Node000006"><a xlink:title=" ">
<polygon fill="white" stroke="transparent" points="179.5,-883 88.5,-883 88.5,-837 179.5,-837 179.5,-883"/>
<text text-anchor="start" x="93.82" y="-871" font-family="Helvetica,sans-Serif" font-size="10.00">std::pair&lt; T1, T2 &gt;</text>
<text text-anchor="start" x="133.11" y="-857" font-family="Helvetica,sans-Serif" font-size="10.00"> </text>
<text text-anchor="start" x="133.11" y="-843" font-family="Helvetica,sans-Serif" font-size="10.00"> </text>
<polygon fill="#666666" stroke="#666666" points="89,-867 89,-867 180,-867 180,-867 89,-867"/>
<polygon fill="#666666" stroke="#666666" points="89,-853 89,-853 180,-853 180,-853 89,-853"/>
<polygon fill="none" stroke="#666666" points="88.5,-837 88.5,-883 179.5,-883 179.5,-837 88.5,-837"/>
</a>
</g>
</g>
<!-- Node6&#45;&gt;Node5 -->
<g id="edge6_Node000005_Node000006" class="edge">
<title>Node6&#45;&gt;Node5</title>
<g id="a_edge6_Node000005_Node000006"><a xlink:title=" ">
<path fill="none" stroke="orange" d="M133.71,-826.78C133.31,-782.93 132.61,-705.21 132.24,-664.16"/>
<polygon fill="orange" stroke="orange" points="130.21,-826.93 133.8,-836.9 137.21,-826.87 130.21,-826.93"/>
</a>
</g>
<text text-anchor="start" x="133" y="-707" font-family="Helvetica,sans-Serif" font-size="10.00" fill="grey"> &lt; std::string, std</text>
<text text-anchor="middle" x="169.82" y="-697" font-family="Helvetica,sans-Serif" font-size="10.00" fill="grey">::string &gt;</text>
</g>
<!-- Node7 -->
<g id="Node000007" class="node">
<title>Node7</title>
<g id="a_Node000007"><a xlink:title=" ">
<polygon fill="white" stroke="transparent" points="131.5,-1071 110.5,-1071 110.5,-1025 131.5,-1025 131.5,-1071"/>
<text text-anchor="start" x="115.67" y="-1059" font-family="Helvetica,sans-Serif" font-size="10.00">T1</text>
<text text-anchor="start" x="120.11" y="-1045" font-family="Helvetica,sans-Serif" font-size="10.00"> </text>
<text text-anchor="start" x="120.11" y="-1031" font-family="Helvetica,sans-Serif" font-size="10.00"> </text>
<polygon fill="#666666" stroke="#666666" points="111,-1055 111,-1055 132,-1055 132,-1055 111,-1055"/>
<polygon fill="#666666" stroke="#666666" points="111,-1041 111,-1041 132,-1041 132,-1041 111,-1041"/>
<polygon fill="none" stroke="#666666" points="110.5,-1025 110.5,-1071 131.5,-1071 131.5,-1025 110.5,-1025"/>
</a>
</g>
</g>
<!-- Node7&#45;&gt;Node6 -->
<g id="edge7_Node000006_Node000007" class="edge">
<title>Node7&#45;&gt;Node6</title>
<g id="a_edge7_Node000006_Node000007"><a xlink:title=" ">
<path fill="none" stroke="#63b8ff" d="M120.93,-1024.77C121,-1014.75 121.23,-1002.78 121.81,-992 123.58,-959.07 127.23,-921.62 130.08,-895.22"/>
<polygon fill="none" stroke="#63b8ff" points="130.09,-895.14 126.77,-888.74 131.4,-883.21 134.72,-889.61 130.09,-895.14"/>
</a>
</g>
<text text-anchor="middle" x="146.59" y="-994" font-family="Helvetica,sans-Serif" font-size="10.00" fill="grey"> +first_type</text>
</g>
<!-- Node8 -->
<g id="Node000008" class="node">
<title>Node8</title>
<g id="a_Node000008"><a xlink:title=" ">
<polygon fill="white" stroke="transparent" points="203.5,-1071 182.5,-1071 182.5,-1025 203.5,-1025 203.5,-1071"/>
<text text-anchor="start" x="187.67" y="-1059" font-family="Helvetica,sans-Serif" font-size="10.00">T2</text>
<text text-anchor="start" x="192.11" y="-1045" font-family="Helvetica,sans-Serif" font-size="10.00"> </text>
<text text-anchor="start" x="192.11" y="-1031" font-family="Helvetica,sans-Serif" font-size="10.00"> </text>
<polygon fill="#666666" stroke="#666666" points="183,-1055 183,-1055 204,-1055 204,-1055 183,-1055"/>
<polygon fill="#666666" stroke="#666666" points="183,-1041 183,-1041 204,-1041 204,-1041 183,-1041"/>
<polygon fill="none" stroke="#666666" points="182.5,-1025 182.5,-1071 203.5,-1071 203.5,-1025 182.5,-1025"/>
</a>
</g>
</g>
<!-- Node8&#45;&gt;Node6 -->
<g id="edge8_Node000006_Node000008" class="edge">
<title>Node8&#45;&gt;Node6</title>
<g id="a_edge8_Node000006_Node000008"><a xlink:title=" ">
<path fill="none" stroke="#63b8ff" d="M186,-1024.93C175.8,-992.77 156.76,-932.74 144.76,-894.94"/>
<polygon fill="none" stroke="#63b8ff" points="144.62,-894.48 138.99,-889.97 140.99,-883.04 146.62,-887.55 144.62,-894.48"/>
</a>
</g>
<text text-anchor="middle" x="209.66" y="-994" font-family="Helvetica,sans-Serif" font-size="10.00" fill="grey"> +second_type</text>
</g>
<!-- Node9 -->
<g id="Node000009" class="node">
<title>Node9</title>
<g id="a_Node000009"><a xlink:title=" ">
<polygon fill="white" stroke="transparent" points="325.5,-728 246.5,-728 246.5,-682 325.5,-682 325.5,-728"/>
<text text-anchor="start" x="251.94" y="-716" font-family="Helvetica,sans-Serif" font-size="10.00">std::vector&lt; T &gt;</text>
<text text-anchor="start" x="285.11" y="-702" font-family="Helvetica,sans-Serif" font-size="10.00"> </text>
<text text-anchor="start" x="285.11" y="-688" font-family="Helvetica,sans-Serif" font-size="10.00"> </text>
<polygon fill="#666666" stroke="#666666" points="247,-712 247,-712 326,-712 326,-712 247,-712"/>
<polygon fill="#666666" stroke="#666666" points="247,-698 247,-698 326,-698 326,-698 247,-698"/>
<polygon fill="none" stroke="#666666" points="246.5,-682 246.5,-728 325.5,-728 325.5,-682 246.5,-682"/>
</a>
</g>
</g>
<!-- Node9&#45;&gt;Node4 -->
<g id="edge9_Node000004_Node000009" class="edge">
<title>Node9&#45;&gt;Node4</title>
<g id="a_edge9_Node000004_Node000009"><a xlink:title=" ">
<path fill="none" stroke="orange" d="M280.26,-671.95C275.58,-652.19 267.47,-627.06 254,-608 236.63,-583.43 210.44,-562.43 187.64,-547.11"/>
<polygon fill="orange" stroke="orange" points="276.85,-672.72 282.41,-681.74 283.69,-671.22 276.85,-672.72"/>
</a>
</g>
<text text-anchor="start" x="277" y="-638" font-family="Helvetica,sans-Serif" font-size="10.00" fill="grey"> &lt; std::pair&lt; std::string,</text>
<text text-anchor="middle" x="327.86" y="-628" font-family="Helvetica,sans-Serif" font-size="10.00" fill="grey"> std::string &gt; &gt;</text>
</g>
<!-- Node10 -->
<g id="Node000010" class="node">
<title>Node10</title>
<g id="a_Node000010"><a xlink:title=" ">
<polygon fill="white" stroke="transparent" points="372,-1071 356,-1071 356,-1025 372,-1025 372,-1071"/>
<text text-anchor="start" x="360.95" y="-1059" font-family="Helvetica,sans-Serif" font-size="10.00">T</text>
<text text-anchor="start" x="362.61" y="-1045" font-family="Helvetica,sans-Serif" font-size="10.00"> </text>
<text text-anchor="start" x="362.61" y="-1031" font-family="Helvetica,sans-Serif" font-size="10.00"> </text>
<polygon fill="#666666" stroke="#666666" points="356,-1055 356,-1055 372,-1055 372,-1055 356,-1055"/>
<polygon fill="#666666" stroke="#666666" points="356,-1041 356,-1041 372,-1041 372,-1041 356,-1041"/>
<polygon fill="none" stroke="#666666" points="356,-1025 356,-1071 372,-1071 372,-1025 356,-1025"/>
</a>
</g>
</g>
<!-- Node10&#45;&gt;Node9 -->
<g id="edge10_Node000009_Node000010" class="edge">
<title>Node10&#45;&gt;Node9</title>
<g id="a_edge10_Node000009_Node000010"><a xlink:title=" ">
<path fill="none" stroke="#63b8ff" d="M355.97,-1042.68C344.01,-1035.79 321.73,-1021.11 310.81,-1002 262.86,-918.13 271.8,-798.5 280.05,-740.36"/>
<polygon fill="none" stroke="#63b8ff" points="280.08,-740.13 277.03,-733.6 281.88,-728.27 284.94,-734.8 280.08,-740.13"/>
</a>
</g>
<text text-anchor="middle" x="334.6" y="-994" font-family="Helvetica,sans-Serif" font-size="10.00" fill="grey"> +elements</text>
</g>
<!-- Node14 -->
<g id="Node000014" class="node">
<title>Node14</title>
<g id="a_Node000014"><a xlink:title=" ">
<polygon fill="white" stroke="transparent" points="413.5,-883 314.5,-883 314.5,-837 413.5,-837 413.5,-883"/>
<text text-anchor="start" x="319.65" y="-871" font-family="Helvetica,sans-Serif" font-size="10.00">std::shared_ptr&lt; T &gt;</text>
<text text-anchor="start" x="363.11" y="-857" font-family="Helvetica,sans-Serif" font-size="10.00"> </text>
<text text-anchor="start" x="322.08" y="-843" font-family="Helvetica,sans-Serif" font-size="10.00">+</text>
<text text-anchor="start" x="335" y="-843" font-family="Helvetica,sans-Serif" font-size="10.00">T * operator&#45;&gt;()</text>
<polygon fill="#666666" stroke="#666666" points="315,-867 315,-867 414,-867 414,-867 315,-867"/>
<polygon fill="#666666" stroke="#666666" points="315,-853 315,-853 414,-853 414,-853 315,-853"/>
<polygon fill="none" stroke="#666666" points="314.5,-837 314.5,-883 413.5,-883 413.5,-837 314.5,-837"/>
</a>
</g>
</g>
<!-- Node10&#45;&gt;Node14 -->
<g id="edge15_Node000014_Node000010" class="edge">
<title>Node10&#45;&gt;Node14</title>
<g id="a_edge15_Node000014_Node000010"><a xlink:title=" ">
<path fill="none" stroke="#63b8ff" d="M364,-1024.93C364,-992.91 364,-933.27 364,-895.43"/>
<polygon fill="none" stroke="#63b8ff" points="364,-895.04 360,-889.04 364,-883.04 368,-889.04 364,-895.04"/>
</a>
</g>
<text text-anchor="middle" x="374.14" y="-994" font-family="Helvetica,sans-Serif" font-size="10.00" fill="grey"> +ptr</text>
</g>
<!-- Node15 -->
<g id="Node000015" class="node">
<title>Node15</title>
<g id="a_Node000015"><a xlink:title=" ">
<polygon fill="white" stroke="transparent" points="646.5,-659 563.5,-659 563.5,-613 646.5,-613 646.5,-659"/>
<text text-anchor="start" x="568.72" y="-647" font-family="Helvetica,sans-Serif" font-size="10.00">std::map&lt; K, T &gt;</text>
<text text-anchor="start" x="604.11" y="-633" font-family="Helvetica,sans-Serif" font-size="10.00"> </text>
<text text-anchor="start" x="604.11" y="-619" font-family="Helvetica,sans-Serif" font-size="10.00"> </text>
<polygon fill="#666666" stroke="#666666" points="564,-643 564,-643 647,-643 647,-643 564,-643"/>
<polygon fill="#666666" stroke="#666666" points="564,-629 564,-629 647,-629 647,-629 564,-629"/>
<polygon fill="none" stroke="#666666" points="563.5,-613 563.5,-659 646.5,-659 646.5,-613 563.5,-613"/>
</a>
</g>
</g>
<!-- Node10&#45;&gt;Node15 -->
<g id="edge18_Node000015_Node000010" class="edge">
<title>Node10&#45;&gt;Node15</title>
<g id="a_edge18_Node000015_Node000010"><a xlink:title=" ">
<path fill="none" stroke="#63b8ff" d="M372.29,-1047.45C406.98,-1048.85 541.49,-1049.11 600,-974 669.76,-884.45 636.66,-737.1 616.54,-670.97"/>
<polygon fill="none" stroke="#63b8ff" points="616.45,-670.68 610.83,-666.16 612.84,-659.24 618.46,-663.76 616.45,-670.68"/>
</a>
</g>
<text text-anchor="middle" x="666.6" y="-857" font-family="Helvetica,sans-Serif" font-size="10.00" fill="grey"> +elements</text>
</g>
<!-- Node11 -->
<g id="Node000011" class="node">
<title>Node11</title>
<g id="a_Node000011"><a xlink:title=" ">
<polygon fill="white" stroke="transparent" points="475.5,-547 344.5,-547 344.5,-491 475.5,-491 475.5,-547"/>
<text text-anchor="start" x="349.77" y="-535" font-family="Helvetica,sans-Serif" font-size="10.00">std::map&lt; char, std</text>
<text text-anchor="start" x="349.77" y="-525" font-family="Helvetica,sans-Serif" font-size="10.00">::shared_ptr&lt; cli::option &gt; &gt;</text>
<text text-anchor="start" x="366.58" y="-511" font-family="Helvetica,sans-Serif" font-size="10.00">+</text>
<text text-anchor="start" x="394" y="-511" font-family="Helvetica,sans-Serif" font-size="10.00">char keys</text>
<text text-anchor="start" x="409.11" y="-497" font-family="Helvetica,sans-Serif" font-size="10.00"> </text>
<polygon fill="#666666" stroke="#666666" points="345,-521 345,-521 476,-521 476,-521 345,-521"/>
<polygon fill="#666666" stroke="#666666" points="345,-507 345,-507 392,-507 392,-507 345,-507"/>
<polygon fill="#666666" stroke="#666666" points="392,-507 392,-507 476,-507 476,-507 392,-507"/>
<polygon fill="none" stroke="#666666" points="344.5,-491 344.5,-547 475.5,-547 475.5,-491 344.5,-491"/>
</a>
</g>
</g>
<!-- Node11&#45;&gt;Node1 -->
<g id="edge11_Node000001_Node000011" class="edge">
<title>Node11&#45;&gt;Node1</title>
<g id="a_edge11_Node000001_Node000011"><a xlink:title=" ">
<path fill="none" stroke="#63b8ff" d="M389.89,-490.86C365.38,-457.76 322.26,-399.55 282.34,-345.65"/>
<polygon fill="none" stroke="#63b8ff" points="282.33,-345.64 275.54,-343.2 275.18,-336 281.97,-338.44 282.33,-345.64"/>
</a>
</g>
<text text-anchor="middle" x="383.95" y="-460" font-family="Helvetica,sans-Serif" font-size="10.00" fill="grey"> &#45;_short</text>
</g>
<!-- Node12 -->
<g id="Node000012" class="node">
<title>Node12</title>
<g id="a_Node000012"><a xlink:title=" ">
<polygon fill="white" stroke="transparent" points="526.5,-664 405.5,-664 405.5,-608 526.5,-608 526.5,-664"/>
<text text-anchor="start" x="424.12" y="-652" font-family="Helvetica,sans-Serif" font-size="10.00">std::shared_ptr&lt; cli</text>
<text text-anchor="start" x="445.79" y="-642" font-family="Helvetica,sans-Serif" font-size="10.00">::option &gt;</text>
<text text-anchor="start" x="465.11" y="-628" font-family="Helvetica,sans-Serif" font-size="10.00"> </text>
<text text-anchor="start" x="409.58" y="-614" font-family="Helvetica,sans-Serif" font-size="10.00">+</text>
<text text-anchor="start" x="419" y="-614" font-family="Helvetica,sans-Serif" font-size="10.00">cli::option * operator&#45;&gt;()</text>
<polygon fill="#666666" stroke="#666666" points="406,-638 406,-638 527,-638 527,-638 406,-638"/>
<polygon fill="#666666" stroke="#666666" points="406,-624 406,-624 527,-624 527,-624 406,-624"/>
<polygon fill="none" stroke="#666666" points="405.5,-608 405.5,-664 526.5,-664 526.5,-608 405.5,-608"/>
</a>
</g>
</g>
<!-- Node12&#45;&gt;Node11 -->
<g id="edge12_Node000011_Node000012" class="edge">
<title>Node12&#45;&gt;Node11</title>
<g id="a_edge12_Node000011_Node000012"><a xlink:title=" ">
<path fill="none" stroke="#63b8ff" d="M422.3,-607.98C416.86,-602.71 412.06,-596.71 408.81,-590 404.28,-580.67 402.9,-569.79 403.07,-559.42"/>
<polygon fill="none" stroke="#63b8ff" points="403.09,-559.14 399.53,-552.87 403.95,-547.17 407.51,-553.44 403.09,-559.14"/>
</a>
</g>
<text text-anchor="middle" x="432.6" y="-577" font-family="Helvetica,sans-Serif" font-size="10.00" fill="grey"> +elements</text>
</g>
<!-- Node12&#45;&gt;Node17 -->
<g id="edge21_Node000017_Node000012" class="edge">
<title>Node12&#45;&gt;Node17</title>
<g id="a_edge21_Node000017_Node000012"><a xlink:title=" ">
<path fill="none" stroke="#63b8ff" d="M405.5,-612.71C380.11,-603.14 355.19,-593.38 349.81,-590 336.73,-581.79 323.93,-571.1 312.71,-560.55"/>
<polygon fill="none" stroke="#63b8ff" points="312.69,-560.54 305.6,-559.23 304.07,-552.18 311.17,-553.49 312.69,-560.54"/>
</a>
</g>
<text text-anchor="middle" x="373.6" y="-577" font-family="Helvetica,sans-Serif" font-size="10.00" fill="grey"> +elements</text>
</g>
<!-- Node13 -->
<g id="Node000013" class="node">
<title>Node13</title>
<g id="a_Node000013"><a xlink:href="classcli_1_1option.html" target="_top" xlink:title=" ">
<polygon fill="white" stroke="transparent" points="556.5,-974 431.5,-974 431.5,-746 556.5,-746 556.5,-974"/>
<text text-anchor="start" x="473.38" y="-962" font-family="Helvetica,sans-Serif" font-size="10.00">cli::option</text>
<text text-anchor="start" x="493.11" y="-948" font-family="Helvetica,sans-Serif" font-size="10.00"> </text>
<text text-anchor="start" x="435.58" y="-934" font-family="Helvetica,sans-Serif" font-size="10.00">+</text>
<text text-anchor="start" x="445" y="-934" font-family="Helvetica,sans-Serif" font-size="10.00">option()</text>
<text text-anchor="start" x="435.58" y="-920" font-family="Helvetica,sans-Serif" font-size="10.00">+</text>
<text text-anchor="start" x="445" y="-920" font-family="Helvetica,sans-Serif" font-size="10.00">option(const option</text>
<text text-anchor="start" x="445" y="-910" font-family="Helvetica,sans-Serif" font-size="10.00"> &amp;)=default</text>
<text text-anchor="start" x="435.58" y="-896" font-family="Helvetica,sans-Serif" font-size="10.00">+</text>
<text text-anchor="start" x="445" y="-896" font-family="Helvetica,sans-Serif" font-size="10.00">option(option &amp;&amp;)</text>
<text text-anchor="start" x="445" y="-886" font-family="Helvetica,sans-Serif" font-size="10.00">=default</text>
<text text-anchor="start" x="435.58" y="-872" font-family="Helvetica,sans-Serif" font-size="10.00">+</text>
<text text-anchor="start" x="445" y="-872" font-family="Helvetica,sans-Serif" font-size="10.00">option &amp; operator=</text>
<text text-anchor="start" x="445" y="-862" font-family="Helvetica,sans-Serif" font-size="10.00">(const option &amp;)=default</text>
<text text-anchor="start" x="435.58" y="-848" font-family="Helvetica,sans-Serif" font-size="10.00">+</text>
<text text-anchor="start" x="445" y="-848" font-family="Helvetica,sans-Serif" font-size="10.00">option &amp; operator=</text>
<text text-anchor="start" x="445" y="-838" font-family="Helvetica,sans-Serif" font-size="10.00">(option &amp;&amp;)=default</text>
<text text-anchor="start" x="435.58" y="-824" font-family="Helvetica,sans-Serif" font-size="10.00">+</text>
<text text-anchor="start" x="445" y="-824" font-family="Helvetica,sans-Serif" font-size="10.00">virtual ~option()=default</text>
<text text-anchor="start" x="435.58" y="-810" font-family="Helvetica,sans-Serif" font-size="10.00">+</text>
<text text-anchor="start" x="445" y="-810" font-family="Helvetica,sans-Serif" font-size="10.00">virtual bool needs</text>
<text text-anchor="start" x="445" y="-800" font-family="Helvetica,sans-Serif" font-size="10.00">_arg() const noexcept=0</text>
<text text-anchor="start" x="435.58" y="-786" font-family="Helvetica,sans-Serif" font-size="10.00">+</text>
<text text-anchor="start" x="445" y="-786" font-family="Helvetica,sans-Serif" font-size="10.00">virtual void set()</text>
<text text-anchor="start" x="445" y="-776" font-family="Helvetica,sans-Serif" font-size="10.00"> const</text>
<text text-anchor="start" x="435.58" y="-762" font-family="Helvetica,sans-Serif" font-size="10.00">+</text>
<text text-anchor="start" x="445" y="-762" font-family="Helvetica,sans-Serif" font-size="10.00">virtual void set_arg</text>
<text text-anchor="start" x="445" y="-752" font-family="Helvetica,sans-Serif" font-size="10.00">(std::string) const</text>
<polygon fill="#666666" stroke="#666666" points="432,-958 432,-958 557,-958 557,-958 432,-958"/>
<polygon fill="#666666" stroke="#666666" points="432,-944 432,-944 557,-944 557,-944 432,-944"/>
<polygon fill="none" stroke="#666666" points="431.5,-746 431.5,-974 556.5,-974 556.5,-746 431.5,-746"/>
</a>
</g>
</g>
<!-- Node13&#45;&gt;Node12 -->
<g id="edge13_Node000012_Node000013" class="edge">
<title>Node13&#45;&gt;Node12</title>
<g id="a_edge13_Node000012_Node000013"><a xlink:title=" ">
<path fill="none" stroke="#63b8ff" d="M479.71,-745.72C476.57,-720.82 473.45,-696.07 470.98,-676.49"/>
<polygon fill="none" stroke="#63b8ff" points="470.96,-676.32 466.24,-670.87 469.46,-664.42 474.18,-669.87 470.96,-676.32"/>
</a>
</g>
<text text-anchor="middle" x="486.14" y="-702" font-family="Helvetica,sans-Serif" font-size="10.00" fill="grey"> +ptr</text>
</g>
<!-- Node14&#45;&gt;Node12 -->
<g id="edge14_Node000012_Node000014" class="edge">
<title>Node14&#45;&gt;Node12</title>
<g id="a_edge14_Node000012_Node000014"><a xlink:title=" ">
<path fill="none" stroke="orange" d="M365.08,-826.61C367.72,-789 376.58,-726.45 405.74,-682 410.04,-675.45 415.63,-669.5 421.67,-664.22"/>
<polygon fill="orange" stroke="orange" points="361.56,-826.79 364.46,-836.98 368.55,-827.2 361.56,-826.79"/>
</a>
</g>
<text text-anchor="middle" x="436.13" y="-702" font-family="Helvetica,sans-Serif" font-size="10.00" fill="grey"> &lt; cli::option &gt;</text>
</g>
<!-- Node15&#45;&gt;Node11 -->
<g id="edge16_Node000011_Node000015" class="edge">
<title>Node15&#45;&gt;Node11</title>
<g id="a_edge16_Node000011_Node000015"><a xlink:title=" ">
<path fill="none" stroke="orange" d="M610.92,-602.65C611.23,-591.23 609.3,-579 602,-570 586.01,-550.26 524.7,-536.67 475.61,-528.7"/>
<polygon fill="orange" stroke="orange" points="607.42,-602.55 610.1,-612.8 614.39,-603.11 607.42,-602.55"/>
</a>
</g>
<text text-anchor="start" x="610" y="-582" font-family="Helvetica,sans-Serif" font-size="10.00" fill="grey"> &lt; char, std::shared</text>
<text text-anchor="middle" x="652.67" y="-572" font-family="Helvetica,sans-Serif" font-size="10.00" fill="grey">_ptr&lt; cli::option &gt; &gt;</text>
</g>
<!-- Node15&#45;&gt;Node17 -->
<g id="edge22_Node000017_Node000015" class="edge">
<title>Node15&#45;&gt;Node17</title>
<g id="a_edge22_Node000017_Node000015"><a xlink:title=" ">
<path fill="none" stroke="orange" d="M553.89,-614.48C547.88,-612.22 541.82,-610.02 536,-608 509.91,-598.96 499.95,-604.64 476.54,-590 466.26,-583.58 468.72,-575.65 458,-570 409.51,-544.45 388.12,-568.97 336,-552 332.93,-551 329.83,-549.86 326.74,-548.61"/>
<polygon fill="orange" stroke="orange" points="552.64,-617.75 563.23,-618.05 555.14,-611.21 552.64,-617.75"/>
</a>
</g>
<text text-anchor="start" x="476" y="-582" font-family="Helvetica,sans-Serif" font-size="10.00" fill="grey"> &lt; std::string, std</text>
<text text-anchor="middle" x="536.73" y="-572" font-family="Helvetica,sans-Serif" font-size="10.00" fill="grey">::shared_ptr&lt; cli::option &gt; &gt;</text>
</g>
<!-- Node16 -->
<g id="Node000016" class="node">
<title>Node16</title>
<g id="a_Node000016"><a xlink:title=" ">
<polygon fill="white" stroke="transparent" points="591,-883 575,-883 575,-837 591,-837 591,-883"/>
<text text-anchor="start" x="579.67" y="-871" font-family="Helvetica,sans-Serif" font-size="10.00">K</text>
<text text-anchor="start" x="581.61" y="-857" font-family="Helvetica,sans-Serif" font-size="10.00"> </text>
<text text-anchor="start" x="581.61" y="-843" font-family="Helvetica,sans-Serif" font-size="10.00"> </text>
<polygon fill="#666666" stroke="#666666" points="575,-867 575,-867 591,-867 591,-867 575,-867"/>
<polygon fill="#666666" stroke="#666666" points="575,-853 575,-853 591,-853 591,-853 575,-853"/>
<polygon fill="none" stroke="#666666" points="575,-837 575,-883 591,-883 591,-837 575,-837"/>
</a>
</g>
</g>
<!-- Node16&#45;&gt;Node15 -->
<g id="edge17_Node000015_Node000016" class="edge">
<title>Node16&#45;&gt;Node15</title>
<g id="a_edge17_Node000015_Node000016"><a xlink:title=" ">
<path fill="none" stroke="#63b8ff" d="M580.08,-836.86C576.28,-803 571.49,-736.55 583.82,-682 584.7,-678.13 585.94,-674.19 587.39,-670.34"/>
<polygon fill="none" stroke="#63b8ff" points="587.45,-670.21 586.16,-663.12 592.22,-659.2 593.5,-666.3 587.45,-670.21"/>
</a>
</g>
<text text-anchor="middle" x="597.59" y="-702" font-family="Helvetica,sans-Serif" font-size="10.00" fill="grey"> +keys</text>
</g>
<!-- Node17&#45;&gt;Node1 -->
<g id="edge19_Node000001_Node000017" class="edge">
<title>Node17&#45;&gt;Node1</title>
<g id="a_edge19_Node000001_Node000017"><a xlink:title=" ">
<path fill="none" stroke="#63b8ff" d="M265.82,-485.93C263.02,-476.13 259.69,-464.51 256.03,-451.71"/>
<polygon fill="none" stroke="#63b8ff" points="256.02,-451.69 250.53,-447.03 252.72,-440.16 258.22,-444.83 256.02,-451.69"/>
</a>
</g>
<text text-anchor="middle" x="273.29" y="-460" font-family="Helvetica,sans-Serif" font-size="10.00" fill="grey"> &#45;_long</text>
</g>
</g>
</svg>
