<?xml version="1.0" encoding="UTF-8" standalone="no"?>
<!DOCTYPE svg PUBLIC "-//W3C//DTD SVG 1.1//EN"
 "http://www.w3.org/Graphics/SVG/1.1/DTD/svg11.dtd">
<!-- Generated by graphviz version 2.48.0 (20210717.1556)
 -->
<!-- Title: cli::option_processor::add_option Pages: 1 -->
<svg width="403pt" height="54pt"
 viewBox="0.00 0.00 403.14 54.00" xmlns="http://www.w3.org/2000/svg" xmlns:xlink="http://www.w3.org/1999/xlink">
<g id="graph0" class="graph" transform="scale(1 1) rotate(0) translate(4 50)">
<title>cli::option_processor::add_option</title>
<!-- Node1 -->
<g id="Node000001" class="node">
<title>Node1</title>
<g id="a_Node000001"><a xlink:title=" ">
<polygon fill="#999999" stroke="#666666" points="107.57,-28 0.14,-28 0.14,0 107.57,0 107.57,-28"/>
<text text-anchor="start" x="8" y="-16" font-family="Helvetica,sans-Serif" font-size="10.00">cli::option_processor</text>
<text text-anchor="middle" x="53.86" y="-6" font-family="Helvetica,sans-Serif" font-size="10.00">::add_option</text>
</a>
</g>
</g>
<!-- Node2 -->
<g id="Node000002" class="node">
<title>Node2</title>
<g id="a_Node000002"><a xlink:href="classcli_1_1option__processor.html#a46aa5749ada745f8fa0e8188d317c590" target="_top" xlink:title=" ">
<polygon fill="white" stroke="#666666" points="251.29,-28 143.86,-28 143.86,0 251.29,0 251.29,-28"/>
<text text-anchor="start" x="151.71" y="-16" font-family="Helvetica,sans-Serif" font-size="10.00">cli::option_processor</text>
<text text-anchor="middle" x="197.57" y="-6" font-family="Helvetica,sans-Serif" font-size="10.00">::usage</text>
</a>
</g>
</g>
<!-- Node1&#45;&gt;Node2 -->
<g id="edge1_Node000001_Node000002" class="edge">
<title>Node1&#45;&gt;Node2</title>
<g id="a_edge1_Node000001_Node000002"><a xlink:title=" ">
<path fill="none" stroke="#63b8ff" d="M107.63,-14C116.11,-14 124.97,-14 133.66,-14"/>
<polygon fill="#63b8ff" stroke="#63b8ff" points="133.76,-17.5 143.76,-14 133.76,-10.5 133.76,-17.5"/>
</a>
</g>
</g>
<!-- Node3 -->
<g id="Node000003" class="node">
<title>Node3</title>
<g id="a_Node000003"><a xlink:href="classcli_1_1option__processor.html#a963a0b0a7cf5bf1d738f5d8d290d0ec1" target="_top" xlink:title=" ">
<polygon fill="white" stroke="#666666" points="395,-28 287.57,-28 287.57,0 395,0 395,-28"/>
<text text-anchor="start" x="295.43" y="-16" font-family="Helvetica,sans-Serif" font-size="10.00">cli::option_processor</text>
<text text-anchor="middle" x="341.28" y="-6" font-family="Helvetica,sans-Serif" font-size="10.00">::wrap</text>
</a>
</g>
</g>
<!-- Node2&#45;&gt;Node3 -->
<g id="edge2_Node000002_Node000003" class="edge">
<title>Node2&#45;&gt;Node3</title>
<g id="a_edge2_Node000002_Node000003"><a xlink:title=" ">
<path fill="none" stroke="#63b8ff" d="M251.34,-14C259.82,-14 268.68,-14 277.37,-14"/>
<polygon fill="#63b8ff" stroke="#63b8ff" points="277.47,-17.5 287.47,-14 277.47,-10.5 277.47,-17.5"/>
</a>
</g>
</g>
<!-- Node3&#45;&gt;Node3 -->
<g id="edge3_Node000003_Node000003" class="edge">
<title>Node3&#45;&gt;Node3</title>
<g id="a_edge3_Node000003_Node000003"><a xlink:title=" ">
<path fill="none" stroke="#63b8ff" d="M316.77,-28.15C310.37,-37.24 318.54,-46 341.28,-46 355.14,-46 363.59,-42.75 366.63,-38.15"/>
<polygon fill="#63b8ff" stroke="#63b8ff" points="370.12,-37.83 365.8,-28.15 363.14,-38.4 370.12,-37.83"/>
</a>
</g>
</g>
</g>
</svg>
