<?xml version="1.0" encoding="UTF-8" standalone="no"?>
<!DOCTYPE svg PUBLIC "-//W3C//DTD SVG 1.1//EN"
 "http://www.w3.org/Graphics/SVG/1.1/DTD/svg11.dtd">
<!-- Generated by graphviz version 2.48.0 (20210717.1556)
 -->
<!-- Title: epub::creator Pages: 1 -->
<svg width="146pt" height="369pt"
 viewBox="0.00 0.00 146.00 369.00" xmlns="http://www.w3.org/2000/svg" xmlns:xlink="http://www.w3.org/1999/xlink">
<g id="graph0" class="graph" transform="scale(1 1) rotate(0) translate(4 365)">
<title>epub::creator</title>
<!-- Node1 -->
<g id="Node000001" class="node">
<title>Node1</title>
<g id="a_Node000001"><a xlink:title="An individual or organizational creator.">
<polygon fill="#999999" stroke="transparent" points="138,-156 0,-156 0,0 138,0 138,-156"/>
<text text-anchor="start" x="39.54" y="-144" font-family="Helvetica,sans-Serif" font-size="10.00">epub::creator</text>
<text text-anchor="start" x="67.61" y="-130" font-family="Helvetica,sans-Serif" font-size="10.00"> </text>
<text text-anchor="start" x="3.58" y="-116" font-family="Helvetica,sans-Serif" font-size="10.00">+</text>
<text text-anchor="start" x="13" y="-116" font-family="Helvetica,sans-Serif" font-size="10.00">creator(std::u8string</text>
<text text-anchor="start" x="13" y="-106" font-family="Helvetica,sans-Serif" font-size="10.00"> name)</text>
<text text-anchor="start" x="3.58" y="-92" font-family="Helvetica,sans-Serif" font-size="10.00">+</text>
<text text-anchor="start" x="13" y="-92" font-family="Helvetica,sans-Serif" font-size="10.00">operator const std</text>
<text text-anchor="start" x="13" y="-82" font-family="Helvetica,sans-Serif" font-size="10.00">::u8string &amp;() const</text>
<text text-anchor="start" x="3.58" y="-68" font-family="Helvetica,sans-Serif" font-size="10.00">+</text>
<text text-anchor="start" x="13" y="-68" font-family="Helvetica,sans-Serif" font-size="10.00">const std::u8string</text>
<text text-anchor="start" x="13" y="-58" font-family="Helvetica,sans-Serif" font-size="10.00"> &amp; file_as() const</text>
<text text-anchor="start" x="3.58" y="-44" font-family="Helvetica,sans-Serif" font-size="10.00">+</text>
<text text-anchor="start" x="13" y="-44" font-family="Helvetica,sans-Serif" font-size="10.00">void file_as(auto &amp;&amp;file_as)</text>
<text text-anchor="start" x="3.58" y="-30" font-family="Helvetica,sans-Serif" font-size="10.00">+</text>
<text text-anchor="start" x="13" y="-30" font-family="Helvetica,sans-Serif" font-size="10.00">const std::u8string</text>
<text text-anchor="start" x="13" y="-20" font-family="Helvetica,sans-Serif" font-size="10.00"> &amp; role() const</text>
<text text-anchor="start" x="3.58" y="-6" font-family="Helvetica,sans-Serif" font-size="10.00">+</text>
<text text-anchor="start" x="13" y="-6" font-family="Helvetica,sans-Serif" font-size="10.00">void role(auto &amp;&amp;role)</text>
<polygon fill="#666666" stroke="#666666" points="0,-140 0,-140 138,-140 138,-140 0,-140"/>
<polygon fill="#666666" stroke="#666666" points="0,-126 0,-126 138,-126 138,-126 0,-126"/>
<polygon fill="none" stroke="#666666" points="0,0 0,-156 138,-156 138,0 0,0"/>
</a>
</g>
</g>
<!-- Node2 -->
<g id="Node000002" class="node">
<title>Node2</title>
<g id="a_Node000002"><a xlink:title=" ">
<polygon fill="white" stroke="transparent" points="101,-268 37,-268 37,-222 101,-222 101,-268"/>
<text text-anchor="start" x="41.76" y="-256" font-family="Helvetica,sans-Serif" font-size="10.00">std::u8string</text>
<text text-anchor="start" x="67.61" y="-242" font-family="Helvetica,sans-Serif" font-size="10.00"> </text>
<text text-anchor="start" x="67.61" y="-228" font-family="Helvetica,sans-Serif" font-size="10.00"> </text>
<polygon fill="#666666" stroke="#666666" points="37,-252 37,-252 101,-252 101,-252 37,-252"/>
<polygon fill="#666666" stroke="#666666" points="37,-238 37,-238 101,-238 101,-238 37,-238"/>
<polygon fill="none" stroke="#666666" points="37,-222 37,-268 101,-268 101,-222 37,-222"/>
</a>
</g>
</g>
<!-- Node2&#45;&gt;Node1 -->
<g id="edge1_Node000001_Node000002" class="edge">
<title>Node2&#45;&gt;Node1</title>
<g id="a_edge1_Node000001_Node000002"><a xlink:title=" ">
<path fill="none" stroke="#63b8ff" d="M69,-221.75C69,-207.55 69,-188.11 69,-168.16"/>
<polygon fill="none" stroke="#63b8ff" points="69,-168.05 65,-162.05 69,-156.05 73,-162.05 69,-168.05"/>
</a>
</g>
<text text-anchor="middle" x="89.29" y="-196" font-family="Helvetica,sans-Serif" font-size="10.00" fill="grey"> &#45;_file_as</text>
<text text-anchor="middle" x="89.29" y="-186" font-family="Helvetica,sans-Serif" font-size="10.00" fill="grey">&#45;_name</text>
<text text-anchor="middle" x="89.29" y="-176" font-family="Helvetica,sans-Serif" font-size="10.00" fill="grey">&#45;_role</text>
</g>
<!-- Node3 -->
<g id="Node000003" class="node">
<title>Node3</title>
<g id="a_Node000003"><a xlink:title=" ">
<polygon fill="white" stroke="transparent" points="113,-361 25,-361 25,-305 113,-305 113,-361"/>
<text text-anchor="start" x="29.95" y="-349" font-family="Helvetica,sans-Serif" font-size="10.00">std::basic_string&lt;</text>
<text text-anchor="start" x="52.46" y="-339" font-family="Helvetica,sans-Serif" font-size="10.00"> Char &gt;</text>
<text text-anchor="start" x="67.61" y="-325" font-family="Helvetica,sans-Serif" font-size="10.00"> </text>
<text text-anchor="start" x="67.61" y="-311" font-family="Helvetica,sans-Serif" font-size="10.00"> </text>
<polygon fill="#666666" stroke="#666666" points="25,-335 25,-335 113,-335 113,-335 25,-335"/>
<polygon fill="#666666" stroke="#666666" points="25,-321 25,-321 113,-321 113,-321 25,-321"/>
<polygon fill="none" stroke="#666666" points="25,-305 25,-361 113,-361 113,-305 25,-305"/>
</a>
</g>
</g>
<!-- Node3&#45;&gt;Node2 -->
<g id="edge2_Node000002_Node000003" class="edge">
<title>Node3&#45;&gt;Node2</title>
<g id="a_edge2_Node000002_Node000003"><a xlink:title=" ">
<path fill="none" stroke="#63b8ff" d="M69,-294.78C69,-285.7 69,-276.27 69,-268.15"/>
<polygon fill="none" stroke="#63b8ff" points="65.5,-294.79 69,-304.79 72.5,-294.79 65.5,-294.79"/>
</a>
</g>
</g>
</g>
</svg>
