<?xml version="1.0" encoding="UTF-8" standalone="no"?>
<!DOCTYPE svg PUBLIC "-//W3C//DTD SVG 1.1//EN"
 "http://www.w3.org/Graphics/SVG/1.1/DTD/svg11.dtd">
<!-- Generated by graphviz version 2.48.0 (20210717.1556)
 -->
<!-- Title: book Pages: 1 -->
<svg width="119pt" height="160pt"
 viewBox="0.00 0.00 119.00 160.00" xmlns="http://www.w3.org/2000/svg" xmlns:xlink="http://www.w3.org/1999/xlink">
<g id="graph0" class="graph" transform="scale(1 1) rotate(0) translate(4 156)">
<title>book</title>
<!-- Node1 -->
<g id="Node000001" class="node">
<title>Node1</title>
<g id="a_Node000001"><a xlink:title=" ">
<polygon fill="#999999" stroke="transparent" points="111,-70 0,-70 0,0 111,0 111,-70"/>
<text text-anchor="start" x="45.16" y="-58" font-family="Helvetica,sans-Serif" font-size="10.00">book</text>
<text text-anchor="start" x="54.61" y="-44" font-family="Helvetica,sans-Serif" font-size="10.00"> </text>
<text text-anchor="start" x="4.08" y="-30" font-family="Helvetica,sans-Serif" font-size="10.00">+</text>
<text text-anchor="start" x="13.5" y="-30" font-family="Helvetica,sans-Serif" font-size="10.00">auto &amp; last_chapter()</text>
<text text-anchor="start" x="4.08" y="-16" font-family="Helvetica,sans-Serif" font-size="10.00">+</text>
<text text-anchor="start" x="13.5" y="-16" font-family="Helvetica,sans-Serif" font-size="10.00">auto add_chapter(std</text>
<text text-anchor="start" x="13.5" y="-6" font-family="Helvetica,sans-Serif" font-size="10.00">::u8string name)</text>
<polygon fill="#666666" stroke="#666666" points="0.5,-54 0.5,-54 111.5,-54 111.5,-54 0.5,-54"/>
<polygon fill="#666666" stroke="#666666" points="0.5,-40 0.5,-40 111.5,-40 111.5,-40 0.5,-40"/>
<polygon fill="none" stroke="#666666" points="0,0 0,-70 111,-70 111,0 0,0"/>
</a>
</g>
</g>
<!-- Node2 -->
<g id="Node000002" class="node">
<title>Node2</title>
<g id="a_Node000002"><a xlink:title=" ">
<polygon fill="white" stroke="transparent" points="95,-152 16,-152 16,-106 95,-106 95,-152"/>
<text text-anchor="start" x="21.44" y="-140" font-family="Helvetica,sans-Serif" font-size="10.00">std::vector&lt; T &gt;</text>
<text text-anchor="start" x="23.08" y="-126" font-family="Helvetica,sans-Serif" font-size="10.00">+</text>
<text text-anchor="start" x="35.5" y="-126" font-family="Helvetica,sans-Serif" font-size="10.00">T elements</text>
<text text-anchor="start" x="54.61" y="-112" font-family="Helvetica,sans-Serif" font-size="10.00"> </text>
<polygon fill="#666666" stroke="#666666" points="16.5,-136 16.5,-136 95.5,-136 95.5,-136 16.5,-136"/>
<polygon fill="#666666" stroke="#666666" points="16.5,-122 16.5,-122 33.5,-122 33.5,-122 16.5,-122"/>
<polygon fill="#666666" stroke="#666666" points="33.5,-122 33.5,-122 95.5,-122 95.5,-122 33.5,-122"/>
<polygon fill="none" stroke="#666666" points="16,-106 16,-152 95,-152 95,-106 16,-106"/>
</a>
</g>
</g>
<!-- Node2&#45;&gt;Node1 -->
<g id="edge1_Node000001_Node000002" class="edge">
<title>Node2&#45;&gt;Node1</title>
<g id="a_edge1_Node000001_Node000002"><a xlink:title=" ">
<path fill="none" stroke="#8b1a1a" d="M55.5,-95.46C55.5,-87.3 55.5,-78.52 55.5,-70.27"/>
<polygon fill="none" stroke="#8b1a1a" points="52,-95.73 55.5,-105.73 59,-95.73 52,-95.73"/>
</a>
</g>
</g>
</g>
</svg>
