<?xml version="1.0" encoding="UTF-8" standalone="no"?>
<!DOCTYPE svg PUBLIC "-//W3C//DTD SVG 1.1//EN"
 "http://www.w3.org/Graphics/SVG/1.1/DTD/svg11.dtd">
<!-- Generated by graphviz version 2.48.0 (20210717.1556)
 -->
<!-- Title: epub::container Pages: 1 -->
<svg width="472pt" height="1545pt"
 viewBox="0.00 0.00 471.50 1545.00" xmlns="http://www.w3.org/2000/svg" xmlns:xlink="http://www.w3.org/1999/xlink">
<g id="graph0" class="graph" transform="scale(1 1) rotate(0) translate(4 1541)">
<title>epub::container</title>
<!-- Node1 -->
<g id="Node000001" class="node">
<title>Node1</title>
<g id="a_Node000001"><a xlink:title="The EPUB container file hierarchy.">
<polygon fill="#999999" stroke="transparent" points="332.5,-116 254.5,-116 254.5,0 332.5,0 332.5,-116"/>
<text text-anchor="start" x="259.03" y="-104" font-family="Helvetica,sans-Serif" font-size="10.00">epub::container</text>
<text text-anchor="start" x="292.11" y="-90" font-family="Helvetica,sans-Serif" font-size="10.00"> </text>
<text text-anchor="start" x="261.08" y="-76" font-family="Helvetica,sans-Serif" font-size="10.00">+</text>
<text text-anchor="start" x="273.5" y="-76" font-family="Helvetica,sans-Serif" font-size="10.00">container()</text>
<text text-anchor="start" x="261.08" y="-62" font-family="Helvetica,sans-Serif" font-size="10.00">+</text>
<text text-anchor="start" x="273.5" y="-62" font-family="Helvetica,sans-Serif" font-size="10.00">add()</text>
<text text-anchor="start" x="261.08" y="-48" font-family="Helvetica,sans-Serif" font-size="10.00">+</text>
<text text-anchor="start" x="273.5" y="-48" font-family="Helvetica,sans-Serif" font-size="10.00">add()</text>
<text text-anchor="start" x="261.08" y="-34" font-family="Helvetica,sans-Serif" font-size="10.00">+</text>
<text text-anchor="start" x="273.5" y="-34" font-family="Helvetica,sans-Serif" font-size="10.00">metadata()</text>
<text text-anchor="start" x="261.08" y="-20" font-family="Helvetica,sans-Serif" font-size="10.00">+</text>
<text text-anchor="start" x="273.5" y="-20" font-family="Helvetica,sans-Serif" font-size="10.00">metadata()</text>
<text text-anchor="start" x="261.08" y="-6" font-family="Helvetica,sans-Serif" font-size="10.00">+</text>
<text text-anchor="start" x="273.5" y="-6" font-family="Helvetica,sans-Serif" font-size="10.00">write()</text>
<polygon fill="#666666" stroke="#666666" points="254.5,-100 254.5,-100 332.5,-100 332.5,-100 254.5,-100"/>
<polygon fill="#666666" stroke="#666666" points="254.5,-86 254.5,-86 332.5,-86 332.5,-86 254.5,-86"/>
<polygon fill="none" stroke="#666666" points="254.5,0 254.5,-116 332.5,-116 332.5,0 254.5,0"/>
</a>
</g>
</g>
<!-- Node2 -->
<g id="Node000002" class="node">
<title>Node2</title>
<g id="a_Node000002"><a xlink:title=" ">
<polygon fill="white" stroke="transparent" points="237.5,-267 117.5,-267 117.5,-187 237.5,-187 237.5,-267"/>
<text text-anchor="start" x="122.34" y="-255" font-family="Helvetica,sans-Serif" font-size="10.00">std::map&lt; std::filesystem</text>
<text text-anchor="start" x="122.34" y="-245" font-family="Helvetica,sans-Serif" font-size="10.00">::path, std::filesystem</text>
<text text-anchor="start" x="160.68" y="-235" font-family="Helvetica,sans-Serif" font-size="10.00">::path &gt;</text>
<text text-anchor="start" x="136.58" y="-221" font-family="Helvetica,sans-Serif" font-size="10.00">+</text>
<text text-anchor="start" x="161.5" y="-221" font-family="Helvetica,sans-Serif" font-size="10.00">keys</text>
<text text-anchor="start" x="136.58" y="-207" font-family="Helvetica,sans-Serif" font-size="10.00">+</text>
<text text-anchor="start" x="161.5" y="-207" font-family="Helvetica,sans-Serif" font-size="10.00">elements</text>
<text text-anchor="start" x="176.11" y="-193" font-family="Helvetica,sans-Serif" font-size="10.00"> </text>
<polygon fill="#666666" stroke="#666666" points="117.5,-231 117.5,-231 237.5,-231 237.5,-231 117.5,-231"/>
<polygon fill="#666666" stroke="#666666" points="117.5,-203 117.5,-203 159.5,-203 159.5,-203 117.5,-203"/>
<polygon fill="#666666" stroke="#666666" points="159.5,-203 159.5,-203 237.5,-203 237.5,-203 159.5,-203"/>
<polygon fill="none" stroke="#666666" points="117.5,-187 117.5,-267 237.5,-267 237.5,-187 117.5,-187"/>
</a>
</g>
</g>
<!-- Node2&#45;&gt;Node1 -->
<g id="edge1_Node000001_Node000002" class="edge">
<title>Node2&#45;&gt;Node1</title>
<g id="a_edge1_Node000001_Node000002"><a xlink:title=" ">
<path fill="none" stroke="#63b8ff" d="M204.7,-186.85C217.41,-168.54 232.92,-146.22 247.39,-125.39"/>
<polygon fill="none" stroke="#63b8ff" points="247.55,-125.16 247.68,-117.95 254.39,-115.3 254.25,-122.51 247.55,-125.16"/>
</a>
</g>
<text text-anchor="middle" x="254.23" y="-136" font-family="Helvetica,sans-Serif" font-size="10.00" fill="grey"> &#45;_files</text>
</g>
<!-- Node3 -->
<g id="Node000003" class="node">
<title>Node3</title>
<g id="a_Node000003"><a xlink:href="classepub_1_1package.html" target="_top" xlink:title=" ">
<polygon fill="white" stroke="transparent" points="331,-292 256,-292 256,-162 331,-162 331,-292"/>
<text text-anchor="start" x="261.19" y="-280" font-family="Helvetica,sans-Serif" font-size="10.00">epub::package</text>
<text text-anchor="start" x="292.61" y="-266" font-family="Helvetica,sans-Serif" font-size="10.00"> </text>
<text text-anchor="start" x="262.58" y="-252" font-family="Helvetica,sans-Serif" font-size="10.00">+</text>
<text text-anchor="start" x="274.5" y="-252" font-family="Helvetica,sans-Serif" font-size="10.00">metadata()</text>
<text text-anchor="start" x="262.58" y="-238" font-family="Helvetica,sans-Serif" font-size="10.00">+</text>
<text text-anchor="start" x="274.5" y="-238" font-family="Helvetica,sans-Serif" font-size="10.00">metadata()</text>
<text text-anchor="start" x="262.58" y="-224" font-family="Helvetica,sans-Serif" font-size="10.00">+</text>
<text text-anchor="start" x="274.5" y="-224" font-family="Helvetica,sans-Serif" font-size="10.00">manifest()</text>
<text text-anchor="start" x="262.58" y="-210" font-family="Helvetica,sans-Serif" font-size="10.00">+</text>
<text text-anchor="start" x="274.5" y="-210" font-family="Helvetica,sans-Serif" font-size="10.00">manifest()</text>
<text text-anchor="start" x="262.58" y="-196" font-family="Helvetica,sans-Serif" font-size="10.00">+</text>
<text text-anchor="start" x="274.5" y="-196" font-family="Helvetica,sans-Serif" font-size="10.00">spine()</text>
<text text-anchor="start" x="262.58" y="-182" font-family="Helvetica,sans-Serif" font-size="10.00">+</text>
<text text-anchor="start" x="274.5" y="-182" font-family="Helvetica,sans-Serif" font-size="10.00">spine()</text>
<text text-anchor="start" x="262.58" y="-168" font-family="Helvetica,sans-Serif" font-size="10.00">+</text>
<text text-anchor="start" x="274.5" y="-168" font-family="Helvetica,sans-Serif" font-size="10.00">write()</text>
<polygon fill="#666666" stroke="#666666" points="256.5,-276 256.5,-276 331.5,-276 331.5,-276 256.5,-276"/>
<polygon fill="#666666" stroke="#666666" points="256.5,-262 256.5,-262 331.5,-262 331.5,-262 256.5,-262"/>
<polygon fill="none" stroke="#666666" points="256,-162 256,-292 331,-292 331,-162 256,-162"/>
</a>
</g>
</g>
<!-- Node3&#45;&gt;Node1 -->
<g id="edge2_Node000001_Node000003" class="edge">
<title>Node3&#45;&gt;Node1</title>
<g id="a_edge2_Node000001_Node000003"><a xlink:title=" ">
<path fill="none" stroke="#63b8ff" d="M293.5,-161.91C293.5,-150.95 293.5,-139.52 293.5,-128.43"/>
<polygon fill="none" stroke="#63b8ff" points="293.5,-128.09 289.5,-122.09 293.5,-116.09 297.5,-122.09 293.5,-128.09"/>
</a>
</g>
<text text-anchor="middle" x="318.24" y="-136" font-family="Helvetica,sans-Serif" font-size="10.00" fill="grey"> &#45;_package</text>
</g>
<!-- Node4 -->
<g id="Node000004" class="node">
<title>Node4</title>
<g id="a_Node000004"><a xlink:href="classepub_1_1metadata.html" target="_top" xlink:title=" ">
<polygon fill="white" stroke="transparent" points="310,-876 231,-876 231,-662 310,-662 310,-876"/>
<text text-anchor="start" x="236.25" y="-864" font-family="Helvetica,sans-Serif" font-size="10.00">epub::metadata</text>
<text text-anchor="start" x="269.61" y="-850" font-family="Helvetica,sans-Serif" font-size="10.00"> </text>
<text text-anchor="start" x="238.58" y="-836" font-family="Helvetica,sans-Serif" font-size="10.00">+</text>
<text text-anchor="start" x="251.5" y="-836" font-family="Helvetica,sans-Serif" font-size="10.00">metadata()</text>
<text text-anchor="start" x="238.58" y="-822" font-family="Helvetica,sans-Serif" font-size="10.00">+</text>
<text text-anchor="start" x="251.5" y="-822" font-family="Helvetica,sans-Serif" font-size="10.00">identifier()</text>
<text text-anchor="start" x="238.58" y="-808" font-family="Helvetica,sans-Serif" font-size="10.00">+</text>
<text text-anchor="start" x="251.5" y="-808" font-family="Helvetica,sans-Serif" font-size="10.00">title()</text>
<text text-anchor="start" x="238.58" y="-794" font-family="Helvetica,sans-Serif" font-size="10.00">+</text>
<text text-anchor="start" x="251.5" y="-794" font-family="Helvetica,sans-Serif" font-size="10.00">title()</text>
<text text-anchor="start" x="238.58" y="-780" font-family="Helvetica,sans-Serif" font-size="10.00">+</text>
<text text-anchor="start" x="251.5" y="-780" font-family="Helvetica,sans-Serif" font-size="10.00">language()</text>
<text text-anchor="start" x="238.58" y="-766" font-family="Helvetica,sans-Serif" font-size="10.00">+</text>
<text text-anchor="start" x="251.5" y="-766" font-family="Helvetica,sans-Serif" font-size="10.00">creators()</text>
<text text-anchor="start" x="238.58" y="-752" font-family="Helvetica,sans-Serif" font-size="10.00">+</text>
<text text-anchor="start" x="251.5" y="-752" font-family="Helvetica,sans-Serif" font-size="10.00">creators()</text>
<text text-anchor="start" x="239.55" y="-738" font-family="Helvetica,sans-Serif" font-size="10.00">*</text>
<text text-anchor="start" x="251.5" y="-738" font-family="Helvetica,sans-Serif" font-size="10.00">identifier()</text>
<text text-anchor="start" x="239.55" y="-724" font-family="Helvetica,sans-Serif" font-size="10.00">*</text>
<text text-anchor="start" x="251.5" y="-724" font-family="Helvetica,sans-Serif" font-size="10.00">title()</text>
<text text-anchor="start" x="239.55" y="-710" font-family="Helvetica,sans-Serif" font-size="10.00">*</text>
<text text-anchor="start" x="251.5" y="-710" font-family="Helvetica,sans-Serif" font-size="10.00">title()</text>
<text text-anchor="start" x="239.55" y="-696" font-family="Helvetica,sans-Serif" font-size="10.00">*</text>
<text text-anchor="start" x="251.5" y="-696" font-family="Helvetica,sans-Serif" font-size="10.00">language()</text>
<text text-anchor="start" x="239.55" y="-682" font-family="Helvetica,sans-Serif" font-size="10.00">*</text>
<text text-anchor="start" x="251.5" y="-682" font-family="Helvetica,sans-Serif" font-size="10.00">creators()</text>
<text text-anchor="start" x="239.55" y="-668" font-family="Helvetica,sans-Serif" font-size="10.00">*</text>
<text text-anchor="start" x="251.5" y="-668" font-family="Helvetica,sans-Serif" font-size="10.00">creators()</text>
<polygon fill="#666666" stroke="#666666" points="231.5,-860 231.5,-860 310.5,-860 310.5,-860 231.5,-860"/>
<polygon fill="#666666" stroke="#666666" points="231.5,-846 231.5,-846 310.5,-846 310.5,-846 231.5,-846"/>
<polygon fill="none" stroke="#666666" points="231,-662 231,-876 310,-876 310,-662 231,-662"/>
</a>
</g>
</g>
<!-- Node4&#45;&gt;Node3 -->
<g id="edge3_Node000003_Node000004" class="edge">
<title>Node4&#45;&gt;Node3</title>
<g id="a_edge3_Node000003_Node000004"><a xlink:title=" ">
<path fill="none" stroke="#63b8ff" d="M268.52,-661.63C267.91,-591.75 268.38,-498.37 273.14,-416 275.26,-379.22 279.44,-338.56 283.45,-304.49"/>
<polygon fill="none" stroke="#63b8ff" points="283.49,-304.17 280.24,-297.73 284.92,-292.25 288.18,-298.69 283.49,-304.17"/>
</a>
</g>
<text text-anchor="middle" x="300.18" y="-513" font-family="Helvetica,sans-Serif" font-size="10.00" fill="grey"> &#45;_metadata</text>
</g>
<!-- Node5 -->
<g id="Node000005" class="node">
<title>Node5</title>
<g id="a_Node000005"><a xlink:title=" ">
<polygon fill="white" stroke="transparent" points="250.5,-1345 186.5,-1345 186.5,-1299 250.5,-1299 250.5,-1345"/>
<text text-anchor="start" x="191.26" y="-1333" font-family="Helvetica,sans-Serif" font-size="10.00">std::u8string</text>
<text text-anchor="start" x="217.11" y="-1319" font-family="Helvetica,sans-Serif" font-size="10.00"> </text>
<text text-anchor="start" x="217.11" y="-1305" font-family="Helvetica,sans-Serif" font-size="10.00"> </text>
<polygon fill="#666666" stroke="#666666" points="186.5,-1329 186.5,-1329 250.5,-1329 250.5,-1329 186.5,-1329"/>
<polygon fill="#666666" stroke="#666666" points="186.5,-1315 186.5,-1315 250.5,-1315 250.5,-1315 186.5,-1315"/>
<polygon fill="none" stroke="#666666" points="186.5,-1299 186.5,-1345 250.5,-1345 250.5,-1299 186.5,-1299"/>
</a>
</g>
</g>
<!-- Node5&#45;&gt;Node4 -->
<g id="edge4_Node000004_Node000005" class="edge">
<title>Node5&#45;&gt;Node4</title>
<g id="a_edge4_Node000004_Node000005"><a xlink:title=" ">
<path fill="none" stroke="#63b8ff" d="M220.6,-1298.72C227.02,-1230.73 246.68,-1022.41 259.32,-888.46"/>
<polygon fill="none" stroke="#63b8ff" points="259.36,-888.08 255.94,-881.73 260.48,-876.14 263.9,-882.48 259.36,-888.08"/>
</a>
</g>
<text text-anchor="middle" x="274.52" y="-1018" font-family="Helvetica,sans-Serif" font-size="10.00" fill="grey"> &#45;_identifier</text>
<text text-anchor="middle" x="274.52" y="-1008" font-family="Helvetica,sans-Serif" font-size="10.00" fill="grey">&#45;_language</text>
<text text-anchor="middle" x="274.52" y="-998" font-family="Helvetica,sans-Serif" font-size="10.00" fill="grey">&#45;_title</text>
</g>
<!-- Node8 -->
<g id="Node000008" class="node">
<title>Node8</title>
<g id="a_Node000008"><a xlink:href="classepub_1_1creator.html" target="_top" xlink:title=" ">
<polygon fill="white" stroke="transparent" points="370,-1226 273,-1226 273,-1044 370,-1044 370,-1226"/>
<text text-anchor="start" x="292.54" y="-1214" font-family="Helvetica,sans-Serif" font-size="10.00">epub::creator</text>
<text text-anchor="start" x="320.61" y="-1200" font-family="Helvetica,sans-Serif" font-size="10.00"> </text>
<text text-anchor="start" x="277.08" y="-1186" font-family="Helvetica,sans-Serif" font-size="10.00">+</text>
<text text-anchor="start" x="286.5" y="-1186" font-family="Helvetica,sans-Serif" font-size="10.00">creator()</text>
<text text-anchor="start" x="277.08" y="-1172" font-family="Helvetica,sans-Serif" font-size="10.00">+</text>
<text text-anchor="start" x="286.5" y="-1172" font-family="Helvetica,sans-Serif" font-size="10.00">creator()</text>
<text text-anchor="start" x="277.08" y="-1158" font-family="Helvetica,sans-Serif" font-size="10.00">+</text>
<text text-anchor="start" x="286.5" y="-1158" font-family="Helvetica,sans-Serif" font-size="10.00">creator()</text>
<text text-anchor="start" x="277.08" y="-1144" font-family="Helvetica,sans-Serif" font-size="10.00">+</text>
<text text-anchor="start" x="286.5" y="-1144" font-family="Helvetica,sans-Serif" font-size="10.00">operator=()</text>
<text text-anchor="start" x="277.08" y="-1130" font-family="Helvetica,sans-Serif" font-size="10.00">+</text>
<text text-anchor="start" x="286.5" y="-1130" font-family="Helvetica,sans-Serif" font-size="10.00">operator=()</text>
<text text-anchor="start" x="277.08" y="-1116" font-family="Helvetica,sans-Serif" font-size="10.00">+</text>
<text text-anchor="start" x="286.5" y="-1116" font-family="Helvetica,sans-Serif" font-size="10.00">operator const std</text>
<text text-anchor="start" x="286.5" y="-1106" font-family="Helvetica,sans-Serif" font-size="10.00">::u8string &amp;()</text>
<text text-anchor="start" x="277.08" y="-1092" font-family="Helvetica,sans-Serif" font-size="10.00">+</text>
<text text-anchor="start" x="286.5" y="-1092" font-family="Helvetica,sans-Serif" font-size="10.00">file_as()</text>
<text text-anchor="start" x="277.08" y="-1078" font-family="Helvetica,sans-Serif" font-size="10.00">+</text>
<text text-anchor="start" x="286.5" y="-1078" font-family="Helvetica,sans-Serif" font-size="10.00">file_as()</text>
<text text-anchor="start" x="277.08" y="-1064" font-family="Helvetica,sans-Serif" font-size="10.00">+</text>
<text text-anchor="start" x="286.5" y="-1064" font-family="Helvetica,sans-Serif" font-size="10.00">role()</text>
<text text-anchor="start" x="277.08" y="-1050" font-family="Helvetica,sans-Serif" font-size="10.00">+</text>
<text text-anchor="start" x="286.5" y="-1050" font-family="Helvetica,sans-Serif" font-size="10.00">role()</text>
<polygon fill="#666666" stroke="#666666" points="273.5,-1210 273.5,-1210 370.5,-1210 370.5,-1210 273.5,-1210"/>
<polygon fill="#666666" stroke="#666666" points="273.5,-1196 273.5,-1196 370.5,-1196 370.5,-1196 273.5,-1196"/>
<polygon fill="none" stroke="#666666" points="273,-1044 273,-1226 370,-1226 370,-1044 273,-1044"/>
</a>
</g>
</g>
<!-- Node5&#45;&gt;Node8 -->
<g id="edge8_Node000008_Node000005" class="edge">
<title>Node5&#45;&gt;Node8</title>
<g id="a_edge8_Node000008_Node000005"><a xlink:title=" ">
<path fill="none" stroke="#63b8ff" d="M239.79,-1298.57C246.26,-1291.09 253.09,-1282.5 258.5,-1274 265.83,-1262.49 272.77,-1249.98 279.18,-1237.35"/>
<polygon fill="none" stroke="#63b8ff" points="279.35,-1237 278.43,-1229.85 284.68,-1226.25 285.6,-1233.4 279.35,-1237"/>
</a>
</g>
<text text-anchor="middle" x="296.9" y="-1266" font-family="Helvetica,sans-Serif" font-size="10.00" fill="grey"> &#45;_creator</text>
<text text-anchor="middle" x="296.9" y="-1256" font-family="Helvetica,sans-Serif" font-size="10.00" fill="grey">&#45;_file_as</text>
<text text-anchor="middle" x="296.9" y="-1246" font-family="Helvetica,sans-Serif" font-size="10.00" fill="grey">&#45;_role</text>
</g>
<!-- Node10 -->
<g id="Node000010" class="node">
<title>Node10</title>
<g id="a_Node000010"><a xlink:title=" ">
<polygon fill="white" stroke="transparent" points="212.5,-802 98.5,-802 98.5,-736 212.5,-736 212.5,-802"/>
<text text-anchor="start" x="103.39" y="-790" font-family="Helvetica,sans-Serif" font-size="10.00">std::map&lt; std::u8string,</text>
<text text-anchor="start" x="103.39" y="-780" font-family="Helvetica,sans-Serif" font-size="10.00"> std::shared_ptr&lt; epub</text>
<text text-anchor="start" x="112.98" y="-770" font-family="Helvetica,sans-Serif" font-size="10.00">::manifest::item &gt; &gt;</text>
<text text-anchor="start" x="154.11" y="-756" font-family="Helvetica,sans-Serif" font-size="10.00"> </text>
<text text-anchor="start" x="154.11" y="-742" font-family="Helvetica,sans-Serif" font-size="10.00"> </text>
<polygon fill="#666666" stroke="#666666" points="98.5,-766 98.5,-766 212.5,-766 212.5,-766 98.5,-766"/>
<polygon fill="#666666" stroke="#666666" points="98.5,-752 98.5,-752 212.5,-752 212.5,-752 98.5,-752"/>
<polygon fill="none" stroke="#666666" points="98.5,-736 98.5,-802 212.5,-802 212.5,-736 98.5,-736"/>
</a>
</g>
</g>
<!-- Node5&#45;&gt;Node10 -->
<g id="edge11_Node000010_Node000005" class="edge">
<title>Node5&#45;&gt;Node10</title>
<g id="a_edge11_Node000010_Node000005"><a xlink:title=" ">
<path fill="none" stroke="#63b8ff" d="M216.99,-1298.7C212.56,-1235.23 198.55,-1048.22 177.5,-894 173.87,-867.37 168.65,-837.73 164.21,-814.11"/>
<polygon fill="none" stroke="#63b8ff" points="164.15,-813.79 159.1,-808.65 161.9,-802 166.96,-807.15 164.15,-813.79"/>
</a>
</g>
<text text-anchor="middle" x="208.09" y="-1008" font-family="Helvetica,sans-Serif" font-size="10.00" fill="grey"> +keys</text>
</g>
<!-- Node12 -->
<g id="Node000012" class="node">
<title>Node12</title>
<g id="a_Node000012"><a xlink:href="classepub_1_1manifest_1_1item.html" target="_top" xlink:title=" ">
<polygon fill="white" stroke="transparent" points="160.5,-1186 60.5,-1186 60.5,-1084 160.5,-1084 160.5,-1186"/>
<text text-anchor="start" x="65.48" y="-1174" font-family="Helvetica,sans-Serif" font-size="10.00">epub::manifest::item</text>
<text text-anchor="start" x="73.33" y="-1160" font-family="Helvetica,sans-Serif" font-size="10.00">&#45;</text>
<text text-anchor="start" x="89.5" y="-1160" font-family="Helvetica,sans-Serif" font-size="10.00">_path</text>
<text text-anchor="start" x="72.08" y="-1146" font-family="Helvetica,sans-Serif" font-size="10.00">+</text>
<text text-anchor="start" x="89.5" y="-1146" font-family="Helvetica,sans-Serif" font-size="10.00">item()</text>
<text text-anchor="start" x="72.08" y="-1132" font-family="Helvetica,sans-Serif" font-size="10.00">+</text>
<text text-anchor="start" x="89.5" y="-1132" font-family="Helvetica,sans-Serif" font-size="10.00">id()</text>
<text text-anchor="start" x="72.08" y="-1118" font-family="Helvetica,sans-Serif" font-size="10.00">+</text>
<text text-anchor="start" x="89.5" y="-1118" font-family="Helvetica,sans-Serif" font-size="10.00">path()</text>
<text text-anchor="start" x="72.08" y="-1104" font-family="Helvetica,sans-Serif" font-size="10.00">+</text>
<text text-anchor="start" x="89.5" y="-1104" font-family="Helvetica,sans-Serif" font-size="10.00">properties()</text>
<text text-anchor="start" x="72.08" y="-1090" font-family="Helvetica,sans-Serif" font-size="10.00">+</text>
<text text-anchor="start" x="89.5" y="-1090" font-family="Helvetica,sans-Serif" font-size="10.00">metadata()</text>
<polygon fill="#666666" stroke="#666666" points="60.5,-1170 60.5,-1170 160.5,-1170 160.5,-1170 60.5,-1170"/>
<polygon fill="#666666" stroke="#666666" points="60.5,-1156 60.5,-1156 87.5,-1156 87.5,-1156 60.5,-1156"/>
<polygon fill="#666666" stroke="#666666" points="87.5,-1156 87.5,-1156 160.5,-1156 160.5,-1156 87.5,-1156"/>
<polygon fill="none" stroke="#666666" points="60.5,-1084 60.5,-1186 160.5,-1186 160.5,-1084 60.5,-1084"/>
</a>
</g>
</g>
<!-- Node5&#45;&gt;Node12 -->
<g id="edge14_Node000012_Node000005" class="edge">
<title>Node5&#45;&gt;Node12</title>
<g id="a_edge14_Node000012_Node000005"><a xlink:title=" ">
<path fill="none" stroke="#63b8ff" d="M186.36,-1313.38C165.4,-1306.64 139.38,-1294.6 125.14,-1274 110.13,-1252.29 105.28,-1223.88 104.65,-1198.49"/>
<polygon fill="none" stroke="#63b8ff" points="104.65,-1198.31 100.65,-1192.31 104.66,-1186.31 108.65,-1192.31 104.65,-1198.31"/>
</a>
</g>
<text text-anchor="middle" x="152.18" y="-1261" font-family="Helvetica,sans-Serif" font-size="10.00" fill="grey"> &#45;_id</text>
<text text-anchor="middle" x="152.18" y="-1251" font-family="Helvetica,sans-Serif" font-size="10.00" fill="grey">&#45;_properties</text>
</g>
<!-- Node6 -->
<g id="Node000006" class="node">
<title>Node6</title>
<g id="a_Node000006"><a xlink:title=" ">
<polygon fill="white" stroke="transparent" points="262.5,-1445 174.5,-1445 174.5,-1389 262.5,-1389 262.5,-1445"/>
<text text-anchor="start" x="179.45" y="-1433" font-family="Helvetica,sans-Serif" font-size="10.00">std::basic_string&lt;</text>
<text text-anchor="start" x="201.96" y="-1423" font-family="Helvetica,sans-Serif" font-size="10.00"> Char &gt;</text>
<text text-anchor="start" x="217.11" y="-1409" font-family="Helvetica,sans-Serif" font-size="10.00"> </text>
<text text-anchor="start" x="217.11" y="-1395" font-family="Helvetica,sans-Serif" font-size="10.00"> </text>
<polygon fill="#666666" stroke="#666666" points="174.5,-1419 174.5,-1419 262.5,-1419 262.5,-1419 174.5,-1419"/>
<polygon fill="#666666" stroke="#666666" points="174.5,-1405 174.5,-1405 262.5,-1405 262.5,-1405 174.5,-1405"/>
<polygon fill="none" stroke="#666666" points="174.5,-1389 174.5,-1445 262.5,-1445 262.5,-1389 174.5,-1389"/>
</a>
</g>
</g>
<!-- Node6&#45;&gt;Node5 -->
<g id="edge5_Node000005_Node000006" class="edge">
<title>Node6&#45;&gt;Node5</title>
<g id="a_edge5_Node000005_Node000006"><a xlink:title=" ">
<path fill="none" stroke="#63b8ff" d="M218.5,-1378.51C218.5,-1367.21 218.5,-1355.18 218.5,-1345.21"/>
<polygon fill="none" stroke="#63b8ff" points="215,-1378.6 218.5,-1388.6 222,-1378.6 215,-1378.6"/>
</a>
</g>
</g>
<!-- Node7 -->
<g id="Node000007" class="node">
<title>Node7</title>
<g id="a_Node000007"><a xlink:title=" ">
<polygon fill="white" stroke="transparent" points="365.5,-978 273.5,-978 273.5,-922 365.5,-922 365.5,-978"/>
<text text-anchor="start" x="278.23" y="-966" font-family="Helvetica,sans-Serif" font-size="10.00">std::vector&lt; epub::</text>
<text text-anchor="start" x="299.63" y="-956" font-family="Helvetica,sans-Serif" font-size="10.00">creator &gt;</text>
<text text-anchor="start" x="318.11" y="-942" font-family="Helvetica,sans-Serif" font-size="10.00"> </text>
<text text-anchor="start" x="318.11" y="-928" font-family="Helvetica,sans-Serif" font-size="10.00"> </text>
<polygon fill="#666666" stroke="#666666" points="273.5,-952 273.5,-952 365.5,-952 365.5,-952 273.5,-952"/>
<polygon fill="#666666" stroke="#666666" points="273.5,-938 273.5,-938 365.5,-938 365.5,-938 273.5,-938"/>
<polygon fill="none" stroke="#666666" points="273.5,-922 273.5,-978 365.5,-978 365.5,-922 273.5,-922"/>
</a>
</g>
</g>
<!-- Node7&#45;&gt;Node4 -->
<g id="edge6_Node000004_Node000007" class="edge">
<title>Node7&#45;&gt;Node4</title>
<g id="a_edge6_Node000004_Node000007"><a xlink:title=" ">
<path fill="none" stroke="#63b8ff" d="M312.06,-921.81C309.39,-912.08 306.19,-900.39 302.77,-887.88"/>
<polygon fill="none" stroke="#63b8ff" points="302.74,-887.76 297.29,-883.03 299.57,-876.19 305.01,-880.92 302.74,-887.76"/>
</a>
</g>
<text text-anchor="middle" x="330.4" y="-896" font-family="Helvetica,sans-Serif" font-size="10.00" fill="grey"> &#45;_creators</text>
</g>
<!-- Node8&#45;&gt;Node7 -->
<g id="edge7_Node000007_Node000008" class="edge">
<title>Node8&#45;&gt;Node7</title>
<g id="a_edge7_Node000007_Node000008"><a xlink:title=" ">
<path fill="none" stroke="#63b8ff" d="M320.51,-1043.84C320.31,-1025.09 320.1,-1006.27 319.93,-990.52"/>
<polygon fill="none" stroke="#63b8ff" points="319.93,-990.08 315.86,-984.12 319.8,-978.08 323.86,-984.04 319.93,-990.08"/>
</a>
</g>
<text text-anchor="middle" x="345.1" y="-1008" font-family="Helvetica,sans-Serif" font-size="10.00" fill="grey"> +elements</text>
</g>
<!-- Node9 -->
<g id="Node000009" class="node">
<title>Node9</title>
<g id="a_Node000009"><a xlink:href="classepub_1_1manifest.html" target="_top" xlink:title=" ">
<polygon fill="white" stroke="transparent" points="223,-616 148,-616 148,-416 223,-416 223,-616"/>
<text text-anchor="start" x="153.2" y="-604" font-family="Helvetica,sans-Serif" font-size="10.00">epub::manifest</text>
<text text-anchor="start" x="184.61" y="-590" font-family="Helvetica,sans-Serif" font-size="10.00"> </text>
<text text-anchor="start" x="154.08" y="-576" font-family="Helvetica,sans-Serif" font-size="10.00">+</text>
<text text-anchor="start" x="165.5" y="-576" font-family="Helvetica,sans-Serif" font-size="10.00">manifest()</text>
<text text-anchor="start" x="154.08" y="-562" font-family="Helvetica,sans-Serif" font-size="10.00">+</text>
<text text-anchor="start" x="165.5" y="-562" font-family="Helvetica,sans-Serif" font-size="10.00">manifest()</text>
<text text-anchor="start" x="154.08" y="-548" font-family="Helvetica,sans-Serif" font-size="10.00">+</text>
<text text-anchor="start" x="165.5" y="-548" font-family="Helvetica,sans-Serif" font-size="10.00">manifest()</text>
<text text-anchor="start" x="154.08" y="-534" font-family="Helvetica,sans-Serif" font-size="10.00">+</text>
<text text-anchor="start" x="165.5" y="-534" font-family="Helvetica,sans-Serif" font-size="10.00">~manifest()</text>
<text text-anchor="start" x="154.08" y="-520" font-family="Helvetica,sans-Serif" font-size="10.00">+</text>
<text text-anchor="start" x="165.5" y="-520" font-family="Helvetica,sans-Serif" font-size="10.00">operator=()</text>
<text text-anchor="start" x="154.08" y="-506" font-family="Helvetica,sans-Serif" font-size="10.00">+</text>
<text text-anchor="start" x="165.5" y="-506" font-family="Helvetica,sans-Serif" font-size="10.00">operator=()</text>
<text text-anchor="start" x="154.08" y="-492" font-family="Helvetica,sans-Serif" font-size="10.00">+</text>
<text text-anchor="start" x="165.5" y="-492" font-family="Helvetica,sans-Serif" font-size="10.00">add()</text>
<text text-anchor="start" x="154.08" y="-478" font-family="Helvetica,sans-Serif" font-size="10.00">+</text>
<text text-anchor="start" x="165.5" y="-478" font-family="Helvetica,sans-Serif" font-size="10.00">begin()</text>
<text text-anchor="start" x="154.08" y="-464" font-family="Helvetica,sans-Serif" font-size="10.00">+</text>
<text text-anchor="start" x="165.5" y="-464" font-family="Helvetica,sans-Serif" font-size="10.00">end()</text>
<text text-anchor="start" x="154.08" y="-450" font-family="Helvetica,sans-Serif" font-size="10.00">+</text>
<text text-anchor="start" x="165.5" y="-450" font-family="Helvetica,sans-Serif" font-size="10.00">front()</text>
<text text-anchor="start" x="154.08" y="-436" font-family="Helvetica,sans-Serif" font-size="10.00">+</text>
<text text-anchor="start" x="165.5" y="-436" font-family="Helvetica,sans-Serif" font-size="10.00">back()</text>
<text text-anchor="start" x="154.08" y="-422" font-family="Helvetica,sans-Serif" font-size="10.00">+</text>
<text text-anchor="start" x="165.5" y="-422" font-family="Helvetica,sans-Serif" font-size="10.00">at()</text>
<polygon fill="#666666" stroke="#666666" points="148.5,-600 148.5,-600 223.5,-600 223.5,-600 148.5,-600"/>
<polygon fill="#666666" stroke="#666666" points="148.5,-586 148.5,-586 223.5,-586 223.5,-586 148.5,-586"/>
<polygon fill="none" stroke="#666666" points="148,-416 148,-616 223,-616 223,-416 148,-416"/>
</a>
</g>
</g>
<!-- Node9&#45;&gt;Node3 -->
<g id="edge9_Node000003_Node000009" class="edge">
<title>Node9&#45;&gt;Node3</title>
<g id="a_edge9_Node000003_Node000009"><a xlink:title=" ">
<path fill="none" stroke="#63b8ff" d="M172.15,-415.88C172.3,-379.52 178.97,-339.96 201.04,-310 213.92,-292.5 229.29,-305.28 246.5,-292 246.6,-291.92 246.7,-291.84 246.81,-291.76"/>
<polygon fill="none" stroke="#63b8ff" points="246.96,-291.62 248.8,-284.65 255.94,-283.66 254.11,-290.64 246.96,-291.62"/>
</a>
</g>
<text text-anchor="middle" x="226.23" y="-351" font-family="Helvetica,sans-Serif" font-size="10.00" fill="grey"> &#45;_manifest</text>
</g>
<!-- Node10&#45;&gt;Node9 -->
<g id="edge10_Node000009_Node000010" class="edge">
<title>Node10&#45;&gt;Node9</title>
<g id="a_edge10_Node000009_Node000010"><a xlink:title=" ">
<path fill="none" stroke="#63b8ff" d="M159.33,-735.96C162.6,-708.59 167.51,-667.54 172.19,-628.36"/>
<polygon fill="none" stroke="#63b8ff" points="172.21,-628.19 168.95,-621.76 173.63,-616.27 176.89,-622.71 172.21,-628.19"/>
</a>
</g>
<text text-anchor="middle" x="189.28" y="-636" font-family="Helvetica,sans-Serif" font-size="10.00" fill="grey"> &#45;_items</text>
</g>
<!-- Node11 -->
<g id="Node000011" class="node">
<title>Node11</title>
<g id="a_Node000011"><a xlink:title=" ">
<polygon fill="white" stroke="transparent" points="164,-978 57,-978 57,-922 164,-922 164,-978"/>
<text text-anchor="start" x="62.22" y="-966" font-family="Helvetica,sans-Serif" font-size="10.00">std::shared_ptr&lt; epub</text>
<text text-anchor="start" x="72.79" y="-956" font-family="Helvetica,sans-Serif" font-size="10.00">::manifest::item &gt;</text>
<text text-anchor="start" x="109.61" y="-942" font-family="Helvetica,sans-Serif" font-size="10.00"> </text>
<text text-anchor="start" x="70.08" y="-928" font-family="Helvetica,sans-Serif" font-size="10.00">+</text>
<text text-anchor="start" x="88.5" y="-928" font-family="Helvetica,sans-Serif" font-size="10.00">operator&#45;&gt;()</text>
<polygon fill="#666666" stroke="#666666" points="57.5,-952 57.5,-952 164.5,-952 164.5,-952 57.5,-952"/>
<polygon fill="#666666" stroke="#666666" points="57.5,-938 57.5,-938 164.5,-938 164.5,-938 57.5,-938"/>
<polygon fill="none" stroke="#666666" points="57,-922 57,-978 164,-978 164,-922 57,-922"/>
</a>
</g>
</g>
<!-- Node11&#45;&gt;Node10 -->
<g id="edge12_Node000010_Node000011" class="edge">
<title>Node11&#45;&gt;Node10</title>
<g id="a_edge12_Node000010_Node000011"><a xlink:title=" ">
<path fill="none" stroke="#63b8ff" d="M117.33,-921.81C124.52,-893.24 135.93,-847.85 144.4,-814.14"/>
<polygon fill="none" stroke="#63b8ff" points="144.45,-813.94 142.04,-807.14 147.38,-802.3 149.8,-809.09 144.45,-813.94"/>
</a>
</g>
<text text-anchor="middle" x="149.1" y="-896" font-family="Helvetica,sans-Serif" font-size="10.00" fill="grey"> +elements</text>
</g>
<!-- Node12&#45;&gt;Node11 -->
<g id="edge13_Node000011_Node000012" class="edge">
<title>Node12&#45;&gt;Node11</title>
<g id="a_edge13_Node000011_Node000012"><a xlink:title=" ">
<path fill="none" stroke="#63b8ff" d="M110.5,-1083.99C110.5,-1054.49 110.5,-1017.67 110.5,-990.26"/>
<polygon fill="none" stroke="#63b8ff" points="110.5,-990.01 106.5,-984.01 110.5,-978.01 114.5,-984.01 110.5,-990.01"/>
</a>
</g>
<text text-anchor="middle" x="120.64" y="-1008" font-family="Helvetica,sans-Serif" font-size="10.00" fill="grey"> +ptr</text>
</g>
<!-- Node13 -->
<g id="Node000013" class="node">
<title>Node13</title>
<g id="a_Node000013"><a xlink:href="structepub_1_1file__metadata.html" target="_top" xlink:title="A class for managing metadata key&#45;value pairs.">
<polygon fill="white" stroke="transparent" points="97,-1352 0,-1352 0,-1292 97,-1292 97,-1352"/>
<text text-anchor="start" x="5.08" y="-1340" font-family="Helvetica,sans-Serif" font-size="10.00">epub::file_metadata</text>
<text text-anchor="start" x="47.61" y="-1326" font-family="Helvetica,sans-Serif" font-size="10.00"> </text>
<text text-anchor="start" x="19.08" y="-1312" font-family="Helvetica,sans-Serif" font-size="10.00">+</text>
<text text-anchor="start" x="43.5" y="-1312" font-family="Helvetica,sans-Serif" font-size="10.00">get()</text>
<text text-anchor="start" x="19.08" y="-1298" font-family="Helvetica,sans-Serif" font-size="10.00">+</text>
<text text-anchor="start" x="43.5" y="-1298" font-family="Helvetica,sans-Serif" font-size="10.00">get()</text>
<polygon fill="#666666" stroke="#666666" points="0.5,-1336 0.5,-1336 97.5,-1336 97.5,-1336 0.5,-1336"/>
<polygon fill="#666666" stroke="#666666" points="0.5,-1322 0.5,-1322 97.5,-1322 97.5,-1322 0.5,-1322"/>
<polygon fill="none" stroke="#666666" points="0,-1292 0,-1352 97,-1352 97,-1292 0,-1292"/>
</a>
</g>
</g>
<!-- Node13&#45;&gt;Node12 -->
<g id="edge15_Node000012_Node000013" class="edge">
<title>Node13&#45;&gt;Node12</title>
<g id="a_edge15_Node000012_Node000013"><a xlink:title=" ">
<path fill="none" stroke="#63b8ff" d="M45.3,-1291.65C44.58,-1277.08 45.01,-1259.36 49.14,-1244 53.48,-1227.83 60.84,-1211.53 68.98,-1196.67"/>
<polygon fill="none" stroke="#63b8ff" points="69.05,-1196.54 68.56,-1189.35 75.01,-1186.13 75.5,-1193.32 69.05,-1196.54"/>
</a>
</g>
<text text-anchor="middle" x="76.18" y="-1256" font-family="Helvetica,sans-Serif" font-size="10.00" fill="grey"> &#45;_metadata</text>
</g>
<!-- Node14 -->
<g id="Node000014" class="node">
<title>Node14</title>
<g id="a_Node000014"><a xlink:title=" ">
<polygon fill="white" stroke="transparent" points="90,-1440 7,-1440 7,-1394 90,-1394 90,-1440"/>
<text text-anchor="start" x="12.22" y="-1428" font-family="Helvetica,sans-Serif" font-size="10.00">std::map&lt; K, T &gt;</text>
<text text-anchor="start" x="47.61" y="-1414" font-family="Helvetica,sans-Serif" font-size="10.00"> </text>
<text text-anchor="start" x="47.61" y="-1400" font-family="Helvetica,sans-Serif" font-size="10.00"> </text>
<polygon fill="#666666" stroke="#666666" points="7.5,-1424 7.5,-1424 90.5,-1424 90.5,-1424 7.5,-1424"/>
<polygon fill="#666666" stroke="#666666" points="7.5,-1410 7.5,-1410 90.5,-1410 90.5,-1410 7.5,-1410"/>
<polygon fill="none" stroke="#666666" points="7,-1394 7,-1440 90,-1440 90,-1394 7,-1394"/>
</a>
</g>
</g>
<!-- Node14&#45;&gt;Node13 -->
<g id="edge16_Node000013_Node000014" class="edge">
<title>Node14&#45;&gt;Node13</title>
<g id="a_edge16_Node000013_Node000014"><a xlink:title=" ">
<path fill="none" stroke="#63b8ff" d="M48.5,-1383.76C48.5,-1373.53 48.5,-1362.28 48.5,-1352.27"/>
<polygon fill="none" stroke="#63b8ff" points="45,-1383.96 48.5,-1393.96 52,-1383.96 45,-1383.96"/>
</a>
</g>
</g>
<!-- Node15 -->
<g id="Node000015" class="node">
<title>Node15</title>
<g id="a_Node000015"><a xlink:title=" ">
<polygon fill="white" stroke="transparent" points="30.5,-1537 14.5,-1537 14.5,-1491 30.5,-1491 30.5,-1537"/>
<text text-anchor="start" x="19.17" y="-1525" font-family="Helvetica,sans-Serif" font-size="10.00">K</text>
<text text-anchor="start" x="21.11" y="-1511" font-family="Helvetica,sans-Serif" font-size="10.00"> </text>
<text text-anchor="start" x="21.11" y="-1497" font-family="Helvetica,sans-Serif" font-size="10.00"> </text>
<polygon fill="#666666" stroke="#666666" points="14.5,-1521 14.5,-1521 30.5,-1521 30.5,-1521 14.5,-1521"/>
<polygon fill="#666666" stroke="#666666" points="14.5,-1507 14.5,-1507 30.5,-1507 30.5,-1507 14.5,-1507"/>
<polygon fill="none" stroke="#666666" points="14.5,-1491 14.5,-1537 30.5,-1537 30.5,-1491 14.5,-1491"/>
</a>
</g>
</g>
<!-- Node15&#45;&gt;Node14 -->
<g id="edge17_Node000014_Node000015" class="edge">
<title>Node15&#45;&gt;Node14</title>
<g id="a_edge17_Node000014_Node000015"><a xlink:title=" ">
<path fill="none" stroke="#63b8ff" d="M20.55,-1490.77C20.37,-1481.99 20.93,-1471.89 23.32,-1463 24.37,-1459.11 25.83,-1455.2 27.52,-1451.39"/>
<polygon fill="none" stroke="#63b8ff" points="27.66,-1451.1 26.82,-1443.94 33.11,-1440.41 33.95,-1447.57 27.66,-1451.1"/>
</a>
</g>
<text text-anchor="middle" x="38.09" y="-1465" font-family="Helvetica,sans-Serif" font-size="10.00" fill="grey"> +keys</text>
</g>
<!-- Node16 -->
<g id="Node000016" class="node">
<title>Node16</title>
<g id="a_Node000016"><a xlink:title=" ">
<polygon fill="white" stroke="transparent" points="82.5,-1537 66.5,-1537 66.5,-1491 82.5,-1491 82.5,-1537"/>
<text text-anchor="start" x="71.45" y="-1525" font-family="Helvetica,sans-Serif" font-size="10.00">T</text>
<text text-anchor="start" x="73.11" y="-1511" font-family="Helvetica,sans-Serif" font-size="10.00"> </text>
<text text-anchor="start" x="73.11" y="-1497" font-family="Helvetica,sans-Serif" font-size="10.00"> </text>
<polygon fill="#666666" stroke="#666666" points="66.5,-1521 66.5,-1521 82.5,-1521 82.5,-1521 66.5,-1521"/>
<polygon fill="#666666" stroke="#666666" points="66.5,-1507 66.5,-1507 82.5,-1507 82.5,-1507 66.5,-1507"/>
<polygon fill="none" stroke="#666666" points="66.5,-1491 66.5,-1537 82.5,-1537 82.5,-1491 66.5,-1491"/>
</a>
</g>
</g>
<!-- Node16&#45;&gt;Node14 -->
<g id="edge18_Node000014_Node000016" class="edge">
<title>Node16&#45;&gt;Node14</title>
<g id="a_edge18_Node000014_Node000016"><a xlink:title=" ">
<path fill="none" stroke="#63b8ff" d="M68.47,-1490.97C65.31,-1479.42 61.37,-1465.02 57.83,-1452.07"/>
<polygon fill="none" stroke="#63b8ff" points="57.76,-1451.82 52.31,-1447.09 54.59,-1440.24 60.03,-1444.97 57.76,-1451.82"/>
</a>
</g>
<text text-anchor="middle" x="88.1" y="-1465" font-family="Helvetica,sans-Serif" font-size="10.00" fill="grey"> +elements</text>
</g>
<!-- Node17 -->
<g id="Node000017" class="node">
<title>Node17</title>
<g id="a_Node000017"><a xlink:href="classepub_1_1spine.html" target="_top" xlink:title=" ">
<polygon fill="white" stroke="transparent" points="401.5,-595 335.5,-595 335.5,-437 401.5,-437 401.5,-595"/>
<text text-anchor="start" x="342.65" y="-583" font-family="Helvetica,sans-Serif" font-size="10.00">epub::spine</text>
<text text-anchor="start" x="367.11" y="-569" font-family="Helvetica,sans-Serif" font-size="10.00"> </text>
<text text-anchor="start" x="339.08" y="-555" font-family="Helvetica,sans-Serif" font-size="10.00">+</text>
<text text-anchor="start" x="348.5" y="-555" font-family="Helvetica,sans-Serif" font-size="10.00">spine()</text>
<text text-anchor="start" x="339.08" y="-541" font-family="Helvetica,sans-Serif" font-size="10.00">+</text>
<text text-anchor="start" x="348.5" y="-541" font-family="Helvetica,sans-Serif" font-size="10.00">spine()</text>
<text text-anchor="start" x="339.08" y="-527" font-family="Helvetica,sans-Serif" font-size="10.00">+</text>
<text text-anchor="start" x="348.5" y="-527" font-family="Helvetica,sans-Serif" font-size="10.00">spine()</text>
<text text-anchor="start" x="339.08" y="-513" font-family="Helvetica,sans-Serif" font-size="10.00">+</text>
<text text-anchor="start" x="348.5" y="-513" font-family="Helvetica,sans-Serif" font-size="10.00">~spine()</text>
<text text-anchor="start" x="339.08" y="-499" font-family="Helvetica,sans-Serif" font-size="10.00">+</text>
<text text-anchor="start" x="348.5" y="-499" font-family="Helvetica,sans-Serif" font-size="10.00">operator=()</text>
<text text-anchor="start" x="339.08" y="-485" font-family="Helvetica,sans-Serif" font-size="10.00">+</text>
<text text-anchor="start" x="348.5" y="-485" font-family="Helvetica,sans-Serif" font-size="10.00">operator=()</text>
<text text-anchor="start" x="339.08" y="-471" font-family="Helvetica,sans-Serif" font-size="10.00">+</text>
<text text-anchor="start" x="348.5" y="-471" font-family="Helvetica,sans-Serif" font-size="10.00">add()</text>
<text text-anchor="start" x="339.08" y="-457" font-family="Helvetica,sans-Serif" font-size="10.00">+</text>
<text text-anchor="start" x="348.5" y="-457" font-family="Helvetica,sans-Serif" font-size="10.00">begin()</text>
<text text-anchor="start" x="339.08" y="-443" font-family="Helvetica,sans-Serif" font-size="10.00">+</text>
<text text-anchor="start" x="348.5" y="-443" font-family="Helvetica,sans-Serif" font-size="10.00">end()</text>
<polygon fill="#666666" stroke="#666666" points="335.5,-579 335.5,-579 401.5,-579 401.5,-579 335.5,-579"/>
<polygon fill="#666666" stroke="#666666" points="335.5,-565 335.5,-565 401.5,-565 401.5,-565 335.5,-565"/>
<polygon fill="none" stroke="#666666" points="335.5,-437 335.5,-595 401.5,-595 401.5,-437 335.5,-437"/>
</a>
</g>
</g>
<!-- Node17&#45;&gt;Node3 -->
<g id="edge19_Node000003_Node000017" class="edge">
<title>Node17&#45;&gt;Node3</title>
<g id="a_edge19_Node000003_Node000017"><a xlink:title=" ">
<path fill="none" stroke="#63b8ff" d="M341.49,-437C337.38,-424.04 333.37,-410.7 329.92,-398 321.66,-367.53 314.07,-333.58 307.98,-304.08"/>
<polygon fill="none" stroke="#63b8ff" points="307.95,-303.92 302.83,-298.84 305.55,-292.17 310.67,-297.25 307.95,-303.92"/>
</a>
</g>
<text text-anchor="middle" x="348.29" y="-351" font-family="Helvetica,sans-Serif" font-size="10.00" fill="grey"> &#45;_spine</text>
</g>
<!-- Node18 -->
<g id="Node000018" class="node">
<title>Node18</title>
<g id="a_Node000018"><a xlink:title=" ">
<polygon fill="white" stroke="transparent" points="463.5,-797 351.5,-797 351.5,-741 463.5,-741 463.5,-797"/>
<text text-anchor="start" x="356.23" y="-785" font-family="Helvetica,sans-Serif" font-size="10.00">std::vector&lt; weak_item</text>
<text text-anchor="start" x="394.58" y="-775" font-family="Helvetica,sans-Serif" font-size="10.00">_ptr &gt;</text>
<text text-anchor="start" x="368.58" y="-761" font-family="Helvetica,sans-Serif" font-size="10.00">+</text>
<text text-anchor="start" x="391.5" y="-761" font-family="Helvetica,sans-Serif" font-size="10.00">elements</text>
<text text-anchor="start" x="406.11" y="-747" font-family="Helvetica,sans-Serif" font-size="10.00"> </text>
<polygon fill="#666666" stroke="#666666" points="351.5,-771 351.5,-771 463.5,-771 463.5,-771 351.5,-771"/>
<polygon fill="#666666" stroke="#666666" points="351.5,-757 351.5,-757 389.5,-757 389.5,-757 351.5,-757"/>
<polygon fill="#666666" stroke="#666666" points="389.5,-757 389.5,-757 463.5,-757 463.5,-757 389.5,-757"/>
<polygon fill="none" stroke="#666666" points="351.5,-741 351.5,-797 463.5,-797 463.5,-741 351.5,-741"/>
</a>
</g>
</g>
<!-- Node18&#45;&gt;Node17 -->
<g id="edge20_Node000017_Node000018" class="edge">
<title>Node18&#45;&gt;Node17</title>
<g id="a_edge20_Node000017_Node000018"><a xlink:title=" ">
<path fill="none" stroke="#63b8ff" d="M397.57,-740.86C389,-716.03 377.2,-678.09 371.94,-644 370.12,-632.23 368.92,-619.77 368.15,-607.44"/>
<polygon fill="none" stroke="#63b8ff" points="368.14,-607.17 363.83,-601.39 367.52,-595.19 371.82,-600.98 368.14,-607.17"/>
</a>
</g>
<text text-anchor="middle" x="390.28" y="-636" font-family="Helvetica,sans-Serif" font-size="10.00" fill="grey"> &#45;_items</text>
</g>
<!-- Node19 -->
<g id="Node000019" class="node">
<title>Node19</title>
<g id="a_Node000019"><a xlink:href="classepub_1_1navigation.html" target="_top" xlink:title=" ">
<polygon fill="white" stroke="transparent" points="458,-398 375,-398 375,-310 458,-310 458,-398"/>
<text text-anchor="start" x="380.3" y="-386" font-family="Helvetica,sans-Serif" font-size="10.00">epub::navigation</text>
<text text-anchor="start" x="415.61" y="-372" font-family="Helvetica,sans-Serif" font-size="10.00"> </text>
<text text-anchor="start" x="387.58" y="-358" font-family="Helvetica,sans-Serif" font-size="10.00">+</text>
<text text-anchor="start" x="405.5" y="-358" font-family="Helvetica,sans-Serif" font-size="10.00">add()</text>
<text text-anchor="start" x="387.58" y="-344" font-family="Helvetica,sans-Serif" font-size="10.00">+</text>
<text text-anchor="start" x="405.5" y="-344" font-family="Helvetica,sans-Serif" font-size="10.00">write()</text>
<text text-anchor="start" x="387.58" y="-330" font-family="Helvetica,sans-Serif" font-size="10.00">+</text>
<text text-anchor="start" x="405.5" y="-330" font-family="Helvetica,sans-Serif" font-size="10.00">begin()</text>
<text text-anchor="start" x="387.58" y="-316" font-family="Helvetica,sans-Serif" font-size="10.00">+</text>
<text text-anchor="start" x="405.5" y="-316" font-family="Helvetica,sans-Serif" font-size="10.00">end()</text>
<polygon fill="#666666" stroke="#666666" points="375.5,-382 375.5,-382 458.5,-382 458.5,-382 375.5,-382"/>
<polygon fill="#666666" stroke="#666666" points="375.5,-368 375.5,-368 458.5,-368 458.5,-368 375.5,-368"/>
<polygon fill="none" stroke="#666666" points="375,-310 375,-398 458,-398 458,-310 375,-310"/>
</a>
</g>
</g>
<!-- Node18&#45;&gt;Node19 -->
<g id="edge22_Node000019_Node000018" class="edge">
<title>Node18&#45;&gt;Node19</title>
<g id="a_edge22_Node000019_Node000018"><a xlink:title=" ">
<path fill="none" stroke="#63b8ff" d="M408.09,-740.9C409.55,-673.97 413.34,-499.78 415.3,-410.11"/>
<polygon fill="none" stroke="#63b8ff" points="415.3,-410.04 411.43,-403.95 415.56,-398.04 419.43,-404.13 415.3,-410.04"/>
</a>
</g>
<text text-anchor="middle" x="427.28" y="-636" font-family="Helvetica,sans-Serif" font-size="10.00" fill="grey"> &#45;_items</text>
</g>
<!-- Node19&#45;&gt;Node1 -->
<g id="edge21_Node000001_Node000019" class="edge">
<title>Node19&#45;&gt;Node1</title>
<g id="a_edge21_Node000001_Node000019"><a xlink:title=" ">
<path fill="none" stroke="#63b8ff" d="M406.88,-309.93C395.84,-264.65 375.43,-192.06 346.5,-134 344.26,-129.5 341.77,-124.98 339.12,-120.5"/>
<polygon fill="none" stroke="#63b8ff" points="339.04,-120.37 332.48,-117.38 332.71,-110.17 339.27,-113.16 339.04,-120.37"/>
</a>
</g>
<text text-anchor="middle" x="430.13" y="-224" font-family="Helvetica,sans-Serif" font-size="10.00" fill="grey"> &#45;_navigation</text>
</g>
</g>
</svg>
