<?xml version="1.0" encoding="UTF-8" standalone="no"?>
<!DOCTYPE svg PUBLIC "-//W3C//DTD SVG 1.1//EN"
 "http://www.w3.org/Graphics/SVG/1.1/DTD/svg11.dtd">
<!-- Generated by graphviz version 2.48.0 (20210717.1556)
 -->
<!-- Title: epub::metadata Pages: 1 -->
<svg width="162pt" height="847pt"
 viewBox="0.00 0.00 161.50 847.00" xmlns="http://www.w3.org/2000/svg" xmlns:xlink="http://www.w3.org/1999/xlink">
<g id="graph0" class="graph" transform="scale(1 1) rotate(0) translate(4 843)">
<title>epub::metadata</title>
<!-- Node1 -->
<g id="Node000001" class="node">
<title>Node1</title>
<g id="a_Node000001"><a xlink:title=" ">
<polygon fill="#999999" stroke="transparent" points="87.5,-284 0.5,-284 0.5,0 87.5,0 87.5,-284"/>
<text text-anchor="start" x="9.75" y="-272" font-family="Helvetica,sans-Serif" font-size="10.00">epub::metadata</text>
<text text-anchor="start" x="5.83" y="-258" font-family="Helvetica,sans-Serif" font-size="10.00">&#45;</text>
<text text-anchor="start" x="14" y="-258" font-family="Helvetica,sans-Serif" font-size="10.00">_pre_paginated</text>
<text text-anchor="start" x="4.58" y="-244" font-family="Helvetica,sans-Serif" font-size="10.00">+</text>
<text text-anchor="start" x="14" y="-244" font-family="Helvetica,sans-Serif" font-size="10.00">metadata()</text>
<text text-anchor="start" x="4.58" y="-230" font-family="Helvetica,sans-Serif" font-size="10.00">+</text>
<text text-anchor="start" x="14" y="-230" font-family="Helvetica,sans-Serif" font-size="10.00">pre_paginated()</text>
<text text-anchor="start" x="4.58" y="-216" font-family="Helvetica,sans-Serif" font-size="10.00">+</text>
<text text-anchor="start" x="14" y="-216" font-family="Helvetica,sans-Serif" font-size="10.00">reflow()</text>
<text text-anchor="start" x="4.58" y="-202" font-family="Helvetica,sans-Serif" font-size="10.00">+</text>
<text text-anchor="start" x="14" y="-202" font-family="Helvetica,sans-Serif" font-size="10.00">layout()</text>
<text text-anchor="start" x="4.58" y="-188" font-family="Helvetica,sans-Serif" font-size="10.00">+</text>
<text text-anchor="start" x="14" y="-188" font-family="Helvetica,sans-Serif" font-size="10.00">identifier()</text>
<text text-anchor="start" x="4.58" y="-174" font-family="Helvetica,sans-Serif" font-size="10.00">+</text>
<text text-anchor="start" x="14" y="-174" font-family="Helvetica,sans-Serif" font-size="10.00">identifier()</text>
<text text-anchor="start" x="4.58" y="-160" font-family="Helvetica,sans-Serif" font-size="10.00">+</text>
<text text-anchor="start" x="14" y="-160" font-family="Helvetica,sans-Serif" font-size="10.00">title()</text>
<text text-anchor="start" x="4.58" y="-146" font-family="Helvetica,sans-Serif" font-size="10.00">+</text>
<text text-anchor="start" x="14" y="-146" font-family="Helvetica,sans-Serif" font-size="10.00">title()</text>
<text text-anchor="start" x="4.58" y="-132" font-family="Helvetica,sans-Serif" font-size="10.00">+</text>
<text text-anchor="start" x="14" y="-132" font-family="Helvetica,sans-Serif" font-size="10.00">language()</text>
<text text-anchor="start" x="4.58" y="-118" font-family="Helvetica,sans-Serif" font-size="10.00">+</text>
<text text-anchor="start" x="14" y="-118" font-family="Helvetica,sans-Serif" font-size="10.00">creators()</text>
<text text-anchor="start" x="4.58" y="-104" font-family="Helvetica,sans-Serif" font-size="10.00">+</text>
<text text-anchor="start" x="14" y="-104" font-family="Helvetica,sans-Serif" font-size="10.00">creators()</text>
<text text-anchor="start" x="5.55" y="-90" font-family="Helvetica,sans-Serif" font-size="10.00">*</text>
<text text-anchor="start" x="14" y="-90" font-family="Helvetica,sans-Serif" font-size="10.00">identifier()</text>
<text text-anchor="start" x="5.55" y="-76" font-family="Helvetica,sans-Serif" font-size="10.00">*</text>
<text text-anchor="start" x="14" y="-76" font-family="Helvetica,sans-Serif" font-size="10.00">identifier()</text>
<text text-anchor="start" x="5.55" y="-62" font-family="Helvetica,sans-Serif" font-size="10.00">*</text>
<text text-anchor="start" x="14" y="-62" font-family="Helvetica,sans-Serif" font-size="10.00">title()</text>
<text text-anchor="start" x="5.55" y="-48" font-family="Helvetica,sans-Serif" font-size="10.00">*</text>
<text text-anchor="start" x="14" y="-48" font-family="Helvetica,sans-Serif" font-size="10.00">title()</text>
<text text-anchor="start" x="5.55" y="-34" font-family="Helvetica,sans-Serif" font-size="10.00">*</text>
<text text-anchor="start" x="14" y="-34" font-family="Helvetica,sans-Serif" font-size="10.00">language()</text>
<text text-anchor="start" x="5.55" y="-20" font-family="Helvetica,sans-Serif" font-size="10.00">*</text>
<text text-anchor="start" x="14" y="-20" font-family="Helvetica,sans-Serif" font-size="10.00">creators()</text>
<text text-anchor="start" x="5.55" y="-6" font-family="Helvetica,sans-Serif" font-size="10.00">*</text>
<text text-anchor="start" x="14" y="-6" font-family="Helvetica,sans-Serif" font-size="10.00">creators()</text>
<polygon fill="#666666" stroke="#666666" points="1,-268 1,-268 88,-268 88,-268 1,-268"/>
<polygon fill="#666666" stroke="#666666" points="1,-254 1,-254 12,-254 12,-254 1,-254"/>
<polygon fill="#666666" stroke="#666666" points="12,-254 12,-254 88,-254 88,-254 12,-254"/>
<polygon fill="none" stroke="#666666" points="0.5,0 0.5,-284 87.5,-284 87.5,0 0.5,0"/>
</a>
</g>
</g>
<!-- Node2 -->
<g id="Node000002" class="node">
<title>Node2</title>
<g id="a_Node000002"><a xlink:title=" ">
<polygon fill="white" stroke="transparent" points="76,-746 12,-746 12,-700 76,-700 76,-746"/>
<text text-anchor="start" x="16.76" y="-734" font-family="Helvetica,sans-Serif" font-size="10.00">std::u8string</text>
<text text-anchor="start" x="42.61" y="-720" font-family="Helvetica,sans-Serif" font-size="10.00"> </text>
<text text-anchor="start" x="42.61" y="-706" font-family="Helvetica,sans-Serif" font-size="10.00"> </text>
<polygon fill="#666666" stroke="#666666" points="12,-730 12,-730 76,-730 76,-730 12,-730"/>
<polygon fill="#666666" stroke="#666666" points="12,-716 12,-716 76,-716 76,-716 12,-716"/>
<polygon fill="none" stroke="#666666" points="12,-700 12,-746 76,-746 76,-700 12,-700"/>
</a>
</g>
</g>
<!-- Node2&#45;&gt;Node1 -->
<g id="edge1_Node000001_Node000002" class="edge">
<title>Node2&#45;&gt;Node1</title>
<g id="a_edge1_Node000001_Node000002"><a xlink:title=" ">
<path fill="none" stroke="#63b8ff" d="M44,-699.66C44,-633.98 44,-437.29 44,-296.35"/>
<polygon fill="none" stroke="#63b8ff" points="44,-296.17 40,-290.17 44,-284.17 48,-290.17 44,-296.17"/>
</a>
</g>
<text text-anchor="middle" x="69.02" y="-426" font-family="Helvetica,sans-Serif" font-size="10.00" fill="grey"> &#45;_identifier</text>
<text text-anchor="middle" x="69.02" y="-416" font-family="Helvetica,sans-Serif" font-size="10.00" fill="grey">&#45;_language</text>
<text text-anchor="middle" x="69.02" y="-406" font-family="Helvetica,sans-Serif" font-size="10.00" fill="grey">&#45;_title</text>
</g>
<!-- Node5 -->
<g id="Node000005" class="node">
<title>Node5</title>
<g id="a_Node000005"><a xlink:href="classepub_1_1creator.html" target="_top" xlink:title=" ">
<polygon fill="white" stroke="transparent" points="153.5,-634 56.5,-634 56.5,-452 153.5,-452 153.5,-634"/>
<text text-anchor="start" x="76.04" y="-622" font-family="Helvetica,sans-Serif" font-size="10.00">epub::creator</text>
<text text-anchor="start" x="104.11" y="-608" font-family="Helvetica,sans-Serif" font-size="10.00"> </text>
<text text-anchor="start" x="60.58" y="-594" font-family="Helvetica,sans-Serif" font-size="10.00">+</text>
<text text-anchor="start" x="70" y="-594" font-family="Helvetica,sans-Serif" font-size="10.00">creator()</text>
<text text-anchor="start" x="60.58" y="-580" font-family="Helvetica,sans-Serif" font-size="10.00">+</text>
<text text-anchor="start" x="70" y="-580" font-family="Helvetica,sans-Serif" font-size="10.00">creator()</text>
<text text-anchor="start" x="60.58" y="-566" font-family="Helvetica,sans-Serif" font-size="10.00">+</text>
<text text-anchor="start" x="70" y="-566" font-family="Helvetica,sans-Serif" font-size="10.00">creator()</text>
<text text-anchor="start" x="60.58" y="-552" font-family="Helvetica,sans-Serif" font-size="10.00">+</text>
<text text-anchor="start" x="70" y="-552" font-family="Helvetica,sans-Serif" font-size="10.00">operator=()</text>
<text text-anchor="start" x="60.58" y="-538" font-family="Helvetica,sans-Serif" font-size="10.00">+</text>
<text text-anchor="start" x="70" y="-538" font-family="Helvetica,sans-Serif" font-size="10.00">operator=()</text>
<text text-anchor="start" x="60.58" y="-524" font-family="Helvetica,sans-Serif" font-size="10.00">+</text>
<text text-anchor="start" x="70" y="-524" font-family="Helvetica,sans-Serif" font-size="10.00">operator const std</text>
<text text-anchor="start" x="70" y="-514" font-family="Helvetica,sans-Serif" font-size="10.00">::u8string &amp;()</text>
<text text-anchor="start" x="60.58" y="-500" font-family="Helvetica,sans-Serif" font-size="10.00">+</text>
<text text-anchor="start" x="70" y="-500" font-family="Helvetica,sans-Serif" font-size="10.00">file_as()</text>
<text text-anchor="start" x="60.58" y="-486" font-family="Helvetica,sans-Serif" font-size="10.00">+</text>
<text text-anchor="start" x="70" y="-486" font-family="Helvetica,sans-Serif" font-size="10.00">file_as()</text>
<text text-anchor="start" x="60.58" y="-472" font-family="Helvetica,sans-Serif" font-size="10.00">+</text>
<text text-anchor="start" x="70" y="-472" font-family="Helvetica,sans-Serif" font-size="10.00">role()</text>
<text text-anchor="start" x="60.58" y="-458" font-family="Helvetica,sans-Serif" font-size="10.00">+</text>
<text text-anchor="start" x="70" y="-458" font-family="Helvetica,sans-Serif" font-size="10.00">role()</text>
<polygon fill="#666666" stroke="#666666" points="57,-618 57,-618 154,-618 154,-618 57,-618"/>
<polygon fill="#666666" stroke="#666666" points="57,-604 57,-604 154,-604 154,-604 57,-604"/>
<polygon fill="none" stroke="#666666" points="56.5,-452 56.5,-634 153.5,-634 153.5,-452 56.5,-452"/>
</a>
</g>
</g>
<!-- Node2&#45;&gt;Node5 -->
<g id="edge5_Node000005_Node000002" class="edge">
<title>Node2&#45;&gt;Node5</title>
<g id="a_edge5_Node000005_Node000002"><a xlink:title=" ">
<path fill="none" stroke="#63b8ff" d="M51.6,-699.82C56.48,-685.58 63.2,-665.98 70.23,-645.47"/>
<polygon fill="none" stroke="#63b8ff" points="70.26,-645.37 68.42,-638.39 74.15,-634.02 75.99,-640.99 70.26,-645.37"/>
</a>
</g>
<text text-anchor="middle" x="89.4" y="-674" font-family="Helvetica,sans-Serif" font-size="10.00" fill="grey"> &#45;_creator</text>
<text text-anchor="middle" x="89.4" y="-664" font-family="Helvetica,sans-Serif" font-size="10.00" fill="grey">&#45;_file_as</text>
<text text-anchor="middle" x="89.4" y="-654" font-family="Helvetica,sans-Serif" font-size="10.00" fill="grey">&#45;_role</text>
</g>
<!-- Node3 -->
<g id="Node000003" class="node">
<title>Node3</title>
<g id="a_Node000003"><a xlink:title=" ">
<polygon fill="white" stroke="transparent" points="88,-839 0,-839 0,-783 88,-783 88,-839"/>
<text text-anchor="start" x="4.95" y="-827" font-family="Helvetica,sans-Serif" font-size="10.00">std::basic_string&lt;</text>
<text text-anchor="start" x="27.46" y="-817" font-family="Helvetica,sans-Serif" font-size="10.00"> Char &gt;</text>
<text text-anchor="start" x="42.61" y="-803" font-family="Helvetica,sans-Serif" font-size="10.00"> </text>
<text text-anchor="start" x="42.61" y="-789" font-family="Helvetica,sans-Serif" font-size="10.00"> </text>
<polygon fill="#666666" stroke="#666666" points="0,-813 0,-813 88,-813 88,-813 0,-813"/>
<polygon fill="#666666" stroke="#666666" points="0,-799 0,-799 88,-799 88,-799 0,-799"/>
<polygon fill="none" stroke="#666666" points="0,-783 0,-839 88,-839 88,-783 0,-783"/>
</a>
</g>
</g>
<!-- Node3&#45;&gt;Node2 -->
<g id="edge2_Node000002_Node000003" class="edge">
<title>Node3&#45;&gt;Node2</title>
<g id="a_edge2_Node000002_Node000003"><a xlink:title=" ">
<path fill="none" stroke="#63b8ff" d="M44,-772.78C44,-763.7 44,-754.27 44,-746.15"/>
<polygon fill="none" stroke="#63b8ff" points="40.5,-772.79 44,-782.79 47.5,-772.79 40.5,-772.79"/>
</a>
</g>
</g>
<!-- Node4 -->
<g id="Node000004" class="node">
<title>Node4</title>
<g id="a_Node000004"><a xlink:title=" ">
<polygon fill="white" stroke="transparent" points="149,-386 57,-386 57,-330 149,-330 149,-386"/>
<text text-anchor="start" x="61.73" y="-374" font-family="Helvetica,sans-Serif" font-size="10.00">std::vector&lt; epub::</text>
<text text-anchor="start" x="83.13" y="-364" font-family="Helvetica,sans-Serif" font-size="10.00">creator &gt;</text>
<text text-anchor="start" x="101.61" y="-350" font-family="Helvetica,sans-Serif" font-size="10.00"> </text>
<text text-anchor="start" x="101.61" y="-336" font-family="Helvetica,sans-Serif" font-size="10.00"> </text>
<polygon fill="#666666" stroke="#666666" points="57,-360 57,-360 149,-360 149,-360 57,-360"/>
<polygon fill="#666666" stroke="#666666" points="57,-346 57,-346 149,-346 149,-346 57,-346"/>
<polygon fill="none" stroke="#666666" points="57,-330 57,-386 149,-386 149,-330 57,-330"/>
</a>
</g>
</g>
<!-- Node4&#45;&gt;Node1 -->
<g id="edge3_Node000001_Node000004" class="edge">
<title>Node4&#45;&gt;Node1</title>
<g id="a_edge3_Node000001_Node000004"><a xlink:title=" ">
<path fill="none" stroke="#63b8ff" d="M95.53,-329.9C92.89,-320.34 89.71,-308.8 86.24,-296.21"/>
<polygon fill="none" stroke="#63b8ff" points="86.17,-295.95 80.72,-291.23 82.98,-284.38 88.43,-289.1 86.17,-295.95"/>
</a>
</g>
<text text-anchor="middle" x="113.9" y="-304" font-family="Helvetica,sans-Serif" font-size="10.00" fill="grey"> &#45;_creators</text>
</g>
<!-- Node5&#45;&gt;Node4 -->
<g id="edge4_Node000004_Node000005" class="edge">
<title>Node5&#45;&gt;Node4</title>
<g id="a_edge4_Node000004_Node000005"><a xlink:title=" ">
<path fill="none" stroke="#63b8ff" d="M104.01,-451.84C103.81,-433.09 103.6,-414.27 103.43,-398.52"/>
<polygon fill="none" stroke="#63b8ff" points="103.43,-398.08 99.36,-392.12 103.3,-386.08 107.36,-392.04 103.43,-398.08"/>
</a>
</g>
<text text-anchor="middle" x="127.6" y="-416" font-family="Helvetica,sans-Serif" font-size="10.00" fill="grey"> +elements</text>
</g>
</g>
</svg>
