<?xml version="1.0" encoding="UTF-8" standalone="no"?>
<!DOCTYPE svg PUBLIC "-//W3C//DTD SVG 1.1//EN"
 "http://www.w3.org/Graphics/SVG/1.1/DTD/svg11.dtd">
<!-- Generated by graphviz version 2.48.0 (20210717.1556)
 -->
<!-- Title: epub::manifest Pages: 1 -->
<svg width="87pt" height="206pt"
 viewBox="0.00 0.00 87.00 206.00" xmlns="http://www.w3.org/2000/svg" xmlns:xlink="http://www.w3.org/1999/xlink">
<g id="graph0" class="graph" transform="scale(1 1) rotate(0) translate(4 202)">
<title>epub::manifest</title>
<!-- Node1 -->
<g id="Node000001" class="node">
<title>Node1</title>
<g id="a_Node000001"><a xlink:title="A listing of all the assets in a container.">
<polygon fill="#999999" stroke="transparent" points="77,-116 2,-116 2,0 77,0 77,-116"/>
<text text-anchor="start" x="7.2" y="-104" font-family="Helvetica,sans-Serif" font-size="10.00">epub::manifest</text>
<text text-anchor="start" x="38.61" y="-90" font-family="Helvetica,sans-Serif" font-size="10.00"> </text>
<text text-anchor="start" x="8.08" y="-76" font-family="Helvetica,sans-Serif" font-size="10.00">+</text>
<text text-anchor="start" x="19.5" y="-76" font-family="Helvetica,sans-Serif" font-size="10.00">manifest()</text>
<text text-anchor="start" x="8.08" y="-62" font-family="Helvetica,sans-Serif" font-size="10.00">+</text>
<text text-anchor="start" x="19.5" y="-62" font-family="Helvetica,sans-Serif" font-size="10.00">manifest()</text>
<text text-anchor="start" x="8.08" y="-48" font-family="Helvetica,sans-Serif" font-size="10.00">+</text>
<text text-anchor="start" x="19.5" y="-48" font-family="Helvetica,sans-Serif" font-size="10.00">manifest()</text>
<text text-anchor="start" x="8.08" y="-34" font-family="Helvetica,sans-Serif" font-size="10.00">+</text>
<text text-anchor="start" x="19.5" y="-34" font-family="Helvetica,sans-Serif" font-size="10.00">~manifest()</text>
<text text-anchor="start" x="8.08" y="-20" font-family="Helvetica,sans-Serif" font-size="10.00">+</text>
<text text-anchor="start" x="19.5" y="-20" font-family="Helvetica,sans-Serif" font-size="10.00">operator=()</text>
<text text-anchor="start" x="8.08" y="-6" font-family="Helvetica,sans-Serif" font-size="10.00">+</text>
<text text-anchor="start" x="19.5" y="-6" font-family="Helvetica,sans-Serif" font-size="10.00">operator=()</text>
<polygon fill="#666666" stroke="#666666" points="2.5,-100 2.5,-100 77.5,-100 77.5,-100 2.5,-100"/>
<polygon fill="#666666" stroke="#666666" points="2.5,-86 2.5,-86 77.5,-86 77.5,-86 2.5,-86"/>
<polygon fill="none" stroke="#666666" points="2,0 2,-116 77,-116 77,0 2,0"/>
</a>
</g>
</g>
<!-- Node2 -->
<g id="Node000002" class="node">
<title>Node2</title>
<g id="a_Node000002"><a xlink:title=" ">
<polygon fill="white" stroke="transparent" points="79,-198 0,-198 0,-152 79,-152 79,-198"/>
<text text-anchor="start" x="5.44" y="-186" font-family="Helvetica,sans-Serif" font-size="10.00">std::vector&lt; T &gt;</text>
<text text-anchor="start" x="9.58" y="-172" font-family="Helvetica,sans-Serif" font-size="10.00">+</text>
<text text-anchor="start" x="24.5" y="-172" font-family="Helvetica,sans-Serif" font-size="10.00">elements</text>
<text text-anchor="start" x="38.61" y="-158" font-family="Helvetica,sans-Serif" font-size="10.00"> </text>
<polygon fill="#666666" stroke="#666666" points="0.5,-182 0.5,-182 79.5,-182 79.5,-182 0.5,-182"/>
<polygon fill="#666666" stroke="#666666" points="0.5,-168 0.5,-168 22.5,-168 22.5,-168 0.5,-168"/>
<polygon fill="#666666" stroke="#666666" points="22.5,-168 22.5,-168 79.5,-168 79.5,-168 22.5,-168"/>
<polygon fill="none" stroke="#666666" points="0,-152 0,-198 79,-198 79,-152 0,-152"/>
</a>
</g>
</g>
<!-- Node2&#45;&gt;Node1 -->
<g id="edge1_Node000001_Node000002" class="edge">
<title>Node2&#45;&gt;Node1</title>
<g id="a_edge1_Node000001_Node000002"><a xlink:title=" ">
<path fill="none" stroke="#8b1a1a" d="M39.5,-141.65C39.5,-133.77 39.5,-125.11 39.5,-116.46"/>
<polygon fill="none" stroke="#8b1a1a" points="36,-141.83 39.5,-151.83 43,-141.83 36,-141.83"/>
</a>
</g>
</g>
</g>
</svg>
