<?xml version="1.0" encoding="UTF-8" standalone="no"?>
<!DOCTYPE svg PUBLIC "-//W3C//DTD SVG 1.1//EN"
 "http://www.w3.org/Graphics/SVG/1.1/DTD/svg11.dtd">
<!-- Generated by graphviz version 2.48.0 (20210717.1556)
 -->
<!-- Title: epub::package Pages: 1 -->
<svg width="681pt" height="1482pt"
 viewBox="0.00 0.00 681.20 1482.00" xmlns="http://www.w3.org/2000/svg" xmlns:xlink="http://www.w3.org/1999/xlink">
<g id="graph0" class="graph" transform="scale(1 1) rotate(0) translate(4 1478)">
<title>epub::package</title>
<!-- Node1 -->
<g id="Node000001" class="node">
<title>Node1</title>
<g id="a_Node000001"><a xlink:title=" ">
<polygon fill="#999999" stroke="transparent" points="335.7,-122 191.7,-122 191.7,0 335.7,0 335.7,-122"/>
<text text-anchor="start" x="230.9" y="-110" font-family="Helvetica,sans-Serif" font-size="10.00">epub::package</text>
<text text-anchor="start" x="262.31" y="-96" font-family="Helvetica,sans-Serif" font-size="10.00"> </text>
<text text-anchor="start" x="195.28" y="-82" font-family="Helvetica,sans-Serif" font-size="10.00">+</text>
<text text-anchor="start" x="204.7" y="-82" font-family="Helvetica,sans-Serif" font-size="10.00">class metadata &amp; metadata()</text>
<text text-anchor="start" x="195.28" y="-68" font-family="Helvetica,sans-Serif" font-size="10.00">+</text>
<text text-anchor="start" x="204.7" y="-68" font-family="Helvetica,sans-Serif" font-size="10.00">const class metadata</text>
<text text-anchor="start" x="204.7" y="-58" font-family="Helvetica,sans-Serif" font-size="10.00"> &amp; metadata() const</text>
<text text-anchor="start" x="195.28" y="-44" font-family="Helvetica,sans-Serif" font-size="10.00">+</text>
<text text-anchor="start" x="204.7" y="-44" font-family="Helvetica,sans-Serif" font-size="10.00">auto manifest() const</text>
<text text-anchor="start" x="195.28" y="-30" font-family="Helvetica,sans-Serif" font-size="10.00">+</text>
<text text-anchor="start" x="204.7" y="-30" font-family="Helvetica,sans-Serif" font-size="10.00">auto add_to_manifest</text>
<text text-anchor="start" x="204.7" y="-20" font-family="Helvetica,sans-Serif" font-size="10.00">(manifest_item item)</text>
<text text-anchor="start" x="195.28" y="-6" font-family="Helvetica,sans-Serif" font-size="10.00">+</text>
<text text-anchor="start" x="204.7" y="-6" font-family="Helvetica,sans-Serif" font-size="10.00">auto spine() const</text>
<polygon fill="#666666" stroke="#666666" points="191.7,-106 191.7,-106 335.7,-106 335.7,-106 191.7,-106"/>
<polygon fill="#666666" stroke="#666666" points="191.7,-92 191.7,-92 335.7,-92 335.7,-92 191.7,-92"/>
<polygon fill="none" stroke="#666666" points="191.7,0 191.7,-122 335.7,-122 335.7,0 191.7,0"/>
</a>
</g>
</g>
<!-- Node2 -->
<g id="Node000002" class="node">
<title>Node2</title>
<g id="a_Node000002"><a xlink:title=" ">
<polygon fill="white" stroke="transparent" points="423.7,-489 331.7,-489 331.7,-433 423.7,-433 423.7,-489"/>
<text text-anchor="start" x="336.43" y="-477" font-family="Helvetica,sans-Serif" font-size="10.00">std::vector&lt; epub::</text>
<text text-anchor="start" x="342.27" y="-467" font-family="Helvetica,sans-Serif" font-size="10.00">manifest_item &gt;</text>
<text text-anchor="start" x="376.31" y="-453" font-family="Helvetica,sans-Serif" font-size="10.00"> </text>
<text text-anchor="start" x="376.31" y="-439" font-family="Helvetica,sans-Serif" font-size="10.00"> </text>
<polygon fill="#666666" stroke="#666666" points="331.7,-463 331.7,-463 423.7,-463 423.7,-463 331.7,-463"/>
<polygon fill="#666666" stroke="#666666" points="331.7,-449 331.7,-449 423.7,-449 423.7,-449 331.7,-449"/>
<polygon fill="none" stroke="#666666" points="331.7,-433 331.7,-489 423.7,-489 423.7,-433 331.7,-433"/>
</a>
</g>
</g>
<!-- Node2&#45;&gt;Node1 -->
<g id="edge1_Node000001_Node000002" class="edge">
<title>Node2&#45;&gt;Node1</title>
<g id="a_edge1_Node000001_Node000002"><a xlink:title=" ">
<path fill="none" stroke="#63b8ff" d="M372.45,-432.59C361.41,-376.72 333.77,-245.98 297.7,-140 296.95,-137.8 296.17,-135.57 295.35,-133.33"/>
<polygon fill="none" stroke="#63b8ff" points="295.34,-133.29 289.46,-129.11 291.07,-122.08 296.94,-126.26 295.34,-133.29"/>
</a>
</g>
<text text-anchor="middle" x="318.48" y="-142" font-family="Helvetica,sans-Serif" font-size="10.00" fill="grey"> &#45;_items</text>
</g>
<!-- Node3 -->
<g id="Node000003" class="node">
<title>Node3</title>
<g id="a_Node000003"><a xlink:href="structepub_1_1manifest__item.html" target="_top" xlink:title="An asset of the EPUB.">
<polygon fill="white" stroke="transparent" points="441.2,-874 314.2,-874 314.2,-800 441.2,-800 441.2,-874"/>
<text text-anchor="start" x="333.18" y="-862" font-family="Helvetica,sans-Serif" font-size="10.00">epub::manifest_item</text>
<text text-anchor="start" x="318.28" y="-848" font-family="Helvetica,sans-Serif" font-size="10.00">+</text>
<text text-anchor="start" x="327.7" y="-848" font-family="Helvetica,sans-Serif" font-size="10.00">std::filesystem::path path</text>
<text text-anchor="start" x="318.28" y="-834" font-family="Helvetica,sans-Serif" font-size="10.00">+</text>
<text text-anchor="start" x="327.7" y="-834" font-family="Helvetica,sans-Serif" font-size="10.00">bool in_spine</text>
<text text-anchor="start" x="318.28" y="-820" font-family="Helvetica,sans-Serif" font-size="10.00">+</text>
<text text-anchor="start" x="327.7" y="-820" font-family="Helvetica,sans-Serif" font-size="10.00">bool in_toc</text>
<text text-anchor="start" x="376.81" y="-806" font-family="Helvetica,sans-Serif" font-size="10.00"> </text>
<polygon fill="#666666" stroke="#666666" points="314.7,-858 314.7,-858 441.7,-858 441.7,-858 314.7,-858"/>
<polygon fill="#666666" stroke="#666666" points="314.7,-816 314.7,-816 325.7,-816 325.7,-816 314.7,-816"/>
<polygon fill="#666666" stroke="#666666" points="325.7,-816 325.7,-816 441.7,-816 441.7,-816 325.7,-816"/>
<polygon fill="none" stroke="#666666" points="314.2,-800 314.2,-874 441.2,-874 441.2,-800 314.2,-800"/>
</a>
</g>
</g>
<!-- Node3&#45;&gt;Node2 -->
<g id="edge2_Node000002_Node000003" class="edge">
<title>Node3&#45;&gt;Node2</title>
<g id="a_edge2_Node000002_Node000003"><a xlink:title=" ">
<path fill="none" stroke="#63b8ff" d="M377.7,-799.8C377.7,-729.41 377.7,-574.63 377.7,-501.61"/>
<polygon fill="none" stroke="#63b8ff" points="377.7,-501.38 373.7,-495.38 377.7,-489.38 381.7,-495.38 377.7,-501.38"/>
</a>
</g>
<text text-anchor="middle" x="402.3" y="-774" font-family="Helvetica,sans-Serif" font-size="10.00" fill="grey"> +elements</text>
</g>
<!-- Node4 -->
<g id="Node000004" class="node">
<title>Node4</title>
<g id="a_Node000004"><a xlink:title=" ">
<polygon fill="white" stroke="transparent" points="202.7,-1372 138.7,-1372 138.7,-1326 202.7,-1326 202.7,-1372"/>
<text text-anchor="start" x="143.47" y="-1360" font-family="Helvetica,sans-Serif" font-size="10.00">std::u8string</text>
<text text-anchor="start" x="169.31" y="-1346" font-family="Helvetica,sans-Serif" font-size="10.00"> </text>
<text text-anchor="start" x="169.31" y="-1332" font-family="Helvetica,sans-Serif" font-size="10.00"> </text>
<polygon fill="#666666" stroke="#666666" points="138.7,-1356 138.7,-1356 202.7,-1356 202.7,-1356 138.7,-1356"/>
<polygon fill="#666666" stroke="#666666" points="138.7,-1342 138.7,-1342 202.7,-1342 202.7,-1342 138.7,-1342"/>
<polygon fill="none" stroke="#666666" points="138.7,-1326 138.7,-1372 202.7,-1372 202.7,-1326 138.7,-1326"/>
</a>
</g>
</g>
<!-- Node4&#45;&gt;Node3 -->
<g id="edge3_Node000003_Node000004" class="edge">
<title>Node4&#45;&gt;Node3</title>
<g id="a_edge3_Node000003_Node000004"><a xlink:title=" ">
<path fill="none" stroke="#63b8ff" d="M203.02,-1341.72C243,-1331.99 309.27,-1309.05 337.7,-1260 356.08,-1228.29 370.08,-990.44 375.38,-886.43"/>
<polygon fill="none" stroke="#63b8ff" points="375.4,-886.13 371.7,-879.94 376,-874.14 379.69,-880.34 375.4,-886.13"/>
</a>
</g>
<text text-anchor="middle" x="396.86" y="-1107" font-family="Helvetica,sans-Serif" font-size="10.00" fill="grey"> +id</text>
<text text-anchor="middle" x="396.86" y="-1097" font-family="Helvetica,sans-Serif" font-size="10.00" fill="grey">+properties</text>
</g>
<!-- Node11 -->
<g id="Node000011" class="node">
<title>Node11</title>
<g id="a_Node000011"><a xlink:href="classepub_1_1metadata.html" target="_top" xlink:title="The metadata component of the package document.">
<polygon fill="white" stroke="transparent" points="251.7,-754 129.7,-754 129.7,-168 251.7,-168 251.7,-754"/>
<text text-anchor="start" x="155.95" y="-742" font-family="Helvetica,sans-Serif" font-size="10.00">epub::metadata</text>
<text text-anchor="start" x="134.54" y="-728" font-family="Helvetica,sans-Serif" font-size="10.00">&#45;</text>
<text text-anchor="start" x="142.7" y="-728" font-family="Helvetica,sans-Serif" font-size="10.00">bool _pre_paginated</text>
<text text-anchor="start" x="133.28" y="-714" font-family="Helvetica,sans-Serif" font-size="10.00">+</text>
<text text-anchor="start" x="142.7" y="-714" font-family="Helvetica,sans-Serif" font-size="10.00">metadata()</text>
<text text-anchor="start" x="133.28" y="-700" font-family="Helvetica,sans-Serif" font-size="10.00">+</text>
<text text-anchor="start" x="142.7" y="-700" font-family="Helvetica,sans-Serif" font-size="10.00">void pre_paginated()</text>
<text text-anchor="start" x="133.28" y="-686" font-family="Helvetica,sans-Serif" font-size="10.00">+</text>
<text text-anchor="start" x="142.7" y="-686" font-family="Helvetica,sans-Serif" font-size="10.00">void reflow()</text>
<text text-anchor="start" x="133.28" y="-672" font-family="Helvetica,sans-Serif" font-size="10.00">+</text>
<text text-anchor="start" x="142.7" y="-672" font-family="Helvetica,sans-Serif" font-size="10.00">std::u8string layout</text>
<text text-anchor="start" x="142.7" y="-662" font-family="Helvetica,sans-Serif" font-size="10.00">() const</text>
<text text-anchor="start" x="133.28" y="-648" font-family="Helvetica,sans-Serif" font-size="10.00">+</text>
<text text-anchor="start" x="142.7" y="-648" font-family="Helvetica,sans-Serif" font-size="10.00">const std::u8string</text>
<text text-anchor="start" x="142.7" y="-638" font-family="Helvetica,sans-Serif" font-size="10.00"> identifier() const</text>
<text text-anchor="start" x="133.28" y="-624" font-family="Helvetica,sans-Serif" font-size="10.00">+</text>
<text text-anchor="start" x="142.7" y="-624" font-family="Helvetica,sans-Serif" font-size="10.00">void identifier(std</text>
<text text-anchor="start" x="142.7" y="-614" font-family="Helvetica,sans-Serif" font-size="10.00">::u8string identifier)</text>
<text text-anchor="start" x="133.28" y="-600" font-family="Helvetica,sans-Serif" font-size="10.00">+</text>
<text text-anchor="start" x="142.7" y="-600" font-family="Helvetica,sans-Serif" font-size="10.00">const std::u8string</text>
<text text-anchor="start" x="142.7" y="-590" font-family="Helvetica,sans-Serif" font-size="10.00"> title() const</text>
<text text-anchor="start" x="133.28" y="-576" font-family="Helvetica,sans-Serif" font-size="10.00">+</text>
<text text-anchor="start" x="142.7" y="-576" font-family="Helvetica,sans-Serif" font-size="10.00">void title(std::u8string</text>
<text text-anchor="start" x="142.7" y="-566" font-family="Helvetica,sans-Serif" font-size="10.00"> title)</text>
<text text-anchor="start" x="133.28" y="-552" font-family="Helvetica,sans-Serif" font-size="10.00">+</text>
<text text-anchor="start" x="142.7" y="-552" font-family="Helvetica,sans-Serif" font-size="10.00">const std::u8string</text>
<text text-anchor="start" x="142.7" y="-542" font-family="Helvetica,sans-Serif" font-size="10.00"> language() const</text>
<text text-anchor="start" x="133.28" y="-528" font-family="Helvetica,sans-Serif" font-size="10.00">+</text>
<text text-anchor="start" x="142.7" y="-528" font-family="Helvetica,sans-Serif" font-size="10.00">const std::u8string</text>
<text text-anchor="start" x="142.7" y="-518" font-family="Helvetica,sans-Serif" font-size="10.00"> description() const</text>
<text text-anchor="start" x="133.28" y="-504" font-family="Helvetica,sans-Serif" font-size="10.00">+</text>
<text text-anchor="start" x="142.7" y="-504" font-family="Helvetica,sans-Serif" font-size="10.00">void description(std</text>
<text text-anchor="start" x="142.7" y="-494" font-family="Helvetica,sans-Serif" font-size="10.00">::u8string description)</text>
<text text-anchor="start" x="133.28" y="-480" font-family="Helvetica,sans-Serif" font-size="10.00">+</text>
<text text-anchor="start" x="142.7" y="-480" font-family="Helvetica,sans-Serif" font-size="10.00">const auto &amp; creators</text>
<text text-anchor="start" x="142.7" y="-470" font-family="Helvetica,sans-Serif" font-size="10.00">() const</text>
<text text-anchor="start" x="133.28" y="-456" font-family="Helvetica,sans-Serif" font-size="10.00">+</text>
<text text-anchor="start" x="142.7" y="-456" font-family="Helvetica,sans-Serif" font-size="10.00">auto &amp; creators()</text>
<text text-anchor="start" x="133.28" y="-442" font-family="Helvetica,sans-Serif" font-size="10.00">+</text>
<text text-anchor="start" x="142.7" y="-442" font-family="Helvetica,sans-Serif" font-size="10.00">const auto &amp; collections</text>
<text text-anchor="start" x="142.7" y="-432" font-family="Helvetica,sans-Serif" font-size="10.00">() const</text>
<text text-anchor="start" x="133.28" y="-418" font-family="Helvetica,sans-Serif" font-size="10.00">+</text>
<text text-anchor="start" x="142.7" y="-418" font-family="Helvetica,sans-Serif" font-size="10.00">auto &amp; collections()</text>
<text text-anchor="start" x="134.26" y="-404" font-family="Helvetica,sans-Serif" font-size="10.00">*</text>
<text text-anchor="start" x="142.7" y="-404" font-family="Helvetica,sans-Serif" font-size="10.00">const std::u8string</text>
<text text-anchor="start" x="142.7" y="-394" font-family="Helvetica,sans-Serif" font-size="10.00"> identifier() const</text>
<text text-anchor="start" x="134.26" y="-380" font-family="Helvetica,sans-Serif" font-size="10.00">*</text>
<text text-anchor="start" x="142.7" y="-380" font-family="Helvetica,sans-Serif" font-size="10.00">void identifier(std</text>
<text text-anchor="start" x="142.7" y="-370" font-family="Helvetica,sans-Serif" font-size="10.00">::u8string identifier)</text>
<text text-anchor="start" x="134.26" y="-356" font-family="Helvetica,sans-Serif" font-size="10.00">*</text>
<text text-anchor="start" x="142.7" y="-356" font-family="Helvetica,sans-Serif" font-size="10.00">const std::u8string</text>
<text text-anchor="start" x="142.7" y="-346" font-family="Helvetica,sans-Serif" font-size="10.00"> title() const</text>
<text text-anchor="start" x="134.26" y="-332" font-family="Helvetica,sans-Serif" font-size="10.00">*</text>
<text text-anchor="start" x="142.7" y="-332" font-family="Helvetica,sans-Serif" font-size="10.00">void title(std::u8string</text>
<text text-anchor="start" x="142.7" y="-322" font-family="Helvetica,sans-Serif" font-size="10.00"> title)</text>
<text text-anchor="start" x="134.26" y="-308" font-family="Helvetica,sans-Serif" font-size="10.00">*</text>
<text text-anchor="start" x="142.7" y="-308" font-family="Helvetica,sans-Serif" font-size="10.00">const std::u8string</text>
<text text-anchor="start" x="142.7" y="-298" font-family="Helvetica,sans-Serif" font-size="10.00"> language() const</text>
<text text-anchor="start" x="134.26" y="-284" font-family="Helvetica,sans-Serif" font-size="10.00">*</text>
<text text-anchor="start" x="142.7" y="-284" font-family="Helvetica,sans-Serif" font-size="10.00">const std::u8string</text>
<text text-anchor="start" x="142.7" y="-274" font-family="Helvetica,sans-Serif" font-size="10.00"> description() const</text>
<text text-anchor="start" x="134.26" y="-260" font-family="Helvetica,sans-Serif" font-size="10.00">*</text>
<text text-anchor="start" x="142.7" y="-260" font-family="Helvetica,sans-Serif" font-size="10.00">void description(std</text>
<text text-anchor="start" x="142.7" y="-250" font-family="Helvetica,sans-Serif" font-size="10.00">::u8string description)</text>
<text text-anchor="start" x="134.26" y="-236" font-family="Helvetica,sans-Serif" font-size="10.00">*</text>
<text text-anchor="start" x="142.7" y="-236" font-family="Helvetica,sans-Serif" font-size="10.00">const auto &amp; creators</text>
<text text-anchor="start" x="142.7" y="-226" font-family="Helvetica,sans-Serif" font-size="10.00">() const</text>
<text text-anchor="start" x="134.26" y="-212" font-family="Helvetica,sans-Serif" font-size="10.00">*</text>
<text text-anchor="start" x="142.7" y="-212" font-family="Helvetica,sans-Serif" font-size="10.00">auto &amp; creators()</text>
<text text-anchor="start" x="134.26" y="-198" font-family="Helvetica,sans-Serif" font-size="10.00">*</text>
<text text-anchor="start" x="142.7" y="-198" font-family="Helvetica,sans-Serif" font-size="10.00">const auto &amp; collections</text>
<text text-anchor="start" x="142.7" y="-188" font-family="Helvetica,sans-Serif" font-size="10.00">() const</text>
<text text-anchor="start" x="134.26" y="-174" font-family="Helvetica,sans-Serif" font-size="10.00">*</text>
<text text-anchor="start" x="142.7" y="-174" font-family="Helvetica,sans-Serif" font-size="10.00">auto &amp; collections()</text>
<polygon fill="#666666" stroke="#666666" points="129.7,-738 129.7,-738 251.7,-738 251.7,-738 129.7,-738"/>
<polygon fill="#666666" stroke="#666666" points="129.7,-724 129.7,-724 140.7,-724 140.7,-724 129.7,-724"/>
<polygon fill="#666666" stroke="#666666" points="140.7,-724 140.7,-724 251.7,-724 251.7,-724 140.7,-724"/>
<polygon fill="none" stroke="#666666" points="129.7,-168 129.7,-754 251.7,-754 251.7,-168 129.7,-168"/>
</a>
</g>
</g>
<!-- Node4&#45;&gt;Node11 -->
<g id="edge12_Node000011_Node000004" class="edge">
<title>Node4&#45;&gt;Node11</title>
<g id="a_edge12_Node000011_Node000004"><a xlink:title=" ">
<path fill="none" stroke="#63b8ff" d="M138.65,-1337.72C105.6,-1325.21 55.86,-1300.56 33.7,-1260 -32.34,-1139.08 16.23,-1086.66 33.7,-950 48.46,-834.63 89.06,-709.87 125.28,-615.38"/>
<polygon fill="none" stroke="#63b8ff" points="125.35,-615.21 123.78,-608.17 129.67,-604.01 131.24,-611.05 125.35,-615.21"/>
</a>
</g>
<text text-anchor="middle" x="73.72" y="-924" font-family="Helvetica,sans-Serif" font-size="10.00" fill="grey"> &#45;_description</text>
<text text-anchor="middle" x="73.72" y="-914" font-family="Helvetica,sans-Serif" font-size="10.00" fill="grey">&#45;_identifier</text>
<text text-anchor="middle" x="73.72" y="-904" font-family="Helvetica,sans-Serif" font-size="10.00" fill="grey">&#45;_language</text>
<text text-anchor="middle" x="73.72" y="-894" font-family="Helvetica,sans-Serif" font-size="10.00" fill="grey">&#45;_title</text>
</g>
<!-- Node13 -->
<g id="Node000013" class="node">
<title>Node13</title>
<g id="a_Node000013"><a xlink:href="classepub_1_1creator.html" target="_top" xlink:title="An individual or organizational creator.">
<polygon fill="white" stroke="transparent" points="328.7,-1183 190.7,-1183 190.7,-1027 328.7,-1027 328.7,-1183"/>
<text text-anchor="start" x="230.24" y="-1171" font-family="Helvetica,sans-Serif" font-size="10.00">epub::creator</text>
<text text-anchor="start" x="258.31" y="-1157" font-family="Helvetica,sans-Serif" font-size="10.00"> </text>
<text text-anchor="start" x="194.28" y="-1143" font-family="Helvetica,sans-Serif" font-size="10.00">+</text>
<text text-anchor="start" x="203.7" y="-1143" font-family="Helvetica,sans-Serif" font-size="10.00">creator(std::u8string</text>
<text text-anchor="start" x="203.7" y="-1133" font-family="Helvetica,sans-Serif" font-size="10.00"> name)</text>
<text text-anchor="start" x="194.28" y="-1119" font-family="Helvetica,sans-Serif" font-size="10.00">+</text>
<text text-anchor="start" x="203.7" y="-1119" font-family="Helvetica,sans-Serif" font-size="10.00">operator const std</text>
<text text-anchor="start" x="203.7" y="-1109" font-family="Helvetica,sans-Serif" font-size="10.00">::u8string &amp;() const</text>
<text text-anchor="start" x="194.28" y="-1095" font-family="Helvetica,sans-Serif" font-size="10.00">+</text>
<text text-anchor="start" x="203.7" y="-1095" font-family="Helvetica,sans-Serif" font-size="10.00">const std::u8string</text>
<text text-anchor="start" x="203.7" y="-1085" font-family="Helvetica,sans-Serif" font-size="10.00"> &amp; file_as() const</text>
<text text-anchor="start" x="194.28" y="-1071" font-family="Helvetica,sans-Serif" font-size="10.00">+</text>
<text text-anchor="start" x="203.7" y="-1071" font-family="Helvetica,sans-Serif" font-size="10.00">void file_as(auto &amp;&amp;file_as)</text>
<text text-anchor="start" x="194.28" y="-1057" font-family="Helvetica,sans-Serif" font-size="10.00">+</text>
<text text-anchor="start" x="203.7" y="-1057" font-family="Helvetica,sans-Serif" font-size="10.00">const std::u8string</text>
<text text-anchor="start" x="203.7" y="-1047" font-family="Helvetica,sans-Serif" font-size="10.00"> &amp; role() const</text>
<text text-anchor="start" x="194.28" y="-1033" font-family="Helvetica,sans-Serif" font-size="10.00">+</text>
<text text-anchor="start" x="203.7" y="-1033" font-family="Helvetica,sans-Serif" font-size="10.00">void role(auto &amp;&amp;role)</text>
<polygon fill="#666666" stroke="#666666" points="190.7,-1167 190.7,-1167 328.7,-1167 328.7,-1167 190.7,-1167"/>
<polygon fill="#666666" stroke="#666666" points="190.7,-1153 190.7,-1153 328.7,-1153 328.7,-1153 190.7,-1153"/>
<polygon fill="none" stroke="#666666" points="190.7,-1027 190.7,-1183 328.7,-1183 328.7,-1027 190.7,-1027"/>
</a>
</g>
</g>
<!-- Node4&#45;&gt;Node13 -->
<g id="edge15_Node000013_Node000004" class="edge">
<title>Node4&#45;&gt;Node13</title>
<g id="a_edge15_Node000013_Node000004"><a xlink:title=" ">
<path fill="none" stroke="#63b8ff" d="M197.91,-1325.8C203.12,-1320.45 208.08,-1314.4 211.7,-1308 231.1,-1273.77 242.68,-1232 249.59,-1195.35"/>
<polygon fill="none" stroke="#63b8ff" points="249.66,-1194.95 246.77,-1188.34 251.76,-1183.13 254.65,-1189.74 249.66,-1194.95"/>
</a>
</g>
<text text-anchor="middle" x="244.99" y="-1300" font-family="Helvetica,sans-Serif" font-size="10.00" fill="grey"> &#45;_file_as</text>
<text text-anchor="middle" x="244.99" y="-1290" font-family="Helvetica,sans-Serif" font-size="10.00" fill="grey">&#45;_name</text>
<text text-anchor="middle" x="244.99" y="-1280" font-family="Helvetica,sans-Serif" font-size="10.00" fill="grey">&#45;_role</text>
</g>
<!-- Node15 -->
<g id="Node000015" class="node">
<title>Node15</title>
<g id="a_Node000015"><a xlink:href="classepub_1_1collection.html" target="_top" xlink:title="An indication that the publication is part of a larger set.">
<polygon fill="white" stroke="transparent" points="172.7,-1260 42.7,-1260 42.7,-950 172.7,-950 172.7,-1260"/>
<text text-anchor="start" x="72.96" y="-1248" font-family="Helvetica,sans-Serif" font-size="10.00">epub::collection</text>
<text text-anchor="start" x="47.54" y="-1234" font-family="Helvetica,sans-Serif" font-size="10.00">&#45;</text>
<text text-anchor="start" x="55.7" y="-1234" font-family="Helvetica,sans-Serif" font-size="10.00">type _type</text>
<text text-anchor="start" x="46.28" y="-1220" font-family="Helvetica,sans-Serif" font-size="10.00">+</text>
<text text-anchor="start" x="55.7" y="-1220" font-family="Helvetica,sans-Serif" font-size="10.00">collection(std::u8string</text>
<text text-anchor="start" x="55.7" y="-1210" font-family="Helvetica,sans-Serif" font-size="10.00"> name)</text>
<text text-anchor="start" x="46.28" y="-1196" font-family="Helvetica,sans-Serif" font-size="10.00">+</text>
<text text-anchor="start" x="55.7" y="-1196" font-family="Helvetica,sans-Serif" font-size="10.00">collection(const collection</text>
<text text-anchor="start" x="55.7" y="-1186" font-family="Helvetica,sans-Serif" font-size="10.00"> &amp;)=default</text>
<text text-anchor="start" x="46.28" y="-1172" font-family="Helvetica,sans-Serif" font-size="10.00">+</text>
<text text-anchor="start" x="55.7" y="-1172" font-family="Helvetica,sans-Serif" font-size="10.00">collection(collection</text>
<text text-anchor="start" x="55.7" y="-1162" font-family="Helvetica,sans-Serif" font-size="10.00"> &amp;&amp;)=default</text>
<text text-anchor="start" x="46.28" y="-1148" font-family="Helvetica,sans-Serif" font-size="10.00">+</text>
<text text-anchor="start" x="55.7" y="-1148" font-family="Helvetica,sans-Serif" font-size="10.00">~collection()=default</text>
<text text-anchor="start" x="46.28" y="-1134" font-family="Helvetica,sans-Serif" font-size="10.00">+</text>
<text text-anchor="start" x="55.7" y="-1134" font-family="Helvetica,sans-Serif" font-size="10.00">collection &amp; operator</text>
<text text-anchor="start" x="55.7" y="-1124" font-family="Helvetica,sans-Serif" font-size="10.00">=(const collection &amp;)</text>
<text text-anchor="start" x="55.7" y="-1114" font-family="Helvetica,sans-Serif" font-size="10.00">=default</text>
<text text-anchor="start" x="46.28" y="-1100" font-family="Helvetica,sans-Serif" font-size="10.00">+</text>
<text text-anchor="start" x="55.7" y="-1100" font-family="Helvetica,sans-Serif" font-size="10.00">collection &amp; operator</text>
<text text-anchor="start" x="55.7" y="-1090" font-family="Helvetica,sans-Serif" font-size="10.00">=(collection &amp;&amp;)=default</text>
<text text-anchor="start" x="46.28" y="-1076" font-family="Helvetica,sans-Serif" font-size="10.00">+</text>
<text text-anchor="start" x="55.7" y="-1076" font-family="Helvetica,sans-Serif" font-size="10.00">operator const std</text>
<text text-anchor="start" x="55.7" y="-1066" font-family="Helvetica,sans-Serif" font-size="10.00">::u8string &amp;() const</text>
<text text-anchor="start" x="46.28" y="-1052" font-family="Helvetica,sans-Serif" font-size="10.00">+</text>
<text text-anchor="start" x="55.7" y="-1052" font-family="Helvetica,sans-Serif" font-size="10.00">enum type type() const</text>
<text text-anchor="start" x="46.28" y="-1038" font-family="Helvetica,sans-Serif" font-size="10.00">+</text>
<text text-anchor="start" x="55.7" y="-1038" font-family="Helvetica,sans-Serif" font-size="10.00">void type(enum type</text>
<text text-anchor="start" x="55.7" y="-1028" font-family="Helvetica,sans-Serif" font-size="10.00"> type)</text>
<text text-anchor="start" x="46.28" y="-1014" font-family="Helvetica,sans-Serif" font-size="10.00">+</text>
<text text-anchor="start" x="55.7" y="-1014" font-family="Helvetica,sans-Serif" font-size="10.00">std::u8string group</text>
<text text-anchor="start" x="55.7" y="-1004" font-family="Helvetica,sans-Serif" font-size="10.00">_position() const</text>
<text text-anchor="start" x="46.28" y="-990" font-family="Helvetica,sans-Serif" font-size="10.00">+</text>
<text text-anchor="start" x="55.7" y="-990" font-family="Helvetica,sans-Serif" font-size="10.00">void group_position</text>
<text text-anchor="start" x="55.7" y="-980" font-family="Helvetica,sans-Serif" font-size="10.00">(unsigned position)</text>
<text text-anchor="start" x="46.28" y="-966" font-family="Helvetica,sans-Serif" font-size="10.00">+</text>
<text text-anchor="start" x="55.7" y="-966" font-family="Helvetica,sans-Serif" font-size="10.00">void group_position</text>
<text text-anchor="start" x="55.7" y="-956" font-family="Helvetica,sans-Serif" font-size="10.00">(std::u8string position)</text>
<polygon fill="#666666" stroke="#666666" points="42.7,-1244 42.7,-1244 172.7,-1244 172.7,-1244 42.7,-1244"/>
<polygon fill="#666666" stroke="#666666" points="42.7,-1230 42.7,-1230 53.7,-1230 53.7,-1230 42.7,-1230"/>
<polygon fill="#666666" stroke="#666666" points="53.7,-1230 53.7,-1230 172.7,-1230 172.7,-1230 53.7,-1230"/>
<polygon fill="none" stroke="#666666" points="42.7,-950 42.7,-1260 172.7,-1260 172.7,-950 42.7,-950"/>
</a>
</g>
</g>
<!-- Node4&#45;&gt;Node15 -->
<g id="edge19_Node000015_Node000004" class="edge">
<title>Node4&#45;&gt;Node15</title>
<g id="a_edge19_Node000015_Node000004"><a xlink:title=" ">
<path fill="none" stroke="#63b8ff" d="M146.19,-1325.64C141.61,-1320.29 137.35,-1314.29 134.43,-1308 129.16,-1296.63 124.83,-1284.54 121.3,-1272.14"/>
<polygon fill="none" stroke="#63b8ff" points="121.2,-1271.78 115.8,-1267 118.14,-1260.18 123.54,-1264.96 121.2,-1271.78"/>
</a>
</g>
<text text-anchor="middle" x="173.34" y="-1295" font-family="Helvetica,sans-Serif" font-size="10.00" fill="grey"> &#45;_group_position</text>
<text text-anchor="middle" x="173.34" y="-1285" font-family="Helvetica,sans-Serif" font-size="10.00" fill="grey">&#45;_name</text>
</g>
<!-- Node5 -->
<g id="Node000005" class="node">
<title>Node5</title>
<g id="a_Node000005"><a xlink:title=" ">
<polygon fill="white" stroke="transparent" points="214.7,-1474 126.7,-1474 126.7,-1418 214.7,-1418 214.7,-1474"/>
<text text-anchor="start" x="131.66" y="-1462" font-family="Helvetica,sans-Serif" font-size="10.00">std::basic_string&lt;</text>
<text text-anchor="start" x="154.17" y="-1452" font-family="Helvetica,sans-Serif" font-size="10.00"> Char &gt;</text>
<text text-anchor="start" x="169.31" y="-1438" font-family="Helvetica,sans-Serif" font-size="10.00"> </text>
<text text-anchor="start" x="169.31" y="-1424" font-family="Helvetica,sans-Serif" font-size="10.00"> </text>
<polygon fill="#666666" stroke="#666666" points="126.7,-1448 126.7,-1448 214.7,-1448 214.7,-1448 126.7,-1448"/>
<polygon fill="#666666" stroke="#666666" points="126.7,-1434 126.7,-1434 214.7,-1434 214.7,-1434 126.7,-1434"/>
<polygon fill="none" stroke="#666666" points="126.7,-1418 126.7,-1474 214.7,-1474 214.7,-1418 126.7,-1418"/>
</a>
</g>
</g>
<!-- Node5&#45;&gt;Node4 -->
<g id="edge4_Node000004_Node000005" class="edge">
<title>Node5&#45;&gt;Node4</title>
<g id="a_edge4_Node000004_Node000005"><a xlink:title=" ">
<path fill="none" stroke="#63b8ff" d="M170.7,-1407.54C170.7,-1395.54 170.7,-1382.65 170.7,-1372.11"/>
<polygon fill="none" stroke="#63b8ff" points="167.2,-1407.78 170.7,-1417.78 174.2,-1407.78 167.2,-1407.78"/>
</a>
</g>
</g>
<!-- Node6 -->
<g id="Node000006" class="node">
<title>Node6</title>
<g id="a_Node000006"><a xlink:href="structepub_1_1file__metadata.html" target="_top" xlink:title="A class for managing metadata key&#45;value pairs.">
<polygon fill="white" stroke="transparent" points="673.2,-1165 530.2,-1165 530.2,-1045 673.2,-1045 673.2,-1165"/>
<text text-anchor="start" x="558.28" y="-1153" font-family="Helvetica,sans-Serif" font-size="10.00">epub::file_metadata</text>
<text text-anchor="start" x="600.81" y="-1139" font-family="Helvetica,sans-Serif" font-size="10.00"> </text>
<text text-anchor="start" x="534.28" y="-1125" font-family="Helvetica,sans-Serif" font-size="10.00">+</text>
<text text-anchor="start" x="543.7" y="-1125" font-family="Helvetica,sans-Serif" font-size="10.00">std::optional&lt; mapped</text>
<text text-anchor="start" x="543.7" y="-1115" font-family="Helvetica,sans-Serif" font-size="10.00">_type &gt; get(const key</text>
<text text-anchor="start" x="543.7" y="-1105" font-family="Helvetica,sans-Serif" font-size="10.00">_type &amp;key) const noexcept</text>
<text text-anchor="start" x="534.28" y="-1091" font-family="Helvetica,sans-Serif" font-size="10.00">+</text>
<text text-anchor="start" x="543.7" y="-1091" font-family="Helvetica,sans-Serif" font-size="10.00">mapped_type get(const</text>
<text text-anchor="start" x="543.7" y="-1081" font-family="Helvetica,sans-Serif" font-size="10.00"> key_type &amp;key, U &amp;&amp;default</text>
<text text-anchor="start" x="543.7" y="-1071" font-family="Helvetica,sans-Serif" font-size="10.00">_value) const noexcept(std</text>
<text text-anchor="start" x="543.7" y="-1061" font-family="Helvetica,sans-Serif" font-size="10.00">::is_nothrow_convertible&lt; U,</text>
<text text-anchor="start" x="543.7" y="-1051" font-family="Helvetica,sans-Serif" font-size="10.00"> mapped_type &gt;::value)</text>
<polygon fill="#666666" stroke="#666666" points="530.7,-1149 530.7,-1149 673.7,-1149 673.7,-1149 530.7,-1149"/>
<polygon fill="#666666" stroke="#666666" points="530.7,-1135 530.7,-1135 673.7,-1135 673.7,-1135 530.7,-1135"/>
<polygon fill="none" stroke="#666666" points="530.2,-1045 530.2,-1165 673.2,-1165 673.2,-1045 530.2,-1045"/>
</a>
</g>
</g>
<!-- Node6&#45;&gt;Node3 -->
<g id="edge5_Node000003_Node000006" class="edge">
<title>Node6&#45;&gt;Node3</title>
<g id="a_edge5_Node000003_Node000006"><a xlink:title=" ">
<path fill="none" stroke="#63b8ff" d="M580.46,-1044.7C560.96,-997.72 527.89,-933.32 480.7,-892 472.08,-884.45 462.21,-877.59 452.08,-871.49"/>
<polygon fill="none" stroke="#63b8ff" points="451.88,-871.37 444.68,-871.86 441.47,-865.41 448.66,-864.92 451.88,-871.37"/>
</a>
</g>
<text text-anchor="middle" x="540.86" y="-909" font-family="Helvetica,sans-Serif" font-size="10.00" fill="grey"> +metadata</text>
</g>
<!-- Node7 -->
<g id="Node000007" class="node">
<title>Node7</title>
<g id="a_Node000007"><a xlink:title=" ">
<polygon fill="white" stroke="transparent" points="630.2,-1372 547.2,-1372 547.2,-1326 630.2,-1326 630.2,-1372"/>
<text text-anchor="start" x="552.42" y="-1360" font-family="Helvetica,sans-Serif" font-size="10.00">std::map&lt; K, T &gt;</text>
<text text-anchor="start" x="587.81" y="-1346" font-family="Helvetica,sans-Serif" font-size="10.00"> </text>
<text text-anchor="start" x="587.81" y="-1332" font-family="Helvetica,sans-Serif" font-size="10.00"> </text>
<polygon fill="#666666" stroke="#666666" points="547.7,-1356 547.7,-1356 630.7,-1356 630.7,-1356 547.7,-1356"/>
<polygon fill="#666666" stroke="#666666" points="547.7,-1342 547.7,-1342 630.7,-1342 630.7,-1342 547.7,-1342"/>
<polygon fill="none" stroke="#666666" points="547.2,-1326 547.2,-1372 630.2,-1372 630.2,-1326 547.2,-1326"/>
</a>
</g>
</g>
<!-- Node7&#45;&gt;Node6 -->
<g id="edge6_Node000006_Node000007" class="edge">
<title>Node7&#45;&gt;Node6</title>
<g id="a_edge6_Node000006_Node000007"><a xlink:title=" ">
<path fill="none" stroke="#63b8ff" d="M590.44,-1315.58C592.51,-1277.2 595.98,-1212.53 598.52,-1165.16"/>
<polygon fill="none" stroke="#63b8ff" points="586.94,-1315.49 589.9,-1325.67 593.93,-1315.87 586.94,-1315.49"/>
</a>
</g>
</g>
<!-- Node8 -->
<g id="Node000008" class="node">
<title>Node8</title>
<g id="a_Node000008"><a xlink:title=" ">
<polygon fill="white" stroke="transparent" points="596.7,-1469 580.7,-1469 580.7,-1423 596.7,-1423 596.7,-1469"/>
<text text-anchor="start" x="585.37" y="-1457" font-family="Helvetica,sans-Serif" font-size="10.00">K</text>
<text text-anchor="start" x="587.31" y="-1443" font-family="Helvetica,sans-Serif" font-size="10.00"> </text>
<text text-anchor="start" x="587.31" y="-1429" font-family="Helvetica,sans-Serif" font-size="10.00"> </text>
<polygon fill="#666666" stroke="#666666" points="580.7,-1453 580.7,-1453 596.7,-1453 596.7,-1453 580.7,-1453"/>
<polygon fill="#666666" stroke="#666666" points="580.7,-1439 580.7,-1439 596.7,-1439 596.7,-1439 580.7,-1439"/>
<polygon fill="none" stroke="#666666" points="580.7,-1423 580.7,-1469 596.7,-1469 596.7,-1423 580.7,-1423"/>
</a>
</g>
</g>
<!-- Node8&#45;&gt;Node7 -->
<g id="edge7_Node000007_Node000008" class="edge">
<title>Node8&#45;&gt;Node7</title>
<g id="a_edge7_Node000007_Node000008"><a xlink:title=" ">
<path fill="none" stroke="#63b8ff" d="M588.7,-1422.97C588.7,-1411.54 588.7,-1397.32 588.7,-1384.47"/>
<polygon fill="none" stroke="#63b8ff" points="588.7,-1384.24 584.7,-1378.24 588.7,-1372.24 592.7,-1378.24 588.7,-1384.24"/>
</a>
</g>
<text text-anchor="middle" x="603.29" y="-1392" font-family="Helvetica,sans-Serif" font-size="10.00" fill="grey"> +keys</text>
</g>
<!-- Node9 -->
<g id="Node000009" class="node">
<title>Node9</title>
<g id="a_Node000009"><a xlink:title=" ">
<polygon fill="white" stroke="transparent" points="501.7,-1469 485.7,-1469 485.7,-1423 501.7,-1423 501.7,-1469"/>
<text text-anchor="start" x="490.65" y="-1457" font-family="Helvetica,sans-Serif" font-size="10.00">T</text>
<text text-anchor="start" x="492.31" y="-1443" font-family="Helvetica,sans-Serif" font-size="10.00"> </text>
<text text-anchor="start" x="492.31" y="-1429" font-family="Helvetica,sans-Serif" font-size="10.00"> </text>
<polygon fill="#666666" stroke="#666666" points="485.7,-1453 485.7,-1453 501.7,-1453 501.7,-1453 485.7,-1453"/>
<polygon fill="#666666" stroke="#666666" points="485.7,-1439 485.7,-1439 501.7,-1439 501.7,-1439 485.7,-1439"/>
<polygon fill="none" stroke="#666666" points="485.7,-1423 485.7,-1469 501.7,-1469 501.7,-1423 485.7,-1423"/>
</a>
</g>
</g>
<!-- Node9&#45;&gt;Node7 -->
<g id="edge8_Node000007_Node000009" class="edge">
<title>Node9&#45;&gt;Node7</title>
<g id="a_edge8_Node000007_Node000009"><a xlink:title=" ">
<path fill="none" stroke="#63b8ff" d="M501.78,-1432.42C509.62,-1420.73 522.24,-1403.2 535.51,-1390 539.06,-1386.47 542.93,-1382.99 546.91,-1379.64"/>
<polygon fill="none" stroke="#63b8ff" points="546.94,-1379.62 549.12,-1372.75 556.3,-1372.12 554.12,-1378.99 546.94,-1379.62"/>
</a>
</g>
<text text-anchor="middle" x="559.3" y="-1392" font-family="Helvetica,sans-Serif" font-size="10.00" fill="grey"> +elements</text>
</g>
<!-- Node10 -->
<g id="Node000010" class="node">
<title>Node10</title>
<g id="a_Node000010"><a xlink:title=" ">
<polygon fill="white" stroke="transparent" points="512.2,-1128 433.2,-1128 433.2,-1082 512.2,-1082 512.2,-1128"/>
<text text-anchor="start" x="438.64" y="-1116" font-family="Helvetica,sans-Serif" font-size="10.00">std::vector&lt; T &gt;</text>
<text text-anchor="start" x="471.81" y="-1102" font-family="Helvetica,sans-Serif" font-size="10.00"> </text>
<text text-anchor="start" x="471.81" y="-1088" font-family="Helvetica,sans-Serif" font-size="10.00"> </text>
<polygon fill="#666666" stroke="#666666" points="433.7,-1112 433.7,-1112 512.7,-1112 512.7,-1112 433.7,-1112"/>
<polygon fill="#666666" stroke="#666666" points="433.7,-1098 433.7,-1098 512.7,-1098 512.7,-1098 433.7,-1098"/>
<polygon fill="none" stroke="#666666" points="433.2,-1082 433.2,-1128 512.2,-1128 512.2,-1082 433.2,-1082"/>
</a>
</g>
</g>
<!-- Node9&#45;&gt;Node10 -->
<g id="edge10_Node000010_Node000009" class="edge">
<title>Node9&#45;&gt;Node10</title>
<g id="a_edge10_Node000010_Node000009"><a xlink:title=" ">
<path fill="none" stroke="#63b8ff" d="M492.33,-1422.76C488.75,-1365.05 479.16,-1210.21 474.85,-1140.66"/>
<polygon fill="none" stroke="#63b8ff" points="474.83,-1140.3 470.46,-1134.56 474.09,-1128.32 478.45,-1134.07 474.83,-1140.3"/>
</a>
</g>
<text text-anchor="middle" x="513.3" y="-1346" font-family="Helvetica,sans-Serif" font-size="10.00" fill="grey"> +elements</text>
</g>
<!-- Node10&#45;&gt;Node2 -->
<g id="edge9_Node000002_Node000010" class="edge">
<title>Node10&#45;&gt;Node2</title>
<g id="a_edge9_Node000002_Node000010"><a xlink:title=" ">
<path fill="none" stroke="orange" d="M473.94,-1071.3C475.17,-1036.71 477,-980.52 477.7,-932 477.96,-914.22 479.73,-909.66 477.7,-892 459.92,-737.04 407.22,-556.73 386.35,-489.29"/>
<polygon fill="orange" stroke="orange" points="470.42,-1071.62 473.56,-1081.74 477.42,-1071.87 470.42,-1071.62"/>
</a>
</g>
<text text-anchor="middle" x="529.73" y="-834" font-family="Helvetica,sans-Serif" font-size="10.00" fill="grey"> &lt; epub::manifest_item &gt;</text>
</g>
<!-- Node12 -->
<g id="Node000012" class="node">
<title>Node12</title>
<g id="a_Node000012"><a xlink:title=" ">
<polygon fill="white" stroke="transparent" points="283.7,-865 191.7,-865 191.7,-809 283.7,-809 283.7,-865"/>
<text text-anchor="start" x="196.43" y="-853" font-family="Helvetica,sans-Serif" font-size="10.00">std::vector&lt; epub::</text>
<text text-anchor="start" x="217.83" y="-843" font-family="Helvetica,sans-Serif" font-size="10.00">creator &gt;</text>
<text text-anchor="start" x="236.31" y="-829" font-family="Helvetica,sans-Serif" font-size="10.00"> </text>
<text text-anchor="start" x="236.31" y="-815" font-family="Helvetica,sans-Serif" font-size="10.00"> </text>
<polygon fill="#666666" stroke="#666666" points="191.7,-839 191.7,-839 283.7,-839 283.7,-839 191.7,-839"/>
<polygon fill="#666666" stroke="#666666" points="191.7,-825 191.7,-825 283.7,-825 283.7,-825 191.7,-825"/>
<polygon fill="none" stroke="#666666" points="191.7,-809 191.7,-865 283.7,-865 283.7,-809 191.7,-809"/>
</a>
</g>
</g>
<!-- Node10&#45;&gt;Node12 -->
<g id="edge16_Node000012_Node000010" class="edge">
<title>Node10&#45;&gt;Node12</title>
<g id="a_edge16_Node000012_Node000010"><a xlink:title=" ">
<path fill="none" stroke="orange" d="M466.4,-1071.82C458.9,-1039.09 444.08,-987.93 418.7,-950 418.37,-949.5 354.22,-892.31 353.7,-892 334.2,-880.21 326.48,-883.35 305.7,-874 298.52,-870.77 291.03,-867.11 283.76,-863.4"/>
<polygon fill="orange" stroke="orange" points="463.02,-1072.74 468.59,-1081.76 469.86,-1071.24 463.02,-1072.74"/>
</a>
</g>
<text text-anchor="middle" x="436.17" y="-909" font-family="Helvetica,sans-Serif" font-size="10.00" fill="grey"> &lt; epub::creator &gt;</text>
</g>
<!-- Node14 -->
<g id="Node000014" class="node">
<title>Node14</title>
<g id="a_Node000014"><a xlink:title=" ">
<polygon fill="white" stroke="transparent" points="173.7,-865 81.7,-865 81.7,-809 173.7,-809 173.7,-865"/>
<text text-anchor="start" x="86.43" y="-853" font-family="Helvetica,sans-Serif" font-size="10.00">std::vector&lt; epub::</text>
<text text-anchor="start" x="102.55" y="-843" font-family="Helvetica,sans-Serif" font-size="10.00">collection &gt;</text>
<text text-anchor="start" x="126.31" y="-829" font-family="Helvetica,sans-Serif" font-size="10.00"> </text>
<text text-anchor="start" x="126.31" y="-815" font-family="Helvetica,sans-Serif" font-size="10.00"> </text>
<polygon fill="#666666" stroke="#666666" points="81.7,-839 81.7,-839 173.7,-839 173.7,-839 81.7,-839"/>
<polygon fill="#666666" stroke="#666666" points="81.7,-825 81.7,-825 173.7,-825 173.7,-825 81.7,-825"/>
<polygon fill="none" stroke="#666666" points="81.7,-809 81.7,-865 173.7,-865 173.7,-809 81.7,-809"/>
</a>
</g>
</g>
<!-- Node10&#45;&gt;Node14 -->
<g id="edge20_Node000014_Node000010" class="edge">
<title>Node10&#45;&gt;Node14</title>
<g id="a_edge20_Node000014_Node000010"><a xlink:title=" ">
<path fill="none" stroke="orange" d="M471.03,-1071.35C467.3,-1035.57 455.54,-979.38 418.7,-950 363.28,-905.79 319.27,-971.2 260.2,-932 243.2,-920.72 253.47,-904.94 237.7,-892 217.82,-875.68 205.89,-885.14 182.7,-874 177.25,-871.38 171.7,-868.3 166.32,-865.07"/>
<polygon fill="orange" stroke="orange" points="467.58,-1072.09 471.94,-1081.74 474.55,-1071.47 467.58,-1072.09"/>
</a>
</g>
<text text-anchor="middle" x="305.46" y="-909" font-family="Helvetica,sans-Serif" font-size="10.00" fill="grey"> &lt; epub::collection &gt;</text>
</g>
<!-- Node11&#45;&gt;Node1 -->
<g id="edge11_Node000001_Node000011" class="edge">
<title>Node11&#45;&gt;Node1</title>
<g id="a_edge11_Node000001_Node000011"><a xlink:title=" ">
<path fill="none" stroke="#63b8ff" d="M238.74,-167.71C240.58,-158.36 242.45,-149.1 244.34,-140 244.73,-138.12 245.13,-136.21 245.55,-134.29"/>
<polygon fill="none" stroke="#63b8ff" points="245.6,-134.07 243.01,-127.34 248.23,-122.36 250.82,-129.09 245.6,-134.07"/>
</a>
</g>
<text text-anchor="middle" x="271.39" y="-142" font-family="Helvetica,sans-Serif" font-size="10.00" fill="grey"> &#45;_metadata</text>
</g>
<!-- Node12&#45;&gt;Node11 -->
<g id="edge13_Node000011_Node000012" class="edge">
<title>Node12&#45;&gt;Node11</title>
<g id="a_edge13_Node000011_Node000012"><a xlink:title=" ">
<path fill="none" stroke="#63b8ff" d="M234.28,-808.8C232.86,-797.44 231.05,-783.03 228.98,-766.58"/>
<polygon fill="none" stroke="#63b8ff" points="228.93,-766.17 224.21,-760.71 227.43,-754.26 232.15,-759.71 228.93,-766.17"/>
</a>
</g>
<text text-anchor="middle" x="255.6" y="-774" font-family="Helvetica,sans-Serif" font-size="10.00" fill="grey"> &#45;_creators</text>
</g>
<!-- Node13&#45;&gt;Node12 -->
<g id="edge14_Node000012_Node000013" class="edge">
<title>Node13&#45;&gt;Node12</title>
<g id="a_edge14_Node000012_Node000013"><a xlink:title=" ">
<path fill="none" stroke="#63b8ff" d="M220.2,-1026.83C207.42,-997.87 194.9,-964.17 188.51,-932 185.04,-914.56 182.09,-908.58 188.51,-892 190.88,-885.87 194.32,-880 198.28,-874.55"/>
<polygon fill="none" stroke="#63b8ff" points="198.31,-874.51 198.99,-867.34 205.88,-865.2 205.19,-872.38 198.31,-874.51"/>
</a>
</g>
<text text-anchor="middle" x="213.3" y="-909" font-family="Helvetica,sans-Serif" font-size="10.00" fill="grey"> +elements</text>
</g>
<!-- Node14&#45;&gt;Node11 -->
<g id="edge17_Node000011_Node000014" class="edge">
<title>Node14&#45;&gt;Node11</title>
<g id="a_edge17_Node000011_Node000014"><a xlink:title=" ">
<path fill="none" stroke="#63b8ff" d="M132.28,-808.8C134.22,-797.33 136.67,-782.75 139.48,-766.1"/>
<polygon fill="none" stroke="#63b8ff" points="139.48,-766.09 136.53,-759.51 141.47,-754.26 144.42,-760.84 139.48,-766.09"/>
</a>
</g>
<text text-anchor="middle" x="167.88" y="-774" font-family="Helvetica,sans-Serif" font-size="10.00" fill="grey"> &#45;_collections</text>
</g>
<!-- Node15&#45;&gt;Node14 -->
<g id="edge18_Node000014_Node000015" class="edge">
<title>Node15&#45;&gt;Node14</title>
<g id="a_edge18_Node000014_Node000015"><a xlink:title=" ">
<path fill="none" stroke="#63b8ff" d="M111.17,-949.76C112.47,-930.28 114.2,-910.65 116.51,-892 117.11,-887.17 117.91,-882.12 118.81,-877.14"/>
<polygon fill="none" stroke="#63b8ff" points="118.87,-876.82 116.11,-870.16 121.2,-865.05 123.96,-871.71 118.87,-876.82"/>
</a>
</g>
<text text-anchor="middle" x="141.3" y="-909" font-family="Helvetica,sans-Serif" font-size="10.00" fill="grey"> +elements</text>
</g>
</g>
</svg>
