<?xml version="1.0" encoding="UTF-8" standalone="no"?>
<!DOCTYPE svg PUBLIC "-//W3C//DTD SVG 1.1//EN"
 "http://www.w3.org/Graphics/SVG/1.1/DTD/svg11.dtd">
<!-- Generated by graphviz version 2.48.0 (20210717.1556)
 -->
<!-- Title: page Pages: 1 -->
<svg width="140pt" height="312pt"
 viewBox="0.00 0.00 140.00 312.00" xmlns="http://www.w3.org/2000/svg" xmlns:xlink="http://www.w3.org/1999/xlink">
<g id="graph0" class="graph" transform="scale(1 1) rotate(0) translate(4 308)">
<title>page</title>
<!-- Node1 -->
<g id="Node000001" class="node">
<title>Node1</title>
<g id="a_Node000001"><a xlink:title="A collection of images that can fit on a single content page.">
<polygon fill="#999999" stroke="transparent" points="132,-222 0,-222 0,0 132,0 132,-222"/>
<text text-anchor="start" x="54.88" y="-210" font-family="Helvetica,sans-Serif" font-size="10.00">page</text>
<text text-anchor="start" x="4.83" y="-196" font-family="Helvetica,sans-Serif" font-size="10.00">&#45;</text>
<text text-anchor="start" x="13" y="-196" font-family="Helvetica,sans-Serif" font-size="10.00">geom::size _content_size</text>
<text text-anchor="start" x="4.83" y="-182" font-family="Helvetica,sans-Serif" font-size="10.00">&#45;</text>
<text text-anchor="start" x="13" y="-182" font-family="Helvetica,sans-Serif" font-size="10.00">fs::path _path</text>
<text text-anchor="start" x="3.58" y="-168" font-family="Helvetica,sans-Serif" font-size="10.00">+</text>
<text text-anchor="start" x="13" y="-168" font-family="Helvetica,sans-Serif" font-size="10.00">page(unsigned num)</text>
<text text-anchor="start" x="3.58" y="-154" font-family="Helvetica,sans-Serif" font-size="10.00">+</text>
<text text-anchor="start" x="13" y="-154" font-family="Helvetica,sans-Serif" font-size="10.00">auto width() const</text>
<text text-anchor="start" x="3.58" y="-140" font-family="Helvetica,sans-Serif" font-size="10.00">+</text>
<text text-anchor="start" x="13" y="-140" font-family="Helvetica,sans-Serif" font-size="10.00">auto height() const</text>
<text text-anchor="start" x="3.58" y="-126" font-family="Helvetica,sans-Serif" font-size="10.00">+</text>
<text text-anchor="start" x="13" y="-126" font-family="Helvetica,sans-Serif" font-size="10.00">auto path() const</text>
<text text-anchor="start" x="3.58" y="-112" font-family="Helvetica,sans-Serif" font-size="10.00">+</text>
<text text-anchor="start" x="13" y="-112" font-family="Helvetica,sans-Serif" font-size="10.00">epub::file_metadata</text>
<text text-anchor="start" x="13" y="-102" font-family="Helvetica,sans-Serif" font-size="10.00"> metadata(const std</text>
<text text-anchor="start" x="13" y="-92" font-family="Helvetica,sans-Serif" font-size="10.00">::string &amp;chapter) const</text>
<text text-anchor="start" x="3.58" y="-78" font-family="Helvetica,sans-Serif" font-size="10.00">+</text>
<text text-anchor="start" x="13" y="-78" font-family="Helvetica,sans-Serif" font-size="10.00">void push_back(image</text>
<text text-anchor="start" x="13" y="-68" font-family="Helvetica,sans-Serif" font-size="10.00">_ref image)</text>
<text text-anchor="start" x="3.58" y="-54" font-family="Helvetica,sans-Serif" font-size="10.00">+</text>
<text text-anchor="start" x="13" y="-54" font-family="Helvetica,sans-Serif" font-size="10.00">auto begin() const</text>
<text text-anchor="start" x="3.58" y="-40" font-family="Helvetica,sans-Serif" font-size="10.00">+</text>
<text text-anchor="start" x="13" y="-40" font-family="Helvetica,sans-Serif" font-size="10.00">auto end() const</text>
<text text-anchor="start" x="3.58" y="-26" font-family="Helvetica,sans-Serif" font-size="10.00">+</text>
<text text-anchor="start" x="13" y="-26" font-family="Helvetica,sans-Serif" font-size="10.00">void layout(separation</text>
<text text-anchor="start" x="13" y="-16" font-family="Helvetica,sans-Serif" font-size="10.00">_mode mode, const geom</text>
<text text-anchor="start" x="13" y="-6" font-family="Helvetica,sans-Serif" font-size="10.00">::size &amp;page_size)</text>
<polygon fill="#666666" stroke="#666666" points="0,-206 0,-206 132,-206 132,-206 0,-206"/>
<polygon fill="#666666" stroke="#666666" points="0,-178 0,-178 11,-178 11,-178 0,-178"/>
<polygon fill="#666666" stroke="#666666" points="11,-178 11,-178 132,-178 132,-178 11,-178"/>
<polygon fill="none" stroke="#666666" points="0,0 0,-222 132,-222 132,0 0,0"/>
</a>
</g>
</g>
<!-- Node2 -->
<g id="Node000002" class="node">
<title>Node2</title>
<g id="a_Node000002"><a xlink:title=" ">
<polygon fill="white" stroke="transparent" points="105.5,-304 26.5,-304 26.5,-258 105.5,-258 105.5,-304"/>
<text text-anchor="start" x="31.94" y="-292" font-family="Helvetica,sans-Serif" font-size="10.00">std::vector&lt; T &gt;</text>
<text text-anchor="start" x="33.58" y="-278" font-family="Helvetica,sans-Serif" font-size="10.00">+</text>
<text text-anchor="start" x="46" y="-278" font-family="Helvetica,sans-Serif" font-size="10.00">T elements</text>
<text text-anchor="start" x="65.11" y="-264" font-family="Helvetica,sans-Serif" font-size="10.00"> </text>
<polygon fill="#666666" stroke="#666666" points="27,-288 27,-288 106,-288 106,-288 27,-288"/>
<polygon fill="#666666" stroke="#666666" points="27,-274 27,-274 44,-274 44,-274 27,-274"/>
<polygon fill="#666666" stroke="#666666" points="44,-274 44,-274 106,-274 106,-274 44,-274"/>
<polygon fill="none" stroke="#666666" points="26.5,-258 26.5,-304 105.5,-304 105.5,-258 26.5,-258"/>
</a>
</g>
</g>
<!-- Node2&#45;&gt;Node1 -->
<g id="edge1_Node000001_Node000002" class="edge">
<title>Node2&#45;&gt;Node1</title>
<g id="a_edge1_Node000001_Node000002"><a xlink:title=" ">
<path fill="none" stroke="#8b1a1a" d="M66,-247.54C66,-239.88 66,-231.29 66,-222.25"/>
<polygon fill="none" stroke="#8b1a1a" points="62.5,-247.69 66,-257.69 69.5,-247.69 62.5,-247.69"/>
</a>
</g>
</g>
</g>
</svg>
