<?xml version="1.0" encoding="UTF-8" standalone="no"?>
<!DOCTYPE svg PUBLIC "-//W3C//DTD SVG 1.1//EN"
 "http://www.w3.org/Graphics/SVG/1.1/DTD/svg11.dtd">
<!-- Generated by graphviz version 2.48.0 (20210717.1556)
 -->
<!-- Title: epub::navigation Pages: 1 -->
<svg width="120pt" height="226pt"
 viewBox="0.00 0.00 120.00 226.00" xmlns="http://www.w3.org/2000/svg" xmlns:xlink="http://www.w3.org/1999/xlink">
<g id="graph0" class="graph" transform="scale(1 1) rotate(0) translate(4 222)">
<title>epub::navigation</title>
<!-- Node1 -->
<g id="Node000001" class="node">
<title>Node1</title>
<g id="a_Node000001"><a xlink:title="Generate a navigation (Table of Contents) document.">
<polygon fill="#999999" stroke="transparent" points="97.5,-116 14.5,-116 14.5,0 97.5,0 97.5,-116"/>
<text text-anchor="start" x="19.8" y="-104" font-family="Helvetica,sans-Serif" font-size="10.00">epub::navigation</text>
<text text-anchor="start" x="23.33" y="-90" font-family="Helvetica,sans-Serif" font-size="10.00">&#45;</text>
<text text-anchor="start" x="35" y="-90" font-family="Helvetica,sans-Serif" font-size="10.00">_stylesheet</text>
<text text-anchor="start" x="22.08" y="-76" font-family="Helvetica,sans-Serif" font-size="10.00">+</text>
<text text-anchor="start" x="35" y="-76" font-family="Helvetica,sans-Serif" font-size="10.00">add()</text>
<text text-anchor="start" x="22.08" y="-62" font-family="Helvetica,sans-Serif" font-size="10.00">+</text>
<text text-anchor="start" x="35" y="-62" font-family="Helvetica,sans-Serif" font-size="10.00">stylesheet()</text>
<text text-anchor="start" x="22.08" y="-48" font-family="Helvetica,sans-Serif" font-size="10.00">+</text>
<text text-anchor="start" x="35" y="-48" font-family="Helvetica,sans-Serif" font-size="10.00">stylesheet()</text>
<text text-anchor="start" x="22.08" y="-34" font-family="Helvetica,sans-Serif" font-size="10.00">+</text>
<text text-anchor="start" x="35" y="-34" font-family="Helvetica,sans-Serif" font-size="10.00">write()</text>
<text text-anchor="start" x="22.08" y="-20" font-family="Helvetica,sans-Serif" font-size="10.00">+</text>
<text text-anchor="start" x="35" y="-20" font-family="Helvetica,sans-Serif" font-size="10.00">begin()</text>
<text text-anchor="start" x="22.08" y="-6" font-family="Helvetica,sans-Serif" font-size="10.00">+</text>
<text text-anchor="start" x="35" y="-6" font-family="Helvetica,sans-Serif" font-size="10.00">end()</text>
<polygon fill="#666666" stroke="#666666" points="15,-100 15,-100 98,-100 98,-100 15,-100"/>
<polygon fill="#666666" stroke="#666666" points="15,-86 15,-86 33,-86 33,-86 15,-86"/>
<polygon fill="#666666" stroke="#666666" points="33,-86 33,-86 98,-86 98,-86 33,-86"/>
<polygon fill="none" stroke="#666666" points="14.5,0 14.5,-116 97.5,-116 97.5,0 14.5,0"/>
</a>
</g>
</g>
<!-- Node2 -->
<g id="Node000002" class="node">
<title>Node2</title>
<g id="a_Node000002"><a xlink:title=" ">
<polygon fill="white" stroke="transparent" points="112,-218 0,-218 0,-162 112,-162 112,-218"/>
<text text-anchor="start" x="4.73" y="-206" font-family="Helvetica,sans-Serif" font-size="10.00">std::vector&lt; weak_item</text>
<text text-anchor="start" x="43.08" y="-196" font-family="Helvetica,sans-Serif" font-size="10.00">_ptr &gt;</text>
<text text-anchor="start" x="17.08" y="-182" font-family="Helvetica,sans-Serif" font-size="10.00">+</text>
<text text-anchor="start" x="40" y="-182" font-family="Helvetica,sans-Serif" font-size="10.00">elements</text>
<text text-anchor="start" x="54.61" y="-168" font-family="Helvetica,sans-Serif" font-size="10.00"> </text>
<polygon fill="#666666" stroke="#666666" points="0,-192 0,-192 112,-192 112,-192 0,-192"/>
<polygon fill="#666666" stroke="#666666" points="0,-178 0,-178 38,-178 38,-178 0,-178"/>
<polygon fill="#666666" stroke="#666666" points="38,-178 38,-178 112,-178 112,-178 38,-178"/>
<polygon fill="none" stroke="#666666" points="0,-162 0,-218 112,-218 112,-162 0,-162"/>
</a>
</g>
</g>
<!-- Node2&#45;&gt;Node1 -->
<g id="edge1_Node000001_Node000002" class="edge">
<title>Node2&#45;&gt;Node1</title>
<g id="a_edge1_Node000001_Node000002"><a xlink:title=" ">
<path fill="none" stroke="#63b8ff" d="M56,-161.75C56,-151.91 56,-140.31 56,-128.51"/>
<polygon fill="none" stroke="#63b8ff" points="56,-128.21 52,-122.21 56,-116.21 60,-122.21 56,-128.21"/>
</a>
</g>
<text text-anchor="middle" x="73.78" y="-136" font-family="Helvetica,sans-Serif" font-size="10.00" fill="grey"> &#45;_items</text>
</g>
</g>
</svg>
