<?xml version="1.0" encoding="UTF-8" standalone="no"?>
<!DOCTYPE svg PUBLIC "-//W3C//DTD SVG 1.1//EN"
 "http://www.w3.org/Graphics/SVG/1.1/DTD/svg11.dtd">
<!-- Generated by graphviz version 2.48.0 (20210717.1556)
 -->
<!-- Title: cli::flag_option Pages: 1 -->
<svg width="133pt" height="376pt"
 viewBox="0.00 0.00 133.00 376.00" xmlns="http://www.w3.org/2000/svg" xmlns:xlink="http://www.w3.org/1999/xlink">
<g id="graph0" class="graph" transform="scale(1 1) rotate(0) translate(4 372)">
<title>cli::flag_option</title>
<!-- Node1 -->
<g id="Node000001" class="node">
<title>Node1</title>
<g id="a_Node000001"><a xlink:title=" ">
<polygon fill="#999999" stroke="transparent" points="124,-104 1,-104 1,0 124,0 124,-104"/>
<text text-anchor="start" x="31.03" y="-92" font-family="Helvetica,sans-Serif" font-size="10.00">cli::flag_option</text>
<text text-anchor="start" x="6.33" y="-78" font-family="Helvetica,sans-Serif" font-size="10.00">&#45;</text>
<text text-anchor="start" x="14.5" y="-78" font-family="Helvetica,sans-Serif" font-size="10.00">std::function&lt; void</text>
<text text-anchor="start" x="14.5" y="-68" font-family="Helvetica,sans-Serif" font-size="10.00">()&gt; _cb</text>
<text text-anchor="start" x="5.08" y="-54" font-family="Helvetica,sans-Serif" font-size="10.00">+</text>
<text text-anchor="start" x="14.5" y="-54" font-family="Helvetica,sans-Serif" font-size="10.00">flag_option(Callback</text>
<text text-anchor="start" x="14.5" y="-44" font-family="Helvetica,sans-Serif" font-size="10.00"> &amp;&amp;cb)</text>
<text text-anchor="start" x="5.08" y="-30" font-family="Helvetica,sans-Serif" font-size="10.00">+</text>
<text text-anchor="start" x="14.5" y="-30" font-family="Helvetica,sans-Serif" font-size="10.00">bool needs_arg() const</text>
<text text-anchor="start" x="14.5" y="-20" font-family="Helvetica,sans-Serif" font-size="10.00"> noexcept override</text>
<text text-anchor="start" x="5.08" y="-6" font-family="Helvetica,sans-Serif" font-size="10.00">+</text>
<text text-anchor="start" x="14.5" y="-6" font-family="Helvetica,sans-Serif" font-size="10.00">void set() const override</text>
<polygon fill="#666666" stroke="#666666" points="1.5,-88 1.5,-88 124.5,-88 124.5,-88 1.5,-88"/>
<polygon fill="#666666" stroke="#666666" points="1.5,-64 1.5,-64 12.5,-64 12.5,-64 1.5,-64"/>
<polygon fill="#666666" stroke="#666666" points="12.5,-64 12.5,-64 124.5,-64 124.5,-64 12.5,-64"/>
<polygon fill="none" stroke="#666666" points="1,0 1,-104 124,-104 124,0 1,0"/>
</a>
</g>
</g>
<!-- Node2 -->
<g id="Node000002" class="node">
<title>Node2</title>
<g id="a_Node000002"><a xlink:href="classcli_1_1option.html" target="_top" xlink:title=" ">
<polygon fill="white" stroke="transparent" points="125,-368 0,-368 0,-140 125,-140 125,-368"/>
<text text-anchor="start" x="41.88" y="-356" font-family="Helvetica,sans-Serif" font-size="10.00">cli::option</text>
<text text-anchor="start" x="61.61" y="-342" font-family="Helvetica,sans-Serif" font-size="10.00"> </text>
<text text-anchor="start" x="4.08" y="-328" font-family="Helvetica,sans-Serif" font-size="10.00">+</text>
<text text-anchor="start" x="13.5" y="-328" font-family="Helvetica,sans-Serif" font-size="10.00">option()</text>
<text text-anchor="start" x="4.08" y="-314" font-family="Helvetica,sans-Serif" font-size="10.00">+</text>
<text text-anchor="start" x="13.5" y="-314" font-family="Helvetica,sans-Serif" font-size="10.00">option(const option</text>
<text text-anchor="start" x="13.5" y="-304" font-family="Helvetica,sans-Serif" font-size="10.00"> &amp;)=default</text>
<text text-anchor="start" x="4.08" y="-290" font-family="Helvetica,sans-Serif" font-size="10.00">+</text>
<text text-anchor="start" x="13.5" y="-290" font-family="Helvetica,sans-Serif" font-size="10.00">option(option &amp;&amp;)</text>
<text text-anchor="start" x="13.5" y="-280" font-family="Helvetica,sans-Serif" font-size="10.00">=default</text>
<text text-anchor="start" x="4.08" y="-266" font-family="Helvetica,sans-Serif" font-size="10.00">+</text>
<text text-anchor="start" x="13.5" y="-266" font-family="Helvetica,sans-Serif" font-size="10.00">option &amp; operator=</text>
<text text-anchor="start" x="13.5" y="-256" font-family="Helvetica,sans-Serif" font-size="10.00">(const option &amp;)=default</text>
<text text-anchor="start" x="4.08" y="-242" font-family="Helvetica,sans-Serif" font-size="10.00">+</text>
<text text-anchor="start" x="13.5" y="-242" font-family="Helvetica,sans-Serif" font-size="10.00">option &amp; operator=</text>
<text text-anchor="start" x="13.5" y="-232" font-family="Helvetica,sans-Serif" font-size="10.00">(option &amp;&amp;)=default</text>
<text text-anchor="start" x="4.08" y="-218" font-family="Helvetica,sans-Serif" font-size="10.00">+</text>
<text text-anchor="start" x="13.5" y="-218" font-family="Helvetica,sans-Serif" font-size="10.00">virtual ~option()=default</text>
<text text-anchor="start" x="4.08" y="-204" font-family="Helvetica,sans-Serif" font-size="10.00">+</text>
<text text-anchor="start" x="13.5" y="-204" font-family="Helvetica,sans-Serif" font-size="10.00">virtual bool needs</text>
<text text-anchor="start" x="13.5" y="-194" font-family="Helvetica,sans-Serif" font-size="10.00">_arg() const noexcept=0</text>
<text text-anchor="start" x="4.08" y="-180" font-family="Helvetica,sans-Serif" font-size="10.00">+</text>
<text text-anchor="start" x="13.5" y="-180" font-family="Helvetica,sans-Serif" font-size="10.00">virtual void set()</text>
<text text-anchor="start" x="13.5" y="-170" font-family="Helvetica,sans-Serif" font-size="10.00"> const</text>
<text text-anchor="start" x="4.08" y="-156" font-family="Helvetica,sans-Serif" font-size="10.00">+</text>
<text text-anchor="start" x="13.5" y="-156" font-family="Helvetica,sans-Serif" font-size="10.00">virtual void set_arg</text>
<text text-anchor="start" x="13.5" y="-146" font-family="Helvetica,sans-Serif" font-size="10.00">(std::string) const</text>
<polygon fill="#666666" stroke="#666666" points="0.5,-352 0.5,-352 125.5,-352 125.5,-352 0.5,-352"/>
<polygon fill="#666666" stroke="#666666" points="0.5,-338 0.5,-338 125.5,-338 125.5,-338 0.5,-338"/>
<polygon fill="none" stroke="#666666" points="0,-140 0,-368 125,-368 125,-140 0,-140"/>
</a>
</g>
</g>
<!-- Node2&#45;&gt;Node1 -->
<g id="edge1_Node000001_Node000002" class="edge">
<title>Node2&#45;&gt;Node1</title>
<g id="a_edge1_Node000001_Node000002"><a xlink:title=" ">
<path fill="none" stroke="#63b8ff" d="M62.5,-129.78C62.5,-120.94 62.5,-112.35 62.5,-104.32"/>
<polygon fill="none" stroke="#63b8ff" points="59,-129.85 62.5,-139.85 66,-129.85 59,-129.85"/>
</a>
</g>
</g>
</g>
</svg>
