<?xml version="1.0" encoding="UTF-8" standalone="no"?>
<!DOCTYPE svg PUBLIC "-//W3C//DTD SVG 1.1//EN"
 "http://www.w3.org/Graphics/SVG/1.1/DTD/svg11.dtd">
<!-- Generated by graphviz version 2.48.0 (20210717.1556)
 -->
<!-- Title: page::push_back Pages: 1 -->
<svg width="229pt" height="62pt"
 viewBox="0.00 0.00 229.44 62.00" xmlns="http://www.w3.org/2000/svg" xmlns:xlink="http://www.w3.org/1999/xlink">
<g id="graph0" class="graph" transform="scale(1 1) rotate(0) translate(4 58)">
<title>page::push_back</title>
<!-- Node1 -->
<g id="Node000001" class="node">
<title>Node1</title>
<g id="a_Node000001"><a xlink:title="Add an image to the collection.">
<polygon fill="#999999" stroke="#666666" points="92.26,-36 -0.09,-36 -0.09,-18 92.26,-18 92.26,-36"/>
<text text-anchor="middle" x="46.09" y="-24" font-family="Helvetica,sans-Serif" font-size="10.00">page::push_back</text>
</a>
</g>
</g>
<!-- Node2 -->
<g id="Node000002" class="node">
<title>Node2</title>
<g id="a_Node000002"><a xlink:href="structimage__ref.html#ab2d69f752aa3e1f3cdee87fcd50bb4a4" target="_top" xlink:title=" ">
<polygon fill="white" stroke="#666666" points="221.58,-54 128.04,-54 128.04,-36 221.58,-36 221.58,-54"/>
<text text-anchor="middle" x="174.81" y="-42" font-family="Helvetica,sans-Serif" font-size="10.00">image_ref::height</text>
</a>
</g>
</g>
<!-- Node1&#45;&gt;Node2 -->
<g id="edge1_Node000001_Node000002" class="edge">
<title>Node1&#45;&gt;Node2</title>
<g id="a_edge1_Node000001_Node000002"><a xlink:title=" ">
<path fill="none" stroke="#63b8ff" d="M92.48,-33.45C100.66,-34.61 109.27,-35.83 117.71,-37.03"/>
<polygon fill="#63b8ff" stroke="#63b8ff" points="117.49,-40.54 127.88,-38.48 118.47,-33.6 117.49,-40.54"/>
</a>
</g>
</g>
<!-- Node3 -->
<g id="Node000003" class="node">
<title>Node3</title>
<g id="a_Node000003"><a xlink:href="structimage__ref.html#add1c38f04b83987cfa0da7d3db88f2fb" target="_top" xlink:title=" ">
<polygon fill="white" stroke="#666666" points="219.68,-18 129.94,-18 129.94,0 219.68,0 219.68,-18"/>
<text text-anchor="middle" x="174.81" y="-6" font-family="Helvetica,sans-Serif" font-size="10.00">image_ref::width</text>
</a>
</g>
</g>
<!-- Node1&#45;&gt;Node3 -->
<g id="edge2_Node000001_Node000003" class="edge">
<title>Node1&#45;&gt;Node3</title>
<g id="a_edge2_Node000001_Node000003"><a xlink:title=" ">
<path fill="none" stroke="#63b8ff" d="M92.48,-20.55C101.35,-19.29 110.74,-17.96 119.86,-16.66"/>
<polygon fill="#63b8ff" stroke="#63b8ff" points="120.6,-20.09 130.01,-15.22 119.61,-13.16 120.6,-20.09"/>
</a>
</g>
</g>
</g>
</svg>
