<?xml version="1.0" encoding="UTF-8" standalone="no"?>
<!DOCTYPE svg PUBLIC "-//W3C//DTD SVG 1.1//EN"
 "http://www.w3.org/Graphics/SVG/1.1/DTD/svg11.dtd">
<!-- Generated by graphviz version 2.48.0 (20210717.1556)
 -->
<!-- Title: epub::id_in_use Pages: 1 -->
<svg width="96pt" height="232pt"
 viewBox="0.00 0.00 96.00 232.00" xmlns="http://www.w3.org/2000/svg" xmlns:xlink="http://www.w3.org/1999/xlink">
<g id="graph0" class="graph" transform="scale(1 1) rotate(0) translate(4 228)">
<title>epub::id_in_use</title>
<!-- Node1 -->
<g id="Node000001" class="node">
<title>Node1</title>
<g id="a_Node000001"><a xlink:title=" ">
<polygon fill="#999999" stroke="transparent" points="84,-60 4,-60 4,0 84,0 84,-60"/>
<text text-anchor="start" x="8.69" y="-48" font-family="Helvetica,sans-Serif" font-size="10.00">epub::id_in_use</text>
<text text-anchor="start" x="42.61" y="-34" font-family="Helvetica,sans-Serif" font-size="10.00"> </text>
<text text-anchor="start" x="11.08" y="-20" font-family="Helvetica,sans-Serif" font-size="10.00">+</text>
<text text-anchor="start" x="24" y="-20" font-family="Helvetica,sans-Serif" font-size="10.00">id_in_use()</text>
<text text-anchor="start" x="12.33" y="-6" font-family="Helvetica,sans-Serif" font-size="10.00">&#45;</text>
<text text-anchor="start" x="24" y="-6" font-family="Helvetica,sans-Serif" font-size="10.00">id_in_use()</text>
<polygon fill="#666666" stroke="#666666" points="4,-44 4,-44 84,-44 84,-44 4,-44"/>
<polygon fill="#666666" stroke="#666666" points="4,-30 4,-30 84,-30 84,-30 4,-30"/>
<polygon fill="none" stroke="#666666" points="4,0 4,-60 84,-60 84,0 4,0"/>
</a>
</g>
</g>
<!-- Node2 -->
<g id="Node000002" class="node">
<title>Node2</title>
<g id="a_Node000002"><a xlink:title=" ">
<polygon fill="white" stroke="transparent" points="88,-142 0,-142 0,-96 88,-96 88,-142"/>
<text text-anchor="start" x="4.54" y="-130" font-family="Helvetica,sans-Serif" font-size="10.00">std::runtime_error</text>
<text text-anchor="start" x="42.61" y="-116" font-family="Helvetica,sans-Serif" font-size="10.00"> </text>
<text text-anchor="start" x="42.61" y="-102" font-family="Helvetica,sans-Serif" font-size="10.00"> </text>
<polygon fill="#666666" stroke="#666666" points="0,-126 0,-126 88,-126 88,-126 0,-126"/>
<polygon fill="#666666" stroke="#666666" points="0,-112 0,-112 88,-112 88,-112 0,-112"/>
<polygon fill="none" stroke="#666666" points="0,-96 0,-142 88,-142 88,-96 0,-96"/>
</a>
</g>
</g>
<!-- Node2&#45;&gt;Node1 -->
<g id="edge1_Node000001_Node000002" class="edge">
<title>Node2&#45;&gt;Node1</title>
<g id="a_edge1_Node000001_Node000002"><a xlink:title=" ">
<path fill="none" stroke="#63b8ff" d="M44,-85.5C44,-77.2 44,-68.34 44,-60.23"/>
<polygon fill="none" stroke="#63b8ff" points="40.5,-85.6 44,-95.6 47.5,-85.6 40.5,-85.6"/>
</a>
</g>
</g>
<!-- Node3 -->
<g id="Node000003" class="node">
<title>Node3</title>
<g id="a_Node000003"><a xlink:title=" ">
<polygon fill="white" stroke="transparent" points="79.5,-224 8.5,-224 8.5,-178 79.5,-178 79.5,-224"/>
<text text-anchor="start" x="13.65" y="-212" font-family="Helvetica,sans-Serif" font-size="10.00">std::exception</text>
<text text-anchor="start" x="43.11" y="-198" font-family="Helvetica,sans-Serif" font-size="10.00"> </text>
<text text-anchor="start" x="43.11" y="-184" font-family="Helvetica,sans-Serif" font-size="10.00"> </text>
<polygon fill="#666666" stroke="#666666" points="9,-208 9,-208 80,-208 80,-208 9,-208"/>
<polygon fill="#666666" stroke="#666666" points="9,-194 9,-194 80,-194 80,-194 9,-194"/>
<polygon fill="none" stroke="#666666" points="8.5,-178 8.5,-224 79.5,-224 79.5,-178 8.5,-178"/>
</a>
</g>
</g>
<!-- Node3&#45;&gt;Node2 -->
<g id="edge2_Node000002_Node000003" class="edge">
<title>Node3&#45;&gt;Node2</title>
<g id="a_edge2_Node000002_Node000003"><a xlink:title=" ">
<path fill="none" stroke="#63b8ff" d="M44,-167.63C44,-159.08 44,-150.04 44,-142.16"/>
<polygon fill="none" stroke="#63b8ff" points="40.5,-167.72 44,-177.72 47.5,-167.72 40.5,-167.72"/>
</a>
</g>
</g>
</g>
</svg>
