<?xml version="1.0" encoding="UTF-8" standalone="no"?>
<!DOCTYPE svg PUBLIC "-//W3C//DTD SVG 1.1//EN"
 "http://www.w3.org/Graphics/SVG/1.1/DTD/svg11.dtd">
<!-- Generated by graphviz version 2.48.0 (20210717.1556)
 -->
<!-- Title: cli::option Pages: 1 -->
<svg width="78pt" height="166pt"
 viewBox="0.00 0.00 78.00 166.00" xmlns="http://www.w3.org/2000/svg" xmlns:xlink="http://www.w3.org/1999/xlink">
<g id="graph0" class="graph" transform="scale(1 1) rotate(0) translate(4 162)">
<title>cli::option</title>
<!-- Node1 -->
<g id="Node000001" class="node">
<title>Node1</title>
<g id="a_Node000001"><a xlink:title=" ">
<polygon fill="#999999" stroke="transparent" points="70,-158 0,-158 0,0 70,0 70,-158"/>
<text text-anchor="start" x="13.88" y="-146" font-family="Helvetica,sans-Serif" font-size="10.00">cli::option</text>
<text text-anchor="start" x="33.61" y="-132" font-family="Helvetica,sans-Serif" font-size="10.00"> </text>
<text text-anchor="start" x="3.58" y="-118" font-family="Helvetica,sans-Serif" font-size="10.00">+</text>
<text text-anchor="start" x="13" y="-118" font-family="Helvetica,sans-Serif" font-size="10.00">option()</text>
<text text-anchor="start" x="3.58" y="-104" font-family="Helvetica,sans-Serif" font-size="10.00">+</text>
<text text-anchor="start" x="13" y="-104" font-family="Helvetica,sans-Serif" font-size="10.00">option()</text>
<text text-anchor="start" x="3.58" y="-90" font-family="Helvetica,sans-Serif" font-size="10.00">+</text>
<text text-anchor="start" x="13" y="-90" font-family="Helvetica,sans-Serif" font-size="10.00">option()</text>
<text text-anchor="start" x="3.58" y="-76" font-family="Helvetica,sans-Serif" font-size="10.00">+</text>
<text text-anchor="start" x="13" y="-76" font-family="Helvetica,sans-Serif" font-size="10.00">operator=()</text>
<text text-anchor="start" x="3.58" y="-62" font-family="Helvetica,sans-Serif" font-size="10.00">+</text>
<text text-anchor="start" x="13" y="-62" font-family="Helvetica,sans-Serif" font-size="10.00">operator=()</text>
<text text-anchor="start" x="3.58" y="-48" font-family="Helvetica,sans-Serif" font-size="10.00">+</text>
<text text-anchor="start" x="13" y="-48" font-family="Helvetica,sans-Serif" font-size="10.00">~option()</text>
<text text-anchor="start" x="3.58" y="-34" font-family="Helvetica,sans-Serif" font-size="10.00">+</text>
<text text-anchor="start" x="13" y="-34" font-family="Helvetica,sans-Serif" font-size="10.00">needs_arg()</text>
<text text-anchor="start" x="3.58" y="-20" font-family="Helvetica,sans-Serif" font-size="10.00">+</text>
<text text-anchor="start" x="13" y="-20" font-family="Helvetica,sans-Serif" font-size="10.00">set()</text>
<text text-anchor="start" x="3.58" y="-6" font-family="Helvetica,sans-Serif" font-size="10.00">+</text>
<text text-anchor="start" x="13" y="-6" font-family="Helvetica,sans-Serif" font-size="10.00">set_arg()</text>
<polygon fill="#666666" stroke="#666666" points="0,-142 0,-142 70,-142 70,-142 0,-142"/>
<polygon fill="#666666" stroke="#666666" points="0,-128 0,-128 70,-128 70,-128 0,-128"/>
<polygon fill="none" stroke="#666666" points="0,0 0,-158 70,-158 70,0 0,0"/>
</a>
</g>
</g>
</g>
</svg>
