<?xml version="1.0" encoding="UTF-8" standalone="no"?>
<!DOCTYPE svg PUBLIC "-//W3C//DTD SVG 1.1//EN"
 "http://www.w3.org/Graphics/SVG/1.1/DTD/svg11.dtd">
<!-- Generated by graphviz version 2.48.0 (20210717.1556)
 -->
<!-- Title: epub::metadata Pages: 1 -->
<svg width="162pt" height="777pt"
 viewBox="0.00 0.00 161.50 777.00" xmlns="http://www.w3.org/2000/svg" xmlns:xlink="http://www.w3.org/1999/xlink">
<g id="graph0" class="graph" transform="scale(1 1) rotate(0) translate(4 773)">
<title>epub::metadata</title>
<!-- Node1 -->
<g id="Node000001" class="node">
<title>Node1</title>
<g id="a_Node000001"><a xlink:title=" ">
<polygon fill="#999999" stroke="transparent" points="83.5,-214 4.5,-214 4.5,0 83.5,0 83.5,-214"/>
<text text-anchor="start" x="9.75" y="-202" font-family="Helvetica,sans-Serif" font-size="10.00">epub::metadata</text>
<text text-anchor="start" x="43.11" y="-188" font-family="Helvetica,sans-Serif" font-size="10.00"> </text>
<text text-anchor="start" x="12.08" y="-174" font-family="Helvetica,sans-Serif" font-size="10.00">+</text>
<text text-anchor="start" x="25" y="-174" font-family="Helvetica,sans-Serif" font-size="10.00">metadata()</text>
<text text-anchor="start" x="12.08" y="-160" font-family="Helvetica,sans-Serif" font-size="10.00">+</text>
<text text-anchor="start" x="25" y="-160" font-family="Helvetica,sans-Serif" font-size="10.00">identifier()</text>
<text text-anchor="start" x="12.08" y="-146" font-family="Helvetica,sans-Serif" font-size="10.00">+</text>
<text text-anchor="start" x="25" y="-146" font-family="Helvetica,sans-Serif" font-size="10.00">title()</text>
<text text-anchor="start" x="12.08" y="-132" font-family="Helvetica,sans-Serif" font-size="10.00">+</text>
<text text-anchor="start" x="25" y="-132" font-family="Helvetica,sans-Serif" font-size="10.00">title()</text>
<text text-anchor="start" x="12.08" y="-118" font-family="Helvetica,sans-Serif" font-size="10.00">+</text>
<text text-anchor="start" x="25" y="-118" font-family="Helvetica,sans-Serif" font-size="10.00">language()</text>
<text text-anchor="start" x="12.08" y="-104" font-family="Helvetica,sans-Serif" font-size="10.00">+</text>
<text text-anchor="start" x="25" y="-104" font-family="Helvetica,sans-Serif" font-size="10.00">creators()</text>
<text text-anchor="start" x="12.08" y="-90" font-family="Helvetica,sans-Serif" font-size="10.00">+</text>
<text text-anchor="start" x="25" y="-90" font-family="Helvetica,sans-Serif" font-size="10.00">creators()</text>
<text text-anchor="start" x="13.05" y="-76" font-family="Helvetica,sans-Serif" font-size="10.00">*</text>
<text text-anchor="start" x="25" y="-76" font-family="Helvetica,sans-Serif" font-size="10.00">identifier()</text>
<text text-anchor="start" x="13.05" y="-62" font-family="Helvetica,sans-Serif" font-size="10.00">*</text>
<text text-anchor="start" x="25" y="-62" font-family="Helvetica,sans-Serif" font-size="10.00">title()</text>
<text text-anchor="start" x="13.05" y="-48" font-family="Helvetica,sans-Serif" font-size="10.00">*</text>
<text text-anchor="start" x="25" y="-48" font-family="Helvetica,sans-Serif" font-size="10.00">title()</text>
<text text-anchor="start" x="13.05" y="-34" font-family="Helvetica,sans-Serif" font-size="10.00">*</text>
<text text-anchor="start" x="25" y="-34" font-family="Helvetica,sans-Serif" font-size="10.00">language()</text>
<text text-anchor="start" x="13.05" y="-20" font-family="Helvetica,sans-Serif" font-size="10.00">*</text>
<text text-anchor="start" x="25" y="-20" font-family="Helvetica,sans-Serif" font-size="10.00">creators()</text>
<text text-anchor="start" x="13.05" y="-6" font-family="Helvetica,sans-Serif" font-size="10.00">*</text>
<text text-anchor="start" x="25" y="-6" font-family="Helvetica,sans-Serif" font-size="10.00">creators()</text>
<polygon fill="#666666" stroke="#666666" points="5,-198 5,-198 84,-198 84,-198 5,-198"/>
<polygon fill="#666666" stroke="#666666" points="5,-184 5,-184 84,-184 84,-184 5,-184"/>
<polygon fill="none" stroke="#666666" points="4.5,0 4.5,-214 83.5,-214 83.5,0 4.5,0"/>
</a>
</g>
</g>
<!-- Node2 -->
<g id="Node000002" class="node">
<title>Node2</title>
<g id="a_Node000002"><a xlink:title=" ">
<polygon fill="white" stroke="transparent" points="76,-676 12,-676 12,-630 76,-630 76,-676"/>
<text text-anchor="start" x="16.76" y="-664" font-family="Helvetica,sans-Serif" font-size="10.00">std::u8string</text>
<text text-anchor="start" x="42.61" y="-650" font-family="Helvetica,sans-Serif" font-size="10.00"> </text>
<text text-anchor="start" x="42.61" y="-636" font-family="Helvetica,sans-Serif" font-size="10.00"> </text>
<polygon fill="#666666" stroke="#666666" points="12,-660 12,-660 76,-660 76,-660 12,-660"/>
<polygon fill="#666666" stroke="#666666" points="12,-646 12,-646 76,-646 76,-646 12,-646"/>
<polygon fill="none" stroke="#666666" points="12,-630 12,-676 76,-676 76,-630 12,-630"/>
</a>
</g>
</g>
<!-- Node2&#45;&gt;Node1 -->
<g id="edge1_Node000001_Node000002" class="edge">
<title>Node2&#45;&gt;Node1</title>
<g id="a_edge1_Node000001_Node000002"><a xlink:title=" ">
<path fill="none" stroke="#63b8ff" d="M44,-629.66C44,-562.43 44,-358.51 44,-226.43"/>
<polygon fill="none" stroke="#63b8ff" points="44,-226.28 40,-220.28 44,-214.28 48,-220.28 44,-226.28"/>
</a>
</g>
<text text-anchor="middle" x="69.02" y="-356" font-family="Helvetica,sans-Serif" font-size="10.00" fill="grey"> &#45;_identifier</text>
<text text-anchor="middle" x="69.02" y="-346" font-family="Helvetica,sans-Serif" font-size="10.00" fill="grey">&#45;_language</text>
<text text-anchor="middle" x="69.02" y="-336" font-family="Helvetica,sans-Serif" font-size="10.00" fill="grey">&#45;_title</text>
</g>
<!-- Node5 -->
<g id="Node000005" class="node">
<title>Node5</title>
<g id="a_Node000005"><a xlink:href="classepub_1_1creator.html" target="_top" xlink:title=" ">
<polygon fill="white" stroke="transparent" points="153.5,-564 56.5,-564 56.5,-382 153.5,-382 153.5,-564"/>
<text text-anchor="start" x="76.04" y="-552" font-family="Helvetica,sans-Serif" font-size="10.00">epub::creator</text>
<text text-anchor="start" x="104.11" y="-538" font-family="Helvetica,sans-Serif" font-size="10.00"> </text>
<text text-anchor="start" x="60.58" y="-524" font-family="Helvetica,sans-Serif" font-size="10.00">+</text>
<text text-anchor="start" x="70" y="-524" font-family="Helvetica,sans-Serif" font-size="10.00">creator()</text>
<text text-anchor="start" x="60.58" y="-510" font-family="Helvetica,sans-Serif" font-size="10.00">+</text>
<text text-anchor="start" x="70" y="-510" font-family="Helvetica,sans-Serif" font-size="10.00">creator()</text>
<text text-anchor="start" x="60.58" y="-496" font-family="Helvetica,sans-Serif" font-size="10.00">+</text>
<text text-anchor="start" x="70" y="-496" font-family="Helvetica,sans-Serif" font-size="10.00">creator()</text>
<text text-anchor="start" x="60.58" y="-482" font-family="Helvetica,sans-Serif" font-size="10.00">+</text>
<text text-anchor="start" x="70" y="-482" font-family="Helvetica,sans-Serif" font-size="10.00">operator=()</text>
<text text-anchor="start" x="60.58" y="-468" font-family="Helvetica,sans-Serif" font-size="10.00">+</text>
<text text-anchor="start" x="70" y="-468" font-family="Helvetica,sans-Serif" font-size="10.00">operator=()</text>
<text text-anchor="start" x="60.58" y="-454" font-family="Helvetica,sans-Serif" font-size="10.00">+</text>
<text text-anchor="start" x="70" y="-454" font-family="Helvetica,sans-Serif" font-size="10.00">operator const std</text>
<text text-anchor="start" x="70" y="-444" font-family="Helvetica,sans-Serif" font-size="10.00">::u8string &amp;()</text>
<text text-anchor="start" x="60.58" y="-430" font-family="Helvetica,sans-Serif" font-size="10.00">+</text>
<text text-anchor="start" x="70" y="-430" font-family="Helvetica,sans-Serif" font-size="10.00">file_as()</text>
<text text-anchor="start" x="60.58" y="-416" font-family="Helvetica,sans-Serif" font-size="10.00">+</text>
<text text-anchor="start" x="70" y="-416" font-family="Helvetica,sans-Serif" font-size="10.00">file_as()</text>
<text text-anchor="start" x="60.58" y="-402" font-family="Helvetica,sans-Serif" font-size="10.00">+</text>
<text text-anchor="start" x="70" y="-402" font-family="Helvetica,sans-Serif" font-size="10.00">role()</text>
<text text-anchor="start" x="60.58" y="-388" font-family="Helvetica,sans-Serif" font-size="10.00">+</text>
<text text-anchor="start" x="70" y="-388" font-family="Helvetica,sans-Serif" font-size="10.00">role()</text>
<polygon fill="#666666" stroke="#666666" points="57,-548 57,-548 154,-548 154,-548 57,-548"/>
<polygon fill="#666666" stroke="#666666" points="57,-534 57,-534 154,-534 154,-534 57,-534"/>
<polygon fill="none" stroke="#666666" points="56.5,-382 56.5,-564 153.5,-564 153.5,-382 56.5,-382"/>
</a>
</g>
</g>
<!-- Node2&#45;&gt;Node5 -->
<g id="edge5_Node000005_Node000002" class="edge">
<title>Node2&#45;&gt;Node5</title>
<g id="a_edge5_Node000005_Node000002"><a xlink:title=" ">
<path fill="none" stroke="#63b8ff" d="M51.6,-629.82C56.48,-615.58 63.2,-595.98 70.23,-575.47"/>
<polygon fill="none" stroke="#63b8ff" points="70.26,-575.37 68.42,-568.39 74.15,-564.02 75.99,-570.99 70.26,-575.37"/>
</a>
</g>
<text text-anchor="middle" x="89.4" y="-604" font-family="Helvetica,sans-Serif" font-size="10.00" fill="grey"> &#45;_creator</text>
<text text-anchor="middle" x="89.4" y="-594" font-family="Helvetica,sans-Serif" font-size="10.00" fill="grey">&#45;_file_as</text>
<text text-anchor="middle" x="89.4" y="-584" font-family="Helvetica,sans-Serif" font-size="10.00" fill="grey">&#45;_role</text>
</g>
<!-- Node3 -->
<g id="Node000003" class="node">
<title>Node3</title>
<g id="a_Node000003"><a xlink:title=" ">
<polygon fill="white" stroke="transparent" points="88,-769 0,-769 0,-713 88,-713 88,-769"/>
<text text-anchor="start" x="4.95" y="-757" font-family="Helvetica,sans-Serif" font-size="10.00">std::basic_string&lt;</text>
<text text-anchor="start" x="27.46" y="-747" font-family="Helvetica,sans-Serif" font-size="10.00"> Char &gt;</text>
<text text-anchor="start" x="42.61" y="-733" font-family="Helvetica,sans-Serif" font-size="10.00"> </text>
<text text-anchor="start" x="42.61" y="-719" font-family="Helvetica,sans-Serif" font-size="10.00"> </text>
<polygon fill="#666666" stroke="#666666" points="0,-743 0,-743 88,-743 88,-743 0,-743"/>
<polygon fill="#666666" stroke="#666666" points="0,-729 0,-729 88,-729 88,-729 0,-729"/>
<polygon fill="none" stroke="#666666" points="0,-713 0,-769 88,-769 88,-713 0,-713"/>
</a>
</g>
</g>
<!-- Node3&#45;&gt;Node2 -->
<g id="edge2_Node000002_Node000003" class="edge">
<title>Node3&#45;&gt;Node2</title>
<g id="a_edge2_Node000002_Node000003"><a xlink:title=" ">
<path fill="none" stroke="#63b8ff" d="M44,-702.78C44,-693.7 44,-684.27 44,-676.15"/>
<polygon fill="none" stroke="#63b8ff" points="40.5,-702.79 44,-712.79 47.5,-702.79 40.5,-702.79"/>
</a>
</g>
</g>
<!-- Node4 -->
<g id="Node000004" class="node">
<title>Node4</title>
<g id="a_Node000004"><a xlink:title=" ">
<polygon fill="white" stroke="transparent" points="149,-316 57,-316 57,-260 149,-260 149,-316"/>
<text text-anchor="start" x="61.73" y="-304" font-family="Helvetica,sans-Serif" font-size="10.00">std::vector&lt; epub::</text>
<text text-anchor="start" x="83.13" y="-294" font-family="Helvetica,sans-Serif" font-size="10.00">creator &gt;</text>
<text text-anchor="start" x="101.61" y="-280" font-family="Helvetica,sans-Serif" font-size="10.00"> </text>
<text text-anchor="start" x="101.61" y="-266" font-family="Helvetica,sans-Serif" font-size="10.00"> </text>
<polygon fill="#666666" stroke="#666666" points="57,-290 57,-290 149,-290 149,-290 57,-290"/>
<polygon fill="#666666" stroke="#666666" points="57,-276 57,-276 149,-276 149,-276 57,-276"/>
<polygon fill="none" stroke="#666666" points="57,-260 57,-316 149,-316 149,-260 57,-260"/>
</a>
</g>
</g>
<!-- Node4&#45;&gt;Node1 -->
<g id="edge3_Node000001_Node000004" class="edge">
<title>Node4&#45;&gt;Node1</title>
<g id="a_edge3_Node000001_Node000004"><a xlink:title=" ">
<path fill="none" stroke="#63b8ff" d="M94.04,-259.81C90.83,-250.08 86.98,-238.39 82.85,-225.88"/>
<polygon fill="none" stroke="#63b8ff" points="82.76,-225.59 77.08,-221.14 79,-214.19 84.68,-218.64 82.76,-225.59"/>
</a>
</g>
<text text-anchor="middle" x="110.9" y="-234" font-family="Helvetica,sans-Serif" font-size="10.00" fill="grey"> &#45;_creators</text>
</g>
<!-- Node5&#45;&gt;Node4 -->
<g id="edge4_Node000004_Node000005" class="edge">
<title>Node5&#45;&gt;Node4</title>
<g id="a_edge4_Node000004_Node000005"><a xlink:title=" ">
<path fill="none" stroke="#63b8ff" d="M104.01,-381.84C103.81,-363.09 103.6,-344.27 103.43,-328.52"/>
<polygon fill="none" stroke="#63b8ff" points="103.43,-328.08 99.36,-322.12 103.3,-316.08 107.36,-322.04 103.43,-328.08"/>
</a>
</g>
<text text-anchor="middle" x="127.6" y="-346" font-family="Helvetica,sans-Serif" font-size="10.00" fill="grey"> +elements</text>
</g>
</g>
</svg>
