<?xml version="1.0" encoding="UTF-8" standalone="no"?>
<!DOCTYPE svg PUBLIC "-//W3C//DTD SVG 1.1//EN"
 "http://www.w3.org/Graphics/SVG/1.1/DTD/svg11.dtd">
<!-- Generated by graphviz version 2.48.0 (20210717.1556)
 -->
<!-- Title: cli::option_processor::option_processor Pages: 1 -->
<svg width="547pt" height="57pt"
 viewBox="0.00 0.00 546.86 57.00" xmlns="http://www.w3.org/2000/svg" xmlns:xlink="http://www.w3.org/1999/xlink">
<g id="graph0" class="graph" transform="scale(1 1) rotate(0) translate(4 53)">
<title>cli::option_processor::option_processor</title>
<!-- Node1 -->
<g id="Node000001" class="node">
<title>Node1</title>
<g id="a_Node000001"><a xlink:title=" ">
<polygon fill="#999999" stroke="#666666" points="107.57,-28 0.14,-28 0.14,0 107.57,0 107.57,-28"/>
<text text-anchor="start" x="8" y="-16" font-family="Helvetica,sans-Serif" font-size="10.00">cli::option_processor</text>
<text text-anchor="middle" x="53.86" y="-6" font-family="Helvetica,sans-Serif" font-size="10.00">::option_processor</text>
</a>
</g>
</g>
<!-- Node2 -->
<g id="Node000002" class="node">
<title>Node2</title>
<g id="a_Node000002"><a xlink:href="classcli_1_1option__processor.html#a1beb9030eaaccca08a3e71378c66be4c" target="_top" xlink:title=" ">
<polygon fill="white" stroke="#666666" points="251.29,-49 143.86,-49 143.86,-21 251.29,-21 251.29,-49"/>
<text text-anchor="start" x="151.71" y="-37" font-family="Helvetica,sans-Serif" font-size="10.00">cli::option_processor</text>
<text text-anchor="middle" x="197.57" y="-27" font-family="Helvetica,sans-Serif" font-size="10.00">::add_flag</text>
</a>
</g>
</g>
<!-- Node1&#45;&gt;Node2 -->
<g id="edge1_Node000001_Node000002" class="edge">
<title>Node1&#45;&gt;Node2</title>
<g id="a_edge1_Node000001_Node000002"><a xlink:title=" ">
<path fill="none" stroke="#63b8ff" d="M107.63,-21.82C116.11,-23.08 124.97,-24.39 133.66,-25.68"/>
<polygon fill="#63b8ff" stroke="#63b8ff" points="133.35,-29.17 143.76,-27.17 134.38,-22.25 133.35,-29.17"/>
</a>
</g>
</g>
<!-- Node3 -->
<g id="Node000003" class="node">
<title>Node3</title>
<g id="a_Node000003"><a xlink:href="classcli_1_1option__processor.html#a46aa5749ada745f8fa0e8188d317c590" target="_top" xlink:title=" ">
<polygon fill="white" stroke="#666666" points="395,-28 287.57,-28 287.57,0 395,0 395,-28"/>
<text text-anchor="start" x="295.43" y="-16" font-family="Helvetica,sans-Serif" font-size="10.00">cli::option_processor</text>
<text text-anchor="middle" x="341.28" y="-6" font-family="Helvetica,sans-Serif" font-size="10.00">::usage</text>
</a>
</g>
</g>
<!-- Node1&#45;&gt;Node3 -->
<g id="edge5_Node000001_Node000003" class="edge">
<title>Node1&#45;&gt;Node3</title>
<g id="a_edge5_Node000001_Node000003"><a xlink:title=" ">
<path fill="none" stroke="#63b8ff" d="M107.95,-12.61C119.72,-12.36 132.14,-12.13 143.71,-12 191.58,-11.46 203.56,-11.46 251.43,-12 259.75,-12.09 268.5,-12.24 277.14,-12.4"/>
<polygon fill="#63b8ff" stroke="#63b8ff" points="277.12,-15.9 287.19,-12.61 277.27,-8.91 277.12,-15.9"/>
</a>
</g>
</g>
<!-- Node2&#45;&gt;Node3 -->
<g id="edge2_Node000002_Node000003" class="edge">
<title>Node2&#45;&gt;Node3</title>
<g id="a_edge2_Node000002_Node000003"><a xlink:title=" ">
<path fill="none" stroke="#63b8ff" d="M251.34,-27.18C259.82,-25.92 268.68,-24.61 277.37,-23.32"/>
<polygon fill="#63b8ff" stroke="#63b8ff" points="278.09,-26.75 287.47,-21.83 277.07,-19.83 278.09,-26.75"/>
</a>
</g>
</g>
<!-- Node4 -->
<g id="Node000004" class="node">
<title>Node4</title>
<g id="a_Node000004"><a xlink:href="classcli_1_1option__processor.html#a963a0b0a7cf5bf1d738f5d8d290d0ec1" target="_top" xlink:title=" ">
<polygon fill="white" stroke="#666666" points="538.71,-28 431.28,-28 431.28,0 538.71,0 538.71,-28"/>
<text text-anchor="start" x="439.14" y="-16" font-family="Helvetica,sans-Serif" font-size="10.00">cli::option_processor</text>
<text text-anchor="middle" x="485" y="-6" font-family="Helvetica,sans-Serif" font-size="10.00">::wrap</text>
</a>
</g>
</g>
<!-- Node3&#45;&gt;Node4 -->
<g id="edge3_Node000003_Node000004" class="edge">
<title>Node3&#45;&gt;Node4</title>
<g id="a_edge3_Node000003_Node000004"><a xlink:title=" ">
<path fill="none" stroke="#63b8ff" d="M395.05,-14C403.54,-14 412.39,-14 421.09,-14"/>
<polygon fill="#63b8ff" stroke="#63b8ff" points="421.19,-17.5 431.19,-14 421.19,-10.5 421.19,-17.5"/>
</a>
</g>
</g>
<!-- Node4&#45;&gt;Node4 -->
<g id="edge4_Node000004_Node000004" class="edge">
<title>Node4&#45;&gt;Node4</title>
<g id="a_edge4_Node000004_Node000004"><a xlink:title=" ">
<path fill="none" stroke="#63b8ff" d="M460.48,-28.15C454.08,-37.24 462.26,-46 485,-46 498.86,-46 507.31,-42.75 510.34,-38.15"/>
<polygon fill="#63b8ff" stroke="#63b8ff" points="513.83,-37.83 509.52,-28.15 506.85,-38.4 513.83,-37.83"/>
</a>
</g>
</g>
</g>
</svg>
