<?xml version="1.0" encoding="UTF-8" standalone="no"?>
<!DOCTYPE svg PUBLIC "-//W3C//DTD SVG 1.1//EN"
 "http://www.w3.org/Graphics/SVG/1.1/DTD/svg11.dtd">
<!-- Generated by graphviz version 2.48.0 (20210717.1556)
 -->
<!-- Title: book Pages: 1 -->
<svg width="87pt" height="150pt"
 viewBox="0.00 0.00 87.00 150.00" xmlns="http://www.w3.org/2000/svg" xmlns:xlink="http://www.w3.org/1999/xlink">
<g id="graph0" class="graph" transform="scale(1 1) rotate(0) translate(4 146)">
<title>book</title>
<!-- Node1 -->
<g id="Node000001" class="node">
<title>Node1</title>
<g id="a_Node000001"><a xlink:title=" ">
<polygon fill="#999999" stroke="transparent" points="79,-60 0,-60 0,0 79,0 79,-60"/>
<text text-anchor="start" x="29.16" y="-48" font-family="Helvetica,sans-Serif" font-size="10.00">book</text>
<text text-anchor="start" x="38.61" y="-34" font-family="Helvetica,sans-Serif" font-size="10.00"> </text>
<text text-anchor="start" x="4.08" y="-20" font-family="Helvetica,sans-Serif" font-size="10.00">+</text>
<text text-anchor="start" x="13.5" y="-20" font-family="Helvetica,sans-Serif" font-size="10.00">last_chapter()</text>
<text text-anchor="start" x="4.08" y="-6" font-family="Helvetica,sans-Serif" font-size="10.00">+</text>
<text text-anchor="start" x="13.5" y="-6" font-family="Helvetica,sans-Serif" font-size="10.00">add_chapter()</text>
<polygon fill="#666666" stroke="#666666" points="0.5,-44 0.5,-44 79.5,-44 79.5,-44 0.5,-44"/>
<polygon fill="#666666" stroke="#666666" points="0.5,-30 0.5,-30 79.5,-30 79.5,-30 0.5,-30"/>
<polygon fill="none" stroke="#666666" points="0,0 0,-60 79,-60 79,0 0,0"/>
</a>
</g>
</g>
<!-- Node2 -->
<g id="Node000002" class="node">
<title>Node2</title>
<g id="a_Node000002"><a xlink:title=" ">
<polygon fill="white" stroke="transparent" points="79,-142 0,-142 0,-96 79,-96 79,-142"/>
<text text-anchor="start" x="5.44" y="-130" font-family="Helvetica,sans-Serif" font-size="10.00">std::vector&lt; T &gt;</text>
<text text-anchor="start" x="9.58" y="-116" font-family="Helvetica,sans-Serif" font-size="10.00">+</text>
<text text-anchor="start" x="24.5" y="-116" font-family="Helvetica,sans-Serif" font-size="10.00">elements</text>
<text text-anchor="start" x="38.61" y="-102" font-family="Helvetica,sans-Serif" font-size="10.00"> </text>
<polygon fill="#666666" stroke="#666666" points="0.5,-126 0.5,-126 79.5,-126 79.5,-126 0.5,-126"/>
<polygon fill="#666666" stroke="#666666" points="0.5,-112 0.5,-112 22.5,-112 22.5,-112 0.5,-112"/>
<polygon fill="#666666" stroke="#666666" points="22.5,-112 22.5,-112 79.5,-112 79.5,-112 22.5,-112"/>
<polygon fill="none" stroke="#666666" points="0,-96 0,-142 79,-142 79,-96 0,-96"/>
</a>
</g>
</g>
<!-- Node2&#45;&gt;Node1 -->
<g id="edge1_Node000001_Node000002" class="edge">
<title>Node2&#45;&gt;Node1</title>
<g id="a_edge1_Node000001_Node000002"><a xlink:title=" ">
<path fill="none" stroke="#8b1a1a" d="M39.5,-85.5C39.5,-77.2 39.5,-68.34 39.5,-60.23"/>
<polygon fill="none" stroke="#8b1a1a" points="36,-85.6 39.5,-95.6 43,-85.6 36,-85.6"/>
</a>
</g>
</g>
</g>
</svg>
