<?xml version="1.0" encoding="UTF-8" standalone="no"?>
<!DOCTYPE svg PUBLIC "-//W3C//DTD SVG 1.1//EN"
 "http://www.w3.org/Graphics/SVG/1.1/DTD/svg11.dtd">
<!-- Generated by graphviz version 2.48.0 (20210717.1556)
 -->
<!-- Title: epub::manifest Pages: 1 -->
<svg width="97pt" height="299pt"
 viewBox="0.00 0.00 96.69 299.00" xmlns="http://www.w3.org/2000/svg" xmlns:xlink="http://www.w3.org/1999/xlink">
<g id="graph0" class="graph" transform="scale(1 1) rotate(0) translate(4 295)">
<title>epub::manifest</title>
<!-- Node1 -->
<g id="Node000001" class="node">
<title>Node1</title>
<g id="a_Node000001"><a xlink:title="A listing of all the assets in a container.">
<polygon fill="#999999" stroke="transparent" points="77,-116 2,-116 2,0 77,0 77,-116"/>
<text text-anchor="start" x="7.2" y="-104" font-family="Helvetica,sans-Serif" font-size="10.00">epub::manifest</text>
<text text-anchor="start" x="38.61" y="-90" font-family="Helvetica,sans-Serif" font-size="10.00"> </text>
<text text-anchor="start" x="8.08" y="-76" font-family="Helvetica,sans-Serif" font-size="10.00">+</text>
<text text-anchor="start" x="19.5" y="-76" font-family="Helvetica,sans-Serif" font-size="10.00">manifest()</text>
<text text-anchor="start" x="8.08" y="-62" font-family="Helvetica,sans-Serif" font-size="10.00">+</text>
<text text-anchor="start" x="19.5" y="-62" font-family="Helvetica,sans-Serif" font-size="10.00">manifest()</text>
<text text-anchor="start" x="8.08" y="-48" font-family="Helvetica,sans-Serif" font-size="10.00">+</text>
<text text-anchor="start" x="19.5" y="-48" font-family="Helvetica,sans-Serif" font-size="10.00">manifest()</text>
<text text-anchor="start" x="8.08" y="-34" font-family="Helvetica,sans-Serif" font-size="10.00">+</text>
<text text-anchor="start" x="19.5" y="-34" font-family="Helvetica,sans-Serif" font-size="10.00">~manifest()</text>
<text text-anchor="start" x="8.08" y="-20" font-family="Helvetica,sans-Serif" font-size="10.00">+</text>
<text text-anchor="start" x="19.5" y="-20" font-family="Helvetica,sans-Serif" font-size="10.00">operator=()</text>
<text text-anchor="start" x="8.08" y="-6" font-family="Helvetica,sans-Serif" font-size="10.00">+</text>
<text text-anchor="start" x="19.5" y="-6" font-family="Helvetica,sans-Serif" font-size="10.00">operator=()</text>
<polygon fill="#666666" stroke="#666666" points="2.5,-100 2.5,-100 77.5,-100 77.5,-100 2.5,-100"/>
<polygon fill="#666666" stroke="#666666" points="2.5,-86 2.5,-86 77.5,-86 77.5,-86 2.5,-86"/>
<polygon fill="none" stroke="#666666" points="2,0 2,-116 77,-116 77,0 2,0"/>
</a>
</g>
</g>
<!-- Node2 -->
<g id="Node000002" class="node">
<title>Node2</title>
<g id="a_Node000002"><a xlink:title=" ">
<polygon fill="white" stroke="transparent" points="79,-199 0,-199 0,-153 79,-153 79,-199"/>
<text text-anchor="start" x="5.44" y="-187" font-family="Helvetica,sans-Serif" font-size="10.00">std::vector&lt; T &gt;</text>
<text text-anchor="start" x="38.61" y="-173" font-family="Helvetica,sans-Serif" font-size="10.00"> </text>
<text text-anchor="start" x="38.61" y="-159" font-family="Helvetica,sans-Serif" font-size="10.00"> </text>
<polygon fill="#666666" stroke="#666666" points="0.5,-183 0.5,-183 79.5,-183 79.5,-183 0.5,-183"/>
<polygon fill="#666666" stroke="#666666" points="0.5,-169 0.5,-169 79.5,-169 79.5,-169 0.5,-169"/>
<polygon fill="none" stroke="#666666" points="0,-153 0,-199 79,-199 79,-153 0,-153"/>
</a>
</g>
</g>
<!-- Node2&#45;&gt;Node1 -->
<g id="edge1_Node000001_Node000002" class="edge">
<title>Node2&#45;&gt;Node1</title>
<g id="a_edge1_Node000001_Node000002"><a xlink:title=" ">
<path fill="none" stroke="#8b1a1a" d="M39.5,-142.65C39.5,-134.4 39.5,-125.3 39.5,-116.21"/>
<polygon fill="none" stroke="#8b1a1a" points="36,-142.91 39.5,-152.91 43,-142.91 36,-142.91"/>
</a>
</g>
</g>
<!-- Node3 -->
<g id="Node000003" class="node">
<title>Node3</title>
<g id="a_Node000003"><a xlink:title=" ">
<polygon fill="white" stroke="transparent" points="47.5,-291 31.5,-291 31.5,-245 47.5,-245 47.5,-291"/>
<text text-anchor="start" x="36.45" y="-279" font-family="Helvetica,sans-Serif" font-size="10.00">T</text>
<text text-anchor="start" x="38.11" y="-265" font-family="Helvetica,sans-Serif" font-size="10.00"> </text>
<text text-anchor="start" x="38.11" y="-251" font-family="Helvetica,sans-Serif" font-size="10.00"> </text>
<polygon fill="#666666" stroke="#666666" points="31.5,-275 31.5,-275 47.5,-275 47.5,-275 31.5,-275"/>
<polygon fill="#666666" stroke="#666666" points="31.5,-261 31.5,-261 47.5,-261 47.5,-261 31.5,-261"/>
<polygon fill="none" stroke="#666666" points="31.5,-245 31.5,-291 47.5,-291 47.5,-245 31.5,-245"/>
</a>
</g>
</g>
<!-- Node3&#45;&gt;Node2 -->
<g id="edge2_Node000002_Node000003" class="edge">
<title>Node3&#45;&gt;Node2</title>
<g id="a_edge2_Node000002_Node000003"><a xlink:title=" ">
<path fill="none" stroke="#63b8ff" d="M39.5,-244.75C39.5,-234.69 39.5,-222.57 39.5,-211.38"/>
<polygon fill="none" stroke="#63b8ff" points="39.5,-211.3 35.5,-205.3 39.5,-199.3 43.5,-205.3 39.5,-211.3"/>
</a>
</g>
<text text-anchor="middle" x="64.1" y="-219" font-family="Helvetica,sans-Serif" font-size="10.00" fill="grey"> +elements</text>
</g>
</g>
</svg>
