<?xml version="1.0" encoding="UTF-8" standalone="no"?>
<!DOCTYPE svg PUBLIC "-//W3C//DTD SVG 1.1//EN"
 "http://www.w3.org/Graphics/SVG/1.1/DTD/svg11.dtd">
<!-- Generated by graphviz version 2.48.0 (20210717.1556)
 -->
<!-- Title: cli::flag_option Pages: 1 -->
<svg width="81pt" height="276pt"
 viewBox="0.00 0.00 81.00 276.00" xmlns="http://www.w3.org/2000/svg" xmlns:xlink="http://www.w3.org/1999/xlink">
<g id="graph0" class="graph" transform="scale(1 1) rotate(0) translate(4 272)">
<title>cli::flag_option</title>
<!-- Node1 -->
<g id="Node000001" class="node">
<title>Node1</title>
<g id="a_Node000001"><a xlink:title=" ">
<polygon fill="#999999" stroke="transparent" points="73,-74 0,-74 0,0 73,0 73,-74"/>
<text text-anchor="start" x="5.03" y="-62" font-family="Helvetica,sans-Serif" font-size="10.00">cli::flag_option</text>
<text text-anchor="start" x="5.33" y="-48" font-family="Helvetica,sans-Serif" font-size="10.00">&#45;</text>
<text text-anchor="start" x="13.5" y="-48" font-family="Helvetica,sans-Serif" font-size="10.00">_cb</text>
<text text-anchor="start" x="4.08" y="-34" font-family="Helvetica,sans-Serif" font-size="10.00">+</text>
<text text-anchor="start" x="13.5" y="-34" font-family="Helvetica,sans-Serif" font-size="10.00">flag_option()</text>
<text text-anchor="start" x="4.08" y="-20" font-family="Helvetica,sans-Serif" font-size="10.00">+</text>
<text text-anchor="start" x="13.5" y="-20" font-family="Helvetica,sans-Serif" font-size="10.00">needs_arg()</text>
<text text-anchor="start" x="4.08" y="-6" font-family="Helvetica,sans-Serif" font-size="10.00">+</text>
<text text-anchor="start" x="13.5" y="-6" font-family="Helvetica,sans-Serif" font-size="10.00">set()</text>
<polygon fill="#666666" stroke="#666666" points="0.5,-58 0.5,-58 73.5,-58 73.5,-58 0.5,-58"/>
<polygon fill="#666666" stroke="#666666" points="0.5,-44 0.5,-44 11.5,-44 11.5,-44 0.5,-44"/>
<polygon fill="#666666" stroke="#666666" points="11.5,-44 11.5,-44 73.5,-44 73.5,-44 11.5,-44"/>
<polygon fill="none" stroke="#666666" points="0,0 0,-74 73,-74 73,0 0,0"/>
</a>
</g>
</g>
<!-- Node2 -->
<g id="Node000002" class="node">
<title>Node2</title>
<g id="a_Node000002"><a xlink:href="classcli_1_1option.html" target="_top" xlink:title=" ">
<polygon fill="white" stroke="transparent" points="71.5,-268 1.5,-268 1.5,-110 71.5,-110 71.5,-268"/>
<text text-anchor="start" x="15.38" y="-256" font-family="Helvetica,sans-Serif" font-size="10.00">cli::option</text>
<text text-anchor="start" x="35.11" y="-242" font-family="Helvetica,sans-Serif" font-size="10.00"> </text>
<text text-anchor="start" x="5.08" y="-228" font-family="Helvetica,sans-Serif" font-size="10.00">+</text>
<text text-anchor="start" x="14.5" y="-228" font-family="Helvetica,sans-Serif" font-size="10.00">option()</text>
<text text-anchor="start" x="5.08" y="-214" font-family="Helvetica,sans-Serif" font-size="10.00">+</text>
<text text-anchor="start" x="14.5" y="-214" font-family="Helvetica,sans-Serif" font-size="10.00">option()</text>
<text text-anchor="start" x="5.08" y="-200" font-family="Helvetica,sans-Serif" font-size="10.00">+</text>
<text text-anchor="start" x="14.5" y="-200" font-family="Helvetica,sans-Serif" font-size="10.00">option()</text>
<text text-anchor="start" x="5.08" y="-186" font-family="Helvetica,sans-Serif" font-size="10.00">+</text>
<text text-anchor="start" x="14.5" y="-186" font-family="Helvetica,sans-Serif" font-size="10.00">operator=()</text>
<text text-anchor="start" x="5.08" y="-172" font-family="Helvetica,sans-Serif" font-size="10.00">+</text>
<text text-anchor="start" x="14.5" y="-172" font-family="Helvetica,sans-Serif" font-size="10.00">operator=()</text>
<text text-anchor="start" x="5.08" y="-158" font-family="Helvetica,sans-Serif" font-size="10.00">+</text>
<text text-anchor="start" x="14.5" y="-158" font-family="Helvetica,sans-Serif" font-size="10.00">~option()</text>
<text text-anchor="start" x="5.08" y="-144" font-family="Helvetica,sans-Serif" font-size="10.00">+</text>
<text text-anchor="start" x="14.5" y="-144" font-family="Helvetica,sans-Serif" font-size="10.00">needs_arg()</text>
<text text-anchor="start" x="5.08" y="-130" font-family="Helvetica,sans-Serif" font-size="10.00">+</text>
<text text-anchor="start" x="14.5" y="-130" font-family="Helvetica,sans-Serif" font-size="10.00">set()</text>
<text text-anchor="start" x="5.08" y="-116" font-family="Helvetica,sans-Serif" font-size="10.00">+</text>
<text text-anchor="start" x="14.5" y="-116" font-family="Helvetica,sans-Serif" font-size="10.00">set_arg()</text>
<polygon fill="#666666" stroke="#666666" points="1.5,-252 1.5,-252 71.5,-252 71.5,-252 1.5,-252"/>
<polygon fill="#666666" stroke="#666666" points="1.5,-238 1.5,-238 71.5,-238 71.5,-238 1.5,-238"/>
<polygon fill="none" stroke="#666666" points="1.5,-110 1.5,-268 71.5,-268 71.5,-110 1.5,-110"/>
</a>
</g>
</g>
<!-- Node2&#45;&gt;Node1 -->
<g id="edge1_Node000001_Node000002" class="edge">
<title>Node2&#45;&gt;Node1</title>
<g id="a_edge1_Node000001_Node000002"><a xlink:title=" ">
<path fill="none" stroke="#63b8ff" d="M36.5,-99.7C36.5,-90.72 36.5,-82 36.5,-74.08"/>
<polygon fill="none" stroke="#63b8ff" points="33,-99.92 36.5,-109.92 40,-99.92 33,-99.92"/>
</a>
</g>
</g>
</g>
</svg>
