<?xml version="1.0" encoding="UTF-8" standalone="no"?>
<!DOCTYPE svg PUBLIC "-//W3C//DTD SVG 1.1//EN"
 "http://www.w3.org/Graphics/SVG/1.1/DTD/svg11.dtd">
<!-- Generated by graphviz version 2.48.0 (20210717.1556)
 -->
<!-- Title: epub::package Pages: 1 -->
<svg width="480pt" height="1459pt"
 viewBox="0.00 0.00 479.66 1459.00" xmlns="http://www.w3.org/2000/svg" xmlns:xlink="http://www.w3.org/1999/xlink">
<g id="graph0" class="graph" transform="scale(1 1) rotate(0) translate(4 1455)">
<title>epub::package</title>
<!-- Node1 -->
<g id="Node000001" class="node">
<title>Node1</title>
<g id="a_Node000001"><a xlink:title=" ">
<polygon fill="#999999" stroke="transparent" points="322.16,-130 247.16,-130 247.16,0 322.16,0 322.16,-130"/>
<text text-anchor="start" x="252.36" y="-118" font-family="Helvetica,sans-Serif" font-size="10.00">epub::package</text>
<text text-anchor="start" x="283.77" y="-104" font-family="Helvetica,sans-Serif" font-size="10.00"> </text>
<text text-anchor="start" x="253.74" y="-90" font-family="Helvetica,sans-Serif" font-size="10.00">+</text>
<text text-anchor="start" x="265.66" y="-90" font-family="Helvetica,sans-Serif" font-size="10.00">metadata()</text>
<text text-anchor="start" x="253.74" y="-76" font-family="Helvetica,sans-Serif" font-size="10.00">+</text>
<text text-anchor="start" x="265.66" y="-76" font-family="Helvetica,sans-Serif" font-size="10.00">metadata()</text>
<text text-anchor="start" x="253.74" y="-62" font-family="Helvetica,sans-Serif" font-size="10.00">+</text>
<text text-anchor="start" x="265.66" y="-62" font-family="Helvetica,sans-Serif" font-size="10.00">manifest()</text>
<text text-anchor="start" x="253.74" y="-48" font-family="Helvetica,sans-Serif" font-size="10.00">+</text>
<text text-anchor="start" x="265.66" y="-48" font-family="Helvetica,sans-Serif" font-size="10.00">manifest()</text>
<text text-anchor="start" x="253.74" y="-34" font-family="Helvetica,sans-Serif" font-size="10.00">+</text>
<text text-anchor="start" x="265.66" y="-34" font-family="Helvetica,sans-Serif" font-size="10.00">spine()</text>
<text text-anchor="start" x="253.74" y="-20" font-family="Helvetica,sans-Serif" font-size="10.00">+</text>
<text text-anchor="start" x="265.66" y="-20" font-family="Helvetica,sans-Serif" font-size="10.00">spine()</text>
<text text-anchor="start" x="253.74" y="-6" font-family="Helvetica,sans-Serif" font-size="10.00">+</text>
<text text-anchor="start" x="265.66" y="-6" font-family="Helvetica,sans-Serif" font-size="10.00">write()</text>
<polygon fill="#666666" stroke="#666666" points="247.66,-114 247.66,-114 322.66,-114 322.66,-114 247.66,-114"/>
<polygon fill="#666666" stroke="#666666" points="247.66,-100 247.66,-100 322.66,-100 322.66,-100 247.66,-100"/>
<polygon fill="none" stroke="#666666" points="247.16,0 247.16,-130 322.16,-130 322.16,0 247.16,0"/>
</a>
</g>
</g>
<!-- Node2 -->
<g id="Node000002" class="node">
<title>Node2</title>
<g id="a_Node000002"><a xlink:href="classepub_1_1metadata.html" target="_top" xlink:title=" ">
<polygon fill="white" stroke="transparent" points="181.16,-762 94.16,-762 94.16,-422 181.16,-422 181.16,-762"/>
<text text-anchor="start" x="103.41" y="-750" font-family="Helvetica,sans-Serif" font-size="10.00">epub::metadata</text>
<text text-anchor="start" x="99.5" y="-736" font-family="Helvetica,sans-Serif" font-size="10.00">&#45;</text>
<text text-anchor="start" x="107.66" y="-736" font-family="Helvetica,sans-Serif" font-size="10.00">_pre_paginated</text>
<text text-anchor="start" x="98.24" y="-722" font-family="Helvetica,sans-Serif" font-size="10.00">+</text>
<text text-anchor="start" x="107.66" y="-722" font-family="Helvetica,sans-Serif" font-size="10.00">metadata()</text>
<text text-anchor="start" x="98.24" y="-708" font-family="Helvetica,sans-Serif" font-size="10.00">+</text>
<text text-anchor="start" x="107.66" y="-708" font-family="Helvetica,sans-Serif" font-size="10.00">pre_paginated()</text>
<text text-anchor="start" x="98.24" y="-694" font-family="Helvetica,sans-Serif" font-size="10.00">+</text>
<text text-anchor="start" x="107.66" y="-694" font-family="Helvetica,sans-Serif" font-size="10.00">reflow()</text>
<text text-anchor="start" x="98.24" y="-680" font-family="Helvetica,sans-Serif" font-size="10.00">+</text>
<text text-anchor="start" x="107.66" y="-680" font-family="Helvetica,sans-Serif" font-size="10.00">layout()</text>
<text text-anchor="start" x="98.24" y="-666" font-family="Helvetica,sans-Serif" font-size="10.00">+</text>
<text text-anchor="start" x="107.66" y="-666" font-family="Helvetica,sans-Serif" font-size="10.00">identifier()</text>
<text text-anchor="start" x="98.24" y="-652" font-family="Helvetica,sans-Serif" font-size="10.00">+</text>
<text text-anchor="start" x="107.66" y="-652" font-family="Helvetica,sans-Serif" font-size="10.00">identifier()</text>
<text text-anchor="start" x="98.24" y="-638" font-family="Helvetica,sans-Serif" font-size="10.00">+</text>
<text text-anchor="start" x="107.66" y="-638" font-family="Helvetica,sans-Serif" font-size="10.00">title()</text>
<text text-anchor="start" x="98.24" y="-624" font-family="Helvetica,sans-Serif" font-size="10.00">+</text>
<text text-anchor="start" x="107.66" y="-624" font-family="Helvetica,sans-Serif" font-size="10.00">title()</text>
<text text-anchor="start" x="98.24" y="-610" font-family="Helvetica,sans-Serif" font-size="10.00">+</text>
<text text-anchor="start" x="107.66" y="-610" font-family="Helvetica,sans-Serif" font-size="10.00">language()</text>
<text text-anchor="start" x="98.24" y="-596" font-family="Helvetica,sans-Serif" font-size="10.00">+</text>
<text text-anchor="start" x="107.66" y="-596" font-family="Helvetica,sans-Serif" font-size="10.00">creators()</text>
<text text-anchor="start" x="98.24" y="-582" font-family="Helvetica,sans-Serif" font-size="10.00">+</text>
<text text-anchor="start" x="107.66" y="-582" font-family="Helvetica,sans-Serif" font-size="10.00">creators()</text>
<text text-anchor="start" x="98.24" y="-568" font-family="Helvetica,sans-Serif" font-size="10.00">+</text>
<text text-anchor="start" x="107.66" y="-568" font-family="Helvetica,sans-Serif" font-size="10.00">collections()</text>
<text text-anchor="start" x="98.24" y="-554" font-family="Helvetica,sans-Serif" font-size="10.00">+</text>
<text text-anchor="start" x="107.66" y="-554" font-family="Helvetica,sans-Serif" font-size="10.00">collections()</text>
<text text-anchor="start" x="99.22" y="-540" font-family="Helvetica,sans-Serif" font-size="10.00">*</text>
<text text-anchor="start" x="107.66" y="-540" font-family="Helvetica,sans-Serif" font-size="10.00">identifier()</text>
<text text-anchor="start" x="99.22" y="-526" font-family="Helvetica,sans-Serif" font-size="10.00">*</text>
<text text-anchor="start" x="107.66" y="-526" font-family="Helvetica,sans-Serif" font-size="10.00">identifier()</text>
<text text-anchor="start" x="99.22" y="-512" font-family="Helvetica,sans-Serif" font-size="10.00">*</text>
<text text-anchor="start" x="107.66" y="-512" font-family="Helvetica,sans-Serif" font-size="10.00">title()</text>
<text text-anchor="start" x="99.22" y="-498" font-family="Helvetica,sans-Serif" font-size="10.00">*</text>
<text text-anchor="start" x="107.66" y="-498" font-family="Helvetica,sans-Serif" font-size="10.00">title()</text>
<text text-anchor="start" x="99.22" y="-484" font-family="Helvetica,sans-Serif" font-size="10.00">*</text>
<text text-anchor="start" x="107.66" y="-484" font-family="Helvetica,sans-Serif" font-size="10.00">language()</text>
<text text-anchor="start" x="99.22" y="-470" font-family="Helvetica,sans-Serif" font-size="10.00">*</text>
<text text-anchor="start" x="107.66" y="-470" font-family="Helvetica,sans-Serif" font-size="10.00">creators()</text>
<text text-anchor="start" x="99.22" y="-456" font-family="Helvetica,sans-Serif" font-size="10.00">*</text>
<text text-anchor="start" x="107.66" y="-456" font-family="Helvetica,sans-Serif" font-size="10.00">creators()</text>
<text text-anchor="start" x="99.22" y="-442" font-family="Helvetica,sans-Serif" font-size="10.00">*</text>
<text text-anchor="start" x="107.66" y="-442" font-family="Helvetica,sans-Serif" font-size="10.00">collections()</text>
<text text-anchor="start" x="99.22" y="-428" font-family="Helvetica,sans-Serif" font-size="10.00">*</text>
<text text-anchor="start" x="107.66" y="-428" font-family="Helvetica,sans-Serif" font-size="10.00">collections()</text>
<polygon fill="#666666" stroke="#666666" points="94.66,-746 94.66,-746 181.66,-746 181.66,-746 94.66,-746"/>
<polygon fill="#666666" stroke="#666666" points="94.66,-732 94.66,-732 105.66,-732 105.66,-732 94.66,-732"/>
<polygon fill="#666666" stroke="#666666" points="105.66,-732 105.66,-732 181.66,-732 181.66,-732 105.66,-732"/>
<polygon fill="none" stroke="#666666" points="94.16,-422 94.16,-762 181.16,-762 181.16,-422 94.16,-422"/>
</a>
</g>
</g>
<!-- Node2&#45;&gt;Node1 -->
<g id="edge1_Node000001_Node000002" class="edge">
<title>Node2&#45;&gt;Node1</title>
<g id="a_edge1_Node000001_Node000002"><a xlink:title=" ">
<path fill="none" stroke="#63b8ff" d="M133.14,-421.86C136.87,-343.99 149.75,-252.18 184.3,-176 196.57,-148.95 218.04,-124.02 237.98,-104.76"/>
<polygon fill="none" stroke="#63b8ff" points="238.24,-104.52 239.89,-97.5 247,-96.32 245.35,-103.34 238.24,-104.52"/>
</a>
</g>
<text text-anchor="middle" x="211.34" y="-273" font-family="Helvetica,sans-Serif" font-size="10.00" fill="grey"> &#45;_metadata</text>
</g>
<!-- Node3 -->
<g id="Node000003" class="node">
<title>Node3</title>
<g id="a_Node000003"><a xlink:title=" ">
<polygon fill="white" stroke="transparent" points="239.66,-1259 175.66,-1259 175.66,-1213 239.66,-1213 239.66,-1259"/>
<text text-anchor="start" x="180.42" y="-1247" font-family="Helvetica,sans-Serif" font-size="10.00">std::u8string</text>
<text text-anchor="start" x="206.27" y="-1233" font-family="Helvetica,sans-Serif" font-size="10.00"> </text>
<text text-anchor="start" x="206.27" y="-1219" font-family="Helvetica,sans-Serif" font-size="10.00"> </text>
<polygon fill="#666666" stroke="#666666" points="175.66,-1243 175.66,-1243 239.66,-1243 239.66,-1243 175.66,-1243"/>
<polygon fill="#666666" stroke="#666666" points="175.66,-1229 175.66,-1229 239.66,-1229 239.66,-1229 175.66,-1229"/>
<polygon fill="none" stroke="#666666" points="175.66,-1213 175.66,-1259 239.66,-1259 239.66,-1213 175.66,-1213"/>
</a>
</g>
</g>
<!-- Node3&#45;&gt;Node2 -->
<g id="edge2_Node000002_Node000003" class="edge">
<title>Node3&#45;&gt;Node2</title>
<g id="a_edge2_Node000002_Node000003"><a xlink:title=" ">
<path fill="none" stroke="#63b8ff" d="M175.52,-1228.45C133.81,-1217.99 63.04,-1193.02 34.66,-1140 -44.77,-991.58 31.59,-791.87 88.5,-679.4"/>
<polygon fill="none" stroke="#63b8ff" points="88.64,-679.13 87.82,-671.97 94.12,-668.46 94.94,-675.62 88.64,-679.13"/>
</a>
</g>
<text text-anchor="middle" x="37.68" y="-904" font-family="Helvetica,sans-Serif" font-size="10.00" fill="grey"> &#45;_identifier</text>
<text text-anchor="middle" x="37.68" y="-894" font-family="Helvetica,sans-Serif" font-size="10.00" fill="grey">&#45;_language</text>
<text text-anchor="middle" x="37.68" y="-884" font-family="Helvetica,sans-Serif" font-size="10.00" fill="grey">&#45;_title</text>
</g>
<!-- Node6 -->
<g id="Node000006" class="node">
<title>Node6</title>
<g id="a_Node000006"><a xlink:href="classepub_1_1creator.html" target="_top" xlink:title="An individual or organizational creator.">
<polygon fill="white" stroke="transparent" points="256.16,-1098 159.16,-1098 159.16,-972 256.16,-972 256.16,-1098"/>
<text text-anchor="start" x="178.7" y="-1086" font-family="Helvetica,sans-Serif" font-size="10.00">epub::creator</text>
<text text-anchor="start" x="206.77" y="-1072" font-family="Helvetica,sans-Serif" font-size="10.00"> </text>
<text text-anchor="start" x="163.24" y="-1058" font-family="Helvetica,sans-Serif" font-size="10.00">+</text>
<text text-anchor="start" x="172.66" y="-1058" font-family="Helvetica,sans-Serif" font-size="10.00">creator()</text>
<text text-anchor="start" x="163.24" y="-1044" font-family="Helvetica,sans-Serif" font-size="10.00">+</text>
<text text-anchor="start" x="172.66" y="-1044" font-family="Helvetica,sans-Serif" font-size="10.00">operator const std</text>
<text text-anchor="start" x="172.66" y="-1034" font-family="Helvetica,sans-Serif" font-size="10.00">::u8string &amp;()</text>
<text text-anchor="start" x="163.24" y="-1020" font-family="Helvetica,sans-Serif" font-size="10.00">+</text>
<text text-anchor="start" x="172.66" y="-1020" font-family="Helvetica,sans-Serif" font-size="10.00">file_as()</text>
<text text-anchor="start" x="163.24" y="-1006" font-family="Helvetica,sans-Serif" font-size="10.00">+</text>
<text text-anchor="start" x="172.66" y="-1006" font-family="Helvetica,sans-Serif" font-size="10.00">file_as()</text>
<text text-anchor="start" x="163.24" y="-992" font-family="Helvetica,sans-Serif" font-size="10.00">+</text>
<text text-anchor="start" x="172.66" y="-992" font-family="Helvetica,sans-Serif" font-size="10.00">role()</text>
<text text-anchor="start" x="163.24" y="-978" font-family="Helvetica,sans-Serif" font-size="10.00">+</text>
<text text-anchor="start" x="172.66" y="-978" font-family="Helvetica,sans-Serif" font-size="10.00">role()</text>
<polygon fill="#666666" stroke="#666666" points="159.66,-1082 159.66,-1082 256.66,-1082 256.66,-1082 159.66,-1082"/>
<polygon fill="#666666" stroke="#666666" points="159.66,-1068 159.66,-1068 256.66,-1068 256.66,-1068 159.66,-1068"/>
<polygon fill="none" stroke="#666666" points="159.16,-972 159.16,-1098 256.16,-1098 256.16,-972 159.16,-972"/>
</a>
</g>
</g>
<!-- Node3&#45;&gt;Node6 -->
<g id="edge6_Node000006_Node000003" class="edge">
<title>Node3&#45;&gt;Node6</title>
<g id="a_edge6_Node000006_Node000003"><a xlink:title=" ">
<path fill="none" stroke="#63b8ff" d="M207.66,-1212.94C207.66,-1188.21 207.66,-1146.78 207.66,-1110.22"/>
<polygon fill="none" stroke="#63b8ff" points="207.66,-1110.04 203.66,-1104.04 207.66,-1098.04 211.66,-1104.04 207.66,-1110.04"/>
</a>
</g>
<text text-anchor="middle" x="227.95" y="-1180" font-family="Helvetica,sans-Serif" font-size="10.00" fill="grey"> &#45;_file_as</text>
<text text-anchor="middle" x="227.95" y="-1170" font-family="Helvetica,sans-Serif" font-size="10.00" fill="grey">&#45;_name</text>
<text text-anchor="middle" x="227.95" y="-1160" font-family="Helvetica,sans-Serif" font-size="10.00" fill="grey">&#45;_role</text>
</g>
<!-- Node8 -->
<g id="Node000008" class="node">
<title>Node8</title>
<g id="a_Node000008"><a xlink:href="classepub_1_1collection.html" target="_top" xlink:title=" ">
<polygon fill="white" stroke="transparent" points="141.16,-1140 44.16,-1140 44.16,-930 141.16,-930 141.16,-1140"/>
<text text-anchor="start" x="58.41" y="-1128" font-family="Helvetica,sans-Serif" font-size="10.00">epub::collection</text>
<text text-anchor="start" x="49.5" y="-1114" font-family="Helvetica,sans-Serif" font-size="10.00">&#45;</text>
<text text-anchor="start" x="57.66" y="-1114" font-family="Helvetica,sans-Serif" font-size="10.00">_type</text>
<text text-anchor="start" x="48.24" y="-1100" font-family="Helvetica,sans-Serif" font-size="10.00">+</text>
<text text-anchor="start" x="57.66" y="-1100" font-family="Helvetica,sans-Serif" font-size="10.00">collection()</text>
<text text-anchor="start" x="48.24" y="-1086" font-family="Helvetica,sans-Serif" font-size="10.00">+</text>
<text text-anchor="start" x="57.66" y="-1086" font-family="Helvetica,sans-Serif" font-size="10.00">collection()</text>
<text text-anchor="start" x="48.24" y="-1072" font-family="Helvetica,sans-Serif" font-size="10.00">+</text>
<text text-anchor="start" x="57.66" y="-1072" font-family="Helvetica,sans-Serif" font-size="10.00">collection()</text>
<text text-anchor="start" x="48.24" y="-1058" font-family="Helvetica,sans-Serif" font-size="10.00">+</text>
<text text-anchor="start" x="57.66" y="-1058" font-family="Helvetica,sans-Serif" font-size="10.00">~collection()</text>
<text text-anchor="start" x="48.24" y="-1044" font-family="Helvetica,sans-Serif" font-size="10.00">+</text>
<text text-anchor="start" x="57.66" y="-1044" font-family="Helvetica,sans-Serif" font-size="10.00">operator=()</text>
<text text-anchor="start" x="48.24" y="-1030" font-family="Helvetica,sans-Serif" font-size="10.00">+</text>
<text text-anchor="start" x="57.66" y="-1030" font-family="Helvetica,sans-Serif" font-size="10.00">operator=()</text>
<text text-anchor="start" x="48.24" y="-1016" font-family="Helvetica,sans-Serif" font-size="10.00">+</text>
<text text-anchor="start" x="57.66" y="-1016" font-family="Helvetica,sans-Serif" font-size="10.00">operator const std</text>
<text text-anchor="start" x="57.66" y="-1006" font-family="Helvetica,sans-Serif" font-size="10.00">::u8string &amp;()</text>
<text text-anchor="start" x="48.24" y="-992" font-family="Helvetica,sans-Serif" font-size="10.00">+</text>
<text text-anchor="start" x="57.66" y="-992" font-family="Helvetica,sans-Serif" font-size="10.00">type()</text>
<text text-anchor="start" x="48.24" y="-978" font-family="Helvetica,sans-Serif" font-size="10.00">+</text>
<text text-anchor="start" x="57.66" y="-978" font-family="Helvetica,sans-Serif" font-size="10.00">type()</text>
<text text-anchor="start" x="48.24" y="-964" font-family="Helvetica,sans-Serif" font-size="10.00">+</text>
<text text-anchor="start" x="57.66" y="-964" font-family="Helvetica,sans-Serif" font-size="10.00">group_position()</text>
<text text-anchor="start" x="48.24" y="-950" font-family="Helvetica,sans-Serif" font-size="10.00">+</text>
<text text-anchor="start" x="57.66" y="-950" font-family="Helvetica,sans-Serif" font-size="10.00">group_position()</text>
<text text-anchor="start" x="48.24" y="-936" font-family="Helvetica,sans-Serif" font-size="10.00">+</text>
<text text-anchor="start" x="57.66" y="-936" font-family="Helvetica,sans-Serif" font-size="10.00">group_position()</text>
<polygon fill="#666666" stroke="#666666" points="44.66,-1124 44.66,-1124 141.66,-1124 141.66,-1124 44.66,-1124"/>
<polygon fill="#666666" stroke="#666666" points="44.66,-1110 44.66,-1110 55.66,-1110 55.66,-1110 44.66,-1110"/>
<polygon fill="#666666" stroke="#666666" points="55.66,-1110 55.66,-1110 141.66,-1110 141.66,-1110 55.66,-1110"/>
<polygon fill="none" stroke="#666666" points="44.16,-930 44.16,-1140 141.16,-1140 141.16,-930 44.16,-930"/>
</a>
</g>
</g>
<!-- Node3&#45;&gt;Node8 -->
<g id="edge9_Node000008_Node000003" class="edge">
<title>Node3&#45;&gt;Node8</title>
<g id="a_edge9_Node000008_Node000003"><a xlink:title=" ">
<path fill="none" stroke="#63b8ff" d="M175.46,-1223.76C158.4,-1216.21 138.53,-1204.57 126.39,-1188 118.41,-1177.12 112.27,-1164.71 107.54,-1151.78"/>
<polygon fill="none" stroke="#63b8ff" points="107.51,-1151.7 101.83,-1147.26 103.74,-1140.31 109.43,-1144.75 107.51,-1151.7"/>
</a>
</g>
<text text-anchor="middle" x="165.3" y="-1175" font-family="Helvetica,sans-Serif" font-size="10.00" fill="grey"> &#45;_group_position</text>
<text text-anchor="middle" x="165.3" y="-1165" font-family="Helvetica,sans-Serif" font-size="10.00" fill="grey">&#45;_name</text>
</g>
<!-- Node10 -->
<g id="Node000010" class="node">
<title>Node10</title>
<g id="a_Node000010"><a xlink:title=" ">
<polygon fill="white" stroke="transparent" points="341.66,-625 227.66,-625 227.66,-559 341.66,-559 341.66,-625"/>
<text text-anchor="start" x="232.55" y="-613" font-family="Helvetica,sans-Serif" font-size="10.00">std::map&lt; std::u8string,</text>
<text text-anchor="start" x="232.55" y="-603" font-family="Helvetica,sans-Serif" font-size="10.00"> std::shared_ptr&lt; epub</text>
<text text-anchor="start" x="242.14" y="-593" font-family="Helvetica,sans-Serif" font-size="10.00">::manifest::item &gt; &gt;</text>
<text text-anchor="start" x="283.27" y="-579" font-family="Helvetica,sans-Serif" font-size="10.00"> </text>
<text text-anchor="start" x="283.27" y="-565" font-family="Helvetica,sans-Serif" font-size="10.00"> </text>
<polygon fill="#666666" stroke="#666666" points="227.66,-589 227.66,-589 341.66,-589 341.66,-589 227.66,-589"/>
<polygon fill="#666666" stroke="#666666" points="227.66,-575 227.66,-575 341.66,-575 341.66,-575 227.66,-575"/>
<polygon fill="none" stroke="#666666" points="227.66,-559 227.66,-625 341.66,-625 341.66,-559 227.66,-559"/>
</a>
</g>
</g>
<!-- Node3&#45;&gt;Node10 -->
<g id="edge12_Node000010_Node000003" class="edge">
<title>Node3&#45;&gt;Node10</title>
<g id="a_edge12_Node000010_Node000003"><a xlink:title=" ">
<path fill="none" stroke="#63b8ff" d="M233.69,-1212.57C240.73,-1205.35 247.75,-1196.9 252.66,-1188 263.29,-1168.75 261.58,-1161.77 264.66,-1140 290.92,-954.69 288.61,-730.76 286.15,-637.31"/>
<polygon fill="none" stroke="#63b8ff" points="286.15,-637.26 281.98,-631.38 285.81,-625.27 289.98,-631.15 286.15,-637.26"/>
</a>
</g>
<text text-anchor="middle" x="300.25" y="-894" font-family="Helvetica,sans-Serif" font-size="10.00" fill="grey"> +keys</text>
</g>
<!-- Node12 -->
<g id="Node000012" class="node">
<title>Node12</title>
<g id="a_Node000012"><a xlink:href="classepub_1_1manifest_1_1item.html" target="_top" xlink:title=" ">
<polygon fill="white" stroke="transparent" points="416.66,-1086 316.66,-1086 316.66,-984 416.66,-984 416.66,-1086"/>
<text text-anchor="start" x="321.64" y="-1074" font-family="Helvetica,sans-Serif" font-size="10.00">epub::manifest::item</text>
<text text-anchor="start" x="329.5" y="-1060" font-family="Helvetica,sans-Serif" font-size="10.00">&#45;</text>
<text text-anchor="start" x="345.66" y="-1060" font-family="Helvetica,sans-Serif" font-size="10.00">_path</text>
<text text-anchor="start" x="328.24" y="-1046" font-family="Helvetica,sans-Serif" font-size="10.00">+</text>
<text text-anchor="start" x="345.66" y="-1046" font-family="Helvetica,sans-Serif" font-size="10.00">item()</text>
<text text-anchor="start" x="328.24" y="-1032" font-family="Helvetica,sans-Serif" font-size="10.00">+</text>
<text text-anchor="start" x="345.66" y="-1032" font-family="Helvetica,sans-Serif" font-size="10.00">id()</text>
<text text-anchor="start" x="328.24" y="-1018" font-family="Helvetica,sans-Serif" font-size="10.00">+</text>
<text text-anchor="start" x="345.66" y="-1018" font-family="Helvetica,sans-Serif" font-size="10.00">path()</text>
<text text-anchor="start" x="328.24" y="-1004" font-family="Helvetica,sans-Serif" font-size="10.00">+</text>
<text text-anchor="start" x="345.66" y="-1004" font-family="Helvetica,sans-Serif" font-size="10.00">properties()</text>
<text text-anchor="start" x="328.24" y="-990" font-family="Helvetica,sans-Serif" font-size="10.00">+</text>
<text text-anchor="start" x="345.66" y="-990" font-family="Helvetica,sans-Serif" font-size="10.00">metadata()</text>
<polygon fill="#666666" stroke="#666666" points="316.66,-1070 316.66,-1070 416.66,-1070 416.66,-1070 316.66,-1070"/>
<polygon fill="#666666" stroke="#666666" points="316.66,-1056 316.66,-1056 343.66,-1056 343.66,-1056 316.66,-1056"/>
<polygon fill="#666666" stroke="#666666" points="343.66,-1056 343.66,-1056 416.66,-1056 416.66,-1056 343.66,-1056"/>
<polygon fill="none" stroke="#666666" points="316.66,-984 316.66,-1086 416.66,-1086 416.66,-984 316.66,-984"/>
</a>
</g>
</g>
<!-- Node3&#45;&gt;Node12 -->
<g id="edge15_Node000012_Node000003" class="edge">
<title>Node3&#45;&gt;Node12</title>
<g id="a_edge15_Node000012_Node000003"><a xlink:title=" ">
<path fill="none" stroke="#63b8ff" d="M239.8,-1223.75C258.07,-1216.02 280.29,-1204.22 295.66,-1188 319.63,-1162.71 336.7,-1127.87 348.09,-1097.92"/>
<polygon fill="none" stroke="#63b8ff" points="348.22,-1097.56 346.51,-1090.56 352.32,-1086.29 354.03,-1093.3 348.22,-1097.56"/>
</a>
</g>
<text text-anchor="middle" x="345.34" y="-1175" font-family="Helvetica,sans-Serif" font-size="10.00" fill="grey"> &#45;_id</text>
<text text-anchor="middle" x="345.34" y="-1165" font-family="Helvetica,sans-Serif" font-size="10.00" fill="grey">&#45;_properties</text>
</g>
<!-- Node4 -->
<g id="Node000004" class="node">
<title>Node4</title>
<g id="a_Node000004"><a xlink:title=" ">
<polygon fill="white" stroke="transparent" points="251.66,-1359 163.66,-1359 163.66,-1303 251.66,-1303 251.66,-1359"/>
<text text-anchor="start" x="168.61" y="-1347" font-family="Helvetica,sans-Serif" font-size="10.00">std::basic_string&lt;</text>
<text text-anchor="start" x="191.13" y="-1337" font-family="Helvetica,sans-Serif" font-size="10.00"> Char &gt;</text>
<text text-anchor="start" x="206.27" y="-1323" font-family="Helvetica,sans-Serif" font-size="10.00"> </text>
<text text-anchor="start" x="206.27" y="-1309" font-family="Helvetica,sans-Serif" font-size="10.00"> </text>
<polygon fill="#666666" stroke="#666666" points="163.66,-1333 163.66,-1333 251.66,-1333 251.66,-1333 163.66,-1333"/>
<polygon fill="#666666" stroke="#666666" points="163.66,-1319 163.66,-1319 251.66,-1319 251.66,-1319 163.66,-1319"/>
<polygon fill="none" stroke="#666666" points="163.66,-1303 163.66,-1359 251.66,-1359 251.66,-1303 163.66,-1303"/>
</a>
</g>
</g>
<!-- Node4&#45;&gt;Node3 -->
<g id="edge3_Node000003_Node000004" class="edge">
<title>Node4&#45;&gt;Node3</title>
<g id="a_edge3_Node000003_Node000004"><a xlink:title=" ">
<path fill="none" stroke="#63b8ff" d="M207.66,-1292.51C207.66,-1281.21 207.66,-1269.18 207.66,-1259.21"/>
<polygon fill="none" stroke="#63b8ff" points="204.16,-1292.6 207.66,-1302.6 211.16,-1292.6 204.16,-1292.6"/>
</a>
</g>
</g>
<!-- Node5 -->
<g id="Node000005" class="node">
<title>Node5</title>
<g id="a_Node000005"><a xlink:title=" ">
<polygon fill="white" stroke="transparent" points="250.66,-864 158.66,-864 158.66,-808 250.66,-808 250.66,-864"/>
<text text-anchor="start" x="163.39" y="-852" font-family="Helvetica,sans-Serif" font-size="10.00">std::vector&lt; epub::</text>
<text text-anchor="start" x="184.79" y="-842" font-family="Helvetica,sans-Serif" font-size="10.00">creator &gt;</text>
<text text-anchor="start" x="203.27" y="-828" font-family="Helvetica,sans-Serif" font-size="10.00"> </text>
<text text-anchor="start" x="203.27" y="-814" font-family="Helvetica,sans-Serif" font-size="10.00"> </text>
<polygon fill="#666666" stroke="#666666" points="158.66,-838 158.66,-838 250.66,-838 250.66,-838 158.66,-838"/>
<polygon fill="#666666" stroke="#666666" points="158.66,-824 158.66,-824 250.66,-824 250.66,-824 158.66,-824"/>
<polygon fill="none" stroke="#666666" points="158.66,-808 158.66,-864 250.66,-864 250.66,-808 158.66,-808"/>
</a>
</g>
</g>
<!-- Node5&#45;&gt;Node2 -->
<g id="edge4_Node000002_Node000005" class="edge">
<title>Node5&#45;&gt;Node2</title>
<g id="a_edge4_Node000002_Node000005"><a xlink:title=" ">
<path fill="none" stroke="#63b8ff" d="M197.11,-807.71C193.65,-795.24 189.25,-779.34 184.41,-761.86"/>
<polygon fill="none" stroke="#63b8ff" points="184.37,-761.72 178.92,-757.01 181.17,-750.16 186.63,-754.87 184.37,-761.72"/>
</a>
</g>
<text text-anchor="middle" x="216.56" y="-782" font-family="Helvetica,sans-Serif" font-size="10.00" fill="grey"> &#45;_creators</text>
</g>
<!-- Node6&#45;&gt;Node5 -->
<g id="edge5_Node000005_Node000006" class="edge">
<title>Node6&#45;&gt;Node5</title>
<g id="a_edge5_Node000005_Node000006"><a xlink:title=" ">
<path fill="none" stroke="#63b8ff" d="M206.72,-971.94C206.24,-940.68 205.68,-903.73 205.26,-876.41"/>
<polygon fill="none" stroke="#63b8ff" points="205.26,-876.21 201.17,-870.27 205.08,-864.21 209.17,-870.15 205.26,-876.21"/>
</a>
</g>
<text text-anchor="middle" x="231.26" y="-894" font-family="Helvetica,sans-Serif" font-size="10.00" fill="grey"> +elements</text>
</g>
<!-- Node7 -->
<g id="Node000007" class="node">
<title>Node7</title>
<g id="a_Node000007"><a xlink:title=" ">
<polygon fill="white" stroke="transparent" points="139.66,-864 47.66,-864 47.66,-808 139.66,-808 139.66,-864"/>
<text text-anchor="start" x="52.39" y="-852" font-family="Helvetica,sans-Serif" font-size="10.00">std::vector&lt; epub::</text>
<text text-anchor="start" x="68.51" y="-842" font-family="Helvetica,sans-Serif" font-size="10.00">collection &gt;</text>
<text text-anchor="start" x="92.27" y="-828" font-family="Helvetica,sans-Serif" font-size="10.00"> </text>
<text text-anchor="start" x="92.27" y="-814" font-family="Helvetica,sans-Serif" font-size="10.00"> </text>
<polygon fill="#666666" stroke="#666666" points="47.66,-838 47.66,-838 139.66,-838 139.66,-838 47.66,-838"/>
<polygon fill="#666666" stroke="#666666" points="47.66,-824 47.66,-824 139.66,-824 139.66,-824 47.66,-824"/>
<polygon fill="none" stroke="#666666" points="47.66,-808 47.66,-864 139.66,-864 139.66,-808 47.66,-808"/>
</a>
</g>
</g>
<!-- Node7&#45;&gt;Node2 -->
<g id="edge7_Node000002_Node000007" class="edge">
<title>Node7&#45;&gt;Node2</title>
<g id="a_edge7_Node000002_Node000007"><a xlink:title=" ">
<path fill="none" stroke="#63b8ff" d="M98.62,-807.71C100.35,-798.2 102.44,-786.7 104.75,-774.02"/>
<polygon fill="none" stroke="#63b8ff" points="104.78,-773.87 101.91,-767.25 106.92,-762.07 109.78,-768.68 104.78,-773.87"/>
</a>
</g>
<text text-anchor="middle" x="132.84" y="-782" font-family="Helvetica,sans-Serif" font-size="10.00" fill="grey"> &#45;_collections</text>
</g>
<!-- Node8&#45;&gt;Node7 -->
<g id="edge8_Node000007_Node000008" class="edge">
<title>Node8&#45;&gt;Node7</title>
<g id="a_edge8_Node000007_Node000008"><a xlink:title=" ">
<path fill="none" stroke="#63b8ff" d="M93.19,-929.73C93.29,-910.7 93.38,-891.95 93.46,-876.35"/>
<polygon fill="none" stroke="#63b8ff" points="93.46,-876.04 89.49,-870.02 93.52,-864.04 97.49,-870.06 93.46,-876.04"/>
</a>
</g>
<text text-anchor="middle" x="118.26" y="-894" font-family="Helvetica,sans-Serif" font-size="10.00" fill="grey"> +elements</text>
</g>
<!-- Node9 -->
<g id="Node000009" class="node">
<title>Node9</title>
<g id="a_Node000009"><a xlink:href="classepub_1_1manifest.html" target="_top" xlink:title=" ">
<polygon fill="white" stroke="transparent" points="322.16,-376 247.16,-376 247.16,-176 322.16,-176 322.16,-376"/>
<text text-anchor="start" x="252.36" y="-364" font-family="Helvetica,sans-Serif" font-size="10.00">epub::manifest</text>
<text text-anchor="start" x="283.77" y="-350" font-family="Helvetica,sans-Serif" font-size="10.00"> </text>
<text text-anchor="start" x="253.24" y="-336" font-family="Helvetica,sans-Serif" font-size="10.00">+</text>
<text text-anchor="start" x="264.66" y="-336" font-family="Helvetica,sans-Serif" font-size="10.00">manifest()</text>
<text text-anchor="start" x="253.24" y="-322" font-family="Helvetica,sans-Serif" font-size="10.00">+</text>
<text text-anchor="start" x="264.66" y="-322" font-family="Helvetica,sans-Serif" font-size="10.00">manifest()</text>
<text text-anchor="start" x="253.24" y="-308" font-family="Helvetica,sans-Serif" font-size="10.00">+</text>
<text text-anchor="start" x="264.66" y="-308" font-family="Helvetica,sans-Serif" font-size="10.00">manifest()</text>
<text text-anchor="start" x="253.24" y="-294" font-family="Helvetica,sans-Serif" font-size="10.00">+</text>
<text text-anchor="start" x="264.66" y="-294" font-family="Helvetica,sans-Serif" font-size="10.00">~manifest()</text>
<text text-anchor="start" x="253.24" y="-280" font-family="Helvetica,sans-Serif" font-size="10.00">+</text>
<text text-anchor="start" x="264.66" y="-280" font-family="Helvetica,sans-Serif" font-size="10.00">operator=()</text>
<text text-anchor="start" x="253.24" y="-266" font-family="Helvetica,sans-Serif" font-size="10.00">+</text>
<text text-anchor="start" x="264.66" y="-266" font-family="Helvetica,sans-Serif" font-size="10.00">operator=()</text>
<text text-anchor="start" x="253.24" y="-252" font-family="Helvetica,sans-Serif" font-size="10.00">+</text>
<text text-anchor="start" x="264.66" y="-252" font-family="Helvetica,sans-Serif" font-size="10.00">add()</text>
<text text-anchor="start" x="253.24" y="-238" font-family="Helvetica,sans-Serif" font-size="10.00">+</text>
<text text-anchor="start" x="264.66" y="-238" font-family="Helvetica,sans-Serif" font-size="10.00">begin()</text>
<text text-anchor="start" x="253.24" y="-224" font-family="Helvetica,sans-Serif" font-size="10.00">+</text>
<text text-anchor="start" x="264.66" y="-224" font-family="Helvetica,sans-Serif" font-size="10.00">end()</text>
<text text-anchor="start" x="253.24" y="-210" font-family="Helvetica,sans-Serif" font-size="10.00">+</text>
<text text-anchor="start" x="264.66" y="-210" font-family="Helvetica,sans-Serif" font-size="10.00">front()</text>
<text text-anchor="start" x="253.24" y="-196" font-family="Helvetica,sans-Serif" font-size="10.00">+</text>
<text text-anchor="start" x="264.66" y="-196" font-family="Helvetica,sans-Serif" font-size="10.00">back()</text>
<text text-anchor="start" x="253.24" y="-182" font-family="Helvetica,sans-Serif" font-size="10.00">+</text>
<text text-anchor="start" x="264.66" y="-182" font-family="Helvetica,sans-Serif" font-size="10.00">at()</text>
<polygon fill="#666666" stroke="#666666" points="247.66,-360 247.66,-360 322.66,-360 322.66,-360 247.66,-360"/>
<polygon fill="#666666" stroke="#666666" points="247.66,-346 247.66,-346 322.66,-346 322.66,-346 247.66,-346"/>
<polygon fill="none" stroke="#666666" points="247.16,-176 247.16,-376 322.16,-376 322.16,-176 247.16,-176"/>
</a>
</g>
</g>
<!-- Node9&#45;&gt;Node1 -->
<g id="edge10_Node000001_Node000009" class="edge">
<title>Node9&#45;&gt;Node1</title>
<g id="a_edge10_Node000001_Node000009"><a xlink:title=" ">
<path fill="none" stroke="#63b8ff" d="M284.66,-175.7C284.66,-164.45 284.66,-153.12 284.66,-142.24"/>
<polygon fill="none" stroke="#63b8ff" points="284.66,-142.16 280.66,-136.16 284.66,-130.16 288.66,-136.16 284.66,-142.16"/>
</a>
</g>
<text text-anchor="middle" x="309.39" y="-150" font-family="Helvetica,sans-Serif" font-size="10.00" fill="grey"> &#45;_manifest</text>
</g>
<!-- Node10&#45;&gt;Node9 -->
<g id="edge11_Node000009_Node000010" class="edge">
<title>Node10&#45;&gt;Node9</title>
<g id="a_edge11_Node000009_Node000010"><a xlink:title=" ">
<path fill="none" stroke="#63b8ff" d="M284.66,-558.87C284.66,-518.95 284.66,-448.72 284.66,-388.35"/>
<polygon fill="none" stroke="#63b8ff" points="284.66,-388.02 280.66,-382.02 284.66,-376.02 288.66,-382.02 284.66,-388.02"/>
</a>
</g>
<text text-anchor="middle" x="302.44" y="-396" font-family="Helvetica,sans-Serif" font-size="10.00" fill="grey"> &#45;_items</text>
</g>
<!-- Node11 -->
<g id="Node000011" class="node">
<title>Node11</title>
<g id="a_Node000011"><a xlink:title=" ">
<polygon fill="white" stroke="transparent" points="420.16,-864 313.16,-864 313.16,-808 420.16,-808 420.16,-864"/>
<text text-anchor="start" x="318.38" y="-852" font-family="Helvetica,sans-Serif" font-size="10.00">std::shared_ptr&lt; epub</text>
<text text-anchor="start" x="328.95" y="-842" font-family="Helvetica,sans-Serif" font-size="10.00">::manifest::item &gt;</text>
<text text-anchor="start" x="365.77" y="-828" font-family="Helvetica,sans-Serif" font-size="10.00"> </text>
<text text-anchor="start" x="326.24" y="-814" font-family="Helvetica,sans-Serif" font-size="10.00">+</text>
<text text-anchor="start" x="344.66" y="-814" font-family="Helvetica,sans-Serif" font-size="10.00">operator&#45;&gt;()</text>
<polygon fill="#666666" stroke="#666666" points="313.66,-838 313.66,-838 420.66,-838 420.66,-838 313.66,-838"/>
<polygon fill="#666666" stroke="#666666" points="313.66,-824 313.66,-824 420.66,-824 420.66,-824 313.66,-824"/>
<polygon fill="none" stroke="#666666" points="313.16,-808 313.16,-864 420.16,-864 420.16,-808 313.16,-808"/>
</a>
</g>
</g>
<!-- Node11&#45;&gt;Node10 -->
<g id="edge13_Node000010_Node000011" class="edge">
<title>Node11&#45;&gt;Node10</title>
<g id="a_edge13_Node000010_Node000011"><a xlink:title=" ">
<path fill="none" stroke="#63b8ff" d="M357.41,-807.71C343.33,-766.14 316.36,-686.56 299.51,-636.83"/>
<polygon fill="none" stroke="#63b8ff" points="299.41,-636.54 293.7,-632.14 295.56,-625.17 301.28,-629.57 299.41,-636.54"/>
</a>
</g>
<text text-anchor="middle" x="376.26" y="-782" font-family="Helvetica,sans-Serif" font-size="10.00" fill="grey"> +elements</text>
</g>
<!-- Node12&#45;&gt;Node11 -->
<g id="edge14_Node000011_Node000012" class="edge">
<title>Node12&#45;&gt;Node11</title>
<g id="a_edge14_Node000011_Node000012"><a xlink:title=" ">
<path fill="none" stroke="#63b8ff" d="M366.66,-983.78C366.66,-950.31 366.66,-906.97 366.66,-876.08"/>
<polygon fill="none" stroke="#63b8ff" points="366.66,-876.08 362.66,-870.08 366.66,-864.08 370.66,-870.08 366.66,-876.08"/>
</a>
</g>
<text text-anchor="middle" x="376.81" y="-894" font-family="Helvetica,sans-Serif" font-size="10.00" fill="grey"> +ptr</text>
</g>
<!-- Node13 -->
<g id="Node000013" class="node">
<title>Node13</title>
<g id="a_Node000013"><a xlink:href="structepub_1_1file__metadata.html" target="_top" xlink:title="A class for managing metadata key&#45;value pairs.">
<polygon fill="white" stroke="transparent" points="442.16,-1266 345.16,-1266 345.16,-1206 442.16,-1206 442.16,-1266"/>
<text text-anchor="start" x="350.24" y="-1254" font-family="Helvetica,sans-Serif" font-size="10.00">epub::file_metadata</text>
<text text-anchor="start" x="392.77" y="-1240" font-family="Helvetica,sans-Serif" font-size="10.00"> </text>
<text text-anchor="start" x="364.24" y="-1226" font-family="Helvetica,sans-Serif" font-size="10.00">+</text>
<text text-anchor="start" x="388.66" y="-1226" font-family="Helvetica,sans-Serif" font-size="10.00">get()</text>
<text text-anchor="start" x="364.24" y="-1212" font-family="Helvetica,sans-Serif" font-size="10.00">+</text>
<text text-anchor="start" x="388.66" y="-1212" font-family="Helvetica,sans-Serif" font-size="10.00">get()</text>
<polygon fill="#666666" stroke="#666666" points="345.66,-1250 345.66,-1250 442.66,-1250 442.66,-1250 345.66,-1250"/>
<polygon fill="#666666" stroke="#666666" points="345.66,-1236 345.66,-1236 442.66,-1236 442.66,-1236 345.66,-1236"/>
<polygon fill="none" stroke="#666666" points="345.16,-1206 345.16,-1266 442.16,-1266 442.16,-1206 345.16,-1206"/>
</a>
</g>
</g>
<!-- Node13&#45;&gt;Node12 -->
<g id="edge16_Node000012_Node000013" class="edge">
<title>Node13&#45;&gt;Node12</title>
<g id="a_edge16_Node000012_Node000013"><a xlink:title=" ">
<path fill="none" stroke="#63b8ff" d="M389.68,-1205.64C385.87,-1177.59 380.01,-1134.42 375.16,-1098.64"/>
<polygon fill="none" stroke="#63b8ff" points="375.1,-1098.23 370.33,-1092.82 373.49,-1086.34 378.26,-1091.74 375.1,-1098.23"/>
</a>
</g>
<text text-anchor="middle" x="414.34" y="-1170" font-family="Helvetica,sans-Serif" font-size="10.00" fill="grey"> &#45;_metadata</text>
</g>
<!-- Node14 -->
<g id="Node000014" class="node">
<title>Node14</title>
<g id="a_Node000014"><a xlink:title=" ">
<polygon fill="white" stroke="transparent" points="435.16,-1354 352.16,-1354 352.16,-1308 435.16,-1308 435.16,-1354"/>
<text text-anchor="start" x="357.38" y="-1342" font-family="Helvetica,sans-Serif" font-size="10.00">std::map&lt; K, T &gt;</text>
<text text-anchor="start" x="392.77" y="-1328" font-family="Helvetica,sans-Serif" font-size="10.00"> </text>
<text text-anchor="start" x="392.77" y="-1314" font-family="Helvetica,sans-Serif" font-size="10.00"> </text>
<polygon fill="#666666" stroke="#666666" points="352.66,-1338 352.66,-1338 435.66,-1338 435.66,-1338 352.66,-1338"/>
<polygon fill="#666666" stroke="#666666" points="352.66,-1324 352.66,-1324 435.66,-1324 435.66,-1324 352.66,-1324"/>
<polygon fill="none" stroke="#666666" points="352.16,-1308 352.16,-1354 435.16,-1354 435.16,-1308 352.16,-1308"/>
</a>
</g>
</g>
<!-- Node14&#45;&gt;Node13 -->
<g id="edge17_Node000013_Node000014" class="edge">
<title>Node14&#45;&gt;Node13</title>
<g id="a_edge17_Node000013_Node000014"><a xlink:title=" ">
<path fill="none" stroke="#63b8ff" d="M393.66,-1297.76C393.66,-1287.53 393.66,-1276.28 393.66,-1266.27"/>
<polygon fill="none" stroke="#63b8ff" points="390.16,-1297.96 393.66,-1307.96 397.16,-1297.96 390.16,-1297.96"/>
</a>
</g>
</g>
<!-- Node15 -->
<g id="Node000015" class="node">
<title>Node15</title>
<g id="a_Node000015"><a xlink:title=" ">
<polygon fill="white" stroke="transparent" points="375.66,-1451 359.66,-1451 359.66,-1405 375.66,-1405 375.66,-1451"/>
<text text-anchor="start" x="364.33" y="-1439" font-family="Helvetica,sans-Serif" font-size="10.00">K</text>
<text text-anchor="start" x="366.27" y="-1425" font-family="Helvetica,sans-Serif" font-size="10.00"> </text>
<text text-anchor="start" x="366.27" y="-1411" font-family="Helvetica,sans-Serif" font-size="10.00"> </text>
<polygon fill="#666666" stroke="#666666" points="359.66,-1435 359.66,-1435 375.66,-1435 375.66,-1435 359.66,-1435"/>
<polygon fill="#666666" stroke="#666666" points="359.66,-1421 359.66,-1421 375.66,-1421 375.66,-1421 359.66,-1421"/>
<polygon fill="none" stroke="#666666" points="359.66,-1405 359.66,-1451 375.66,-1451 375.66,-1405 359.66,-1405"/>
</a>
</g>
</g>
<!-- Node15&#45;&gt;Node14 -->
<g id="edge18_Node000014_Node000015" class="edge">
<title>Node15&#45;&gt;Node14</title>
<g id="a_edge18_Node000014_Node000015"><a xlink:title=" ">
<path fill="none" stroke="#63b8ff" d="M365.71,-1404.77C365.53,-1395.99 366.09,-1385.89 368.48,-1377 369.53,-1373.11 370.99,-1369.2 372.68,-1365.39"/>
<polygon fill="none" stroke="#63b8ff" points="372.82,-1365.1 371.99,-1357.94 378.27,-1354.41 379.11,-1361.57 372.82,-1365.1"/>
</a>
</g>
<text text-anchor="middle" x="383.25" y="-1379" font-family="Helvetica,sans-Serif" font-size="10.00" fill="grey"> +keys</text>
</g>
<!-- Node16 -->
<g id="Node000016" class="node">
<title>Node16</title>
<g id="a_Node000016"><a xlink:title=" ">
<polygon fill="white" stroke="transparent" points="427.66,-1451 411.66,-1451 411.66,-1405 427.66,-1405 427.66,-1451"/>
<text text-anchor="start" x="416.61" y="-1439" font-family="Helvetica,sans-Serif" font-size="10.00">T</text>
<text text-anchor="start" x="418.27" y="-1425" font-family="Helvetica,sans-Serif" font-size="10.00"> </text>
<text text-anchor="start" x="418.27" y="-1411" font-family="Helvetica,sans-Serif" font-size="10.00"> </text>
<polygon fill="#666666" stroke="#666666" points="411.66,-1435 411.66,-1435 427.66,-1435 427.66,-1435 411.66,-1435"/>
<polygon fill="#666666" stroke="#666666" points="411.66,-1421 411.66,-1421 427.66,-1421 427.66,-1421 411.66,-1421"/>
<polygon fill="none" stroke="#666666" points="411.66,-1405 411.66,-1451 427.66,-1451 427.66,-1405 411.66,-1405"/>
</a>
</g>
</g>
<!-- Node16&#45;&gt;Node14 -->
<g id="edge19_Node000014_Node000016" class="edge">
<title>Node16&#45;&gt;Node14</title>
<g id="a_edge19_Node000014_Node000016"><a xlink:title=" ">
<path fill="none" stroke="#63b8ff" d="M413.63,-1404.97C410.47,-1393.42 406.53,-1379.02 402.99,-1366.07"/>
<polygon fill="none" stroke="#63b8ff" points="402.92,-1365.82 397.47,-1361.09 399.75,-1354.24 405.19,-1358.97 402.92,-1365.82"/>
</a>
</g>
<text text-anchor="middle" x="433.26" y="-1379" font-family="Helvetica,sans-Serif" font-size="10.00" fill="grey"> +elements</text>
</g>
<!-- Node17 -->
<g id="Node000017" class="node">
<title>Node17</title>
<g id="a_Node000017"><a xlink:href="classepub_1_1spine.html" target="_top" xlink:title=" ">
<polygon fill="white" stroke="transparent" points="433.66,-355 367.66,-355 367.66,-197 433.66,-197 433.66,-355"/>
<text text-anchor="start" x="374.81" y="-343" font-family="Helvetica,sans-Serif" font-size="10.00">epub::spine</text>
<text text-anchor="start" x="399.27" y="-329" font-family="Helvetica,sans-Serif" font-size="10.00"> </text>
<text text-anchor="start" x="371.24" y="-315" font-family="Helvetica,sans-Serif" font-size="10.00">+</text>
<text text-anchor="start" x="380.66" y="-315" font-family="Helvetica,sans-Serif" font-size="10.00">spine()</text>
<text text-anchor="start" x="371.24" y="-301" font-family="Helvetica,sans-Serif" font-size="10.00">+</text>
<text text-anchor="start" x="380.66" y="-301" font-family="Helvetica,sans-Serif" font-size="10.00">spine()</text>
<text text-anchor="start" x="371.24" y="-287" font-family="Helvetica,sans-Serif" font-size="10.00">+</text>
<text text-anchor="start" x="380.66" y="-287" font-family="Helvetica,sans-Serif" font-size="10.00">spine()</text>
<text text-anchor="start" x="371.24" y="-273" font-family="Helvetica,sans-Serif" font-size="10.00">+</text>
<text text-anchor="start" x="380.66" y="-273" font-family="Helvetica,sans-Serif" font-size="10.00">~spine()</text>
<text text-anchor="start" x="371.24" y="-259" font-family="Helvetica,sans-Serif" font-size="10.00">+</text>
<text text-anchor="start" x="380.66" y="-259" font-family="Helvetica,sans-Serif" font-size="10.00">operator=()</text>
<text text-anchor="start" x="371.24" y="-245" font-family="Helvetica,sans-Serif" font-size="10.00">+</text>
<text text-anchor="start" x="380.66" y="-245" font-family="Helvetica,sans-Serif" font-size="10.00">operator=()</text>
<text text-anchor="start" x="371.24" y="-231" font-family="Helvetica,sans-Serif" font-size="10.00">+</text>
<text text-anchor="start" x="380.66" y="-231" font-family="Helvetica,sans-Serif" font-size="10.00">add()</text>
<text text-anchor="start" x="371.24" y="-217" font-family="Helvetica,sans-Serif" font-size="10.00">+</text>
<text text-anchor="start" x="380.66" y="-217" font-family="Helvetica,sans-Serif" font-size="10.00">begin()</text>
<text text-anchor="start" x="371.24" y="-203" font-family="Helvetica,sans-Serif" font-size="10.00">+</text>
<text text-anchor="start" x="380.66" y="-203" font-family="Helvetica,sans-Serif" font-size="10.00">end()</text>
<polygon fill="#666666" stroke="#666666" points="367.66,-339 367.66,-339 433.66,-339 433.66,-339 367.66,-339"/>
<polygon fill="#666666" stroke="#666666" points="367.66,-325 367.66,-325 433.66,-325 433.66,-325 367.66,-325"/>
<polygon fill="none" stroke="#666666" points="367.66,-197 367.66,-355 433.66,-355 433.66,-197 367.66,-197"/>
</a>
</g>
</g>
<!-- Node17&#45;&gt;Node1 -->
<g id="edge20_Node000001_Node000017" class="edge">
<title>Node17&#45;&gt;Node1</title>
<g id="a_edge20_Node000001_Node000017"><a xlink:title=" ">
<path fill="none" stroke="#63b8ff" d="M367.57,-204.72C358.3,-186.06 347.94,-166.08 337.66,-148 334.82,-143.01 331.81,-137.91 328.72,-132.81"/>
<polygon fill="none" stroke="#63b8ff" points="328.59,-132.6 322.03,-129.6 322.29,-122.39 328.84,-125.4 328.59,-132.6"/>
</a>
</g>
<text text-anchor="middle" x="359.45" y="-150" font-family="Helvetica,sans-Serif" font-size="10.00" fill="grey"> &#45;_spine</text>
</g>
<!-- Node18 -->
<g id="Node000018" class="node">
<title>Node18</title>
<g id="a_Node000018"><a xlink:title=" ">
<polygon fill="white" stroke="transparent" points="471.66,-620 359.66,-620 359.66,-564 471.66,-564 471.66,-620"/>
<text text-anchor="start" x="364.39" y="-608" font-family="Helvetica,sans-Serif" font-size="10.00">std::vector&lt; weak_item</text>
<text text-anchor="start" x="402.74" y="-598" font-family="Helvetica,sans-Serif" font-size="10.00">_ptr &gt;</text>
<text text-anchor="start" x="376.74" y="-584" font-family="Helvetica,sans-Serif" font-size="10.00">+</text>
<text text-anchor="start" x="399.66" y="-584" font-family="Helvetica,sans-Serif" font-size="10.00">elements</text>
<text text-anchor="start" x="414.27" y="-570" font-family="Helvetica,sans-Serif" font-size="10.00"> </text>
<polygon fill="#666666" stroke="#666666" points="359.66,-594 359.66,-594 471.66,-594 471.66,-594 359.66,-594"/>
<polygon fill="#666666" stroke="#666666" points="359.66,-580 359.66,-580 397.66,-580 397.66,-580 359.66,-580"/>
<polygon fill="#666666" stroke="#666666" points="397.66,-580 397.66,-580 471.66,-580 471.66,-580 397.66,-580"/>
<polygon fill="none" stroke="#666666" points="359.66,-564 359.66,-620 471.66,-620 471.66,-564 359.66,-564"/>
</a>
</g>
</g>
<!-- Node18&#45;&gt;Node17 -->
<g id="edge21_Node000017_Node000018" class="edge">
<title>Node18&#45;&gt;Node17</title>
<g id="a_edge21_Node000017_Node000018"><a xlink:title=" ">
<path fill="none" stroke="#63b8ff" d="M414.37,-563.96C412.31,-520.75 408.17,-434.23 404.98,-367.44"/>
<polygon fill="none" stroke="#63b8ff" points="404.97,-367.2 400.69,-361.4 404.4,-355.21 408.68,-361.01 404.97,-367.2"/>
</a>
</g>
<text text-anchor="middle" x="424.44" y="-396" font-family="Helvetica,sans-Serif" font-size="10.00" fill="grey"> &#45;_items</text>
</g>
</g>
</svg>
