<?xml version="1.0" encoding="UTF-8" standalone="no"?>
<!DOCTYPE svg PUBLIC "-//W3C//DTD SVG 1.1//EN"
 "http://www.w3.org/Graphics/SVG/1.1/DTD/svg11.dtd">
<!-- Generated by graphviz version 2.48.0 (20210717.1556)
 -->
<!-- Title: cli::ambiguous_option Pages: 1 -->
<svg width="142pt" height="368pt"
 viewBox="0.00 0.00 142.00 368.00" xmlns="http://www.w3.org/2000/svg" xmlns:xlink="http://www.w3.org/1999/xlink">
<g id="graph0" class="graph" transform="scale(1 1) rotate(0) translate(4 364)">
<title>cli::ambiguous_option</title>
<!-- Node1 -->
<g id="Node000001" class="node">
<title>Node1</title>
<g id="a_Node000001"><a xlink:title=" ">
<polygon fill="#999999" stroke="transparent" points="134,-114 0,-114 0,0 134,0 134,-114"/>
<text text-anchor="start" x="18.64" y="-102" font-family="Helvetica,sans-Serif" font-size="10.00">cli::ambiguous_option</text>
<text text-anchor="start" x="65.61" y="-88" font-family="Helvetica,sans-Serif" font-size="10.00"> </text>
<text text-anchor="start" x="3.58" y="-74" font-family="Helvetica,sans-Serif" font-size="10.00">+</text>
<text text-anchor="start" x="13" y="-74" font-family="Helvetica,sans-Serif" font-size="10.00">ambiguous_option(String</text>
<text text-anchor="start" x="13" y="-64" font-family="Helvetica,sans-Serif" font-size="10.00">Like &amp;&amp;s, Range &amp;&amp;r)</text>
<text text-anchor="start" x="3.58" y="-50" font-family="Helvetica,sans-Serif" font-size="10.00">+</text>
<text text-anchor="start" x="13" y="-50" font-family="Helvetica,sans-Serif" font-size="10.00">ambiguous_option(String</text>
<text text-anchor="start" x="13" y="-40" font-family="Helvetica,sans-Serif" font-size="10.00">Like &amp;&amp;s, Iterator begin,</text>
<text text-anchor="start" x="13" y="-30" font-family="Helvetica,sans-Serif" font-size="10.00"> Sentinel end)</text>
<text text-anchor="start" x="4.83" y="-16" font-family="Helvetica,sans-Serif" font-size="10.00">&#45;</text>
<text text-anchor="start" x="13" y="-16" font-family="Helvetica,sans-Serif" font-size="10.00">std::string as_enumeration</text>
<text text-anchor="start" x="13" y="-6" font-family="Helvetica,sans-Serif" font-size="10.00">(Range &amp;&amp;r)</text>
<polygon fill="#666666" stroke="#666666" points="0,-98 0,-98 134,-98 134,-98 0,-98"/>
<polygon fill="#666666" stroke="#666666" points="0,-84 0,-84 134,-84 134,-84 0,-84"/>
<polygon fill="none" stroke="#666666" points="0,0 0,-114 134,-114 134,0 0,0"/>
</a>
</g>
</g>
<!-- Node2 -->
<g id="Node000002" class="node">
<title>Node2</title>
<g id="a_Node000002"><a xlink:href="structcli_1_1option__error.html" target="_top" xlink:title=" ">
<polygon fill="white" stroke="transparent" points="106,-196 28,-196 28,-150 106,-150 106,-196"/>
<text text-anchor="start" x="32.54" y="-184" font-family="Helvetica,sans-Serif" font-size="10.00">cli::option_error</text>
<text text-anchor="start" x="65.61" y="-170" font-family="Helvetica,sans-Serif" font-size="10.00"> </text>
<text text-anchor="start" x="65.61" y="-156" font-family="Helvetica,sans-Serif" font-size="10.00"> </text>
<polygon fill="#666666" stroke="#666666" points="28,-180 28,-180 106,-180 106,-180 28,-180"/>
<polygon fill="#666666" stroke="#666666" points="28,-166 28,-166 106,-166 106,-166 28,-166"/>
<polygon fill="none" stroke="#666666" points="28,-150 28,-196 106,-196 106,-150 28,-150"/>
</a>
</g>
</g>
<!-- Node2&#45;&gt;Node1 -->
<g id="edge1_Node000001_Node000002" class="edge">
<title>Node2&#45;&gt;Node1</title>
<g id="a_edge1_Node000001_Node000002"><a xlink:title=" ">
<path fill="none" stroke="#63b8ff" d="M67,-139.52C67,-131.61 67,-122.91 67,-114.25"/>
<polygon fill="none" stroke="#63b8ff" points="63.5,-139.75 67,-149.75 70.5,-139.75 63.5,-139.75"/>
</a>
</g>
</g>
<!-- Node3 -->
<g id="Node000003" class="node">
<title>Node3</title>
<g id="a_Node000003"><a xlink:title=" ">
<polygon fill="white" stroke="transparent" points="111,-278 23,-278 23,-232 111,-232 111,-278"/>
<text text-anchor="start" x="27.54" y="-266" font-family="Helvetica,sans-Serif" font-size="10.00">std::runtime_error</text>
<text text-anchor="start" x="65.61" y="-252" font-family="Helvetica,sans-Serif" font-size="10.00"> </text>
<text text-anchor="start" x="65.61" y="-238" font-family="Helvetica,sans-Serif" font-size="10.00"> </text>
<polygon fill="#666666" stroke="#666666" points="23,-262 23,-262 111,-262 111,-262 23,-262"/>
<polygon fill="#666666" stroke="#666666" points="23,-248 23,-248 111,-248 111,-248 23,-248"/>
<polygon fill="none" stroke="#666666" points="23,-232 23,-278 111,-278 111,-232 23,-232"/>
</a>
</g>
</g>
<!-- Node3&#45;&gt;Node2 -->
<g id="edge2_Node000002_Node000003" class="edge">
<title>Node3&#45;&gt;Node2</title>
<g id="a_edge2_Node000002_Node000003"><a xlink:title=" ">
<path fill="none" stroke="#63b8ff" d="M67,-221.63C67,-213.08 67,-204.04 67,-196.16"/>
<polygon fill="none" stroke="#63b8ff" points="63.5,-221.72 67,-231.72 70.5,-221.72 63.5,-221.72"/>
</a>
</g>
</g>
<!-- Node4 -->
<g id="Node000004" class="node">
<title>Node4</title>
<g id="a_Node000004"><a xlink:title=" ">
<polygon fill="white" stroke="transparent" points="102.5,-360 31.5,-360 31.5,-314 102.5,-314 102.5,-360"/>
<text text-anchor="start" x="36.65" y="-348" font-family="Helvetica,sans-Serif" font-size="10.00">std::exception</text>
<text text-anchor="start" x="66.11" y="-334" font-family="Helvetica,sans-Serif" font-size="10.00"> </text>
<text text-anchor="start" x="66.11" y="-320" font-family="Helvetica,sans-Serif" font-size="10.00"> </text>
<polygon fill="#666666" stroke="#666666" points="32,-344 32,-344 103,-344 103,-344 32,-344"/>
<polygon fill="#666666" stroke="#666666" points="32,-330 32,-330 103,-330 103,-330 32,-330"/>
<polygon fill="none" stroke="#666666" points="31.5,-314 31.5,-360 102.5,-360 102.5,-314 31.5,-314"/>
</a>
</g>
</g>
<!-- Node4&#45;&gt;Node3 -->
<g id="edge3_Node000003_Node000004" class="edge">
<title>Node4&#45;&gt;Node3</title>
<g id="a_edge3_Node000003_Node000004"><a xlink:title=" ">
<path fill="none" stroke="#63b8ff" d="M67,-303.63C67,-295.08 67,-286.04 67,-278.16"/>
<polygon fill="none" stroke="#63b8ff" points="63.5,-303.72 67,-313.72 70.5,-303.72 63.5,-303.72"/>
</a>
</g>
</g>
</g>
</svg>
