<?xml version="1.0" encoding="UTF-8" standalone="no"?>
<!DOCTYPE svg PUBLIC "-//W3C//DTD SVG 1.1//EN"
 "http://www.w3.org/Graphics/SVG/1.1/DTD/svg11.dtd">
<!-- Generated by graphviz version 2.48.0 (20210717.1556)
 -->
<!-- Title: epub::metadata Pages: 1 -->
<svg width="251pt" height="931pt"
 viewBox="0.00 0.00 250.60 931.00" xmlns="http://www.w3.org/2000/svg" xmlns:xlink="http://www.w3.org/1999/xlink">
<g id="graph0" class="graph" transform="scale(1 1) rotate(0) translate(4 927)">
<title>epub::metadata</title>
<!-- Node1 -->
<g id="Node000001" class="node">
<title>Node1</title>
<g id="a_Node000001"><a xlink:title=" ">
<polygon fill="#999999" stroke="transparent" points="122.6,-340 35.6,-340 35.6,0 122.6,0 122.6,-340"/>
<text text-anchor="start" x="44.85" y="-328" font-family="Helvetica,sans-Serif" font-size="10.00">epub::metadata</text>
<text text-anchor="start" x="40.93" y="-314" font-family="Helvetica,sans-Serif" font-size="10.00">&#45;</text>
<text text-anchor="start" x="49.1" y="-314" font-family="Helvetica,sans-Serif" font-size="10.00">_pre_paginated</text>
<text text-anchor="start" x="39.68" y="-300" font-family="Helvetica,sans-Serif" font-size="10.00">+</text>
<text text-anchor="start" x="49.1" y="-300" font-family="Helvetica,sans-Serif" font-size="10.00">metadata()</text>
<text text-anchor="start" x="39.68" y="-286" font-family="Helvetica,sans-Serif" font-size="10.00">+</text>
<text text-anchor="start" x="49.1" y="-286" font-family="Helvetica,sans-Serif" font-size="10.00">pre_paginated()</text>
<text text-anchor="start" x="39.68" y="-272" font-family="Helvetica,sans-Serif" font-size="10.00">+</text>
<text text-anchor="start" x="49.1" y="-272" font-family="Helvetica,sans-Serif" font-size="10.00">reflow()</text>
<text text-anchor="start" x="39.68" y="-258" font-family="Helvetica,sans-Serif" font-size="10.00">+</text>
<text text-anchor="start" x="49.1" y="-258" font-family="Helvetica,sans-Serif" font-size="10.00">layout()</text>
<text text-anchor="start" x="39.68" y="-244" font-family="Helvetica,sans-Serif" font-size="10.00">+</text>
<text text-anchor="start" x="49.1" y="-244" font-family="Helvetica,sans-Serif" font-size="10.00">identifier()</text>
<text text-anchor="start" x="39.68" y="-230" font-family="Helvetica,sans-Serif" font-size="10.00">+</text>
<text text-anchor="start" x="49.1" y="-230" font-family="Helvetica,sans-Serif" font-size="10.00">identifier()</text>
<text text-anchor="start" x="39.68" y="-216" font-family="Helvetica,sans-Serif" font-size="10.00">+</text>
<text text-anchor="start" x="49.1" y="-216" font-family="Helvetica,sans-Serif" font-size="10.00">title()</text>
<text text-anchor="start" x="39.68" y="-202" font-family="Helvetica,sans-Serif" font-size="10.00">+</text>
<text text-anchor="start" x="49.1" y="-202" font-family="Helvetica,sans-Serif" font-size="10.00">title()</text>
<text text-anchor="start" x="39.68" y="-188" font-family="Helvetica,sans-Serif" font-size="10.00">+</text>
<text text-anchor="start" x="49.1" y="-188" font-family="Helvetica,sans-Serif" font-size="10.00">language()</text>
<text text-anchor="start" x="39.68" y="-174" font-family="Helvetica,sans-Serif" font-size="10.00">+</text>
<text text-anchor="start" x="49.1" y="-174" font-family="Helvetica,sans-Serif" font-size="10.00">creators()</text>
<text text-anchor="start" x="39.68" y="-160" font-family="Helvetica,sans-Serif" font-size="10.00">+</text>
<text text-anchor="start" x="49.1" y="-160" font-family="Helvetica,sans-Serif" font-size="10.00">creators()</text>
<text text-anchor="start" x="39.68" y="-146" font-family="Helvetica,sans-Serif" font-size="10.00">+</text>
<text text-anchor="start" x="49.1" y="-146" font-family="Helvetica,sans-Serif" font-size="10.00">collections()</text>
<text text-anchor="start" x="39.68" y="-132" font-family="Helvetica,sans-Serif" font-size="10.00">+</text>
<text text-anchor="start" x="49.1" y="-132" font-family="Helvetica,sans-Serif" font-size="10.00">collections()</text>
<text text-anchor="start" x="40.65" y="-118" font-family="Helvetica,sans-Serif" font-size="10.00">*</text>
<text text-anchor="start" x="49.1" y="-118" font-family="Helvetica,sans-Serif" font-size="10.00">identifier()</text>
<text text-anchor="start" x="40.65" y="-104" font-family="Helvetica,sans-Serif" font-size="10.00">*</text>
<text text-anchor="start" x="49.1" y="-104" font-family="Helvetica,sans-Serif" font-size="10.00">identifier()</text>
<text text-anchor="start" x="40.65" y="-90" font-family="Helvetica,sans-Serif" font-size="10.00">*</text>
<text text-anchor="start" x="49.1" y="-90" font-family="Helvetica,sans-Serif" font-size="10.00">title()</text>
<text text-anchor="start" x="40.65" y="-76" font-family="Helvetica,sans-Serif" font-size="10.00">*</text>
<text text-anchor="start" x="49.1" y="-76" font-family="Helvetica,sans-Serif" font-size="10.00">title()</text>
<text text-anchor="start" x="40.65" y="-62" font-family="Helvetica,sans-Serif" font-size="10.00">*</text>
<text text-anchor="start" x="49.1" y="-62" font-family="Helvetica,sans-Serif" font-size="10.00">language()</text>
<text text-anchor="start" x="40.65" y="-48" font-family="Helvetica,sans-Serif" font-size="10.00">*</text>
<text text-anchor="start" x="49.1" y="-48" font-family="Helvetica,sans-Serif" font-size="10.00">creators()</text>
<text text-anchor="start" x="40.65" y="-34" font-family="Helvetica,sans-Serif" font-size="10.00">*</text>
<text text-anchor="start" x="49.1" y="-34" font-family="Helvetica,sans-Serif" font-size="10.00">creators()</text>
<text text-anchor="start" x="40.65" y="-20" font-family="Helvetica,sans-Serif" font-size="10.00">*</text>
<text text-anchor="start" x="49.1" y="-20" font-family="Helvetica,sans-Serif" font-size="10.00">collections()</text>
<text text-anchor="start" x="40.65" y="-6" font-family="Helvetica,sans-Serif" font-size="10.00">*</text>
<text text-anchor="start" x="49.1" y="-6" font-family="Helvetica,sans-Serif" font-size="10.00">collections()</text>
<polygon fill="#666666" stroke="#666666" points="36.1,-324 36.1,-324 123.1,-324 123.1,-324 36.1,-324"/>
<polygon fill="#666666" stroke="#666666" points="36.1,-310 36.1,-310 47.1,-310 47.1,-310 36.1,-310"/>
<polygon fill="#666666" stroke="#666666" points="47.1,-310 47.1,-310 123.1,-310 123.1,-310 47.1,-310"/>
<polygon fill="none" stroke="#666666" points="35.6,0 35.6,-340 122.6,-340 122.6,0 35.6,0"/>
</a>
</g>
</g>
<!-- Node2 -->
<g id="Node000002" class="node">
<title>Node2</title>
<g id="a_Node000002"><a xlink:title=" ">
<polygon fill="white" stroke="transparent" points="111.1,-830 47.1,-830 47.1,-784 111.1,-784 111.1,-830"/>
<text text-anchor="start" x="51.86" y="-818" font-family="Helvetica,sans-Serif" font-size="10.00">std::u8string</text>
<text text-anchor="start" x="77.71" y="-804" font-family="Helvetica,sans-Serif" font-size="10.00"> </text>
<text text-anchor="start" x="77.71" y="-790" font-family="Helvetica,sans-Serif" font-size="10.00"> </text>
<polygon fill="#666666" stroke="#666666" points="47.1,-814 47.1,-814 111.1,-814 111.1,-814 47.1,-814"/>
<polygon fill="#666666" stroke="#666666" points="47.1,-800 47.1,-800 111.1,-800 111.1,-800 47.1,-800"/>
<polygon fill="none" stroke="#666666" points="47.1,-784 47.1,-830 111.1,-830 111.1,-784 47.1,-784"/>
</a>
</g>
</g>
<!-- Node2&#45;&gt;Node1 -->
<g id="edge1_Node000001_Node000002" class="edge">
<title>Node2&#45;&gt;Node1</title>
<g id="a_edge1_Node000001_Node000002"><a xlink:title=" ">
<path fill="none" stroke="#63b8ff" d="M59.28,-784C45.59,-767.24 28.56,-742.89 21.1,-718 -18.28,-586.7 4.74,-430.66 32.56,-318.91"/>
<polygon fill="none" stroke="#63b8ff" points="32.58,-318.85 30.18,-312.05 35.53,-307.22 37.93,-314.02 32.58,-318.85"/>
</a>
</g>
<text text-anchor="middle" x="31.12" y="-482" font-family="Helvetica,sans-Serif" font-size="10.00" fill="grey"> &#45;_identifier</text>
<text text-anchor="middle" x="31.12" y="-472" font-family="Helvetica,sans-Serif" font-size="10.00" fill="grey">&#45;_language</text>
<text text-anchor="middle" x="31.12" y="-462" font-family="Helvetica,sans-Serif" font-size="10.00" fill="grey">&#45;_title</text>
</g>
<!-- Node5 -->
<g id="Node000005" class="node">
<title>Node5</title>
<g id="a_Node000005"><a xlink:href="classepub_1_1creator.html" target="_top" xlink:title="An individual or organizational creator.">
<polygon fill="white" stroke="transparent" points="127.6,-676 30.6,-676 30.6,-550 127.6,-550 127.6,-676"/>
<text text-anchor="start" x="50.14" y="-664" font-family="Helvetica,sans-Serif" font-size="10.00">epub::creator</text>
<text text-anchor="start" x="78.21" y="-650" font-family="Helvetica,sans-Serif" font-size="10.00"> </text>
<text text-anchor="start" x="34.68" y="-636" font-family="Helvetica,sans-Serif" font-size="10.00">+</text>
<text text-anchor="start" x="44.1" y="-636" font-family="Helvetica,sans-Serif" font-size="10.00">creator()</text>
<text text-anchor="start" x="34.68" y="-622" font-family="Helvetica,sans-Serif" font-size="10.00">+</text>
<text text-anchor="start" x="44.1" y="-622" font-family="Helvetica,sans-Serif" font-size="10.00">operator const std</text>
<text text-anchor="start" x="44.1" y="-612" font-family="Helvetica,sans-Serif" font-size="10.00">::u8string &amp;()</text>
<text text-anchor="start" x="34.68" y="-598" font-family="Helvetica,sans-Serif" font-size="10.00">+</text>
<text text-anchor="start" x="44.1" y="-598" font-family="Helvetica,sans-Serif" font-size="10.00">file_as()</text>
<text text-anchor="start" x="34.68" y="-584" font-family="Helvetica,sans-Serif" font-size="10.00">+</text>
<text text-anchor="start" x="44.1" y="-584" font-family="Helvetica,sans-Serif" font-size="10.00">file_as()</text>
<text text-anchor="start" x="34.68" y="-570" font-family="Helvetica,sans-Serif" font-size="10.00">+</text>
<text text-anchor="start" x="44.1" y="-570" font-family="Helvetica,sans-Serif" font-size="10.00">role()</text>
<text text-anchor="start" x="34.68" y="-556" font-family="Helvetica,sans-Serif" font-size="10.00">+</text>
<text text-anchor="start" x="44.1" y="-556" font-family="Helvetica,sans-Serif" font-size="10.00">role()</text>
<polygon fill="#666666" stroke="#666666" points="31.1,-660 31.1,-660 128.1,-660 128.1,-660 31.1,-660"/>
<polygon fill="#666666" stroke="#666666" points="31.1,-646 31.1,-646 128.1,-646 128.1,-646 31.1,-646"/>
<polygon fill="none" stroke="#666666" points="30.6,-550 30.6,-676 127.6,-676 127.6,-550 30.6,-550"/>
</a>
</g>
</g>
<!-- Node2&#45;&gt;Node5 -->
<g id="edge5_Node000005_Node000002" class="edge">
<title>Node2&#45;&gt;Node5</title>
<g id="a_edge5_Node000005_Node000002"><a xlink:title=" ">
<path fill="none" stroke="#63b8ff" d="M79.1,-783.98C79.1,-760.73 79.1,-722.79 79.1,-688.65"/>
<polygon fill="none" stroke="#63b8ff" points="79.1,-688.28 75.1,-682.28 79.1,-676.28 83.1,-682.28 79.1,-688.28"/>
</a>
</g>
<text text-anchor="middle" x="99.39" y="-758" font-family="Helvetica,sans-Serif" font-size="10.00" fill="grey"> &#45;_file_as</text>
<text text-anchor="middle" x="99.39" y="-748" font-family="Helvetica,sans-Serif" font-size="10.00" fill="grey">&#45;_name</text>
<text text-anchor="middle" x="99.39" y="-738" font-family="Helvetica,sans-Serif" font-size="10.00" fill="grey">&#45;_role</text>
</g>
<!-- Node7 -->
<g id="Node000007" class="node">
<title>Node7</title>
<g id="a_Node000007"><a xlink:href="classepub_1_1collection.html" target="_top" xlink:title=" ">
<polygon fill="white" stroke="transparent" points="242.6,-718 145.6,-718 145.6,-508 242.6,-508 242.6,-718"/>
<text text-anchor="start" x="159.85" y="-706" font-family="Helvetica,sans-Serif" font-size="10.00">epub::collection</text>
<text text-anchor="start" x="150.93" y="-692" font-family="Helvetica,sans-Serif" font-size="10.00">&#45;</text>
<text text-anchor="start" x="159.1" y="-692" font-family="Helvetica,sans-Serif" font-size="10.00">_type</text>
<text text-anchor="start" x="149.68" y="-678" font-family="Helvetica,sans-Serif" font-size="10.00">+</text>
<text text-anchor="start" x="159.1" y="-678" font-family="Helvetica,sans-Serif" font-size="10.00">collection()</text>
<text text-anchor="start" x="149.68" y="-664" font-family="Helvetica,sans-Serif" font-size="10.00">+</text>
<text text-anchor="start" x="159.1" y="-664" font-family="Helvetica,sans-Serif" font-size="10.00">collection()</text>
<text text-anchor="start" x="149.68" y="-650" font-family="Helvetica,sans-Serif" font-size="10.00">+</text>
<text text-anchor="start" x="159.1" y="-650" font-family="Helvetica,sans-Serif" font-size="10.00">collection()</text>
<text text-anchor="start" x="149.68" y="-636" font-family="Helvetica,sans-Serif" font-size="10.00">+</text>
<text text-anchor="start" x="159.1" y="-636" font-family="Helvetica,sans-Serif" font-size="10.00">~collection()</text>
<text text-anchor="start" x="149.68" y="-622" font-family="Helvetica,sans-Serif" font-size="10.00">+</text>
<text text-anchor="start" x="159.1" y="-622" font-family="Helvetica,sans-Serif" font-size="10.00">operator=()</text>
<text text-anchor="start" x="149.68" y="-608" font-family="Helvetica,sans-Serif" font-size="10.00">+</text>
<text text-anchor="start" x="159.1" y="-608" font-family="Helvetica,sans-Serif" font-size="10.00">operator=()</text>
<text text-anchor="start" x="149.68" y="-594" font-family="Helvetica,sans-Serif" font-size="10.00">+</text>
<text text-anchor="start" x="159.1" y="-594" font-family="Helvetica,sans-Serif" font-size="10.00">operator const std</text>
<text text-anchor="start" x="159.1" y="-584" font-family="Helvetica,sans-Serif" font-size="10.00">::u8string &amp;()</text>
<text text-anchor="start" x="149.68" y="-570" font-family="Helvetica,sans-Serif" font-size="10.00">+</text>
<text text-anchor="start" x="159.1" y="-570" font-family="Helvetica,sans-Serif" font-size="10.00">type()</text>
<text text-anchor="start" x="149.68" y="-556" font-family="Helvetica,sans-Serif" font-size="10.00">+</text>
<text text-anchor="start" x="159.1" y="-556" font-family="Helvetica,sans-Serif" font-size="10.00">type()</text>
<text text-anchor="start" x="149.68" y="-542" font-family="Helvetica,sans-Serif" font-size="10.00">+</text>
<text text-anchor="start" x="159.1" y="-542" font-family="Helvetica,sans-Serif" font-size="10.00">group_position()</text>
<text text-anchor="start" x="149.68" y="-528" font-family="Helvetica,sans-Serif" font-size="10.00">+</text>
<text text-anchor="start" x="159.1" y="-528" font-family="Helvetica,sans-Serif" font-size="10.00">group_position()</text>
<text text-anchor="start" x="149.68" y="-514" font-family="Helvetica,sans-Serif" font-size="10.00">+</text>
<text text-anchor="start" x="159.1" y="-514" font-family="Helvetica,sans-Serif" font-size="10.00">group_position()</text>
<polygon fill="#666666" stroke="#666666" points="146.1,-702 146.1,-702 243.1,-702 243.1,-702 146.1,-702"/>
<polygon fill="#666666" stroke="#666666" points="146.1,-688 146.1,-688 157.1,-688 157.1,-688 146.1,-688"/>
<polygon fill="#666666" stroke="#666666" points="157.1,-688 157.1,-688 243.1,-688 243.1,-688 157.1,-688"/>
<polygon fill="none" stroke="#666666" points="145.6,-508 145.6,-718 242.6,-718 242.6,-508 145.6,-508"/>
</a>
</g>
</g>
<!-- Node2&#45;&gt;Node7 -->
<g id="edge8_Node000007_Node000002" class="edge">
<title>Node2&#45;&gt;Node7</title>
<g id="a_edge8_Node000007_Node000002"><a xlink:title=" ">
<path fill="none" stroke="#63b8ff" d="M107.54,-783.95C113.48,-778.5 119.37,-772.38 124.1,-766 132.55,-754.6 140.32,-742.02 147.36,-729.13"/>
<polygon fill="none" stroke="#63b8ff" points="147.51,-728.85 146.77,-721.68 153.11,-718.24 153.85,-725.41 147.51,-728.85"/>
</a>
</g>
<text text-anchor="middle" x="180.74" y="-753" font-family="Helvetica,sans-Serif" font-size="10.00" fill="grey"> &#45;_group_position</text>
<text text-anchor="middle" x="180.74" y="-743" font-family="Helvetica,sans-Serif" font-size="10.00" fill="grey">&#45;_name</text>
</g>
<!-- Node3 -->
<g id="Node000003" class="node">
<title>Node3</title>
<g id="a_Node000003"><a xlink:title=" ">
<polygon fill="white" stroke="transparent" points="123.1,-923 35.1,-923 35.1,-867 123.1,-867 123.1,-923"/>
<text text-anchor="start" x="40.05" y="-911" font-family="Helvetica,sans-Serif" font-size="10.00">std::basic_string&lt;</text>
<text text-anchor="start" x="62.56" y="-901" font-family="Helvetica,sans-Serif" font-size="10.00"> Char &gt;</text>
<text text-anchor="start" x="77.71" y="-887" font-family="Helvetica,sans-Serif" font-size="10.00"> </text>
<text text-anchor="start" x="77.71" y="-873" font-family="Helvetica,sans-Serif" font-size="10.00"> </text>
<polygon fill="#666666" stroke="#666666" points="35.1,-897 35.1,-897 123.1,-897 123.1,-897 35.1,-897"/>
<polygon fill="#666666" stroke="#666666" points="35.1,-883 35.1,-883 123.1,-883 123.1,-883 35.1,-883"/>
<polygon fill="none" stroke="#666666" points="35.1,-867 35.1,-923 123.1,-923 123.1,-867 35.1,-867"/>
</a>
</g>
</g>
<!-- Node3&#45;&gt;Node2 -->
<g id="edge2_Node000002_Node000003" class="edge">
<title>Node3&#45;&gt;Node2</title>
<g id="a_edge2_Node000002_Node000003"><a xlink:title=" ">
<path fill="none" stroke="#63b8ff" d="M79.1,-856.78C79.1,-847.7 79.1,-838.27 79.1,-830.15"/>
<polygon fill="none" stroke="#63b8ff" points="75.6,-856.79 79.1,-866.79 82.6,-856.79 75.6,-856.79"/>
</a>
</g>
</g>
<!-- Node4 -->
<g id="Node000004" class="node">
<title>Node4</title>
<g id="a_Node000004"><a xlink:title=" ">
<polygon fill="white" stroke="transparent" points="125.1,-442 33.1,-442 33.1,-386 125.1,-386 125.1,-442"/>
<text text-anchor="start" x="37.83" y="-430" font-family="Helvetica,sans-Serif" font-size="10.00">std::vector&lt; epub::</text>
<text text-anchor="start" x="59.23" y="-420" font-family="Helvetica,sans-Serif" font-size="10.00">creator &gt;</text>
<text text-anchor="start" x="77.71" y="-406" font-family="Helvetica,sans-Serif" font-size="10.00"> </text>
<text text-anchor="start" x="77.71" y="-392" font-family="Helvetica,sans-Serif" font-size="10.00"> </text>
<polygon fill="#666666" stroke="#666666" points="33.1,-416 33.1,-416 125.1,-416 125.1,-416 33.1,-416"/>
<polygon fill="#666666" stroke="#666666" points="33.1,-402 33.1,-402 125.1,-402 125.1,-402 33.1,-402"/>
<polygon fill="none" stroke="#666666" points="33.1,-386 33.1,-442 125.1,-442 125.1,-386 33.1,-386"/>
</a>
</g>
</g>
<!-- Node4&#45;&gt;Node1 -->
<g id="edge3_Node000001_Node000004" class="edge">
<title>Node4&#45;&gt;Node1</title>
<g id="a_edge3_Node000001_Node000004"><a xlink:title=" ">
<path fill="none" stroke="#63b8ff" d="M79.1,-385.71C79.1,-376.3 79.1,-364.93 79.1,-352.41"/>
<polygon fill="none" stroke="#63b8ff" points="79.1,-352.07 75.1,-346.07 79.1,-340.07 83.1,-346.07 79.1,-352.07"/>
</a>
</g>
<text text-anchor="middle" x="103" y="-360" font-family="Helvetica,sans-Serif" font-size="10.00" fill="grey"> &#45;_creators</text>
</g>
<!-- Node5&#45;&gt;Node4 -->
<g id="edge4_Node000004_Node000005" class="edge">
<title>Node5&#45;&gt;Node4</title>
<g id="a_edge4_Node000004_Node000005"><a xlink:title=" ">
<path fill="none" stroke="#63b8ff" d="M79.1,-549.94C79.1,-518.68 79.1,-481.73 79.1,-454.41"/>
<polygon fill="none" stroke="#63b8ff" points="79.1,-454.21 75.1,-448.21 79.1,-442.21 83.1,-448.21 79.1,-454.21"/>
</a>
</g>
<text text-anchor="middle" x="103.7" y="-472" font-family="Helvetica,sans-Serif" font-size="10.00" fill="grey"> +elements</text>
</g>
<!-- Node6 -->
<g id="Node000006" class="node">
<title>Node6</title>
<g id="a_Node000006"><a xlink:title=" ">
<polygon fill="white" stroke="transparent" points="237.1,-442 145.1,-442 145.1,-386 237.1,-386 237.1,-442"/>
<text text-anchor="start" x="149.83" y="-430" font-family="Helvetica,sans-Serif" font-size="10.00">std::vector&lt; epub::</text>
<text text-anchor="start" x="165.95" y="-420" font-family="Helvetica,sans-Serif" font-size="10.00">collection &gt;</text>
<text text-anchor="start" x="189.71" y="-406" font-family="Helvetica,sans-Serif" font-size="10.00"> </text>
<text text-anchor="start" x="189.71" y="-392" font-family="Helvetica,sans-Serif" font-size="10.00"> </text>
<polygon fill="#666666" stroke="#666666" points="145.1,-416 145.1,-416 237.1,-416 237.1,-416 145.1,-416"/>
<polygon fill="#666666" stroke="#666666" points="145.1,-402 145.1,-402 237.1,-402 237.1,-402 145.1,-402"/>
<polygon fill="none" stroke="#666666" points="145.1,-386 145.1,-442 237.1,-442 237.1,-386 145.1,-386"/>
</a>
</g>
</g>
<!-- Node6&#45;&gt;Node1 -->
<g id="edge6_Node000001_Node000006" class="edge">
<title>Node6&#45;&gt;Node1</title>
<g id="a_edge6_Node000001_Node000006"><a xlink:title=" ">
<path fill="none" stroke="#63b8ff" d="M178.47,-385.71C166.08,-358.93 146.38,-316.37 127.78,-276.18"/>
<polygon fill="none" stroke="#63b8ff" points="127.74,-276.09 121.59,-272.33 122.7,-265.2 128.85,-268.97 127.74,-276.09"/>
</a>
</g>
<text text-anchor="middle" x="199.28" y="-360" font-family="Helvetica,sans-Serif" font-size="10.00" fill="grey"> &#45;_collections</text>
</g>
<!-- Node7&#45;&gt;Node6 -->
<g id="edge7_Node000006_Node000007" class="edge">
<title>Node7&#45;&gt;Node6</title>
<g id="a_edge7_Node000006_Node000007"><a xlink:title=" ">
<path fill="none" stroke="#63b8ff" d="M192.51,-507.73C192.22,-488.7 191.94,-469.95 191.7,-454.35"/>
<polygon fill="none" stroke="#63b8ff" points="191.69,-454.04 187.6,-448.1 191.51,-442.04 195.6,-447.98 191.69,-454.04"/>
</a>
</g>
<text text-anchor="middle" x="216.7" y="-472" font-family="Helvetica,sans-Serif" font-size="10.00" fill="grey"> +elements</text>
</g>
</g>
</svg>
