<?xml version="1.0" encoding="UTF-8" standalone="no"?>
<!DOCTYPE svg PUBLIC "-//W3C//DTD SVG 1.1//EN"
 "http://www.w3.org/Graphics/SVG/1.1/DTD/svg11.dtd">
<!-- Generated by graphviz version 2.48.0 (20210717.1556)
 -->
<!-- Title: ImageInfo Pages: 1 -->
<svg width="130pt" height="528pt"
 viewBox="0.00 0.00 129.68 528.00" xmlns="http://www.w3.org/2000/svg" xmlns:xlink="http://www.w3.org/1999/xlink">
<g id="graph0" class="graph" transform="scale(1 1) rotate(0) translate(4 524)">
<title>ImageInfo</title>
<!-- Node1 -->
<g id="Node000001" class="node">
<title>Node1</title>
<g id="a_Node000001"><a xlink:title=" ">
<polygon fill="#999999" stroke="transparent" points="97.5,-326 12.5,-326 12.5,0 97.5,0 97.5,-326"/>
<text text-anchor="start" x="33.26" y="-314" font-family="Helvetica,sans-Serif" font-size="10.00">ImageInfo</text>
<text text-anchor="start" x="17.83" y="-300" font-family="Helvetica,sans-Serif" font-size="10.00">&#45;</text>
<text text-anchor="start" x="26" y="-300" font-family="Helvetica,sans-Serif" font-size="10.00">m_format</text>
<text text-anchor="start" x="17.83" y="-286" font-family="Helvetica,sans-Serif" font-size="10.00">&#45;</text>
<text text-anchor="start" x="26" y="-286" font-family="Helvetica,sans-Serif" font-size="10.00">m_ext</text>
<text text-anchor="start" x="17.83" y="-272" font-family="Helvetica,sans-Serif" font-size="10.00">&#45;</text>
<text text-anchor="start" x="26" y="-272" font-family="Helvetica,sans-Serif" font-size="10.00">m_fullExt</text>
<text text-anchor="start" x="17.83" y="-258" font-family="Helvetica,sans-Serif" font-size="10.00">&#45;</text>
<text text-anchor="start" x="26" y="-258" font-family="Helvetica,sans-Serif" font-size="10.00">m_mimetype</text>
<text text-anchor="start" x="17.83" y="-244" font-family="Helvetica,sans-Serif" font-size="10.00">&#45;</text>
<text text-anchor="start" x="26" y="-244" font-family="Helvetica,sans-Serif" font-size="10.00">m_width</text>
<text text-anchor="start" x="17.83" y="-230" font-family="Helvetica,sans-Serif" font-size="10.00">&#45;</text>
<text text-anchor="start" x="26" y="-230" font-family="Helvetica,sans-Serif" font-size="10.00">m_height</text>
<text text-anchor="start" x="17.83" y="-216" font-family="Helvetica,sans-Serif" font-size="10.00">&#45;</text>
<text text-anchor="start" x="26" y="-216" font-family="Helvetica,sans-Serif" font-size="10.00">m_err</text>
<text text-anchor="start" x="16.58" y="-202" font-family="Helvetica,sans-Serif" font-size="10.00">+</text>
<text text-anchor="start" x="26" y="-202" font-family="Helvetica,sans-Serif" font-size="10.00">ImageInfo()</text>
<text text-anchor="start" x="16.58" y="-188" font-family="Helvetica,sans-Serif" font-size="10.00">+</text>
<text text-anchor="start" x="26" y="-188" font-family="Helvetica,sans-Serif" font-size="10.00">ImageInfo()</text>
<text text-anchor="start" x="16.58" y="-174" font-family="Helvetica,sans-Serif" font-size="10.00">+</text>
<text text-anchor="start" x="26" y="-174" font-family="Helvetica,sans-Serif" font-size="10.00">tryDetector()</text>
<text text-anchor="start" x="16.58" y="-160" font-family="Helvetica,sans-Serif" font-size="10.00">+</text>
<text text-anchor="start" x="26" y="-160" font-family="Helvetica,sans-Serif" font-size="10.00">operator bool()</text>
<text text-anchor="start" x="16.58" y="-146" font-family="Helvetica,sans-Serif" font-size="10.00">+</text>
<text text-anchor="start" x="26" y="-146" font-family="Helvetica,sans-Serif" font-size="10.00">ok()</text>
<text text-anchor="start" x="16.58" y="-132" font-family="Helvetica,sans-Serif" font-size="10.00">+</text>
<text text-anchor="start" x="26" y="-132" font-family="Helvetica,sans-Serif" font-size="10.00">getFormat()</text>
<text text-anchor="start" x="16.58" y="-118" font-family="Helvetica,sans-Serif" font-size="10.00">+</text>
<text text-anchor="start" x="26" y="-118" font-family="Helvetica,sans-Serif" font-size="10.00">getExt()</text>
<text text-anchor="start" x="16.58" y="-104" font-family="Helvetica,sans-Serif" font-size="10.00">+</text>
<text text-anchor="start" x="26" y="-104" font-family="Helvetica,sans-Serif" font-size="10.00">getFullExt()</text>
<text text-anchor="start" x="16.58" y="-90" font-family="Helvetica,sans-Serif" font-size="10.00">+</text>
<text text-anchor="start" x="26" y="-90" font-family="Helvetica,sans-Serif" font-size="10.00">getMimetype()</text>
<text text-anchor="start" x="16.58" y="-76" font-family="Helvetica,sans-Serif" font-size="10.00">+</text>
<text text-anchor="start" x="26" y="-76" font-family="Helvetica,sans-Serif" font-size="10.00">getWidth()</text>
<text text-anchor="start" x="16.58" y="-62" font-family="Helvetica,sans-Serif" font-size="10.00">+</text>
<text text-anchor="start" x="26" y="-62" font-family="Helvetica,sans-Serif" font-size="10.00">getHeight()</text>
<text text-anchor="start" x="16.58" y="-48" font-family="Helvetica,sans-Serif" font-size="10.00">+</text>
<text text-anchor="start" x="26" y="-48" font-family="Helvetica,sans-Serif" font-size="10.00">getSize()</text>
<text text-anchor="start" x="16.58" y="-34" font-family="Helvetica,sans-Serif" font-size="10.00">+</text>
<text text-anchor="start" x="26" y="-34" font-family="Helvetica,sans-Serif" font-size="10.00">getEntrySizes()</text>
<text text-anchor="start" x="16.58" y="-20" font-family="Helvetica,sans-Serif" font-size="10.00">+</text>
<text text-anchor="start" x="26" y="-20" font-family="Helvetica,sans-Serif" font-size="10.00">getErrorCode()</text>
<text text-anchor="start" x="16.58" y="-6" font-family="Helvetica,sans-Serif" font-size="10.00">+</text>
<text text-anchor="start" x="26" y="-6" font-family="Helvetica,sans-Serif" font-size="10.00">getErrorMsg()</text>
<polygon fill="#666666" stroke="#666666" points="13,-310 13,-310 98,-310 98,-310 13,-310"/>
<polygon fill="#666666" stroke="#666666" points="13,-212 13,-212 24,-212 24,-212 13,-212"/>
<polygon fill="#666666" stroke="#666666" points="24,-212 24,-212 98,-212 98,-212 24,-212"/>
<polygon fill="none" stroke="#666666" points="12.5,0 12.5,-326 97.5,-326 97.5,0 12.5,0"/>
</a>
</g>
</g>
<!-- Node2 -->
<g id="Node000002" class="node">
<title>Node2</title>
<g id="a_Node000002"><a xlink:title=" ">
<polygon fill="white" stroke="transparent" points="108,-428 2,-428 2,-372 108,-372 108,-428"/>
<text text-anchor="start" x="6.79" y="-416" font-family="Helvetica,sans-Serif" font-size="10.00">std::vector&lt; std::array</text>
<text text-anchor="start" x="21.5" y="-406" font-family="Helvetica,sans-Serif" font-size="10.00">&lt; int64_t, 2 &gt; &gt;</text>
<text text-anchor="start" x="53.61" y="-392" font-family="Helvetica,sans-Serif" font-size="10.00"> </text>
<text text-anchor="start" x="53.61" y="-378" font-family="Helvetica,sans-Serif" font-size="10.00"> </text>
<polygon fill="#666666" stroke="#666666" points="2,-402 2,-402 108,-402 108,-402 2,-402"/>
<polygon fill="#666666" stroke="#666666" points="2,-388 2,-388 108,-388 108,-388 2,-388"/>
<polygon fill="none" stroke="#666666" points="2,-372 2,-428 108,-428 108,-372 2,-372"/>
</a>
</g>
</g>
<!-- Node2&#45;&gt;Node1 -->
<g id="edge1_Node000001_Node000002" class="edge">
<title>Node2&#45;&gt;Node1</title>
<g id="a_edge1_Node000001_Node000002"><a xlink:title=" ">
<path fill="none" stroke="#63b8ff" d="M55,-371.58C55,-362.18 55,-350.85 55,-338.4"/>
<polygon fill="none" stroke="#63b8ff" points="55,-338.14 51,-332.14 55,-326.14 59,-332.14 55,-338.14"/>
</a>
</g>
<text text-anchor="middle" x="88.34" y="-346" font-family="Helvetica,sans-Serif" font-size="10.00" fill="grey"> &#45;m_entrySizes</text>
</g>
<!-- Node3 -->
<g id="Node000003" class="node">
<title>Node3</title>
<g id="a_Node000003"><a xlink:title=" ">
<polygon fill="white" stroke="transparent" points="110,-520 0,-520 0,-474 110,-474 110,-520"/>
<text text-anchor="start" x="4.97" y="-508" font-family="Helvetica,sans-Serif" font-size="10.00">std::array&lt; int64_t, 2 &gt;</text>
<text text-anchor="start" x="16.58" y="-494" font-family="Helvetica,sans-Serif" font-size="10.00">+</text>
<text text-anchor="start" x="39" y="-494" font-family="Helvetica,sans-Serif" font-size="10.00">elements</text>
<text text-anchor="start" x="53.61" y="-480" font-family="Helvetica,sans-Serif" font-size="10.00"> </text>
<polygon fill="#666666" stroke="#666666" points="0,-504 0,-504 110,-504 110,-504 0,-504"/>
<polygon fill="#666666" stroke="#666666" points="0,-490 0,-490 37,-490 37,-490 0,-490"/>
<polygon fill="#666666" stroke="#666666" points="37,-490 37,-490 110,-490 110,-490 37,-490"/>
<polygon fill="none" stroke="#666666" points="0,-474 0,-520 110,-520 110,-474 0,-474"/>
</a>
</g>
</g>
<!-- Node3&#45;&gt;Node2 -->
<g id="edge2_Node000002_Node000003" class="edge">
<title>Node3&#45;&gt;Node2</title>
<g id="a_edge2_Node000002_Node000003"><a xlink:title=" ">
<path fill="none" stroke="#63b8ff" d="M55,-473.97C55,-463.9 55,-451.67 55,-440.13"/>
<polygon fill="none" stroke="#63b8ff" points="55,-440 51,-434 55,-428 59,-434 55,-440"/>
</a>
</g>
<text text-anchor="middle" x="79.6" y="-448" font-family="Helvetica,sans-Serif" font-size="10.00" fill="grey"> +elements</text>
</g>
</g>
</svg>
