<?xml version="1.0" encoding="UTF-8" standalone="no"?>
<!DOCTYPE svg PUBLIC "-//W3C//DTD SVG 1.1//EN"
 "http://www.w3.org/Graphics/SVG/1.1/DTD/svg11.dtd">
<!-- Generated by graphviz version 2.48.0 (20210717.1556)
 -->
<!-- Title: epub::container Pages: 1 -->
<svg width="494pt" height="1483pt"
 viewBox="0.00 0.00 494.15 1483.00" xmlns="http://www.w3.org/2000/svg" xmlns:xlink="http://www.w3.org/1999/xlink">
<g id="graph0" class="graph" transform="scale(1 1) rotate(0) translate(4 1479)">
<title>epub::container</title>
<!-- Node1 -->
<g id="Node000001" class="node">
<title>Node1</title>
<g id="a_Node000001"><a xlink:title="The EPUB container file hierarchy.">
<polygon fill="#999999" stroke="transparent" points="340.15,-158 262.15,-158 262.15,0 340.15,0 340.15,-158"/>
<text text-anchor="start" x="266.68" y="-146" font-family="Helvetica,sans-Serif" font-size="10.00">epub::container</text>
<text text-anchor="start" x="299.76" y="-132" font-family="Helvetica,sans-Serif" font-size="10.00"> </text>
<text text-anchor="start" x="267.73" y="-118" font-family="Helvetica,sans-Serif" font-size="10.00">+</text>
<text text-anchor="start" x="279.15" y="-118" font-family="Helvetica,sans-Serif" font-size="10.00">container()</text>
<text text-anchor="start" x="267.73" y="-104" font-family="Helvetica,sans-Serif" font-size="10.00">+</text>
<text text-anchor="start" x="279.15" y="-104" font-family="Helvetica,sans-Serif" font-size="10.00">container()</text>
<text text-anchor="start" x="267.73" y="-90" font-family="Helvetica,sans-Serif" font-size="10.00">+</text>
<text text-anchor="start" x="279.15" y="-90" font-family="Helvetica,sans-Serif" font-size="10.00">add()</text>
<text text-anchor="start" x="267.73" y="-76" font-family="Helvetica,sans-Serif" font-size="10.00">+</text>
<text text-anchor="start" x="279.15" y="-76" font-family="Helvetica,sans-Serif" font-size="10.00">add()</text>
<text text-anchor="start" x="267.73" y="-62" font-family="Helvetica,sans-Serif" font-size="10.00">+</text>
<text text-anchor="start" x="279.15" y="-62" font-family="Helvetica,sans-Serif" font-size="10.00">package()</text>
<text text-anchor="start" x="267.73" y="-48" font-family="Helvetica,sans-Serif" font-size="10.00">+</text>
<text text-anchor="start" x="279.15" y="-48" font-family="Helvetica,sans-Serif" font-size="10.00">package()</text>
<text text-anchor="start" x="267.73" y="-34" font-family="Helvetica,sans-Serif" font-size="10.00">+</text>
<text text-anchor="start" x="279.15" y="-34" font-family="Helvetica,sans-Serif" font-size="10.00">navigation()</text>
<text text-anchor="start" x="267.73" y="-20" font-family="Helvetica,sans-Serif" font-size="10.00">+</text>
<text text-anchor="start" x="279.15" y="-20" font-family="Helvetica,sans-Serif" font-size="10.00">navigation()</text>
<text text-anchor="start" x="267.73" y="-6" font-family="Helvetica,sans-Serif" font-size="10.00">+</text>
<text text-anchor="start" x="279.15" y="-6" font-family="Helvetica,sans-Serif" font-size="10.00">write()</text>
<polygon fill="#666666" stroke="#666666" points="262.15,-142 262.15,-142 340.15,-142 340.15,-142 262.15,-142"/>
<polygon fill="#666666" stroke="#666666" points="262.15,-128 262.15,-128 340.15,-128 340.15,-128 262.15,-128"/>
<polygon fill="none" stroke="#666666" points="262.15,0 262.15,-158 340.15,-158 340.15,0 262.15,0"/>
</a>
</g>
</g>
<!-- Node2 -->
<g id="Node000002" class="node">
<title>Node2</title>
<g id="a_Node000002"><a xlink:title=" ">
<polygon fill="white" stroke="transparent" points="245.15,-309 125.15,-309 125.15,-229 245.15,-229 245.15,-309"/>
<text text-anchor="start" x="129.99" y="-297" font-family="Helvetica,sans-Serif" font-size="10.00">std::map&lt; std::filesystem</text>
<text text-anchor="start" x="129.99" y="-287" font-family="Helvetica,sans-Serif" font-size="10.00">::path, std::filesystem</text>
<text text-anchor="start" x="168.33" y="-277" font-family="Helvetica,sans-Serif" font-size="10.00">::path &gt;</text>
<text text-anchor="start" x="144.23" y="-263" font-family="Helvetica,sans-Serif" font-size="10.00">+</text>
<text text-anchor="start" x="169.15" y="-263" font-family="Helvetica,sans-Serif" font-size="10.00">keys</text>
<text text-anchor="start" x="144.23" y="-249" font-family="Helvetica,sans-Serif" font-size="10.00">+</text>
<text text-anchor="start" x="169.15" y="-249" font-family="Helvetica,sans-Serif" font-size="10.00">elements</text>
<text text-anchor="start" x="183.76" y="-235" font-family="Helvetica,sans-Serif" font-size="10.00"> </text>
<polygon fill="#666666" stroke="#666666" points="125.15,-273 125.15,-273 245.15,-273 245.15,-273 125.15,-273"/>
<polygon fill="#666666" stroke="#666666" points="125.15,-245 125.15,-245 167.15,-245 167.15,-245 125.15,-245"/>
<polygon fill="#666666" stroke="#666666" points="167.15,-245 167.15,-245 245.15,-245 245.15,-245 167.15,-245"/>
<polygon fill="none" stroke="#666666" points="125.15,-229 125.15,-309 245.15,-309 245.15,-229 125.15,-229"/>
</a>
</g>
</g>
<!-- Node2&#45;&gt;Node1 -->
<g id="edge1_Node000001_Node000002" class="edge">
<title>Node2&#45;&gt;Node1</title>
<g id="a_edge1_Node000001_Node000002"><a xlink:title=" ">
<path fill="none" stroke="#63b8ff" d="M209.47,-228.59C222.84,-206.92 239.86,-179.32 255.61,-153.81"/>
<polygon fill="none" stroke="#63b8ff" points="255.72,-153.62 255.47,-146.41 262.03,-143.41 262.28,-150.61 255.72,-153.62"/>
</a>
</g>
<text text-anchor="middle" x="254.87" y="-178" font-family="Helvetica,sans-Serif" font-size="10.00" fill="grey"> &#45;_files</text>
</g>
<!-- Node3 -->
<g id="Node000003" class="node">
<title>Node3</title>
<g id="a_Node000003"><a xlink:href="classepub_1_1package.html" target="_top" xlink:title=" ">
<polygon fill="white" stroke="transparent" points="338.65,-334 263.65,-334 263.65,-204 338.65,-204 338.65,-334"/>
<text text-anchor="start" x="268.84" y="-322" font-family="Helvetica,sans-Serif" font-size="10.00">epub::package</text>
<text text-anchor="start" x="300.26" y="-308" font-family="Helvetica,sans-Serif" font-size="10.00"> </text>
<text text-anchor="start" x="270.23" y="-294" font-family="Helvetica,sans-Serif" font-size="10.00">+</text>
<text text-anchor="start" x="282.15" y="-294" font-family="Helvetica,sans-Serif" font-size="10.00">metadata()</text>
<text text-anchor="start" x="270.23" y="-280" font-family="Helvetica,sans-Serif" font-size="10.00">+</text>
<text text-anchor="start" x="282.15" y="-280" font-family="Helvetica,sans-Serif" font-size="10.00">metadata()</text>
<text text-anchor="start" x="270.23" y="-266" font-family="Helvetica,sans-Serif" font-size="10.00">+</text>
<text text-anchor="start" x="282.15" y="-266" font-family="Helvetica,sans-Serif" font-size="10.00">manifest()</text>
<text text-anchor="start" x="270.23" y="-252" font-family="Helvetica,sans-Serif" font-size="10.00">+</text>
<text text-anchor="start" x="282.15" y="-252" font-family="Helvetica,sans-Serif" font-size="10.00">manifest()</text>
<text text-anchor="start" x="270.23" y="-238" font-family="Helvetica,sans-Serif" font-size="10.00">+</text>
<text text-anchor="start" x="282.15" y="-238" font-family="Helvetica,sans-Serif" font-size="10.00">spine()</text>
<text text-anchor="start" x="270.23" y="-224" font-family="Helvetica,sans-Serif" font-size="10.00">+</text>
<text text-anchor="start" x="282.15" y="-224" font-family="Helvetica,sans-Serif" font-size="10.00">spine()</text>
<text text-anchor="start" x="270.23" y="-210" font-family="Helvetica,sans-Serif" font-size="10.00">+</text>
<text text-anchor="start" x="282.15" y="-210" font-family="Helvetica,sans-Serif" font-size="10.00">write()</text>
<polygon fill="#666666" stroke="#666666" points="264.15,-318 264.15,-318 339.15,-318 339.15,-318 264.15,-318"/>
<polygon fill="#666666" stroke="#666666" points="264.15,-304 264.15,-304 339.15,-304 339.15,-304 264.15,-304"/>
<polygon fill="none" stroke="#666666" points="263.65,-204 263.65,-334 338.65,-334 338.65,-204 263.65,-204"/>
</a>
</g>
</g>
<!-- Node3&#45;&gt;Node1 -->
<g id="edge2_Node000001_Node000003" class="edge">
<title>Node3&#45;&gt;Node1</title>
<g id="a_edge2_Node000001_Node000003"><a xlink:title=" ">
<path fill="none" stroke="#63b8ff" d="M301.15,-203.83C301.15,-193.05 301.15,-181.68 301.15,-170.39"/>
<polygon fill="none" stroke="#63b8ff" points="301.15,-170.19 297.15,-164.19 301.15,-158.19 305.15,-164.19 301.15,-170.19"/>
</a>
</g>
<text text-anchor="middle" x="325.89" y="-178" font-family="Helvetica,sans-Serif" font-size="10.00" fill="grey"> &#45;_package</text>
</g>
<!-- Node4 -->
<g id="Node000004" class="node">
<title>Node4</title>
<g id="a_Node000004"><a xlink:href="classepub_1_1metadata.html" target="_top" xlink:title="The metadata component of the package document.">
<polygon fill="white" stroke="transparent" points="187.65,-882 100.65,-882 100.65,-486 187.65,-486 187.65,-882"/>
<text text-anchor="start" x="109.9" y="-870" font-family="Helvetica,sans-Serif" font-size="10.00">epub::metadata</text>
<text text-anchor="start" x="105.98" y="-856" font-family="Helvetica,sans-Serif" font-size="10.00">&#45;</text>
<text text-anchor="start" x="114.15" y="-856" font-family="Helvetica,sans-Serif" font-size="10.00">_pre_paginated</text>
<text text-anchor="start" x="104.73" y="-842" font-family="Helvetica,sans-Serif" font-size="10.00">+</text>
<text text-anchor="start" x="114.15" y="-842" font-family="Helvetica,sans-Serif" font-size="10.00">metadata()</text>
<text text-anchor="start" x="104.73" y="-828" font-family="Helvetica,sans-Serif" font-size="10.00">+</text>
<text text-anchor="start" x="114.15" y="-828" font-family="Helvetica,sans-Serif" font-size="10.00">pre_paginated()</text>
<text text-anchor="start" x="104.73" y="-814" font-family="Helvetica,sans-Serif" font-size="10.00">+</text>
<text text-anchor="start" x="114.15" y="-814" font-family="Helvetica,sans-Serif" font-size="10.00">reflow()</text>
<text text-anchor="start" x="104.73" y="-800" font-family="Helvetica,sans-Serif" font-size="10.00">+</text>
<text text-anchor="start" x="114.15" y="-800" font-family="Helvetica,sans-Serif" font-size="10.00">layout()</text>
<text text-anchor="start" x="104.73" y="-786" font-family="Helvetica,sans-Serif" font-size="10.00">+</text>
<text text-anchor="start" x="114.15" y="-786" font-family="Helvetica,sans-Serif" font-size="10.00">identifier()</text>
<text text-anchor="start" x="104.73" y="-772" font-family="Helvetica,sans-Serif" font-size="10.00">+</text>
<text text-anchor="start" x="114.15" y="-772" font-family="Helvetica,sans-Serif" font-size="10.00">identifier()</text>
<text text-anchor="start" x="104.73" y="-758" font-family="Helvetica,sans-Serif" font-size="10.00">+</text>
<text text-anchor="start" x="114.15" y="-758" font-family="Helvetica,sans-Serif" font-size="10.00">title()</text>
<text text-anchor="start" x="104.73" y="-744" font-family="Helvetica,sans-Serif" font-size="10.00">+</text>
<text text-anchor="start" x="114.15" y="-744" font-family="Helvetica,sans-Serif" font-size="10.00">title()</text>
<text text-anchor="start" x="104.73" y="-730" font-family="Helvetica,sans-Serif" font-size="10.00">+</text>
<text text-anchor="start" x="114.15" y="-730" font-family="Helvetica,sans-Serif" font-size="10.00">language()</text>
<text text-anchor="start" x="104.73" y="-716" font-family="Helvetica,sans-Serif" font-size="10.00">+</text>
<text text-anchor="start" x="114.15" y="-716" font-family="Helvetica,sans-Serif" font-size="10.00">description()</text>
<text text-anchor="start" x="104.73" y="-702" font-family="Helvetica,sans-Serif" font-size="10.00">+</text>
<text text-anchor="start" x="114.15" y="-702" font-family="Helvetica,sans-Serif" font-size="10.00">description()</text>
<text text-anchor="start" x="104.73" y="-688" font-family="Helvetica,sans-Serif" font-size="10.00">+</text>
<text text-anchor="start" x="114.15" y="-688" font-family="Helvetica,sans-Serif" font-size="10.00">creators()</text>
<text text-anchor="start" x="104.73" y="-674" font-family="Helvetica,sans-Serif" font-size="10.00">+</text>
<text text-anchor="start" x="114.15" y="-674" font-family="Helvetica,sans-Serif" font-size="10.00">creators()</text>
<text text-anchor="start" x="104.73" y="-660" font-family="Helvetica,sans-Serif" font-size="10.00">+</text>
<text text-anchor="start" x="114.15" y="-660" font-family="Helvetica,sans-Serif" font-size="10.00">collections()</text>
<text text-anchor="start" x="104.73" y="-646" font-family="Helvetica,sans-Serif" font-size="10.00">+</text>
<text text-anchor="start" x="114.15" y="-646" font-family="Helvetica,sans-Serif" font-size="10.00">collections()</text>
<text text-anchor="start" x="105.7" y="-632" font-family="Helvetica,sans-Serif" font-size="10.00">*</text>
<text text-anchor="start" x="114.15" y="-632" font-family="Helvetica,sans-Serif" font-size="10.00">identifier()</text>
<text text-anchor="start" x="105.7" y="-618" font-family="Helvetica,sans-Serif" font-size="10.00">*</text>
<text text-anchor="start" x="114.15" y="-618" font-family="Helvetica,sans-Serif" font-size="10.00">identifier()</text>
<text text-anchor="start" x="105.7" y="-604" font-family="Helvetica,sans-Serif" font-size="10.00">*</text>
<text text-anchor="start" x="114.15" y="-604" font-family="Helvetica,sans-Serif" font-size="10.00">title()</text>
<text text-anchor="start" x="105.7" y="-590" font-family="Helvetica,sans-Serif" font-size="10.00">*</text>
<text text-anchor="start" x="114.15" y="-590" font-family="Helvetica,sans-Serif" font-size="10.00">title()</text>
<text text-anchor="start" x="105.7" y="-576" font-family="Helvetica,sans-Serif" font-size="10.00">*</text>
<text text-anchor="start" x="114.15" y="-576" font-family="Helvetica,sans-Serif" font-size="10.00">language()</text>
<text text-anchor="start" x="105.7" y="-562" font-family="Helvetica,sans-Serif" font-size="10.00">*</text>
<text text-anchor="start" x="114.15" y="-562" font-family="Helvetica,sans-Serif" font-size="10.00">description()</text>
<text text-anchor="start" x="105.7" y="-548" font-family="Helvetica,sans-Serif" font-size="10.00">*</text>
<text text-anchor="start" x="114.15" y="-548" font-family="Helvetica,sans-Serif" font-size="10.00">description()</text>
<text text-anchor="start" x="105.7" y="-534" font-family="Helvetica,sans-Serif" font-size="10.00">*</text>
<text text-anchor="start" x="114.15" y="-534" font-family="Helvetica,sans-Serif" font-size="10.00">creators()</text>
<text text-anchor="start" x="105.7" y="-520" font-family="Helvetica,sans-Serif" font-size="10.00">*</text>
<text text-anchor="start" x="114.15" y="-520" font-family="Helvetica,sans-Serif" font-size="10.00">creators()</text>
<text text-anchor="start" x="105.7" y="-506" font-family="Helvetica,sans-Serif" font-size="10.00">*</text>
<text text-anchor="start" x="114.15" y="-506" font-family="Helvetica,sans-Serif" font-size="10.00">collections()</text>
<text text-anchor="start" x="105.7" y="-492" font-family="Helvetica,sans-Serif" font-size="10.00">*</text>
<text text-anchor="start" x="114.15" y="-492" font-family="Helvetica,sans-Serif" font-size="10.00">collections()</text>
<polygon fill="#666666" stroke="#666666" points="101.15,-866 101.15,-866 188.15,-866 188.15,-866 101.15,-866"/>
<polygon fill="#666666" stroke="#666666" points="101.15,-852 101.15,-852 112.15,-852 112.15,-852 101.15,-852"/>
<polygon fill="#666666" stroke="#666666" points="112.15,-852 112.15,-852 188.15,-852 188.15,-852 112.15,-852"/>
<polygon fill="none" stroke="#666666" points="100.65,-486 100.65,-882 187.65,-882 187.65,-486 100.65,-486"/>
</a>
</g>
</g>
<!-- Node4&#45;&gt;Node3 -->
<g id="edge3_Node000003_Node000004" class="edge">
<title>Node4&#45;&gt;Node3</title>
<g id="a_edge3_Node000003_Node000004"><a xlink:title=" ">
<path fill="none" stroke="#63b8ff" d="M158.47,-485.63C169.51,-438.18 187.81,-390.22 217.78,-352 228.91,-337.81 240.34,-345.6 254.15,-334 254.35,-333.83 254.56,-333.66 254.76,-333.48"/>
<polygon fill="none" stroke="#63b8ff" points="254.94,-333.31 256.53,-326.28 263.63,-325.04 262.04,-332.08 254.94,-333.31"/>
</a>
</g>
<text text-anchor="middle" x="244.83" y="-407" font-family="Helvetica,sans-Serif" font-size="10.00" fill="grey"> &#45;_metadata</text>
</g>
<!-- Node5 -->
<g id="Node000005" class="node">
<title>Node5</title>
<g id="a_Node000005"><a xlink:title=" ">
<polygon fill="white" stroke="transparent" points="119.15,-1382 55.15,-1382 55.15,-1336 119.15,-1336 119.15,-1382"/>
<text text-anchor="start" x="59.91" y="-1370" font-family="Helvetica,sans-Serif" font-size="10.00">std::u8string</text>
<text text-anchor="start" x="85.76" y="-1356" font-family="Helvetica,sans-Serif" font-size="10.00"> </text>
<text text-anchor="start" x="85.76" y="-1342" font-family="Helvetica,sans-Serif" font-size="10.00"> </text>
<polygon fill="#666666" stroke="#666666" points="55.15,-1366 55.15,-1366 119.15,-1366 119.15,-1366 55.15,-1366"/>
<polygon fill="#666666" stroke="#666666" points="55.15,-1352 55.15,-1352 119.15,-1352 119.15,-1352 55.15,-1352"/>
<polygon fill="none" stroke="#666666" points="55.15,-1336 55.15,-1382 119.15,-1382 119.15,-1336 55.15,-1336"/>
</a>
</g>
</g>
<!-- Node5&#45;&gt;Node4 -->
<g id="edge4_Node000004_Node000005" class="edge">
<title>Node5&#45;&gt;Node4</title>
<g id="a_edge4_Node000004_Node000005"><a xlink:title=" ">
<path fill="none" stroke="#63b8ff" d="M67.43,-1335.97C53.79,-1319.2 36.78,-1294.84 29.15,-1270 -15.49,-1124.66 -5.07,-1074.06 37.15,-928 51.72,-877.58 74.49,-823.95 95.29,-779.93"/>
<polygon fill="none" stroke="#63b8ff" points="95.36,-779.78 94.34,-772.64 100.53,-768.95 101.56,-776.09 95.36,-779.78"/>
</a>
</g>
<text text-anchor="middle" x="47.16" y="-1034" font-family="Helvetica,sans-Serif" font-size="10.00" fill="grey"> &#45;_description</text>
<text text-anchor="middle" x="47.16" y="-1024" font-family="Helvetica,sans-Serif" font-size="10.00" fill="grey">&#45;_identifier</text>
<text text-anchor="middle" x="47.16" y="-1014" font-family="Helvetica,sans-Serif" font-size="10.00" fill="grey">&#45;_language</text>
<text text-anchor="middle" x="47.16" y="-1004" font-family="Helvetica,sans-Serif" font-size="10.00" fill="grey">&#45;_title</text>
</g>
<!-- Node8 -->
<g id="Node000008" class="node">
<title>Node8</title>
<g id="a_Node000008"><a xlink:href="classepub_1_1creator.html" target="_top" xlink:title="An individual or organizational creator.">
<polygon fill="white" stroke="transparent" points="135.65,-1228 38.65,-1228 38.65,-1102 135.65,-1102 135.65,-1228"/>
<text text-anchor="start" x="58.19" y="-1216" font-family="Helvetica,sans-Serif" font-size="10.00">epub::creator</text>
<text text-anchor="start" x="86.26" y="-1202" font-family="Helvetica,sans-Serif" font-size="10.00"> </text>
<text text-anchor="start" x="42.73" y="-1188" font-family="Helvetica,sans-Serif" font-size="10.00">+</text>
<text text-anchor="start" x="52.15" y="-1188" font-family="Helvetica,sans-Serif" font-size="10.00">creator()</text>
<text text-anchor="start" x="42.73" y="-1174" font-family="Helvetica,sans-Serif" font-size="10.00">+</text>
<text text-anchor="start" x="52.15" y="-1174" font-family="Helvetica,sans-Serif" font-size="10.00">operator const std</text>
<text text-anchor="start" x="52.15" y="-1164" font-family="Helvetica,sans-Serif" font-size="10.00">::u8string &amp;()</text>
<text text-anchor="start" x="42.73" y="-1150" font-family="Helvetica,sans-Serif" font-size="10.00">+</text>
<text text-anchor="start" x="52.15" y="-1150" font-family="Helvetica,sans-Serif" font-size="10.00">file_as()</text>
<text text-anchor="start" x="42.73" y="-1136" font-family="Helvetica,sans-Serif" font-size="10.00">+</text>
<text text-anchor="start" x="52.15" y="-1136" font-family="Helvetica,sans-Serif" font-size="10.00">file_as()</text>
<text text-anchor="start" x="42.73" y="-1122" font-family="Helvetica,sans-Serif" font-size="10.00">+</text>
<text text-anchor="start" x="52.15" y="-1122" font-family="Helvetica,sans-Serif" font-size="10.00">role()</text>
<text text-anchor="start" x="42.73" y="-1108" font-family="Helvetica,sans-Serif" font-size="10.00">+</text>
<text text-anchor="start" x="52.15" y="-1108" font-family="Helvetica,sans-Serif" font-size="10.00">role()</text>
<polygon fill="#666666" stroke="#666666" points="39.15,-1212 39.15,-1212 136.15,-1212 136.15,-1212 39.15,-1212"/>
<polygon fill="#666666" stroke="#666666" points="39.15,-1198 39.15,-1198 136.15,-1198 136.15,-1198 39.15,-1198"/>
<polygon fill="none" stroke="#666666" points="38.65,-1102 38.65,-1228 135.65,-1228 135.65,-1102 38.65,-1102"/>
</a>
</g>
</g>
<!-- Node5&#45;&gt;Node8 -->
<g id="edge8_Node000008_Node000005" class="edge">
<title>Node5&#45;&gt;Node8</title>
<g id="a_edge8_Node000008_Node000005"><a xlink:title=" ">
<path fill="none" stroke="#63b8ff" d="M87.15,-1335.98C87.15,-1312.73 87.15,-1274.79 87.15,-1240.65"/>
<polygon fill="none" stroke="#63b8ff" points="87.15,-1240.28 83.15,-1234.28 87.15,-1228.28 91.15,-1234.28 87.15,-1240.28"/>
</a>
</g>
<text text-anchor="middle" x="107.44" y="-1310" font-family="Helvetica,sans-Serif" font-size="10.00" fill="grey"> &#45;_file_as</text>
<text text-anchor="middle" x="107.44" y="-1300" font-family="Helvetica,sans-Serif" font-size="10.00" fill="grey">&#45;_name</text>
<text text-anchor="middle" x="107.44" y="-1290" font-family="Helvetica,sans-Serif" font-size="10.00" fill="grey">&#45;_role</text>
</g>
<!-- Node10 -->
<g id="Node000010" class="node">
<title>Node10</title>
<g id="a_Node000010"><a xlink:href="classepub_1_1collection.html" target="_top" xlink:title="An indication that the publication is part of a larger set.">
<polygon fill="white" stroke="transparent" points="250.65,-1270 153.65,-1270 153.65,-1060 250.65,-1060 250.65,-1270"/>
<text text-anchor="start" x="167.9" y="-1258" font-family="Helvetica,sans-Serif" font-size="10.00">epub::collection</text>
<text text-anchor="start" x="158.98" y="-1244" font-family="Helvetica,sans-Serif" font-size="10.00">&#45;</text>
<text text-anchor="start" x="167.15" y="-1244" font-family="Helvetica,sans-Serif" font-size="10.00">_type</text>
<text text-anchor="start" x="157.73" y="-1230" font-family="Helvetica,sans-Serif" font-size="10.00">+</text>
<text text-anchor="start" x="167.15" y="-1230" font-family="Helvetica,sans-Serif" font-size="10.00">collection()</text>
<text text-anchor="start" x="157.73" y="-1216" font-family="Helvetica,sans-Serif" font-size="10.00">+</text>
<text text-anchor="start" x="167.15" y="-1216" font-family="Helvetica,sans-Serif" font-size="10.00">collection()</text>
<text text-anchor="start" x="157.73" y="-1202" font-family="Helvetica,sans-Serif" font-size="10.00">+</text>
<text text-anchor="start" x="167.15" y="-1202" font-family="Helvetica,sans-Serif" font-size="10.00">collection()</text>
<text text-anchor="start" x="157.73" y="-1188" font-family="Helvetica,sans-Serif" font-size="10.00">+</text>
<text text-anchor="start" x="167.15" y="-1188" font-family="Helvetica,sans-Serif" font-size="10.00">~collection()</text>
<text text-anchor="start" x="157.73" y="-1174" font-family="Helvetica,sans-Serif" font-size="10.00">+</text>
<text text-anchor="start" x="167.15" y="-1174" font-family="Helvetica,sans-Serif" font-size="10.00">operator=()</text>
<text text-anchor="start" x="157.73" y="-1160" font-family="Helvetica,sans-Serif" font-size="10.00">+</text>
<text text-anchor="start" x="167.15" y="-1160" font-family="Helvetica,sans-Serif" font-size="10.00">operator=()</text>
<text text-anchor="start" x="157.73" y="-1146" font-family="Helvetica,sans-Serif" font-size="10.00">+</text>
<text text-anchor="start" x="167.15" y="-1146" font-family="Helvetica,sans-Serif" font-size="10.00">operator const std</text>
<text text-anchor="start" x="167.15" y="-1136" font-family="Helvetica,sans-Serif" font-size="10.00">::u8string &amp;()</text>
<text text-anchor="start" x="157.73" y="-1122" font-family="Helvetica,sans-Serif" font-size="10.00">+</text>
<text text-anchor="start" x="167.15" y="-1122" font-family="Helvetica,sans-Serif" font-size="10.00">type()</text>
<text text-anchor="start" x="157.73" y="-1108" font-family="Helvetica,sans-Serif" font-size="10.00">+</text>
<text text-anchor="start" x="167.15" y="-1108" font-family="Helvetica,sans-Serif" font-size="10.00">type()</text>
<text text-anchor="start" x="157.73" y="-1094" font-family="Helvetica,sans-Serif" font-size="10.00">+</text>
<text text-anchor="start" x="167.15" y="-1094" font-family="Helvetica,sans-Serif" font-size="10.00">group_position()</text>
<text text-anchor="start" x="157.73" y="-1080" font-family="Helvetica,sans-Serif" font-size="10.00">+</text>
<text text-anchor="start" x="167.15" y="-1080" font-family="Helvetica,sans-Serif" font-size="10.00">group_position()</text>
<text text-anchor="start" x="157.73" y="-1066" font-family="Helvetica,sans-Serif" font-size="10.00">+</text>
<text text-anchor="start" x="167.15" y="-1066" font-family="Helvetica,sans-Serif" font-size="10.00">group_position()</text>
<polygon fill="#666666" stroke="#666666" points="154.15,-1254 154.15,-1254 251.15,-1254 251.15,-1254 154.15,-1254"/>
<polygon fill="#666666" stroke="#666666" points="154.15,-1240 154.15,-1240 165.15,-1240 165.15,-1240 154.15,-1240"/>
<polygon fill="#666666" stroke="#666666" points="165.15,-1240 165.15,-1240 251.15,-1240 251.15,-1240 165.15,-1240"/>
<polygon fill="none" stroke="#666666" points="153.65,-1060 153.65,-1270 250.65,-1270 250.65,-1060 153.65,-1060"/>
</a>
</g>
</g>
<!-- Node5&#45;&gt;Node10 -->
<g id="edge11_Node000010_Node000005" class="edge">
<title>Node5&#45;&gt;Node10</title>
<g id="a_edge11_Node000010_Node000005"><a xlink:title=" ">
<path fill="none" stroke="#63b8ff" d="M115.59,-1335.95C121.53,-1330.5 127.42,-1324.38 132.15,-1318 140.6,-1306.6 148.37,-1294.02 155.41,-1281.13"/>
<polygon fill="none" stroke="#63b8ff" points="155.56,-1280.85 154.82,-1273.68 161.16,-1270.24 161.9,-1277.41 155.56,-1280.85"/>
</a>
</g>
<text text-anchor="middle" x="188.79" y="-1305" font-family="Helvetica,sans-Serif" font-size="10.00" fill="grey"> &#45;_group_position</text>
<text text-anchor="middle" x="188.79" y="-1295" font-family="Helvetica,sans-Serif" font-size="10.00" fill="grey">&#45;_name</text>
</g>
<!-- Node6 -->
<g id="Node000006" class="node">
<title>Node6</title>
<g id="a_Node000006"><a xlink:title=" ">
<polygon fill="white" stroke="transparent" points="131.15,-1475 43.15,-1475 43.15,-1419 131.15,-1419 131.15,-1475"/>
<text text-anchor="start" x="48.1" y="-1463" font-family="Helvetica,sans-Serif" font-size="10.00">std::basic_string&lt;</text>
<text text-anchor="start" x="70.61" y="-1453" font-family="Helvetica,sans-Serif" font-size="10.00"> Char &gt;</text>
<text text-anchor="start" x="85.76" y="-1439" font-family="Helvetica,sans-Serif" font-size="10.00"> </text>
<text text-anchor="start" x="85.76" y="-1425" font-family="Helvetica,sans-Serif" font-size="10.00"> </text>
<polygon fill="#666666" stroke="#666666" points="43.15,-1449 43.15,-1449 131.15,-1449 131.15,-1449 43.15,-1449"/>
<polygon fill="#666666" stroke="#666666" points="43.15,-1435 43.15,-1435 131.15,-1435 131.15,-1435 43.15,-1435"/>
<polygon fill="none" stroke="#666666" points="43.15,-1419 43.15,-1475 131.15,-1475 131.15,-1419 43.15,-1419"/>
</a>
</g>
</g>
<!-- Node6&#45;&gt;Node5 -->
<g id="edge5_Node000005_Node000006" class="edge">
<title>Node6&#45;&gt;Node5</title>
<g id="a_edge5_Node000005_Node000006"><a xlink:title=" ">
<path fill="none" stroke="#63b8ff" d="M87.15,-1408.78C87.15,-1399.7 87.15,-1390.27 87.15,-1382.15"/>
<polygon fill="none" stroke="#63b8ff" points="83.65,-1408.79 87.15,-1418.79 90.65,-1408.79 83.65,-1408.79"/>
</a>
</g>
</g>
<!-- Node7 -->
<g id="Node000007" class="node">
<title>Node7</title>
<g id="a_Node000007"><a xlink:title=" ">
<polygon fill="white" stroke="transparent" points="138.15,-984 46.15,-984 46.15,-928 138.15,-928 138.15,-984"/>
<text text-anchor="start" x="50.87" y="-972" font-family="Helvetica,sans-Serif" font-size="10.00">std::vector&lt; epub::</text>
<text text-anchor="start" x="72.28" y="-962" font-family="Helvetica,sans-Serif" font-size="10.00">creator &gt;</text>
<text text-anchor="start" x="90.76" y="-948" font-family="Helvetica,sans-Serif" font-size="10.00"> </text>
<text text-anchor="start" x="90.76" y="-934" font-family="Helvetica,sans-Serif" font-size="10.00"> </text>
<polygon fill="#666666" stroke="#666666" points="46.15,-958 46.15,-958 138.15,-958 138.15,-958 46.15,-958"/>
<polygon fill="#666666" stroke="#666666" points="46.15,-944 46.15,-944 138.15,-944 138.15,-944 46.15,-944"/>
<polygon fill="none" stroke="#666666" points="46.15,-928 46.15,-984 138.15,-984 138.15,-928 46.15,-928"/>
</a>
</g>
</g>
<!-- Node7&#45;&gt;Node4 -->
<g id="edge6_Node000004_Node000007" class="edge">
<title>Node7&#45;&gt;Node4</title>
<g id="a_edge6_Node000004_Node000007"><a xlink:title=" ">
<path fill="none" stroke="#63b8ff" d="M97.37,-927.88C99.2,-918.4 101.41,-906.91 103.87,-894.12"/>
<polygon fill="none" stroke="#63b8ff" points="103.93,-893.83 101.14,-887.18 106.2,-882.05 108.99,-888.69 103.93,-893.83"/>
</a>
</g>
<text text-anchor="middle" x="126.04" y="-902" font-family="Helvetica,sans-Serif" font-size="10.00" fill="grey"> &#45;_creators</text>
</g>
<!-- Node8&#45;&gt;Node7 -->
<g id="edge7_Node000007_Node000008" class="edge">
<title>Node8&#45;&gt;Node7</title>
<g id="a_edge7_Node000007_Node000008"><a xlink:title=" ">
<path fill="none" stroke="#63b8ff" d="M88.65,-1101.89C89.48,-1067.66 90.48,-1026.19 91.2,-996.41"/>
<polygon fill="none" stroke="#63b8ff" points="91.21,-996.01 87.35,-989.91 91.5,-984.01 95.35,-990.11 91.21,-996.01"/>
</a>
</g>
<text text-anchor="middle" x="115.75" y="-1019" font-family="Helvetica,sans-Serif" font-size="10.00" fill="grey"> +elements</text>
</g>
<!-- Node9 -->
<g id="Node000009" class="node">
<title>Node9</title>
<g id="a_Node000009"><a xlink:title=" ">
<polygon fill="white" stroke="transparent" points="248.15,-984 156.15,-984 156.15,-928 248.15,-928 248.15,-984"/>
<text text-anchor="start" x="160.87" y="-972" font-family="Helvetica,sans-Serif" font-size="10.00">std::vector&lt; epub::</text>
<text text-anchor="start" x="176.99" y="-962" font-family="Helvetica,sans-Serif" font-size="10.00">collection &gt;</text>
<text text-anchor="start" x="200.76" y="-948" font-family="Helvetica,sans-Serif" font-size="10.00"> </text>
<text text-anchor="start" x="200.76" y="-934" font-family="Helvetica,sans-Serif" font-size="10.00"> </text>
<polygon fill="#666666" stroke="#666666" points="156.15,-958 156.15,-958 248.15,-958 248.15,-958 156.15,-958"/>
<polygon fill="#666666" stroke="#666666" points="156.15,-944 156.15,-944 248.15,-944 248.15,-944 156.15,-944"/>
<polygon fill="none" stroke="#666666" points="156.15,-928 156.15,-984 248.15,-984 248.15,-928 156.15,-928"/>
</a>
</g>
</g>
<!-- Node9&#45;&gt;Node4 -->
<g id="edge9_Node000004_Node000009" class="edge">
<title>Node9&#45;&gt;Node4</title>
<g id="a_edge9_Node000004_Node000009"><a xlink:title=" ">
<path fill="none" stroke="#63b8ff" d="M196.32,-927.88C194.29,-918.4 191.82,-906.91 189.07,-894.12"/>
<polygon fill="none" stroke="#63b8ff" points="189,-893.78 183.83,-888.75 186.48,-882.05 191.65,-887.07 189,-893.78"/>
</a>
</g>
<text text-anchor="middle" x="222.33" y="-902" font-family="Helvetica,sans-Serif" font-size="10.00" fill="grey"> &#45;_collections</text>
</g>
<!-- Node10&#45;&gt;Node9 -->
<g id="edge10_Node000009_Node000010" class="edge">
<title>Node10&#45;&gt;Node9</title>
<g id="a_edge10_Node000009_Node000010"><a xlink:title=" ">
<path fill="none" stroke="#63b8ff" d="M202.15,-1059.89C202.15,-1037.26 202.15,-1014.67 202.15,-996.44"/>
<polygon fill="none" stroke="#63b8ff" points="202.15,-996.29 198.15,-990.29 202.15,-984.29 206.15,-990.29 202.15,-996.29"/>
</a>
</g>
<text text-anchor="middle" x="226.75" y="-1019" font-family="Helvetica,sans-Serif" font-size="10.00" fill="grey"> +elements</text>
</g>
<!-- Node11 -->
<g id="Node000011" class="node">
<title>Node11</title>
<g id="a_Node000011"><a xlink:href="classepub_1_1manifest.html" target="_top" xlink:title="A listing of all the assets in a container.">
<polygon fill="white" stroke="transparent" points="319.65,-742 244.65,-742 244.65,-626 319.65,-626 319.65,-742"/>
<text text-anchor="start" x="249.85" y="-730" font-family="Helvetica,sans-Serif" font-size="10.00">epub::manifest</text>
<text text-anchor="start" x="281.26" y="-716" font-family="Helvetica,sans-Serif" font-size="10.00"> </text>
<text text-anchor="start" x="250.73" y="-702" font-family="Helvetica,sans-Serif" font-size="10.00">+</text>
<text text-anchor="start" x="262.15" y="-702" font-family="Helvetica,sans-Serif" font-size="10.00">manifest()</text>
<text text-anchor="start" x="250.73" y="-688" font-family="Helvetica,sans-Serif" font-size="10.00">+</text>
<text text-anchor="start" x="262.15" y="-688" font-family="Helvetica,sans-Serif" font-size="10.00">manifest()</text>
<text text-anchor="start" x="250.73" y="-674" font-family="Helvetica,sans-Serif" font-size="10.00">+</text>
<text text-anchor="start" x="262.15" y="-674" font-family="Helvetica,sans-Serif" font-size="10.00">manifest()</text>
<text text-anchor="start" x="250.73" y="-660" font-family="Helvetica,sans-Serif" font-size="10.00">+</text>
<text text-anchor="start" x="262.15" y="-660" font-family="Helvetica,sans-Serif" font-size="10.00">~manifest()</text>
<text text-anchor="start" x="250.73" y="-646" font-family="Helvetica,sans-Serif" font-size="10.00">+</text>
<text text-anchor="start" x="262.15" y="-646" font-family="Helvetica,sans-Serif" font-size="10.00">operator=()</text>
<text text-anchor="start" x="250.73" y="-632" font-family="Helvetica,sans-Serif" font-size="10.00">+</text>
<text text-anchor="start" x="262.15" y="-632" font-family="Helvetica,sans-Serif" font-size="10.00">operator=()</text>
<polygon fill="#666666" stroke="#666666" points="245.15,-726 245.15,-726 320.15,-726 320.15,-726 245.15,-726"/>
<polygon fill="#666666" stroke="#666666" points="245.15,-712 245.15,-712 320.15,-712 320.15,-712 245.15,-712"/>
<polygon fill="none" stroke="#666666" points="244.65,-626 244.65,-742 319.65,-742 319.65,-626 244.65,-626"/>
</a>
</g>
</g>
<!-- Node11&#45;&gt;Node3 -->
<g id="edge12_Node000003_Node000011" class="edge">
<title>Node11&#45;&gt;Node3</title>
<g id="a_edge12_Node000003_Node000011"><a xlink:title=" ">
<path fill="none" stroke="#63b8ff" d="M278.01,-625.95C274.15,-559.8 270.5,-447.6 281.69,-352 281.91,-350.09 282.16,-348.17 282.44,-346.23"/>
<polygon fill="none" stroke="#63b8ff" points="282.47,-346.05 279.49,-339.48 284.42,-334.2 287.39,-340.77 282.47,-346.05"/>
</a>
</g>
<text text-anchor="middle" x="306.88" y="-407" font-family="Helvetica,sans-Serif" font-size="10.00" fill="grey"> &#45;_manifest</text>
</g>
<!-- Node12 -->
<g id="Node000012" class="node">
<title>Node12</title>
<g id="a_Node000012"><a xlink:title=" ">
<polygon fill="white" stroke="transparent" points="345.65,-979 266.65,-979 266.65,-933 345.65,-933 345.65,-979"/>
<text text-anchor="start" x="272.09" y="-967" font-family="Helvetica,sans-Serif" font-size="10.00">std::vector&lt; T &gt;</text>
<text text-anchor="start" x="305.26" y="-953" font-family="Helvetica,sans-Serif" font-size="10.00"> </text>
<text text-anchor="start" x="305.26" y="-939" font-family="Helvetica,sans-Serif" font-size="10.00"> </text>
<polygon fill="#666666" stroke="#666666" points="267.15,-963 267.15,-963 346.15,-963 346.15,-963 267.15,-963"/>
<polygon fill="#666666" stroke="#666666" points="267.15,-949 267.15,-949 346.15,-949 346.15,-949 267.15,-949"/>
<polygon fill="none" stroke="#666666" points="266.65,-933 266.65,-979 345.65,-979 345.65,-933 266.65,-933"/>
</a>
</g>
</g>
<!-- Node12&#45;&gt;Node11 -->
<g id="edge13_Node000011_Node000012" class="edge">
<title>Node12&#45;&gt;Node11</title>
<g id="a_edge13_Node000011_Node000012"><a xlink:title=" ">
<path fill="none" stroke="#8b1a1a" d="M303.3,-922.93C299.34,-878.39 292.11,-797.06 287.22,-742.03"/>
<polygon fill="none" stroke="#8b1a1a" points="299.81,-923.25 304.18,-932.9 306.79,-922.63 299.81,-923.25"/>
</a>
</g>
</g>
<!-- Node13 -->
<g id="Node000013" class="node">
<title>Node13</title>
<g id="a_Node000013"><a xlink:title=" ">
<polygon fill="white" stroke="transparent" points="314.15,-1188 298.15,-1188 298.15,-1142 314.15,-1142 314.15,-1188"/>
<text text-anchor="start" x="303.09" y="-1176" font-family="Helvetica,sans-Serif" font-size="10.00">T</text>
<text text-anchor="start" x="304.76" y="-1162" font-family="Helvetica,sans-Serif" font-size="10.00"> </text>
<text text-anchor="start" x="304.76" y="-1148" font-family="Helvetica,sans-Serif" font-size="10.00"> </text>
<polygon fill="#666666" stroke="#666666" points="298.15,-1172 298.15,-1172 314.15,-1172 314.15,-1172 298.15,-1172"/>
<polygon fill="#666666" stroke="#666666" points="298.15,-1158 298.15,-1158 314.15,-1158 314.15,-1158 298.15,-1158"/>
<polygon fill="none" stroke="#666666" points="298.15,-1142 298.15,-1188 314.15,-1188 314.15,-1142 298.15,-1142"/>
</a>
</g>
</g>
<!-- Node13&#45;&gt;Node12 -->
<g id="edge14_Node000012_Node000013" class="edge">
<title>Node13&#45;&gt;Node12</title>
<g id="a_edge14_Node000012_Node000013"><a xlink:title=" ">
<path fill="none" stroke="#63b8ff" d="M306.15,-1141.85C306.15,-1105.84 306.15,-1034.33 306.15,-991.58"/>
<polygon fill="none" stroke="#63b8ff" points="306.15,-991.31 302.15,-985.31 306.15,-979.31 310.15,-985.31 306.15,-991.31"/>
</a>
</g>
<text text-anchor="middle" x="330.75" y="-1019" font-family="Helvetica,sans-Serif" font-size="10.00" fill="grey"> +elements</text>
</g>
<!-- Node14 -->
<g id="Node000014" class="node">
<title>Node14</title>
<g id="a_Node000014"><a xlink:href="classepub_1_1spine.html" target="_top" xlink:title=" ">
<polygon fill="white" stroke="transparent" points="406.15,-763 340.15,-763 340.15,-605 406.15,-605 406.15,-763"/>
<text text-anchor="start" x="347.29" y="-751" font-family="Helvetica,sans-Serif" font-size="10.00">epub::spine</text>
<text text-anchor="start" x="371.76" y="-737" font-family="Helvetica,sans-Serif" font-size="10.00"> </text>
<text text-anchor="start" x="343.73" y="-723" font-family="Helvetica,sans-Serif" font-size="10.00">+</text>
<text text-anchor="start" x="353.15" y="-723" font-family="Helvetica,sans-Serif" font-size="10.00">spine()</text>
<text text-anchor="start" x="343.73" y="-709" font-family="Helvetica,sans-Serif" font-size="10.00">+</text>
<text text-anchor="start" x="353.15" y="-709" font-family="Helvetica,sans-Serif" font-size="10.00">spine()</text>
<text text-anchor="start" x="343.73" y="-695" font-family="Helvetica,sans-Serif" font-size="10.00">+</text>
<text text-anchor="start" x="353.15" y="-695" font-family="Helvetica,sans-Serif" font-size="10.00">spine()</text>
<text text-anchor="start" x="343.73" y="-681" font-family="Helvetica,sans-Serif" font-size="10.00">+</text>
<text text-anchor="start" x="353.15" y="-681" font-family="Helvetica,sans-Serif" font-size="10.00">~spine()</text>
<text text-anchor="start" x="343.73" y="-667" font-family="Helvetica,sans-Serif" font-size="10.00">+</text>
<text text-anchor="start" x="353.15" y="-667" font-family="Helvetica,sans-Serif" font-size="10.00">operator=()</text>
<text text-anchor="start" x="343.73" y="-653" font-family="Helvetica,sans-Serif" font-size="10.00">+</text>
<text text-anchor="start" x="353.15" y="-653" font-family="Helvetica,sans-Serif" font-size="10.00">operator=()</text>
<text text-anchor="start" x="343.73" y="-639" font-family="Helvetica,sans-Serif" font-size="10.00">+</text>
<text text-anchor="start" x="353.15" y="-639" font-family="Helvetica,sans-Serif" font-size="10.00">add()</text>
<text text-anchor="start" x="343.73" y="-625" font-family="Helvetica,sans-Serif" font-size="10.00">+</text>
<text text-anchor="start" x="353.15" y="-625" font-family="Helvetica,sans-Serif" font-size="10.00">begin()</text>
<text text-anchor="start" x="343.73" y="-611" font-family="Helvetica,sans-Serif" font-size="10.00">+</text>
<text text-anchor="start" x="353.15" y="-611" font-family="Helvetica,sans-Serif" font-size="10.00">end()</text>
<polygon fill="#666666" stroke="#666666" points="340.15,-747 340.15,-747 406.15,-747 406.15,-747 340.15,-747"/>
<polygon fill="#666666" stroke="#666666" points="340.15,-733 340.15,-733 406.15,-733 406.15,-733 340.15,-733"/>
<polygon fill="none" stroke="#666666" points="340.15,-605 340.15,-763 406.15,-763 406.15,-605 340.15,-605"/>
</a>
</g>
</g>
<!-- Node14&#45;&gt;Node3 -->
<g id="edge15_Node000003_Node000014" class="edge">
<title>Node14&#45;&gt;Node3</title>
<g id="a_edge15_Node000003_Node000014"><a xlink:title=" ">
<path fill="none" stroke="#63b8ff" d="M364.17,-604.93C353.67,-514.85 336.98,-375.99 331.15,-352 330.63,-349.88 330.08,-347.74 329.5,-345.59"/>
<polygon fill="none" stroke="#63b8ff" points="329.49,-345.55 323.96,-340.92 326.12,-334.04 331.64,-338.67 329.49,-345.55"/>
</a>
</g>
<text text-anchor="middle" x="365.94" y="-407" font-family="Helvetica,sans-Serif" font-size="10.00" fill="grey"> &#45;_spine</text>
</g>
<!-- Node15 -->
<g id="Node000015" class="node">
<title>Node15</title>
<g id="a_Node000015"><a xlink:title=" ">
<polygon fill="white" stroke="transparent" points="486.15,-984 374.15,-984 374.15,-928 486.15,-928 486.15,-984"/>
<text text-anchor="start" x="378.88" y="-972" font-family="Helvetica,sans-Serif" font-size="10.00">std::vector&lt; weak_item</text>
<text text-anchor="start" x="417.22" y="-962" font-family="Helvetica,sans-Serif" font-size="10.00">_ptr &gt;</text>
<text text-anchor="start" x="391.23" y="-948" font-family="Helvetica,sans-Serif" font-size="10.00">+</text>
<text text-anchor="start" x="414.15" y="-948" font-family="Helvetica,sans-Serif" font-size="10.00">elements</text>
<text text-anchor="start" x="428.76" y="-934" font-family="Helvetica,sans-Serif" font-size="10.00"> </text>
<polygon fill="#666666" stroke="#666666" points="374.15,-958 374.15,-958 486.15,-958 486.15,-958 374.15,-958"/>
<polygon fill="#666666" stroke="#666666" points="374.15,-944 374.15,-944 412.15,-944 412.15,-944 374.15,-944"/>
<polygon fill="#666666" stroke="#666666" points="412.15,-944 412.15,-944 486.15,-944 486.15,-944 412.15,-944"/>
<polygon fill="none" stroke="#666666" points="374.15,-928 374.15,-984 486.15,-984 486.15,-928 374.15,-928"/>
</a>
</g>
</g>
<!-- Node15&#45;&gt;Node14 -->
<g id="edge16_Node000014_Node000015" class="edge">
<title>Node15&#45;&gt;Node14</title>
<g id="a_edge16_Node000014_Node000015"><a xlink:title=" ">
<path fill="none" stroke="#63b8ff" d="M390.56,-927.98C385.34,-922.65 380.72,-916.63 377.59,-910 358.03,-868.59 355.45,-817.94 358.4,-775.18"/>
<polygon fill="none" stroke="#63b8ff" points="358.42,-775.02 354.92,-768.71 359.4,-763.06 362.89,-769.37 358.42,-775.02"/>
</a>
</g>
<text text-anchor="middle" x="395.93" y="-902" font-family="Helvetica,sans-Serif" font-size="10.00" fill="grey"> &#45;_items</text>
</g>
<!-- Node16 -->
<g id="Node000016" class="node">
<title>Node16</title>
<g id="a_Node000016"><a xlink:href="classepub_1_1navigation.html" target="_top" xlink:title="Generate a navigation (Table of Contents) document.">
<polygon fill="white" stroke="transparent" points="476.65,-468 393.65,-468 393.65,-352 476.65,-352 476.65,-468"/>
<text text-anchor="start" x="398.95" y="-456" font-family="Helvetica,sans-Serif" font-size="10.00">epub::navigation</text>
<text text-anchor="start" x="402.48" y="-442" font-family="Helvetica,sans-Serif" font-size="10.00">&#45;</text>
<text text-anchor="start" x="414.15" y="-442" font-family="Helvetica,sans-Serif" font-size="10.00">_stylesheet</text>
<text text-anchor="start" x="401.23" y="-428" font-family="Helvetica,sans-Serif" font-size="10.00">+</text>
<text text-anchor="start" x="414.15" y="-428" font-family="Helvetica,sans-Serif" font-size="10.00">add()</text>
<text text-anchor="start" x="401.23" y="-414" font-family="Helvetica,sans-Serif" font-size="10.00">+</text>
<text text-anchor="start" x="414.15" y="-414" font-family="Helvetica,sans-Serif" font-size="10.00">stylesheet()</text>
<text text-anchor="start" x="401.23" y="-400" font-family="Helvetica,sans-Serif" font-size="10.00">+</text>
<text text-anchor="start" x="414.15" y="-400" font-family="Helvetica,sans-Serif" font-size="10.00">stylesheet()</text>
<text text-anchor="start" x="401.23" y="-386" font-family="Helvetica,sans-Serif" font-size="10.00">+</text>
<text text-anchor="start" x="414.15" y="-386" font-family="Helvetica,sans-Serif" font-size="10.00">write()</text>
<text text-anchor="start" x="401.23" y="-372" font-family="Helvetica,sans-Serif" font-size="10.00">+</text>
<text text-anchor="start" x="414.15" y="-372" font-family="Helvetica,sans-Serif" font-size="10.00">begin()</text>
<text text-anchor="start" x="401.23" y="-358" font-family="Helvetica,sans-Serif" font-size="10.00">+</text>
<text text-anchor="start" x="414.15" y="-358" font-family="Helvetica,sans-Serif" font-size="10.00">end()</text>
<polygon fill="#666666" stroke="#666666" points="394.15,-452 394.15,-452 477.15,-452 477.15,-452 394.15,-452"/>
<polygon fill="#666666" stroke="#666666" points="394.15,-438 394.15,-438 412.15,-438 412.15,-438 394.15,-438"/>
<polygon fill="#666666" stroke="#666666" points="412.15,-438 412.15,-438 477.15,-438 477.15,-438 412.15,-438"/>
<polygon fill="none" stroke="#666666" points="393.65,-352 393.65,-468 476.65,-468 476.65,-352 393.65,-352"/>
</a>
</g>
</g>
<!-- Node15&#45;&gt;Node16 -->
<g id="edge18_Node000016_Node000015" class="edge">
<title>Node15&#45;&gt;Node16</title>
<g id="a_edge18_Node000016_Node000015"><a xlink:title=" ">
<path fill="none" stroke="#63b8ff" d="M430.4,-927.65C431.15,-845.79 433.4,-600.9 434.51,-480.04"/>
<polygon fill="none" stroke="#63b8ff" points="434.51,-480.03 430.57,-474 434.62,-468.03 438.57,-474.07 434.51,-480.03"/>
</a>
</g>
<text text-anchor="middle" x="447.93" y="-902" font-family="Helvetica,sans-Serif" font-size="10.00" fill="grey"> &#45;_items</text>
</g>
<!-- Node16&#45;&gt;Node1 -->
<g id="edge17_Node000001_Node000016" class="edge">
<title>Node16&#45;&gt;Node1</title>
<g id="a_edge17_Node000001_Node000016"><a xlink:title=" ">
<path fill="none" stroke="#63b8ff" d="M418.3,-351.94C403.47,-304.11 380.23,-234.47 354.15,-176 351.53,-170.13 348.68,-164.14 345.71,-158.17"/>
<polygon fill="none" stroke="#63b8ff" points="345.7,-158.14 339.41,-154.61 340.25,-147.45 346.54,-150.98 345.7,-158.14"/>
</a>
</g>
<text text-anchor="middle" x="441.78" y="-266" font-family="Helvetica,sans-Serif" font-size="10.00" fill="grey"> &#45;_navigation</text>
</g>
</g>
</svg>
