<?xml version="1.0" encoding="UTF-8" standalone="no"?>
<!DOCTYPE svg PUBLIC "-//W3C//DTD SVG 1.1//EN"
 "http://www.w3.org/Graphics/SVG/1.1/DTD/svg11.dtd">
<!-- Generated by graphviz version 2.48.0 (20210717.1556)
 -->
<!-- Title: cli::option Pages: 1 -->
<svg width="172pt" height="276pt"
 viewBox="0.00 0.00 171.50 276.00" xmlns="http://www.w3.org/2000/svg" xmlns:xlink="http://www.w3.org/1999/xlink">
<g id="graph0" class="graph" transform="scale(1 1) rotate(0) translate(4 272)">
<title>cli::option</title>
<!-- Node1 -->
<g id="Node000001" class="node">
<title>Node1</title>
<g id="a_Node000001"><a xlink:title=" ">
<polygon fill="#999999" stroke="transparent" points="116,-268 46,-268 46,-110 116,-110 116,-268"/>
<text text-anchor="start" x="59.88" y="-256" font-family="Helvetica,sans-Serif" font-size="10.00">cli::option</text>
<text text-anchor="start" x="79.61" y="-242" font-family="Helvetica,sans-Serif" font-size="10.00"> </text>
<text text-anchor="start" x="49.58" y="-228" font-family="Helvetica,sans-Serif" font-size="10.00">+</text>
<text text-anchor="start" x="59" y="-228" font-family="Helvetica,sans-Serif" font-size="10.00">option()</text>
<text text-anchor="start" x="49.58" y="-214" font-family="Helvetica,sans-Serif" font-size="10.00">+</text>
<text text-anchor="start" x="59" y="-214" font-family="Helvetica,sans-Serif" font-size="10.00">option()</text>
<text text-anchor="start" x="49.58" y="-200" font-family="Helvetica,sans-Serif" font-size="10.00">+</text>
<text text-anchor="start" x="59" y="-200" font-family="Helvetica,sans-Serif" font-size="10.00">option()</text>
<text text-anchor="start" x="49.58" y="-186" font-family="Helvetica,sans-Serif" font-size="10.00">+</text>
<text text-anchor="start" x="59" y="-186" font-family="Helvetica,sans-Serif" font-size="10.00">operator=()</text>
<text text-anchor="start" x="49.58" y="-172" font-family="Helvetica,sans-Serif" font-size="10.00">+</text>
<text text-anchor="start" x="59" y="-172" font-family="Helvetica,sans-Serif" font-size="10.00">operator=()</text>
<text text-anchor="start" x="49.58" y="-158" font-family="Helvetica,sans-Serif" font-size="10.00">+</text>
<text text-anchor="start" x="59" y="-158" font-family="Helvetica,sans-Serif" font-size="10.00">~option()</text>
<text text-anchor="start" x="49.58" y="-144" font-family="Helvetica,sans-Serif" font-size="10.00">+</text>
<text text-anchor="start" x="59" y="-144" font-family="Helvetica,sans-Serif" font-size="10.00">needs_arg()</text>
<text text-anchor="start" x="49.58" y="-130" font-family="Helvetica,sans-Serif" font-size="10.00">+</text>
<text text-anchor="start" x="59" y="-130" font-family="Helvetica,sans-Serif" font-size="10.00">set()</text>
<text text-anchor="start" x="49.58" y="-116" font-family="Helvetica,sans-Serif" font-size="10.00">+</text>
<text text-anchor="start" x="59" y="-116" font-family="Helvetica,sans-Serif" font-size="10.00">set_arg()</text>
<polygon fill="#666666" stroke="#666666" points="46,-252 46,-252 116,-252 116,-252 46,-252"/>
<polygon fill="#666666" stroke="#666666" points="46,-238 46,-238 116,-238 116,-238 46,-238"/>
<polygon fill="none" stroke="#666666" points="46,-110 46,-268 116,-268 116,-110 46,-110"/>
</a>
</g>
</g>
<!-- Node2 -->
<g id="Node000002" class="node">
<title>Node2</title>
<g id="a_Node000002"><a xlink:href="classcli_1_1arg__option.html" target="_top" xlink:title=" ">
<polygon fill="white" stroke="transparent" points="72,-74 0,-74 0,0 72,0 72,-74"/>
<text text-anchor="start" x="4.87" y="-62" font-family="Helvetica,sans-Serif" font-size="10.00">cli::arg_option</text>
<text text-anchor="start" x="5.33" y="-48" font-family="Helvetica,sans-Serif" font-size="10.00">&#45;</text>
<text text-anchor="start" x="14" y="-48" font-family="Helvetica,sans-Serif" font-size="10.00">_cb</text>
<text text-anchor="start" x="4.08" y="-34" font-family="Helvetica,sans-Serif" font-size="10.00">+</text>
<text text-anchor="start" x="14" y="-34" font-family="Helvetica,sans-Serif" font-size="10.00">arg_option()</text>
<text text-anchor="start" x="4.08" y="-20" font-family="Helvetica,sans-Serif" font-size="10.00">+</text>
<text text-anchor="start" x="14" y="-20" font-family="Helvetica,sans-Serif" font-size="10.00">needs_arg()</text>
<text text-anchor="start" x="4.08" y="-6" font-family="Helvetica,sans-Serif" font-size="10.00">+</text>
<text text-anchor="start" x="14" y="-6" font-family="Helvetica,sans-Serif" font-size="10.00">set_arg()</text>
<polygon fill="#666666" stroke="#666666" points="0,-58 0,-58 72,-58 72,-58 0,-58"/>
<polygon fill="#666666" stroke="#666666" points="0,-44 0,-44 12,-44 12,-44 0,-44"/>
<polygon fill="#666666" stroke="#666666" points="12,-44 12,-44 72,-44 72,-44 12,-44"/>
<polygon fill="none" stroke="#666666" points="0,0 0,-74 72,-74 72,0 0,0"/>
</a>
</g>
</g>
<!-- Node1&#45;&gt;Node2 -->
<g id="edge1_Node000001_Node000002" class="edge">
<title>Node1&#45;&gt;Node2</title>
<g id="a_edge1_Node000001_Node000002"><a xlink:title=" ">
<path fill="none" stroke="#63b8ff" d="M54.68,-100.28C51.93,-91.1 49.25,-82.17 46.83,-74.08"/>
<polygon fill="none" stroke="#63b8ff" points="51.35,-101.35 57.58,-109.92 58.06,-99.34 51.35,-101.35"/>
</a>
</g>
</g>
<!-- Node3 -->
<g id="Node000003" class="node">
<title>Node3</title>
<g id="a_Node000003"><a xlink:href="classcli_1_1flag__option.html" target="_top" xlink:title=" ">
<polygon fill="white" stroke="transparent" points="163.5,-74 90.5,-74 90.5,0 163.5,0 163.5,-74"/>
<text text-anchor="start" x="95.53" y="-62" font-family="Helvetica,sans-Serif" font-size="10.00">cli::flag_option</text>
<text text-anchor="start" x="95.83" y="-48" font-family="Helvetica,sans-Serif" font-size="10.00">&#45;</text>
<text text-anchor="start" x="104" y="-48" font-family="Helvetica,sans-Serif" font-size="10.00">_cb</text>
<text text-anchor="start" x="94.58" y="-34" font-family="Helvetica,sans-Serif" font-size="10.00">+</text>
<text text-anchor="start" x="104" y="-34" font-family="Helvetica,sans-Serif" font-size="10.00">flag_option()</text>
<text text-anchor="start" x="94.58" y="-20" font-family="Helvetica,sans-Serif" font-size="10.00">+</text>
<text text-anchor="start" x="104" y="-20" font-family="Helvetica,sans-Serif" font-size="10.00">needs_arg()</text>
<text text-anchor="start" x="94.58" y="-6" font-family="Helvetica,sans-Serif" font-size="10.00">+</text>
<text text-anchor="start" x="104" y="-6" font-family="Helvetica,sans-Serif" font-size="10.00">set()</text>
<polygon fill="#666666" stroke="#666666" points="91,-58 91,-58 164,-58 164,-58 91,-58"/>
<polygon fill="#666666" stroke="#666666" points="91,-44 91,-44 102,-44 102,-44 91,-44"/>
<polygon fill="#666666" stroke="#666666" points="102,-44 102,-44 164,-44 164,-44 102,-44"/>
<polygon fill="none" stroke="#666666" points="90.5,0 90.5,-74 163.5,-74 163.5,0 90.5,0"/>
</a>
</g>
</g>
<!-- Node1&#45;&gt;Node3 -->
<g id="edge2_Node000001_Node000003" class="edge">
<title>Node1&#45;&gt;Node3</title>
<g id="a_edge2_Node000001_Node000003"><a xlink:title=" ">
<path fill="none" stroke="#63b8ff" d="M107.9,-100.28C110.72,-91.1 113.45,-82.17 115.93,-74.08"/>
<polygon fill="none" stroke="#63b8ff" points="104.53,-99.34 104.94,-109.92 111.22,-101.39 104.53,-99.34"/>
</a>
</g>
</g>
</g>
</svg>
