<?xml version="1.0" encoding="UTF-8" standalone="no"?>
<!DOCTYPE svg PUBLIC "-//W3C//DTD SVG 1.1//EN"
 "http://www.w3.org/Graphics/SVG/1.1/DTD/svg11.dtd">
<!-- Generated by graphviz version 2.48.0 (20210717.1556)
 -->
<!-- Title: cli::option_processor Pages: 1 -->
<svg width="486pt" height="729pt"
 viewBox="0.00 0.00 486.08 729.00" xmlns="http://www.w3.org/2000/svg" xmlns:xlink="http://www.w3.org/1999/xlink">
<g id="graph0" class="graph" transform="scale(1 1) rotate(0) translate(4 725)">
<title>cli::option_processor</title>
<!-- Node1 -->
<g id="Node000001" class="node">
<title>Node1</title>
<g id="a_Node000001"><a xlink:title=" ">
<polygon fill="#999999" stroke="transparent" points="335,-200 234,-200 234,0 335,0 335,-200"/>
<text text-anchor="start" x="239.14" y="-188" font-family="Helvetica,sans-Serif" font-size="10.00">cli::option_processor</text>
<text text-anchor="start" x="283.61" y="-174" font-family="Helvetica,sans-Serif" font-size="10.00"> </text>
<text text-anchor="start" x="238.08" y="-160" font-family="Helvetica,sans-Serif" font-size="10.00">+</text>
<text text-anchor="start" x="247.5" y="-160" font-family="Helvetica,sans-Serif" font-size="10.00">option_processor()</text>
<text text-anchor="start" x="238.08" y="-146" font-family="Helvetica,sans-Serif" font-size="10.00">+</text>
<text text-anchor="start" x="247.5" y="-146" font-family="Helvetica,sans-Serif" font-size="10.00">synopsis()</text>
<text text-anchor="start" x="238.08" y="-132" font-family="Helvetica,sans-Serif" font-size="10.00">+</text>
<text text-anchor="start" x="247.5" y="-132" font-family="Helvetica,sans-Serif" font-size="10.00">synopsis()</text>
<text text-anchor="start" x="238.08" y="-118" font-family="Helvetica,sans-Serif" font-size="10.00">+</text>
<text text-anchor="start" x="247.5" y="-118" font-family="Helvetica,sans-Serif" font-size="10.00">add_flag()</text>
<text text-anchor="start" x="238.08" y="-104" font-family="Helvetica,sans-Serif" font-size="10.00">+</text>
<text text-anchor="start" x="247.5" y="-104" font-family="Helvetica,sans-Serif" font-size="10.00">add_flag()</text>
<text text-anchor="start" x="238.08" y="-90" font-family="Helvetica,sans-Serif" font-size="10.00">+</text>
<text text-anchor="start" x="247.5" y="-90" font-family="Helvetica,sans-Serif" font-size="10.00">add_flag()</text>
<text text-anchor="start" x="238.08" y="-76" font-family="Helvetica,sans-Serif" font-size="10.00">+</text>
<text text-anchor="start" x="247.5" y="-76" font-family="Helvetica,sans-Serif" font-size="10.00">add_option()</text>
<text text-anchor="start" x="238.08" y="-62" font-family="Helvetica,sans-Serif" font-size="10.00">+</text>
<text text-anchor="start" x="247.5" y="-62" font-family="Helvetica,sans-Serif" font-size="10.00">add_option()</text>
<text text-anchor="start" x="238.08" y="-48" font-family="Helvetica,sans-Serif" font-size="10.00">+</text>
<text text-anchor="start" x="247.5" y="-48" font-family="Helvetica,sans-Serif" font-size="10.00">add_option()</text>
<text text-anchor="start" x="238.08" y="-34" font-family="Helvetica,sans-Serif" font-size="10.00">+</text>
<text text-anchor="start" x="247.5" y="-34" font-family="Helvetica,sans-Serif" font-size="10.00">process()</text>
<text text-anchor="start" x="238.08" y="-20" font-family="Helvetica,sans-Serif" font-size="10.00">+</text>
<text text-anchor="start" x="247.5" y="-20" font-family="Helvetica,sans-Serif" font-size="10.00">usage()</text>
<text text-anchor="start" x="238.08" y="-6" font-family="Helvetica,sans-Serif" font-size="10.00">+</text>
<text text-anchor="start" x="247.5" y="-6" font-family="Helvetica,sans-Serif" font-size="10.00">wrap()</text>
<polygon fill="#666666" stroke="#666666" points="234.5,-184 234.5,-184 335.5,-184 335.5,-184 234.5,-184"/>
<polygon fill="#666666" stroke="#666666" points="234.5,-170 234.5,-170 335.5,-170 335.5,-170 234.5,-170"/>
<polygon fill="none" stroke="#666666" points="234,0 234,-200 335,-200 335,0 234,0"/>
</a>
</g>
</g>
<!-- Node2 -->
<g id="Node000002" class="node">
<title>Node2</title>
<g id="a_Node000002"><a xlink:title=" ">
<polygon fill="white" stroke="transparent" points="361,-572 308,-572 308,-526 361,-526 361,-572"/>
<text text-anchor="start" x="313.33" y="-560" font-family="Helvetica,sans-Serif" font-size="10.00">std::string</text>
<text text-anchor="start" x="333.61" y="-546" font-family="Helvetica,sans-Serif" font-size="10.00"> </text>
<text text-anchor="start" x="333.61" y="-532" font-family="Helvetica,sans-Serif" font-size="10.00"> </text>
<polygon fill="#666666" stroke="#666666" points="308.5,-556 308.5,-556 361.5,-556 361.5,-556 308.5,-556"/>
<polygon fill="#666666" stroke="#666666" points="308.5,-542 308.5,-542 361.5,-542 361.5,-542 308.5,-542"/>
<polygon fill="none" stroke="#666666" points="308,-526 308,-572 361,-572 361,-526 308,-526"/>
</a>
</g>
</g>
<!-- Node2&#45;&gt;Node1 -->
<g id="edge1_Node000001_Node000002" class="edge">
<title>Node2&#45;&gt;Node1</title>
<g id="a_edge1_Node000001_Node000002"><a xlink:title=" ">
<path fill="none" stroke="#63b8ff" d="M355.72,-525.63C371.54,-507.38 391.99,-480.11 401.5,-452 430.84,-365.23 439.06,-331.99 407.5,-246 394.48,-210.52 368.5,-177.77 343.76,-152.41"/>
<polygon fill="none" stroke="#63b8ff" points="343.58,-152.23 336.5,-150.82 335.08,-143.75 342.15,-145.16 343.58,-152.23"/>
</a>
</g>
<text text-anchor="middle" x="452.79" y="-332" font-family="Helvetica,sans-Serif" font-size="10.00" fill="grey"> &#45;_synopsis</text>
</g>
<!-- Node5 -->
<g id="Node000005" class="node">
<title>Node5</title>
<g id="a_Node000005"><a xlink:title=" ">
<polygon fill="white" stroke="transparent" points="384.5,-414 284.5,-414 284.5,-358 384.5,-358 384.5,-414"/>
<text text-anchor="start" x="289.34" y="-402" font-family="Helvetica,sans-Serif" font-size="10.00">std::pair&lt; std::string,</text>
<text text-anchor="start" x="307.13" y="-392" font-family="Helvetica,sans-Serif" font-size="10.00"> std::string &gt;</text>
<text text-anchor="start" x="333.11" y="-378" font-family="Helvetica,sans-Serif" font-size="10.00"> </text>
<text text-anchor="start" x="333.11" y="-364" font-family="Helvetica,sans-Serif" font-size="10.00"> </text>
<polygon fill="#666666" stroke="#666666" points="284.5,-388 284.5,-388 384.5,-388 384.5,-388 284.5,-388"/>
<polygon fill="#666666" stroke="#666666" points="284.5,-374 284.5,-374 384.5,-374 384.5,-374 284.5,-374"/>
<polygon fill="none" stroke="#666666" points="284.5,-358 284.5,-414 384.5,-414 384.5,-358 284.5,-358"/>
</a>
</g>
</g>
<!-- Node2&#45;&gt;Node5 -->
<g id="edge5_Node000005_Node000002" class="edge">
<title>Node2&#45;&gt;Node5</title>
<g id="a_edge5_Node000005_Node000002"><a xlink:title=" ">
<path fill="none" stroke="#63b8ff" d="M334.5,-525.95C334.5,-500.37 334.5,-457.69 334.5,-426.37"/>
<polygon fill="none" stroke="#63b8ff" points="334.5,-426.15 330.5,-420.15 334.5,-414.15 338.5,-420.15 334.5,-426.15"/>
</a>
</g>
<text text-anchor="middle" x="365.77" y="-444" font-family="Helvetica,sans-Serif" font-size="10.00" fill="grey"> +first_type</text>
<text text-anchor="middle" x="365.77" y="-434" font-family="Helvetica,sans-Serif" font-size="10.00" fill="grey">+second_type</text>
</g>
<!-- Node9 -->
<g id="Node000009" class="node">
<title>Node9</title>
<g id="a_Node000009"><a xlink:title=" ">
<polygon fill="white" stroke="transparent" points="252,-312 149,-312 149,-246 252,-246 252,-312"/>
<text text-anchor="start" x="154.45" y="-300" font-family="Helvetica,sans-Serif" font-size="10.00">std::map&lt; std::string,</text>
<text text-anchor="start" x="154.45" y="-290" font-family="Helvetica,sans-Serif" font-size="10.00"> std::shared_ptr&lt; cli</text>
<text text-anchor="start" x="175.98" y="-280" font-family="Helvetica,sans-Serif" font-size="10.00">::option &gt; &gt;</text>
<text text-anchor="start" x="199.61" y="-266" font-family="Helvetica,sans-Serif" font-size="10.00"> </text>
<text text-anchor="start" x="199.61" y="-252" font-family="Helvetica,sans-Serif" font-size="10.00"> </text>
<polygon fill="#666666" stroke="#666666" points="149.5,-276 149.5,-276 252.5,-276 252.5,-276 149.5,-276"/>
<polygon fill="#666666" stroke="#666666" points="149.5,-262 149.5,-262 252.5,-262 252.5,-262 149.5,-262"/>
<polygon fill="none" stroke="#666666" points="149,-246 149,-312 252,-312 252,-246 149,-246"/>
</a>
</g>
</g>
<!-- Node2&#45;&gt;Node9 -->
<g id="edge10_Node000009_Node000002" class="edge">
<title>Node2&#45;&gt;Node9</title>
<g id="a_edge10_Node000009_Node000002"><a xlink:title=" ">
<path fill="none" stroke="#63b8ff" d="M317.36,-525.82C298.08,-500.06 266.79,-455.76 246.32,-414 232.1,-385 220.41,-350.47 212.4,-323.73"/>
<polygon fill="none" stroke="#63b8ff" points="212.35,-323.55 206.82,-318.92 208.98,-312.04 214.5,-316.67 212.35,-323.55"/>
</a>
</g>
<text text-anchor="middle" x="261.09" y="-383" font-family="Helvetica,sans-Serif" font-size="10.00" fill="grey"> +keys</text>
</g>
<!-- Node3 -->
<g id="Node000003" class="node">
<title>Node3</title>
<g id="a_Node000003"><a xlink:title=" ">
<polygon fill="white" stroke="transparent" points="378.5,-721 290.5,-721 290.5,-665 378.5,-665 378.5,-721"/>
<text text-anchor="start" x="295.45" y="-709" font-family="Helvetica,sans-Serif" font-size="10.00">std::basic_string&lt;</text>
<text text-anchor="start" x="317.96" y="-699" font-family="Helvetica,sans-Serif" font-size="10.00"> Char &gt;</text>
<text text-anchor="start" x="333.11" y="-685" font-family="Helvetica,sans-Serif" font-size="10.00"> </text>
<text text-anchor="start" x="333.11" y="-671" font-family="Helvetica,sans-Serif" font-size="10.00"> </text>
<polygon fill="#666666" stroke="#666666" points="290.5,-695 290.5,-695 378.5,-695 378.5,-695 290.5,-695"/>
<polygon fill="#666666" stroke="#666666" points="290.5,-681 290.5,-681 378.5,-681 378.5,-681 290.5,-681"/>
<polygon fill="none" stroke="#666666" points="290.5,-665 290.5,-721 378.5,-721 378.5,-665 290.5,-665"/>
</a>
</g>
</g>
<!-- Node3&#45;&gt;Node2 -->
<g id="edge2_Node000002_Node000003" class="edge">
<title>Node3&#45;&gt;Node2</title>
<g id="a_edge2_Node000002_Node000003"><a xlink:title=" ">
<path fill="none" stroke="#63b8ff" d="M334.5,-654.64C334.5,-628.45 334.5,-594.31 334.5,-572.28"/>
<polygon fill="none" stroke="#63b8ff" points="331,-654.96 334.5,-664.96 338,-654.96 331,-654.96"/>
</a>
</g>
</g>
<!-- Node4 -->
<g id="Node000004" class="node">
<title>Node4</title>
<g id="a_Node000004"><a xlink:title=" ">
<polygon fill="white" stroke="transparent" points="398.5,-307 270.5,-307 270.5,-251 398.5,-251 398.5,-307"/>
<text text-anchor="start" x="275.44" y="-295" font-family="Helvetica,sans-Serif" font-size="10.00">std::vector&lt; std::pair</text>
<text text-anchor="start" x="275.44" y="-285" font-family="Helvetica,sans-Serif" font-size="10.00">&lt; std::string, std::string &gt; &gt;</text>
<text text-anchor="start" x="333.11" y="-271" font-family="Helvetica,sans-Serif" font-size="10.00"> </text>
<text text-anchor="start" x="333.11" y="-257" font-family="Helvetica,sans-Serif" font-size="10.00"> </text>
<polygon fill="#666666" stroke="#666666" points="270.5,-281 270.5,-281 398.5,-281 398.5,-281 270.5,-281"/>
<polygon fill="#666666" stroke="#666666" points="270.5,-267 270.5,-267 398.5,-267 398.5,-267 270.5,-267"/>
<polygon fill="none" stroke="#666666" points="270.5,-251 270.5,-307 398.5,-307 398.5,-251 270.5,-251"/>
</a>
</g>
</g>
<!-- Node4&#45;&gt;Node1 -->
<g id="edge3_Node000001_Node000004" class="edge">
<title>Node4&#45;&gt;Node1</title>
<g id="a_edge3_Node000001_Node000004"><a xlink:title=" ">
<path fill="none" stroke="#63b8ff" d="M326.8,-250.73C323.68,-239.71 319.87,-226.21 315.82,-211.87"/>
<polygon fill="none" stroke="#63b8ff" points="315.79,-211.77 310.31,-207.08 312.53,-200.22 318.01,-204.91 315.79,-211.77"/>
</a>
</g>
<text text-anchor="middle" x="338.96" y="-220" font-family="Helvetica,sans-Serif" font-size="10.00" fill="grey"> &#45;_usage</text>
</g>
<!-- Node5&#45;&gt;Node4 -->
<g id="edge4_Node000004_Node000005" class="edge">
<title>Node5&#45;&gt;Node4</title>
<g id="a_edge4_Node000004_Node000005"><a xlink:title=" ">
<path fill="none" stroke="#63b8ff" d="M334.5,-357.96C334.5,-346.29 334.5,-332.41 334.5,-319.62"/>
<polygon fill="none" stroke="#63b8ff" points="334.5,-319.31 330.5,-313.31 334.5,-307.31 338.5,-313.31 334.5,-319.31"/>
</a>
</g>
<text text-anchor="middle" x="359.1" y="-332" font-family="Helvetica,sans-Serif" font-size="10.00" fill="grey"> +elements</text>
</g>
<!-- Node6 -->
<g id="Node000006" class="node">
<title>Node6</title>
<g id="a_Node000006"><a xlink:title=" ">
<polygon fill="white" stroke="transparent" points="131,-307 0,-307 0,-251 131,-251 131,-307"/>
<text text-anchor="start" x="5.27" y="-295" font-family="Helvetica,sans-Serif" font-size="10.00">std::map&lt; char, std</text>
<text text-anchor="start" x="5.27" y="-285" font-family="Helvetica,sans-Serif" font-size="10.00">::shared_ptr&lt; cli::option &gt; &gt;</text>
<text text-anchor="start" x="27.58" y="-271" font-family="Helvetica,sans-Serif" font-size="10.00">+</text>
<text text-anchor="start" x="60.5" y="-271" font-family="Helvetica,sans-Serif" font-size="10.00">keys</text>
<text text-anchor="start" x="64.61" y="-257" font-family="Helvetica,sans-Serif" font-size="10.00"> </text>
<polygon fill="#666666" stroke="#666666" points="0.5,-281 0.5,-281 131.5,-281 131.5,-281 0.5,-281"/>
<polygon fill="#666666" stroke="#666666" points="0.5,-267 0.5,-267 58.5,-267 58.5,-267 0.5,-267"/>
<polygon fill="#666666" stroke="#666666" points="58.5,-267 58.5,-267 131.5,-267 131.5,-267 58.5,-267"/>
<polygon fill="none" stroke="#666666" points="0,-251 0,-307 131,-307 131,-251 0,-251"/>
</a>
</g>
</g>
<!-- Node6&#45;&gt;Node1 -->
<g id="edge6_Node000001_Node000006" class="edge">
<title>Node6&#45;&gt;Node1</title>
<g id="a_edge6_Node000001_Node000006"><a xlink:title=" ">
<path fill="none" stroke="#63b8ff" d="M99.24,-250.73C132.45,-223.89 183.9,-182.31 224.16,-149.77"/>
<polygon fill="none" stroke="#63b8ff" points="224.28,-149.67 226.43,-142.79 233.61,-142.13 231.46,-149.01 224.28,-149.67"/>
</a>
</g>
<text text-anchor="middle" x="153.45" y="-220" font-family="Helvetica,sans-Serif" font-size="10.00" fill="grey"> &#45;_short</text>
</g>
<!-- Node7 -->
<g id="Node000007" class="node">
<title>Node7</title>
<g id="a_Node000007"><a xlink:title=" ">
<polygon fill="white" stroke="transparent" points="157.5,-414 63.5,-414 63.5,-358 157.5,-358 157.5,-414"/>
<text text-anchor="start" x="68.12" y="-402" font-family="Helvetica,sans-Serif" font-size="10.00">std::shared_ptr&lt; cli</text>
<text text-anchor="start" x="89.79" y="-392" font-family="Helvetica,sans-Serif" font-size="10.00">::option &gt;</text>
<text text-anchor="start" x="109.11" y="-378" font-family="Helvetica,sans-Serif" font-size="10.00"> </text>
<text text-anchor="start" x="73.08" y="-364" font-family="Helvetica,sans-Serif" font-size="10.00">+</text>
<text text-anchor="start" x="88.5" y="-364" font-family="Helvetica,sans-Serif" font-size="10.00">operator&#45;&gt;()</text>
<polygon fill="#666666" stroke="#666666" points="63.5,-388 63.5,-388 157.5,-388 157.5,-388 63.5,-388"/>
<polygon fill="#666666" stroke="#666666" points="63.5,-374 63.5,-374 157.5,-374 157.5,-374 63.5,-374"/>
<polygon fill="none" stroke="#666666" points="63.5,-358 63.5,-414 157.5,-414 157.5,-358 63.5,-358"/>
</a>
</g>
</g>
<!-- Node7&#45;&gt;Node6 -->
<g id="edge7_Node000006_Node000007" class="edge">
<title>Node7&#45;&gt;Node6</title>
<g id="a_edge7_Node000006_Node000007"><a xlink:title=" ">
<path fill="none" stroke="#63b8ff" d="M97.45,-358C94.69,-352.1 91.85,-345.86 89.31,-340 86.3,-333.07 83.23,-325.62 80.33,-318.42"/>
<polygon fill="none" stroke="#63b8ff" points="80.24,-318.18 74.31,-314.08 75.81,-307.03 81.74,-311.13 80.24,-318.18"/>
</a>
</g>
<text text-anchor="middle" x="114.1" y="-332" font-family="Helvetica,sans-Serif" font-size="10.00" fill="grey"> +elements</text>
</g>
<!-- Node7&#45;&gt;Node9 -->
<g id="edge11_Node000009_Node000007" class="edge">
<title>Node7&#45;&gt;Node9</title>
<g id="a_edge11_Node000009_Node000007"><a xlink:title=" ">
<path fill="none" stroke="#63b8ff" d="M133.68,-357.96C143.22,-346.82 154.5,-333.67 165.04,-321.37"/>
<polygon fill="none" stroke="#63b8ff" points="165.11,-321.29 165.98,-314.13 172.92,-312.18 172.05,-319.34 165.11,-321.29"/>
</a>
</g>
<text text-anchor="middle" x="180.1" y="-332" font-family="Helvetica,sans-Serif" font-size="10.00" fill="grey"> +elements</text>
</g>
<!-- Node8 -->
<g id="Node000008" class="node">
<title>Node8</title>
<g id="a_Node000008"><a xlink:href="classcli_1_1option.html" target="_top" xlink:title=" ">
<polygon fill="white" stroke="transparent" points="145.5,-628 75.5,-628 75.5,-470 145.5,-470 145.5,-628"/>
<text text-anchor="start" x="89.38" y="-616" font-family="Helvetica,sans-Serif" font-size="10.00">cli::option</text>
<text text-anchor="start" x="109.11" y="-602" font-family="Helvetica,sans-Serif" font-size="10.00"> </text>
<text text-anchor="start" x="79.08" y="-588" font-family="Helvetica,sans-Serif" font-size="10.00">+</text>
<text text-anchor="start" x="88.5" y="-588" font-family="Helvetica,sans-Serif" font-size="10.00">option()</text>
<text text-anchor="start" x="79.08" y="-574" font-family="Helvetica,sans-Serif" font-size="10.00">+</text>
<text text-anchor="start" x="88.5" y="-574" font-family="Helvetica,sans-Serif" font-size="10.00">option()</text>
<text text-anchor="start" x="79.08" y="-560" font-family="Helvetica,sans-Serif" font-size="10.00">+</text>
<text text-anchor="start" x="88.5" y="-560" font-family="Helvetica,sans-Serif" font-size="10.00">option()</text>
<text text-anchor="start" x="79.08" y="-546" font-family="Helvetica,sans-Serif" font-size="10.00">+</text>
<text text-anchor="start" x="88.5" y="-546" font-family="Helvetica,sans-Serif" font-size="10.00">operator=()</text>
<text text-anchor="start" x="79.08" y="-532" font-family="Helvetica,sans-Serif" font-size="10.00">+</text>
<text text-anchor="start" x="88.5" y="-532" font-family="Helvetica,sans-Serif" font-size="10.00">operator=()</text>
<text text-anchor="start" x="79.08" y="-518" font-family="Helvetica,sans-Serif" font-size="10.00">+</text>
<text text-anchor="start" x="88.5" y="-518" font-family="Helvetica,sans-Serif" font-size="10.00">~option()</text>
<text text-anchor="start" x="79.08" y="-504" font-family="Helvetica,sans-Serif" font-size="10.00">+</text>
<text text-anchor="start" x="88.5" y="-504" font-family="Helvetica,sans-Serif" font-size="10.00">needs_arg()</text>
<text text-anchor="start" x="79.08" y="-490" font-family="Helvetica,sans-Serif" font-size="10.00">+</text>
<text text-anchor="start" x="88.5" y="-490" font-family="Helvetica,sans-Serif" font-size="10.00">set()</text>
<text text-anchor="start" x="79.08" y="-476" font-family="Helvetica,sans-Serif" font-size="10.00">+</text>
<text text-anchor="start" x="88.5" y="-476" font-family="Helvetica,sans-Serif" font-size="10.00">set_arg()</text>
<polygon fill="#666666" stroke="#666666" points="75.5,-612 75.5,-612 145.5,-612 145.5,-612 75.5,-612"/>
<polygon fill="#666666" stroke="#666666" points="75.5,-598 75.5,-598 145.5,-598 145.5,-598 75.5,-598"/>
<polygon fill="none" stroke="#666666" points="75.5,-470 75.5,-628 145.5,-628 145.5,-470 75.5,-470"/>
</a>
</g>
</g>
<!-- Node8&#45;&gt;Node7 -->
<g id="edge8_Node000007_Node000008" class="edge">
<title>Node8&#45;&gt;Node7</title>
<g id="a_edge8_Node000007_Node000008"><a xlink:title=" ">
<path fill="none" stroke="#63b8ff" d="M110.5,-469.86C110.5,-454.84 110.5,-439.7 110.5,-426.56"/>
<polygon fill="none" stroke="#63b8ff" points="110.5,-426.15 106.5,-420.15 110.5,-414.15 114.5,-420.15 110.5,-426.15"/>
</a>
</g>
<text text-anchor="middle" x="120.64" y="-439" font-family="Helvetica,sans-Serif" font-size="10.00" fill="grey"> +ptr</text>
</g>
<!-- Node9&#45;&gt;Node1 -->
<g id="edge9_Node000001_Node000009" class="edge">
<title>Node9&#45;&gt;Node1</title>
<g id="a_edge9_Node000001_Node000009"><a xlink:title=" ">
<path fill="none" stroke="#63b8ff" d="M215.71,-245.95C220.54,-235.78 226.18,-223.9 232.11,-211.4"/>
<polygon fill="none" stroke="#63b8ff" points="232.24,-211.12 231.2,-203.99 237.38,-200.28 238.42,-207.42 232.24,-211.12"/>
</a>
</g>
<text text-anchor="middle" x="243.79" y="-220" font-family="Helvetica,sans-Serif" font-size="10.00" fill="grey"> &#45;_long</text>
</g>
</g>
</svg>
