<?xml version="1.0" encoding="UTF-8" standalone="no"?>
<!DOCTYPE svg PUBLIC "-//W3C//DTD SVG 1.1//EN"
 "http://www.w3.org/Graphics/SVG/1.1/DTD/svg11.dtd">
<!-- Generated by graphviz version 2.48.0 (20210717.1556)
 -->
<!-- Title: cli::ambiguous_option Pages: 1 -->
<svg width="114pt" height="328pt"
 viewBox="0.00 0.00 114.00 328.00" xmlns="http://www.w3.org/2000/svg" xmlns:xlink="http://www.w3.org/1999/xlink">
<g id="graph0" class="graph" transform="scale(1 1) rotate(0) translate(4 324)">
<title>cli::ambiguous_option</title>
<!-- Node1 -->
<g id="Node000001" class="node">
<title>Node1</title>
<g id="a_Node000001"><a xlink:title=" ">
<polygon fill="#999999" stroke="transparent" points="106,-74 0,-74 0,0 106,0 106,-74"/>
<text text-anchor="start" x="4.64" y="-62" font-family="Helvetica,sans-Serif" font-size="10.00">cli::ambiguous_option</text>
<text text-anchor="start" x="51.61" y="-48" font-family="Helvetica,sans-Serif" font-size="10.00"> </text>
<text text-anchor="start" x="3.58" y="-34" font-family="Helvetica,sans-Serif" font-size="10.00">+</text>
<text text-anchor="start" x="13" y="-34" font-family="Helvetica,sans-Serif" font-size="10.00">ambiguous_option()</text>
<text text-anchor="start" x="3.58" y="-20" font-family="Helvetica,sans-Serif" font-size="10.00">+</text>
<text text-anchor="start" x="13" y="-20" font-family="Helvetica,sans-Serif" font-size="10.00">ambiguous_option()</text>
<text text-anchor="start" x="4.83" y="-6" font-family="Helvetica,sans-Serif" font-size="10.00">&#45;</text>
<text text-anchor="start" x="13" y="-6" font-family="Helvetica,sans-Serif" font-size="10.00">as_enumeration()</text>
<polygon fill="#666666" stroke="#666666" points="0,-58 0,-58 106,-58 106,-58 0,-58"/>
<polygon fill="#666666" stroke="#666666" points="0,-44 0,-44 106,-44 106,-44 0,-44"/>
<polygon fill="none" stroke="#666666" points="0,0 0,-74 106,-74 106,0 0,0"/>
</a>
</g>
</g>
<!-- Node2 -->
<g id="Node000002" class="node">
<title>Node2</title>
<g id="a_Node000002"><a xlink:href="structcli_1_1option__error.html" target="_top" xlink:title=" ">
<polygon fill="white" stroke="transparent" points="92,-156 14,-156 14,-110 92,-110 92,-156"/>
<text text-anchor="start" x="18.54" y="-144" font-family="Helvetica,sans-Serif" font-size="10.00">cli::option_error</text>
<text text-anchor="start" x="51.61" y="-130" font-family="Helvetica,sans-Serif" font-size="10.00"> </text>
<text text-anchor="start" x="51.61" y="-116" font-family="Helvetica,sans-Serif" font-size="10.00"> </text>
<polygon fill="#666666" stroke="#666666" points="14,-140 14,-140 92,-140 92,-140 14,-140"/>
<polygon fill="#666666" stroke="#666666" points="14,-126 14,-126 92,-126 92,-126 14,-126"/>
<polygon fill="none" stroke="#666666" points="14,-110 14,-156 92,-156 92,-110 14,-110"/>
</a>
</g>
</g>
<!-- Node2&#45;&gt;Node1 -->
<g id="edge1_Node000001_Node000002" class="edge">
<title>Node2&#45;&gt;Node1</title>
<g id="a_edge1_Node000001_Node000002"><a xlink:title=" ">
<path fill="none" stroke="#63b8ff" d="M53,-99.71C53,-91.45 53,-82.52 53,-74.08"/>
<polygon fill="none" stroke="#63b8ff" points="49.5,-99.72 53,-109.72 56.5,-99.72 49.5,-99.72"/>
</a>
</g>
</g>
<!-- Node3 -->
<g id="Node000003" class="node">
<title>Node3</title>
<g id="a_Node000003"><a xlink:title=" ">
<polygon fill="white" stroke="transparent" points="97,-238 9,-238 9,-192 97,-192 97,-238"/>
<text text-anchor="start" x="13.54" y="-226" font-family="Helvetica,sans-Serif" font-size="10.00">std::runtime_error</text>
<text text-anchor="start" x="51.61" y="-212" font-family="Helvetica,sans-Serif" font-size="10.00"> </text>
<text text-anchor="start" x="51.61" y="-198" font-family="Helvetica,sans-Serif" font-size="10.00"> </text>
<polygon fill="#666666" stroke="#666666" points="9,-222 9,-222 97,-222 97,-222 9,-222"/>
<polygon fill="#666666" stroke="#666666" points="9,-208 9,-208 97,-208 97,-208 9,-208"/>
<polygon fill="none" stroke="#666666" points="9,-192 9,-238 97,-238 97,-192 9,-192"/>
</a>
</g>
</g>
<!-- Node3&#45;&gt;Node2 -->
<g id="edge2_Node000002_Node000003" class="edge">
<title>Node3&#45;&gt;Node2</title>
<g id="a_edge2_Node000002_Node000003"><a xlink:title=" ">
<path fill="none" stroke="#63b8ff" d="M53,-181.63C53,-173.08 53,-164.04 53,-156.16"/>
<polygon fill="none" stroke="#63b8ff" points="49.5,-181.72 53,-191.72 56.5,-181.72 49.5,-181.72"/>
</a>
</g>
</g>
<!-- Node4 -->
<g id="Node000004" class="node">
<title>Node4</title>
<g id="a_Node000004"><a xlink:title=" ">
<polygon fill="white" stroke="transparent" points="88.5,-320 17.5,-320 17.5,-274 88.5,-274 88.5,-320"/>
<text text-anchor="start" x="22.65" y="-308" font-family="Helvetica,sans-Serif" font-size="10.00">std::exception</text>
<text text-anchor="start" x="52.11" y="-294" font-family="Helvetica,sans-Serif" font-size="10.00"> </text>
<text text-anchor="start" x="52.11" y="-280" font-family="Helvetica,sans-Serif" font-size="10.00"> </text>
<polygon fill="#666666" stroke="#666666" points="18,-304 18,-304 89,-304 89,-304 18,-304"/>
<polygon fill="#666666" stroke="#666666" points="18,-290 18,-290 89,-290 89,-290 18,-290"/>
<polygon fill="none" stroke="#666666" points="17.5,-274 17.5,-320 88.5,-320 88.5,-274 17.5,-274"/>
</a>
</g>
</g>
<!-- Node4&#45;&gt;Node3 -->
<g id="edge3_Node000003_Node000004" class="edge">
<title>Node4&#45;&gt;Node3</title>
<g id="a_edge3_Node000003_Node000004"><a xlink:title=" ">
<path fill="none" stroke="#63b8ff" d="M53,-263.63C53,-255.08 53,-246.04 53,-238.16"/>
<polygon fill="none" stroke="#63b8ff" points="49.5,-263.72 53,-273.72 56.5,-263.72 49.5,-263.72"/>
</a>
</g>
</g>
</g>
</svg>
