<?xml version="1.0" encoding="UTF-8" standalone="no"?>
<!DOCTYPE svg PUBLIC "-//W3C//DTD SVG 1.1//EN"
 "http://www.w3.org/Graphics/SVG/1.1/DTD/svg11.dtd">
<!-- Generated by graphviz version 2.48.0 (20210717.1556)
 -->
<!-- Title: epub::container Pages: 1 -->
<svg width="457pt" height="1643pt"
 viewBox="0.00 0.00 456.50 1643.00" xmlns="http://www.w3.org/2000/svg" xmlns:xlink="http://www.w3.org/1999/xlink">
<g id="graph0" class="graph" transform="scale(1 1) rotate(0) translate(4 1639)">
<title>epub::container</title>
<!-- Node1 -->
<g id="Node000001" class="node">
<title>Node1</title>
<g id="a_Node000001"><a xlink:title="The EPUB container file hierarchy.">
<polygon fill="#999999" stroke="transparent" points="315.5,-144 237.5,-144 237.5,0 315.5,0 315.5,-144"/>
<text text-anchor="start" x="242.03" y="-132" font-family="Helvetica,sans-Serif" font-size="10.00">epub::container</text>
<text text-anchor="start" x="275.11" y="-118" font-family="Helvetica,sans-Serif" font-size="10.00"> </text>
<text text-anchor="start" x="243.08" y="-104" font-family="Helvetica,sans-Serif" font-size="10.00">+</text>
<text text-anchor="start" x="254.5" y="-104" font-family="Helvetica,sans-Serif" font-size="10.00">container()</text>
<text text-anchor="start" x="243.08" y="-90" font-family="Helvetica,sans-Serif" font-size="10.00">+</text>
<text text-anchor="start" x="254.5" y="-90" font-family="Helvetica,sans-Serif" font-size="10.00">add()</text>
<text text-anchor="start" x="243.08" y="-76" font-family="Helvetica,sans-Serif" font-size="10.00">+</text>
<text text-anchor="start" x="254.5" y="-76" font-family="Helvetica,sans-Serif" font-size="10.00">add()</text>
<text text-anchor="start" x="243.08" y="-62" font-family="Helvetica,sans-Serif" font-size="10.00">+</text>
<text text-anchor="start" x="254.5" y="-62" font-family="Helvetica,sans-Serif" font-size="10.00">package()</text>
<text text-anchor="start" x="243.08" y="-48" font-family="Helvetica,sans-Serif" font-size="10.00">+</text>
<text text-anchor="start" x="254.5" y="-48" font-family="Helvetica,sans-Serif" font-size="10.00">package()</text>
<text text-anchor="start" x="243.08" y="-34" font-family="Helvetica,sans-Serif" font-size="10.00">+</text>
<text text-anchor="start" x="254.5" y="-34" font-family="Helvetica,sans-Serif" font-size="10.00">navigation()</text>
<text text-anchor="start" x="243.08" y="-20" font-family="Helvetica,sans-Serif" font-size="10.00">+</text>
<text text-anchor="start" x="254.5" y="-20" font-family="Helvetica,sans-Serif" font-size="10.00">navigation()</text>
<text text-anchor="start" x="243.08" y="-6" font-family="Helvetica,sans-Serif" font-size="10.00">+</text>
<text text-anchor="start" x="254.5" y="-6" font-family="Helvetica,sans-Serif" font-size="10.00">write()</text>
<polygon fill="#666666" stroke="#666666" points="237.5,-128 237.5,-128 315.5,-128 315.5,-128 237.5,-128"/>
<polygon fill="#666666" stroke="#666666" points="237.5,-114 237.5,-114 315.5,-114 315.5,-114 237.5,-114"/>
<polygon fill="none" stroke="#666666" points="237.5,0 237.5,-144 315.5,-144 315.5,0 237.5,0"/>
</a>
</g>
</g>
<!-- Node2 -->
<g id="Node000002" class="node">
<title>Node2</title>
<g id="a_Node000002"><a xlink:title=" ">
<polygon fill="white" stroke="transparent" points="220.5,-295 100.5,-295 100.5,-215 220.5,-215 220.5,-295"/>
<text text-anchor="start" x="105.34" y="-283" font-family="Helvetica,sans-Serif" font-size="10.00">std::map&lt; std::filesystem</text>
<text text-anchor="start" x="105.34" y="-273" font-family="Helvetica,sans-Serif" font-size="10.00">::path, std::filesystem</text>
<text text-anchor="start" x="143.68" y="-263" font-family="Helvetica,sans-Serif" font-size="10.00">::path &gt;</text>
<text text-anchor="start" x="119.58" y="-249" font-family="Helvetica,sans-Serif" font-size="10.00">+</text>
<text text-anchor="start" x="144.5" y="-249" font-family="Helvetica,sans-Serif" font-size="10.00">keys</text>
<text text-anchor="start" x="119.58" y="-235" font-family="Helvetica,sans-Serif" font-size="10.00">+</text>
<text text-anchor="start" x="144.5" y="-235" font-family="Helvetica,sans-Serif" font-size="10.00">elements</text>
<text text-anchor="start" x="159.11" y="-221" font-family="Helvetica,sans-Serif" font-size="10.00"> </text>
<polygon fill="#666666" stroke="#666666" points="100.5,-259 100.5,-259 220.5,-259 220.5,-259 100.5,-259"/>
<polygon fill="#666666" stroke="#666666" points="100.5,-231 100.5,-231 142.5,-231 142.5,-231 100.5,-231"/>
<polygon fill="#666666" stroke="#666666" points="142.5,-231 142.5,-231 220.5,-231 220.5,-231 142.5,-231"/>
<polygon fill="none" stroke="#666666" points="100.5,-215 100.5,-295 220.5,-295 220.5,-215 100.5,-215"/>
</a>
</g>
</g>
<!-- Node2&#45;&gt;Node1 -->
<g id="edge1_Node000001_Node000002" class="edge">
<title>Node2&#45;&gt;Node1</title>
<g id="a_edge1_Node000001_Node000002"><a xlink:title=" ">
<path fill="none" stroke="#63b8ff" d="M185.67,-214.73C198.91,-194.07 215.54,-168.12 230.95,-144.08"/>
<polygon fill="none" stroke="#63b8ff" points="230.99,-144.02 230.86,-136.81 237.46,-133.91 237.59,-141.12 230.99,-144.02"/>
</a>
</g>
<text text-anchor="middle" x="233.23" y="-164" font-family="Helvetica,sans-Serif" font-size="10.00" fill="grey"> &#45;_files</text>
</g>
<!-- Node3 -->
<g id="Node000003" class="node">
<title>Node3</title>
<g id="a_Node000003"><a xlink:href="classepub_1_1package.html" target="_top" xlink:title=" ">
<polygon fill="white" stroke="transparent" points="314,-320 239,-320 239,-190 314,-190 314,-320"/>
<text text-anchor="start" x="244.19" y="-308" font-family="Helvetica,sans-Serif" font-size="10.00">epub::package</text>
<text text-anchor="start" x="275.61" y="-294" font-family="Helvetica,sans-Serif" font-size="10.00"> </text>
<text text-anchor="start" x="245.58" y="-280" font-family="Helvetica,sans-Serif" font-size="10.00">+</text>
<text text-anchor="start" x="257.5" y="-280" font-family="Helvetica,sans-Serif" font-size="10.00">metadata()</text>
<text text-anchor="start" x="245.58" y="-266" font-family="Helvetica,sans-Serif" font-size="10.00">+</text>
<text text-anchor="start" x="257.5" y="-266" font-family="Helvetica,sans-Serif" font-size="10.00">metadata()</text>
<text text-anchor="start" x="245.58" y="-252" font-family="Helvetica,sans-Serif" font-size="10.00">+</text>
<text text-anchor="start" x="257.5" y="-252" font-family="Helvetica,sans-Serif" font-size="10.00">manifest()</text>
<text text-anchor="start" x="245.58" y="-238" font-family="Helvetica,sans-Serif" font-size="10.00">+</text>
<text text-anchor="start" x="257.5" y="-238" font-family="Helvetica,sans-Serif" font-size="10.00">manifest()</text>
<text text-anchor="start" x="245.58" y="-224" font-family="Helvetica,sans-Serif" font-size="10.00">+</text>
<text text-anchor="start" x="257.5" y="-224" font-family="Helvetica,sans-Serif" font-size="10.00">spine()</text>
<text text-anchor="start" x="245.58" y="-210" font-family="Helvetica,sans-Serif" font-size="10.00">+</text>
<text text-anchor="start" x="257.5" y="-210" font-family="Helvetica,sans-Serif" font-size="10.00">spine()</text>
<text text-anchor="start" x="245.58" y="-196" font-family="Helvetica,sans-Serif" font-size="10.00">+</text>
<text text-anchor="start" x="257.5" y="-196" font-family="Helvetica,sans-Serif" font-size="10.00">write()</text>
<polygon fill="#666666" stroke="#666666" points="239.5,-304 239.5,-304 314.5,-304 314.5,-304 239.5,-304"/>
<polygon fill="#666666" stroke="#666666" points="239.5,-290 239.5,-290 314.5,-290 314.5,-290 239.5,-290"/>
<polygon fill="none" stroke="#666666" points="239,-190 239,-320 314,-320 314,-190 239,-190"/>
</a>
</g>
</g>
<!-- Node3&#45;&gt;Node1 -->
<g id="edge2_Node000001_Node000003" class="edge">
<title>Node3&#45;&gt;Node1</title>
<g id="a_edge2_Node000001_Node000003"><a xlink:title=" ">
<path fill="none" stroke="#63b8ff" d="M276.5,-189.93C276.5,-179.03 276.5,-167.56 276.5,-156.25"/>
<polygon fill="none" stroke="#63b8ff" points="276.5,-156.07 272.5,-150.07 276.5,-144.07 280.5,-150.07 276.5,-156.07"/>
</a>
</g>
<text text-anchor="middle" x="301.24" y="-164" font-family="Helvetica,sans-Serif" font-size="10.00" fill="grey"> &#45;_package</text>
</g>
<!-- Node4 -->
<g id="Node000004" class="node">
<title>Node4</title>
<g id="a_Node000004"><a xlink:href="classepub_1_1metadata.html" target="_top" xlink:title=" ">
<polygon fill="white" stroke="transparent" points="297,-974 210,-974 210,-690 297,-690 297,-974"/>
<text text-anchor="start" x="219.25" y="-962" font-family="Helvetica,sans-Serif" font-size="10.00">epub::metadata</text>
<text text-anchor="start" x="215.33" y="-948" font-family="Helvetica,sans-Serif" font-size="10.00">&#45;</text>
<text text-anchor="start" x="223.5" y="-948" font-family="Helvetica,sans-Serif" font-size="10.00">_pre_paginated</text>
<text text-anchor="start" x="214.08" y="-934" font-family="Helvetica,sans-Serif" font-size="10.00">+</text>
<text text-anchor="start" x="223.5" y="-934" font-family="Helvetica,sans-Serif" font-size="10.00">metadata()</text>
<text text-anchor="start" x="214.08" y="-920" font-family="Helvetica,sans-Serif" font-size="10.00">+</text>
<text text-anchor="start" x="223.5" y="-920" font-family="Helvetica,sans-Serif" font-size="10.00">pre_paginated()</text>
<text text-anchor="start" x="214.08" y="-906" font-family="Helvetica,sans-Serif" font-size="10.00">+</text>
<text text-anchor="start" x="223.5" y="-906" font-family="Helvetica,sans-Serif" font-size="10.00">reflow()</text>
<text text-anchor="start" x="214.08" y="-892" font-family="Helvetica,sans-Serif" font-size="10.00">+</text>
<text text-anchor="start" x="223.5" y="-892" font-family="Helvetica,sans-Serif" font-size="10.00">layout()</text>
<text text-anchor="start" x="214.08" y="-878" font-family="Helvetica,sans-Serif" font-size="10.00">+</text>
<text text-anchor="start" x="223.5" y="-878" font-family="Helvetica,sans-Serif" font-size="10.00">identifier()</text>
<text text-anchor="start" x="214.08" y="-864" font-family="Helvetica,sans-Serif" font-size="10.00">+</text>
<text text-anchor="start" x="223.5" y="-864" font-family="Helvetica,sans-Serif" font-size="10.00">identifier()</text>
<text text-anchor="start" x="214.08" y="-850" font-family="Helvetica,sans-Serif" font-size="10.00">+</text>
<text text-anchor="start" x="223.5" y="-850" font-family="Helvetica,sans-Serif" font-size="10.00">title()</text>
<text text-anchor="start" x="214.08" y="-836" font-family="Helvetica,sans-Serif" font-size="10.00">+</text>
<text text-anchor="start" x="223.5" y="-836" font-family="Helvetica,sans-Serif" font-size="10.00">title()</text>
<text text-anchor="start" x="214.08" y="-822" font-family="Helvetica,sans-Serif" font-size="10.00">+</text>
<text text-anchor="start" x="223.5" y="-822" font-family="Helvetica,sans-Serif" font-size="10.00">language()</text>
<text text-anchor="start" x="214.08" y="-808" font-family="Helvetica,sans-Serif" font-size="10.00">+</text>
<text text-anchor="start" x="223.5" y="-808" font-family="Helvetica,sans-Serif" font-size="10.00">creators()</text>
<text text-anchor="start" x="214.08" y="-794" font-family="Helvetica,sans-Serif" font-size="10.00">+</text>
<text text-anchor="start" x="223.5" y="-794" font-family="Helvetica,sans-Serif" font-size="10.00">creators()</text>
<text text-anchor="start" x="215.05" y="-780" font-family="Helvetica,sans-Serif" font-size="10.00">*</text>
<text text-anchor="start" x="223.5" y="-780" font-family="Helvetica,sans-Serif" font-size="10.00">identifier()</text>
<text text-anchor="start" x="215.05" y="-766" font-family="Helvetica,sans-Serif" font-size="10.00">*</text>
<text text-anchor="start" x="223.5" y="-766" font-family="Helvetica,sans-Serif" font-size="10.00">identifier()</text>
<text text-anchor="start" x="215.05" y="-752" font-family="Helvetica,sans-Serif" font-size="10.00">*</text>
<text text-anchor="start" x="223.5" y="-752" font-family="Helvetica,sans-Serif" font-size="10.00">title()</text>
<text text-anchor="start" x="215.05" y="-738" font-family="Helvetica,sans-Serif" font-size="10.00">*</text>
<text text-anchor="start" x="223.5" y="-738" font-family="Helvetica,sans-Serif" font-size="10.00">title()</text>
<text text-anchor="start" x="215.05" y="-724" font-family="Helvetica,sans-Serif" font-size="10.00">*</text>
<text text-anchor="start" x="223.5" y="-724" font-family="Helvetica,sans-Serif" font-size="10.00">language()</text>
<text text-anchor="start" x="215.05" y="-710" font-family="Helvetica,sans-Serif" font-size="10.00">*</text>
<text text-anchor="start" x="223.5" y="-710" font-family="Helvetica,sans-Serif" font-size="10.00">creators()</text>
<text text-anchor="start" x="215.05" y="-696" font-family="Helvetica,sans-Serif" font-size="10.00">*</text>
<text text-anchor="start" x="223.5" y="-696" font-family="Helvetica,sans-Serif" font-size="10.00">creators()</text>
<polygon fill="#666666" stroke="#666666" points="210.5,-958 210.5,-958 297.5,-958 297.5,-958 210.5,-958"/>
<polygon fill="#666666" stroke="#666666" points="210.5,-944 210.5,-944 221.5,-944 221.5,-944 210.5,-944"/>
<polygon fill="#666666" stroke="#666666" points="221.5,-944 221.5,-944 297.5,-944 297.5,-944 221.5,-944"/>
<polygon fill="none" stroke="#666666" points="210,-690 210,-974 297,-974 297,-690 210,-690"/>
</a>
</g>
</g>
<!-- Node4&#45;&gt;Node3 -->
<g id="edge3_Node000003_Node000004" class="edge">
<title>Node4&#45;&gt;Node3</title>
<g id="a_edge3_Node000003_Node000004"><a xlink:title=" ">
<path fill="none" stroke="#63b8ff" d="M251.04,-689.81C250.63,-616.44 251.47,-525.33 256.14,-444 258.25,-407.22 262.42,-366.56 266.44,-332.49"/>
<polygon fill="none" stroke="#63b8ff" points="266.48,-332.17 263.23,-325.73 267.91,-320.25 271.17,-326.69 266.48,-332.17"/>
</a>
</g>
<text text-anchor="middle" x="283.18" y="-541" font-family="Helvetica,sans-Serif" font-size="10.00" fill="grey"> &#45;_metadata</text>
</g>
<!-- Node5 -->
<g id="Node000005" class="node">
<title>Node5</title>
<g id="a_Node000005"><a xlink:title=" ">
<polygon fill="white" stroke="transparent" points="250.5,-1443 186.5,-1443 186.5,-1397 250.5,-1397 250.5,-1443"/>
<text text-anchor="start" x="191.26" y="-1431" font-family="Helvetica,sans-Serif" font-size="10.00">std::u8string</text>
<text text-anchor="start" x="217.11" y="-1417" font-family="Helvetica,sans-Serif" font-size="10.00"> </text>
<text text-anchor="start" x="217.11" y="-1403" font-family="Helvetica,sans-Serif" font-size="10.00"> </text>
<polygon fill="#666666" stroke="#666666" points="186.5,-1427 186.5,-1427 250.5,-1427 250.5,-1427 186.5,-1427"/>
<polygon fill="#666666" stroke="#666666" points="186.5,-1413 186.5,-1413 250.5,-1413 250.5,-1413 186.5,-1413"/>
<polygon fill="none" stroke="#666666" points="186.5,-1397 186.5,-1443 250.5,-1443 250.5,-1397 186.5,-1397"/>
</a>
</g>
</g>
<!-- Node5&#45;&gt;Node4 -->
<g id="edge4_Node000004_Node000005" class="edge">
<title>Node5&#45;&gt;Node4</title>
<g id="a_edge4_Node000004_Node000005"><a xlink:title=" ">
<path fill="none" stroke="#63b8ff" d="M219.83,-1396.74C223.79,-1330.37 235.79,-1129.53 244.33,-986.52"/>
<polygon fill="none" stroke="#63b8ff" points="244.35,-986.15 240.72,-979.92 245.07,-974.17 248.7,-980.4 244.35,-986.15"/>
</a>
</g>
<text text-anchor="middle" x="263.52" y="-1116" font-family="Helvetica,sans-Serif" font-size="10.00" fill="grey"> &#45;_identifier</text>
<text text-anchor="middle" x="263.52" y="-1106" font-family="Helvetica,sans-Serif" font-size="10.00" fill="grey">&#45;_language</text>
<text text-anchor="middle" x="263.52" y="-1096" font-family="Helvetica,sans-Serif" font-size="10.00" fill="grey">&#45;_title</text>
</g>
<!-- Node8 -->
<g id="Node000008" class="node">
<title>Node8</title>
<g id="a_Node000008"><a xlink:href="classepub_1_1creator.html" target="_top" xlink:title=" ">
<polygon fill="white" stroke="transparent" points="370,-1324 273,-1324 273,-1142 370,-1142 370,-1324"/>
<text text-anchor="start" x="292.54" y="-1312" font-family="Helvetica,sans-Serif" font-size="10.00">epub::creator</text>
<text text-anchor="start" x="320.61" y="-1298" font-family="Helvetica,sans-Serif" font-size="10.00"> </text>
<text text-anchor="start" x="277.08" y="-1284" font-family="Helvetica,sans-Serif" font-size="10.00">+</text>
<text text-anchor="start" x="286.5" y="-1284" font-family="Helvetica,sans-Serif" font-size="10.00">creator()</text>
<text text-anchor="start" x="277.08" y="-1270" font-family="Helvetica,sans-Serif" font-size="10.00">+</text>
<text text-anchor="start" x="286.5" y="-1270" font-family="Helvetica,sans-Serif" font-size="10.00">creator()</text>
<text text-anchor="start" x="277.08" y="-1256" font-family="Helvetica,sans-Serif" font-size="10.00">+</text>
<text text-anchor="start" x="286.5" y="-1256" font-family="Helvetica,sans-Serif" font-size="10.00">creator()</text>
<text text-anchor="start" x="277.08" y="-1242" font-family="Helvetica,sans-Serif" font-size="10.00">+</text>
<text text-anchor="start" x="286.5" y="-1242" font-family="Helvetica,sans-Serif" font-size="10.00">operator=()</text>
<text text-anchor="start" x="277.08" y="-1228" font-family="Helvetica,sans-Serif" font-size="10.00">+</text>
<text text-anchor="start" x="286.5" y="-1228" font-family="Helvetica,sans-Serif" font-size="10.00">operator=()</text>
<text text-anchor="start" x="277.08" y="-1214" font-family="Helvetica,sans-Serif" font-size="10.00">+</text>
<text text-anchor="start" x="286.5" y="-1214" font-family="Helvetica,sans-Serif" font-size="10.00">operator const std</text>
<text text-anchor="start" x="286.5" y="-1204" font-family="Helvetica,sans-Serif" font-size="10.00">::u8string &amp;()</text>
<text text-anchor="start" x="277.08" y="-1190" font-family="Helvetica,sans-Serif" font-size="10.00">+</text>
<text text-anchor="start" x="286.5" y="-1190" font-family="Helvetica,sans-Serif" font-size="10.00">file_as()</text>
<text text-anchor="start" x="277.08" y="-1176" font-family="Helvetica,sans-Serif" font-size="10.00">+</text>
<text text-anchor="start" x="286.5" y="-1176" font-family="Helvetica,sans-Serif" font-size="10.00">file_as()</text>
<text text-anchor="start" x="277.08" y="-1162" font-family="Helvetica,sans-Serif" font-size="10.00">+</text>
<text text-anchor="start" x="286.5" y="-1162" font-family="Helvetica,sans-Serif" font-size="10.00">role()</text>
<text text-anchor="start" x="277.08" y="-1148" font-family="Helvetica,sans-Serif" font-size="10.00">+</text>
<text text-anchor="start" x="286.5" y="-1148" font-family="Helvetica,sans-Serif" font-size="10.00">role()</text>
<polygon fill="#666666" stroke="#666666" points="273.5,-1308 273.5,-1308 370.5,-1308 370.5,-1308 273.5,-1308"/>
<polygon fill="#666666" stroke="#666666" points="273.5,-1294 273.5,-1294 370.5,-1294 370.5,-1294 273.5,-1294"/>
<polygon fill="none" stroke="#666666" points="273,-1142 273,-1324 370,-1324 370,-1142 273,-1142"/>
</a>
</g>
</g>
<!-- Node5&#45;&gt;Node8 -->
<g id="edge8_Node000008_Node000005" class="edge">
<title>Node5&#45;&gt;Node8</title>
<g id="a_edge8_Node000008_Node000005"><a xlink:title=" ">
<path fill="none" stroke="#63b8ff" d="M239.79,-1396.57C246.26,-1389.09 253.09,-1380.5 258.5,-1372 265.83,-1360.49 272.77,-1347.98 279.18,-1335.35"/>
<polygon fill="none" stroke="#63b8ff" points="279.35,-1335 278.43,-1327.85 284.68,-1324.25 285.6,-1331.4 279.35,-1335"/>
</a>
</g>
<text text-anchor="middle" x="296.9" y="-1364" font-family="Helvetica,sans-Serif" font-size="10.00" fill="grey"> &#45;_creator</text>
<text text-anchor="middle" x="296.9" y="-1354" font-family="Helvetica,sans-Serif" font-size="10.00" fill="grey">&#45;_file_as</text>
<text text-anchor="middle" x="296.9" y="-1344" font-family="Helvetica,sans-Serif" font-size="10.00" fill="grey">&#45;_role</text>
</g>
<!-- Node10 -->
<g id="Node000010" class="node">
<title>Node10</title>
<g id="a_Node000010"><a xlink:title=" ">
<polygon fill="white" stroke="transparent" points="191.5,-865 77.5,-865 77.5,-799 191.5,-799 191.5,-865"/>
<text text-anchor="start" x="82.39" y="-853" font-family="Helvetica,sans-Serif" font-size="10.00">std::map&lt; std::u8string,</text>
<text text-anchor="start" x="82.39" y="-843" font-family="Helvetica,sans-Serif" font-size="10.00"> std::shared_ptr&lt; epub</text>
<text text-anchor="start" x="91.98" y="-833" font-family="Helvetica,sans-Serif" font-size="10.00">::manifest::item &gt; &gt;</text>
<text text-anchor="start" x="133.11" y="-819" font-family="Helvetica,sans-Serif" font-size="10.00"> </text>
<text text-anchor="start" x="133.11" y="-805" font-family="Helvetica,sans-Serif" font-size="10.00"> </text>
<polygon fill="#666666" stroke="#666666" points="77.5,-829 77.5,-829 191.5,-829 191.5,-829 77.5,-829"/>
<polygon fill="#666666" stroke="#666666" points="77.5,-815 77.5,-815 191.5,-815 191.5,-815 77.5,-815"/>
<polygon fill="none" stroke="#666666" points="77.5,-799 77.5,-865 191.5,-865 191.5,-799 77.5,-799"/>
</a>
</g>
</g>
<!-- Node5&#45;&gt;Node10 -->
<g id="edge11_Node000010_Node000005" class="edge">
<title>Node5&#45;&gt;Node10</title>
<g id="a_edge11_Node000010_Node000005"><a xlink:title=" ">
<path fill="none" stroke="#63b8ff" d="M216.75,-1396.66C211.59,-1333.09 195.19,-1145.82 169.5,-992 162.97,-952.87 153.07,-908.85 145.47,-877.06"/>
<polygon fill="none" stroke="#63b8ff" points="145.4,-876.76 140.1,-871.86 142.58,-865.09 147.88,-869.98 145.4,-876.76"/>
</a>
</g>
<text text-anchor="middle" x="203.09" y="-1106" font-family="Helvetica,sans-Serif" font-size="10.00" fill="grey"> +keys</text>
</g>
<!-- Node12 -->
<g id="Node000012" class="node">
<title>Node12</title>
<g id="a_Node000012"><a xlink:href="classepub_1_1manifest_1_1item.html" target="_top" xlink:title=" ">
<polygon fill="white" stroke="transparent" points="160.5,-1284 60.5,-1284 60.5,-1182 160.5,-1182 160.5,-1284"/>
<text text-anchor="start" x="65.48" y="-1272" font-family="Helvetica,sans-Serif" font-size="10.00">epub::manifest::item</text>
<text text-anchor="start" x="73.33" y="-1258" font-family="Helvetica,sans-Serif" font-size="10.00">&#45;</text>
<text text-anchor="start" x="89.5" y="-1258" font-family="Helvetica,sans-Serif" font-size="10.00">_path</text>
<text text-anchor="start" x="72.08" y="-1244" font-family="Helvetica,sans-Serif" font-size="10.00">+</text>
<text text-anchor="start" x="89.5" y="-1244" font-family="Helvetica,sans-Serif" font-size="10.00">item()</text>
<text text-anchor="start" x="72.08" y="-1230" font-family="Helvetica,sans-Serif" font-size="10.00">+</text>
<text text-anchor="start" x="89.5" y="-1230" font-family="Helvetica,sans-Serif" font-size="10.00">id()</text>
<text text-anchor="start" x="72.08" y="-1216" font-family="Helvetica,sans-Serif" font-size="10.00">+</text>
<text text-anchor="start" x="89.5" y="-1216" font-family="Helvetica,sans-Serif" font-size="10.00">path()</text>
<text text-anchor="start" x="72.08" y="-1202" font-family="Helvetica,sans-Serif" font-size="10.00">+</text>
<text text-anchor="start" x="89.5" y="-1202" font-family="Helvetica,sans-Serif" font-size="10.00">properties()</text>
<text text-anchor="start" x="72.08" y="-1188" font-family="Helvetica,sans-Serif" font-size="10.00">+</text>
<text text-anchor="start" x="89.5" y="-1188" font-family="Helvetica,sans-Serif" font-size="10.00">metadata()</text>
<polygon fill="#666666" stroke="#666666" points="60.5,-1268 60.5,-1268 160.5,-1268 160.5,-1268 60.5,-1268"/>
<polygon fill="#666666" stroke="#666666" points="60.5,-1254 60.5,-1254 87.5,-1254 87.5,-1254 60.5,-1254"/>
<polygon fill="#666666" stroke="#666666" points="87.5,-1254 87.5,-1254 160.5,-1254 160.5,-1254 87.5,-1254"/>
<polygon fill="none" stroke="#666666" points="60.5,-1182 60.5,-1284 160.5,-1284 160.5,-1182 60.5,-1182"/>
</a>
</g>
</g>
<!-- Node5&#45;&gt;Node12 -->
<g id="edge14_Node000012_Node000005" class="edge">
<title>Node5&#45;&gt;Node12</title>
<g id="a_edge14_Node000012_Node000005"><a xlink:title=" ">
<path fill="none" stroke="#63b8ff" d="M186.36,-1411.38C165.4,-1404.64 139.38,-1392.6 125.14,-1372 110.13,-1350.29 105.28,-1321.88 104.65,-1296.49"/>
<polygon fill="none" stroke="#63b8ff" points="104.65,-1296.31 100.65,-1290.31 104.66,-1284.31 108.65,-1290.31 104.65,-1296.31"/>
</a>
</g>
<text text-anchor="middle" x="152.18" y="-1359" font-family="Helvetica,sans-Serif" font-size="10.00" fill="grey"> &#45;_id</text>
<text text-anchor="middle" x="152.18" y="-1349" font-family="Helvetica,sans-Serif" font-size="10.00" fill="grey">&#45;_properties</text>
</g>
<!-- Node6 -->
<g id="Node000006" class="node">
<title>Node6</title>
<g id="a_Node000006"><a xlink:title=" ">
<polygon fill="white" stroke="transparent" points="262.5,-1543 174.5,-1543 174.5,-1487 262.5,-1487 262.5,-1543"/>
<text text-anchor="start" x="179.45" y="-1531" font-family="Helvetica,sans-Serif" font-size="10.00">std::basic_string&lt;</text>
<text text-anchor="start" x="201.96" y="-1521" font-family="Helvetica,sans-Serif" font-size="10.00"> Char &gt;</text>
<text text-anchor="start" x="217.11" y="-1507" font-family="Helvetica,sans-Serif" font-size="10.00"> </text>
<text text-anchor="start" x="217.11" y="-1493" font-family="Helvetica,sans-Serif" font-size="10.00"> </text>
<polygon fill="#666666" stroke="#666666" points="174.5,-1517 174.5,-1517 262.5,-1517 262.5,-1517 174.5,-1517"/>
<polygon fill="#666666" stroke="#666666" points="174.5,-1503 174.5,-1503 262.5,-1503 262.5,-1503 174.5,-1503"/>
<polygon fill="none" stroke="#666666" points="174.5,-1487 174.5,-1543 262.5,-1543 262.5,-1487 174.5,-1487"/>
</a>
</g>
</g>
<!-- Node6&#45;&gt;Node5 -->
<g id="edge5_Node000005_Node000006" class="edge">
<title>Node6&#45;&gt;Node5</title>
<g id="a_edge5_Node000005_Node000006"><a xlink:title=" ">
<path fill="none" stroke="#63b8ff" d="M218.5,-1476.51C218.5,-1465.21 218.5,-1453.18 218.5,-1443.21"/>
<polygon fill="none" stroke="#63b8ff" points="215,-1476.6 218.5,-1486.6 222,-1476.6 215,-1476.6"/>
</a>
</g>
</g>
<!-- Node7 -->
<g id="Node000007" class="node">
<title>Node7</title>
<g id="a_Node000007"><a xlink:title=" ">
<polygon fill="white" stroke="transparent" points="365.5,-1076 273.5,-1076 273.5,-1020 365.5,-1020 365.5,-1076"/>
<text text-anchor="start" x="278.23" y="-1064" font-family="Helvetica,sans-Serif" font-size="10.00">std::vector&lt; epub::</text>
<text text-anchor="start" x="299.63" y="-1054" font-family="Helvetica,sans-Serif" font-size="10.00">creator &gt;</text>
<text text-anchor="start" x="318.11" y="-1040" font-family="Helvetica,sans-Serif" font-size="10.00"> </text>
<text text-anchor="start" x="318.11" y="-1026" font-family="Helvetica,sans-Serif" font-size="10.00"> </text>
<polygon fill="#666666" stroke="#666666" points="273.5,-1050 273.5,-1050 365.5,-1050 365.5,-1050 273.5,-1050"/>
<polygon fill="#666666" stroke="#666666" points="273.5,-1036 273.5,-1036 365.5,-1036 365.5,-1036 273.5,-1036"/>
<polygon fill="none" stroke="#666666" points="273.5,-1020 273.5,-1076 365.5,-1076 365.5,-1020 273.5,-1020"/>
</a>
</g>
</g>
<!-- Node7&#45;&gt;Node4 -->
<g id="edge6_Node000004_Node000007" class="edge">
<title>Node7&#45;&gt;Node4</title>
<g id="a_edge6_Node000004_Node000007"><a xlink:title=" ">
<path fill="none" stroke="#63b8ff" d="M311.14,-1019.9C308.19,-1010.34 304.64,-998.8 300.75,-986.21"/>
<polygon fill="none" stroke="#63b8ff" points="300.64,-985.85 295.05,-981.29 297.1,-974.38 302.69,-978.93 300.64,-985.85"/>
</a>
</g>
<text text-anchor="middle" x="329.4" y="-994" font-family="Helvetica,sans-Serif" font-size="10.00" fill="grey"> &#45;_creators</text>
</g>
<!-- Node8&#45;&gt;Node7 -->
<g id="edge7_Node000007_Node000008" class="edge">
<title>Node8&#45;&gt;Node7</title>
<g id="a_edge7_Node000007_Node000008"><a xlink:title=" ">
<path fill="none" stroke="#63b8ff" d="M320.51,-1141.84C320.31,-1123.09 320.1,-1104.27 319.93,-1088.52"/>
<polygon fill="none" stroke="#63b8ff" points="319.93,-1088.08 315.86,-1082.12 319.8,-1076.08 323.86,-1082.04 319.93,-1088.08"/>
</a>
</g>
<text text-anchor="middle" x="345.1" y="-1106" font-family="Helvetica,sans-Serif" font-size="10.00" fill="grey"> +elements</text>
</g>
<!-- Node9 -->
<g id="Node000009" class="node">
<title>Node9</title>
<g id="a_Node000009"><a xlink:href="classepub_1_1manifest.html" target="_top" xlink:title=" ">
<polygon fill="white" stroke="transparent" points="205,-644 130,-644 130,-444 205,-444 205,-644"/>
<text text-anchor="start" x="135.2" y="-632" font-family="Helvetica,sans-Serif" font-size="10.00">epub::manifest</text>
<text text-anchor="start" x="166.61" y="-618" font-family="Helvetica,sans-Serif" font-size="10.00"> </text>
<text text-anchor="start" x="136.08" y="-604" font-family="Helvetica,sans-Serif" font-size="10.00">+</text>
<text text-anchor="start" x="147.5" y="-604" font-family="Helvetica,sans-Serif" font-size="10.00">manifest()</text>
<text text-anchor="start" x="136.08" y="-590" font-family="Helvetica,sans-Serif" font-size="10.00">+</text>
<text text-anchor="start" x="147.5" y="-590" font-family="Helvetica,sans-Serif" font-size="10.00">manifest()</text>
<text text-anchor="start" x="136.08" y="-576" font-family="Helvetica,sans-Serif" font-size="10.00">+</text>
<text text-anchor="start" x="147.5" y="-576" font-family="Helvetica,sans-Serif" font-size="10.00">manifest()</text>
<text text-anchor="start" x="136.08" y="-562" font-family="Helvetica,sans-Serif" font-size="10.00">+</text>
<text text-anchor="start" x="147.5" y="-562" font-family="Helvetica,sans-Serif" font-size="10.00">~manifest()</text>
<text text-anchor="start" x="136.08" y="-548" font-family="Helvetica,sans-Serif" font-size="10.00">+</text>
<text text-anchor="start" x="147.5" y="-548" font-family="Helvetica,sans-Serif" font-size="10.00">operator=()</text>
<text text-anchor="start" x="136.08" y="-534" font-family="Helvetica,sans-Serif" font-size="10.00">+</text>
<text text-anchor="start" x="147.5" y="-534" font-family="Helvetica,sans-Serif" font-size="10.00">operator=()</text>
<text text-anchor="start" x="136.08" y="-520" font-family="Helvetica,sans-Serif" font-size="10.00">+</text>
<text text-anchor="start" x="147.5" y="-520" font-family="Helvetica,sans-Serif" font-size="10.00">add()</text>
<text text-anchor="start" x="136.08" y="-506" font-family="Helvetica,sans-Serif" font-size="10.00">+</text>
<text text-anchor="start" x="147.5" y="-506" font-family="Helvetica,sans-Serif" font-size="10.00">begin()</text>
<text text-anchor="start" x="136.08" y="-492" font-family="Helvetica,sans-Serif" font-size="10.00">+</text>
<text text-anchor="start" x="147.5" y="-492" font-family="Helvetica,sans-Serif" font-size="10.00">end()</text>
<text text-anchor="start" x="136.08" y="-478" font-family="Helvetica,sans-Serif" font-size="10.00">+</text>
<text text-anchor="start" x="147.5" y="-478" font-family="Helvetica,sans-Serif" font-size="10.00">front()</text>
<text text-anchor="start" x="136.08" y="-464" font-family="Helvetica,sans-Serif" font-size="10.00">+</text>
<text text-anchor="start" x="147.5" y="-464" font-family="Helvetica,sans-Serif" font-size="10.00">back()</text>
<text text-anchor="start" x="136.08" y="-450" font-family="Helvetica,sans-Serif" font-size="10.00">+</text>
<text text-anchor="start" x="147.5" y="-450" font-family="Helvetica,sans-Serif" font-size="10.00">at()</text>
<polygon fill="#666666" stroke="#666666" points="130.5,-628 130.5,-628 205.5,-628 205.5,-628 130.5,-628"/>
<polygon fill="#666666" stroke="#666666" points="130.5,-614 130.5,-614 205.5,-614 205.5,-614 130.5,-614"/>
<polygon fill="none" stroke="#666666" points="130,-444 130,-644 205,-644 205,-444 130,-444"/>
</a>
</g>
</g>
<!-- Node9&#45;&gt;Node3 -->
<g id="edge9_Node000003_Node000009" class="edge">
<title>Node9&#45;&gt;Node3</title>
<g id="a_edge9_Node000003_Node000009"><a xlink:title=" ">
<path fill="none" stroke="#63b8ff" d="M154.7,-443.84C155.04,-407.47 161.89,-367.92 184.04,-338 196.97,-320.53 212.29,-333.28 229.5,-320 229.6,-319.92 229.7,-319.84 229.81,-319.76"/>
<polygon fill="none" stroke="#63b8ff" points="229.96,-319.62 231.8,-312.65 238.94,-311.66 237.11,-318.64 229.96,-319.62"/>
</a>
</g>
<text text-anchor="middle" x="209.23" y="-379" font-family="Helvetica,sans-Serif" font-size="10.00" fill="grey"> &#45;_manifest</text>
</g>
<!-- Node10&#45;&gt;Node9 -->
<g id="edge10_Node000009_Node000010" class="edge">
<title>Node10&#45;&gt;Node9</title>
<g id="a_edge10_Node000009_Node000010"><a xlink:title=" ">
<path fill="none" stroke="#63b8ff" d="M138.22,-798.75C142.21,-764.19 148.76,-707.41 154.66,-656.31"/>
<polygon fill="none" stroke="#63b8ff" points="154.68,-656.06 151.4,-649.64 156.06,-644.14 159.35,-650.56 154.68,-656.06"/>
</a>
</g>
<text text-anchor="middle" x="172.28" y="-664" font-family="Helvetica,sans-Serif" font-size="10.00" fill="grey"> &#45;_items</text>
</g>
<!-- Node11 -->
<g id="Node000011" class="node">
<title>Node11</title>
<g id="a_Node000011"><a xlink:title=" ">
<polygon fill="white" stroke="transparent" points="164,-1076 57,-1076 57,-1020 164,-1020 164,-1076"/>
<text text-anchor="start" x="62.22" y="-1064" font-family="Helvetica,sans-Serif" font-size="10.00">std::shared_ptr&lt; epub</text>
<text text-anchor="start" x="72.79" y="-1054" font-family="Helvetica,sans-Serif" font-size="10.00">::manifest::item &gt;</text>
<text text-anchor="start" x="109.61" y="-1040" font-family="Helvetica,sans-Serif" font-size="10.00"> </text>
<text text-anchor="start" x="70.08" y="-1026" font-family="Helvetica,sans-Serif" font-size="10.00">+</text>
<text text-anchor="start" x="88.5" y="-1026" font-family="Helvetica,sans-Serif" font-size="10.00">operator&#45;&gt;()</text>
<polygon fill="#666666" stroke="#666666" points="57.5,-1050 57.5,-1050 164.5,-1050 164.5,-1050 57.5,-1050"/>
<polygon fill="#666666" stroke="#666666" points="57.5,-1036 57.5,-1036 164.5,-1036 164.5,-1036 57.5,-1036"/>
<polygon fill="none" stroke="#666666" points="57,-1020 57,-1076 164,-1076 164,-1020 57,-1020"/>
</a>
</g>
</g>
<!-- Node11&#45;&gt;Node10 -->
<g id="edge12_Node000010_Node000011" class="edge">
<title>Node11&#45;&gt;Node10</title>
<g id="a_edge12_Node000010_Node000011"><a xlink:title=" ">
<path fill="none" stroke="#63b8ff" d="M113.54,-1019.9C117.57,-983.97 124.73,-920.11 129.55,-877.17"/>
<polygon fill="none" stroke="#63b8ff" points="129.56,-877.03 126.26,-870.63 130.9,-865.11 134.21,-871.52 129.56,-877.03"/>
</a>
</g>
<text text-anchor="middle" x="141.1" y="-994" font-family="Helvetica,sans-Serif" font-size="10.00" fill="grey"> +elements</text>
</g>
<!-- Node12&#45;&gt;Node11 -->
<g id="edge13_Node000011_Node000012" class="edge">
<title>Node12&#45;&gt;Node11</title>
<g id="a_edge13_Node000011_Node000012"><a xlink:title=" ">
<path fill="none" stroke="#63b8ff" d="M110.5,-1181.99C110.5,-1152.49 110.5,-1115.67 110.5,-1088.26"/>
<polygon fill="none" stroke="#63b8ff" points="110.5,-1088.01 106.5,-1082.01 110.5,-1076.01 114.5,-1082.01 110.5,-1088.01"/>
</a>
</g>
<text text-anchor="middle" x="120.64" y="-1106" font-family="Helvetica,sans-Serif" font-size="10.00" fill="grey"> +ptr</text>
</g>
<!-- Node13 -->
<g id="Node000013" class="node">
<title>Node13</title>
<g id="a_Node000013"><a xlink:href="structepub_1_1file__metadata.html" target="_top" xlink:title="A class for managing metadata key&#45;value pairs.">
<polygon fill="white" stroke="transparent" points="97,-1450 0,-1450 0,-1390 97,-1390 97,-1450"/>
<text text-anchor="start" x="5.08" y="-1438" font-family="Helvetica,sans-Serif" font-size="10.00">epub::file_metadata</text>
<text text-anchor="start" x="47.61" y="-1424" font-family="Helvetica,sans-Serif" font-size="10.00"> </text>
<text text-anchor="start" x="19.08" y="-1410" font-family="Helvetica,sans-Serif" font-size="10.00">+</text>
<text text-anchor="start" x="43.5" y="-1410" font-family="Helvetica,sans-Serif" font-size="10.00">get()</text>
<text text-anchor="start" x="19.08" y="-1396" font-family="Helvetica,sans-Serif" font-size="10.00">+</text>
<text text-anchor="start" x="43.5" y="-1396" font-family="Helvetica,sans-Serif" font-size="10.00">get()</text>
<polygon fill="#666666" stroke="#666666" points="0.5,-1434 0.5,-1434 97.5,-1434 97.5,-1434 0.5,-1434"/>
<polygon fill="#666666" stroke="#666666" points="0.5,-1420 0.5,-1420 97.5,-1420 97.5,-1420 0.5,-1420"/>
<polygon fill="none" stroke="#666666" points="0,-1390 0,-1450 97,-1450 97,-1390 0,-1390"/>
</a>
</g>
</g>
<!-- Node13&#45;&gt;Node12 -->
<g id="edge15_Node000012_Node000013" class="edge">
<title>Node13&#45;&gt;Node12</title>
<g id="a_edge15_Node000012_Node000013"><a xlink:title=" ">
<path fill="none" stroke="#63b8ff" d="M45.3,-1389.65C44.58,-1375.08 45.01,-1357.36 49.14,-1342 53.48,-1325.83 60.84,-1309.53 68.98,-1294.67"/>
<polygon fill="none" stroke="#63b8ff" points="69.05,-1294.54 68.56,-1287.35 75.01,-1284.13 75.5,-1291.32 69.05,-1294.54"/>
</a>
</g>
<text text-anchor="middle" x="76.18" y="-1354" font-family="Helvetica,sans-Serif" font-size="10.00" fill="grey"> &#45;_metadata</text>
</g>
<!-- Node14 -->
<g id="Node000014" class="node">
<title>Node14</title>
<g id="a_Node000014"><a xlink:title=" ">
<polygon fill="white" stroke="transparent" points="90,-1538 7,-1538 7,-1492 90,-1492 90,-1538"/>
<text text-anchor="start" x="12.22" y="-1526" font-family="Helvetica,sans-Serif" font-size="10.00">std::map&lt; K, T &gt;</text>
<text text-anchor="start" x="47.61" y="-1512" font-family="Helvetica,sans-Serif" font-size="10.00"> </text>
<text text-anchor="start" x="47.61" y="-1498" font-family="Helvetica,sans-Serif" font-size="10.00"> </text>
<polygon fill="#666666" stroke="#666666" points="7.5,-1522 7.5,-1522 90.5,-1522 90.5,-1522 7.5,-1522"/>
<polygon fill="#666666" stroke="#666666" points="7.5,-1508 7.5,-1508 90.5,-1508 90.5,-1508 7.5,-1508"/>
<polygon fill="none" stroke="#666666" points="7,-1492 7,-1538 90,-1538 90,-1492 7,-1492"/>
</a>
</g>
</g>
<!-- Node14&#45;&gt;Node13 -->
<g id="edge16_Node000013_Node000014" class="edge">
<title>Node14&#45;&gt;Node13</title>
<g id="a_edge16_Node000013_Node000014"><a xlink:title=" ">
<path fill="none" stroke="#63b8ff" d="M48.5,-1481.76C48.5,-1471.53 48.5,-1460.28 48.5,-1450.27"/>
<polygon fill="none" stroke="#63b8ff" points="45,-1481.96 48.5,-1491.96 52,-1481.96 45,-1481.96"/>
</a>
</g>
</g>
<!-- Node15 -->
<g id="Node000015" class="node">
<title>Node15</title>
<g id="a_Node000015"><a xlink:title=" ">
<polygon fill="white" stroke="transparent" points="30.5,-1635 14.5,-1635 14.5,-1589 30.5,-1589 30.5,-1635"/>
<text text-anchor="start" x="19.17" y="-1623" font-family="Helvetica,sans-Serif" font-size="10.00">K</text>
<text text-anchor="start" x="21.11" y="-1609" font-family="Helvetica,sans-Serif" font-size="10.00"> </text>
<text text-anchor="start" x="21.11" y="-1595" font-family="Helvetica,sans-Serif" font-size="10.00"> </text>
<polygon fill="#666666" stroke="#666666" points="14.5,-1619 14.5,-1619 30.5,-1619 30.5,-1619 14.5,-1619"/>
<polygon fill="#666666" stroke="#666666" points="14.5,-1605 14.5,-1605 30.5,-1605 30.5,-1605 14.5,-1605"/>
<polygon fill="none" stroke="#666666" points="14.5,-1589 14.5,-1635 30.5,-1635 30.5,-1589 14.5,-1589"/>
</a>
</g>
</g>
<!-- Node15&#45;&gt;Node14 -->
<g id="edge17_Node000014_Node000015" class="edge">
<title>Node15&#45;&gt;Node14</title>
<g id="a_edge17_Node000014_Node000015"><a xlink:title=" ">
<path fill="none" stroke="#63b8ff" d="M20.55,-1588.77C20.37,-1579.99 20.93,-1569.89 23.32,-1561 24.37,-1557.11 25.83,-1553.2 27.52,-1549.39"/>
<polygon fill="none" stroke="#63b8ff" points="27.66,-1549.1 26.82,-1541.94 33.11,-1538.41 33.95,-1545.57 27.66,-1549.1"/>
</a>
</g>
<text text-anchor="middle" x="38.09" y="-1563" font-family="Helvetica,sans-Serif" font-size="10.00" fill="grey"> +keys</text>
</g>
<!-- Node16 -->
<g id="Node000016" class="node">
<title>Node16</title>
<g id="a_Node000016"><a xlink:title=" ">
<polygon fill="white" stroke="transparent" points="82.5,-1635 66.5,-1635 66.5,-1589 82.5,-1589 82.5,-1635"/>
<text text-anchor="start" x="71.45" y="-1623" font-family="Helvetica,sans-Serif" font-size="10.00">T</text>
<text text-anchor="start" x="73.11" y="-1609" font-family="Helvetica,sans-Serif" font-size="10.00"> </text>
<text text-anchor="start" x="73.11" y="-1595" font-family="Helvetica,sans-Serif" font-size="10.00"> </text>
<polygon fill="#666666" stroke="#666666" points="66.5,-1619 66.5,-1619 82.5,-1619 82.5,-1619 66.5,-1619"/>
<polygon fill="#666666" stroke="#666666" points="66.5,-1605 66.5,-1605 82.5,-1605 82.5,-1605 66.5,-1605"/>
<polygon fill="none" stroke="#666666" points="66.5,-1589 66.5,-1635 82.5,-1635 82.5,-1589 66.5,-1589"/>
</a>
</g>
</g>
<!-- Node16&#45;&gt;Node14 -->
<g id="edge18_Node000014_Node000016" class="edge">
<title>Node16&#45;&gt;Node14</title>
<g id="a_edge18_Node000014_Node000016"><a xlink:title=" ">
<path fill="none" stroke="#63b8ff" d="M68.47,-1588.97C65.31,-1577.42 61.37,-1563.02 57.83,-1550.07"/>
<polygon fill="none" stroke="#63b8ff" points="57.76,-1549.82 52.31,-1545.09 54.59,-1538.24 60.03,-1542.97 57.76,-1549.82"/>
</a>
</g>
<text text-anchor="middle" x="88.1" y="-1563" font-family="Helvetica,sans-Serif" font-size="10.00" fill="grey"> +elements</text>
</g>
<!-- Node17 -->
<g id="Node000017" class="node">
<title>Node17</title>
<g id="a_Node000017"><a xlink:href="classepub_1_1spine.html" target="_top" xlink:title=" ">
<polygon fill="white" stroke="transparent" points="384.5,-623 318.5,-623 318.5,-465 384.5,-465 384.5,-623"/>
<text text-anchor="start" x="325.65" y="-611" font-family="Helvetica,sans-Serif" font-size="10.00">epub::spine</text>
<text text-anchor="start" x="350.11" y="-597" font-family="Helvetica,sans-Serif" font-size="10.00"> </text>
<text text-anchor="start" x="322.08" y="-583" font-family="Helvetica,sans-Serif" font-size="10.00">+</text>
<text text-anchor="start" x="331.5" y="-583" font-family="Helvetica,sans-Serif" font-size="10.00">spine()</text>
<text text-anchor="start" x="322.08" y="-569" font-family="Helvetica,sans-Serif" font-size="10.00">+</text>
<text text-anchor="start" x="331.5" y="-569" font-family="Helvetica,sans-Serif" font-size="10.00">spine()</text>
<text text-anchor="start" x="322.08" y="-555" font-family="Helvetica,sans-Serif" font-size="10.00">+</text>
<text text-anchor="start" x="331.5" y="-555" font-family="Helvetica,sans-Serif" font-size="10.00">spine()</text>
<text text-anchor="start" x="322.08" y="-541" font-family="Helvetica,sans-Serif" font-size="10.00">+</text>
<text text-anchor="start" x="331.5" y="-541" font-family="Helvetica,sans-Serif" font-size="10.00">~spine()</text>
<text text-anchor="start" x="322.08" y="-527" font-family="Helvetica,sans-Serif" font-size="10.00">+</text>
<text text-anchor="start" x="331.5" y="-527" font-family="Helvetica,sans-Serif" font-size="10.00">operator=()</text>
<text text-anchor="start" x="322.08" y="-513" font-family="Helvetica,sans-Serif" font-size="10.00">+</text>
<text text-anchor="start" x="331.5" y="-513" font-family="Helvetica,sans-Serif" font-size="10.00">operator=()</text>
<text text-anchor="start" x="322.08" y="-499" font-family="Helvetica,sans-Serif" font-size="10.00">+</text>
<text text-anchor="start" x="331.5" y="-499" font-family="Helvetica,sans-Serif" font-size="10.00">add()</text>
<text text-anchor="start" x="322.08" y="-485" font-family="Helvetica,sans-Serif" font-size="10.00">+</text>
<text text-anchor="start" x="331.5" y="-485" font-family="Helvetica,sans-Serif" font-size="10.00">begin()</text>
<text text-anchor="start" x="322.08" y="-471" font-family="Helvetica,sans-Serif" font-size="10.00">+</text>
<text text-anchor="start" x="331.5" y="-471" font-family="Helvetica,sans-Serif" font-size="10.00">end()</text>
<polygon fill="#666666" stroke="#666666" points="318.5,-607 318.5,-607 384.5,-607 384.5,-607 318.5,-607"/>
<polygon fill="#666666" stroke="#666666" points="318.5,-593 318.5,-593 384.5,-593 384.5,-593 318.5,-593"/>
<polygon fill="none" stroke="#666666" points="318.5,-465 318.5,-623 384.5,-623 384.5,-465 318.5,-465"/>
</a>
</g>
</g>
<!-- Node17&#45;&gt;Node3 -->
<g id="edge19_Node000003_Node000017" class="edge">
<title>Node17&#45;&gt;Node3</title>
<g id="a_edge19_Node000003_Node000017"><a xlink:title=" ">
<path fill="none" stroke="#63b8ff" d="M324.49,-465C320.38,-452.04 316.37,-438.7 312.92,-426 304.66,-395.53 297.07,-361.58 290.98,-332.08"/>
<polygon fill="none" stroke="#63b8ff" points="290.95,-331.92 285.83,-326.84 288.55,-320.17 293.67,-325.25 290.95,-331.92"/>
</a>
</g>
<text text-anchor="middle" x="331.29" y="-379" font-family="Helvetica,sans-Serif" font-size="10.00" fill="grey"> &#45;_spine</text>
</g>
<!-- Node18 -->
<g id="Node000018" class="node">
<title>Node18</title>
<g id="a_Node000018"><a xlink:title=" ">
<polygon fill="white" stroke="transparent" points="448.5,-860 336.5,-860 336.5,-804 448.5,-804 448.5,-860"/>
<text text-anchor="start" x="341.23" y="-848" font-family="Helvetica,sans-Serif" font-size="10.00">std::vector&lt; weak_item</text>
<text text-anchor="start" x="379.58" y="-838" font-family="Helvetica,sans-Serif" font-size="10.00">_ptr &gt;</text>
<text text-anchor="start" x="353.58" y="-824" font-family="Helvetica,sans-Serif" font-size="10.00">+</text>
<text text-anchor="start" x="376.5" y="-824" font-family="Helvetica,sans-Serif" font-size="10.00">elements</text>
<text text-anchor="start" x="391.11" y="-810" font-family="Helvetica,sans-Serif" font-size="10.00"> </text>
<polygon fill="#666666" stroke="#666666" points="336.5,-834 336.5,-834 448.5,-834 448.5,-834 336.5,-834"/>
<polygon fill="#666666" stroke="#666666" points="336.5,-820 336.5,-820 374.5,-820 374.5,-820 336.5,-820"/>
<polygon fill="#666666" stroke="#666666" points="374.5,-820 374.5,-820 448.5,-820 448.5,-820 374.5,-820"/>
<polygon fill="none" stroke="#666666" points="336.5,-804 336.5,-860 448.5,-860 448.5,-804 336.5,-804"/>
</a>
</g>
</g>
<!-- Node18&#45;&gt;Node17 -->
<g id="edge20_Node000017_Node000018" class="edge">
<title>Node18&#45;&gt;Node17</title>
<g id="a_edge20_Node000017_Node000018"><a xlink:title=" ">
<path fill="none" stroke="#63b8ff" d="M384.26,-803.74C375.18,-772.32 361.06,-718.97 354.94,-672 353.4,-660.19 352.36,-647.71 351.67,-635.37"/>
<polygon fill="none" stroke="#63b8ff" points="351.66,-635.09 347.38,-629.29 351.1,-623.11 355.37,-628.91 351.66,-635.09"/>
</a>
</g>
<text text-anchor="middle" x="373.28" y="-664" font-family="Helvetica,sans-Serif" font-size="10.00" fill="grey"> &#45;_items</text>
</g>
<!-- Node19 -->
<g id="Node000019" class="node">
<title>Node19</title>
<g id="a_Node000019"><a xlink:href="classepub_1_1navigation.html" target="_top" xlink:title=" ">
<polygon fill="white" stroke="transparent" points="441,-426 358,-426 358,-338 441,-338 441,-426"/>
<text text-anchor="start" x="363.3" y="-414" font-family="Helvetica,sans-Serif" font-size="10.00">epub::navigation</text>
<text text-anchor="start" x="398.61" y="-400" font-family="Helvetica,sans-Serif" font-size="10.00"> </text>
<text text-anchor="start" x="370.58" y="-386" font-family="Helvetica,sans-Serif" font-size="10.00">+</text>
<text text-anchor="start" x="388.5" y="-386" font-family="Helvetica,sans-Serif" font-size="10.00">add()</text>
<text text-anchor="start" x="370.58" y="-372" font-family="Helvetica,sans-Serif" font-size="10.00">+</text>
<text text-anchor="start" x="388.5" y="-372" font-family="Helvetica,sans-Serif" font-size="10.00">write()</text>
<text text-anchor="start" x="370.58" y="-358" font-family="Helvetica,sans-Serif" font-size="10.00">+</text>
<text text-anchor="start" x="388.5" y="-358" font-family="Helvetica,sans-Serif" font-size="10.00">begin()</text>
<text text-anchor="start" x="370.58" y="-344" font-family="Helvetica,sans-Serif" font-size="10.00">+</text>
<text text-anchor="start" x="388.5" y="-344" font-family="Helvetica,sans-Serif" font-size="10.00">end()</text>
<polygon fill="#666666" stroke="#666666" points="358.5,-410 358.5,-410 441.5,-410 441.5,-410 358.5,-410"/>
<polygon fill="#666666" stroke="#666666" points="358.5,-396 358.5,-396 441.5,-396 441.5,-396 358.5,-396"/>
<polygon fill="none" stroke="#666666" points="358,-338 358,-426 441,-426 441,-338 358,-338"/>
</a>
</g>
</g>
<!-- Node18&#45;&gt;Node19 -->
<g id="edge22_Node000019_Node000018" class="edge">
<title>Node18&#45;&gt;Node19</title>
<g id="a_edge22_Node000019_Node000018"><a xlink:title=" ">
<path fill="none" stroke="#63b8ff" d="M392.92,-803.98C394.04,-732.13 397.12,-535.18 398.64,-438.3"/>
<polygon fill="none" stroke="#63b8ff" points="398.64,-438.15 394.73,-432.09 398.83,-426.15 402.73,-432.22 398.64,-438.15"/>
</a>
</g>
<text text-anchor="middle" x="412.28" y="-664" font-family="Helvetica,sans-Serif" font-size="10.00" fill="grey"> &#45;_items</text>
</g>
<!-- Node19&#45;&gt;Node1 -->
<g id="edge21_Node000001_Node000019" class="edge">
<title>Node19&#45;&gt;Node1</title>
<g id="a_edge21_Node000001_Node000019"><a xlink:title=" ">
<path fill="none" stroke="#63b8ff" d="M388.86,-337.95C377.04,-293 356.06,-220.96 329.5,-162 327.02,-156.5 324.29,-150.92 321.4,-145.37"/>
<polygon fill="none" stroke="#63b8ff" points="321.38,-145.33 315.02,-141.94 315.7,-134.76 322.06,-138.15 321.38,-145.33"/>
</a>
</g>
<text text-anchor="middle" x="412.13" y="-252" font-family="Helvetica,sans-Serif" font-size="10.00" fill="grey"> &#45;_navigation</text>
</g>
</g>
</svg>
