<?xml version="1.0" encoding="UTF-8" standalone="no"?>
<!DOCTYPE svg PUBLIC "-//W3C//DTD SVG 1.1//EN"
 "http://www.w3.org/Graphics/SVG/1.1/DTD/svg11.dtd">
<!-- Generated by graphviz version 2.48.0 (20210717.1556)
 -->
<!-- Title: cli::option_processor Pages: 1 -->
<svg width="494pt" height="598pt"
 viewBox="0.00 0.00 493.50 598.00" xmlns="http://www.w3.org/2000/svg" xmlns:xlink="http://www.w3.org/1999/xlink">
<g id="graph0" class="graph" transform="scale(1 1) rotate(0) translate(4 594)">
<title>cli::option_processor</title>
<!-- Node1 -->
<g id="Node000001" class="node">
<title>Node1</title>
<g id="a_Node000001"><a xlink:title=" ">
<polygon fill="#999999" stroke="transparent" points="316,-172 215,-172 215,0 316,0 316,-172"/>
<text text-anchor="start" x="220.14" y="-160" font-family="Helvetica,sans-Serif" font-size="10.00">cli::option_processor</text>
<text text-anchor="start" x="264.61" y="-146" font-family="Helvetica,sans-Serif" font-size="10.00"> </text>
<text text-anchor="start" x="226.08" y="-132" font-family="Helvetica,sans-Serif" font-size="10.00">+</text>
<text text-anchor="start" x="242.5" y="-132" font-family="Helvetica,sans-Serif" font-size="10.00">synopsis()</text>
<text text-anchor="start" x="226.08" y="-118" font-family="Helvetica,sans-Serif" font-size="10.00">+</text>
<text text-anchor="start" x="242.5" y="-118" font-family="Helvetica,sans-Serif" font-size="10.00">add_flag()</text>
<text text-anchor="start" x="226.08" y="-104" font-family="Helvetica,sans-Serif" font-size="10.00">+</text>
<text text-anchor="start" x="242.5" y="-104" font-family="Helvetica,sans-Serif" font-size="10.00">add_flag()</text>
<text text-anchor="start" x="226.08" y="-90" font-family="Helvetica,sans-Serif" font-size="10.00">+</text>
<text text-anchor="start" x="242.5" y="-90" font-family="Helvetica,sans-Serif" font-size="10.00">add_flag()</text>
<text text-anchor="start" x="226.08" y="-76" font-family="Helvetica,sans-Serif" font-size="10.00">+</text>
<text text-anchor="start" x="242.5" y="-76" font-family="Helvetica,sans-Serif" font-size="10.00">add_option()</text>
<text text-anchor="start" x="226.08" y="-62" font-family="Helvetica,sans-Serif" font-size="10.00">+</text>
<text text-anchor="start" x="242.5" y="-62" font-family="Helvetica,sans-Serif" font-size="10.00">add_option()</text>
<text text-anchor="start" x="226.08" y="-48" font-family="Helvetica,sans-Serif" font-size="10.00">+</text>
<text text-anchor="start" x="242.5" y="-48" font-family="Helvetica,sans-Serif" font-size="10.00">add_option()</text>
<text text-anchor="start" x="226.08" y="-34" font-family="Helvetica,sans-Serif" font-size="10.00">+</text>
<text text-anchor="start" x="242.5" y="-34" font-family="Helvetica,sans-Serif" font-size="10.00">process()</text>
<text text-anchor="start" x="226.08" y="-20" font-family="Helvetica,sans-Serif" font-size="10.00">+</text>
<text text-anchor="start" x="242.5" y="-20" font-family="Helvetica,sans-Serif" font-size="10.00">usage()</text>
<text text-anchor="start" x="226.08" y="-6" font-family="Helvetica,sans-Serif" font-size="10.00">+</text>
<text text-anchor="start" x="242.5" y="-6" font-family="Helvetica,sans-Serif" font-size="10.00">wrap()</text>
<polygon fill="#666666" stroke="#666666" points="215.5,-156 215.5,-156 316.5,-156 316.5,-156 215.5,-156"/>
<polygon fill="#666666" stroke="#666666" points="215.5,-142 215.5,-142 316.5,-142 316.5,-142 215.5,-142"/>
<polygon fill="none" stroke="#666666" points="215,0 215,-172 316,-172 316,0 215,0"/>
</a>
</g>
</g>
<!-- Node2 -->
<g id="Node000002" class="node">
<title>Node2</title>
<g id="a_Node000002"><a xlink:title=" ">
<polygon fill="white" stroke="transparent" points="286,-381 233,-381 233,-335 286,-335 286,-381"/>
<text text-anchor="start" x="238.33" y="-369" font-family="Helvetica,sans-Serif" font-size="10.00">std::string</text>
<text text-anchor="start" x="258.61" y="-355" font-family="Helvetica,sans-Serif" font-size="10.00"> </text>
<text text-anchor="start" x="258.61" y="-341" font-family="Helvetica,sans-Serif" font-size="10.00"> </text>
<polygon fill="#666666" stroke="#666666" points="233.5,-365 233.5,-365 286.5,-365 286.5,-365 233.5,-365"/>
<polygon fill="#666666" stroke="#666666" points="233.5,-351 233.5,-351 286.5,-351 286.5,-351 233.5,-351"/>
<polygon fill="none" stroke="#666666" points="233,-335 233,-381 286,-381 286,-335 233,-335"/>
</a>
</g>
</g>
<!-- Node2&#45;&gt;Node1 -->
<g id="edge1_Node000001_Node000002" class="edge">
<title>Node2&#45;&gt;Node1</title>
<g id="a_edge1_Node000001_Node000002"><a xlink:title=" ">
<path fill="none" stroke="#63b8ff" d="M264.27,-334.67C265.59,-327.47 266.84,-319.43 267.5,-312 267.89,-307.57 267.52,-306.44 267.5,-302 267.32,-263.52 266.96,-221.16 266.6,-184.29"/>
<polygon fill="none" stroke="#63b8ff" points="266.59,-184.01 262.53,-178.05 266.47,-172.01 270.53,-177.97 266.59,-184.01"/>
</a>
</g>
<text text-anchor="middle" x="292.79" y="-248" font-family="Helvetica,sans-Serif" font-size="10.00" fill="grey"> &#45;_synopsis</text>
</g>
<!-- Node8 -->
<g id="Node000008" class="node">
<title>Node8</title>
<g id="a_Node000008"><a xlink:title=" ">
<polygon fill="white" stroke="transparent" points="252,-284 149,-284 149,-218 252,-218 252,-284"/>
<text text-anchor="start" x="154.45" y="-272" font-family="Helvetica,sans-Serif" font-size="10.00">std::map&lt; std::string,</text>
<text text-anchor="start" x="154.45" y="-262" font-family="Helvetica,sans-Serif" font-size="10.00"> std::shared_ptr&lt; cli</text>
<text text-anchor="start" x="175.98" y="-252" font-family="Helvetica,sans-Serif" font-size="10.00">::option &gt; &gt;</text>
<text text-anchor="start" x="199.61" y="-238" font-family="Helvetica,sans-Serif" font-size="10.00"> </text>
<text text-anchor="start" x="199.61" y="-224" font-family="Helvetica,sans-Serif" font-size="10.00"> </text>
<polygon fill="#666666" stroke="#666666" points="149.5,-248 149.5,-248 252.5,-248 252.5,-248 149.5,-248"/>
<polygon fill="#666666" stroke="#666666" points="149.5,-234 149.5,-234 252.5,-234 252.5,-234 149.5,-234"/>
<polygon fill="none" stroke="#666666" points="149,-218 149,-284 252,-284 252,-218 149,-218"/>
</a>
</g>
</g>
<!-- Node2&#45;&gt;Node8 -->
<g id="edge8_Node000008_Node000002" class="edge">
<title>Node2&#45;&gt;Node8</title>
<g id="a_edge8_Node000008_Node000002"><a xlink:title=" ">
<path fill="none" stroke="#63b8ff" d="M247.13,-334.99C240.63,-323.41 232.42,-308.81 224.71,-295.09"/>
<polygon fill="none" stroke="#63b8ff" points="224.56,-294.81 218.13,-291.54 218.68,-284.35 225.1,-287.62 224.56,-294.81"/>
</a>
</g>
<text text-anchor="middle" x="249.09" y="-304" font-family="Helvetica,sans-Serif" font-size="10.00" fill="grey"> +keys</text>
</g>
<!-- Node3 -->
<g id="Node000003" class="node">
<title>Node3</title>
<g id="a_Node000003"><a xlink:title=" ">
<polygon fill="white" stroke="transparent" points="303.5,-539 215.5,-539 215.5,-483 303.5,-483 303.5,-539"/>
<text text-anchor="start" x="220.45" y="-527" font-family="Helvetica,sans-Serif" font-size="10.00">std::basic_string&lt;</text>
<text text-anchor="start" x="242.96" y="-517" font-family="Helvetica,sans-Serif" font-size="10.00"> Char &gt;</text>
<text text-anchor="start" x="258.11" y="-503" font-family="Helvetica,sans-Serif" font-size="10.00"> </text>
<text text-anchor="start" x="258.11" y="-489" font-family="Helvetica,sans-Serif" font-size="10.00"> </text>
<polygon fill="#666666" stroke="#666666" points="215.5,-513 215.5,-513 303.5,-513 303.5,-513 215.5,-513"/>
<polygon fill="#666666" stroke="#666666" points="215.5,-499 215.5,-499 303.5,-499 303.5,-499 215.5,-499"/>
<polygon fill="none" stroke="#666666" points="215.5,-483 215.5,-539 303.5,-539 303.5,-483 215.5,-483"/>
</a>
</g>
</g>
<!-- Node3&#45;&gt;Node2 -->
<g id="edge2_Node000002_Node000003" class="edge">
<title>Node3&#45;&gt;Node2</title>
<g id="a_edge2_Node000002_Node000003"><a xlink:title=" ">
<path fill="none" stroke="#63b8ff" d="M259.5,-472.58C259.5,-443.88 259.5,-405.23 259.5,-381.23"/>
<polygon fill="none" stroke="#63b8ff" points="256,-472.66 259.5,-482.66 263,-472.66 256,-472.66"/>
</a>
</g>
</g>
<!-- Node4 -->
<g id="Node000004" class="node">
<title>Node4</title>
<g id="a_Node000004"><a xlink:title=" ">
<polygon fill="white" stroke="transparent" points="485.5,-279 357.5,-279 357.5,-223 485.5,-223 485.5,-279"/>
<text text-anchor="start" x="362.44" y="-267" font-family="Helvetica,sans-Serif" font-size="10.00">std::vector&lt; std::pair</text>
<text text-anchor="start" x="362.44" y="-257" font-family="Helvetica,sans-Serif" font-size="10.00">&lt; std::string, std::string &gt; &gt;</text>
<text text-anchor="start" x="378.58" y="-243" font-family="Helvetica,sans-Serif" font-size="10.00">+</text>
<text text-anchor="start" x="405.5" y="-243" font-family="Helvetica,sans-Serif" font-size="10.00">elements</text>
<text text-anchor="start" x="420.11" y="-229" font-family="Helvetica,sans-Serif" font-size="10.00"> </text>
<polygon fill="#666666" stroke="#666666" points="357.5,-253 357.5,-253 485.5,-253 485.5,-253 357.5,-253"/>
<polygon fill="#666666" stroke="#666666" points="357.5,-239 357.5,-239 403.5,-239 403.5,-239 357.5,-239"/>
<polygon fill="#666666" stroke="#666666" points="403.5,-239 403.5,-239 485.5,-239 485.5,-239 403.5,-239"/>
<polygon fill="none" stroke="#666666" points="357.5,-223 357.5,-279 485.5,-279 485.5,-223 357.5,-223"/>
</a>
</g>
</g>
<!-- Node4&#45;&gt;Node1 -->
<g id="edge3_Node000001_Node000004" class="edge">
<title>Node4&#45;&gt;Node1</title>
<g id="a_edge3_Node000001_Node000004"><a xlink:title=" ">
<path fill="none" stroke="#63b8ff" d="M395.39,-222.72C376.07,-202.53 348.98,-174.22 324.53,-148.68"/>
<polygon fill="none" stroke="#63b8ff" points="324.31,-148.45 317.27,-146.88 316.01,-139.78 323.05,-141.35 324.31,-148.45"/>
</a>
</g>
<text text-anchor="middle" x="389.96" y="-192" font-family="Helvetica,sans-Serif" font-size="10.00" fill="grey"> &#45;_usage</text>
</g>
<!-- Node5 -->
<g id="Node000005" class="node">
<title>Node5</title>
<g id="a_Node000005"><a xlink:title=" ">
<polygon fill="white" stroke="transparent" points="131,-279 0,-279 0,-223 131,-223 131,-279"/>
<text text-anchor="start" x="5.27" y="-267" font-family="Helvetica,sans-Serif" font-size="10.00">std::map&lt; char, std</text>
<text text-anchor="start" x="5.27" y="-257" font-family="Helvetica,sans-Serif" font-size="10.00">::shared_ptr&lt; cli::option &gt; &gt;</text>
<text text-anchor="start" x="27.58" y="-243" font-family="Helvetica,sans-Serif" font-size="10.00">+</text>
<text text-anchor="start" x="60.5" y="-243" font-family="Helvetica,sans-Serif" font-size="10.00">keys</text>
<text text-anchor="start" x="64.61" y="-229" font-family="Helvetica,sans-Serif" font-size="10.00"> </text>
<polygon fill="#666666" stroke="#666666" points="0.5,-253 0.5,-253 131.5,-253 131.5,-253 0.5,-253"/>
<polygon fill="#666666" stroke="#666666" points="0.5,-239 0.5,-239 58.5,-239 58.5,-239 0.5,-239"/>
<polygon fill="#666666" stroke="#666666" points="58.5,-239 58.5,-239 131.5,-239 131.5,-239 58.5,-239"/>
<polygon fill="none" stroke="#666666" points="0,-223 0,-279 131,-279 131,-223 0,-223"/>
</a>
</g>
</g>
<!-- Node5&#45;&gt;Node1 -->
<g id="edge4_Node000001_Node000005" class="edge">
<title>Node5&#45;&gt;Node1</title>
<g id="a_edge4_Node000001_Node000005"><a xlink:title=" ">
<path fill="none" stroke="#63b8ff" d="M98.98,-222.72C127.84,-199.19 170.25,-164.63 205.04,-136.28"/>
<polygon fill="none" stroke="#63b8ff" points="205.33,-136.04 207.45,-129.15 214.63,-128.46 212.51,-135.35 205.33,-136.04"/>
</a>
</g>
<text text-anchor="middle" x="153.45" y="-192" font-family="Helvetica,sans-Serif" font-size="10.00" fill="grey"> &#45;_short</text>
</g>
<!-- Node6 -->
<g id="Node000006" class="node">
<title>Node6</title>
<g id="a_Node000006"><a xlink:title=" ">
<polygon fill="white" stroke="transparent" points="186.5,-386 92.5,-386 92.5,-330 186.5,-330 186.5,-386"/>
<text text-anchor="start" x="97.12" y="-374" font-family="Helvetica,sans-Serif" font-size="10.00">std::shared_ptr&lt; cli</text>
<text text-anchor="start" x="118.79" y="-364" font-family="Helvetica,sans-Serif" font-size="10.00">::option &gt;</text>
<text text-anchor="start" x="138.11" y="-350" font-family="Helvetica,sans-Serif" font-size="10.00"> </text>
<text text-anchor="start" x="102.08" y="-336" font-family="Helvetica,sans-Serif" font-size="10.00">+</text>
<text text-anchor="start" x="117.5" y="-336" font-family="Helvetica,sans-Serif" font-size="10.00">operator&#45;&gt;()</text>
<polygon fill="#666666" stroke="#666666" points="92.5,-360 92.5,-360 186.5,-360 186.5,-360 92.5,-360"/>
<polygon fill="#666666" stroke="#666666" points="92.5,-346 92.5,-346 186.5,-346 186.5,-346 92.5,-346"/>
<polygon fill="none" stroke="#666666" points="92.5,-330 92.5,-386 186.5,-386 186.5,-330 92.5,-330"/>
</a>
</g>
</g>
<!-- Node6&#45;&gt;Node5 -->
<g id="edge5_Node000005_Node000006" class="edge">
<title>Node6&#45;&gt;Node5</title>
<g id="a_edge5_Node000005_Node000006"><a xlink:title=" ">
<path fill="none" stroke="#63b8ff" d="M120.44,-329.96C111.71,-317.56 101.21,-302.67 91.74,-289.24"/>
<polygon fill="none" stroke="#63b8ff" points="91.66,-289.12 84.94,-286.52 84.75,-279.31 91.48,-281.91 91.66,-289.12"/>
</a>
</g>
<text text-anchor="middle" x="132.1" y="-304" font-family="Helvetica,sans-Serif" font-size="10.00" fill="grey"> +elements</text>
</g>
<!-- Node6&#45;&gt;Node8 -->
<g id="edge9_Node000008_Node000006" class="edge">
<title>Node6&#45;&gt;Node8</title>
<g id="a_edge9_Node000008_Node000006"><a xlink:title=" ">
<path fill="none" stroke="#63b8ff" d="M155.21,-329.96C161.43,-319.26 168.72,-306.7 175.62,-294.82"/>
<polygon fill="none" stroke="#63b8ff" points="175.78,-294.56 175.33,-287.36 181.81,-284.18 182.25,-291.38 175.78,-294.56"/>
</a>
</g>
<text text-anchor="middle" x="195.1" y="-304" font-family="Helvetica,sans-Serif" font-size="10.00" fill="grey"> +elements</text>
</g>
<!-- Node7 -->
<g id="Node000007" class="node">
<title>Node7</title>
<g id="a_Node000007"><a xlink:href="classcli_1_1option.html" target="_top" xlink:title=" ">
<polygon fill="white" stroke="transparent" points="174.5,-590 104.5,-590 104.5,-432 174.5,-432 174.5,-590"/>
<text text-anchor="start" x="118.38" y="-578" font-family="Helvetica,sans-Serif" font-size="10.00">cli::option</text>
<text text-anchor="start" x="138.11" y="-564" font-family="Helvetica,sans-Serif" font-size="10.00"> </text>
<text text-anchor="start" x="108.08" y="-550" font-family="Helvetica,sans-Serif" font-size="10.00">+</text>
<text text-anchor="start" x="117.5" y="-550" font-family="Helvetica,sans-Serif" font-size="10.00">option()</text>
<text text-anchor="start" x="108.08" y="-536" font-family="Helvetica,sans-Serif" font-size="10.00">+</text>
<text text-anchor="start" x="117.5" y="-536" font-family="Helvetica,sans-Serif" font-size="10.00">option()</text>
<text text-anchor="start" x="108.08" y="-522" font-family="Helvetica,sans-Serif" font-size="10.00">+</text>
<text text-anchor="start" x="117.5" y="-522" font-family="Helvetica,sans-Serif" font-size="10.00">option()</text>
<text text-anchor="start" x="108.08" y="-508" font-family="Helvetica,sans-Serif" font-size="10.00">+</text>
<text text-anchor="start" x="117.5" y="-508" font-family="Helvetica,sans-Serif" font-size="10.00">operator=()</text>
<text text-anchor="start" x="108.08" y="-494" font-family="Helvetica,sans-Serif" font-size="10.00">+</text>
<text text-anchor="start" x="117.5" y="-494" font-family="Helvetica,sans-Serif" font-size="10.00">operator=()</text>
<text text-anchor="start" x="108.08" y="-480" font-family="Helvetica,sans-Serif" font-size="10.00">+</text>
<text text-anchor="start" x="117.5" y="-480" font-family="Helvetica,sans-Serif" font-size="10.00">~option()</text>
<text text-anchor="start" x="108.08" y="-466" font-family="Helvetica,sans-Serif" font-size="10.00">+</text>
<text text-anchor="start" x="117.5" y="-466" font-family="Helvetica,sans-Serif" font-size="10.00">needs_arg()</text>
<text text-anchor="start" x="108.08" y="-452" font-family="Helvetica,sans-Serif" font-size="10.00">+</text>
<text text-anchor="start" x="117.5" y="-452" font-family="Helvetica,sans-Serif" font-size="10.00">set()</text>
<text text-anchor="start" x="108.08" y="-438" font-family="Helvetica,sans-Serif" font-size="10.00">+</text>
<text text-anchor="start" x="117.5" y="-438" font-family="Helvetica,sans-Serif" font-size="10.00">set_arg()</text>
<polygon fill="#666666" stroke="#666666" points="104.5,-574 104.5,-574 174.5,-574 174.5,-574 104.5,-574"/>
<polygon fill="#666666" stroke="#666666" points="104.5,-560 104.5,-560 174.5,-560 174.5,-560 104.5,-560"/>
<polygon fill="none" stroke="#666666" points="104.5,-432 104.5,-590 174.5,-590 174.5,-432 104.5,-432"/>
</a>
</g>
</g>
<!-- Node7&#45;&gt;Node6 -->
<g id="edge6_Node000006_Node000007" class="edge">
<title>Node7&#45;&gt;Node6</title>
<g id="a_edge6_Node000006_Node000007"><a xlink:title=" ">
<path fill="none" stroke="#63b8ff" d="M139.5,-431.85C139.5,-420.31 139.5,-408.86 139.5,-398.56"/>
<polygon fill="none" stroke="#63b8ff" points="139.5,-398.23 135.5,-392.23 139.5,-386.23 143.5,-392.23 139.5,-398.23"/>
</a>
</g>
<text text-anchor="middle" x="149.64" y="-406" font-family="Helvetica,sans-Serif" font-size="10.00" fill="grey"> +ptr</text>
</g>
<!-- Node8&#45;&gt;Node1 -->
<g id="edge7_Node000001_Node000008" class="edge">
<title>Node8&#45;&gt;Node1</title>
<g id="a_edge7_Node000001_Node000008"><a xlink:title=" ">
<path fill="none" stroke="#63b8ff" d="M213.34,-217.8C217.39,-207.64 222.1,-195.84 226.99,-183.58"/>
<polygon fill="none" stroke="#63b8ff" points="227.07,-183.36 225.58,-176.3 231.52,-172.21 233.01,-179.27 227.07,-183.36"/>
</a>
</g>
<text text-anchor="middle" x="238.79" y="-192" font-family="Helvetica,sans-Serif" font-size="10.00" fill="grey"> &#45;_long</text>
</g>
</g>
</svg>
