<?xml version="1.0" encoding="UTF-8" standalone="no"?>
<!DOCTYPE svg PUBLIC "-//W3C//DTD SVG 1.1//EN"
 "http://www.w3.org/Graphics/SVG/1.1/DTD/svg11.dtd">
<!-- Generated by graphviz version 2.48.0 (20210717.1556)
 -->
<!-- Title: IIBuffer Pages: 1 -->
<svg width="131pt" height="300pt"
 viewBox="0.00 0.00 131.00 300.00" xmlns="http://www.w3.org/2000/svg" xmlns:xlink="http://www.w3.org/1999/xlink">
<g id="graph0" class="graph" transform="scale(1 1) rotate(0) translate(4 296)">
<title>IIBuffer</title>
<!-- Node1 -->
<g id="Node000001" class="node">
<title>Node1</title>
<g id="a_Node000001"><a xlink:title=" ">
<polygon fill="#999999" stroke="transparent" points="102,-200 21,-200 21,0 102,0 102,-200"/>
<text text-anchor="start" x="45.97" y="-188" font-family="Helvetica,sans-Serif" font-size="10.00">IIBuffer</text>
<text text-anchor="start" x="26.33" y="-174" font-family="Helvetica,sans-Serif" font-size="10.00">&#45;</text>
<text text-anchor="start" x="34.5" y="-174" font-family="Helvetica,sans-Serif" font-size="10.00">m_size</text>
<text text-anchor="start" x="25.08" y="-160" font-family="Helvetica,sans-Serif" font-size="10.00">+</text>
<text text-anchor="start" x="34.5" y="-160" font-family="Helvetica,sans-Serif" font-size="10.00">IIBuffer()</text>
<text text-anchor="start" x="25.08" y="-146" font-family="Helvetica,sans-Serif" font-size="10.00">+</text>
<text text-anchor="start" x="34.5" y="-146" font-family="Helvetica,sans-Serif" font-size="10.00">IIBuffer()</text>
<text text-anchor="start" x="25.08" y="-132" font-family="Helvetica,sans-Serif" font-size="10.00">+</text>
<text text-anchor="start" x="34.5" y="-132" font-family="Helvetica,sans-Serif" font-size="10.00">alloc()</text>
<text text-anchor="start" x="25.08" y="-118" font-family="Helvetica,sans-Serif" font-size="10.00">+</text>
<text text-anchor="start" x="34.5" y="-118" font-family="Helvetica,sans-Serif" font-size="10.00">data()</text>
<text text-anchor="start" x="25.08" y="-104" font-family="Helvetica,sans-Serif" font-size="10.00">+</text>
<text text-anchor="start" x="34.5" y="-104" font-family="Helvetica,sans-Serif" font-size="10.00">data()</text>
<text text-anchor="start" x="25.08" y="-90" font-family="Helvetica,sans-Serif" font-size="10.00">+</text>
<text text-anchor="start" x="34.5" y="-90" font-family="Helvetica,sans-Serif" font-size="10.00">size()</text>
<text text-anchor="start" x="25.08" y="-76" font-family="Helvetica,sans-Serif" font-size="10.00">+</text>
<text text-anchor="start" x="34.5" y="-76" font-family="Helvetica,sans-Serif" font-size="10.00">operator[]()</text>
<text text-anchor="start" x="25.08" y="-62" font-family="Helvetica,sans-Serif" font-size="10.00">+</text>
<text text-anchor="start" x="34.5" y="-62" font-family="Helvetica,sans-Serif" font-size="10.00">operator[]()</text>
<text text-anchor="start" x="25.08" y="-48" font-family="Helvetica,sans-Serif" font-size="10.00">+</text>
<text text-anchor="start" x="34.5" y="-48" font-family="Helvetica,sans-Serif" font-size="10.00">readU8()</text>
<text text-anchor="start" x="25.08" y="-34" font-family="Helvetica,sans-Serif" font-size="10.00">+</text>
<text text-anchor="start" x="34.5" y="-34" font-family="Helvetica,sans-Serif" font-size="10.00">readS8()</text>
<text text-anchor="start" x="34.26" y="-20" font-family="Helvetica,sans-Serif" font-size="10.00">and 17 more...</text>
<text text-anchor="start" x="26.33" y="-6" font-family="Helvetica,sans-Serif" font-size="10.00">&#45;</text>
<text text-anchor="start" x="34.5" y="-6" font-family="Helvetica,sans-Serif" font-size="10.00">swapE()</text>
<polygon fill="#666666" stroke="#666666" points="21.5,-184 21.5,-184 102.5,-184 102.5,-184 21.5,-184"/>
<polygon fill="#666666" stroke="#666666" points="21.5,-170 21.5,-170 32.5,-170 32.5,-170 21.5,-170"/>
<polygon fill="#666666" stroke="#666666" points="32.5,-170 32.5,-170 102.5,-170 102.5,-170 32.5,-170"/>
<polygon fill="none" stroke="#666666" points="21,0 21,-200 102,-200 102,0 21,0"/>
</a>
</g>
</g>
<!-- Node2 -->
<g id="Node000002" class="node">
<title>Node2</title>
<g id="a_Node000002"><a xlink:title=" ">
<polygon fill="white" stroke="transparent" points="123,-292 0,-292 0,-246 123,-246 123,-292"/>
<text text-anchor="start" x="5.02" y="-280" font-family="Helvetica,sans-Serif" font-size="10.00">std::shared_ptr&lt; uint8_t &gt;</text>
<text text-anchor="start" x="17.08" y="-266" font-family="Helvetica,sans-Serif" font-size="10.00">+</text>
<text text-anchor="start" x="39.5" y="-266" font-family="Helvetica,sans-Serif" font-size="10.00">ptr</text>
<text text-anchor="start" x="17.08" y="-252" font-family="Helvetica,sans-Serif" font-size="10.00">+</text>
<text text-anchor="start" x="39.5" y="-252" font-family="Helvetica,sans-Serif" font-size="10.00">operator&#45;&gt;()</text>
<polygon fill="#666666" stroke="#666666" points="0.5,-276 0.5,-276 123.5,-276 123.5,-276 0.5,-276"/>
<polygon fill="#666666" stroke="#666666" points="0.5,-262 0.5,-262 37.5,-262 37.5,-262 0.5,-262"/>
<polygon fill="#666666" stroke="#666666" points="37.5,-262 37.5,-262 123.5,-262 123.5,-262 37.5,-262"/>
<polygon fill="none" stroke="#666666" points="0,-246 0,-292 123,-292 123,-246 0,-246"/>
</a>
</g>
</g>
<!-- Node2&#45;&gt;Node1 -->
<g id="edge1_Node000001_Node000002" class="edge">
<title>Node2&#45;&gt;Node1</title>
<g id="a_edge1_Node000001_Node000002"><a xlink:title=" ">
<path fill="none" stroke="#63b8ff" d="M61.5,-245.82C61.5,-236.54 61.5,-225.01 61.5,-212.54"/>
<polygon fill="none" stroke="#63b8ff" points="61.5,-212.33 57.5,-206.33 61.5,-200.33 65.5,-206.33 61.5,-212.33"/>
</a>
</g>
<text text-anchor="middle" x="81.23" y="-220" font-family="Helvetica,sans-Serif" font-size="10.00" fill="grey"> &#45;m_data</text>
</g>
</g>
</svg>
