<?xml version="1.0" encoding="UTF-8" standalone="no"?>
<!DOCTYPE svg PUBLIC "-//W3C//DTD SVG 1.1//EN"
 "http://www.w3.org/Graphics/SVG/1.1/DTD/svg11.dtd">
<!-- Generated by graphviz version 2.48.0 (20210717.1556)
 -->
<!-- Title: page Pages: 1 -->
<svg width="87pt" height="262pt"
 viewBox="0.00 0.00 87.00 262.00" xmlns="http://www.w3.org/2000/svg" xmlns:xlink="http://www.w3.org/1999/xlink">
<g id="graph0" class="graph" transform="scale(1 1) rotate(0) translate(4 258)">
<title>page</title>
<!-- Node1 -->
<g id="Node000001" class="node">
<title>Node1</title>
<g id="a_Node000001"><a xlink:title=" ">
<polygon fill="#999999" stroke="transparent" points="78.5,-172 0.5,-172 0.5,0 78.5,0 78.5,-172"/>
<text text-anchor="start" x="28.38" y="-160" font-family="Helvetica,sans-Serif" font-size="10.00">page</text>
<text text-anchor="start" x="5.33" y="-146" font-family="Helvetica,sans-Serif" font-size="10.00">&#45;</text>
<text text-anchor="start" x="13.5" y="-146" font-family="Helvetica,sans-Serif" font-size="10.00">_content_size</text>
<text text-anchor="start" x="5.33" y="-132" font-family="Helvetica,sans-Serif" font-size="10.00">&#45;</text>
<text text-anchor="start" x="13.5" y="-132" font-family="Helvetica,sans-Serif" font-size="10.00">_path</text>
<text text-anchor="start" x="4.08" y="-118" font-family="Helvetica,sans-Serif" font-size="10.00">+</text>
<text text-anchor="start" x="13.5" y="-118" font-family="Helvetica,sans-Serif" font-size="10.00">page()</text>
<text text-anchor="start" x="4.08" y="-104" font-family="Helvetica,sans-Serif" font-size="10.00">+</text>
<text text-anchor="start" x="13.5" y="-104" font-family="Helvetica,sans-Serif" font-size="10.00">width()</text>
<text text-anchor="start" x="4.08" y="-90" font-family="Helvetica,sans-Serif" font-size="10.00">+</text>
<text text-anchor="start" x="13.5" y="-90" font-family="Helvetica,sans-Serif" font-size="10.00">height()</text>
<text text-anchor="start" x="4.08" y="-76" font-family="Helvetica,sans-Serif" font-size="10.00">+</text>
<text text-anchor="start" x="13.5" y="-76" font-family="Helvetica,sans-Serif" font-size="10.00">path()</text>
<text text-anchor="start" x="4.08" y="-62" font-family="Helvetica,sans-Serif" font-size="10.00">+</text>
<text text-anchor="start" x="13.5" y="-62" font-family="Helvetica,sans-Serif" font-size="10.00">metadata()</text>
<text text-anchor="start" x="4.08" y="-48" font-family="Helvetica,sans-Serif" font-size="10.00">+</text>
<text text-anchor="start" x="13.5" y="-48" font-family="Helvetica,sans-Serif" font-size="10.00">push_back()</text>
<text text-anchor="start" x="4.08" y="-34" font-family="Helvetica,sans-Serif" font-size="10.00">+</text>
<text text-anchor="start" x="13.5" y="-34" font-family="Helvetica,sans-Serif" font-size="10.00">begin()</text>
<text text-anchor="start" x="4.08" y="-20" font-family="Helvetica,sans-Serif" font-size="10.00">+</text>
<text text-anchor="start" x="13.5" y="-20" font-family="Helvetica,sans-Serif" font-size="10.00">end()</text>
<text text-anchor="start" x="4.08" y="-6" font-family="Helvetica,sans-Serif" font-size="10.00">+</text>
<text text-anchor="start" x="13.5" y="-6" font-family="Helvetica,sans-Serif" font-size="10.00">layout()</text>
<polygon fill="#666666" stroke="#666666" points="0.5,-156 0.5,-156 78.5,-156 78.5,-156 0.5,-156"/>
<polygon fill="#666666" stroke="#666666" points="0.5,-128 0.5,-128 11.5,-128 11.5,-128 0.5,-128"/>
<polygon fill="#666666" stroke="#666666" points="11.5,-128 11.5,-128 78.5,-128 78.5,-128 11.5,-128"/>
<polygon fill="none" stroke="#666666" points="0.5,0 0.5,-172 78.5,-172 78.5,0 0.5,0"/>
</a>
</g>
</g>
<!-- Node2 -->
<g id="Node000002" class="node">
<title>Node2</title>
<g id="a_Node000002"><a xlink:title=" ">
<polygon fill="white" stroke="transparent" points="79,-254 0,-254 0,-208 79,-208 79,-254"/>
<text text-anchor="start" x="5.44" y="-242" font-family="Helvetica,sans-Serif" font-size="10.00">std::vector&lt; T &gt;</text>
<text text-anchor="start" x="9.58" y="-228" font-family="Helvetica,sans-Serif" font-size="10.00">+</text>
<text text-anchor="start" x="24.5" y="-228" font-family="Helvetica,sans-Serif" font-size="10.00">elements</text>
<text text-anchor="start" x="38.61" y="-214" font-family="Helvetica,sans-Serif" font-size="10.00"> </text>
<polygon fill="#666666" stroke="#666666" points="0.5,-238 0.5,-238 79.5,-238 79.5,-238 0.5,-238"/>
<polygon fill="#666666" stroke="#666666" points="0.5,-224 0.5,-224 22.5,-224 22.5,-224 0.5,-224"/>
<polygon fill="#666666" stroke="#666666" points="22.5,-224 22.5,-224 79.5,-224 79.5,-224 22.5,-224"/>
<polygon fill="none" stroke="#666666" points="0,-208 0,-254 79,-254 79,-208 0,-208"/>
</a>
</g>
</g>
<!-- Node2&#45;&gt;Node1 -->
<g id="edge1_Node000001_Node000002" class="edge">
<title>Node2&#45;&gt;Node1</title>
<g id="a_edge1_Node000001_Node000002"><a xlink:title=" ">
<path fill="none" stroke="#8b1a1a" d="M39.5,-197.88C39.5,-190.02 39.5,-181.24 39.5,-172.15"/>
<polygon fill="none" stroke="#8b1a1a" points="36,-197.97 39.5,-207.97 43,-197.97 36,-197.97"/>
</a>
</g>
</g>
</g>
</svg>
