<?xml version="1.0" encoding="UTF-8" standalone="no"?>
<!DOCTYPE svg PUBLIC "-//W3C//DTD SVG 1.1//EN"
 "http://www.w3.org/Graphics/SVG/1.1/DTD/svg11.dtd">
<!-- Generated by graphviz version 2.48.0 (20210717.1556)
 -->
<!-- Title: page Pages: 1 -->
<svg width="186pt" height="378pt"
 viewBox="0.00 0.00 186.32 378.00" xmlns="http://www.w3.org/2000/svg" xmlns:xlink="http://www.w3.org/1999/xlink">
<g id="graph0" class="graph" transform="scale(1 1) rotate(0) translate(4 374)">
<title>page</title>
<!-- Node1 -->
<g id="Node000001" class="node">
<title>Node1</title>
<g id="a_Node000001"><a xlink:title=" ">
<polygon fill="#999999" stroke="transparent" points="118.5,-158 46.5,-158 46.5,0 118.5,0 118.5,-158"/>
<text text-anchor="start" x="71.38" y="-146" font-family="Helvetica,sans-Serif" font-size="10.00">page</text>
<text text-anchor="start" x="51.33" y="-132" font-family="Helvetica,sans-Serif" font-size="10.00">&#45;</text>
<text text-anchor="start" x="59.5" y="-132" font-family="Helvetica,sans-Serif" font-size="10.00">_path</text>
<text text-anchor="start" x="50.08" y="-118" font-family="Helvetica,sans-Serif" font-size="10.00">+</text>
<text text-anchor="start" x="59.5" y="-118" font-family="Helvetica,sans-Serif" font-size="10.00">page()</text>
<text text-anchor="start" x="50.08" y="-104" font-family="Helvetica,sans-Serif" font-size="10.00">+</text>
<text text-anchor="start" x="59.5" y="-104" font-family="Helvetica,sans-Serif" font-size="10.00">width()</text>
<text text-anchor="start" x="50.08" y="-90" font-family="Helvetica,sans-Serif" font-size="10.00">+</text>
<text text-anchor="start" x="59.5" y="-90" font-family="Helvetica,sans-Serif" font-size="10.00">height()</text>
<text text-anchor="start" x="50.08" y="-76" font-family="Helvetica,sans-Serif" font-size="10.00">+</text>
<text text-anchor="start" x="59.5" y="-76" font-family="Helvetica,sans-Serif" font-size="10.00">path()</text>
<text text-anchor="start" x="50.08" y="-62" font-family="Helvetica,sans-Serif" font-size="10.00">+</text>
<text text-anchor="start" x="59.5" y="-62" font-family="Helvetica,sans-Serif" font-size="10.00">metadata()</text>
<text text-anchor="start" x="50.08" y="-48" font-family="Helvetica,sans-Serif" font-size="10.00">+</text>
<text text-anchor="start" x="59.5" y="-48" font-family="Helvetica,sans-Serif" font-size="10.00">push_back()</text>
<text text-anchor="start" x="50.08" y="-34" font-family="Helvetica,sans-Serif" font-size="10.00">+</text>
<text text-anchor="start" x="59.5" y="-34" font-family="Helvetica,sans-Serif" font-size="10.00">begin()</text>
<text text-anchor="start" x="50.08" y="-20" font-family="Helvetica,sans-Serif" font-size="10.00">+</text>
<text text-anchor="start" x="59.5" y="-20" font-family="Helvetica,sans-Serif" font-size="10.00">end()</text>
<text text-anchor="start" x="50.08" y="-6" font-family="Helvetica,sans-Serif" font-size="10.00">+</text>
<text text-anchor="start" x="59.5" y="-6" font-family="Helvetica,sans-Serif" font-size="10.00">layout()</text>
<polygon fill="#666666" stroke="#666666" points="46.5,-142 46.5,-142 118.5,-142 118.5,-142 46.5,-142"/>
<polygon fill="#666666" stroke="#666666" points="46.5,-128 46.5,-128 57.5,-128 57.5,-128 46.5,-128"/>
<polygon fill="#666666" stroke="#666666" points="57.5,-128 57.5,-128 118.5,-128 118.5,-128 57.5,-128"/>
<polygon fill="none" stroke="#666666" points="46.5,0 46.5,-158 118.5,-158 118.5,0 46.5,0"/>
</a>
</g>
</g>
<!-- Node2 -->
<g id="Node000002" class="node">
<title>Node2</title>
<g id="a_Node000002"><a xlink:title=" ">
<polygon fill="white" stroke="transparent" points="79,-264 0,-264 0,-218 79,-218 79,-264"/>
<text text-anchor="start" x="5.44" y="-252" font-family="Helvetica,sans-Serif" font-size="10.00">std::vector&lt; T &gt;</text>
<text text-anchor="start" x="38.61" y="-238" font-family="Helvetica,sans-Serif" font-size="10.00"> </text>
<text text-anchor="start" x="38.61" y="-224" font-family="Helvetica,sans-Serif" font-size="10.00"> </text>
<polygon fill="#666666" stroke="#666666" points="0.5,-248 0.5,-248 79.5,-248 79.5,-248 0.5,-248"/>
<polygon fill="#666666" stroke="#666666" points="0.5,-234 0.5,-234 79.5,-234 79.5,-234 0.5,-234"/>
<polygon fill="none" stroke="#666666" points="0,-218 0,-264 79,-264 79,-218 0,-218"/>
</a>
</g>
</g>
<!-- Node2&#45;&gt;Node1 -->
<g id="edge1_Node000001_Node000002" class="edge">
<title>Node2&#45;&gt;Node1</title>
<g id="a_edge1_Node000001_Node000002"><a xlink:title=" ">
<path fill="none" stroke="#8b1a1a" d="M48.14,-207.87C52.02,-193.42 56.78,-175.69 61.52,-158.07"/>
<polygon fill="none" stroke="#8b1a1a" points="44.69,-207.19 45.48,-217.75 51.45,-209 44.69,-207.19"/>
</a>
</g>
</g>
<!-- Node3 -->
<g id="Node000003" class="node">
<title>Node3</title>
<g id="a_Node000003"><a xlink:title=" ">
<polygon fill="white" stroke="transparent" points="47.5,-370 31.5,-370 31.5,-324 47.5,-324 47.5,-370"/>
<text text-anchor="start" x="36.45" y="-358" font-family="Helvetica,sans-Serif" font-size="10.00">T</text>
<text text-anchor="start" x="38.11" y="-344" font-family="Helvetica,sans-Serif" font-size="10.00"> </text>
<text text-anchor="start" x="38.11" y="-330" font-family="Helvetica,sans-Serif" font-size="10.00"> </text>
<polygon fill="#666666" stroke="#666666" points="31.5,-354 31.5,-354 47.5,-354 47.5,-354 31.5,-354"/>
<polygon fill="#666666" stroke="#666666" points="31.5,-340 31.5,-340 47.5,-340 47.5,-340 31.5,-340"/>
<polygon fill="none" stroke="#666666" points="31.5,-324 31.5,-370 47.5,-370 47.5,-324 31.5,-324"/>
</a>
</g>
</g>
<!-- Node3&#45;&gt;Node2 -->
<g id="edge2_Node000002_Node000003" class="edge">
<title>Node3&#45;&gt;Node2</title>
<g id="a_edge2_Node000002_Node000003"><a xlink:title=" ">
<path fill="none" stroke="#63b8ff" d="M39.5,-323.94C39.5,-310.16 39.5,-292.11 39.5,-276.46"/>
<polygon fill="none" stroke="#63b8ff" points="39.5,-276.02 35.5,-270.02 39.5,-264.02 43.5,-270.02 39.5,-276.02"/>
</a>
</g>
<text text-anchor="middle" x="64.1" y="-298" font-family="Helvetica,sans-Serif" font-size="10.00" fill="grey"> +elements</text>
</g>
<!-- Node4 -->
<g id="Node000004" class="node">
<title>Node4</title>
<g id="a_Node000004"><a xlink:href="structgeom_1_1size.html" target="_top" xlink:title=" ">
<polygon fill="white" stroke="transparent" points="155.5,-278 97.5,-278 97.5,-204 155.5,-204 155.5,-278"/>
<text text-anchor="start" x="102.32" y="-266" font-family="Helvetica,sans-Serif" font-size="10.00">geom::size</text>
<text text-anchor="start" x="105.08" y="-252" font-family="Helvetica,sans-Serif" font-size="10.00">+</text>
<text text-anchor="start" x="118.5" y="-252" font-family="Helvetica,sans-Serif" font-size="10.00">w</text>
<text text-anchor="start" x="105.08" y="-238" font-family="Helvetica,sans-Serif" font-size="10.00">+</text>
<text text-anchor="start" x="118.5" y="-238" font-family="Helvetica,sans-Serif" font-size="10.00">h</text>
<text text-anchor="start" x="105.08" y="-224" font-family="Helvetica,sans-Serif" font-size="10.00">+</text>
<text text-anchor="start" x="118.5" y="-224" font-family="Helvetica,sans-Serif" font-size="10.00">size()</text>
<text text-anchor="start" x="105.08" y="-210" font-family="Helvetica,sans-Serif" font-size="10.00">+</text>
<text text-anchor="start" x="118.5" y="-210" font-family="Helvetica,sans-Serif" font-size="10.00">size()</text>
<polygon fill="#666666" stroke="#666666" points="97.5,-262 97.5,-262 155.5,-262 155.5,-262 97.5,-262"/>
<polygon fill="#666666" stroke="#666666" points="97.5,-234 97.5,-234 116.5,-234 116.5,-234 97.5,-234"/>
<polygon fill="#666666" stroke="#666666" points="116.5,-234 116.5,-234 155.5,-234 155.5,-234 116.5,-234"/>
<polygon fill="none" stroke="#666666" points="97.5,-204 97.5,-278 155.5,-278 155.5,-204 97.5,-204"/>
</a>
</g>
</g>
<!-- Node4&#45;&gt;Node1 -->
<g id="edge3_Node000001_Node000004" class="edge">
<title>Node4&#45;&gt;Node1</title>
<g id="a_edge3_Node000001_Node000004"><a xlink:title=" ">
<path fill="none" stroke="#63b8ff" d="M116.52,-203.69C113.72,-193.53 110.55,-182.01 107.3,-170.18"/>
<polygon fill="none" stroke="#63b8ff" points="107.21,-169.87 101.77,-165.14 104.03,-158.3 109.48,-163.02 107.21,-169.87"/>
</a>
</g>
<text text-anchor="middle" x="144.41" y="-178" font-family="Helvetica,sans-Serif" font-size="10.00" fill="grey"> &#45;_content_size</text>
</g>
</g>
</svg>
