<?xml version="1.0" encoding="UTF-8" standalone="no"?>
<!DOCTYPE svg PUBLIC "-//W3C//DTD SVG 1.1//EN"
 "http://www.w3.org/Graphics/SVG/1.1/DTD/svg11.dtd">
<!-- Generated by graphviz version 2.48.0 (20210717.1556)
 -->
<!-- Title: book Pages: 1 -->
<svg width="97pt" height="243pt"
 viewBox="0.00 0.00 96.69 243.00" xmlns="http://www.w3.org/2000/svg" xmlns:xlink="http://www.w3.org/1999/xlink">
<g id="graph0" class="graph" transform="scale(1 1) rotate(0) translate(4 239)">
<title>book</title>
<!-- Node1 -->
<g id="Node000001" class="node">
<title>Node1</title>
<g id="a_Node000001"><a xlink:title=" ">
<polygon fill="#999999" stroke="transparent" points="79,-60 0,-60 0,0 79,0 79,-60"/>
<text text-anchor="start" x="29.16" y="-48" font-family="Helvetica,sans-Serif" font-size="10.00">book</text>
<text text-anchor="start" x="38.61" y="-34" font-family="Helvetica,sans-Serif" font-size="10.00"> </text>
<text text-anchor="start" x="4.08" y="-20" font-family="Helvetica,sans-Serif" font-size="10.00">+</text>
<text text-anchor="start" x="13.5" y="-20" font-family="Helvetica,sans-Serif" font-size="10.00">last_chapter()</text>
<text text-anchor="start" x="4.08" y="-6" font-family="Helvetica,sans-Serif" font-size="10.00">+</text>
<text text-anchor="start" x="13.5" y="-6" font-family="Helvetica,sans-Serif" font-size="10.00">add_chapter()</text>
<polygon fill="#666666" stroke="#666666" points="0.5,-44 0.5,-44 79.5,-44 79.5,-44 0.5,-44"/>
<polygon fill="#666666" stroke="#666666" points="0.5,-30 0.5,-30 79.5,-30 79.5,-30 0.5,-30"/>
<polygon fill="none" stroke="#666666" points="0,0 0,-60 79,-60 79,0 0,0"/>
</a>
</g>
</g>
<!-- Node2 -->
<g id="Node000002" class="node">
<title>Node2</title>
<g id="a_Node000002"><a xlink:title=" ">
<polygon fill="white" stroke="transparent" points="79,-143 0,-143 0,-97 79,-97 79,-143"/>
<text text-anchor="start" x="5.44" y="-131" font-family="Helvetica,sans-Serif" font-size="10.00">std::vector&lt; T &gt;</text>
<text text-anchor="start" x="38.61" y="-117" font-family="Helvetica,sans-Serif" font-size="10.00"> </text>
<text text-anchor="start" x="38.61" y="-103" font-family="Helvetica,sans-Serif" font-size="10.00"> </text>
<polygon fill="#666666" stroke="#666666" points="0.5,-127 0.5,-127 79.5,-127 79.5,-127 0.5,-127"/>
<polygon fill="#666666" stroke="#666666" points="0.5,-113 0.5,-113 79.5,-113 79.5,-113 0.5,-113"/>
<polygon fill="none" stroke="#666666" points="0,-97 0,-143 79,-143 79,-97 0,-97"/>
</a>
</g>
</g>
<!-- Node2&#45;&gt;Node1 -->
<g id="edge1_Node000001_Node000002" class="edge">
<title>Node2&#45;&gt;Node1</title>
<g id="a_edge1_Node000001_Node000002"><a xlink:title=" ">
<path fill="none" stroke="#8b1a1a" d="M39.5,-86.65C39.5,-77.98 39.5,-68.67 39.5,-60.19"/>
<polygon fill="none" stroke="#8b1a1a" points="36,-86.79 39.5,-96.79 43,-86.79 36,-86.79"/>
</a>
</g>
</g>
<!-- Node3 -->
<g id="Node000003" class="node">
<title>Node3</title>
<g id="a_Node000003"><a xlink:title=" ">
<polygon fill="white" stroke="transparent" points="47.5,-235 31.5,-235 31.5,-189 47.5,-189 47.5,-235"/>
<text text-anchor="start" x="36.45" y="-223" font-family="Helvetica,sans-Serif" font-size="10.00">T</text>
<text text-anchor="start" x="38.11" y="-209" font-family="Helvetica,sans-Serif" font-size="10.00"> </text>
<text text-anchor="start" x="38.11" y="-195" font-family="Helvetica,sans-Serif" font-size="10.00"> </text>
<polygon fill="#666666" stroke="#666666" points="31.5,-219 31.5,-219 47.5,-219 47.5,-219 31.5,-219"/>
<polygon fill="#666666" stroke="#666666" points="31.5,-205 31.5,-205 47.5,-205 47.5,-205 31.5,-205"/>
<polygon fill="none" stroke="#666666" points="31.5,-189 31.5,-235 47.5,-235 47.5,-189 31.5,-189"/>
</a>
</g>
</g>
<!-- Node3&#45;&gt;Node2 -->
<g id="edge2_Node000002_Node000003" class="edge">
<title>Node3&#45;&gt;Node2</title>
<g id="a_edge2_Node000002_Node000003"><a xlink:title=" ">
<path fill="none" stroke="#63b8ff" d="M39.5,-188.75C39.5,-178.69 39.5,-166.57 39.5,-155.38"/>
<polygon fill="none" stroke="#63b8ff" points="39.5,-155.3 35.5,-149.3 39.5,-143.3 43.5,-149.3 39.5,-155.3"/>
</a>
</g>
<text text-anchor="middle" x="64.1" y="-163" font-family="Helvetica,sans-Serif" font-size="10.00" fill="grey"> +elements</text>
</g>
</g>
</svg>
