<?xml version="1.0" encoding="UTF-8" standalone="no"?>
<!DOCTYPE svg PUBLIC "-//W3C//DTD SVG 1.1//EN"
 "http://www.w3.org/Graphics/SVG/1.1/DTD/svg11.dtd">
<!-- Generated by graphviz version 2.48.0 (20210717.1556)
 -->
<!-- Title: epub::container::write Pages: 1 -->
<svg width="979pt" height="1076pt"
 viewBox="0.00 0.00 979.40 1076.33" xmlns="http://www.w3.org/2000/svg" xmlns:xlink="http://www.w3.org/1999/xlink">
<g id="graph0" class="graph" transform="scale(1 1) rotate(0) translate(4 1072.33)">
<title>epub::container::write</title>
<!-- Node1 -->
<g id="Node000001" class="node">
<title>Node1</title>
<g id="a_Node000001"><a xlink:title="Write the EPUB container to the given path.">
<polygon fill="#999999" stroke="#666666" points="111.42,-298 0.19,-298 0.19,-280 111.42,-280 111.42,-298"/>
<text text-anchor="middle" x="55.81" y="-286" font-family="Helvetica,sans-Serif" font-size="10.00">epub::container::write</text>
</a>
</g>
</g>
<!-- Node2 -->
<g id="Node000002" class="node">
<title>Node2</title>
<g id="a_Node000002"><a xlink:href="namespaceepub_1_1xml.html#a8206a67c545594231d31ad85befa4cc4" target="_top" xlink:title=" ">
<polygon fill="white" stroke="#666666" points="280.2,-316 147.75,-316 147.75,-298 280.2,-298 280.2,-316"/>
<text text-anchor="middle" x="213.97" y="-304" font-family="Helvetica,sans-Serif" font-size="10.00">epub::xml::write_container</text>
</a>
</g>
</g>
<!-- Node1&#45;&gt;Node2 -->
<g id="edge1_Node000001_Node000002" class="edge">
<title>Node1&#45;&gt;Node2</title>
<g id="a_edge1_Node000001_Node000002"><a xlink:title=" ">
<path fill="none" stroke="#63b8ff" d="M111.42,-295.3C119.92,-296.28 128.83,-297.3 137.69,-298.32"/>
<polygon fill="#63b8ff" stroke="#63b8ff" points="137.32,-301.8 147.65,-299.47 138.12,-294.85 137.32,-301.8"/>
</a>
</g>
</g>
<!-- Node36 -->
<g id="Node000036" class="node">
<title>Node36</title>
<g id="a_Node000036"><a xlink:href="namespaceepub.html#adef1c0268759b0932462e1c858beb3a4" target="_top" xlink:title=" ">
<polygon fill="white" stroke="#666666" points="255.73,-280 172.21,-280 172.21,-262 255.73,-262 255.73,-280"/>
<text text-anchor="middle" x="213.97" y="-268" font-family="Helvetica,sans-Serif" font-size="10.00">epub::write_file</text>
</a>
</g>
</g>
<!-- Node1&#45;&gt;Node36 -->
<g id="edge61_Node000001_Node000036" class="edge">
<title>Node1&#45;&gt;Node36</title>
<g id="a_edge61_Node000001_Node000036"><a xlink:title=" ">
<path fill="none" stroke="#63b8ff" d="M111.42,-282.7C127.73,-280.82 145.54,-278.77 161.63,-276.92"/>
<polygon fill="#63b8ff" stroke="#63b8ff" points="162.39,-280.35 171.92,-275.73 161.59,-273.4 162.39,-280.35"/>
</a>
</g>
</g>
<!-- Node3 -->
<g id="Node000003" class="node">
<title>Node3</title>
<g id="a_Node000003"><a xlink:href="classepub_1_1container.html#a26ba1accaabd175c32cd8f90a0ca6b7c" target="_top" xlink:title="The navigation document.">
<polygon fill="white" stroke="#666666" points="453.01,-795 316.83,-795 316.83,-777 453.01,-777 453.01,-795"/>
<text text-anchor="middle" x="384.92" y="-783" font-family="Helvetica,sans-Serif" font-size="10.00">epub::container::navigation</text>
</a>
</g>
</g>
<!-- Node2&#45;&gt;Node3 -->
<g id="edge2_Node000002_Node000003" class="edge">
<title>Node2&#45;&gt;Node3</title>
<g id="a_edge2_Node000002_Node000003"><a xlink:title=" ">
<path fill="none" stroke="#63b8ff" d="M218.2,-316.14C238.5,-373.71 348.73,-686.23 377.21,-766.96"/>
<polygon fill="#63b8ff" stroke="#63b8ff" points="374.04,-768.5 380.66,-776.76 380.64,-766.17 374.04,-768.5"/>
</a>
</g>
</g>
<!-- Node5 -->
<g id="Node000005" class="node">
<title>Node5</title>
<g id="a_Node000005"><a xlink:href="namespaceepub_1_1xml.html#aa7f3a8aea8e7def07ed8fe9719aaae2b" target="_top" xlink:title=" ">
<polygon fill="white" stroke="#666666" points="971.49,-960 834.11,-960 834.11,-942 971.49,-942 971.49,-960"/>
<text text-anchor="middle" x="902.8" y="-948" font-family="Helvetica,sans-Serif" font-size="10.00">epub::xml::new_child_node</text>
</a>
</g>
</g>
<!-- Node2&#45;&gt;Node5 -->
<g id="edge4_Node000002_Node000005" class="edge">
<title>Node2&#45;&gt;Node5</title>
<g id="a_edge4_Node000002_Node000005"><a xlink:title=" ">
<path fill="none" stroke="#63b8ff" d="M215.42,-316.25C218.19,-367.33 235.56,-619.23 316.33,-804 369.17,-924.85 372.15,-984.81 489.51,-1045 626.8,-1115.41 816.54,-1006.86 880.09,-965.73"/>
<polygon fill="#63b8ff" stroke="#63b8ff" points="882.09,-968.6 888.52,-960.18 878.25,-962.75 882.09,-968.6"/>
</a>
</g>
</g>
<!-- Node6 -->
<g id="Node000006" class="node">
<title>Node6</title>
<g id="a_Node000006"><a xlink:href="namespaceepub_1_1xml.html#aade3eb68257c90e5e2bff8826e31b2ee" target="_top" xlink:title=" ">
<polygon fill="white" stroke="#666666" points="608.59,-444 503.71,-444 503.71,-426 608.59,-426 608.59,-444"/>
<text text-anchor="middle" x="556.15" y="-432" font-family="Helvetica,sans-Serif" font-size="10.00">epub::xml::new_doc</text>
</a>
</g>
</g>
<!-- Node2&#45;&gt;Node6 -->
<g id="edge5_Node000002_Node000006" class="edge">
<title>Node2&#45;&gt;Node6</title>
<g id="a_edge5_Node000002_Node000006"><a xlink:title=" ">
<path fill="none" stroke="#63b8ff" d="M225.11,-316.1C242.5,-331.23 279.69,-361.52 316.33,-378 373.62,-403.76 444.08,-418.75 493.57,-426.84"/>
<polygon fill="#63b8ff" stroke="#63b8ff" points="493.06,-430.3 503.48,-428.41 494.16,-423.39 493.06,-430.3"/>
</a>
</g>
</g>
<!-- Node7 -->
<g id="Node000007" class="node">
<title>Node7</title>
<g id="a_Node000007"><a xlink:href="namespaceepub_1_1xml.html#ab1c1a0b06668a784e601e7c3db4bf717" target="_top" xlink:title=" ">
<polygon fill="white" stroke="#666666" points="611.71,-408 500.59,-408 500.59,-390 611.71,-390 611.71,-408"/>
<text text-anchor="middle" x="556.15" y="-396" font-family="Helvetica,sans-Serif" font-size="10.00">epub::xml::new_node</text>
</a>
</g>
</g>
<!-- Node2&#45;&gt;Node7 -->
<g id="edge6_Node000002_Node000007" class="edge">
<title>Node2&#45;&gt;Node7</title>
<g id="a_edge6_Node000002_Node000007"><a xlink:title=" ">
<path fill="none" stroke="#63b8ff" d="M234.42,-316.05C254.56,-325.14 287.11,-339.04 316.33,-348 374.23,-365.74 441.87,-379.57 490.35,-388.32"/>
<polygon fill="#63b8ff" stroke="#63b8ff" points="489.94,-391.8 500.4,-390.11 491.17,-384.91 489.94,-391.8"/>
</a>
</g>
</g>
<!-- Node8 -->
<g id="Node000008" class="node">
<title>Node8</title>
<g id="a_Node000008"><a xlink:href="namespaceepub_1_1xml.html#a9534079e531f40c861c5f5fb60523655" target="_top" xlink:title=" ">
<polygon fill="white" stroke="#666666" points="778.38,-324 678.62,-324 678.62,-306 778.38,-306 778.38,-324"/>
<text text-anchor="middle" x="728.5" y="-312" font-family="Helvetica,sans-Serif" font-size="10.00">epub::xml::new_ns</text>
</a>
</g>
</g>
<!-- Node2&#45;&gt;Node8 -->
<g id="edge7_Node000002_Node000008" class="edge">
<title>Node2&#45;&gt;Node8</title>
<g id="a_edge7_Node000002_Node000008"><a xlink:title=" ">
<path fill="none" stroke="#63b8ff" d="M267.22,-297.97C272.03,-295.62 276.52,-292.68 280.33,-289 318.85,-251.79 275.56,-208.72 316.33,-174 368.36,-129.7 562.96,-116 622.79,-149 680.65,-180.91 710.94,-259.74 722.22,-296.09"/>
<polygon fill="#63b8ff" stroke="#63b8ff" points="718.93,-297.31 725.12,-305.91 725.65,-295.32 718.93,-297.31"/>
</a>
</g>
</g>
<!-- Node9 -->
<g id="Node000009" class="node">
<title>Node9</title>
<g id="a_Node000009"><a xlink:href="classepub_1_1container.html#a744c29b0aa74a35021828ba4d7bdb3ce" target="_top" xlink:title="The package document.">
<polygon fill="white" stroke="#666666" points="449.23,-64 320.62,-64 320.62,-46 449.23,-46 449.23,-64"/>
<text text-anchor="middle" x="384.92" y="-52" font-family="Helvetica,sans-Serif" font-size="10.00">epub::container::package</text>
</a>
</g>
</g>
<!-- Node2&#45;&gt;Node9 -->
<g id="edge8_Node000002_Node000009" class="edge">
<title>Node2&#45;&gt;Node9</title>
<g id="a_edge8_Node000002_Node000009"><a xlink:title=" ">
<path fill="none" stroke="#63b8ff" d="M268.68,-297.98C273.03,-295.61 277.02,-292.67 280.33,-289 344.17,-218.46 254.62,-150.4 316.33,-78 319.36,-74.46 322.95,-71.46 326.87,-68.92"/>
<polygon fill="#63b8ff" stroke="#63b8ff" points="328.76,-71.88 335.92,-64.07 325.45,-65.71 328.76,-71.88"/>
</a>
</g>
</g>
<!-- Node10 -->
<g id="Node000010" class="node">
<title>Node10</title>
<g id="a_Node000010"><a xlink:href="namespaceepub_1_1xml.html#ae2081bbf8a83743ac0993dd0631a826f" target="_top" xlink:title=" ">
<polygon fill="white" stroke="#666666" points="608.53,-176 503.77,-176 503.77,-158 608.53,-158 608.53,-176"/>
<text text-anchor="middle" x="556.15" y="-164" font-family="Helvetica,sans-Serif" font-size="10.00">epub::xml::save_file</text>
</a>
</g>
</g>
<!-- Node2&#45;&gt;Node10 -->
<g id="edge9_Node000002_Node000010" class="edge">
<title>Node2&#45;&gt;Node10</title>
<g id="a_edge9_Node000002_Node000010"><a xlink:title=" ">
<path fill="none" stroke="#63b8ff" d="M263.97,-297.87C269.8,-295.55 275.42,-292.65 280.33,-289 304.4,-271.15 292.24,-249.81 316.33,-232 368.49,-193.44 442.16,-177.76 493.85,-171.38"/>
<polygon fill="#63b8ff" stroke="#63b8ff" points="494.35,-174.84 503.88,-170.22 493.54,-167.89 494.35,-174.84"/>
</a>
</g>
</g>
<!-- Node11 -->
<g id="Node000011" class="node">
<title>Node11</title>
<g id="a_Node000011"><a xlink:href="namespaceepub_1_1xml.html#a2e514ea095933964359b229c04117a9b" target="_top" xlink:title=" ">
<polygon fill="white" stroke="#666666" points="962.75,-696 842.85,-696 842.85,-678 962.75,-678 962.75,-696"/>
<text text-anchor="middle" x="902.8" y="-684" font-family="Helvetica,sans-Serif" font-size="10.00">epub::xml::set_attribute</text>
</a>
</g>
</g>
<!-- Node2&#45;&gt;Node11 -->
<g id="edge10_Node000002_Node000011" class="edge">
<title>Node2&#45;&gt;Node11</title>
<g id="a_edge10_Node000002_Node000011"><a xlink:title=" ">
<path fill="none" stroke="#63b8ff" d="M268.17,-297.96C272.68,-295.6 276.84,-292.66 280.33,-289 330.64,-236.25 259.81,-175.02 316.33,-129 421.95,-42.99 490.53,-93.42 622.79,-126 708.27,-147.06 744.75,-148.06 798.2,-218 801.76,-222.65 878.85,-580.31 897.68,-667.83"/>
<polygon fill="#63b8ff" stroke="#63b8ff" points="894.28,-668.69 899.81,-677.73 901.13,-667.22 894.28,-668.69"/>
</a>
</g>
</g>
<!-- Node12 -->
<g id="Node000012" class="node">
<title>Node12</title>
<g id="a_Node000012"><a xlink:href="namespaceepub_1_1xml.html#a165119af9dcfdf603fda317338dcd8eb" target="_top" xlink:title=" ">
<polygon fill="white" stroke="#666666" points="603.53,-212 508.78,-212 508.78,-194 603.53,-194 603.53,-212"/>
<text text-anchor="middle" x="556.15" y="-200" font-family="Helvetica,sans-Serif" font-size="10.00">epub::xml::set_ns</text>
</a>
</g>
</g>
<!-- Node2&#45;&gt;Node12 -->
<g id="edge11_Node000002_Node000012" class="edge">
<title>Node2&#45;&gt;Node12</title>
<g id="a_edge11_Node000002_Node000012"><a xlink:title=" ">
<path fill="none" stroke="#63b8ff" d="M248.62,-297.97C258.83,-295.17 270.06,-292.02 280.33,-289 365.49,-263.96 464.73,-232.28 517.54,-215.22"/>
<polygon fill="#63b8ff" stroke="#63b8ff" points="518.72,-218.52 527.16,-212.11 516.57,-211.86 518.72,-218.52"/>
</a>
</g>
</g>
<!-- Node13 -->
<g id="Node000013" class="node">
<title>Node13</title>
<g id="a_Node000013"><a xlink:href="namespaceepub_1_1xml.html#a8265beb78a012601af7b4efad94a5d24" target="_top" xlink:title=" ">
<polygon fill="white" stroke="#666666" points="606.69,-372 505.61,-372 505.61,-344 606.69,-344 606.69,-372"/>
<text text-anchor="start" x="513.63" y="-360" font-family="Helvetica,sans-Serif" font-size="10.00">epub::xml::set_root</text>
<text text-anchor="middle" x="556.15" y="-350" font-family="Helvetica,sans-Serif" font-size="10.00">_element</text>
</a>
</g>
</g>
<!-- Node2&#45;&gt;Node13 -->
<g id="edge12_Node000002_Node000013" class="edge">
<title>Node2&#45;&gt;Node13</title>
<g id="a_edge12_Node000002_Node000013"><a xlink:title=" ">
<path fill="none" stroke="#63b8ff" d="M263.63,-316.03C280.32,-319.03 299.12,-322.28 316.33,-325 377.13,-334.59 446.87,-344.05 495.23,-350.37"/>
<polygon fill="#63b8ff" stroke="#63b8ff" points="494.84,-353.85 505.21,-351.67 495.75,-346.91 494.84,-353.85"/>
</a>
</g>
</g>
<!-- Node14 -->
<g id="Node000014" class="node">
<title>Node14</title>
<g id="a_Node000014"><a xlink:href="classepub_1_1container.html#a33630ae320e3a35034096883bcdaf1d7" target="_top" xlink:title="The stylesheet (if any) to apply to the Table of Contents.">
<polygon fill="white" stroke="#666666" points="436.76,-28 333.09,-28 333.09,0 436.76,0 436.76,-28"/>
<text text-anchor="start" x="341" y="-16" font-family="Helvetica,sans-Serif" font-size="10.00">epub::container::toc</text>
<text text-anchor="middle" x="384.92" y="-6" font-family="Helvetica,sans-Serif" font-size="10.00">_stylesheet</text>
</a>
</g>
</g>
<!-- Node2&#45;&gt;Node14 -->
<g id="edge13_Node000002_Node000014" class="edge">
<title>Node2&#45;&gt;Node14</title>
<g id="a_edge13_Node000002_Node000014"><a xlink:title=" ">
<path fill="none" stroke="#63b8ff" d="M269.09,-297.9C273.3,-295.54 277.14,-292.62 280.33,-289 355.1,-204.09 244.11,-124.09 316.33,-37 318.66,-34.2 321.34,-31.73 324.27,-29.57"/>
<polygon fill="#63b8ff" stroke="#63b8ff" points="326.34,-32.41 333.07,-24.23 322.7,-26.42 326.34,-32.41"/>
</a>
</g>
</g>
<!-- Node15 -->
<g id="Node000015" class="node">
<title>Node15</title>
<g id="a_Node000015"><a xlink:href="namespaceepub_1_1xml.html#a81f3d8befa9ef4815a18df0e9b7b0193" target="_top" xlink:title=" ">
<polygon fill="white" stroke="#666666" points="453.6,-316 316.25,-316 316.25,-298 453.6,-298 453.6,-316"/>
<text text-anchor="middle" x="384.92" y="-304" font-family="Helvetica,sans-Serif" font-size="10.00">epub::xml::write_navigation</text>
</a>
</g>
</g>
<!-- Node2&#45;&gt;Node15 -->
<g id="edge14_Node000002_Node000015" class="edge">
<title>Node2&#45;&gt;Node15</title>
<g id="a_edge14_Node000002_Node000015"><a xlink:title=" ">
<path fill="none" stroke="#63b8ff" d="M280.29,-307C288.77,-307 297.52,-307 306.17,-307"/>
<polygon fill="#63b8ff" stroke="#63b8ff" points="306.26,-310.5 316.26,-307 306.26,-303.5 306.26,-310.5"/>
</a>
</g>
</g>
<!-- Node16 -->
<g id="Node000016" class="node">
<title>Node16</title>
<g id="a_Node000016"><a xlink:href="namespaceepub_1_1xml.html#a65bb7385eab67a1688e5ab6f6ba2ccd0" target="_top" xlink:title=" ">
<polygon fill="white" stroke="#666666" points="449.82,-518 320.03,-518 320.03,-500 449.82,-500 449.82,-518"/>
<text text-anchor="middle" x="384.92" y="-506" font-family="Helvetica,sans-Serif" font-size="10.00">epub::xml::write_package</text>
</a>
</g>
</g>
<!-- Node2&#45;&gt;Node16 -->
<g id="edge23_Node000002_Node000016" class="edge">
<title>Node2&#45;&gt;Node16</title>
<g id="a_edge23_Node000002_Node000016"><a xlink:title=" ">
<path fill="none" stroke="#63b8ff" d="M220.49,-316.16C234.79,-339.55 274.82,-402.83 316.33,-449 331.1,-465.43 350.07,-481.93 364.15,-493.46"/>
<polygon fill="#63b8ff" stroke="#63b8ff" points="362.22,-496.4 372.2,-499.95 366.61,-490.95 362.22,-496.4"/>
</a>
</g>
</g>
<!-- Node4 -->
<g id="Node000004" class="node">
<title>Node4</title>
<g id="a_Node000004"><a xlink:href="classepub_1_1package.html#a9161b883051ba7032e7d5e903672e859" target="_top" xlink:title=" ">
<polygon fill="white" stroke="#666666" points="618.61,-1036 493.69,-1036 493.69,-1018 618.61,-1018 618.61,-1036"/>
<text text-anchor="middle" x="556.15" y="-1024" font-family="Helvetica,sans-Serif" font-size="10.00">epub::package::manifest</text>
</a>
</g>
</g>
<!-- Node3&#45;&gt;Node4 -->
<g id="edge3_Node000003_Node000004" class="edge">
<title>Node3&#45;&gt;Node4</title>
<g id="a_edge3_Node000003_Node000004"><a xlink:title=" ">
<path fill="none" stroke="#63b8ff" d="M387.69,-795.4C394.47,-828.84 421.88,-943.22 489.51,-1004 493.88,-1007.93 498.97,-1011.2 504.33,-1013.91"/>
<polygon fill="#63b8ff" stroke="#63b8ff" points="502.99,-1017.14 513.55,-1017.98 505.82,-1010.74 502.99,-1017.14"/>
</a>
</g>
</g>
<!-- Node15&#45;&gt;Node5 -->
<g id="edge15_Node000015_Node000005" class="edge">
<title>Node15&#45;&gt;Node5</title>
<g id="a_edge15_Node000015_Node000005"><a xlink:title=" ">
<path fill="none" stroke="#63b8ff" d="M433.61,-298C530.63,-280.89 746.26,-249.43 798.2,-297 831.77,-327.73 826.14,-660.21 834.2,-705 849.73,-791.25 881.63,-891.13 895.33,-932.04"/>
<polygon fill="#63b8ff" stroke="#63b8ff" points="892.09,-933.4 898.61,-941.76 898.72,-931.16 892.09,-933.4"/>
</a>
</g>
</g>
<!-- Node15&#45;&gt;Node6 -->
<g id="edge16_Node000015_Node000006" class="edge">
<title>Node15&#45;&gt;Node6</title>
<g id="a_edge16_Node000015_Node000006"><a xlink:title=" ">
<path fill="none" stroke="#63b8ff" d="M391.96,-316.29C406.24,-337.51 444.33,-389.82 489.51,-417 492.74,-418.94 496.18,-420.68 499.73,-422.23"/>
<polygon fill="#63b8ff" stroke="#63b8ff" points="498.73,-425.6 509.32,-425.93 501.25,-419.07 498.73,-425.6"/>
</a>
</g>
</g>
<!-- Node15&#45;&gt;Node7 -->
<g id="edge17_Node000015_Node000007" class="edge">
<title>Node15&#45;&gt;Node7</title>
<g id="a_edge17_Node000015_Node000007"><a xlink:title=" ">
<path fill="none" stroke="#63b8ff" d="M396.02,-316.11C413.71,-331.61 451.99,-363.15 489.51,-381 494.06,-383.17 498.92,-385.11 503.85,-386.84"/>
<polygon fill="#63b8ff" stroke="#63b8ff" points="502.79,-390.18 513.38,-389.93 504.94,-383.52 502.79,-390.18"/>
</a>
</g>
</g>
<!-- Node15&#45;&gt;Node8 -->
<g id="edge18_Node000015_Node000008" class="edge">
<title>Node15&#45;&gt;Node8</title>
<g id="a_edge18_Node000015_Node000008"><a xlink:title=" ">
<path fill="none" stroke="#63b8ff" d="M453.82,-308.59C516.62,-310.06 609.03,-312.23 668.74,-313.62"/>
<polygon fill="#63b8ff" stroke="#63b8ff" points="668.69,-317.12 678.77,-313.86 668.85,-310.13 668.69,-317.12"/>
</a>
</g>
</g>
<!-- Node15&#45;&gt;Node10 -->
<g id="edge19_Node000015_Node000010" class="edge">
<title>Node15&#45;&gt;Node10</title>
<g id="a_edge19_Node000015_Node000010"><a xlink:title=" ">
<path fill="none" stroke="#63b8ff" d="M391.09,-297.71C404.31,-274.84 441.71,-215.46 489.51,-185 492.49,-183.1 495.67,-181.4 498.96,-179.88"/>
<polygon fill="#63b8ff" stroke="#63b8ff" points="500.5,-183.03 508.47,-176.04 497.88,-176.54 500.5,-183.03"/>
</a>
</g>
</g>
<!-- Node15&#45;&gt;Node11 -->
<g id="edge20_Node000015_Node000011" class="edge">
<title>Node15&#45;&gt;Node11</title>
<g id="a_edge20_Node000015_Node000011"><a xlink:title=" ">
<path fill="none" stroke="#63b8ff" d="M402.74,-297.82C463.57,-265.98 675.06,-167.38 798.2,-264 814.75,-276.98 880.81,-587.03 897.8,-667.87"/>
<polygon fill="#63b8ff" stroke="#63b8ff" points="894.38,-668.63 899.86,-677.7 901.23,-667.19 894.38,-668.63"/>
</a>
</g>
</g>
<!-- Node15&#45;&gt;Node12 -->
<g id="edge21_Node000015_Node000012" class="edge">
<title>Node15&#45;&gt;Node12</title>
<g id="a_edge21_Node000015_Node000012"><a xlink:title=" ">
<path fill="none" stroke="#63b8ff" d="M395.44,-297.77C412.83,-281.35 451.45,-246.81 489.51,-226 496.82,-222.01 504.95,-218.49 512.93,-215.5"/>
<polygon fill="#63b8ff" stroke="#63b8ff" points="514.28,-218.73 522.53,-212.09 511.94,-212.13 514.28,-218.73"/>
</a>
</g>
</g>
<!-- Node15&#45;&gt;Node13 -->
<g id="edge22_Node000015_Node000013" class="edge">
<title>Node15&#45;&gt;Node13</title>
<g id="a_edge22_Node000015_Node000013"><a xlink:title=" ">
<path fill="none" stroke="#63b8ff" d="M415.79,-316C438.79,-322.93 471.25,-332.72 499.06,-341.1"/>
<polygon fill="#63b8ff" stroke="#63b8ff" points="498.09,-344.46 508.68,-343.99 500.11,-337.76 498.09,-344.46"/>
</a>
</g>
</g>
<!-- Node16&#45;&gt;Node4 -->
<g id="edge24_Node000016_Node000004" class="edge">
<title>Node16&#45;&gt;Node4</title>
<g id="a_edge24_Node000016_Node000004"><a xlink:title=" ">
<path fill="none" stroke="#63b8ff" d="M388.73,-518.33C398.74,-551.81 433.15,-669.23 453.51,-768 474.94,-871.92 421.76,-922.34 489.51,-1004 492.45,-1007.55 495.98,-1010.55 499.84,-1013.08"/>
<polygon fill="#63b8ff" stroke="#63b8ff" points="498.3,-1016.23 508.76,-1017.93 501.65,-1010.08 498.3,-1016.23"/>
</a>
</g>
</g>
<!-- Node16&#45;&gt;Node5 -->
<g id="edge26_Node000016_Node000005" class="edge">
<title>Node16&#45;&gt;Node5</title>
<g id="a_edge26_Node000016_Node000005"><a xlink:title=" ">
<path fill="none" stroke="#63b8ff" d="M388.61,-518.35C398.19,-551.93 431.33,-669.63 453.51,-768 472.32,-851.42 430.04,-895.56 489.51,-957 537.58,-1006.66 730.48,-1008.79 798.2,-995 826.47,-989.25 856.58,-975.5 877.02,-964.89"/>
<polygon fill="#63b8ff" stroke="#63b8ff" points="878.77,-967.92 885.95,-960.13 875.48,-961.74 878.77,-967.92"/>
</a>
</g>
</g>
<!-- Node16&#45;&gt;Node6 -->
<g id="edge27_Node000016_Node000006" class="edge">
<title>Node16&#45;&gt;Node6</title>
<g id="a_edge27_Node000016_Node000006"><a xlink:title=" ">
<path fill="none" stroke="#63b8ff" d="M402.86,-499.87C423.13,-489.13 458.27,-471.11 489.51,-458 498.42,-454.26 508.18,-450.61 517.38,-447.36"/>
<polygon fill="#63b8ff" stroke="#63b8ff" points="518.78,-450.58 527.08,-444 516.49,-443.97 518.78,-450.58"/>
</a>
</g>
</g>
<!-- Node16&#45;&gt;Node7 -->
<g id="edge28_Node000016_Node000007" class="edge">
<title>Node16&#45;&gt;Node7</title>
<g id="a_edge28_Node000016_Node000007"><a xlink:title=" ">
<path fill="none" stroke="#63b8ff" d="M393.5,-499.91C409.36,-481.46 448.07,-439.47 489.51,-417 493.25,-414.97 497.24,-413.16 501.32,-411.54"/>
<polygon fill="#63b8ff" stroke="#63b8ff" points="502.74,-414.75 510.99,-408.1 500.39,-408.16 502.74,-414.75"/>
</a>
</g>
</g>
<!-- Node16&#45;&gt;Node8 -->
<g id="edge29_Node000016_Node000008" class="edge">
<title>Node16&#45;&gt;Node8</title>
<g id="a_edge29_Node000016_Node000008"><a xlink:title=" ">
<path fill="none" stroke="#63b8ff" d="M435.78,-499.96C501.16,-487.69 609.18,-465.82 622.79,-453 663.31,-414.81 618.73,-371.67 658.79,-333 661.93,-329.97 665.52,-327.43 669.38,-325.3"/>
<polygon fill="#63b8ff" stroke="#63b8ff" points="671.08,-328.37 678.76,-321.07 668.2,-321.99 671.08,-328.37"/>
</a>
</g>
</g>
<!-- Node16&#45;&gt;Node10 -->
<g id="edge30_Node000016_Node000010" class="edge">
<title>Node16&#45;&gt;Node10</title>
<g id="a_edge30_Node000016_Node000010"><a xlink:title=" ">
<path fill="none" stroke="#63b8ff" d="M389.63,-499.92C400.39,-473.34 432.26,-393.23 453.51,-325 472.61,-263.66 444.45,-230.79 489.51,-185 491.16,-183.32 492.95,-181.8 494.85,-180.41"/>
<polygon fill="#63b8ff" stroke="#63b8ff" points="496.92,-183.26 503.77,-175.18 493.37,-177.22 496.92,-183.26"/>
</a>
</g>
</g>
<!-- Node16&#45;&gt;Node11 -->
<g id="edge31_Node000016_Node000011" class="edge">
<title>Node16&#45;&gt;Node11</title>
<g id="a_edge31_Node000016_Node000011"><a xlink:title=" ">
<path fill="none" stroke="#63b8ff" d="M389.46,-518.19C408.23,-565.46 501.29,-782.08 658.79,-859 714.47,-886.19 744.26,-889.48 798.2,-859 857.32,-825.6 886.45,-743.46 897,-706.08"/>
<polygon fill="#63b8ff" stroke="#63b8ff" points="900.38,-706.97 899.59,-696.41 893.62,-705.16 900.38,-706.97"/>
</a>
</g>
</g>
<!-- Node16&#45;&gt;Node12 -->
<g id="edge32_Node000016_Node000012" class="edge">
<title>Node16&#45;&gt;Node12</title>
<g id="a_edge32_Node000016_Node000012"><a xlink:title=" ">
<path fill="none" stroke="#63b8ff" d="M390.99,-499.84C414.49,-457.35 513.12,-279 545.1,-221.18"/>
<polygon fill="#63b8ff" stroke="#63b8ff" points="548.33,-222.57 550.11,-212.12 542.2,-219.18 548.33,-222.57"/>
</a>
</g>
</g>
<!-- Node16&#45;&gt;Node13 -->
<g id="edge33_Node000016_Node000013" class="edge">
<title>Node16&#45;&gt;Node13</title>
<g id="a_edge33_Node000016_Node000013"><a xlink:title=" ">
<path fill="none" stroke="#63b8ff" d="M390.91,-499.8C404,-476.53 441.6,-414.75 489.51,-381 491.63,-379.51 493.85,-378.11 496.14,-376.79"/>
<polygon fill="#63b8ff" stroke="#63b8ff" points="497.98,-379.78 505.29,-372.11 494.8,-373.55 497.98,-379.78"/>
</a>
</g>
</g>
<!-- Node17 -->
<g id="Node000017" class="node">
<title>Node17</title>
<g id="a_Node000017"><a xlink:href="classepub_1_1package.html#a249684ced04849ef954417851a336a0d" target="_top" xlink:title=" ">
<polygon fill="white" stroke="#666666" points="620.51,-554 491.79,-554 491.79,-536 620.51,-536 620.51,-554"/>
<text text-anchor="middle" x="556.15" y="-542" font-family="Helvetica,sans-Serif" font-size="10.00">epub::package::metadata</text>
</a>
</g>
</g>
<!-- Node16&#45;&gt;Node17 -->
<g id="edge25_Node000016_Node000017" class="edge">
<title>Node16&#45;&gt;Node17</title>
<g id="a_edge25_Node000016_Node000017"><a xlink:title=" ">
<path fill="none" stroke="#63b8ff" d="M428.63,-518.08C451.16,-522.88 479,-528.8 502.82,-533.87"/>
<polygon fill="#63b8ff" stroke="#63b8ff" points="502.25,-537.32 512.75,-535.98 503.7,-530.48 502.25,-537.32"/>
</a>
</g>
</g>
<!-- Node18 -->
<g id="Node000018" class="node">
<title>Node18</title>
<g id="a_Node000018"><a xlink:href="classepub_1_1package.html#a09245d687d1cd8352cdcc6e0219c9f13" target="_top" xlink:title=" ">
<polygon fill="white" stroke="#666666" points="611.72,-518 500.58,-518 500.58,-500 611.72,-500 611.72,-518"/>
<text text-anchor="middle" x="556.15" y="-506" font-family="Helvetica,sans-Serif" font-size="10.00">epub::package::spine</text>
</a>
</g>
</g>
<!-- Node16&#45;&gt;Node18 -->
<g id="edge34_Node000016_Node000018" class="edge">
<title>Node16&#45;&gt;Node18</title>
<g id="a_edge34_Node000016_Node000018"><a xlink:title=" ">
<path fill="none" stroke="#63b8ff" d="M449.9,-509C463.18,-509 477.18,-509 490.48,-509"/>
<polygon fill="#63b8ff" stroke="#63b8ff" points="490.49,-512.5 500.49,-509 490.49,-505.5 490.49,-512.5"/>
</a>
</g>
</g>
<!-- Node19 -->
<g id="Node000019" class="node">
<title>Node19</title>
<g id="a_Node000019"><a xlink:href="namespaceepub_1_1xml.html#ae7d7288e9485a8dde5ad1db225ddc18a" target="_top" xlink:title=" ">
<polygon fill="white" stroke="#666666" points="793.38,-924 663.62,-924 663.62,-906 793.38,-906 793.38,-924"/>
<text text-anchor="middle" x="728.5" y="-912" font-family="Helvetica,sans-Serif" font-size="10.00">epub::xml::write_manifest</text>
</a>
</g>
</g>
<!-- Node16&#45;&gt;Node19 -->
<g id="edge35_Node000016_Node000019" class="edge">
<title>Node16&#45;&gt;Node19</title>
<g id="a_edge35_Node000016_Node000019"><a xlink:title=" ">
<path fill="none" stroke="#63b8ff" d="M388.28,-518.25C403.02,-575.88 481.94,-883.56 489.51,-890 539.75,-932.74 619.21,-932.08 672.32,-925.42"/>
<polygon fill="#63b8ff" stroke="#63b8ff" points="672.81,-928.88 682.25,-924.06 671.87,-921.95 672.81,-928.88"/>
</a>
</g>
</g>
<!-- Node20 -->
<g id="Node000020" class="node">
<title>Node20</title>
<g id="a_Node000020"><a xlink:href="namespaceepub_1_1xml.html#a667dc5dbfff6a402c36bceb2f3bc835c" target="_top" xlink:title=" ">
<polygon fill="white" stroke="#666666" points="622.93,-590 489.37,-590 489.37,-572 622.93,-572 622.93,-590"/>
<text text-anchor="middle" x="556.15" y="-578" font-family="Helvetica,sans-Serif" font-size="10.00">epub::xml::write_metadata</text>
</a>
</g>
</g>
<!-- Node16&#45;&gt;Node20 -->
<g id="edge38_Node000016_Node000020" class="edge">
<title>Node16&#45;&gt;Node20</title>
<g id="a_edge38_Node000016_Node000020"><a xlink:title=" ">
<path fill="none" stroke="#63b8ff" d="M400.89,-518.1C420.61,-529.79 456.66,-550.1 489.51,-563 495.08,-565.19 501.01,-567.21 506.94,-569.05"/>
<polygon fill="#63b8ff" stroke="#63b8ff" points="506.29,-572.51 516.87,-571.98 508.26,-565.79 506.29,-572.51"/>
</a>
</g>
</g>
<!-- Node35 -->
<g id="Node000035" class="node">
<title>Node35</title>
<g id="a_Node000035"><a xlink:href="namespaceepub_1_1xml.html#ac894e86ccd29ead7c97018b770869a91" target="_top" xlink:title=" ">
<polygon fill="white" stroke="#666666" points="786.49,-960 670.5,-960 670.5,-942 786.49,-942 786.49,-960"/>
<text text-anchor="middle" x="728.5" y="-948" font-family="Helvetica,sans-Serif" font-size="10.00">epub::xml::write_spine</text>
</a>
</g>
</g>
<!-- Node16&#45;&gt;Node35 -->
<g id="edge58_Node000016_Node000035" class="edge">
<title>Node16&#45;&gt;Node35</title>
<g id="a_edge58_Node000016_Node000035"><a xlink:title=" ">
<path fill="none" stroke="#63b8ff" d="M388.47,-518.38C397.59,-552.07 429.37,-670.09 453.51,-768 470.44,-836.67 436.8,-875.85 489.51,-923 538.01,-966.39 616.09,-967.21 669.5,-961.28"/>
<polygon fill="#63b8ff" stroke="#63b8ff" points="670,-964.75 679.5,-960.06 669.15,-957.8 670,-964.75"/>
</a>
</g>
</g>
<!-- Node19&#45;&gt;Node5 -->
<g id="edge36_Node000019_Node000005" class="edge">
<title>Node19&#45;&gt;Node5</title>
<g id="a_edge36_Node000019_Node000005"><a xlink:title=" ">
<path fill="none" stroke="#63b8ff" d="M772.98,-924.08C796.02,-928.9 824.52,-934.85 848.84,-939.94"/>
<polygon fill="#63b8ff" stroke="#63b8ff" points="848.13,-943.36 858.63,-941.98 849.56,-936.51 848.13,-943.36"/>
</a>
</g>
</g>
<!-- Node19&#45;&gt;Node11 -->
<g id="edge37_Node000019_Node000011" class="edge">
<title>Node19&#45;&gt;Node11</title>
<g id="a_edge37_Node000019_Node000011"><a xlink:title=" ">
<path fill="none" stroke="#63b8ff" d="M773.62,-905.89C782.45,-902.58 791.16,-898.09 798.2,-892 857.76,-840.5 887.07,-746.5 897.37,-706.19"/>
<polygon fill="#63b8ff" stroke="#63b8ff" points="900.8,-706.87 899.77,-696.32 894,-705.21 900.8,-706.87"/>
</a>
</g>
</g>
<!-- Node20&#45;&gt;Node5 -->
<g id="edge53_Node000020_Node000005" class="edge">
<title>Node20&#45;&gt;Node5</title>
<g id="a_edge53_Node000020_Node000005"><a xlink:title=" ">
<path fill="none" stroke="#63b8ff" d="M558.08,-590.32C563.73,-644.68 595.26,-919.97 658.79,-969 722.08,-1017.85 824.36,-984.77 873.57,-964.1"/>
<polygon fill="#63b8ff" stroke="#63b8ff" points="875.17,-967.22 882.95,-960.03 872.39,-960.8 875.17,-967.22"/>
</a>
</g>
</g>
<!-- Node20&#45;&gt;Node8 -->
<g id="edge54_Node000020_Node000008" class="edge">
<title>Node20&#45;&gt;Node8</title>
<g id="a_edge54_Node000020_Node000008"><a xlink:title=" ">
<path fill="none" stroke="#63b8ff" d="M611.45,-571.88C615.69,-569.53 619.56,-566.61 622.79,-563 691.73,-485.84 589.41,-409.76 658.79,-333 661.9,-329.56 665.57,-326.75 669.58,-324.44"/>
<polygon fill="#63b8ff" stroke="#63b8ff" points="671.2,-327.55 678.8,-320.18 668.26,-321.2 671.2,-327.55"/>
</a>
</g>
</g>
<!-- Node20&#45;&gt;Node11 -->
<g id="edge56_Node000020_Node000011" class="edge">
<title>Node20&#45;&gt;Node11</title>
<g id="a_edge56_Node000020_Node000011"><a xlink:title=" ">
<path fill="none" stroke="#63b8ff" d="M610.55,-571.97C615.08,-569.61 619.27,-566.67 622.79,-563 672.07,-511.67 603.11,-451.3 658.79,-407 707.28,-368.43 747.35,-371.6 798.2,-407 886.59,-468.54 899.74,-614.64 901.57,-667.49"/>
<polygon fill="#63b8ff" stroke="#63b8ff" points="898.07,-667.89 901.81,-677.81 905.07,-667.73 898.07,-667.89"/>
</a>
</g>
</g>
<!-- Node21 -->
<g id="Node000021" class="node">
<title>Node21</title>
<g id="a_Node000021"><a xlink:href="namespaceepub_1_1xml.html#a963274c442c95b1fc19777e4b465affc" target="_top" xlink:title=" ">
<polygon fill="white" stroke="#666666" points="795.9,-696 661.09,-696 661.09,-678 795.9,-678 795.9,-696"/>
<text text-anchor="middle" x="728.5" y="-684" font-family="Helvetica,sans-Serif" font-size="10.00">epub::xml::add_refinement</text>
</a>
</g>
</g>
<!-- Node20&#45;&gt;Node21 -->
<g id="edge39_Node000020_Node000021" class="edge">
<title>Node20&#45;&gt;Node21</title>
<g id="a_edge39_Node000020_Node000021"><a xlink:title=" ">
<path fill="none" stroke="#63b8ff" d="M565.1,-590.27C581.02,-608.24 618.73,-647.89 658.79,-669 662.76,-671.09 667,-672.96 671.34,-674.61"/>
<polygon fill="#63b8ff" stroke="#63b8ff" points="670.35,-677.97 680.95,-677.91 672.62,-671.35 670.35,-677.97"/>
</a>
</g>
</g>
<!-- Node22 -->
<g id="Node000022" class="node">
<title>Node22</title>
<g id="a_Node000022"><a xlink:href="classepub_1_1metadata.html#ad2453246d1fcc9985ae3584f8c0bba54" target="_top" xlink:title=" ">
<polygon fill="white" stroke="#666666" points="797.24,-542 659.75,-542 659.75,-524 797.24,-524 797.24,-542"/>
<text text-anchor="middle" x="728.5" y="-530" font-family="Helvetica,sans-Serif" font-size="10.00">epub::metadata::collections</text>
</a>
</g>
</g>
<!-- Node20&#45;&gt;Node22 -->
<g id="edge42_Node000020_Node000022" class="edge">
<title>Node20&#45;&gt;Node22</title>
<g id="a_edge42_Node000020_Node000022"><a xlink:title=" ">
<path fill="none" stroke="#63b8ff" d="M591.66,-571.91C601.73,-569.16 612.73,-566.05 622.79,-563 638.93,-558.1 642.62,-555.81 658.79,-551 666.02,-548.85 673.72,-546.7 681.25,-544.67"/>
<polygon fill="#63b8ff" stroke="#63b8ff" points="682.23,-548.03 691,-542.09 680.44,-541.27 682.23,-548.03"/>
</a>
</g>
</g>
<!-- Node23 -->
<g id="Node000023" class="node">
<title>Node23</title>
<g id="a_Node000023"><a xlink:href="classepub_1_1metadata.html#a23875082af22027fce800a2ab4aaa4ed" target="_top" xlink:title=" ">
<polygon fill="white" stroke="#666666" points="792.17,-506 664.82,-506 664.82,-488 792.17,-488 792.17,-506"/>
<text text-anchor="middle" x="728.5" y="-494" font-family="Helvetica,sans-Serif" font-size="10.00">epub::metadata::creators</text>
</a>
</g>
</g>
<!-- Node20&#45;&gt;Node23 -->
<g id="edge43_Node000020_Node000023" class="edge">
<title>Node20&#45;&gt;Node23</title>
<g id="a_edge43_Node000020_Node000023"><a xlink:title=" ">
<path fill="none" stroke="#63b8ff" d="M605.07,-571.9C611.32,-569.57 617.42,-566.66 622.79,-563 644.84,-548 636.66,-529.88 658.79,-515 661.5,-513.18 664.39,-511.54 667.39,-510.07"/>
<polygon fill="#63b8ff" stroke="#63b8ff" points="668.81,-513.27 676.64,-506.13 666.07,-506.82 668.81,-513.27"/>
</a>
</g>
</g>
<!-- Node24 -->
<g id="Node000024" class="node">
<title>Node24</title>
<g id="a_Node000024"><a xlink:href="classepub_1_1metadata.html#ad7b872f750378380d517ad908a8795ea" target="_top" xlink:title=" ">
<polygon fill="white" stroke="#666666" points="798.41,-470 658.58,-470 658.58,-452 798.41,-452 798.41,-470"/>
<text text-anchor="middle" x="728.5" y="-458" font-family="Helvetica,sans-Serif" font-size="10.00">epub::metadata::description</text>
</a>
</g>
</g>
<!-- Node20&#45;&gt;Node24 -->
<g id="edge44_Node000020_Node000024" class="edge">
<title>Node20&#45;&gt;Node24</title>
<g id="a_edge44_Node000020_Node000024"><a xlink:title=" ">
<path fill="none" stroke="#63b8ff" d="M608.59,-571.89C613.74,-569.56 618.6,-566.65 622.79,-563 653.41,-536.32 628.02,-505.51 658.79,-479 660.37,-477.64 662.03,-476.38 663.77,-475.22"/>
<polygon fill="#63b8ff" stroke="#63b8ff" points="665.91,-478.04 672.98,-470.15 662.53,-471.91 665.91,-478.04"/>
</a>
</g>
</g>
<!-- Node25 -->
<g id="Node000025" class="node">
<title>Node25</title>
<g id="a_Node000025"><a xlink:href="classepub_1_1creator.html#ad36a867ec5e64f24b7dee7c5b34b9b0b" target="_top" xlink:title=" ">
<polygon fill="white" stroke="#666666" points="783.39,-434 673.61,-434 673.61,-416 783.39,-416 783.39,-434"/>
<text text-anchor="middle" x="728.5" y="-422" font-family="Helvetica,sans-Serif" font-size="10.00">epub::creator::file_as</text>
</a>
</g>
</g>
<!-- Node20&#45;&gt;Node25 -->
<g id="edge45_Node000020_Node000025" class="edge">
<title>Node20&#45;&gt;Node25</title>
<g id="a_edge45_Node000020_Node000025"><a xlink:title=" ">
<path fill="none" stroke="#63b8ff" d="M609.99,-571.89C614.69,-569.55 619.07,-566.63 622.79,-563 662.63,-524.1 618.73,-481.67 658.79,-443 660.65,-441.2 662.67,-439.58 664.81,-438.11"/>
<polygon fill="#63b8ff" stroke="#63b8ff" points="666.56,-441.14 673.56,-433.2 663.13,-435.04 666.56,-441.14"/>
</a>
</g>
</g>
<!-- Node26 -->
<g id="Node000026" class="node">
<title>Node26</title>
<g id="a_Node000026"><a xlink:href="namespaceepub.html#a066b00e6e19cee9ebbb898c4182c0ad0" target="_top" xlink:title="Generate a XML ID.">
<polygon fill="white" stroke="#666666" points="776.62,-850 680.37,-850 680.37,-832 776.62,-832 776.62,-850"/>
<text text-anchor="middle" x="728.5" y="-838" font-family="Helvetica,sans-Serif" font-size="10.00">epub::generate_id</text>
</a>
</g>
</g>
<!-- Node20&#45;&gt;Node26 -->
<g id="edge46_Node000020_Node000026" class="edge">
<title>Node20&#45;&gt;Node26</title>
<g id="a_edge46_Node000020_Node000026"><a xlink:title=" ">
<path fill="none" stroke="#63b8ff" d="M558.12,-590.11C562.43,-625.8 583.07,-757.3 658.79,-823 662.44,-826.17 666.58,-828.79 670.98,-830.95"/>
<polygon fill="#63b8ff" stroke="#63b8ff" points="669.71,-834.21 680.29,-834.79 672.38,-827.74 669.71,-834.21"/>
</a>
</g>
</g>
<!-- Node27 -->
<g id="Node000027" class="node">
<title>Node27</title>
<g id="a_Node000027"><a xlink:href="classepub_1_1collection.html#a084ea9195f55d6fb36881731534895b0" target="_top" xlink:title=" ">
<polygon fill="white" stroke="#666666" points="786.62,-814 670.37,-814 670.37,-786 786.62,-786 786.62,-814"/>
<text text-anchor="start" x="678.19" y="-802" font-family="Helvetica,sans-Serif" font-size="10.00">epub::collection::group</text>
<text text-anchor="middle" x="728.5" y="-792" font-family="Helvetica,sans-Serif" font-size="10.00">_position</text>
</a>
</g>
</g>
<!-- Node20&#45;&gt;Node27 -->
<g id="edge47_Node000020_Node000027" class="edge">
<title>Node20&#45;&gt;Node27</title>
<g id="a_edge47_Node000020_Node000027"><a xlink:title=" ">
<path fill="none" stroke="#63b8ff" d="M559.32,-590.35C567.04,-621.59 596.17,-723.42 658.79,-777 660.3,-778.29 661.88,-779.5 663.52,-780.65"/>
<polygon fill="#63b8ff" stroke="#63b8ff" points="661.78,-783.69 672.15,-785.85 665.39,-777.7 661.78,-783.69"/>
</a>
</g>
</g>
<!-- Node28 -->
<g id="Node000028" class="node">
<title>Node28</title>
<g id="a_Node000028"><a xlink:href="classepub_1_1metadata.html#a38fcb86cf8befa51ab4f54cdd07b2373" target="_top" xlink:title=" ">
<polygon fill="white" stroke="#666666" points="792.85,-768 664.15,-768 664.15,-750 792.85,-750 792.85,-768"/>
<text text-anchor="middle" x="728.5" y="-756" font-family="Helvetica,sans-Serif" font-size="10.00">epub::metadata::identifier</text>
</a>
</g>
</g>
<!-- Node20&#45;&gt;Node28 -->
<g id="edge48_Node000020_Node000028" class="edge">
<title>Node20&#45;&gt;Node28</title>
<g id="a_edge48_Node000020_Node000028"><a xlink:title=" ">
<path fill="none" stroke="#63b8ff" d="M560.27,-590.3C570.03,-617.91 602.71,-700.06 658.79,-741 661.17,-742.74 663.71,-744.31 666.35,-745.73"/>
<polygon fill="#63b8ff" stroke="#63b8ff" points="665.11,-749.01 675.66,-749.99 668.02,-742.64 665.11,-749.01"/>
</a>
</g>
</g>
<!-- Node29 -->
<g id="Node000029" class="node">
<title>Node29</title>
<g id="a_Node000029"><a xlink:href="classepub_1_1metadata.html#a3f919d886be8df3c5a587d8eb5a6d57e" target="_top" xlink:title=" ">
<polygon fill="white" stroke="#666666" points="794.7,-732 662.29,-732 662.29,-714 794.7,-714 794.7,-732"/>
<text text-anchor="middle" x="728.5" y="-720" font-family="Helvetica,sans-Serif" font-size="10.00">epub::metadata::language</text>
</a>
</g>
</g>
<!-- Node20&#45;&gt;Node29 -->
<g id="edge49_Node000020_Node000029" class="edge">
<title>Node20&#45;&gt;Node29</title>
<g id="a_edge49_Node000020_Node000029"><a xlink:title=" ">
<path fill="none" stroke="#63b8ff" d="M561.93,-590.14C574.48,-613.21 610.76,-674.2 658.79,-705 661.73,-706.89 664.87,-708.58 668.12,-710.09"/>
<polygon fill="#63b8ff" stroke="#63b8ff" points="666.92,-713.38 677.5,-713.91 669.55,-706.9 666.92,-713.38"/>
</a>
</g>
</g>
<!-- Node30 -->
<g id="Node000030" class="node">
<title>Node30</title>
<g id="a_Node000030"><a xlink:href="classepub_1_1metadata.html#ae6b011a147727244c2f831b26976c4a8" target="_top" xlink:title="The rendition layout type.">
<polygon fill="white" stroke="#666666" points="787.24,-360 669.76,-360 669.76,-342 787.24,-342 787.24,-360"/>
<text text-anchor="middle" x="728.5" y="-348" font-family="Helvetica,sans-Serif" font-size="10.00">epub::metadata::layout</text>
</a>
</g>
</g>
<!-- Node20&#45;&gt;Node30 -->
<g id="edge50_Node000020_Node000030" class="edge">
<title>Node20&#45;&gt;Node30</title>
<g id="a_edge50_Node000020_Node000030"><a xlink:title=" ">
<path fill="none" stroke="#63b8ff" d="M611.01,-571.94C615.39,-569.58 619.42,-566.65 622.79,-563 680.81,-500.18 602.54,-438.4 658.79,-374 661.98,-370.34 665.78,-367.27 669.91,-364.68"/>
<polygon fill="#63b8ff" stroke="#63b8ff" points="671.58,-367.76 678.81,-360.02 668.33,-361.56 671.58,-367.76"/>
</a>
</g>
</g>
<!-- Node32 -->
<g id="Node000032" class="node">
<title>Node32</title>
<g id="a_Node000032"><a xlink:href="namespaceepub_1_1xml.html#a7c857584a6750e33bf5ccc29f4faf805" target="_top" xlink:title=" ">
<polygon fill="white" stroke="#666666" points="785.28,-660 671.72,-660 671.72,-632 785.28,-632 785.28,-660"/>
<text text-anchor="start" x="679.86" y="-648" font-family="Helvetica,sans-Serif" font-size="10.00">epub::xml::new_cdata</text>
<text text-anchor="middle" x="728.5" y="-638" font-family="Helvetica,sans-Serif" font-size="10.00">_child</text>
</a>
</g>
</g>
<!-- Node20&#45;&gt;Node32 -->
<g id="edge52_Node000020_Node000032" class="edge">
<title>Node20&#45;&gt;Node32</title>
<g id="a_edge52_Node000020_Node000032"><a xlink:title=" ">
<path fill="none" stroke="#63b8ff" d="M578.01,-590.11C598.44,-598.92 630.53,-612.45 658.79,-623 663.87,-624.9 669.19,-626.81 674.52,-628.68"/>
<polygon fill="#63b8ff" stroke="#63b8ff" points="673.5,-632.02 684.09,-631.97 675.78,-625.4 673.5,-632.02"/>
</a>
</g>
</g>
<!-- Node33 -->
<g id="Node000033" class="node">
<title>Node33</title>
<g id="a_Node000033"><a xlink:href="classepub_1_1creator.html#a2f09ed65b27b1722c0599a1c95b2ecf9" target="_top" xlink:title=" ">
<polygon fill="white" stroke="#666666" points="777.15,-614 679.84,-614 679.84,-596 777.15,-596 777.15,-614"/>
<text text-anchor="middle" x="728.5" y="-602" font-family="Helvetica,sans-Serif" font-size="10.00">epub::creator::role</text>
</a>
</g>
</g>
<!-- Node20&#45;&gt;Node33 -->
<g id="edge55_Node000020_Node000033" class="edge">
<title>Node20&#45;&gt;Node33</title>
<g id="a_edge55_Node000020_Node000033"><a xlink:title=" ">
<path fill="none" stroke="#63b8ff" d="M621.07,-590C637.02,-592.25 654.04,-594.65 669.68,-596.85"/>
<polygon fill="#63b8ff" stroke="#63b8ff" points="669.34,-600.34 679.73,-598.27 670.32,-593.41 669.34,-600.34"/>
</a>
</g>
</g>
<!-- Node34 -->
<g id="Node000034" class="node">
<title>Node34</title>
<g id="a_Node000034"><a xlink:href="classepub_1_1metadata.html#a14926d8532fc0e692507fe9fa4964d9f" target="_top" xlink:title=" ">
<polygon fill="white" stroke="#666666" points="781.61,-578 675.38,-578 675.38,-560 781.61,-560 781.61,-578"/>
<text text-anchor="middle" x="728.5" y="-566" font-family="Helvetica,sans-Serif" font-size="10.00">epub::metadata::title</text>
</a>
</g>
</g>
<!-- Node20&#45;&gt;Node34 -->
<g id="edge57_Node000020_Node000034" class="edge">
<title>Node20&#45;&gt;Node34</title>
<g id="a_edge57_Node000020_Node000034"><a xlink:title=" ">
<path fill="none" stroke="#63b8ff" d="M623.01,-576.36C636.81,-575.39 651.33,-574.37 665.01,-573.4"/>
<polygon fill="#63b8ff" stroke="#63b8ff" points="665.54,-576.87 675.27,-572.68 665.05,-569.89 665.54,-576.87"/>
</a>
</g>
</g>
<!-- Node21&#45;&gt;Node5 -->
<g id="edge40_Node000021_Node000005" class="edge">
<title>Node21&#45;&gt;Node5</title>
<g id="a_edge40_Node000021_Node000005"><a xlink:title=" ">
<path fill="none" stroke="#63b8ff" d="M784.04,-696.12C789.17,-698.45 794.01,-701.37 798.2,-705 869.22,-766.56 892.73,-884.98 899.44,-931.53"/>
<polygon fill="#63b8ff" stroke="#63b8ff" points="896.01,-932.29 900.8,-941.74 902.95,-931.36 896.01,-932.29"/>
</a>
</g>
</g>
<!-- Node21&#45;&gt;Node11 -->
<g id="edge41_Node000021_Node000011" class="edge">
<title>Node21&#45;&gt;Node11</title>
<g id="a_edge41_Node000021_Node000011"><a xlink:title=" ">
<path fill="none" stroke="#63b8ff" d="M796.11,-687C807.98,-687 820.37,-687 832.31,-687"/>
<polygon fill="#63b8ff" stroke="#63b8ff" points="832.67,-690.5 842.67,-687 832.67,-683.5 832.67,-690.5"/>
</a>
</g>
</g>
<!-- Node31 -->
<g id="Node000031" class="node">
<title>Node31</title>
<g id="a_Node000031"><a xlink:href="classepub_1_1metadata.html#aa104934854caf6b8b77930f1a46640e0" target="_top" xlink:title="Select the rendition layout controlling reflow.">
<polygon fill="white" stroke="#666666" points="955.31,-365 850.29,-365 850.29,-337 955.31,-337 955.31,-365"/>
<text text-anchor="start" x="858.05" y="-353" font-family="Helvetica,sans-Serif" font-size="10.00">epub::metadata::pre</text>
<text text-anchor="middle" x="902.8" y="-343" font-family="Helvetica,sans-Serif" font-size="10.00">_paginated</text>
</a>
</g>
</g>
<!-- Node30&#45;&gt;Node31 -->
<g id="edge51_Node000030_Node000031" class="edge">
<title>Node30&#45;&gt;Node31</title>
<g id="a_edge51_Node000030_Node000031"><a xlink:title=" ">
<path fill="none" stroke="#63b8ff" d="M787.35,-351C804.19,-351 822.65,-351 839.74,-351"/>
<polygon fill="#63b8ff" stroke="#63b8ff" points="840.18,-354.5 850.18,-351 840.18,-347.5 840.18,-354.5"/>
</a>
</g>
</g>
<!-- Node35&#45;&gt;Node5 -->
<g id="edge59_Node000035_Node000005" class="edge">
<title>Node35&#45;&gt;Node5</title>
<g id="a_edge59_Node000035_Node000005"><a xlink:title=" ">
<path fill="none" stroke="#63b8ff" d="M786.39,-951C798.46,-951 811.39,-951 824.08,-951"/>
<polygon fill="#63b8ff" stroke="#63b8ff" points="824.18,-954.5 834.18,-951 824.18,-947.5 824.18,-954.5"/>
</a>
</g>
</g>
<!-- Node35&#45;&gt;Node11 -->
<g id="edge60_Node000035_Node000011" class="edge">
<title>Node35&#45;&gt;Node11</title>
<g id="a_edge60_Node000035_Node000011"><a xlink:title=" ">
<path fill="none" stroke="#63b8ff" d="M784.04,-941.88C789.17,-939.55 794.01,-936.63 798.2,-933 869.22,-871.44 892.73,-753.02 899.44,-706.47"/>
<polygon fill="#63b8ff" stroke="#63b8ff" points="902.95,-706.64 900.8,-696.26 896.01,-705.71 902.95,-706.64"/>
</a>
</g>
</g>
</g>
</svg>
