<?xml version="1.0" encoding="UTF-8" standalone="no"?>
<!DOCTYPE svg PUBLIC "-//W3C//DTD SVG 1.1//EN"
 "http://www.w3.org/Graphics/SVG/1.1/DTD/svg11.dtd">
<!-- Generated by graphviz version 2.48.0 (20210717.1556)
 -->
<!-- Title: epub::package Pages: 1 -->
<svg width="370pt" height="1305pt"
 viewBox="0.00 0.00 369.72 1305.00" xmlns="http://www.w3.org/2000/svg" xmlns:xlink="http://www.w3.org/1999/xlink">
<g id="graph0" class="graph" transform="scale(1 1) rotate(0) translate(4 1301)">
<title>epub::package</title>
<!-- Node1 -->
<g id="Node000001" class="node">
<title>Node1</title>
<g id="a_Node000001"><a xlink:title=" ">
<polygon fill="#999999" stroke="transparent" points="212.22,-130 137.22,-130 137.22,0 212.22,0 212.22,-130"/>
<text text-anchor="start" x="142.42" y="-118" font-family="Helvetica,sans-Serif" font-size="10.00">epub::package</text>
<text text-anchor="start" x="173.83" y="-104" font-family="Helvetica,sans-Serif" font-size="10.00"> </text>
<text text-anchor="start" x="143.8" y="-90" font-family="Helvetica,sans-Serif" font-size="10.00">+</text>
<text text-anchor="start" x="155.72" y="-90" font-family="Helvetica,sans-Serif" font-size="10.00">metadata()</text>
<text text-anchor="start" x="143.8" y="-76" font-family="Helvetica,sans-Serif" font-size="10.00">+</text>
<text text-anchor="start" x="155.72" y="-76" font-family="Helvetica,sans-Serif" font-size="10.00">metadata()</text>
<text text-anchor="start" x="143.8" y="-62" font-family="Helvetica,sans-Serif" font-size="10.00">+</text>
<text text-anchor="start" x="155.72" y="-62" font-family="Helvetica,sans-Serif" font-size="10.00">manifest()</text>
<text text-anchor="start" x="143.8" y="-48" font-family="Helvetica,sans-Serif" font-size="10.00">+</text>
<text text-anchor="start" x="155.72" y="-48" font-family="Helvetica,sans-Serif" font-size="10.00">manifest()</text>
<text text-anchor="start" x="143.8" y="-34" font-family="Helvetica,sans-Serif" font-size="10.00">+</text>
<text text-anchor="start" x="155.72" y="-34" font-family="Helvetica,sans-Serif" font-size="10.00">spine()</text>
<text text-anchor="start" x="143.8" y="-20" font-family="Helvetica,sans-Serif" font-size="10.00">+</text>
<text text-anchor="start" x="155.72" y="-20" font-family="Helvetica,sans-Serif" font-size="10.00">spine()</text>
<text text-anchor="start" x="143.8" y="-6" font-family="Helvetica,sans-Serif" font-size="10.00">+</text>
<text text-anchor="start" x="155.72" y="-6" font-family="Helvetica,sans-Serif" font-size="10.00">write()</text>
<polygon fill="#666666" stroke="#666666" points="137.72,-114 137.72,-114 212.72,-114 212.72,-114 137.72,-114"/>
<polygon fill="#666666" stroke="#666666" points="137.72,-100 137.72,-100 212.72,-100 212.72,-100 137.72,-100"/>
<polygon fill="none" stroke="#666666" points="137.22,0 137.22,-130 212.22,-130 212.22,0 137.22,0"/>
</a>
</g>
</g>
<!-- Node2 -->
<g id="Node000002" class="node">
<title>Node2</title>
<g id="a_Node000002"><a xlink:href="classepub_1_1metadata.html" target="_top" xlink:title=" ">
<polygon fill="white" stroke="transparent" points="99.22,-636 20.22,-636 20.22,-422 99.22,-422 99.22,-636"/>
<text text-anchor="start" x="25.48" y="-624" font-family="Helvetica,sans-Serif" font-size="10.00">epub::metadata</text>
<text text-anchor="start" x="58.83" y="-610" font-family="Helvetica,sans-Serif" font-size="10.00"> </text>
<text text-anchor="start" x="27.8" y="-596" font-family="Helvetica,sans-Serif" font-size="10.00">+</text>
<text text-anchor="start" x="40.72" y="-596" font-family="Helvetica,sans-Serif" font-size="10.00">metadata()</text>
<text text-anchor="start" x="27.8" y="-582" font-family="Helvetica,sans-Serif" font-size="10.00">+</text>
<text text-anchor="start" x="40.72" y="-582" font-family="Helvetica,sans-Serif" font-size="10.00">identifier()</text>
<text text-anchor="start" x="27.8" y="-568" font-family="Helvetica,sans-Serif" font-size="10.00">+</text>
<text text-anchor="start" x="40.72" y="-568" font-family="Helvetica,sans-Serif" font-size="10.00">title()</text>
<text text-anchor="start" x="27.8" y="-554" font-family="Helvetica,sans-Serif" font-size="10.00">+</text>
<text text-anchor="start" x="40.72" y="-554" font-family="Helvetica,sans-Serif" font-size="10.00">title()</text>
<text text-anchor="start" x="27.8" y="-540" font-family="Helvetica,sans-Serif" font-size="10.00">+</text>
<text text-anchor="start" x="40.72" y="-540" font-family="Helvetica,sans-Serif" font-size="10.00">language()</text>
<text text-anchor="start" x="27.8" y="-526" font-family="Helvetica,sans-Serif" font-size="10.00">+</text>
<text text-anchor="start" x="40.72" y="-526" font-family="Helvetica,sans-Serif" font-size="10.00">creators()</text>
<text text-anchor="start" x="27.8" y="-512" font-family="Helvetica,sans-Serif" font-size="10.00">+</text>
<text text-anchor="start" x="40.72" y="-512" font-family="Helvetica,sans-Serif" font-size="10.00">creators()</text>
<text text-anchor="start" x="28.78" y="-498" font-family="Helvetica,sans-Serif" font-size="10.00">*</text>
<text text-anchor="start" x="40.72" y="-498" font-family="Helvetica,sans-Serif" font-size="10.00">identifier()</text>
<text text-anchor="start" x="28.78" y="-484" font-family="Helvetica,sans-Serif" font-size="10.00">*</text>
<text text-anchor="start" x="40.72" y="-484" font-family="Helvetica,sans-Serif" font-size="10.00">title()</text>
<text text-anchor="start" x="28.78" y="-470" font-family="Helvetica,sans-Serif" font-size="10.00">*</text>
<text text-anchor="start" x="40.72" y="-470" font-family="Helvetica,sans-Serif" font-size="10.00">title()</text>
<text text-anchor="start" x="28.78" y="-456" font-family="Helvetica,sans-Serif" font-size="10.00">*</text>
<text text-anchor="start" x="40.72" y="-456" font-family="Helvetica,sans-Serif" font-size="10.00">language()</text>
<text text-anchor="start" x="28.78" y="-442" font-family="Helvetica,sans-Serif" font-size="10.00">*</text>
<text text-anchor="start" x="40.72" y="-442" font-family="Helvetica,sans-Serif" font-size="10.00">creators()</text>
<text text-anchor="start" x="28.78" y="-428" font-family="Helvetica,sans-Serif" font-size="10.00">*</text>
<text text-anchor="start" x="40.72" y="-428" font-family="Helvetica,sans-Serif" font-size="10.00">creators()</text>
<polygon fill="#666666" stroke="#666666" points="20.72,-620 20.72,-620 99.72,-620 99.72,-620 20.72,-620"/>
<polygon fill="#666666" stroke="#666666" points="20.72,-606 20.72,-606 99.72,-606 99.72,-606 20.72,-606"/>
<polygon fill="none" stroke="#666666" points="20.22,-422 20.22,-636 99.22,-636 99.22,-422 20.22,-422"/>
</a>
</g>
</g>
<!-- Node2&#45;&gt;Node1 -->
<g id="edge1_Node000001_Node000002" class="edge">
<title>Node2&#45;&gt;Node1</title>
<g id="a_edge1_Node000001_Node000002"><a xlink:title=" ">
<path fill="none" stroke="#63b8ff" d="M45.67,-421.94C40.49,-349.89 42.28,-253.91 74.36,-176 85.85,-148.1 107.73,-122.77 128.13,-103.47"/>
<polygon fill="none" stroke="#63b8ff" points="128.2,-103.41 129.93,-96.41 137.05,-95.31 135.33,-102.31 128.2,-103.41"/>
</a>
</g>
<text text-anchor="middle" x="101.41" y="-273" font-family="Helvetica,sans-Serif" font-size="10.00" fill="grey"> &#45;_metadata</text>
</g>
<!-- Node3 -->
<g id="Node000003" class="node">
<title>Node3</title>
<g id="a_Node000003"><a xlink:title=" ">
<polygon fill="white" stroke="transparent" points="168.72,-1105 104.72,-1105 104.72,-1059 168.72,-1059 168.72,-1105"/>
<text text-anchor="start" x="109.49" y="-1093" font-family="Helvetica,sans-Serif" font-size="10.00">std::u8string</text>
<text text-anchor="start" x="135.33" y="-1079" font-family="Helvetica,sans-Serif" font-size="10.00"> </text>
<text text-anchor="start" x="135.33" y="-1065" font-family="Helvetica,sans-Serif" font-size="10.00"> </text>
<polygon fill="#666666" stroke="#666666" points="104.72,-1089 104.72,-1089 168.72,-1089 168.72,-1089 104.72,-1089"/>
<polygon fill="#666666" stroke="#666666" points="104.72,-1075 104.72,-1075 168.72,-1075 168.72,-1075 104.72,-1075"/>
<polygon fill="none" stroke="#666666" points="104.72,-1059 104.72,-1105 168.72,-1105 168.72,-1059 104.72,-1059"/>
</a>
</g>
</g>
<!-- Node3&#45;&gt;Node2 -->
<g id="edge2_Node000002_Node000003" class="edge">
<title>Node3&#45;&gt;Node2</title>
<g id="a_edge2_Node000002_Node000003"><a xlink:title=" ">
<path fill="none" stroke="#63b8ff" d="M104.52,-1062.7C79.18,-1046.29 45.74,-1019.62 30.72,-986 -17.1,-878.92 -0.02,-743.45 22.95,-648.08"/>
<polygon fill="none" stroke="#63b8ff" points="22.97,-648.01 20.53,-641.23 25.86,-636.36 28.3,-643.15 22.97,-648.01"/>
</a>
</g>
<text text-anchor="middle" x="28.75" y="-778" font-family="Helvetica,sans-Serif" font-size="10.00" fill="grey"> &#45;_identifier</text>
<text text-anchor="middle" x="28.75" y="-768" font-family="Helvetica,sans-Serif" font-size="10.00" fill="grey">&#45;_language</text>
<text text-anchor="middle" x="28.75" y="-758" font-family="Helvetica,sans-Serif" font-size="10.00" fill="grey">&#45;_title</text>
</g>
<!-- Node6 -->
<g id="Node000006" class="node">
<title>Node6</title>
<g id="a_Node000006"><a xlink:href="classepub_1_1creator.html" target="_top" xlink:title=" ">
<polygon fill="white" stroke="transparent" points="137.22,-986 40.22,-986 40.22,-804 137.22,-804 137.22,-986"/>
<text text-anchor="start" x="59.76" y="-974" font-family="Helvetica,sans-Serif" font-size="10.00">epub::creator</text>
<text text-anchor="start" x="87.83" y="-960" font-family="Helvetica,sans-Serif" font-size="10.00"> </text>
<text text-anchor="start" x="44.3" y="-946" font-family="Helvetica,sans-Serif" font-size="10.00">+</text>
<text text-anchor="start" x="53.72" y="-946" font-family="Helvetica,sans-Serif" font-size="10.00">creator()</text>
<text text-anchor="start" x="44.3" y="-932" font-family="Helvetica,sans-Serif" font-size="10.00">+</text>
<text text-anchor="start" x="53.72" y="-932" font-family="Helvetica,sans-Serif" font-size="10.00">creator()</text>
<text text-anchor="start" x="44.3" y="-918" font-family="Helvetica,sans-Serif" font-size="10.00">+</text>
<text text-anchor="start" x="53.72" y="-918" font-family="Helvetica,sans-Serif" font-size="10.00">creator()</text>
<text text-anchor="start" x="44.3" y="-904" font-family="Helvetica,sans-Serif" font-size="10.00">+</text>
<text text-anchor="start" x="53.72" y="-904" font-family="Helvetica,sans-Serif" font-size="10.00">operator=()</text>
<text text-anchor="start" x="44.3" y="-890" font-family="Helvetica,sans-Serif" font-size="10.00">+</text>
<text text-anchor="start" x="53.72" y="-890" font-family="Helvetica,sans-Serif" font-size="10.00">operator=()</text>
<text text-anchor="start" x="44.3" y="-876" font-family="Helvetica,sans-Serif" font-size="10.00">+</text>
<text text-anchor="start" x="53.72" y="-876" font-family="Helvetica,sans-Serif" font-size="10.00">operator const std</text>
<text text-anchor="start" x="53.72" y="-866" font-family="Helvetica,sans-Serif" font-size="10.00">::u8string &amp;()</text>
<text text-anchor="start" x="44.3" y="-852" font-family="Helvetica,sans-Serif" font-size="10.00">+</text>
<text text-anchor="start" x="53.72" y="-852" font-family="Helvetica,sans-Serif" font-size="10.00">file_as()</text>
<text text-anchor="start" x="44.3" y="-838" font-family="Helvetica,sans-Serif" font-size="10.00">+</text>
<text text-anchor="start" x="53.72" y="-838" font-family="Helvetica,sans-Serif" font-size="10.00">file_as()</text>
<text text-anchor="start" x="44.3" y="-824" font-family="Helvetica,sans-Serif" font-size="10.00">+</text>
<text text-anchor="start" x="53.72" y="-824" font-family="Helvetica,sans-Serif" font-size="10.00">role()</text>
<text text-anchor="start" x="44.3" y="-810" font-family="Helvetica,sans-Serif" font-size="10.00">+</text>
<text text-anchor="start" x="53.72" y="-810" font-family="Helvetica,sans-Serif" font-size="10.00">role()</text>
<polygon fill="#666666" stroke="#666666" points="40.72,-970 40.72,-970 137.72,-970 137.72,-970 40.72,-970"/>
<polygon fill="#666666" stroke="#666666" points="40.72,-956 40.72,-956 137.72,-956 137.72,-956 40.72,-956"/>
<polygon fill="none" stroke="#666666" points="40.22,-804 40.22,-986 137.22,-986 137.22,-804 40.22,-804"/>
</a>
</g>
</g>
<!-- Node3&#45;&gt;Node6 -->
<g id="edge6_Node000006_Node000003" class="edge">
<title>Node3&#45;&gt;Node6</title>
<g id="a_edge6_Node000006_Node000003"><a xlink:title=" ">
<path fill="none" stroke="#63b8ff" d="M121.28,-1058.93C116.63,-1051.33 111.96,-1042.58 108.93,-1034 104.94,-1022.7 101.73,-1010.61 99.16,-998.46"/>
<polygon fill="none" stroke="#63b8ff" points="99.09,-998.09 94.02,-992.97 96.79,-986.31 101.87,-991.44 99.09,-998.09"/>
</a>
</g>
<text text-anchor="middle" x="131.12" y="-1026" font-family="Helvetica,sans-Serif" font-size="10.00" fill="grey"> &#45;_creator</text>
<text text-anchor="middle" x="131.12" y="-1016" font-family="Helvetica,sans-Serif" font-size="10.00" fill="grey">&#45;_file_as</text>
<text text-anchor="middle" x="131.12" y="-1006" font-family="Helvetica,sans-Serif" font-size="10.00" fill="grey">&#45;_role</text>
</g>
<!-- Node8 -->
<g id="Node000008" class="node">
<title>Node8</title>
<g id="a_Node000008"><a xlink:title=" ">
<polygon fill="white" stroke="transparent" points="231.72,-562 117.72,-562 117.72,-496 231.72,-496 231.72,-562"/>
<text text-anchor="start" x="122.61" y="-550" font-family="Helvetica,sans-Serif" font-size="10.00">std::map&lt; std::u8string,</text>
<text text-anchor="start" x="122.61" y="-540" font-family="Helvetica,sans-Serif" font-size="10.00"> std::shared_ptr&lt; epub</text>
<text text-anchor="start" x="132.21" y="-530" font-family="Helvetica,sans-Serif" font-size="10.00">::manifest::item &gt; &gt;</text>
<text text-anchor="start" x="173.33" y="-516" font-family="Helvetica,sans-Serif" font-size="10.00"> </text>
<text text-anchor="start" x="173.33" y="-502" font-family="Helvetica,sans-Serif" font-size="10.00"> </text>
<polygon fill="#666666" stroke="#666666" points="117.72,-526 117.72,-526 231.72,-526 231.72,-526 117.72,-526"/>
<polygon fill="#666666" stroke="#666666" points="117.72,-512 117.72,-512 231.72,-512 231.72,-512 117.72,-512"/>
<polygon fill="none" stroke="#666666" points="117.72,-496 117.72,-562 231.72,-562 231.72,-496 117.72,-496"/>
</a>
</g>
</g>
<!-- Node3&#45;&gt;Node8 -->
<g id="edge9_Node000008_Node000003" class="edge">
<title>Node3&#45;&gt;Node8</title>
<g id="a_edge9_Node000008_Node000003"><a xlink:title=" ">
<path fill="none" stroke="#63b8ff" d="M145.12,-1058.83C147.7,-1051.09 150.24,-1042.26 151.72,-1034 181.76,-866.36 179.44,-662.63 176.58,-574.34"/>
<polygon fill="none" stroke="#63b8ff" points="176.58,-574.16 172.37,-568.3 176.16,-562.17 180.37,-568.02 176.58,-574.16"/>
</a>
</g>
<text text-anchor="middle" x="192.31" y="-768" font-family="Helvetica,sans-Serif" font-size="10.00" fill="grey"> +keys</text>
</g>
<!-- Node10 -->
<g id="Node000010" class="node">
<title>Node10</title>
<g id="a_Node000010"><a xlink:href="classepub_1_1manifest_1_1item.html" target="_top" xlink:title=" ">
<polygon fill="white" stroke="transparent" points="297.72,-946 197.72,-946 197.72,-844 297.72,-844 297.72,-946"/>
<text text-anchor="start" x="202.7" y="-934" font-family="Helvetica,sans-Serif" font-size="10.00">epub::manifest::item</text>
<text text-anchor="start" x="210.56" y="-920" font-family="Helvetica,sans-Serif" font-size="10.00">&#45;</text>
<text text-anchor="start" x="226.72" y="-920" font-family="Helvetica,sans-Serif" font-size="10.00">_path</text>
<text text-anchor="start" x="209.3" y="-906" font-family="Helvetica,sans-Serif" font-size="10.00">+</text>
<text text-anchor="start" x="226.72" y="-906" font-family="Helvetica,sans-Serif" font-size="10.00">item()</text>
<text text-anchor="start" x="209.3" y="-892" font-family="Helvetica,sans-Serif" font-size="10.00">+</text>
<text text-anchor="start" x="226.72" y="-892" font-family="Helvetica,sans-Serif" font-size="10.00">id()</text>
<text text-anchor="start" x="209.3" y="-878" font-family="Helvetica,sans-Serif" font-size="10.00">+</text>
<text text-anchor="start" x="226.72" y="-878" font-family="Helvetica,sans-Serif" font-size="10.00">path()</text>
<text text-anchor="start" x="209.3" y="-864" font-family="Helvetica,sans-Serif" font-size="10.00">+</text>
<text text-anchor="start" x="226.72" y="-864" font-family="Helvetica,sans-Serif" font-size="10.00">properties()</text>
<text text-anchor="start" x="209.3" y="-850" font-family="Helvetica,sans-Serif" font-size="10.00">+</text>
<text text-anchor="start" x="226.72" y="-850" font-family="Helvetica,sans-Serif" font-size="10.00">metadata()</text>
<polygon fill="#666666" stroke="#666666" points="197.72,-930 197.72,-930 297.72,-930 297.72,-930 197.72,-930"/>
<polygon fill="#666666" stroke="#666666" points="197.72,-916 197.72,-916 224.72,-916 224.72,-916 197.72,-916"/>
<polygon fill="#666666" stroke="#666666" points="224.72,-916 224.72,-916 297.72,-916 297.72,-916 224.72,-916"/>
<polygon fill="none" stroke="#666666" points="197.72,-844 197.72,-946 297.72,-946 297.72,-844 197.72,-844"/>
</a>
</g>
</g>
<!-- Node3&#45;&gt;Node10 -->
<g id="edge12_Node000010_Node000003" class="edge">
<title>Node3&#45;&gt;Node10</title>
<g id="a_edge12_Node000010_Node000003"><a xlink:title=" ">
<path fill="none" stroke="#63b8ff" d="M157.36,-1058.89C163.94,-1051.29 171,-1042.55 176.72,-1034 192.85,-1009.93 207.95,-981.73 220.05,-957.12"/>
<polygon fill="none" stroke="#63b8ff" points="220.16,-956.89 219.17,-949.75 225.39,-946.09 226.37,-953.24 220.16,-956.89"/>
</a>
</g>
<text text-anchor="middle" x="221.4" y="-1021" font-family="Helvetica,sans-Serif" font-size="10.00" fill="grey"> &#45;_id</text>
<text text-anchor="middle" x="221.4" y="-1011" font-family="Helvetica,sans-Serif" font-size="10.00" fill="grey">&#45;_properties</text>
</g>
<!-- Node4 -->
<g id="Node000004" class="node">
<title>Node4</title>
<g id="a_Node000004"><a xlink:title=" ">
<polygon fill="white" stroke="transparent" points="180.72,-1205 92.72,-1205 92.72,-1149 180.72,-1149 180.72,-1205"/>
<text text-anchor="start" x="97.68" y="-1193" font-family="Helvetica,sans-Serif" font-size="10.00">std::basic_string&lt;</text>
<text text-anchor="start" x="120.19" y="-1183" font-family="Helvetica,sans-Serif" font-size="10.00"> Char &gt;</text>
<text text-anchor="start" x="135.33" y="-1169" font-family="Helvetica,sans-Serif" font-size="10.00"> </text>
<text text-anchor="start" x="135.33" y="-1155" font-family="Helvetica,sans-Serif" font-size="10.00"> </text>
<polygon fill="#666666" stroke="#666666" points="92.72,-1179 92.72,-1179 180.72,-1179 180.72,-1179 92.72,-1179"/>
<polygon fill="#666666" stroke="#666666" points="92.72,-1165 92.72,-1165 180.72,-1165 180.72,-1165 92.72,-1165"/>
<polygon fill="none" stroke="#666666" points="92.72,-1149 92.72,-1205 180.72,-1205 180.72,-1149 92.72,-1149"/>
</a>
</g>
</g>
<!-- Node4&#45;&gt;Node3 -->
<g id="edge3_Node000003_Node000004" class="edge">
<title>Node4&#45;&gt;Node3</title>
<g id="a_edge3_Node000003_Node000004"><a xlink:title=" ">
<path fill="none" stroke="#63b8ff" d="M136.72,-1138.51C136.72,-1127.21 136.72,-1115.18 136.72,-1105.21"/>
<polygon fill="none" stroke="#63b8ff" points="133.22,-1138.6 136.72,-1148.6 140.22,-1138.6 133.22,-1138.6"/>
</a>
</g>
</g>
<!-- Node5 -->
<g id="Node000005" class="node">
<title>Node5</title>
<g id="a_Node000005"><a xlink:title=" ">
<polygon fill="white" stroke="transparent" points="132.72,-738 40.72,-738 40.72,-682 132.72,-682 132.72,-738"/>
<text text-anchor="start" x="45.45" y="-726" font-family="Helvetica,sans-Serif" font-size="10.00">std::vector&lt; epub::</text>
<text text-anchor="start" x="66.85" y="-716" font-family="Helvetica,sans-Serif" font-size="10.00">creator &gt;</text>
<text text-anchor="start" x="85.33" y="-702" font-family="Helvetica,sans-Serif" font-size="10.00"> </text>
<text text-anchor="start" x="85.33" y="-688" font-family="Helvetica,sans-Serif" font-size="10.00"> </text>
<polygon fill="#666666" stroke="#666666" points="40.72,-712 40.72,-712 132.72,-712 132.72,-712 40.72,-712"/>
<polygon fill="#666666" stroke="#666666" points="40.72,-698 40.72,-698 132.72,-698 132.72,-698 40.72,-698"/>
<polygon fill="none" stroke="#666666" points="40.72,-682 40.72,-738 132.72,-738 132.72,-682 40.72,-682"/>
</a>
</g>
</g>
<!-- Node5&#45;&gt;Node2 -->
<g id="edge4_Node000002_Node000005" class="edge">
<title>Node5&#45;&gt;Node2</title>
<g id="a_edge4_Node000002_Node000005"><a xlink:title=" ">
<path fill="none" stroke="#63b8ff" d="M82.62,-681.81C81.17,-672.18 79.43,-660.63 77.56,-648.26"/>
<polygon fill="none" stroke="#63b8ff" points="77.53,-648.06 72.68,-642.72 75.74,-636.19 80.59,-641.53 77.53,-648.06"/>
</a>
</g>
<text text-anchor="middle" x="103.62" y="-656" font-family="Helvetica,sans-Serif" font-size="10.00" fill="grey"> &#45;_creators</text>
</g>
<!-- Node6&#45;&gt;Node5 -->
<g id="edge5_Node000005_Node000006" class="edge">
<title>Node6&#45;&gt;Node5</title>
<g id="a_edge5_Node000005_Node000006"><a xlink:title=" ">
<path fill="none" stroke="#63b8ff" d="M87.74,-803.84C87.53,-785.09 87.33,-766.27 87.16,-750.52"/>
<polygon fill="none" stroke="#63b8ff" points="87.15,-750.08 83.09,-744.12 87.02,-738.08 91.08,-744.04 87.15,-750.08"/>
</a>
</g>
<text text-anchor="middle" x="112.32" y="-768" font-family="Helvetica,sans-Serif" font-size="10.00" fill="grey"> +elements</text>
</g>
<!-- Node7 -->
<g id="Node000007" class="node">
<title>Node7</title>
<g id="a_Node000007"><a xlink:href="classepub_1_1manifest.html" target="_top" xlink:title=" ">
<polygon fill="white" stroke="transparent" points="212.22,-376 137.22,-376 137.22,-176 212.22,-176 212.22,-376"/>
<text text-anchor="start" x="142.43" y="-364" font-family="Helvetica,sans-Serif" font-size="10.00">epub::manifest</text>
<text text-anchor="start" x="173.83" y="-350" font-family="Helvetica,sans-Serif" font-size="10.00"> </text>
<text text-anchor="start" x="143.3" y="-336" font-family="Helvetica,sans-Serif" font-size="10.00">+</text>
<text text-anchor="start" x="154.72" y="-336" font-family="Helvetica,sans-Serif" font-size="10.00">manifest()</text>
<text text-anchor="start" x="143.3" y="-322" font-family="Helvetica,sans-Serif" font-size="10.00">+</text>
<text text-anchor="start" x="154.72" y="-322" font-family="Helvetica,sans-Serif" font-size="10.00">manifest()</text>
<text text-anchor="start" x="143.3" y="-308" font-family="Helvetica,sans-Serif" font-size="10.00">+</text>
<text text-anchor="start" x="154.72" y="-308" font-family="Helvetica,sans-Serif" font-size="10.00">manifest()</text>
<text text-anchor="start" x="143.3" y="-294" font-family="Helvetica,sans-Serif" font-size="10.00">+</text>
<text text-anchor="start" x="154.72" y="-294" font-family="Helvetica,sans-Serif" font-size="10.00">~manifest()</text>
<text text-anchor="start" x="143.3" y="-280" font-family="Helvetica,sans-Serif" font-size="10.00">+</text>
<text text-anchor="start" x="154.72" y="-280" font-family="Helvetica,sans-Serif" font-size="10.00">operator=()</text>
<text text-anchor="start" x="143.3" y="-266" font-family="Helvetica,sans-Serif" font-size="10.00">+</text>
<text text-anchor="start" x="154.72" y="-266" font-family="Helvetica,sans-Serif" font-size="10.00">operator=()</text>
<text text-anchor="start" x="143.3" y="-252" font-family="Helvetica,sans-Serif" font-size="10.00">+</text>
<text text-anchor="start" x="154.72" y="-252" font-family="Helvetica,sans-Serif" font-size="10.00">add()</text>
<text text-anchor="start" x="143.3" y="-238" font-family="Helvetica,sans-Serif" font-size="10.00">+</text>
<text text-anchor="start" x="154.72" y="-238" font-family="Helvetica,sans-Serif" font-size="10.00">begin()</text>
<text text-anchor="start" x="143.3" y="-224" font-family="Helvetica,sans-Serif" font-size="10.00">+</text>
<text text-anchor="start" x="154.72" y="-224" font-family="Helvetica,sans-Serif" font-size="10.00">end()</text>
<text text-anchor="start" x="143.3" y="-210" font-family="Helvetica,sans-Serif" font-size="10.00">+</text>
<text text-anchor="start" x="154.72" y="-210" font-family="Helvetica,sans-Serif" font-size="10.00">front()</text>
<text text-anchor="start" x="143.3" y="-196" font-family="Helvetica,sans-Serif" font-size="10.00">+</text>
<text text-anchor="start" x="154.72" y="-196" font-family="Helvetica,sans-Serif" font-size="10.00">back()</text>
<text text-anchor="start" x="143.3" y="-182" font-family="Helvetica,sans-Serif" font-size="10.00">+</text>
<text text-anchor="start" x="154.72" y="-182" font-family="Helvetica,sans-Serif" font-size="10.00">at()</text>
<polygon fill="#666666" stroke="#666666" points="137.72,-360 137.72,-360 212.72,-360 212.72,-360 137.72,-360"/>
<polygon fill="#666666" stroke="#666666" points="137.72,-346 137.72,-346 212.72,-346 212.72,-346 137.72,-346"/>
<polygon fill="none" stroke="#666666" points="137.22,-176 137.22,-376 212.22,-376 212.22,-176 137.22,-176"/>
</a>
</g>
</g>
<!-- Node7&#45;&gt;Node1 -->
<g id="edge7_Node000001_Node000007" class="edge">
<title>Node7&#45;&gt;Node1</title>
<g id="a_edge7_Node000001_Node000007"><a xlink:title=" ">
<path fill="none" stroke="#63b8ff" d="M174.72,-175.7C174.72,-164.45 174.72,-153.12 174.72,-142.24"/>
<polygon fill="none" stroke="#63b8ff" points="174.72,-142.16 170.72,-136.16 174.72,-130.16 178.72,-136.16 174.72,-142.16"/>
</a>
</g>
<text text-anchor="middle" x="199.46" y="-150" font-family="Helvetica,sans-Serif" font-size="10.00" fill="grey"> &#45;_manifest</text>
</g>
<!-- Node8&#45;&gt;Node7 -->
<g id="edge8_Node000007_Node000008" class="edge">
<title>Node8&#45;&gt;Node7</title>
<g id="a_edge8_Node000007_Node000008"><a xlink:title=" ">
<path fill="none" stroke="#63b8ff" d="M174.72,-495.96C174.72,-468.59 174.72,-427.54 174.72,-388.36"/>
<polygon fill="none" stroke="#63b8ff" points="174.72,-388.27 170.72,-382.27 174.72,-376.27 178.72,-382.27 174.72,-388.27"/>
</a>
</g>
<text text-anchor="middle" x="192.5" y="-396" font-family="Helvetica,sans-Serif" font-size="10.00" fill="grey"> &#45;_items</text>
</g>
<!-- Node9 -->
<g id="Node000009" class="node">
<title>Node9</title>
<g id="a_Node000009"><a xlink:title=" ">
<polygon fill="white" stroke="transparent" points="301.22,-738 194.22,-738 194.22,-682 301.22,-682 301.22,-738"/>
<text text-anchor="start" x="199.44" y="-726" font-family="Helvetica,sans-Serif" font-size="10.00">std::shared_ptr&lt; epub</text>
<text text-anchor="start" x="210.02" y="-716" font-family="Helvetica,sans-Serif" font-size="10.00">::manifest::item &gt;</text>
<text text-anchor="start" x="246.83" y="-702" font-family="Helvetica,sans-Serif" font-size="10.00"> </text>
<text text-anchor="start" x="207.3" y="-688" font-family="Helvetica,sans-Serif" font-size="10.00">+</text>
<text text-anchor="start" x="225.72" y="-688" font-family="Helvetica,sans-Serif" font-size="10.00">operator&#45;&gt;()</text>
<polygon fill="#666666" stroke="#666666" points="194.72,-712 194.72,-712 301.72,-712 301.72,-712 194.72,-712"/>
<polygon fill="#666666" stroke="#666666" points="194.72,-698 194.72,-698 301.72,-698 301.72,-698 194.72,-698"/>
<polygon fill="none" stroke="#666666" points="194.22,-682 194.22,-738 301.22,-738 301.22,-682 194.22,-682"/>
</a>
</g>
</g>
<!-- Node9&#45;&gt;Node8 -->
<g id="edge10_Node000008_Node000009" class="edge">
<title>Node9&#45;&gt;Node8</title>
<g id="a_edge10_Node000008_Node000009"><a xlink:title=" ">
<path fill="none" stroke="#63b8ff" d="M236.64,-681.81C224.93,-653.12 206.31,-607.46 192.54,-573.7"/>
<polygon fill="none" stroke="#63b8ff" points="192.43,-573.41 186.46,-569.37 187.9,-562.3 193.87,-566.34 192.43,-573.41"/>
</a>
</g>
<text text-anchor="middle" x="253.32" y="-656" font-family="Helvetica,sans-Serif" font-size="10.00" fill="grey"> +elements</text>
</g>
<!-- Node10&#45;&gt;Node9 -->
<g id="edge11_Node000009_Node000010" class="edge">
<title>Node10&#45;&gt;Node9</title>
<g id="a_edge11_Node000009_Node000010"><a xlink:title=" ">
<path fill="none" stroke="#63b8ff" d="M247.72,-843.99C247.72,-814.49 247.72,-777.67 247.72,-750.26"/>
<polygon fill="none" stroke="#63b8ff" points="247.72,-750.01 243.72,-744.01 247.72,-738.01 251.72,-744.01 247.72,-750.01"/>
</a>
</g>
<text text-anchor="middle" x="257.87" y="-768" font-family="Helvetica,sans-Serif" font-size="10.00" fill="grey"> +ptr</text>
</g>
<!-- Node11 -->
<g id="Node000011" class="node">
<title>Node11</title>
<g id="a_Node000011"><a xlink:href="structepub_1_1file__metadata.html" target="_top" xlink:title="A class for managing metadata key&#45;value pairs.">
<polygon fill="white" stroke="transparent" points="323.22,-1112 226.22,-1112 226.22,-1052 323.22,-1052 323.22,-1112"/>
<text text-anchor="start" x="231.3" y="-1100" font-family="Helvetica,sans-Serif" font-size="10.00">epub::file_metadata</text>
<text text-anchor="start" x="273.83" y="-1086" font-family="Helvetica,sans-Serif" font-size="10.00"> </text>
<text text-anchor="start" x="245.3" y="-1072" font-family="Helvetica,sans-Serif" font-size="10.00">+</text>
<text text-anchor="start" x="269.72" y="-1072" font-family="Helvetica,sans-Serif" font-size="10.00">get()</text>
<text text-anchor="start" x="245.3" y="-1058" font-family="Helvetica,sans-Serif" font-size="10.00">+</text>
<text text-anchor="start" x="269.72" y="-1058" font-family="Helvetica,sans-Serif" font-size="10.00">get()</text>
<polygon fill="#666666" stroke="#666666" points="226.72,-1096 226.72,-1096 323.72,-1096 323.72,-1096 226.72,-1096"/>
<polygon fill="#666666" stroke="#666666" points="226.72,-1082 226.72,-1082 323.72,-1082 323.72,-1082 226.72,-1082"/>
<polygon fill="none" stroke="#666666" points="226.22,-1052 226.22,-1112 323.22,-1112 323.22,-1052 226.22,-1052"/>
</a>
</g>
</g>
<!-- Node11&#45;&gt;Node10 -->
<g id="edge13_Node000010_Node000011" class="edge">
<title>Node11&#45;&gt;Node10</title>
<g id="a_edge13_Node000010_Node000011"><a xlink:title=" ">
<path fill="none" stroke="#63b8ff" d="M270.45,-1051.69C266.8,-1026.68 261.42,-989.88 256.82,-958.33"/>
<polygon fill="none" stroke="#63b8ff" points="256.77,-957.96 251.94,-952.6 255.03,-946.08 259.86,-951.44 256.77,-957.96"/>
</a>
</g>
<text text-anchor="middle" x="294.41" y="-1016" font-family="Helvetica,sans-Serif" font-size="10.00" fill="grey"> &#45;_metadata</text>
</g>
<!-- Node12 -->
<g id="Node000012" class="node">
<title>Node12</title>
<g id="a_Node000012"><a xlink:title=" ">
<polygon fill="white" stroke="transparent" points="316.22,-1200 233.22,-1200 233.22,-1154 316.22,-1154 316.22,-1200"/>
<text text-anchor="start" x="238.44" y="-1188" font-family="Helvetica,sans-Serif" font-size="10.00">std::map&lt; K, T &gt;</text>
<text text-anchor="start" x="273.83" y="-1174" font-family="Helvetica,sans-Serif" font-size="10.00"> </text>
<text text-anchor="start" x="273.83" y="-1160" font-family="Helvetica,sans-Serif" font-size="10.00"> </text>
<polygon fill="#666666" stroke="#666666" points="233.72,-1184 233.72,-1184 316.72,-1184 316.72,-1184 233.72,-1184"/>
<polygon fill="#666666" stroke="#666666" points="233.72,-1170 233.72,-1170 316.72,-1170 316.72,-1170 233.72,-1170"/>
<polygon fill="none" stroke="#666666" points="233.22,-1154 233.22,-1200 316.22,-1200 316.22,-1154 233.22,-1154"/>
</a>
</g>
</g>
<!-- Node12&#45;&gt;Node11 -->
<g id="edge14_Node000011_Node000012" class="edge">
<title>Node12&#45;&gt;Node11</title>
<g id="a_edge14_Node000011_Node000012"><a xlink:title=" ">
<path fill="none" stroke="#63b8ff" d="M274.72,-1143.76C274.72,-1133.53 274.72,-1122.28 274.72,-1112.27"/>
<polygon fill="none" stroke="#63b8ff" points="271.22,-1143.96 274.72,-1153.96 278.22,-1143.96 271.22,-1143.96"/>
</a>
</g>
</g>
<!-- Node13 -->
<g id="Node000013" class="node">
<title>Node13</title>
<g id="a_Node000013"><a xlink:title=" ">
<polygon fill="white" stroke="transparent" points="256.72,-1297 240.72,-1297 240.72,-1251 256.72,-1251 256.72,-1297"/>
<text text-anchor="start" x="245.39" y="-1285" font-family="Helvetica,sans-Serif" font-size="10.00">K</text>
<text text-anchor="start" x="247.33" y="-1271" font-family="Helvetica,sans-Serif" font-size="10.00"> </text>
<text text-anchor="start" x="247.33" y="-1257" font-family="Helvetica,sans-Serif" font-size="10.00"> </text>
<polygon fill="#666666" stroke="#666666" points="240.72,-1281 240.72,-1281 256.72,-1281 256.72,-1281 240.72,-1281"/>
<polygon fill="#666666" stroke="#666666" points="240.72,-1267 240.72,-1267 256.72,-1267 256.72,-1267 240.72,-1267"/>
<polygon fill="none" stroke="#666666" points="240.72,-1251 240.72,-1297 256.72,-1297 256.72,-1251 240.72,-1251"/>
</a>
</g>
</g>
<!-- Node13&#45;&gt;Node12 -->
<g id="edge15_Node000012_Node000013" class="edge">
<title>Node13&#45;&gt;Node12</title>
<g id="a_edge15_Node000012_Node000013"><a xlink:title=" ">
<path fill="none" stroke="#63b8ff" d="M246.77,-1250.77C246.6,-1241.99 247.15,-1231.89 249.54,-1223 250.59,-1219.11 252.05,-1215.2 253.74,-1211.39"/>
<polygon fill="none" stroke="#63b8ff" points="253.89,-1211.1 253.05,-1203.94 259.34,-1200.41 260.18,-1207.57 253.89,-1211.1"/>
</a>
</g>
<text text-anchor="middle" x="264.31" y="-1225" font-family="Helvetica,sans-Serif" font-size="10.00" fill="grey"> +keys</text>
</g>
<!-- Node14 -->
<g id="Node000014" class="node">
<title>Node14</title>
<g id="a_Node000014"><a xlink:title=" ">
<polygon fill="white" stroke="transparent" points="308.72,-1297 292.72,-1297 292.72,-1251 308.72,-1251 308.72,-1297"/>
<text text-anchor="start" x="297.67" y="-1285" font-family="Helvetica,sans-Serif" font-size="10.00">T</text>
<text text-anchor="start" x="299.33" y="-1271" font-family="Helvetica,sans-Serif" font-size="10.00"> </text>
<text text-anchor="start" x="299.33" y="-1257" font-family="Helvetica,sans-Serif" font-size="10.00"> </text>
<polygon fill="#666666" stroke="#666666" points="292.72,-1281 292.72,-1281 308.72,-1281 308.72,-1281 292.72,-1281"/>
<polygon fill="#666666" stroke="#666666" points="292.72,-1267 292.72,-1267 308.72,-1267 308.72,-1267 292.72,-1267"/>
<polygon fill="none" stroke="#666666" points="292.72,-1251 292.72,-1297 308.72,-1297 308.72,-1251 292.72,-1251"/>
</a>
</g>
</g>
<!-- Node14&#45;&gt;Node12 -->
<g id="edge16_Node000012_Node000014" class="edge">
<title>Node14&#45;&gt;Node12</title>
<g id="a_edge16_Node000012_Node000014"><a xlink:title=" ">
<path fill="none" stroke="#63b8ff" d="M294.69,-1250.97C291.53,-1239.42 287.59,-1225.02 284.05,-1212.07"/>
<polygon fill="none" stroke="#63b8ff" points="283.98,-1211.82 278.54,-1207.09 280.81,-1200.24 286.25,-1204.97 283.98,-1211.82"/>
</a>
</g>
<text text-anchor="middle" x="314.32" y="-1225" font-family="Helvetica,sans-Serif" font-size="10.00" fill="grey"> +elements</text>
</g>
<!-- Node15 -->
<g id="Node000015" class="node">
<title>Node15</title>
<g id="a_Node000015"><a xlink:href="classepub_1_1spine.html" target="_top" xlink:title=" ">
<polygon fill="white" stroke="transparent" points="323.72,-355 257.72,-355 257.72,-197 323.72,-197 323.72,-355"/>
<text text-anchor="start" x="264.87" y="-343" font-family="Helvetica,sans-Serif" font-size="10.00">epub::spine</text>
<text text-anchor="start" x="289.33" y="-329" font-family="Helvetica,sans-Serif" font-size="10.00"> </text>
<text text-anchor="start" x="261.3" y="-315" font-family="Helvetica,sans-Serif" font-size="10.00">+</text>
<text text-anchor="start" x="270.72" y="-315" font-family="Helvetica,sans-Serif" font-size="10.00">spine()</text>
<text text-anchor="start" x="261.3" y="-301" font-family="Helvetica,sans-Serif" font-size="10.00">+</text>
<text text-anchor="start" x="270.72" y="-301" font-family="Helvetica,sans-Serif" font-size="10.00">spine()</text>
<text text-anchor="start" x="261.3" y="-287" font-family="Helvetica,sans-Serif" font-size="10.00">+</text>
<text text-anchor="start" x="270.72" y="-287" font-family="Helvetica,sans-Serif" font-size="10.00">spine()</text>
<text text-anchor="start" x="261.3" y="-273" font-family="Helvetica,sans-Serif" font-size="10.00">+</text>
<text text-anchor="start" x="270.72" y="-273" font-family="Helvetica,sans-Serif" font-size="10.00">~spine()</text>
<text text-anchor="start" x="261.3" y="-259" font-family="Helvetica,sans-Serif" font-size="10.00">+</text>
<text text-anchor="start" x="270.72" y="-259" font-family="Helvetica,sans-Serif" font-size="10.00">operator=()</text>
<text text-anchor="start" x="261.3" y="-245" font-family="Helvetica,sans-Serif" font-size="10.00">+</text>
<text text-anchor="start" x="270.72" y="-245" font-family="Helvetica,sans-Serif" font-size="10.00">operator=()</text>
<text text-anchor="start" x="261.3" y="-231" font-family="Helvetica,sans-Serif" font-size="10.00">+</text>
<text text-anchor="start" x="270.72" y="-231" font-family="Helvetica,sans-Serif" font-size="10.00">add()</text>
<text text-anchor="start" x="261.3" y="-217" font-family="Helvetica,sans-Serif" font-size="10.00">+</text>
<text text-anchor="start" x="270.72" y="-217" font-family="Helvetica,sans-Serif" font-size="10.00">begin()</text>
<text text-anchor="start" x="261.3" y="-203" font-family="Helvetica,sans-Serif" font-size="10.00">+</text>
<text text-anchor="start" x="270.72" y="-203" font-family="Helvetica,sans-Serif" font-size="10.00">end()</text>
<polygon fill="#666666" stroke="#666666" points="257.72,-339 257.72,-339 323.72,-339 323.72,-339 257.72,-339"/>
<polygon fill="#666666" stroke="#666666" points="257.72,-325 257.72,-325 323.72,-325 323.72,-325 257.72,-325"/>
<polygon fill="none" stroke="#666666" points="257.72,-197 257.72,-355 323.72,-355 323.72,-197 257.72,-197"/>
</a>
</g>
</g>
<!-- Node15&#45;&gt;Node1 -->
<g id="edge17_Node000001_Node000015" class="edge">
<title>Node15&#45;&gt;Node1</title>
<g id="a_edge17_Node000001_Node000015"><a xlink:title=" ">
<path fill="none" stroke="#63b8ff" d="M257.63,-204.72C248.36,-186.06 238.01,-166.08 227.72,-148 224.89,-143.01 221.87,-137.91 218.78,-132.81"/>
<polygon fill="none" stroke="#63b8ff" points="218.65,-132.6 212.1,-129.6 212.35,-122.39 218.91,-125.4 218.65,-132.6"/>
</a>
</g>
<text text-anchor="middle" x="249.51" y="-150" font-family="Helvetica,sans-Serif" font-size="10.00" fill="grey"> &#45;_spine</text>
</g>
<!-- Node16 -->
<g id="Node000016" class="node">
<title>Node16</title>
<g id="a_Node000016"><a xlink:title=" ">
<polygon fill="white" stroke="transparent" points="361.72,-557 249.72,-557 249.72,-501 361.72,-501 361.72,-557"/>
<text text-anchor="start" x="254.45" y="-545" font-family="Helvetica,sans-Serif" font-size="10.00">std::vector&lt; weak_item</text>
<text text-anchor="start" x="292.8" y="-535" font-family="Helvetica,sans-Serif" font-size="10.00">_ptr &gt;</text>
<text text-anchor="start" x="266.8" y="-521" font-family="Helvetica,sans-Serif" font-size="10.00">+</text>
<text text-anchor="start" x="289.72" y="-521" font-family="Helvetica,sans-Serif" font-size="10.00">elements</text>
<text text-anchor="start" x="304.33" y="-507" font-family="Helvetica,sans-Serif" font-size="10.00"> </text>
<polygon fill="#666666" stroke="#666666" points="249.72,-531 249.72,-531 361.72,-531 361.72,-531 249.72,-531"/>
<polygon fill="#666666" stroke="#666666" points="249.72,-517 249.72,-517 287.72,-517 287.72,-517 249.72,-517"/>
<polygon fill="#666666" stroke="#666666" points="287.72,-517 287.72,-517 361.72,-517 361.72,-517 287.72,-517"/>
<polygon fill="none" stroke="#666666" points="249.72,-501 249.72,-557 361.72,-557 361.72,-501 249.72,-501"/>
</a>
</g>
</g>
<!-- Node16&#45;&gt;Node15 -->
<g id="edge18_Node000015_Node000016" class="edge">
<title>Node16&#45;&gt;Node15</title>
<g id="a_edge18_Node000015_Node000016"><a xlink:title=" ">
<path fill="none" stroke="#63b8ff" d="M304.09,-500.66C302.18,-468.75 298.93,-414.33 296.11,-367.17"/>
<polygon fill="none" stroke="#63b8ff" points="296.1,-367.01 291.75,-361.26 295.39,-355.03 299.74,-360.78 296.1,-367.01"/>
</a>
</g>
<text text-anchor="middle" x="316.5" y="-396" font-family="Helvetica,sans-Serif" font-size="10.00" fill="grey"> &#45;_items</text>
</g>
</g>
</svg>
