<?xml version="1.0" encoding="UTF-8" standalone="no"?>
<!DOCTYPE svg PUBLIC "-//W3C//DTD SVG 1.1//EN"
 "http://www.w3.org/Graphics/SVG/1.1/DTD/svg11.dtd">
<!-- Generated by graphviz version 2.48.0 (20210717.1556)
 -->
<!-- Title: epub::collection Pages: 1 -->
<svg width="134pt" height="413pt"
 viewBox="0.00 0.00 133.78 413.00" xmlns="http://www.w3.org/2000/svg" xmlns:xlink="http://www.w3.org/1999/xlink">
<g id="graph0" class="graph" transform="scale(1 1) rotate(0) translate(4 409)">
<title>epub::collection</title>
<!-- Node1 -->
<g id="Node000001" class="node">
<title>Node1</title>
<g id="a_Node000001"><a xlink:title="An indication that the publication is part of a larger set.">
<polygon fill="#999999" stroke="transparent" points="97,-210 0,-210 0,0 97,0 97,-210"/>
<text text-anchor="start" x="14.25" y="-198" font-family="Helvetica,sans-Serif" font-size="10.00">epub::collection</text>
<text text-anchor="start" x="5.33" y="-184" font-family="Helvetica,sans-Serif" font-size="10.00">&#45;</text>
<text text-anchor="start" x="13.5" y="-184" font-family="Helvetica,sans-Serif" font-size="10.00">_type</text>
<text text-anchor="start" x="4.08" y="-170" font-family="Helvetica,sans-Serif" font-size="10.00">+</text>
<text text-anchor="start" x="13.5" y="-170" font-family="Helvetica,sans-Serif" font-size="10.00">collection()</text>
<text text-anchor="start" x="4.08" y="-156" font-family="Helvetica,sans-Serif" font-size="10.00">+</text>
<text text-anchor="start" x="13.5" y="-156" font-family="Helvetica,sans-Serif" font-size="10.00">collection()</text>
<text text-anchor="start" x="4.08" y="-142" font-family="Helvetica,sans-Serif" font-size="10.00">+</text>
<text text-anchor="start" x="13.5" y="-142" font-family="Helvetica,sans-Serif" font-size="10.00">collection()</text>
<text text-anchor="start" x="4.08" y="-128" font-family="Helvetica,sans-Serif" font-size="10.00">+</text>
<text text-anchor="start" x="13.5" y="-128" font-family="Helvetica,sans-Serif" font-size="10.00">~collection()</text>
<text text-anchor="start" x="4.08" y="-114" font-family="Helvetica,sans-Serif" font-size="10.00">+</text>
<text text-anchor="start" x="13.5" y="-114" font-family="Helvetica,sans-Serif" font-size="10.00">operator=()</text>
<text text-anchor="start" x="4.08" y="-100" font-family="Helvetica,sans-Serif" font-size="10.00">+</text>
<text text-anchor="start" x="13.5" y="-100" font-family="Helvetica,sans-Serif" font-size="10.00">operator=()</text>
<text text-anchor="start" x="4.08" y="-86" font-family="Helvetica,sans-Serif" font-size="10.00">+</text>
<text text-anchor="start" x="13.5" y="-86" font-family="Helvetica,sans-Serif" font-size="10.00">operator const std</text>
<text text-anchor="start" x="13.5" y="-76" font-family="Helvetica,sans-Serif" font-size="10.00">::u8string &amp;()</text>
<text text-anchor="start" x="4.08" y="-62" font-family="Helvetica,sans-Serif" font-size="10.00">+</text>
<text text-anchor="start" x="13.5" y="-62" font-family="Helvetica,sans-Serif" font-size="10.00">type()</text>
<text text-anchor="start" x="4.08" y="-48" font-family="Helvetica,sans-Serif" font-size="10.00">+</text>
<text text-anchor="start" x="13.5" y="-48" font-family="Helvetica,sans-Serif" font-size="10.00">type()</text>
<text text-anchor="start" x="4.08" y="-34" font-family="Helvetica,sans-Serif" font-size="10.00">+</text>
<text text-anchor="start" x="13.5" y="-34" font-family="Helvetica,sans-Serif" font-size="10.00">group_position()</text>
<text text-anchor="start" x="4.08" y="-20" font-family="Helvetica,sans-Serif" font-size="10.00">+</text>
<text text-anchor="start" x="13.5" y="-20" font-family="Helvetica,sans-Serif" font-size="10.00">group_position()</text>
<text text-anchor="start" x="4.08" y="-6" font-family="Helvetica,sans-Serif" font-size="10.00">+</text>
<text text-anchor="start" x="13.5" y="-6" font-family="Helvetica,sans-Serif" font-size="10.00">group_position()</text>
<polygon fill="#666666" stroke="#666666" points="0.5,-194 0.5,-194 97.5,-194 97.5,-194 0.5,-194"/>
<polygon fill="#666666" stroke="#666666" points="0.5,-180 0.5,-180 11.5,-180 11.5,-180 0.5,-180"/>
<polygon fill="#666666" stroke="#666666" points="11.5,-180 11.5,-180 97.5,-180 97.5,-180 11.5,-180"/>
<polygon fill="none" stroke="#666666" points="0,0 0,-210 97,-210 97,0 0,0"/>
</a>
</g>
</g>
<!-- Node2 -->
<g id="Node000002" class="node">
<title>Node2</title>
<g id="a_Node000002"><a xlink:title=" ">
<polygon fill="white" stroke="transparent" points="80.5,-312 16.5,-312 16.5,-266 80.5,-266 80.5,-312"/>
<text text-anchor="start" x="21.26" y="-300" font-family="Helvetica,sans-Serif" font-size="10.00">std::u8string</text>
<text text-anchor="start" x="47.11" y="-286" font-family="Helvetica,sans-Serif" font-size="10.00"> </text>
<text text-anchor="start" x="47.11" y="-272" font-family="Helvetica,sans-Serif" font-size="10.00"> </text>
<polygon fill="#666666" stroke="#666666" points="16.5,-296 16.5,-296 80.5,-296 80.5,-296 16.5,-296"/>
<polygon fill="#666666" stroke="#666666" points="16.5,-282 16.5,-282 80.5,-282 80.5,-282 16.5,-282"/>
<polygon fill="none" stroke="#666666" points="16.5,-266 16.5,-312 80.5,-312 80.5,-266 16.5,-266"/>
</a>
</g>
</g>
<!-- Node2&#45;&gt;Node1 -->
<g id="edge1_Node000001_Node000002" class="edge">
<title>Node2&#45;&gt;Node1</title>
<g id="a_edge1_Node000001_Node000002"><a xlink:title=" ">
<path fill="none" stroke="#63b8ff" d="M48.5,-265.68C48.5,-254 48.5,-238.7 48.5,-222.2"/>
<polygon fill="none" stroke="#63b8ff" points="48.5,-222.01 44.5,-216.01 48.5,-210.01 52.5,-216.01 48.5,-222.01"/>
</a>
</g>
<text text-anchor="middle" x="87.14" y="-240" font-family="Helvetica,sans-Serif" font-size="10.00" fill="grey"> &#45;_group_position</text>
<text text-anchor="middle" x="87.14" y="-230" font-family="Helvetica,sans-Serif" font-size="10.00" fill="grey">&#45;_name</text>
</g>
<!-- Node3 -->
<g id="Node000003" class="node">
<title>Node3</title>
<g id="a_Node000003"><a xlink:title=" ">
<polygon fill="white" stroke="transparent" points="92.5,-405 4.5,-405 4.5,-349 92.5,-349 92.5,-405"/>
<text text-anchor="start" x="9.45" y="-393" font-family="Helvetica,sans-Serif" font-size="10.00">std::basic_string&lt;</text>
<text text-anchor="start" x="31.96" y="-383" font-family="Helvetica,sans-Serif" font-size="10.00"> Char &gt;</text>
<text text-anchor="start" x="47.11" y="-369" font-family="Helvetica,sans-Serif" font-size="10.00"> </text>
<text text-anchor="start" x="47.11" y="-355" font-family="Helvetica,sans-Serif" font-size="10.00"> </text>
<polygon fill="#666666" stroke="#666666" points="4.5,-379 4.5,-379 92.5,-379 92.5,-379 4.5,-379"/>
<polygon fill="#666666" stroke="#666666" points="4.5,-365 4.5,-365 92.5,-365 92.5,-365 4.5,-365"/>
<polygon fill="none" stroke="#666666" points="4.5,-349 4.5,-405 92.5,-405 92.5,-349 4.5,-349"/>
</a>
</g>
</g>
<!-- Node3&#45;&gt;Node2 -->
<g id="edge2_Node000002_Node000003" class="edge">
<title>Node3&#45;&gt;Node2</title>
<g id="a_edge2_Node000002_Node000003"><a xlink:title=" ">
<path fill="none" stroke="#63b8ff" d="M48.5,-338.78C48.5,-329.7 48.5,-320.27 48.5,-312.15"/>
<polygon fill="none" stroke="#63b8ff" points="45,-338.79 48.5,-348.79 52,-338.79 45,-338.79"/>
</a>
</g>
</g>
</g>
</svg>
