<?xml version="1.0" encoding="UTF-8" standalone="no"?>
<!DOCTYPE svg PUBLIC "-//W3C//DTD SVG 1.1//EN"
 "http://www.w3.org/Graphics/SVG/1.1/DTD/svg11.dtd">
<!-- Generated by graphviz version 2.48.0 (20210717.1556)
 -->
<!-- Title: epub::manifest Pages: 1 -->
<svg width="229pt" height="871pt"
 viewBox="0.00 0.00 228.68 871.00" xmlns="http://www.w3.org/2000/svg" xmlns:xlink="http://www.w3.org/1999/xlink">
<g id="graph0" class="graph" transform="scale(1 1) rotate(0) translate(4 867)">
<title>epub::manifest</title>
<!-- Node1 -->
<g id="Node000001" class="node">
<title>Node1</title>
<g id="a_Node000001"><a xlink:title=" ">
<polygon fill="#999999" stroke="transparent" points="189,-200 114,-200 114,0 189,0 189,-200"/>
<text text-anchor="start" x="119.2" y="-188" font-family="Helvetica,sans-Serif" font-size="10.00">epub::manifest</text>
<text text-anchor="start" x="150.61" y="-174" font-family="Helvetica,sans-Serif" font-size="10.00"> </text>
<text text-anchor="start" x="120.08" y="-160" font-family="Helvetica,sans-Serif" font-size="10.00">+</text>
<text text-anchor="start" x="131.5" y="-160" font-family="Helvetica,sans-Serif" font-size="10.00">manifest()</text>
<text text-anchor="start" x="120.08" y="-146" font-family="Helvetica,sans-Serif" font-size="10.00">+</text>
<text text-anchor="start" x="131.5" y="-146" font-family="Helvetica,sans-Serif" font-size="10.00">manifest()</text>
<text text-anchor="start" x="120.08" y="-132" font-family="Helvetica,sans-Serif" font-size="10.00">+</text>
<text text-anchor="start" x="131.5" y="-132" font-family="Helvetica,sans-Serif" font-size="10.00">manifest()</text>
<text text-anchor="start" x="120.08" y="-118" font-family="Helvetica,sans-Serif" font-size="10.00">+</text>
<text text-anchor="start" x="131.5" y="-118" font-family="Helvetica,sans-Serif" font-size="10.00">~manifest()</text>
<text text-anchor="start" x="120.08" y="-104" font-family="Helvetica,sans-Serif" font-size="10.00">+</text>
<text text-anchor="start" x="131.5" y="-104" font-family="Helvetica,sans-Serif" font-size="10.00">operator=()</text>
<text text-anchor="start" x="120.08" y="-90" font-family="Helvetica,sans-Serif" font-size="10.00">+</text>
<text text-anchor="start" x="131.5" y="-90" font-family="Helvetica,sans-Serif" font-size="10.00">operator=()</text>
<text text-anchor="start" x="120.08" y="-76" font-family="Helvetica,sans-Serif" font-size="10.00">+</text>
<text text-anchor="start" x="131.5" y="-76" font-family="Helvetica,sans-Serif" font-size="10.00">add()</text>
<text text-anchor="start" x="120.08" y="-62" font-family="Helvetica,sans-Serif" font-size="10.00">+</text>
<text text-anchor="start" x="131.5" y="-62" font-family="Helvetica,sans-Serif" font-size="10.00">begin()</text>
<text text-anchor="start" x="120.08" y="-48" font-family="Helvetica,sans-Serif" font-size="10.00">+</text>
<text text-anchor="start" x="131.5" y="-48" font-family="Helvetica,sans-Serif" font-size="10.00">end()</text>
<text text-anchor="start" x="120.08" y="-34" font-family="Helvetica,sans-Serif" font-size="10.00">+</text>
<text text-anchor="start" x="131.5" y="-34" font-family="Helvetica,sans-Serif" font-size="10.00">front()</text>
<text text-anchor="start" x="120.08" y="-20" font-family="Helvetica,sans-Serif" font-size="10.00">+</text>
<text text-anchor="start" x="131.5" y="-20" font-family="Helvetica,sans-Serif" font-size="10.00">back()</text>
<text text-anchor="start" x="120.08" y="-6" font-family="Helvetica,sans-Serif" font-size="10.00">+</text>
<text text-anchor="start" x="131.5" y="-6" font-family="Helvetica,sans-Serif" font-size="10.00">at()</text>
<polygon fill="#666666" stroke="#666666" points="114.5,-184 114.5,-184 189.5,-184 189.5,-184 114.5,-184"/>
<polygon fill="#666666" stroke="#666666" points="114.5,-170 114.5,-170 189.5,-170 189.5,-170 114.5,-170"/>
<polygon fill="none" stroke="#666666" points="114,0 114,-200 189,-200 189,0 114,0"/>
</a>
</g>
</g>
<!-- Node2 -->
<g id="Node000002" class="node">
<title>Node2</title>
<g id="a_Node000002"><a xlink:title=" ">
<polygon fill="white" stroke="transparent" points="208.5,-312 94.5,-312 94.5,-246 208.5,-246 208.5,-312"/>
<text text-anchor="start" x="99.39" y="-300" font-family="Helvetica,sans-Serif" font-size="10.00">std::map&lt; std::u8string,</text>
<text text-anchor="start" x="99.39" y="-290" font-family="Helvetica,sans-Serif" font-size="10.00"> std::shared_ptr&lt; epub</text>
<text text-anchor="start" x="108.98" y="-280" font-family="Helvetica,sans-Serif" font-size="10.00">::manifest::item &gt; &gt;</text>
<text text-anchor="start" x="150.11" y="-266" font-family="Helvetica,sans-Serif" font-size="10.00"> </text>
<text text-anchor="start" x="150.11" y="-252" font-family="Helvetica,sans-Serif" font-size="10.00"> </text>
<polygon fill="#666666" stroke="#666666" points="94.5,-276 94.5,-276 208.5,-276 208.5,-276 94.5,-276"/>
<polygon fill="#666666" stroke="#666666" points="94.5,-262 94.5,-262 208.5,-262 208.5,-262 94.5,-262"/>
<polygon fill="none" stroke="#666666" points="94.5,-246 94.5,-312 208.5,-312 208.5,-246 94.5,-246"/>
</a>
</g>
</g>
<!-- Node2&#45;&gt;Node1 -->
<g id="edge1_Node000001_Node000002" class="edge">
<title>Node2&#45;&gt;Node1</title>
<g id="a_edge1_Node000001_Node000002"><a xlink:title=" ">
<path fill="none" stroke="#63b8ff" d="M151.5,-245.95C151.5,-236.08 151.5,-224.62 151.5,-212.53"/>
<polygon fill="none" stroke="#63b8ff" points="151.5,-212.28 147.5,-206.28 151.5,-200.28 155.5,-206.28 151.5,-212.28"/>
</a>
</g>
<text text-anchor="middle" x="169.28" y="-220" font-family="Helvetica,sans-Serif" font-size="10.00" fill="grey"> &#45;_items</text>
</g>
<!-- Node3 -->
<g id="Node000003" class="node">
<title>Node3</title>
<g id="a_Node000003"><a xlink:title=" ">
<polygon fill="white" stroke="transparent" points="204.5,-671 140.5,-671 140.5,-625 204.5,-625 204.5,-671"/>
<text text-anchor="start" x="145.26" y="-659" font-family="Helvetica,sans-Serif" font-size="10.00">std::u8string</text>
<text text-anchor="start" x="171.11" y="-645" font-family="Helvetica,sans-Serif" font-size="10.00"> </text>
<text text-anchor="start" x="171.11" y="-631" font-family="Helvetica,sans-Serif" font-size="10.00"> </text>
<polygon fill="#666666" stroke="#666666" points="140.5,-655 140.5,-655 204.5,-655 204.5,-655 140.5,-655"/>
<polygon fill="#666666" stroke="#666666" points="140.5,-641 140.5,-641 204.5,-641 204.5,-641 140.5,-641"/>
<polygon fill="none" stroke="#666666" points="140.5,-625 140.5,-671 204.5,-671 204.5,-625 140.5,-625"/>
</a>
</g>
</g>
<!-- Node3&#45;&gt;Node2 -->
<g id="edge2_Node000002_Node000003" class="edge">
<title>Node3&#45;&gt;Node2</title>
<g id="a_edge2_Node000002_Node000003"><a xlink:title=" ">
<path fill="none" stroke="#63b8ff" d="M176.9,-624.64C186.36,-572.18 205.68,-437.53 178.5,-330 177.93,-327.74 177.23,-325.47 176.44,-323.22"/>
<polygon fill="none" stroke="#63b8ff" points="176.43,-323.2 170.43,-319.21 171.8,-312.13 177.81,-316.12 176.43,-323.2"/>
</a>
</g>
<text text-anchor="middle" x="206.09" y="-434" font-family="Helvetica,sans-Serif" font-size="10.00" fill="grey"> +keys</text>
</g>
<!-- Node6 -->
<g id="Node000006" class="node">
<title>Node6</title>
<g id="a_Node000006"><a xlink:href="classepub_1_1manifest_1_1item.html" target="_top" xlink:title=" ">
<polygon fill="white" stroke="transparent" points="160.5,-562 60.5,-562 60.5,-460 160.5,-460 160.5,-562"/>
<text text-anchor="start" x="65.48" y="-550" font-family="Helvetica,sans-Serif" font-size="10.00">epub::manifest::item</text>
<text text-anchor="start" x="73.33" y="-536" font-family="Helvetica,sans-Serif" font-size="10.00">&#45;</text>
<text text-anchor="start" x="89.5" y="-536" font-family="Helvetica,sans-Serif" font-size="10.00">_path</text>
<text text-anchor="start" x="72.08" y="-522" font-family="Helvetica,sans-Serif" font-size="10.00">+</text>
<text text-anchor="start" x="89.5" y="-522" font-family="Helvetica,sans-Serif" font-size="10.00">item()</text>
<text text-anchor="start" x="72.08" y="-508" font-family="Helvetica,sans-Serif" font-size="10.00">+</text>
<text text-anchor="start" x="89.5" y="-508" font-family="Helvetica,sans-Serif" font-size="10.00">id()</text>
<text text-anchor="start" x="72.08" y="-494" font-family="Helvetica,sans-Serif" font-size="10.00">+</text>
<text text-anchor="start" x="89.5" y="-494" font-family="Helvetica,sans-Serif" font-size="10.00">path()</text>
<text text-anchor="start" x="72.08" y="-480" font-family="Helvetica,sans-Serif" font-size="10.00">+</text>
<text text-anchor="start" x="89.5" y="-480" font-family="Helvetica,sans-Serif" font-size="10.00">properties()</text>
<text text-anchor="start" x="72.08" y="-466" font-family="Helvetica,sans-Serif" font-size="10.00">+</text>
<text text-anchor="start" x="89.5" y="-466" font-family="Helvetica,sans-Serif" font-size="10.00">metadata()</text>
<polygon fill="#666666" stroke="#666666" points="60.5,-546 60.5,-546 160.5,-546 160.5,-546 60.5,-546"/>
<polygon fill="#666666" stroke="#666666" points="60.5,-532 60.5,-532 87.5,-532 87.5,-532 60.5,-532"/>
<polygon fill="#666666" stroke="#666666" points="87.5,-532 87.5,-532 160.5,-532 160.5,-532 87.5,-532"/>
<polygon fill="none" stroke="#666666" points="60.5,-460 60.5,-562 160.5,-562 160.5,-460 60.5,-460"/>
</a>
</g>
</g>
<!-- Node3&#45;&gt;Node6 -->
<g id="edge6_Node000006_Node000003" class="edge">
<title>Node3&#45;&gt;Node6</title>
<g id="a_edge6_Node000006_Node000003"><a xlink:title=" ">
<path fill="none" stroke="#63b8ff" d="M144.13,-624.54C136.88,-617.44 129.82,-609.06 125.14,-600 120.99,-591.96 117.97,-583.01 115.78,-573.99"/>
<polygon fill="none" stroke="#63b8ff" points="115.76,-573.9 110.64,-568.82 113.36,-562.14 118.48,-567.22 115.76,-573.9"/>
</a>
</g>
<text text-anchor="middle" x="152.18" y="-592" font-family="Helvetica,sans-Serif" font-size="10.00" fill="grey"> &#45;_id</text>
<text text-anchor="middle" x="152.18" y="-582" font-family="Helvetica,sans-Serif" font-size="10.00" fill="grey">&#45;_properties</text>
</g>
<!-- Node4 -->
<g id="Node000004" class="node">
<title>Node4</title>
<g id="a_Node000004"><a xlink:title=" ">
<polygon fill="white" stroke="transparent" points="216.5,-771 128.5,-771 128.5,-715 216.5,-715 216.5,-771"/>
<text text-anchor="start" x="133.45" y="-759" font-family="Helvetica,sans-Serif" font-size="10.00">std::basic_string&lt;</text>
<text text-anchor="start" x="155.96" y="-749" font-family="Helvetica,sans-Serif" font-size="10.00"> Char &gt;</text>
<text text-anchor="start" x="171.11" y="-735" font-family="Helvetica,sans-Serif" font-size="10.00"> </text>
<text text-anchor="start" x="171.11" y="-721" font-family="Helvetica,sans-Serif" font-size="10.00"> </text>
<polygon fill="#666666" stroke="#666666" points="128.5,-745 128.5,-745 216.5,-745 216.5,-745 128.5,-745"/>
<polygon fill="#666666" stroke="#666666" points="128.5,-731 128.5,-731 216.5,-731 216.5,-731 128.5,-731"/>
<polygon fill="none" stroke="#666666" points="128.5,-715 128.5,-771 216.5,-771 216.5,-715 128.5,-715"/>
</a>
</g>
</g>
<!-- Node4&#45;&gt;Node3 -->
<g id="edge3_Node000003_Node000004" class="edge">
<title>Node4&#45;&gt;Node3</title>
<g id="a_edge3_Node000003_Node000004"><a xlink:title=" ">
<path fill="none" stroke="#63b8ff" d="M172.5,-704.51C172.5,-693.21 172.5,-681.18 172.5,-671.21"/>
<polygon fill="none" stroke="#63b8ff" points="169,-704.6 172.5,-714.6 176,-704.6 169,-704.6"/>
</a>
</g>
</g>
<!-- Node5 -->
<g id="Node000005" class="node">
<title>Node5</title>
<g id="a_Node000005"><a xlink:title=" ">
<polygon fill="white" stroke="transparent" points="164,-414 57,-414 57,-358 164,-358 164,-414"/>
<text text-anchor="start" x="62.22" y="-402" font-family="Helvetica,sans-Serif" font-size="10.00">std::shared_ptr&lt; epub</text>
<text text-anchor="start" x="72.79" y="-392" font-family="Helvetica,sans-Serif" font-size="10.00">::manifest::item &gt;</text>
<text text-anchor="start" x="109.61" y="-378" font-family="Helvetica,sans-Serif" font-size="10.00"> </text>
<text text-anchor="start" x="70.08" y="-364" font-family="Helvetica,sans-Serif" font-size="10.00">+</text>
<text text-anchor="start" x="88.5" y="-364" font-family="Helvetica,sans-Serif" font-size="10.00">operator&#45;&gt;()</text>
<polygon fill="#666666" stroke="#666666" points="57.5,-388 57.5,-388 164.5,-388 164.5,-388 57.5,-388"/>
<polygon fill="#666666" stroke="#666666" points="57.5,-374 57.5,-374 164.5,-374 164.5,-374 57.5,-374"/>
<polygon fill="none" stroke="#666666" points="57,-358 57,-414 164,-414 164,-358 57,-358"/>
</a>
</g>
</g>
<!-- Node5&#45;&gt;Node2 -->
<g id="edge4_Node000002_Node000005" class="edge">
<title>Node5&#45;&gt;Node2</title>
<g id="a_edge4_Node000002_Node000005"><a xlink:title=" ">
<path fill="none" stroke="#63b8ff" d="M119.21,-357.97C122.24,-349.01 125.77,-339.02 129.31,-330 130.16,-327.81 131.06,-325.58 131.99,-323.33"/>
<polygon fill="none" stroke="#63b8ff" points="132.07,-323.15 130.73,-316.06 136.75,-312.1 138.09,-319.19 132.07,-323.15"/>
</a>
</g>
<text text-anchor="middle" x="154.1" y="-332" font-family="Helvetica,sans-Serif" font-size="10.00" fill="grey"> +elements</text>
</g>
<!-- Node6&#45;&gt;Node5 -->
<g id="edge5_Node000005_Node000006" class="edge">
<title>Node6&#45;&gt;Node5</title>
<g id="a_edge5_Node000005_Node000006"><a xlink:title=" ">
<path fill="none" stroke="#63b8ff" d="M110.5,-459.97C110.5,-448.69 110.5,-436.87 110.5,-426.12"/>
<polygon fill="none" stroke="#63b8ff" points="110.5,-426.07 106.5,-420.07 110.5,-414.07 114.5,-420.07 110.5,-426.07"/>
</a>
</g>
<text text-anchor="middle" x="120.64" y="-434" font-family="Helvetica,sans-Serif" font-size="10.00" fill="grey"> +ptr</text>
</g>
<!-- Node7 -->
<g id="Node000007" class="node">
<title>Node7</title>
<g id="a_Node000007"><a xlink:href="structepub_1_1file__metadata.html" target="_top" xlink:title="A class for managing metadata key&#45;value pairs.">
<polygon fill="white" stroke="transparent" points="97,-678 0,-678 0,-618 97,-618 97,-678"/>
<text text-anchor="start" x="5.08" y="-666" font-family="Helvetica,sans-Serif" font-size="10.00">epub::file_metadata</text>
<text text-anchor="start" x="47.61" y="-652" font-family="Helvetica,sans-Serif" font-size="10.00"> </text>
<text text-anchor="start" x="19.08" y="-638" font-family="Helvetica,sans-Serif" font-size="10.00">+</text>
<text text-anchor="start" x="43.5" y="-638" font-family="Helvetica,sans-Serif" font-size="10.00">get()</text>
<text text-anchor="start" x="19.08" y="-624" font-family="Helvetica,sans-Serif" font-size="10.00">+</text>
<text text-anchor="start" x="43.5" y="-624" font-family="Helvetica,sans-Serif" font-size="10.00">get()</text>
<polygon fill="#666666" stroke="#666666" points="0.5,-662 0.5,-662 97.5,-662 97.5,-662 0.5,-662"/>
<polygon fill="#666666" stroke="#666666" points="0.5,-648 0.5,-648 97.5,-648 97.5,-648 0.5,-648"/>
<polygon fill="none" stroke="#666666" points="0,-618 0,-678 97,-678 97,-618 0,-618"/>
</a>
</g>
</g>
<!-- Node7&#45;&gt;Node6 -->
<g id="edge7_Node000006_Node000007" class="edge">
<title>Node7&#45;&gt;Node6</title>
<g id="a_edge7_Node000006_Node000007"><a xlink:title=" ">
<path fill="none" stroke="#63b8ff" d="M51.16,-617.82C52.98,-605.75 56.03,-591.85 61.14,-580 62.19,-577.55 63.35,-575.11 64.59,-572.67"/>
<polygon fill="none" stroke="#63b8ff" points="64.62,-572.62 64.05,-565.43 70.47,-562.15 71.04,-569.34 64.62,-572.62"/>
</a>
</g>
<text text-anchor="middle" x="88.18" y="-587" font-family="Helvetica,sans-Serif" font-size="10.00" fill="grey"> &#45;_metadata</text>
</g>
<!-- Node8 -->
<g id="Node000008" class="node">
<title>Node8</title>
<g id="a_Node000008"><a xlink:title=" ">
<polygon fill="white" stroke="transparent" points="90,-766 7,-766 7,-720 90,-720 90,-766"/>
<text text-anchor="start" x="12.22" y="-754" font-family="Helvetica,sans-Serif" font-size="10.00">std::map&lt; K, T &gt;</text>
<text text-anchor="start" x="47.61" y="-740" font-family="Helvetica,sans-Serif" font-size="10.00"> </text>
<text text-anchor="start" x="47.61" y="-726" font-family="Helvetica,sans-Serif" font-size="10.00"> </text>
<polygon fill="#666666" stroke="#666666" points="7.5,-750 7.5,-750 90.5,-750 90.5,-750 7.5,-750"/>
<polygon fill="#666666" stroke="#666666" points="7.5,-736 7.5,-736 90.5,-736 90.5,-736 7.5,-736"/>
<polygon fill="none" stroke="#666666" points="7,-720 7,-766 90,-766 90,-720 7,-720"/>
</a>
</g>
</g>
<!-- Node8&#45;&gt;Node7 -->
<g id="edge8_Node000007_Node000008" class="edge">
<title>Node8&#45;&gt;Node7</title>
<g id="a_edge8_Node000007_Node000008"><a xlink:title=" ">
<path fill="none" stroke="#63b8ff" d="M48.5,-709.76C48.5,-699.53 48.5,-688.28 48.5,-678.27"/>
<polygon fill="none" stroke="#63b8ff" points="45,-709.96 48.5,-719.96 52,-709.96 45,-709.96"/>
</a>
</g>
</g>
<!-- Node9 -->
<g id="Node000009" class="node">
<title>Node9</title>
<g id="a_Node000009"><a xlink:title=" ">
<polygon fill="white" stroke="transparent" points="30.5,-863 14.5,-863 14.5,-817 30.5,-817 30.5,-863"/>
<text text-anchor="start" x="19.17" y="-851" font-family="Helvetica,sans-Serif" font-size="10.00">K</text>
<text text-anchor="start" x="21.11" y="-837" font-family="Helvetica,sans-Serif" font-size="10.00"> </text>
<text text-anchor="start" x="21.11" y="-823" font-family="Helvetica,sans-Serif" font-size="10.00"> </text>
<polygon fill="#666666" stroke="#666666" points="14.5,-847 14.5,-847 30.5,-847 30.5,-847 14.5,-847"/>
<polygon fill="#666666" stroke="#666666" points="14.5,-833 14.5,-833 30.5,-833 30.5,-833 14.5,-833"/>
<polygon fill="none" stroke="#666666" points="14.5,-817 14.5,-863 30.5,-863 30.5,-817 14.5,-817"/>
</a>
</g>
</g>
<!-- Node9&#45;&gt;Node8 -->
<g id="edge9_Node000008_Node000009" class="edge">
<title>Node9&#45;&gt;Node8</title>
<g id="a_edge9_Node000008_Node000009"><a xlink:title=" ">
<path fill="none" stroke="#63b8ff" d="M20.55,-816.77C20.37,-807.99 20.93,-797.89 23.32,-789 24.37,-785.11 25.83,-781.2 27.52,-777.39"/>
<polygon fill="none" stroke="#63b8ff" points="27.66,-777.1 26.82,-769.94 33.11,-766.41 33.95,-773.57 27.66,-777.1"/>
</a>
</g>
<text text-anchor="middle" x="38.09" y="-791" font-family="Helvetica,sans-Serif" font-size="10.00" fill="grey"> +keys</text>
</g>
<!-- Node10 -->
<g id="Node000010" class="node">
<title>Node10</title>
<g id="a_Node000010"><a xlink:title=" ">
<polygon fill="white" stroke="transparent" points="82.5,-863 66.5,-863 66.5,-817 82.5,-817 82.5,-863"/>
<text text-anchor="start" x="71.45" y="-851" font-family="Helvetica,sans-Serif" font-size="10.00">T</text>
<text text-anchor="start" x="73.11" y="-837" font-family="Helvetica,sans-Serif" font-size="10.00"> </text>
<text text-anchor="start" x="73.11" y="-823" font-family="Helvetica,sans-Serif" font-size="10.00"> </text>
<polygon fill="#666666" stroke="#666666" points="66.5,-847 66.5,-847 82.5,-847 82.5,-847 66.5,-847"/>
<polygon fill="#666666" stroke="#666666" points="66.5,-833 66.5,-833 82.5,-833 82.5,-833 66.5,-833"/>
<polygon fill="none" stroke="#666666" points="66.5,-817 66.5,-863 82.5,-863 82.5,-817 66.5,-817"/>
</a>
</g>
</g>
<!-- Node10&#45;&gt;Node8 -->
<g id="edge10_Node000008_Node000010" class="edge">
<title>Node10&#45;&gt;Node8</title>
<g id="a_edge10_Node000008_Node000010"><a xlink:title=" ">
<path fill="none" stroke="#63b8ff" d="M68.47,-816.97C65.31,-805.42 61.37,-791.02 57.83,-778.07"/>
<polygon fill="none" stroke="#63b8ff" points="57.76,-777.82 52.31,-773.09 54.59,-766.24 60.03,-770.97 57.76,-777.82"/>
</a>
</g>
<text text-anchor="middle" x="88.1" y="-791" font-family="Helvetica,sans-Serif" font-size="10.00" fill="grey"> +elements</text>
</g>
</g>
</svg>
