<?xml version="1.0" encoding="UTF-8" standalone="no"?>
<!DOCTYPE svg PUBLIC "-//W3C//DTD SVG 1.1//EN"
 "http://www.w3.org/Graphics/SVG/1.1/DTD/svg11.dtd">
<!-- Generated by graphviz version 2.48.0 (20210717.1556)
 -->
<!-- Title: main Pages: 1 -->
<svg width="641pt" height="311pt"
 viewBox="0.00 0.00 641.12 311.00" xmlns="http://www.w3.org/2000/svg" xmlns:xlink="http://www.w3.org/1999/xlink">
<g id="graph0" class="graph" transform="scale(1 1) rotate(0) translate(4 307)">
<title>main</title>
<!-- Node1 -->
<g id="Node000001" class="node">
<title>Node1</title>
<g id="a_Node000001"><a xlink:title=" ">
<polygon fill="#999999" stroke="#666666" points="37.51,-162 0.16,-162 0.16,-144 37.51,-144 37.51,-162"/>
<text text-anchor="middle" x="18.84" y="-150" font-family="Helvetica,sans-Serif" font-size="10.00">main</text>
</a>
</g>
</g>
<!-- Node2 -->
<g id="Node000002" class="node">
<title>Node2</title>
<g id="a_Node000002"><a xlink:href="classbook.html#a394783e2bde8e7aa7f71bc35763d5765" target="_top" xlink:title=" ">
<polygon fill="white" stroke="#666666" points="187.17,-288 88.49,-288 88.49,-270 187.17,-270 187.17,-288"/>
<text text-anchor="middle" x="137.83" y="-276" font-family="Helvetica,sans-Serif" font-size="10.00">book::add_chapter</text>
</a>
</g>
</g>
<!-- Node1&#45;&gt;Node2 -->
<g id="edge1_Node000001_Node000002" class="edge">
<title>Node1&#45;&gt;Node2</title>
<g id="a_edge1_Node000001_Node000002"><a xlink:title=" ">
<path fill="none" stroke="#63b8ff" d="M21.74,-162.09C26.57,-182.86 41.28,-234.1 73.67,-261 75.46,-262.48 77.35,-263.84 79.33,-265.08"/>
<polygon fill="#63b8ff" stroke="#63b8ff" points="78,-268.33 88.48,-269.87 81.24,-262.13 78,-268.33"/>
</a>
</g>
</g>
<!-- Node3 -->
<g id="Node000003" class="node">
<title>Node3</title>
<g id="a_Node000003"><a xlink:href="namespaceepub.html#aa43689073ca465e36f86c08fed102987" target="_top" xlink:title="Common options for EPUB command&#45;line utilities.">
<polygon fill="white" stroke="#666666" points="197.78,-252 77.87,-252 77.87,-234 197.78,-234 197.78,-252"/>
<text text-anchor="middle" x="137.83" y="-240" font-family="Helvetica,sans-Serif" font-size="10.00">epub::common_options</text>
</a>
</g>
</g>
<!-- Node1&#45;&gt;Node3 -->
<g id="edge2_Node000001_Node000003" class="edge">
<title>Node1&#45;&gt;Node3</title>
<g id="a_edge2_Node000001_Node000003"><a xlink:title=" ">
<path fill="none" stroke="#63b8ff" d="M24.1,-162.02C31.8,-177.33 49.51,-208.35 73.67,-225 76.35,-226.84 79.21,-228.5 82.19,-229.99"/>
<polygon fill="#63b8ff" stroke="#63b8ff" points="80.81,-233.2 91.37,-233.96 83.59,-226.78 80.81,-233.2"/>
</a>
</g>
</g>
<!-- Node9 -->
<g id="Node000009" class="node">
<title>Node9</title>
<g id="a_Node000009"><a xlink:href="structimage__ref.html#ab2d69f752aa3e1f3cdee87fcd50bb4a4" target="_top" xlink:title=" ">
<polygon fill="white" stroke="#666666" points="184.6,-216 91.06,-216 91.06,-198 184.6,-198 184.6,-216"/>
<text text-anchor="middle" x="137.83" y="-204" font-family="Helvetica,sans-Serif" font-size="10.00">image_ref::height</text>
</a>
</g>
</g>
<!-- Node1&#45;&gt;Node9 -->
<g id="edge10_Node000001_Node000009" class="edge">
<title>Node1&#45;&gt;Node9</title>
<g id="a_edge10_Node000001_Node000009"><a xlink:title=" ">
<path fill="none" stroke="#63b8ff" d="M31.18,-162.13C41.67,-170.18 57.96,-181.73 73.67,-189 78.28,-191.13 83.19,-193.06 88.16,-194.8"/>
<polygon fill="#63b8ff" stroke="#63b8ff" points="87.14,-198.15 97.73,-197.92 89.3,-191.5 87.14,-198.15"/>
</a>
</g>
</g>
<!-- Node10 -->
<g id="Node000010" class="node">
<title>Node10</title>
<g id="a_Node000010"><a xlink:href="classbook.html#a71f9463fe246a856c26a21cc8c3eadbf" target="_top" xlink:title="Checked version of vector::back().">
<polygon fill="white" stroke="#666666" points="186.55,-180 89.11,-180 89.11,-162 186.55,-162 186.55,-180"/>
<text text-anchor="middle" x="137.83" y="-168" font-family="Helvetica,sans-Serif" font-size="10.00">book::last_chapter</text>
</a>
</g>
</g>
<!-- Node1&#45;&gt;Node10 -->
<g id="edge11_Node000001_Node000010" class="edge">
<title>Node1&#45;&gt;Node10</title>
<g id="a_edge11_Node000001_Node000010"><a xlink:title=" ">
<path fill="none" stroke="#63b8ff" d="M37.61,-155.73C48.72,-157.44 63.73,-159.75 78.7,-162.06"/>
<polygon fill="#63b8ff" stroke="#63b8ff" points="78.6,-165.58 89.02,-163.64 79.67,-158.66 78.6,-165.58"/>
</a>
</g>
</g>
<!-- Node11 -->
<g id="Node000011" class="node">
<title>Node11</title>
<g id="a_Node000011"><a xlink:href="classpage.html#ae6e7853907299a8a7aa35265676b0074" target="_top" xlink:title="Adjust the frames of the image on the page.">
<polygon fill="white" stroke="#666666" points="173.32,-144 102.34,-144 102.34,-126 173.32,-126 173.32,-144"/>
<text text-anchor="middle" x="137.83" y="-132" font-family="Helvetica,sans-Serif" font-size="10.00">page::layout</text>
</a>
</g>
</g>
<!-- Node1&#45;&gt;Node11 -->
<g id="edge12_Node000001_Node000011" class="edge">
<title>Node1&#45;&gt;Node11</title>
<g id="a_edge12_Node000001_Node000011"><a xlink:title=" ">
<path fill="none" stroke="#63b8ff" d="M37.61,-150.27C52.13,-148.03 73.3,-144.78 92.35,-141.84"/>
<polygon fill="#63b8ff" stroke="#63b8ff" points="93.02,-145.28 102.37,-140.3 91.96,-138.36 93.02,-145.28"/>
</a>
</g>
</g>
<!-- Node12 -->
<g id="Node000012" class="node">
<title>Node12</title>
<g id="a_Node000012"><a xlink:href="classepub_1_1container.html#a744c29b0aa74a35021828ba4d7bdb3ce" target="_top" xlink:title="The package document.">
<polygon fill="white" stroke="#666666" points="202.13,-108 73.52,-108 73.52,-90 202.13,-90 202.13,-108"/>
<text text-anchor="middle" x="137.83" y="-96" font-family="Helvetica,sans-Serif" font-size="10.00">epub::container::package</text>
</a>
</g>
</g>
<!-- Node1&#45;&gt;Node12 -->
<g id="edge13_Node000001_Node000012" class="edge">
<title>Node1&#45;&gt;Node12</title>
<g id="a_edge13_Node000001_Node000012"><a xlink:title=" ">
<path fill="none" stroke="#63b8ff" d="M31.18,-143.87C41.67,-135.82 57.96,-124.27 73.67,-117 78.28,-114.87 83.19,-112.94 88.16,-111.2"/>
<polygon fill="#63b8ff" stroke="#63b8ff" points="89.3,-114.5 97.73,-108.08 87.14,-107.85 89.3,-114.5"/>
</a>
</g>
</g>
<!-- Node13 -->
<g id="Node000013" class="node">
<title>Node13</title>
<g id="a_Node000013"><a xlink:href="classpage.html#a6b0e48ae7b78527f26e7b847a685568d" target="_top" xlink:title="The relative path to the page to be generated.">
<polygon fill="white" stroke="#666666" points="169.59,-72 106.06,-72 106.06,-54 169.59,-54 169.59,-72"/>
<text text-anchor="middle" x="137.83" y="-60" font-family="Helvetica,sans-Serif" font-size="10.00">page::path</text>
</a>
</g>
</g>
<!-- Node1&#45;&gt;Node13 -->
<g id="edge14_Node000001_Node000013" class="edge">
<title>Node1&#45;&gt;Node13</title>
<g id="a_edge14_Node000001_Node000013"><a xlink:title=" ">
<path fill="none" stroke="#63b8ff" d="M24.1,-143.98C31.8,-128.67 49.51,-97.65 73.67,-81 80.48,-76.31 88.5,-72.83 96.5,-70.26"/>
<polygon fill="#63b8ff" stroke="#63b8ff" points="97.48,-73.62 106.16,-67.54 95.58,-66.88 97.48,-73.62"/>
</a>
</g>
</g>
<!-- Node14 -->
<g id="Node000014" class="node">
<title>Node14</title>
<g id="a_Node000014"><a xlink:href="structimage__ref.html#afc42d00cc7c02e00e7dcc6212283e017" target="_top" xlink:title=" ">
<polygon fill="white" stroke="#666666" points="182.7,-18 92.96,-18 92.96,0 182.7,0 182.7,-18"/>
<text text-anchor="middle" x="137.83" y="-6" font-family="Helvetica,sans-Serif" font-size="10.00">image_ref::scale</text>
</a>
</g>
</g>
<!-- Node1&#45;&gt;Node14 -->
<g id="edge15_Node000001_Node000014" class="edge">
<title>Node1&#45;&gt;Node14</title>
<g id="a_edge15_Node000001_Node000014"><a xlink:title=" ">
<path fill="none" stroke="#63b8ff" d="M22.4,-143.83C28.39,-123.75 45.03,-75.29 73.67,-45 82.33,-35.85 93.83,-28.37 104.64,-22.64"/>
<polygon fill="#63b8ff" stroke="#63b8ff" points="106.48,-25.63 113.88,-18.06 103.37,-19.36 106.48,-25.63"/>
</a>
</g>
</g>
<!-- Node4 -->
<g id="Node000004" class="node">
<title>Node4</title>
<g id="a_Node000004"><a xlink:href="classcli_1_1option__processor.html#a1beb9030eaaccca08a3e71378c66be4c" target="_top" xlink:title=" ">
<polygon fill="white" stroke="#666666" points="345.55,-303 238.12,-303 238.12,-275 345.55,-275 345.55,-303"/>
<text text-anchor="start" x="245.98" y="-291" font-family="Helvetica,sans-Serif" font-size="10.00">cli::option_processor</text>
<text text-anchor="middle" x="291.84" y="-281" font-family="Helvetica,sans-Serif" font-size="10.00">::add_flag</text>
</a>
</g>
</g>
<!-- Node3&#45;&gt;Node4 -->
<g id="edge3_Node000003_Node000004" class="edge">
<title>Node3&#45;&gt;Node4</title>
<g id="a_edge3_Node000003_Node000004"><a xlink:title=" ">
<path fill="none" stroke="#63b8ff" d="M171.33,-252.08C181.19,-254.88 192.04,-258.02 201.98,-261 213.48,-264.45 225.78,-268.25 237.45,-271.91"/>
<polygon fill="#63b8ff" stroke="#63b8ff" points="236.48,-275.28 247.07,-274.95 238.58,-268.6 236.48,-275.28"/>
</a>
</g>
</g>
<!-- Node7 -->
<g id="Node000007" class="node">
<title>Node7</title>
<g id="a_Node000007"><a xlink:href="classcli_1_1option__processor.html#a7e490c083572fb89a9d7c559c95eab73" target="_top" xlink:title=" ">
<polygon fill="white" stroke="#666666" points="345.55,-257 238.12,-257 238.12,-229 345.55,-229 345.55,-257"/>
<text text-anchor="start" x="245.98" y="-245" font-family="Helvetica,sans-Serif" font-size="10.00">cli::option_processor</text>
<text text-anchor="middle" x="291.84" y="-235" font-family="Helvetica,sans-Serif" font-size="10.00">::add_option</text>
</a>
</g>
</g>
<!-- Node3&#45;&gt;Node7 -->
<g id="edge7_Node000003_Node000007" class="edge">
<title>Node3&#45;&gt;Node7</title>
<g id="a_edge7_Node000003_Node000007"><a xlink:title=" ">
<path fill="none" stroke="#63b8ff" d="M198.03,-243C207.81,-243 217.97,-243 227.84,-243"/>
<polygon fill="#63b8ff" stroke="#63b8ff" points="227.98,-246.5 237.98,-243 227.98,-239.5 227.98,-246.5"/>
</a>
</g>
</g>
<!-- Node8 -->
<g id="Node000008" class="node">
<title>Node8</title>
<g id="a_Node000008"><a xlink:href="classcli_1_1option__processor.html#a02399e5ea59c24143752d5345de45e83" target="_top" xlink:title=" ">
<polygon fill="white" stroke="#666666" points="345.55,-211 238.12,-211 238.12,-183 345.55,-183 345.55,-211"/>
<text text-anchor="start" x="245.98" y="-199" font-family="Helvetica,sans-Serif" font-size="10.00">cli::option_processor</text>
<text text-anchor="middle" x="291.84" y="-189" font-family="Helvetica,sans-Serif" font-size="10.00">::synopsis</text>
</a>
</g>
</g>
<!-- Node3&#45;&gt;Node8 -->
<g id="edge9_Node000003_Node000008" class="edge">
<title>Node3&#45;&gt;Node8</title>
<g id="a_edge9_Node000003_Node000008"><a xlink:title=" ">
<path fill="none" stroke="#63b8ff" d="M171.33,-233.92C181.19,-231.12 192.04,-227.98 201.98,-225 213.48,-221.55 225.78,-217.75 237.45,-214.09"/>
<polygon fill="#63b8ff" stroke="#63b8ff" points="238.58,-217.4 247.07,-211.05 236.48,-210.72 238.58,-217.4"/>
</a>
</g>
</g>
<!-- Node5 -->
<g id="Node000005" class="node">
<title>Node5</title>
<g id="a_Node000005"><a xlink:href="classcli_1_1option__processor.html#a46aa5749ada745f8fa0e8188d317c590" target="_top" xlink:title=" ">
<polygon fill="white" stroke="#666666" points="489.26,-280 381.84,-280 381.84,-252 489.26,-252 489.26,-280"/>
<text text-anchor="start" x="389.69" y="-268" font-family="Helvetica,sans-Serif" font-size="10.00">cli::option_processor</text>
<text text-anchor="middle" x="435.55" y="-258" font-family="Helvetica,sans-Serif" font-size="10.00">::usage</text>
</a>
</g>
</g>
<!-- Node4&#45;&gt;Node5 -->
<g id="edge4_Node000004_Node000005" class="edge">
<title>Node4&#45;&gt;Node5</title>
<g id="a_edge4_Node000004_Node000005"><a xlink:title=" ">
<path fill="none" stroke="#63b8ff" d="M345.61,-280.44C354.09,-279.06 362.94,-277.62 371.64,-276.21"/>
<polygon fill="#63b8ff" stroke="#63b8ff" points="372.43,-279.63 381.74,-274.57 371.31,-272.72 372.43,-279.63"/>
</a>
</g>
</g>
<!-- Node6 -->
<g id="Node000006" class="node">
<title>Node6</title>
<g id="a_Node000006"><a xlink:href="classcli_1_1option__processor.html#a963a0b0a7cf5bf1d738f5d8d290d0ec1" target="_top" xlink:title=" ">
<polygon fill="white" stroke="#666666" points="632.98,-280 525.55,-280 525.55,-252 632.98,-252 632.98,-280"/>
<text text-anchor="start" x="533.41" y="-268" font-family="Helvetica,sans-Serif" font-size="10.00">cli::option_processor</text>
<text text-anchor="middle" x="579.26" y="-258" font-family="Helvetica,sans-Serif" font-size="10.00">::wrap</text>
</a>
</g>
</g>
<!-- Node5&#45;&gt;Node6 -->
<g id="edge5_Node000005_Node000006" class="edge">
<title>Node5&#45;&gt;Node6</title>
<g id="a_edge5_Node000005_Node000006"><a xlink:title=" ">
<path fill="none" stroke="#63b8ff" d="M489.32,-266C497.8,-266 506.66,-266 515.35,-266"/>
<polygon fill="#63b8ff" stroke="#63b8ff" points="515.45,-269.5 525.45,-266 515.45,-262.5 515.45,-269.5"/>
</a>
</g>
</g>
<!-- Node6&#45;&gt;Node6 -->
<g id="edge6_Node000006_Node000006" class="edge">
<title>Node6&#45;&gt;Node6</title>
<g id="a_edge6_Node000006_Node000006"><a xlink:title=" ">
<path fill="none" stroke="#63b8ff" d="M554.75,-280.15C548.35,-289.24 556.52,-298 579.26,-298 593.12,-298 601.57,-294.75 604.61,-290.15"/>
<polygon fill="#63b8ff" stroke="#63b8ff" points="608.09,-289.83 603.78,-280.15 601.12,-290.4 608.09,-289.83"/>
</a>
</g>
</g>
<!-- Node7&#45;&gt;Node5 -->
<g id="edge8_Node000007_Node000005" class="edge">
<title>Node7&#45;&gt;Node5</title>
<g id="a_edge8_Node000007_Node000005"><a xlink:title=" ">
<path fill="none" stroke="#63b8ff" d="M345.61,-251.56C354.09,-252.94 362.94,-254.38 371.64,-255.79"/>
<polygon fill="#63b8ff" stroke="#63b8ff" points="371.31,-259.28 381.74,-257.43 372.43,-252.37 371.31,-259.28"/>
</a>
</g>
</g>
<!-- Node14&#45;&gt;Node14 -->
<g id="edge16_Node000014_Node000014" class="edge">
<title>Node14&#45;&gt;Node14</title>
<g id="a_edge16_Node000014_Node000014"><a xlink:title=" ">
<path fill="none" stroke="#63b8ff" d="M119.94,-18.13C110.66,-26.7 116.62,-36 137.83,-36 151.08,-36 158.38,-32.37 159.72,-27.55"/>
<polygon fill="#63b8ff" stroke="#63b8ff" points="162.85,-25.96 155.72,-18.13 156.41,-28.7 162.85,-25.96"/>
</a>
</g>
</g>
</g>
</svg>
