<?xml version="1.0" encoding="UTF-8" standalone="no"?>
<!DOCTYPE svg PUBLIC "-//W3C//DTD SVG 1.1//EN"
 "http://www.w3.org/Graphics/SVG/1.1/DTD/svg11.dtd">
<!-- Generated by graphviz version 2.48.0 (20210717.1556)
 -->
<!-- Title: comic.cpp Pages: 1 -->
<svg width="1871pt" height="296pt"
 viewBox="0.00 0.00 1871.00 296.00" xmlns="http://www.w3.org/2000/svg" xmlns:xlink="http://www.w3.org/1999/xlink">
<g id="graph0" class="graph" transform="scale(1 1) rotate(0) translate(4 292)">
<title>comic.cpp</title>
<!-- Node1 -->
<g id="Node000001" class="node">
<title>Node1</title>
<g id="a_Node000001"><a xlink:title=" ">
<polygon fill="#999999" stroke="#666666" points="1166.67,-288 1105.64,-288 1105.64,-270 1166.67,-270 1166.67,-288"/>
<text text-anchor="middle" x="1136.16" y="-276" font-family="Helvetica,sans-Serif" font-size="10.00">comic.cpp</text>
</a>
</g>
</g>
<!-- Node2 -->
<g id="Node000002" class="node">
<title>Node2</title>
<g id="a_Node000002"><a xlink:href="file__metadata_8hpp.html" target="_top" xlink:title=" ">
<polygon fill="white" stroke="#666666" points="231.66,-72 136.65,-72 136.65,-54 231.66,-54 231.66,-72"/>
<text text-anchor="middle" x="184.16" y="-60" font-family="Helvetica,sans-Serif" font-size="10.00">file_metadata.hpp</text>
</a>
</g>
</g>
<!-- Node1&#45;&gt;Node2 -->
<g id="edge1_Node000001_Node000002" class="edge">
<title>Node1&#45;&gt;Node2</title>
<g id="a_edge1_Node000001_Node000002"><a xlink:title=" ">
<path fill="none" stroke="#63b8ff" d="M1105.44,-278.2C995.29,-278.55 620.74,-276.53 510.16,-234 425.35,-201.39 430.48,-148.53 349.16,-108 315.37,-91.16 274.37,-80.19 241.7,-73.41"/>
<polygon fill="#63b8ff" stroke="#63b8ff" points="242.33,-69.97 231.84,-71.44 240.96,-76.83 242.33,-69.97"/>
</a>
</g>
</g>
<!-- Node5 -->
<g id="Node000005" class="node">
<title>Node5</title>
<g id="a_Node000005"><a xlink:title=" ">
<polygon fill="#e0e0e0" stroke="#999999" points="1137.61,-18 1096.7,-18 1096.7,0 1137.61,0 1137.61,-18"/>
<text text-anchor="middle" x="1117.16" y="-6" font-family="Helvetica,sans-Serif" font-size="10.00">string</text>
</a>
</g>
</g>
<!-- Node1&#45;&gt;Node5 -->
<g id="edge72_Node000001_Node000005" class="edge">
<title>Node1&#45;&gt;Node5</title>
<g id="a_edge72_Node000001_Node000005"><a xlink:title=" ">
<path fill="none" stroke="#63b8ff" d="M1163.75,-269.97C1268.99,-238.69 1636.13,-123.34 1573.16,-54 1544.55,-22.5 1245.18,-12.92 1147.67,-10.62"/>
<polygon fill="#63b8ff" stroke="#63b8ff" points="1147.66,-7.12 1137.58,-10.39 1147.5,-14.12 1147.66,-7.12"/>
</a>
</g>
</g>
<!-- Node6 -->
<g id="Node000006" class="node">
<title>Node6</title>
<g id="a_Node000006"><a xlink:title=" ">
<polygon fill="#e0e0e0" stroke="#999999" points="1572.62,-234 1447.7,-234 1447.7,-216 1572.62,-216 1572.62,-234"/>
<text text-anchor="middle" x="1510.16" y="-222" font-family="Helvetica,sans-Serif" font-size="10.00">imageinfo/imageinfo.hpp</text>
</a>
</g>
</g>
<!-- Node1&#45;&gt;Node6 -->
<g id="edge5_Node000001_Node000006" class="edge">
<title>Node1&#45;&gt;Node6</title>
<g id="a_edge5_Node000001_Node000006"><a xlink:title=" ">
<path fill="none" stroke="#63b8ff" d="M1166.76,-273.74C1226.72,-265.41 1360.9,-246.75 1442.65,-235.39"/>
<polygon fill="#63b8ff" stroke="#63b8ff" points="1443.17,-238.85 1452.59,-234 1442.21,-231.91 1443.17,-238.85"/>
</a>
</g>
</g>
<!-- Node7 -->
<g id="Node000007" class="node">
<title>Node7</title>
<g id="a_Node000007"><a xlink:href="container_8hpp.html" target="_top" xlink:title=" ">
<polygon fill="white" stroke="#666666" points="162.21,-234 86.1,-234 86.1,-216 162.21,-216 162.21,-234"/>
<text text-anchor="middle" x="124.16" y="-222" font-family="Helvetica,sans-Serif" font-size="10.00">container.hpp</text>
</a>
</g>
</g>
<!-- Node1&#45;&gt;Node7 -->
<g id="edge6_Node000001_Node000007" class="edge">
<title>Node1&#45;&gt;Node7</title>
<g id="a_edge6_Node000001_Node000007"><a xlink:title=" ">
<path fill="none" stroke="#63b8ff" d="M1105.4,-277.78C985.84,-276.69 540.57,-270.28 176.16,-234 175.04,-233.89 173.92,-233.77 172.78,-233.65"/>
<polygon fill="#63b8ff" stroke="#63b8ff" points="172.79,-230.12 162.43,-232.36 171.93,-237.07 172.79,-230.12"/>
</a>
</g>
</g>
<!-- Node9 -->
<g id="Node000009" class="node">
<title>Node9</title>
<g id="a_Node000009"><a xlink:href="manifest__item_8hpp.html" target="_top" xlink:title=" ">
<polygon fill="white" stroke="#666666" points="339.86,-126 242.45,-126 242.45,-108 339.86,-108 339.86,-126"/>
<text text-anchor="middle" x="291.16" y="-114" font-family="Helvetica,sans-Serif" font-size="10.00">manifest_item.hpp</text>
</a>
</g>
</g>
<!-- Node1&#45;&gt;Node9 -->
<g id="edge51_Node000001_Node000009" class="edge">
<title>Node1&#45;&gt;Node9</title>
<g id="a_edge51_Node000001_Node000009"><a xlink:title=" ">
<path fill="none" stroke="#63b8ff" d="M1105.57,-278.02C968.96,-277.88 418.48,-274.75 354.16,-234 318.92,-211.68 301.94,-162.46 295.07,-135.88"/>
<polygon fill="#63b8ff" stroke="#63b8ff" points="298.44,-134.93 292.72,-126.01 291.64,-136.55 298.44,-134.93"/>
</a>
</g>
</g>
<!-- Node10 -->
<g id="Node000010" class="node">
<title>Node10</title>
<g id="a_Node000010"><a xlink:title=" ">
<polygon fill="#e0e0e0" stroke="#999999" points="80.61,-72 19.7,-72 19.7,-54 80.61,-54 80.61,-72"/>
<text text-anchor="middle" x="50.16" y="-60" font-family="Helvetica,sans-Serif" font-size="10.00">filesystem</text>
</a>
</g>
</g>
<!-- Node1&#45;&gt;Node10 -->
<g id="edge63_Node000001_Node000010" class="edge">
<title>Node1&#45;&gt;Node10</title>
<g id="a_edge63_Node000001_Node000010"><a xlink:title=" ">
<path fill="none" stroke="#63b8ff" d="M1105.47,-277.79C935.65,-276.48 117.16,-268.4 77.16,-234 32.99,-196.03 40.42,-117.33 46.49,-81.94"/>
<polygon fill="#63b8ff" stroke="#63b8ff" points="49.93,-82.55 48.34,-72.07 43.06,-81.25 49.93,-82.55"/>
</a>
</g>
</g>
<!-- Node12 -->
<g id="Node000012" class="node">
<title>Node12</title>
<g id="a_Node000012"><a xlink:title=" ">
<polygon fill="#e0e0e0" stroke="#999999" points="442.23,-72 396.08,-72 396.08,-54 442.23,-54 442.23,-72"/>
<text text-anchor="middle" x="419.16" y="-60" font-family="Helvetica,sans-Serif" font-size="10.00">ranges</text>
</a>
</g>
</g>
<!-- Node1&#45;&gt;Node12 -->
<g id="edge68_Node000001_Node000012" class="edge">
<title>Node1&#45;&gt;Node12</title>
<g id="a_edge68_Node000001_Node000012"><a xlink:title=" ">
<path fill="none" stroke="#63b8ff" d="M1105.36,-271.92C1066.92,-264.13 999.26,-249.72 942.16,-234 753.69,-182.11 532.15,-104.48 450.99,-75.48"/>
<polygon fill="#63b8ff" stroke="#63b8ff" points="451.96,-72.1 441.36,-72.03 449.6,-78.69 451.96,-72.1"/>
</a>
</g>
</g>
<!-- Node13 -->
<g id="Node000013" class="node">
<title>Node13</title>
<g id="a_Node000013"><a xlink:title=" ">
<polygon fill="#e0e0e0" stroke="#999999" points="1108.46,-72 1049.85,-72 1049.85,-54 1108.46,-54 1108.46,-72"/>
<text text-anchor="middle" x="1079.16" y="-60" font-family="Helvetica,sans-Serif" font-size="10.00">stdexcept</text>
</a>
</g>
</g>
<!-- Node1&#45;&gt;Node13 -->
<g id="edge71_Node000001_Node000013" class="edge">
<title>Node1&#45;&gt;Node13</title>
<g id="a_edge71_Node000001_Node000013"><a xlink:title=" ">
<path fill="none" stroke="#63b8ff" d="M1132.55,-269.69C1128.84,-260.93 1123.07,-246.67 1119.16,-234 1102.32,-179.57 1088.65,-113.44 1082.57,-82.12"/>
<polygon fill="#63b8ff" stroke="#63b8ff" points="1085.99,-81.41 1080.68,-72.25 1079.12,-82.73 1085.99,-81.41"/>
</a>
</g>
</g>
<!-- Node14 -->
<g id="Node000014" class="node">
<title>Node14</title>
<g id="a_Node000014"><a xlink:href="metadata_8hpp.html" target="_top" xlink:title=" ">
<polygon fill="white" stroke="#666666" points="1308.81,-126 1231.5,-126 1231.5,-108 1308.81,-108 1308.81,-126"/>
<text text-anchor="middle" x="1270.16" y="-114" font-family="Helvetica,sans-Serif" font-size="10.00">metadata.hpp</text>
</a>
</g>
</g>
<!-- Node1&#45;&gt;Node14 -->
<g id="edge52_Node000001_Node000014" class="edge">
<title>Node1&#45;&gt;Node14</title>
<g id="a_edge52_Node000001_Node000014"><a xlink:title=" ">
<path fill="none" stroke="#63b8ff" d="M1146.81,-269.77C1166.68,-254.02 1209.96,-217.79 1238.16,-180 1248.45,-166.19 1257.18,-148.6 1262.91,-135.68"/>
<polygon fill="#63b8ff" stroke="#63b8ff" points="1266.29,-136.69 1266.98,-126.12 1259.85,-133.95 1266.29,-136.69"/>
</a>
</g>
</g>
<!-- Node18 -->
<g id="Node000018" class="node">
<title>Node18</title>
<g id="a_Node000018"><a xlink:href="xml_8hpp.html" target="_top" xlink:title=" ">
<polygon fill="white" stroke="#666666" points="147.67,-126 96.64,-126 96.64,-108 147.67,-108 147.67,-126"/>
<text text-anchor="middle" x="122.16" y="-114" font-family="Helvetica,sans-Serif" font-size="10.00">xml.hpp</text>
</a>
</g>
</g>
<!-- Node1&#45;&gt;Node18 -->
<g id="edge60_Node000001_Node000018" class="edge">
<title>Node1&#45;&gt;Node18</title>
<g id="a_edge60_Node000001_Node000018"><a xlink:title=" ">
<path fill="none" stroke="#63b8ff" d="M1105.32,-277.8C976.65,-276.72 482.22,-270.27 331.16,-234 253.74,-215.41 174.97,-159.53 140.36,-132.7"/>
<polygon fill="#63b8ff" stroke="#63b8ff" points="142.2,-129.69 132.17,-126.25 137.86,-135.18 142.2,-129.69"/>
</a>
</g>
</g>
<!-- Node20 -->
<g id="Node000020" class="node">
<title>Node20</title>
<g id="a_Node000020"><a xlink:href="epub__options_8hpp.html" target="_top" xlink:title=" ">
<polygon fill="white" stroke="#666666" points="1228.67,-180 1133.64,-180 1133.64,-162 1228.67,-162 1228.67,-180"/>
<text text-anchor="middle" x="1181.16" y="-168" font-family="Helvetica,sans-Serif" font-size="10.00">epub_options.hpp</text>
</a>
</g>
</g>
<!-- Node1&#45;&gt;Node20 -->
<g id="edge28_Node000001_Node000020" class="edge">
<title>Node1&#45;&gt;Node20</title>
<g id="a_edge28_Node000001_Node000020"><a xlink:title=" ">
<path fill="none" stroke="#63b8ff" d="M1139.69,-269.68C1146.98,-252.5 1163.85,-212.76 1173.68,-189.61"/>
<polygon fill="#63b8ff" stroke="#63b8ff" points="1176.95,-190.85 1177.64,-180.28 1170.51,-188.12 1176.95,-190.85"/>
</a>
</g>
</g>
<!-- Node21 -->
<g id="Node000021" class="node">
<title>Node21</title>
<g id="a_Node000021"><a xlink:href="options_8hpp.html" target="_top" xlink:title=" ">
<polygon fill="white" stroke="#666666" points="864.86,-126 797.45,-126 797.45,-108 864.86,-108 864.86,-126"/>
<text text-anchor="middle" x="831.16" y="-114" font-family="Helvetica,sans-Serif" font-size="10.00">options.hpp</text>
</a>
</g>
</g>
<!-- Node1&#45;&gt;Node21 -->
<g id="edge59_Node000001_Node000021" class="edge">
<title>Node1&#45;&gt;Node21</title>
<g id="a_edge59_Node000001_Node000021"><a xlink:title=" ">
<path fill="none" stroke="#63b8ff" d="M1119.14,-269.93C1100.96,-261.25 1071.37,-246.96 1046.16,-234 975.91,-197.9 894.1,-152.94 854.71,-131.11"/>
<polygon fill="#63b8ff" stroke="#63b8ff" points="856.09,-127.87 845.65,-126.08 852.69,-133.99 856.09,-127.87"/>
</a>
</g>
</g>
<!-- Node24 -->
<g id="Node000024" class="node">
<title>Node24</title>
<g id="a_Node000024"><a xlink:title=" ">
<polygon fill="#e0e0e0" stroke="#999999" points="1185.46,-72 1126.85,-72 1126.85,-54 1185.46,-54 1185.46,-72"/>
<text text-anchor="middle" x="1156.16" y="-60" font-family="Helvetica,sans-Serif" font-size="10.00">functional</text>
</a>
</g>
</g>
<!-- Node1&#45;&gt;Node24 -->
<g id="edge64_Node000001_Node000024" class="edge">
<title>Node1&#45;&gt;Node24</title>
<g id="a_edge64_Node000001_Node000024"><a xlink:title=" ">
<path fill="none" stroke="#63b8ff" d="M1133.85,-269.8C1128.8,-250.78 1117.76,-202.19 1124.16,-162 1128.78,-132.92 1140.68,-100.74 1148.59,-81.45"/>
<polygon fill="#63b8ff" stroke="#63b8ff" points="1151.85,-82.74 1152.5,-72.17 1145.4,-80.03 1151.85,-82.74"/>
</a>
</g>
</g>
<!-- Node25 -->
<g id="Node000025" class="node">
<title>Node25</title>
<g id="a_Node000025"><a xlink:title=" ">
<polygon fill="#e0e0e0" stroke="#999999" points="1564.5,-72 1509.81,-72 1509.81,-54 1564.5,-54 1564.5,-72"/>
<text text-anchor="middle" x="1537.16" y="-60" font-family="Helvetica,sans-Serif" font-size="10.00">iostream</text>
</a>
</g>
</g>
<!-- Node1&#45;&gt;Node25 -->
<g id="edge66_Node000001_Node000025" class="edge">
<title>Node1&#45;&gt;Node25</title>
<g id="a_edge66_Node000001_Node000025"><a xlink:title=" ">
<path fill="none" stroke="#63b8ff" d="M1156.74,-269.96C1177.9,-261.54 1211.7,-247.66 1240.16,-234 1331.22,-190.27 1353.09,-177.24 1440.16,-126 1467.07,-110.16 1497.27,-90.56 1516.71,-77.69"/>
<polygon fill="#63b8ff" stroke="#63b8ff" points="1518.69,-80.57 1525.08,-72.12 1514.82,-74.74 1518.69,-80.57"/>
</a>
</g>
</g>
<!-- Node30 -->
<g id="Node000030" class="node">
<title>Node30</title>
<g id="a_Node000030"><a xlink:title=" ">
<polygon fill="#e0e0e0" stroke="#999999" points="503.89,-72 460.42,-72 460.42,-54 503.89,-54 503.89,-72"/>
<text text-anchor="middle" x="482.16" y="-60" font-family="Helvetica,sans-Serif" font-size="10.00">vector</text>
</a>
</g>
</g>
<!-- Node1&#45;&gt;Node30 -->
<g id="edge73_Node000001_Node000030" class="edge">
<title>Node1&#45;&gt;Node30</title>
<g id="a_edge73_Node000001_Node000030"><a xlink:title=" ">
<path fill="none" stroke="#63b8ff" d="M1111.32,-269.87C1009.84,-236.67 626.77,-111.32 513.74,-74.33"/>
<polygon fill="#63b8ff" stroke="#63b8ff" points="514.55,-70.92 503.96,-71.13 512.37,-77.57 514.55,-70.92"/>
</a>
</g>
</g>
<!-- Node33 -->
<g id="Node000033" class="node">
<title>Node33</title>
<g id="a_Node000033"><a xlink:title=" ">
<polygon fill="#e0e0e0" stroke="#999999" points="1430.67,-126 1389.64,-126 1389.64,-108 1430.67,-108 1430.67,-126"/>
<text text-anchor="middle" x="1410.16" y="-114" font-family="Helvetica,sans-Serif" font-size="10.00">regex</text>
</a>
</g>
</g>
<!-- Node1&#45;&gt;Node33 -->
<g id="edge69_Node000001_Node000033" class="edge">
<title>Node1&#45;&gt;Node33</title>
<g id="a_edge69_Node000001_Node000033"><a xlink:title=" ">
<path fill="none" stroke="#63b8ff" d="M1150.12,-269.85C1194.46,-243.95 1332.36,-163.43 1387.27,-131.37"/>
<polygon fill="#63b8ff" stroke="#63b8ff" points="1389.35,-134.2 1396.22,-126.14 1385.82,-128.16 1389.35,-134.2"/>
</a>
</g>
</g>
<!-- Node34 -->
<g id="Node000034" class="node">
<title>Node34</title>
<g id="a_Node000034"><a xlink:href="minidom_8hpp.html" target="_top" xlink:title=" ">
<polygon fill="white" stroke="#666666" points="469.91,-126 396.4,-126 396.4,-108 469.91,-108 469.91,-126"/>
<text text-anchor="middle" x="433.16" y="-114" font-family="Helvetica,sans-Serif" font-size="10.00">minidom.hpp</text>
</a>
</g>
</g>
<!-- Node1&#45;&gt;Node34 -->
<g id="edge53_Node000001_Node000034" class="edge">
<title>Node1&#45;&gt;Node34</title>
<g id="a_edge53_Node000001_Node000034"><a xlink:title=" ">
<path fill="none" stroke="#63b8ff" d="M1105.38,-277.01C990.98,-273.17 594.16,-258.2 543.16,-234 496.7,-211.96 459.88,-161.08 443.07,-134.63"/>
<polygon fill="#63b8ff" stroke="#63b8ff" points="446.04,-132.77 437.81,-126.1 440.08,-136.44 446.04,-132.77"/>
</a>
</g>
</g>
<!-- Node35 -->
<g id="Node000035" class="node">
<title>Node35</title>
<g id="a_Node000035"><a xlink:title=" ">
<polygon fill="#e0e0e0" stroke="#999999" points="1629.44,-234 1590.87,-234 1590.87,-216 1629.44,-216 1629.44,-234"/>
<text text-anchor="middle" x="1610.16" y="-222" font-family="Helvetica,sans-Serif" font-size="10.00">array</text>
</a>
</g>
</g>
<!-- Node1&#45;&gt;Node35 -->
<g id="edge61_Node000001_Node000035" class="edge">
<title>Node1&#45;&gt;Node35</title>
<g id="a_edge61_Node000001_Node000035"><a xlink:title=" ">
<path fill="none" stroke="#63b8ff" d="M1166.89,-276.77C1238.02,-273.53 1419.52,-263.08 1580.52,-233.75"/>
<polygon fill="#63b8ff" stroke="#63b8ff" points="1581.41,-237.14 1590.61,-231.88 1580.14,-230.26 1581.41,-237.14"/>
</a>
</g>
</g>
<!-- Node36 -->
<g id="Node000036" class="node">
<title>Node36</title>
<g id="a_Node000036"><a xlink:title=" ">
<polygon fill="#e0e0e0" stroke="#999999" points="1690.89,-234 1647.42,-234 1647.42,-216 1690.89,-216 1690.89,-234"/>
<text text-anchor="middle" x="1669.16" y="-222" font-family="Helvetica,sans-Serif" font-size="10.00">cmath</text>
</a>
</g>
</g>
<!-- Node1&#45;&gt;Node36 -->
<g id="edge62_Node000001_Node000036" class="edge">
<title>Node1&#45;&gt;Node36</title>
<g id="a_edge62_Node000001_Node000036"><a xlink:title=" ">
<path fill="none" stroke="#63b8ff" d="M1166.94,-277.07C1244.39,-274.35 1453.65,-264.7 1637.14,-233.86"/>
<polygon fill="#63b8ff" stroke="#63b8ff" points="1637.97,-237.27 1647.24,-232.13 1636.79,-230.37 1637.97,-237.27"/>
</a>
</g>
</g>
<!-- Node37 -->
<g id="Node000037" class="node">
<title>Node37</title>
<g id="a_Node000037"><a xlink:title=" ">
<polygon fill="#e0e0e0" stroke="#999999" points="1737.66,-234 1708.66,-234 1708.66,-216 1737.66,-216 1737.66,-234"/>
<text text-anchor="middle" x="1723.16" y="-222" font-family="Helvetica,sans-Serif" font-size="10.00">ios</text>
</a>
</g>
</g>
<!-- Node1&#45;&gt;Node37 -->
<g id="edge65_Node000001_Node000037" class="edge">
<title>Node1&#45;&gt;Node37</title>
<g id="a_edge65_Node000001_Node000037"><a xlink:title=" ">
<path fill="none" stroke="#63b8ff" d="M1166.81,-278.35C1250.87,-278.74 1492.02,-275.99 1698.12,-233.91"/>
<polygon fill="#63b8ff" stroke="#63b8ff" points="1699.14,-237.28 1708.22,-231.81 1697.71,-230.42 1699.14,-237.28"/>
</a>
</g>
</g>
<!-- Node38 -->
<g id="Node000038" class="node">
<title>Node38</title>
<g id="a_Node000038"><a xlink:title=" ">
<polygon fill="#e0e0e0" stroke="#999999" points="1806.72,-234 1755.59,-234 1755.59,-216 1806.72,-216 1806.72,-234"/>
<text text-anchor="middle" x="1781.16" y="-222" font-family="Helvetica,sans-Serif" font-size="10.00">numeric</text>
</a>
</g>
</g>
<!-- Node1&#45;&gt;Node38 -->
<g id="edge67_Node000001_Node000038" class="edge">
<title>Node1&#45;&gt;Node38</title>
<g id="a_edge67_Node000001_Node000038"><a xlink:title=" ">
<path fill="none" stroke="#63b8ff" d="M1166.86,-277.51C1255.35,-275.75 1518.51,-267.94 1745.17,-234.07"/>
<polygon fill="#63b8ff" stroke="#63b8ff" points="1745.89,-237.5 1755.25,-232.54 1744.84,-230.58 1745.89,-237.5"/>
</a>
</g>
</g>
<!-- Node39 -->
<g id="Node000039" class="node">
<title>Node39</title>
<g id="a_Node000039"><a xlink:title=" ">
<polygon fill="#e0e0e0" stroke="#999999" points="1862.84,-234 1825.47,-234 1825.47,-216 1862.84,-216 1862.84,-234"/>
<text text-anchor="middle" x="1844.16" y="-222" font-family="Helvetica,sans-Serif" font-size="10.00">span</text>
</a>
</g>
</g>
<!-- Node1&#45;&gt;Node39 -->
<g id="edge70_Node000001_Node000039" class="edge">
<title>Node1&#45;&gt;Node39</title>
<g id="a_edge70_Node000001_Node000039"><a xlink:title=" ">
<path fill="none" stroke="#63b8ff" d="M1166.93,-278.34C1262.16,-278.89 1560.44,-276.94 1815.12,-233.73"/>
<polygon fill="#63b8ff" stroke="#63b8ff" points="1816.04,-237.12 1825.3,-231.98 1814.86,-230.23 1816.04,-237.12"/>
</a>
</g>
</g>
<!-- Node3 -->
<g id="Node000003" class="node">
<title>Node3</title>
<g id="a_Node000003"><a xlink:title=" ">
<polygon fill="#e0e0e0" stroke="#999999" points="164.11,-18 128.2,-18 128.2,0 164.11,0 164.11,-18"/>
<text text-anchor="middle" x="146.16" y="-6" font-family="Helvetica,sans-Serif" font-size="10.00">map</text>
</a>
</g>
</g>
<!-- Node2&#45;&gt;Node3 -->
<g id="edge2_Node000002_Node000003" class="edge">
<title>Node2&#45;&gt;Node3</title>
<g id="a_edge2_Node000002_Node000003"><a xlink:title=" ">
<path fill="none" stroke="#63b8ff" d="M178.22,-53.88C172.89,-46.59 164.92,-35.68 158.26,-26.56"/>
<polygon fill="#63b8ff" stroke="#63b8ff" points="160.9,-24.25 152.18,-18.24 155.25,-28.38 160.9,-24.25"/>
</a>
</g>
</g>
<!-- Node4 -->
<g id="Node000004" class="node">
<title>Node4</title>
<g id="a_Node000004"><a xlink:title=" ">
<polygon fill="#e0e0e0" stroke="#999999" points="355.68,-18 304.63,-18 304.63,0 355.68,0 355.68,-18"/>
<text text-anchor="middle" x="330.16" y="-6" font-family="Helvetica,sans-Serif" font-size="10.00">optional</text>
</a>
</g>
</g>
<!-- Node2&#45;&gt;Node4 -->
<g id="edge3_Node000002_Node000004" class="edge">
<title>Node2&#45;&gt;Node4</title>
<g id="a_edge3_Node000002_Node000004"><a xlink:title=" ">
<path fill="none" stroke="#63b8ff" d="M206.65,-53.99C231.01,-45.31 270.1,-31.39 297.77,-21.54"/>
<polygon fill="#63b8ff" stroke="#63b8ff" points="299.15,-24.76 307.4,-18.11 296.8,-18.16 299.15,-24.76"/>
</a>
</g>
</g>
<!-- Node2&#45;&gt;Node5 -->
<g id="edge4_Node000002_Node000005" class="edge">
<title>Node2&#45;&gt;Node5</title>
<g id="a_edge4_Node000002_Node000005"><a xlink:title=" ">
<path fill="none" stroke="#63b8ff" d="M231.7,-55C234.9,-54.63 238.07,-54.29 241.16,-54 571.24,-22.61 973.57,-12.79 1086.44,-10.55"/>
<polygon fill="#63b8ff" stroke="#63b8ff" points="1086.8,-14.04 1096.73,-10.35 1086.67,-7.05 1086.8,-14.04"/>
</a>
</g>
</g>
<!-- Node7&#45;&gt;Node3 -->
<g id="edge26_Node000007_Node000003" class="edge">
<title>Node7&#45;&gt;Node3</title>
<g id="a_edge26_Node000007_Node000003"><a xlink:title=" ">
<path fill="none" stroke="#63b8ff" d="M111.11,-215.87C72.98,-191.12 -32.87,-114.66 11.16,-54 35.61,-20.3 86.57,-11.92 118.4,-10.11"/>
<polygon fill="#63b8ff" stroke="#63b8ff" points="118.55,-13.61 128.4,-9.73 118.27,-6.62 118.55,-13.61"/>
</a>
</g>
</g>
<!-- Node8 -->
<g id="Node000008" class="node">
<title>Node8</title>
<g id="a_Node000008"><a xlink:href="package_8hpp.html" target="_top" xlink:title=" ">
<polygon fill="white" stroke="#666666" points="291.93,-180 218.38,-180 218.38,-162 291.93,-162 291.93,-180"/>
<text text-anchor="middle" x="255.16" y="-168" font-family="Helvetica,sans-Serif" font-size="10.00">package.hpp</text>
</a>
</g>
</g>
<!-- Node7&#45;&gt;Node8 -->
<g id="edge7_Node000007_Node000008" class="edge">
<title>Node7&#45;&gt;Node8</title>
<g id="a_edge7_Node000007_Node000008"><a xlink:title=" ">
<path fill="none" stroke="#63b8ff" d="M144.34,-215.99C166.01,-207.39 200.65,-193.63 225.44,-183.8"/>
<polygon fill="#63b8ff" stroke="#63b8ff" points="226.73,-187.05 234.73,-180.11 224.15,-180.54 226.73,-187.05"/>
</a>
</g>
</g>
<!-- Node7&#45;&gt;Node10 -->
<g id="edge25_Node000007_Node000010" class="edge">
<title>Node7&#45;&gt;Node10</title>
<g id="a_edge25_Node000007_Node000010"><a xlink:title=" ">
<path fill="none" stroke="#63b8ff" d="M115.7,-215.98C107.39,-207.68 94.87,-193.98 87.16,-180 69.35,-147.71 58.63,-105.56 53.61,-81.98"/>
<polygon fill="#63b8ff" stroke="#63b8ff" points="57,-81.13 51.59,-72.03 50.14,-82.52 57,-81.13"/>
</a>
</g>
</g>
<!-- Node19 -->
<g id="Node000019" class="node">
<title>Node19</title>
<g id="a_Node000019"><a xlink:title=" ">
<polygon fill="#e0e0e0" stroke="#999999" points="158.29,-180 96.02,-180 96.02,-162 158.29,-162 158.29,-180"/>
<text text-anchor="middle" x="127.16" y="-168" font-family="Helvetica,sans-Serif" font-size="10.00">type_traits</text>
</a>
</g>
</g>
<!-- Node7&#45;&gt;Node19 -->
<g id="edge27_Node000007_Node000019" class="edge">
<title>Node7&#45;&gt;Node19</title>
<g id="a_edge27_Node000007_Node000019"><a xlink:title=" ">
<path fill="none" stroke="#63b8ff" d="M124.62,-215.88C125.02,-209.05 125.6,-199.03 126.1,-190.29"/>
<polygon fill="#63b8ff" stroke="#63b8ff" points="129.6,-190.42 126.68,-180.24 122.61,-190.02 129.6,-190.42"/>
</a>
</g>
</g>
<!-- Node8&#45;&gt;Node9 -->
<g id="edge8_Node000008_Node000009" class="edge">
<title>Node8&#45;&gt;Node9</title>
<g id="a_edge8_Node000008_Node000009"><a xlink:title=" ">
<path fill="none" stroke="#63b8ff" d="M260.78,-161.88C265.82,-154.59 273.38,-143.68 279.69,-134.56"/>
<polygon fill="#63b8ff" stroke="#63b8ff" points="282.64,-136.45 285.45,-126.24 276.88,-132.47 282.64,-136.45"/>
</a>
</g>
</g>
<!-- Node8&#45;&gt;Node10 -->
<g id="edge24_Node000008_Node000010" class="edge">
<title>Node8&#45;&gt;Node10</title>
<g id="a_edge24_Node000008_Node000010"><a xlink:title=" ">
<path fill="none" stroke="#63b8ff" d="M243.78,-161.88C225.9,-149.33 189.88,-124.92 157.16,-108 132.71,-95.36 103.78,-83.65 82.17,-75.49"/>
<polygon fill="#63b8ff" stroke="#63b8ff" points="83.39,-72.21 72.8,-72 80.95,-78.77 83.39,-72.21"/>
</a>
</g>
</g>
<!-- Node8&#45;&gt;Node14 -->
<g id="edge15_Node000008_Node000014" class="edge">
<title>Node8&#45;&gt;Node14</title>
<g id="a_edge15_Node000008_Node000014"><a xlink:title=" ">
<path fill="none" stroke="#63b8ff" d="M292.21,-169.96C419.95,-169.46 853.92,-164.89 1221.45,-126.04"/>
<polygon fill="#63b8ff" stroke="#63b8ff" points="1221.91,-129.51 1231.48,-124.97 1221.16,-122.55 1221.91,-129.51"/>
</a>
</g>
</g>
<!-- Node8&#45;&gt;Node18 -->
<g id="edge21_Node000008_Node000018" class="edge">
<title>Node8&#45;&gt;Node18</title>
<g id="a_edge21_Node000008_Node000018"><a xlink:title=" ">
<path fill="none" stroke="#63b8ff" d="M234.67,-161.99C212.67,-153.39 177.49,-139.63 152.32,-129.8"/>
<polygon fill="#63b8ff" stroke="#63b8ff" points="153.48,-126.49 142.89,-126.11 150.93,-133.01 153.48,-126.49"/>
</a>
</g>
</g>
<!-- Node9&#45;&gt;Node2 -->
<g id="edge9_Node000009_Node000002" class="edge">
<title>Node9&#45;&gt;Node2</title>
<g id="a_edge9_Node000009_Node000002"><a xlink:title=" ">
<path fill="none" stroke="#63b8ff" d="M274.44,-107.88C257.16,-99.48 229.97,-86.27 209.94,-76.53"/>
<polygon fill="#63b8ff" stroke="#63b8ff" points="211.28,-73.29 200.76,-72.07 208.22,-79.59 211.28,-73.29"/>
</a>
</g>
</g>
<!-- Node9&#45;&gt;Node3 -->
<g id="edge11_Node000009_Node000003" class="edge">
<title>Node9&#45;&gt;Node3</title>
<g id="a_edge11_Node000009_Node000003"><a xlink:title=" ">
<path fill="none" stroke="#63b8ff" d="M242.04,-109.46C198.99,-102.59 141.15,-90.24 127.16,-72 116.91,-58.65 125.11,-39.74 133.71,-26.33"/>
<polygon fill="#63b8ff" stroke="#63b8ff" points="136.63,-28.25 139.5,-18.05 130.9,-24.24 136.63,-28.25"/>
</a>
</g>
</g>
<!-- Node9&#45;&gt;Node10 -->
<g id="edge10_Node000009_Node000010" class="edge">
<title>Node9&#45;&gt;Node10</title>
<g id="a_edge10_Node000009_Node000010"><a xlink:title=" ">
<path fill="none" stroke="#63b8ff" d="M254.03,-107.99C209.71,-98.43 135.89,-82.5 90.29,-72.66"/>
<polygon fill="#63b8ff" stroke="#63b8ff" points="90.97,-69.23 80.46,-70.54 89.49,-76.07 90.97,-69.23"/>
</a>
</g>
</g>
<!-- Node11 -->
<g id="Node000011" class="node">
<title>Node11</title>
<g id="a_Node000011"><a xlink:title=" ">
<polygon fill="#e0e0e0" stroke="#999999" points="302.27,-72 250.04,-72 250.04,-54 302.27,-54 302.27,-72"/>
<text text-anchor="middle" x="276.16" y="-60" font-family="Helvetica,sans-Serif" font-size="10.00">memory</text>
</a>
</g>
</g>
<!-- Node9&#45;&gt;Node11 -->
<g id="edge12_Node000009_Node000011" class="edge">
<title>Node9&#45;&gt;Node11</title>
<g id="a_edge12_Node000009_Node000011"><a xlink:title=" ">
<path fill="none" stroke="#63b8ff" d="M288.81,-107.88C286.82,-100.97 283.89,-90.81 281.35,-82"/>
<polygon fill="#63b8ff" stroke="#63b8ff" points="284.67,-80.88 278.53,-72.24 277.94,-82.82 284.67,-80.88"/>
</a>
</g>
</g>
<!-- Node9&#45;&gt;Node12 -->
<g id="edge13_Node000009_Node000012" class="edge">
<title>Node9&#45;&gt;Node12</title>
<g id="a_edge13_Node000009_Node000012"><a xlink:title=" ">
<path fill="none" stroke="#63b8ff" d="M310.87,-107.99C331.95,-99.43 365.6,-85.76 389.8,-75.93"/>
<polygon fill="#63b8ff" stroke="#63b8ff" points="391.26,-79.11 399.2,-72.11 388.62,-72.63 391.26,-79.11"/>
</a>
</g>
</g>
<!-- Node9&#45;&gt;Node13 -->
<g id="edge14_Node000009_Node000013" class="edge">
<title>Node9&#45;&gt;Node13</title>
<g id="a_edge14_Node000009_Node000013"><a xlink:title=" ">
<path fill="none" stroke="#63b8ff" d="M339.97,-111.7C355.09,-110.43 371.81,-109.09 387.16,-108 660.71,-88.61 729.82,-94.36 1003.16,-72 1015.02,-71.03 1027.9,-69.76 1039.63,-68.51"/>
<polygon fill="#63b8ff" stroke="#63b8ff" points="1040.02,-71.99 1049.59,-67.43 1039.27,-65.03 1040.02,-71.99"/>
</a>
</g>
</g>
<!-- Node14&#45;&gt;Node5 -->
<g id="edge19_Node000014_Node000005" class="edge">
<title>Node14&#45;&gt;Node5</title>
<g id="a_edge19_Node000014_Node000005"><a xlink:title=" ">
<path fill="none" stroke="#63b8ff" d="M1266.34,-107.61C1259.98,-94.47 1246.01,-69.01 1227.16,-54 1203.61,-35.25 1171.04,-23.56 1147.45,-16.98"/>
<polygon fill="#63b8ff" stroke="#63b8ff" points="1148.19,-13.56 1137.63,-14.39 1146.41,-20.33 1148.19,-13.56"/>
</a>
</g>
</g>
<!-- Node14&#45;&gt;Node13 -->
<g id="edge18_Node000014_Node000013" class="edge">
<title>Node14&#45;&gt;Node13</title>
<g id="a_edge18_Node000014_Node000013"><a xlink:title=" ">
<path fill="none" stroke="#63b8ff" d="M1240.73,-107.99C1207.92,-99.06 1154.71,-84.57 1118.38,-74.68"/>
<polygon fill="#63b8ff" stroke="#63b8ff" points="1119.18,-71.27 1108.61,-72.02 1117.34,-78.02 1119.18,-71.27"/>
</a>
</g>
</g>
<!-- Node15 -->
<g id="Node000015" class="node">
<title>Node15</title>
<g id="a_Node000015"><a xlink:title=" ">
<polygon fill="#e0e0e0" stroke="#999999" points="1335.23,-72 1279.08,-72 1279.08,-54 1335.23,-54 1335.23,-72"/>
<text text-anchor="middle" x="1307.16" y="-60" font-family="Helvetica,sans-Serif" font-size="10.00">charconv</text>
</a>
</g>
</g>
<!-- Node14&#45;&gt;Node15 -->
<g id="edge16_Node000014_Node000015" class="edge">
<title>Node14&#45;&gt;Node15</title>
<g id="a_edge16_Node000014_Node000015"><a xlink:title=" ">
<path fill="none" stroke="#63b8ff" d="M1275.94,-107.88C1281.12,-100.59 1288.88,-89.68 1295.37,-80.56"/>
<polygon fill="#63b8ff" stroke="#63b8ff" points="1298.35,-82.42 1301.29,-72.24 1292.64,-78.36 1298.35,-82.42"/>
</a>
</g>
</g>
<!-- Node16 -->
<g id="Node000016" class="node">
<title>Node16</title>
<g id="a_Node000016"><a xlink:title=" ">
<polygon fill="#e0e0e0" stroke="#999999" points="1400.23,-72 1354.08,-72 1354.08,-54 1400.23,-54 1400.23,-72"/>
<text text-anchor="middle" x="1377.16" y="-60" font-family="Helvetica,sans-Serif" font-size="10.00">chrono</text>
</a>
</g>
</g>
<!-- Node14&#45;&gt;Node16 -->
<g id="edge17_Node000014_Node000016" class="edge">
<title>Node14&#45;&gt;Node16</title>
<g id="a_edge17_Node000014_Node000016"><a xlink:title=" ">
<path fill="none" stroke="#63b8ff" d="M1286.87,-107.88C1304.15,-99.48 1331.34,-86.27 1351.37,-76.53"/>
<polygon fill="#63b8ff" stroke="#63b8ff" points="1353.09,-79.59 1360.55,-72.07 1350.03,-73.29 1353.09,-79.59"/>
</a>
</g>
</g>
<!-- Node17 -->
<g id="Node000017" class="node">
<title>Node17</title>
<g id="a_Node000017"><a xlink:title=" ">
<polygon fill="#e0e0e0" stroke="#999999" points="1492.5,-72 1417.81,-72 1417.81,-54 1492.5,-54 1492.5,-72"/>
<text text-anchor="middle" x="1455.16" y="-60" font-family="Helvetica,sans-Serif" font-size="10.00">system_error</text>
</a>
</g>
</g>
<!-- Node14&#45;&gt;Node17 -->
<g id="edge20_Node000014_Node000017" class="edge">
<title>Node14&#45;&gt;Node17</title>
<g id="a_edge20_Node000014_Node000017"><a xlink:title=" ">
<path fill="none" stroke="#63b8ff" d="M1298.66,-107.99C1330.3,-99.1 1381.54,-84.69 1416.71,-74.81"/>
<polygon fill="#63b8ff" stroke="#63b8ff" points="1417.94,-78.1 1426.62,-72.02 1416.05,-71.36 1417.94,-78.1"/>
</a>
</g>
</g>
<!-- Node18&#45;&gt;Node2 -->
<g id="edge22_Node000018_Node000002" class="edge">
<title>Node18&#45;&gt;Node2</title>
<g id="a_edge22_Node000018_Node000002"><a xlink:title=" ">
<path fill="none" stroke="#63b8ff" d="M131.84,-107.88C141.07,-100.14 155.18,-88.3 166.42,-78.87"/>
<polygon fill="#63b8ff" stroke="#63b8ff" points="168.92,-81.35 174.33,-72.24 164.42,-75.98 168.92,-81.35"/>
</a>
</g>
</g>
<!-- Node18&#45;&gt;Node10 -->
<g id="edge23_Node000018_Node000010" class="edge">
<title>Node18&#45;&gt;Node10</title>
<g id="a_edge23_Node000018_Node000010"><a xlink:title=" ">
<path fill="none" stroke="#63b8ff" d="M110.91,-107.88C99.98,-99.98 83.16,-87.84 69.98,-78.32"/>
<polygon fill="#63b8ff" stroke="#63b8ff" points="71.72,-75.26 61.56,-72.24 67.62,-80.93 71.72,-75.26"/>
</a>
</g>
</g>
<!-- Node20&#45;&gt;Node5 -->
<g id="edge50_Node000020_Node000005" class="edge">
<title>Node20&#45;&gt;Node5</title>
<g id="a_edge50_Node000020_Node000005"><a xlink:title=" ">
<path fill="none" stroke="#63b8ff" d="M1173.41,-161.94C1163.01,-150.08 1146.73,-127.25 1155.16,-108 1167.03,-80.88 1209.01,-79.61 1194.16,-54 1184.08,-36.63 1164.29,-25.54 1147.29,-18.84"/>
<polygon fill="#63b8ff" stroke="#63b8ff" points="1148.3,-15.48 1137.71,-15.39 1145.93,-22.07 1148.3,-15.48"/>
</a>
</g>
</g>
<!-- Node20&#45;&gt;Node10 -->
<g id="edge46_Node000020_Node000010" class="edge">
<title>Node20&#45;&gt;Node10</title>
<g id="a_edge46_Node000020_Node000010"><a xlink:title=" ">
<path fill="none" stroke="#63b8ff" d="M1133.45,-169.84C966.3,-168.94 407.8,-163.17 233.16,-126 211.68,-121.43 207.84,-115.36 187.16,-108 153.3,-95.95 114.24,-83.55 86.51,-75"/>
<polygon fill="#63b8ff" stroke="#63b8ff" points="87.43,-71.62 76.84,-72.03 85.37,-78.31 87.43,-71.62"/>
</a>
</g>
</g>
<!-- Node20&#45;&gt;Node14 -->
<g id="edge29_Node000020_Node000014" class="edge">
<title>Node20&#45;&gt;Node14</title>
<g id="a_edge29_Node000020_Node000014"><a xlink:title=" ">
<path fill="none" stroke="#63b8ff" d="M1195.06,-161.88C1209.04,-153.71 1230.82,-140.98 1247.33,-131.33"/>
<polygon fill="#63b8ff" stroke="#63b8ff" points="1249.48,-134.13 1256.35,-126.07 1245.95,-128.09 1249.48,-134.13"/>
</a>
</g>
</g>
<!-- Node20&#45;&gt;Node21 -->
<g id="edge30_Node000020_Node000021" class="edge">
<title>Node20&#45;&gt;Node21</title>
<g id="a_edge30_Node000020_Node000021"><a xlink:title=" ">
<path fill="none" stroke="#63b8ff" d="M1133.59,-162.93C1065.46,-152.81 941.06,-134.33 875.03,-124.52"/>
<polygon fill="#63b8ff" stroke="#63b8ff" points="875.36,-121.03 864.95,-123.02 874.33,-127.95 875.36,-121.03"/>
</a>
</g>
</g>
<!-- Node31 -->
<g id="Node000031" class="node">
<title>Node31</title>
<g id="a_Node000031"><a xlink:title=" ">
<polygon fill="#e0e0e0" stroke="#999999" points="1214,-126 1164.31,-126 1164.31,-108 1214,-108 1214,-126"/>
<text text-anchor="middle" x="1189.16" y="-114" font-family="Helvetica,sans-Serif" font-size="10.00">fstream</text>
</a>
</g>
</g>
<!-- Node20&#45;&gt;Node31 -->
<g id="edge47_Node000020_Node000031" class="edge">
<title>Node20&#45;&gt;Node31</title>
<g id="a_edge47_Node000020_Node000031"><a xlink:title=" ">
<path fill="none" stroke="#63b8ff" d="M1182.41,-161.88C1183.46,-155.05 1185,-145.03 1186.34,-136.29"/>
<polygon fill="#63b8ff" stroke="#63b8ff" points="1189.83,-136.66 1187.89,-126.24 1182.91,-135.59 1189.83,-136.66"/>
</a>
</g>
</g>
<!-- Node32 -->
<g id="Node000032" class="node">
<title>Node32</title>
<g id="a_Node000032"><a xlink:title=" ">
<polygon fill="#e0e0e0" stroke="#999999" points="1371.5,-126 1326.81,-126 1326.81,-108 1371.5,-108 1371.5,-126"/>
<text text-anchor="middle" x="1349.16" y="-114" font-family="Helvetica,sans-Serif" font-size="10.00">iosfwd</text>
</a>
</g>
</g>
<!-- Node20&#45;&gt;Node32 -->
<g id="edge48_Node000020_Node000032" class="edge">
<title>Node20&#45;&gt;Node32</title>
<g id="a_edge48_Node000020_Node000032"><a xlink:title=" ">
<path fill="none" stroke="#63b8ff" d="M1207.04,-161.99C1236.6,-152.84 1285.01,-137.85 1316.98,-127.96"/>
<polygon fill="#63b8ff" stroke="#63b8ff" points="1318.22,-131.24 1326.74,-124.94 1316.15,-124.55 1318.22,-131.24"/>
</a>
</g>
</g>
<!-- Node20&#45;&gt;Node33 -->
<g id="edge49_Node000020_Node000033" class="edge">
<title>Node20&#45;&gt;Node33</title>
<g id="a_edge49_Node000020_Node000033"><a xlink:title=" ">
<path fill="none" stroke="#63b8ff" d="M1219.79,-161.97C1257.93,-153.93 1318.13,-140.94 1379.65,-126.03"/>
<polygon fill="#63b8ff" stroke="#63b8ff" points="1380.64,-129.39 1389.53,-123.63 1378.98,-122.59 1380.64,-129.39"/>
</a>
</g>
</g>
<!-- Node21&#45;&gt;Node3 -->
<g id="edge35_Node000021_Node000003" class="edge">
<title>Node21&#45;&gt;Node3</title>
<g id="a_edge35_Node000021_Node000003"><a xlink:title=" ">
<path fill="none" stroke="#63b8ff" d="M797.35,-114.55C743.06,-111.39 633.65,-101.61 546.16,-72 530.33,-66.65 529.07,-59.09 513.16,-54 449.8,-33.75 248.39,-17.44 174.06,-11.97"/>
<polygon fill="#63b8ff" stroke="#63b8ff" points="174.28,-8.48 164.05,-11.24 173.77,-15.46 174.28,-8.48"/>
</a>
</g>
</g>
<!-- Node21&#45;&gt;Node4 -->
<g id="edge37_Node000021_Node000004" class="edge">
<title>Node21&#45;&gt;Node4</title>
<g id="a_edge37_Node000021_Node000004"><a xlink:title=" ">
<path fill="none" stroke="#63b8ff" d="M797.35,-112.2C750.06,-106.36 661.83,-93.54 589.16,-72 569.29,-66.11 565.96,-60.1 546.16,-54 483.98,-34.86 409.14,-21.74 365.87,-15.08"/>
<polygon fill="#63b8ff" stroke="#63b8ff" points="366.24,-11.6 355.83,-13.57 365.2,-18.52 366.24,-11.6"/>
</a>
</g>
</g>
<!-- Node21&#45;&gt;Node5 -->
<g id="edge42_Node000021_Node000005" class="edge">
<title>Node21&#45;&gt;Node5</title>
<g id="a_edge42_Node000021_Node000005"><a xlink:title=" ">
<path fill="none" stroke="#63b8ff" d="M864.9,-109.94C900.15,-103.03 956.68,-90.26 1003.16,-72 1021.24,-64.9 1066.71,-39.21 1094.45,-23.22"/>
<polygon fill="#63b8ff" stroke="#63b8ff" points="1096.22,-26.24 1103.12,-18.2 1092.71,-20.18 1096.22,-26.24"/>
</a>
</g>
</g>
<!-- Node21&#45;&gt;Node11 -->
<g id="edge36_Node000021_Node000011" class="edge">
<title>Node21&#45;&gt;Node11</title>
<g id="a_edge36_Node000021_Node000011"><a xlink:title=" ">
<path fill="none" stroke="#63b8ff" d="M797.27,-112.83C698.85,-103.6 413.54,-76.87 312.31,-67.39"/>
<polygon fill="#63b8ff" stroke="#63b8ff" points="312.55,-63.89 302.27,-66.45 311.9,-70.86 312.55,-63.89"/>
</a>
</g>
</g>
<!-- Node21&#45;&gt;Node12 -->
<g id="edge38_Node000021_Node000012" class="edge">
<title>Node21&#45;&gt;Node12</title>
<g id="a_edge38_Node000021_Node000012"><a xlink:title=" ">
<path fill="none" stroke="#63b8ff" d="M797.39,-113.57C732.41,-108.57 585.32,-95.73 452.45,-72.01"/>
<polygon fill="#63b8ff" stroke="#63b8ff" points="452.96,-68.55 442.5,-70.21 451.71,-75.43 452.96,-68.55"/>
</a>
</g>
</g>
<!-- Node21&#45;&gt;Node13 -->
<g id="edge41_Node000021_Node000013" class="edge">
<title>Node21&#45;&gt;Node13</title>
<g id="a_edge41_Node000021_Node000013"><a xlink:title=" ">
<path fill="none" stroke="#63b8ff" d="M865.12,-108.88C910.72,-99.32 991.58,-82.36 1039.79,-72.25"/>
<polygon fill="#63b8ff" stroke="#63b8ff" points="1040.78,-75.62 1049.85,-70.15 1039.34,-68.77 1040.78,-75.62"/>
</a>
</g>
</g>
<!-- Node22 -->
<g id="Node000022" class="node">
<title>Node22</title>
<g id="a_Node000022"><a xlink:title=" ">
<polygon fill="#e0e0e0" stroke="#999999" points="655.78,-72 598.53,-72 598.53,-54 655.78,-54 655.78,-72"/>
<text text-anchor="middle" x="627.16" y="-60" font-family="Helvetica,sans-Serif" font-size="10.00">algorithm</text>
</a>
</g>
</g>
<!-- Node21&#45;&gt;Node22 -->
<g id="edge31_Node000021_Node000022" class="edge">
<title>Node21&#45;&gt;Node22</title>
<g id="a_edge31_Node000021_Node000022"><a xlink:title=" ">
<path fill="none" stroke="#63b8ff" d="M799.73,-107.99C763.72,-98.81 704.69,-83.76 665.87,-73.87"/>
<polygon fill="#63b8ff" stroke="#63b8ff" points="666.53,-70.43 655.98,-71.35 664.8,-77.21 666.53,-70.43"/>
</a>
</g>
</g>
<!-- Node23 -->
<g id="Node000023" class="node">
<title>Node23</title>
<g id="a_Node000023"><a xlink:title=" ">
<polygon fill="#e0e0e0" stroke="#999999" points="722.39,-72 673.92,-72 673.92,-54 722.39,-54 722.39,-72"/>
<text text-anchor="middle" x="698.16" y="-60" font-family="Helvetica,sans-Serif" font-size="10.00">cassert</text>
</a>
</g>
</g>
<!-- Node21&#45;&gt;Node23 -->
<g id="edge32_Node000021_Node000023" class="edge">
<title>Node21&#45;&gt;Node23</title>
<g id="a_edge32_Node000021_Node000023"><a xlink:title=" ">
<path fill="none" stroke="#63b8ff" d="M810.67,-107.99C788.67,-99.39 753.49,-85.63 728.32,-75.8"/>
<polygon fill="#63b8ff" stroke="#63b8ff" points="729.48,-72.49 718.89,-72.11 726.93,-79.01 729.48,-72.49"/>
</a>
</g>
</g>
<!-- Node21&#45;&gt;Node24 -->
<g id="edge33_Node000021_Node000024" class="edge">
<title>Node21&#45;&gt;Node24</title>
<g id="a_edge33_Node000021_Node000024"><a xlink:title=" ">
<path fill="none" stroke="#63b8ff" d="M865.15,-111.33C917.03,-104.07 1019.33,-89.3 1116.78,-71.98"/>
<polygon fill="#63b8ff" stroke="#63b8ff" points="1117.57,-75.39 1126.8,-70.18 1116.34,-68.5 1117.57,-75.39"/>
</a>
</g>
</g>
<!-- Node21&#45;&gt;Node25 -->
<g id="edge34_Node000021_Node000025" class="edge">
<title>Node21&#45;&gt;Node25</title>
<g id="a_edge34_Node000021_Node000025"><a xlink:title=" ">
<path fill="none" stroke="#63b8ff" d="M865.16,-115.6C962.62,-114.07 1251.37,-106.83 1499.78,-71.96"/>
<polygon fill="#63b8ff" stroke="#63b8ff" points="1500.31,-75.42 1509.72,-70.55 1499.32,-68.49 1500.31,-75.42"/>
</a>
</g>
</g>
<!-- Node26 -->
<g id="Node000026" class="node">
<title>Node26</title>
<g id="a_Node000026"><a xlink:title=" ">
<polygon fill="#e0e0e0" stroke="#999999" points="770,-72 740.31,-72 740.31,-54 770,-54 770,-72"/>
<text text-anchor="middle" x="755.16" y="-60" font-family="Helvetica,sans-Serif" font-size="10.00">set</text>
</a>
</g>
</g>
<!-- Node21&#45;&gt;Node26 -->
<g id="edge39_Node000021_Node000026" class="edge">
<title>Node21&#45;&gt;Node26</title>
<g id="a_edge39_Node000021_Node000026"><a xlink:title=" ">
<path fill="none" stroke="#63b8ff" d="M819.28,-107.88C807.64,-99.91 789.65,-87.6 775.69,-78.05"/>
<polygon fill="#63b8ff" stroke="#63b8ff" points="777.43,-75 767.2,-72.24 773.47,-80.78 777.43,-75"/>
</a>
</g>
</g>
<!-- Node27 -->
<g id="Node000027" class="node">
<title>Node27</title>
<g id="a_Node000027"><a xlink:title=" ">
<polygon fill="#e0e0e0" stroke="#999999" points="874.2,-72 788.11,-72 788.11,-54 874.2,-54 874.2,-72"/>
<text text-anchor="middle" x="831.16" y="-60" font-family="Helvetica,sans-Serif" font-size="10.00">source_location</text>
</a>
</g>
</g>
<!-- Node21&#45;&gt;Node27 -->
<g id="edge40_Node000021_Node000027" class="edge">
<title>Node21&#45;&gt;Node27</title>
<g id="a_edge40_Node000021_Node000027"><a xlink:title=" ">
<path fill="none" stroke="#63b8ff" d="M831.16,-107.88C831.16,-101.05 831.16,-91.03 831.16,-82.29"/>
<polygon fill="#63b8ff" stroke="#63b8ff" points="834.66,-82.24 831.16,-72.24 827.66,-82.24 834.66,-82.24"/>
</a>
</g>
</g>
<!-- Node28 -->
<g id="Node000028" class="node">
<title>Node28</title>
<g id="a_Node000028"><a xlink:title=" ">
<polygon fill="#e0e0e0" stroke="#999999" points="929.84,-72 892.47,-72 892.47,-54 929.84,-54 929.84,-72"/>
<text text-anchor="middle" x="911.16" y="-60" font-family="Helvetica,sans-Serif" font-size="10.00">tuple</text>
</a>
</g>
</g>
<!-- Node21&#45;&gt;Node28 -->
<g id="edge43_Node000021_Node000028" class="edge">
<title>Node21&#45;&gt;Node28</title>
<g id="a_edge43_Node000021_Node000028"><a xlink:title=" ">
<path fill="none" stroke="#63b8ff" d="M843.66,-107.88C856.1,-99.79 875.43,-87.22 890.22,-77.61"/>
<polygon fill="#63b8ff" stroke="#63b8ff" points="892.27,-80.45 898.74,-72.07 888.45,-74.58 892.27,-80.45"/>
</a>
</g>
</g>
<!-- Node29 -->
<g id="Node000029" class="node">
<title>Node29</title>
<g id="a_Node000029"><a xlink:title=" ">
<polygon fill="#e0e0e0" stroke="#999999" points="994.17,-72 948.14,-72 948.14,-54 994.17,-54 994.17,-72"/>
<text text-anchor="middle" x="971.16" y="-60" font-family="Helvetica,sans-Serif" font-size="10.00">variant</text>
</a>
</g>
</g>
<!-- Node21&#45;&gt;Node29 -->
<g id="edge44_Node000021_Node000029" class="edge">
<title>Node21&#45;&gt;Node29</title>
<g id="a_edge44_Node000021_Node000029"><a xlink:title=" ">
<path fill="none" stroke="#63b8ff" d="M852.72,-107.99C875.98,-99.35 913.24,-85.51 939.75,-75.67"/>
<polygon fill="#63b8ff" stroke="#63b8ff" points="941.18,-78.87 949.33,-72.11 938.74,-72.31 941.18,-78.87"/>
</a>
</g>
</g>
<!-- Node21&#45;&gt;Node30 -->
<g id="edge45_Node000021_Node000030" class="edge">
<title>Node21&#45;&gt;Node30</title>
<g id="a_edge45_Node000021_Node000030"><a xlink:title=" ">
<path fill="none" stroke="#63b8ff" d="M797.2,-112.12C739.6,-105.34 619.13,-90.29 518.16,-72 516.7,-71.74 515.21,-71.45 513.71,-71.16"/>
<polygon fill="#63b8ff" stroke="#63b8ff" points="514.3,-67.71 503.8,-69.1 512.88,-74.56 514.3,-67.71"/>
</a>
</g>
</g>
<!-- Node34&#45;&gt;Node4 -->
<g id="edge56_Node000034_Node000004" class="edge">
<title>Node34&#45;&gt;Node4</title>
<g id="a_edge56_Node000034_Node000004"><a xlink:title=" ">
<path fill="none" stroke="#63b8ff" d="M409.54,-107.9C392.13,-100.85 368.99,-89.06 354.16,-72 343.26,-59.48 337.04,-41.47 333.67,-28.09"/>
<polygon fill="#63b8ff" stroke="#63b8ff" points="337.05,-27.16 331.47,-18.15 330.22,-28.67 337.05,-27.16"/>
</a>
</g>
</g>
<!-- Node34&#45;&gt;Node5 -->
<g id="edge57_Node000034_Node000005" class="edge">
<title>Node34&#45;&gt;Node5</title>
<g id="a_edge57_Node000034_Node000005"><a xlink:title=" ">
<path fill="none" stroke="#63b8ff" d="M419.65,-107.91C400.74,-95.6 370.43,-71.76 387.16,-54 411.52,-28.12 951.84,-13.85 1086.81,-10.68"/>
<polygon fill="#63b8ff" stroke="#63b8ff" points="1086.95,-14.18 1096.87,-10.45 1086.79,-7.18 1086.95,-14.18"/>
</a>
</g>
</g>
<!-- Node34&#45;&gt;Node10 -->
<g id="edge54_Node000034_Node000010" class="edge">
<title>Node34&#45;&gt;Node10</title>
<g id="a_edge54_Node000034_Node000010"><a xlink:title=" ">
<path fill="none" stroke="#63b8ff" d="M396.43,-111.01C324.46,-101.24 165.36,-79.64 90.54,-69.48"/>
<polygon fill="#63b8ff" stroke="#63b8ff" points="90.94,-66 80.56,-68.13 89.99,-72.94 90.94,-66"/>
</a>
</g>
</g>
<!-- Node34&#45;&gt;Node11 -->
<g id="edge55_Node000034_Node000011" class="edge">
<title>Node34&#45;&gt;Node11</title>
<g id="a_edge55_Node000034_Node000011"><a xlink:title=" ">
<path fill="none" stroke="#63b8ff" d="M408.97,-107.99C382.46,-99.21 339.75,-85.06 309.94,-75.19"/>
<polygon fill="#63b8ff" stroke="#63b8ff" points="310.96,-71.84 300.37,-72.02 308.76,-78.49 310.96,-71.84"/>
</a>
</g>
</g>
<!-- Node34&#45;&gt;Node30 -->
<g id="edge58_Node000034_Node000030" class="edge">
<title>Node34&#45;&gt;Node30</title>
<g id="a_edge58_Node000034_Node000030"><a xlink:title=" ">
<path fill="none" stroke="#63b8ff" d="M440.81,-107.88C447.89,-100.36 458.6,-88.99 467.35,-79.71"/>
<polygon fill="#63b8ff" stroke="#63b8ff" points="470.08,-81.92 474.39,-72.24 464.99,-77.12 470.08,-81.92"/>
</a>
</g>
</g>
</g>
</svg>
