<?xml version="1.0" encoding="UTF-8" standalone="no"?>
<!DOCTYPE svg PUBLIC "-//W3C//DTD SVG 1.1//EN"
 "http://www.w3.org/Graphics/SVG/1.1/DTD/svg11.dtd">
<!-- Generated by graphviz version 2.48.0 (20210717.1556)
 -->
<!-- Title: container.hpp Pages: 1 -->
<svg width="818pt" height="296pt"
 viewBox="0.00 0.00 818.17 296.00" xmlns="http://www.w3.org/2000/svg" xmlns:xlink="http://www.w3.org/1999/xlink">
<g id="graph0" class="graph" transform="scale(1 1) rotate(0) translate(4 292)">
<title>container.hpp</title>
<!-- Node1 -->
<g id="Node000001" class="node">
<title>Node1</title>
<g id="a_Node000001"><a xlink:title=" ">
<polygon fill="#999999" stroke="#666666" points="191.05,-288 114.95,-288 114.95,-270 191.05,-270 191.05,-288"/>
<text text-anchor="middle" x="153" y="-276" font-family="Helvetica,sans-Serif" font-size="10.00">container.hpp</text>
</a>
</g>
</g>
<!-- Node2 -->
<g id="Node000002" class="node">
<title>Node2</title>
<g id="a_Node000002"><a xlink:href="navigation_8hpp.html" target="_top" xlink:title=" ">
<polygon fill="white" stroke="#666666" points="260.55,-180 179.45,-180 179.45,-162 260.55,-162 260.55,-180"/>
<text text-anchor="middle" x="220" y="-168" font-family="Helvetica,sans-Serif" font-size="10.00">navigation.hpp</text>
</a>
</g>
</g>
<!-- Node1&#45;&gt;Node2 -->
<g id="edge1_Node000001_Node000002" class="edge">
<title>Node1&#45;&gt;Node2</title>
<g id="a_edge1_Node000001_Node000002"><a xlink:title=" ">
<path fill="none" stroke="#63b8ff" d="M154.1,-269.8C156.07,-257.35 161.06,-233.33 172,-216 179.28,-204.47 190.36,-194.03 200.04,-186.22"/>
<polygon fill="#63b8ff" stroke="#63b8ff" points="202.25,-188.93 208.06,-180.07 197.99,-183.38 202.25,-188.93"/>
</a>
</g>
</g>
<!-- Node5 -->
<g id="Node000005" class="node">
<title>Node5</title>
<g id="a_Node000005"><a xlink:title=" ">
<polygon fill="#e0e0e0" stroke="#999999" points="204.96,-18 169.04,-18 169.04,0 204.96,0 204.96,-18"/>
<text text-anchor="middle" x="187" y="-6" font-family="Helvetica,sans-Serif" font-size="10.00">map</text>
</a>
</g>
</g>
<!-- Node1&#45;&gt;Node5 -->
<g id="edge37_Node000001_Node000005" class="edge">
<title>Node1&#45;&gt;Node5</title>
<g id="a_edge37_Node000001_Node000005"><a xlink:title=" ">
<path fill="none" stroke="#63b8ff" d="M117.13,-269.97C71.91,-257.48 0,-228.71 0,-172 0,-172 0,-172 0,-116 0,-43.73 107.01,-20.14 159.13,-12.94"/>
<polygon fill="#63b8ff" stroke="#63b8ff" points="159.59,-16.41 169.07,-11.67 158.71,-9.47 159.59,-16.41"/>
</a>
</g>
</g>
<!-- Node8 -->
<g id="Node000008" class="node">
<title>Node8</title>
<g id="a_Node000008"><a xlink:title=" ">
<polygon fill="#e0e0e0" stroke="#999999" points="140.45,-72 79.55,-72 79.55,-54 140.45,-54 140.45,-72"/>
<text text-anchor="middle" x="110" y="-60" font-family="Helvetica,sans-Serif" font-size="10.00">filesystem</text>
</a>
</g>
</g>
<!-- Node1&#45;&gt;Node8 -->
<g id="edge36_Node000001_Node000008" class="edge">
<title>Node1&#45;&gt;Node8</title>
<g id="a_edge36_Node000001_Node000008"><a xlink:title=" ">
<path fill="none" stroke="#63b8ff" d="M149.86,-269.93C141.33,-247.53 117.84,-182.5 110,-126 107.98,-111.46 108.11,-94.81 108.68,-82.43"/>
<polygon fill="#63b8ff" stroke="#63b8ff" points="112.19,-82.26 109.3,-72.07 105.21,-81.85 112.19,-82.26"/>
</a>
</g>
</g>
<!-- Node14 -->
<g id="Node000014" class="node">
<title>Node14</title>
<g id="a_Node000014"><a xlink:href="package_8hpp.html" target="_top" xlink:title=" ">
<polygon fill="white" stroke="#666666" points="254.77,-234 181.23,-234 181.23,-216 254.77,-216 254.77,-234"/>
<text text-anchor="middle" x="218" y="-222" font-family="Helvetica,sans-Serif" font-size="10.00">package.hpp</text>
</a>
</g>
</g>
<!-- Node1&#45;&gt;Node14 -->
<g id="edge19_Node000001_Node000014" class="edge">
<title>Node1&#45;&gt;Node14</title>
<g id="a_edge19_Node000001_Node000014"><a xlink:title=" ">
<path fill="none" stroke="#63b8ff" d="M163.16,-269.88C172.93,-262.06 187.91,-250.07 199.75,-240.6"/>
<polygon fill="#63b8ff" stroke="#63b8ff" points="202.08,-243.22 207.7,-234.24 197.71,-237.75 202.08,-243.22"/>
</a>
</g>
</g>
<!-- Node22 -->
<g id="Node000022" class="node">
<title>Node22</title>
<g id="a_Node000022"><a xlink:title=" ">
<polygon fill="#e0e0e0" stroke="#999999" points="335.13,-234 272.87,-234 272.87,-216 335.13,-216 335.13,-234"/>
<text text-anchor="middle" x="304" y="-222" font-family="Helvetica,sans-Serif" font-size="10.00">type_traits</text>
</a>
</g>
</g>
<!-- Node1&#45;&gt;Node22 -->
<g id="edge38_Node000001_Node000022" class="edge">
<title>Node1&#45;&gt;Node22</title>
<g id="a_edge38_Node000001_Node000022"><a xlink:title=" ">
<path fill="none" stroke="#63b8ff" d="M176.26,-269.99C201.65,-261.25 242.48,-247.19 271.13,-237.32"/>
<polygon fill="#63b8ff" stroke="#63b8ff" points="272.4,-240.59 280.71,-234.02 270.12,-233.97 272.4,-240.59"/>
</a>
</g>
</g>
<!-- Node3 -->
<g id="Node000003" class="node">
<title>Node3</title>
<g id="a_Node000003"><a xlink:href="manifest_8hpp.html" target="_top" xlink:title=" ">
<polygon fill="white" stroke="#666666" points="323.76,-126 250.24,-126 250.24,-108 323.76,-108 323.76,-126"/>
<text text-anchor="middle" x="287" y="-114" font-family="Helvetica,sans-Serif" font-size="10.00">manifest.hpp</text>
</a>
</g>
</g>
<!-- Node2&#45;&gt;Node3 -->
<g id="edge2_Node000002_Node000003" class="edge">
<title>Node2&#45;&gt;Node3</title>
<g id="a_edge2_Node000002_Node000003"><a xlink:title=" ">
<path fill="none" stroke="#63b8ff" d="M230.47,-161.88C240.54,-154.06 255.99,-142.07 268.19,-132.6"/>
<polygon fill="#63b8ff" stroke="#63b8ff" points="270.63,-135.14 276.38,-126.24 266.34,-129.61 270.63,-135.14"/>
</a>
</g>
</g>
<!-- Node2&#45;&gt;Node8 -->
<g id="edge16_Node000002_Node000008" class="edge">
<title>Node2&#45;&gt;Node8</title>
<g id="a_edge16_Node000002_Node000008"><a xlink:title=" ">
<path fill="none" stroke="#63b8ff" d="M192.32,-161.97C173.32,-155.18 148.78,-143.68 133,-126 122.01,-113.69 116.11,-95.66 113.05,-82.21"/>
<polygon fill="#63b8ff" stroke="#63b8ff" points="116.45,-81.36 111.1,-72.22 109.58,-82.7 116.45,-81.36"/>
</a>
</g>
</g>
<!-- Node9 -->
<g id="Node000009" class="node">
<title>Node9</title>
<g id="a_Node000009"><a xlink:title=" ">
<polygon fill="#e0e0e0" stroke="#999999" points="400.11,-72 347.89,-72 347.89,-54 400.11,-54 400.11,-72"/>
<text text-anchor="middle" x="374" y="-60" font-family="Helvetica,sans-Serif" font-size="10.00">memory</text>
</a>
</g>
</g>
<!-- Node2&#45;&gt;Node9 -->
<g id="edge17_Node000002_Node000009" class="edge">
<title>Node2&#45;&gt;Node9</title>
<g id="a_edge17_Node000002_Node000009"><a xlink:title=" ">
<path fill="none" stroke="#63b8ff" d="M220.49,-161.97C221.71,-148.87 226,-122.89 241,-108 248.1,-100.95 301.01,-84.79 337.91,-74.14"/>
<polygon fill="#63b8ff" stroke="#63b8ff" points="339.2,-77.41 347.85,-71.29 337.27,-70.68 339.2,-77.41"/>
</a>
</g>
</g>
<!-- Node12 -->
<g id="Node000012" class="node">
<title>Node12</title>
<g id="a_Node000012"><a xlink:href="xml_8hpp.html" target="_top" xlink:title=" ">
<polygon fill="white" stroke="#666666" points="193.51,-126 142.49,-126 142.49,-108 193.51,-108 193.51,-126"/>
<text text-anchor="middle" x="168" y="-114" font-family="Helvetica,sans-Serif" font-size="10.00">xml.hpp</text>
</a>
</g>
</g>
<!-- Node2&#45;&gt;Node12 -->
<g id="edge12_Node000002_Node000012" class="edge">
<title>Node2&#45;&gt;Node12</title>
<g id="a_edge12_Node000002_Node000012"><a xlink:title=" ">
<path fill="none" stroke="#63b8ff" d="M211.88,-161.88C204.29,-154.29 192.76,-142.76 183.43,-133.43"/>
<polygon fill="#63b8ff" stroke="#63b8ff" points="185.79,-130.84 176.24,-126.24 180.84,-135.79 185.79,-130.84"/>
</a>
</g>
</g>
<!-- Node13 -->
<g id="Node000013" class="node">
<title>Node13</title>
<g id="a_Node000013"><a xlink:title=" ">
<polygon fill="#e0e0e0" stroke="#999999" points="384.73,-126 341.27,-126 341.27,-108 384.73,-108 384.73,-126"/>
<text text-anchor="middle" x="363" y="-114" font-family="Helvetica,sans-Serif" font-size="10.00">vector</text>
</a>
</g>
</g>
<!-- Node2&#45;&gt;Node13 -->
<g id="edge18_Node000002_Node000013" class="edge">
<title>Node2&#45;&gt;Node13</title>
<g id="a_edge18_Node000002_Node000013"><a xlink:title=" ">
<path fill="none" stroke="#63b8ff" d="M242.03,-161.99C266.03,-153.26 304.63,-139.23 331.75,-129.36"/>
<polygon fill="#63b8ff" stroke="#63b8ff" points="332.98,-132.64 341.18,-125.93 330.59,-126.06 332.98,-132.64"/>
</a>
</g>
</g>
<!-- Node4 -->
<g id="Node000004" class="node">
<title>Node4</title>
<g id="a_Node000004"><a xlink:href="file__metadata_8hpp.html" target="_top" xlink:title=" ">
<polygon fill="white" stroke="#666666" points="329.5,-72 234.5,-72 234.5,-54 329.5,-54 329.5,-72"/>
<text text-anchor="middle" x="282" y="-60" font-family="Helvetica,sans-Serif" font-size="10.00">file_metadata.hpp</text>
</a>
</g>
</g>
<!-- Node3&#45;&gt;Node4 -->
<g id="edge3_Node000003_Node000004" class="edge">
<title>Node3&#45;&gt;Node4</title>
<g id="a_edge3_Node000003_Node000004"><a xlink:title=" ">
<path fill="none" stroke="#63b8ff" d="M286.22,-107.88C285.56,-101.05 284.6,-91.03 283.76,-82.29"/>
<polygon fill="#63b8ff" stroke="#63b8ff" points="287.23,-81.86 282.79,-72.24 280.27,-82.53 287.23,-81.86"/>
</a>
</g>
</g>
<!-- Node3&#45;&gt;Node5 -->
<g id="edge8_Node000003_Node000005" class="edge">
<title>Node3&#45;&gt;Node5</title>
<g id="a_edge8_Node000003_Node000005"><a xlink:title=" ">
<path fill="none" stroke="#63b8ff" d="M272.45,-107.99C259.01,-100.09 239.06,-87.04 225,-72 212.5,-58.62 201.96,-40.51 195.18,-27.31"/>
<polygon fill="#63b8ff" stroke="#63b8ff" points="198.32,-25.76 190.76,-18.34 192.04,-28.86 198.32,-25.76"/>
</a>
</g>
</g>
<!-- Node3&#45;&gt;Node8 -->
<g id="edge7_Node000003_Node000008" class="edge">
<title>Node3&#45;&gt;Node8</title>
<g id="a_edge7_Node000003_Node000008"><a xlink:title=" ">
<path fill="none" stroke="#63b8ff" d="M259.73,-107.99C229.59,-99.13 180.86,-84.82 147.22,-74.93"/>
<polygon fill="#63b8ff" stroke="#63b8ff" points="147.88,-71.48 137.3,-72.02 145.91,-78.2 147.88,-71.48"/>
</a>
</g>
</g>
<!-- Node3&#45;&gt;Node9 -->
<g id="edge9_Node000003_Node000009" class="edge">
<title>Node3&#45;&gt;Node9</title>
<g id="a_edge9_Node000003_Node000009"><a xlink:title=" ">
<path fill="none" stroke="#63b8ff" d="M300.59,-107.88C314.26,-99.71 335.55,-86.98 351.69,-77.33"/>
<polygon fill="#63b8ff" stroke="#63b8ff" points="353.71,-80.2 360.5,-72.07 350.12,-74.19 353.71,-80.2"/>
</a>
</g>
</g>
<!-- Node10 -->
<g id="Node000010" class="node">
<title>Node10</title>
<g id="a_Node000010"><a xlink:title=" ">
<polygon fill="#e0e0e0" stroke="#999999" points="464.08,-72 417.92,-72 417.92,-54 464.08,-54 464.08,-72"/>
<text text-anchor="middle" x="441" y="-60" font-family="Helvetica,sans-Serif" font-size="10.00">ranges</text>
</a>
</g>
</g>
<!-- Node3&#45;&gt;Node10 -->
<g id="edge10_Node000003_Node000010" class="edge">
<title>Node3&#45;&gt;Node10</title>
<g id="a_edge10_Node000003_Node000010"><a xlink:title=" ">
<path fill="none" stroke="#63b8ff" d="M310.73,-107.99C336.69,-99.22 378.5,-85.1 407.73,-75.23"/>
<polygon fill="#63b8ff" stroke="#63b8ff" points="409.15,-78.45 417.5,-71.93 406.91,-71.82 409.15,-78.45"/>
</a>
</g>
</g>
<!-- Node11 -->
<g id="Node000011" class="node">
<title>Node11</title>
<g id="a_Node000011"><a xlink:title=" ">
<polygon fill="#e0e0e0" stroke="#999999" points="541.3,-72 482.7,-72 482.7,-54 541.3,-54 541.3,-72"/>
<text text-anchor="middle" x="512" y="-60" font-family="Helvetica,sans-Serif" font-size="10.00">stdexcept</text>
</a>
</g>
</g>
<!-- Node3&#45;&gt;Node11 -->
<g id="edge11_Node000003_Node000011" class="edge">
<title>Node3&#45;&gt;Node11</title>
<g id="a_edge11_Node000003_Node000011"><a xlink:title=" ">
<path fill="none" stroke="#63b8ff" d="M321.66,-107.99C362.52,-98.55 430.24,-82.9 472.92,-73.03"/>
<polygon fill="#63b8ff" stroke="#63b8ff" points="473.72,-76.44 482.68,-70.78 472.15,-69.62 473.72,-76.44"/>
</a>
</g>
</g>
<!-- Node4&#45;&gt;Node5 -->
<g id="edge4_Node000004_Node000005" class="edge">
<title>Node4&#45;&gt;Node5</title>
<g id="a_edge4_Node000004_Node000005"><a xlink:title=" ">
<path fill="none" stroke="#63b8ff" d="M267.16,-53.88C252.1,-45.63 228.55,-32.74 210.87,-23.07"/>
<polygon fill="#63b8ff" stroke="#63b8ff" points="212.19,-19.8 201.74,-18.07 208.83,-25.94 212.19,-19.8"/>
</a>
</g>
</g>
<!-- Node6 -->
<g id="Node000006" class="node">
<title>Node6</title>
<g id="a_Node000006"><a xlink:title=" ">
<polygon fill="#e0e0e0" stroke="#999999" points="307.53,-18 256.47,-18 256.47,0 307.53,0 307.53,-18"/>
<text text-anchor="middle" x="282" y="-6" font-family="Helvetica,sans-Serif" font-size="10.00">optional</text>
</a>
</g>
</g>
<!-- Node4&#45;&gt;Node6 -->
<g id="edge5_Node000004_Node000006" class="edge">
<title>Node4&#45;&gt;Node6</title>
<g id="a_edge5_Node000004_Node000006"><a xlink:title=" ">
<path fill="none" stroke="#63b8ff" d="M282,-53.88C282,-47.05 282,-37.03 282,-28.29"/>
<polygon fill="#63b8ff" stroke="#63b8ff" points="285.5,-28.24 282,-18.24 278.5,-28.24 285.5,-28.24"/>
</a>
</g>
</g>
<!-- Node7 -->
<g id="Node000007" class="node">
<title>Node7</title>
<g id="a_Node000007"><a xlink:title=" ">
<polygon fill="#e0e0e0" stroke="#999999" points="477.46,-18 436.54,-18 436.54,0 477.46,0 477.46,-18"/>
<text text-anchor="middle" x="457" y="-6" font-family="Helvetica,sans-Serif" font-size="10.00">string</text>
</a>
</g>
</g>
<!-- Node4&#45;&gt;Node7 -->
<g id="edge6_Node000004_Node000007" class="edge">
<title>Node4&#45;&gt;Node7</title>
<g id="a_edge6_Node000004_Node000007"><a xlink:title=" ">
<path fill="none" stroke="#63b8ff" d="M308.96,-53.99C340.85,-44.51 393.78,-28.79 426.95,-18.93"/>
<polygon fill="#63b8ff" stroke="#63b8ff" points="427.98,-22.27 436.57,-16.07 425.99,-15.56 427.98,-22.27"/>
</a>
</g>
</g>
<!-- Node12&#45;&gt;Node4 -->
<g id="edge13_Node000012_Node000004" class="edge">
<title>Node12&#45;&gt;Node4</title>
<g id="a_edge13_Node000012_Node000004"><a xlink:title=" ">
<path fill="none" stroke="#63b8ff" d="M185.81,-107.88C204.38,-99.4 233.72,-86.02 255.11,-76.27"/>
<polygon fill="#63b8ff" stroke="#63b8ff" points="256.67,-79.4 264.31,-72.07 253.76,-73.03 256.67,-79.4"/>
</a>
</g>
</g>
<!-- Node12&#45;&gt;Node5 -->
<g id="edge15_Node000012_Node000005" class="edge">
<title>Node12&#45;&gt;Node5</title>
<g id="a_edge15_Node000012_Node000005"><a xlink:title=" ">
<path fill="none" stroke="#63b8ff" d="M169.49,-107.68C172.54,-90.65 179.57,-51.47 183.73,-28.24"/>
<polygon fill="#63b8ff" stroke="#63b8ff" points="187.2,-28.74 185.52,-18.28 180.31,-27.5 187.2,-28.74"/>
</a>
</g>
</g>
<!-- Node12&#45;&gt;Node8 -->
<g id="edge14_Node000012_Node000008" class="edge">
<title>Node12&#45;&gt;Node8</title>
<g id="a_edge14_Node000012_Node000008"><a xlink:title=" ">
<path fill="none" stroke="#63b8ff" d="M158.94,-107.88C150.39,-100.21 137.36,-88.53 126.9,-79.15"/>
<polygon fill="#63b8ff" stroke="#63b8ff" points="128.97,-76.31 119.19,-72.24 124.3,-81.52 128.97,-76.31"/>
</a>
</g>
</g>
<!-- Node14&#45;&gt;Node3 -->
<g id="edge20_Node000014_Node000003" class="edge">
<title>Node14&#45;&gt;Node3</title>
<g id="a_edge20_Node000014_Node000003"><a xlink:title=" ">
<path fill="none" stroke="#63b8ff" d="M231.52,-215.92C243.37,-208.16 260.2,-195.35 270,-180 278.45,-166.76 282.75,-149.33 284.91,-136.33"/>
<polygon fill="#63b8ff" stroke="#63b8ff" points="288.4,-136.64 286.3,-126.25 281.46,-135.68 288.4,-136.64"/>
</a>
</g>
</g>
<!-- Node14&#45;&gt;Node8 -->
<g id="edge35_Node000014_Node000008" class="edge">
<title>Node14&#45;&gt;Node8</title>
<g id="a_edge35_Node000014_Node000008"><a xlink:title=" ">
<path fill="none" stroke="#63b8ff" d="M204.94,-216C182.46,-201.37 137.15,-167.95 119,-126 113.05,-112.24 110.9,-95.33 110.18,-82.65"/>
<polygon fill="#63b8ff" stroke="#63b8ff" points="113.67,-82.28 109.85,-72.4 106.67,-82.5 113.67,-82.28"/>
</a>
</g>
</g>
<!-- Node14&#45;&gt;Node12 -->
<g id="edge34_Node000014_Node000012" class="edge">
<title>Node14&#45;&gt;Node12</title>
<g id="a_edge34_Node000014_Node000012"><a xlink:title=" ">
<path fill="none" stroke="#63b8ff" d="M204.22,-215.85C192.75,-208.2 177.17,-195.62 170,-180 163.67,-166.22 163.7,-148.85 165,-136"/>
<polygon fill="#63b8ff" stroke="#63b8ff" points="168.47,-136.46 166.35,-126.08 161.54,-135.52 168.47,-136.46"/>
</a>
</g>
</g>
<!-- Node15 -->
<g id="Node000015" class="node">
<title>Node15</title>
<g id="a_Node000015"><a xlink:href="metadata_8hpp.html" target="_top" xlink:title=" ">
<polygon fill="white" stroke="#666666" points="705.66,-126 628.34,-126 628.34,-108 705.66,-108 705.66,-126"/>
<text text-anchor="middle" x="667" y="-114" font-family="Helvetica,sans-Serif" font-size="10.00">metadata.hpp</text>
</a>
</g>
</g>
<!-- Node14&#45;&gt;Node15 -->
<g id="edge21_Node000014_Node000015" class="edge">
<title>Node14&#45;&gt;Node15</title>
<g id="a_edge21_Node000014_Node000015"><a xlink:title=" ">
<path fill="none" stroke="#63b8ff" d="M254.79,-217.52C310.87,-207.57 415.1,-188.77 452,-180 516.25,-164.73 589.97,-142.4 632.25,-129.12"/>
<polygon fill="#63b8ff" stroke="#63b8ff" points="633.57,-132.38 642.05,-126.03 631.46,-125.7 633.57,-132.38"/>
</a>
</g>
</g>
<!-- Node19 -->
<g id="Node000019" class="node">
<title>Node19</title>
<g id="a_Node000019"><a xlink:href="spine_8hpp.html" target="_top" xlink:title=" ">
<polygon fill="white" stroke="#666666" points="442.87,-180 383.13,-180 383.13,-162 442.87,-162 442.87,-180"/>
<text text-anchor="middle" x="413" y="-168" font-family="Helvetica,sans-Serif" font-size="10.00">spine.hpp</text>
</a>
</g>
</g>
<!-- Node14&#45;&gt;Node19 -->
<g id="edge27_Node000014_Node000019" class="edge">
<title>Node14&#45;&gt;Node19</title>
<g id="a_edge27_Node000014_Node000019"><a xlink:title=" ">
<path fill="none" stroke="#63b8ff" d="M248.04,-215.99C281.63,-207.03 336.18,-192.48 373.28,-182.59"/>
<polygon fill="#63b8ff" stroke="#63b8ff" points="374.48,-185.89 383.24,-179.93 372.68,-179.13 374.48,-185.89"/>
</a>
</g>
</g>
<!-- Node15&#45;&gt;Node7 -->
<g id="edge25_Node000015_Node000007" class="edge">
<title>Node15&#45;&gt;Node7</title>
<g id="a_edge25_Node000015_Node000007"><a xlink:title=" ">
<path fill="none" stroke="#63b8ff" d="M652.34,-107.95C630.28,-95.92 587.2,-72.64 550,-54 527.84,-42.89 502.37,-30.89 483.69,-22.24"/>
<polygon fill="#63b8ff" stroke="#63b8ff" points="485.14,-19.05 474.6,-18.04 482.21,-25.41 485.14,-19.05"/>
</a>
</g>
</g>
<!-- Node15&#45;&gt;Node11 -->
<g id="edge24_Node000015_Node000011" class="edge">
<title>Node15&#45;&gt;Node11</title>
<g id="a_edge24_Node000015_Node000011"><a xlink:title=" ">
<path fill="none" stroke="#63b8ff" d="M643.12,-107.99C617.07,-99.25 575.15,-85.19 545.74,-75.32"/>
<polygon fill="#63b8ff" stroke="#63b8ff" points="546.5,-71.88 535.91,-72.02 544.27,-78.52 546.5,-71.88"/>
</a>
</g>
</g>
<!-- Node16 -->
<g id="Node000016" class="node">
<title>Node16</title>
<g id="a_Node000016"><a xlink:title=" ">
<polygon fill="#e0e0e0" stroke="#999999" points="653.08,-72 596.92,-72 596.92,-54 653.08,-54 653.08,-72"/>
<text text-anchor="middle" x="625" y="-60" font-family="Helvetica,sans-Serif" font-size="10.00">charconv</text>
</a>
</g>
</g>
<!-- Node15&#45;&gt;Node16 -->
<g id="edge22_Node000015_Node000016" class="edge">
<title>Node15&#45;&gt;Node16</title>
<g id="a_edge22_Node000015_Node000016"><a xlink:title=" ">
<path fill="none" stroke="#63b8ff" d="M660.44,-107.88C654.49,-100.52 645.56,-89.45 638.15,-80.28"/>
<polygon fill="#63b8ff" stroke="#63b8ff" points="640.66,-77.82 631.66,-72.24 635.22,-82.22 640.66,-77.82"/>
</a>
</g>
</g>
<!-- Node17 -->
<g id="Node000017" class="node">
<title>Node17</title>
<g id="a_Node000017"><a xlink:title=" ">
<polygon fill="#e0e0e0" stroke="#999999" points="718.08,-72 671.92,-72 671.92,-54 718.08,-54 718.08,-72"/>
<text text-anchor="middle" x="695" y="-60" font-family="Helvetica,sans-Serif" font-size="10.00">chrono</text>
</a>
</g>
</g>
<!-- Node15&#45;&gt;Node17 -->
<g id="edge23_Node000015_Node000017" class="edge">
<title>Node15&#45;&gt;Node17</title>
<g id="a_edge23_Node000015_Node000017"><a xlink:title=" ">
<path fill="none" stroke="#63b8ff" d="M671.38,-107.88C675.22,-100.74 680.93,-90.13 685.77,-81.13"/>
<polygon fill="#63b8ff" stroke="#63b8ff" points="688.9,-82.7 690.56,-72.24 682.74,-79.38 688.9,-82.7"/>
</a>
</g>
</g>
<!-- Node18 -->
<g id="Node000018" class="node">
<title>Node18</title>
<g id="a_Node000018"><a xlink:title=" ">
<polygon fill="#e0e0e0" stroke="#999999" points="810.35,-72 735.65,-72 735.65,-54 810.35,-54 810.35,-72"/>
<text text-anchor="middle" x="773" y="-60" font-family="Helvetica,sans-Serif" font-size="10.00">system_error</text>
</a>
</g>
</g>
<!-- Node15&#45;&gt;Node18 -->
<g id="edge26_Node000015_Node000018" class="edge">
<title>Node15&#45;&gt;Node18</title>
<g id="a_edge26_Node000015_Node000018"><a xlink:title=" ">
<path fill="none" stroke="#63b8ff" d="M683.56,-107.88C700.68,-99.48 727.61,-86.27 747.46,-76.53"/>
<polygon fill="#63b8ff" stroke="#63b8ff" points="749.12,-79.61 756.55,-72.07 746.03,-73.33 749.12,-79.61"/>
</a>
</g>
</g>
<!-- Node19&#45;&gt;Node3 -->
<g id="edge28_Node000019_Node000003" class="edge">
<title>Node19&#45;&gt;Node3</title>
<g id="a_edge28_Node000019_Node000003"><a xlink:title=" ">
<path fill="none" stroke="#63b8ff" d="M393.59,-161.99C372.84,-153.43 339.72,-139.76 315.9,-129.93"/>
<polygon fill="#63b8ff" stroke="#63b8ff" points="317.22,-126.69 306.64,-126.11 314.55,-133.16 317.22,-126.69"/>
</a>
</g>
</g>
<!-- Node19&#45;&gt;Node9 -->
<g id="edge31_Node000019_Node000009" class="edge">
<title>Node19&#45;&gt;Node9</title>
<g id="a_edge31_Node000019_Node000009"><a xlink:title=" ">
<path fill="none" stroke="#63b8ff" d="M410.87,-161.86C407.65,-149.9 401.18,-126.95 394,-108 390.62,-99.06 386.28,-89.37 382.52,-81.36"/>
<polygon fill="#63b8ff" stroke="#63b8ff" points="385.65,-79.8 378.16,-72.3 379.34,-82.83 385.65,-79.8"/>
</a>
</g>
</g>
<!-- Node19&#45;&gt;Node10 -->
<g id="edge32_Node000019_Node000010" class="edge">
<title>Node19&#45;&gt;Node10</title>
<g id="a_edge32_Node000019_Node000010"><a xlink:title=" ">
<path fill="none" stroke="#63b8ff" d="M442.8,-166.54C486.4,-160.8 564.24,-147.72 581,-126 585.89,-119.67 585.73,-114.45 581,-108 574.5,-99.14 513.2,-82.25 473.9,-72.17"/>
<polygon fill="#63b8ff" stroke="#63b8ff" points="474.74,-68.77 464.19,-69.7 473.02,-75.55 474.74,-68.77"/>
</a>
</g>
</g>
<!-- Node19&#45;&gt;Node13 -->
<g id="edge33_Node000019_Node000013" class="edge">
<title>Node19&#45;&gt;Node13</title>
<g id="a_edge33_Node000019_Node000013"><a xlink:title=" ">
<path fill="none" stroke="#63b8ff" d="M405.19,-161.88C397.96,-154.36 387.03,-142.99 378.11,-133.71"/>
<polygon fill="#63b8ff" stroke="#63b8ff" points="380.38,-131.02 370.92,-126.24 375.33,-135.87 380.38,-131.02"/>
</a>
</g>
</g>
<!-- Node20 -->
<g id="Node000020" class="node">
<title>Node20</title>
<g id="a_Node000020"><a xlink:title=" ">
<polygon fill="#e0e0e0" stroke="#999999" points="499.31,-126 440.69,-126 440.69,-108 499.31,-108 499.31,-126"/>
<text text-anchor="middle" x="470" y="-114" font-family="Helvetica,sans-Serif" font-size="10.00">functional</text>
</a>
</g>
</g>
<!-- Node19&#45;&gt;Node20 -->
<g id="edge29_Node000019_Node000020" class="edge">
<title>Node19&#45;&gt;Node20</title>
<g id="a_edge29_Node000019_Node000020"><a xlink:title=" ">
<path fill="none" stroke="#63b8ff" d="M421.91,-161.88C430.31,-154.21 443.11,-142.53 453.39,-133.15"/>
<polygon fill="#63b8ff" stroke="#63b8ff" points="455.94,-135.56 460.97,-126.24 451.22,-130.39 455.94,-135.56"/>
</a>
</g>
</g>
<!-- Node21 -->
<g id="Node000021" class="node">
<title>Node21</title>
<g id="a_Node000021"><a xlink:title=" ">
<polygon fill="#e0e0e0" stroke="#999999" points="572.35,-126 517.65,-126 517.65,-108 572.35,-108 572.35,-126"/>
<text text-anchor="middle" x="545" y="-114" font-family="Helvetica,sans-Serif" font-size="10.00">iostream</text>
</a>
</g>
</g>
<!-- Node19&#45;&gt;Node21 -->
<g id="edge30_Node000019_Node000021" class="edge">
<title>Node19&#45;&gt;Node21</title>
<g id="a_edge30_Node000019_Node000021"><a xlink:title=" ">
<path fill="none" stroke="#63b8ff" d="M433.34,-161.99C455.17,-153.39 490.08,-139.63 515.06,-129.8"/>
<polygon fill="#63b8ff" stroke="#63b8ff" points="516.4,-133.03 524.42,-126.11 513.84,-126.51 516.4,-133.03"/>
</a>
</g>
</g>
</g>
</svg>
