<?xml version="1.0" encoding="UTF-8" standalone="no"?>
<!DOCTYPE svg PUBLIC "-//W3C//DTD SVG 1.1//EN"
 "http://www.w3.org/Graphics/SVG/1.1/DTD/svg11.dtd">
<!-- Generated by graphviz version 2.48.0 (20210717.1556)
 -->
<!-- Title: container.hpp Pages: 1 -->
<svg width="818pt" height="242pt"
 viewBox="0.00 0.00 818.35 242.00" xmlns="http://www.w3.org/2000/svg" xmlns:xlink="http://www.w3.org/1999/xlink">
<g id="graph0" class="graph" transform="scale(1 1) rotate(0) translate(4 238)">
<title>container.hpp</title>
<!-- Node1 -->
<g id="Node000001" class="node">
<title>Node1</title>
<g id="a_Node000001"><a xlink:title=" ">
<polygon fill="#999999" stroke="#666666" points="739.34,-234 663.23,-234 663.23,-216 739.34,-216 739.34,-234"/>
<text text-anchor="middle" x="701.29" y="-222" font-family="Helvetica,sans-Serif" font-size="10.00">container.hpp</text>
</a>
</g>
</g>
<!-- Node2 -->
<g id="Node000002" class="node">
<title>Node2</title>
<g id="a_Node000002"><a xlink:href="package_8hpp.html" target="_top" xlink:title=" ">
<polygon fill="white" stroke="#666666" points="627.06,-180 553.52,-180 553.52,-162 627.06,-162 627.06,-180"/>
<text text-anchor="middle" x="590.29" y="-168" font-family="Helvetica,sans-Serif" font-size="10.00">package.hpp</text>
</a>
</g>
</g>
<!-- Node1&#45;&gt;Node2 -->
<g id="edge1_Node000001_Node000002" class="edge">
<title>Node1&#45;&gt;Node2</title>
<g id="a_edge1_Node000001_Node000002"><a xlink:title=" ">
<path fill="none" stroke="#63b8ff" d="M683.94,-215.88C665.94,-207.44 637.56,-194.15 616.75,-184.4"/>
<polygon fill="#63b8ff" stroke="#63b8ff" points="618.05,-181.14 607.51,-180.07 615.08,-187.48 618.05,-181.14"/>
</a>
</g>
</g>
<!-- Node5 -->
<g id="Node000005" class="node">
<title>Node5</title>
<g id="a_Node000005"><a xlink:title=" ">
<polygon fill="#e0e0e0" stroke="#999999" points="622.24,-18 586.33,-18 586.33,0 622.24,0 622.24,-18"/>
<text text-anchor="middle" x="604.29" y="-6" font-family="Helvetica,sans-Serif" font-size="10.00">map</text>
</a>
</g>
</g>
<!-- Node1&#45;&gt;Node5 -->
<g id="edge23_Node000001_Node000005" class="edge">
<title>Node1&#45;&gt;Node5</title>
<g id="a_edge23_Node000001_Node000005"><a xlink:title=" ">
<path fill="none" stroke="#63b8ff" d="M704.19,-215.68C712.81,-189.39 735.59,-106.68 701.29,-54 686.06,-30.62 655.09,-19.51 632.22,-14.34"/>
<polygon fill="#63b8ff" stroke="#63b8ff" points="632.86,-10.89 622.37,-12.35 631.48,-17.76 632.86,-10.89"/>
</a>
</g>
</g>
<!-- Node8 -->
<g id="Node000008" class="node">
<title>Node8</title>
<g id="a_Node000008"><a xlink:title=" ">
<polygon fill="#e0e0e0" stroke="#999999" points="692.74,-72 631.83,-72 631.83,-54 692.74,-54 692.74,-72"/>
<text text-anchor="middle" x="662.29" y="-60" font-family="Helvetica,sans-Serif" font-size="10.00">filesystem</text>
</a>
</g>
</g>
<!-- Node1&#45;&gt;Node8 -->
<g id="edge22_Node000001_Node000008" class="edge">
<title>Node1&#45;&gt;Node8</title>
<g id="a_edge22_Node000001_Node000008"><a xlink:title=" ">
<path fill="none" stroke="#63b8ff" d="M699.3,-215.85C693.28,-191.14 675.13,-116.67 666.69,-82.06"/>
<polygon fill="#63b8ff" stroke="#63b8ff" points="670.09,-81.22 664.32,-72.33 663.29,-82.87 670.09,-81.22"/>
</a>
</g>
</g>
<!-- Node17 -->
<g id="Node000017" class="node">
<title>Node17</title>
<g id="a_Node000017"><a xlink:title=" ">
<polygon fill="#e0e0e0" stroke="#999999" points="810.42,-180 748.16,-180 748.16,-162 810.42,-162 810.42,-180"/>
<text text-anchor="middle" x="779.29" y="-168" font-family="Helvetica,sans-Serif" font-size="10.00">type_traits</text>
</a>
</g>
</g>
<!-- Node1&#45;&gt;Node17 -->
<g id="edge24_Node000001_Node000017" class="edge">
<title>Node1&#45;&gt;Node17</title>
<g id="a_edge24_Node000001_Node000017"><a xlink:title=" ">
<path fill="none" stroke="#63b8ff" d="M713.48,-215.88C725.5,-207.86 744.1,-195.46 758.47,-185.88"/>
<polygon fill="#63b8ff" stroke="#63b8ff" points="760.81,-188.53 767.19,-180.07 756.92,-182.7 760.81,-188.53"/>
</a>
</g>
</g>
<!-- Node3 -->
<g id="Node000003" class="node">
<title>Node3</title>
<g id="a_Node000003"><a xlink:href="manifest__item_8hpp.html" target="_top" xlink:title=" ">
<polygon fill="white" stroke="#666666" points="547,-126 449.58,-126 449.58,-108 547,-108 547,-126"/>
<text text-anchor="middle" x="498.29" y="-114" font-family="Helvetica,sans-Serif" font-size="10.00">manifest_item.hpp</text>
</a>
</g>
</g>
<!-- Node2&#45;&gt;Node3 -->
<g id="edge2_Node000002_Node000003" class="edge">
<title>Node2&#45;&gt;Node3</title>
<g id="a_edge2_Node000002_Node000003"><a xlink:title=" ">
<path fill="none" stroke="#63b8ff" d="M575.91,-161.88C561.33,-153.63 538.53,-140.74 521.4,-131.07"/>
<polygon fill="#63b8ff" stroke="#63b8ff" points="522.99,-127.94 512.56,-126.07 519.55,-134.04 522.99,-127.94"/>
</a>
</g>
</g>
<!-- Node2&#45;&gt;Node8 -->
<g id="edge21_Node000002_Node000008" class="edge">
<title>Node2&#45;&gt;Node8</title>
<g id="a_edge21_Node000002_Node000008"><a xlink:title=" ">
<path fill="none" stroke="#63b8ff" d="M597.34,-161.82C604.67,-153.17 616.29,-139.01 625.29,-126 635.41,-111.36 645.69,-93.88 652.84,-81.22"/>
<polygon fill="#63b8ff" stroke="#63b8ff" points="656.03,-82.68 657.83,-72.24 649.91,-79.28 656.03,-82.68"/>
</a>
</g>
</g>
<!-- Node12 -->
<g id="Node000012" class="node">
<title>Node12</title>
<g id="a_Node000012"><a xlink:href="metadata_8hpp.html" target="_top" xlink:title=" ">
<polygon fill="white" stroke="#666666" points="247.95,-126 170.63,-126 170.63,-108 247.95,-108 247.95,-126"/>
<text text-anchor="middle" x="209.29" y="-114" font-family="Helvetica,sans-Serif" font-size="10.00">metadata.hpp</text>
</a>
</g>
</g>
<!-- Node2&#45;&gt;Node12 -->
<g id="edge12_Node000002_Node000012" class="edge">
<title>Node2&#45;&gt;Node12</title>
<g id="a_edge12_Node000002_Node000012"><a xlink:title=" ">
<path fill="none" stroke="#63b8ff" d="M553.41,-164.97C484.24,-155.53 335.07,-135.17 257.84,-124.63"/>
<polygon fill="#63b8ff" stroke="#63b8ff" points="258.26,-121.15 247.88,-123.27 257.32,-128.09 258.26,-121.15"/>
</a>
</g>
</g>
<!-- Node16 -->
<g id="Node000016" class="node">
<title>Node16</title>
<g id="a_Node000016"><a xlink:href="xml_8hpp.html" target="_top" xlink:title=" ">
<polygon fill="white" stroke="#666666" points="615.8,-126 564.77,-126 564.77,-108 615.8,-108 615.8,-126"/>
<text text-anchor="middle" x="590.29" y="-114" font-family="Helvetica,sans-Serif" font-size="10.00">xml.hpp</text>
</a>
</g>
</g>
<!-- Node2&#45;&gt;Node16 -->
<g id="edge18_Node000002_Node000016" class="edge">
<title>Node2&#45;&gt;Node16</title>
<g id="a_edge18_Node000002_Node000016"><a xlink:title=" ">
<path fill="none" stroke="#63b8ff" d="M590.29,-161.88C590.29,-155.05 590.29,-145.03 590.29,-136.29"/>
<polygon fill="#63b8ff" stroke="#63b8ff" points="593.79,-136.24 590.29,-126.24 586.79,-136.24 593.79,-136.24"/>
</a>
</g>
</g>
<!-- Node4 -->
<g id="Node000004" class="node">
<title>Node4</title>
<g id="a_Node000004"><a xlink:href="file__metadata_8hpp.html" target="_top" xlink:title=" ">
<polygon fill="white" stroke="#666666" points="575.79,-72 480.78,-72 480.78,-54 575.79,-54 575.79,-72"/>
<text text-anchor="middle" x="528.29" y="-60" font-family="Helvetica,sans-Serif" font-size="10.00">file_metadata.hpp</text>
</a>
</g>
</g>
<!-- Node3&#45;&gt;Node4 -->
<g id="edge3_Node000003_Node000004" class="edge">
<title>Node3&#45;&gt;Node4</title>
<g id="a_edge3_Node000003_Node000004"><a xlink:title=" ">
<path fill="none" stroke="#63b8ff" d="M502.98,-107.88C507.09,-100.74 513.21,-90.13 518.4,-81.13"/>
<polygon fill="#63b8ff" stroke="#63b8ff" points="521.57,-82.65 523.53,-72.24 515.51,-79.15 521.57,-82.65"/>
</a>
</g>
</g>
<!-- Node3&#45;&gt;Node5 -->
<g id="edge8_Node000003_Node000005" class="edge">
<title>Node3&#45;&gt;Node5</title>
<g id="a_edge8_Node000003_Node000005"><a xlink:title=" ">
<path fill="none" stroke="#63b8ff" d="M527.11,-107.96C546.14,-101.26 570.24,-89.87 585.29,-72 595.71,-59.62 600.42,-41.6 602.55,-28.17"/>
<polygon fill="#63b8ff" stroke="#63b8ff" points="606.02,-28.55 603.79,-18.19 599.08,-27.68 606.02,-28.55"/>
</a>
</g>
</g>
<!-- Node3&#45;&gt;Node8 -->
<g id="edge7_Node000003_Node000008" class="edge">
<title>Node3&#45;&gt;Node8</title>
<g id="a_edge7_Node000003_Node000008"><a xlink:title=" ">
<path fill="none" stroke="#63b8ff" d="M523.55,-107.99C551.36,-99.17 596.25,-84.94 627.4,-75.06"/>
<polygon fill="#63b8ff" stroke="#63b8ff" points="628.52,-78.38 636.99,-72.02 626.4,-71.71 628.52,-78.38"/>
</a>
</g>
</g>
<!-- Node9 -->
<g id="Node000009" class="node">
<title>Node9</title>
<g id="a_Node000009"><a xlink:title=" ">
<polygon fill="#e0e0e0" stroke="#999999" points="462.4,-72 410.17,-72 410.17,-54 462.4,-54 462.4,-72"/>
<text text-anchor="middle" x="436.29" y="-60" font-family="Helvetica,sans-Serif" font-size="10.00">memory</text>
</a>
</g>
</g>
<!-- Node3&#45;&gt;Node9 -->
<g id="edge9_Node000003_Node000009" class="edge">
<title>Node3&#45;&gt;Node9</title>
<g id="a_edge9_Node000003_Node000009"><a xlink:title=" ">
<path fill="none" stroke="#63b8ff" d="M488.6,-107.88C479.37,-100.14 465.26,-88.3 454.02,-78.87"/>
<polygon fill="#63b8ff" stroke="#63b8ff" points="456.02,-75.98 446.11,-72.24 451.52,-81.35 456.02,-75.98"/>
</a>
</g>
</g>
<!-- Node10 -->
<g id="Node000010" class="node">
<title>Node10</title>
<g id="a_Node000010"><a xlink:title=" ">
<polygon fill="#e0e0e0" stroke="#999999" points="392.37,-72 346.21,-72 346.21,-54 392.37,-54 392.37,-72"/>
<text text-anchor="middle" x="369.29" y="-60" font-family="Helvetica,sans-Serif" font-size="10.00">ranges</text>
</a>
</g>
</g>
<!-- Node3&#45;&gt;Node10 -->
<g id="edge10_Node000003_Node000010" class="edge">
<title>Node3&#45;&gt;Node10</title>
<g id="a_edge10_Node000003_Node000010"><a xlink:title=" ">
<path fill="none" stroke="#63b8ff" d="M478.41,-107.99C457.17,-99.43 423.26,-85.76 398.87,-75.93"/>
<polygon fill="#63b8ff" stroke="#63b8ff" points="399.98,-72.6 389.4,-72.11 397.36,-79.09 399.98,-72.6"/>
</a>
</g>
</g>
<!-- Node11 -->
<g id="Node000011" class="node">
<title>Node11</title>
<g id="a_Node000011"><a xlink:title=" ">
<polygon fill="#e0e0e0" stroke="#999999" points="327.59,-72 268.99,-72 268.99,-54 327.59,-54 327.59,-72"/>
<text text-anchor="middle" x="298.29" y="-60" font-family="Helvetica,sans-Serif" font-size="10.00">stdexcept</text>
</a>
</g>
</g>
<!-- Node3&#45;&gt;Node11 -->
<g id="edge11_Node000003_Node000011" class="edge">
<title>Node3&#45;&gt;Node11</title>
<g id="a_edge11_Node000003_Node000011"><a xlink:title=" ">
<path fill="none" stroke="#63b8ff" d="M467.48,-107.99C432.57,-98.91 375.61,-84.1 337.55,-74.21"/>
<polygon fill="#63b8ff" stroke="#63b8ff" points="338.39,-70.81 327.83,-71.68 336.63,-77.58 338.39,-70.81"/>
</a>
</g>
</g>
<!-- Node4&#45;&gt;Node5 -->
<g id="edge4_Node000004_Node000005" class="edge">
<title>Node4&#45;&gt;Node5</title>
<g id="a_edge4_Node000004_Node000005"><a xlink:title=" ">
<path fill="none" stroke="#63b8ff" d="M540.16,-53.88C551.81,-45.91 569.79,-33.6 583.76,-24.05"/>
<polygon fill="#63b8ff" stroke="#63b8ff" points="585.97,-26.78 592.25,-18.24 582.02,-21 585.97,-26.78"/>
</a>
</g>
</g>
<!-- Node6 -->
<g id="Node000006" class="node">
<title>Node6</title>
<g id="a_Node000006"><a xlink:title=" ">
<polygon fill="#e0e0e0" stroke="#999999" points="553.82,-18 502.76,-18 502.76,0 553.82,0 553.82,-18"/>
<text text-anchor="middle" x="528.29" y="-6" font-family="Helvetica,sans-Serif" font-size="10.00">optional</text>
</a>
</g>
</g>
<!-- Node4&#45;&gt;Node6 -->
<g id="edge5_Node000004_Node000006" class="edge">
<title>Node4&#45;&gt;Node6</title>
<g id="a_edge5_Node000004_Node000006"><a xlink:title=" ">
<path fill="none" stroke="#63b8ff" d="M528.29,-53.88C528.29,-47.05 528.29,-37.03 528.29,-28.29"/>
<polygon fill="#63b8ff" stroke="#63b8ff" points="531.79,-28.24 528.29,-18.24 524.79,-28.24 531.79,-28.24"/>
</a>
</g>
</g>
<!-- Node7 -->
<g id="Node000007" class="node">
<title>Node7</title>
<g id="a_Node000007"><a xlink:title=" ">
<polygon fill="#e0e0e0" stroke="#999999" points="373.74,-18 332.83,-18 332.83,0 373.74,0 373.74,-18"/>
<text text-anchor="middle" x="353.29" y="-6" font-family="Helvetica,sans-Serif" font-size="10.00">string</text>
</a>
</g>
</g>
<!-- Node4&#45;&gt;Node7 -->
<g id="edge6_Node000004_Node000007" class="edge">
<title>Node4&#45;&gt;Node7</title>
<g id="a_edge6_Node000004_Node000007"><a xlink:title=" ">
<path fill="none" stroke="#63b8ff" d="M501.33,-53.99C469.44,-44.51 416.51,-28.79 383.33,-18.93"/>
<polygon fill="#63b8ff" stroke="#63b8ff" points="384.3,-15.56 373.72,-16.07 382.31,-22.27 384.3,-15.56"/>
</a>
</g>
</g>
<!-- Node12&#45;&gt;Node7 -->
<g id="edge16_Node000012_Node000007" class="edge">
<title>Node12&#45;&gt;Node7</title>
<g id="a_edge16_Node000012_Node000007"><a xlink:title=" ">
<path fill="none" stroke="#63b8ff" d="M214.32,-107.79C222.56,-94.9 240.06,-69.77 260.29,-54 279.36,-39.13 304.27,-27.68 323.51,-20.19"/>
<polygon fill="#63b8ff" stroke="#63b8ff" points="324.86,-23.43 333,-16.64 322.41,-16.87 324.86,-23.43"/>
</a>
</g>
</g>
<!-- Node12&#45;&gt;Node11 -->
<g id="edge15_Node000012_Node000011" class="edge">
<title>Node12&#45;&gt;Node11</title>
<g id="a_edge15_Node000012_Node000011"><a xlink:title=" ">
<path fill="none" stroke="#63b8ff" d="M223.19,-107.88C237.17,-99.71 258.95,-86.98 275.46,-77.33"/>
<polygon fill="#63b8ff" stroke="#63b8ff" points="277.61,-80.13 284.48,-72.07 274.08,-74.09 277.61,-80.13"/>
</a>
</g>
</g>
<!-- Node13 -->
<g id="Node000013" class="node">
<title>Node13</title>
<g id="a_Node000013"><a xlink:title=" ">
<polygon fill="#e0e0e0" stroke="#999999" points="56.37,-72 0.21,-72 0.21,-54 56.37,-54 56.37,-72"/>
<text text-anchor="middle" x="28.29" y="-60" font-family="Helvetica,sans-Serif" font-size="10.00">charconv</text>
</a>
</g>
</g>
<!-- Node12&#45;&gt;Node13 -->
<g id="edge13_Node000012_Node000013" class="edge">
<title>Node12&#45;&gt;Node13</title>
<g id="a_edge13_Node000012_Node000013"><a xlink:title=" ">
<path fill="none" stroke="#63b8ff" d="M181.4,-107.99C150.45,-99.1 100.32,-84.69 65.9,-74.81"/>
<polygon fill="#63b8ff" stroke="#63b8ff" points="66.78,-71.42 56.2,-72.02 64.85,-78.15 66.78,-71.42"/>
</a>
</g>
</g>
<!-- Node14 -->
<g id="Node000014" class="node">
<title>Node14</title>
<g id="a_Node000014"><a xlink:title=" ">
<polygon fill="#e0e0e0" stroke="#999999" points="121.37,-72 75.21,-72 75.21,-54 121.37,-54 121.37,-72"/>
<text text-anchor="middle" x="98.29" y="-60" font-family="Helvetica,sans-Serif" font-size="10.00">chrono</text>
</a>
</g>
</g>
<!-- Node12&#45;&gt;Node14 -->
<g id="edge14_Node000012_Node000014" class="edge">
<title>Node12&#45;&gt;Node14</title>
<g id="a_edge14_Node000012_Node000014"><a xlink:title=" ">
<path fill="none" stroke="#63b8ff" d="M191.94,-107.88C173.94,-99.44 145.56,-86.15 124.75,-76.4"/>
<polygon fill="#63b8ff" stroke="#63b8ff" points="126.05,-73.14 115.51,-72.07 123.08,-79.48 126.05,-73.14"/>
</a>
</g>
</g>
<!-- Node15 -->
<g id="Node000015" class="node">
<title>Node15</title>
<g id="a_Node000015"><a xlink:title=" ">
<polygon fill="#e0e0e0" stroke="#999999" points="213.63,-72 138.94,-72 138.94,-54 213.63,-54 213.63,-72"/>
<text text-anchor="middle" x="176.29" y="-60" font-family="Helvetica,sans-Serif" font-size="10.00">system_error</text>
</a>
</g>
</g>
<!-- Node12&#45;&gt;Node15 -->
<g id="edge17_Node000012_Node000015" class="edge">
<title>Node12&#45;&gt;Node15</title>
<g id="a_edge17_Node000012_Node000015"><a xlink:title=" ">
<path fill="none" stroke="#63b8ff" d="M204.13,-107.88C199.56,-100.67 192.73,-89.91 186.98,-80.85"/>
<polygon fill="#63b8ff" stroke="#63b8ff" points="189.83,-78.81 181.52,-72.24 183.92,-82.56 189.83,-78.81"/>
</a>
</g>
</g>
<!-- Node16&#45;&gt;Node4 -->
<g id="edge19_Node000016_Node000004" class="edge">
<title>Node16&#45;&gt;Node4</title>
<g id="a_edge19_Node000016_Node000004"><a xlink:title=" ">
<path fill="none" stroke="#63b8ff" d="M580.6,-107.88C571.37,-100.14 557.26,-88.3 546.02,-78.87"/>
<polygon fill="#63b8ff" stroke="#63b8ff" points="548.02,-75.98 538.11,-72.24 543.52,-81.35 548.02,-75.98"/>
</a>
</g>
</g>
<!-- Node16&#45;&gt;Node8 -->
<g id="edge20_Node000016_Node000008" class="edge">
<title>Node16&#45;&gt;Node8</title>
<g id="a_edge20_Node000016_Node000008"><a xlink:title=" ">
<path fill="none" stroke="#63b8ff" d="M601.54,-107.88C612.46,-99.98 629.28,-87.84 642.46,-78.32"/>
<polygon fill="#63b8ff" stroke="#63b8ff" points="644.82,-80.93 650.88,-72.24 640.72,-75.26 644.82,-80.93"/>
</a>
</g>
</g>
</g>
</svg>
