<?xml version="1.0" encoding="UTF-8" standalone="no"?>
<!DOCTYPE svg PUBLIC "-//W3C//DTD SVG 1.1//EN"
 "http://www.w3.org/Graphics/SVG/1.1/DTD/svg11.dtd">
<!-- Generated by graphviz version 2.48.0 (20210717.1556)
 -->
<!-- Title: container.cpp Pages: 1 -->
<svg width="885pt" height="350pt"
 viewBox="0.00 0.00 884.81 350.00" xmlns="http://www.w3.org/2000/svg" xmlns:xlink="http://www.w3.org/1999/xlink">
<g id="graph0" class="graph" transform="scale(1 1) rotate(0) translate(4 346)">
<title>container.cpp</title>
<!-- Node1 -->
<g id="Node000001" class="node">
<title>Node1</title>
<g id="a_Node000001"><a xlink:title=" ">
<polygon fill="#999999" stroke="#666666" points="273.57,-342 197.59,-342 197.59,-324 273.57,-324 273.57,-342"/>
<text text-anchor="middle" x="235.58" y="-330" font-family="Helvetica,sans-Serif" font-size="10.00">container.cpp</text>
</a>
</g>
</g>
<!-- Node2 -->
<g id="Node000002" class="node">
<title>Node2</title>
<g id="a_Node000002"><a xlink:href="container_8hpp.html" target="_top" xlink:title=" ">
<polygon fill="white" stroke="#666666" points="273.63,-288 197.53,-288 197.53,-270 273.63,-270 273.63,-288"/>
<text text-anchor="middle" x="235.58" y="-276" font-family="Helvetica,sans-Serif" font-size="10.00">container.hpp</text>
</a>
</g>
</g>
<!-- Node1&#45;&gt;Node2 -->
<g id="edge1_Node000001_Node000002" class="edge">
<title>Node1&#45;&gt;Node2</title>
<g id="a_edge1_Node000001_Node000002"><a xlink:title=" ">
<path fill="none" stroke="#63b8ff" d="M235.58,-323.88C235.58,-317.05 235.58,-307.03 235.58,-298.29"/>
<polygon fill="#63b8ff" stroke="#63b8ff" points="239.08,-298.24 235.58,-288.24 232.08,-298.24 239.08,-298.24"/>
</a>
</g>
</g>
<!-- Node4 -->
<g id="Node000004" class="node">
<title>Node4</title>
<g id="a_Node000004"><a xlink:href="manifest_8hpp.html" target="_top" xlink:title=" ">
<polygon fill="white" stroke="#666666" points="500.34,-126 426.82,-126 426.82,-108 500.34,-108 500.34,-126"/>
<text text-anchor="middle" x="463.58" y="-114" font-family="Helvetica,sans-Serif" font-size="10.00">manifest.hpp</text>
</a>
</g>
</g>
<!-- Node1&#45;&gt;Node4 -->
<g id="edge40_Node000001_Node000004" class="edge">
<title>Node1&#45;&gt;Node4</title>
<g id="a_edge40_Node000001_Node000004"><a xlink:title=" ">
<path fill="none" stroke="#63b8ff" d="M263.89,-323.93C303.87,-311.16 376.77,-282.62 419.58,-234 444.77,-205.39 456.16,-160.9 460.79,-136.16"/>
<polygon fill="#63b8ff" stroke="#63b8ff" points="464.29,-136.48 462.51,-126.03 457.39,-135.3 464.29,-136.48"/>
</a>
</g>
</g>
<!-- Node13 -->
<g id="Node000013" class="node">
<title>Node13</title>
<g id="a_Node000013"><a xlink:href="xml_8hpp.html" target="_top" xlink:title=" ">
<polygon fill="white" stroke="#666666" points="233.1,-126 182.07,-126 182.07,-108 233.1,-108 233.1,-126"/>
<text text-anchor="middle" x="207.58" y="-114" font-family="Helvetica,sans-Serif" font-size="10.00">xml.hpp</text>
</a>
</g>
</g>
<!-- Node1&#45;&gt;Node13 -->
<g id="edge45_Node000001_Node000013" class="edge">
<title>Node1&#45;&gt;Node13</title>
<g id="a_edge45_Node000001_Node000013"><a xlink:title=" ">
<path fill="none" stroke="#63b8ff" d="M221.96,-323.83C210.64,-316.18 195.34,-303.59 188.58,-288 166.08,-236.1 187.58,-167.33 200.06,-135.51"/>
<polygon fill="#63b8ff" stroke="#63b8ff" points="203.31,-136.8 203.87,-126.22 196.84,-134.15 203.31,-136.8"/>
</a>
</g>
</g>
<!-- Node24 -->
<g id="Node000024" class="node">
<title>Node24</title>
<g id="a_Node000024"><a xlink:href="media__type_8hpp.html" target="_top" xlink:title=" ">
<polygon fill="white" stroke="#666666" points="87.24,-126 -0.08,-126 -0.08,-108 87.24,-108 87.24,-126"/>
<text text-anchor="middle" x="43.58" y="-114" font-family="Helvetica,sans-Serif" font-size="10.00">media_type.hpp</text>
</a>
</g>
</g>
<!-- Node1&#45;&gt;Node24 -->
<g id="edge41_Node000001_Node000024" class="edge">
<title>Node1&#45;&gt;Node24</title>
<g id="a_edge41_Node000001_Node000024"><a xlink:title=" ">
<path fill="none" stroke="#63b8ff" d="M223.79,-323.95C211.99,-315.63 193.63,-301.93 179.58,-288 128.01,-236.88 77.25,-166.74 55.12,-134.92"/>
<polygon fill="#63b8ff" stroke="#63b8ff" points="57.77,-132.59 49.21,-126.34 52,-136.56 57.77,-132.59"/>
</a>
</g>
</g>
<!-- Node26 -->
<g id="Node000026" class="node">
<title>Node26</title>
<g id="a_Node000026"><a xlink:title=" ">
<polygon fill="#e0e0e0" stroke="#999999" points="521.42,-288 471.74,-288 471.74,-270 521.42,-270 521.42,-288"/>
<text text-anchor="middle" x="496.58" y="-276" font-family="Helvetica,sans-Serif" font-size="10.00">fstream</text>
</a>
</g>
</g>
<!-- Node1&#45;&gt;Node26 -->
<g id="edge46_Node000001_Node000026" class="edge">
<title>Node1&#45;&gt;Node26</title>
<g id="a_edge46_Node000001_Node000026"><a xlink:title=" ">
<path fill="none" stroke="#63b8ff" d="M273.7,-324.52C317.94,-315.83 393.07,-301.01 457.58,-288 459.02,-287.71 460.49,-287.41 461.97,-287.11"/>
<polygon fill="#63b8ff" stroke="#63b8ff" points="462.73,-290.53 471.83,-285.1 461.33,-283.67 462.73,-290.53"/>
</a>
</g>
</g>
<!-- Node3 -->
<g id="Node000003" class="node">
<title>Node3</title>
<g id="a_Node000003"><a xlink:href="navigation_8hpp.html" target="_top" xlink:title=" ">
<polygon fill="white" stroke="#666666" points="377.13,-180 296.03,-180 296.03,-162 377.13,-162 377.13,-180"/>
<text text-anchor="middle" x="336.58" y="-168" font-family="Helvetica,sans-Serif" font-size="10.00">navigation.hpp</text>
</a>
</g>
</g>
<!-- Node2&#45;&gt;Node3 -->
<g id="edge2_Node000002_Node000003" class="edge">
<title>Node2&#45;&gt;Node3</title>
<g id="a_edge2_Node000002_Node000003"><a xlink:title=" ">
<path fill="none" stroke="#63b8ff" d="M243.51,-269.68C260.32,-252.03 299.81,-210.59 321.56,-187.77"/>
<polygon fill="#63b8ff" stroke="#63b8ff" points="324.33,-189.93 328.69,-180.28 319.26,-185.1 324.33,-189.93"/>
</a>
</g>
</g>
<!-- Node6 -->
<g id="Node000006" class="node">
<title>Node6</title>
<g id="a_Node000006"><a xlink:title=" ">
<polygon fill="#e0e0e0" stroke="#999999" points="197.54,-18 161.62,-18 161.62,0 197.54,0 197.54,-18"/>
<text text-anchor="middle" x="179.58" y="-6" font-family="Helvetica,sans-Serif" font-size="10.00">map</text>
</a>
</g>
</g>
<!-- Node2&#45;&gt;Node6 -->
<g id="edge38_Node000002_Node000006" class="edge">
<title>Node2&#45;&gt;Node6</title>
<g id="a_edge38_Node000002_Node000006"><a xlink:title=" ">
<path fill="none" stroke="#63b8ff" d="M222.79,-269.91C211.06,-261.96 193.84,-248.87 182.58,-234 166.73,-213.06 164.03,-205.69 158.58,-180 146.98,-125.33 163.73,-59.32 173.45,-28.07"/>
<polygon fill="#63b8ff" stroke="#63b8ff" points="176.89,-28.81 176.66,-18.22 170.24,-26.65 176.89,-28.81"/>
</a>
</g>
</g>
<!-- Node9 -->
<g id="Node000009" class="node">
<title>Node9</title>
<g id="a_Node000009"><a xlink:title=" ">
<polygon fill="#e0e0e0" stroke="#999999" points="268.04,-72 207.13,-72 207.13,-54 268.04,-54 268.04,-72"/>
<text text-anchor="middle" x="237.58" y="-60" font-family="Helvetica,sans-Serif" font-size="10.00">filesystem</text>
</a>
</g>
</g>
<!-- Node2&#45;&gt;Node9 -->
<g id="edge37_Node000002_Node000009" class="edge">
<title>Node2&#45;&gt;Node9</title>
<g id="a_edge37_Node000002_Node000009"><a xlink:title=" ">
<path fill="none" stroke="#63b8ff" d="M225.76,-269.97C216.52,-261.87 203.02,-248.51 195.58,-234 169.61,-183.35 145.9,-158.28 172.58,-108 179.93,-94.15 193.81,-83.86 206.86,-76.73"/>
<polygon fill="#63b8ff" stroke="#63b8ff" points="208.74,-79.7 216.11,-72.09 205.6,-73.44 208.74,-79.7"/>
</a>
</g>
</g>
<!-- Node15 -->
<g id="Node000015" class="node">
<title>Node15</title>
<g id="a_Node000015"><a xlink:href="package_8hpp.html" target="_top" xlink:title=" ">
<polygon fill="white" stroke="#666666" points="410.35,-234 336.81,-234 336.81,-216 410.35,-216 410.35,-234"/>
<text text-anchor="middle" x="373.58" y="-222" font-family="Helvetica,sans-Serif" font-size="10.00">package.hpp</text>
</a>
</g>
</g>
<!-- Node2&#45;&gt;Node15 -->
<g id="edge20_Node000002_Node000015" class="edge">
<title>Node2&#45;&gt;Node15</title>
<g id="a_edge20_Node000002_Node000015"><a xlink:title=" ">
<path fill="none" stroke="#63b8ff" d="M256.84,-269.99C279.77,-261.35 316.49,-247.51 342.62,-237.67"/>
<polygon fill="#63b8ff" stroke="#63b8ff" points="343.95,-240.91 352.07,-234.11 341.48,-234.36 343.95,-240.91"/>
</a>
</g>
</g>
<!-- Node23 -->
<g id="Node000023" class="node">
<title>Node23</title>
<g id="a_Node000023"><a xlink:title=" ">
<polygon fill="#e0e0e0" stroke="#999999" points="266.71,-234 204.45,-234 204.45,-216 266.71,-216 266.71,-234"/>
<text text-anchor="middle" x="235.58" y="-222" font-family="Helvetica,sans-Serif" font-size="10.00">type_traits</text>
</a>
</g>
</g>
<!-- Node2&#45;&gt;Node23 -->
<g id="edge39_Node000002_Node000023" class="edge">
<title>Node2&#45;&gt;Node23</title>
<g id="a_edge39_Node000002_Node000023"><a xlink:title=" ">
<path fill="none" stroke="#63b8ff" d="M235.58,-269.88C235.58,-263.05 235.58,-253.03 235.58,-244.29"/>
<polygon fill="#63b8ff" stroke="#63b8ff" points="239.08,-244.24 235.58,-234.24 232.08,-244.24 239.08,-244.24"/>
</a>
</g>
</g>
<!-- Node3&#45;&gt;Node4 -->
<g id="edge3_Node000003_Node000004" class="edge">
<title>Node3&#45;&gt;Node4</title>
<g id="a_edge3_Node000003_Node000004"><a xlink:title=" ">
<path fill="none" stroke="#63b8ff" d="M356.15,-161.99C377.06,-153.43 410.45,-139.76 434.45,-129.93"/>
<polygon fill="#63b8ff" stroke="#63b8ff" points="435.86,-133.13 443.78,-126.11 433.2,-126.66 435.86,-133.13"/>
</a>
</g>
</g>
<!-- Node3&#45;&gt;Node9 -->
<g id="edge17_Node000003_Node000009" class="edge">
<title>Node3&#45;&gt;Node9</title>
<g id="a_edge17_Node000003_Node000009"><a xlink:title=" ">
<path fill="none" stroke="#63b8ff" d="M328.81,-161.68C312.33,-144.03 273.63,-102.59 252.31,-79.77"/>
<polygon fill="#63b8ff" stroke="#63b8ff" points="254.7,-77.2 245.31,-72.28 249.58,-81.98 254.7,-77.2"/>
</a>
</g>
</g>
<!-- Node10 -->
<g id="Node000010" class="node">
<title>Node10</title>
<g id="a_Node000010"><a xlink:title=" ">
<polygon fill="#e0e0e0" stroke="#999999" points="489.69,-72 437.47,-72 437.47,-54 489.69,-54 489.69,-72"/>
<text text-anchor="middle" x="463.58" y="-60" font-family="Helvetica,sans-Serif" font-size="10.00">memory</text>
</a>
</g>
</g>
<!-- Node3&#45;&gt;Node10 -->
<g id="edge18_Node000003_Node000010" class="edge">
<title>Node3&#45;&gt;Node10</title>
<g id="a_edge18_Node000003_Node000010"><a xlink:title=" ">
<path fill="none" stroke="#63b8ff" d="M337.08,-161.67C338.3,-148.62 342.45,-123.28 356.58,-108 366.66,-97.1 400.79,-84.11 427.82,-75.09"/>
<polygon fill="#63b8ff" stroke="#63b8ff" points="428.99,-78.39 437.4,-71.95 426.81,-71.74 428.99,-78.39"/>
</a>
</g>
</g>
<!-- Node3&#45;&gt;Node13 -->
<g id="edge13_Node000003_Node000013" class="edge">
<title>Node3&#45;&gt;Node13</title>
<g id="a_edge13_Node000003_Node000013"><a xlink:title=" ">
<path fill="none" stroke="#63b8ff" d="M316.71,-161.99C295.46,-153.43 261.55,-139.76 237.17,-129.93"/>
<polygon fill="#63b8ff" stroke="#63b8ff" points="238.27,-126.6 227.69,-126.11 235.66,-133.09 238.27,-126.6"/>
</a>
</g>
</g>
<!-- Node14 -->
<g id="Node000014" class="node">
<title>Node14</title>
<g id="a_Node000014"><a xlink:title=" ">
<polygon fill="#e0e0e0" stroke="#999999" points="409.31,-126 365.85,-126 365.85,-108 409.31,-108 409.31,-126"/>
<text text-anchor="middle" x="387.58" y="-114" font-family="Helvetica,sans-Serif" font-size="10.00">vector</text>
</a>
</g>
</g>
<!-- Node3&#45;&gt;Node14 -->
<g id="edge19_Node000003_Node000014" class="edge">
<title>Node3&#45;&gt;Node14</title>
<g id="a_edge19_Node000003_Node000014"><a xlink:title=" ">
<path fill="none" stroke="#63b8ff" d="M344.55,-161.88C351.99,-154.29 363.29,-142.76 372.45,-133.43"/>
<polygon fill="#63b8ff" stroke="#63b8ff" points="375,-135.83 379.5,-126.24 370,-130.93 375,-135.83"/>
</a>
</g>
</g>
<!-- Node5 -->
<g id="Node000005" class="node">
<title>Node5</title>
<g id="a_Node000005"><a xlink:href="file__metadata_8hpp.html" target="_top" xlink:title=" ">
<polygon fill="white" stroke="#666666" points="419.08,-72 324.08,-72 324.08,-54 419.08,-54 419.08,-72"/>
<text text-anchor="middle" x="371.58" y="-60" font-family="Helvetica,sans-Serif" font-size="10.00">file_metadata.hpp</text>
</a>
</g>
</g>
<!-- Node4&#45;&gt;Node5 -->
<g id="edge4_Node000004_Node000005" class="edge">
<title>Node4&#45;&gt;Node5</title>
<g id="a_edge4_Node000004_Node000005"><a xlink:title=" ">
<path fill="none" stroke="#63b8ff" d="M449.21,-107.88C434.62,-99.63 411.82,-86.74 394.7,-77.07"/>
<polygon fill="#63b8ff" stroke="#63b8ff" points="396.28,-73.94 385.86,-72.07 392.84,-80.04 396.28,-73.94"/>
</a>
</g>
</g>
<!-- Node4&#45;&gt;Node6 -->
<g id="edge9_Node000004_Node000006" class="edge">
<title>Node4&#45;&gt;Node6</title>
<g id="a_edge9_Node000004_Node000006"><a xlink:title=" ">
<path fill="none" stroke="#63b8ff" d="M431.13,-107.97C400.62,-100.07 353.89,-87.01 314.58,-72 297.12,-65.33 293.54,-61.86 276.58,-54 253.04,-43.09 226.17,-30.92 206.69,-22.15"/>
<polygon fill="#63b8ff" stroke="#63b8ff" points="208.06,-18.93 197.5,-18.02 205.19,-25.31 208.06,-18.93"/>
</a>
</g>
</g>
<!-- Node4&#45;&gt;Node9 -->
<g id="edge8_Node000004_Node000009" class="edge">
<title>Node4&#45;&gt;Node9</title>
<g id="a_edge8_Node000004_Node000009"><a xlink:title=" ">
<path fill="none" stroke="#63b8ff" d="M428.76,-107.99C388.07,-98.63 320.85,-83.16 277.92,-73.28"/>
<polygon fill="#63b8ff" stroke="#63b8ff" points="278.62,-69.85 268.09,-71.02 277.05,-76.67 278.62,-69.85"/>
</a>
</g>
</g>
<!-- Node4&#45;&gt;Node10 -->
<g id="edge10_Node000004_Node000010" class="edge">
<title>Node4&#45;&gt;Node10</title>
<g id="a_edge10_Node000004_Node000010"><a xlink:title=" ">
<path fill="none" stroke="#63b8ff" d="M463.58,-107.88C463.58,-101.05 463.58,-91.03 463.58,-82.29"/>
<polygon fill="#63b8ff" stroke="#63b8ff" points="467.08,-82.24 463.58,-72.24 460.08,-82.24 467.08,-82.24"/>
</a>
</g>
</g>
<!-- Node11 -->
<g id="Node000011" class="node">
<title>Node11</title>
<g id="a_Node000011"><a xlink:title=" ">
<polygon fill="#e0e0e0" stroke="#999999" points="553.66,-72 507.5,-72 507.5,-54 553.66,-54 553.66,-72"/>
<text text-anchor="middle" x="530.58" y="-60" font-family="Helvetica,sans-Serif" font-size="10.00">ranges</text>
</a>
</g>
</g>
<!-- Node4&#45;&gt;Node11 -->
<g id="edge11_Node000004_Node000011" class="edge">
<title>Node4&#45;&gt;Node11</title>
<g id="a_edge11_Node000004_Node000011"><a xlink:title=" ">
<path fill="none" stroke="#63b8ff" d="M474.05,-107.88C484.12,-100.06 499.57,-88.07 511.77,-78.6"/>
<polygon fill="#63b8ff" stroke="#63b8ff" points="514.21,-81.14 519.96,-72.24 509.92,-75.61 514.21,-81.14"/>
</a>
</g>
</g>
<!-- Node12 -->
<g id="Node000012" class="node">
<title>Node12</title>
<g id="a_Node000012"><a xlink:title=" ">
<polygon fill="#e0e0e0" stroke="#999999" points="630.88,-72 572.28,-72 572.28,-54 630.88,-54 630.88,-72"/>
<text text-anchor="middle" x="601.58" y="-60" font-family="Helvetica,sans-Serif" font-size="10.00">stdexcept</text>
</a>
</g>
</g>
<!-- Node4&#45;&gt;Node12 -->
<g id="edge12_Node000004_Node000012" class="edge">
<title>Node4&#45;&gt;Node12</title>
<g id="a_edge12_Node000004_Node000012"><a xlink:title=" ">
<path fill="none" stroke="#63b8ff" d="M484.84,-107.99C507.77,-99.35 544.49,-85.51 570.62,-75.67"/>
<polygon fill="#63b8ff" stroke="#63b8ff" points="571.95,-78.91 580.07,-72.11 569.48,-72.36 571.95,-78.91"/>
</a>
</g>
</g>
<!-- Node5&#45;&gt;Node6 -->
<g id="edge5_Node000005_Node000006" class="edge">
<title>Node5&#45;&gt;Node6</title>
<g id="a_edge5_Node000005_Node000006"><a xlink:title=" ">
<path fill="none" stroke="#63b8ff" d="M342,-53.99C305.24,-44.03 242.98,-27.17 207.17,-17.47"/>
<polygon fill="#63b8ff" stroke="#63b8ff" points="207.95,-14.06 197.39,-14.82 206.12,-20.81 207.95,-14.06"/>
</a>
</g>
</g>
<!-- Node7 -->
<g id="Node000007" class="node">
<title>Node7</title>
<g id="a_Node000007"><a xlink:title=" ">
<polygon fill="#e0e0e0" stroke="#999999" points="397.11,-18 346.05,-18 346.05,0 397.11,0 397.11,-18"/>
<text text-anchor="middle" x="371.58" y="-6" font-family="Helvetica,sans-Serif" font-size="10.00">optional</text>
</a>
</g>
</g>
<!-- Node5&#45;&gt;Node7 -->
<g id="edge6_Node000005_Node000007" class="edge">
<title>Node5&#45;&gt;Node7</title>
<g id="a_edge6_Node000005_Node000007"><a xlink:title=" ">
<path fill="none" stroke="#63b8ff" d="M371.58,-53.88C371.58,-47.05 371.58,-37.03 371.58,-28.29"/>
<polygon fill="#63b8ff" stroke="#63b8ff" points="375.08,-28.24 371.58,-18.24 368.08,-28.24 375.08,-28.24"/>
</a>
</g>
</g>
<!-- Node8 -->
<g id="Node000008" class="node">
<title>Node8</title>
<g id="a_Node000008"><a xlink:title=" ">
<polygon fill="#e0e0e0" stroke="#999999" points="683.04,-18 642.13,-18 642.13,0 683.04,0 683.04,-18"/>
<text text-anchor="middle" x="662.58" y="-6" font-family="Helvetica,sans-Serif" font-size="10.00">string</text>
</a>
</g>
</g>
<!-- Node5&#45;&gt;Node8 -->
<g id="edge7_Node000005_Node000008" class="edge">
<title>Node5&#45;&gt;Node8</title>
<g id="a_edge7_Node000005_Node000008"><a xlink:title=" ">
<path fill="none" stroke="#63b8ff" d="M416.41,-53.99C476.25,-43.3 580.63,-24.64 632.1,-15.45"/>
<polygon fill="#63b8ff" stroke="#63b8ff" points="633.02,-18.84 642.25,-13.63 631.79,-11.95 633.02,-18.84"/>
</a>
</g>
</g>
<!-- Node13&#45;&gt;Node5 -->
<g id="edge14_Node000013_Node000005" class="edge">
<title>Node13&#45;&gt;Node5</title>
<g id="a_edge14_Node000013_Node000005"><a xlink:title=" ">
<path fill="none" stroke="#63b8ff" d="M232.85,-107.99C260.66,-99.17 305.54,-84.94 336.69,-75.06"/>
<polygon fill="#63b8ff" stroke="#63b8ff" points="337.81,-78.38 346.29,-72.02 335.7,-71.71 337.81,-78.38"/>
</a>
</g>
</g>
<!-- Node13&#45;&gt;Node6 -->
<g id="edge16_Node000013_Node000006" class="edge">
<title>Node13&#45;&gt;Node6</title>
<g id="a_edge16_Node000013_Node000006"><a xlink:title=" ">
<path fill="none" stroke="#63b8ff" d="M205.38,-107.68C200.89,-90.65 190.54,-51.47 184.4,-28.24"/>
<polygon fill="#63b8ff" stroke="#63b8ff" points="187.71,-27.05 181.77,-18.28 180.94,-28.84 187.71,-27.05"/>
</a>
</g>
</g>
<!-- Node13&#45;&gt;Node9 -->
<g id="edge15_Node000013_Node000009" class="edge">
<title>Node13&#45;&gt;Node9</title>
<g id="a_edge15_Node000013_Node000009"><a xlink:title=" ">
<path fill="none" stroke="#63b8ff" d="M212.27,-107.88C216.38,-100.74 222.5,-90.13 227.7,-81.13"/>
<polygon fill="#63b8ff" stroke="#63b8ff" points="230.86,-82.65 232.83,-72.24 224.8,-79.15 230.86,-82.65"/>
</a>
</g>
</g>
<!-- Node15&#45;&gt;Node4 -->
<g id="edge21_Node000015_Node000004" class="edge">
<title>Node15&#45;&gt;Node4</title>
<g id="a_edge21_Node000015_Node000004"><a xlink:title=" ">
<path fill="none" stroke="#63b8ff" d="M380.64,-215.68C395.56,-198.11 430.51,-156.96 449.94,-134.07"/>
<polygon fill="#63b8ff" stroke="#63b8ff" points="452.75,-136.17 456.55,-126.28 447.41,-131.64 452.75,-136.17"/>
</a>
</g>
</g>
<!-- Node15&#45;&gt;Node9 -->
<g id="edge36_Node000015_Node000009" class="edge">
<title>Node15&#45;&gt;Node9</title>
<g id="a_edge36_Node000015_Node000009"><a xlink:title=" ">
<path fill="none" stroke="#63b8ff" d="M346.55,-215.9C327.61,-209.02 302.87,-197.44 286.58,-180 260.06,-151.59 246.74,-106.7 241.08,-81.92"/>
<polygon fill="#63b8ff" stroke="#63b8ff" points="244.49,-81.14 239,-72.08 237.64,-82.58 244.49,-81.14"/>
</a>
</g>
</g>
<!-- Node15&#45;&gt;Node13 -->
<g id="edge35_Node000015_Node000013" class="edge">
<title>Node15&#45;&gt;Node13</title>
<g id="a_edge35_Node000015_Node000013"><a xlink:title=" ">
<path fill="none" stroke="#63b8ff" d="M336.78,-216.4C311.54,-209.85 278.28,-198.47 253.58,-180 237.51,-167.99 224.51,-148.83 216.48,-134.99"/>
<polygon fill="#63b8ff" stroke="#63b8ff" points="219.43,-133.09 211.54,-126.02 213.3,-136.47 219.43,-133.09"/>
</a>
</g>
</g>
<!-- Node16 -->
<g id="Node000016" class="node">
<title>Node16</title>
<g id="a_Node000016"><a xlink:href="metadata_8hpp.html" target="_top" xlink:title=" ">
<polygon fill="white" stroke="#666666" points="821.24,-126 743.92,-126 743.92,-108 821.24,-108 821.24,-126"/>
<text text-anchor="middle" x="782.58" y="-114" font-family="Helvetica,sans-Serif" font-size="10.00">metadata.hpp</text>
</a>
</g>
</g>
<!-- Node15&#45;&gt;Node16 -->
<g id="edge22_Node000015_Node000016" class="edge">
<title>Node15&#45;&gt;Node16</title>
<g id="a_edge22_Node000015_Node000016"><a xlink:title=" ">
<path fill="none" stroke="#63b8ff" d="M410.56,-216.28C449.71,-207.95 513.23,-193.99 567.58,-180 631.14,-163.64 704.46,-141.87 746.96,-128.96"/>
<polygon fill="#63b8ff" stroke="#63b8ff" points="748.02,-132.29 756.57,-126.03 745.98,-125.59 748.02,-132.29"/>
</a>
</g>
</g>
<!-- Node20 -->
<g id="Node000020" class="node">
<title>Node20</title>
<g id="a_Node000020"><a xlink:href="spine_8hpp.html" target="_top" xlink:title=" ">
<polygon fill="white" stroke="#666666" points="558.45,-180 498.71,-180 498.71,-162 558.45,-162 558.45,-180"/>
<text text-anchor="middle" x="528.58" y="-168" font-family="Helvetica,sans-Serif" font-size="10.00">spine.hpp</text>
</a>
</g>
</g>
<!-- Node15&#45;&gt;Node20 -->
<g id="edge28_Node000015_Node000020" class="edge">
<title>Node15&#45;&gt;Node20</title>
<g id="a_edge28_Node000015_Node000020"><a xlink:title=" ">
<path fill="none" stroke="#63b8ff" d="M397.46,-215.99C423.52,-207.25 465.43,-193.19 494.84,-183.32"/>
<polygon fill="#63b8ff" stroke="#63b8ff" points="496.31,-186.52 504.67,-180.02 494.08,-179.88 496.31,-186.52"/>
</a>
</g>
</g>
<!-- Node16&#45;&gt;Node8 -->
<g id="edge26_Node000016_Node000008" class="edge">
<title>Node16&#45;&gt;Node8</title>
<g id="a_edge26_Node000016_Node000008"><a xlink:title=" ">
<path fill="none" stroke="#63b8ff" d="M813.38,-107.95C846.42,-97.82 891.63,-78.71 871.58,-54 849.45,-26.73 745.62,-15.72 693.12,-11.84"/>
<polygon fill="#63b8ff" stroke="#63b8ff" points="693.27,-8.35 683.05,-11.14 692.78,-15.33 693.27,-8.35"/>
</a>
</g>
</g>
<!-- Node16&#45;&gt;Node12 -->
<g id="edge25_Node000016_Node000012" class="edge">
<title>Node16&#45;&gt;Node12</title>
<g id="a_edge25_Node000016_Node000012"><a xlink:title=" ">
<path fill="none" stroke="#63b8ff" d="M754.7,-107.99C723.74,-99.1 673.61,-84.69 639.2,-74.81"/>
<polygon fill="#63b8ff" stroke="#63b8ff" points="640.08,-71.42 629.5,-72.02 638.14,-78.15 640.08,-71.42"/>
</a>
</g>
</g>
<!-- Node17 -->
<g id="Node000017" class="node">
<title>Node17</title>
<g id="a_Node000017"><a xlink:title=" ">
<polygon fill="#e0e0e0" stroke="#999999" points="705.66,-72 649.5,-72 649.5,-54 705.66,-54 705.66,-72"/>
<text text-anchor="middle" x="677.58" y="-60" font-family="Helvetica,sans-Serif" font-size="10.00">charconv</text>
</a>
</g>
</g>
<!-- Node16&#45;&gt;Node17 -->
<g id="edge23_Node000016_Node000017" class="edge">
<title>Node16&#45;&gt;Node17</title>
<g id="a_edge23_Node000016_Node000017"><a xlink:title=" ">
<path fill="none" stroke="#63b8ff" d="M766.17,-107.88C749.22,-99.48 722.54,-86.27 702.88,-76.53"/>
<polygon fill="#63b8ff" stroke="#63b8ff" points="704.39,-73.37 693.87,-72.07 701.28,-79.64 704.39,-73.37"/>
</a>
</g>
</g>
<!-- Node18 -->
<g id="Node000018" class="node">
<title>Node18</title>
<g id="a_Node000018"><a xlink:title=" ">
<polygon fill="#e0e0e0" stroke="#999999" points="770.66,-72 724.5,-72 724.5,-54 770.66,-54 770.66,-72"/>
<text text-anchor="middle" x="747.58" y="-60" font-family="Helvetica,sans-Serif" font-size="10.00">chrono</text>
</a>
</g>
</g>
<!-- Node16&#45;&gt;Node18 -->
<g id="edge24_Node000016_Node000018" class="edge">
<title>Node16&#45;&gt;Node18</title>
<g id="a_edge24_Node000016_Node000018"><a xlink:title=" ">
<path fill="none" stroke="#63b8ff" d="M777.11,-107.88C772.21,-100.59 764.87,-89.68 758.73,-80.56"/>
<polygon fill="#63b8ff" stroke="#63b8ff" points="761.61,-78.58 753.13,-72.24 755.81,-82.49 761.61,-78.58"/>
</a>
</g>
</g>
<!-- Node19 -->
<g id="Node000019" class="node">
<title>Node19</title>
<g id="a_Node000019"><a xlink:title=" ">
<polygon fill="#e0e0e0" stroke="#999999" points="862.93,-72 788.24,-72 788.24,-54 862.93,-54 862.93,-72"/>
<text text-anchor="middle" x="825.58" y="-60" font-family="Helvetica,sans-Serif" font-size="10.00">system_error</text>
</a>
</g>
</g>
<!-- Node16&#45;&gt;Node19 -->
<g id="edge27_Node000016_Node000019" class="edge">
<title>Node16&#45;&gt;Node19</title>
<g id="a_edge27_Node000016_Node000019"><a xlink:title=" ">
<path fill="none" stroke="#63b8ff" d="M789.3,-107.88C795.45,-100.44 804.72,-89.22 812.36,-79.99"/>
<polygon fill="#63b8ff" stroke="#63b8ff" points="815.09,-82.18 818.77,-72.24 809.7,-77.72 815.09,-82.18"/>
</a>
</g>
</g>
<!-- Node20&#45;&gt;Node4 -->
<g id="edge29_Node000020_Node000004" class="edge">
<title>Node20&#45;&gt;Node4</title>
<g id="a_edge29_Node000020_Node000004"><a xlink:title=" ">
<path fill="none" stroke="#63b8ff" d="M518.42,-161.88C508.66,-154.06 493.67,-142.07 481.83,-132.6"/>
<polygon fill="#63b8ff" stroke="#63b8ff" points="483.88,-129.75 473.88,-126.24 479.5,-135.22 483.88,-129.75"/>
</a>
</g>
</g>
<!-- Node20&#45;&gt;Node10 -->
<g id="edge32_Node000020_Node000010" class="edge">
<title>Node20&#45;&gt;Node10</title>
<g id="a_edge32_Node000020_Node000010"><a xlink:title=" ">
<path fill="none" stroke="#63b8ff" d="M527.43,-161.83C525.4,-149.42 520.33,-125.44 509.58,-108 502.65,-96.76 492.18,-86.44 482.97,-78.61"/>
<polygon fill="#63b8ff" stroke="#63b8ff" points="484.99,-75.74 475.01,-72.18 480.59,-81.19 484.99,-75.74"/>
</a>
</g>
</g>
<!-- Node20&#45;&gt;Node11 -->
<g id="edge33_Node000020_Node000011" class="edge">
<title>Node20&#45;&gt;Node11</title>
<g id="a_edge33_Node000020_Node000011"><a xlink:title=" ">
<path fill="none" stroke="#63b8ff" d="M558.38,-166.54C601.98,-160.8 679.82,-147.72 696.58,-126 701.47,-119.67 701.46,-114.34 696.58,-108 694.52,-105.32 611.78,-84.28 563.92,-72.3"/>
<polygon fill="#63b8ff" stroke="#63b8ff" points="564.54,-68.84 553.99,-69.81 562.84,-75.63 564.54,-68.84"/>
</a>
</g>
</g>
<!-- Node20&#45;&gt;Node14 -->
<g id="edge34_Node000020_Node000014" class="edge">
<title>Node20&#45;&gt;Node14</title>
<g id="a_edge34_Node000020_Node000014"><a xlink:title=" ">
<path fill="none" stroke="#63b8ff" d="M506.86,-161.99C483.43,-153.35 445.91,-139.51 419.21,-129.67"/>
<polygon fill="#63b8ff" stroke="#63b8ff" points="420.15,-126.28 409.56,-126.11 417.73,-132.85 420.15,-126.28"/>
</a>
</g>
</g>
<!-- Node21 -->
<g id="Node000021" class="node">
<title>Node21</title>
<g id="a_Node000021"><a xlink:title=" ">
<polygon fill="#e0e0e0" stroke="#999999" points="614.89,-126 556.27,-126 556.27,-108 614.89,-108 614.89,-126"/>
<text text-anchor="middle" x="585.58" y="-114" font-family="Helvetica,sans-Serif" font-size="10.00">functional</text>
</a>
</g>
</g>
<!-- Node20&#45;&gt;Node21 -->
<g id="edge30_Node000020_Node000021" class="edge">
<title>Node20&#45;&gt;Node21</title>
<g id="a_edge30_Node000020_Node000021"><a xlink:title=" ">
<path fill="none" stroke="#63b8ff" d="M537.49,-161.88C545.89,-154.21 558.69,-142.53 568.97,-133.15"/>
<polygon fill="#63b8ff" stroke="#63b8ff" points="571.52,-135.56 576.55,-126.24 566.8,-130.39 571.52,-135.56"/>
</a>
</g>
</g>
<!-- Node22 -->
<g id="Node000022" class="node">
<title>Node22</title>
<g id="a_Node000022"><a xlink:title=" ">
<polygon fill="#e0e0e0" stroke="#999999" points="687.93,-126 633.24,-126 633.24,-108 687.93,-108 687.93,-126"/>
<text text-anchor="middle" x="660.58" y="-114" font-family="Helvetica,sans-Serif" font-size="10.00">iostream</text>
</a>
</g>
</g>
<!-- Node20&#45;&gt;Node22 -->
<g id="edge31_Node000020_Node000022" class="edge">
<title>Node20&#45;&gt;Node22</title>
<g id="a_edge31_Node000020_Node000022"><a xlink:title=" ">
<path fill="none" stroke="#63b8ff" d="M548.92,-161.99C570.75,-153.39 605.66,-139.63 630.64,-129.8"/>
<polygon fill="#63b8ff" stroke="#63b8ff" points="631.98,-133.03 640,-126.11 629.42,-126.51 631.98,-133.03"/>
</a>
</g>
</g>
<!-- Node24&#45;&gt;Node6 -->
<g id="edge43_Node000024_Node000006" class="edge">
<title>Node24&#45;&gt;Node6</title>
<g id="a_edge43_Node000024_Node000006"><a xlink:title=" ">
<path fill="none" stroke="#63b8ff" d="M33.96,-107.8C20.52,-95.37 -0.79,-71.35 12.58,-54 29.45,-32.11 108.65,-18.93 151.64,-13.26"/>
<polygon fill="#63b8ff" stroke="#63b8ff" points="152.25,-16.72 161.73,-11.99 151.37,-9.77 152.25,-16.72"/>
</a>
</g>
</g>
<!-- Node24&#45;&gt;Node9 -->
<g id="edge42_Node000024_Node000009" class="edge">
<title>Node24&#45;&gt;Node9</title>
<g id="a_edge42_Node000024_Node000009"><a xlink:title=" ">
<path fill="none" stroke="#63b8ff" d="M73.47,-107.99C106.79,-99.06 160.84,-84.57 197.74,-74.68"/>
<polygon fill="#63b8ff" stroke="#63b8ff" points="198.91,-77.99 207.66,-72.02 197.09,-71.23 198.91,-77.99"/>
</a>
</g>
</g>
<!-- Node25 -->
<g id="Node000025" class="node">
<title>Node25</title>
<g id="a_Node000025"><a xlink:title=" ">
<polygon fill="#e0e0e0" stroke="#999999" points="87.6,-72 21.56,-72 21.56,-54 87.6,-54 87.6,-72"/>
<text text-anchor="middle" x="54.58" y="-60" font-family="Helvetica,sans-Serif" font-size="10.00">string_view</text>
</a>
</g>
</g>
<!-- Node24&#45;&gt;Node25 -->
<g id="edge44_Node000024_Node000025" class="edge">
<title>Node24&#45;&gt;Node25</title>
<g id="a_edge44_Node000024_Node000025"><a xlink:title=" ">
<path fill="none" stroke="#63b8ff" d="M45.3,-107.88C46.74,-101.05 48.86,-91.03 50.71,-82.29"/>
<polygon fill="#63b8ff" stroke="#63b8ff" points="54.19,-82.75 52.84,-72.24 47.34,-81.3 54.19,-82.75"/>
</a>
</g>
</g>
</g>
</svg>
