<?xml version="1.0" encoding="UTF-8" standalone="no"?>
<!DOCTYPE svg PUBLIC "-//W3C//DTD SVG 1.1//EN"
 "http://www.w3.org/Graphics/SVG/1.1/DTD/svg11.dtd">
<!-- Generated by graphviz version 2.48.0 (20210717.1556)
 -->
<!-- Title: container.cpp Pages: 1 -->
<svg width="1038pt" height="350pt"
 viewBox="0.00 0.00 1037.77 350.00" xmlns="http://www.w3.org/2000/svg" xmlns:xlink="http://www.w3.org/1999/xlink">
<g id="graph0" class="graph" transform="scale(1 1) rotate(0) translate(4 346)">
<title>container.cpp</title>
<!-- Node1 -->
<g id="Node000001" class="node">
<title>Node1</title>
<g id="a_Node000001"><a xlink:title=" ">
<polygon fill="#999999" stroke="#666666" points="715.57,-342 639.59,-342 639.59,-324 715.57,-324 715.57,-342"/>
<text text-anchor="middle" x="677.58" y="-330" font-family="Helvetica,sans-Serif" font-size="10.00">container.cpp</text>
</a>
</g>
</g>
<!-- Node2 -->
<g id="Node000002" class="node">
<title>Node2</title>
<g id="a_Node000002"><a xlink:href="container_8hpp.html" target="_top" xlink:title=" ">
<polygon fill="white" stroke="#666666" points="384.63,-288 308.53,-288 308.53,-270 384.63,-270 384.63,-288"/>
<text text-anchor="middle" x="346.58" y="-276" font-family="Helvetica,sans-Serif" font-size="10.00">container.hpp</text>
</a>
</g>
</g>
<!-- Node1&#45;&gt;Node2 -->
<g id="edge1_Node000001_Node000002" class="edge">
<title>Node1&#45;&gt;Node2</title>
<g id="a_edge1_Node000001_Node000002"><a xlink:title=" ">
<path fill="none" stroke="#63b8ff" d="M639.61,-326.03C579.17,-316.54 461.13,-298 394.8,-287.58"/>
<polygon fill="#63b8ff" stroke="#63b8ff" points="395.04,-284.07 384.62,-285.98 393.95,-290.99 395.04,-284.07"/>
</a>
</g>
</g>
<!-- Node4 -->
<g id="Node000004" class="node">
<title>Node4</title>
<g id="a_Node000004"><a xlink:href="manifest_8hpp.html" target="_top" xlink:title=" ">
<polygon fill="white" stroke="#666666" points="656.34,-126 582.82,-126 582.82,-108 656.34,-108 656.34,-126"/>
<text text-anchor="middle" x="619.58" y="-114" font-family="Helvetica,sans-Serif" font-size="10.00">manifest.hpp</text>
</a>
</g>
</g>
<!-- Node1&#45;&gt;Node4 -->
<g id="edge40_Node000001_Node000004" class="edge">
<title>Node1&#45;&gt;Node4</title>
<g id="a_edge40_Node000001_Node000004"><a xlink:title=" ">
<path fill="none" stroke="#63b8ff" d="M675.38,-323.87C666.93,-292.69 636.45,-180.24 624.47,-136.03"/>
<polygon fill="#63b8ff" stroke="#63b8ff" points="627.78,-134.87 621.79,-126.14 621.02,-136.7 627.78,-134.87"/>
</a>
</g>
</g>
<!-- Node12 -->
<g id="Node000012" class="node">
<title>Node12</title>
<g id="a_Node000012"><a xlink:title=" ">
<polygon fill="#e0e0e0" stroke="#999999" points="782.88,-72 724.28,-72 724.28,-54 782.88,-54 782.88,-72"/>
<text text-anchor="middle" x="753.58" y="-60" font-family="Helvetica,sans-Serif" font-size="10.00">stdexcept</text>
</a>
</g>
</g>
<!-- Node1&#45;&gt;Node12 -->
<g id="edge48_Node000001_Node000012" class="edge">
<title>Node1&#45;&gt;Node12</title>
<g id="a_edge48_Node000001_Node000012"><a xlink:title=" ">
<path fill="none" stroke="#63b8ff" d="M689.12,-323.84C710.38,-307.76 753.58,-269.7 753.58,-226 753.58,-226 753.58,-226 753.58,-170 753.58,-139.26 753.58,-103.5 753.58,-82.36"/>
<polygon fill="#63b8ff" stroke="#63b8ff" points="757.08,-82.25 753.58,-72.25 750.08,-82.25 757.08,-82.25"/>
</a>
</g>
</g>
<!-- Node13 -->
<g id="Node000013" class="node">
<title>Node13</title>
<g id="a_Node000013"><a xlink:href="xml_8hpp.html" target="_top" xlink:title=" ">
<polygon fill="white" stroke="#666666" points="725.1,-126 674.07,-126 674.07,-108 725.1,-108 725.1,-126"/>
<text text-anchor="middle" x="699.58" y="-114" font-family="Helvetica,sans-Serif" font-size="10.00">xml.hpp</text>
</a>
</g>
</g>
<!-- Node1&#45;&gt;Node13 -->
<g id="edge45_Node000001_Node000013" class="edge">
<title>Node1&#45;&gt;Node13</title>
<g id="a_edge45_Node000001_Node000013"><a xlink:title=" ">
<path fill="none" stroke="#63b8ff" d="M678.42,-323.87C681.62,-292.75 693.13,-180.72 697.7,-136.31"/>
<polygon fill="#63b8ff" stroke="#63b8ff" points="701.2,-136.44 698.74,-126.14 694.24,-135.73 701.2,-136.44"/>
</a>
</g>
</g>
<!-- Node24 -->
<g id="Node000024" class="node">
<title>Node24</title>
<g id="a_Node000024"><a xlink:href="media__type_8hpp.html" target="_top" xlink:title=" ">
<polygon fill="white" stroke="#666666" points="87.24,-126 -0.08,-126 -0.08,-108 87.24,-108 87.24,-126"/>
<text text-anchor="middle" x="43.58" y="-114" font-family="Helvetica,sans-Serif" font-size="10.00">media_type.hpp</text>
</a>
</g>
</g>
<!-- Node1&#45;&gt;Node24 -->
<g id="edge41_Node000001_Node000024" class="edge">
<title>Node1&#45;&gt;Node24</title>
<g id="a_edge41_Node000001_Node000024"><a xlink:title=" ">
<path fill="none" stroke="#63b8ff" d="M639.75,-330.35C525.18,-324.64 184.73,-302.17 101.58,-234 70.34,-208.38 54.4,-161.68 47.66,-136.04"/>
<polygon fill="#63b8ff" stroke="#63b8ff" points="51.02,-135.07 45.25,-126.18 44.22,-136.73 51.02,-135.07"/>
</a>
</g>
</g>
<!-- Node26 -->
<g id="Node000026" class="node">
<title>Node26</title>
<g id="a_Node000026"><a xlink:title=" ">
<polygon fill="#e0e0e0" stroke="#999999" points="831.42,-288 781.74,-288 781.74,-270 831.42,-270 831.42,-288"/>
<text text-anchor="middle" x="806.58" y="-276" font-family="Helvetica,sans-Serif" font-size="10.00">fstream</text>
</a>
</g>
</g>
<!-- Node1&#45;&gt;Node26 -->
<g id="edge46_Node000001_Node000026" class="edge">
<title>Node1&#45;&gt;Node26</title>
<g id="a_edge46_Node000001_Node000026"><a xlink:title=" ">
<path fill="none" stroke="#63b8ff" d="M697.45,-323.99C718.7,-315.43 752.61,-301.76 776.99,-291.93"/>
<polygon fill="#63b8ff" stroke="#63b8ff" points="778.51,-295.09 786.47,-288.11 775.89,-288.6 778.51,-295.09"/>
</a>
</g>
</g>
<!-- Node27 -->
<g id="Node000027" class="node">
<title>Node27</title>
<g id="a_Node000027"><a xlink:title=" ">
<polygon fill="#e0e0e0" stroke="#999999" points="900.14,-288 849.02,-288 849.02,-270 900.14,-270 900.14,-288"/>
<text text-anchor="middle" x="874.58" y="-276" font-family="Helvetica,sans-Serif" font-size="10.00">sstream</text>
</a>
</g>
</g>
<!-- Node1&#45;&gt;Node27 -->
<g id="edge47_Node000001_Node000027" class="edge">
<title>Node1&#45;&gt;Node27</title>
<g id="a_edge47_Node000001_Node000027"><a xlink:title=" ">
<path fill="none" stroke="#63b8ff" d="M707.93,-323.99C743.25,-314.67 801.5,-299.29 838.94,-289.41"/>
<polygon fill="#63b8ff" stroke="#63b8ff" points="840.13,-292.71 848.91,-286.78 838.35,-285.94 840.13,-292.71"/>
</a>
</g>
</g>
<!-- Node3 -->
<g id="Node000003" class="node">
<title>Node3</title>
<g id="a_Node000003"><a xlink:href="navigation_8hpp.html" target="_top" xlink:title=" ">
<polygon fill="white" stroke="#666666" points="358.13,-180 277.03,-180 277.03,-162 358.13,-162 358.13,-180"/>
<text text-anchor="middle" x="317.58" y="-168" font-family="Helvetica,sans-Serif" font-size="10.00">navigation.hpp</text>
</a>
</g>
</g>
<!-- Node2&#45;&gt;Node3 -->
<g id="edge2_Node000002_Node000003" class="edge">
<title>Node2&#45;&gt;Node3</title>
<g id="a_edge2_Node000002_Node000003"><a xlink:title=" ">
<path fill="none" stroke="#63b8ff" d="M344.31,-269.68C339.65,-252.65 328.93,-213.47 322.57,-190.24"/>
<polygon fill="#63b8ff" stroke="#63b8ff" points="325.86,-189 319.85,-180.28 319.11,-190.85 325.86,-189"/>
</a>
</g>
</g>
<!-- Node6 -->
<g id="Node000006" class="node">
<title>Node6</title>
<g id="a_Node000006"><a xlink:title=" ">
<polygon fill="#e0e0e0" stroke="#999999" points="562.54,-18 526.62,-18 526.62,0 562.54,0 562.54,-18"/>
<text text-anchor="middle" x="544.58" y="-6" font-family="Helvetica,sans-Serif" font-size="10.00">map</text>
</a>
</g>
</g>
<!-- Node2&#45;&gt;Node6 -->
<g id="edge38_Node000002_Node000006" class="edge">
<title>Node2&#45;&gt;Node6</title>
<g id="a_edge38_Node000002_Node000006"><a xlink:title=" ">
<path fill="none" stroke="#63b8ff" d="M308.44,-277.21C242.83,-273.62 115.58,-255.84 115.58,-172 115.58,-172 115.58,-172 115.58,-116 115.58,-78.87 138.59,-71.04 171.58,-54 231.77,-22.91 439.97,-13.3 516.27,-10.79"/>
<polygon fill="#63b8ff" stroke="#63b8ff" points="516.65,-14.28 526.54,-10.46 516.43,-7.28 516.65,-14.28"/>
</a>
</g>
</g>
<!-- Node9 -->
<g id="Node000009" class="node">
<title>Node9</title>
<g id="a_Node000009"><a xlink:title=" ">
<polygon fill="#e0e0e0" stroke="#999999" points="241.04,-72 180.13,-72 180.13,-54 241.04,-54 241.04,-72"/>
<text text-anchor="middle" x="210.58" y="-60" font-family="Helvetica,sans-Serif" font-size="10.00">filesystem</text>
</a>
</g>
</g>
<!-- Node2&#45;&gt;Node9 -->
<g id="edge37_Node000002_Node000009" class="edge">
<title>Node2&#45;&gt;Node9</title>
<g id="a_edge37_Node000002_Node000009"><a xlink:title=" ">
<path fill="none" stroke="#63b8ff" d="M335.08,-269.75C307.73,-249.25 239.5,-192.84 218.58,-126 214.11,-111.73 212.14,-94.85 211.27,-82.32"/>
<polygon fill="#63b8ff" stroke="#63b8ff" points="214.75,-82.02 210.73,-72.22 207.76,-82.39 214.75,-82.02"/>
</a>
</g>
</g>
<!-- Node15 -->
<g id="Node000015" class="node">
<title>Node15</title>
<g id="a_Node000015"><a xlink:href="package_8hpp.html" target="_top" xlink:title=" ">
<polygon fill="white" stroke="#666666" points="566.35,-234 492.81,-234 492.81,-216 566.35,-216 566.35,-234"/>
<text text-anchor="middle" x="529.58" y="-222" font-family="Helvetica,sans-Serif" font-size="10.00">package.hpp</text>
</a>
</g>
</g>
<!-- Node2&#45;&gt;Node15 -->
<g id="edge20_Node000002_Node000015" class="edge">
<title>Node2&#45;&gt;Node15</title>
<g id="a_edge20_Node000002_Node000015"><a xlink:title=" ">
<path fill="none" stroke="#63b8ff" d="M374.77,-269.99C406.07,-261.1 456.76,-246.69 491.55,-236.81"/>
<polygon fill="#63b8ff" stroke="#63b8ff" points="492.69,-240.12 501.36,-234.02 490.78,-233.39 492.69,-240.12"/>
</a>
</g>
</g>
<!-- Node23 -->
<g id="Node000023" class="node">
<title>Node23</title>
<g id="a_Node000023"><a xlink:title=" ">
<polygon fill="#e0e0e0" stroke="#999999" points="407.71,-234 345.45,-234 345.45,-216 407.71,-216 407.71,-234"/>
<text text-anchor="middle" x="376.58" y="-222" font-family="Helvetica,sans-Serif" font-size="10.00">type_traits</text>
</a>
</g>
</g>
<!-- Node2&#45;&gt;Node23 -->
<g id="edge39_Node000002_Node000023" class="edge">
<title>Node2&#45;&gt;Node23</title>
<g id="a_edge39_Node000002_Node000023"><a xlink:title=" ">
<path fill="none" stroke="#63b8ff" d="M351.27,-269.88C355.38,-262.74 361.5,-252.13 366.7,-243.13"/>
<polygon fill="#63b8ff" stroke="#63b8ff" points="369.86,-244.65 371.83,-234.24 363.8,-241.15 369.86,-244.65"/>
</a>
</g>
</g>
<!-- Node3&#45;&gt;Node4 -->
<g id="edge3_Node000003_Node000004" class="edge">
<title>Node3&#45;&gt;Node4</title>
<g id="a_edge3_Node000003_Node000004"><a xlink:title=" ">
<path fill="none" stroke="#63b8ff" d="M358.31,-162.99C414.05,-153.39 513.87,-136.2 572.67,-126.08"/>
<polygon fill="#63b8ff" stroke="#63b8ff" points="573.54,-129.48 582.8,-124.33 572.35,-122.58 573.54,-129.48"/>
</a>
</g>
</g>
<!-- Node3&#45;&gt;Node9 -->
<g id="edge17_Node000003_Node000009" class="edge">
<title>Node3&#45;&gt;Node9</title>
<g id="a_edge17_Node000003_Node000009"><a xlink:title=" ">
<path fill="none" stroke="#63b8ff" d="M309.18,-161.68C291.29,-143.96 249.17,-102.23 226.2,-79.47"/>
<polygon fill="#63b8ff" stroke="#63b8ff" points="228.51,-76.83 218.94,-72.28 223.58,-81.8 228.51,-76.83"/>
</a>
</g>
</g>
<!-- Node10 -->
<g id="Node000010" class="node">
<title>Node10</title>
<g id="a_Node000010"><a xlink:title=" ">
<polygon fill="#e0e0e0" stroke="#999999" points="393.69,-72 341.47,-72 341.47,-54 393.69,-54 393.69,-72"/>
<text text-anchor="middle" x="367.58" y="-60" font-family="Helvetica,sans-Serif" font-size="10.00">memory</text>
</a>
</g>
</g>
<!-- Node3&#45;&gt;Node10 -->
<g id="edge18_Node000003_Node000010" class="edge">
<title>Node3&#45;&gt;Node10</title>
<g id="a_edge18_Node000003_Node000010"><a xlink:title=" ">
<path fill="none" stroke="#63b8ff" d="M308.08,-161.77C295.33,-149.71 275.51,-126.62 286.58,-108 296.43,-91.44 314.92,-80.73 331.76,-74.02"/>
<polygon fill="#63b8ff" stroke="#63b8ff" points="333.19,-77.23 341.4,-70.52 330.81,-70.65 333.19,-77.23"/>
</a>
</g>
</g>
<!-- Node3&#45;&gt;Node13 -->
<g id="edge13_Node000003_Node000013" class="edge">
<title>Node3&#45;&gt;Node13</title>
<g id="a_edge13_Node000003_Node000013"><a xlink:title=" ">
<path fill="none" stroke="#63b8ff" d="M358.25,-166.26C421.57,-160.13 547.75,-146.7 663.89,-126.14"/>
<polygon fill="#63b8ff" stroke="#63b8ff" points="664.8,-129.53 674.02,-124.32 663.56,-122.64 664.8,-129.53"/>
</a>
</g>
</g>
<!-- Node14 -->
<g id="Node000014" class="node">
<title>Node14</title>
<g id="a_Node000014"><a xlink:title=" ">
<polygon fill="#e0e0e0" stroke="#999999" points="339.31,-126 295.85,-126 295.85,-108 339.31,-108 339.31,-126"/>
<text text-anchor="middle" x="317.58" y="-114" font-family="Helvetica,sans-Serif" font-size="10.00">vector</text>
</a>
</g>
</g>
<!-- Node3&#45;&gt;Node14 -->
<g id="edge19_Node000003_Node000014" class="edge">
<title>Node3&#45;&gt;Node14</title>
<g id="a_edge19_Node000003_Node000014"><a xlink:title=" ">
<path fill="none" stroke="#63b8ff" d="M317.58,-161.88C317.58,-155.05 317.58,-145.03 317.58,-136.29"/>
<polygon fill="#63b8ff" stroke="#63b8ff" points="321.08,-136.24 317.58,-126.24 314.08,-136.24 321.08,-136.24"/>
</a>
</g>
</g>
<!-- Node5 -->
<g id="Node000005" class="node">
<title>Node5</title>
<g id="a_Node000005"><a xlink:href="file__metadata_8hpp.html" target="_top" xlink:title=" ">
<polygon fill="white" stroke="#666666" points="706.08,-72 611.08,-72 611.08,-54 706.08,-54 706.08,-72"/>
<text text-anchor="middle" x="658.58" y="-60" font-family="Helvetica,sans-Serif" font-size="10.00">file_metadata.hpp</text>
</a>
</g>
</g>
<!-- Node4&#45;&gt;Node5 -->
<g id="edge4_Node000004_Node000005" class="edge">
<title>Node4&#45;&gt;Node5</title>
<g id="a_edge4_Node000004_Node000005"><a xlink:title=" ">
<path fill="none" stroke="#63b8ff" d="M625.67,-107.88C631.19,-100.52 639.49,-89.45 646.37,-80.28"/>
<polygon fill="#63b8ff" stroke="#63b8ff" points="649.2,-82.34 652.4,-72.24 643.6,-78.14 649.2,-82.34"/>
</a>
</g>
</g>
<!-- Node4&#45;&gt;Node6 -->
<g id="edge9_Node000004_Node000006" class="edge">
<title>Node4&#45;&gt;Node6</title>
<g id="a_edge9_Node000004_Node000006"><a xlink:title=" ">
<path fill="none" stroke="#63b8ff" d="M607.13,-107.93C595.73,-99.99 579.09,-86.91 568.58,-72 559.12,-58.59 552.77,-40.95 548.99,-27.91"/>
<polygon fill="#63b8ff" stroke="#63b8ff" points="552.37,-27 546.4,-18.24 545.6,-28.81 552.37,-27"/>
</a>
</g>
</g>
<!-- Node4&#45;&gt;Node9 -->
<g id="edge8_Node000004_Node000009" class="edge">
<title>Node4&#45;&gt;Node9</title>
<g id="a_edge8_Node000004_Node000009"><a xlink:title=" ">
<path fill="none" stroke="#63b8ff" d="M582.93,-111.34C506.55,-101.63 330.88,-79.3 251.2,-69.16"/>
<polygon fill="#63b8ff" stroke="#63b8ff" points="251.43,-65.67 241.07,-67.88 250.55,-72.61 251.43,-65.67"/>
</a>
</g>
</g>
<!-- Node4&#45;&gt;Node10 -->
<g id="edge10_Node000004_Node000010" class="edge">
<title>Node4&#45;&gt;Node10</title>
<g id="a_edge10_Node000004_Node000010"><a xlink:title=" ">
<path fill="none" stroke="#63b8ff" d="M582.94,-108.44C534.99,-98.55 451.48,-81.31 403.77,-71.47"/>
<polygon fill="#63b8ff" stroke="#63b8ff" points="404.37,-68.02 393.87,-69.42 402.95,-74.87 404.37,-68.02"/>
</a>
</g>
</g>
<!-- Node11 -->
<g id="Node000011" class="node">
<title>Node11</title>
<g id="a_Node000011"><a xlink:title=" ">
<polygon fill="#e0e0e0" stroke="#999999" points="516.66,-72 470.5,-72 470.5,-54 516.66,-54 516.66,-72"/>
<text text-anchor="middle" x="493.58" y="-60" font-family="Helvetica,sans-Serif" font-size="10.00">ranges</text>
</a>
</g>
</g>
<!-- Node4&#45;&gt;Node11 -->
<g id="edge11_Node000004_Node000011" class="edge">
<title>Node4&#45;&gt;Node11</title>
<g id="a_edge11_Node000004_Node000011"><a xlink:title=" ">
<path fill="none" stroke="#63b8ff" d="M600.17,-107.99C579.42,-99.43 546.3,-85.76 522.48,-75.93"/>
<polygon fill="#63b8ff" stroke="#63b8ff" points="523.8,-72.69 513.22,-72.11 521.13,-79.16 523.8,-72.69"/>
</a>
</g>
</g>
<!-- Node4&#45;&gt;Node12 -->
<g id="edge12_Node000004_Node000012" class="edge">
<title>Node4&#45;&gt;Node12</title>
<g id="a_edge12_Node000004_Node000012"><a xlink:title=" ">
<path fill="none" stroke="#63b8ff" d="M640.22,-107.99C662.39,-99.39 697.83,-85.63 723.18,-75.8"/>
<polygon fill="#63b8ff" stroke="#63b8ff" points="724.64,-78.99 732.69,-72.11 722.1,-72.46 724.64,-78.99"/>
</a>
</g>
</g>
<!-- Node5&#45;&gt;Node6 -->
<g id="edge5_Node000005_Node000006" class="edge">
<title>Node5&#45;&gt;Node6</title>
<g id="a_edge5_Node000005_Node000006"><a xlink:title=" ">
<path fill="none" stroke="#63b8ff" d="M640.77,-53.88C622.2,-45.4 592.87,-32.02 571.47,-22.27"/>
<polygon fill="#63b8ff" stroke="#63b8ff" points="572.82,-19.03 562.27,-18.07 569.91,-25.4 572.82,-19.03"/>
</a>
</g>
</g>
<!-- Node7 -->
<g id="Node000007" class="node">
<title>Node7</title>
<g id="a_Node000007"><a xlink:title=" ">
<polygon fill="#e0e0e0" stroke="#999999" points="684.11,-18 633.05,-18 633.05,0 684.11,0 684.11,-18"/>
<text text-anchor="middle" x="658.58" y="-6" font-family="Helvetica,sans-Serif" font-size="10.00">optional</text>
</a>
</g>
</g>
<!-- Node5&#45;&gt;Node7 -->
<g id="edge6_Node000005_Node000007" class="edge">
<title>Node5&#45;&gt;Node7</title>
<g id="a_edge6_Node000005_Node000007"><a xlink:title=" ">
<path fill="none" stroke="#63b8ff" d="M658.58,-53.88C658.58,-47.05 658.58,-37.03 658.58,-28.29"/>
<polygon fill="#63b8ff" stroke="#63b8ff" points="662.08,-28.24 658.58,-18.24 655.08,-28.24 662.08,-28.24"/>
</a>
</g>
</g>
<!-- Node8 -->
<g id="Node000008" class="node">
<title>Node8</title>
<g id="a_Node000008"><a xlink:title=" ">
<polygon fill="#e0e0e0" stroke="#999999" points="903.04,-18 862.13,-18 862.13,0 903.04,0 903.04,-18"/>
<text text-anchor="middle" x="882.58" y="-6" font-family="Helvetica,sans-Serif" font-size="10.00">string</text>
</a>
</g>
</g>
<!-- Node5&#45;&gt;Node8 -->
<g id="edge7_Node000005_Node000008" class="edge">
<title>Node5&#45;&gt;Node8</title>
<g id="a_edge7_Node000005_Node000008"><a xlink:title=" ">
<path fill="none" stroke="#63b8ff" d="M693.09,-53.99C736.65,-43.88 810.87,-26.65 852.32,-17.03"/>
<polygon fill="#63b8ff" stroke="#63b8ff" points="853.16,-20.42 862.11,-14.75 851.58,-13.6 853.16,-20.42"/>
</a>
</g>
</g>
<!-- Node13&#45;&gt;Node5 -->
<g id="edge14_Node000013_Node000005" class="edge">
<title>Node13&#45;&gt;Node5</title>
<g id="a_edge14_Node000013_Node000005"><a xlink:title=" ">
<path fill="none" stroke="#63b8ff" d="M693.17,-107.88C687.37,-100.52 678.65,-89.45 671.41,-80.28"/>
<polygon fill="#63b8ff" stroke="#63b8ff" points="674.02,-77.93 665.08,-72.24 668.52,-82.26 674.02,-77.93"/>
</a>
</g>
</g>
<!-- Node13&#45;&gt;Node6 -->
<g id="edge16_Node000013_Node000006" class="edge">
<title>Node13&#45;&gt;Node6</title>
<g id="a_edge16_Node000013_Node000006"><a xlink:title=" ">
<path fill="none" stroke="#63b8ff" d="M674.34,-107.88C653.62,-100.49 624.12,-88.25 601.58,-72 583.68,-59.09 567.07,-39.85 556.46,-26.23"/>
<polygon fill="#63b8ff" stroke="#63b8ff" points="559.22,-24.08 550.39,-18.22 553.64,-28.31 559.22,-24.08"/>
</a>
</g>
</g>
<!-- Node13&#45;&gt;Node9 -->
<g id="edge15_Node000013_Node000009" class="edge">
<title>Node13&#45;&gt;Node9</title>
<g id="a_edge15_Node000013_Node000009"><a xlink:title=" ">
<path fill="none" stroke="#63b8ff" d="M674.04,-109.6C671.19,-109 668.33,-108.45 665.58,-108 586.24,-94.89 347.39,-74.96 251.29,-67.23"/>
<polygon fill="#63b8ff" stroke="#63b8ff" points="251.34,-63.72 241.1,-66.41 250.78,-70.7 251.34,-63.72"/>
</a>
</g>
</g>
<!-- Node15&#45;&gt;Node4 -->
<g id="edge21_Node000015_Node000004" class="edge">
<title>Node15&#45;&gt;Node4</title>
<g id="a_edge21_Node000015_Node000004"><a xlink:title=" ">
<path fill="none" stroke="#63b8ff" d="M536.64,-215.68C551.56,-198.11 586.51,-156.96 605.94,-134.07"/>
<polygon fill="#63b8ff" stroke="#63b8ff" points="608.75,-136.17 612.55,-126.28 603.41,-131.64 608.75,-136.17"/>
</a>
</g>
</g>
<!-- Node15&#45;&gt;Node9 -->
<g id="edge36_Node000015_Node000009" class="edge">
<title>Node15&#45;&gt;Node9</title>
<g id="a_edge36_Node000015_Node000009"><a xlink:title=" ">
<path fill="none" stroke="#63b8ff" d="M492.82,-221.92C429.35,-217.67 302.63,-206.11 267.58,-180 235.13,-155.83 220.12,-108.16 214.07,-82.08"/>
<polygon fill="#63b8ff" stroke="#63b8ff" points="217.45,-81.13 211.95,-72.07 210.6,-82.58 217.45,-81.13"/>
</a>
</g>
</g>
<!-- Node15&#45;&gt;Node13 -->
<g id="edge35_Node000015_Node000013" class="edge">
<title>Node15&#45;&gt;Node13</title>
<g id="a_edge35_Node000015_Node000013"><a xlink:title=" ">
<path fill="none" stroke="#63b8ff" d="M542.64,-215.86C571.76,-197.7 642.26,-153.74 678.01,-131.45"/>
<polygon fill="#63b8ff" stroke="#63b8ff" points="680.08,-134.29 686.71,-126.02 676.37,-128.35 680.08,-134.29"/>
</a>
</g>
</g>
<!-- Node16 -->
<g id="Node000016" class="node">
<title>Node16</title>
<g id="a_Node000016"><a xlink:href="metadata_8hpp.html" target="_top" xlink:title=" ">
<polygon fill="white" stroke="#666666" points="919.24,-126 841.92,-126 841.92,-108 919.24,-108 919.24,-126"/>
<text text-anchor="middle" x="880.58" y="-114" font-family="Helvetica,sans-Serif" font-size="10.00">metadata.hpp</text>
</a>
</g>
</g>
<!-- Node15&#45;&gt;Node16 -->
<g id="edge22_Node000015_Node000016" class="edge">
<title>Node15&#45;&gt;Node16</title>
<g id="a_edge22_Node000015_Node000016"><a xlink:title=" ">
<path fill="none" stroke="#63b8ff" d="M556.25,-215.95C618.46,-197.16 773.27,-150.41 844.13,-129.01"/>
<polygon fill="#63b8ff" stroke="#63b8ff" points="845.39,-132.28 853.95,-126.04 843.37,-125.58 845.39,-132.28"/>
</a>
</g>
</g>
<!-- Node20 -->
<g id="Node000020" class="node">
<title>Node20</title>
<g id="a_Node000020"><a xlink:href="spine_8hpp.html" target="_top" xlink:title=" ">
<polygon fill="white" stroke="#666666" points="529.45,-180 469.71,-180 469.71,-162 529.45,-162 529.45,-180"/>
<text text-anchor="middle" x="499.58" y="-168" font-family="Helvetica,sans-Serif" font-size="10.00">spine.hpp</text>
</a>
</g>
</g>
<!-- Node15&#45;&gt;Node20 -->
<g id="edge28_Node000015_Node000020" class="edge">
<title>Node15&#45;&gt;Node20</title>
<g id="a_edge28_Node000015_Node000020"><a xlink:title=" ">
<path fill="none" stroke="#63b8ff" d="M524.89,-215.88C520.78,-208.74 514.66,-198.13 509.47,-189.13"/>
<polygon fill="#63b8ff" stroke="#63b8ff" points="512.36,-187.15 504.33,-180.24 506.3,-190.65 512.36,-187.15"/>
</a>
</g>
</g>
<!-- Node16&#45;&gt;Node8 -->
<g id="edge26_Node000016_Node000008" class="edge">
<title>Node16&#45;&gt;Node8</title>
<g id="a_edge26_Node000016_Node000008"><a xlink:title=" ">
<path fill="none" stroke="#63b8ff" d="M919.28,-115.94C952.89,-113.56 999.82,-104.18 1023.58,-72 1053.48,-31.52 963.22,-17.05 913.31,-12.23"/>
<polygon fill="#63b8ff" stroke="#63b8ff" points="913.31,-8.71 903.04,-11.31 912.69,-15.68 913.31,-8.71"/>
</a>
</g>
</g>
<!-- Node16&#45;&gt;Node12 -->
<g id="edge25_Node000016_Node000012" class="edge">
<title>Node16&#45;&gt;Node12</title>
<g id="a_edge25_Node000016_Node000012"><a xlink:title=" ">
<path fill="none" stroke="#63b8ff" d="M861.02,-107.99C840.1,-99.43 806.71,-85.76 782.71,-75.93"/>
<polygon fill="#63b8ff" stroke="#63b8ff" points="783.96,-72.66 773.38,-72.11 781.31,-79.13 783.96,-72.66"/>
</a>
</g>
</g>
<!-- Node17 -->
<g id="Node000017" class="node">
<title>Node17</title>
<g id="a_Node000017"><a xlink:title=" ">
<polygon fill="#e0e0e0" stroke="#999999" points="949.66,-72 893.5,-72 893.5,-54 949.66,-54 949.66,-72"/>
<text text-anchor="middle" x="921.58" y="-60" font-family="Helvetica,sans-Serif" font-size="10.00">charconv</text>
</a>
</g>
</g>
<!-- Node16&#45;&gt;Node17 -->
<g id="edge23_Node000016_Node000017" class="edge">
<title>Node16&#45;&gt;Node17</title>
<g id="a_edge23_Node000016_Node000017"><a xlink:title=" ">
<path fill="none" stroke="#63b8ff" d="M886.99,-107.88C892.79,-100.52 901.51,-89.45 908.75,-80.28"/>
<polygon fill="#63b8ff" stroke="#63b8ff" points="911.64,-82.26 915.08,-72.24 906.14,-77.93 911.64,-82.26"/>
</a>
</g>
</g>
<!-- Node18 -->
<g id="Node000018" class="node">
<title>Node18</title>
<g id="a_Node000018"><a xlink:title=" ">
<polygon fill="#e0e0e0" stroke="#999999" points="1014.66,-72 968.5,-72 968.5,-54 1014.66,-54 1014.66,-72"/>
<text text-anchor="middle" x="991.58" y="-60" font-family="Helvetica,sans-Serif" font-size="10.00">chrono</text>
</a>
</g>
</g>
<!-- Node16&#45;&gt;Node18 -->
<g id="edge24_Node000016_Node000018" class="edge">
<title>Node16&#45;&gt;Node18</title>
<g id="a_edge24_Node000016_Node000018"><a xlink:title=" ">
<path fill="none" stroke="#63b8ff" d="M897.92,-107.88C915.93,-99.44 944.31,-86.15 965.12,-76.4"/>
<polygon fill="#63b8ff" stroke="#63b8ff" points="966.79,-79.48 974.36,-72.07 963.82,-73.14 966.79,-79.48"/>
</a>
</g>
</g>
<!-- Node19 -->
<g id="Node000019" class="node">
<title>Node19</title>
<g id="a_Node000019"><a xlink:title=" ">
<polygon fill="#e0e0e0" stroke="#999999" points="875.93,-72 801.24,-72 801.24,-54 875.93,-54 875.93,-72"/>
<text text-anchor="middle" x="838.58" y="-60" font-family="Helvetica,sans-Serif" font-size="10.00">system_error</text>
</a>
</g>
</g>
<!-- Node16&#45;&gt;Node19 -->
<g id="edge27_Node000016_Node000019" class="edge">
<title>Node16&#45;&gt;Node19</title>
<g id="a_edge27_Node000016_Node000019"><a xlink:title=" ">
<path fill="none" stroke="#63b8ff" d="M874.02,-107.88C868.07,-100.52 859.14,-89.45 851.73,-80.28"/>
<polygon fill="#63b8ff" stroke="#63b8ff" points="854.24,-77.82 845.24,-72.24 848.8,-82.22 854.24,-77.82"/>
</a>
</g>
</g>
<!-- Node20&#45;&gt;Node4 -->
<g id="edge29_Node000020_Node000004" class="edge">
<title>Node20&#45;&gt;Node4</title>
<g id="a_edge29_Node000020_Node000004"><a xlink:title=" ">
<path fill="none" stroke="#63b8ff" d="M518.07,-161.99C537.65,-153.5 568.82,-140 591.45,-130.19"/>
<polygon fill="#63b8ff" stroke="#63b8ff" points="593.09,-133.29 600.88,-126.11 590.31,-126.87 593.09,-133.29"/>
</a>
</g>
</g>
<!-- Node20&#45;&gt;Node10 -->
<g id="edge32_Node000020_Node000010" class="edge">
<title>Node20&#45;&gt;Node10</title>
<g id="a_edge32_Node000020_Node000010"><a xlink:title=" ">
<path fill="none" stroke="#63b8ff" d="M469.57,-165.72C444.11,-160.56 408.36,-149.45 386.58,-126 375.57,-114.14 370.93,-96.05 368.98,-82.47"/>
<polygon fill="#63b8ff" stroke="#63b8ff" points="372.45,-81.92 367.9,-72.35 365.49,-82.67 372.45,-81.92"/>
</a>
</g>
</g>
<!-- Node20&#45;&gt;Node11 -->
<g id="edge33_Node000020_Node000011" class="edge">
<title>Node20&#45;&gt;Node11</title>
<g id="a_edge33_Node000020_Node000011"><a xlink:title=" ">
<path fill="none" stroke="#63b8ff" d="M509.87,-161.97C523.2,-150.51 543.82,-128.57 535.58,-108 531,-96.56 521.86,-86.41 513.28,-78.74"/>
<polygon fill="#63b8ff" stroke="#63b8ff" points="515.32,-75.89 505.39,-72.2 510.85,-81.28 515.32,-75.89"/>
</a>
</g>
</g>
<!-- Node20&#45;&gt;Node14 -->
<g id="edge34_Node000020_Node000014" class="edge">
<title>Node20&#45;&gt;Node14</title>
<g id="a_edge34_Node000020_Node000014"><a xlink:title=" ">
<path fill="none" stroke="#63b8ff" d="M471.54,-161.99C438.56,-152.57 383.93,-136.96 349.39,-127.09"/>
<polygon fill="#63b8ff" stroke="#63b8ff" points="349.94,-123.61 339.37,-124.22 348.02,-130.34 349.94,-123.61"/>
</a>
</g>
</g>
<!-- Node21 -->
<g id="Node000021" class="node">
<title>Node21</title>
<g id="a_Node000021"><a xlink:title=" ">
<polygon fill="#e0e0e0" stroke="#999999" points="453.89,-126 395.27,-126 395.27,-108 453.89,-108 453.89,-126"/>
<text text-anchor="middle" x="424.58" y="-114" font-family="Helvetica,sans-Serif" font-size="10.00">functional</text>
</a>
</g>
</g>
<!-- Node20&#45;&gt;Node21 -->
<g id="edge30_Node000020_Node000021" class="edge">
<title>Node20&#45;&gt;Node21</title>
<g id="a_edge30_Node000020_Node000021"><a xlink:title=" ">
<path fill="none" stroke="#63b8ff" d="M487.86,-161.88C476.37,-153.91 458.62,-141.6 444.84,-132.05"/>
<polygon fill="#63b8ff" stroke="#63b8ff" points="446.68,-129.06 436.47,-126.24 442.69,-134.81 446.68,-129.06"/>
</a>
</g>
</g>
<!-- Node22 -->
<g id="Node000022" class="node">
<title>Node22</title>
<g id="a_Node000022"><a xlink:title=" ">
<polygon fill="#e0e0e0" stroke="#999999" points="526.93,-126 472.24,-126 472.24,-108 526.93,-108 526.93,-126"/>
<text text-anchor="middle" x="499.58" y="-114" font-family="Helvetica,sans-Serif" font-size="10.00">iostream</text>
</a>
</g>
</g>
<!-- Node20&#45;&gt;Node22 -->
<g id="edge31_Node000020_Node000022" class="edge">
<title>Node20&#45;&gt;Node22</title>
<g id="a_edge31_Node000020_Node000022"><a xlink:title=" ">
<path fill="none" stroke="#63b8ff" d="M499.58,-161.88C499.58,-155.05 499.58,-145.03 499.58,-136.29"/>
<polygon fill="#63b8ff" stroke="#63b8ff" points="503.08,-136.24 499.58,-126.24 496.08,-136.24 503.08,-136.24"/>
</a>
</g>
</g>
<!-- Node24&#45;&gt;Node6 -->
<g id="edge43_Node000024_Node000006" class="edge">
<title>Node24&#45;&gt;Node6</title>
<g id="a_edge43_Node000024_Node000006"><a xlink:title=" ">
<path fill="none" stroke="#63b8ff" d="M34.04,-107.91C20.16,-95.19 -2.42,-70.29 12.58,-54 46.95,-16.67 411.85,-11.01 516.61,-10.15"/>
<polygon fill="#63b8ff" stroke="#63b8ff" points="516.75,-13.65 526.73,-10.08 516.7,-6.65 516.75,-13.65"/>
</a>
</g>
</g>
<!-- Node24&#45;&gt;Node9 -->
<g id="edge42_Node000024_Node000009" class="edge">
<title>Node24&#45;&gt;Node9</title>
<g id="a_edge42_Node000024_Node000009"><a xlink:title=" ">
<path fill="none" stroke="#63b8ff" d="M69.31,-107.99C97.63,-99.17 143.33,-84.94 175.06,-75.06"/>
<polygon fill="#63b8ff" stroke="#63b8ff" points="176.32,-78.33 184.82,-72.02 174.24,-71.65 176.32,-78.33"/>
</a>
</g>
</g>
<!-- Node25 -->
<g id="Node000025" class="node">
<title>Node25</title>
<g id="a_Node000025"><a xlink:title=" ">
<polygon fill="#e0e0e0" stroke="#999999" points="87.6,-72 21.56,-72 21.56,-54 87.6,-54 87.6,-72"/>
<text text-anchor="middle" x="54.58" y="-60" font-family="Helvetica,sans-Serif" font-size="10.00">string_view</text>
</a>
</g>
</g>
<!-- Node24&#45;&gt;Node25 -->
<g id="edge44_Node000024_Node000025" class="edge">
<title>Node24&#45;&gt;Node25</title>
<g id="a_edge44_Node000024_Node000025"><a xlink:title=" ">
<path fill="none" stroke="#63b8ff" d="M45.3,-107.88C46.74,-101.05 48.86,-91.03 50.71,-82.29"/>
<polygon fill="#63b8ff" stroke="#63b8ff" points="54.19,-82.75 52.84,-72.24 47.34,-81.3 54.19,-82.75"/>
</a>
</g>
</g>
</g>
</svg>
