<?xml version="1.0" encoding="UTF-8" standalone="no"?>
<!DOCTYPE svg PUBLIC "-//W3C//DTD SVG 1.1//EN"
 "http://www.w3.org/Graphics/SVG/1.1/DTD/svg11.dtd">
<!-- Generated by graphviz version 2.48.0 (20210717.1556)
 -->
<!-- Title: container.hpp Pages: 1 -->
<svg width="714pt" height="296pt"
 viewBox="0.00 0.00 713.58 296.00" xmlns="http://www.w3.org/2000/svg" xmlns:xlink="http://www.w3.org/1999/xlink">
<g id="graph0" class="graph" transform="scale(1 1) rotate(0) translate(4 292)">
<title>container.hpp</title>
<!-- Node1 -->
<g id="Node000001" class="node">
<title>Node1</title>
<g id="a_Node000001"><a xlink:title=" ">
<polygon fill="#999999" stroke="#666666" points="99.05,-288 22.95,-288 22.95,-270 99.05,-270 99.05,-288"/>
<text text-anchor="middle" x="61" y="-276" font-family="Helvetica,sans-Serif" font-size="10.00">container.hpp</text>
</a>
</g>
</g>
<!-- Node2 -->
<g id="Node000002" class="node">
<title>Node2</title>
<g id="a_Node000002"><a xlink:href="navigation_8hpp.html" target="_top" xlink:title=" ">
<polygon fill="white" stroke="#666666" points="260.55,-180 179.45,-180 179.45,-162 260.55,-162 260.55,-180"/>
<text text-anchor="middle" x="220" y="-168" font-family="Helvetica,sans-Serif" font-size="10.00">navigation.hpp</text>
</a>
</g>
</g>
<!-- Node1&#45;&gt;Node2 -->
<g id="edge1_Node000001_Node000002" class="edge">
<title>Node1&#45;&gt;Node2</title>
<g id="a_edge1_Node000001_Node000002"><a xlink:title=" ">
<path fill="none" stroke="#63b8ff" d="M73.21,-269.86C100.33,-251.78 165.82,-208.12 199.4,-185.73"/>
<polygon fill="#63b8ff" stroke="#63b8ff" points="201.58,-188.48 207.96,-180.02 197.7,-182.66 201.58,-188.48"/>
</a>
</g>
</g>
<!-- Node5 -->
<g id="Node000005" class="node">
<title>Node5</title>
<g id="a_Node000005"><a xlink:title=" ">
<polygon fill="#e0e0e0" stroke="#999999" points="206.96,-18 171.04,-18 171.04,0 206.96,0 206.96,-18"/>
<text text-anchor="middle" x="189" y="-6" font-family="Helvetica,sans-Serif" font-size="10.00">map</text>
</a>
</g>
</g>
<!-- Node1&#45;&gt;Node5 -->
<g id="edge35_Node000001_Node000005" class="edge">
<title>Node1&#45;&gt;Node5</title>
<g id="a_edge35_Node000001_Node000005"><a xlink:title=" ">
<path fill="none" stroke="#63b8ff" d="M52.26,-269.87C35.39,-253.23 0,-213.4 0,-172 0,-172 0,-172 0,-116 0,-42.97 108.68,-19.74 161.21,-12.78"/>
<polygon fill="#63b8ff" stroke="#63b8ff" points="161.72,-16.25 171.22,-11.57 160.87,-9.3 161.72,-16.25"/>
</a>
</g>
</g>
<!-- Node8 -->
<g id="Node000008" class="node">
<title>Node8</title>
<g id="a_Node000008"><a xlink:title=" ">
<polygon fill="#e0e0e0" stroke="#999999" points="142.45,-72 81.55,-72 81.55,-54 142.45,-54 142.45,-72"/>
<text text-anchor="middle" x="112" y="-60" font-family="Helvetica,sans-Serif" font-size="10.00">filesystem</text>
</a>
</g>
</g>
<!-- Node1&#45;&gt;Node8 -->
<g id="edge34_Node000001_Node000008" class="edge">
<title>Node1&#45;&gt;Node8</title>
<g id="a_edge34_Node000001_Node000008"><a xlink:title=" ">
<path fill="none" stroke="#63b8ff" d="M62.94,-269.87C70.37,-238.69 97.17,-126.24 107.7,-82.03"/>
<polygon fill="#63b8ff" stroke="#63b8ff" points="111.15,-82.67 110.06,-72.14 104.34,-81.05 111.15,-82.67"/>
</a>
</g>
</g>
<!-- Node14 -->
<g id="Node000014" class="node">
<title>Node14</title>
<g id="a_Node000014"><a xlink:href="package_8hpp.html" target="_top" xlink:title=" ">
<polygon fill="white" stroke="#666666" points="256.77,-234 183.23,-234 183.23,-216 256.77,-216 256.77,-234"/>
<text text-anchor="middle" x="220" y="-222" font-family="Helvetica,sans-Serif" font-size="10.00">package.hpp</text>
</a>
</g>
</g>
<!-- Node1&#45;&gt;Node14 -->
<g id="edge19_Node000001_Node000014" class="edge">
<title>Node1&#45;&gt;Node14</title>
<g id="a_edge19_Node000001_Node000014"><a xlink:title=" ">
<path fill="none" stroke="#63b8ff" d="M85.5,-269.99C112.34,-261.21 155.6,-247.06 185.78,-237.19"/>
<polygon fill="#63b8ff" stroke="#63b8ff" points="187.06,-240.46 195.48,-234.02 184.88,-233.8 187.06,-240.46"/>
</a>
</g>
</g>
<!-- Node3 -->
<g id="Node000003" class="node">
<title>Node3</title>
<g id="a_Node000003"><a xlink:href="manifest_8hpp.html" target="_top" xlink:title=" ">
<polygon fill="white" stroke="#666666" points="323.76,-126 250.24,-126 250.24,-108 323.76,-108 323.76,-126"/>
<text text-anchor="middle" x="287" y="-114" font-family="Helvetica,sans-Serif" font-size="10.00">manifest.hpp</text>
</a>
</g>
</g>
<!-- Node2&#45;&gt;Node3 -->
<g id="edge2_Node000002_Node000003" class="edge">
<title>Node2&#45;&gt;Node3</title>
<g id="a_edge2_Node000002_Node000003"><a xlink:title=" ">
<path fill="none" stroke="#63b8ff" d="M230.47,-161.88C240.54,-154.06 255.99,-142.07 268.19,-132.6"/>
<polygon fill="#63b8ff" stroke="#63b8ff" points="270.63,-135.14 276.38,-126.24 266.34,-129.61 270.63,-135.14"/>
</a>
</g>
</g>
<!-- Node2&#45;&gt;Node8 -->
<g id="edge16_Node000002_Node000008" class="edge">
<title>Node2&#45;&gt;Node8</title>
<g id="a_edge16_Node000002_Node000008"><a xlink:title=" ">
<path fill="none" stroke="#63b8ff" d="M191.75,-161.97C172.74,-155.22 148.42,-143.77 133,-126 122.29,-113.66 116.99,-95.63 114.4,-82.19"/>
<polygon fill="#63b8ff" stroke="#63b8ff" points="117.84,-81.53 112.8,-72.21 110.92,-82.63 117.84,-81.53"/>
</a>
</g>
</g>
<!-- Node9 -->
<g id="Node000009" class="node">
<title>Node9</title>
<g id="a_Node000009"><a xlink:title=" ">
<polygon fill="#e0e0e0" stroke="#999999" points="402.11,-72 349.89,-72 349.89,-54 402.11,-54 402.11,-72"/>
<text text-anchor="middle" x="376" y="-60" font-family="Helvetica,sans-Serif" font-size="10.00">memory</text>
</a>
</g>
</g>
<!-- Node2&#45;&gt;Node9 -->
<g id="edge17_Node000002_Node000009" class="edge">
<title>Node2&#45;&gt;Node9</title>
<g id="a_edge17_Node000002_Node000009"><a xlink:title=" ">
<path fill="none" stroke="#63b8ff" d="M220.48,-161.96C221.69,-148.86 225.97,-122.86 241,-108 248.23,-100.85 302.22,-84.64 339.69,-74.02"/>
<polygon fill="#63b8ff" stroke="#63b8ff" points="341.09,-77.26 349.76,-71.18 339.19,-70.52 341.09,-77.26"/>
</a>
</g>
</g>
<!-- Node12 -->
<g id="Node000012" class="node">
<title>Node12</title>
<g id="a_Node000012"><a xlink:href="xml_8hpp.html" target="_top" xlink:title=" ">
<polygon fill="white" stroke="#666666" points="193.51,-126 142.49,-126 142.49,-108 193.51,-108 193.51,-126"/>
<text text-anchor="middle" x="168" y="-114" font-family="Helvetica,sans-Serif" font-size="10.00">xml.hpp</text>
</a>
</g>
</g>
<!-- Node2&#45;&gt;Node12 -->
<g id="edge12_Node000002_Node000012" class="edge">
<title>Node2&#45;&gt;Node12</title>
<g id="a_edge12_Node000002_Node000012"><a xlink:title=" ">
<path fill="none" stroke="#63b8ff" d="M211.88,-161.88C204.29,-154.29 192.76,-142.76 183.43,-133.43"/>
<polygon fill="#63b8ff" stroke="#63b8ff" points="185.79,-130.84 176.24,-126.24 180.84,-135.79 185.79,-130.84"/>
</a>
</g>
</g>
<!-- Node13 -->
<g id="Node000013" class="node">
<title>Node13</title>
<g id="a_Node000013"><a xlink:title=" ">
<polygon fill="#e0e0e0" stroke="#999999" points="384.73,-126 341.27,-126 341.27,-108 384.73,-108 384.73,-126"/>
<text text-anchor="middle" x="363" y="-114" font-family="Helvetica,sans-Serif" font-size="10.00">vector</text>
</a>
</g>
</g>
<!-- Node2&#45;&gt;Node13 -->
<g id="edge18_Node000002_Node000013" class="edge">
<title>Node2&#45;&gt;Node13</title>
<g id="a_edge18_Node000002_Node000013"><a xlink:title=" ">
<path fill="none" stroke="#63b8ff" d="M242.03,-161.99C266.03,-153.26 304.63,-139.23 331.75,-129.36"/>
<polygon fill="#63b8ff" stroke="#63b8ff" points="332.98,-132.64 341.18,-125.93 330.59,-126.06 332.98,-132.64"/>
</a>
</g>
</g>
<!-- Node4 -->
<g id="Node000004" class="node">
<title>Node4</title>
<g id="a_Node000004"><a xlink:href="file__metadata_8hpp.html" target="_top" xlink:title=" ">
<polygon fill="white" stroke="#666666" points="331.5,-72 236.5,-72 236.5,-54 331.5,-54 331.5,-72"/>
<text text-anchor="middle" x="284" y="-60" font-family="Helvetica,sans-Serif" font-size="10.00">file_metadata.hpp</text>
</a>
</g>
</g>
<!-- Node3&#45;&gt;Node4 -->
<g id="edge3_Node000003_Node000004" class="edge">
<title>Node3&#45;&gt;Node4</title>
<g id="a_edge3_Node000003_Node000004"><a xlink:title=" ">
<path fill="none" stroke="#63b8ff" d="M286.53,-107.88C286.14,-101.05 285.56,-91.03 285.06,-82.29"/>
<polygon fill="#63b8ff" stroke="#63b8ff" points="288.55,-82.02 284.48,-72.24 281.56,-82.42 288.55,-82.02"/>
</a>
</g>
</g>
<!-- Node3&#45;&gt;Node5 -->
<g id="edge8_Node000003_Node000005" class="edge">
<title>Node3&#45;&gt;Node5</title>
<g id="a_edge8_Node000003_Node000005"><a xlink:title=" ">
<path fill="none" stroke="#63b8ff" d="M272.93,-107.89C259.94,-99.92 240.65,-86.83 227,-72 214.72,-58.66 204.26,-40.78 197.44,-27.64"/>
<polygon fill="#63b8ff" stroke="#63b8ff" points="200.38,-25.7 192.79,-18.31 194.12,-28.82 200.38,-25.7"/>
</a>
</g>
</g>
<!-- Node3&#45;&gt;Node8 -->
<g id="edge7_Node000003_Node000008" class="edge">
<title>Node3&#45;&gt;Node8</title>
<g id="a_edge7_Node000003_Node000008"><a xlink:title=" ">
<path fill="none" stroke="#63b8ff" d="M260.04,-107.99C230.24,-99.13 182.06,-84.82 148.8,-74.93"/>
<polygon fill="#63b8ff" stroke="#63b8ff" points="149.57,-71.51 138.99,-72.02 147.58,-78.22 149.57,-71.51"/>
</a>
</g>
</g>
<!-- Node3&#45;&gt;Node9 -->
<g id="edge9_Node000003_Node000009" class="edge">
<title>Node3&#45;&gt;Node9</title>
<g id="a_edge9_Node000003_Node000009"><a xlink:title=" ">
<path fill="none" stroke="#63b8ff" d="M300.91,-107.88C314.88,-99.71 336.66,-86.98 353.18,-77.33"/>
<polygon fill="#63b8ff" stroke="#63b8ff" points="355.32,-80.13 362.19,-72.07 351.79,-74.09 355.32,-80.13"/>
</a>
</g>
</g>
<!-- Node10 -->
<g id="Node000010" class="node">
<title>Node10</title>
<g id="a_Node000010"><a xlink:title=" ">
<polygon fill="#e0e0e0" stroke="#999999" points="470.08,-72 423.92,-72 423.92,-54 470.08,-54 470.08,-72"/>
<text text-anchor="middle" x="447" y="-60" font-family="Helvetica,sans-Serif" font-size="10.00">ranges</text>
</a>
</g>
</g>
<!-- Node3&#45;&gt;Node10 -->
<g id="edge10_Node000003_Node000010" class="edge">
<title>Node3&#45;&gt;Node10</title>
<g id="a_edge10_Node000003_Node000010"><a xlink:title=" ">
<path fill="none" stroke="#63b8ff" d="M311.65,-107.99C339.14,-99.06 383.72,-84.57 414.15,-74.68"/>
<polygon fill="#63b8ff" stroke="#63b8ff" points="415.45,-77.93 423.88,-71.51 413.29,-71.28 415.45,-77.93"/>
</a>
</g>
</g>
<!-- Node11 -->
<g id="Node000011" class="node">
<title>Node11</title>
<g id="a_Node000011"><a xlink:title=" ">
<polygon fill="#e0e0e0" stroke="#999999" points="570.3,-72 511.7,-72 511.7,-54 570.3,-54 570.3,-72"/>
<text text-anchor="middle" x="541" y="-60" font-family="Helvetica,sans-Serif" font-size="10.00">stdexcept</text>
</a>
</g>
</g>
<!-- Node3&#45;&gt;Node11 -->
<g id="edge11_Node000003_Node000011" class="edge">
<title>Node3&#45;&gt;Node11</title>
<g id="a_edge11_Node000003_Node000011"><a xlink:title=" ">
<path fill="none" stroke="#63b8ff" d="M323.66,-108.49C370.99,-98.81 453.02,-82.01 501.63,-72.06"/>
<polygon fill="#63b8ff" stroke="#63b8ff" points="502.38,-75.48 511.47,-70.05 500.97,-68.62 502.38,-75.48"/>
</a>
</g>
</g>
<!-- Node4&#45;&gt;Node5 -->
<g id="edge4_Node000004_Node000005" class="edge">
<title>Node4&#45;&gt;Node5</title>
<g id="a_edge4_Node000004_Node000005"><a xlink:title=" ">
<path fill="none" stroke="#63b8ff" d="M269.16,-53.88C254.1,-45.63 230.55,-32.74 212.87,-23.07"/>
<polygon fill="#63b8ff" stroke="#63b8ff" points="214.19,-19.8 203.74,-18.07 210.83,-25.94 214.19,-19.8"/>
</a>
</g>
</g>
<!-- Node6 -->
<g id="Node000006" class="node">
<title>Node6</title>
<g id="a_Node000006"><a xlink:title=" ">
<polygon fill="#e0e0e0" stroke="#999999" points="309.53,-18 258.47,-18 258.47,0 309.53,0 309.53,-18"/>
<text text-anchor="middle" x="284" y="-6" font-family="Helvetica,sans-Serif" font-size="10.00">optional</text>
</a>
</g>
</g>
<!-- Node4&#45;&gt;Node6 -->
<g id="edge5_Node000004_Node000006" class="edge">
<title>Node4&#45;&gt;Node6</title>
<g id="a_edge5_Node000004_Node000006"><a xlink:title=" ">
<path fill="none" stroke="#63b8ff" d="M284,-53.88C284,-47.05 284,-37.03 284,-28.29"/>
<polygon fill="#63b8ff" stroke="#63b8ff" points="287.5,-28.24 284,-18.24 280.5,-28.24 287.5,-28.24"/>
</a>
</g>
</g>
<!-- Node7 -->
<g id="Node000007" class="node">
<title>Node7</title>
<g id="a_Node000007"><a xlink:title=" ">
<polygon fill="#e0e0e0" stroke="#999999" points="500.46,-18 459.54,-18 459.54,0 500.46,0 500.46,-18"/>
<text text-anchor="middle" x="480" y="-6" font-family="Helvetica,sans-Serif" font-size="10.00">string</text>
</a>
</g>
</g>
<!-- Node4&#45;&gt;Node7 -->
<g id="edge6_Node000004_Node000007" class="edge">
<title>Node4&#45;&gt;Node7</title>
<g id="a_edge6_Node000004_Node000007"><a xlink:title=" ">
<path fill="none" stroke="#63b8ff" d="M314.2,-53.99C351.1,-44.2 413.17,-27.73 449.99,-17.96"/>
<polygon fill="#63b8ff" stroke="#63b8ff" points="450.9,-21.34 459.67,-15.39 449.1,-14.58 450.9,-21.34"/>
</a>
</g>
</g>
<!-- Node12&#45;&gt;Node4 -->
<g id="edge13_Node000012_Node000004" class="edge">
<title>Node12&#45;&gt;Node4</title>
<g id="a_edge13_Node000012_Node000004"><a xlink:title=" ">
<path fill="none" stroke="#63b8ff" d="M185.87,-107.99C204.72,-99.54 234.66,-86.12 256.51,-76.32"/>
<polygon fill="#63b8ff" stroke="#63b8ff" points="258.22,-79.39 265.92,-72.11 255.36,-73 258.22,-79.39"/>
</a>
</g>
</g>
<!-- Node12&#45;&gt;Node5 -->
<g id="edge15_Node000012_Node000005" class="edge">
<title>Node12&#45;&gt;Node5</title>
<g id="a_edge15_Node000012_Node000005"><a xlink:title=" ">
<path fill="none" stroke="#63b8ff" d="M169.65,-107.68C173.02,-90.65 180.78,-51.47 185.39,-28.24"/>
<polygon fill="#63b8ff" stroke="#63b8ff" points="188.85,-28.77 187.36,-18.28 181.98,-27.41 188.85,-28.77"/>
</a>
</g>
</g>
<!-- Node12&#45;&gt;Node8 -->
<g id="edge14_Node000012_Node000008" class="edge">
<title>Node12&#45;&gt;Node8</title>
<g id="a_edge14_Node000012_Node000008"><a xlink:title=" ">
<path fill="none" stroke="#63b8ff" d="M159.25,-107.88C151,-100.21 138.42,-88.53 128.32,-79.15"/>
<polygon fill="#63b8ff" stroke="#63b8ff" points="130.58,-76.48 120.87,-72.24 125.82,-81.61 130.58,-76.48"/>
</a>
</g>
</g>
<!-- Node14&#45;&gt;Node3 -->
<g id="edge20_Node000014_Node000003" class="edge">
<title>Node14&#45;&gt;Node3</title>
<g id="a_edge20_Node000014_Node000003"><a xlink:title=" ">
<path fill="none" stroke="#63b8ff" d="M232.99,-215.8C244.39,-207.96 260.57,-195.1 270,-180 278.32,-166.68 282.63,-149.26 284.83,-136.28"/>
<polygon fill="#63b8ff" stroke="#63b8ff" points="288.31,-136.62 286.26,-126.23 281.38,-135.64 288.31,-136.62"/>
</a>
</g>
</g>
<!-- Node14&#45;&gt;Node8 -->
<g id="edge33_Node000014_Node000008" class="edge">
<title>Node14&#45;&gt;Node8</title>
<g id="a_edge33_Node000014_Node000008"><a xlink:title=" ">
<path fill="none" stroke="#63b8ff" d="M206.13,-215.91C182.8,-201.4 136.57,-168.44 119,-126 113.29,-112.21 111.7,-95.3 111.45,-82.62"/>
<polygon fill="#63b8ff" stroke="#63b8ff" points="114.95,-82.41 111.51,-72.39 107.95,-82.36 114.95,-82.41"/>
</a>
</g>
</g>
<!-- Node14&#45;&gt;Node12 -->
<g id="edge32_Node000014_Node000012" class="edge">
<title>Node14&#45;&gt;Node12</title>
<g id="a_edge32_Node000014_Node000012"><a xlink:title=" ">
<path fill="none" stroke="#63b8ff" d="M205.66,-215.99C193.72,-208.43 177.5,-195.9 170,-180 163.53,-166.29 163.57,-148.91 164.92,-136.04"/>
<polygon fill="#63b8ff" stroke="#63b8ff" points="168.39,-136.49 166.31,-126.1 161.46,-135.52 168.39,-136.49"/>
</a>
</g>
</g>
<!-- Node15 -->
<g id="Node000015" class="node">
<title>Node15</title>
<g id="a_Node000015"><a xlink:href="metadata_8hpp.html" target="_top" xlink:title=" ">
<polygon fill="white" stroke="#666666" points="705.66,-126 628.34,-126 628.34,-108 705.66,-108 705.66,-126"/>
<text text-anchor="middle" x="667" y="-114" font-family="Helvetica,sans-Serif" font-size="10.00">metadata.hpp</text>
</a>
</g>
</g>
<!-- Node14&#45;&gt;Node15 -->
<g id="edge21_Node000014_Node000015" class="edge">
<title>Node14&#45;&gt;Node15</title>
<g id="a_edge21_Node000014_Node000015"><a xlink:title=" ">
<path fill="none" stroke="#63b8ff" d="M256.79,-218.11C302.73,-210.51 383.61,-196.31 452,-180 516.23,-164.68 589.96,-142.37 632.25,-129.11"/>
<polygon fill="#63b8ff" stroke="#63b8ff" points="633.56,-132.36 642.05,-126.02 631.46,-125.69 633.56,-132.36"/>
</a>
</g>
</g>
<!-- Node17 -->
<g id="Node000017" class="node">
<title>Node17</title>
<g id="a_Node000017"><a xlink:href="spine_8hpp.html" target="_top" xlink:title=" ">
<polygon fill="white" stroke="#666666" points="442.87,-180 383.13,-180 383.13,-162 442.87,-162 442.87,-180"/>
<text text-anchor="middle" x="413" y="-168" font-family="Helvetica,sans-Serif" font-size="10.00">spine.hpp</text>
</a>
</g>
</g>
<!-- Node14&#45;&gt;Node17 -->
<g id="edge25_Node000014_Node000017" class="edge">
<title>Node14&#45;&gt;Node17</title>
<g id="a_edge25_Node000014_Node000017"><a xlink:title=" ">
<path fill="none" stroke="#63b8ff" d="M249.73,-215.99C282.88,-207.06 336.66,-192.57 373.36,-182.68"/>
<polygon fill="#63b8ff" stroke="#63b8ff" points="374.49,-186 383.23,-180.02 372.67,-179.24 374.49,-186"/>
</a>
</g>
</g>
<!-- Node15&#45;&gt;Node7 -->
<g id="edge24_Node000015_Node000007" class="edge">
<title>Node15&#45;&gt;Node7</title>
<g id="a_edge24_Node000015_Node000007"><a xlink:title=" ">
<path fill="none" stroke="#63b8ff" d="M656.87,-107.87C640.93,-95.31 608.75,-70.87 579,-54 556.61,-41.3 529.86,-29.6 509.81,-21.46"/>
<polygon fill="#63b8ff" stroke="#63b8ff" points="510.87,-18.12 500.28,-17.66 508.27,-24.62 510.87,-18.12"/>
</a>
</g>
</g>
<!-- Node15&#45;&gt;Node11 -->
<g id="edge23_Node000015_Node000011" class="edge">
<title>Node15&#45;&gt;Node11</title>
<g id="a_edge23_Node000015_Node000011"><a xlink:title=" ">
<path fill="none" stroke="#63b8ff" d="M647.59,-107.99C626.84,-99.43 593.72,-85.76 569.9,-75.93"/>
<polygon fill="#63b8ff" stroke="#63b8ff" points="571.22,-72.69 560.64,-72.11 568.55,-79.16 571.22,-72.69"/>
</a>
</g>
</g>
<!-- Node16 -->
<g id="Node000016" class="node">
<title>Node16</title>
<g id="a_Node000016"><a xlink:title=" ">
<polygon fill="#e0e0e0" stroke="#999999" points="690.08,-72 643.92,-72 643.92,-54 690.08,-54 690.08,-72"/>
<text text-anchor="middle" x="667" y="-60" font-family="Helvetica,sans-Serif" font-size="10.00">chrono</text>
</a>
</g>
</g>
<!-- Node15&#45;&gt;Node16 -->
<g id="edge22_Node000015_Node000016" class="edge">
<title>Node15&#45;&gt;Node16</title>
<g id="a_edge22_Node000015_Node000016"><a xlink:title=" ">
<path fill="none" stroke="#63b8ff" d="M667,-107.88C667,-101.05 667,-91.03 667,-82.29"/>
<polygon fill="#63b8ff" stroke="#63b8ff" points="670.5,-82.24 667,-72.24 663.5,-82.24 670.5,-82.24"/>
</a>
</g>
</g>
<!-- Node17&#45;&gt;Node3 -->
<g id="edge26_Node000017_Node000003" class="edge">
<title>Node17&#45;&gt;Node3</title>
<g id="a_edge26_Node000017_Node000003"><a xlink:title=" ">
<path fill="none" stroke="#63b8ff" d="M393.59,-161.99C372.84,-153.43 339.72,-139.76 315.9,-129.93"/>
<polygon fill="#63b8ff" stroke="#63b8ff" points="317.22,-126.69 306.64,-126.11 314.55,-133.16 317.22,-126.69"/>
</a>
</g>
</g>
<!-- Node17&#45;&gt;Node9 -->
<g id="edge29_Node000017_Node000009" class="edge">
<title>Node17&#45;&gt;Node9</title>
<g id="a_edge29_Node000017_Node000009"><a xlink:title=" ">
<path fill="none" stroke="#63b8ff" d="M410.77,-161.9C407.44,-149.98 400.81,-127.09 394,-108 390.84,-99.14 386.92,-89.44 383.55,-81.41"/>
<polygon fill="#63b8ff" stroke="#63b8ff" points="386.69,-79.85 379.54,-72.02 380.25,-82.6 386.69,-79.85"/>
</a>
</g>
</g>
<!-- Node17&#45;&gt;Node10 -->
<g id="edge30_Node000017_Node000010" class="edge">
<title>Node17&#45;&gt;Node10</title>
<g id="a_edge30_Node000017_Node000010"><a xlink:title=" ">
<path fill="none" stroke="#63b8ff" d="M442.8,-166.54C486.4,-160.8 564.24,-147.72 581,-126 585.89,-119.67 585.69,-114.48 581,-108 569.04,-91.48 515.92,-77.83 480.26,-70.31"/>
<polygon fill="#63b8ff" stroke="#63b8ff" points="480.77,-66.84 470.27,-68.27 479.36,-73.7 480.77,-66.84"/>
</a>
</g>
</g>
<!-- Node17&#45;&gt;Node13 -->
<g id="edge31_Node000017_Node000013" class="edge">
<title>Node17&#45;&gt;Node13</title>
<g id="a_edge31_Node000017_Node000013"><a xlink:title=" ">
<path fill="none" stroke="#63b8ff" d="M405.19,-161.88C397.96,-154.36 387.03,-142.99 378.11,-133.71"/>
<polygon fill="#63b8ff" stroke="#63b8ff" points="380.38,-131.02 370.92,-126.24 375.33,-135.87 380.38,-131.02"/>
</a>
</g>
</g>
<!-- Node18 -->
<g id="Node000018" class="node">
<title>Node18</title>
<g id="a_Node000018"><a xlink:title=" ">
<polygon fill="#e0e0e0" stroke="#999999" points="499.31,-126 440.69,-126 440.69,-108 499.31,-108 499.31,-126"/>
<text text-anchor="middle" x="470" y="-114" font-family="Helvetica,sans-Serif" font-size="10.00">functional</text>
</a>
</g>
</g>
<!-- Node17&#45;&gt;Node18 -->
<g id="edge27_Node000017_Node000018" class="edge">
<title>Node17&#45;&gt;Node18</title>
<g id="a_edge27_Node000017_Node000018"><a xlink:title=" ">
<path fill="none" stroke="#63b8ff" d="M421.91,-161.88C430.31,-154.21 443.11,-142.53 453.39,-133.15"/>
<polygon fill="#63b8ff" stroke="#63b8ff" points="455.94,-135.56 460.97,-126.24 451.22,-130.39 455.94,-135.56"/>
</a>
</g>
</g>
<!-- Node19 -->
<g id="Node000019" class="node">
<title>Node19</title>
<g id="a_Node000019"><a xlink:title=" ">
<polygon fill="#e0e0e0" stroke="#999999" points="572.35,-126 517.65,-126 517.65,-108 572.35,-108 572.35,-126"/>
<text text-anchor="middle" x="545" y="-114" font-family="Helvetica,sans-Serif" font-size="10.00">iostream</text>
</a>
</g>
</g>
<!-- Node17&#45;&gt;Node19 -->
<g id="edge28_Node000017_Node000019" class="edge">
<title>Node17&#45;&gt;Node19</title>
<g id="a_edge28_Node000017_Node000019"><a xlink:title=" ">
<path fill="none" stroke="#63b8ff" d="M433.34,-161.99C455.17,-153.39 490.08,-139.63 515.06,-129.8"/>
<polygon fill="#63b8ff" stroke="#63b8ff" points="516.4,-133.03 524.42,-126.11 513.84,-126.51 516.4,-133.03"/>
</a>
</g>
</g>
</g>
</svg>
