<?xml version="1.0" encoding="UTF-8" standalone="no"?>
<!DOCTYPE svg PUBLIC "-//W3C//DTD SVG 1.1//EN"
 "http://www.w3.org/Graphics/SVG/1.1/DTD/svg11.dtd">
<!-- Generated by graphviz version 2.48.0 (20210717.1556)
 -->
<!-- Title: container.cpp Pages: 1 -->
<svg width="885pt" height="350pt"
 viewBox="0.00 0.00 884.76 350.00" xmlns="http://www.w3.org/2000/svg" xmlns:xlink="http://www.w3.org/1999/xlink">
<g id="graph0" class="graph" transform="scale(1 1) rotate(0) translate(4 346)">
<title>container.cpp</title>
<!-- Node1 -->
<g id="Node000001" class="node">
<title>Node1</title>
<g id="a_Node000001"><a xlink:title=" ">
<polygon fill="#999999" stroke="#666666" points="686.74,-342 610.76,-342 610.76,-324 686.74,-324 686.74,-342"/>
<text text-anchor="middle" x="648.75" y="-330" font-family="Helvetica,sans-Serif" font-size="10.00">container.cpp</text>
</a>
</g>
</g>
<!-- Node2 -->
<g id="Node000002" class="node">
<title>Node2</title>
<g id="a_Node000002"><a xlink:href="container_8hpp.html" target="_top" xlink:title=" ">
<polygon fill="white" stroke="#666666" points="610.8,-288 534.7,-288 534.7,-270 610.8,-270 610.8,-288"/>
<text text-anchor="middle" x="572.75" y="-276" font-family="Helvetica,sans-Serif" font-size="10.00">container.hpp</text>
</a>
</g>
</g>
<!-- Node1&#45;&gt;Node2 -->
<g id="edge1_Node000001_Node000002" class="edge">
<title>Node1&#45;&gt;Node2</title>
<g id="a_edge1_Node000001_Node000002"><a xlink:title=" ">
<path fill="none" stroke="#63b8ff" d="M636.88,-323.88C625.23,-315.91 607.25,-303.6 593.28,-294.05"/>
<polygon fill="#63b8ff" stroke="#63b8ff" points="595.02,-291 584.79,-288.24 591.07,-296.78 595.02,-291"/>
</a>
</g>
</g>
<!-- Node4 -->
<g id="Node000004" class="node">
<title>Node4</title>
<g id="a_Node000004"><a xlink:href="manifest_8hpp.html" target="_top" xlink:title=" ">
<polygon fill="white" stroke="#666666" points="181.51,-126 107.99,-126 107.99,-108 181.51,-108 181.51,-126"/>
<text text-anchor="middle" x="144.75" y="-114" font-family="Helvetica,sans-Serif" font-size="10.00">manifest.hpp</text>
</a>
</g>
</g>
<!-- Node1&#45;&gt;Node4 -->
<g id="edge37_Node000001_Node000004" class="edge">
<title>Node1&#45;&gt;Node4</title>
<g id="a_edge37_Node000001_Node000004"><a xlink:title=" ">
<path fill="none" stroke="#63b8ff" d="M610.89,-331.77C519.9,-329.09 287.26,-309.25 162.75,-180 151.45,-168.27 147.18,-149.88 145.6,-136.17"/>
<polygon fill="#63b8ff" stroke="#63b8ff" points="149.07,-135.7 144.81,-126 142.09,-136.25 149.07,-135.7"/>
</a>
</g>
</g>
<!-- Node12 -->
<g id="Node000012" class="node">
<title>Node12</title>
<g id="a_Node000012"><a xlink:title=" ">
<polygon fill="#e0e0e0" stroke="#999999" points="607.05,-72 548.45,-72 548.45,-54 607.05,-54 607.05,-72"/>
<text text-anchor="middle" x="577.75" y="-60" font-family="Helvetica,sans-Serif" font-size="10.00">stdexcept</text>
</a>
</g>
</g>
<!-- Node1&#45;&gt;Node12 -->
<g id="edge45_Node000001_Node000012" class="edge">
<title>Node1&#45;&gt;Node12</title>
<g id="a_edge45_Node000001_Node000012"><a xlink:title=" ">
<path fill="none" stroke="#63b8ff" d="M646.63,-323.98C636.91,-287.3 596.59,-135.09 582.57,-82.21"/>
<polygon fill="#63b8ff" stroke="#63b8ff" points="585.88,-81.02 579.94,-72.25 579.11,-82.82 585.88,-81.02"/>
</a>
</g>
</g>
<!-- Node13 -->
<g id="Node000013" class="node">
<title>Node13</title>
<g id="a_Node000013"><a xlink:href="xml_8hpp.html" target="_top" xlink:title=" ">
<polygon fill="white" stroke="#666666" points="51.27,-126 0.24,-126 0.24,-108 51.27,-108 51.27,-126"/>
<text text-anchor="middle" x="25.75" y="-114" font-family="Helvetica,sans-Serif" font-size="10.00">xml.hpp</text>
</a>
</g>
</g>
<!-- Node1&#45;&gt;Node13 -->
<g id="edge42_Node000001_Node000013" class="edge">
<title>Node1&#45;&gt;Node13</title>
<g id="a_edge42_Node000001_Node000013"><a xlink:title=" ">
<path fill="none" stroke="#63b8ff" d="M610.92,-332.17C545.24,-331.4 406.61,-325.04 296.75,-288 190.62,-252.22 83.54,-167.32 42.86,-132.89"/>
<polygon fill="#63b8ff" stroke="#63b8ff" points="45.08,-130.19 35.21,-126.35 40.53,-135.51 45.08,-130.19"/>
</a>
</g>
</g>
<!-- Node21 -->
<g id="Node000021" class="node">
<title>Node21</title>
<g id="a_Node000021"><a xlink:href="media__type_8hpp.html" target="_top" xlink:title=" ">
<polygon fill="white" stroke="#666666" points="860.41,-126 773.09,-126 773.09,-108 860.41,-108 860.41,-126"/>
<text text-anchor="middle" x="816.75" y="-114" font-family="Helvetica,sans-Serif" font-size="10.00">media_type.hpp</text>
</a>
</g>
</g>
<!-- Node1&#45;&gt;Node21 -->
<g id="edge38_Node000001_Node000021" class="edge">
<title>Node1&#45;&gt;Node21</title>
<g id="a_edge38_Node000001_Node000021"><a xlink:title=" ">
<path fill="none" stroke="#63b8ff" d="M655.13,-323.87C679.98,-292.23 770.53,-176.88 804.11,-134.11"/>
<polygon fill="#63b8ff" stroke="#63b8ff" points="806.94,-136.16 810.36,-126.14 801.44,-131.84 806.94,-136.16"/>
</a>
</g>
</g>
<!-- Node23 -->
<g id="Node000023" class="node">
<title>Node23</title>
<g id="a_Node000023"><a xlink:title=" ">
<polygon fill="#e0e0e0" stroke="#999999" points="802.59,-288 752.91,-288 752.91,-270 802.59,-270 802.59,-288"/>
<text text-anchor="middle" x="777.75" y="-276" font-family="Helvetica,sans-Serif" font-size="10.00">fstream</text>
</a>
</g>
</g>
<!-- Node1&#45;&gt;Node23 -->
<g id="edge43_Node000001_Node000023" class="edge">
<title>Node1&#45;&gt;Node23</title>
<g id="a_edge43_Node000001_Node000023"><a xlink:title=" ">
<path fill="none" stroke="#63b8ff" d="M668.62,-323.99C689.87,-315.43 723.78,-301.76 748.16,-291.93"/>
<polygon fill="#63b8ff" stroke="#63b8ff" points="749.68,-295.09 757.64,-288.11 747.06,-288.6 749.68,-295.09"/>
</a>
</g>
</g>
<!-- Node24 -->
<g id="Node000024" class="node">
<title>Node24</title>
<g id="a_Node000024"><a xlink:title=" ">
<polygon fill="#e0e0e0" stroke="#999999" points="871.31,-288 820.19,-288 820.19,-270 871.31,-270 871.31,-288"/>
<text text-anchor="middle" x="845.75" y="-276" font-family="Helvetica,sans-Serif" font-size="10.00">sstream</text>
</a>
</g>
</g>
<!-- Node1&#45;&gt;Node24 -->
<g id="edge44_Node000001_Node000024" class="edge">
<title>Node1&#45;&gt;Node24</title>
<g id="a_edge44_Node000001_Node000024"><a xlink:title=" ">
<path fill="none" stroke="#63b8ff" d="M679.1,-323.99C714.42,-314.67 772.67,-299.29 810.11,-289.41"/>
<polygon fill="#63b8ff" stroke="#63b8ff" points="811.3,-292.71 820.08,-286.78 809.52,-285.94 811.3,-292.71"/>
</a>
</g>
</g>
<!-- Node3 -->
<g id="Node000003" class="node">
<title>Node3</title>
<g id="a_Node000003"><a xlink:href="navigation_8hpp.html" target="_top" xlink:title=" ">
<polygon fill="white" stroke="#666666" points="253.3,-180 172.2,-180 172.2,-162 253.3,-162 253.3,-180"/>
<text text-anchor="middle" x="212.75" y="-168" font-family="Helvetica,sans-Serif" font-size="10.00">navigation.hpp</text>
</a>
</g>
</g>
<!-- Node2&#45;&gt;Node3 -->
<g id="edge2_Node000002_Node000003" class="edge">
<title>Node2&#45;&gt;Node3</title>
<g id="a_edge2_Node000002_Node000003"><a xlink:title=" ">
<path fill="none" stroke="#63b8ff" d="M534.7,-270.7C495.89,-262.91 434.1,-249.57 381.75,-234 331.8,-219.15 275.22,-197.34 241.84,-183.94"/>
<polygon fill="#63b8ff" stroke="#63b8ff" points="242.84,-180.57 232.26,-180.06 240.22,-187.06 242.84,-180.57"/>
</a>
</g>
</g>
<!-- Node6 -->
<g id="Node000006" class="node">
<title>Node6</title>
<g id="a_Node000006"><a xlink:title=" ">
<polygon fill="#e0e0e0" stroke="#999999" points="249.71,-18 213.79,-18 213.79,0 249.71,0 249.71,-18"/>
<text text-anchor="middle" x="231.75" y="-6" font-family="Helvetica,sans-Serif" font-size="10.00">map</text>
</a>
</g>
</g>
<!-- Node2&#45;&gt;Node6 -->
<g id="edge36_Node000002_Node000006" class="edge">
<title>Node2&#45;&gt;Node6</title>
<g id="a_edge36_Node000002_Node000006"><a xlink:title=" ">
<path fill="none" stroke="#63b8ff" d="M585.26,-269.9C632.23,-238.59 791.67,-123.83 717.75,-54 684.33,-22.42 358.04,-12.76 259.68,-10.55"/>
<polygon fill="#63b8ff" stroke="#63b8ff" points="259.67,-7.05 249.6,-10.33 259.52,-14.05 259.67,-7.05"/>
</a>
</g>
</g>
<!-- Node9 -->
<g id="Node000009" class="node">
<title>Node9</title>
<g id="a_Node000009"><a xlink:title=" ">
<polygon fill="#e0e0e0" stroke="#999999" points="473.21,-72 412.3,-72 412.3,-54 473.21,-54 473.21,-72"/>
<text text-anchor="middle" x="442.75" y="-60" font-family="Helvetica,sans-Serif" font-size="10.00">filesystem</text>
</a>
</g>
</g>
<!-- Node2&#45;&gt;Node9 -->
<g id="edge35_Node000002_Node000009" class="edge">
<title>Node2&#45;&gt;Node9</title>
<g id="a_edge35_Node000002_Node000009"><a xlink:title=" ">
<path fill="none" stroke="#63b8ff" d="M572.95,-269.88C573.16,-243.48 570.47,-158.86 529.75,-108 517.72,-92.98 499.22,-82.62 482.37,-75.75"/>
<polygon fill="#63b8ff" stroke="#63b8ff" points="483.29,-72.35 472.69,-72.1 480.81,-78.9 483.29,-72.35"/>
</a>
</g>
</g>
<!-- Node15 -->
<g id="Node000015" class="node">
<title>Node15</title>
<g id="a_Node000015"><a xlink:href="package_8hpp.html" target="_top" xlink:title=" ">
<polygon fill="white" stroke="#666666" points="464.52,-234 390.98,-234 390.98,-216 464.52,-216 464.52,-234"/>
<text text-anchor="middle" x="427.75" y="-222" font-family="Helvetica,sans-Serif" font-size="10.00">package.hpp</text>
</a>
</g>
</g>
<!-- Node2&#45;&gt;Node15 -->
<g id="edge20_Node000002_Node000015" class="edge">
<title>Node2&#45;&gt;Node15</title>
<g id="a_edge20_Node000002_Node000015"><a xlink:title=" ">
<path fill="none" stroke="#63b8ff" d="M550.41,-269.99C526.22,-261.31 487.4,-247.39 459.92,-237.54"/>
<polygon fill="#63b8ff" stroke="#63b8ff" points="460.95,-234.19 450.35,-234.11 458.59,-240.78 460.95,-234.19"/>
</a>
</g>
</g>
<!-- Node3&#45;&gt;Node4 -->
<g id="edge3_Node000003_Node000004" class="edge">
<title>Node3&#45;&gt;Node4</title>
<g id="a_edge3_Node000003_Node000004"><a xlink:title=" ">
<path fill="none" stroke="#63b8ff" d="M202.13,-161.88C191.81,-153.98 175.92,-141.84 163.48,-132.32"/>
<polygon fill="#63b8ff" stroke="#63b8ff" points="165.6,-129.53 155.53,-126.24 161.34,-135.09 165.6,-129.53"/>
</a>
</g>
</g>
<!-- Node3&#45;&gt;Node9 -->
<g id="edge17_Node000003_Node000009" class="edge">
<title>Node3&#45;&gt;Node9</title>
<g id="a_edge17_Node000003_Node000009"><a xlink:title=" ">
<path fill="none" stroke="#63b8ff" d="M212.33,-161.83C212.11,-148.52 213.77,-122.25 228.75,-108 253.21,-84.73 347.14,-72.54 402.09,-67.28"/>
<polygon fill="#63b8ff" stroke="#63b8ff" points="402.57,-70.75 412.2,-66.35 401.92,-63.78 402.57,-70.75"/>
</a>
</g>
</g>
<!-- Node10 -->
<g id="Node000010" class="node">
<title>Node10</title>
<g id="a_Node000010"><a xlink:title=" ">
<polygon fill="#e0e0e0" stroke="#999999" points="203.86,-72 151.64,-72 151.64,-54 203.86,-54 203.86,-72"/>
<text text-anchor="middle" x="177.75" y="-60" font-family="Helvetica,sans-Serif" font-size="10.00">memory</text>
</a>
</g>
</g>
<!-- Node3&#45;&gt;Node10 -->
<g id="edge18_Node000003_Node000010" class="edge">
<title>Node3&#45;&gt;Node10</title>
<g id="a_edge18_Node000003_Node000010"><a xlink:title=" ">
<path fill="none" stroke="#63b8ff" d="M180.73,-161.98C150.48,-153.68 108.35,-140 98.75,-126 83.71,-104.07 114.63,-86.27 142.09,-75.45"/>
<polygon fill="#63b8ff" stroke="#63b8ff" points="143.42,-78.69 151.57,-71.92 140.98,-72.13 143.42,-78.69"/>
</a>
</g>
</g>
<!-- Node3&#45;&gt;Node13 -->
<g id="edge13_Node000003_Node000013" class="edge">
<title>Node3&#45;&gt;Node13</title>
<g id="a_edge13_Node000003_Node000013"><a xlink:title=" ">
<path fill="none" stroke="#63b8ff" d="M183.94,-161.99C150.93,-152.81 96.82,-137.76 61.24,-127.87"/>
<polygon fill="#63b8ff" stroke="#63b8ff" points="61.86,-124.41 51.29,-125.1 59.98,-131.15 61.86,-124.41"/>
</a>
</g>
</g>
<!-- Node14 -->
<g id="Node000014" class="node">
<title>Node14</title>
<g id="a_Node000014"><a xlink:title=" ">
<polygon fill="#e0e0e0" stroke="#999999" points="281.48,-126 238.02,-126 238.02,-108 281.48,-108 281.48,-126"/>
<text text-anchor="middle" x="259.75" y="-114" font-family="Helvetica,sans-Serif" font-size="10.00">vector</text>
</a>
</g>
</g>
<!-- Node3&#45;&gt;Node14 -->
<g id="edge19_Node000003_Node000014" class="edge">
<title>Node3&#45;&gt;Node14</title>
<g id="a_edge19_Node000003_Node000014"><a xlink:title=" ">
<path fill="none" stroke="#63b8ff" d="M220.09,-161.88C226.88,-154.36 237.16,-142.99 245.55,-133.71"/>
<polygon fill="#63b8ff" stroke="#63b8ff" points="248.19,-136.01 252.3,-126.24 243,-131.31 248.19,-136.01"/>
</a>
</g>
</g>
<!-- Node5 -->
<g id="Node000005" class="node">
<title>Node5</title>
<g id="a_Node000005"><a xlink:href="file__metadata_8hpp.html" target="_top" xlink:title=" ">
<polygon fill="white" stroke="#666666" points="95.25,-72 0.25,-72 0.25,-54 95.25,-54 95.25,-72"/>
<text text-anchor="middle" x="47.75" y="-60" font-family="Helvetica,sans-Serif" font-size="10.00">file_metadata.hpp</text>
</a>
</g>
</g>
<!-- Node4&#45;&gt;Node5 -->
<g id="edge4_Node000004_Node000005" class="edge">
<title>Node4&#45;&gt;Node5</title>
<g id="a_edge4_Node000004_Node000005"><a xlink:title=" ">
<path fill="none" stroke="#63b8ff" d="M129.59,-107.88C114.08,-99.56 89.73,-86.51 71.62,-76.8"/>
<polygon fill="#63b8ff" stroke="#63b8ff" points="73.27,-73.71 62.8,-72.07 69.96,-79.88 73.27,-73.71"/>
</a>
</g>
</g>
<!-- Node4&#45;&gt;Node6 -->
<g id="edge9_Node000004_Node000006" class="edge">
<title>Node4&#45;&gt;Node6</title>
<g id="a_edge9_Node000004_Node000006"><a xlink:title=" ">
<path fill="none" stroke="#63b8ff" d="M164.15,-107.98C179.44,-100.72 200.21,-88.61 212.75,-72 222.41,-59.22 227.2,-41.49 229.55,-28.26"/>
<polygon fill="#63b8ff" stroke="#63b8ff" points="233.06,-28.43 231.05,-18.03 226.14,-27.42 233.06,-28.43"/>
</a>
</g>
</g>
<!-- Node4&#45;&gt;Node9 -->
<g id="edge8_Node000004_Node000009" class="edge">
<title>Node4&#45;&gt;Node9</title>
<g id="a_edge8_Node000004_Node000009"><a xlink:title=" ">
<path fill="none" stroke="#63b8ff" d="M181.59,-109.57C237.71,-99.78 344.2,-81.2 402.36,-71.05"/>
<polygon fill="#63b8ff" stroke="#63b8ff" points="403.05,-74.48 412.3,-69.31 401.84,-67.59 403.05,-74.48"/>
</a>
</g>
</g>
<!-- Node4&#45;&gt;Node10 -->
<g id="edge10_Node000004_Node000010" class="edge">
<title>Node4&#45;&gt;Node10</title>
<g id="a_edge10_Node000004_Node000010"><a xlink:title=" ">
<path fill="none" stroke="#63b8ff" d="M149.91,-107.88C154.48,-100.67 161.31,-89.91 167.06,-80.85"/>
<polygon fill="#63b8ff" stroke="#63b8ff" points="170.12,-82.56 172.52,-72.24 164.21,-78.81 170.12,-82.56"/>
</a>
</g>
</g>
<!-- Node11 -->
<g id="Node000011" class="node">
<title>Node11</title>
<g id="a_Node000011"><a xlink:title=" ">
<polygon fill="#e0e0e0" stroke="#999999" points="327.83,-72 281.67,-72 281.67,-54 327.83,-54 327.83,-72"/>
<text text-anchor="middle" x="304.75" y="-60" font-family="Helvetica,sans-Serif" font-size="10.00">ranges</text>
</a>
</g>
</g>
<!-- Node4&#45;&gt;Node11 -->
<g id="edge11_Node000004_Node000011" class="edge">
<title>Node4&#45;&gt;Node11</title>
<g id="a_edge11_Node000004_Node000011"><a xlink:title=" ">
<path fill="none" stroke="#63b8ff" d="M169.4,-107.99C196.89,-99.06 241.47,-84.57 271.9,-74.68"/>
<polygon fill="#63b8ff" stroke="#63b8ff" points="273.2,-77.93 281.63,-71.51 271.04,-71.28 273.2,-77.93"/>
</a>
</g>
</g>
<!-- Node4&#45;&gt;Node12 -->
<g id="edge12_Node000004_Node000012" class="edge">
<title>Node4&#45;&gt;Node12</title>
<g id="a_edge12_Node000004_Node000012"><a xlink:title=" ">
<path fill="none" stroke="#63b8ff" d="M181.67,-111.57C262.57,-101.85 454.9,-78.75 538.18,-68.75"/>
<polygon fill="#63b8ff" stroke="#63b8ff" points="538.74,-72.21 548.25,-67.54 537.9,-65.26 538.74,-72.21"/>
</a>
</g>
</g>
<!-- Node5&#45;&gt;Node6 -->
<g id="edge5_Node000005_Node000006" class="edge">
<title>Node5&#45;&gt;Node6</title>
<g id="a_edge5_Node000005_Node000006"><a xlink:title=" ">
<path fill="none" stroke="#63b8ff" d="M76.1,-53.99C110.9,-44.15 169.55,-27.58 204.06,-17.83"/>
<polygon fill="#63b8ff" stroke="#63b8ff" points="205.27,-21.12 213.94,-15.03 203.36,-14.39 205.27,-21.12"/>
</a>
</g>
</g>
<!-- Node7 -->
<g id="Node000007" class="node">
<title>Node7</title>
<g id="a_Node000007"><a xlink:title=" ">
<polygon fill="#e0e0e0" stroke="#999999" points="73.28,-18 22.22,-18 22.22,0 73.28,0 73.28,-18"/>
<text text-anchor="middle" x="47.75" y="-6" font-family="Helvetica,sans-Serif" font-size="10.00">optional</text>
</a>
</g>
</g>
<!-- Node5&#45;&gt;Node7 -->
<g id="edge6_Node000005_Node000007" class="edge">
<title>Node5&#45;&gt;Node7</title>
<g id="a_edge6_Node000005_Node000007"><a xlink:title=" ">
<path fill="none" stroke="#63b8ff" d="M47.75,-53.88C47.75,-47.05 47.75,-37.03 47.75,-28.29"/>
<polygon fill="#63b8ff" stroke="#63b8ff" points="51.25,-28.24 47.75,-18.24 44.25,-28.24 51.25,-28.24"/>
</a>
</g>
</g>
<!-- Node8 -->
<g id="Node000008" class="node">
<title>Node8</title>
<g id="a_Node000008"><a xlink:title=" ">
<polygon fill="#e0e0e0" stroke="#999999" points="164.21,-18 123.3,-18 123.3,0 164.21,0 164.21,-18"/>
<text text-anchor="middle" x="143.75" y="-6" font-family="Helvetica,sans-Serif" font-size="10.00">string</text>
</a>
</g>
</g>
<!-- Node5&#45;&gt;Node8 -->
<g id="edge7_Node000005_Node000008" class="edge">
<title>Node5&#45;&gt;Node8</title>
<g id="a_edge7_Node000005_Node000008"><a xlink:title=" ">
<path fill="none" stroke="#63b8ff" d="M62.75,-53.88C77.97,-45.63 101.76,-32.74 119.63,-23.07"/>
<polygon fill="#63b8ff" stroke="#63b8ff" points="121.73,-25.91 128.86,-18.07 118.4,-19.75 121.73,-25.91"/>
</a>
</g>
</g>
<!-- Node13&#45;&gt;Node5 -->
<g id="edge14_Node000013_Node000005" class="edge">
<title>Node13&#45;&gt;Node5</title>
<g id="a_edge14_Node000013_Node000005"><a xlink:title=" ">
<path fill="none" stroke="#63b8ff" d="M29.19,-107.88C32.14,-100.89 36.5,-90.58 40.26,-81.71"/>
<polygon fill="#63b8ff" stroke="#63b8ff" points="43.59,-82.81 44.27,-72.24 37.15,-80.09 43.59,-82.81"/>
</a>
</g>
</g>
<!-- Node13&#45;&gt;Node6 -->
<g id="edge16_Node000013_Node000006" class="edge">
<title>Node13&#45;&gt;Node6</title>
<g id="a_edge16_Node000013_Node000006"><a xlink:title=" ">
<path fill="none" stroke="#63b8ff" d="M40.83,-107.84C63.04,-95.85 105.92,-72.86 142.75,-54 163.85,-43.2 187.97,-31.3 205.77,-22.61"/>
<polygon fill="#63b8ff" stroke="#63b8ff" points="207.49,-25.66 214.95,-18.13 204.43,-19.37 207.49,-25.66"/>
</a>
</g>
</g>
<!-- Node13&#45;&gt;Node9 -->
<g id="edge15_Node000013_Node000009" class="edge">
<title>Node13&#45;&gt;Node9</title>
<g id="a_edge15_Node000013_Node000009"><a xlink:title=" ">
<path fill="none" stroke="#63b8ff" d="M51.52,-112.79C121.84,-104.02 317.4,-79.63 402.42,-69.03"/>
<polygon fill="#63b8ff" stroke="#63b8ff" points="402.98,-72.49 412.47,-67.78 402.11,-65.54 402.98,-72.49"/>
</a>
</g>
</g>
<!-- Node15&#45;&gt;Node4 -->
<g id="edge21_Node000015_Node000004" class="edge">
<title>Node15&#45;&gt;Node4</title>
<g id="a_edge21_Node000015_Node000004"><a xlink:title=" ">
<path fill="none" stroke="#63b8ff" d="M405.33,-215.85C381.38,-207.11 342.31,-192.77 308.75,-180 288.23,-172.19 283.26,-169.84 262.75,-162 233.44,-150.8 199.91,-138.33 176.11,-129.54"/>
<polygon fill="#63b8ff" stroke="#63b8ff" points="177.13,-126.18 166.54,-126.01 174.71,-132.75 177.13,-126.18"/>
</a>
</g>
</g>
<!-- Node15&#45;&gt;Node9 -->
<g id="edge34_Node000015_Node000009" class="edge">
<title>Node15&#45;&gt;Node9</title>
<g id="a_edge34_Node000015_Node000009"><a xlink:title=" ">
<path fill="none" stroke="#63b8ff" d="M439.18,-215.91C459.26,-200.9 500.21,-166.57 515.75,-126 524.43,-103.35 499.51,-86.38 476.46,-75.97"/>
<polygon fill="#63b8ff" stroke="#63b8ff" points="477.71,-72.7 467.14,-72.04 474.99,-79.15 477.71,-72.7"/>
</a>
</g>
</g>
<!-- Node15&#45;&gt;Node13 -->
<g id="edge33_Node000015_Node000013" class="edge">
<title>Node15&#45;&gt;Node13</title>
<g id="a_edge33_Node000015_Node000013"><a xlink:title=" ">
<path fill="none" stroke="#63b8ff" d="M391.06,-220.95C339.27,-215.97 242.18,-204.12 162.75,-180 121.37,-167.44 76.18,-145.17 49.43,-131.02"/>
<polygon fill="#63b8ff" stroke="#63b8ff" points="50.92,-127.85 40.46,-126.21 47.62,-134.02 50.92,-127.85"/>
</a>
</g>
</g>
<!-- Node16 -->
<g id="Node000016" class="node">
<title>Node16</title>
<g id="a_Node000016"><a xlink:href="metadata_8hpp.html" target="_top" xlink:title=" ">
<polygon fill="white" stroke="#666666" points="716.41,-126 639.09,-126 639.09,-108 716.41,-108 716.41,-126"/>
<text text-anchor="middle" x="677.75" y="-114" font-family="Helvetica,sans-Serif" font-size="10.00">metadata.hpp</text>
</a>
</g>
</g>
<!-- Node15&#45;&gt;Node16 -->
<g id="edge22_Node000015_Node000016" class="edge">
<title>Node15&#45;&gt;Node16</title>
<g id="a_edge22_Node000015_Node000016"><a xlink:title=" ">
<path fill="none" stroke="#63b8ff" d="M452.13,-215.93C476.76,-207.59 515.79,-193.87 548.75,-180 585.71,-164.44 627.34,-143.86 653.06,-130.77"/>
<polygon fill="#63b8ff" stroke="#63b8ff" points="654.79,-133.82 662.09,-126.15 651.6,-127.59 654.79,-133.82"/>
</a>
</g>
</g>
<!-- Node18 -->
<g id="Node000018" class="node">
<title>Node18</title>
<g id="a_Node000018"><a xlink:href="spine_8hpp.html" target="_top" xlink:title=" ">
<polygon fill="white" stroke="#666666" points="377.62,-180 317.88,-180 317.88,-162 377.62,-162 377.62,-180"/>
<text text-anchor="middle" x="347.75" y="-168" font-family="Helvetica,sans-Serif" font-size="10.00">spine.hpp</text>
</a>
</g>
</g>
<!-- Node15&#45;&gt;Node18 -->
<g id="edge26_Node000015_Node000018" class="edge">
<title>Node15&#45;&gt;Node18</title>
<g id="a_edge26_Node000015_Node000018"><a xlink:title=" ">
<path fill="none" stroke="#63b8ff" d="M415.25,-215.88C402.8,-207.79 383.47,-195.22 368.68,-185.61"/>
<polygon fill="#63b8ff" stroke="#63b8ff" points="370.46,-182.58 360.16,-180.07 366.64,-188.45 370.46,-182.58"/>
</a>
</g>
</g>
<!-- Node16&#45;&gt;Node8 -->
<g id="edge25_Node000016_Node000008" class="edge">
<title>Node16&#45;&gt;Node8</title>
<g id="a_edge25_Node000016_Node000008"><a xlink:title=" ">
<path fill="none" stroke="#63b8ff" d="M672.44,-107.76C662.97,-93.86 641.69,-66.1 615.75,-54 532.66,-15.25 295.89,-27.96 204.75,-18 194.77,-16.91 183.89,-15.54 174.13,-14.25"/>
<polygon fill="#63b8ff" stroke="#63b8ff" points="174.44,-10.76 164.06,-12.89 173.5,-17.69 174.44,-10.76"/>
</a>
</g>
</g>
<!-- Node16&#45;&gt;Node12 -->
<g id="edge24_Node000016_Node000012" class="edge">
<title>Node16&#45;&gt;Node12</title>
<g id="a_edge24_Node000016_Node000012"><a xlink:title=" ">
<path fill="none" stroke="#63b8ff" d="M662.13,-107.88C646.13,-99.56 621.03,-86.51 602.36,-76.8"/>
<polygon fill="#63b8ff" stroke="#63b8ff" points="603.75,-73.58 593.27,-72.07 600.52,-79.79 603.75,-73.58"/>
</a>
</g>
</g>
<!-- Node17 -->
<g id="Node000017" class="node">
<title>Node17</title>
<g id="a_Node000017"><a xlink:title=" ">
<polygon fill="#e0e0e0" stroke="#999999" points="708.83,-72 662.67,-72 662.67,-54 708.83,-54 708.83,-72"/>
<text text-anchor="middle" x="685.75" y="-60" font-family="Helvetica,sans-Serif" font-size="10.00">chrono</text>
</a>
</g>
</g>
<!-- Node16&#45;&gt;Node17 -->
<g id="edge23_Node000016_Node000017" class="edge">
<title>Node16&#45;&gt;Node17</title>
<g id="a_edge23_Node000016_Node000017"><a xlink:title=" ">
<path fill="none" stroke="#63b8ff" d="M679,-107.88C680.05,-101.05 681.59,-91.03 682.94,-82.29"/>
<polygon fill="#63b8ff" stroke="#63b8ff" points="686.42,-82.66 684.48,-72.24 679.5,-81.59 686.42,-82.66"/>
</a>
</g>
</g>
<!-- Node18&#45;&gt;Node4 -->
<g id="edge27_Node000018_Node000004" class="edge">
<title>Node18&#45;&gt;Node4</title>
<g id="a_edge27_Node000018_Node000004"><a xlink:title=" ">
<path fill="none" stroke="#63b8ff" d="M317.8,-162.33C282.9,-153.39 225.03,-138.56 185.92,-128.55"/>
<polygon fill="#63b8ff" stroke="#63b8ff" points="186.72,-125.14 176.16,-126.05 184.98,-131.92 186.72,-125.14"/>
</a>
</g>
</g>
<!-- Node18&#45;&gt;Node10 -->
<g id="edge30_Node000018_Node000010" class="edge">
<title>Node18&#45;&gt;Node10</title>
<g id="a_edge30_Node000018_Node000010"><a xlink:title=" ">
<path fill="none" stroke="#63b8ff" d="M342.03,-161.65C332.69,-148.57 312.97,-123.18 290.75,-108 267.28,-91.96 237.13,-80.6 213.88,-73.45"/>
<polygon fill="#63b8ff" stroke="#63b8ff" points="214.64,-70.02 204.06,-70.55 212.66,-76.74 214.64,-70.02"/>
</a>
</g>
</g>
<!-- Node18&#45;&gt;Node11 -->
<g id="edge31_Node000018_Node000011" class="edge">
<title>Node18&#45;&gt;Node11</title>
<g id="a_edge31_Node000018_Node000011"><a xlink:title=" ">
<path fill="none" stroke="#63b8ff" d="M344.74,-161.94C340.29,-150.07 331.62,-127.23 323.75,-108 320.16,-99.22 315.99,-89.53 312.48,-81.49"/>
<polygon fill="#63b8ff" stroke="#63b8ff" points="315.57,-79.82 308.35,-72.07 309.17,-82.63 315.57,-79.82"/>
</a>
</g>
</g>
<!-- Node18&#45;&gt;Node14 -->
<g id="edge32_Node000018_Node000014" class="edge">
<title>Node18&#45;&gt;Node14</title>
<g id="a_edge32_Node000018_Node000014"><a xlink:title=" ">
<path fill="none" stroke="#63b8ff" d="M334,-161.88C320.18,-153.71 298.64,-140.98 282.32,-131.33"/>
<polygon fill="#63b8ff" stroke="#63b8ff" points="283.79,-128.14 273.4,-126.07 280.23,-134.17 283.79,-128.14"/>
</a>
</g>
</g>
<!-- Node19 -->
<g id="Node000019" class="node">
<title>Node19</title>
<g id="a_Node000019"><a xlink:title=" ">
<polygon fill="#e0e0e0" stroke="#999999" points="434.06,-126 375.44,-126 375.44,-108 434.06,-108 434.06,-126"/>
<text text-anchor="middle" x="404.75" y="-114" font-family="Helvetica,sans-Serif" font-size="10.00">functional</text>
</a>
</g>
</g>
<!-- Node18&#45;&gt;Node19 -->
<g id="edge28_Node000018_Node000019" class="edge">
<title>Node18&#45;&gt;Node19</title>
<g id="a_edge28_Node000018_Node000019"><a xlink:title=" ">
<path fill="none" stroke="#63b8ff" d="M356.66,-161.88C365.06,-154.21 377.86,-142.53 388.14,-133.15"/>
<polygon fill="#63b8ff" stroke="#63b8ff" points="390.69,-135.56 395.72,-126.24 385.97,-130.39 390.69,-135.56"/>
</a>
</g>
</g>
<!-- Node20 -->
<g id="Node000020" class="node">
<title>Node20</title>
<g id="a_Node000020"><a xlink:title=" ">
<polygon fill="#e0e0e0" stroke="#999999" points="507.1,-126 452.41,-126 452.41,-108 507.1,-108 507.1,-126"/>
<text text-anchor="middle" x="479.75" y="-114" font-family="Helvetica,sans-Serif" font-size="10.00">iostream</text>
</a>
</g>
</g>
<!-- Node18&#45;&gt;Node20 -->
<g id="edge29_Node000018_Node000020" class="edge">
<title>Node18&#45;&gt;Node20</title>
<g id="a_edge29_Node000018_Node000020"><a xlink:title=" ">
<path fill="none" stroke="#63b8ff" d="M368.09,-161.99C389.92,-153.39 424.83,-139.63 449.81,-129.8"/>
<polygon fill="#63b8ff" stroke="#63b8ff" points="451.15,-133.03 459.17,-126.11 448.59,-126.51 451.15,-133.03"/>
</a>
</g>
</g>
<!-- Node21&#45;&gt;Node6 -->
<g id="edge40_Node000021_Node000006" class="edge">
<title>Node21&#45;&gt;Node6</title>
<g id="a_edge40_Node000021_Node000006"><a xlink:title=" ">
<path fill="none" stroke="#63b8ff" d="M811.93,-107.76C803.28,-93.85 783.69,-66.08 758.75,-54 669.44,-10.75 355.19,-9.17 259.57,-9.72"/>
<polygon fill="#63b8ff" stroke="#63b8ff" points="259.49,-6.22 249.51,-9.79 259.54,-13.22 259.49,-6.22"/>
</a>
</g>
</g>
<!-- Node21&#45;&gt;Node9 -->
<g id="edge39_Node000021_Node000009" class="edge">
<title>Node21&#45;&gt;Node9</title>
<g id="a_edge39_Node000021_Node000009"><a xlink:title=" ">
<path fill="none" stroke="#63b8ff" d="M773.12,-109.93C700.17,-99.79 554.49,-79.54 483.51,-69.67"/>
<polygon fill="#63b8ff" stroke="#63b8ff" points="483.57,-66.14 473.19,-68.23 482.61,-73.08 483.57,-66.14"/>
</a>
</g>
</g>
<!-- Node22 -->
<g id="Node000022" class="node">
<title>Node22</title>
<g id="a_Node000022"><a xlink:title=" ">
<polygon fill="#e0e0e0" stroke="#999999" points="876.77,-72 810.73,-72 810.73,-54 876.77,-54 876.77,-72"/>
<text text-anchor="middle" x="843.75" y="-60" font-family="Helvetica,sans-Serif" font-size="10.00">string_view</text>
</a>
</g>
</g>
<!-- Node21&#45;&gt;Node22 -->
<g id="edge41_Node000021_Node000022" class="edge">
<title>Node21&#45;&gt;Node22</title>
<g id="a_edge41_Node000021_Node000022"><a xlink:title=" ">
<path fill="none" stroke="#63b8ff" d="M820.97,-107.88C824.67,-100.74 830.18,-90.13 834.86,-81.13"/>
<polygon fill="#63b8ff" stroke="#63b8ff" points="837.97,-82.73 839.47,-72.24 831.76,-79.5 837.97,-82.73"/>
</a>
</g>
</g>
</g>
</svg>
