<?xml version="1.0" encoding="UTF-8" standalone="no"?>
<!DOCTYPE svg PUBLIC "-//W3C//DTD SVG 1.1//EN"
 "http://www.w3.org/Graphics/SVG/1.1/DTD/svg11.dtd">
<!-- Generated by graphviz version 2.48.0 (20210717.1556)
 -->
<!-- Title: container.cpp Pages: 1 -->
<svg width="910pt" height="296pt"
 viewBox="0.00 0.00 910.29 296.00" xmlns="http://www.w3.org/2000/svg" xmlns:xlink="http://www.w3.org/1999/xlink">
<g id="graph0" class="graph" transform="scale(1 1) rotate(0) translate(4 292)">
<title>container.cpp</title>
<!-- Node1 -->
<g id="Node000001" class="node">
<title>Node1</title>
<g id="a_Node000001"><a xlink:title=" ">
<polygon fill="#999999" stroke="#666666" points="686.11,-288 610.12,-288 610.12,-270 686.11,-270 686.11,-288"/>
<text text-anchor="middle" x="648.11" y="-276" font-family="Helvetica,sans-Serif" font-size="10.00">container.cpp</text>
</a>
</g>
</g>
<!-- Node2 -->
<g id="Node000002" class="node">
<title>Node2</title>
<g id="a_Node000002"><a xlink:href="container_8hpp.html" target="_top" xlink:title=" ">
<polygon fill="white" stroke="#666666" points="686.17,-234 610.06,-234 610.06,-216 686.17,-216 686.17,-234"/>
<text text-anchor="middle" x="648.11" y="-222" font-family="Helvetica,sans-Serif" font-size="10.00">container.hpp</text>
</a>
</g>
</g>
<!-- Node1&#45;&gt;Node2 -->
<g id="edge1_Node000001_Node000002" class="edge">
<title>Node1&#45;&gt;Node2</title>
<g id="a_edge1_Node000001_Node000002"><a xlink:title=" ">
<path fill="none" stroke="#63b8ff" d="M648.11,-269.88C648.11,-263.05 648.11,-253.03 648.11,-244.29"/>
<polygon fill="#63b8ff" stroke="#63b8ff" points="651.61,-244.24 648.11,-234.24 644.61,-244.24 651.61,-244.24"/>
</a>
</g>
</g>
<!-- Node4 -->
<g id="Node000004" class="node">
<title>Node4</title>
<g id="a_Node000004"><a xlink:href="manifest__item_8hpp.html" target="_top" xlink:title=" ">
<polygon fill="white" stroke="#666666" points="481.82,-126 384.4,-126 384.4,-108 481.82,-108 481.82,-126"/>
<text text-anchor="middle" x="433.11" y="-114" font-family="Helvetica,sans-Serif" font-size="10.00">manifest_item.hpp</text>
</a>
</g>
</g>
<!-- Node1&#45;&gt;Node4 -->
<g id="edge26_Node000001_Node000004" class="edge">
<title>Node1&#45;&gt;Node4</title>
<g id="a_edge26_Node000001_Node000004"><a xlink:title=" ">
<path fill="none" stroke="#63b8ff" d="M609.91,-276.23C551.32,-271.22 440.82,-252.16 391.11,-180 379.91,-163.74 396.78,-144.95 412.36,-132.36"/>
<polygon fill="#63b8ff" stroke="#63b8ff" points="414.83,-134.88 420.7,-126.05 410.61,-129.29 414.83,-134.88"/>
</a>
</g>
</g>
<!-- Node17 -->
<g id="Node000017" class="node">
<title>Node17</title>
<g id="a_Node000017"><a xlink:href="xml_8hpp.html" target="_top" xlink:title=" ">
<polygon fill="white" stroke="#666666" points="567.63,-126 516.6,-126 516.6,-108 567.63,-108 567.63,-126"/>
<text text-anchor="middle" x="542.11" y="-114" font-family="Helvetica,sans-Serif" font-size="10.00">xml.hpp</text>
</a>
</g>
</g>
<!-- Node1&#45;&gt;Node17 -->
<g id="edge32_Node000001_Node000017" class="edge">
<title>Node1&#45;&gt;Node17</title>
<g id="a_edge32_Node000001_Node000017"><a xlink:title=" ">
<path fill="none" stroke="#63b8ff" d="M637.39,-269.8C627.14,-261.57 611.72,-248.12 601.11,-234 594.68,-225.44 565.4,-165.9 550.65,-135.62"/>
<polygon fill="#63b8ff" stroke="#63b8ff" points="553.62,-133.72 546.11,-126.25 547.33,-136.78 553.62,-133.72"/>
</a>
</g>
</g>
<!-- Node19 -->
<g id="Node000019" class="node">
<title>Node19</title>
<g id="a_Node000019"><a xlink:href="media__type_8hpp.html" target="_top" xlink:title=" ">
<polygon fill="white" stroke="#666666" points="811.78,-126 724.45,-126 724.45,-108 811.78,-108 811.78,-126"/>
<text text-anchor="middle" x="768.11" y="-114" font-family="Helvetica,sans-Serif" font-size="10.00">media_type.hpp</text>
</a>
</g>
</g>
<!-- Node1&#45;&gt;Node19 -->
<g id="edge27_Node000001_Node000019" class="edge">
<title>Node1&#45;&gt;Node19</title>
<g id="a_edge27_Node000001_Node000019"><a xlink:title=" ">
<path fill="none" stroke="#63b8ff" d="M658.18,-269.9C668.22,-261.53 683.73,-247.79 695.11,-234 721.9,-201.55 746.51,-158.58 759.17,-135.11"/>
<polygon fill="#63b8ff" stroke="#63b8ff" points="762.37,-136.54 763.98,-126.07 756.19,-133.26 762.37,-136.54"/>
</a>
</g>
</g>
<!-- Node22 -->
<g id="Node000022" class="node">
<title>Node22</title>
<g id="a_Node000022"><a xlink:title=" ">
<polygon fill="#e0e0e0" stroke="#999999" points="811.95,-234 762.27,-234 762.27,-216 811.95,-216 811.95,-234"/>
<text text-anchor="middle" x="787.11" y="-222" font-family="Helvetica,sans-Serif" font-size="10.00">fstream</text>
</a>
</g>
</g>
<!-- Node1&#45;&gt;Node22 -->
<g id="edge33_Node000001_Node000022" class="edge">
<title>Node1&#45;&gt;Node22</title>
<g id="a_edge33_Node000001_Node000022"><a xlink:title=" ">
<path fill="none" stroke="#63b8ff" d="M669.53,-269.99C692.62,-261.35 729.61,-247.51 755.93,-237.67"/>
<polygon fill="#63b8ff" stroke="#63b8ff" points="757.31,-240.89 765.45,-234.11 754.85,-234.33 757.31,-240.89"/>
</a>
</g>
</g>
<!-- Node3 -->
<g id="Node000003" class="node">
<title>Node3</title>
<g id="a_Node000003"><a xlink:href="package_8hpp.html" target="_top" xlink:title=" ">
<polygon fill="white" stroke="#666666" points="553.88,-180 480.34,-180 480.34,-162 553.88,-162 553.88,-180"/>
<text text-anchor="middle" x="517.11" y="-168" font-family="Helvetica,sans-Serif" font-size="10.00">package.hpp</text>
</a>
</g>
</g>
<!-- Node2&#45;&gt;Node3 -->
<g id="edge2_Node000002_Node000003" class="edge">
<title>Node2&#45;&gt;Node3</title>
<g id="a_edge2_Node000002_Node000003"><a xlink:title=" ">
<path fill="none" stroke="#63b8ff" d="M627.93,-215.99C606.26,-207.39 571.61,-193.63 546.83,-183.8"/>
<polygon fill="#63b8ff" stroke="#63b8ff" points="548.12,-180.54 537.53,-180.11 545.54,-187.05 548.12,-180.54"/>
</a>
</g>
</g>
<!-- Node6 -->
<g id="Node000006" class="node">
<title>Node6</title>
<g id="a_Node000006"><a xlink:title=" ">
<polygon fill="#e0e0e0" stroke="#999999" points="619.07,-18 583.16,-18 583.16,0 619.07,0 619.07,-18"/>
<text text-anchor="middle" x="601.11" y="-6" font-family="Helvetica,sans-Serif" font-size="10.00">map</text>
</a>
</g>
</g>
<!-- Node2&#45;&gt;Node6 -->
<g id="edge24_Node000002_Node000006" class="edge">
<title>Node2&#45;&gt;Node6</title>
<g id="a_edge24_Node000002_Node000006"><a xlink:title=" ">
<path fill="none" stroke="#63b8ff" d="M646.33,-215.87C639.48,-184.69 614.78,-72.24 605.07,-28.03"/>
<polygon fill="#63b8ff" stroke="#63b8ff" points="608.46,-27.15 602.9,-18.14 601.63,-28.65 608.46,-27.15"/>
</a>
</g>
</g>
<!-- Node9 -->
<g id="Node000009" class="node">
<title>Node9</title>
<g id="a_Node000009"><a xlink:title=" ">
<polygon fill="#e0e0e0" stroke="#999999" points="708.57,-72 647.66,-72 647.66,-54 708.57,-54 708.57,-72"/>
<text text-anchor="middle" x="678.11" y="-60" font-family="Helvetica,sans-Serif" font-size="10.00">filesystem</text>
</a>
</g>
</g>
<!-- Node2&#45;&gt;Node9 -->
<g id="edge23_Node000002_Node000009" class="edge">
<title>Node2&#45;&gt;Node9</title>
<g id="a_edge23_Node000002_Node000009"><a xlink:title=" ">
<path fill="none" stroke="#63b8ff" d="M649.64,-215.85C654.26,-191.24 668.12,-117.32 674.64,-82.51"/>
<polygon fill="#63b8ff" stroke="#63b8ff" points="678.15,-82.8 676.55,-72.33 671.27,-81.51 678.15,-82.8"/>
</a>
</g>
</g>
<!-- Node18 -->
<g id="Node000018" class="node">
<title>Node18</title>
<g id="a_Node000018"><a xlink:title=" ">
<polygon fill="#e0e0e0" stroke="#999999" points="462.25,-180 399.98,-180 399.98,-162 462.25,-162 462.25,-180"/>
<text text-anchor="middle" x="431.11" y="-168" font-family="Helvetica,sans-Serif" font-size="10.00">type_traits</text>
</a>
</g>
</g>
<!-- Node2&#45;&gt;Node18 -->
<g id="edge25_Node000002_Node000018" class="edge">
<title>Node2&#45;&gt;Node18</title>
<g id="a_edge25_Node000002_Node000018"><a xlink:title=" ">
<path fill="none" stroke="#63b8ff" d="M614.68,-215.99C576.35,-206.8 513.5,-191.74 472.21,-181.85"/>
<polygon fill="#63b8ff" stroke="#63b8ff" points="473.01,-178.44 462.47,-179.51 471.38,-185.25 473.01,-178.44"/>
</a>
</g>
</g>
<!-- Node3&#45;&gt;Node4 -->
<g id="edge3_Node000003_Node000004" class="edge">
<title>Node3&#45;&gt;Node4</title>
<g id="a_edge3_Node000003_Node000004"><a xlink:title=" ">
<path fill="none" stroke="#63b8ff" d="M503.99,-161.88C490.8,-153.71 470.24,-140.98 454.65,-131.33"/>
<polygon fill="#63b8ff" stroke="#63b8ff" points="456.49,-128.36 446.15,-126.07 452.81,-134.31 456.49,-128.36"/>
</a>
</g>
</g>
<!-- Node3&#45;&gt;Node9 -->
<g id="edge22_Node000003_Node000009" class="edge">
<title>Node3&#45;&gt;Node9</title>
<g id="a_edge22_Node000003_Node000009"><a xlink:title=" ">
<path fill="none" stroke="#63b8ff" d="M529.48,-161.86C556.94,-143.78 623.26,-100.12 657.25,-77.73"/>
<polygon fill="#63b8ff" stroke="#63b8ff" points="659.5,-80.45 665.93,-72.02 655.65,-74.6 659.5,-80.45"/>
</a>
</g>
</g>
<!-- Node13 -->
<g id="Node000013" class="node">
<title>Node13</title>
<g id="a_Node000013"><a xlink:href="metadata_8hpp.html" target="_top" xlink:title=" ">
<polygon fill="white" stroke="#666666" points="191.77,-126 114.46,-126 114.46,-108 191.77,-108 191.77,-126"/>
<text text-anchor="middle" x="153.11" y="-114" font-family="Helvetica,sans-Serif" font-size="10.00">metadata.hpp</text>
</a>
</g>
</g>
<!-- Node3&#45;&gt;Node13 -->
<g id="edge13_Node000003_Node000013" class="edge">
<title>Node3&#45;&gt;Node13</title>
<g id="a_edge13_Node000003_Node000013"><a xlink:title=" ">
<path fill="none" stroke="#63b8ff" d="M480.47,-163.51C477.31,-162.99 474.16,-162.48 471.11,-162 375.91,-147.14 264.27,-132.28 201.81,-124.2"/>
<polygon fill="#63b8ff" stroke="#63b8ff" points="202.21,-120.73 191.85,-122.92 201.32,-127.67 202.21,-120.73"/>
</a>
</g>
</g>
<!-- Node3&#45;&gt;Node17 -->
<g id="edge19_Node000003_Node000017" class="edge">
<title>Node3&#45;&gt;Node17</title>
<g id="a_edge19_Node000003_Node000017"><a xlink:title=" ">
<path fill="none" stroke="#63b8ff" d="M521.02,-161.88C524.41,-154.82 529.44,-144.36 533.74,-135.42"/>
<polygon fill="#63b8ff" stroke="#63b8ff" points="536.97,-136.77 538.15,-126.24 530.66,-133.74 536.97,-136.77"/>
</a>
</g>
</g>
<!-- Node5 -->
<g id="Node000005" class="node">
<title>Node5</title>
<g id="a_Node000005"><a xlink:href="file__metadata_8hpp.html" target="_top" xlink:title=" ">
<polygon fill="white" stroke="#666666" points="553.62,-72 458.61,-72 458.61,-54 553.62,-54 553.62,-72"/>
<text text-anchor="middle" x="506.11" y="-60" font-family="Helvetica,sans-Serif" font-size="10.00">file_metadata.hpp</text>
</a>
</g>
</g>
<!-- Node4&#45;&gt;Node5 -->
<g id="edge4_Node000004_Node000005" class="edge">
<title>Node4&#45;&gt;Node5</title>
<g id="a_edge4_Node000004_Node000005"><a xlink:title=" ">
<path fill="none" stroke="#63b8ff" d="M444.52,-107.88C455.7,-99.91 472.98,-87.6 486.39,-78.05"/>
<polygon fill="#63b8ff" stroke="#63b8ff" points="488.43,-80.89 494.55,-72.24 484.37,-75.19 488.43,-80.89"/>
</a>
</g>
</g>
<!-- Node4&#45;&gt;Node6 -->
<g id="edge9_Node000004_Node000006" class="edge">
<title>Node4&#45;&gt;Node6</title>
<g id="a_edge9_Node000004_Node000006"><a xlink:title=" ">
<path fill="none" stroke="#63b8ff" d="M481.48,-107.97C507.79,-101.68 539.65,-90.73 563.11,-72 577.74,-60.33 588.17,-41.39 594.35,-27.51"/>
<polygon fill="#63b8ff" stroke="#63b8ff" points="597.66,-28.66 598.26,-18.09 591.2,-25.98 597.66,-28.66"/>
</a>
</g>
</g>
<!-- Node4&#45;&gt;Node9 -->
<g id="edge8_Node000004_Node000009" class="edge">
<title>Node4&#45;&gt;Node9</title>
<g id="a_edge8_Node000004_Node000009"><a xlink:title=" ">
<path fill="none" stroke="#63b8ff" d="M470.86,-107.99C516.03,-98.4 591.37,-82.41 637.69,-72.58"/>
<polygon fill="#63b8ff" stroke="#63b8ff" points="638.63,-75.96 647.68,-70.46 637.17,-69.11 638.63,-75.96"/>
</a>
</g>
</g>
<!-- Node10 -->
<g id="Node000010" class="node">
<title>Node10</title>
<g id="a_Node000010"><a xlink:title=" ">
<polygon fill="#e0e0e0" stroke="#999999" points="376.23,-72 324,-72 324,-54 376.23,-54 376.23,-72"/>
<text text-anchor="middle" x="350.11" y="-60" font-family="Helvetica,sans-Serif" font-size="10.00">memory</text>
</a>
</g>
</g>
<!-- Node4&#45;&gt;Node10 -->
<g id="edge10_Node000004_Node000010" class="edge">
<title>Node4&#45;&gt;Node10</title>
<g id="a_edge10_Node000004_Node000010"><a xlink:title=" ">
<path fill="none" stroke="#63b8ff" d="M420.14,-107.88C407.23,-99.79 387.18,-87.22 371.83,-77.61"/>
<polygon fill="#63b8ff" stroke="#63b8ff" points="373.32,-74.41 362.99,-72.07 369.61,-80.34 373.32,-74.41"/>
</a>
</g>
</g>
<!-- Node11 -->
<g id="Node000011" class="node">
<title>Node11</title>
<g id="a_Node000011"><a xlink:title=" ">
<polygon fill="#e0e0e0" stroke="#999999" points="440.19,-72 394.04,-72 394.04,-54 440.19,-54 440.19,-72"/>
<text text-anchor="middle" x="417.11" y="-60" font-family="Helvetica,sans-Serif" font-size="10.00">ranges</text>
</a>
</g>
</g>
<!-- Node4&#45;&gt;Node11 -->
<g id="edge11_Node000004_Node000011" class="edge">
<title>Node4&#45;&gt;Node11</title>
<g id="a_edge11_Node000004_Node000011"><a xlink:title=" ">
<path fill="none" stroke="#63b8ff" d="M430.61,-107.88C428.49,-100.97 425.36,-90.81 422.65,-82"/>
<polygon fill="#63b8ff" stroke="#63b8ff" points="425.93,-80.77 419.65,-72.24 419.24,-82.83 425.93,-80.77"/>
</a>
</g>
</g>
<!-- Node12 -->
<g id="Node000012" class="node">
<title>Node12</title>
<g id="a_Node000012"><a xlink:title=" ">
<polygon fill="#e0e0e0" stroke="#999999" points="306.42,-72 247.81,-72 247.81,-54 306.42,-54 306.42,-72"/>
<text text-anchor="middle" x="277.11" y="-60" font-family="Helvetica,sans-Serif" font-size="10.00">stdexcept</text>
</a>
</g>
</g>
<!-- Node4&#45;&gt;Node12 -->
<g id="edge12_Node000004_Node000012" class="edge">
<title>Node4&#45;&gt;Node12</title>
<g id="a_edge12_Node000004_Node000012"><a xlink:title=" ">
<path fill="none" stroke="#63b8ff" d="M409.08,-107.99C382.74,-99.21 340.3,-85.06 310.68,-75.19"/>
<polygon fill="#63b8ff" stroke="#63b8ff" points="311.77,-71.86 301.17,-72.02 309.55,-78.5 311.77,-71.86"/>
</a>
</g>
</g>
<!-- Node5&#45;&gt;Node6 -->
<g id="edge5_Node000005_Node000006" class="edge">
<title>Node5&#45;&gt;Node6</title>
<g id="a_edge5_Node000005_Node000006"><a xlink:title=" ">
<path fill="none" stroke="#63b8ff" d="M520.96,-53.88C536.02,-45.63 559.56,-32.74 577.24,-23.07"/>
<polygon fill="#63b8ff" stroke="#63b8ff" points="579.28,-25.94 586.37,-18.07 575.92,-19.8 579.28,-25.94"/>
</a>
</g>
</g>
<!-- Node7 -->
<g id="Node000007" class="node">
<title>Node7</title>
<g id="a_Node000007"><a xlink:title=" ">
<polygon fill="#e0e0e0" stroke="#999999" points="531.64,-18 480.58,-18 480.58,0 531.64,0 531.64,-18"/>
<text text-anchor="middle" x="506.11" y="-6" font-family="Helvetica,sans-Serif" font-size="10.00">optional</text>
</a>
</g>
</g>
<!-- Node5&#45;&gt;Node7 -->
<g id="edge6_Node000005_Node000007" class="edge">
<title>Node5&#45;&gt;Node7</title>
<g id="a_edge6_Node000005_Node000007"><a xlink:title=" ">
<path fill="none" stroke="#63b8ff" d="M506.11,-53.88C506.11,-47.05 506.11,-37.03 506.11,-28.29"/>
<polygon fill="#63b8ff" stroke="#63b8ff" points="509.61,-28.24 506.11,-18.24 502.61,-28.24 509.61,-28.24"/>
</a>
</g>
</g>
<!-- Node8 -->
<g id="Node000008" class="node">
<title>Node8</title>
<g id="a_Node000008"><a xlink:title=" ">
<polygon fill="#e0e0e0" stroke="#999999" points="235.57,-18 194.66,-18 194.66,0 235.57,0 235.57,-18"/>
<text text-anchor="middle" x="215.11" y="-6" font-family="Helvetica,sans-Serif" font-size="10.00">string</text>
</a>
</g>
</g>
<!-- Node5&#45;&gt;Node8 -->
<g id="edge7_Node000005_Node000008" class="edge">
<title>Node5&#45;&gt;Node8</title>
<g id="a_edge7_Node000005_Node000008"><a xlink:title=" ">
<path fill="none" stroke="#63b8ff" d="M461.28,-53.99C401.45,-43.3 297.06,-24.64 245.59,-15.45"/>
<polygon fill="#63b8ff" stroke="#63b8ff" points="245.9,-11.95 235.44,-13.63 244.67,-18.84 245.9,-11.95"/>
</a>
</g>
</g>
<!-- Node13&#45;&gt;Node8 -->
<g id="edge17_Node000013_Node000008" class="edge">
<title>Node13&#45;&gt;Node8</title>
<g id="a_edge17_Node000013_Node000008"><a xlink:title=" ">
<path fill="none" stroke="#63b8ff" d="M114.34,-113.08C61.23,-107.6 -24.19,-92.61 7.11,-54 29.13,-26.84 132.47,-15.78 184.71,-11.87"/>
<polygon fill="#63b8ff" stroke="#63b8ff" points="185.01,-15.36 194.74,-11.16 184.52,-8.37 185.01,-15.36"/>
</a>
</g>
</g>
<!-- Node13&#45;&gt;Node12 -->
<g id="edge16_Node000013_Node000012" class="edge">
<title>Node13&#45;&gt;Node12</title>
<g id="a_edge16_Node000013_Node000012"><a xlink:title=" ">
<path fill="none" stroke="#63b8ff" d="M172.22,-107.99C192.55,-99.46 224.95,-85.88 248.36,-76.06"/>
<polygon fill="#63b8ff" stroke="#63b8ff" points="249.92,-79.2 257.78,-72.11 247.21,-72.75 249.92,-79.2"/>
</a>
</g>
</g>
<!-- Node14 -->
<g id="Node000014" class="node">
<title>Node14</title>
<g id="a_Node000014"><a xlink:title=" ">
<polygon fill="#e0e0e0" stroke="#999999" points="72.19,-72 16.04,-72 16.04,-54 72.19,-54 72.19,-72"/>
<text text-anchor="middle" x="44.11" y="-60" font-family="Helvetica,sans-Serif" font-size="10.00">charconv</text>
</a>
</g>
</g>
<!-- Node13&#45;&gt;Node14 -->
<g id="edge14_Node000013_Node000014" class="edge">
<title>Node13&#45;&gt;Node14</title>
<g id="a_edge14_Node000013_Node000014"><a xlink:title=" ">
<path fill="none" stroke="#63b8ff" d="M136.08,-107.88C118.4,-99.44 90.53,-86.15 70.1,-76.4"/>
<polygon fill="#63b8ff" stroke="#63b8ff" points="71.56,-73.21 61.03,-72.07 68.54,-79.53 71.56,-73.21"/>
</a>
</g>
</g>
<!-- Node15 -->
<g id="Node000015" class="node">
<title>Node15</title>
<g id="a_Node000015"><a xlink:title=" ">
<polygon fill="#e0e0e0" stroke="#999999" points="137.19,-72 91.04,-72 91.04,-54 137.19,-54 137.19,-72"/>
<text text-anchor="middle" x="114.11" y="-60" font-family="Helvetica,sans-Serif" font-size="10.00">chrono</text>
</a>
</g>
</g>
<!-- Node13&#45;&gt;Node15 -->
<g id="edge15_Node000013_Node000015" class="edge">
<title>Node13&#45;&gt;Node15</title>
<g id="a_edge15_Node000013_Node000015"><a xlink:title=" ">
<path fill="none" stroke="#63b8ff" d="M147.02,-107.88C141.5,-100.52 133.2,-89.45 126.32,-80.28"/>
<polygon fill="#63b8ff" stroke="#63b8ff" points="129.09,-78.14 120.29,-72.24 123.49,-82.34 129.09,-78.14"/>
</a>
</g>
</g>
<!-- Node16 -->
<g id="Node000016" class="node">
<title>Node16</title>
<g id="a_Node000016"><a xlink:title=" ">
<polygon fill="#e0e0e0" stroke="#999999" points="229.46,-72 154.77,-72 154.77,-54 229.46,-54 229.46,-72"/>
<text text-anchor="middle" x="192.11" y="-60" font-family="Helvetica,sans-Serif" font-size="10.00">system_error</text>
</a>
</g>
</g>
<!-- Node13&#45;&gt;Node16 -->
<g id="edge18_Node000013_Node000016" class="edge">
<title>Node13&#45;&gt;Node16</title>
<g id="a_edge18_Node000013_Node000016"><a xlink:title=" ">
<path fill="none" stroke="#63b8ff" d="M159.21,-107.88C164.73,-100.52 173.02,-89.45 179.91,-80.28"/>
<polygon fill="#63b8ff" stroke="#63b8ff" points="182.73,-82.34 185.93,-72.24 177.13,-78.14 182.73,-82.34"/>
</a>
</g>
</g>
<!-- Node17&#45;&gt;Node5 -->
<g id="edge20_Node000017_Node000005" class="edge">
<title>Node17&#45;&gt;Node5</title>
<g id="a_edge20_Node000017_Node000005"><a xlink:title=" ">
<path fill="none" stroke="#63b8ff" d="M536.49,-107.88C531.45,-100.59 523.89,-89.68 517.58,-80.56"/>
<polygon fill="#63b8ff" stroke="#63b8ff" points="520.39,-78.47 511.82,-72.24 514.63,-82.45 520.39,-78.47"/>
</a>
</g>
</g>
<!-- Node17&#45;&gt;Node9 -->
<g id="edge21_Node000017_Node000009" class="edge">
<title>Node17&#45;&gt;Node9</title>
<g id="a_edge21_Node000017_Node000009"><a xlink:title=" ">
<path fill="none" stroke="#63b8ff" d="M563.07,-107.99C585.56,-99.39 621.53,-85.63 647.26,-75.8"/>
<polygon fill="#63b8ff" stroke="#63b8ff" points="648.82,-78.95 656.91,-72.11 646.32,-72.41 648.82,-78.95"/>
</a>
</g>
</g>
<!-- Node19&#45;&gt;Node6 -->
<g id="edge30_Node000019_Node000006" class="edge">
<title>Node19&#45;&gt;Node6</title>
<g id="a_edge30_Node000019_Node000006"><a xlink:title=" ">
<path fill="none" stroke="#63b8ff" d="M763.22,-107.59C755.18,-94.44 737.95,-68.95 717.11,-54 690.17,-34.66 653.66,-22.67 628.85,-16.18"/>
<polygon fill="#63b8ff" stroke="#63b8ff" points="629.54,-12.74 618.99,-13.73 627.86,-19.54 629.54,-12.74"/>
</a>
</g>
</g>
<!-- Node19&#45;&gt;Node9 -->
<g id="edge28_Node000019_Node000009" class="edge">
<title>Node19&#45;&gt;Node9</title>
<g id="a_edge28_Node000019_Node000009"><a xlink:title=" ">
<path fill="none" stroke="#63b8ff" d="M754.05,-107.88C739.92,-99.71 717.89,-86.98 701.19,-77.33"/>
<polygon fill="#63b8ff" stroke="#63b8ff" points="702.49,-74.04 692.08,-72.07 698.98,-80.1 702.49,-74.04"/>
</a>
</g>
</g>
<!-- Node20 -->
<g id="Node000020" class="node">
<title>Node20</title>
<g id="a_Node000020"><a xlink:title=" ">
<polygon fill="#e0e0e0" stroke="#999999" points="902.46,-72 847.77,-72 847.77,-54 902.46,-54 902.46,-72"/>
<text text-anchor="middle" x="875.11" y="-60" font-family="Helvetica,sans-Serif" font-size="10.00">iostream</text>
</a>
</g>
</g>
<!-- Node19&#45;&gt;Node20 -->
<g id="edge29_Node000019_Node000020" class="edge">
<title>Node19&#45;&gt;Node20</title>
<g id="a_edge29_Node000019_Node000020"><a xlink:title=" ">
<path fill="none" stroke="#63b8ff" d="M784.83,-107.88C802.11,-99.48 829.3,-86.27 849.33,-76.53"/>
<polygon fill="#63b8ff" stroke="#63b8ff" points="851.05,-79.59 858.51,-72.07 847.99,-73.29 851.05,-79.59"/>
</a>
</g>
</g>
<!-- Node21 -->
<g id="Node000021" class="node">
<title>Node21</title>
<g id="a_Node000021"><a xlink:title=" ">
<polygon fill="#e0e0e0" stroke="#999999" points="830.13,-72 764.09,-72 764.09,-54 830.13,-54 830.13,-72"/>
<text text-anchor="middle" x="797.11" y="-60" font-family="Helvetica,sans-Serif" font-size="10.00">string_view</text>
</a>
</g>
</g>
<!-- Node19&#45;&gt;Node21 -->
<g id="edge31_Node000019_Node000021" class="edge">
<title>Node19&#45;&gt;Node21</title>
<g id="a_edge31_Node000019_Node000021"><a xlink:title=" ">
<path fill="none" stroke="#63b8ff" d="M772.64,-107.88C776.62,-100.74 782.54,-90.13 787.56,-81.13"/>
<polygon fill="#63b8ff" stroke="#63b8ff" points="790.7,-82.68 792.52,-72.24 784.59,-79.27 790.7,-82.68"/>
</a>
</g>
</g>
</g>
</svg>
