<?xml version="1.0" encoding="UTF-8" standalone="no"?>
<!DOCTYPE svg PUBLIC "-//W3C//DTD SVG 1.1//EN"
 "http://www.w3.org/Graphics/SVG/1.1/DTD/svg11.dtd">
<!-- Generated by graphviz version 2.48.0 (20210717.1556)
 -->
<!-- Title: epub_options.hpp Pages: 1 -->
<svg width="150pt" height="80pt"
 viewBox="0.00 0.00 149.58 80.00" xmlns="http://www.w3.org/2000/svg" xmlns:xlink="http://www.w3.org/1999/xlink">
<g id="graph0" class="graph" transform="scale(1 1) rotate(0) translate(4 76)">
<title>epub_options.hpp</title>
<!-- Node1 -->
<g id="Node000001" class="node">
<title>Node1</title>
<g id="a_Node000001"><a xlink:title=" ">
<polygon fill="#999999" stroke="#666666" points="118.59,-72 23.56,-72 23.56,-54 118.59,-54 118.59,-72"/>
<text text-anchor="middle" x="71.08" y="-60" font-family="Helvetica,sans-Serif" font-size="10.00">epub_options.hpp</text>
</a>
</g>
</g>
<!-- Node2 -->
<g id="Node000002" class="node">
<title>Node2</title>
<g id="a_Node000002"><a xlink:href="binder_8cpp.html" target="_top" xlink:title=" ">
<polygon fill="white" stroke="#666666" points="62.23,-18 -0.08,-18 -0.08,0 62.23,0 62.23,-18"/>
<text text-anchor="middle" x="31.08" y="-6" font-family="Helvetica,sans-Serif" font-size="10.00">binder.cpp</text>
</a>
</g>
</g>
<!-- Node1&#45;&gt;Node2 -->
<g id="edge1_Node000001_Node000002" class="edge">
<title>Node1&#45;&gt;Node2</title>
<g id="a_edge1_Node000001_Node000002"><a xlink:title=" ">
<path fill="none" stroke="#63b8ff" d="M58.67,-45.87C51.62,-36.71 43.11,-25.64 37.41,-18.24"/>
<polygon fill="#63b8ff" stroke="#63b8ff" points="55.95,-48.08 64.83,-53.88 61.5,-43.81 55.95,-48.08"/>
</a>
</g>
</g>
<!-- Node3 -->
<g id="Node000003" class="node">
<title>Node3</title>
<g id="a_Node000003"><a xlink:href="comic_8cpp.html" target="_top" xlink:title=" ">
<polygon fill="white" stroke="#666666" points="141.59,-18 80.56,-18 80.56,0 141.59,0 141.59,-18"/>
<text text-anchor="middle" x="111.08" y="-6" font-family="Helvetica,sans-Serif" font-size="10.00">comic.cpp</text>
</a>
</g>
</g>
<!-- Node1&#45;&gt;Node3 -->
<g id="edge2_Node000001_Node000003" class="edge">
<title>Node1&#45;&gt;Node3</title>
<g id="a_edge2_Node000001_Node000003"><a xlink:title=" ">
<path fill="none" stroke="#63b8ff" d="M83.49,-45.87C90.53,-36.71 99.05,-25.64 104.74,-18.24"/>
<polygon fill="#63b8ff" stroke="#63b8ff" points="80.65,-43.81 77.33,-53.88 86.2,-48.08 80.65,-43.81"/>
</a>
</g>
</g>
</g>
</svg>
