<?xml version="1.0" encoding="UTF-8" standalone="no"?>
<!DOCTYPE svg PUBLIC "-//W3C//DTD SVG 1.1//EN"
 "http://www.w3.org/Graphics/SVG/1.1/DTD/svg11.dtd">
<!-- Generated by graphviz version 2.48.0 (20210717.1556)
 -->
<!-- Title: epub_options.hpp Pages: 1 -->
<svg width="1240pt" height="134pt"
 viewBox="0.00 0.00 1240.40 134.00" xmlns="http://www.w3.org/2000/svg" xmlns:xlink="http://www.w3.org/1999/xlink">
<g id="graph0" class="graph" transform="scale(1 1) rotate(0) translate(4 130)">
<title>epub_options.hpp</title>
<!-- Node1 -->
<g id="Node000001" class="node">
<title>Node1</title>
<g id="a_Node000001"><a xlink:title=" ">
<polygon fill="#999999" stroke="#666666" points="796.81,-126 701.77,-126 701.77,-108 796.81,-108 796.81,-126"/>
<text text-anchor="middle" x="749.29" y="-114" font-family="Helvetica,sans-Serif" font-size="10.00">epub_options.hpp</text>
</a>
</g>
</g>
<!-- Node2 -->
<g id="Node000002" class="node">
<title>Node2</title>
<g id="a_Node000002"><a xlink:href="metadata_8hpp.html" target="_top" xlink:title=" ">
<polygon fill="white" stroke="#666666" points="257.95,-72 180.63,-72 180.63,-54 257.95,-54 257.95,-72"/>
<text text-anchor="middle" x="219.29" y="-60" font-family="Helvetica,sans-Serif" font-size="10.00">metadata.hpp</text>
</a>
</g>
</g>
<!-- Node1&#45;&gt;Node2 -->
<g id="edge1_Node000001_Node000002" class="edge">
<title>Node1&#45;&gt;Node2</title>
<g id="a_edge1_Node000001_Node000002"><a xlink:title=" ">
<path fill="none" stroke="#63b8ff" d="M701.32,-111.29C600.91,-101.44 369.53,-78.74 268.26,-68.8"/>
<polygon fill="#63b8ff" stroke="#63b8ff" points="268.3,-65.29 258.01,-67.8 267.62,-72.26 268.3,-65.29"/>
</a>
</g>
</g>
<!-- Node6 -->
<g id="Node000006" class="node">
<title>Node6</title>
<g id="a_Node000006"><a xlink:title=" ">
<polygon fill="#e0e0e0" stroke="#999999" points="349.74,-18 308.83,-18 308.83,0 349.74,0 349.74,-18"/>
<text text-anchor="middle" x="329.29" y="-6" font-family="Helvetica,sans-Serif" font-size="10.00">string</text>
</a>
</g>
</g>
<!-- Node1&#45;&gt;Node6 -->
<g id="edge27_Node000001_Node000006" class="edge">
<title>Node1&#45;&gt;Node6</title>
<g id="a_edge27_Node000001_Node000006"><a xlink:title=" ">
<path fill="none" stroke="#63b8ff" d="M716.63,-107.96C649.59,-91.43 491.58,-52.26 359.29,-18 359.19,-17.97 359.09,-17.95 358.99,-17.92"/>
<polygon fill="#63b8ff" stroke="#63b8ff" points="360.17,-14.61 349.61,-15.46 358.4,-21.39 360.17,-14.61"/>
</a>
</g>
</g>
<!-- Node8 -->
<g id="Node000008" class="node">
<title>Node8</title>
<g id="a_Node000008"><a xlink:href="options_8hpp.html" target="_top" xlink:title=" ">
<polygon fill="white" stroke="#666666" points="701,-72 633.58,-72 633.58,-54 701,-54 701,-72"/>
<text text-anchor="middle" x="667.29" y="-60" font-family="Helvetica,sans-Serif" font-size="10.00">options.hpp</text>
</a>
</g>
</g>
<!-- Node1&#45;&gt;Node8 -->
<g id="edge7_Node000001_Node000008" class="edge">
<title>Node1&#45;&gt;Node8</title>
<g id="a_edge7_Node000001_Node000008"><a xlink:title=" ">
<path fill="none" stroke="#63b8ff" d="M736.48,-107.88C723.72,-99.79 703.9,-87.22 688.74,-77.61"/>
<polygon fill="#63b8ff" stroke="#63b8ff" points="690.33,-74.47 680.01,-72.07 686.58,-80.38 690.33,-74.47"/>
</a>
</g>
</g>
<!-- Node22 -->
<g id="Node000022" class="node">
<title>Node22</title>
<g id="a_Node000022"><a xlink:title=" ">
<polygon fill="#e0e0e0" stroke="#999999" points="779.74,-72 718.83,-72 718.83,-54 779.74,-54 779.74,-72"/>
<text text-anchor="middle" x="749.29" y="-60" font-family="Helvetica,sans-Serif" font-size="10.00">filesystem</text>
</a>
</g>
</g>
<!-- Node1&#45;&gt;Node22 -->
<g id="edge23_Node000001_Node000022" class="edge">
<title>Node1&#45;&gt;Node22</title>
<g id="a_edge23_Node000001_Node000022"><a xlink:title=" ">
<path fill="none" stroke="#63b8ff" d="M749.29,-107.88C749.29,-101.05 749.29,-91.03 749.29,-82.29"/>
<polygon fill="#63b8ff" stroke="#63b8ff" points="752.79,-82.24 749.29,-72.24 745.79,-82.24 752.79,-82.24"/>
</a>
</g>
</g>
<!-- Node23 -->
<g id="Node000023" class="node">
<title>Node23</title>
<g id="a_Node000023"><a xlink:title=" ">
<polygon fill="#e0e0e0" stroke="#999999" points="847.13,-72 797.45,-72 797.45,-54 847.13,-54 847.13,-72"/>
<text text-anchor="middle" x="822.29" y="-60" font-family="Helvetica,sans-Serif" font-size="10.00">fstream</text>
</a>
</g>
</g>
<!-- Node1&#45;&gt;Node23 -->
<g id="edge24_Node000001_Node000023" class="edge">
<title>Node1&#45;&gt;Node23</title>
<g id="a_edge24_Node000001_Node000023"><a xlink:title=" ">
<path fill="none" stroke="#63b8ff" d="M760.69,-107.88C771.88,-99.91 789.16,-87.6 802.57,-78.05"/>
<polygon fill="#63b8ff" stroke="#63b8ff" points="804.61,-80.89 810.72,-72.24 800.55,-75.19 804.61,-80.89"/>
</a>
</g>
</g>
<!-- Node24 -->
<g id="Node000024" class="node">
<title>Node24</title>
<g id="a_Node000024"><a xlink:title=" ">
<polygon fill="#e0e0e0" stroke="#999999" points="909.63,-72 864.94,-72 864.94,-54 909.63,-54 909.63,-72"/>
<text text-anchor="middle" x="887.29" y="-60" font-family="Helvetica,sans-Serif" font-size="10.00">iosfwd</text>
</a>
</g>
</g>
<!-- Node1&#45;&gt;Node24 -->
<g id="edge25_Node000001_Node000024" class="edge">
<title>Node1&#45;&gt;Node24</title>
<g id="a_edge25_Node000001_Node000024"><a xlink:title=" ">
<path fill="none" stroke="#63b8ff" d="M770.55,-107.99C793.48,-99.35 830.2,-85.51 856.33,-75.67"/>
<polygon fill="#63b8ff" stroke="#63b8ff" points="857.65,-78.91 865.78,-72.11 855.18,-72.36 857.65,-78.91"/>
</a>
</g>
</g>
<!-- Node25 -->
<g id="Node000025" class="node">
<title>Node25</title>
<g id="a_Node000025"><a xlink:title=" ">
<polygon fill="#e0e0e0" stroke="#999999" points="968.8,-72 927.77,-72 927.77,-54 968.8,-54 968.8,-72"/>
<text text-anchor="middle" x="948.29" y="-60" font-family="Helvetica,sans-Serif" font-size="10.00">regex</text>
</a>
</g>
</g>
<!-- Node1&#45;&gt;Node25 -->
<g id="edge26_Node000001_Node000025" class="edge">
<title>Node1&#45;&gt;Node25</title>
<g id="a_edge26_Node000001_Node000025"><a xlink:title=" ">
<path fill="none" stroke="#63b8ff" d="M780.45,-107.95C812.45,-99.66 863.95,-86.29 917.9,-72.09"/>
<polygon fill="#63b8ff" stroke="#63b8ff" points="918.86,-75.46 927.64,-69.52 917.07,-68.69 918.86,-75.46"/>
</a>
</g>
</g>
<!-- Node3 -->
<g id="Node000003" class="node">
<title>Node3</title>
<g id="a_Node000003"><a xlink:title=" ">
<polygon fill="#e0e0e0" stroke="#999999" points="56.37,-18 0.21,-18 0.21,0 56.37,0 56.37,-18"/>
<text text-anchor="middle" x="28.29" y="-6" font-family="Helvetica,sans-Serif" font-size="10.00">charconv</text>
</a>
</g>
</g>
<!-- Node2&#45;&gt;Node3 -->
<g id="edge2_Node000002_Node000003" class="edge">
<title>Node2&#45;&gt;Node3</title>
<g id="a_edge2_Node000002_Node000003"><a xlink:title=" ">
<path fill="none" stroke="#63b8ff" d="M189.86,-53.99C156.67,-44.95 102.6,-30.23 66.25,-20.34"/>
<polygon fill="#63b8ff" stroke="#63b8ff" points="67.07,-16.93 56.5,-17.68 65.23,-23.68 67.07,-16.93"/>
</a>
</g>
</g>
<!-- Node4 -->
<g id="Node000004" class="node">
<title>Node4</title>
<g id="a_Node000004"><a xlink:title=" ">
<polygon fill="#e0e0e0" stroke="#999999" points="121.37,-18 75.21,-18 75.21,0 121.37,0 121.37,-18"/>
<text text-anchor="middle" x="98.29" y="-6" font-family="Helvetica,sans-Serif" font-size="10.00">chrono</text>
</a>
</g>
</g>
<!-- Node2&#45;&gt;Node4 -->
<g id="edge3_Node000002_Node000004" class="edge">
<title>Node2&#45;&gt;Node4</title>
<g id="a_edge3_Node000002_Node000004"><a xlink:title=" ">
<path fill="none" stroke="#63b8ff" d="M200.65,-53.99C180.81,-45.46 149.19,-31.88 126.35,-22.06"/>
<polygon fill="#63b8ff" stroke="#63b8ff" points="127.72,-18.84 117.15,-18.11 124.96,-25.27 127.72,-18.84"/>
</a>
</g>
</g>
<!-- Node5 -->
<g id="Node000005" class="node">
<title>Node5</title>
<g id="a_Node000005"><a xlink:title=" ">
<polygon fill="#e0e0e0" stroke="#999999" points="290.59,-18 231.99,-18 231.99,0 290.59,0 290.59,-18"/>
<text text-anchor="middle" x="261.29" y="-6" font-family="Helvetica,sans-Serif" font-size="10.00">stdexcept</text>
</a>
</g>
</g>
<!-- Node2&#45;&gt;Node5 -->
<g id="edge4_Node000002_Node000005" class="edge">
<title>Node2&#45;&gt;Node5</title>
<g id="a_edge4_Node000002_Node000005"><a xlink:title=" ">
<path fill="none" stroke="#63b8ff" d="M225.85,-53.88C231.8,-46.52 240.73,-35.45 248.14,-26.28"/>
<polygon fill="#63b8ff" stroke="#63b8ff" points="251.07,-28.22 254.63,-18.24 245.63,-23.82 251.07,-28.22"/>
</a>
</g>
</g>
<!-- Node2&#45;&gt;Node6 -->
<g id="edge5_Node000002_Node000006" class="edge">
<title>Node2&#45;&gt;Node6</title>
<g id="a_edge5_Node000002_Node000006"><a xlink:title=" ">
<path fill="none" stroke="#63b8ff" d="M236.48,-53.88C254.32,-45.44 282.44,-32.15 303.06,-22.4"/>
<polygon fill="#63b8ff" stroke="#63b8ff" points="304.68,-25.51 312.22,-18.07 301.68,-19.18 304.68,-25.51"/>
</a>
</g>
</g>
<!-- Node7 -->
<g id="Node000007" class="node">
<title>Node7</title>
<g id="a_Node000007"><a xlink:title=" ">
<polygon fill="#e0e0e0" stroke="#999999" points="213.63,-18 138.94,-18 138.94,0 213.63,0 213.63,-18"/>
<text text-anchor="middle" x="176.29" y="-6" font-family="Helvetica,sans-Serif" font-size="10.00">system_error</text>
</a>
</g>
</g>
<!-- Node2&#45;&gt;Node7 -->
<g id="edge6_Node000002_Node000007" class="edge">
<title>Node2&#45;&gt;Node7</title>
<g id="a_edge6_Node000002_Node000007"><a xlink:title=" ">
<path fill="none" stroke="#63b8ff" d="M212.57,-53.88C206.42,-46.44 197.15,-35.22 189.51,-25.99"/>
<polygon fill="#63b8ff" stroke="#63b8ff" points="192.17,-23.72 183.1,-18.24 186.78,-28.18 192.17,-23.72"/>
</a>
</g>
</g>
<!-- Node8&#45;&gt;Node5 -->
<g id="edge18_Node000008_Node000005" class="edge">
<title>Node8&#45;&gt;Node5</title>
<g id="a_edge18_Node000008_Node000005"><a xlink:title=" ">
<path fill="none" stroke="#63b8ff" d="M633.51,-58.9C570.32,-52.89 429.76,-38.56 300.69,-17.92"/>
<polygon fill="#63b8ff" stroke="#63b8ff" points="301.06,-14.43 290.63,-16.29 299.94,-21.34 301.06,-14.43"/>
</a>
</g>
</g>
<!-- Node8&#45;&gt;Node6 -->
<g id="edge19_Node000008_Node000006" class="edge">
<title>Node8&#45;&gt;Node6</title>
<g id="a_edge19_Node000008_Node000006"><a xlink:title=" ">
<path fill="none" stroke="#63b8ff" d="M633.34,-58.48C576.35,-52.29 457.99,-38.14 359.29,-18 359.19,-17.98 359.09,-17.96 358.99,-17.94"/>
<polygon fill="#63b8ff" stroke="#63b8ff" points="360.08,-14.6 349.54,-15.75 358.5,-21.42 360.08,-14.6"/>
</a>
</g>
</g>
<!-- Node9 -->
<g id="Node000009" class="node">
<title>Node9</title>
<g id="a_Node000009"><a xlink:title=" ">
<polygon fill="#e0e0e0" stroke="#999999" points="1165.92,-18 1108.66,-18 1108.66,0 1165.92,0 1165.92,-18"/>
<text text-anchor="middle" x="1137.29" y="-6" font-family="Helvetica,sans-Serif" font-size="10.00">algorithm</text>
</a>
</g>
</g>
<!-- Node8&#45;&gt;Node9 -->
<g id="edge8_Node000008_Node000009" class="edge">
<title>Node8&#45;&gt;Node9</title>
<g id="a_edge8_Node000008_Node000009"><a xlink:title=" ">
<path fill="none" stroke="#63b8ff" d="M701.04,-55.42C704.16,-54.9 707.28,-54.42 710.29,-54 879.5,-30.5 926.5,-43.92 1098.76,-18.06"/>
<polygon fill="#63b8ff" stroke="#63b8ff" points="1099.31,-21.51 1108.67,-16.55 1098.26,-14.59 1099.31,-21.51"/>
</a>
</g>
</g>
<!-- Node10 -->
<g id="Node000010" class="node">
<title>Node10</title>
<g id="a_Node000010"><a xlink:title=" ">
<polygon fill="#e0e0e0" stroke="#999999" points="1232.52,-18 1184.06,-18 1184.06,0 1232.52,0 1232.52,-18"/>
<text text-anchor="middle" x="1208.29" y="-6" font-family="Helvetica,sans-Serif" font-size="10.00">cassert</text>
</a>
</g>
</g>
<!-- Node8&#45;&gt;Node10 -->
<g id="edge9_Node000008_Node000010" class="edge">
<title>Node8&#45;&gt;Node10</title>
<g id="a_edge9_Node000008_Node000010"><a xlink:title=" ">
<path fill="none" stroke="#63b8ff" d="M701.03,-55.37C704.16,-54.86 707.28,-54.4 710.29,-54 912.6,-27.43 968.82,-49.8 1173.98,-17.94"/>
<polygon fill="#63b8ff" stroke="#63b8ff" points="1174.54,-21.4 1183.87,-16.38 1173.44,-14.48 1174.54,-21.4"/>
</a>
</g>
</g>
<!-- Node11 -->
<g id="Node000011" class="node">
<title>Node11</title>
<g id="a_Node000011"><a xlink:title=" ">
<polygon fill="#e0e0e0" stroke="#999999" points="426.6,-18 367.98,-18 367.98,0 426.6,0 426.6,-18"/>
<text text-anchor="middle" x="397.29" y="-6" font-family="Helvetica,sans-Serif" font-size="10.00">functional</text>
</a>
</g>
</g>
<!-- Node8&#45;&gt;Node11 -->
<g id="edge10_Node000008_Node000011" class="edge">
<title>Node8&#45;&gt;Node11</title>
<g id="a_edge10_Node000008_Node000011"><a xlink:title=" ">
<path fill="none" stroke="#63b8ff" d="M633.21,-55.66C590.05,-47.61 513.15,-33.14 436.93,-18.1"/>
<polygon fill="#63b8ff" stroke="#63b8ff" points="437.16,-14.58 426.67,-16.07 435.8,-21.45 437.16,-14.58"/>
</a>
</g>
</g>
<!-- Node12 -->
<g id="Node000012" class="node">
<title>Node12</title>
<g id="a_Node000012"><a xlink:title=" ">
<polygon fill="#e0e0e0" stroke="#999999" points="499.63,-18 444.94,-18 444.94,0 499.63,0 499.63,-18"/>
<text text-anchor="middle" x="472.29" y="-6" font-family="Helvetica,sans-Serif" font-size="10.00">iostream</text>
</a>
</g>
</g>
<!-- Node8&#45;&gt;Node12 -->
<g id="edge11_Node000008_Node000012" class="edge">
<title>Node8&#45;&gt;Node12</title>
<g id="a_edge11_Node000008_Node000012"><a xlink:title=" ">
<path fill="none" stroke="#63b8ff" d="M637.25,-53.99C602.87,-44.82 546.56,-29.81 509.45,-19.91"/>
<polygon fill="#63b8ff" stroke="#63b8ff" points="510.09,-16.46 499.53,-17.26 508.29,-23.22 510.09,-16.46"/>
</a>
</g>
</g>
<!-- Node13 -->
<g id="Node000013" class="node">
<title>Node13</title>
<g id="a_Node000013"><a xlink:title=" ">
<polygon fill="#e0e0e0" stroke="#999999" points="553.24,-18 517.33,-18 517.33,0 553.24,0 553.24,-18"/>
<text text-anchor="middle" x="535.29" y="-6" font-family="Helvetica,sans-Serif" font-size="10.00">map</text>
</a>
</g>
</g>
<!-- Node8&#45;&gt;Node13 -->
<g id="edge12_Node000008_Node000013" class="edge">
<title>Node8&#45;&gt;Node13</title>
<g id="a_edge12_Node000008_Node000013"><a xlink:title=" ">
<path fill="none" stroke="#63b8ff" d="M646.95,-53.99C624.35,-45.09 587.74,-30.66 562.64,-20.77"/>
<polygon fill="#63b8ff" stroke="#63b8ff" points="563.9,-17.51 553.31,-17.1 561.33,-24.02 563.9,-17.51"/>
</a>
</g>
</g>
<!-- Node14 -->
<g id="Node000014" class="node">
<title>Node14</title>
<g id="a_Node000014"><a xlink:title=" ">
<polygon fill="#e0e0e0" stroke="#999999" points="623.4,-18 571.17,-18 571.17,0 623.4,0 623.4,-18"/>
<text text-anchor="middle" x="597.29" y="-6" font-family="Helvetica,sans-Serif" font-size="10.00">memory</text>
</a>
</g>
</g>
<!-- Node8&#45;&gt;Node14 -->
<g id="edge13_Node000008_Node000014" class="edge">
<title>Node8&#45;&gt;Node14</title>
<g id="a_edge13_Node000008_Node000014"><a xlink:title=" ">
<path fill="none" stroke="#63b8ff" d="M656.35,-53.88C645.73,-45.98 629.37,-33.84 616.57,-24.32"/>
<polygon fill="#63b8ff" stroke="#63b8ff" points="618.49,-21.39 608.38,-18.24 614.32,-27.01 618.49,-21.39"/>
</a>
</g>
</g>
<!-- Node15 -->
<g id="Node000015" class="node">
<title>Node15</title>
<g id="a_Node000015"><a xlink:title=" ">
<polygon fill="#e0e0e0" stroke="#999999" points="692.82,-18 641.76,-18 641.76,0 692.82,0 692.82,-18"/>
<text text-anchor="middle" x="667.29" y="-6" font-family="Helvetica,sans-Serif" font-size="10.00">optional</text>
</a>
</g>
</g>
<!-- Node8&#45;&gt;Node15 -->
<g id="edge14_Node000008_Node000015" class="edge">
<title>Node8&#45;&gt;Node15</title>
<g id="a_edge14_Node000008_Node000015"><a xlink:title=" ">
<path fill="none" stroke="#63b8ff" d="M667.29,-53.88C667.29,-47.05 667.29,-37.03 667.29,-28.29"/>
<polygon fill="#63b8ff" stroke="#63b8ff" points="670.79,-28.24 667.29,-18.24 663.79,-28.24 670.79,-28.24"/>
</a>
</g>
</g>
<!-- Node16 -->
<g id="Node000016" class="node">
<title>Node16</title>
<g id="a_Node000016"><a xlink:title=" ">
<polygon fill="#e0e0e0" stroke="#999999" points="757.37,-18 711.21,-18 711.21,0 757.37,0 757.37,-18"/>
<text text-anchor="middle" x="734.29" y="-6" font-family="Helvetica,sans-Serif" font-size="10.00">ranges</text>
</a>
</g>
</g>
<!-- Node8&#45;&gt;Node16 -->
<g id="edge15_Node000008_Node000016" class="edge">
<title>Node8&#45;&gt;Node16</title>
<g id="a_edge15_Node000008_Node000016"><a xlink:title=" ">
<path fill="none" stroke="#63b8ff" d="M677.76,-53.88C687.83,-46.06 703.28,-34.07 715.48,-24.6"/>
<polygon fill="#63b8ff" stroke="#63b8ff" points="717.92,-27.14 723.67,-18.24 713.63,-21.61 717.92,-27.14"/>
</a>
</g>
</g>
<!-- Node17 -->
<g id="Node000017" class="node">
<title>Node17</title>
<g id="a_Node000017"><a xlink:title=" ">
<polygon fill="#e0e0e0" stroke="#999999" points="805.13,-18 775.45,-18 775.45,0 805.13,0 805.13,-18"/>
<text text-anchor="middle" x="790.29" y="-6" font-family="Helvetica,sans-Serif" font-size="10.00">set</text>
</a>
</g>
</g>
<!-- Node8&#45;&gt;Node17 -->
<g id="edge16_Node000008_Node000017" class="edge">
<title>Node8&#45;&gt;Node17</title>
<g id="a_edge16_Node000008_Node000017"><a xlink:title=" ">
<path fill="none" stroke="#63b8ff" d="M686.24,-53.99C707.7,-44.92 742.72,-30.11 766.13,-20.21"/>
<polygon fill="#63b8ff" stroke="#63b8ff" points="767.53,-23.42 775.38,-16.3 764.81,-16.97 767.53,-23.42"/>
</a>
</g>
</g>
<!-- Node18 -->
<g id="Node000018" class="node">
<title>Node18</title>
<g id="a_Node000018"><a xlink:title=" ">
<polygon fill="#e0e0e0" stroke="#999999" points="909.33,-18 823.24,-18 823.24,0 909.33,0 909.33,-18"/>
<text text-anchor="middle" x="866.29" y="-6" font-family="Helvetica,sans-Serif" font-size="10.00">source_location</text>
</a>
</g>
</g>
<!-- Node8&#45;&gt;Node18 -->
<g id="edge17_Node000008_Node000018" class="edge">
<title>Node8&#45;&gt;Node18</title>
<g id="a_edge17_Node000008_Node000018"><a xlink:title=" ">
<path fill="none" stroke="#63b8ff" d="M697.95,-53.99C732.27,-45.02 788.05,-30.45 825.9,-20.55"/>
<polygon fill="#63b8ff" stroke="#63b8ff" points="826.81,-23.93 835.6,-18.02 825.04,-17.16 826.81,-23.93"/>
</a>
</g>
</g>
<!-- Node19 -->
<g id="Node000019" class="node">
<title>Node19</title>
<g id="a_Node000019"><a xlink:title=" ">
<polygon fill="#e0e0e0" stroke="#999999" points="964.97,-18 927.6,-18 927.6,0 964.97,0 964.97,-18"/>
<text text-anchor="middle" x="946.29" y="-6" font-family="Helvetica,sans-Serif" font-size="10.00">tuple</text>
</a>
</g>
</g>
<!-- Node8&#45;&gt;Node19 -->
<g id="edge20_Node000008_Node000019" class="edge">
<title>Node8&#45;&gt;Node19</title>
<g id="a_edge20_Node000008_Node000019"><a xlink:title=" ">
<path fill="none" stroke="#63b8ff" d="M701.08,-55.67C704.19,-55.1 707.3,-54.54 710.29,-54 799.56,-37.97 825.15,-38.84 917.61,-17.93"/>
<polygon fill="#63b8ff" stroke="#63b8ff" points="918.41,-21.34 927.38,-15.7 916.85,-14.51 918.41,-21.34"/>
</a>
</g>
</g>
<!-- Node20 -->
<g id="Node000020" class="node">
<title>Node20</title>
<g id="a_Node000020"><a xlink:title=" ">
<polygon fill="#e0e0e0" stroke="#999999" points="1029.3,-18 983.27,-18 983.27,0 1029.3,0 1029.3,-18"/>
<text text-anchor="middle" x="1006.29" y="-6" font-family="Helvetica,sans-Serif" font-size="10.00">variant</text>
</a>
</g>
</g>
<!-- Node8&#45;&gt;Node20 -->
<g id="edge21_Node000008_Node000020" class="edge">
<title>Node8&#45;&gt;Node20</title>
<g id="a_edge21_Node000008_Node000020"><a xlink:title=" ">
<path fill="none" stroke="#63b8ff" d="M701.06,-55.56C704.18,-55.01 707.29,-54.48 710.29,-54 824,-35.68 856.26,-40.13 972.89,-18.08"/>
<polygon fill="#63b8ff" stroke="#63b8ff" points="973.77,-21.47 982.94,-16.15 972.46,-14.6 973.77,-21.47"/>
</a>
</g>
</g>
<!-- Node21 -->
<g id="Node000021" class="node">
<title>Node21</title>
<g id="a_Node000021"><a xlink:title=" ">
<polygon fill="#e0e0e0" stroke="#999999" points="1091.02,-18 1047.56,-18 1047.56,0 1091.02,0 1091.02,-18"/>
<text text-anchor="middle" x="1069.29" y="-6" font-family="Helvetica,sans-Serif" font-size="10.00">vector</text>
</a>
</g>
</g>
<!-- Node8&#45;&gt;Node21 -->
<g id="edge22_Node000008_Node000021" class="edge">
<title>Node8&#45;&gt;Node21</title>
<g id="a_edge22_Node000008_Node000021"><a xlink:title=" ">
<path fill="none" stroke="#63b8ff" d="M701.05,-55.47C704.17,-54.94 707.28,-54.44 710.29,-54 852.11,-33.05 892.24,-43.88 1037.2,-17.92"/>
<polygon fill="#63b8ff" stroke="#63b8ff" points="1038.15,-21.31 1047.36,-16.07 1036.89,-14.42 1038.15,-21.31"/>
</a>
</g>
</g>
</g>
</svg>
