<?xml version="1.0" encoding="UTF-8" standalone="no"?>
<!DOCTYPE svg PUBLIC "-//W3C//DTD SVG 1.1//EN"
 "http://www.w3.org/Graphics/SVG/1.1/DTD/svg11.dtd">
<!-- Generated by graphviz version 2.48.0 (20210717.1556)
 -->
<!-- Title: epub_options.hpp Pages: 1 -->
<svg width="1240pt" height="134pt"
 viewBox="0.00 0.00 1240.40 134.00" xmlns="http://www.w3.org/2000/svg" xmlns:xlink="http://www.w3.org/1999/xlink">
<g id="graph0" class="graph" transform="scale(1 1) rotate(0) translate(4 130)">
<title>epub_options.hpp</title>
<!-- Node1 -->
<g id="Node000001" class="node">
<title>Node1</title>
<g id="a_Node000001"><a xlink:title=" ">
<polygon fill="#999999" stroke="#666666" points="788.81,-126 693.77,-126 693.77,-108 788.81,-108 788.81,-126"/>
<text text-anchor="middle" x="741.29" y="-114" font-family="Helvetica,sans-Serif" font-size="10.00">epub_options.hpp</text>
</a>
</g>
</g>
<!-- Node2 -->
<g id="Node000002" class="node">
<title>Node2</title>
<g id="a_Node000002"><a xlink:href="metadata_8hpp.html" target="_top" xlink:title=" ">
<polygon fill="white" stroke="#666666" points="257.95,-72 180.63,-72 180.63,-54 257.95,-54 257.95,-72"/>
<text text-anchor="middle" x="219.29" y="-60" font-family="Helvetica,sans-Serif" font-size="10.00">metadata.hpp</text>
</a>
</g>
</g>
<!-- Node1&#45;&gt;Node2 -->
<g id="edge1_Node000001_Node000002" class="edge">
<title>Node1&#45;&gt;Node2</title>
<g id="a_edge1_Node000001_Node000002"><a xlink:title=" ">
<path fill="none" stroke="#63b8ff" d="M693.58,-111.25C594.65,-101.39 368.06,-78.82 268.14,-68.87"/>
<polygon fill="#63b8ff" stroke="#63b8ff" points="268.32,-65.37 258.02,-67.86 267.63,-72.33 268.32,-65.37"/>
</a>
</g>
</g>
<!-- Node8 -->
<g id="Node000008" class="node">
<title>Node8</title>
<g id="a_Node000008"><a xlink:href="options_8hpp.html" target="_top" xlink:title=" ">
<polygon fill="white" stroke="#666666" points="734,-72 666.58,-72 666.58,-54 734,-54 734,-72"/>
<text text-anchor="middle" x="700.29" y="-60" font-family="Helvetica,sans-Serif" font-size="10.00">options.hpp</text>
</a>
</g>
</g>
<!-- Node1&#45;&gt;Node8 -->
<g id="edge7_Node000001_Node000008" class="edge">
<title>Node1&#45;&gt;Node8</title>
<g id="a_edge7_Node000001_Node000008"><a xlink:title=" ">
<path fill="none" stroke="#63b8ff" d="M734.88,-107.88C729.08,-100.52 720.36,-89.45 713.12,-80.28"/>
<polygon fill="#63b8ff" stroke="#63b8ff" points="715.72,-77.93 706.78,-72.24 710.23,-82.26 715.72,-77.93"/>
</a>
</g>
</g>
<!-- Node22 -->
<g id="Node000022" class="node">
<title>Node22</title>
<g id="a_Node000022"><a xlink:title=" ">
<polygon fill="#e0e0e0" stroke="#999999" points="812.74,-72 751.83,-72 751.83,-54 812.74,-54 812.74,-72"/>
<text text-anchor="middle" x="782.29" y="-60" font-family="Helvetica,sans-Serif" font-size="10.00">filesystem</text>
</a>
</g>
</g>
<!-- Node1&#45;&gt;Node22 -->
<g id="edge23_Node000001_Node000022" class="edge">
<title>Node1&#45;&gt;Node22</title>
<g id="a_edge23_Node000001_Node000022"><a xlink:title=" ">
<path fill="none" stroke="#63b8ff" d="M747.69,-107.88C753.5,-100.52 762.22,-89.45 769.46,-80.28"/>
<polygon fill="#63b8ff" stroke="#63b8ff" points="772.35,-82.26 775.79,-72.24 766.85,-77.93 772.35,-82.26"/>
</a>
</g>
</g>
<!-- Node23 -->
<g id="Node000023" class="node">
<title>Node23</title>
<g id="a_Node000023"><a xlink:title=" ">
<polygon fill="#e0e0e0" stroke="#999999" points="871.8,-72 830.77,-72 830.77,-54 871.8,-54 871.8,-72"/>
<text text-anchor="middle" x="851.29" y="-60" font-family="Helvetica,sans-Serif" font-size="10.00">regex</text>
</a>
</g>
</g>
<!-- Node1&#45;&gt;Node23 -->
<g id="edge24_Node000001_Node000023" class="edge">
<title>Node1&#45;&gt;Node23</title>
<g id="a_edge24_Node000001_Node000023"><a xlink:title=" ">
<path fill="none" stroke="#63b8ff" d="M758.48,-107.88C776.32,-99.44 804.44,-86.15 825.06,-76.4"/>
<polygon fill="#63b8ff" stroke="#63b8ff" points="826.68,-79.51 834.22,-72.07 823.68,-73.18 826.68,-79.51"/>
</a>
</g>
</g>
<!-- Node3 -->
<g id="Node000003" class="node">
<title>Node3</title>
<g id="a_Node000003"><a xlink:title=" ">
<polygon fill="#e0e0e0" stroke="#999999" points="56.37,-18 0.21,-18 0.21,0 56.37,0 56.37,-18"/>
<text text-anchor="middle" x="28.29" y="-6" font-family="Helvetica,sans-Serif" font-size="10.00">charconv</text>
</a>
</g>
</g>
<!-- Node2&#45;&gt;Node3 -->
<g id="edge2_Node000002_Node000003" class="edge">
<title>Node2&#45;&gt;Node3</title>
<g id="a_edge2_Node000002_Node000003"><a xlink:title=" ">
<path fill="none" stroke="#63b8ff" d="M189.86,-53.99C156.67,-44.95 102.6,-30.23 66.25,-20.34"/>
<polygon fill="#63b8ff" stroke="#63b8ff" points="67.07,-16.93 56.5,-17.68 65.23,-23.68 67.07,-16.93"/>
</a>
</g>
</g>
<!-- Node4 -->
<g id="Node000004" class="node">
<title>Node4</title>
<g id="a_Node000004"><a xlink:title=" ">
<polygon fill="#e0e0e0" stroke="#999999" points="121.37,-18 75.21,-18 75.21,0 121.37,0 121.37,-18"/>
<text text-anchor="middle" x="98.29" y="-6" font-family="Helvetica,sans-Serif" font-size="10.00">chrono</text>
</a>
</g>
</g>
<!-- Node2&#45;&gt;Node4 -->
<g id="edge3_Node000002_Node000004" class="edge">
<title>Node2&#45;&gt;Node4</title>
<g id="a_edge3_Node000002_Node000004"><a xlink:title=" ">
<path fill="none" stroke="#63b8ff" d="M200.65,-53.99C180.81,-45.46 149.19,-31.88 126.35,-22.06"/>
<polygon fill="#63b8ff" stroke="#63b8ff" points="127.72,-18.84 117.15,-18.11 124.96,-25.27 127.72,-18.84"/>
</a>
</g>
</g>
<!-- Node5 -->
<g id="Node000005" class="node">
<title>Node5</title>
<g id="a_Node000005"><a xlink:title=" ">
<polygon fill="#e0e0e0" stroke="#999999" points="290.59,-18 231.99,-18 231.99,0 290.59,0 290.59,-18"/>
<text text-anchor="middle" x="261.29" y="-6" font-family="Helvetica,sans-Serif" font-size="10.00">stdexcept</text>
</a>
</g>
</g>
<!-- Node2&#45;&gt;Node5 -->
<g id="edge4_Node000002_Node000005" class="edge">
<title>Node2&#45;&gt;Node5</title>
<g id="a_edge4_Node000002_Node000005"><a xlink:title=" ">
<path fill="none" stroke="#63b8ff" d="M225.85,-53.88C231.8,-46.52 240.73,-35.45 248.14,-26.28"/>
<polygon fill="#63b8ff" stroke="#63b8ff" points="251.07,-28.22 254.63,-18.24 245.63,-23.82 251.07,-28.22"/>
</a>
</g>
</g>
<!-- Node6 -->
<g id="Node000006" class="node">
<title>Node6</title>
<g id="a_Node000006"><a xlink:title=" ">
<polygon fill="#e0e0e0" stroke="#999999" points="349.74,-18 308.83,-18 308.83,0 349.74,0 349.74,-18"/>
<text text-anchor="middle" x="329.29" y="-6" font-family="Helvetica,sans-Serif" font-size="10.00">string</text>
</a>
</g>
</g>
<!-- Node2&#45;&gt;Node6 -->
<g id="edge5_Node000002_Node000006" class="edge">
<title>Node2&#45;&gt;Node6</title>
<g id="a_edge5_Node000002_Node000006"><a xlink:title=" ">
<path fill="none" stroke="#63b8ff" d="M236.48,-53.88C254.32,-45.44 282.44,-32.15 303.06,-22.4"/>
<polygon fill="#63b8ff" stroke="#63b8ff" points="304.68,-25.51 312.22,-18.07 301.68,-19.18 304.68,-25.51"/>
</a>
</g>
</g>
<!-- Node7 -->
<g id="Node000007" class="node">
<title>Node7</title>
<g id="a_Node000007"><a xlink:title=" ">
<polygon fill="#e0e0e0" stroke="#999999" points="213.63,-18 138.94,-18 138.94,0 213.63,0 213.63,-18"/>
<text text-anchor="middle" x="176.29" y="-6" font-family="Helvetica,sans-Serif" font-size="10.00">system_error</text>
</a>
</g>
</g>
<!-- Node2&#45;&gt;Node7 -->
<g id="edge6_Node000002_Node000007" class="edge">
<title>Node2&#45;&gt;Node7</title>
<g id="a_edge6_Node000002_Node000007"><a xlink:title=" ">
<path fill="none" stroke="#63b8ff" d="M212.57,-53.88C206.42,-46.44 197.15,-35.22 189.51,-25.99"/>
<polygon fill="#63b8ff" stroke="#63b8ff" points="192.17,-23.72 183.1,-18.24 186.78,-28.18 192.17,-23.72"/>
</a>
</g>
</g>
<!-- Node8&#45;&gt;Node5 -->
<g id="edge18_Node000008_Node000005" class="edge">
<title>Node8&#45;&gt;Node5</title>
<g id="a_edge18_Node000008_Node000005"><a xlink:title=" ">
<path fill="none" stroke="#63b8ff" d="M666.43,-59.34C598.96,-53.82 442.76,-39.89 300.82,-17.92"/>
<polygon fill="#63b8ff" stroke="#63b8ff" points="301.04,-14.41 290.62,-16.32 299.96,-21.33 301.04,-14.41"/>
</a>
</g>
</g>
<!-- Node8&#45;&gt;Node6 -->
<g id="edge19_Node000008_Node000006" class="edge">
<title>Node8&#45;&gt;Node6</title>
<g id="a_edge19_Node000008_Node000006"><a xlink:title=" ">
<path fill="none" stroke="#63b8ff" d="M666.17,-59.1C606.19,-53.69 477.84,-40.66 359.49,-17.74"/>
<polygon fill="#63b8ff" stroke="#63b8ff" points="360.02,-14.28 349.54,-15.79 358.67,-21.15 360.02,-14.28"/>
</a>
</g>
</g>
<!-- Node9 -->
<g id="Node000009" class="node">
<title>Node9</title>
<g id="a_Node000009"><a xlink:title=" ">
<polygon fill="#e0e0e0" stroke="#999999" points="1165.92,-18 1108.66,-18 1108.66,0 1165.92,0 1165.92,-18"/>
<text text-anchor="middle" x="1137.29" y="-6" font-family="Helvetica,sans-Serif" font-size="10.00">algorithm</text>
</a>
</g>
</g>
<!-- Node8&#45;&gt;Node9 -->
<g id="edge8_Node000008_Node000009" class="edge">
<title>Node8&#45;&gt;Node9</title>
<g id="a_edge8_Node000008_Node000009"><a xlink:title=" ">
<path fill="none" stroke="#63b8ff" d="M734.05,-55.44C737.16,-54.92 740.28,-54.43 743.29,-54 897.91,-31.86 941.02,-42.43 1098.61,-18.1"/>
<polygon fill="#63b8ff" stroke="#63b8ff" points="1099.33,-21.53 1108.66,-16.52 1098.24,-14.61 1099.33,-21.53"/>
</a>
</g>
</g>
<!-- Node10 -->
<g id="Node000010" class="node">
<title>Node10</title>
<g id="a_Node000010"><a xlink:title=" ">
<polygon fill="#e0e0e0" stroke="#999999" points="1232.52,-18 1184.06,-18 1184.06,0 1232.52,0 1232.52,-18"/>
<text text-anchor="middle" x="1208.29" y="-6" font-family="Helvetica,sans-Serif" font-size="10.00">cassert</text>
</a>
</g>
</g>
<!-- Node8&#45;&gt;Node10 -->
<g id="edge9_Node000008_Node000010" class="edge">
<title>Node8&#45;&gt;Node10</title>
<g id="a_edge9_Node000008_Node000010"><a xlink:title=" ">
<path fill="none" stroke="#63b8ff" d="M734.04,-55.39C737.16,-54.88 740.28,-54.4 743.29,-54 930.97,-28.79 983.32,-48.1 1173.8,-17.98"/>
<polygon fill="#63b8ff" stroke="#63b8ff" points="1174.55,-21.41 1183.87,-16.37 1173.44,-14.5 1174.55,-21.41"/>
</a>
</g>
</g>
<!-- Node11 -->
<g id="Node000011" class="node">
<title>Node11</title>
<g id="a_Node000011"><a xlink:title=" ">
<polygon fill="#e0e0e0" stroke="#999999" points="426.6,-18 367.98,-18 367.98,0 426.6,0 426.6,-18"/>
<text text-anchor="middle" x="397.29" y="-6" font-family="Helvetica,sans-Serif" font-size="10.00">functional</text>
</a>
</g>
</g>
<!-- Node8&#45;&gt;Node11 -->
<g id="edge10_Node000008_Node000011" class="edge">
<title>Node8&#45;&gt;Node11</title>
<g id="a_edge10_Node000008_Node000011"><a xlink:title=" ">
<path fill="none" stroke="#63b8ff" d="M666.46,-56.77C617.99,-49.2 525.73,-34.44 436.65,-18"/>
<polygon fill="#63b8ff" stroke="#63b8ff" points="437.12,-14.53 426.65,-16.15 435.85,-21.41 437.12,-14.53"/>
</a>
</g>
</g>
<!-- Node12 -->
<g id="Node000012" class="node">
<title>Node12</title>
<g id="a_Node000012"><a xlink:title=" ">
<polygon fill="#e0e0e0" stroke="#999999" points="499.63,-18 444.94,-18 444.94,0 499.63,0 499.63,-18"/>
<text text-anchor="middle" x="472.29" y="-6" font-family="Helvetica,sans-Serif" font-size="10.00">iostream</text>
</a>
</g>
</g>
<!-- Node8&#45;&gt;Node12 -->
<g id="edge11_Node000008_Node000012" class="edge">
<title>Node8&#45;&gt;Node12</title>
<g id="a_edge11_Node000008_Node000012"><a xlink:title=" ">
<path fill="none" stroke="#63b8ff" d="M666.15,-54.22C624.06,-44.61 552.78,-28.36 509.37,-18.46"/>
<polygon fill="#63b8ff" stroke="#63b8ff" points="510.03,-15.02 499.5,-16.21 508.47,-21.84 510.03,-15.02"/>
</a>
</g>
</g>
<!-- Node13 -->
<g id="Node000013" class="node">
<title>Node13</title>
<g id="a_Node000013"><a xlink:title=" ">
<polygon fill="#e0e0e0" stroke="#999999" points="553.24,-18 517.33,-18 517.33,0 553.24,0 553.24,-18"/>
<text text-anchor="middle" x="535.29" y="-6" font-family="Helvetica,sans-Serif" font-size="10.00">map</text>
</a>
</g>
</g>
<!-- Node8&#45;&gt;Node13 -->
<g id="edge12_Node000008_Node000013" class="edge">
<title>Node8&#45;&gt;Node13</title>
<g id="a_edge12_Node000008_Node000013"><a xlink:title=" ">
<path fill="none" stroke="#63b8ff" d="M674.87,-53.99C644.66,-44.47 594.41,-28.63 563.16,-18.78"/>
<polygon fill="#63b8ff" stroke="#63b8ff" points="563.94,-15.36 553.35,-15.69 561.83,-22.04 563.94,-15.36"/>
</a>
</g>
</g>
<!-- Node14 -->
<g id="Node000014" class="node">
<title>Node14</title>
<g id="a_Node000014"><a xlink:title=" ">
<polygon fill="#e0e0e0" stroke="#999999" points="623.4,-18 571.17,-18 571.17,0 623.4,0 623.4,-18"/>
<text text-anchor="middle" x="597.29" y="-6" font-family="Helvetica,sans-Serif" font-size="10.00">memory</text>
</a>
</g>
</g>
<!-- Node8&#45;&gt;Node14 -->
<g id="edge13_Node000008_Node000014" class="edge">
<title>Node8&#45;&gt;Node14</title>
<g id="a_edge13_Node000008_Node000014"><a xlink:title=" ">
<path fill="none" stroke="#63b8ff" d="M684.19,-53.88C667.64,-45.52 641.63,-32.39 622.37,-22.66"/>
<polygon fill="#63b8ff" stroke="#63b8ff" points="623.77,-19.45 613.27,-18.07 620.62,-25.7 623.77,-19.45"/>
</a>
</g>
</g>
<!-- Node15 -->
<g id="Node000015" class="node">
<title>Node15</title>
<g id="a_Node000015"><a xlink:title=" ">
<polygon fill="#e0e0e0" stroke="#999999" points="692.82,-18 641.76,-18 641.76,0 692.82,0 692.82,-18"/>
<text text-anchor="middle" x="667.29" y="-6" font-family="Helvetica,sans-Serif" font-size="10.00">optional</text>
</a>
</g>
</g>
<!-- Node8&#45;&gt;Node15 -->
<g id="edge14_Node000008_Node000015" class="edge">
<title>Node8&#45;&gt;Node15</title>
<g id="a_edge14_Node000008_Node000015"><a xlink:title=" ">
<path fill="none" stroke="#63b8ff" d="M695.13,-53.88C690.56,-46.67 683.73,-35.91 677.98,-26.85"/>
<polygon fill="#63b8ff" stroke="#63b8ff" points="680.83,-24.81 672.52,-18.24 674.92,-28.56 680.83,-24.81"/>
</a>
</g>
</g>
<!-- Node16 -->
<g id="Node000016" class="node">
<title>Node16</title>
<g id="a_Node000016"><a xlink:title=" ">
<polygon fill="#e0e0e0" stroke="#999999" points="757.37,-18 711.21,-18 711.21,0 757.37,0 757.37,-18"/>
<text text-anchor="middle" x="734.29" y="-6" font-family="Helvetica,sans-Serif" font-size="10.00">ranges</text>
</a>
</g>
</g>
<!-- Node8&#45;&gt;Node16 -->
<g id="edge15_Node000008_Node000016" class="edge">
<title>Node8&#45;&gt;Node16</title>
<g id="a_edge15_Node000008_Node000016"><a xlink:title=" ">
<path fill="none" stroke="#63b8ff" d="M705.6,-53.88C710.31,-46.67 717.35,-35.91 723.27,-26.85"/>
<polygon fill="#63b8ff" stroke="#63b8ff" points="726.36,-28.52 728.9,-18.24 720.5,-24.69 726.36,-28.52"/>
</a>
</g>
</g>
<!-- Node17 -->
<g id="Node000017" class="node">
<title>Node17</title>
<g id="a_Node000017"><a xlink:title=" ">
<polygon fill="#e0e0e0" stroke="#999999" points="805.13,-18 775.45,-18 775.45,0 805.13,0 805.13,-18"/>
<text text-anchor="middle" x="790.29" y="-6" font-family="Helvetica,sans-Serif" font-size="10.00">set</text>
</a>
</g>
</g>
<!-- Node8&#45;&gt;Node17 -->
<g id="edge16_Node000008_Node000017" class="edge">
<title>Node8&#45;&gt;Node17</title>
<g id="a_edge16_Node000008_Node000017"><a xlink:title=" ">
<path fill="none" stroke="#63b8ff" d="M714.35,-53.88C728.48,-45.71 750.51,-32.98 767.21,-23.33"/>
<polygon fill="#63b8ff" stroke="#63b8ff" points="769.42,-26.1 776.32,-18.07 765.91,-20.04 769.42,-26.1"/>
</a>
</g>
</g>
<!-- Node18 -->
<g id="Node000018" class="node">
<title>Node18</title>
<g id="a_Node000018"><a xlink:title=" ">
<polygon fill="#e0e0e0" stroke="#999999" points="909.33,-18 823.24,-18 823.24,0 909.33,0 909.33,-18"/>
<text text-anchor="middle" x="866.29" y="-6" font-family="Helvetica,sans-Serif" font-size="10.00">source_location</text>
</a>
</g>
</g>
<!-- Node8&#45;&gt;Node18 -->
<g id="edge17_Node000008_Node000018" class="edge">
<title>Node8&#45;&gt;Node18</title>
<g id="a_edge17_Node000008_Node000018"><a xlink:title=" ">
<path fill="none" stroke="#63b8ff" d="M725.86,-53.99C754.01,-45.17 799.44,-30.94 830.98,-21.06"/>
<polygon fill="#63b8ff" stroke="#63b8ff" points="832.19,-24.35 840.69,-18.02 830.1,-17.67 832.19,-24.35"/>
</a>
</g>
</g>
<!-- Node19 -->
<g id="Node000019" class="node">
<title>Node19</title>
<g id="a_Node000019"><a xlink:title=" ">
<polygon fill="#e0e0e0" stroke="#999999" points="964.97,-18 927.6,-18 927.6,0 964.97,0 964.97,-18"/>
<text text-anchor="middle" x="946.29" y="-6" font-family="Helvetica,sans-Serif" font-size="10.00">tuple</text>
</a>
</g>
</g>
<!-- Node8&#45;&gt;Node19 -->
<g id="edge20_Node000008_Node000019" class="edge">
<title>Node8&#45;&gt;Node19</title>
<g id="a_edge20_Node000008_Node000019"><a xlink:title=" ">
<path fill="none" stroke="#63b8ff" d="M734.13,-55.51C782.59,-46.16 870.28,-29.03 917.4,-18.02"/>
<polygon fill="#63b8ff" stroke="#63b8ff" points="918.46,-21.36 927.36,-15.63 916.82,-14.56 918.46,-21.36"/>
</a>
</g>
</g>
<!-- Node20 -->
<g id="Node000020" class="node">
<title>Node20</title>
<g id="a_Node000020"><a xlink:title=" ">
<polygon fill="#e0e0e0" stroke="#999999" points="1029.3,-18 983.27,-18 983.27,0 1029.3,0 1029.3,-18"/>
<text text-anchor="middle" x="1006.29" y="-6" font-family="Helvetica,sans-Serif" font-size="10.00">variant</text>
</a>
</g>
</g>
<!-- Node8&#45;&gt;Node20 -->
<g id="edge21_Node000008_Node000020" class="edge">
<title>Node8&#45;&gt;Node20</title>
<g id="a_edge21_Node000008_Node000020"><a xlink:title=" ">
<path fill="none" stroke="#63b8ff" d="M734.07,-55.62C737.19,-55.06 740.29,-54.51 743.29,-54 842.61,-37.03 870.76,-38.51 973.43,-18"/>
<polygon fill="#63b8ff" stroke="#63b8ff" points="974.16,-21.43 983.27,-16.02 972.78,-14.57 974.16,-21.43"/>
</a>
</g>
</g>
<!-- Node21 -->
<g id="Node000021" class="node">
<title>Node21</title>
<g id="a_Node000021"><a xlink:title=" ">
<polygon fill="#e0e0e0" stroke="#999999" points="1091.02,-18 1047.56,-18 1047.56,0 1091.02,0 1091.02,-18"/>
<text text-anchor="middle" x="1069.29" y="-6" font-family="Helvetica,sans-Serif" font-size="10.00">vector</text>
</a>
</g>
</g>
<!-- Node8&#45;&gt;Node21 -->
<g id="edge22_Node000008_Node000021" class="edge">
<title>Node8&#45;&gt;Node21</title>
<g id="a_edge22_Node000008_Node000021"><a xlink:title=" ">
<path fill="none" stroke="#63b8ff" d="M734.06,-55.51C737.17,-54.97 740.29,-54.46 743.29,-54 870.65,-34.4 906.76,-42.15 1037.37,-17.92"/>
<polygon fill="#63b8ff" stroke="#63b8ff" points="1038.17,-21.33 1047.35,-16.04 1036.88,-14.45 1038.17,-21.33"/>
</a>
</g>
</g>
</g>
</svg>
