<?xml version="1.0" encoding="UTF-8" standalone="no"?>
<!DOCTYPE svg PUBLIC "-//W3C//DTD SVG 1.1//EN"
 "http://www.w3.org/Graphics/SVG/1.1/DTD/svg11.dtd">
<!-- Generated by graphviz version 2.48.0 (20210717.1556)
 -->
<!-- Title: file_metadata.hpp Pages: 1 -->
<svg width="400pt" height="296pt"
 viewBox="0.00 0.00 400.02 296.00" xmlns="http://www.w3.org/2000/svg" xmlns:xlink="http://www.w3.org/1999/xlink">
<g id="graph0" class="graph" transform="scale(1 1) rotate(0) translate(4 292)">
<title>file_metadata.hpp</title>
<!-- Node1 -->
<g id="Node000001" class="node">
<title>Node1</title>
<g id="a_Node000001"><a xlink:title=" ">
<polygon fill="#999999" stroke="#666666" points="254.25,-288 159.24,-288 159.24,-270 254.25,-270 254.25,-288"/>
<text text-anchor="middle" x="206.75" y="-276" font-family="Helvetica,sans-Serif" font-size="10.00">file_metadata.hpp</text>
</a>
</g>
</g>
<!-- Node2 -->
<g id="Node000002" class="node">
<title>Node2</title>
<g id="a_Node000002"><a xlink:href="manifest_8hpp.html" target="_top" xlink:title=" ">
<polygon fill="white" stroke="#666666" points="276.5,-234 202.99,-234 202.99,-216 276.5,-216 276.5,-234"/>
<text text-anchor="middle" x="239.75" y="-222" font-family="Helvetica,sans-Serif" font-size="10.00">manifest.hpp</text>
</a>
</g>
</g>
<!-- Node1&#45;&gt;Node2 -->
<g id="edge1_Node000001_Node000002" class="edge">
<title>Node1&#45;&gt;Node2</title>
<g id="a_edge1_Node000001_Node000002"><a xlink:title=" ">
<path fill="none" stroke="#63b8ff" d="M217.35,-261.3C223.08,-252.26 229.92,-241.49 234.52,-234.24"/>
<polygon fill="#63b8ff" stroke="#63b8ff" points="214.31,-259.56 211.9,-269.88 220.22,-263.31 214.31,-259.56"/>
</a>
</g>
</g>
<!-- Node11 -->
<g id="Node000011" class="node">
<title>Node11</title>
<g id="a_Node000011"><a xlink:href="xml_8hpp.html" target="_top" xlink:title=" ">
<polygon fill="white" stroke="#666666" points="200.26,-180 149.23,-180 149.23,-162 200.26,-162 200.26,-180"/>
<text text-anchor="middle" x="174.75" y="-168" font-family="Helvetica,sans-Serif" font-size="10.00">xml.hpp</text>
</a>
</g>
</g>
<!-- Node1&#45;&gt;Node11 -->
<g id="edge17_Node000001_Node000011" class="edge">
<title>Node1&#45;&gt;Node11</title>
<g id="a_edge17_Node000001_Node000011"><a xlink:title=" ">
<path fill="none" stroke="#63b8ff" d="M201.32,-260.03C194.31,-236.81 182.4,-197.35 177.25,-180.28"/>
<polygon fill="#63b8ff" stroke="#63b8ff" points="197.99,-261.12 204.24,-269.68 204.7,-259.1 197.99,-261.12"/>
</a>
</g>
</g>
<!-- Node3 -->
<g id="Node000003" class="node">
<title>Node3</title>
<g id="a_Node000003"><a xlink:href="comic_8cpp.html" target="_top" xlink:title=" ">
<polygon fill="white" stroke="#666666" points="354.26,-18 293.23,-18 293.23,0 354.26,0 354.26,-18"/>
<text text-anchor="middle" x="323.75" y="-6" font-family="Helvetica,sans-Serif" font-size="10.00">comic.cpp</text>
</a>
</g>
</g>
<!-- Node2&#45;&gt;Node3 -->
<g id="edge2_Node000002_Node000003" class="edge">
<title>Node2&#45;&gt;Node3</title>
<g id="a_edge2_Node000002_Node000003"><a xlink:title=" ">
<path fill="none" stroke="#63b8ff" d="M286.52,-218.1C312.59,-212.46 343.74,-201.46 363.75,-180 402.01,-138.96 397.6,-103.8 371.75,-54 363.72,-38.55 347.98,-25.76 336.71,-18.03"/>
<polygon fill="#63b8ff" stroke="#63b8ff" points="285.58,-214.72 276.44,-220.07 286.93,-221.59 285.58,-214.72"/>
</a>
</g>
</g>
<!-- Node4 -->
<g id="Node000004" class="node">
<title>Node4</title>
<g id="a_Node000004"><a xlink:href="container_8cpp.html" target="_top" xlink:title=" ">
<polygon fill="white" stroke="#666666" points="75.74,-18 -0.25,-18 -0.25,0 75.74,0 75.74,-18"/>
<text text-anchor="middle" x="37.75" y="-6" font-family="Helvetica,sans-Serif" font-size="10.00">container.cpp</text>
</a>
</g>
</g>
<!-- Node2&#45;&gt;Node4 -->
<g id="edge3_Node000002_Node000004" class="edge">
<title>Node2&#45;&gt;Node4</title>
<g id="a_edge3_Node000002_Node000004"><a xlink:title=" ">
<path fill="none" stroke="#63b8ff" d="M193.08,-213.82C170.33,-207.09 143.66,-196.4 123.75,-180 68.86,-134.79 45.51,-45.61 39.43,-18.21"/>
<polygon fill="#63b8ff" stroke="#63b8ff" points="192.31,-217.24 202.89,-216.55 194.19,-210.49 192.31,-217.24"/>
</a>
</g>
</g>
<!-- Node5 -->
<g id="Node000005" class="node">
<title>Node5</title>
<g id="a_Node000005"><a xlink:href="navigation_8hpp.html" target="_top" xlink:title=" ">
<polygon fill="white" stroke="#666666" points="223.3,-126 142.19,-126 142.19,-108 223.3,-108 223.3,-126"/>
<text text-anchor="middle" x="182.75" y="-114" font-family="Helvetica,sans-Serif" font-size="10.00">navigation.hpp</text>
</a>
</g>
</g>
<!-- Node2&#45;&gt;Node5 -->
<g id="edge4_Node000002_Node000005" class="edge">
<title>Node2&#45;&gt;Node5</title>
<g id="a_edge4_Node000002_Node000005"><a xlink:title=" ">
<path fill="none" stroke="#63b8ff" d="M231.88,-206.56C226.07,-194.01 217.82,-176.75 209.75,-162 202.78,-149.26 193.82,-135.03 188.18,-126.29"/>
<polygon fill="#63b8ff" stroke="#63b8ff" points="228.78,-208.2 236.11,-215.84 235.14,-205.29 228.78,-208.2"/>
</a>
</g>
</g>
<!-- Node8 -->
<g id="Node000008" class="node">
<title>Node8</title>
<g id="a_Node000008"><a xlink:href="xml_8cpp.html" target="_top" xlink:title=" ">
<polygon fill="white" stroke="#666666" points="130.2,-72 79.29,-72 79.29,-54 130.2,-54 130.2,-72"/>
<text text-anchor="middle" x="104.75" y="-60" font-family="Helvetica,sans-Serif" font-size="10.00">xml.cpp</text>
</a>
</g>
</g>
<!-- Node2&#45;&gt;Node8 -->
<g id="edge16_Node000002_Node000008" class="edge">
<title>Node2&#45;&gt;Node8</title>
<g id="a_edge16_Node000002_Node000008"><a xlink:title=" ">
<path fill="none" stroke="#63b8ff" d="M195,-212.69C175.89,-205.92 154.6,-195.52 139.75,-180 109.93,-148.85 105.42,-93.2 104.81,-72.27"/>
<polygon fill="#63b8ff" stroke="#63b8ff" points="194.16,-216.1 204.76,-215.91 196.36,-209.45 194.16,-216.1"/>
</a>
</g>
</g>
<!-- Node9 -->
<g id="Node000009" class="node">
<title>Node9</title>
<g id="a_Node000009"><a xlink:href="package_8hpp.html" target="_top" xlink:title=" ">
<polygon fill="white" stroke="#666666" points="353.52,-126 279.98,-126 279.98,-108 353.52,-108 353.52,-126"/>
<text text-anchor="middle" x="316.75" y="-114" font-family="Helvetica,sans-Serif" font-size="10.00">package.hpp</text>
</a>
</g>
</g>
<!-- Node2&#45;&gt;Node9 -->
<g id="edge10_Node000002_Node000009" class="edge">
<title>Node2&#45;&gt;Node9</title>
<g id="a_edge10_Node000002_Node000009"><a xlink:title=" ">
<path fill="none" stroke="#63b8ff" d="M251.68,-207.58C268.36,-184.61 298.05,-143.74 310.73,-126.28"/>
<polygon fill="#63b8ff" stroke="#63b8ff" points="248.83,-205.53 245.79,-215.68 254.5,-209.65 248.83,-205.53"/>
</a>
</g>
</g>
<!-- Node10 -->
<g id="Node000010" class="node">
<title>Node10</title>
<g id="a_Node000010"><a xlink:href="spine_8hpp.html" target="_top" xlink:title=" ">
<polygon fill="white" stroke="#666666" points="354.62,-180 294.88,-180 294.88,-162 354.62,-162 354.62,-180"/>
<text text-anchor="middle" x="324.75" y="-168" font-family="Helvetica,sans-Serif" font-size="10.00">spine.hpp</text>
</a>
</g>
</g>
<!-- Node2&#45;&gt;Node10 -->
<g id="edge13_Node000002_Node000010" class="edge">
<title>Node2&#45;&gt;Node10</title>
<g id="a_edge13_Node000002_Node000010"><a xlink:title=" ">
<path fill="none" stroke="#63b8ff" d="M261.65,-210.6C277.45,-200.94 298.24,-188.21 311.56,-180.07"/>
<polygon fill="#63b8ff" stroke="#63b8ff" points="259.73,-207.67 253.03,-215.88 263.38,-213.64 259.73,-207.67"/>
</a>
</g>
</g>
<!-- Node6 -->
<g id="Node000006" class="node">
<title>Node6</title>
<g id="a_Node000006"><a xlink:href="container_8hpp.html" target="_top" xlink:title=" ">
<polygon fill="white" stroke="#666666" points="223.8,-72 147.69,-72 147.69,-54 223.8,-54 223.8,-72"/>
<text text-anchor="middle" x="185.75" y="-60" font-family="Helvetica,sans-Serif" font-size="10.00">container.hpp</text>
</a>
</g>
</g>
<!-- Node5&#45;&gt;Node6 -->
<g id="edge5_Node000005_Node000006" class="edge">
<title>Node5&#45;&gt;Node6</title>
<g id="a_edge5_Node000005_Node000006"><a xlink:title=" ">
<path fill="none" stroke="#63b8ff" d="M183.79,-97.86C184.3,-89.13 184.87,-79.1 185.27,-72.24"/>
<polygon fill="#63b8ff" stroke="#63b8ff" points="180.3,-97.69 183.21,-107.88 187.29,-98.09 180.3,-97.69"/>
</a>
</g>
</g>
<!-- Node5&#45;&gt;Node8 -->
<g id="edge9_Node000005_Node000008" class="edge">
<title>Node5&#45;&gt;Node8</title>
<g id="a_edge9_Node000005_Node000008"><a xlink:title=" ">
<path fill="none" stroke="#63b8ff" d="M162.23,-102.33C147.79,-92.7 128.95,-80.14 116.85,-72.07"/>
<polygon fill="#63b8ff" stroke="#63b8ff" points="160.3,-105.24 170.56,-107.88 164.18,-99.42 160.3,-105.24"/>
</a>
</g>
</g>
<!-- Node6&#45;&gt;Node3 -->
<g id="edge7_Node000006_Node000003" class="edge">
<title>Node6&#45;&gt;Node3</title>
<g id="a_edge7_Node000006_Node000003"><a xlink:title=" ">
<path fill="none" stroke="#63b8ff" d="M216.42,-50.44C242.47,-40.62 279.21,-26.78 302.23,-18.11"/>
<polygon fill="#63b8ff" stroke="#63b8ff" points="215.13,-47.19 207.01,-53.99 217.6,-53.74 215.13,-47.19"/>
</a>
</g>
</g>
<!-- Node6&#45;&gt;Node4 -->
<g id="edge8_Node000006_Node000004" class="edge">
<title>Node6&#45;&gt;Node4</title>
<g id="a_edge8_Node000006_Node000004"><a xlink:title=" ">
<path fill="none" stroke="#63b8ff" d="M153.22,-50.57C125.26,-40.75 85.62,-26.82 60.82,-18.11"/>
<polygon fill="#63b8ff" stroke="#63b8ff" points="152.35,-53.98 162.95,-53.99 154.67,-47.37 152.35,-53.98"/>
</a>
</g>
</g>
<!-- Node7 -->
<g id="Node000007" class="node">
<title>Node7</title>
<g id="a_Node000007"><a xlink:href="binder_8cpp.html" target="_top" xlink:title=" ">
<polygon fill="white" stroke="#666666" points="216.9,-18 154.59,-18 154.59,0 216.9,0 216.9,-18"/>
<text text-anchor="middle" x="185.75" y="-6" font-family="Helvetica,sans-Serif" font-size="10.00">binder.cpp</text>
</a>
</g>
</g>
<!-- Node6&#45;&gt;Node7 -->
<g id="edge6_Node000006_Node000007" class="edge">
<title>Node6&#45;&gt;Node7</title>
<g id="a_edge6_Node000006_Node000007"><a xlink:title=" ">
<path fill="none" stroke="#63b8ff" d="M185.75,-43.86C185.75,-35.13 185.75,-25.1 185.75,-18.24"/>
<polygon fill="#63b8ff" stroke="#63b8ff" points="182.25,-43.87 185.75,-53.88 189.25,-43.88 182.25,-43.87"/>
</a>
</g>
</g>
<!-- Node9&#45;&gt;Node6 -->
<g id="edge11_Node000009_Node000006" class="edge">
<title>Node9&#45;&gt;Node6</title>
<g id="a_edge11_Node000009_Node000006"><a xlink:title=" ">
<path fill="none" stroke="#63b8ff" d="M286.97,-104.18C262.28,-94.38 227.83,-80.71 206.17,-72.11"/>
<polygon fill="#63b8ff" stroke="#63b8ff" points="285.98,-107.55 296.56,-107.99 288.56,-101.05 285.98,-107.55"/>
</a>
</g>
</g>
<!-- Node9&#45;&gt;Node8 -->
<g id="edge12_Node000009_Node000008" class="edge">
<title>Node9&#45;&gt;Node8</title>
<g id="a_edge12_Node000009_Node000008"><a xlink:title=" ">
<path fill="none" stroke="#63b8ff" d="M274.17,-105.56C231.03,-94.98 165.74,-78.96 130.12,-70.22"/>
<polygon fill="#63b8ff" stroke="#63b8ff" points="273.54,-109.01 284.09,-107.99 275.21,-102.21 273.54,-109.01"/>
</a>
</g>
</g>
<!-- Node10&#45;&gt;Node3 -->
<g id="edge14_Node000010_Node000003" class="edge">
<title>Node10&#45;&gt;Node3</title>
<g id="a_edge14_Node000010_Node000003"><a xlink:title=" ">
<path fill="none" stroke="#63b8ff" d="M342.55,-154.96C350.34,-147.21 358.63,-137.07 362.75,-126 377.64,-85.97 345.1,-37.29 330.44,-18.22"/>
<polygon fill="#63b8ff" stroke="#63b8ff" points="340.06,-152.5 335.1,-161.86 344.81,-157.63 340.06,-152.5"/>
</a>
</g>
</g>
<!-- Node10&#45;&gt;Node9 -->
<g id="edge15_Node000010_Node000009" class="edge">
<title>Node10&#45;&gt;Node9</title>
<g id="a_edge15_Node000010_Node000009"><a xlink:title=" ">
<path fill="none" stroke="#63b8ff" d="M321.95,-151.86C320.61,-143.13 319.07,-133.1 318.01,-126.24"/>
<polygon fill="#63b8ff" stroke="#63b8ff" points="318.52,-152.52 323.5,-161.88 325.43,-151.46 318.52,-152.52"/>
</a>
</g>
</g>
<!-- Node11&#45;&gt;Node3 -->
<g id="edge18_Node000011_Node000003" class="edge">
<title>Node11&#45;&gt;Node3</title>
<g id="a_edge18_Node000011_Node000003"><a xlink:title=" ">
<path fill="none" stroke="#63b8ff" d="M196.01,-155.87C207.47,-147.77 221.51,-137.05 232.75,-126 269.78,-89.56 305.3,-37.97 318.42,-18.17"/>
<polygon fill="#63b8ff" stroke="#63b8ff" points="193.72,-153.19 187.48,-161.75 197.7,-158.95 193.72,-153.19"/>
</a>
</g>
</g>
<!-- Node11&#45;&gt;Node4 -->
<g id="edge19_Node000011_Node000004" class="edge">
<title>Node11&#45;&gt;Node4</title>
<g id="a_edge19_Node000011_Node000004"><a xlink:title=" ">
<path fill="none" stroke="#63b8ff" d="M154.93,-155.79C143.89,-147.55 130.11,-136.7 118.75,-126 95.36,-103.99 89.09,-98.36 70.75,-72 58.21,-53.98 46.99,-30.65 41.43,-18.38"/>
<polygon fill="#63b8ff" stroke="#63b8ff" points="152.97,-158.7 163.11,-161.8 157.12,-153.06 152.97,-158.7"/>
</a>
</g>
</g>
<!-- Node11&#45;&gt;Node5 -->
<g id="edge20_Node000011_Node000005" class="edge">
<title>Node11&#45;&gt;Node5</title>
<g id="a_edge20_Node000011_Node000005"><a xlink:title=" ">
<path fill="none" stroke="#63b8ff" d="M177.54,-151.86C178.88,-143.13 180.42,-133.1 181.48,-126.24"/>
<polygon fill="#63b8ff" stroke="#63b8ff" points="174.06,-151.46 176,-161.88 180.98,-152.52 174.06,-151.46"/>
</a>
</g>
</g>
<!-- Node11&#45;&gt;Node8 -->
<g id="edge22_Node000011_Node000008" class="edge">
<title>Node11&#45;&gt;Node8</title>
<g id="a_edge22_Node000011_Node000008"><a xlink:title=" ">
<path fill="none" stroke="#63b8ff" d="M158.04,-155.09C149.7,-147.05 139.9,-136.62 132.75,-126 120.73,-108.18 111.65,-84.36 107.4,-72.08"/>
<polygon fill="#63b8ff" stroke="#63b8ff" points="155.74,-157.73 165.44,-161.99 160.51,-152.61 155.74,-157.73"/>
</a>
</g>
</g>
<!-- Node11&#45;&gt;Node9 -->
<g id="edge21_Node000011_Node000009" class="edge">
<title>Node11&#45;&gt;Node9</title>
<g id="a_edge21_Node000011_Node000009"><a xlink:title=" ">
<path fill="none" stroke="#63b8ff" d="M206.31,-158.44C233.12,-148.62 270.92,-134.78 294.61,-126.11"/>
<polygon fill="#63b8ff" stroke="#63b8ff" points="204.81,-155.26 196.62,-161.99 207.22,-161.84 204.81,-155.26"/>
</a>
</g>
</g>
</g>
</svg>
