<?xml version="1.0" encoding="UTF-8" standalone="no"?>
<!DOCTYPE svg PUBLIC "-//W3C//DTD SVG 1.1//EN"
 "http://www.w3.org/Graphics/SVG/1.1/DTD/svg11.dtd">
<!-- Generated by graphviz version 2.48.0 (20210717.1556)
 -->
<!-- Title: file_metadata.hpp Pages: 1 -->
<svg width="314pt" height="242pt"
 viewBox="0.00 0.00 313.73 242.00" xmlns="http://www.w3.org/2000/svg" xmlns:xlink="http://www.w3.org/1999/xlink">
<g id="graph0" class="graph" transform="scale(1 1) rotate(0) translate(4 238)">
<title>file_metadata.hpp</title>
<!-- Node1 -->
<g id="Node000001" class="node">
<title>Node1</title>
<g id="a_Node000001"><a xlink:title=" ">
<polygon fill="#999999" stroke="#666666" points="131.01,-234 36,-234 36,-216 131.01,-216 131.01,-234"/>
<text text-anchor="middle" x="83.51" y="-222" font-family="Helvetica,sans-Serif" font-size="10.00">file_metadata.hpp</text>
</a>
</g>
</g>
<!-- Node2 -->
<g id="Node000002" class="node">
<title>Node2</title>
<g id="a_Node000002"><a xlink:href="comic_8cpp.html" target="_top" xlink:title=" ">
<polygon fill="white" stroke="#666666" points="61.02,-18 -0.01,-18 -0.01,0 61.02,0 61.02,-18"/>
<text text-anchor="middle" x="30.51" y="-6" font-family="Helvetica,sans-Serif" font-size="10.00">comic.cpp</text>
</a>
</g>
</g>
<!-- Node1&#45;&gt;Node2 -->
<g id="edge1_Node000001_Node000002" class="edge">
<title>Node1&#45;&gt;Node2</title>
<g id="a_edge1_Node000001_Node000002"><a xlink:title=" ">
<path fill="none" stroke="#63b8ff" d="M56.64,-210.91C44.79,-203.6 32.09,-193.26 25.51,-180 -2.46,-123.67 19.57,-43.39 27.76,-18.01"/>
<polygon fill="#63b8ff" stroke="#63b8ff" points="54.99,-214 65.41,-215.91 58.46,-207.92 54.99,-214"/>
</a>
</g>
</g>
<!-- Node3 -->
<g id="Node000003" class="node">
<title>Node3</title>
<g id="a_Node000003"><a xlink:href="manifest__item_8hpp.html" target="_top" xlink:title=" ">
<polygon fill="white" stroke="#666666" points="132.22,-180 34.8,-180 34.8,-162 132.22,-162 132.22,-180"/>
<text text-anchor="middle" x="83.51" y="-168" font-family="Helvetica,sans-Serif" font-size="10.00">manifest_item.hpp</text>
</a>
</g>
</g>
<!-- Node1&#45;&gt;Node3 -->
<g id="edge2_Node000001_Node000003" class="edge">
<title>Node1&#45;&gt;Node3</title>
<g id="a_edge2_Node000001_Node000003"><a xlink:title=" ">
<path fill="none" stroke="#63b8ff" d="M83.51,-205.86C83.51,-197.13 83.51,-187.1 83.51,-180.24"/>
<polygon fill="#63b8ff" stroke="#63b8ff" points="80.01,-205.87 83.51,-215.88 87.01,-205.88 80.01,-205.87"/>
</a>
</g>
</g>
<!-- Node9 -->
<g id="Node000009" class="node">
<title>Node9</title>
<g id="a_Node000009"><a xlink:href="xml_8hpp.html" target="_top" xlink:title=" ">
<polygon fill="white" stroke="#666666" points="201.02,-180 149.99,-180 149.99,-162 201.02,-162 201.02,-180"/>
<text text-anchor="middle" x="175.51" y="-168" font-family="Helvetica,sans-Serif" font-size="10.00">xml.hpp</text>
</a>
</g>
</g>
<!-- Node1&#45;&gt;Node9 -->
<g id="edge12_Node000001_Node000009" class="edge">
<title>Node1&#45;&gt;Node9</title>
<g id="a_edge12_Node000001_Node000009"><a xlink:title=" ">
<path fill="none" stroke="#63b8ff" d="M106.74,-210.87C123.89,-201.17 146.69,-188.29 161.23,-180.07"/>
<polygon fill="#63b8ff" stroke="#63b8ff" points="104.87,-207.91 97.88,-215.88 108.31,-214 104.87,-207.91"/>
</a>
</g>
</g>
<!-- Node3&#45;&gt;Node2 -->
<g id="edge3_Node000003_Node000002" class="edge">
<title>Node3&#45;&gt;Node2</title>
<g id="a_edge3_Node000003_Node000002"><a xlink:title=" ">
<path fill="none" stroke="#63b8ff" d="M68.88,-154.35C62.27,-146.42 54.95,-136.3 50.51,-126 34.16,-88.09 31.16,-37.78 30.62,-18.25"/>
<polygon fill="#63b8ff" stroke="#63b8ff" points="66.38,-156.8 75.62,-162 71.64,-152.18 66.38,-156.8"/>
</a>
</g>
</g>
<!-- Node4 -->
<g id="Node000004" class="node">
<title>Node4</title>
<g id="a_Node000004"><a xlink:href="container_8cpp.html" target="_top" xlink:title=" ">
<polygon fill="white" stroke="#666666" points="157.5,-18 81.51,-18 81.51,0 157.5,0 157.5,-18"/>
<text text-anchor="middle" x="119.51" y="-6" font-family="Helvetica,sans-Serif" font-size="10.00">container.cpp</text>
</a>
</g>
</g>
<!-- Node3&#45;&gt;Node4 -->
<g id="edge4_Node000003_Node000004" class="edge">
<title>Node3&#45;&gt;Node4</title>
<g id="a_edge4_Node000003_Node000004"><a xlink:title=" ">
<path fill="none" stroke="#63b8ff" d="M87.62,-151.74C95.41,-117.12 112.05,-43.16 117.63,-18.33"/>
<polygon fill="#63b8ff" stroke="#63b8ff" points="84.12,-151.32 85.34,-161.85 90.95,-152.86 84.12,-151.32"/>
</a>
</g>
</g>
<!-- Node5 -->
<g id="Node000005" class="node">
<title>Node5</title>
<g id="a_Node000005"><a xlink:href="package_8hpp.html" target="_top" xlink:title=" ">
<polygon fill="white" stroke="#666666" points="243.28,-126 169.74,-126 169.74,-108 243.28,-108 243.28,-126"/>
<text text-anchor="middle" x="206.51" y="-114" font-family="Helvetica,sans-Serif" font-size="10.00">package.hpp</text>
</a>
</g>
</g>
<!-- Node3&#45;&gt;Node5 -->
<g id="edge5_Node000003_Node000005" class="edge">
<title>Node3&#45;&gt;Node5</title>
<g id="a_edge5_Node000003_Node000005"><a xlink:title=" ">
<path fill="none" stroke="#63b8ff" d="M111.77,-158.05C134.93,-148.26 167.08,-134.67 187.33,-126.11"/>
<polygon fill="#63b8ff" stroke="#63b8ff" points="110.3,-154.87 102.46,-161.99 113.03,-161.32 110.3,-154.87"/>
</a>
</g>
</g>
<!-- Node6 -->
<g id="Node000006" class="node">
<title>Node6</title>
<g id="a_Node000006"><a xlink:href="container_8hpp.html" target="_top" xlink:title=" ">
<polygon fill="white" stroke="#666666" points="244.56,-72 168.45,-72 168.45,-54 244.56,-54 244.56,-72"/>
<text text-anchor="middle" x="206.51" y="-60" font-family="Helvetica,sans-Serif" font-size="10.00">container.hpp</text>
</a>
</g>
</g>
<!-- Node5&#45;&gt;Node6 -->
<g id="edge6_Node000005_Node000006" class="edge">
<title>Node5&#45;&gt;Node6</title>
<g id="a_edge6_Node000005_Node000006"><a xlink:title=" ">
<path fill="none" stroke="#63b8ff" d="M206.51,-97.86C206.51,-89.13 206.51,-79.1 206.51,-72.24"/>
<polygon fill="#63b8ff" stroke="#63b8ff" points="203.01,-97.87 206.51,-107.88 210.01,-97.88 203.01,-97.87"/>
</a>
</g>
</g>
<!-- Node8 -->
<g id="Node000008" class="node">
<title>Node8</title>
<g id="a_Node000008"><a xlink:href="xml_8cpp.html" target="_top" xlink:title=" ">
<polygon fill="white" stroke="#666666" points="305.96,-18 255.05,-18 255.05,0 305.96,0 305.96,-18"/>
<text text-anchor="middle" x="280.51" y="-6" font-family="Helvetica,sans-Serif" font-size="10.00">xml.cpp</text>
</a>
</g>
</g>
<!-- Node5&#45;&gt;Node8 -->
<g id="edge11_Node000005_Node000008" class="edge">
<title>Node5&#45;&gt;Node8</title>
<g id="a_edge11_Node000005_Node000008"><a xlink:title=" ">
<path fill="none" stroke="#63b8ff" d="M225.43,-101.41C234.79,-93.48 245.71,-83.05 253.51,-72 265.83,-54.54 274.28,-30.57 278.13,-18.17"/>
<polygon fill="#63b8ff" stroke="#63b8ff" points="222.96,-98.91 217.42,-107.94 227.38,-104.34 222.96,-98.91"/>
</a>
</g>
</g>
<!-- Node6&#45;&gt;Node2 -->
<g id="edge8_Node000006_Node000002" class="edge">
<title>Node6&#45;&gt;Node2</title>
<g id="a_edge8_Node000006_Node000002"><a xlink:title=" ">
<path fill="none" stroke="#63b8ff" d="M169.53,-51.08C136.1,-41.2 87.64,-26.88 57.65,-18.02"/>
<polygon fill="#63b8ff" stroke="#63b8ff" points="168.81,-54.51 179.39,-53.99 170.79,-47.8 168.81,-54.51"/>
</a>
</g>
</g>
<!-- Node6&#45;&gt;Node4 -->
<g id="edge9_Node000006_Node000004" class="edge">
<title>Node6&#45;&gt;Node4</title>
<g id="a_edge9_Node000006_Node000004"><a xlink:title=" ">
<path fill="none" stroke="#63b8ff" d="M184.08,-48.6C167.92,-38.94 146.63,-26.21 133.01,-18.07"/>
<polygon fill="#63b8ff" stroke="#63b8ff" points="182.53,-51.75 192.91,-53.88 186.13,-45.74 182.53,-51.75"/>
</a>
</g>
</g>
<!-- Node7 -->
<g id="Node000007" class="node">
<title>Node7</title>
<g id="a_Node000007"><a xlink:href="binder_8cpp.html" target="_top" xlink:title=" ">
<polygon fill="white" stroke="#666666" points="237.66,-18 175.35,-18 175.35,0 237.66,0 237.66,-18"/>
<text text-anchor="middle" x="206.51" y="-6" font-family="Helvetica,sans-Serif" font-size="10.00">binder.cpp</text>
</a>
</g>
</g>
<!-- Node6&#45;&gt;Node7 -->
<g id="edge7_Node000006_Node000007" class="edge">
<title>Node6&#45;&gt;Node7</title>
<g id="a_edge7_Node000006_Node000007"><a xlink:title=" ">
<path fill="none" stroke="#63b8ff" d="M206.51,-43.86C206.51,-35.13 206.51,-25.1 206.51,-18.24"/>
<polygon fill="#63b8ff" stroke="#63b8ff" points="203.01,-43.87 206.51,-53.88 210.01,-43.88 203.01,-43.87"/>
</a>
</g>
</g>
<!-- Node6&#45;&gt;Node8 -->
<g id="edge10_Node000006_Node000008" class="edge">
<title>Node6&#45;&gt;Node8</title>
<g id="a_edge10_Node000006_Node000008"><a xlink:title=" ">
<path fill="none" stroke="#63b8ff" d="M226.3,-48.09C239.86,-38.56 257.39,-26.25 268.78,-18.24"/>
<polygon fill="#63b8ff" stroke="#63b8ff" points="224.24,-45.26 218.07,-53.88 228.26,-50.99 224.24,-45.26"/>
</a>
</g>
</g>
<!-- Node9&#45;&gt;Node2 -->
<g id="edge13_Node000009_Node000002" class="edge">
<title>Node9&#45;&gt;Node2</title>
<g id="a_edge13_Node000009_Node000002"><a xlink:title=" ">
<path fill="none" stroke="#63b8ff" d="M161.34,-154.37C131.11,-121.01 61.15,-43.81 38.06,-18.33"/>
<polygon fill="#63b8ff" stroke="#63b8ff" points="158.81,-156.79 168.12,-161.85 164,-152.09 158.81,-156.79"/>
</a>
</g>
</g>
<!-- Node9&#45;&gt;Node4 -->
<g id="edge14_Node000009_Node000004" class="edge">
<title>Node9&#45;&gt;Node4</title>
<g id="a_edge14_Node000009_Node000004"><a xlink:title=" ">
<path fill="none" stroke="#63b8ff" d="M169.27,-152.19C157.22,-117.76 131.15,-43.27 122.42,-18.33"/>
<polygon fill="#63b8ff" stroke="#63b8ff" points="166.05,-153.56 172.65,-161.85 172.65,-151.25 166.05,-153.56"/>
</a>
</g>
</g>
<!-- Node9&#45;&gt;Node5 -->
<g id="edge15_Node000009_Node000005" class="edge">
<title>Node9&#45;&gt;Node5</title>
<g id="a_edge15_Node000009_Node000005"><a xlink:title=" ">
<path fill="none" stroke="#63b8ff" d="M185.64,-153.01C190.99,-144.03 197.32,-133.41 201.6,-126.24"/>
<polygon fill="#63b8ff" stroke="#63b8ff" points="182.47,-151.49 180.35,-161.88 188.48,-155.08 182.47,-151.49"/>
</a>
</g>
</g>
<!-- Node9&#45;&gt;Node8 -->
<g id="edge16_Node000009_Node000008" class="edge">
<title>Node9&#45;&gt;Node8</title>
<g id="a_edge16_Node000009_Node000008"><a xlink:title=" ">
<path fill="none" stroke="#63b8ff" d="M207.37,-157.8C222.75,-150.55 240.44,-140.01 252.51,-126 280.23,-93.83 281.51,-38.8 280.92,-18.15"/>
<polygon fill="#63b8ff" stroke="#63b8ff" points="205.88,-154.64 198.16,-161.9 208.72,-161.03 205.88,-154.64"/>
</a>
</g>
</g>
</g>
</svg>
