<?xml version="1.0" encoding="UTF-8" standalone="no"?>
<!DOCTYPE svg PUBLIC "-//W3C//DTD SVG 1.1//EN"
 "http://www.w3.org/Graphics/SVG/1.1/DTD/svg11.dtd">
<!-- Generated by graphviz version 2.48.0 (20210717.1556)
 -->
<!-- Title: file_metadata.hpp Pages: 1 -->
<svg width="322pt" height="296pt"
 viewBox="0.00 0.00 322.38 296.00" xmlns="http://www.w3.org/2000/svg" xmlns:xlink="http://www.w3.org/1999/xlink">
<g id="graph0" class="graph" transform="scale(1 1) rotate(0) translate(4 292)">
<title>file_metadata.hpp</title>
<!-- Node1 -->
<g id="Node000001" class="node">
<title>Node1</title>
<g id="a_Node000001"><a xlink:title=" ">
<polygon fill="#999999" stroke="#666666" points="154.25,-288 59.24,-288 59.24,-270 154.25,-270 154.25,-288"/>
<text text-anchor="middle" x="106.75" y="-276" font-family="Helvetica,sans-Serif" font-size="10.00">file_metadata.hpp</text>
</a>
</g>
</g>
<!-- Node2 -->
<g id="Node000002" class="node">
<title>Node2</title>
<g id="a_Node000002"><a xlink:href="manifest_8hpp.html" target="_top" xlink:title=" ">
<polygon fill="white" stroke="#666666" points="183.5,-234 109.99,-234 109.99,-216 183.5,-216 183.5,-234"/>
<text text-anchor="middle" x="146.75" y="-222" font-family="Helvetica,sans-Serif" font-size="10.00">manifest.hpp</text>
</a>
</g>
</g>
<!-- Node1&#45;&gt;Node2 -->
<g id="edge1_Node000001_Node000002" class="edge">
<title>Node1&#45;&gt;Node2</title>
<g id="a_edge1_Node000001_Node000002"><a xlink:title=" ">
<path fill="none" stroke="#63b8ff" d="M119.16,-261.87C126.2,-252.71 134.72,-241.64 140.41,-234.24"/>
<polygon fill="#63b8ff" stroke="#63b8ff" points="116.32,-259.81 113,-269.88 121.87,-264.08 116.32,-259.81"/>
</a>
</g>
</g>
<!-- Node10 -->
<g id="Node000010" class="node">
<title>Node10</title>
<g id="a_Node000010"><a xlink:href="xml_8hpp.html" target="_top" xlink:title=" ">
<polygon fill="white" stroke="#666666" points="87.26,-180 36.23,-180 36.23,-162 87.26,-162 87.26,-180"/>
<text text-anchor="middle" x="61.75" y="-168" font-family="Helvetica,sans-Serif" font-size="10.00">xml.hpp</text>
</a>
</g>
</g>
<!-- Node1&#45;&gt;Node10 -->
<g id="edge14_Node000001_Node000010" class="edge">
<title>Node1&#45;&gt;Node10</title>
<g id="a_edge14_Node000001_Node000010"><a xlink:title=" ">
<path fill="none" stroke="#63b8ff" d="M99.25,-260.34C89.41,-237.17 72.54,-197.43 65.26,-180.28"/>
<polygon fill="#63b8ff" stroke="#63b8ff" points="96.09,-261.85 103.22,-269.68 102.53,-259.11 96.09,-261.85"/>
</a>
</g>
</g>
<!-- Node3 -->
<g id="Node000003" class="node">
<title>Node3</title>
<g id="a_Node000003"><a xlink:href="container_8cpp.html" target="_top" xlink:title=" ">
<polygon fill="white" stroke="#666666" points="75.74,-18 -0.25,-18 -0.25,0 75.74,0 75.74,-18"/>
<text text-anchor="middle" x="37.75" y="-6" font-family="Helvetica,sans-Serif" font-size="10.00">container.cpp</text>
</a>
</g>
</g>
<!-- Node2&#45;&gt;Node3 -->
<g id="edge2_Node000002_Node000003" class="edge">
<title>Node2&#45;&gt;Node3</title>
<g id="a_edge2_Node000002_Node000003"><a xlink:title=" ">
<path fill="none" stroke="#63b8ff" d="M99.75,-219.62C73.64,-214.51 43.18,-203.53 26.75,-180 -9.49,-128.11 22.54,-44.18 34.03,-18.04"/>
<polygon fill="#63b8ff" stroke="#63b8ff" points="99.43,-223.12 109.88,-221.36 100.62,-216.22 99.43,-223.12"/>
</a>
</g>
</g>
<!-- Node4 -->
<g id="Node000004" class="node">
<title>Node4</title>
<g id="a_Node000004"><a xlink:href="navigation_8hpp.html" target="_top" xlink:title=" ">
<polygon fill="white" stroke="#666666" points="223.3,-126 142.19,-126 142.19,-108 223.3,-108 223.3,-126"/>
<text text-anchor="middle" x="182.75" y="-114" font-family="Helvetica,sans-Serif" font-size="10.00">navigation.hpp</text>
</a>
</g>
</g>
<!-- Node2&#45;&gt;Node4 -->
<g id="edge3_Node000002_Node000004" class="edge">
<title>Node2&#45;&gt;Node4</title>
<g id="a_edge3_Node000002_Node000004"><a xlink:title=" ">
<path fill="none" stroke="#63b8ff" d="M152.85,-206.03C160.74,-182.81 174.14,-143.35 179.93,-126.28"/>
<polygon fill="#63b8ff" stroke="#63b8ff" points="149.47,-205.09 149.57,-215.68 156.1,-207.34 149.47,-205.09"/>
</a>
</g>
</g>
<!-- Node7 -->
<g id="Node000007" class="node">
<title>Node7</title>
<g id="a_Node000007"><a xlink:href="xml_8cpp.html" target="_top" xlink:title=" ">
<polygon fill="white" stroke="#666666" points="139.2,-72 88.29,-72 88.29,-54 139.2,-54 139.2,-72"/>
<text text-anchor="middle" x="113.75" y="-60" font-family="Helvetica,sans-Serif" font-size="10.00">xml.cpp</text>
</a>
</g>
</g>
<!-- Node2&#45;&gt;Node7 -->
<g id="edge13_Node000002_Node000007" class="edge">
<title>Node2&#45;&gt;Node7</title>
<g id="a_edge13_Node000002_Node000007"><a xlink:title=" ">
<path fill="none" stroke="#63b8ff" d="M142.98,-205.74C135.84,-171.12 120.59,-97.16 115.46,-72.33"/>
<polygon fill="#63b8ff" stroke="#63b8ff" points="139.62,-206.76 145.06,-215.85 146.47,-205.34 139.62,-206.76"/>
</a>
</g>
</g>
<!-- Node8 -->
<g id="Node000008" class="node">
<title>Node8</title>
<g id="a_Node000008"><a xlink:href="package_8hpp.html" target="_top" xlink:title=" ">
<polygon fill="white" stroke="#666666" points="314.52,-126 240.98,-126 240.98,-108 314.52,-108 314.52,-126"/>
<text text-anchor="middle" x="277.75" y="-114" font-family="Helvetica,sans-Serif" font-size="10.00">package.hpp</text>
</a>
</g>
</g>
<!-- Node2&#45;&gt;Node8 -->
<g id="edge8_Node000002_Node000008" class="edge">
<title>Node2&#45;&gt;Node8</title>
<g id="a_edge8_Node000002_Node000008"><a xlink:title=" ">
<path fill="none" stroke="#63b8ff" d="M164.83,-209.37C192.73,-186.79 245.37,-144.2 267.51,-126.28"/>
<polygon fill="#63b8ff" stroke="#63b8ff" points="162.6,-206.67 157.03,-215.68 167,-212.11 162.6,-206.67"/>
</a>
</g>
</g>
<!-- Node9 -->
<g id="Node000009" class="node">
<title>Node9</title>
<g id="a_Node000009"><a xlink:href="spine_8hpp.html" target="_top" xlink:title=" ">
<polygon fill="white" stroke="#666666" points="305.62,-180 245.88,-180 245.88,-162 305.62,-162 305.62,-180"/>
<text text-anchor="middle" x="275.75" y="-168" font-family="Helvetica,sans-Serif" font-size="10.00">spine.hpp</text>
</a>
</g>
</g>
<!-- Node2&#45;&gt;Node9 -->
<g id="edge11_Node000002_Node000009" class="edge">
<title>Node2&#45;&gt;Node9</title>
<g id="a_edge11_Node000002_Node000009"><a xlink:title=" ">
<path fill="none" stroke="#63b8ff" d="M176.06,-212.18C200.38,-202.38 234.3,-188.71 255.64,-180.11"/>
<polygon fill="#63b8ff" stroke="#63b8ff" points="174.59,-209 166.62,-215.99 177.2,-215.5 174.59,-209"/>
</a>
</g>
</g>
<!-- Node5 -->
<g id="Node000005" class="node">
<title>Node5</title>
<g id="a_Node000005"><a xlink:href="container_8hpp.html" target="_top" xlink:title=" ">
<polygon fill="white" stroke="#666666" points="232.8,-72 156.69,-72 156.69,-54 232.8,-54 232.8,-72"/>
<text text-anchor="middle" x="194.75" y="-60" font-family="Helvetica,sans-Serif" font-size="10.00">container.hpp</text>
</a>
</g>
</g>
<!-- Node4&#45;&gt;Node5 -->
<g id="edge4_Node000004_Node000005" class="edge">
<title>Node4&#45;&gt;Node5</title>
<g id="a_edge4_Node000004_Node000005"><a xlink:title=" ">
<path fill="none" stroke="#63b8ff" d="M186.93,-97.86C188.95,-89.13 191.26,-79.1 192.84,-72.24"/>
<polygon fill="#63b8ff" stroke="#63b8ff" points="183.46,-97.34 184.62,-107.88 190.28,-98.92 183.46,-97.34"/>
</a>
</g>
</g>
<!-- Node4&#45;&gt;Node7 -->
<g id="edge7_Node000004_Node000007" class="edge">
<title>Node4&#45;&gt;Node7</title>
<g id="a_edge7_Node000004_Node000007"><a xlink:title=" ">
<path fill="none" stroke="#63b8ff" d="M163.93,-101.82C151.33,-92.33 135.2,-80.17 124.68,-72.24"/>
<polygon fill="#63b8ff" stroke="#63b8ff" points="161.87,-104.65 171.96,-107.88 166.09,-99.06 161.87,-104.65"/>
</a>
</g>
</g>
<!-- Node5&#45;&gt;Node3 -->
<g id="edge6_Node000005_Node000003" class="edge">
<title>Node5&#45;&gt;Node3</title>
<g id="a_edge6_Node000005_Node000003"><a xlink:title=" ">
<path fill="none" stroke="#63b8ff" d="M160.99,-50.82C131.19,-40.95 88.48,-26.8 61.96,-18.02"/>
<polygon fill="#63b8ff" stroke="#63b8ff" points="159.97,-54.17 170.56,-53.99 162.17,-47.52 159.97,-54.17"/>
</a>
</g>
</g>
<!-- Node6 -->
<g id="Node000006" class="node">
<title>Node6</title>
<g id="a_Node000006"><a xlink:href="binder_8cpp.html" target="_top" xlink:title=" ">
<polygon fill="white" stroke="#666666" points="225.9,-18 163.59,-18 163.59,0 225.9,0 225.9,-18"/>
<text text-anchor="middle" x="194.75" y="-6" font-family="Helvetica,sans-Serif" font-size="10.00">binder.cpp</text>
</a>
</g>
</g>
<!-- Node5&#45;&gt;Node6 -->
<g id="edge5_Node000005_Node000006" class="edge">
<title>Node5&#45;&gt;Node6</title>
<g id="a_edge5_Node000005_Node000006"><a xlink:title=" ">
<path fill="none" stroke="#63b8ff" d="M194.75,-43.86C194.75,-35.13 194.75,-25.1 194.75,-18.24"/>
<polygon fill="#63b8ff" stroke="#63b8ff" points="191.25,-43.87 194.75,-53.88 198.25,-43.88 191.25,-43.87"/>
</a>
</g>
</g>
<!-- Node8&#45;&gt;Node5 -->
<g id="edge9_Node000008_Node000005" class="edge">
<title>Node8&#45;&gt;Node5</title>
<g id="a_edge9_Node000008_Node000005"><a xlink:title=" ">
<path fill="none" stroke="#63b8ff" d="M255.92,-102.33C240.55,-92.7 220.5,-80.14 207.62,-72.07"/>
<polygon fill="#63b8ff" stroke="#63b8ff" points="254.44,-105.53 264.78,-107.88 258.16,-99.6 254.44,-105.53"/>
</a>
</g>
</g>
<!-- Node8&#45;&gt;Node7 -->
<g id="edge10_Node000008_Node000007" class="edge">
<title>Node8&#45;&gt;Node7</title>
<g id="a_edge10_Node000008_Node000007"><a xlink:title=" ">
<path fill="none" stroke="#63b8ff" d="M242.89,-104.95C211.75,-95.07 166.86,-80.84 139.04,-72.02"/>
<polygon fill="#63b8ff" stroke="#63b8ff" points="241.89,-108.3 252.48,-107.99 244.01,-101.63 241.89,-108.3"/>
</a>
</g>
</g>
<!-- Node9&#45;&gt;Node8 -->
<g id="edge12_Node000009_Node000008" class="edge">
<title>Node9&#45;&gt;Node8</title>
<g id="a_edge12_Node000009_Node000008"><a xlink:title=" ">
<path fill="none" stroke="#63b8ff" d="M276.44,-151.86C276.78,-143.13 277.17,-133.1 277.43,-126.24"/>
<polygon fill="#63b8ff" stroke="#63b8ff" points="272.95,-151.75 276.06,-161.88 279.94,-152.02 272.95,-151.75"/>
</a>
</g>
</g>
<!-- Node10&#45;&gt;Node3 -->
<g id="edge15_Node000010_Node000003" class="edge">
<title>Node10&#45;&gt;Node3</title>
<g id="a_edge15_Node000010_Node000003"><a xlink:title=" ">
<path fill="none" stroke="#63b8ff" d="M59.01,-151.74C53.81,-117.12 42.72,-43.16 39,-18.33"/>
<polygon fill="#63b8ff" stroke="#63b8ff" points="55.58,-152.48 60.52,-161.85 62.5,-151.44 55.58,-152.48"/>
</a>
</g>
</g>
<!-- Node10&#45;&gt;Node4 -->
<g id="edge16_Node000010_Node000004" class="edge">
<title>Node10&#45;&gt;Node4</title>
<g id="a_edge16_Node000010_Node000004"><a xlink:title=" ">
<path fill="none" stroke="#63b8ff" d="M89.86,-157.92C112.62,-148.14 144.05,-134.63 163.88,-126.11"/>
<polygon fill="#63b8ff" stroke="#63b8ff" points="88.19,-154.82 80.39,-161.99 90.96,-161.26 88.19,-154.82"/>
</a>
</g>
</g>
<!-- Node10&#45;&gt;Node7 -->
<g id="edge18_Node000010_Node000007" class="edge">
<title>Node10&#45;&gt;Node7</title>
<g id="a_edge18_Node000010_Node000007"><a xlink:title=" ">
<path fill="none" stroke="#63b8ff" d="M70.26,-152.65C81.6,-129.52 101.23,-89.51 109.68,-72.28"/>
<polygon fill="#63b8ff" stroke="#63b8ff" points="67.09,-151.16 65.83,-161.68 73.37,-154.25 67.09,-151.16"/>
</a>
</g>
</g>
<!-- Node10&#45;&gt;Node8 -->
<g id="edge17_Node000010_Node000008" class="edge">
<title>Node10&#45;&gt;Node8</title>
<g id="a_edge17_Node000010_Node000008"><a xlink:title=" ">
<path fill="none" stroke="#63b8ff" d="M97.16,-161.48C137.95,-151.65 204.47,-135.64 244.38,-126.03"/>
<polygon fill="#63b8ff" stroke="#63b8ff" points="96.28,-158.09 87.37,-163.83 97.91,-164.89 96.28,-158.09"/>
</a>
</g>
</g>
</g>
</svg>
