<?xml version="1.0" encoding="UTF-8" standalone="no"?>
<!DOCTYPE svg PUBLIC "-//W3C//DTD SVG 1.1//EN"
 "http://www.w3.org/Graphics/SVG/1.1/DTD/svg11.dtd">
<!-- Generated by graphviz version 2.48.0 (20210717.1556)
 -->
<!-- Title: Graph Legend Pages: 1 -->
<svg width="510pt" height="154pt"
 viewBox="0.00 0.00 509.69 154.00" xmlns="http://www.w3.org/2000/svg" xmlns:xlink="http://www.w3.org/1999/xlink">
<g id="graph0" class="graph" transform="scale(1 1) rotate(0) translate(4 150)">
<title>Graph Legend</title>
<!-- Node9 -->
<g id="Node000009" class="node">
<title>Node9</title>
<g id="a_Node000009"><a xlink:title=" ">
<polygon fill="#999999" stroke="#666666" points="293.43,-18 238.6,-18 238.6,0 293.43,0 293.43,-18"/>
<text text-anchor="middle" x="266.01" y="-6" font-family="Helvetica,sans-Serif" font-size="10.00">Inherited</text>
</a>
</g>
</g>
<!-- Node10 -->
<g id="Node000010" class="node">
<title>Node10</title>
<g id="a_Node000010"><a xlink:title=" ">
<polygon fill="white" stroke="#666666" points="66.04,-82 -0.01,-82 -0.01,-64 66.04,-64 66.04,-82"/>
<text text-anchor="middle" x="33.01" y="-70" font-family="Helvetica,sans-Serif" font-size="10.00">PublicBase</text>
</a>
</g>
</g>
<!-- Node10&#45;&gt;Node9 -->
<g id="edge1" class="edge">
<title>Node10&#45;&gt;Node9</title>
<g id="a_edge1"><a xlink:title=" ">
<path fill="none" stroke="#63b8ff" d="M73.37,-61.26C120.6,-48.69 197.56,-28.21 238.45,-17.33"/>
<polygon fill="#63b8ff" stroke="#63b8ff" points="72.24,-57.94 63.48,-63.89 74.04,-64.71 72.24,-57.94"/>
</a>
</g>
</g>
<!-- Node11 -->
<g id="Node000011" class="node">
<title>Node11</title>
<g id="a_Node000011"><a xlink:title=" ">
<polygon fill="#fff0f0" stroke="red" points="63.17,-146 2.86,-146 2.86,-128 63.17,-128 63.17,-146"/>
<text text-anchor="middle" x="33.01" y="-134" font-family="Helvetica,sans-Serif" font-size="10.00">Truncated</text>
</a>
</g>
</g>
<!-- Node11&#45;&gt;Node10 -->
<g id="edge2" class="edge">
<title>Node11&#45;&gt;Node10</title>
<g id="a_edge2"><a xlink:title=" ">
<path fill="none" stroke="#63b8ff" d="M33.01,-117.83C33.01,-106.08 33.01,-91.34 33.01,-82.31"/>
<polygon fill="#63b8ff" stroke="#63b8ff" points="29.51,-117.89 33.01,-127.89 36.51,-117.89 29.51,-117.89"/>
</a>
</g>
</g>
<!-- Node13 -->
<g id="node4" class="node">
<title>Node13</title>
<g id="a_node4"><a xlink:title=" ">
<polygon fill="white" stroke="#666666" points="165.61,-82 84.42,-82 84.42,-64 165.61,-64 165.61,-82"/>
<text text-anchor="middle" x="125.01" y="-70" font-family="Helvetica,sans-Serif" font-size="10.00">ProtectedBase</text>
</a>
</g>
</g>
<!-- Node13&#45;&gt;Node9 -->
<g id="edge3" class="edge">
<title>Node13&#45;&gt;Node9</title>
<g id="a_edge3"><a xlink:title=" ">
<path fill="none" stroke="darkgreen" d="M152.71,-59.82C180.78,-47.48 223.4,-28.74 247.58,-18.11"/>
<polygon fill="darkgreen" stroke="darkgreen" points="151.19,-56.67 143.45,-63.89 154.01,-63.07 151.19,-56.67"/>
</a>
</g>
</g>
<!-- Node14 -->
<g id="node5" class="node">
<title>Node14</title>
<g id="a_node5"><a xlink:title=" ">
<polygon fill="white" stroke="#666666" points="253.93,-82 184.1,-82 184.1,-64 253.93,-64 253.93,-82"/>
<text text-anchor="middle" x="219.01" y="-70" font-family="Helvetica,sans-Serif" font-size="10.00">PrivateBase</text>
</a>
</g>
</g>
<!-- Node14&#45;&gt;Node9 -->
<g id="edge4" class="edge">
<title>Node14&#45;&gt;Node9</title>
<g id="a_edge4"><a xlink:title=" ">
<path fill="none" stroke="#8b1a1a" d="M231.43,-55.62C240.53,-43.61 252.51,-27.81 259.72,-18.31"/>
<polygon fill="#8b1a1a" stroke="#8b1a1a" points="228.41,-53.81 225.16,-63.89 233.99,-58.04 228.41,-53.81"/>
</a>
</g>
</g>
<!-- Node15 -->
<g id="Node000015" class="node">
<title>Node15</title>
<g id="a_Node000015"><a xlink:title=" ">
<polygon fill="#e0e0e0" stroke="#999999" points="355.84,-82 272.19,-82 272.19,-64 355.84,-64 355.84,-82"/>
<text text-anchor="middle" x="314.01" y="-70" font-family="Helvetica,sans-Serif" font-size="10.00">Undocumented</text>
</a>
</g>
</g>
<!-- Node15&#45;&gt;Node9 -->
<g id="edge5" class="edge">
<title>Node15&#45;&gt;Node9</title>
<g id="a_edge5"><a xlink:title=" ">
<path fill="none" stroke="#63b8ff" d="M301.61,-55.97C292.28,-43.92 279.88,-27.9 272.44,-18.31"/>
<polygon fill="#63b8ff" stroke="#63b8ff" points="298.85,-58.13 307.74,-63.89 304.39,-53.84 298.85,-58.13"/>
</a>
</g>
</g>
<!-- Node16 -->
<g id="node7" class="node">
<title>Node16</title>
<g id="a_node7"><a xlink:title=" ">
<polygon fill="white" stroke="#666666" points="444.49,-82 373.54,-82 373.54,-64 444.49,-64 444.49,-82"/>
<text text-anchor="middle" x="409.01" y="-70" font-family="Helvetica,sans-Serif" font-size="10.00">Templ&lt; int &gt;</text>
</a>
</g>
</g>
<!-- Node16&#45;&gt;Node9 -->
<g id="edge6" class="edge">
<title>Node16&#45;&gt;Node9</title>
<g id="a_edge6"><a xlink:title=" ">
<path fill="none" stroke="#63b8ff" d="M380.92,-59.82C352.46,-47.48 309.23,-28.74 284.71,-18.11"/>
<polygon fill="#63b8ff" stroke="#63b8ff" points="379.75,-63.13 390.32,-63.89 382.54,-56.71 379.75,-63.13"/>
</a>
</g>
</g>
<!-- Node17 -->
<g id="node8" class="node">
<title>Node17</title>
<g id="a_node8"><a xlink:title=" ">
<polygon fill="white" stroke="#666666" points="441.68,-146 376.35,-146 376.35,-128 441.68,-128 441.68,-146"/>
<text text-anchor="middle" x="409.01" y="-134" font-family="Helvetica,sans-Serif" font-size="10.00">Templ&lt; T &gt;</text>
</a>
</g>
</g>
<!-- Node17&#45;&gt;Node16 -->
<g id="edge7" class="edge">
<title>Node17&#45;&gt;Node16</title>
<g id="a_edge7"><a xlink:title=" ">
<path fill="none" stroke="orange" stroke-dasharray="5,2" d="M409.01,-117.83C409.01,-106.08 409.01,-91.34 409.01,-82.31"/>
<polygon fill="orange" stroke="orange" points="405.51,-117.89 409.01,-127.89 412.51,-117.89 405.51,-117.89"/>
</a>
</g>
<text text-anchor="middle" x="422.91" y="-102" font-family="Helvetica,sans-Serif" font-size="10.00" fill="grey">&lt; int &gt;</text>
</g>
<!-- Node18 -->
<g id="node9" class="node">
<title>Node18</title>
<g id="a_node9"><a xlink:title=" ">
<polygon fill="white" stroke="#666666" points="501.86,-82 462.17,-82 462.17,-64 501.86,-64 501.86,-82"/>
<text text-anchor="middle" x="482.01" y="-70" font-family="Helvetica,sans-Serif" font-size="10.00">Used</text>
</a>
</g>
</g>
<!-- Node18&#45;&gt;Node9 -->
<g id="edge8" class="edge">
<title>Node18&#45;&gt;Node9</title>
<g id="a_edge8"><a xlink:title=" ">
<path fill="none" stroke="#9a32cd" stroke-dasharray="5,2" d="M452.45,-63.51C410.54,-51.48 334.43,-29.64 293.62,-17.92"/>
<polygon fill="#9a32cd" stroke="#9a32cd" points="451.5,-66.88 462.08,-66.28 453.43,-60.16 451.5,-66.88"/>
</a>
</g>
<text text-anchor="middle" x="416.31" y="-38" font-family="Helvetica,sans-Serif" font-size="10.00" fill="grey">m_usedClass</text>
</g>
</g>
</svg>
