<?xml version="1.0" encoding="UTF-8" standalone="no"?>
<!DOCTYPE svg PUBLIC "-//W3C//DTD SVG 1.1//EN"
 "http://www.w3.org/Graphics/SVG/1.1/DTD/svg11.dtd">
<!-- Generated by graphviz version 2.48.0 (20210717.1556)
 -->
<!-- Title: imageinfo/imageinfo.hpp Pages: 1 -->
<svg width="310pt" height="80pt"
 viewBox="0.00 0.00 309.59 80.00" xmlns="http://www.w3.org/2000/svg" xmlns:xlink="http://www.w3.org/1999/xlink">
<g id="graph0" class="graph" transform="scale(1 1) rotate(0) translate(4 76)">
<title>imageinfo/imageinfo.hpp</title>
<!-- Node1 -->
<g id="Node000001" class="node">
<title>Node1</title>
<g id="a_Node000001"><a xlink:title=" ">
<polygon fill="#999999" stroke="#666666" points="192.97,-72 68.05,-72 68.05,-54 192.97,-54 192.97,-72"/>
<text text-anchor="middle" x="130.51" y="-60" font-family="Helvetica,sans-Serif" font-size="10.00">imageinfo/imageinfo.hpp</text>
</a>
</g>
</g>
<!-- Node2 -->
<g id="Node000002" class="node">
<title>Node2</title>
<g id="a_Node000002"><a xlink:href="comic_8cpp.html" target="_top" xlink:title=" ">
<polygon fill="white" stroke="#666666" points="61.02,-18 -0.01,-18 -0.01,0 61.02,0 61.02,-18"/>
<text text-anchor="middle" x="30.51" y="-6" font-family="Helvetica,sans-Serif" font-size="10.00">comic.cpp</text>
</a>
</g>
</g>
<!-- Node1&#45;&gt;Node2 -->
<g id="edge1_Node000001_Node000002" class="edge">
<title>Node1&#45;&gt;Node2</title>
<g id="a_edge1_Node000001_Node000002"><a xlink:title=" ">
<path fill="none" stroke="#63b8ff" d="M105.77,-49.14C87.07,-39.41 61.98,-26.37 46.02,-18.07"/>
<polygon fill="#63b8ff" stroke="#63b8ff" points="104.4,-52.37 114.88,-53.88 107.62,-46.16 104.4,-52.37"/>
</a>
</g>
</g>
<!-- Node3 -->
<g id="Node000003" class="node">
<title>Node3</title>
<g id="a_Node000003"><a xlink:href="main_8cpp.html" target="_top" xlink:title=" ">
<polygon fill="white" stroke="#666666" points="181.72,-18 79.29,-18 79.29,0 181.72,0 181.72,-18"/>
<text text-anchor="middle" x="130.51" y="-6" font-family="Helvetica,sans-Serif" font-size="10.00">imageinfo/main.cpp</text>
</a>
</g>
</g>
<!-- Node1&#45;&gt;Node3 -->
<g id="edge2_Node000001_Node000003" class="edge">
<title>Node1&#45;&gt;Node3</title>
<g id="a_edge2_Node000001_Node000003"><a xlink:title=" ">
<path fill="none" stroke="#63b8ff" d="M130.51,-43.86C130.51,-35.13 130.51,-25.1 130.51,-18.24"/>
<polygon fill="#63b8ff" stroke="#63b8ff" points="127.01,-43.87 130.51,-53.88 134.01,-43.88 127.01,-43.87"/>
</a>
</g>
</g>
<!-- Node4 -->
<g id="Node000004" class="node">
<title>Node4</title>
<g id="a_Node000004"><a xlink:href="tests_8cpp.html" target="_top" xlink:title=" ">
<polygon fill="white" stroke="#666666" points="301.66,-18 199.35,-18 199.35,0 301.66,0 301.66,-18"/>
<text text-anchor="middle" x="250.51" y="-6" font-family="Helvetica,sans-Serif" font-size="10.00">imageinfo/tests.cpp</text>
</a>
</g>
</g>
<!-- Node1&#45;&gt;Node4 -->
<g id="edge3_Node000001_Node000004" class="edge">
<title>Node1&#45;&gt;Node4</title>
<g id="a_edge3_Node000001_Node000004"><a xlink:title=" ">
<path fill="none" stroke="#63b8ff" d="M158.38,-49.92C180.96,-40.14 212.13,-26.63 231.8,-18.11"/>
<polygon fill="#63b8ff" stroke="#63b8ff" points="156.78,-46.8 148.99,-53.99 159.56,-53.22 156.78,-46.8"/>
</a>
</g>
</g>
</g>
</svg>
