<?xml version="1.0" encoding="UTF-8" standalone="no"?>
<!DOCTYPE svg PUBLIC "-//W3C//DTD SVG 1.1//EN"
 "http://www.w3.org/Graphics/SVG/1.1/DTD/svg11.dtd">
<!-- Generated by graphviz version 2.48.0 (20210717.1556)
 -->
<!-- Title: imageinfo/imageinfo.hpp Pages: 1 -->
<svg width="934pt" height="80pt"
 viewBox="0.00 0.00 933.52 80.00" xmlns="http://www.w3.org/2000/svg" xmlns:xlink="http://www.w3.org/1999/xlink">
<g id="graph0" class="graph" transform="scale(1 1) rotate(0) translate(4 76)">
<title>imageinfo/imageinfo.hpp</title>
<!-- Node1 -->
<g id="Node000001" class="node">
<title>Node1</title>
<g id="a_Node000001"><a xlink:title=" ">
<polygon fill="#999999" stroke="#666666" points="550.86,-72 425.94,-72 425.94,-54 550.86,-54 550.86,-72"/>
<text text-anchor="middle" x="488.4" y="-60" font-family="Helvetica,sans-Serif" font-size="10.00">imageinfo/imageinfo.hpp</text>
</a>
</g>
</g>
<!-- Node2 -->
<g id="Node000002" class="node">
<title>Node2</title>
<g id="a_Node000002"><a xlink:title=" ">
<polygon fill="#e0e0e0" stroke="#999999" points="58.71,-18 0.1,-18 0.1,0 58.71,0 58.71,-18"/>
<text text-anchor="middle" x="29.4" y="-6" font-family="Helvetica,sans-Serif" font-size="10.00">functional</text>
</a>
</g>
</g>
<!-- Node1&#45;&gt;Node2 -->
<g id="edge1_Node000001_Node000002" class="edge">
<title>Node1&#45;&gt;Node2</title>
<g id="a_edge1_Node000001_Node000002"><a xlink:title=" ">
<path fill="none" stroke="#63b8ff" d="M425.73,-57.48C345.26,-51.23 201.16,-38.51 68.73,-18.05"/>
<polygon fill="#63b8ff" stroke="#63b8ff" points="69.23,-14.59 58.81,-16.5 68.15,-21.51 69.23,-14.59"/>
</a>
</g>
</g>
<!-- Node3 -->
<g id="Node000003" class="node">
<title>Node3</title>
<g id="a_Node000003"><a xlink:title=" ">
<polygon fill="#e0e0e0" stroke="#999999" points="134.03,-18 76.78,-18 76.78,0 134.03,0 134.03,-18"/>
<text text-anchor="middle" x="105.4" y="-6" font-family="Helvetica,sans-Serif" font-size="10.00">algorithm</text>
</a>
</g>
</g>
<!-- Node1&#45;&gt;Node3 -->
<g id="edge2_Node000001_Node000003" class="edge">
<title>Node1&#45;&gt;Node3</title>
<g id="a_edge2_Node000001_Node000003"><a xlink:title=" ">
<path fill="none" stroke="#63b8ff" d="M425.66,-55.67C358.32,-48.51 248.04,-35.71 144.08,-18.16"/>
<polygon fill="#63b8ff" stroke="#63b8ff" points="144.49,-14.68 134.04,-16.45 143.31,-21.58 144.49,-14.68"/>
</a>
</g>
</g>
<!-- Node4 -->
<g id="Node000004" class="node">
<title>Node4</title>
<g id="a_Node000004"><a xlink:title=" ">
<polygon fill="#e0e0e0" stroke="#999999" points="201.24,-18 151.56,-18 151.56,0 201.24,0 201.24,-18"/>
<text text-anchor="middle" x="176.4" y="-6" font-family="Helvetica,sans-Serif" font-size="10.00">fstream</text>
</a>
</g>
</g>
<!-- Node1&#45;&gt;Node4 -->
<g id="edge3_Node000001_Node000004" class="edge">
<title>Node1&#45;&gt;Node4</title>
<g id="a_edge3_Node000001_Node000004"><a xlink:title=" ">
<path fill="none" stroke="#63b8ff" d="M429.61,-53.99C375.39,-46.3 292.47,-33.82 211.15,-18.01"/>
<polygon fill="#63b8ff" stroke="#63b8ff" points="211.73,-14.56 201.24,-16.07 210.38,-21.43 211.73,-14.56"/>
</a>
</g>
</g>
<!-- Node5 -->
<g id="Node000005" class="node">
<title>Node5</title>
<g id="a_Node000005"><a xlink:title=" ">
<polygon fill="#e0e0e0" stroke="#999999" points="259.86,-18 218.95,-18 218.95,0 259.86,0 259.86,-18"/>
<text text-anchor="middle" x="239.4" y="-6" font-family="Helvetica,sans-Serif" font-size="10.00">string</text>
</a>
</g>
</g>
<!-- Node1&#45;&gt;Node5 -->
<g id="edge4_Node000001_Node000005" class="edge">
<title>Node1&#45;&gt;Node5</title>
<g id="a_edge4_Node000001_Node000005"><a xlink:title=" ">
<path fill="none" stroke="#63b8ff" d="M443.11,-53.93C400.67,-46.14 335.25,-33.57 269.73,-18.17"/>
<polygon fill="#63b8ff" stroke="#63b8ff" points="270.18,-14.68 259.64,-15.78 268.56,-21.5 270.18,-14.68"/>
</a>
</g>
</g>
<!-- Node6 -->
<g id="Node000006" class="node">
<title>Node6</title>
<g id="a_Node000006"><a xlink:title=" ">
<polygon fill="#e0e0e0" stroke="#999999" points="318.92,-18 277.89,-18 277.89,0 318.92,0 318.92,-18"/>
<text text-anchor="middle" x="298.4" y="-6" font-family="Helvetica,sans-Serif" font-size="10.00">regex</text>
</a>
</g>
</g>
<!-- Node1&#45;&gt;Node6 -->
<g id="edge5_Node000001_Node000006" class="edge">
<title>Node1&#45;&gt;Node6</title>
<g id="a_edge5_Node000001_Node000006"><a xlink:title=" ">
<path fill="none" stroke="#63b8ff" d="M459.13,-53.99C423.79,-44.32 364.65,-28.13 328.81,-18.32"/>
<polygon fill="#63b8ff" stroke="#63b8ff" points="329.49,-14.88 318.93,-15.62 327.65,-21.63 329.49,-14.88"/>
</a>
</g>
</g>
<!-- Node7 -->
<g id="Node000007" class="node">
<title>Node7</title>
<g id="a_Node000007"><a xlink:title=" ">
<polygon fill="#e0e0e0" stroke="#999999" points="375.69,-18 337.12,-18 337.12,0 375.69,0 375.69,-18"/>
<text text-anchor="middle" x="356.4" y="-6" font-family="Helvetica,sans-Serif" font-size="10.00">utility</text>
</a>
</g>
</g>
<!-- Node1&#45;&gt;Node7 -->
<g id="edge6_Node000001_Node000007" class="edge">
<title>Node1&#45;&gt;Node7</title>
<g id="a_edge6_Node000001_Node000007"><a xlink:title=" ">
<path fill="none" stroke="#63b8ff" d="M468.07,-53.99C445.85,-45.24 410.09,-31.15 385.04,-21.28"/>
<polygon fill="#63b8ff" stroke="#63b8ff" points="386.28,-18.01 375.69,-17.6 383.71,-24.52 386.28,-18.01"/>
</a>
</g>
</g>
<!-- Node8 -->
<g id="Node000008" class="node">
<title>Node8</title>
<g id="a_Node000008"><a xlink:title=" ">
<polygon fill="#e0e0e0" stroke="#999999" points="480.51,-18 394.3,-18 394.3,0 480.51,0 480.51,-18"/>
<text text-anchor="middle" x="437.4" y="-6" font-family="Helvetica,sans-Serif" font-size="10.00">unordered_map</text>
</a>
</g>
</g>
<!-- Node1&#45;&gt;Node8 -->
<g id="edge7_Node000001_Node000008" class="edge">
<title>Node1&#45;&gt;Node8</title>
<g id="a_edge7_Node000001_Node000008"><a xlink:title=" ">
<path fill="none" stroke="#63b8ff" d="M480.44,-53.88C472.99,-46.29 461.69,-34.76 452.54,-25.43"/>
<polygon fill="#63b8ff" stroke="#63b8ff" points="454.99,-22.93 445.48,-18.24 449.99,-27.83 454.99,-22.93"/>
</a>
</g>
</g>
<!-- Node9 -->
<g id="Node000009" class="node">
<title>Node9</title>
<g id="a_Node000009"><a xlink:title=" ">
<polygon fill="#e0e0e0" stroke="#999999" points="579.9,-18 498.91,-18 498.91,0 579.9,0 579.9,-18"/>
<text text-anchor="middle" x="539.4" y="-6" font-family="Helvetica,sans-Serif" font-size="10.00">unordered_set</text>
</a>
</g>
</g>
<!-- Node1&#45;&gt;Node9 -->
<g id="edge8_Node000001_Node000009" class="edge">
<title>Node1&#45;&gt;Node9</title>
<g id="a_edge8_Node000001_Node000009"><a xlink:title=" ">
<path fill="none" stroke="#63b8ff" d="M496.37,-53.88C503.81,-46.29 515.12,-34.76 524.27,-25.43"/>
<polygon fill="#63b8ff" stroke="#63b8ff" points="526.82,-27.83 531.32,-18.24 521.82,-22.93 526.82,-27.83"/>
</a>
</g>
</g>
<!-- Node10 -->
<g id="Node000010" class="node">
<title>Node10</title>
<g id="a_Node000010"><a xlink:title=" ">
<polygon fill="#e0e0e0" stroke="#999999" points="627.25,-18 597.56,-18 597.56,0 627.25,0 627.25,-18"/>
<text text-anchor="middle" x="612.4" y="-6" font-family="Helvetica,sans-Serif" font-size="10.00">set</text>
</a>
</g>
</g>
<!-- Node1&#45;&gt;Node10 -->
<g id="edge9_Node000001_Node000010" class="edge">
<title>Node1&#45;&gt;Node10</title>
<g id="a_edge9_Node000001_Node000010"><a xlink:title=" ">
<path fill="none" stroke="#63b8ff" d="M507.51,-53.99C529.14,-44.92 564.45,-30.11 588.05,-20.21"/>
<polygon fill="#63b8ff" stroke="#63b8ff" points="589.51,-23.4 597.38,-16.3 586.8,-16.94 589.51,-23.4"/>
</a>
</g>
</g>
<!-- Node11 -->
<g id="Node000011" class="node">
<title>Node11</title>
<g id="a_Node000011"><a xlink:title=" ">
<polygon fill="#e0e0e0" stroke="#999999" points="688.14,-18 644.67,-18 644.67,0 688.14,0 688.14,-18"/>
<text text-anchor="middle" x="666.4" y="-6" font-family="Helvetica,sans-Serif" font-size="10.00">vector</text>
</a>
</g>
</g>
<!-- Node1&#45;&gt;Node11 -->
<g id="edge10_Node000001_Node000011" class="edge">
<title>Node1&#45;&gt;Node11</title>
<g id="a_edge10_Node000001_Node000011"><a xlink:title=" ">
<path fill="none" stroke="#63b8ff" d="M515.83,-53.99C547.91,-44.62 600.93,-29.13 634.73,-19.25"/>
<polygon fill="#63b8ff" stroke="#63b8ff" points="635.95,-22.54 644.56,-16.38 633.98,-15.83 635.95,-22.54"/>
</a>
</g>
</g>
<!-- Node12 -->
<g id="Node000012" class="node">
<title>Node12</title>
<g id="a_Node000012"><a xlink:title=" ">
<polygon fill="#e0e0e0" stroke="#999999" points="743.09,-18 705.72,-18 705.72,0 743.09,0 743.09,-18"/>
<text text-anchor="middle" x="724.4" y="-6" font-family="Helvetica,sans-Serif" font-size="10.00">tuple</text>
</a>
</g>
</g>
<!-- Node1&#45;&gt;Node12 -->
<g id="edge11_Node000001_Node000012" class="edge">
<title>Node1&#45;&gt;Node12</title>
<g id="a_edge11_Node000001_Node000012"><a xlink:title=" ">
<path fill="none" stroke="#63b8ff" d="M531.47,-53.99C571.73,-46.26 633.73,-33.76 695.64,-18.3"/>
<polygon fill="#63b8ff" stroke="#63b8ff" points="696.74,-21.63 705.57,-15.79 695.02,-14.84 696.74,-21.63"/>
</a>
</g>
</g>
<!-- Node13 -->
<g id="Node000013" class="node">
<title>Node13</title>
<g id="a_Node000013"><a xlink:title=" ">
<polygon fill="#e0e0e0" stroke="#999999" points="799.69,-18 761.12,-18 761.12,0 799.69,0 799.69,-18"/>
<text text-anchor="middle" x="780.4" y="-6" font-family="Helvetica,sans-Serif" font-size="10.00">array</text>
</a>
</g>
</g>
<!-- Node1&#45;&gt;Node13 -->
<g id="edge12_Node000001_Node000013" class="edge">
<title>Node1&#45;&gt;Node13</title>
<g id="a_edge12_Node000001_Node000013"><a xlink:title=" ">
<path fill="none" stroke="#63b8ff" d="M548.28,-53.99C599.72,-46.67 676.04,-34.74 750.83,-18.14"/>
<polygon fill="#63b8ff" stroke="#63b8ff" points="751.91,-21.49 760.89,-15.88 750.37,-14.66 751.91,-21.49"/>
</a>
</g>
</g>
<!-- Node14 -->
<g id="Node000014" class="node">
<title>Node14</title>
<g id="a_Node000014"><a xlink:title=" ">
<polygon fill="#e0e0e0" stroke="#999999" points="859.53,-18 817.28,-18 817.28,0 859.53,0 859.53,-18"/>
<text text-anchor="middle" x="838.4" y="-6" font-family="Helvetica,sans-Serif" font-size="10.00">cstdio</text>
</a>
</g>
</g>
<!-- Node1&#45;&gt;Node14 -->
<g id="edge13_Node000001_Node000014" class="edge">
<title>Node1&#45;&gt;Node14</title>
<g id="a_edge13_Node000001_Node000014"><a xlink:title=" ">
<path fill="none" stroke="#63b8ff" d="M551.03,-55.71C613.61,-48.91 712.7,-36.71 807.16,-18.02"/>
<polygon fill="#63b8ff" stroke="#63b8ff" points="808.06,-21.41 817.18,-16.01 806.68,-14.55 808.06,-21.41"/>
</a>
</g>
</g>
<!-- Node15 -->
<g id="Node000015" class="node">
<title>Node15</title>
<g id="a_Node000015"><a xlink:title=" ">
<polygon fill="#e0e0e0" stroke="#999999" points="925.64,-18 877.17,-18 877.17,0 925.64,0 925.64,-18"/>
<text text-anchor="middle" x="901.4" y="-6" font-family="Helvetica,sans-Serif" font-size="10.00">cassert</text>
</a>
</g>
</g>
<!-- Node1&#45;&gt;Node15 -->
<g id="edge14_Node000001_Node000015" class="edge">
<title>Node1&#45;&gt;Node15</title>
<g id="a_edge14_Node000001_Node000015"><a xlink:title=" ">
<path fill="none" stroke="#63b8ff" d="M550.95,-57.12C624.4,-50.87 750.05,-38.53 866.78,-18.09"/>
<polygon fill="#63b8ff" stroke="#63b8ff" points="867.73,-21.47 876.97,-16.28 866.51,-14.58 867.73,-21.47"/>
</a>
</g>
</g>
</g>
</svg>
