<?xml version="1.0" encoding="UTF-8" standalone="no"?>
<!DOCTYPE svg PUBLIC "-//W3C//DTD SVG 1.1//EN"
 "http://www.w3.org/Graphics/SVG/1.1/DTD/svg11.dtd">
<!-- Generated by graphviz version 2.48.0 (20210717.1556)
 -->
<!-- Title: Graphical Class Hierarchy Pages: 1 -->
<svg width="175pt" height="134pt"
 viewBox="0.00 0.00 175.50 134.00" xmlns="http://www.w3.org/2000/svg" xmlns:xlink="http://www.w3.org/1999/xlink">
<g id="graph0" class="graph" transform="scale(1 1) rotate(0) translate(4 130)">
<title>Graphical Class Hierarchy</title>
<!-- Node0 -->
<g id="Node000000" class="node">
<title>Node0</title>
<g id="a_Node000000"><a xlink:href="structgeom_1_1point.html" target="_top" xlink:title=" ">
<polygon fill="white" stroke="#666666" points="52.81,-126 15.44,-126 15.44,-108 52.81,-108 52.81,-126"/>
<text text-anchor="middle" x="34.13" y="-114" font-family="Helvetica,sans-Serif" font-size="10.00">point</text>
</a>
</g>
</g>
<!-- Node1 -->
<g id="Node000001" class="node">
<title>Node1</title>
<g id="a_Node000001"><a xlink:href="structgeom_1_1rect.html" target="_top" xlink:title=" ">
<polygon fill="white" stroke="#666666" points="167.62,-72 104.13,-72 104.13,-54 167.62,-54 167.62,-72"/>
<text text-anchor="middle" x="135.88" y="-60" font-family="Helvetica,sans-Serif" font-size="10.00">geom::rect</text>
</a>
</g>
</g>
<!-- Node0&#45;&gt;Node1 -->
<g id="edge3_Node000000_Node000001" class="edge">
<title>Node0&#45;&gt;Node1</title>
<g id="a_edge3_Node000000_Node000001"><a xlink:title=" ">
<path fill="none" stroke="#63b8ff" d="M60.92,-103.04C78.97,-93.26 102.58,-80.49 118.21,-72.03"/>
<polygon fill="#63b8ff" stroke="#63b8ff" points="59.18,-100 52.05,-107.84 62.51,-106.16 59.18,-100"/>
</a>
</g>
</g>
<!-- Node2 -->
<g id="Node000002" class="node">
<title>Node2</title>
<g id="a_Node000002"><a xlink:href="structgeom_1_1point.html" target="_top" xlink:title=" ">
<polygon fill="white" stroke="#666666" points="68.38,-90 -0.13,-90 -0.13,-72 68.38,-72 68.38,-90"/>
<text text-anchor="middle" x="34.13" y="-78" font-family="Helvetica,sans-Serif" font-size="10.00">geom::point</text>
</a>
</g>
</g>
<!-- Node2&#45;&gt;Node1 -->
<g id="edge4_Node000002_Node000001" class="edge">
<title>Node2&#45;&gt;Node1</title>
<g id="a_edge4_Node000002_Node000001"><a xlink:title=" ">
<path fill="none" stroke="#63b8ff" d="M78.35,-73.2C87.04,-71.63 96.01,-70.01 104.16,-68.54"/>
<polygon fill="#63b8ff" stroke="#63b8ff" points="77.56,-69.79 68.34,-75.01 78.81,-76.67 77.56,-69.79"/>
</a>
</g>
</g>
<!-- Node3 -->
<g id="Node000003" class="node">
<title>Node3</title>
<g id="a_Node000003"><a xlink:href="structgeom_1_1size.html" target="_top" xlink:title=" ">
<polygon fill="white" stroke="#666666" points="50.91,-54 17.34,-54 17.34,-36 50.91,-36 50.91,-54"/>
<text text-anchor="middle" x="34.13" y="-42" font-family="Helvetica,sans-Serif" font-size="10.00">size</text>
</a>
</g>
</g>
<!-- Node3&#45;&gt;Node1 -->
<g id="edge5_Node000003_Node000001" class="edge">
<title>Node3&#45;&gt;Node1</title>
<g id="a_edge5_Node000003_Node000001"><a xlink:title=" ">
<path fill="none" stroke="#63b8ff" d="M61.36,-49.73C74.44,-52.09 90.34,-54.96 104,-57.43"/>
<polygon fill="#63b8ff" stroke="#63b8ff" points="61.62,-46.22 51.15,-47.89 60.37,-53.11 61.62,-46.22"/>
</a>
</g>
</g>
<!-- Node4 -->
<g id="Node000004" class="node">
<title>Node4</title>
<g id="a_Node000004"><a xlink:href="structgeom_1_1size.html" target="_top" xlink:title=" ">
<polygon fill="white" stroke="#666666" points="66.48,-18 1.77,-18 1.77,0 66.48,0 66.48,-18"/>
<text text-anchor="middle" x="34.13" y="-6" font-family="Helvetica,sans-Serif" font-size="10.00">geom::size</text>
</a>
</g>
</g>
<!-- Node4&#45;&gt;Node1 -->
<g id="edge6_Node000004_Node000001" class="edge">
<title>Node4&#45;&gt;Node1</title>
<g id="a_edge6_Node000004_Node000001"><a xlink:title=" ">
<path fill="none" stroke="#63b8ff" d="M60.92,-22.96C78.97,-32.74 102.58,-45.51 118.21,-53.97"/>
<polygon fill="#63b8ff" stroke="#63b8ff" points="62.51,-19.84 52.05,-18.16 59.18,-26 62.51,-19.84"/>
</a>
</g>
</g>
</g>
</svg>
