<?xml version="1.0" encoding="UTF-8" standalone="no"?>
<!DOCTYPE svg PUBLIC "-//W3C//DTD SVG 1.1//EN"
 "http://www.w3.org/Graphics/SVG/1.1/DTD/svg11.dtd">
<!-- Generated by graphviz version 2.48.0 (20210717.1556)
 -->
<!-- Title: Graphical Class Hierarchy Pages: 1 -->
<svg width="178pt" height="98pt"
 viewBox="0.00 0.00 178.48 98.00" xmlns="http://www.w3.org/2000/svg" xmlns:xlink="http://www.w3.org/1999/xlink">
<g id="graph0" class="graph" transform="scale(1 1) rotate(0) translate(4 94)">
<title>Graphical Class Hierarchy</title>
<!-- Node0 -->
<g id="Node000000" class="node">
<title>Node0</title>
<g id="a_Node000000"><a xlink:title=" ">
<polygon fill="#e0e0e0" stroke="#999999" points="85.18,-54 -0.06,-54 -0.06,-36 85.18,-36 85.18,-54"/>
<text text-anchor="middle" x="42.56" y="-42" font-family="Helvetica,sans-Serif" font-size="10.00">std::vector&lt; T &gt;</text>
</a>
</g>
</g>
<!-- Node1 -->
<g id="Node000001" class="node">
<title>Node1</title>
<g id="a_Node000001"><a xlink:href="classbook.html" target="_top" xlink:title=" ">
<polygon fill="white" stroke="#666666" points="164.48,-90 127.11,-90 127.11,-72 164.48,-72 164.48,-90"/>
<text text-anchor="middle" x="145.8" y="-78" font-family="Helvetica,sans-Serif" font-size="10.00">book</text>
</a>
</g>
</g>
<!-- Node0&#45;&gt;Node1 -->
<g id="edge17_Node000000_Node000001" class="edge">
<title>Node0&#45;&gt;Node1</title>
<g id="a_edge17_Node000000_Node000001"><a xlink:title=" ">
<path fill="none" stroke="#8b1a1a" d="M78.85,-57.55C95.08,-63.32 113.63,-69.92 126.92,-74.64"/>
<polygon fill="#8b1a1a" stroke="#8b1a1a" points="79.7,-54.14 69.11,-54.08 77.36,-60.73 79.7,-54.14"/>
</a>
</g>
</g>
<!-- Node2 -->
<g id="Node000002" class="node">
<title>Node2</title>
<g id="a_Node000002"><a xlink:href="structchapter.html" target="_top" xlink:title=" ">
<polygon fill="white" stroke="#666666" points="170.65,-54 120.94,-54 120.94,-36 170.65,-36 170.65,-54"/>
<text text-anchor="middle" x="145.8" y="-42" font-family="Helvetica,sans-Serif" font-size="10.00">chapter</text>
</a>
</g>
</g>
<!-- Node0&#45;&gt;Node2 -->
<g id="edge18_Node000000_Node000002" class="edge">
<title>Node0&#45;&gt;Node2</title>
<g id="a_edge18_Node000000_Node000002"><a xlink:title=" ">
<path fill="none" stroke="#63b8ff" d="M95.43,-45C104.41,-45 113.35,-45 121.09,-45"/>
<polygon fill="#63b8ff" stroke="#63b8ff" points="95.32,-41.5 85.32,-45 95.32,-48.5 95.32,-41.5"/>
</a>
</g>
</g>
<!-- Node3 -->
<g id="Node000003" class="node">
<title>Node3</title>
<g id="a_Node000003"><a xlink:href="classpage.html" target="_top" xlink:title=" ">
<polygon fill="white" stroke="#666666" points="165.05,-18 126.55,-18 126.55,0 165.05,0 165.05,-18"/>
<text text-anchor="middle" x="145.8" y="-6" font-family="Helvetica,sans-Serif" font-size="10.00">page</text>
</a>
</g>
</g>
<!-- Node0&#45;&gt;Node3 -->
<g id="edge19_Node000000_Node000003" class="edge">
<title>Node0&#45;&gt;Node3</title>
<g id="a_edge19_Node000000_Node000003"><a xlink:title=" ">
<path fill="none" stroke="#8b1a1a" d="M78.78,-32.48C94.9,-26.74 113.32,-20.19 126.6,-15.47"/>
<polygon fill="#8b1a1a" stroke="#8b1a1a" points="77.36,-29.27 69.11,-35.92 79.7,-35.86 77.36,-29.27"/>
</a>
</g>
</g>
</g>
</svg>
