<?xml version="1.0" encoding="UTF-8" standalone="no"?>
<!DOCTYPE svg PUBLIC "-//W3C//DTD SVG 1.1//EN"
 "http://www.w3.org/Graphics/SVG/1.1/DTD/svg11.dtd">
<!-- Generated by graphviz version 2.48.0 (20210717.1556)
 -->
<!-- Title: Graphical Class Hierarchy Pages: 1 -->
<svg width="211pt" height="134pt"
 viewBox="0.00 0.00 210.72 134.00" xmlns="http://www.w3.org/2000/svg" xmlns:xlink="http://www.w3.org/1999/xlink">
<g id="graph0" class="graph" transform="scale(1 1) rotate(0) translate(4 130)">
<title>Graphical Class Hierarchy</title>
<!-- Node0 -->
<g id="Node000000" class="node">
<title>Node0</title>
<g id="a_Node000000"><a xlink:title=" ">
<polygon fill="#e0e0e0" stroke="#999999" points="85.18,-72 -0.06,-72 -0.06,-54 85.18,-54 85.18,-72"/>
<text text-anchor="middle" x="42.56" y="-60" font-family="Helvetica,sans-Serif" font-size="10.00">std::vector&lt; T &gt;</text>
</a>
</g>
</g>
<!-- Node1 -->
<g id="Node000001" class="node">
<title>Node1</title>
<g id="a_Node000001"><a xlink:href="classbook.html" target="_top" xlink:title=" ">
<polygon fill="white" stroke="#666666" points="180.6,-126 143.23,-126 143.23,-108 180.6,-108 180.6,-126"/>
<text text-anchor="middle" x="161.92" y="-114" font-family="Helvetica,sans-Serif" font-size="10.00">book</text>
</a>
</g>
</g>
<!-- Node0&#45;&gt;Node1 -->
<g id="edge16_Node000000_Node000001" class="edge">
<title>Node0&#45;&gt;Node1</title>
<g id="a_edge16_Node000000_Node000001"><a xlink:title=" ">
<path fill="none" stroke="#8b1a1a" d="M72.05,-76.3C86.7,-83.12 104.85,-91.54 121.12,-99 128.29,-102.29 136.2,-105.87 143.07,-108.97"/>
<polygon fill="#8b1a1a" stroke="#8b1a1a" points="73.52,-73.13 62.98,-72.08 70.57,-79.47 73.52,-73.13"/>
</a>
</g>
</g>
<!-- Node2 -->
<g id="Node000002" class="node">
<title>Node2</title>
<g id="a_Node000002"><a xlink:href="structchapter.html" target="_top" xlink:title=" ">
<polygon fill="white" stroke="#666666" points="186.77,-90 137.06,-90 137.06,-72 186.77,-72 186.77,-90"/>
<text text-anchor="middle" x="161.92" y="-78" font-family="Helvetica,sans-Serif" font-size="10.00">chapter</text>
</a>
</g>
</g>
<!-- Node0&#45;&gt;Node2 -->
<g id="edge17_Node000000_Node000002" class="edge">
<title>Node0&#45;&gt;Node2</title>
<g id="a_edge17_Node000000_Node000002"><a xlink:title=" ">
<path fill="none" stroke="#63b8ff" d="M95.24,-70.93C109.83,-73.16 125.02,-75.49 137.11,-77.35"/>
<polygon fill="#63b8ff" stroke="#63b8ff" points="95.68,-67.45 85.27,-69.4 94.62,-74.37 95.68,-67.45"/>
</a>
</g>
</g>
<!-- Node3 -->
<g id="Node000003" class="node">
<title>Node3</title>
<g id="a_Node000003"><a xlink:href="classepub_1_1manifest.html" target="_top" xlink:title="A listing of all the assets in a container.">
<polygon fill="white" stroke="#666666" points="202.52,-54 121.32,-54 121.32,-36 202.52,-36 202.52,-54"/>
<text text-anchor="middle" x="161.92" y="-42" font-family="Helvetica,sans-Serif" font-size="10.00">epub::manifest</text>
</a>
</g>
</g>
<!-- Node0&#45;&gt;Node3 -->
<g id="edge18_Node000000_Node000003" class="edge">
<title>Node0&#45;&gt;Node3</title>
<g id="a_edge18_Node000000_Node000003"><a xlink:title=" ">
<path fill="none" stroke="#8b1a1a" d="M95.35,-55.06C104.06,-53.72 112.97,-52.35 121.31,-51.07"/>
<polygon fill="#8b1a1a" stroke="#8b1a1a" points="94.62,-51.63 85.27,-56.6 95.68,-58.55 94.62,-51.63"/>
</a>
</g>
</g>
<!-- Node4 -->
<g id="Node000004" class="node">
<title>Node4</title>
<g id="a_Node000004"><a xlink:href="classpage.html" target="_top" xlink:title="A collection of images that can fit on a single content page.">
<polygon fill="white" stroke="#666666" points="181.17,-18 142.67,-18 142.67,0 181.17,0 181.17,-18"/>
<text text-anchor="middle" x="161.92" y="-6" font-family="Helvetica,sans-Serif" font-size="10.00">page</text>
</a>
</g>
</g>
<!-- Node0&#45;&gt;Node4 -->
<g id="edge19_Node000000_Node000004" class="edge">
<title>Node0&#45;&gt;Node4</title>
<g id="a_edge19_Node000000_Node000004"><a xlink:title=" ">
<path fill="none" stroke="#8b1a1a" d="M72.05,-49.7C86.7,-42.88 104.85,-34.46 121.12,-27 128.15,-23.78 135.9,-20.27 142.67,-17.21"/>
<polygon fill="#8b1a1a" stroke="#8b1a1a" points="70.57,-46.53 62.98,-53.92 73.52,-52.87 70.57,-46.53"/>
</a>
</g>
</g>
</g>
</svg>
