<?xml version="1.0" encoding="UTF-8" standalone="no"?>
<!DOCTYPE svg PUBLIC "-//W3C//DTD SVG 1.1//EN"
 "http://www.w3.org/Graphics/SVG/1.1/DTD/svg11.dtd">
<!-- Generated by graphviz version 2.48.0 (20210717.1556)
 -->
<!-- Title: Graphical Class Hierarchy Pages: 1 -->
<svg width="507pt" height="170pt"
 viewBox="0.00 0.00 506.88 170.00" xmlns="http://www.w3.org/2000/svg" xmlns:xlink="http://www.w3.org/1999/xlink">
<g id="graph0" class="graph" transform="scale(1 1) rotate(0) translate(4 166)">
<title>Graphical Class Hierarchy</title>
<!-- Node0 -->
<g id="Node000000" class="node">
<title>Node0</title>
<g id="a_Node000000"><a xlink:title=" ">
<polygon fill="#e0e0e0" stroke="#999999" points="77.56,-72 0.15,-72 0.15,-54 77.56,-54 77.56,-72"/>
<text text-anchor="middle" x="38.85" y="-60" font-family="Helvetica,sans-Serif" font-size="10.00">std::exception</text>
</a>
</g>
</g>
<!-- Node1 -->
<g id="Node000001" class="node">
<title>Node1</title>
<g id="a_Node000001"><a xlink:title=" ">
<polygon fill="#e0e0e0" stroke="#999999" points="208.58,-72 113.75,-72 113.75,-54 208.58,-54 208.58,-72"/>
<text text-anchor="middle" x="161.16" y="-60" font-family="Helvetica,sans-Serif" font-size="10.00">std::runtime_error</text>
</a>
</g>
</g>
<!-- Node0&#45;&gt;Node1 -->
<g id="edge7_Node000000_Node000001" class="edge">
<title>Node0&#45;&gt;Node1</title>
<g id="a_edge7_Node000000_Node000001"><a xlink:title=" ">
<path fill="none" stroke="#63b8ff" d="M87.78,-63C96.31,-63 105.18,-63 113.67,-63"/>
<polygon fill="#63b8ff" stroke="#63b8ff" points="87.59,-59.5 77.59,-63 87.59,-66.5 87.59,-59.5"/>
</a>
</g>
</g>
<!-- Node2 -->
<g id="Node000002" class="node">
<title>Node2</title>
<g id="a_Node000002"><a xlink:href="structcli_1_1option__error.html" target="_top" xlink:title=" ">
<polygon fill="white" stroke="#666666" points="330.35,-90 245.51,-90 245.51,-72 330.35,-72 330.35,-90"/>
<text text-anchor="middle" x="287.93" y="-78" font-family="Helvetica,sans-Serif" font-size="10.00">cli::option_error</text>
</a>
</g>
</g>
<!-- Node1&#45;&gt;Node2 -->
<g id="edge8_Node000001_Node000002" class="edge">
<title>Node1&#45;&gt;Node2</title>
<g id="a_edge8_Node000001_Node000002"><a xlink:title=" ">
<path fill="none" stroke="#63b8ff" d="M218.66,-71.15C227.65,-72.45 236.8,-73.77 245.37,-75"/>
<polygon fill="#63b8ff" stroke="#63b8ff" points="219.02,-67.67 208.62,-69.7 218.02,-74.59 219.02,-67.67"/>
</a>
</g>
</g>
<!-- Node8 -->
<g id="Node000008" class="node">
<title>Node8</title>
<g id="a_Node000008"><a xlink:href="classepub_1_1id__in__use.html" target="_top" xlink:title=" ">
<polygon fill="white" stroke="#666666" points="331.04,-54 244.81,-54 244.81,-36 331.04,-36 331.04,-54"/>
<text text-anchor="middle" x="287.93" y="-42" font-family="Helvetica,sans-Serif" font-size="10.00">epub::id_in_use</text>
</a>
</g>
</g>
<!-- Node1&#45;&gt;Node8 -->
<g id="edge14_Node000001_Node000008" class="edge">
<title>Node1&#45;&gt;Node8</title>
<g id="a_edge14_Node000001_Node000008"><a xlink:title=" ">
<path fill="none" stroke="#63b8ff" d="M218.71,-54.84C227.4,-53.59 236.24,-52.31 244.55,-51.11"/>
<polygon fill="#63b8ff" stroke="#63b8ff" points="218.02,-51.41 208.62,-56.3 219.02,-58.33 218.02,-51.41"/>
</a>
</g>
</g>
<!-- Node3 -->
<g id="Node000003" class="node">
<title>Node3</title>
<g id="a_Node000003"><a xlink:href="classcli_1_1ambiguous__option.html" target="_top" xlink:title=" ">
<polygon fill="white" stroke="#666666" points="489.28,-162 376.83,-162 376.83,-144 489.28,-144 489.28,-162"/>
<text text-anchor="middle" x="433.06" y="-150" font-family="Helvetica,sans-Serif" font-size="10.00">cli::ambiguous_option</text>
</a>
</g>
</g>
<!-- Node2&#45;&gt;Node3 -->
<g id="edge9_Node000002_Node000003" class="edge">
<title>Node2&#45;&gt;Node3</title>
<g id="a_edge9_Node000002_Node000003"><a xlink:title=" ">
<path fill="none" stroke="#63b8ff" d="M307.69,-96.62C322.91,-108.6 345.35,-124.77 367.24,-135 374.85,-138.56 383.31,-141.54 391.54,-143.99"/>
<polygon fill="#63b8ff" stroke="#63b8ff" points="309.61,-93.67 299.62,-90.12 305.22,-99.12 309.61,-93.67"/>
</a>
</g>
</g>
<!-- Node4 -->
<g id="Node000004" class="node">
<title>Node4</title>
<g id="a_Node000004"><a xlink:href="structcli_1_1argument__needed.html" target="_top" xlink:title=" ">
<polygon fill="white" stroke="#666666" points="489.23,-126 376.88,-126 376.88,-108 489.23,-108 489.23,-126"/>
<text text-anchor="middle" x="433.06" y="-114" font-family="Helvetica,sans-Serif" font-size="10.00">cli::argument_needed</text>
</a>
</g>
</g>
<!-- Node2&#45;&gt;Node4 -->
<g id="edge10_Node000002_Node000004" class="edge">
<title>Node2&#45;&gt;Node4</title>
<g id="a_edge10_Node000002_Node000004"><a xlink:title=" ">
<path fill="none" stroke="#63b8ff" d="M334.78,-92.53C354.57,-97.51 377.39,-103.25 395.95,-107.92"/>
<polygon fill="#63b8ff" stroke="#63b8ff" points="335.6,-89.13 325.04,-90.08 333.89,-95.92 335.6,-89.13"/>
</a>
</g>
</g>
<!-- Node5 -->
<g id="Node000005" class="node">
<title>Node5</title>
<g id="a_Node000005"><a xlink:href="structcli_1_1argument__not__needed.html" target="_top" xlink:title=" ">
<polygon fill="white" stroke="#666666" points="498.7,-90 367.42,-90 367.42,-72 498.7,-72 498.7,-90"/>
<text text-anchor="middle" x="433.06" y="-78" font-family="Helvetica,sans-Serif" font-size="10.00">cli::argument_not_needed</text>
</a>
</g>
</g>
<!-- Node2&#45;&gt;Node5 -->
<g id="edge11_Node000002_Node000005" class="edge">
<title>Node2&#45;&gt;Node5</title>
<g id="a_edge11_Node000002_Node000005"><a xlink:title=" ">
<path fill="none" stroke="#63b8ff" d="M340.93,-81C349.51,-81 358.49,-81 367.32,-81"/>
<polygon fill="#63b8ff" stroke="#63b8ff" points="340.71,-77.5 330.71,-81 340.71,-84.5 340.71,-77.5"/>
</a>
</g>
</g>
<!-- Node6 -->
<g id="Node000006" class="node">
<title>Node6</title>
<g id="a_Node000006"><a xlink:href="structcli_1_1option__not__found.html" target="_top" xlink:title=" ">
<polygon fill="white" stroke="#666666" points="487.35,-54 378.76,-54 378.76,-36 487.35,-36 487.35,-54"/>
<text text-anchor="middle" x="433.06" y="-42" font-family="Helvetica,sans-Serif" font-size="10.00">cli::option_not_found</text>
</a>
</g>
</g>
<!-- Node2&#45;&gt;Node6 -->
<g id="edge12_Node000002_Node000006" class="edge">
<title>Node2&#45;&gt;Node6</title>
<g id="a_edge12_Node000002_Node000006"><a xlink:title=" ">
<path fill="none" stroke="#63b8ff" d="M334.78,-69.47C354.57,-64.49 377.39,-58.75 395.95,-54.08"/>
<polygon fill="#63b8ff" stroke="#63b8ff" points="333.89,-66.08 325.04,-71.92 335.6,-72.87 333.89,-66.08"/>
</a>
</g>
</g>
<!-- Node7 -->
<g id="Node000007" class="node">
<title>Node7</title>
<g id="a_Node000007"><a xlink:href="structcli_1_1usage__error.html" target="_top" xlink:title=" ">
<polygon fill="white" stroke="#666666" points="475.48,-18 390.63,-18 390.63,0 475.48,0 475.48,-18"/>
<text text-anchor="middle" x="433.06" y="-6" font-family="Helvetica,sans-Serif" font-size="10.00">cli::usage_error</text>
</a>
</g>
</g>
<!-- Node2&#45;&gt;Node7 -->
<g id="edge13_Node000002_Node000007" class="edge">
<title>Node2&#45;&gt;Node7</title>
<g id="a_edge13_Node000002_Node000007"><a xlink:title=" ">
<path fill="none" stroke="#63b8ff" d="M324.02,-67.35C326.53,-65.99 328.96,-64.54 331.24,-63 349.99,-50.34 347.69,-38.4 367.24,-27 374.3,-22.88 382.34,-19.67 390.31,-17.17"/>
<polygon fill="#63b8ff" stroke="#63b8ff" points="322.25,-64.32 314.81,-71.85 325.33,-70.61 322.25,-64.32"/>
</a>
</g>
</g>
</g>
</svg>
