<?xml version="1.0" encoding="UTF-8" standalone="no"?>
<!DOCTYPE svg PUBLIC "-//W3C//DTD SVG 1.1//EN"
 "http://www.w3.org/Graphics/SVG/1.1/DTD/svg11.dtd">
<!-- Generated by graphviz version 2.48.0 (20210717.1556)
 -->
<!-- Title: Graphical Class Hierarchy Pages: 1 -->
<svg width="505pt" height="170pt"
 viewBox="0.00 0.00 505.18 170.00" xmlns="http://www.w3.org/2000/svg" xmlns:xlink="http://www.w3.org/1999/xlink">
<g id="graph0" class="graph" transform="scale(1 1) rotate(0) translate(4 166)">
<title>Graphical Class Hierarchy</title>
<!-- Node0 -->
<g id="Node000000" class="node">
<title>Node0</title>
<g id="a_Node000000"><a xlink:title=" ">
<polygon fill="#e0e0e0" stroke="#999999" points="77.56,-90 0.15,-90 0.15,-72 77.56,-72 77.56,-90"/>
<text text-anchor="middle" x="38.85" y="-78" font-family="Helvetica,sans-Serif" font-size="10.00">std::exception</text>
</a>
</g>
</g>
<!-- Node1 -->
<g id="Node000001" class="node">
<title>Node1</title>
<g id="a_Node000001"><a xlink:title=" ">
<polygon fill="#e0e0e0" stroke="#999999" points="208.58,-90 113.75,-90 113.75,-72 208.58,-72 208.58,-90"/>
<text text-anchor="middle" x="161.16" y="-78" font-family="Helvetica,sans-Serif" font-size="10.00">std::runtime_error</text>
</a>
</g>
</g>
<!-- Node0&#45;&gt;Node1 -->
<g id="edge7_Node000000_Node000001" class="edge">
<title>Node0&#45;&gt;Node1</title>
<g id="a_edge7_Node000000_Node000001"><a xlink:title=" ">
<path fill="none" stroke="#63b8ff" d="M87.78,-81C96.31,-81 105.18,-81 113.67,-81"/>
<polygon fill="#63b8ff" stroke="#63b8ff" points="87.59,-77.5 77.59,-81 87.59,-84.5 87.59,-77.5"/>
</a>
</g>
</g>
<!-- Node2 -->
<g id="Node000002" class="node">
<title>Node2</title>
<g id="a_Node000002"><a xlink:href="structcli_1_1option__error.html" target="_top" xlink:title=" ">
<polygon fill="white" stroke="#666666" points="329.5,-90 244.66,-90 244.66,-72 329.5,-72 329.5,-90"/>
<text text-anchor="middle" x="287.08" y="-78" font-family="Helvetica,sans-Serif" font-size="10.00">cli::option_error</text>
</a>
</g>
</g>
<!-- Node1&#45;&gt;Node2 -->
<g id="edge8_Node000001_Node000002" class="edge">
<title>Node1&#45;&gt;Node2</title>
<g id="a_edge8_Node000001_Node000002"><a xlink:title=" ">
<path fill="none" stroke="#63b8ff" d="M218.77,-81C227.48,-81 236.33,-81 244.63,-81"/>
<polygon fill="#63b8ff" stroke="#63b8ff" points="218.66,-77.5 208.66,-81 218.66,-84.5 218.66,-77.5"/>
</a>
</g>
</g>
<!-- Node3 -->
<g id="Node000003" class="node">
<title>Node3</title>
<g id="a_Node000003"><a xlink:href="classcli_1_1ambiguous__option.html" target="_top" xlink:title=" ">
<polygon fill="white" stroke="#666666" points="487.59,-162 375.13,-162 375.13,-144 487.59,-144 487.59,-162"/>
<text text-anchor="middle" x="431.36" y="-150" font-family="Helvetica,sans-Serif" font-size="10.00">cli::ambiguous_option</text>
</a>
</g>
</g>
<!-- Node2&#45;&gt;Node3 -->
<g id="edge9_Node000002_Node000003" class="edge">
<title>Node2&#45;&gt;Node3</title>
<g id="a_edge9_Node000002_Node000003"><a xlink:title=" ">
<path fill="none" stroke="#63b8ff" d="M306.87,-96.83C321.9,-108.8 343.97,-124.85 365.54,-135 373.04,-138.53 381.37,-141.49 389.49,-143.92"/>
<polygon fill="#63b8ff" stroke="#63b8ff" points="308.85,-93.93 298.89,-90.33 304.43,-99.36 308.85,-93.93"/>
</a>
</g>
</g>
<!-- Node4 -->
<g id="Node000004" class="node">
<title>Node4</title>
<g id="a_Node000004"><a xlink:href="structcli_1_1argument__needed.html" target="_top" xlink:title=" ">
<polygon fill="white" stroke="#666666" points="487.54,-126 375.18,-126 375.18,-108 487.54,-108 487.54,-126"/>
<text text-anchor="middle" x="431.36" y="-114" font-family="Helvetica,sans-Serif" font-size="10.00">cli::argument_needed</text>
</a>
</g>
</g>
<!-- Node2&#45;&gt;Node4 -->
<g id="edge10_Node000002_Node000004" class="edge">
<title>Node2&#45;&gt;Node4</title>
<g id="a_edge10_Node000002_Node000004"><a xlink:title=" ">
<path fill="none" stroke="#63b8ff" d="M333.93,-92.6C353.54,-97.56 376.1,-103.27 394.47,-107.92"/>
<polygon fill="#63b8ff" stroke="#63b8ff" points="334.54,-89.14 323.98,-90.08 332.82,-95.93 334.54,-89.14"/>
</a>
</g>
</g>
<!-- Node5 -->
<g id="Node000005" class="node">
<title>Node5</title>
<g id="a_Node000005"><a xlink:href="structcli_1_1argument__not__needed.html" target="_top" xlink:title=" ">
<polygon fill="white" stroke="#666666" points="497,-90 365.72,-90 365.72,-72 497,-72 497,-90"/>
<text text-anchor="middle" x="431.36" y="-78" font-family="Helvetica,sans-Serif" font-size="10.00">cli::argument_not_needed</text>
</a>
</g>
</g>
<!-- Node2&#45;&gt;Node5 -->
<g id="edge11_Node000002_Node000005" class="edge">
<title>Node2&#45;&gt;Node5</title>
<g id="a_edge11_Node000002_Node000005"><a xlink:title=" ">
<path fill="none" stroke="#63b8ff" d="M339.63,-81C348.02,-81 356.81,-81 365.48,-81"/>
<polygon fill="#63b8ff" stroke="#63b8ff" points="339.62,-77.5 329.62,-81 339.62,-84.5 339.62,-77.5"/>
</a>
</g>
</g>
<!-- Node6 -->
<g id="Node000006" class="node">
<title>Node6</title>
<g id="a_Node000006"><a xlink:href="structcli_1_1option__not__found.html" target="_top" xlink:title=" ">
<polygon fill="white" stroke="#666666" points="485.66,-54 377.07,-54 377.07,-36 485.66,-36 485.66,-54"/>
<text text-anchor="middle" x="431.36" y="-42" font-family="Helvetica,sans-Serif" font-size="10.00">cli::option_not_found</text>
</a>
</g>
</g>
<!-- Node2&#45;&gt;Node6 -->
<g id="edge12_Node000002_Node000006" class="edge">
<title>Node2&#45;&gt;Node6</title>
<g id="a_edge12_Node000002_Node000006"><a xlink:title=" ">
<path fill="none" stroke="#63b8ff" d="M333.93,-69.4C353.54,-64.44 376.1,-58.73 394.47,-54.08"/>
<polygon fill="#63b8ff" stroke="#63b8ff" points="332.82,-66.07 323.98,-71.92 334.54,-72.86 332.82,-66.07"/>
</a>
</g>
</g>
<!-- Node7 -->
<g id="Node000007" class="node">
<title>Node7</title>
<g id="a_Node000007"><a xlink:href="structcli_1_1usage__error.html" target="_top" xlink:title=" ">
<polygon fill="white" stroke="#666666" points="473.78,-18 388.94,-18 388.94,0 473.78,0 473.78,-18"/>
<text text-anchor="middle" x="431.36" y="-6" font-family="Helvetica,sans-Serif" font-size="10.00">cli::usage_error</text>
</a>
</g>
</g>
<!-- Node2&#45;&gt;Node7 -->
<g id="edge13_Node000002_Node000007" class="edge">
<title>Node2&#45;&gt;Node7</title>
<g id="a_edge13_Node000002_Node000007"><a xlink:title=" ">
<path fill="none" stroke="#63b8ff" d="M306.87,-65.17C321.9,-53.2 343.97,-37.15 365.54,-27 373.04,-23.47 381.37,-20.51 389.49,-18.08"/>
<polygon fill="#63b8ff" stroke="#63b8ff" points="304.43,-62.64 298.89,-71.67 308.85,-68.07 304.43,-62.64"/>
</a>
</g>
</g>
</g>
</svg>
