<?xml version="1.0" encoding="UTF-8" standalone="no"?>
<!DOCTYPE svg PUBLIC "-//W3C//DTD SVG 1.1//EN"
 "http://www.w3.org/Graphics/SVG/1.1/DTD/svg11.dtd">
<!-- Generated by graphviz version 2.48.0 (20210717.1556)
 -->
<!-- Title: Graphical Class Hierarchy Pages: 1 -->
<svg width="182pt" height="62pt"
 viewBox="0.00 0.00 182.18 62.00" xmlns="http://www.w3.org/2000/svg" xmlns:xlink="http://www.w3.org/1999/xlink">
<g id="graph0" class="graph" transform="scale(1 1) rotate(0) translate(4 58)">
<title>Graphical Class Hierarchy</title>
<!-- Node0 -->
<g id="Node000000" class="node">
<title>Node0</title>
<g id="a_Node000000"><a xlink:href="classcli_1_1option.html" target="_top" xlink:title=" ">
<polygon fill="white" stroke="#666666" points="58.37,-36 -0.12,-36 -0.12,-18 58.37,-18 58.37,-36"/>
<text text-anchor="middle" x="29.12" y="-24" font-family="Helvetica,sans-Serif" font-size="10.00">cli::option</text>
</a>
</g>
</g>
<!-- Node1 -->
<g id="Node000001" class="node">
<title>Node1</title>
<g id="a_Node000001"><a xlink:href="classcli_1_1arg__option.html" target="_top" xlink:title=" ">
<polygon fill="white" stroke="#666666" points="173.47,-54 94.95,-54 94.95,-36 173.47,-36 173.47,-54"/>
<text text-anchor="middle" x="134.21" y="-42" font-family="Helvetica,sans-Serif" font-size="10.00">cli::arg_option</text>
</a>
</g>
</g>
<!-- Node0&#45;&gt;Node1 -->
<g id="edge1_Node000000_Node000001" class="edge">
<title>Node0&#45;&gt;Node1</title>
<g id="a_edge1_Node000000_Node000001"><a xlink:title=" ">
<path fill="none" stroke="#63b8ff" d="M68.24,-33.65C76.98,-35.18 86.28,-36.81 95.03,-38.33"/>
<polygon fill="#63b8ff" stroke="#63b8ff" points="68.75,-30.19 58.29,-31.92 67.54,-37.09 68.75,-30.19"/>
</a>
</g>
</g>
<!-- Node2 -->
<g id="Node000002" class="node">
<title>Node2</title>
<g id="a_Node000002"><a xlink:href="classcli_1_1flag__option.html" target="_top" xlink:title=" ">
<polygon fill="white" stroke="#666666" points="174.14,-18 94.28,-18 94.28,0 174.14,0 174.14,-18"/>
<text text-anchor="middle" x="134.21" y="-6" font-family="Helvetica,sans-Serif" font-size="10.00">cli::flag_option</text>
</a>
</g>
</g>
<!-- Node0&#45;&gt;Node2 -->
<g id="edge2_Node000000_Node000002" class="edge">
<title>Node0&#45;&gt;Node2</title>
<g id="a_edge2_Node000000_Node000002"><a xlink:title=" ">
<path fill="none" stroke="#63b8ff" d="M68.3,-20.33C76.77,-18.86 85.76,-17.29 94.26,-15.8"/>
<polygon fill="#63b8ff" stroke="#63b8ff" points="67.54,-16.91 58.29,-22.08 68.75,-23.81 67.54,-16.91"/>
</a>
</g>
</g>
</g>
</svg>
