<?xml version="1.0" encoding="UTF-8" standalone="no"?>
<!DOCTYPE svg PUBLIC "-//W3C//DTD SVG 1.1//EN"
 "http://www.w3.org/Graphics/SVG/1.1/DTD/svg11.dtd">
<!-- Generated by graphviz version 2.48.0 (20210717.1556)
 -->
<!-- Title: imageinfo/main.cpp Pages: 1 -->
<svg width="934pt" height="134pt"
 viewBox="0.00 0.00 934.18 134.00" xmlns="http://www.w3.org/2000/svg" xmlns:xlink="http://www.w3.org/1999/xlink">
<g id="graph0" class="graph" transform="scale(1 1) rotate(0) translate(4 130)">
<title>imageinfo/main.cpp</title>
<!-- Node1 -->
<g id="Node000001" class="node">
<title>Node1</title>
<g id="a_Node000001"><a xlink:title=" ">
<polygon fill="#999999" stroke="#666666" points="269.28,-126 166.85,-126 166.85,-108 269.28,-108 269.28,-126"/>
<text text-anchor="middle" x="218.06" y="-114" font-family="Helvetica,sans-Serif" font-size="10.00">imageinfo/main.cpp</text>
</a>
</g>
</g>
<!-- Node2 -->
<g id="Node000002" class="node">
<title>Node2</title>
<g id="a_Node000002"><a xlink:title=" ">
<polygon fill="#e0e0e0" stroke="#999999" points="42.18,-18 -0.06,-18 -0.06,0 42.18,0 42.18,-18"/>
<text text-anchor="middle" x="21.06" y="-6" font-family="Helvetica,sans-Serif" font-size="10.00">cstdio</text>
</a>
</g>
</g>
<!-- Node1&#45;&gt;Node2 -->
<g id="edge1_Node000001_Node000002" class="edge">
<title>Node1&#45;&gt;Node2</title>
<g id="a_edge1_Node000001_Node000002"><a xlink:title=" ">
<path fill="none" stroke="#63b8ff" d="M202.93,-107.86C168.9,-89.55 86.1,-44.99 45.01,-22.88"/>
<polygon fill="#63b8ff" stroke="#63b8ff" points="46.44,-19.68 35.97,-18.02 43.12,-25.84 46.44,-19.68"/>
</a>
</g>
</g>
<!-- Node3 -->
<g id="Node000003" class="node">
<title>Node3</title>
<g id="a_Node000003"><a xlink:href="imageinfo_8hpp.html" target="_top" xlink:title=" ">
<polygon fill="white" stroke="#666666" points="455.38,-72 376.74,-72 376.74,-54 455.38,-54 455.38,-72"/>
<text text-anchor="middle" x="416.06" y="-60" font-family="Helvetica,sans-Serif" font-size="10.00">imageinfo.hpp</text>
</a>
</g>
</g>
<!-- Node1&#45;&gt;Node3 -->
<g id="edge2_Node000001_Node000003" class="edge">
<title>Node1&#45;&gt;Node3</title>
<g id="a_edge2_Node000001_Node000003"><a xlink:title=" ">
<path fill="none" stroke="#63b8ff" d="M248.57,-107.99C282.58,-99.06 337.74,-84.57 375.4,-74.68"/>
<polygon fill="#63b8ff" stroke="#63b8ff" points="376.74,-77.95 385.52,-72.02 374.96,-71.18 376.74,-77.95"/>
</a>
</g>
</g>
<!-- Node3&#45;&gt;Node2 -->
<g id="edge15_Node000003_Node000002" class="edge">
<title>Node3&#45;&gt;Node2</title>
<g id="a_edge15_Node000003_Node000002"><a xlink:title=" ">
<path fill="none" stroke="#63b8ff" d="M376.62,-59.08C311.15,-53.82 175.8,-41.29 52.29,-17.97"/>
<polygon fill="#63b8ff" stroke="#63b8ff" points="52.76,-14.5 42.28,-16.05 51.44,-21.37 52.76,-14.5"/>
</a>
</g>
</g>
<!-- Node4 -->
<g id="Node000004" class="node">
<title>Node4</title>
<g id="a_Node000004"><a xlink:title=" ">
<polygon fill="#e0e0e0" stroke="#999999" points="118.37,-18 59.75,-18 59.75,0 118.37,0 118.37,-18"/>
<text text-anchor="middle" x="89.06" y="-6" font-family="Helvetica,sans-Serif" font-size="10.00">functional</text>
</a>
</g>
</g>
<!-- Node3&#45;&gt;Node4 -->
<g id="edge3_Node000003_Node000004" class="edge">
<title>Node3&#45;&gt;Node4</title>
<g id="a_edge3_Node000003_Node000004"><a xlink:title=" ">
<path fill="none" stroke="#63b8ff" d="M376.68,-56.72C322.85,-49.35 223.07,-35.13 128.51,-18.18"/>
<polygon fill="#63b8ff" stroke="#63b8ff" points="128.95,-14.7 118.49,-16.37 127.71,-21.59 128.95,-14.7"/>
</a>
</g>
</g>
<!-- Node5 -->
<g id="Node000005" class="node">
<title>Node5</title>
<g id="a_Node000005"><a xlink:title=" ">
<polygon fill="#e0e0e0" stroke="#999999" points="193.69,-18 136.43,-18 136.43,0 193.69,0 193.69,-18"/>
<text text-anchor="middle" x="165.06" y="-6" font-family="Helvetica,sans-Serif" font-size="10.00">algorithm</text>
</a>
</g>
</g>
<!-- Node3&#45;&gt;Node5 -->
<g id="edge4_Node000003_Node000005" class="edge">
<title>Node3&#45;&gt;Node5</title>
<g id="a_edge4_Node000003_Node000005"><a xlink:title=" ">
<path fill="none" stroke="#63b8ff" d="M376.59,-54.01C335.73,-45.71 269.77,-32.23 203.88,-18.37"/>
<polygon fill="#63b8ff" stroke="#63b8ff" points="204.25,-14.87 193.74,-16.23 202.8,-21.72 204.25,-14.87"/>
</a>
</g>
</g>
<!-- Node6 -->
<g id="Node000006" class="node">
<title>Node6</title>
<g id="a_Node000006"><a xlink:title=" ">
<polygon fill="#e0e0e0" stroke="#999999" points="260.9,-18 211.22,-18 211.22,0 260.9,0 260.9,-18"/>
<text text-anchor="middle" x="236.06" y="-6" font-family="Helvetica,sans-Serif" font-size="10.00">fstream</text>
</a>
</g>
</g>
<!-- Node3&#45;&gt;Node6 -->
<g id="edge5_Node000003_Node000006" class="edge">
<title>Node3&#45;&gt;Node6</title>
<g id="a_edge5_Node000003_Node000006"><a xlink:title=" ">
<path fill="none" stroke="#63b8ff" d="M388.33,-53.99C356.78,-44.88 305.21,-29.98 270.96,-20.08"/>
<polygon fill="#63b8ff" stroke="#63b8ff" points="271.5,-16.6 260.92,-17.18 269.56,-23.32 271.5,-16.6"/>
</a>
</g>
</g>
<!-- Node7 -->
<g id="Node000007" class="node">
<title>Node7</title>
<g id="a_Node000007"><a xlink:title=" ">
<polygon fill="#e0e0e0" stroke="#999999" points="319.52,-18 278.61,-18 278.61,0 319.52,0 319.52,-18"/>
<text text-anchor="middle" x="299.06" y="-6" font-family="Helvetica,sans-Serif" font-size="10.00">string</text>
</a>
</g>
</g>
<!-- Node3&#45;&gt;Node7 -->
<g id="edge6_Node000003_Node000007" class="edge">
<title>Node3&#45;&gt;Node7</title>
<g id="a_edge6_Node000003_Node000007"><a xlink:title=" ">
<path fill="none" stroke="#63b8ff" d="M398.04,-53.99C378.94,-45.5 348.56,-32 326.49,-22.19"/>
<polygon fill="#63b8ff" stroke="#63b8ff" points="327.86,-18.97 317.3,-18.11 325.02,-25.37 327.86,-18.97"/>
</a>
</g>
</g>
<!-- Node8 -->
<g id="Node000008" class="node">
<title>Node8</title>
<g id="a_Node000008"><a xlink:title=" ">
<polygon fill="#e0e0e0" stroke="#999999" points="378.58,-18 337.55,-18 337.55,0 378.58,0 378.58,-18"/>
<text text-anchor="middle" x="358.06" y="-6" font-family="Helvetica,sans-Serif" font-size="10.00">regex</text>
</a>
</g>
</g>
<!-- Node3&#45;&gt;Node8 -->
<g id="edge7_Node000003_Node000008" class="edge">
<title>Node3&#45;&gt;Node8</title>
<g id="a_edge7_Node000003_Node000008"><a xlink:title=" ">
<path fill="none" stroke="#63b8ff" d="M407,-53.88C398.45,-46.21 385.43,-34.53 374.96,-25.15"/>
<polygon fill="#63b8ff" stroke="#63b8ff" points="377.03,-22.31 367.25,-18.24 372.36,-27.52 377.03,-22.31"/>
</a>
</g>
</g>
<!-- Node9 -->
<g id="Node000009" class="node">
<title>Node9</title>
<g id="a_Node000009"><a xlink:title=" ">
<polygon fill="#e0e0e0" stroke="#999999" points="435.35,-18 396.78,-18 396.78,0 435.35,0 435.35,-18"/>
<text text-anchor="middle" x="416.06" y="-6" font-family="Helvetica,sans-Serif" font-size="10.00">utility</text>
</a>
</g>
</g>
<!-- Node3&#45;&gt;Node9 -->
<g id="edge8_Node000003_Node000009" class="edge">
<title>Node3&#45;&gt;Node9</title>
<g id="a_edge8_Node000003_Node000009"><a xlink:title=" ">
<path fill="none" stroke="#63b8ff" d="M416.06,-53.88C416.06,-47.05 416.06,-37.03 416.06,-28.29"/>
<polygon fill="#63b8ff" stroke="#63b8ff" points="419.56,-28.24 416.06,-18.24 412.56,-28.24 419.56,-28.24"/>
</a>
</g>
</g>
<!-- Node10 -->
<g id="Node000010" class="node">
<title>Node10</title>
<g id="a_Node000010"><a xlink:title=" ">
<polygon fill="#e0e0e0" stroke="#999999" points="540.17,-18 453.96,-18 453.96,0 540.17,0 540.17,-18"/>
<text text-anchor="middle" x="497.06" y="-6" font-family="Helvetica,sans-Serif" font-size="10.00">unordered_map</text>
</a>
</g>
</g>
<!-- Node3&#45;&gt;Node10 -->
<g id="edge9_Node000003_Node000010" class="edge">
<title>Node3&#45;&gt;Node10</title>
<g id="a_edge9_Node000003_Node000010"><a xlink:title=" ">
<path fill="none" stroke="#63b8ff" d="M428.72,-53.88C441.32,-45.79 460.89,-33.22 475.87,-23.61"/>
<polygon fill="#63b8ff" stroke="#63b8ff" points="477.97,-26.42 484.49,-18.07 474.19,-20.53 477.97,-26.42"/>
</a>
</g>
</g>
<!-- Node11 -->
<g id="Node000011" class="node">
<title>Node11</title>
<g id="a_Node000011"><a xlink:title=" ">
<polygon fill="#e0e0e0" stroke="#999999" points="639.56,-18 558.57,-18 558.57,0 639.56,0 639.56,-18"/>
<text text-anchor="middle" x="599.06" y="-6" font-family="Helvetica,sans-Serif" font-size="10.00">unordered_set</text>
</a>
</g>
</g>
<!-- Node3&#45;&gt;Node11 -->
<g id="edge10_Node000003_Node000011" class="edge">
<title>Node3&#45;&gt;Node11</title>
<g id="a_edge10_Node000003_Node000011"><a xlink:title=" ">
<path fill="none" stroke="#63b8ff" d="M444.25,-53.99C475.55,-45.1 526.24,-30.69 561.03,-20.81"/>
<polygon fill="#63b8ff" stroke="#63b8ff" points="562.17,-24.12 570.84,-18.02 560.26,-17.39 562.17,-24.12"/>
</a>
</g>
</g>
<!-- Node12 -->
<g id="Node000012" class="node">
<title>Node12</title>
<g id="a_Node000012"><a xlink:title=" ">
<polygon fill="#e0e0e0" stroke="#999999" points="686.9,-18 657.22,-18 657.22,0 686.9,0 686.9,-18"/>
<text text-anchor="middle" x="672.06" y="-6" font-family="Helvetica,sans-Serif" font-size="10.00">set</text>
</a>
</g>
</g>
<!-- Node3&#45;&gt;Node12 -->
<g id="edge11_Node000003_Node000012" class="edge">
<title>Node3&#45;&gt;Node12</title>
<g id="a_edge11_Node000003_Node000012"><a xlink:title=" ">
<path fill="none" stroke="#63b8ff" d="M455.41,-56.19C499.86,-49.27 574.45,-36.55 647.37,-17.86"/>
<polygon fill="#63b8ff" stroke="#63b8ff" points="648.38,-21.21 657.18,-15.31 646.62,-14.44 648.38,-21.21"/>
</a>
</g>
</g>
<!-- Node13 -->
<g id="Node000013" class="node">
<title>Node13</title>
<g id="a_Node000013"><a xlink:title=" ">
<polygon fill="#e0e0e0" stroke="#999999" points="747.79,-18 704.33,-18 704.33,0 747.79,0 747.79,-18"/>
<text text-anchor="middle" x="726.06" y="-6" font-family="Helvetica,sans-Serif" font-size="10.00">vector</text>
</a>
</g>
</g>
<!-- Node3&#45;&gt;Node13 -->
<g id="edge12_Node000003_Node000013" class="edge">
<title>Node3&#45;&gt;Node13</title>
<g id="a_edge12_Node000003_Node000013"><a xlink:title=" ">
<path fill="none" stroke="#63b8ff" d="M455.71,-57.1C508.27,-50.31 604.05,-36.94 694.33,-18.19"/>
<polygon fill="#63b8ff" stroke="#63b8ff" points="695.1,-21.6 704.17,-16.12 693.66,-14.75 695.1,-21.6"/>
</a>
</g>
</g>
<!-- Node14 -->
<g id="Node000014" class="node">
<title>Node14</title>
<g id="a_Node000014"><a xlink:title=" ">
<polygon fill="#e0e0e0" stroke="#999999" points="802.75,-18 765.38,-18 765.38,0 802.75,0 802.75,-18"/>
<text text-anchor="middle" x="784.06" y="-6" font-family="Helvetica,sans-Serif" font-size="10.00">tuple</text>
</a>
</g>
</g>
<!-- Node3&#45;&gt;Node14 -->
<g id="edge13_Node000003_Node000014" class="edge">
<title>Node3&#45;&gt;Node14</title>
<g id="a_edge13_Node000003_Node000014"><a xlink:title=" ">
<path fill="none" stroke="#63b8ff" d="M455.53,-58.97C517.59,-53.76 641.86,-41.51 755.38,-18.06"/>
<polygon fill="#63b8ff" stroke="#63b8ff" points="756.21,-21.46 765.28,-15.98 754.77,-14.61 756.21,-21.46"/>
</a>
</g>
</g>
<!-- Node15 -->
<g id="Node000015" class="node">
<title>Node15</title>
<g id="a_Node000015"><a xlink:title=" ">
<polygon fill="#e0e0e0" stroke="#999999" points="859.35,-18 820.78,-18 820.78,0 859.35,0 859.35,-18"/>
<text text-anchor="middle" x="840.06" y="-6" font-family="Helvetica,sans-Serif" font-size="10.00">array</text>
</a>
</g>
</g>
<!-- Node3&#45;&gt;Node15 -->
<g id="edge14_Node000003_Node000015" class="edge">
<title>Node3&#45;&gt;Node15</title>
<g id="a_edge14_Node000003_Node000015"><a xlink:title=" ">
<path fill="none" stroke="#63b8ff" d="M455.46,-59.82C525.28,-55.47 675.38,-44.01 810.47,-18"/>
<polygon fill="#63b8ff" stroke="#63b8ff" points="811.44,-21.37 820.58,-16.02 810.09,-14.5 811.44,-21.37"/>
</a>
</g>
</g>
<!-- Node16 -->
<g id="Node000016" class="node">
<title>Node16</title>
<g id="a_Node000016"><a xlink:title=" ">
<polygon fill="#e0e0e0" stroke="#999999" points="926.29,-18 877.83,-18 877.83,0 926.29,0 926.29,-18"/>
<text text-anchor="middle" x="902.06" y="-6" font-family="Helvetica,sans-Serif" font-size="10.00">cassert</text>
</a>
</g>
</g>
<!-- Node3&#45;&gt;Node16 -->
<g id="edge16_Node000003_Node000016" class="edge">
<title>Node3&#45;&gt;Node16</title>
<g id="a_edge16_Node000003_Node000016"><a xlink:title=" ">
<path fill="none" stroke="#63b8ff" d="M455.59,-59.94C532.84,-55.53 709.34,-43.55 867.7,-17.8"/>
<polygon fill="#63b8ff" stroke="#63b8ff" points="868.33,-21.24 877.63,-16.16 867.19,-14.34 868.33,-21.24"/>
</a>
</g>
</g>
</g>
</svg>
