<?xml version="1.0" encoding="UTF-8" standalone="no"?>
<!DOCTYPE svg PUBLIC "-//W3C//DTD SVG 1.1//EN"
 "http://www.w3.org/Graphics/SVG/1.1/DTD/svg11.dtd">
<!-- Generated by graphviz version 2.48.0 (20210717.1556)
 -->
<!-- Title: manifest.hpp Pages: 1 -->
<svg width="258pt" height="242pt"
 viewBox="0.00 0.00 257.81 242.00" xmlns="http://www.w3.org/2000/svg" xmlns:xlink="http://www.w3.org/1999/xlink">
<g id="graph0" class="graph" transform="scale(1 1) rotate(0) translate(4 238)">
<title>manifest.hpp</title>
<!-- Node1 -->
<g id="Node000001" class="node">
<title>Node1</title>
<g id="a_Node000001"><a xlink:title=" ">
<polygon fill="#999999" stroke="#666666" points="201.5,-234 127.99,-234 127.99,-216 201.5,-216 201.5,-234"/>
<text text-anchor="middle" x="164.75" y="-222" font-family="Helvetica,sans-Serif" font-size="10.00">manifest.hpp</text>
</a>
</g>
</g>
<!-- Node2 -->
<g id="Node000002" class="node">
<title>Node2</title>
<g id="a_Node000002"><a xlink:href="container_8cpp.html" target="_top" xlink:title=" ">
<polygon fill="white" stroke="#666666" points="75.74,-18 -0.25,-18 -0.25,0 75.74,0 75.74,-18"/>
<text text-anchor="middle" x="37.75" y="-6" font-family="Helvetica,sans-Serif" font-size="10.00">container.cpp</text>
</a>
</g>
</g>
<!-- Node1&#45;&gt;Node2 -->
<g id="edge1_Node000001_Node000002" class="edge">
<title>Node1&#45;&gt;Node2</title>
<g id="a_edge1_Node000001_Node000002"><a xlink:title=" ">
<path fill="none" stroke="#63b8ff" d="M142.04,-210.38C116.68,-193.84 76.6,-163.46 56.75,-126 37.35,-89.4 36.77,-37.9 37.36,-18.15"/>
<polygon fill="#63b8ff" stroke="#63b8ff" points="140.33,-213.44 150.65,-215.83 144.08,-207.52 140.33,-213.44"/>
</a>
</g>
</g>
<!-- Node3 -->
<g id="Node000003" class="node">
<title>Node3</title>
<g id="a_Node000003"><a xlink:href="navigation_8hpp.html" target="_top" xlink:title=" ">
<polygon fill="white" stroke="#666666" points="147.3,-126 66.19,-126 66.19,-108 147.3,-108 147.3,-126"/>
<text text-anchor="middle" x="106.75" y="-114" font-family="Helvetica,sans-Serif" font-size="10.00">navigation.hpp</text>
</a>
</g>
</g>
<!-- Node1&#45;&gt;Node3 -->
<g id="edge2_Node000001_Node000003" class="edge">
<title>Node1&#45;&gt;Node3</title>
<g id="a_edge2_Node000001_Node000003"><a xlink:title=" ">
<path fill="none" stroke="#63b8ff" d="M148.2,-208.69C140.46,-200.76 131.66,-190.55 125.75,-180 115.72,-162.13 110.35,-138.33 108.08,-126.07"/>
<polygon fill="#63b8ff" stroke="#63b8ff" points="145.85,-211.28 155.45,-215.78 150.75,-206.28 145.85,-211.28"/>
</a>
</g>
</g>
<!-- Node6 -->
<g id="Node000006" class="node">
<title>Node6</title>
<g id="a_Node000006"><a xlink:href="xml_8cpp.html" target="_top" xlink:title=" ">
<polygon fill="white" stroke="#666666" points="227.2,-72 176.29,-72 176.29,-54 227.2,-54 227.2,-72"/>
<text text-anchor="middle" x="201.75" y="-60" font-family="Helvetica,sans-Serif" font-size="10.00">xml.cpp</text>
</a>
</g>
</g>
<!-- Node1&#45;&gt;Node6 -->
<g id="edge12_Node000001_Node000006" class="edge">
<title>Node1&#45;&gt;Node6</title>
<g id="a_edge12_Node000001_Node000006"><a xlink:title=" ">
<path fill="none" stroke="#63b8ff" d="M185.96,-209.78C196.68,-201.88 209.36,-191.37 218.75,-180 236.09,-158.99 241.1,-152.42 247.75,-126 249.7,-118.24 250.89,-115.36 247.75,-108 241.15,-92.55 226.17,-79.94 215.09,-72.24"/>
<polygon fill="#63b8ff" stroke="#63b8ff" points="183.66,-207.12 177.53,-215.76 187.71,-212.83 183.66,-207.12"/>
</a>
</g>
</g>
<!-- Node7 -->
<g id="Node000007" class="node">
<title>Node7</title>
<g id="a_Node000007"><a xlink:href="package_8hpp.html" target="_top" xlink:title=" ">
<polygon fill="white" stroke="#666666" points="238.52,-126 164.98,-126 164.98,-108 238.52,-108 238.52,-126"/>
<text text-anchor="middle" x="201.75" y="-114" font-family="Helvetica,sans-Serif" font-size="10.00">package.hpp</text>
</a>
</g>
</g>
<!-- Node1&#45;&gt;Node7 -->
<g id="edge7_Node000001_Node000007" class="edge">
<title>Node1&#45;&gt;Node7</title>
<g id="a_edge7_Node000001_Node000007"><a xlink:title=" ">
<path fill="none" stroke="#63b8ff" d="M183.01,-209.05C191,-201.32 199.51,-191.17 203.75,-180 210.62,-161.88 206.84,-138.59 203.99,-126.36"/>
<polygon fill="#63b8ff" stroke="#63b8ff" points="180.46,-206.63 175.36,-215.92 185.14,-211.84 180.46,-206.63"/>
</a>
</g>
</g>
<!-- Node8 -->
<g id="Node000008" class="node">
<title>Node8</title>
<g id="a_Node000008"><a xlink:href="spine_8hpp.html" target="_top" xlink:title=" ">
<polygon fill="white" stroke="#666666" points="194.62,-180 134.88,-180 134.88,-162 194.62,-162 194.62,-180"/>
<text text-anchor="middle" x="164.75" y="-168" font-family="Helvetica,sans-Serif" font-size="10.00">spine.hpp</text>
</a>
</g>
</g>
<!-- Node1&#45;&gt;Node8 -->
<g id="edge10_Node000001_Node000008" class="edge">
<title>Node1&#45;&gt;Node8</title>
<g id="a_edge10_Node000001_Node000008"><a xlink:title=" ">
<path fill="none" stroke="#63b8ff" d="M164.75,-205.86C164.75,-197.13 164.75,-187.1 164.75,-180.24"/>
<polygon fill="#63b8ff" stroke="#63b8ff" points="161.25,-205.87 164.75,-215.88 168.25,-205.88 161.25,-205.87"/>
</a>
</g>
</g>
<!-- Node4 -->
<g id="Node000004" class="node">
<title>Node4</title>
<g id="a_Node000004"><a xlink:href="container_8hpp.html" target="_top" xlink:title=" ">
<polygon fill="white" stroke="#666666" points="151.8,-72 75.69,-72 75.69,-54 151.8,-54 151.8,-72"/>
<text text-anchor="middle" x="113.75" y="-60" font-family="Helvetica,sans-Serif" font-size="10.00">container.hpp</text>
</a>
</g>
</g>
<!-- Node3&#45;&gt;Node4 -->
<g id="edge3_Node000003_Node000004" class="edge">
<title>Node3&#45;&gt;Node4</title>
<g id="a_edge3_Node000003_Node000004"><a xlink:title=" ">
<path fill="none" stroke="#63b8ff" d="M109.19,-97.86C110.36,-89.13 111.71,-79.1 112.64,-72.24"/>
<polygon fill="#63b8ff" stroke="#63b8ff" points="105.71,-97.5 107.84,-107.88 112.64,-98.43 105.71,-97.5"/>
</a>
</g>
</g>
<!-- Node3&#45;&gt;Node6 -->
<g id="edge6_Node000003_Node000006" class="edge">
<title>Node3&#45;&gt;Node6</title>
<g id="a_edge6_Node000003_Node000006"><a xlink:title=" ">
<path fill="none" stroke="#63b8ff" d="M130.74,-102.87C148.45,-93.17 171.99,-80.29 187.01,-72.07"/>
<polygon fill="#63b8ff" stroke="#63b8ff" points="128.68,-100 121.59,-107.88 132.04,-106.14 128.68,-100"/>
</a>
</g>
</g>
<!-- Node4&#45;&gt;Node2 -->
<g id="edge5_Node000004_Node000002" class="edge">
<title>Node4&#45;&gt;Node2</title>
<g id="a_edge5_Node000004_Node000002"><a xlink:title=" ">
<path fill="none" stroke="#63b8ff" d="M93.42,-48.09C79.49,-38.56 61.49,-26.25 49.79,-18.24"/>
<polygon fill="#63b8ff" stroke="#63b8ff" points="91.64,-51.12 101.87,-53.88 95.59,-45.34 91.64,-51.12"/>
</a>
</g>
</g>
<!-- Node5 -->
<g id="Node000005" class="node">
<title>Node5</title>
<g id="a_Node000005"><a xlink:href="binder_8cpp.html" target="_top" xlink:title=" ">
<polygon fill="white" stroke="#666666" points="155.9,-18 93.59,-18 93.59,0 155.9,0 155.9,-18"/>
<text text-anchor="middle" x="124.75" y="-6" font-family="Helvetica,sans-Serif" font-size="10.00">binder.cpp</text>
</a>
</g>
</g>
<!-- Node4&#45;&gt;Node5 -->
<g id="edge4_Node000004_Node000005" class="edge">
<title>Node4&#45;&gt;Node5</title>
<g id="a_edge4_Node000004_Node000005"><a xlink:title=" ">
<path fill="none" stroke="#63b8ff" d="M117.58,-43.86C119.43,-35.13 121.55,-25.1 123,-18.24"/>
<polygon fill="#63b8ff" stroke="#63b8ff" points="114.11,-43.37 115.46,-53.88 120.96,-44.82 114.11,-43.37"/>
</a>
</g>
</g>
<!-- Node7&#45;&gt;Node4 -->
<g id="edge8_Node000007_Node000004" class="edge">
<title>Node7&#45;&gt;Node4</title>
<g id="a_edge8_Node000007_Node000004"><a xlink:title=" ">
<path fill="none" stroke="#63b8ff" d="M179.07,-102.6C162.71,-92.94 141.18,-80.21 127.4,-72.07"/>
<polygon fill="#63b8ff" stroke="#63b8ff" points="177.61,-105.8 188,-107.88 181.17,-99.77 177.61,-105.8"/>
</a>
</g>
</g>
<!-- Node7&#45;&gt;Node6 -->
<g id="edge9_Node000007_Node000006" class="edge">
<title>Node7&#45;&gt;Node6</title>
<g id="a_edge9_Node000007_Node000006"><a xlink:title=" ">
<path fill="none" stroke="#63b8ff" d="M201.75,-97.86C201.75,-89.13 201.75,-79.1 201.75,-72.24"/>
<polygon fill="#63b8ff" stroke="#63b8ff" points="198.25,-97.87 201.75,-107.88 205.25,-97.88 198.25,-97.87"/>
</a>
</g>
</g>
<!-- Node8&#45;&gt;Node7 -->
<g id="edge11_Node000008_Node000007" class="edge">
<title>Node8&#45;&gt;Node7</title>
<g id="a_edge11_Node000008_Node000007"><a xlink:title=" ">
<path fill="none" stroke="#63b8ff" d="M176.43,-153.58C182.9,-144.48 190.67,-133.56 195.88,-126.24"/>
<polygon fill="#63b8ff" stroke="#63b8ff" points="173.47,-151.7 170.53,-161.88 179.18,-155.76 173.47,-151.7"/>
</a>
</g>
</g>
</g>
</svg>
