<?xml version="1.0" encoding="UTF-8" standalone="no"?>
<!DOCTYPE svg PUBLIC "-//W3C//DTD SVG 1.1//EN"
 "http://www.w3.org/Graphics/SVG/1.1/DTD/svg11.dtd">
<!-- Generated by graphviz version 2.48.0 (20210717.1556)
 -->
<!-- Title: manifest_item.hpp Pages: 1 -->
<svg width="311pt" height="188pt"
 viewBox="0.00 0.00 311.25 188.00" xmlns="http://www.w3.org/2000/svg" xmlns:xlink="http://www.w3.org/1999/xlink">
<g id="graph0" class="graph" transform="scale(1 1) rotate(0) translate(4 184)">
<title>manifest_item.hpp</title>
<!-- Node1 -->
<g id="Node000001" class="node">
<title>Node1</title>
<g id="a_Node000001"><a xlink:title=" ">
<polygon fill="#999999" stroke="#666666" points="181.22,-180 83.8,-180 83.8,-162 181.22,-162 181.22,-180"/>
<text text-anchor="middle" x="132.51" y="-168" font-family="Helvetica,sans-Serif" font-size="10.00">manifest_item.hpp</text>
</a>
</g>
</g>
<!-- Node2 -->
<g id="Node000002" class="node">
<title>Node2</title>
<g id="a_Node000002"><a xlink:href="comic_8cpp.html" target="_top" xlink:title=" ">
<polygon fill="white" stroke="#666666" points="61.02,-18 -0.01,-18 -0.01,0 61.02,0 61.02,-18"/>
<text text-anchor="middle" x="30.51" y="-6" font-family="Helvetica,sans-Serif" font-size="10.00">comic.cpp</text>
</a>
</g>
</g>
<!-- Node1&#45;&gt;Node2 -->
<g id="edge1_Node000001_Node000002" class="edge">
<title>Node1&#45;&gt;Node2</title>
<g id="a_edge1_Node000001_Node000002"><a xlink:title=" ">
<path fill="none" stroke="#63b8ff" d="M114.18,-155.21C105.07,-147.23 94.37,-136.81 86.51,-126 59.81,-89.28 40.24,-37.86 33.28,-18.14"/>
<polygon fill="#63b8ff" stroke="#63b8ff" points="112.07,-158.01 121.96,-161.8 116.59,-152.67 112.07,-158.01"/>
</a>
</g>
</g>
<!-- Node3 -->
<g id="Node000003" class="node">
<title>Node3</title>
<g id="a_Node000003"><a xlink:href="container_8cpp.html" target="_top" xlink:title=" ">
<polygon fill="white" stroke="#666666" points="303.5,-18 227.51,-18 227.51,0 303.5,0 303.5,-18"/>
<text text-anchor="middle" x="265.51" y="-6" font-family="Helvetica,sans-Serif" font-size="10.00">container.cpp</text>
</a>
</g>
</g>
<!-- Node1&#45;&gt;Node3 -->
<g id="edge2_Node000001_Node000003" class="edge">
<title>Node1&#45;&gt;Node3</title>
<g id="a_edge2_Node000001_Node000003"><a xlink:title=" ">
<path fill="none" stroke="#63b8ff" d="M149.33,-155.15C158.33,-146.9 169.41,-136.25 178.51,-126 212.25,-87.96 246.91,-37.73 260.03,-18.23"/>
<polygon fill="#63b8ff" stroke="#63b8ff" points="146.84,-152.68 141.75,-161.98 151.53,-157.88 146.84,-152.68"/>
</a>
</g>
</g>
<!-- Node4 -->
<g id="Node000004" class="node">
<title>Node4</title>
<g id="a_Node000004"><a xlink:href="package_8hpp.html" target="_top" xlink:title=" ">
<polygon fill="white" stroke="#666666" points="169.28,-126 95.74,-126 95.74,-108 169.28,-108 169.28,-126"/>
<text text-anchor="middle" x="132.51" y="-114" font-family="Helvetica,sans-Serif" font-size="10.00">package.hpp</text>
</a>
</g>
</g>
<!-- Node1&#45;&gt;Node4 -->
<g id="edge3_Node000001_Node000004" class="edge">
<title>Node1&#45;&gt;Node4</title>
<g id="a_edge3_Node000001_Node000004"><a xlink:title=" ">
<path fill="none" stroke="#63b8ff" d="M132.51,-151.86C132.51,-143.13 132.51,-133.1 132.51,-126.24"/>
<polygon fill="#63b8ff" stroke="#63b8ff" points="129.01,-151.87 132.51,-161.88 136.01,-151.88 129.01,-151.87"/>
</a>
</g>
</g>
<!-- Node5 -->
<g id="Node000005" class="node">
<title>Node5</title>
<g id="a_Node000005"><a xlink:href="container_8hpp.html" target="_top" xlink:title=" ">
<polygon fill="white" stroke="#666666" points="208.56,-72 132.45,-72 132.45,-54 208.56,-54 208.56,-72"/>
<text text-anchor="middle" x="170.51" y="-60" font-family="Helvetica,sans-Serif" font-size="10.00">container.hpp</text>
</a>
</g>
</g>
<!-- Node4&#45;&gt;Node5 -->
<g id="edge4_Node000004_Node000005" class="edge">
<title>Node4&#45;&gt;Node5</title>
<g id="a_edge4_Node000004_Node000005"><a xlink:title=" ">
<path fill="none" stroke="#63b8ff" d="M144.5,-99.58C151.15,-90.48 159.14,-79.56 164.49,-72.24"/>
<polygon fill="#63b8ff" stroke="#63b8ff" points="141.52,-97.74 138.44,-107.88 147.17,-101.87 141.52,-97.74"/>
</a>
</g>
</g>
<!-- Node7 -->
<g id="Node000007" class="node">
<title>Node7</title>
<g id="a_Node000007"><a xlink:href="xml_8cpp.html" target="_top" xlink:title=" ">
<polygon fill="white" stroke="#666666" points="129.96,-18 79.05,-18 79.05,0 129.96,0 129.96,-18"/>
<text text-anchor="middle" x="104.51" y="-6" font-family="Helvetica,sans-Serif" font-size="10.00">xml.cpp</text>
</a>
</g>
</g>
<!-- Node4&#45;&gt;Node7 -->
<g id="edge9_Node000004_Node000007" class="edge">
<title>Node4&#45;&gt;Node7</title>
<g id="a_edge9_Node000004_Node000007"><a xlink:title=" ">
<path fill="none" stroke="#63b8ff" d="M127.68,-97.71C121.53,-74.45 111.18,-35.27 106.69,-18.28"/>
<polygon fill="#63b8ff" stroke="#63b8ff" points="124.37,-98.91 130.31,-107.68 131.14,-97.12 124.37,-98.91"/>
</a>
</g>
</g>
<!-- Node5&#45;&gt;Node2 -->
<g id="edge6_Node000005_Node000002" class="edge">
<title>Node5&#45;&gt;Node2</title>
<g id="a_edge6_Node000005_Node000002"><a xlink:title=" ">
<path fill="none" stroke="#63b8ff" d="M139.39,-50.44C112.96,-40.62 75.69,-26.78 52.33,-18.11"/>
<polygon fill="#63b8ff" stroke="#63b8ff" points="138.35,-53.79 148.94,-53.99 140.78,-47.23 138.35,-53.79"/>
</a>
</g>
</g>
<!-- Node5&#45;&gt;Node3 -->
<g id="edge7_Node000005_Node000003" class="edge">
<title>Node5&#45;&gt;Node3</title>
<g id="a_edge7_Node000005_Node000003"><a xlink:title=" ">
<path fill="none" stroke="#63b8ff" d="M194.5,-48.87C212.21,-39.17 235.75,-26.29 250.77,-18.07"/>
<polygon fill="#63b8ff" stroke="#63b8ff" points="192.44,-46 185.35,-53.88 195.8,-52.14 192.44,-46"/>
</a>
</g>
</g>
<!-- Node6 -->
<g id="Node000006" class="node">
<title>Node6</title>
<g id="a_Node000006"><a xlink:href="binder_8cpp.html" target="_top" xlink:title=" ">
<polygon fill="white" stroke="#666666" points="209.66,-18 147.35,-18 147.35,0 209.66,0 209.66,-18"/>
<text text-anchor="middle" x="178.51" y="-6" font-family="Helvetica,sans-Serif" font-size="10.00">binder.cpp</text>
</a>
</g>
</g>
<!-- Node5&#45;&gt;Node6 -->
<g id="edge5_Node000005_Node000006" class="edge">
<title>Node5&#45;&gt;Node6</title>
<g id="a_edge5_Node000005_Node000006"><a xlink:title=" ">
<path fill="none" stroke="#63b8ff" d="M173.3,-43.86C174.64,-35.13 176.18,-25.1 177.24,-18.24"/>
<polygon fill="#63b8ff" stroke="#63b8ff" points="169.82,-43.46 171.76,-53.88 176.74,-44.52 169.82,-43.46"/>
</a>
</g>
</g>
<!-- Node5&#45;&gt;Node7 -->
<g id="edge8_Node000005_Node000007" class="edge">
<title>Node5&#45;&gt;Node7</title>
<g id="a_edge8_Node000005_Node000007"><a xlink:title=" ">
<path fill="none" stroke="#63b8ff" d="M152.16,-47.54C140.17,-38.09 124.94,-26.1 114.97,-18.24"/>
<polygon fill="#63b8ff" stroke="#63b8ff" points="150.17,-50.44 160.19,-53.88 154.51,-44.94 150.17,-50.44"/>
</a>
</g>
</g>
</g>
</svg>
