<?xml version="1.0" encoding="UTF-8" standalone="no"?>
<!DOCTYPE svg PUBLIC "-//W3C//DTD SVG 1.1//EN"
 "http://www.w3.org/Graphics/SVG/1.1/DTD/svg11.dtd">
<!-- Generated by graphviz version 2.48.0 (20210717.1556)
 -->
<!-- Title: manifest.hpp Pages: 1 -->
<svg width="432pt" height="134pt"
 viewBox="0.00 0.00 432.13 134.00" xmlns="http://www.w3.org/2000/svg" xmlns:xlink="http://www.w3.org/1999/xlink">
<g id="graph0" class="graph" transform="scale(1 1) rotate(0) translate(4 130)">
<title>manifest.hpp</title>
<!-- Node1 -->
<g id="Node000001" class="node">
<title>Node1</title>
<g id="a_Node000001"><a xlink:title=" ">
<polygon fill="#999999" stroke="#666666" points="256.48,-126 182.97,-126 182.97,-108 256.48,-108 256.48,-126"/>
<text text-anchor="middle" x="219.73" y="-114" font-family="Helvetica,sans-Serif" font-size="10.00">manifest.hpp</text>
</a>
</g>
</g>
<!-- Node2 -->
<g id="Node000002" class="node">
<title>Node2</title>
<g id="a_Node000002"><a xlink:href="file__metadata_8hpp.html" target="_top" xlink:title=" ">
<polygon fill="white" stroke="#666666" points="134.23,-72 39.22,-72 39.22,-54 134.23,-54 134.23,-72"/>
<text text-anchor="middle" x="86.73" y="-60" font-family="Helvetica,sans-Serif" font-size="10.00">file_metadata.hpp</text>
</a>
</g>
</g>
<!-- Node1&#45;&gt;Node2 -->
<g id="edge1_Node000001_Node000002" class="edge">
<title>Node1&#45;&gt;Node2</title>
<g id="a_edge1_Node000001_Node000002"><a xlink:title=" ">
<path fill="none" stroke="#63b8ff" d="M199.24,-107.99C177.24,-99.39 142.06,-85.63 116.9,-75.8"/>
<polygon fill="#63b8ff" stroke="#63b8ff" points="118.05,-72.49 107.46,-72.11 115.5,-79.01 118.05,-72.49"/>
</a>
</g>
</g>
<!-- Node3 -->
<g id="Node000003" class="node">
<title>Node3</title>
<g id="a_Node000003"><a xlink:title=" ">
<polygon fill="#e0e0e0" stroke="#999999" points="35.68,-18 -0.23,-18 -0.23,0 35.68,0 35.68,-18"/>
<text text-anchor="middle" x="17.73" y="-6" font-family="Helvetica,sans-Serif" font-size="10.00">map</text>
</a>
</g>
</g>
<!-- Node1&#45;&gt;Node3 -->
<g id="edge6_Node000001_Node000003" class="edge">
<title>Node1&#45;&gt;Node3</title>
<g id="a_edge6_Node000001_Node000003"><a xlink:title=" ">
<path fill="none" stroke="#63b8ff" d="M182.97,-112.23C133.86,-106.42 50.59,-93.63 29.73,-72 18.67,-60.53 16.3,-42.11 16.31,-28.32"/>
<polygon fill="#63b8ff" stroke="#63b8ff" points="19.82,-28.22 16.75,-18.08 12.83,-27.92 19.82,-28.22"/>
</a>
</g>
</g>
<!-- Node6 -->
<g id="Node000006" class="node">
<title>Node6</title>
<g id="a_Node000006"><a xlink:title=" ">
<polygon fill="#e0e0e0" stroke="#999999" points="213.18,-72 152.27,-72 152.27,-54 213.18,-54 213.18,-72"/>
<text text-anchor="middle" x="182.73" y="-60" font-family="Helvetica,sans-Serif" font-size="10.00">filesystem</text>
</a>
</g>
</g>
<!-- Node1&#45;&gt;Node6 -->
<g id="edge5_Node000001_Node000006" class="edge">
<title>Node1&#45;&gt;Node6</title>
<g id="a_edge5_Node000001_Node000006"><a xlink:title=" ">
<path fill="none" stroke="#63b8ff" d="M213.95,-107.88C208.76,-100.59 201,-89.68 194.51,-80.56"/>
<polygon fill="#63b8ff" stroke="#63b8ff" points="197.24,-78.36 188.59,-72.24 191.54,-82.42 197.24,-78.36"/>
</a>
</g>
</g>
<!-- Node7 -->
<g id="Node000007" class="node">
<title>Node7</title>
<g id="a_Node000007"><a xlink:title=" ">
<polygon fill="#e0e0e0" stroke="#999999" points="282.84,-72 230.61,-72 230.61,-54 282.84,-54 282.84,-72"/>
<text text-anchor="middle" x="256.73" y="-60" font-family="Helvetica,sans-Serif" font-size="10.00">memory</text>
</a>
</g>
</g>
<!-- Node1&#45;&gt;Node7 -->
<g id="edge7_Node000001_Node000007" class="edge">
<title>Node1&#45;&gt;Node7</title>
<g id="a_edge7_Node000001_Node000007"><a xlink:title=" ">
<path fill="none" stroke="#63b8ff" d="M225.51,-107.88C230.69,-100.59 238.45,-89.68 244.94,-80.56"/>
<polygon fill="#63b8ff" stroke="#63b8ff" points="247.92,-82.42 250.86,-72.24 242.21,-78.36 247.92,-82.42"/>
</a>
</g>
</g>
<!-- Node8 -->
<g id="Node000008" class="node">
<title>Node8</title>
<g id="a_Node000008"><a xlink:title=" ">
<polygon fill="#e0e0e0" stroke="#999999" points="346.8,-72 300.65,-72 300.65,-54 346.8,-54 346.8,-72"/>
<text text-anchor="middle" x="323.73" y="-60" font-family="Helvetica,sans-Serif" font-size="10.00">ranges</text>
</a>
</g>
</g>
<!-- Node1&#45;&gt;Node8 -->
<g id="edge8_Node000001_Node000008" class="edge">
<title>Node1&#45;&gt;Node8</title>
<g id="a_edge8_Node000001_Node000008"><a xlink:title=" ">
<path fill="none" stroke="#63b8ff" d="M235.98,-107.88C252.69,-99.52 278.96,-86.39 298.4,-76.66"/>
<polygon fill="#63b8ff" stroke="#63b8ff" points="300.21,-79.67 307.59,-72.07 297.08,-73.41 300.21,-79.67"/>
</a>
</g>
</g>
<!-- Node9 -->
<g id="Node000009" class="node">
<title>Node9</title>
<g id="a_Node000009"><a xlink:title=" ">
<polygon fill="#e0e0e0" stroke="#999999" points="424.03,-72 365.42,-72 365.42,-54 424.03,-54 424.03,-72"/>
<text text-anchor="middle" x="394.73" y="-60" font-family="Helvetica,sans-Serif" font-size="10.00">stdexcept</text>
</a>
</g>
</g>
<!-- Node1&#45;&gt;Node9 -->
<g id="edge9_Node000001_Node000009" class="edge">
<title>Node1&#45;&gt;Node9</title>
<g id="a_edge9_Node000001_Node000009"><a xlink:title=" ">
<path fill="none" stroke="#63b8ff" d="M246.69,-107.99C276.49,-99.13 324.67,-84.82 357.93,-74.93"/>
<polygon fill="#63b8ff" stroke="#63b8ff" points="359.15,-78.22 367.74,-72.02 357.15,-71.51 359.15,-78.22"/>
</a>
</g>
</g>
<!-- Node2&#45;&gt;Node3 -->
<g id="edge2_Node000002_Node000003" class="edge">
<title>Node2&#45;&gt;Node3</title>
<g id="a_edge2_Node000002_Node000003"><a xlink:title=" ">
<path fill="none" stroke="#63b8ff" d="M75.95,-53.88C65.47,-45.98 49.35,-33.84 36.73,-24.32"/>
<polygon fill="#63b8ff" stroke="#63b8ff" points="38.75,-21.46 28.66,-18.24 34.54,-27.05 38.75,-21.46"/>
</a>
</g>
</g>
<!-- Node4 -->
<g id="Node000004" class="node">
<title>Node4</title>
<g id="a_Node000004"><a xlink:title=" ">
<polygon fill="#e0e0e0" stroke="#999999" points="108.26,-18 57.2,-18 57.2,0 108.26,0 108.26,-18"/>
<text text-anchor="middle" x="82.73" y="-6" font-family="Helvetica,sans-Serif" font-size="10.00">optional</text>
</a>
</g>
</g>
<!-- Node2&#45;&gt;Node4 -->
<g id="edge3_Node000002_Node000004" class="edge">
<title>Node2&#45;&gt;Node4</title>
<g id="a_edge3_Node000002_Node000004"><a xlink:title=" ">
<path fill="none" stroke="#63b8ff" d="M86.1,-53.88C85.58,-47.05 84.81,-37.03 84.13,-28.29"/>
<polygon fill="#63b8ff" stroke="#63b8ff" points="87.62,-27.94 83.36,-18.24 80.64,-28.48 87.62,-27.94"/>
</a>
</g>
</g>
<!-- Node5 -->
<g id="Node000005" class="node">
<title>Node5</title>
<g id="a_Node000005"><a xlink:title=" ">
<polygon fill="#e0e0e0" stroke="#999999" points="167.18,-18 126.27,-18 126.27,0 167.18,0 167.18,-18"/>
<text text-anchor="middle" x="146.73" y="-6" font-family="Helvetica,sans-Serif" font-size="10.00">string</text>
</a>
</g>
</g>
<!-- Node2&#45;&gt;Node5 -->
<g id="edge4_Node000002_Node000005" class="edge">
<title>Node2&#45;&gt;Node5</title>
<g id="a_edge4_Node000002_Node000005"><a xlink:title=" ">
<path fill="none" stroke="#63b8ff" d="M96.1,-53.88C105.03,-46.14 118.69,-34.3 129.57,-24.87"/>
<polygon fill="#63b8ff" stroke="#63b8ff" points="131.95,-27.43 137.22,-18.24 127.37,-22.14 131.95,-27.43"/>
</a>
</g>
</g>
</g>
</svg>
