<?xml version="1.0" encoding="UTF-8" standalone="no"?>
<!DOCTYPE svg PUBLIC "-//W3C//DTD SVG 1.1//EN"
 "http://www.w3.org/Graphics/SVG/1.1/DTD/svg11.dtd">
<!-- Generated by graphviz version 2.48.0 (20210717.1556)
 -->
<!-- Title: manifest.hpp Pages: 1 -->
<svg width="363pt" height="242pt"
 viewBox="0.00 0.00 363.01 242.00" xmlns="http://www.w3.org/2000/svg" xmlns:xlink="http://www.w3.org/1999/xlink">
<g id="graph0" class="graph" transform="scale(1 1) rotate(0) translate(4 238)">
<title>manifest.hpp</title>
<!-- Node1 -->
<g id="Node000001" class="node">
<title>Node1</title>
<g id="a_Node000001"><a xlink:title=" ">
<polygon fill="#999999" stroke="#666666" points="259.5,-234 185.99,-234 185.99,-216 259.5,-216 259.5,-234"/>
<text text-anchor="middle" x="222.75" y="-222" font-family="Helvetica,sans-Serif" font-size="10.00">manifest.hpp</text>
</a>
</g>
</g>
<!-- Node2 -->
<g id="Node000002" class="node">
<title>Node2</title>
<g id="a_Node000002"><a xlink:href="comic_8cpp.html" target="_top" xlink:title=" ">
<polygon fill="white" stroke="#666666" points="335.26,-18 274.23,-18 274.23,0 335.26,0 335.26,-18"/>
<text text-anchor="middle" x="304.75" y="-6" font-family="Helvetica,sans-Serif" font-size="10.00">comic.cpp</text>
</a>
</g>
</g>
<!-- Node1&#45;&gt;Node2 -->
<g id="edge1_Node000001_Node000002" class="edge">
<title>Node1&#45;&gt;Node2</title>
<g id="a_edge1_Node000001_Node000002"><a xlink:title=" ">
<path fill="none" stroke="#63b8ff" d="M269.63,-219.46C295.47,-214.29 325.52,-203.3 341.75,-180 378.51,-127.2 328.48,-44.58 310.64,-18.31"/>
<polygon fill="#63b8ff" stroke="#63b8ff" points="268.84,-216.04 259.6,-221.23 270.05,-222.94 268.84,-216.04"/>
</a>
</g>
</g>
<!-- Node3 -->
<g id="Node000003" class="node">
<title>Node3</title>
<g id="a_Node000003"><a xlink:href="container_8cpp.html" target="_top" xlink:title=" ">
<polygon fill="white" stroke="#666666" points="75.74,-18 -0.25,-18 -0.25,0 75.74,0 75.74,-18"/>
<text text-anchor="middle" x="37.75" y="-6" font-family="Helvetica,sans-Serif" font-size="10.00">container.cpp</text>
</a>
</g>
</g>
<!-- Node1&#45;&gt;Node3 -->
<g id="edge2_Node000001_Node000003" class="edge">
<title>Node1&#45;&gt;Node3</title>
<g id="a_edge2_Node000001_Node000003"><a xlink:title=" ">
<path fill="none" stroke="#63b8ff" d="M185.42,-212.53C146.71,-198.58 87.62,-171.14 56.75,-126 33.24,-91.64 35.13,-38.38 36.87,-18.16"/>
<polygon fill="#63b8ff" stroke="#63b8ff" points="184.68,-215.97 195.27,-215.94 186.97,-209.36 184.68,-215.97"/>
</a>
</g>
</g>
<!-- Node4 -->
<g id="Node000004" class="node">
<title>Node4</title>
<g id="a_Node000004"><a xlink:href="navigation_8hpp.html" target="_top" xlink:title=" ">
<polygon fill="white" stroke="#666666" points="147.3,-126 66.19,-126 66.19,-108 147.3,-108 147.3,-126"/>
<text text-anchor="middle" x="106.75" y="-114" font-family="Helvetica,sans-Serif" font-size="10.00">navigation.hpp</text>
</a>
</g>
</g>
<!-- Node1&#45;&gt;Node4 -->
<g id="edge3_Node000001_Node000004" class="edge">
<title>Node1&#45;&gt;Node4</title>
<g id="a_edge3_Node000001_Node000004"><a xlink:title=" ">
<path fill="none" stroke="#63b8ff" d="M206.09,-208.78C181.23,-186.06 135.25,-144.05 115.81,-126.28"/>
<polygon fill="#63b8ff" stroke="#63b8ff" points="203.9,-211.52 213.64,-215.68 208.62,-206.35 203.9,-211.52"/>
</a>
</g>
</g>
<!-- Node7 -->
<g id="Node000007" class="node">
<title>Node7</title>
<g id="a_Node000007"><a xlink:href="xml_8cpp.html" target="_top" xlink:title=" ">
<polygon fill="white" stroke="#666666" points="229.2,-72 178.29,-72 178.29,-54 229.2,-54 229.2,-72"/>
<text text-anchor="middle" x="203.75" y="-60" font-family="Helvetica,sans-Serif" font-size="10.00">xml.cpp</text>
</a>
</g>
</g>
<!-- Node1&#45;&gt;Node7 -->
<g id="edge15_Node000001_Node000007" class="edge">
<title>Node1&#45;&gt;Node7</title>
<g id="a_edge15_Node000001_Node000007"><a xlink:title=" ">
<path fill="none" stroke="#63b8ff" d="M232.62,-206.89C244.61,-183.75 261.62,-141.49 247.75,-108 241.38,-92.63 226.75,-79.83 216.1,-72.07"/>
<polygon fill="#63b8ff" stroke="#63b8ff" points="229.46,-205.37 227.74,-215.83 235.6,-208.73 229.46,-205.37"/>
</a>
</g>
</g>
<!-- Node8 -->
<g id="Node000008" class="node">
<title>Node8</title>
<g id="a_Node000008"><a xlink:href="package_8hpp.html" target="_top" xlink:title=" ">
<polygon fill="white" stroke="#666666" points="238.52,-126 164.98,-126 164.98,-108 238.52,-108 238.52,-126"/>
<text text-anchor="middle" x="201.75" y="-114" font-family="Helvetica,sans-Serif" font-size="10.00">package.hpp</text>
</a>
</g>
</g>
<!-- Node1&#45;&gt;Node8 -->
<g id="edge9_Node000001_Node000008" class="edge">
<title>Node1&#45;&gt;Node8</title>
<g id="a_edge9_Node000001_Node000008"><a xlink:title=" ">
<path fill="none" stroke="#63b8ff" d="M219.12,-205.71C214.51,-182.45 206.75,-143.27 203.39,-126.28"/>
<polygon fill="#63b8ff" stroke="#63b8ff" points="215.72,-206.55 221.1,-215.68 222.59,-205.19 215.72,-206.55"/>
</a>
</g>
</g>
<!-- Node9 -->
<g id="Node000009" class="node">
<title>Node9</title>
<g id="a_Node000009"><a xlink:href="spine_8hpp.html" target="_top" xlink:title=" ">
<polygon fill="white" stroke="#666666" points="332.62,-180 272.88,-180 272.88,-162 332.62,-162 332.62,-180"/>
<text text-anchor="middle" x="302.75" y="-168" font-family="Helvetica,sans-Serif" font-size="10.00">spine.hpp</text>
</a>
</g>
</g>
<!-- Node1&#45;&gt;Node9 -->
<g id="edge12_Node000001_Node000009" class="edge">
<title>Node1&#45;&gt;Node9</title>
<g id="a_edge12_Node000001_Node000009"><a xlink:title=" ">
<path fill="none" stroke="#63b8ff" d="M243.78,-210.33C258.59,-200.7 277.92,-188.14 290.33,-180.07"/>
<polygon fill="#63b8ff" stroke="#63b8ff" points="241.72,-207.49 235.25,-215.88 245.54,-213.36 241.72,-207.49"/>
</a>
</g>
</g>
<!-- Node5 -->
<g id="Node000005" class="node">
<title>Node5</title>
<g id="a_Node000005"><a xlink:href="container_8hpp.html" target="_top" xlink:title=" ">
<polygon fill="white" stroke="#666666" points="160.8,-72 84.69,-72 84.69,-54 160.8,-54 160.8,-72"/>
<text text-anchor="middle" x="122.75" y="-60" font-family="Helvetica,sans-Serif" font-size="10.00">container.hpp</text>
</a>
</g>
</g>
<!-- Node4&#45;&gt;Node5 -->
<g id="edge4_Node000004_Node000005" class="edge">
<title>Node4&#45;&gt;Node5</title>
<g id="a_edge4_Node000004_Node000005"><a xlink:title=" ">
<path fill="none" stroke="#63b8ff" d="M112.24,-98.15C114.94,-89.35 118.08,-79.18 120.21,-72.24"/>
<polygon fill="#63b8ff" stroke="#63b8ff" points="108.84,-97.29 109.25,-107.88 115.53,-99.35 108.84,-97.29"/>
</a>
</g>
</g>
<!-- Node4&#45;&gt;Node7 -->
<g id="edge8_Node000004_Node000007" class="edge">
<title>Node4&#45;&gt;Node7</title>
<g id="a_edge8_Node000004_Node000007"><a xlink:title=" ">
<path fill="none" stroke="#63b8ff" d="M130.74,-103.14C148.88,-93.41 173.22,-80.37 188.7,-72.07"/>
<polygon fill="#63b8ff" stroke="#63b8ff" points="129.06,-100.07 121.9,-107.88 132.37,-106.23 129.06,-100.07"/>
</a>
</g>
</g>
<!-- Node5&#45;&gt;Node2 -->
<g id="edge6_Node000005_Node000002" class="edge">
<title>Node5&#45;&gt;Node2</title>
<g id="a_edge6_Node000005_Node000002"><a xlink:title=" ">
<path fill="none" stroke="#63b8ff" d="M160.53,-51.2C195.13,-41.32 245.53,-26.92 276.68,-18.02"/>
<polygon fill="#63b8ff" stroke="#63b8ff" points="159.44,-47.88 150.78,-53.99 161.36,-54.61 159.44,-47.88"/>
</a>
</g>
</g>
<!-- Node5&#45;&gt;Node3 -->
<g id="edge7_Node000005_Node000003" class="edge">
<title>Node5&#45;&gt;Node3</title>
<g id="a_edge7_Node000005_Node000003"><a xlink:title=" ">
<path fill="none" stroke="#63b8ff" d="M100.84,-48.6C85.04,-38.94 64.25,-26.21 50.93,-18.07"/>
<polygon fill="#63b8ff" stroke="#63b8ff" points="99.11,-51.64 109.46,-53.88 102.76,-45.67 99.11,-51.64"/>
</a>
</g>
</g>
<!-- Node6 -->
<g id="Node000006" class="node">
<title>Node6</title>
<g id="a_Node000006"><a xlink:href="binder_8cpp.html" target="_top" xlink:title=" ">
<polygon fill="white" stroke="#666666" points="155.9,-18 93.59,-18 93.59,0 155.9,0 155.9,-18"/>
<text text-anchor="middle" x="124.75" y="-6" font-family="Helvetica,sans-Serif" font-size="10.00">binder.cpp</text>
</a>
</g>
</g>
<!-- Node5&#45;&gt;Node6 -->
<g id="edge5_Node000005_Node000006" class="edge">
<title>Node5&#45;&gt;Node6</title>
<g id="a_edge5_Node000005_Node000006"><a xlink:title=" ">
<path fill="none" stroke="#63b8ff" d="M123.44,-43.86C123.78,-35.13 124.17,-25.1 124.43,-18.24"/>
<polygon fill="#63b8ff" stroke="#63b8ff" points="119.95,-43.75 123.06,-53.88 126.94,-44.02 119.95,-43.75"/>
</a>
</g>
</g>
<!-- Node8&#45;&gt;Node5 -->
<g id="edge10_Node000008_Node000005" class="edge">
<title>Node8&#45;&gt;Node5</title>
<g id="a_edge10_Node000008_Node000005"><a xlink:title=" ">
<path fill="none" stroke="#63b8ff" d="M180.97,-102.33C166.35,-92.7 147.26,-80.14 135,-72.07"/>
<polygon fill="#63b8ff" stroke="#63b8ff" points="179.13,-105.3 189.4,-107.88 182.97,-99.45 179.13,-105.3"/>
</a>
</g>
</g>
<!-- Node8&#45;&gt;Node7 -->
<g id="edge11_Node000008_Node000007" class="edge">
<title>Node8&#45;&gt;Node7</title>
<g id="a_edge11_Node000008_Node000007"><a xlink:title=" ">
<path fill="none" stroke="#63b8ff" d="M202.44,-97.86C202.78,-89.13 203.17,-79.1 203.43,-72.24"/>
<polygon fill="#63b8ff" stroke="#63b8ff" points="198.95,-97.75 202.06,-107.88 205.94,-98.02 198.95,-97.75"/>
</a>
</g>
</g>
<!-- Node9&#45;&gt;Node2 -->
<g id="edge13_Node000009_Node000002" class="edge">
<title>Node9&#45;&gt;Node2</title>
<g id="a_edge13_Node000009_Node000002"><a xlink:title=" ">
<path fill="none" stroke="#63b8ff" d="M302.97,-151.74C303.41,-117.12 304.33,-43.16 304.64,-18.33"/>
<polygon fill="#63b8ff" stroke="#63b8ff" points="299.47,-151.8 302.85,-161.85 306.47,-151.89 299.47,-151.8"/>
</a>
</g>
</g>
<!-- Node9&#45;&gt;Node8 -->
<g id="edge14_Node000009_Node000008" class="edge">
<title>Node9&#45;&gt;Node8</title>
<g id="a_edge14_Node000009_Node000008"><a xlink:title=" ">
<path fill="none" stroke="#63b8ff" d="M278.02,-157.27C259.11,-147.53 233.61,-134.4 217.42,-126.07"/>
<polygon fill="#63b8ff" stroke="#63b8ff" points="276.47,-160.41 286.96,-161.88 279.68,-154.19 276.47,-160.41"/>
</a>
</g>
</g>
</g>
</svg>
