<?xml version="1.0" encoding="UTF-8" standalone="no"?>
<!DOCTYPE svg PUBLIC "-//W3C//DTD SVG 1.1//EN"
 "http://www.w3.org/Graphics/SVG/1.1/DTD/svg11.dtd">
<!-- Generated by graphviz version 2.48.0 (20210717.1556)
 -->
<!-- Title: media_type.hpp Pages: 1 -->
<svg width="206pt" height="80pt"
 viewBox="0.00 0.00 206.24 80.00" xmlns="http://www.w3.org/2000/svg" xmlns:xlink="http://www.w3.org/1999/xlink">
<g id="graph0" class="graph" transform="scale(1 1) rotate(0) translate(4 76)">
<title>media_type.hpp</title>
<!-- Node1 -->
<g id="Node000001" class="node">
<title>Node1</title>
<g id="a_Node000001"><a xlink:title=" ">
<polygon fill="#999999" stroke="#666666" points="139.89,-72 52.56,-72 52.56,-54 139.89,-54 139.89,-72"/>
<text text-anchor="middle" x="96.23" y="-60" font-family="Helvetica,sans-Serif" font-size="10.00">media_type.hpp</text>
</a>
</g>
</g>
<!-- Node2 -->
<g id="Node000002" class="node">
<title>Node2</title>
<g id="a_Node000002"><a xlink:title=" ">
<polygon fill="#e0e0e0" stroke="#999999" points="60.68,-18 -0.23,-18 -0.23,0 60.68,0 60.68,-18"/>
<text text-anchor="middle" x="30.23" y="-6" font-family="Helvetica,sans-Serif" font-size="10.00">filesystem</text>
</a>
</g>
</g>
<!-- Node1&#45;&gt;Node2 -->
<g id="edge1_Node000001_Node000002" class="edge">
<title>Node1&#45;&gt;Node2</title>
<g id="a_edge1_Node000001_Node000002"><a xlink:title=" ">
<path fill="none" stroke="#63b8ff" d="M85.91,-53.88C75.99,-46.06 60.78,-34.07 48.75,-24.6"/>
<polygon fill="#63b8ff" stroke="#63b8ff" points="50.71,-21.68 40.68,-18.24 46.37,-27.18 50.71,-21.68"/>
</a>
</g>
</g>
<!-- Node3 -->
<g id="Node000003" class="node">
<title>Node3</title>
<g id="a_Node000003"><a xlink:title=" ">
<polygon fill="#e0e0e0" stroke="#999999" points="114.18,-18 78.27,-18 78.27,0 114.18,0 114.18,-18"/>
<text text-anchor="middle" x="96.23" y="-6" font-family="Helvetica,sans-Serif" font-size="10.00">map</text>
</a>
</g>
</g>
<!-- Node1&#45;&gt;Node3 -->
<g id="edge2_Node000001_Node000003" class="edge">
<title>Node1&#45;&gt;Node3</title>
<g id="a_edge2_Node000001_Node000003"><a xlink:title=" ">
<path fill="none" stroke="#63b8ff" d="M96.23,-53.88C96.23,-47.05 96.23,-37.03 96.23,-28.29"/>
<polygon fill="#63b8ff" stroke="#63b8ff" points="99.73,-28.24 96.23,-18.24 92.73,-28.24 99.73,-28.24"/>
</a>
</g>
</g>
<!-- Node4 -->
<g id="Node000004" class="node">
<title>Node4</title>
<g id="a_Node000004"><a xlink:title=" ">
<polygon fill="#e0e0e0" stroke="#999999" points="198.25,-18 132.21,-18 132.21,0 198.25,0 198.25,-18"/>
<text text-anchor="middle" x="165.23" y="-6" font-family="Helvetica,sans-Serif" font-size="10.00">string_view</text>
</a>
</g>
</g>
<!-- Node1&#45;&gt;Node4 -->
<g id="edge3_Node000001_Node000004" class="edge">
<title>Node1&#45;&gt;Node4</title>
<g id="a_edge3_Node000001_Node000004"><a xlink:title=" ">
<path fill="none" stroke="#63b8ff" d="M107.01,-53.88C117.48,-45.98 133.6,-33.84 146.22,-24.32"/>
<polygon fill="#63b8ff" stroke="#63b8ff" points="148.41,-27.05 154.29,-18.24 144.2,-21.46 148.41,-27.05"/>
</a>
</g>
</g>
</g>
</svg>
