<?xml version="1.0" encoding="UTF-8" standalone="no"?>
<!DOCTYPE svg PUBLIC "-//W3C//DTD SVG 1.1//EN"
 "http://www.w3.org/Graphics/SVG/1.1/DTD/svg11.dtd">
<!-- Generated by graphviz version 2.48.0 (20210717.1556)
 -->
<!-- Title: media_type.hpp Pages: 1 -->
<svg width="278pt" height="80pt"
 viewBox="0.00 0.00 278.24 80.00" xmlns="http://www.w3.org/2000/svg" xmlns:xlink="http://www.w3.org/1999/xlink">
<g id="graph0" class="graph" transform="scale(1 1) rotate(0) translate(4 76)">
<title>media_type.hpp</title>
<!-- Node1 -->
<g id="Node000001" class="node">
<title>Node1</title>
<g id="a_Node000001"><a xlink:title=" ">
<polygon fill="#999999" stroke="#666666" points="179.89,-72 92.56,-72 92.56,-54 179.89,-54 179.89,-72"/>
<text text-anchor="middle" x="136.23" y="-60" font-family="Helvetica,sans-Serif" font-size="10.00">media_type.hpp</text>
</a>
</g>
</g>
<!-- Node2 -->
<g id="Node000002" class="node">
<title>Node2</title>
<g id="a_Node000002"><a xlink:title=" ">
<polygon fill="#e0e0e0" stroke="#999999" points="60.68,-18 -0.23,-18 -0.23,0 60.68,0 60.68,-18"/>
<text text-anchor="middle" x="30.23" y="-6" font-family="Helvetica,sans-Serif" font-size="10.00">filesystem</text>
</a>
</g>
</g>
<!-- Node1&#45;&gt;Node2 -->
<g id="edge1_Node000001_Node000002" class="edge">
<title>Node1&#45;&gt;Node2</title>
<g id="a_edge1_Node000001_Node000002"><a xlink:title=" ">
<path fill="none" stroke="#63b8ff" d="M119.66,-53.88C102.55,-45.48 75.61,-32.27 55.77,-22.53"/>
<polygon fill="#63b8ff" stroke="#63b8ff" points="57.19,-19.33 46.67,-18.07 54.11,-25.61 57.19,-19.33"/>
</a>
</g>
</g>
<!-- Node3 -->
<g id="Node000003" class="node">
<title>Node3</title>
<g id="a_Node000003"><a xlink:title=" ">
<polygon fill="#e0e0e0" stroke="#999999" points="132.57,-18 77.88,-18 77.88,0 132.57,0 132.57,-18"/>
<text text-anchor="middle" x="105.23" y="-6" font-family="Helvetica,sans-Serif" font-size="10.00">iostream</text>
</a>
</g>
</g>
<!-- Node1&#45;&gt;Node3 -->
<g id="edge2_Node000001_Node000003" class="edge">
<title>Node1&#45;&gt;Node3</title>
<g id="a_edge2_Node000001_Node000003"><a xlink:title=" ">
<path fill="none" stroke="#63b8ff" d="M131.38,-53.88C127.09,-46.67 120.67,-35.91 115.27,-26.85"/>
<polygon fill="#63b8ff" stroke="#63b8ff" points="118.27,-25.04 110.14,-18.24 112.25,-28.62 118.27,-25.04"/>
</a>
</g>
</g>
<!-- Node4 -->
<g id="Node000004" class="node">
<title>Node4</title>
<g id="a_Node000004"><a xlink:title=" ">
<polygon fill="#e0e0e0" stroke="#999999" points="186.18,-18 150.27,-18 150.27,0 186.18,0 186.18,-18"/>
<text text-anchor="middle" x="168.23" y="-6" font-family="Helvetica,sans-Serif" font-size="10.00">map</text>
</a>
</g>
</g>
<!-- Node1&#45;&gt;Node4 -->
<g id="edge3_Node000001_Node000004" class="edge">
<title>Node1&#45;&gt;Node4</title>
<g id="a_edge3_Node000001_Node000004"><a xlink:title=" ">
<path fill="none" stroke="#63b8ff" d="M141.23,-53.88C145.66,-46.67 152.28,-35.91 157.86,-26.85"/>
<polygon fill="#63b8ff" stroke="#63b8ff" points="160.9,-28.59 163.16,-18.24 154.93,-24.92 160.9,-28.59"/>
</a>
</g>
</g>
<!-- Node5 -->
<g id="Node000005" class="node">
<title>Node5</title>
<g id="a_Node000005"><a xlink:title=" ">
<polygon fill="#e0e0e0" stroke="#999999" points="270.25,-18 204.21,-18 204.21,0 270.25,0 270.25,-18"/>
<text text-anchor="middle" x="237.23" y="-6" font-family="Helvetica,sans-Serif" font-size="10.00">string_view</text>
</a>
</g>
</g>
<!-- Node1&#45;&gt;Node5 -->
<g id="edge4_Node000001_Node000005" class="edge">
<title>Node1&#45;&gt;Node5</title>
<g id="a_edge4_Node000001_Node000005"><a xlink:title=" ">
<path fill="none" stroke="#63b8ff" d="M152.01,-53.88C168.24,-45.52 193.75,-32.39 212.63,-22.66"/>
<polygon fill="#63b8ff" stroke="#63b8ff" points="214.27,-25.76 221.56,-18.07 211.06,-19.53 214.27,-25.76"/>
</a>
</g>
</g>
</g>
</svg>
