<?xml version="1.0" encoding="UTF-8" standalone="no"?>
<!DOCTYPE svg PUBLIC "-//W3C//DTD SVG 1.1//EN"
 "http://www.w3.org/Graphics/SVG/1.1/DTD/svg11.dtd">
<!-- Generated by graphviz version 2.48.0 (20210717.1556)
 -->
<!-- Title: metadata.hpp Pages: 1 -->
<svg width="340pt" height="188pt"
 viewBox="0.00 0.00 340.34 188.00" xmlns="http://www.w3.org/2000/svg" xmlns:xlink="http://www.w3.org/1999/xlink">
<g id="graph0" class="graph" transform="scale(1 1) rotate(0) translate(4 184)">
<title>metadata.hpp</title>
<!-- Node1 -->
<g id="Node000001" class="node">
<title>Node1</title>
<g id="a_Node000001"><a xlink:title=" ">
<polygon fill="#999999" stroke="#666666" points="174.7,-180 97.39,-180 97.39,-162 174.7,-162 174.7,-180"/>
<text text-anchor="middle" x="136.05" y="-168" font-family="Helvetica,sans-Serif" font-size="10.00">metadata.hpp</text>
</a>
</g>
</g>
<!-- Node2 -->
<g id="Node000002" class="node">
<title>Node2</title>
<g id="a_Node000002"><a xlink:href="binder_8cpp.html" target="_top" xlink:title=" ">
<polygon fill="white" stroke="#666666" points="67.2,-18 4.89,-18 4.89,0 67.2,0 67.2,-18"/>
<text text-anchor="middle" x="36.05" y="-6" font-family="Helvetica,sans-Serif" font-size="10.00">binder.cpp</text>
</a>
</g>
</g>
<!-- Node1&#45;&gt;Node2 -->
<g id="edge1_Node000001_Node000002" class="edge">
<title>Node1&#45;&gt;Node2</title>
<g id="a_edge1_Node000001_Node000002"><a xlink:title=" ">
<path fill="none" stroke="#63b8ff" d="M105.9,-157.77C73.7,-142.87 24.44,-114.34 3.05,-72 -6.74,-52.63 13.04,-30.22 26,-18.36"/>
<polygon fill="#63b8ff" stroke="#63b8ff" points="104.73,-161.08 115.29,-161.96 107.58,-154.69 104.73,-161.08"/>
</a>
</g>
</g>
<!-- Node3 -->
<g id="Node000003" class="node">
<title>Node3</title>
<g id="a_Node000003"><a xlink:href="comic_8cpp.html" target="_top" xlink:title=" ">
<polygon fill="white" stroke="#666666" points="146.56,-18 85.53,-18 85.53,0 146.56,0 146.56,-18"/>
<text text-anchor="middle" x="116.05" y="-6" font-family="Helvetica,sans-Serif" font-size="10.00">comic.cpp</text>
</a>
</g>
</g>
<!-- Node1&#45;&gt;Node3 -->
<g id="edge2_Node000001_Node000003" class="edge">
<title>Node1&#45;&gt;Node3</title>
<g id="a_edge2_Node000001_Node000003"><a xlink:title=" ">
<path fill="none" stroke="#63b8ff" d="M133.76,-151.74C129.44,-117.12 120.19,-43.16 117.09,-18.33"/>
<polygon fill="#63b8ff" stroke="#63b8ff" points="130.31,-152.36 135.03,-161.85 137.26,-151.49 130.31,-152.36"/>
</a>
</g>
</g>
<!-- Node4 -->
<g id="Node000004" class="node">
<title>Node4</title>
<g id="a_Node000004"><a xlink:href="epub__options_8hpp.html" target="_top" xlink:title=" ">
<polygon fill="white" stroke="#666666" points="107.56,-72 12.53,-72 12.53,-54 107.56,-54 107.56,-72"/>
<text text-anchor="middle" x="60.05" y="-60" font-family="Helvetica,sans-Serif" font-size="10.00">epub_options.hpp</text>
</a>
</g>
</g>
<!-- Node1&#45;&gt;Node4 -->
<g id="edge3_Node000001_Node000004" class="edge">
<title>Node1&#45;&gt;Node4</title>
<g id="a_edge3_Node000001_Node000004"><a xlink:title=" ">
<path fill="none" stroke="#63b8ff" d="M124.05,-153.27C107.54,-130.24 78.44,-89.66 65.98,-72.28"/>
<polygon fill="#63b8ff" stroke="#63b8ff" points="121.41,-155.59 130.08,-161.68 127.1,-151.52 121.41,-155.59"/>
</a>
</g>
</g>
<!-- Node5 -->
<g id="Node000005" class="node">
<title>Node5</title>
<g id="a_Node000005"><a xlink:href="metadata_8cpp.html" target="_top" xlink:title=" ">
<polygon fill="white" stroke="#666666" points="332.14,-126 255.95,-126 255.95,-108 332.14,-108 332.14,-126"/>
<text text-anchor="middle" x="294.05" y="-114" font-family="Helvetica,sans-Serif" font-size="10.00">metadata.cpp</text>
</a>
</g>
</g>
<!-- Node1&#45;&gt;Node5 -->
<g id="edge6_Node000001_Node000005" class="edge">
<title>Node1&#45;&gt;Node5</title>
<g id="a_edge6_Node000001_Node000005"><a xlink:title=" ">
<path fill="none" stroke="#63b8ff" d="M170.02,-158.82C200.01,-148.95 242.99,-134.8 269.68,-126.02"/>
<polygon fill="#63b8ff" stroke="#63b8ff" points="168.79,-155.54 160.39,-161.99 170.98,-162.19 168.79,-155.54"/>
</a>
</g>
</g>
<!-- Node6 -->
<g id="Node000006" class="node">
<title>Node6</title>
<g id="a_Node000006"><a xlink:href="package_8hpp.html" target="_top" xlink:title=" ">
<polygon fill="white" stroke="#666666" points="237.82,-126 164.28,-126 164.28,-108 237.82,-108 237.82,-126"/>
<text text-anchor="middle" x="201.05" y="-114" font-family="Helvetica,sans-Serif" font-size="10.00">package.hpp</text>
</a>
</g>
</g>
<!-- Node1&#45;&gt;Node6 -->
<g id="edge7_Node000001_Node000006" class="edge">
<title>Node1&#45;&gt;Node6</title>
<g id="a_edge7_Node000001_Node000006"><a xlink:title=" ">
<path fill="none" stroke="#63b8ff" d="M154.12,-155.54C165.93,-146.09 180.93,-134.1 190.75,-126.24"/>
<polygon fill="#63b8ff" stroke="#63b8ff" points="151.82,-152.89 146.2,-161.88 156.2,-158.36 151.82,-152.89"/>
</a>
</g>
</g>
<!-- Node4&#45;&gt;Node2 -->
<g id="edge4_Node000004_Node000002" class="edge">
<title>Node4&#45;&gt;Node2</title>
<g id="a_edge4_Node000004_Node000002"><a xlink:title=" ">
<path fill="none" stroke="#63b8ff" d="M52.07,-44.72C47.96,-35.8 43.12,-25.33 39.85,-18.24"/>
<polygon fill="#63b8ff" stroke="#63b8ff" points="48.93,-46.26 56.3,-53.88 55.28,-43.33 48.93,-46.26"/>
</a>
</g>
</g>
<!-- Node4&#45;&gt;Node3 -->
<g id="edge5_Node000004_Node000003" class="edge">
<title>Node4&#45;&gt;Node3</title>
<g id="a_edge5_Node000004_Node000003"><a xlink:title=" ">
<path fill="none" stroke="#63b8ff" d="M76.21,-46.99C86.29,-37.63 98.88,-25.94 107.17,-18.24"/>
<polygon fill="#63b8ff" stroke="#63b8ff" points="73.74,-44.51 68.8,-53.88 78.51,-49.64 73.74,-44.51"/>
</a>
</g>
</g>
<!-- Node7 -->
<g id="Node000007" class="node">
<title>Node7</title>
<g id="a_Node000007"><a xlink:href="container_8hpp.html" target="_top" xlink:title=" ">
<polygon fill="white" stroke="#666666" points="240.1,-72 163.99,-72 163.99,-54 240.1,-54 240.1,-72"/>
<text text-anchor="middle" x="202.05" y="-60" font-family="Helvetica,sans-Serif" font-size="10.00">container.hpp</text>
</a>
</g>
</g>
<!-- Node6&#45;&gt;Node7 -->
<g id="edge8_Node000006_Node000007" class="edge">
<title>Node6&#45;&gt;Node7</title>
<g id="a_edge8_Node000006_Node000007"><a xlink:title=" ">
<path fill="none" stroke="#63b8ff" d="M201.4,-97.86C201.56,-89.13 201.76,-79.1 201.89,-72.24"/>
<polygon fill="#63b8ff" stroke="#63b8ff" points="197.9,-97.81 201.2,-107.88 204.89,-97.94 197.9,-97.81"/>
</a>
</g>
</g>
<!-- Node9 -->
<g id="Node000009" class="node">
<title>Node9</title>
<g id="a_Node000009"><a xlink:href="xml_8cpp.html" target="_top" xlink:title=" ">
<polygon fill="white" stroke="#666666" points="308.5,-18 257.59,-18 257.59,0 308.5,0 308.5,-18"/>
<text text-anchor="middle" x="283.05" y="-6" font-family="Helvetica,sans-Serif" font-size="10.00">xml.cpp</text>
</a>
</g>
</g>
<!-- Node6&#45;&gt;Node9 -->
<g id="edge13_Node000006_Node000009" class="edge">
<title>Node6&#45;&gt;Node9</title>
<g id="a_edge13_Node000006_Node000009"><a xlink:title=" ">
<path fill="none" stroke="#63b8ff" d="M219.69,-101.41C229.2,-93.39 240.52,-82.87 249.05,-72 262.84,-54.42 274.2,-30.5 279.62,-18.14"/>
<polygon fill="#63b8ff" stroke="#63b8ff" points="217.44,-98.73 211.92,-107.77 221.87,-104.15 217.44,-98.73"/>
</a>
</g>
</g>
<!-- Node7&#45;&gt;Node2 -->
<g id="edge9_Node000007_Node000002" class="edge">
<title>Node7&#45;&gt;Node2</title>
<g id="a_edge9_Node000007_Node000002"><a xlink:title=" ">
<path fill="none" stroke="#63b8ff" d="M166.77,-50.95C135.24,-41.07 89.81,-26.84 61.65,-18.02"/>
<polygon fill="#63b8ff" stroke="#63b8ff" points="165.88,-54.34 176.47,-53.99 167.98,-47.66 165.88,-54.34"/>
</a>
</g>
</g>
<!-- Node7&#45;&gt;Node3 -->
<g id="edge10_Node000007_Node000003" class="edge">
<title>Node7&#45;&gt;Node3</title>
<g id="a_edge10_Node000007_Node000003"><a xlink:title=" ">
<path fill="none" stroke="#63b8ff" d="M179.88,-48.6C163.9,-38.94 142.86,-26.21 129.39,-18.07"/>
<polygon fill="#63b8ff" stroke="#63b8ff" points="178.24,-51.7 188.61,-53.88 181.86,-45.71 178.24,-51.7"/>
</a>
</g>
</g>
<!-- Node8 -->
<g id="Node000008" class="node">
<title>Node8</title>
<g id="a_Node000008"><a xlink:href="container_8cpp.html" target="_top" xlink:title=" ">
<polygon fill="white" stroke="#666666" points="240.04,-18 164.05,-18 164.05,0 240.04,0 240.04,-18"/>
<text text-anchor="middle" x="202.05" y="-6" font-family="Helvetica,sans-Serif" font-size="10.00">container.cpp</text>
</a>
</g>
</g>
<!-- Node7&#45;&gt;Node8 -->
<g id="edge11_Node000007_Node000008" class="edge">
<title>Node7&#45;&gt;Node8</title>
<g id="a_edge11_Node000007_Node000008"><a xlink:title=" ">
<path fill="none" stroke="#63b8ff" d="M202.05,-43.86C202.05,-35.13 202.05,-25.1 202.05,-18.24"/>
<polygon fill="#63b8ff" stroke="#63b8ff" points="198.55,-43.87 202.05,-53.88 205.55,-43.88 198.55,-43.87"/>
</a>
</g>
</g>
<!-- Node7&#45;&gt;Node9 -->
<g id="edge12_Node000007_Node000009" class="edge">
<title>Node7&#45;&gt;Node9</title>
<g id="a_edge12_Node000007_Node000009"><a xlink:title=" ">
<path fill="none" stroke="#63b8ff" d="M223.35,-48.33C238.34,-38.7 257.91,-26.14 270.48,-18.07"/>
<polygon fill="#63b8ff" stroke="#63b8ff" points="221.23,-45.53 214.7,-53.88 225.01,-51.42 221.23,-45.53"/>
</a>
</g>
</g>
</g>
</svg>
