<?xml version="1.0" encoding="UTF-8" standalone="no"?>
<!DOCTYPE svg PUBLIC "-//W3C//DTD SVG 1.1//EN"
 "http://www.w3.org/Graphics/SVG/1.1/DTD/svg11.dtd">
<!-- Generated by graphviz version 2.48.0 (20210717.1556)
 -->
<!-- Title: metadata.hpp Pages: 1 -->
<svg width="205pt" height="188pt"
 viewBox="0.00 0.00 204.52 188.00" xmlns="http://www.w3.org/2000/svg" xmlns:xlink="http://www.w3.org/1999/xlink">
<g id="graph0" class="graph" transform="scale(1 1) rotate(0) translate(4 184)">
<title>metadata.hpp</title>
<!-- Node1 -->
<g id="Node000001" class="node">
<title>Node1</title>
<g id="a_Node000001"><a xlink:title=" ">
<polygon fill="#999999" stroke="#666666" points="122.96,-180 45.64,-180 45.64,-162 122.96,-162 122.96,-180"/>
<text text-anchor="middle" x="84.3" y="-168" font-family="Helvetica,sans-Serif" font-size="10.00">metadata.hpp</text>
</a>
</g>
</g>
<!-- Node2 -->
<g id="Node000002" class="node">
<title>Node2</title>
<g id="a_Node000002"><a xlink:href="metadata_8cpp.html" target="_top" xlink:title=" ">
<polygon fill="white" stroke="#666666" points="76.39,-126 0.2,-126 0.2,-108 76.39,-108 76.39,-126"/>
<text text-anchor="middle" x="38.3" y="-114" font-family="Helvetica,sans-Serif" font-size="10.00">metadata.cpp</text>
</a>
</g>
</g>
<!-- Node1&#45;&gt;Node2 -->
<g id="edge1_Node000001_Node000002" class="edge">
<title>Node1&#45;&gt;Node2</title>
<g id="a_edge1_Node000001_Node000002"><a xlink:title=" ">
<path fill="none" stroke="#63b8ff" d="M70.28,-154.15C62.13,-144.94 52.2,-133.71 45.59,-126.24"/>
<polygon fill="#63b8ff" stroke="#63b8ff" points="67.86,-156.7 77.11,-161.88 73.11,-152.07 67.86,-156.7"/>
</a>
</g>
</g>
<!-- Node3 -->
<g id="Node000003" class="node">
<title>Node3</title>
<g id="a_Node000003"><a xlink:href="package_8hpp.html" target="_top" xlink:title=" ">
<polygon fill="white" stroke="#666666" points="168.07,-126 94.53,-126 94.53,-108 168.07,-108 168.07,-126"/>
<text text-anchor="middle" x="131.3" y="-114" font-family="Helvetica,sans-Serif" font-size="10.00">package.hpp</text>
</a>
</g>
</g>
<!-- Node1&#45;&gt;Node3 -->
<g id="edge2_Node000001_Node000003" class="edge">
<title>Node1&#45;&gt;Node3</title>
<g id="a_edge2_Node000001_Node000003"><a xlink:title=" ">
<path fill="none" stroke="#63b8ff" d="M98.37,-154.43C106.74,-145.17 117.03,-133.79 123.85,-126.24"/>
<polygon fill="#63b8ff" stroke="#63b8ff" points="95.75,-152.11 91.64,-161.88 100.94,-156.8 95.75,-152.11"/>
</a>
</g>
</g>
<!-- Node4 -->
<g id="Node000004" class="node">
<title>Node4</title>
<g id="a_Node000004"><a xlink:href="container_8hpp.html" target="_top" xlink:title=" ">
<polygon fill="white" stroke="#666666" points="128.35,-72 52.24,-72 52.24,-54 128.35,-54 128.35,-72"/>
<text text-anchor="middle" x="90.3" y="-60" font-family="Helvetica,sans-Serif" font-size="10.00">container.hpp</text>
</a>
</g>
</g>
<!-- Node3&#45;&gt;Node4 -->
<g id="edge3_Node000003_Node000004" class="edge">
<title>Node3&#45;&gt;Node4</title>
<g id="a_edge3_Node000003_Node000004"><a xlink:title=" ">
<path fill="none" stroke="#63b8ff" d="M118.58,-99.87C111.36,-90.71 102.63,-79.64 96.79,-72.24"/>
<polygon fill="#63b8ff" stroke="#63b8ff" points="115.95,-102.19 124.89,-107.88 121.45,-97.86 115.95,-102.19"/>
</a>
</g>
</g>
<!-- Node7 -->
<g id="Node000007" class="node">
<title>Node7</title>
<g id="a_Node000007"><a xlink:href="xml_8cpp.html" target="_top" xlink:title=" ">
<polygon fill="white" stroke="#666666" points="196.75,-72 145.84,-72 145.84,-54 196.75,-54 196.75,-72"/>
<text text-anchor="middle" x="171.3" y="-60" font-family="Helvetica,sans-Serif" font-size="10.00">xml.cpp</text>
</a>
</g>
</g>
<!-- Node3&#45;&gt;Node7 -->
<g id="edge6_Node000003_Node000007" class="edge">
<title>Node3&#45;&gt;Node7</title>
<g id="a_edge6_Node000003_Node000007"><a xlink:title=" ">
<path fill="none" stroke="#63b8ff" d="M143.71,-99.87C150.75,-90.71 159.27,-79.64 164.96,-72.24"/>
<polygon fill="#63b8ff" stroke="#63b8ff" points="140.87,-97.81 137.55,-107.88 146.42,-102.08 140.87,-97.81"/>
</a>
</g>
</g>
<!-- Node5 -->
<g id="Node000005" class="node">
<title>Node5</title>
<g id="a_Node000005"><a xlink:href="binder_8cpp.html" target="_top" xlink:title=" ">
<polygon fill="white" stroke="#666666" points="78.45,-18 16.15,-18 16.15,0 78.45,0 78.45,-18"/>
<text text-anchor="middle" x="47.3" y="-6" font-family="Helvetica,sans-Serif" font-size="10.00">binder.cpp</text>
</a>
</g>
</g>
<!-- Node4&#45;&gt;Node5 -->
<g id="edge4_Node000004_Node000005" class="edge">
<title>Node4&#45;&gt;Node5</title>
<g id="a_edge4_Node000004_Node000005"><a xlink:title=" ">
<path fill="none" stroke="#63b8ff" d="M77.19,-46.15C69.57,-36.94 60.29,-25.71 54.11,-18.24"/>
<polygon fill="#63b8ff" stroke="#63b8ff" points="74.51,-48.4 83.58,-53.88 79.9,-43.94 74.51,-48.4"/>
</a>
</g>
</g>
<!-- Node6 -->
<g id="Node000006" class="node">
<title>Node6</title>
<g id="a_Node000006"><a xlink:href="container_8cpp.html" target="_top" xlink:title=" ">
<polygon fill="white" stroke="#666666" points="172.29,-18 96.3,-18 96.3,0 172.29,0 172.29,-18"/>
<text text-anchor="middle" x="134.3" y="-6" font-family="Helvetica,sans-Serif" font-size="10.00">container.cpp</text>
</a>
</g>
</g>
<!-- Node4&#45;&gt;Node6 -->
<g id="edge5_Node000004_Node000006" class="edge">
<title>Node4&#45;&gt;Node6</title>
<g id="a_edge5_Node000004_Node000006"><a xlink:title=" ">
<path fill="none" stroke="#63b8ff" d="M103.71,-46.15C111.5,-36.94 121,-25.71 127.33,-18.24"/>
<polygon fill="#63b8ff" stroke="#63b8ff" points="100.96,-43.98 97.17,-53.88 106.3,-48.5 100.96,-43.98"/>
</a>
</g>
</g>
</g>
</svg>
