<?xml version="1.0" encoding="UTF-8" standalone="no"?>
<!DOCTYPE svg PUBLIC "-//W3C//DTD SVG 1.1//EN"
 "http://www.w3.org/Graphics/SVG/1.1/DTD/svg11.dtd">
<!-- Generated by graphviz version 2.48.0 (20210717.1556)
 -->
<!-- Title: metadata.cpp Pages: 1 -->
<svg width="209pt" height="134pt"
 viewBox="0.00 0.00 209.24 134.00" xmlns="http://www.w3.org/2000/svg" xmlns:xlink="http://www.w3.org/1999/xlink">
<g id="graph0" class="graph" transform="scale(1 1) rotate(0) translate(4 130)">
<title>metadata.cpp</title>
<!-- Node1 -->
<g id="Node000001" class="node">
<title>Node1</title>
<g id="a_Node000001"><a xlink:title=" ">
<polygon fill="#999999" stroke="#666666" points="173.38,-126 97.19,-126 97.19,-108 173.38,-108 173.38,-126"/>
<text text-anchor="middle" x="135.29" y="-114" font-family="Helvetica,sans-Serif" font-size="10.00">metadata.cpp</text>
</a>
</g>
</g>
<!-- Node2 -->
<g id="Node000002" class="node">
<title>Node2</title>
<g id="a_Node000002"><a xlink:href="metadata_8hpp.html" target="_top" xlink:title=" ">
<polygon fill="white" stroke="#666666" points="132.95,-72 55.63,-72 55.63,-54 132.95,-54 132.95,-72"/>
<text text-anchor="middle" x="94.29" y="-60" font-family="Helvetica,sans-Serif" font-size="10.00">metadata.hpp</text>
</a>
</g>
</g>
<!-- Node1&#45;&gt;Node2 -->
<g id="edge1_Node000001_Node000002" class="edge">
<title>Node1&#45;&gt;Node2</title>
<g id="a_edge1_Node000001_Node000002"><a xlink:title=" ">
<path fill="none" stroke="#63b8ff" d="M128.88,-107.88C123.08,-100.52 114.36,-89.45 107.12,-80.28"/>
<polygon fill="#63b8ff" stroke="#63b8ff" points="109.72,-77.93 100.78,-72.24 104.23,-82.26 109.72,-77.93"/>
</a>
</g>
</g>
<!-- Node6 -->
<g id="Node000006" class="node">
<title>Node6</title>
<g id="a_Node000006"><a xlink:title=" ">
<polygon fill="#e0e0e0" stroke="#999999" points="201.19,-72 151.38,-72 151.38,-54 201.19,-54 201.19,-72"/>
<text text-anchor="middle" x="176.29" y="-60" font-family="Helvetica,sans-Serif" font-size="10.00">random</text>
</a>
</g>
</g>
<!-- Node1&#45;&gt;Node6 -->
<g id="edge5_Node000001_Node000006" class="edge">
<title>Node1&#45;&gt;Node6</title>
<g id="a_edge5_Node000001_Node000006"><a xlink:title=" ">
<path fill="none" stroke="#63b8ff" d="M141.69,-107.88C147.5,-100.52 156.22,-89.45 163.46,-80.28"/>
<polygon fill="#63b8ff" stroke="#63b8ff" points="166.35,-82.26 169.79,-72.24 160.85,-77.93 166.35,-82.26"/>
</a>
</g>
</g>
<!-- Node3 -->
<g id="Node000003" class="node">
<title>Node3</title>
<g id="a_Node000003"><a xlink:title=" ">
<polygon fill="#e0e0e0" stroke="#999999" points="46.37,-18 0.21,-18 0.21,0 46.37,0 46.37,-18"/>
<text text-anchor="middle" x="23.29" y="-6" font-family="Helvetica,sans-Serif" font-size="10.00">chrono</text>
</a>
</g>
</g>
<!-- Node2&#45;&gt;Node3 -->
<g id="edge2_Node000002_Node000003" class="edge">
<title>Node2&#45;&gt;Node3</title>
<g id="a_edge2_Node000002_Node000003"><a xlink:title=" ">
<path fill="none" stroke="#63b8ff" d="M83.19,-53.88C72.42,-45.98 55.83,-33.84 42.84,-24.32"/>
<polygon fill="#63b8ff" stroke="#63b8ff" points="44.67,-21.32 34.54,-18.24 40.54,-26.97 44.67,-21.32"/>
</a>
</g>
</g>
<!-- Node4 -->
<g id="Node000004" class="node">
<title>Node4</title>
<g id="a_Node000004"><a xlink:title=" ">
<polygon fill="#e0e0e0" stroke="#999999" points="123.59,-18 64.99,-18 64.99,0 123.59,0 123.59,-18"/>
<text text-anchor="middle" x="94.29" y="-6" font-family="Helvetica,sans-Serif" font-size="10.00">stdexcept</text>
</a>
</g>
</g>
<!-- Node2&#45;&gt;Node4 -->
<g id="edge3_Node000002_Node000004" class="edge">
<title>Node2&#45;&gt;Node4</title>
<g id="a_edge3_Node000002_Node000004"><a xlink:title=" ">
<path fill="none" stroke="#63b8ff" d="M94.29,-53.88C94.29,-47.05 94.29,-37.03 94.29,-28.29"/>
<polygon fill="#63b8ff" stroke="#63b8ff" points="97.79,-28.24 94.29,-18.24 90.79,-28.24 97.79,-28.24"/>
</a>
</g>
</g>
<!-- Node5 -->
<g id="Node000005" class="node">
<title>Node5</title>
<g id="a_Node000005"><a xlink:title=" ">
<polygon fill="#e0e0e0" stroke="#999999" points="182.74,-18 141.83,-18 141.83,0 182.74,0 182.74,-18"/>
<text text-anchor="middle" x="162.29" y="-6" font-family="Helvetica,sans-Serif" font-size="10.00">string</text>
</a>
</g>
</g>
<!-- Node2&#45;&gt;Node5 -->
<g id="edge4_Node000002_Node000005" class="edge">
<title>Node2&#45;&gt;Node5</title>
<g id="a_edge4_Node000002_Node000005"><a xlink:title=" ">
<path fill="none" stroke="#63b8ff" d="M104.91,-53.88C115.23,-45.98 131.12,-33.84 143.56,-24.32"/>
<polygon fill="#63b8ff" stroke="#63b8ff" points="145.7,-27.09 151.51,-18.24 141.44,-21.53 145.7,-27.09"/>
</a>
</g>
</g>
</g>
</svg>
