<?xml version="1.0" encoding="UTF-8" standalone="no"?>
<!DOCTYPE svg PUBLIC "-//W3C//DTD SVG 1.1//EN"
 "http://www.w3.org/Graphics/SVG/1.1/DTD/svg11.dtd">
<!-- Generated by graphviz version 2.48.0 (20210717.1556)
 -->
<!-- Title: metadata.hpp Pages: 1 -->
<svg width="243pt" height="188pt"
 viewBox="0.00 0.00 243.25 188.00" xmlns="http://www.w3.org/2000/svg" xmlns:xlink="http://www.w3.org/1999/xlink">
<g id="graph0" class="graph" transform="scale(1 1) rotate(0) translate(4 184)">
<title>metadata.hpp</title>
<!-- Node1 -->
<g id="Node000001" class="node">
<title>Node1</title>
<g id="a_Node000001"><a xlink:title=" ">
<polygon fill="#999999" stroke="#666666" points="135.16,-180 57.85,-180 57.85,-162 135.16,-162 135.16,-180"/>
<text text-anchor="middle" x="96.51" y="-168" font-family="Helvetica,sans-Serif" font-size="10.00">metadata.hpp</text>
</a>
</g>
</g>
<!-- Node2 -->
<g id="Node000002" class="node">
<title>Node2</title>
<g id="a_Node000002"><a xlink:href="comic_8cpp.html" target="_top" xlink:title=" ">
<polygon fill="white" stroke="#666666" points="61.02,-18 -0.01,-18 -0.01,0 61.02,0 61.02,-18"/>
<text text-anchor="middle" x="30.51" y="-6" font-family="Helvetica,sans-Serif" font-size="10.00">comic.cpp</text>
</a>
</g>
</g>
<!-- Node1&#45;&gt;Node2 -->
<g id="edge1_Node000001_Node000002" class="edge">
<title>Node1&#45;&gt;Node2</title>
<g id="a_edge1_Node000001_Node000002"><a xlink:title=" ">
<path fill="none" stroke="#63b8ff" d="M75.94,-155.79C66.39,-148.09 55.78,-137.74 49.51,-126 30,-89.45 29.48,-37.93 30.1,-18.16"/>
<polygon fill="#63b8ff" stroke="#63b8ff" points="73.85,-158.59 83.93,-161.84 78.08,-153.01 73.85,-158.59"/>
</a>
</g>
</g>
<!-- Node3 -->
<g id="Node000003" class="node">
<title>Node3</title>
<g id="a_Node000003"><a xlink:href="metadata_8cpp.html" target="_top" xlink:title=" ">
<polygon fill="white" stroke="#666666" points="134.6,-126 58.41,-126 58.41,-108 134.6,-108 134.6,-126"/>
<text text-anchor="middle" x="96.51" y="-114" font-family="Helvetica,sans-Serif" font-size="10.00">metadata.cpp</text>
</a>
</g>
</g>
<!-- Node1&#45;&gt;Node3 -->
<g id="edge2_Node000001_Node000003" class="edge">
<title>Node1&#45;&gt;Node3</title>
<g id="a_edge2_Node000001_Node000003"><a xlink:title=" ">
<path fill="none" stroke="#63b8ff" d="M96.51,-151.86C96.51,-143.13 96.51,-133.1 96.51,-126.24"/>
<polygon fill="#63b8ff" stroke="#63b8ff" points="93.01,-151.87 96.51,-161.88 100.01,-151.88 93.01,-151.87"/>
</a>
</g>
</g>
<!-- Node4 -->
<g id="Node000004" class="node">
<title>Node4</title>
<g id="a_Node000004"><a xlink:href="package_8hpp.html" target="_top" xlink:title=" ">
<polygon fill="white" stroke="#666666" points="226.28,-126 152.74,-126 152.74,-108 226.28,-108 226.28,-126"/>
<text text-anchor="middle" x="189.51" y="-114" font-family="Helvetica,sans-Serif" font-size="10.00">package.hpp</text>
</a>
</g>
</g>
<!-- Node1&#45;&gt;Node4 -->
<g id="edge3_Node000001_Node000004" class="edge">
<title>Node1&#45;&gt;Node4</title>
<g id="a_edge3_Node000001_Node000004"><a xlink:title=" ">
<path fill="none" stroke="#63b8ff" d="M119.99,-156.87C137.33,-147.17 160.37,-134.29 175.08,-126.07"/>
<polygon fill="#63b8ff" stroke="#63b8ff" points="118.06,-153.94 111.04,-161.88 121.47,-160.05 118.06,-153.94"/>
</a>
</g>
</g>
<!-- Node5 -->
<g id="Node000005" class="node">
<title>Node5</title>
<g id="a_Node000005"><a xlink:href="container_8hpp.html" target="_top" xlink:title=" ">
<polygon fill="white" stroke="#666666" points="148.56,-72 72.45,-72 72.45,-54 148.56,-54 148.56,-72"/>
<text text-anchor="middle" x="110.51" y="-60" font-family="Helvetica,sans-Serif" font-size="10.00">container.hpp</text>
</a>
</g>
</g>
<!-- Node4&#45;&gt;Node5 -->
<g id="edge4_Node000004_Node000005" class="edge">
<title>Node4&#45;&gt;Node5</title>
<g id="a_edge4_Node000004_Node000005"><a xlink:title=" ">
<path fill="none" stroke="#63b8ff" d="M168.73,-102.33C154.11,-92.7 135.02,-80.14 122.76,-72.07"/>
<polygon fill="#63b8ff" stroke="#63b8ff" points="166.89,-105.3 177.16,-107.88 170.74,-99.45 166.89,-105.3"/>
</a>
</g>
</g>
<!-- Node8 -->
<g id="Node000008" class="node">
<title>Node8</title>
<g id="a_Node000008"><a xlink:href="xml_8cpp.html" target="_top" xlink:title=" ">
<polygon fill="white" stroke="#666666" points="216.96,-72 166.05,-72 166.05,-54 216.96,-54 216.96,-72"/>
<text text-anchor="middle" x="191.51" y="-60" font-family="Helvetica,sans-Serif" font-size="10.00">xml.cpp</text>
</a>
</g>
</g>
<!-- Node4&#45;&gt;Node8 -->
<g id="edge8_Node000004_Node000008" class="edge">
<title>Node4&#45;&gt;Node8</title>
<g id="a_edge8_Node000004_Node000008"><a xlink:title=" ">
<path fill="none" stroke="#63b8ff" d="M190.21,-97.86C190.54,-89.13 190.93,-79.1 191.19,-72.24"/>
<polygon fill="#63b8ff" stroke="#63b8ff" points="186.71,-97.75 189.82,-107.88 193.7,-98.02 186.71,-97.75"/>
</a>
</g>
</g>
<!-- Node5&#45;&gt;Node2 -->
<g id="edge6_Node000005_Node000002" class="edge">
<title>Node5&#45;&gt;Node2</title>
<g id="a_edge6_Node000005_Node000002"><a xlink:title=" ">
<path fill="none" stroke="#63b8ff" d="M89.47,-48.33C74.66,-38.7 55.33,-26.14 42.92,-18.07"/>
<polygon fill="#63b8ff" stroke="#63b8ff" points="87.72,-51.36 98.01,-53.88 91.53,-45.49 87.72,-51.36"/>
</a>
</g>
</g>
<!-- Node6 -->
<g id="Node000006" class="node">
<title>Node6</title>
<g id="a_Node000006"><a xlink:href="binder_8cpp.html" target="_top" xlink:title=" ">
<polygon fill="white" stroke="#666666" points="141.66,-18 79.35,-18 79.35,0 141.66,0 141.66,-18"/>
<text text-anchor="middle" x="110.51" y="-6" font-family="Helvetica,sans-Serif" font-size="10.00">binder.cpp</text>
</a>
</g>
</g>
<!-- Node5&#45;&gt;Node6 -->
<g id="edge5_Node000005_Node000006" class="edge">
<title>Node5&#45;&gt;Node6</title>
<g id="a_edge5_Node000005_Node000006"><a xlink:title=" ">
<path fill="none" stroke="#63b8ff" d="M110.51,-43.86C110.51,-35.13 110.51,-25.1 110.51,-18.24"/>
<polygon fill="#63b8ff" stroke="#63b8ff" points="107.01,-43.87 110.51,-53.88 114.01,-43.88 107.01,-43.87"/>
</a>
</g>
</g>
<!-- Node7 -->
<g id="Node000007" class="node">
<title>Node7</title>
<g id="a_Node000007"><a xlink:href="container_8cpp.html" target="_top" xlink:title=" ">
<polygon fill="white" stroke="#666666" points="235.5,-18 159.51,-18 159.51,0 235.5,0 235.5,-18"/>
<text text-anchor="middle" x="197.51" y="-6" font-family="Helvetica,sans-Serif" font-size="10.00">container.cpp</text>
</a>
</g>
</g>
<!-- Node5&#45;&gt;Node7 -->
<g id="edge7_Node000005_Node000007" class="edge">
<title>Node5&#45;&gt;Node7</title>
<g id="a_edge7_Node000005_Node000007"><a xlink:title=" ">
<path fill="none" stroke="#63b8ff" d="M132.93,-48.6C149.1,-38.94 170.38,-26.21 184.01,-18.07"/>
<polygon fill="#63b8ff" stroke="#63b8ff" points="130.89,-45.74 124.1,-53.88 134.48,-51.75 130.89,-45.74"/>
</a>
</g>
</g>
</g>
</svg>
