<?xml version="1.0" encoding="UTF-8" standalone="no"?>
<!DOCTYPE svg PUBLIC "-//W3C//DTD SVG 1.1//EN"
 "http://www.w3.org/Graphics/SVG/1.1/DTD/svg11.dtd">
<!-- Generated by graphviz version 2.48.0 (20210717.1556)
 -->
<!-- Title: metadata.hpp Pages: 1 -->
<svg width="410pt" height="188pt"
 viewBox="0.00 0.00 410.49 188.00" xmlns="http://www.w3.org/2000/svg" xmlns:xlink="http://www.w3.org/1999/xlink">
<g id="graph0" class="graph" transform="scale(1 1) rotate(0) translate(4 184)">
<title>metadata.hpp</title>
<!-- Node1 -->
<g id="Node000001" class="node">
<title>Node1</title>
<g id="a_Node000001"><a xlink:title=" ">
<polygon fill="#999999" stroke="#666666" points="260.85,-180 183.54,-180 183.54,-162 260.85,-162 260.85,-180"/>
<text text-anchor="middle" x="222.2" y="-168" font-family="Helvetica,sans-Serif" font-size="10.00">metadata.hpp</text>
</a>
</g>
</g>
<!-- Node2 -->
<g id="Node000002" class="node">
<title>Node2</title>
<g id="a_Node000002"><a xlink:href="binder_8cpp.html" target="_top" xlink:title=" ">
<polygon fill="white" stroke="#666666" points="161.35,-18 99.04,-18 99.04,0 161.35,0 161.35,-18"/>
<text text-anchor="middle" x="130.2" y="-6" font-family="Helvetica,sans-Serif" font-size="10.00">binder.cpp</text>
</a>
</g>
</g>
<!-- Node1&#45;&gt;Node2 -->
<g id="edge1_Node000001_Node000002" class="edge">
<title>Node1&#45;&gt;Node2</title>
<g id="a_edge1_Node000001_Node000002"><a xlink:title=" ">
<path fill="none" stroke="#63b8ff" d="M173.38,-165.55C118.75,-157.5 33.88,-134.97 3.2,-72 -0.31,-64.81 -1.44,-60.52 3.2,-54 14.5,-38.13 65.1,-24.24 98.92,-16.5"/>
<polygon fill="#63b8ff" stroke="#63b8ff" points="173.16,-169.05 183.54,-166.93 174.1,-162.11 173.16,-169.05"/>
</a>
</g>
</g>
<!-- Node3 -->
<g id="Node000003" class="node">
<title>Node3</title>
<g id="a_Node000003"><a xlink:href="comic_8cpp.html" target="_top" xlink:title=" ">
<polygon fill="white" stroke="#666666" points="252.71,-18 191.68,-18 191.68,0 252.71,0 252.71,-18"/>
<text text-anchor="middle" x="222.2" y="-6" font-family="Helvetica,sans-Serif" font-size="10.00">comic.cpp</text>
</a>
</g>
</g>
<!-- Node1&#45;&gt;Node3 -->
<g id="edge2_Node000001_Node000003" class="edge">
<title>Node1&#45;&gt;Node3</title>
<g id="a_edge2_Node000001_Node000003"><a xlink:title=" ">
<path fill="none" stroke="#63b8ff" d="M235.48,-153.54C249.51,-135 270.74,-103.36 279.2,-72 281.28,-64.28 282.72,-61.18 279.2,-54 271.04,-37.39 253.26,-25.28 239.71,-18.02"/>
<polygon fill="#63b8ff" stroke="#63b8ff" points="232.64,-151.49 229.26,-161.53 238.16,-155.79 232.64,-151.49"/>
</a>
</g>
</g>
<!-- Node4 -->
<g id="Node000004" class="node">
<title>Node4</title>
<g id="a_Node000004"><a xlink:href="epub__options_8hpp.html" target="_top" xlink:title=" ">
<polygon fill="white" stroke="#666666" points="269.71,-72 174.68,-72 174.68,-54 269.71,-54 269.71,-72"/>
<text text-anchor="middle" x="222.2" y="-60" font-family="Helvetica,sans-Serif" font-size="10.00">epub_options.hpp</text>
</a>
</g>
</g>
<!-- Node1&#45;&gt;Node4 -->
<g id="edge3_Node000001_Node000004" class="edge">
<title>Node1&#45;&gt;Node4</title>
<g id="a_edge3_Node000001_Node000004"><a xlink:title=" ">
<path fill="none" stroke="#63b8ff" d="M222.2,-151.39C222.2,-128.1 222.2,-89.2 222.2,-72.28"/>
<polygon fill="#63b8ff" stroke="#63b8ff" points="218.7,-151.68 222.2,-161.68 225.7,-151.68 218.7,-151.68"/>
</a>
</g>
</g>
<!-- Node5 -->
<g id="Node000005" class="node">
<title>Node5</title>
<g id="a_Node000005"><a xlink:href="metadata_8cpp.html" target="_top" xlink:title=" ">
<polygon fill="white" stroke="#666666" points="402.29,-126 326.1,-126 326.1,-108 402.29,-108 402.29,-126"/>
<text text-anchor="middle" x="364.2" y="-114" font-family="Helvetica,sans-Serif" font-size="10.00">metadata.cpp</text>
</a>
</g>
</g>
<!-- Node1&#45;&gt;Node5 -->
<g id="edge6_Node000001_Node000005" class="edge">
<title>Node1&#45;&gt;Node5</title>
<g id="a_edge6_Node000001_Node000005"><a xlink:title=" ">
<path fill="none" stroke="#63b8ff" d="M253.76,-158.44C280.57,-148.62 318.36,-134.78 342.06,-126.11"/>
<polygon fill="#63b8ff" stroke="#63b8ff" points="252.26,-155.26 244.07,-161.99 254.67,-161.84 252.26,-155.26"/>
</a>
</g>
</g>
<!-- Node6 -->
<g id="Node000006" class="node">
<title>Node6</title>
<g id="a_Node000006"><a xlink:href="package_8hpp.html" target="_top" xlink:title=" ">
<polygon fill="white" stroke="#666666" points="154.97,-126 81.42,-126 81.42,-108 154.97,-108 154.97,-126"/>
<text text-anchor="middle" x="118.2" y="-114" font-family="Helvetica,sans-Serif" font-size="10.00">package.hpp</text>
</a>
</g>
</g>
<!-- Node1&#45;&gt;Node6 -->
<g id="edge7_Node000001_Node000006" class="edge">
<title>Node1&#45;&gt;Node6</title>
<g id="a_edge7_Node000001_Node000006"><a xlink:title=" ">
<path fill="none" stroke="#63b8ff" d="M196.74,-157.27C177.26,-147.53 151,-134.4 134.33,-126.07"/>
<polygon fill="#63b8ff" stroke="#63b8ff" points="195.44,-160.53 205.95,-161.88 198.57,-154.27 195.44,-160.53"/>
</a>
</g>
</g>
<!-- Node4&#45;&gt;Node2 -->
<g id="edge4_Node000004_Node000002" class="edge">
<title>Node4&#45;&gt;Node2</title>
<g id="a_edge4_Node000004_Node000002"><a xlink:title=" ">
<path fill="none" stroke="#63b8ff" d="M198.96,-48.87C181.81,-39.17 159.01,-26.29 144.47,-18.07"/>
<polygon fill="#63b8ff" stroke="#63b8ff" points="197.39,-52 207.82,-53.88 200.84,-45.91 197.39,-52"/>
</a>
</g>
</g>
<!-- Node4&#45;&gt;Node3 -->
<g id="edge5_Node000004_Node000003" class="edge">
<title>Node4&#45;&gt;Node3</title>
<g id="a_edge5_Node000004_Node000003"><a xlink:title=" ">
<path fill="none" stroke="#63b8ff" d="M222.2,-43.86C222.2,-35.13 222.2,-25.1 222.2,-18.24"/>
<polygon fill="#63b8ff" stroke="#63b8ff" points="218.7,-43.87 222.2,-53.88 225.7,-43.88 218.7,-43.87"/>
</a>
</g>
</g>
<!-- Node7 -->
<g id="Node000007" class="node">
<title>Node7</title>
<g id="a_Node000007"><a xlink:href="container_8hpp.html" target="_top" xlink:title=" ">
<polygon fill="white" stroke="#666666" points="156.25,-72 80.14,-72 80.14,-54 156.25,-54 156.25,-72"/>
<text text-anchor="middle" x="118.2" y="-60" font-family="Helvetica,sans-Serif" font-size="10.00">container.hpp</text>
</a>
</g>
</g>
<!-- Node6&#45;&gt;Node7 -->
<g id="edge8_Node000006_Node000007" class="edge">
<title>Node6&#45;&gt;Node7</title>
<g id="a_edge8_Node000006_Node000007"><a xlink:title=" ">
<path fill="none" stroke="#63b8ff" d="M118.2,-97.86C118.2,-89.13 118.2,-79.1 118.2,-72.24"/>
<polygon fill="#63b8ff" stroke="#63b8ff" points="114.7,-97.87 118.2,-107.88 121.7,-97.88 114.7,-97.87"/>
</a>
</g>
</g>
<!-- Node9 -->
<g id="Node000009" class="node">
<title>Node9</title>
<g id="a_Node000009"><a xlink:href="xml_8cpp.html" target="_top" xlink:title=" ">
<polygon fill="white" stroke="#666666" points="62.65,-72 11.74,-72 11.74,-54 62.65,-54 62.65,-72"/>
<text text-anchor="middle" x="37.2" y="-60" font-family="Helvetica,sans-Serif" font-size="10.00">xml.cpp</text>
</a>
</g>
</g>
<!-- Node6&#45;&gt;Node9 -->
<g id="edge12_Node000006_Node000009" class="edge">
<title>Node6&#45;&gt;Node9</title>
<g id="a_edge12_Node000006_Node000009"><a xlink:title=" ">
<path fill="none" stroke="#63b8ff" d="M96.9,-102.33C81.9,-92.7 62.33,-80.14 49.76,-72.07"/>
<polygon fill="#63b8ff" stroke="#63b8ff" points="95.23,-105.42 105.54,-107.88 99.02,-99.53 95.23,-105.42"/>
</a>
</g>
</g>
<!-- Node7&#45;&gt;Node2 -->
<g id="edge9_Node000007_Node000002" class="edge">
<title>Node7&#45;&gt;Node2</title>
<g id="a_edge9_Node000007_Node000002"><a xlink:title=" ">
<path fill="none" stroke="#63b8ff" d="M122.38,-43.86C124.4,-35.13 126.71,-25.1 128.29,-18.24"/>
<polygon fill="#63b8ff" stroke="#63b8ff" points="118.91,-43.34 120.07,-53.88 125.73,-44.92 118.91,-43.34"/>
</a>
</g>
</g>
<!-- Node7&#45;&gt;Node3 -->
<g id="edge10_Node000007_Node000003" class="edge">
<title>Node7&#45;&gt;Node3</title>
<g id="a_edge10_Node000007_Node000003"><a xlink:title=" ">
<path fill="none" stroke="#63b8ff" d="M143.66,-49.27C163.13,-39.53 189.39,-26.4 206.06,-18.07"/>
<polygon fill="#63b8ff" stroke="#63b8ff" points="141.82,-46.27 134.45,-53.88 144.96,-52.53 141.82,-46.27"/>
</a>
</g>
</g>
<!-- Node8 -->
<g id="Node000008" class="node">
<title>Node8</title>
<g id="a_Node000008"><a xlink:href="container_8cpp.html" target="_top" xlink:title=" ">
<polygon fill="white" stroke="#666666" points="81.19,-18 5.2,-18 5.2,0 81.19,0 81.19,-18"/>
<text text-anchor="middle" x="43.2" y="-6" font-family="Helvetica,sans-Serif" font-size="10.00">container.cpp</text>
</a>
</g>
</g>
<!-- Node7&#45;&gt;Node8 -->
<g id="edge11_Node000007_Node000008" class="edge">
<title>Node7&#45;&gt;Node8</title>
<g id="a_edge11_Node000007_Node000008"><a xlink:title=" ">
<path fill="none" stroke="#63b8ff" d="M98.13,-48.09C84.39,-38.56 66.63,-26.25 55.08,-18.24"/>
<polygon fill="#63b8ff" stroke="#63b8ff" points="96.26,-51.05 106.48,-53.88 100.25,-45.3 96.26,-51.05"/>
</a>
</g>
</g>
</g>
</svg>
