<?xml version="1.0" encoding="UTF-8" standalone="no"?>
<!DOCTYPE svg PUBLIC "-//W3C//DTD SVG 1.1//EN"
 "http://www.w3.org/Graphics/SVG/1.1/DTD/svg11.dtd">
<!-- Generated by graphviz version 2.48.0 (20210717.1556)
 -->
<!-- Title: metadata.cpp Pages: 1 -->
<svg width="357pt" height="134pt"
 viewBox="0.00 0.00 357.46 134.00" xmlns="http://www.w3.org/2000/svg" xmlns:xlink="http://www.w3.org/1999/xlink">
<g id="graph0" class="graph" transform="scale(1 1) rotate(0) translate(4 130)">
<title>metadata.cpp</title>
<!-- Node1 -->
<g id="Node000001" class="node">
<title>Node1</title>
<g id="a_Node000001"><a xlink:title=" ">
<polygon fill="#999999" stroke="#666666" points="248.38,-126 172.19,-126 172.19,-108 248.38,-108 248.38,-126"/>
<text text-anchor="middle" x="210.29" y="-114" font-family="Helvetica,sans-Serif" font-size="10.00">metadata.cpp</text>
</a>
</g>
</g>
<!-- Node2 -->
<g id="Node000002" class="node">
<title>Node2</title>
<g id="a_Node000002"><a xlink:href="metadata_8hpp.html" target="_top" xlink:title=" ">
<polygon fill="white" stroke="#666666" points="207.95,-72 130.63,-72 130.63,-54 207.95,-54 207.95,-72"/>
<text text-anchor="middle" x="169.29" y="-60" font-family="Helvetica,sans-Serif" font-size="10.00">metadata.hpp</text>
</a>
</g>
</g>
<!-- Node1&#45;&gt;Node2 -->
<g id="edge1_Node000001_Node000002" class="edge">
<title>Node1&#45;&gt;Node2</title>
<g id="a_edge1_Node000001_Node000002"><a xlink:title=" ">
<path fill="none" stroke="#63b8ff" d="M203.88,-107.88C198.08,-100.52 189.36,-89.45 182.12,-80.28"/>
<polygon fill="#63b8ff" stroke="#63b8ff" points="184.72,-77.93 175.78,-72.24 179.23,-82.26 184.72,-77.93"/>
</a>
</g>
</g>
<!-- Node8 -->
<g id="Node000008" class="node">
<title>Node8</title>
<g id="a_Node000008"><a xlink:title=" ">
<polygon fill="#e0e0e0" stroke="#999999" points="276.19,-72 226.38,-72 226.38,-54 276.19,-54 276.19,-72"/>
<text text-anchor="middle" x="251.29" y="-60" font-family="Helvetica,sans-Serif" font-size="10.00">random</text>
</a>
</g>
</g>
<!-- Node1&#45;&gt;Node8 -->
<g id="edge7_Node000001_Node000008" class="edge">
<title>Node1&#45;&gt;Node8</title>
<g id="a_edge7_Node000001_Node000008"><a xlink:title=" ">
<path fill="none" stroke="#63b8ff" d="M216.69,-107.88C222.5,-100.52 231.22,-89.45 238.46,-80.28"/>
<polygon fill="#63b8ff" stroke="#63b8ff" points="241.35,-82.26 244.79,-72.24 235.85,-77.93 241.35,-82.26"/>
</a>
</g>
</g>
<!-- Node3 -->
<g id="Node000003" class="node">
<title>Node3</title>
<g id="a_Node000003"><a xlink:title=" ">
<polygon fill="#e0e0e0" stroke="#999999" points="56.37,-18 0.21,-18 0.21,0 56.37,0 56.37,-18"/>
<text text-anchor="middle" x="28.29" y="-6" font-family="Helvetica,sans-Serif" font-size="10.00">charconv</text>
</a>
</g>
</g>
<!-- Node2&#45;&gt;Node3 -->
<g id="edge2_Node000002_Node000003" class="edge">
<title>Node2&#45;&gt;Node3</title>
<g id="a_edge2_Node000002_Node000003"><a xlink:title=" ">
<path fill="none" stroke="#63b8ff" d="M147.57,-53.99C124.14,-45.35 86.62,-31.51 59.92,-21.67"/>
<polygon fill="#63b8ff" stroke="#63b8ff" points="60.86,-18.28 50.27,-18.11 58.44,-24.85 60.86,-18.28"/>
</a>
</g>
</g>
<!-- Node4 -->
<g id="Node000004" class="node">
<title>Node4</title>
<g id="a_Node000004"><a xlink:title=" ">
<polygon fill="#e0e0e0" stroke="#999999" points="121.37,-18 75.21,-18 75.21,0 121.37,0 121.37,-18"/>
<text text-anchor="middle" x="98.29" y="-6" font-family="Helvetica,sans-Serif" font-size="10.00">chrono</text>
</a>
</g>
</g>
<!-- Node2&#45;&gt;Node4 -->
<g id="edge3_Node000002_Node000004" class="edge">
<title>Node2&#45;&gt;Node4</title>
<g id="a_edge3_Node000002_Node000004"><a xlink:title=" ">
<path fill="none" stroke="#63b8ff" d="M158.19,-53.88C147.42,-45.98 130.83,-33.84 117.84,-24.32"/>
<polygon fill="#63b8ff" stroke="#63b8ff" points="119.67,-21.32 109.54,-18.24 115.54,-26.97 119.67,-21.32"/>
</a>
</g>
</g>
<!-- Node5 -->
<g id="Node000005" class="node">
<title>Node5</title>
<g id="a_Node000005"><a xlink:title=" ">
<polygon fill="#e0e0e0" stroke="#999999" points="198.59,-18 139.99,-18 139.99,0 198.59,0 198.59,-18"/>
<text text-anchor="middle" x="169.29" y="-6" font-family="Helvetica,sans-Serif" font-size="10.00">stdexcept</text>
</a>
</g>
</g>
<!-- Node2&#45;&gt;Node5 -->
<g id="edge4_Node000002_Node000005" class="edge">
<title>Node2&#45;&gt;Node5</title>
<g id="a_edge4_Node000002_Node000005"><a xlink:title=" ">
<path fill="none" stroke="#63b8ff" d="M169.29,-53.88C169.29,-47.05 169.29,-37.03 169.29,-28.29"/>
<polygon fill="#63b8ff" stroke="#63b8ff" points="172.79,-28.24 169.29,-18.24 165.79,-28.24 172.79,-28.24"/>
</a>
</g>
</g>
<!-- Node6 -->
<g id="Node000006" class="node">
<title>Node6</title>
<g id="a_Node000006"><a xlink:title=" ">
<polygon fill="#e0e0e0" stroke="#999999" points="257.74,-18 216.83,-18 216.83,0 257.74,0 257.74,-18"/>
<text text-anchor="middle" x="237.29" y="-6" font-family="Helvetica,sans-Serif" font-size="10.00">string</text>
</a>
</g>
</g>
<!-- Node2&#45;&gt;Node6 -->
<g id="edge5_Node000002_Node000006" class="edge">
<title>Node2&#45;&gt;Node6</title>
<g id="a_edge5_Node000002_Node000006"><a xlink:title=" ">
<path fill="none" stroke="#63b8ff" d="M179.91,-53.88C190.23,-45.98 206.12,-33.84 218.56,-24.32"/>
<polygon fill="#63b8ff" stroke="#63b8ff" points="220.7,-27.09 226.51,-18.24 216.44,-21.53 220.7,-27.09"/>
</a>
</g>
</g>
<!-- Node7 -->
<g id="Node000007" class="node">
<title>Node7</title>
<g id="a_Node000007"><a xlink:title=" ">
<polygon fill="#e0e0e0" stroke="#999999" points="349.63,-18 274.94,-18 274.94,0 349.63,0 349.63,-18"/>
<text text-anchor="middle" x="312.29" y="-6" font-family="Helvetica,sans-Serif" font-size="10.00">system_error</text>
</a>
</g>
</g>
<!-- Node2&#45;&gt;Node7 -->
<g id="edge6_Node000002_Node000007" class="edge">
<title>Node2&#45;&gt;Node7</title>
<g id="a_edge6_Node000002_Node000007"><a xlink:title=" ">
<path fill="none" stroke="#63b8ff" d="M191.32,-53.99C215.18,-45.31 253.47,-31.39 280.57,-21.54"/>
<polygon fill="#63b8ff" stroke="#63b8ff" points="281.8,-24.81 290,-18.11 279.4,-18.23 281.8,-24.81"/>
</a>
</g>
</g>
</g>
</svg>
