<?xml version="1.0" encoding="UTF-8" standalone="no"?>
<!DOCTYPE svg PUBLIC "-//W3C//DTD SVG 1.1//EN"
 "http://www.w3.org/Graphics/SVG/1.1/DTD/svg11.dtd">
<!-- Generated by graphviz version 2.48.0 (20210717.1556)
 -->
<!-- Title: minidom.cpp Pages: 1 -->
<svg width="309pt" height="134pt"
 viewBox="0.00 0.00 309.46 134.00" xmlns="http://www.w3.org/2000/svg" xmlns:xlink="http://www.w3.org/1999/xlink">
<g id="graph0" class="graph" transform="scale(1 1) rotate(0) translate(4 130)">
<title>minidom.cpp</title>
<!-- Node1 -->
<g id="Node000001" class="node">
<title>Node1</title>
<g id="a_Node000001"><a xlink:title=" ">
<polygon fill="#999999" stroke="#666666" points="181.25,-126 108.87,-126 108.87,-108 181.25,-108 181.25,-126"/>
<text text-anchor="middle" x="145.06" y="-114" font-family="Helvetica,sans-Serif" font-size="10.00">minidom.cpp</text>
</a>
</g>
</g>
<!-- Node2 -->
<g id="Node000002" class="node">
<title>Node2</title>
<g id="a_Node000002"><a xlink:href="minidom_8hpp.html" target="_top" xlink:title=" ">
<polygon fill="white" stroke="#666666" points="136.81,-72 63.31,-72 63.31,-54 136.81,-54 136.81,-72"/>
<text text-anchor="middle" x="100.06" y="-60" font-family="Helvetica,sans-Serif" font-size="10.00">minidom.hpp</text>
</a>
</g>
</g>
<!-- Node1&#45;&gt;Node2 -->
<g id="edge1_Node000001_Node000002" class="edge">
<title>Node1&#45;&gt;Node2</title>
<g id="a_edge1_Node000001_Node000002"><a xlink:title=" ">
<path fill="none" stroke="#63b8ff" d="M138.03,-107.88C131.59,-100.44 121.88,-89.22 113.9,-79.99"/>
<polygon fill="#63b8ff" stroke="#63b8ff" points="116.38,-77.51 107.19,-72.24 111.08,-82.09 116.38,-77.51"/>
</a>
</g>
</g>
<!-- Node4 -->
<g id="Node000004" class="node">
<title>Node4</title>
<g id="a_Node000004"><a xlink:title=" ">
<polygon fill="#e0e0e0" stroke="#999999" points="52.17,-18 -0.06,-18 -0.06,0 52.17,0 52.17,-18"/>
<text text-anchor="middle" x="26.06" y="-6" font-family="Helvetica,sans-Serif" font-size="10.00">memory</text>
</a>
</g>
</g>
<!-- Node1&#45;&gt;Node4 -->
<g id="edge7_Node000001_Node000004" class="edge">
<title>Node1&#45;&gt;Node4</title>
<g id="a_edge7_Node000001_Node000004"><a xlink:title=" ">
<path fill="none" stroke="#63b8ff" d="M116.5,-107.92C96.81,-101.11 71.2,-89.6 54.06,-72 42.21,-59.84 34.84,-41.79 30.65,-28.29"/>
<polygon fill="#63b8ff" stroke="#63b8ff" points="33.91,-26.95 27.86,-18.26 27.17,-28.83 33.91,-26.95"/>
</a>
</g>
</g>
<!-- Node7 -->
<g id="Node000007" class="node">
<title>Node7</title>
<g id="a_Node000007"><a xlink:title=" ">
<polygon fill="#e0e0e0" stroke="#999999" points="224.96,-72 155.15,-72 155.15,-54 224.96,-54 224.96,-72"/>
<text text-anchor="middle" x="190.06" y="-60" font-family="Helvetica,sans-Serif" font-size="10.00">libxml/tree.h</text>
</a>
</g>
</g>
<!-- Node1&#45;&gt;Node7 -->
<g id="edge6_Node000001_Node000007" class="edge">
<title>Node1&#45;&gt;Node7</title>
<g id="a_edge6_Node000001_Node000007"><a xlink:title=" ">
<path fill="none" stroke="#63b8ff" d="M152.09,-107.88C158.52,-100.44 168.23,-89.22 176.22,-79.99"/>
<polygon fill="#63b8ff" stroke="#63b8ff" points="179.03,-82.09 182.93,-72.24 173.74,-77.51 179.03,-82.09"/>
</a>
</g>
</g>
<!-- Node8 -->
<g id="Node000008" class="node">
<title>Node8</title>
<g id="a_Node000008"><a xlink:title=" ">
<polygon fill="#e0e0e0" stroke="#999999" points="301.36,-72 242.75,-72 242.75,-54 301.36,-54 301.36,-72"/>
<text text-anchor="middle" x="272.06" y="-60" font-family="Helvetica,sans-Serif" font-size="10.00">stdexcept</text>
</a>
</g>
</g>
<!-- Node1&#45;&gt;Node8 -->
<g id="edge8_Node000001_Node000008" class="edge">
<title>Node1&#45;&gt;Node8</title>
<g id="a_edge8_Node000001_Node000008"><a xlink:title=" ">
<path fill="none" stroke="#63b8ff" d="M164.62,-107.99C185.54,-99.43 218.92,-85.76 242.93,-75.93"/>
<polygon fill="#63b8ff" stroke="#63b8ff" points="244.33,-79.13 252.26,-72.11 241.68,-72.66 244.33,-79.13"/>
</a>
</g>
</g>
<!-- Node3 -->
<g id="Node000003" class="node">
<title>Node3</title>
<g id="a_Node000003"><a xlink:title=" ">
<polygon fill="#e0e0e0" stroke="#999999" points="130.51,-18 69.6,-18 69.6,0 130.51,0 130.51,-18"/>
<text text-anchor="middle" x="100.06" y="-6" font-family="Helvetica,sans-Serif" font-size="10.00">filesystem</text>
</a>
</g>
</g>
<!-- Node2&#45;&gt;Node3 -->
<g id="edge2_Node000002_Node000003" class="edge">
<title>Node2&#45;&gt;Node3</title>
<g id="a_edge2_Node000002_Node000003"><a xlink:title=" ">
<path fill="none" stroke="#63b8ff" d="M100.06,-53.88C100.06,-47.05 100.06,-37.03 100.06,-28.29"/>
<polygon fill="#63b8ff" stroke="#63b8ff" points="103.56,-28.24 100.06,-18.24 96.56,-28.24 103.56,-28.24"/>
</a>
</g>
</g>
<!-- Node2&#45;&gt;Node4 -->
<g id="edge3_Node000002_Node000004" class="edge">
<title>Node2&#45;&gt;Node4</title>
<g id="a_edge3_Node000002_Node000004"><a xlink:title=" ">
<path fill="none" stroke="#63b8ff" d="M88.49,-53.88C77.16,-45.91 59.64,-33.6 46.05,-24.05"/>
<polygon fill="#63b8ff" stroke="#63b8ff" points="47.98,-21.13 37.78,-18.24 43.95,-26.85 47.98,-21.13"/>
</a>
</g>
</g>
<!-- Node5 -->
<g id="Node000005" class="node">
<title>Node5</title>
<g id="a_Node000005"><a xlink:title=" ">
<polygon fill="#e0e0e0" stroke="#999999" points="199.59,-18 148.53,-18 148.53,0 199.59,0 199.59,-18"/>
<text text-anchor="middle" x="174.06" y="-6" font-family="Helvetica,sans-Serif" font-size="10.00">optional</text>
</a>
</g>
</g>
<!-- Node2&#45;&gt;Node5 -->
<g id="edge4_Node000002_Node000005" class="edge">
<title>Node2&#45;&gt;Node5</title>
<g id="a_edge4_Node000002_Node000005"><a xlink:title=" ">
<path fill="none" stroke="#63b8ff" d="M111.62,-53.88C122.96,-45.91 140.47,-33.6 154.07,-24.05"/>
<polygon fill="#63b8ff" stroke="#63b8ff" points="156.16,-26.85 162.33,-18.24 152.14,-21.13 156.16,-26.85"/>
</a>
</g>
</g>
<!-- Node6 -->
<g id="Node000006" class="node">
<title>Node6</title>
<g id="a_Node000006"><a xlink:title=" ">
<polygon fill="#e0e0e0" stroke="#999999" points="258.51,-18 217.6,-18 217.6,0 258.51,0 258.51,-18"/>
<text text-anchor="middle" x="238.06" y="-6" font-family="Helvetica,sans-Serif" font-size="10.00">string</text>
</a>
</g>
</g>
<!-- Node2&#45;&gt;Node6 -->
<g id="edge5_Node000002_Node000006" class="edge">
<title>Node2&#45;&gt;Node6</title>
<g id="a_edge5_Node000002_Node000006"><a xlink:title=" ">
<path fill="none" stroke="#63b8ff" d="M121.32,-53.99C144.51,-45.25 181.83,-31.19 208.01,-21.32"/>
<polygon fill="#63b8ff" stroke="#63b8ff" points="209.33,-24.57 217.45,-17.77 206.86,-18.02 209.33,-24.57"/>
</a>
</g>
</g>
</g>
</svg>
