<?xml version="1.0" encoding="UTF-8" standalone="no"?>
<!DOCTYPE svg PUBLIC "-//W3C//DTD SVG 1.1//EN"
 "http://www.w3.org/Graphics/SVG/1.1/DTD/svg11.dtd">
<!-- Generated by graphviz version 2.48.0 (20210717.1556)
 -->
<!-- Title: minidom.cpp Pages: 1 -->
<svg width="978pt" height="134pt"
 viewBox="0.00 0.00 978.46 134.00" xmlns="http://www.w3.org/2000/svg" xmlns:xlink="http://www.w3.org/1999/xlink">
<g id="graph0" class="graph" transform="scale(1 1) rotate(0) translate(4 130)">
<title>minidom.cpp</title>
<!-- Node1 -->
<g id="Node000001" class="node">
<title>Node1</title>
<g id="a_Node000001"><a xlink:title=" ">
<polygon fill="#999999" stroke="#666666" points="518.25,-126 445.87,-126 445.87,-108 518.25,-108 518.25,-126"/>
<text text-anchor="middle" x="482.06" y="-114" font-family="Helvetica,sans-Serif" font-size="10.00">minidom.cpp</text>
</a>
</g>
</g>
<!-- Node2 -->
<g id="Node000002" class="node">
<title>Node2</title>
<g id="a_Node000002"><a xlink:href="minidom_8hpp.html" target="_top" xlink:title=" ">
<polygon fill="white" stroke="#666666" points="207.81,-72 134.31,-72 134.31,-54 207.81,-54 207.81,-72"/>
<text text-anchor="middle" x="171.06" y="-60" font-family="Helvetica,sans-Serif" font-size="10.00">minidom.hpp</text>
</a>
</g>
</g>
<!-- Node1&#45;&gt;Node2 -->
<g id="edge1_Node000001_Node000002" class="edge">
<title>Node1&#45;&gt;Node2</title>
<g id="a_edge1_Node000001_Node000002"><a xlink:title=" ">
<path fill="none" stroke="#63b8ff" d="M445.77,-109.93C389.31,-100.49 280.44,-82.29 218.05,-71.86"/>
<polygon fill="#63b8ff" stroke="#63b8ff" points="218.51,-68.39 208.07,-70.19 217.36,-75.29 218.51,-68.39"/>
</a>
</g>
</g>
<!-- Node4 -->
<g id="Node000004" class="node">
<title>Node4</title>
<g id="a_Node000004"><a xlink:title=" ">
<polygon fill="#e0e0e0" stroke="#999999" points="52.17,-18 -0.06,-18 -0.06,0 52.17,0 52.17,-18"/>
<text text-anchor="middle" x="26.06" y="-6" font-family="Helvetica,sans-Serif" font-size="10.00">memory</text>
</a>
</g>
</g>
<!-- Node1&#45;&gt;Node4 -->
<g id="edge13_Node000001_Node000004" class="edge">
<title>Node1&#45;&gt;Node4</title>
<g id="a_edge13_Node000001_Node000004"><a xlink:title=" ">
<path fill="none" stroke="#63b8ff" d="M445.66,-116.65C379.74,-116.71 237.02,-111.74 125.06,-72 94.04,-60.99 62.56,-39.02 43.67,-24.41"/>
<polygon fill="#63b8ff" stroke="#63b8ff" points="45.71,-21.56 35.7,-18.1 41.36,-27.05 45.71,-21.56"/>
</a>
</g>
</g>
<!-- Node6 -->
<g id="Node000006" class="node">
<title>Node6</title>
<g id="a_Node000006"><a xlink:title=" ">
<polygon fill="#e0e0e0" stroke="#999999" points="258.51,-18 217.6,-18 217.6,0 258.51,0 258.51,-18"/>
<text text-anchor="middle" x="238.06" y="-6" font-family="Helvetica,sans-Serif" font-size="10.00">string</text>
</a>
</g>
</g>
<!-- Node1&#45;&gt;Node6 -->
<g id="edge16_Node000001_Node000006" class="edge">
<title>Node1&#45;&gt;Node6</title>
<g id="a_edge16_Node000001_Node000006"><a xlink:title=" ">
<path fill="none" stroke="#63b8ff" d="M445.68,-115.55C403.35,-113.41 332.92,-104.69 283.06,-72 266.41,-61.09 253.85,-41.74 246.28,-27.55"/>
<polygon fill="#63b8ff" stroke="#63b8ff" points="249.27,-25.71 241.67,-18.33 243.01,-28.84 249.27,-25.71"/>
</a>
</g>
</g>
<!-- Node7 -->
<g id="Node000007" class="node">
<title>Node7</title>
<g id="a_Node000007"><a xlink:title=" ">
<polygon fill="#e0e0e0" stroke="#999999" points="319.79,-18 276.32,-18 276.32,0 319.79,0 319.79,-18"/>
<text text-anchor="middle" x="298.06" y="-6" font-family="Helvetica,sans-Serif" font-size="10.00">vector</text>
</a>
</g>
</g>
<!-- Node1&#45;&gt;Node7 -->
<g id="edge17_Node000001_Node000007" class="edge">
<title>Node1&#45;&gt;Node7</title>
<g id="a_edge17_Node000001_Node000007"><a xlink:title=" ">
<path fill="none" stroke="#63b8ff" d="M445.5,-112.75C396.24,-107.52 312.59,-95.38 294.06,-72 284.33,-59.73 286.92,-41.44 290.99,-27.9"/>
<polygon fill="#63b8ff" stroke="#63b8ff" points="294.36,-28.86 294.36,-18.26 287.75,-26.55 294.36,-28.86"/>
</a>
</g>
</g>
<!-- Node8 -->
<g id="Node000008" class="node">
<title>Node8</title>
<g id="a_Node000008"><a xlink:title=" ">
<polygon fill="#e0e0e0" stroke="#999999" points="383.53,-72 302.58,-72 302.58,-54 383.53,-54 383.53,-72"/>
<text text-anchor="middle" x="343.06" y="-60" font-family="Helvetica,sans-Serif" font-size="10.00">libxml/parser.h</text>
</a>
</g>
</g>
<!-- Node1&#45;&gt;Node8 -->
<g id="edge7_Node000001_Node000008" class="edge">
<title>Node1&#45;&gt;Node8</title>
<g id="a_edge7_Node000001_Node000008"><a xlink:title=" ">
<path fill="none" stroke="#63b8ff" d="M460.64,-107.99C437.55,-99.35 400.56,-85.51 374.24,-75.67"/>
<polygon fill="#63b8ff" stroke="#63b8ff" points="375.32,-72.33 364.72,-72.11 372.86,-78.89 375.32,-72.33"/>
</a>
</g>
</g>
<!-- Node9 -->
<g id="Node000009" class="node">
<title>Node9</title>
<g id="a_Node000009"><a xlink:title=" ">
<polygon fill="#e0e0e0" stroke="#999999" points="470.96,-72 401.15,-72 401.15,-54 470.96,-54 470.96,-72"/>
<text text-anchor="middle" x="436.06" y="-60" font-family="Helvetica,sans-Serif" font-size="10.00">libxml/tree.h</text>
</a>
</g>
</g>
<!-- Node1&#45;&gt;Node9 -->
<g id="edge8_Node000001_Node000009" class="edge">
<title>Node1&#45;&gt;Node9</title>
<g id="a_edge8_Node000001_Node000009"><a xlink:title=" ">
<path fill="none" stroke="#63b8ff" d="M474.87,-107.88C468.29,-100.44 458.37,-89.22 450.2,-79.99"/>
<polygon fill="#63b8ff" stroke="#63b8ff" points="452.59,-77.41 443.35,-72.24 447.35,-82.05 452.59,-77.41"/>
</a>
</g>
</g>
<!-- Node10 -->
<g id="Node000010" class="node">
<title>Node10</title>
<g id="a_Node000010"><a xlink:title=" ">
<polygon fill="#e0e0e0" stroke="#999999" points="566.69,-72 489.42,-72 489.42,-54 566.69,-54 566.69,-72"/>
<text text-anchor="middle" x="528.06" y="-60" font-family="Helvetica,sans-Serif" font-size="10.00">libxml/xpath.h</text>
</a>
</g>
</g>
<!-- Node1&#45;&gt;Node10 -->
<g id="edge9_Node000001_Node000010" class="edge">
<title>Node1&#45;&gt;Node10</title>
<g id="a_edge9_Node000001_Node000010"><a xlink:title=" ">
<path fill="none" stroke="#63b8ff" d="M489.24,-107.88C495.82,-100.44 505.74,-89.22 513.91,-79.99"/>
<polygon fill="#63b8ff" stroke="#63b8ff" points="516.76,-82.05 520.77,-72.24 511.52,-77.41 516.76,-82.05"/>
</a>
</g>
</g>
<!-- Node11 -->
<g id="Node000011" class="node">
<title>Node11</title>
<g id="a_Node000011"><a xlink:title=" ">
<polygon fill="#e0e0e0" stroke="#999999" points="700.05,-72 584.06,-72 584.06,-54 700.05,-54 700.05,-72"/>
<text text-anchor="middle" x="642.06" y="-60" font-family="Helvetica,sans-Serif" font-size="10.00">libxml/xpathInternals.h</text>
</a>
</g>
</g>
<!-- Node1&#45;&gt;Node11 -->
<g id="edge10_Node000001_Node000011" class="edge">
<title>Node1&#45;&gt;Node11</title>
<g id="a_edge10_Node000001_Node000011"><a xlink:title=" ">
<path fill="none" stroke="#63b8ff" d="M506.71,-107.99C533.72,-99.21 577.25,-85.06 607.62,-75.19"/>
<polygon fill="#63b8ff" stroke="#63b8ff" points="608.95,-78.44 617.38,-72.02 606.79,-71.78 608.95,-78.44"/>
</a>
</g>
</g>
<!-- Node12 -->
<g id="Node000012" class="node">
<title>Node12</title>
<g id="a_Node000012"><a xlink:title=" ">
<polygon fill="#e0e0e0" stroke="#999999" points="766.29,-72 717.82,-72 717.82,-54 766.29,-54 766.29,-72"/>
<text text-anchor="middle" x="742.06" y="-60" font-family="Helvetica,sans-Serif" font-size="10.00">cassert</text>
</a>
</g>
</g>
<!-- Node1&#45;&gt;Node12 -->
<g id="edge11_Node000001_Node000012" class="edge">
<title>Node1&#45;&gt;Node12</title>
<g id="a_edge11_Node000001_Node000012"><a xlink:title=" ">
<path fill="none" stroke="#63b8ff" d="M518.33,-109.5C561.31,-101.69 635.28,-87.87 708.13,-72.12"/>
<polygon fill="#63b8ff" stroke="#63b8ff" points="708.91,-75.53 717.94,-69.98 707.42,-68.69 708.91,-75.53"/>
</a>
</g>
</g>
<!-- Node13 -->
<g id="Node000013" class="node">
<title>Node13</title>
<g id="a_Node000013"><a xlink:title=" ">
<polygon fill="#e0e0e0" stroke="#999999" points="838.4,-72 783.71,-72 783.71,-54 838.4,-54 838.4,-72"/>
<text text-anchor="middle" x="811.06" y="-60" font-family="Helvetica,sans-Serif" font-size="10.00">iostream</text>
</a>
</g>
</g>
<!-- Node1&#45;&gt;Node13 -->
<g id="edge12_Node000001_Node000013" class="edge">
<title>Node1&#45;&gt;Node13</title>
<g id="a_edge12_Node000001_Node000013"><a xlink:title=" ">
<path fill="none" stroke="#63b8ff" d="M518.28,-111.39C571.91,-104.38 675.82,-90.1 773.54,-72.17"/>
<polygon fill="#63b8ff" stroke="#63b8ff" points="774.38,-75.58 783.58,-70.31 773.11,-68.69 774.38,-75.58"/>
</a>
</g>
</g>
<!-- Node14 -->
<g id="Node000014" class="node">
<title>Node14</title>
<g id="a_Node000014"><a xlink:title=" ">
<polygon fill="#e0e0e0" stroke="#999999" points="893.74,-72 856.37,-72 856.37,-54 893.74,-54 893.74,-72"/>
<text text-anchor="middle" x="875.06" y="-60" font-family="Helvetica,sans-Serif" font-size="10.00">span</text>
</a>
</g>
</g>
<!-- Node1&#45;&gt;Node14 -->
<g id="edge14_Node000001_Node000014" class="edge">
<title>Node1&#45;&gt;Node14</title>
<g id="a_edge14_Node000001_Node000014"><a xlink:title=" ">
<path fill="none" stroke="#63b8ff" d="M518.36,-113.54C582.59,-108.77 720.5,-96.68 846.01,-71.88"/>
<polygon fill="#63b8ff" stroke="#63b8ff" points="847.06,-75.23 856.18,-69.83 845.69,-68.37 847.06,-75.23"/>
</a>
</g>
</g>
<!-- Node15 -->
<g id="Node000015" class="node">
<title>Node15</title>
<g id="a_Node000015"><a xlink:title=" ">
<polygon fill="#e0e0e0" stroke="#999999" points="970.36,-72 911.75,-72 911.75,-54 970.36,-54 970.36,-72"/>
<text text-anchor="middle" x="941.06" y="-60" font-family="Helvetica,sans-Serif" font-size="10.00">stdexcept</text>
</a>
</g>
</g>
<!-- Node1&#45;&gt;Node15 -->
<g id="edge15_Node000001_Node000015" class="edge">
<title>Node1&#45;&gt;Node15</title>
<g id="a_edge15_Node000001_Node000015"><a xlink:title=" ">
<path fill="none" stroke="#63b8ff" d="M518.26,-113.48C589.68,-108.25 753.9,-94.86 901.51,-72.09"/>
<polygon fill="#63b8ff" stroke="#63b8ff" points="902.31,-75.5 911.65,-70.5 901.23,-68.59 902.31,-75.5"/>
</a>
</g>
</g>
<!-- Node3 -->
<g id="Node000003" class="node">
<title>Node3</title>
<g id="a_Node000003"><a xlink:title=" ">
<polygon fill="#e0e0e0" stroke="#999999" points="200.51,-18 139.6,-18 139.6,0 200.51,0 200.51,-18"/>
<text text-anchor="middle" x="170.06" y="-6" font-family="Helvetica,sans-Serif" font-size="10.00">filesystem</text>
</a>
</g>
</g>
<!-- Node2&#45;&gt;Node3 -->
<g id="edge2_Node000002_Node000003" class="edge">
<title>Node2&#45;&gt;Node3</title>
<g id="a_edge2_Node000002_Node000003"><a xlink:title=" ">
<path fill="none" stroke="#63b8ff" d="M170.9,-53.88C170.77,-47.05 170.58,-37.03 170.41,-28.29"/>
<polygon fill="#63b8ff" stroke="#63b8ff" points="173.91,-28.17 170.22,-18.24 166.91,-28.31 173.91,-28.17"/>
</a>
</g>
</g>
<!-- Node2&#45;&gt;Node4 -->
<g id="edge3_Node000002_Node000004" class="edge">
<title>Node2&#45;&gt;Node4</title>
<g id="a_edge3_Node000002_Node000004"><a xlink:title=" ">
<path fill="none" stroke="#63b8ff" d="M148.72,-53.99C124.52,-45.31 85.7,-31.39 58.22,-21.54"/>
<polygon fill="#63b8ff" stroke="#63b8ff" points="59.25,-18.19 48.66,-18.11 56.89,-24.78 59.25,-18.19"/>
</a>
</g>
</g>
<!-- Node5 -->
<g id="Node000005" class="node">
<title>Node5</title>
<g id="a_Node000005"><a xlink:title=" ">
<polygon fill="#e0e0e0" stroke="#999999" points="121.59,-18 70.53,-18 70.53,0 121.59,0 121.59,-18"/>
<text text-anchor="middle" x="96.06" y="-6" font-family="Helvetica,sans-Serif" font-size="10.00">optional</text>
</a>
</g>
</g>
<!-- Node2&#45;&gt;Node5 -->
<g id="edge4_Node000002_Node000005" class="edge">
<title>Node2&#45;&gt;Node5</title>
<g id="a_edge4_Node000002_Node000005"><a xlink:title=" ">
<path fill="none" stroke="#63b8ff" d="M159.34,-53.88C147.85,-45.91 130.1,-33.6 116.32,-24.05"/>
<polygon fill="#63b8ff" stroke="#63b8ff" points="118.15,-21.06 107.94,-18.24 114.16,-26.81 118.15,-21.06"/>
</a>
</g>
</g>
<!-- Node2&#45;&gt;Node6 -->
<g id="edge5_Node000002_Node000006" class="edge">
<title>Node2&#45;&gt;Node6</title>
<g id="a_edge5_Node000002_Node000006"><a xlink:title=" ">
<path fill="none" stroke="#63b8ff" d="M181.53,-53.88C191.59,-46.06 207.04,-34.07 219.25,-24.6"/>
<polygon fill="#63b8ff" stroke="#63b8ff" points="221.69,-27.14 227.44,-18.24 217.39,-21.61 221.69,-27.14"/>
</a>
</g>
</g>
<!-- Node2&#45;&gt;Node7 -->
<g id="edge6_Node000002_Node000007" class="edge">
<title>Node2&#45;&gt;Node7</title>
<g id="a_edge6_Node000002_Node000007"><a xlink:title=" ">
<path fill="none" stroke="#63b8ff" d="M190.62,-53.99C211.54,-45.43 244.92,-31.76 268.93,-21.93"/>
<polygon fill="#63b8ff" stroke="#63b8ff" points="270.33,-25.13 278.26,-18.11 267.68,-18.66 270.33,-25.13"/>
</a>
</g>
</g>
</g>
</svg>
