<?xml version="1.0" encoding="UTF-8" standalone="no"?>
<!DOCTYPE svg PUBLIC "-//W3C//DTD SVG 1.1//EN"
 "http://www.w3.org/Graphics/SVG/1.1/DTD/svg11.dtd">
<!-- Generated by graphviz version 2.48.0 (20210717.1556)
 -->
<!-- Title: minidom.hpp Pages: 1 -->
<svg width="328pt" height="80pt"
 viewBox="0.00 0.00 327.84 80.00" xmlns="http://www.w3.org/2000/svg" xmlns:xlink="http://www.w3.org/1999/xlink">
<g id="graph0" class="graph" transform="scale(1 1) rotate(0) translate(4 76)">
<title>minidom.hpp</title>
<!-- Node1 -->
<g id="Node000001" class="node">
<title>Node1</title>
<g id="a_Node000001"><a xlink:title=" ">
<polygon fill="#999999" stroke="#666666" points="210.98,-72 137.48,-72 137.48,-54 210.98,-54 210.98,-72"/>
<text text-anchor="middle" x="174.23" y="-60" font-family="Helvetica,sans-Serif" font-size="10.00">minidom.hpp</text>
</a>
</g>
</g>
<!-- Node2 -->
<g id="Node000002" class="node">
<title>Node2</title>
<g id="a_Node000002"><a xlink:title=" ">
<polygon fill="#e0e0e0" stroke="#999999" points="60.68,-18 -0.23,-18 -0.23,0 60.68,0 60.68,-18"/>
<text text-anchor="middle" x="30.23" y="-6" font-family="Helvetica,sans-Serif" font-size="10.00">filesystem</text>
</a>
</g>
</g>
<!-- Node1&#45;&gt;Node2 -->
<g id="edge1_Node000001_Node000002" class="edge">
<title>Node1&#45;&gt;Node2</title>
<g id="a_edge1_Node000001_Node000002"><a xlink:title=" ">
<path fill="none" stroke="#63b8ff" d="M152.04,-53.99C128.01,-45.31 89.46,-31.39 62.17,-21.54"/>
<polygon fill="#63b8ff" stroke="#63b8ff" points="63.27,-18.21 52.67,-18.11 60.89,-24.79 63.27,-18.21"/>
</a>
</g>
</g>
<!-- Node3 -->
<g id="Node000003" class="node">
<title>Node3</title>
<g id="a_Node000003"><a xlink:title=" ">
<polygon fill="#e0e0e0" stroke="#999999" points="130.34,-18 78.11,-18 78.11,0 130.34,0 130.34,-18"/>
<text text-anchor="middle" x="104.23" y="-6" font-family="Helvetica,sans-Serif" font-size="10.00">memory</text>
</a>
</g>
</g>
<!-- Node1&#45;&gt;Node3 -->
<g id="edge2_Node000001_Node000003" class="edge">
<title>Node1&#45;&gt;Node3</title>
<g id="a_edge2_Node000001_Node000003"><a xlink:title=" ">
<path fill="none" stroke="#63b8ff" d="M163.29,-53.88C152.67,-45.98 136.31,-33.84 123.5,-24.32"/>
<polygon fill="#63b8ff" stroke="#63b8ff" points="125.43,-21.39 115.32,-18.24 121.26,-27.01 125.43,-21.39"/>
</a>
</g>
</g>
<!-- Node4 -->
<g id="Node000004" class="node">
<title>Node4</title>
<g id="a_Node000004"><a xlink:title=" ">
<polygon fill="#e0e0e0" stroke="#999999" points="199.76,-18 148.7,-18 148.7,0 199.76,0 199.76,-18"/>
<text text-anchor="middle" x="174.23" y="-6" font-family="Helvetica,sans-Serif" font-size="10.00">optional</text>
</a>
</g>
</g>
<!-- Node1&#45;&gt;Node4 -->
<g id="edge3_Node000001_Node000004" class="edge">
<title>Node1&#45;&gt;Node4</title>
<g id="a_edge3_Node000001_Node000004"><a xlink:title=" ">
<path fill="none" stroke="#63b8ff" d="M174.23,-53.88C174.23,-47.05 174.23,-37.03 174.23,-28.29"/>
<polygon fill="#63b8ff" stroke="#63b8ff" points="177.73,-28.24 174.23,-18.24 170.73,-28.24 177.73,-28.24"/>
</a>
</g>
</g>
<!-- Node5 -->
<g id="Node000005" class="node">
<title>Node5</title>
<g id="a_Node000005"><a xlink:title=" ">
<polygon fill="#e0e0e0" stroke="#999999" points="258.68,-18 217.77,-18 217.77,0 258.68,0 258.68,-18"/>
<text text-anchor="middle" x="238.23" y="-6" font-family="Helvetica,sans-Serif" font-size="10.00">string</text>
</a>
</g>
</g>
<!-- Node1&#45;&gt;Node5 -->
<g id="edge4_Node000001_Node000005" class="edge">
<title>Node1&#45;&gt;Node5</title>
<g id="a_edge4_Node000001_Node000005"><a xlink:title=" ">
<path fill="none" stroke="#63b8ff" d="M184.23,-53.88C193.85,-46.06 208.6,-34.07 220.26,-24.6"/>
<polygon fill="#63b8ff" stroke="#63b8ff" points="222.53,-27.26 228.09,-18.24 218.12,-21.83 222.53,-27.26"/>
</a>
</g>
</g>
<!-- Node6 -->
<g id="Node000006" class="node">
<title>Node6</title>
<g id="a_Node000006"><a xlink:title=" ">
<polygon fill="#e0e0e0" stroke="#999999" points="319.96,-18 276.49,-18 276.49,0 319.96,0 319.96,-18"/>
<text text-anchor="middle" x="298.23" y="-6" font-family="Helvetica,sans-Serif" font-size="10.00">vector</text>
</a>
</g>
</g>
<!-- Node1&#45;&gt;Node6 -->
<g id="edge5_Node000001_Node000006" class="edge">
<title>Node1&#45;&gt;Node6</title>
<g id="a_edge5_Node000001_Node000006"><a xlink:title=" ">
<path fill="none" stroke="#63b8ff" d="M193.33,-53.99C213.66,-45.46 246.06,-31.88 269.47,-22.06"/>
<polygon fill="#63b8ff" stroke="#63b8ff" points="271.03,-25.2 278.9,-18.11 268.32,-18.75 271.03,-25.2"/>
</a>
</g>
</g>
</g>
</svg>
