<?xml version="1.0" encoding="UTF-8" standalone="no"?>
<!DOCTYPE svg PUBLIC "-//W3C//DTD SVG 1.1//EN"
 "http://www.w3.org/Graphics/SVG/1.1/DTD/svg11.dtd">
<!-- Generated by graphviz version 2.48.0 (20210717.1556)
 -->
<!-- Title: minidom.hpp Pages: 1 -->
<svg width="266pt" height="80pt"
 viewBox="0.00 0.00 266.45 80.00" xmlns="http://www.w3.org/2000/svg" xmlns:xlink="http://www.w3.org/1999/xlink">
<g id="graph0" class="graph" transform="scale(1 1) rotate(0) translate(4 76)">
<title>minidom.hpp</title>
<!-- Node1 -->
<g id="Node000001" class="node">
<title>Node1</title>
<g id="a_Node000001"><a xlink:title=" ">
<polygon fill="#999999" stroke="#666666" points="175.98,-72 102.48,-72 102.48,-54 175.98,-54 175.98,-72"/>
<text text-anchor="middle" x="139.23" y="-60" font-family="Helvetica,sans-Serif" font-size="10.00">minidom.hpp</text>
</a>
</g>
</g>
<!-- Node2 -->
<g id="Node000002" class="node">
<title>Node2</title>
<g id="a_Node000002"><a xlink:title=" ">
<polygon fill="#e0e0e0" stroke="#999999" points="60.68,-18 -0.23,-18 -0.23,0 60.68,0 60.68,-18"/>
<text text-anchor="middle" x="30.23" y="-6" font-family="Helvetica,sans-Serif" font-size="10.00">filesystem</text>
</a>
</g>
</g>
<!-- Node1&#45;&gt;Node2 -->
<g id="edge1_Node000001_Node000002" class="edge">
<title>Node1&#45;&gt;Node2</title>
<g id="a_edge1_Node000001_Node000002"><a xlink:title=" ">
<path fill="none" stroke="#63b8ff" d="M122.2,-53.88C104.52,-45.44 76.65,-32.15 56.22,-22.4"/>
<polygon fill="#63b8ff" stroke="#63b8ff" points="57.67,-19.21 47.14,-18.07 54.66,-25.53 57.67,-19.21"/>
</a>
</g>
</g>
<!-- Node3 -->
<g id="Node000003" class="node">
<title>Node3</title>
<g id="a_Node000003"><a xlink:title=" ">
<polygon fill="#e0e0e0" stroke="#999999" points="130.34,-18 78.11,-18 78.11,0 130.34,0 130.34,-18"/>
<text text-anchor="middle" x="104.23" y="-6" font-family="Helvetica,sans-Serif" font-size="10.00">memory</text>
</a>
</g>
</g>
<!-- Node1&#45;&gt;Node3 -->
<g id="edge2_Node000001_Node000003" class="edge">
<title>Node1&#45;&gt;Node3</title>
<g id="a_edge2_Node000001_Node000003"><a xlink:title=" ">
<path fill="none" stroke="#63b8ff" d="M133.76,-53.88C128.86,-46.59 121.51,-35.68 115.37,-26.56"/>
<polygon fill="#63b8ff" stroke="#63b8ff" points="118.26,-24.58 109.77,-18.24 112.45,-28.49 118.26,-24.58"/>
</a>
</g>
</g>
<!-- Node4 -->
<g id="Node000004" class="node">
<title>Node4</title>
<g id="a_Node000004"><a xlink:title=" ">
<polygon fill="#e0e0e0" stroke="#999999" points="199.76,-18 148.7,-18 148.7,0 199.76,0 199.76,-18"/>
<text text-anchor="middle" x="174.23" y="-6" font-family="Helvetica,sans-Serif" font-size="10.00">optional</text>
</a>
</g>
</g>
<!-- Node1&#45;&gt;Node4 -->
<g id="edge3_Node000001_Node000004" class="edge">
<title>Node1&#45;&gt;Node4</title>
<g id="a_edge3_Node000001_Node000004"><a xlink:title=" ">
<path fill="none" stroke="#63b8ff" d="M144.7,-53.88C149.6,-46.59 156.94,-35.68 163.08,-26.56"/>
<polygon fill="#63b8ff" stroke="#63b8ff" points="166,-28.49 168.68,-18.24 160.19,-24.58 166,-28.49"/>
</a>
</g>
</g>
<!-- Node5 -->
<g id="Node000005" class="node">
<title>Node5</title>
<g id="a_Node000005"><a xlink:title=" ">
<polygon fill="#e0e0e0" stroke="#999999" points="258.68,-18 217.77,-18 217.77,0 258.68,0 258.68,-18"/>
<text text-anchor="middle" x="238.23" y="-6" font-family="Helvetica,sans-Serif" font-size="10.00">string</text>
</a>
</g>
</g>
<!-- Node1&#45;&gt;Node5 -->
<g id="edge4_Node000001_Node000005" class="edge">
<title>Node1&#45;&gt;Node5</title>
<g id="a_edge4_Node000001_Node000005"><a xlink:title=" ">
<path fill="none" stroke="#63b8ff" d="M154.7,-53.88C170.53,-45.56 195.38,-32.51 213.86,-22.8"/>
<polygon fill="#63b8ff" stroke="#63b8ff" points="215.64,-25.82 222.87,-18.07 212.39,-19.62 215.64,-25.82"/>
</a>
</g>
</g>
</g>
</svg>
