<?xml version="1.0" encoding="UTF-8" standalone="no"?>
<!DOCTYPE svg PUBLIC "-//W3C//DTD SVG 1.1//EN"
 "http://www.w3.org/Graphics/SVG/1.1/DTD/svg11.dtd">
<!-- Generated by graphviz version 2.48.0 (20210717.1556)
 -->
<!-- Title: minidom.hpp Pages: 1 -->
<svg width="160pt" height="80pt"
 viewBox="0.00 0.00 159.85 80.00" xmlns="http://www.w3.org/2000/svg" xmlns:xlink="http://www.w3.org/1999/xlink">
<g id="graph0" class="graph" transform="scale(1 1) rotate(0) translate(4 76)">
<title>minidom.hpp</title>
<!-- Node1 -->
<g id="Node000001" class="node">
<title>Node1</title>
<g id="a_Node000001"><a xlink:title=" ">
<polygon fill="#999999" stroke="#666666" points="109.26,-72 35.76,-72 35.76,-54 109.26,-54 109.26,-72"/>
<text text-anchor="middle" x="72.51" y="-60" font-family="Helvetica,sans-Serif" font-size="10.00">minidom.hpp</text>
</a>
</g>
</g>
<!-- Node2 -->
<g id="Node000002" class="node">
<title>Node2</title>
<g id="a_Node000002"><a xlink:href="comic_8cpp.html" target="_top" xlink:title=" ">
<polygon fill="white" stroke="#666666" points="61.02,-18 -0.01,-18 -0.01,0 61.02,0 61.02,-18"/>
<text text-anchor="middle" x="30.51" y="-6" font-family="Helvetica,sans-Serif" font-size="10.00">comic.cpp</text>
</a>
</g>
</g>
<!-- Node1&#45;&gt;Node2 -->
<g id="edge1_Node000001_Node000002" class="edge">
<title>Node1&#45;&gt;Node2</title>
<g id="a_edge1_Node000001_Node000002"><a xlink:title=" ">
<path fill="none" stroke="#63b8ff" d="M59.48,-45.87C52.08,-36.71 43.14,-25.64 37.16,-18.24"/>
<polygon fill="#63b8ff" stroke="#63b8ff" points="56.94,-48.29 65.94,-53.88 62.38,-43.9 56.94,-48.29"/>
</a>
</g>
</g>
<!-- Node3 -->
<g id="Node000003" class="node">
<title>Node3</title>
<g id="a_Node000003"><a xlink:href="minidom_8cpp.html" target="_top" xlink:title=" ">
<polygon fill="white" stroke="#666666" points="151.7,-18 79.32,-18 79.32,0 151.7,0 151.7,-18"/>
<text text-anchor="middle" x="115.51" y="-6" font-family="Helvetica,sans-Serif" font-size="10.00">minidom.cpp</text>
</a>
</g>
</g>
<!-- Node1&#45;&gt;Node3 -->
<g id="edge2_Node000001_Node000003" class="edge">
<title>Node1&#45;&gt;Node3</title>
<g id="a_edge2_Node000001_Node000003"><a xlink:title=" ">
<path fill="none" stroke="#63b8ff" d="M85.61,-46.15C93.23,-36.94 102.51,-25.71 108.69,-18.24"/>
<polygon fill="#63b8ff" stroke="#63b8ff" points="82.9,-43.94 79.23,-53.88 88.3,-48.4 82.9,-43.94"/>
</a>
</g>
</g>
</g>
</svg>
