<?xml version="1.0" encoding="UTF-8" standalone="no"?>
<!DOCTYPE svg PUBLIC "-//W3C//DTD SVG 1.1//EN"
 "http://www.w3.org/Graphics/SVG/1.1/DTD/svg11.dtd">
<!-- Generated by graphviz version 2.48.0 (20210717.1556)
 -->
<!-- Title: minidom.hpp Pages: 1 -->
<svg width="229pt" height="80pt"
 viewBox="0.00 0.00 228.73 80.00" xmlns="http://www.w3.org/2000/svg" xmlns:xlink="http://www.w3.org/1999/xlink">
<g id="graph0" class="graph" transform="scale(1 1) rotate(0) translate(4 76)">
<title>minidom.hpp</title>
<!-- Node1 -->
<g id="Node000001" class="node">
<title>Node1</title>
<g id="a_Node000001"><a xlink:title=" ">
<polygon fill="#999999" stroke="#666666" points="152.26,-72 78.76,-72 78.76,-54 152.26,-54 152.26,-72"/>
<text text-anchor="middle" x="115.51" y="-60" font-family="Helvetica,sans-Serif" font-size="10.00">minidom.hpp</text>
</a>
</g>
</g>
<!-- Node2 -->
<g id="Node000002" class="node">
<title>Node2</title>
<g id="a_Node000002"><a xlink:href="comic_8cpp.html" target="_top" xlink:title=" ">
<polygon fill="white" stroke="#666666" points="61.02,-18 -0.01,-18 -0.01,0 61.02,0 61.02,-18"/>
<text text-anchor="middle" x="30.51" y="-6" font-family="Helvetica,sans-Serif" font-size="10.00">comic.cpp</text>
</a>
</g>
</g>
<!-- Node1&#45;&gt;Node2 -->
<g id="edge1_Node000001_Node000002" class="edge">
<title>Node1&#45;&gt;Node2</title>
<g id="a_edge1_Node000001_Node000002"><a xlink:title=" ">
<path fill="none" stroke="#63b8ff" d="M93.6,-48.6C77.81,-38.94 57.01,-26.21 43.7,-18.07"/>
<polygon fill="#63b8ff" stroke="#63b8ff" points="91.87,-51.64 102.23,-53.88 95.52,-45.67 91.87,-51.64"/>
</a>
</g>
</g>
<!-- Node3 -->
<g id="Node000003" class="node">
<title>Node3</title>
<g id="a_Node000003"><a xlink:href="minidom_8cpp.html" target="_top" xlink:title=" ">
<polygon fill="white" stroke="#666666" points="151.7,-18 79.32,-18 79.32,0 151.7,0 151.7,-18"/>
<text text-anchor="middle" x="115.51" y="-6" font-family="Helvetica,sans-Serif" font-size="10.00">minidom.cpp</text>
</a>
</g>
</g>
<!-- Node1&#45;&gt;Node3 -->
<g id="edge2_Node000001_Node000003" class="edge">
<title>Node1&#45;&gt;Node3</title>
<g id="a_edge2_Node000001_Node000003"><a xlink:title=" ">
<path fill="none" stroke="#63b8ff" d="M115.51,-43.86C115.51,-35.13 115.51,-25.1 115.51,-18.24"/>
<polygon fill="#63b8ff" stroke="#63b8ff" points="112.01,-43.87 115.51,-53.88 119.01,-43.88 112.01,-43.87"/>
</a>
</g>
</g>
<!-- Node4 -->
<g id="Node000004" class="node">
<title>Node4</title>
<g id="a_Node000004"><a xlink:href="xml_8cpp.html" target="_top" xlink:title=" ">
<polygon fill="white" stroke="#666666" points="220.96,-18 170.05,-18 170.05,0 220.96,0 220.96,-18"/>
<text text-anchor="middle" x="195.51" y="-6" font-family="Helvetica,sans-Serif" font-size="10.00">xml.cpp</text>
</a>
</g>
</g>
<!-- Node1&#45;&gt;Node4 -->
<g id="edge3_Node000001_Node000004" class="edge">
<title>Node1&#45;&gt;Node4</title>
<g id="a_edge3_Node000001_Node000004"><a xlink:title=" ">
<path fill="none" stroke="#63b8ff" d="M136.54,-48.33C151.36,-38.7 170.68,-26.14 183.1,-18.07"/>
<polygon fill="#63b8ff" stroke="#63b8ff" points="134.48,-45.49 128.01,-53.88 138.3,-51.36 134.48,-45.49"/>
</a>
</g>
</g>
</g>
</svg>
