<?xml version="1.0" encoding="UTF-8" standalone="no"?>
<!DOCTYPE svg PUBLIC "-//W3C//DTD SVG 1.1//EN"
 "http://www.w3.org/Graphics/SVG/1.1/DTD/svg11.dtd">
<!-- Generated by graphviz version 2.48.0 (20210717.1556)
 -->
<!-- Title: minidom.cpp Pages: 1 -->
<svg width="912pt" height="134pt"
 viewBox="0.00 0.00 912.46 134.00" xmlns="http://www.w3.org/2000/svg" xmlns:xlink="http://www.w3.org/1999/xlink">
<g id="graph0" class="graph" transform="scale(1 1) rotate(0) translate(4 130)">
<title>minidom.cpp</title>
<!-- Node1 -->
<g id="Node000001" class="node">
<title>Node1</title>
<g id="a_Node000001"><a xlink:title=" ">
<polygon fill="#999999" stroke="#666666" points="472.25,-126 399.87,-126 399.87,-108 472.25,-108 472.25,-126"/>
<text text-anchor="middle" x="436.06" y="-114" font-family="Helvetica,sans-Serif" font-size="10.00">minidom.cpp</text>
</a>
</g>
</g>
<!-- Node2 -->
<g id="Node000002" class="node">
<title>Node2</title>
<g id="a_Node000002"><a xlink:href="minidom_8hpp.html" target="_top" xlink:title=" ">
<polygon fill="white" stroke="#666666" points="207.81,-72 134.31,-72 134.31,-54 207.81,-54 207.81,-72"/>
<text text-anchor="middle" x="171.06" y="-60" font-family="Helvetica,sans-Serif" font-size="10.00">minidom.hpp</text>
</a>
</g>
</g>
<!-- Node1&#45;&gt;Node2 -->
<g id="edge1_Node000001_Node000002" class="edge">
<title>Node1&#45;&gt;Node2</title>
<g id="a_edge1_Node000001_Node000002"><a xlink:title=" ">
<path fill="none" stroke="#63b8ff" d="M399.77,-108.88C352.46,-99.6 269.64,-83.35 217.71,-73.16"/>
<polygon fill="#63b8ff" stroke="#63b8ff" points="218.25,-69.69 207.76,-71.2 216.9,-76.56 218.25,-69.69"/>
</a>
</g>
</g>
<!-- Node4 -->
<g id="Node000004" class="node">
<title>Node4</title>
<g id="a_Node000004"><a xlink:title=" ">
<polygon fill="#e0e0e0" stroke="#999999" points="52.17,-18 -0.06,-18 -0.06,0 52.17,0 52.17,-18"/>
<text text-anchor="middle" x="26.06" y="-6" font-family="Helvetica,sans-Serif" font-size="10.00">memory</text>
</a>
</g>
</g>
<!-- Node1&#45;&gt;Node4 -->
<g id="edge12_Node000001_Node000004" class="edge">
<title>Node1&#45;&gt;Node4</title>
<g id="a_edge12_Node000001_Node000004"><a xlink:title=" ">
<path fill="none" stroke="#63b8ff" d="M399.43,-115.71C340.04,-114.17 219.82,-106.59 125.06,-72 94.14,-60.71 62.63,-38.82 43.71,-24.3"/>
<polygon fill="#63b8ff" stroke="#63b8ff" points="45.75,-21.45 35.72,-18.03 41.43,-26.96 45.75,-21.45"/>
</a>
</g>
</g>
<!-- Node6 -->
<g id="Node000006" class="node">
<title>Node6</title>
<g id="a_Node000006"><a xlink:title=" ">
<polygon fill="#e0e0e0" stroke="#999999" points="258.51,-18 217.6,-18 217.6,0 258.51,0 258.51,-18"/>
<text text-anchor="middle" x="238.06" y="-6" font-family="Helvetica,sans-Serif" font-size="10.00">string</text>
</a>
</g>
</g>
<!-- Node1&#45;&gt;Node6 -->
<g id="edge15_Node000001_Node000006" class="edge">
<title>Node1&#45;&gt;Node6</title>
<g id="a_edge15_Node000001_Node000006"><a xlink:title=" ">
<path fill="none" stroke="#63b8ff" d="M399.78,-112.34C366.82,-107.54 318.13,-96.59 283.06,-72 266.76,-60.57 254.13,-41.31 246.46,-27.29"/>
<polygon fill="#63b8ff" stroke="#63b8ff" points="249.46,-25.47 241.77,-18.19 243.24,-28.68 249.46,-25.47"/>
</a>
</g>
</g>
<!-- Node7 -->
<g id="Node000007" class="node">
<title>Node7</title>
<g id="a_Node000007"><a xlink:title=" ">
<polygon fill="#e0e0e0" stroke="#999999" points="319.79,-18 276.32,-18 276.32,0 319.79,0 319.79,-18"/>
<text text-anchor="middle" x="298.06" y="-6" font-family="Helvetica,sans-Serif" font-size="10.00">vector</text>
</a>
</g>
</g>
<!-- Node1&#45;&gt;Node7 -->
<g id="edge16_Node000001_Node000007" class="edge">
<title>Node1&#45;&gt;Node7</title>
<g id="a_edge16_Node000001_Node000007"><a xlink:title=" ">
<path fill="none" stroke="#63b8ff" d="M399.56,-115.98C366.06,-113.78 318.1,-104.62 294.06,-72 284.77,-59.39 287.3,-41.14 291.23,-27.71"/>
<polygon fill="#63b8ff" stroke="#63b8ff" points="294.57,-28.76 294.49,-18.16 287.95,-26.5 294.57,-28.76"/>
</a>
</g>
</g>
<!-- Node8 -->
<g id="Node000008" class="node">
<title>Node8</title>
<g id="a_Node000008"><a xlink:title=" ">
<polygon fill="#e0e0e0" stroke="#999999" points="383.53,-72 302.58,-72 302.58,-54 383.53,-54 383.53,-72"/>
<text text-anchor="middle" x="343.06" y="-60" font-family="Helvetica,sans-Serif" font-size="10.00">libxml/parser.h</text>
</a>
</g>
</g>
<!-- Node1&#45;&gt;Node8 -->
<g id="edge7_Node000001_Node000008" class="edge">
<title>Node1&#45;&gt;Node8</title>
<g id="a_edge7_Node000001_Node000008"><a xlink:title=" ">
<path fill="none" stroke="#63b8ff" d="M421.53,-107.88C406.78,-99.63 383.73,-86.74 366.42,-77.07"/>
<polygon fill="#63b8ff" stroke="#63b8ff" points="367.92,-73.89 357.49,-72.07 364.51,-80 367.92,-73.89"/>
</a>
</g>
</g>
<!-- Node9 -->
<g id="Node000009" class="node">
<title>Node9</title>
<g id="a_Node000009"><a xlink:title=" ">
<polygon fill="#e0e0e0" stroke="#999999" points="470.96,-72 401.15,-72 401.15,-54 470.96,-54 470.96,-72"/>
<text text-anchor="middle" x="436.06" y="-60" font-family="Helvetica,sans-Serif" font-size="10.00">libxml/tree.h</text>
</a>
</g>
</g>
<!-- Node1&#45;&gt;Node9 -->
<g id="edge8_Node000001_Node000009" class="edge">
<title>Node1&#45;&gt;Node9</title>
<g id="a_edge8_Node000001_Node000009"><a xlink:title=" ">
<path fill="none" stroke="#63b8ff" d="M436.06,-107.88C436.06,-101.05 436.06,-91.03 436.06,-82.29"/>
<polygon fill="#63b8ff" stroke="#63b8ff" points="439.56,-82.24 436.06,-72.24 432.56,-82.24 439.56,-82.24"/>
</a>
</g>
</g>
<!-- Node10 -->
<g id="Node000010" class="node">
<title>Node10</title>
<g id="a_Node000010"><a xlink:title=" ">
<polygon fill="#e0e0e0" stroke="#999999" points="566.69,-72 489.42,-72 489.42,-54 566.69,-54 566.69,-72"/>
<text text-anchor="middle" x="528.06" y="-60" font-family="Helvetica,sans-Serif" font-size="10.00">libxml/xpath.h</text>
</a>
</g>
</g>
<!-- Node1&#45;&gt;Node10 -->
<g id="edge9_Node000001_Node000010" class="edge">
<title>Node1&#45;&gt;Node10</title>
<g id="a_edge9_Node000001_Node000010"><a xlink:title=" ">
<path fill="none" stroke="#63b8ff" d="M450.43,-107.88C465.01,-99.63 487.82,-86.74 504.94,-77.07"/>
<polygon fill="#63b8ff" stroke="#63b8ff" points="506.8,-80.04 513.78,-72.07 503.35,-73.94 506.8,-80.04"/>
</a>
</g>
</g>
<!-- Node11 -->
<g id="Node000011" class="node">
<title>Node11</title>
<g id="a_Node000011"><a xlink:title=" ">
<polygon fill="#e0e0e0" stroke="#999999" points="700.05,-72 584.06,-72 584.06,-54 700.05,-54 700.05,-72"/>
<text text-anchor="middle" x="642.06" y="-60" font-family="Helvetica,sans-Serif" font-size="10.00">libxml/xpathInternals.h</text>
</a>
</g>
</g>
<!-- Node1&#45;&gt;Node11 -->
<g id="edge10_Node000001_Node000011" class="edge">
<title>Node1&#45;&gt;Node11</title>
<g id="a_edge10_Node000001_Node000011"><a xlink:title=" ">
<path fill="none" stroke="#63b8ff" d="M467.79,-107.99C503.4,-99 561.31,-84.38 600.5,-74.49"/>
<polygon fill="#63b8ff" stroke="#63b8ff" points="601.45,-77.86 610.28,-72.02 599.73,-71.07 601.45,-77.86"/>
</a>
</g>
</g>
<!-- Node12 -->
<g id="Node000012" class="node">
<title>Node12</title>
<g id="a_Node000012"><a xlink:title=" ">
<polygon fill="#e0e0e0" stroke="#999999" points="772.4,-72 717.71,-72 717.71,-54 772.4,-54 772.4,-72"/>
<text text-anchor="middle" x="745.06" y="-60" font-family="Helvetica,sans-Serif" font-size="10.00">iostream</text>
</a>
</g>
</g>
<!-- Node1&#45;&gt;Node12 -->
<g id="edge11_Node000001_Node000012" class="edge">
<title>Node1&#45;&gt;Node12</title>
<g id="a_edge11_Node000001_Node000012"><a xlink:title=" ">
<path fill="none" stroke="#63b8ff" d="M472.39,-110.84C522.97,-103.5 617.7,-89.22 707.75,-72.16"/>
<polygon fill="#63b8ff" stroke="#63b8ff" points="708.41,-75.6 717.57,-70.28 707.09,-68.72 708.41,-75.6"/>
</a>
</g>
</g>
<!-- Node13 -->
<g id="Node000013" class="node">
<title>Node13</title>
<g id="a_Node000013"><a xlink:title=" ">
<polygon fill="#e0e0e0" stroke="#999999" points="827.74,-72 790.37,-72 790.37,-54 827.74,-54 827.74,-72"/>
<text text-anchor="middle" x="809.06" y="-60" font-family="Helvetica,sans-Serif" font-size="10.00">span</text>
</a>
</g>
</g>
<!-- Node1&#45;&gt;Node13 -->
<g id="edge13_Node000001_Node000013" class="edge">
<title>Node1&#45;&gt;Node13</title>
<g id="a_edge13_Node000001_Node000013"><a xlink:title=" ">
<path fill="none" stroke="#63b8ff" d="M472.36,-113.19C533.84,-108.04 662.43,-95.58 780.26,-71.84"/>
<polygon fill="#63b8ff" stroke="#63b8ff" points="781.08,-75.25 790.18,-69.81 779.68,-68.39 781.08,-75.25"/>
</a>
</g>
</g>
<!-- Node14 -->
<g id="Node000014" class="node">
<title>Node14</title>
<g id="a_Node000014"><a xlink:title=" ">
<polygon fill="#e0e0e0" stroke="#999999" points="904.36,-72 845.75,-72 845.75,-54 904.36,-54 904.36,-72"/>
<text text-anchor="middle" x="875.06" y="-60" font-family="Helvetica,sans-Serif" font-size="10.00">stdexcept</text>
</a>
</g>
</g>
<!-- Node1&#45;&gt;Node14 -->
<g id="edge14_Node000001_Node000014" class="edge">
<title>Node1&#45;&gt;Node14</title>
<g id="a_edge14_Node000001_Node000014"><a xlink:title=" ">
<path fill="none" stroke="#63b8ff" d="M472.43,-113.21C541.37,-107.67 695.94,-94.01 835.62,-72.08"/>
<polygon fill="#63b8ff" stroke="#63b8ff" points="836.32,-75.51 845.65,-70.49 835.23,-68.6 836.32,-75.51"/>
</a>
</g>
</g>
<!-- Node3 -->
<g id="Node000003" class="node">
<title>Node3</title>
<g id="a_Node000003"><a xlink:title=" ">
<polygon fill="#e0e0e0" stroke="#999999" points="200.51,-18 139.6,-18 139.6,0 200.51,0 200.51,-18"/>
<text text-anchor="middle" x="170.06" y="-6" font-family="Helvetica,sans-Serif" font-size="10.00">filesystem</text>
</a>
</g>
</g>
<!-- Node2&#45;&gt;Node3 -->
<g id="edge2_Node000002_Node000003" class="edge">
<title>Node2&#45;&gt;Node3</title>
<g id="a_edge2_Node000002_Node000003"><a xlink:title=" ">
<path fill="none" stroke="#63b8ff" d="M170.9,-53.88C170.77,-47.05 170.58,-37.03 170.41,-28.29"/>
<polygon fill="#63b8ff" stroke="#63b8ff" points="173.91,-28.17 170.22,-18.24 166.91,-28.31 173.91,-28.17"/>
</a>
</g>
</g>
<!-- Node2&#45;&gt;Node4 -->
<g id="edge3_Node000002_Node000004" class="edge">
<title>Node2&#45;&gt;Node4</title>
<g id="a_edge3_Node000002_Node000004"><a xlink:title=" ">
<path fill="none" stroke="#63b8ff" d="M148.72,-53.99C124.52,-45.31 85.7,-31.39 58.22,-21.54"/>
<polygon fill="#63b8ff" stroke="#63b8ff" points="59.25,-18.19 48.66,-18.11 56.89,-24.78 59.25,-18.19"/>
</a>
</g>
</g>
<!-- Node5 -->
<g id="Node000005" class="node">
<title>Node5</title>
<g id="a_Node000005"><a xlink:title=" ">
<polygon fill="#e0e0e0" stroke="#999999" points="121.59,-18 70.53,-18 70.53,0 121.59,0 121.59,-18"/>
<text text-anchor="middle" x="96.06" y="-6" font-family="Helvetica,sans-Serif" font-size="10.00">optional</text>
</a>
</g>
</g>
<!-- Node2&#45;&gt;Node5 -->
<g id="edge4_Node000002_Node000005" class="edge">
<title>Node2&#45;&gt;Node5</title>
<g id="a_edge4_Node000002_Node000005"><a xlink:title=" ">
<path fill="none" stroke="#63b8ff" d="M159.34,-53.88C147.85,-45.91 130.1,-33.6 116.32,-24.05"/>
<polygon fill="#63b8ff" stroke="#63b8ff" points="118.15,-21.06 107.94,-18.24 114.16,-26.81 118.15,-21.06"/>
</a>
</g>
</g>
<!-- Node2&#45;&gt;Node6 -->
<g id="edge5_Node000002_Node000006" class="edge">
<title>Node2&#45;&gt;Node6</title>
<g id="a_edge5_Node000002_Node000006"><a xlink:title=" ">
<path fill="none" stroke="#63b8ff" d="M181.53,-53.88C191.59,-46.06 207.04,-34.07 219.25,-24.6"/>
<polygon fill="#63b8ff" stroke="#63b8ff" points="221.69,-27.14 227.44,-18.24 217.39,-21.61 221.69,-27.14"/>
</a>
</g>
</g>
<!-- Node2&#45;&gt;Node7 -->
<g id="edge6_Node000002_Node000007" class="edge">
<title>Node2&#45;&gt;Node7</title>
<g id="a_edge6_Node000002_Node000007"><a xlink:title=" ">
<path fill="none" stroke="#63b8ff" d="M190.62,-53.99C211.54,-45.43 244.92,-31.76 268.93,-21.93"/>
<polygon fill="#63b8ff" stroke="#63b8ff" points="270.33,-25.13 278.26,-18.11 267.68,-18.66 270.33,-25.13"/>
</a>
</g>
</g>
</g>
</svg>
