<?xml version="1.0" encoding="UTF-8" standalone="no"?>
<!DOCTYPE svg PUBLIC "-//W3C//DTD SVG 1.1//EN"
 "http://www.w3.org/Graphics/SVG/1.1/DTD/svg11.dtd">
<!-- Generated by graphviz version 2.48.0 (20210717.1556)
 -->
<!-- Title: epub::xml::write_metadata Pages: 1 -->
<svg width="490pt" height="588pt"
 viewBox="0.00 0.00 489.88 588.10" xmlns="http://www.w3.org/2000/svg" xmlns:xlink="http://www.w3.org/1999/xlink">
<g id="graph0" class="graph" transform="scale(1 1) rotate(0) translate(4 584.1)">
<title>epub::xml::write_metadata</title>
<!-- Node1 -->
<g id="Node000001" class="node">
<title>Node1</title>
<g id="a_Node000001"><a xlink:title=" ">
<polygon fill="#999999" stroke="#666666" points="133.42,-305 -0.14,-305 -0.14,-287 133.42,-287 133.42,-305"/>
<text text-anchor="middle" x="66.64" y="-293" font-family="Helvetica,sans-Serif" font-size="10.00">epub::xml::write_metadata</text>
</a>
</g>
</g>
<!-- Node2 -->
<g id="Node000002" class="node">
<title>Node2</title>
<g id="a_Node000002"><a xlink:href="namespaceepub_1_1xml.html#a963274c442c95b1fc19777e4b465affc" target="_top" xlink:title=" ">
<polygon fill="white" stroke="#666666" points="306.39,-544 171.58,-544 171.58,-526 306.39,-526 306.39,-544"/>
<text text-anchor="middle" x="238.99" y="-532" font-family="Helvetica,sans-Serif" font-size="10.00">epub::xml::add_refinement</text>
</a>
</g>
</g>
<!-- Node1&#45;&gt;Node2 -->
<g id="edge1_Node000001_Node000002" class="edge">
<title>Node1&#45;&gt;Node2</title>
<g id="a_edge1_Node000001_Node000002"><a xlink:title=" ">
<path fill="none" stroke="#63b8ff" d="M69.32,-305.35C75.78,-338.59 102.08,-452.23 169.28,-512 173.68,-515.91 178.76,-519.16 184.13,-521.86"/>
<polygon fill="#63b8ff" stroke="#63b8ff" points="182.81,-525.1 193.37,-525.9 185.61,-518.69 182.81,-525.1"/>
</a>
</g>
</g>
<!-- Node3 -->
<g id="Node000003" class="node">
<title>Node3</title>
<g id="a_Node000003"><a xlink:href="namespaceepub_1_1xml.html#aa7f3a8aea8e7def07ed8fe9719aaae2b" target="_top" xlink:title=" ">
<polygon fill="white" stroke="#666666" points="481.98,-562 344.6,-562 344.6,-544 481.98,-544 481.98,-562"/>
<text text-anchor="middle" x="413.29" y="-550" font-family="Helvetica,sans-Serif" font-size="10.00">epub::xml::new_child_node</text>
</a>
</g>
</g>
<!-- Node1&#45;&gt;Node3 -->
<g id="edge15_Node000001_Node000003" class="edge">
<title>Node1&#45;&gt;Node3</title>
<g id="a_edge15_Node000001_Node000003"><a xlink:title=" ">
<path fill="none" stroke="#63b8ff" d="M67.88,-305.23C69.45,-343.82 81.19,-493.11 169.28,-553 231.26,-595.14 324.25,-578.79 375.36,-564.84"/>
<polygon fill="#63b8ff" stroke="#63b8ff" points="376.34,-568.2 385,-562.1 374.42,-561.47 376.34,-568.2"/>
</a>
</g>
</g>
<!-- Node4 -->
<g id="Node000004" class="node">
<title>Node4</title>
<g id="a_Node000004"><a xlink:href="namespaceepub_1_1xml.html#a2e514ea095933964359b229c04117a9b" target="_top" xlink:title=" ">
<polygon fill="white" stroke="#666666" points="473.23,-526 353.34,-526 353.34,-508 473.23,-508 473.23,-526"/>
<text text-anchor="middle" x="413.29" y="-514" font-family="Helvetica,sans-Serif" font-size="10.00">epub::xml::set_attribute</text>
</a>
</g>
</g>
<!-- Node1&#45;&gt;Node4 -->
<g id="edge18_Node000001_Node000004" class="edge">
<title>Node1&#45;&gt;Node4</title>
<g id="a_edge18_Node000001_Node000004"><a xlink:title=" ">
<path fill="none" stroke="#63b8ff" d="M69.7,-305.14C77.07,-335.6 105.21,-434.27 169.28,-479 196.68,-498.13 281.43,-508.07 343.15,-512.91"/>
<polygon fill="#63b8ff" stroke="#63b8ff" points="343,-516.41 353.23,-513.67 343.53,-509.43 343,-516.41"/>
</a>
</g>
</g>
<!-- Node5 -->
<g id="Node000005" class="node">
<title>Node5</title>
<g id="a_Node000005"><a xlink:href="classepub_1_1metadata.html#ad2453246d1fcc9985ae3584f8c0bba54" target="_top" xlink:title=" ">
<polygon fill="white" stroke="#666666" points="307.73,-470 170.24,-470 170.24,-452 307.73,-452 307.73,-470"/>
<text text-anchor="middle" x="238.99" y="-458" font-family="Helvetica,sans-Serif" font-size="10.00">epub::metadata::collections</text>
</a>
</g>
</g>
<!-- Node1&#45;&gt;Node5 -->
<g id="edge4_Node000001_Node000005" class="edge">
<title>Node1&#45;&gt;Node5</title>
<g id="a_edge4_Node000001_Node000005"><a xlink:title=" ">
<path fill="none" stroke="#63b8ff" d="M71.29,-305.28C82.03,-331.36 116.17,-405.8 169.28,-443 171.82,-444.78 174.53,-446.39 177.35,-447.83"/>
<polygon fill="#63b8ff" stroke="#63b8ff" points="176.08,-451.1 186.64,-451.93 178.9,-444.69 176.08,-451.1"/>
</a>
</g>
</g>
<!-- Node6 -->
<g id="Node000006" class="node">
<title>Node6</title>
<g id="a_Node000006"><a xlink:href="classepub_1_1metadata.html#a23875082af22027fce800a2ab4aaa4ed" target="_top" xlink:title=" ">
<polygon fill="white" stroke="#666666" points="302.66,-434 175.31,-434 175.31,-416 302.66,-416 302.66,-434"/>
<text text-anchor="middle" x="238.99" y="-422" font-family="Helvetica,sans-Serif" font-size="10.00">epub::metadata::creators</text>
</a>
</g>
</g>
<!-- Node1&#45;&gt;Node6 -->
<g id="edge5_Node000001_Node000006" class="edge">
<title>Node1&#45;&gt;Node6</title>
<g id="a_edge5_Node000001_Node000006"><a xlink:title=" ">
<path fill="none" stroke="#63b8ff" d="M73.27,-305.09C86.93,-326.39 124.09,-379.74 169.28,-407 172.63,-409.02 176.2,-410.82 179.89,-412.41"/>
<polygon fill="#63b8ff" stroke="#63b8ff" points="178.66,-415.69 189.25,-415.98 181.16,-409.15 178.66,-415.69"/>
</a>
</g>
</g>
<!-- Node7 -->
<g id="Node000007" class="node">
<title>Node7</title>
<g id="a_Node000007"><a xlink:href="classepub_1_1metadata.html#ad7b872f750378380d517ad908a8795ea" target="_top" xlink:title=" ">
<polygon fill="white" stroke="#666666" points="308.9,-398 169.07,-398 169.07,-380 308.9,-380 308.9,-398"/>
<text text-anchor="middle" x="238.99" y="-386" font-family="Helvetica,sans-Serif" font-size="10.00">epub::metadata::description</text>
</a>
</g>
</g>
<!-- Node1&#45;&gt;Node7 -->
<g id="edge6_Node000001_Node000007" class="edge">
<title>Node1&#45;&gt;Node7</title>
<g id="a_edge6_Node000001_Node000007"><a xlink:title=" ">
<path fill="none" stroke="#63b8ff" d="M77.2,-305.05C94.31,-320.76 131.89,-353.12 169.28,-371 173.89,-373.2 178.81,-375.17 183.81,-376.91"/>
<polygon fill="#63b8ff" stroke="#63b8ff" points="182.9,-380.29 193.49,-379.99 185.02,-373.62 182.9,-380.29"/>
</a>
</g>
</g>
<!-- Node8 -->
<g id="Node000008" class="node">
<title>Node8</title>
<g id="a_Node000008"><a xlink:href="classepub_1_1creator.html#ad36a867ec5e64f24b7dee7c5b34b9b0b" target="_top" xlink:title=" ">
<polygon fill="white" stroke="#666666" points="293.88,-362 184.1,-362 184.1,-344 293.88,-344 293.88,-362"/>
<text text-anchor="middle" x="238.99" y="-350" font-family="Helvetica,sans-Serif" font-size="10.00">epub::creator::file_as</text>
</a>
</g>
</g>
<!-- Node1&#45;&gt;Node8 -->
<g id="edge7_Node000001_Node000008" class="edge">
<title>Node1&#45;&gt;Node8</title>
<g id="a_edge7_Node000001_Node000008"><a xlink:title=" ">
<path fill="none" stroke="#63b8ff" d="M89.2,-305.07C109.61,-313.46 141.21,-325.97 169.28,-335 176.14,-337.21 183.45,-339.34 190.64,-341.33"/>
<polygon fill="#63b8ff" stroke="#63b8ff" points="189.76,-344.72 200.33,-343.93 191.58,-337.96 189.76,-344.72"/>
</a>
</g>
</g>
<!-- Node9 -->
<g id="Node000009" class="node">
<title>Node9</title>
<g id="a_Node000009"><a xlink:href="namespaceepub.html#a066b00e6e19cee9ebbb898c4182c0ad0" target="_top" xlink:title="Generate a XML ID.">
<polygon fill="white" stroke="#666666" points="287.11,-326 190.86,-326 190.86,-308 287.11,-308 287.11,-326"/>
<text text-anchor="middle" x="238.99" y="-314" font-family="Helvetica,sans-Serif" font-size="10.00">epub::generate_id</text>
</a>
</g>
</g>
<!-- Node1&#45;&gt;Node9 -->
<g id="edge8_Node000001_Node000009" class="edge">
<title>Node1&#45;&gt;Node9</title>
<g id="a_edge8_Node000001_Node000009"><a xlink:title=" ">
<path fill="none" stroke="#63b8ff" d="M133.5,-304.12C149.02,-306.03 165.44,-308.06 180.55,-309.92"/>
<polygon fill="#63b8ff" stroke="#63b8ff" points="180.43,-313.43 190.78,-311.18 181.28,-306.48 180.43,-313.43"/>
</a>
</g>
</g>
<!-- Node10 -->
<g id="Node000010" class="node">
<title>Node10</title>
<g id="a_Node000010"><a xlink:href="classepub_1_1collection.html#a084ea9195f55d6fb36881731534895b0" target="_top" xlink:title=" ">
<polygon fill="white" stroke="#666666" points="297.11,-290 180.86,-290 180.86,-262 297.11,-262 297.11,-290"/>
<text text-anchor="start" x="188.67" y="-278" font-family="Helvetica,sans-Serif" font-size="10.00">epub::collection::group</text>
<text text-anchor="middle" x="238.99" y="-268" font-family="Helvetica,sans-Serif" font-size="10.00">_position</text>
</a>
</g>
</g>
<!-- Node1&#45;&gt;Node10 -->
<g id="edge9_Node000001_Node000010" class="edge">
<title>Node1&#45;&gt;Node10</title>
<g id="a_edge9_Node000001_Node000010"><a xlink:title=" ">
<path fill="none" stroke="#63b8ff" d="M133.5,-288.27C145.64,-286.84 158.34,-285.35 170.53,-283.92"/>
<polygon fill="#63b8ff" stroke="#63b8ff" points="171.1,-287.38 180.62,-282.74 170.28,-280.43 171.1,-287.38"/>
</a>
</g>
</g>
<!-- Node11 -->
<g id="Node000011" class="node">
<title>Node11</title>
<g id="a_Node000011"><a xlink:href="classepub_1_1metadata.html#a38fcb86cf8befa51ab4f54cdd07b2373" target="_top" xlink:title=" ">
<polygon fill="white" stroke="#666666" points="303.34,-244 174.64,-244 174.64,-226 303.34,-226 303.34,-244"/>
<text text-anchor="middle" x="238.99" y="-232" font-family="Helvetica,sans-Serif" font-size="10.00">epub::metadata::identifier</text>
</a>
</g>
</g>
<!-- Node1&#45;&gt;Node11 -->
<g id="edge10_Node000001_Node000011" class="edge">
<title>Node1&#45;&gt;Node11</title>
<g id="a_edge10_Node000001_Node000011"><a xlink:title=" ">
<path fill="none" stroke="#63b8ff" d="M86.8,-286.91C107,-277.57 139.9,-263.01 169.28,-253 175.79,-250.78 182.72,-248.68 189.59,-246.74"/>
<polygon fill="#63b8ff" stroke="#63b8ff" points="190.81,-250.04 199.54,-244.03 188.97,-243.28 190.81,-250.04"/>
</a>
</g>
</g>
<!-- Node12 -->
<g id="Node000012" class="node">
<title>Node12</title>
<g id="a_Node000012"><a xlink:href="classepub_1_1metadata.html#a3f919d886be8df3c5a587d8eb5a6d57e" target="_top" xlink:title=" ">
<polygon fill="white" stroke="#666666" points="305.19,-208 172.78,-208 172.78,-190 305.19,-190 305.19,-208"/>
<text text-anchor="middle" x="238.99" y="-196" font-family="Helvetica,sans-Serif" font-size="10.00">epub::metadata::language</text>
</a>
</g>
</g>
<!-- Node1&#45;&gt;Node12 -->
<g id="edge11_Node000001_Node000012" class="edge">
<title>Node1&#45;&gt;Node12</title>
<g id="a_edge11_Node000001_Node000012"><a xlink:title=" ">
<path fill="none" stroke="#63b8ff" d="M76.57,-286.96C93.26,-270.57 131,-235.89 169.28,-217 173.61,-214.86 178.23,-212.96 182.94,-211.26"/>
<polygon fill="#63b8ff" stroke="#63b8ff" points="184.27,-214.51 192.69,-208.08 182.09,-207.86 184.27,-214.51"/>
</a>
</g>
</g>
<!-- Node13 -->
<g id="Node000013" class="node">
<title>Node13</title>
<g id="a_Node000013"><a xlink:href="classepub_1_1metadata.html#ae6b011a147727244c2f831b26976c4a8" target="_top" xlink:title="The rendition layout type.">
<polygon fill="white" stroke="#666666" points="297.73,-172 180.25,-172 180.25,-154 297.73,-154 297.73,-172"/>
<text text-anchor="middle" x="238.99" y="-160" font-family="Helvetica,sans-Serif" font-size="10.00">epub::metadata::layout</text>
</a>
</g>
</g>
<!-- Node1&#45;&gt;Node13 -->
<g id="edge12_Node000001_Node000013" class="edge">
<title>Node1&#45;&gt;Node13</title>
<g id="a_edge12_Node000001_Node000013"><a xlink:title=" ">
<path fill="none" stroke="#63b8ff" d="M72.98,-286.9C86.29,-265.05 123.21,-209.35 169.28,-181 172.46,-179.04 175.85,-177.3 179.35,-175.74"/>
<polygon fill="#63b8ff" stroke="#63b8ff" points="180.79,-178.94 188.83,-172.04 178.25,-172.42 180.79,-178.94"/>
</a>
</g>
</g>
<!-- Node15 -->
<g id="Node000015" class="node">
<title>Node15</title>
<g id="a_Node000015"><a xlink:href="namespaceepub_1_1xml.html#a7c857584a6750e33bf5ccc29f4faf805" target="_top" xlink:title=" ">
<polygon fill="white" stroke="#666666" points="295.77,-136 182.21,-136 182.21,-108 295.77,-108 295.77,-136"/>
<text text-anchor="start" x="190.35" y="-124" font-family="Helvetica,sans-Serif" font-size="10.00">epub::xml::new_cdata</text>
<text text-anchor="middle" x="238.99" y="-114" font-family="Helvetica,sans-Serif" font-size="10.00">_child</text>
</a>
</g>
</g>
<!-- Node1&#45;&gt;Node15 -->
<g id="edge14_Node000001_Node000015" class="edge">
<title>Node1&#45;&gt;Node15</title>
<g id="a_edge14_Node000001_Node000015"><a xlink:title=" ">
<path fill="none" stroke="#63b8ff" d="M71.35,-286.65C82.24,-260.33 116.73,-185.01 169.28,-145 171.11,-143.61 173.03,-142.3 175.01,-141.06"/>
<polygon fill="#63b8ff" stroke="#63b8ff" points="176.97,-143.98 184.08,-136.13 173.62,-137.83 176.97,-143.98"/>
</a>
</g>
</g>
<!-- Node16 -->
<g id="Node000016" class="node">
<title>Node16</title>
<g id="a_Node000016"><a xlink:href="namespaceepub_1_1xml.html#a9534079e531f40c861c5f5fb60523655" target="_top" xlink:title=" ">
<polygon fill="white" stroke="#666666" points="288.87,-90 189.11,-90 189.11,-72 288.87,-72 288.87,-90"/>
<text text-anchor="middle" x="238.99" y="-78" font-family="Helvetica,sans-Serif" font-size="10.00">epub::xml::new_ns</text>
</a>
</g>
</g>
<!-- Node1&#45;&gt;Node16 -->
<g id="edge16_Node000001_Node000016" class="edge">
<title>Node1&#45;&gt;Node16</title>
<g id="a_edge16_Node000001_Node000016"><a xlink:title=" ">
<path fill="none" stroke="#63b8ff" d="M69.56,-286.88C76.65,-255.49 104.4,-150.97 169.28,-99 172.44,-96.47 175.92,-94.29 179.58,-92.42"/>
<polygon fill="#63b8ff" stroke="#63b8ff" points="181.19,-95.54 188.99,-88.36 178.42,-89.11 181.19,-95.54"/>
</a>
</g>
</g>
<!-- Node17 -->
<g id="Node000017" class="node">
<title>Node17</title>
<g id="a_Node000017"><a xlink:href="classepub_1_1creator.html#a2f09ed65b27b1722c0599a1c95b2ecf9" target="_top" xlink:title=" ">
<polygon fill="white" stroke="#666666" points="287.64,-54 190.33,-54 190.33,-36 287.64,-36 287.64,-54"/>
<text text-anchor="middle" x="238.99" y="-42" font-family="Helvetica,sans-Serif" font-size="10.00">epub::creator::role</text>
</a>
</g>
</g>
<!-- Node1&#45;&gt;Node17 -->
<g id="edge17_Node000001_Node000017" class="edge">
<title>Node1&#45;&gt;Node17</title>
<g id="a_edge17_Node000001_Node000017"><a xlink:title=" ">
<path fill="none" stroke="#63b8ff" d="M68.79,-286.74C73.67,-251.68 95.85,-125.84 169.28,-63 172.75,-60.03 176.65,-57.55 180.78,-55.47"/>
<polygon fill="#63b8ff" stroke="#63b8ff" points="182.28,-58.64 190.13,-51.53 179.56,-52.18 182.28,-58.64"/>
</a>
</g>
</g>
<!-- Node18 -->
<g id="Node000018" class="node">
<title>Node18</title>
<g id="a_Node000018"><a xlink:href="classepub_1_1metadata.html#a14926d8532fc0e692507fe9fa4964d9f" target="_top" xlink:title=" ">
<polygon fill="white" stroke="#666666" points="292.1,-18 185.87,-18 185.87,0 292.1,0 292.1,-18"/>
<text text-anchor="middle" x="238.99" y="-6" font-family="Helvetica,sans-Serif" font-size="10.00">epub::metadata::title</text>
</a>
</g>
</g>
<!-- Node1&#45;&gt;Node18 -->
<g id="edge19_Node000001_Node000018" class="edge">
<title>Node1&#45;&gt;Node18</title>
<g id="a_edge19_Node000001_Node000018"><a xlink:title=" ">
<path fill="none" stroke="#63b8ff" d="M68.18,-286.95C70.96,-248.99 86.9,-101.15 169.28,-27 171.59,-24.92 174.11,-23.08 176.77,-21.44"/>
<polygon fill="#63b8ff" stroke="#63b8ff" points="178.38,-24.55 185.71,-16.9 175.21,-18.31 178.38,-24.55"/>
</a>
</g>
</g>
<!-- Node2&#45;&gt;Node3 -->
<g id="edge2_Node000002_Node000003" class="edge">
<title>Node2&#45;&gt;Node3</title>
<g id="a_edge2_Node000002_Node000003"><a xlink:title=" ">
<path fill="none" stroke="#63b8ff" d="M306.6,-541.96C315.71,-542.91 325.13,-543.89 334.42,-544.87"/>
<polygon fill="#63b8ff" stroke="#63b8ff" points="334.12,-548.35 344.43,-545.91 334.85,-541.39 334.12,-548.35"/>
</a>
</g>
</g>
<!-- Node2&#45;&gt;Node4 -->
<g id="edge3_Node000002_Node000004" class="edge">
<title>Node2&#45;&gt;Node4</title>
<g id="a_edge3_Node000002_Node000004"><a xlink:title=" ">
<path fill="none" stroke="#63b8ff" d="M306.6,-528.04C318.59,-526.79 331.11,-525.48 343.16,-524.22"/>
<polygon fill="#63b8ff" stroke="#63b8ff" points="343.57,-527.7 353.16,-523.18 342.85,-520.74 343.57,-527.7"/>
</a>
</g>
</g>
<!-- Node14 -->
<g id="Node000014" class="node">
<title>Node14</title>
<g id="a_Node000014"><a xlink:href="classepub_1_1metadata.html#aa104934854caf6b8b77930f1a46640e0" target="_top" xlink:title="Select the rendition layout controlling reflow.">
<polygon fill="white" stroke="#666666" points="465.8,-177 360.78,-177 360.78,-149 465.8,-149 465.8,-177"/>
<text text-anchor="start" x="368.54" y="-165" font-family="Helvetica,sans-Serif" font-size="10.00">epub::metadata::pre</text>
<text text-anchor="middle" x="413.29" y="-155" font-family="Helvetica,sans-Serif" font-size="10.00">_paginated</text>
</a>
</g>
</g>
<!-- Node13&#45;&gt;Node14 -->
<g id="edge13_Node000013_Node000014" class="edge">
<title>Node13&#45;&gt;Node14</title>
<g id="a_edge13_Node000013_Node000014"><a xlink:title=" ">
<path fill="none" stroke="#63b8ff" d="M297.84,-163C314.68,-163 333.14,-163 350.23,-163"/>
<polygon fill="#63b8ff" stroke="#63b8ff" points="350.67,-166.5 360.67,-163 350.67,-159.5 350.67,-166.5"/>
</a>
</g>
</g>
</g>
</svg>
