<?xml version="1.0" encoding="UTF-8" standalone="no"?>
<!DOCTYPE svg PUBLIC "-//W3C//DTD SVG 1.1//EN"
 "http://www.w3.org/Graphics/SVG/1.1/DTD/svg11.dtd">
<!-- Generated by graphviz version 2.48.0 (20210717.1556)
 -->
<!-- Title: epub::common_options Pages: 1 -->
<svg width="559pt" height="128pt"
 viewBox="0.00 0.00 559.10 128.00" xmlns="http://www.w3.org/2000/svg" xmlns:xlink="http://www.w3.org/1999/xlink">
<g id="graph0" class="graph" transform="scale(1 1) rotate(0) translate(4 124)">
<title>epub::common_options</title>
<!-- Node1 -->
<g id="Node000001" class="node">
<title>Node1</title>
<g id="a_Node000001"><a xlink:title="Common options for EPUB command&#45;line utilities.">
<polygon fill="#999999" stroke="#666666" points="119.93,-69 0.02,-69 0.02,-51 119.93,-51 119.93,-69"/>
<text text-anchor="middle" x="59.98" y="-57" font-family="Helvetica,sans-Serif" font-size="10.00">epub::common_options</text>
</a>
</g>
</g>
<!-- Node2 -->
<g id="Node000002" class="node">
<title>Node2</title>
<g id="a_Node000002"><a xlink:href="classcli_1_1option__processor.html#a1beb9030eaaccca08a3e71378c66be4c" target="_top" xlink:title=" ">
<polygon fill="white" stroke="#666666" points="263.53,-120 156.1,-120 156.1,-92 263.53,-92 263.53,-120"/>
<text text-anchor="start" x="163.96" y="-108" font-family="Helvetica,sans-Serif" font-size="10.00">cli::option_processor</text>
<text text-anchor="middle" x="209.81" y="-98" font-family="Helvetica,sans-Serif" font-size="10.00">::add_flag</text>
</a>
</g>
</g>
<!-- Node1&#45;&gt;Node2 -->
<g id="edge1_Node000001_Node000002" class="edge">
<title>Node1&#45;&gt;Node2</title>
<g id="a_edge1_Node000001_Node000002"><a xlink:title=" ">
<path fill="none" stroke="#63b8ff" d="M90.18,-69.09C108.35,-74.74 132.3,-82.19 153.91,-88.92"/>
<polygon fill="#63b8ff" stroke="#63b8ff" points="153.06,-92.32 163.65,-91.95 155.14,-85.63 153.06,-92.32"/>
</a>
</g>
</g>
<!-- Node5 -->
<g id="Node000005" class="node">
<title>Node5</title>
<g id="a_Node000005"><a xlink:href="classcli_1_1option__processor.html#a7e490c083572fb89a9d7c559c95eab73" target="_top" xlink:title=" ">
<polygon fill="white" stroke="#666666" points="263.53,-74 156.1,-74 156.1,-46 263.53,-46 263.53,-74"/>
<text text-anchor="start" x="163.96" y="-62" font-family="Helvetica,sans-Serif" font-size="10.00">cli::option_processor</text>
<text text-anchor="middle" x="209.81" y="-52" font-family="Helvetica,sans-Serif" font-size="10.00">::add_option</text>
</a>
</g>
</g>
<!-- Node1&#45;&gt;Node5 -->
<g id="edge5_Node000001_Node000005" class="edge">
<title>Node1&#45;&gt;Node5</title>
<g id="a_edge5_Node000001_Node000005"><a xlink:title=" ">
<path fill="none" stroke="#63b8ff" d="M120.26,-60C128.59,-60 137.19,-60 145.6,-60"/>
<polygon fill="#63b8ff" stroke="#63b8ff" points="145.73,-63.5 155.73,-60 145.73,-56.5 145.73,-63.5"/>
</a>
</g>
</g>
<!-- Node6 -->
<g id="Node000006" class="node">
<title>Node6</title>
<g id="a_Node000006"><a xlink:href="classcli_1_1option__processor.html#a02399e5ea59c24143752d5345de45e83" target="_top" xlink:title=" ">
<polygon fill="white" stroke="#666666" points="263.53,-28 156.1,-28 156.1,0 263.53,0 263.53,-28"/>
<text text-anchor="start" x="163.96" y="-16" font-family="Helvetica,sans-Serif" font-size="10.00">cli::option_processor</text>
<text text-anchor="middle" x="209.81" y="-6" font-family="Helvetica,sans-Serif" font-size="10.00">::synopsis</text>
</a>
</g>
</g>
<!-- Node1&#45;&gt;Node6 -->
<g id="edge7_Node000001_Node000006" class="edge">
<title>Node1&#45;&gt;Node6</title>
<g id="a_edge7_Node000001_Node000006"><a xlink:title=" ">
<path fill="none" stroke="#63b8ff" d="M90.18,-50.91C108.35,-45.26 132.3,-37.81 153.91,-31.08"/>
<polygon fill="#63b8ff" stroke="#63b8ff" points="155.14,-34.37 163.65,-28.05 153.06,-27.68 155.14,-34.37"/>
</a>
</g>
</g>
<!-- Node3 -->
<g id="Node000003" class="node">
<title>Node3</title>
<g id="a_Node000003"><a xlink:href="classcli_1_1option__processor.html#a46aa5749ada745f8fa0e8188d317c590" target="_top" xlink:title=" ">
<polygon fill="white" stroke="#666666" points="407.24,-97 299.81,-97 299.81,-69 407.24,-69 407.24,-97"/>
<text text-anchor="start" x="307.67" y="-85" font-family="Helvetica,sans-Serif" font-size="10.00">cli::option_processor</text>
<text text-anchor="middle" x="353.53" y="-75" font-family="Helvetica,sans-Serif" font-size="10.00">::usage</text>
</a>
</g>
</g>
<!-- Node2&#45;&gt;Node3 -->
<g id="edge2_Node000002_Node000003" class="edge">
<title>Node2&#45;&gt;Node3</title>
<g id="a_edge2_Node000002_Node000003"><a xlink:title=" ">
<path fill="none" stroke="#63b8ff" d="M263.58,-97.44C272.07,-96.06 280.92,-94.62 289.61,-93.21"/>
<polygon fill="#63b8ff" stroke="#63b8ff" points="290.4,-96.63 299.71,-91.57 289.28,-89.72 290.4,-96.63"/>
</a>
</g>
</g>
<!-- Node4 -->
<g id="Node000004" class="node">
<title>Node4</title>
<g id="a_Node000004"><a xlink:href="classcli_1_1option__processor.html#a963a0b0a7cf5bf1d738f5d8d290d0ec1" target="_top" xlink:title=" ">
<polygon fill="white" stroke="#666666" points="550.95,-97 443.53,-97 443.53,-69 550.95,-69 550.95,-97"/>
<text text-anchor="start" x="451.38" y="-85" font-family="Helvetica,sans-Serif" font-size="10.00">cli::option_processor</text>
<text text-anchor="middle" x="497.24" y="-75" font-family="Helvetica,sans-Serif" font-size="10.00">::wrap</text>
</a>
</g>
</g>
<!-- Node3&#45;&gt;Node4 -->
<g id="edge3_Node000003_Node000004" class="edge">
<title>Node3&#45;&gt;Node4</title>
<g id="a_edge3_Node000003_Node000004"><a xlink:title=" ">
<path fill="none" stroke="#63b8ff" d="M407.29,-83C415.78,-83 424.63,-83 433.33,-83"/>
<polygon fill="#63b8ff" stroke="#63b8ff" points="433.43,-86.5 443.43,-83 433.43,-79.5 433.43,-86.5"/>
</a>
</g>
</g>
<!-- Node4&#45;&gt;Node4 -->
<g id="edge4_Node000004_Node000004" class="edge">
<title>Node4&#45;&gt;Node4</title>
<g id="a_edge4_Node000004_Node000004"><a xlink:title=" ">
<path fill="none" stroke="#63b8ff" d="M472.72,-97.15C466.32,-106.24 474.5,-115 497.24,-115 511.1,-115 519.55,-111.75 522.59,-107.15"/>
<polygon fill="#63b8ff" stroke="#63b8ff" points="526.07,-106.83 521.76,-97.15 519.09,-107.4 526.07,-106.83"/>
</a>
</g>
</g>
<!-- Node5&#45;&gt;Node3 -->
<g id="edge6_Node000005_Node000003" class="edge">
<title>Node5&#45;&gt;Node3</title>
<g id="a_edge6_Node000005_Node000003"><a xlink:title=" ">
<path fill="none" stroke="#63b8ff" d="M263.58,-68.56C272.07,-69.94 280.92,-71.38 289.61,-72.79"/>
<polygon fill="#63b8ff" stroke="#63b8ff" points="289.28,-76.28 299.71,-74.43 290.4,-69.37 289.28,-76.28"/>
</a>
</g>
</g>
</g>
</svg>
