<?xml version="1.0" encoding="UTF-8" standalone="no"?>
<!DOCTYPE svg PUBLIC "-//W3C//DTD SVG 1.1//EN"
 "http://www.w3.org/Graphics/SVG/1.1/DTD/svg11.dtd">
<!-- Generated by graphviz version 2.48.0 (20210717.1556)
 -->
<!-- Title: epub::xml::write_navigation Pages: 1 -->
<svg width="318pt" height="288pt"
 viewBox="0.00 0.00 318.37 288.00" xmlns="http://www.w3.org/2000/svg" xmlns:xlink="http://www.w3.org/1999/xlink">
<g id="graph0" class="graph" transform="scale(1 1) rotate(0) translate(4 284)">
<title>epub::xml::write_navigation</title>
<!-- Node1 -->
<g id="Node000001" class="node">
<title>Node1</title>
<g id="a_Node000001"><a xlink:title=" ">
<polygon fill="#999999" stroke="#666666" points="137.27,-154 -0.09,-154 -0.09,-136 137.27,-136 137.27,-154"/>
<text text-anchor="middle" x="68.59" y="-142" font-family="Helvetica,sans-Serif" font-size="10.00">epub::xml::write_navigation</text>
</a>
</g>
</g>
<!-- Node2 -->
<g id="Node000002" class="node">
<title>Node2</title>
<g id="a_Node000002"><a xlink:href="namespaceepub_1_1xml.html#aa7f3a8aea8e7def07ed8fe9719aaae2b" target="_top" xlink:title=" ">
<polygon fill="white" stroke="#666666" points="310.46,-280 173.08,-280 173.08,-262 310.46,-262 310.46,-280"/>
<text text-anchor="middle" x="241.77" y="-268" font-family="Helvetica,sans-Serif" font-size="10.00">epub::xml::new_child_node</text>
</a>
</g>
</g>
<!-- Node1&#45;&gt;Node2 -->
<g id="edge1_Node000001_Node000002" class="edge">
<title>Node1&#45;&gt;Node2</title>
<g id="a_edge1_Node000001_Node000002"><a xlink:title=" ">
<path fill="none" stroke="#63b8ff" d="M75.65,-154.14C89.99,-175.01 128.21,-226.45 173.18,-253 176.55,-254.99 180.15,-256.77 183.86,-258.35"/>
<polygon fill="#63b8ff" stroke="#63b8ff" points="182.66,-261.64 193.25,-261.9 185.14,-255.09 182.66,-261.64"/>
</a>
</g>
</g>
<!-- Node3 -->
<g id="Node000003" class="node">
<title>Node3</title>
<g id="a_Node000003"><a xlink:href="namespaceepub_1_1xml.html#aade3eb68257c90e5e2bff8826e31b2ee" target="_top" xlink:title=" ">
<polygon fill="white" stroke="#666666" points="294.21,-244 189.33,-244 189.33,-226 294.21,-226 294.21,-244"/>
<text text-anchor="middle" x="241.77" y="-232" font-family="Helvetica,sans-Serif" font-size="10.00">epub::xml::new_doc</text>
</a>
</g>
</g>
<!-- Node1&#45;&gt;Node3 -->
<g id="edge2_Node000001_Node000003" class="edge">
<title>Node1&#45;&gt;Node3</title>
<g id="a_edge2_Node000001_Node000003"><a xlink:title=" ">
<path fill="none" stroke="#63b8ff" d="M80.01,-154.12C97.87,-169.3 136.01,-199.78 173.18,-217 177.88,-219.18 182.89,-221.13 187.98,-222.87"/>
<polygon fill="#63b8ff" stroke="#63b8ff" points="187.2,-226.3 197.79,-225.96 189.3,-219.62 187.2,-226.3"/>
</a>
</g>
</g>
<!-- Node4 -->
<g id="Node000004" class="node">
<title>Node4</title>
<g id="a_Node000004"><a xlink:href="namespaceepub_1_1xml.html#ab1c1a0b06668a784e601e7c3db4bf717" target="_top" xlink:title=" ">
<polygon fill="white" stroke="#666666" points="297.34,-208 186.21,-208 186.21,-190 297.34,-190 297.34,-208"/>
<text text-anchor="middle" x="241.77" y="-196" font-family="Helvetica,sans-Serif" font-size="10.00">epub::xml::new_node</text>
</a>
</g>
</g>
<!-- Node1&#45;&gt;Node4 -->
<g id="edge3_Node000001_Node000004" class="edge">
<title>Node1&#45;&gt;Node4</title>
<g id="a_edge3_Node000001_Node000004"><a xlink:title=" ">
<path fill="none" stroke="#63b8ff" d="M94.12,-154.1C115,-161.71 145.87,-172.63 173.18,-181 180.2,-183.15 187.68,-185.29 195.01,-187.31"/>
<polygon fill="#63b8ff" stroke="#63b8ff" points="194.28,-190.74 204.85,-189.96 196.11,-183.98 194.28,-190.74"/>
</a>
</g>
</g>
<!-- Node5 -->
<g id="Node000005" class="node">
<title>Node5</title>
<g id="a_Node000005"><a xlink:href="namespaceepub_1_1xml.html#a9534079e531f40c861c5f5fb60523655" target="_top" xlink:title=" ">
<polygon fill="white" stroke="#666666" points="291.65,-172 191.89,-172 191.89,-154 291.65,-154 291.65,-172"/>
<text text-anchor="middle" x="241.77" y="-160" font-family="Helvetica,sans-Serif" font-size="10.00">epub::xml::new_ns</text>
</a>
</g>
</g>
<!-- Node1&#45;&gt;Node5 -->
<g id="edge4_Node000001_Node000005" class="edge">
<title>Node1&#45;&gt;Node5</title>
<g id="a_edge4_Node000001_Node000005"><a xlink:title=" ">
<path fill="none" stroke="#63b8ff" d="M137.24,-152.11C151.98,-153.66 167.47,-155.29 181.84,-156.8"/>
<polygon fill="#63b8ff" stroke="#63b8ff" points="181.76,-160.31 192.08,-157.88 182.5,-153.35 181.76,-160.31"/>
</a>
</g>
</g>
<!-- Node6 -->
<g id="Node000006" class="node">
<title>Node6</title>
<g id="a_Node000006"><a xlink:href="namespaceepub_1_1xml.html#ae2081bbf8a83743ac0993dd0631a826f" target="_top" xlink:title=" ">
<polygon fill="white" stroke="#666666" points="294.15,-136 189.39,-136 189.39,-118 294.15,-118 294.15,-136"/>
<text text-anchor="middle" x="241.77" y="-124" font-family="Helvetica,sans-Serif" font-size="10.00">epub::xml::save_file</text>
</a>
</g>
</g>
<!-- Node1&#45;&gt;Node6 -->
<g id="edge5_Node000001_Node000006" class="edge">
<title>Node1&#45;&gt;Node6</title>
<g id="a_edge5_Node000001_Node000006"><a xlink:title=" ">
<path fill="none" stroke="#63b8ff" d="M137.24,-137.89C151.1,-136.43 165.6,-134.9 179.23,-133.47"/>
<polygon fill="#63b8ff" stroke="#63b8ff" points="179.87,-136.92 189.45,-132.4 179.14,-129.96 179.87,-136.92"/>
</a>
</g>
</g>
<!-- Node7 -->
<g id="Node000007" class="node">
<title>Node7</title>
<g id="a_Node000007"><a xlink:href="namespaceepub_1_1xml.html#a2e514ea095933964359b229c04117a9b" target="_top" xlink:title=" ">
<polygon fill="white" stroke="#666666" points="301.72,-100 181.83,-100 181.83,-82 301.72,-82 301.72,-100"/>
<text text-anchor="middle" x="241.77" y="-88" font-family="Helvetica,sans-Serif" font-size="10.00">epub::xml::set_attribute</text>
</a>
</g>
</g>
<!-- Node1&#45;&gt;Node7 -->
<g id="edge6_Node000001_Node000007" class="edge">
<title>Node1&#45;&gt;Node7</title>
<g id="a_edge6_Node000001_Node000007"><a xlink:title=" ">
<path fill="none" stroke="#63b8ff" d="M94.12,-135.9C115,-128.29 145.87,-117.37 173.18,-109 180.2,-106.85 187.68,-104.71 195.01,-102.69"/>
<polygon fill="#63b8ff" stroke="#63b8ff" points="196.11,-106.02 204.85,-100.04 194.28,-99.26 196.11,-106.02"/>
</a>
</g>
</g>
<!-- Node8 -->
<g id="Node000008" class="node">
<title>Node8</title>
<g id="a_Node000008"><a xlink:href="namespaceepub_1_1xml.html#a165119af9dcfdf603fda317338dcd8eb" target="_top" xlink:title=" ">
<polygon fill="white" stroke="#666666" points="289.15,-64 194.4,-64 194.4,-46 289.15,-46 289.15,-64"/>
<text text-anchor="middle" x="241.77" y="-52" font-family="Helvetica,sans-Serif" font-size="10.00">epub::xml::set_ns</text>
</a>
</g>
</g>
<!-- Node1&#45;&gt;Node8 -->
<g id="edge7_Node000001_Node000008" class="edge">
<title>Node1&#45;&gt;Node8</title>
<g id="a_edge7_Node000001_Node000008"><a xlink:title=" ">
<path fill="none" stroke="#63b8ff" d="M80.01,-135.88C97.87,-120.7 136.01,-90.22 173.18,-73 177.88,-70.82 182.89,-68.87 187.98,-67.13"/>
<polygon fill="#63b8ff" stroke="#63b8ff" points="189.3,-70.38 197.79,-64.04 187.2,-63.7 189.3,-70.38"/>
</a>
</g>
</g>
<!-- Node9 -->
<g id="Node000009" class="node">
<title>Node9</title>
<g id="a_Node000009"><a xlink:href="namespaceepub_1_1xml.html#a8265beb78a012601af7b4efad94a5d24" target="_top" xlink:title=" ">
<polygon fill="white" stroke="#666666" points="292.32,-28 191.23,-28 191.23,0 292.32,0 292.32,-28"/>
<text text-anchor="start" x="199.25" y="-16" font-family="Helvetica,sans-Serif" font-size="10.00">epub::xml::set_root</text>
<text text-anchor="middle" x="241.77" y="-6" font-family="Helvetica,sans-Serif" font-size="10.00">_element</text>
</a>
</g>
</g>
<!-- Node1&#45;&gt;Node9 -->
<g id="edge8_Node000001_Node000009" class="edge">
<title>Node1&#45;&gt;Node9</title>
<g id="a_edge8_Node000001_Node000009"><a xlink:title=" ">
<path fill="none" stroke="#63b8ff" d="M76,-135.76C90.78,-115.13 129.35,-64.91 173.18,-37 175.95,-35.24 178.87,-33.59 181.88,-32.06"/>
<polygon fill="#63b8ff" stroke="#63b8ff" points="183.51,-35.16 191.12,-27.79 180.58,-28.8 183.51,-35.16"/>
</a>
</g>
</g>
</g>
</svg>
