<?xml version="1.0" encoding="UTF-8" standalone="no"?>
<!DOCTYPE svg PUBLIC "-//W3C//DTD SVG 1.1//EN"
 "http://www.w3.org/Graphics/SVG/1.1/DTD/svg11.dtd">
<!-- Generated by graphviz version 2.48.0 (20210717.1556)
 -->
<!-- Title: epub::xml::add_refinement Pages: 1 -->
<svg width="486pt" height="62pt"
 viewBox="0.00 0.00 486.00 62.00" xmlns="http://www.w3.org/2000/svg" xmlns:xlink="http://www.w3.org/1999/xlink">
<g id="graph0" class="graph" transform="scale(1 1) rotate(0) translate(4 58)">
<title>epub::xml::add_refinement</title>
<!-- Node1 -->
<g id="Node000001" class="node">
<title>Node1</title>
<g id="a_Node000001"><a xlink:title=" ">
<polygon fill="#999999" stroke="#666666" points="134.61,-35 -0.2,-35 -0.2,-17 134.61,-17 134.61,-35"/>
<text text-anchor="middle" x="67.2" y="-23" font-family="Helvetica,sans-Serif" font-size="10.00">epub::xml::add_refinement</text>
</a>
</g>
</g>
<!-- Node2 -->
<g id="Node000002" class="node">
<title>Node2</title>
<g id="a_Node000002"><a xlink:href="namespaceepub_1_1xml.html#a963274c442c95b1fc19777e4b465affc" target="_top" xlink:title=" ">
<polygon fill="white" stroke="#666666" points="305.01,-54 170.2,-54 170.2,-36 305.01,-36 305.01,-54"/>
<text text-anchor="middle" x="237.6" y="-42" font-family="Helvetica,sans-Serif" font-size="10.00">epub::xml::add_refinement</text>
</a>
</g>
</g>
<!-- Node1&#45;&gt;Node2 -->
<g id="edge1_Node000001_Node000002" class="edge">
<title>Node1&#45;&gt;Node2</title>
<g id="a_edge1_Node000001_Node000002"><a xlink:title=" ">
<path fill="none" stroke="#63b8ff" d="M134.76,-33.51C143.15,-34.46 151.79,-35.43 160.32,-36.39"/>
<polygon fill="#63b8ff" stroke="#63b8ff" points="159.93,-39.87 170.26,-37.51 160.71,-32.91 159.93,-39.87"/>
</a>
</g>
</g>
<!-- Node4 -->
<g id="Node000004" class="node">
<title>Node4</title>
<g id="a_Node000004"><a xlink:href="namespaceepub_1_1xml.html#a2e514ea095933964359b229c04117a9b" target="_top" xlink:title=" ">
<polygon fill="white" stroke="#666666" points="469.35,-18 349.46,-18 349.46,0 469.35,0 469.35,-18"/>
<text text-anchor="middle" x="409.4" y="-6" font-family="Helvetica,sans-Serif" font-size="10.00">epub::xml::set_attribute</text>
</a>
</g>
</g>
<!-- Node1&#45;&gt;Node4 -->
<g id="edge4_Node000001_Node000004" class="edge">
<title>Node1&#45;&gt;Node4</title>
<g id="a_edge4_Node000001_Node000004"><a xlink:title=" ">
<path fill="none" stroke="#63b8ff" d="M134.6,-22.68C193.55,-19.74 279.38,-15.45 339.17,-12.46"/>
<polygon fill="#63b8ff" stroke="#63b8ff" points="339.46,-15.95 349.27,-11.95 339.11,-8.96 339.46,-15.95"/>
</a>
</g>
</g>
<!-- Node3 -->
<g id="Node000003" class="node">
<title>Node3</title>
<g id="a_Node000003"><a xlink:href="namespaceepub_1_1xml.html#aa7f3a8aea8e7def07ed8fe9719aaae2b" target="_top" xlink:title=" ">
<polygon fill="white" stroke="#666666" points="478.09,-54 340.71,-54 340.71,-36 478.09,-36 478.09,-54"/>
<text text-anchor="middle" x="409.4" y="-42" font-family="Helvetica,sans-Serif" font-size="10.00">epub::xml::new_child_node</text>
</a>
</g>
</g>
<!-- Node2&#45;&gt;Node3 -->
<g id="edge2_Node000002_Node000003" class="edge">
<title>Node2&#45;&gt;Node3</title>
<g id="a_edge2_Node000002_Node000003"><a xlink:title=" ">
<path fill="none" stroke="#63b8ff" d="M305.23,-45C313.48,-45 321.98,-45 330.39,-45"/>
<polygon fill="#63b8ff" stroke="#63b8ff" points="330.58,-48.5 340.58,-45 330.58,-41.5 330.58,-48.5"/>
</a>
</g>
</g>
<!-- Node2&#45;&gt;Node4 -->
<g id="edge3_Node000002_Node000004" class="edge">
<title>Node2&#45;&gt;Node4</title>
<g id="a_edge3_Node000002_Node000004"><a xlink:title=" ">
<path fill="none" stroke="#63b8ff" d="M281.45,-35.92C304.06,-31.12 331.99,-25.2 355.89,-20.13"/>
<polygon fill="#63b8ff" stroke="#63b8ff" points="356.81,-23.52 365.86,-18.02 355.35,-16.67 356.81,-23.52"/>
</a>
</g>
</g>
</g>
</svg>
