<?xml version="1.0" encoding="UTF-8" standalone="no"?>
<!DOCTYPE svg PUBLIC "-//W3C//DTD SVG 1.1//EN"
 "http://www.w3.org/Graphics/SVG/1.1/DTD/svg11.dtd">
<!-- Generated by graphviz version 2.48.0 (20210717.1556)
 -->
<!-- Title: epub::xml::write_manifest Pages: 1 -->
<svg width="311pt" height="62pt"
 viewBox="0.00 0.00 310.57 62.00" xmlns="http://www.w3.org/2000/svg" xmlns:xlink="http://www.w3.org/1999/xlink">
<g id="graph0" class="graph" transform="scale(1 1) rotate(0) translate(4 58)">
<title>epub::xml::write_manifest</title>
<!-- Node1 -->
<g id="Node000001" class="node">
<title>Node1</title>
<g id="a_Node000001"><a xlink:title=" ">
<polygon fill="#999999" stroke="#666666" points="129.57,-36 -0.19,-36 -0.19,-18 129.57,-18 129.57,-36"/>
<text text-anchor="middle" x="64.69" y="-24" font-family="Helvetica,sans-Serif" font-size="10.00">epub::xml::write_manifest</text>
</a>
</g>
</g>
<!-- Node2 -->
<g id="Node000002" class="node">
<title>Node2</title>
<g id="a_Node000002"><a xlink:href="namespaceepub_1_1xml.html#aa7f3a8aea8e7def07ed8fe9719aaae2b" target="_top" xlink:title=" ">
<polygon fill="white" stroke="#666666" points="302.67,-54 165.28,-54 165.28,-36 302.67,-36 302.67,-54"/>
<text text-anchor="middle" x="233.97" y="-42" font-family="Helvetica,sans-Serif" font-size="10.00">epub::xml::new_child_node</text>
</a>
</g>
</g>
<!-- Node1&#45;&gt;Node2 -->
<g id="edge1_Node000001_Node000002" class="edge">
<title>Node1&#45;&gt;Node2</title>
<g id="a_edge1_Node000001_Node000002"><a xlink:title=" ">
<path fill="none" stroke="#63b8ff" d="M129.41,-33.86C137.84,-34.76 146.55,-35.7 155.18,-36.63"/>
<polygon fill="#63b8ff" stroke="#63b8ff" points="154.94,-40.12 165.26,-37.71 155.69,-33.16 154.94,-40.12"/>
</a>
</g>
</g>
<!-- Node3 -->
<g id="Node000003" class="node">
<title>Node3</title>
<g id="a_Node000003"><a xlink:href="namespaceepub_1_1xml.html#a2e514ea095933964359b229c04117a9b" target="_top" xlink:title=" ">
<polygon fill="white" stroke="#666666" points="293.92,-18 174.03,-18 174.03,0 293.92,0 293.92,-18"/>
<text text-anchor="middle" x="233.97" y="-6" font-family="Helvetica,sans-Serif" font-size="10.00">epub::xml::set_attribute</text>
</a>
</g>
</g>
<!-- Node1&#45;&gt;Node3 -->
<g id="edge2_Node000001_Node000003" class="edge">
<title>Node1&#45;&gt;Node3</title>
<g id="a_edge2_Node000001_Node000003"><a xlink:title=" ">
<path fill="none" stroke="#63b8ff" d="M129.41,-20.14C140.58,-18.94 152.25,-17.69 163.57,-16.47"/>
<polygon fill="#63b8ff" stroke="#63b8ff" points="164.26,-19.91 173.83,-15.36 163.52,-12.95 164.26,-19.91"/>
</a>
</g>
</g>
</g>
</svg>
