<?xml version="1.0" encoding="UTF-8" standalone="no"?>
<!DOCTYPE svg PUBLIC "-//W3C//DTD SVG 1.1//EN"
 "http://www.w3.org/Graphics/SVG/1.1/DTD/svg11.dtd">
<!-- Generated by graphviz version 2.48.0 (20210717.1556)
 -->
<!-- Title: epub::xml::write_package Pages: 1 -->
<svg width="655pt" height="810pt"
 viewBox="0.00 0.00 655.28 810.00" xmlns="http://www.w3.org/2000/svg" xmlns:xlink="http://www.w3.org/1999/xlink">
<g id="graph0" class="graph" transform="scale(1 1) rotate(0) translate(4 806)">
<title>epub::xml::write_package</title>
<!-- Node1 -->
<g id="Node000001" class="node">
<title>Node1</title>
<g id="a_Node000001"><a xlink:title=" ">
<polygon fill="#999999" stroke="#666666" points="129.59,-505 -0.2,-505 -0.2,-487 129.59,-487 129.59,-505"/>
<text text-anchor="middle" x="64.7" y="-493" font-family="Helvetica,sans-Serif" font-size="10.00">epub::xml::write_package</text>
</a>
</g>
</g>
<!-- Node2 -->
<g id="Node000002" class="node">
<title>Node2</title>
<g id="a_Node000002"><a xlink:href="classepub_1_1package.html#a9161b883051ba7032e7d5e903672e859" target="_top" xlink:title=" ">
<polygon fill="white" stroke="#666666" points="294.49,-802 169.57,-802 169.57,-784 294.49,-784 294.49,-802"/>
<text text-anchor="middle" x="232.03" y="-790" font-family="Helvetica,sans-Serif" font-size="10.00">epub::package::manifest</text>
</a>
</g>
</g>
<!-- Node1&#45;&gt;Node2 -->
<g id="edge1_Node000001_Node000002" class="edge">
<title>Node1&#45;&gt;Node2</title>
<g id="a_edge1_Node000001_Node000002"><a xlink:title=" ">
<path fill="none" stroke="#63b8ff" d="M66.06,-505.09C68.12,-543.88 81.47,-697.19 165.39,-775 166.89,-776.39 168.48,-777.67 170.15,-778.85"/>
<polygon fill="#63b8ff" stroke="#63b8ff" points="168.63,-782.01 179.04,-784 172.14,-775.96 168.63,-782.01"/>
</a>
</g>
</g>
<!-- Node3 -->
<g id="Node000003" class="node">
<title>Node3</title>
<g id="a_Node000003"><a xlink:href="classepub_1_1package.html#a249684ced04849ef954417851a336a0d" target="_top" xlink:title=" ">
<polygon fill="white" stroke="#666666" points="296.4,-766 167.67,-766 167.67,-748 296.4,-748 296.4,-766"/>
<text text-anchor="middle" x="232.03" y="-754" font-family="Helvetica,sans-Serif" font-size="10.00">epub::package::metadata</text>
</a>
</g>
</g>
<!-- Node1&#45;&gt;Node3 -->
<g id="edge2_Node000001_Node000003" class="edge">
<title>Node1&#45;&gt;Node3</title>
<g id="a_edge2_Node000001_Node000003"><a xlink:title=" ">
<path fill="none" stroke="#63b8ff" d="M66.87,-505.26C71.79,-540.38 93.98,-666.73 165.39,-734 169.46,-737.83 174.2,-741.03 179.23,-743.69"/>
<polygon fill="#63b8ff" stroke="#63b8ff" points="177.99,-746.97 188.54,-747.95 180.9,-740.61 177.99,-746.97"/>
</a>
</g>
</g>
<!-- Node4 -->
<g id="Node000004" class="node">
<title>Node4</title>
<g id="a_Node000004"><a xlink:href="namespaceepub_1_1xml.html#aa7f3a8aea8e7def07ed8fe9719aaae2b" target="_top" xlink:title=" ">
<polygon fill="white" stroke="#666666" points="647.37,-656 509.99,-656 509.99,-638 647.37,-638 647.37,-656"/>
<text text-anchor="middle" x="578.68" y="-644" font-family="Helvetica,sans-Serif" font-size="10.00">epub::xml::new_child_node</text>
</a>
</g>
</g>
<!-- Node1&#45;&gt;Node4 -->
<g id="edge3_Node000001_Node000004" class="edge">
<title>Node1&#45;&gt;Node4</title>
<g id="a_edge3_Node000001_Node000004"><a xlink:title=" ">
<path fill="none" stroke="#63b8ff" d="M67.82,-505.36C75.22,-535.66 102.89,-631.55 165.39,-675 278.44,-753.59 340.36,-733.76 474.09,-701 504.84,-693.47 536.6,-675.04 556.71,-661.81"/>
<polygon fill="#63b8ff" stroke="#63b8ff" points="558.76,-664.65 565.09,-656.16 554.84,-658.85 558.76,-664.65"/>
</a>
</g>
</g>
<!-- Node5 -->
<g id="Node000005" class="node">
<title>Node5</title>
<g id="a_Node000005"><a xlink:href="namespaceepub_1_1xml.html#aade3eb68257c90e5e2bff8826e31b2ee" target="_top" xlink:title=" ">
<polygon fill="white" stroke="#666666" points="284.47,-397 179.59,-397 179.59,-379 284.47,-379 284.47,-397"/>
<text text-anchor="middle" x="232.03" y="-385" font-family="Helvetica,sans-Serif" font-size="10.00">epub::xml::new_doc</text>
</a>
</g>
</g>
<!-- Node1&#45;&gt;Node5 -->
<g id="edge4_Node000001_Node000005" class="edge">
<title>Node1&#45;&gt;Node5</title>
<g id="a_edge4_Node000001_Node000005"><a xlink:title=" ">
<path fill="none" stroke="#63b8ff" d="M73.19,-486.83C88.54,-468.63 125.51,-427.84 165.39,-406 169.12,-403.96 173.1,-402.13 177.19,-400.51"/>
<polygon fill="#63b8ff" stroke="#63b8ff" points="178.6,-403.72 186.84,-397.06 176.25,-397.13 178.6,-403.72"/>
</a>
</g>
</g>
<!-- Node6 -->
<g id="Node000006" class="node">
<title>Node6</title>
<g id="a_Node000006"><a xlink:href="namespaceepub_1_1xml.html#ab1c1a0b06668a784e601e7c3db4bf717" target="_top" xlink:title=" ">
<polygon fill="white" stroke="#666666" points="287.6,-361 176.47,-361 176.47,-343 287.6,-343 287.6,-361"/>
<text text-anchor="middle" x="232.03" y="-349" font-family="Helvetica,sans-Serif" font-size="10.00">epub::xml::new_node</text>
</a>
</g>
</g>
<!-- Node1&#45;&gt;Node6 -->
<g id="edge5_Node000001_Node000006" class="edge">
<title>Node1&#45;&gt;Node6</title>
<g id="a_edge5_Node000001_Node000006"><a xlink:title=" ">
<path fill="none" stroke="#63b8ff" d="M70.31,-486.75C82.46,-463.37 117.7,-401.55 165.39,-370 168.15,-368.17 171.09,-366.53 174.14,-365.06"/>
<polygon fill="#63b8ff" stroke="#63b8ff" points="175.68,-368.21 183.55,-361.11 172.97,-361.75 175.68,-368.21"/>
</a>
</g>
</g>
<!-- Node7 -->
<g id="Node000007" class="node">
<title>Node7</title>
<g id="a_Node000007"><a xlink:href="namespaceepub_1_1xml.html#a9534079e531f40c861c5f5fb60523655" target="_top" xlink:title=" ">
<polygon fill="white" stroke="#666666" points="454.26,-620 354.5,-620 354.5,-602 454.26,-602 454.26,-620"/>
<text text-anchor="middle" x="404.38" y="-608" font-family="Helvetica,sans-Serif" font-size="10.00">epub::xml::new_ns</text>
</a>
</g>
</g>
<!-- Node1&#45;&gt;Node7 -->
<g id="edge6_Node000001_Node000007" class="edge">
<title>Node1&#45;&gt;Node7</title>
<g id="a_edge6_Node000001_Node000007"><a xlink:title=" ">
<path fill="none" stroke="#63b8ff" d="M73.04,-505.25C88.12,-523.51 124.63,-563.97 165.39,-582 222.43,-607.23 294.23,-612.86 343.97,-613.19"/>
<polygon fill="#63b8ff" stroke="#63b8ff" points="344.24,-616.69 354.24,-613.19 344.24,-609.69 344.24,-616.69"/>
</a>
</g>
</g>
<!-- Node8 -->
<g id="Node000008" class="node">
<title>Node8</title>
<g id="a_Node000008"><a xlink:href="namespaceepub_1_1xml.html#ae2081bbf8a83743ac0993dd0631a826f" target="_top" xlink:title=" ">
<polygon fill="white" stroke="#666666" points="284.41,-325 179.65,-325 179.65,-307 284.41,-307 284.41,-325"/>
<text text-anchor="middle" x="232.03" y="-313" font-family="Helvetica,sans-Serif" font-size="10.00">epub::xml::save_file</text>
</a>
</g>
</g>
<!-- Node1&#45;&gt;Node8 -->
<g id="edge7_Node000001_Node000008" class="edge">
<title>Node1&#45;&gt;Node8</title>
<g id="a_edge7_Node000001_Node000008"><a xlink:title=" ">
<path fill="none" stroke="#63b8ff" d="M68.69,-486.62C78.07,-458.75 109.64,-375.8 165.39,-334 167.7,-332.27 170.16,-330.71 172.72,-329.3"/>
<polygon fill="#63b8ff" stroke="#63b8ff" points="174.21,-332.47 181.78,-325.05 171.24,-326.13 174.21,-332.47"/>
</a>
</g>
</g>
<!-- Node9 -->
<g id="Node000009" class="node">
<title>Node9</title>
<g id="a_Node000009"><a xlink:href="namespaceepub_1_1xml.html#a2e514ea095933964359b229c04117a9b" target="_top" xlink:title=" ">
<polygon fill="white" stroke="#666666" points="638.63,-583 518.74,-583 518.74,-565 638.63,-565 638.63,-583"/>
<text text-anchor="middle" x="578.68" y="-571" font-family="Helvetica,sans-Serif" font-size="10.00">epub::xml::set_attribute</text>
</a>
</g>
</g>
<!-- Node1&#45;&gt;Node9 -->
<g id="edge8_Node000001_Node000009" class="edge">
<title>Node1&#45;&gt;Node9</title>
<g id="a_edge8_Node000001_Node000009"><a xlink:title=" ">
<path fill="none" stroke="#63b8ff" d="M99.81,-505.07C150.61,-518.21 249.31,-542.36 334.67,-555 392.91,-563.62 459.6,-568.48 508.38,-571.13"/>
<polygon fill="#63b8ff" stroke="#63b8ff" points="508.33,-574.63 518.5,-571.66 508.7,-567.64 508.33,-574.63"/>
</a>
</g>
</g>
<!-- Node10 -->
<g id="Node000010" class="node">
<title>Node10</title>
<g id="a_Node000010"><a xlink:href="namespaceepub_1_1xml.html#a165119af9dcfdf603fda317338dcd8eb" target="_top" xlink:title=" ">
<polygon fill="white" stroke="#666666" points="279.41,-289 184.66,-289 184.66,-271 279.41,-271 279.41,-289"/>
<text text-anchor="middle" x="232.03" y="-277" font-family="Helvetica,sans-Serif" font-size="10.00">epub::xml::set_ns</text>
</a>
</g>
</g>
<!-- Node1&#45;&gt;Node10 -->
<g id="edge9_Node000001_Node000010" class="edge">
<title>Node1&#45;&gt;Node10</title>
<g id="a_edge9_Node000001_Node000010"><a xlink:title=" ">
<path fill="none" stroke="#63b8ff" d="M67.53,-486.87C74.32,-455.41 101.07,-350.66 165.39,-298 168.49,-295.46 171.92,-293.28 175.54,-291.41"/>
<polygon fill="#63b8ff" stroke="#63b8ff" points="177.08,-294.55 184.85,-287.35 174.28,-288.14 177.08,-294.55"/>
</a>
</g>
</g>
<!-- Node11 -->
<g id="Node000011" class="node">
<title>Node11</title>
<g id="a_Node000011"><a xlink:href="namespaceepub_1_1xml.html#a8265beb78a012601af7b4efad94a5d24" target="_top" xlink:title=" ">
<polygon fill="white" stroke="#666666" points="282.58,-253 181.49,-253 181.49,-225 282.58,-225 282.58,-253"/>
<text text-anchor="start" x="189.51" y="-241" font-family="Helvetica,sans-Serif" font-size="10.00">epub::xml::set_root</text>
<text text-anchor="middle" x="232.03" y="-231" font-family="Helvetica,sans-Serif" font-size="10.00">_element</text>
</a>
</g>
</g>
<!-- Node1&#45;&gt;Node11 -->
<g id="edge10_Node000001_Node000011" class="edge">
<title>Node1&#45;&gt;Node11</title>
<g id="a_edge10_Node000001_Node000011"><a xlink:title=" ">
<path fill="none" stroke="#63b8ff" d="M66.92,-486.89C72.03,-452.35 94.8,-328.1 165.39,-262 167.66,-259.88 170.13,-257.96 172.74,-256.21"/>
<polygon fill="#63b8ff" stroke="#63b8ff" points="174.54,-259.21 181.48,-251.2 171.06,-253.13 174.54,-259.21"/>
</a>
</g>
</g>
<!-- Node12 -->
<g id="Node000012" class="node">
<title>Node12</title>
<g id="a_Node000012"><a xlink:href="classepub_1_1package.html#a09245d687d1cd8352cdcc6e0219c9f13" target="_top" xlink:title=" ">
<polygon fill="white" stroke="#666666" points="287.61,-207 176.46,-207 176.46,-189 287.61,-189 287.61,-207"/>
<text text-anchor="middle" x="232.03" y="-195" font-family="Helvetica,sans-Serif" font-size="10.00">epub::package::spine</text>
</a>
</g>
</g>
<!-- Node1&#45;&gt;Node12 -->
<g id="edge11_Node000001_Node000012" class="edge">
<title>Node1&#45;&gt;Node12</title>
<g id="a_edge11_Node000001_Node000012"><a xlink:title=" ">
<path fill="none" stroke="#63b8ff" d="M66.05,-486.88C68.06,-447.96 81.25,-294.11 165.39,-216 166.89,-214.61 168.48,-213.33 170.15,-212.15"/>
<polygon fill="#63b8ff" stroke="#63b8ff" points="172.13,-215.04 179.03,-207 168.62,-208.98 172.13,-215.04"/>
</a>
</g>
</g>
<!-- Node13 -->
<g id="Node000013" class="node">
<title>Node13</title>
<g id="a_Node000013"><a xlink:href="namespaceepub_1_1xml.html#ae7d7288e9485a8dde5ad1db225ddc18a" target="_top" xlink:title=" ">
<polygon fill="white" stroke="#666666" points="469.26,-692 339.5,-692 339.5,-674 469.26,-674 469.26,-692"/>
<text text-anchor="middle" x="404.38" y="-680" font-family="Helvetica,sans-Serif" font-size="10.00">epub::xml::write_manifest</text>
</a>
</g>
</g>
<!-- Node1&#45;&gt;Node13 -->
<g id="edge12_Node000001_Node000013" class="edge">
<title>Node1&#45;&gt;Node13</title>
<g id="a_edge12_Node000001_Node000013"><a xlink:title=" ">
<path fill="none" stroke="#63b8ff" d="M68.97,-505C78.92,-530.96 111.44,-606.3 165.39,-641 214.17,-672.37 279.66,-682.11 329.59,-684.43"/>
<polygon fill="#63b8ff" stroke="#63b8ff" points="329.55,-687.93 339.68,-684.81 329.81,-680.94 329.55,-687.93"/>
</a>
</g>
</g>
<!-- Node14 -->
<g id="Node000014" class="node">
<title>Node14</title>
<g id="a_Node000014"><a xlink:href="namespaceepub_1_1xml.html#a667dc5dbfff6a402c36bceb2f3bc835c" target="_top" xlink:title=" ">
<polygon fill="white" stroke="#666666" points="298.81,-433 165.25,-433 165.25,-415 298.81,-415 298.81,-433"/>
<text text-anchor="middle" x="232.03" y="-421" font-family="Helvetica,sans-Serif" font-size="10.00">epub::xml::write_metadata</text>
</a>
</g>
</g>
<!-- Node1&#45;&gt;Node14 -->
<g id="edge15_Node000001_Node000014" class="edge">
<title>Node1&#45;&gt;Node14</title>
<g id="a_edge15_Node000001_Node000014"><a xlink:title=" ">
<path fill="none" stroke="#63b8ff" d="M86.64,-486.88C115.58,-474.28 167.99,-451.46 201.07,-437.05"/>
<polygon fill="#63b8ff" stroke="#63b8ff" points="202.49,-440.25 210.26,-433.04 199.7,-433.83 202.49,-440.25"/>
</a>
</g>
</g>
<!-- Node29 -->
<g id="Node000029" class="node">
<title>Node29</title>
<g id="a_Node000029"><a xlink:href="namespaceepub_1_1xml.html#ac894e86ccd29ead7c97018b770869a91" target="_top" xlink:title=" ">
<polygon fill="white" stroke="#666666" points="462.37,-656 346.39,-656 346.39,-638 462.37,-638 462.37,-656"/>
<text text-anchor="middle" x="404.38" y="-644" font-family="Helvetica,sans-Serif" font-size="10.00">epub::xml::write_spine</text>
</a>
</g>
</g>
<!-- Node1&#45;&gt;Node29 -->
<g id="edge35_Node000001_Node000029" class="edge">
<title>Node1&#45;&gt;Node29</title>
<g id="a_edge35_Node000001_Node000029"><a xlink:title=" ">
<path fill="none" stroke="#63b8ff" d="M70.73,-505.33C83.34,-527.66 118.64,-584.26 165.39,-610 218,-638.96 286.47,-647.07 336.46,-648.61"/>
<polygon fill="#63b8ff" stroke="#63b8ff" points="336.44,-652.11 346.52,-648.84 336.6,-645.11 336.44,-652.11"/>
</a>
</g>
</g>
<!-- Node13&#45;&gt;Node4 -->
<g id="edge13_Node000013_Node000004" class="edge">
<title>Node13&#45;&gt;Node4</title>
<g id="a_edge13_Node000013_Node000004"><a xlink:title=" ">
<path fill="none" stroke="#63b8ff" d="M448.86,-673.92C471.9,-669.1 500.4,-663.15 524.72,-658.06"/>
<polygon fill="#63b8ff" stroke="#63b8ff" points="525.44,-661.49 534.52,-656.02 524.01,-654.64 525.44,-661.49"/>
</a>
</g>
</g>
<!-- Node13&#45;&gt;Node9 -->
<g id="edge14_Node000013_Node000009" class="edge">
<title>Node13&#45;&gt;Node9</title>
<g id="a_edge14_Node000013_Node000009"><a xlink:title=" ">
<path fill="none" stroke="#63b8ff" d="M453.25,-673.98C460.49,-671.63 467.67,-668.68 474.09,-665 493.71,-653.74 493.29,-644.16 510.09,-629 525.47,-615.11 543.75,-600.34 557.42,-589.6"/>
<polygon fill="#63b8ff" stroke="#63b8ff" points="559.92,-592.09 565.65,-583.18 555.62,-586.57 559.92,-592.09"/>
</a>
</g>
</g>
<!-- Node14&#45;&gt;Node4 -->
<g id="edge30_Node000014_Node000004" class="edge">
<title>Node14&#45;&gt;Node4</title>
<g id="a_edge30_Node000014_Node000004"><a xlink:title=" ">
<path fill="none" stroke="#63b8ff" d="M267.64,-414.89C326.69,-400.26 443.5,-375.64 474.09,-401 540.59,-456.14 465.89,-517.78 510.09,-592 520.15,-608.9 537.43,-622.82 551.99,-632.43"/>
<polygon fill="#63b8ff" stroke="#63b8ff" points="550.29,-635.49 560.63,-637.84 554.01,-629.56 550.29,-635.49"/>
</a>
</g>
</g>
<!-- Node14&#45;&gt;Node7 -->
<g id="edge31_Node000014_Node000007" class="edge">
<title>Node14&#45;&gt;Node7</title>
<g id="a_edge31_Node000014_Node000007"><a xlink:title=" ">
<path fill="none" stroke="#63b8ff" d="M239.05,-433.14C253.86,-455.31 293.85,-513.19 334.67,-555 349.45,-570.14 368.17,-585.16 382.34,-595.84"/>
<polygon fill="#63b8ff" stroke="#63b8ff" points="380.37,-598.74 390.49,-601.88 384.54,-593.11 380.37,-598.74"/>
</a>
</g>
</g>
<!-- Node14&#45;&gt;Node9 -->
<g id="edge33_Node000014_Node000009" class="edge">
<title>Node14&#45;&gt;Node9</title>
<g id="a_edge33_Node000014_Node000009"><a xlink:title=" ">
<path fill="none" stroke="#63b8ff" d="M286.92,-414.96C291.3,-412.6 295.32,-409.66 298.67,-406 358.82,-340.39 266.31,-266 334.67,-209 382.26,-169.32 424.65,-171.64 474.09,-209 531.22,-252.17 566.03,-485.29 575.23,-554.57"/>
<polygon fill="#63b8ff" stroke="#63b8ff" points="571.81,-555.42 576.56,-564.88 578.75,-554.52 571.81,-555.42"/>
</a>
</g>
</g>
<!-- Node15 -->
<g id="Node000015" class="node">
<title>Node15</title>
<g id="a_Node000015"><a xlink:href="namespaceepub_1_1xml.html#a963274c442c95b1fc19777e4b465affc" target="_top" xlink:title=" ">
<polygon fill="white" stroke="#666666" points="471.78,-354 336.98,-354 336.98,-336 471.78,-336 471.78,-354"/>
<text text-anchor="middle" x="404.38" y="-342" font-family="Helvetica,sans-Serif" font-size="10.00">epub::xml::add_refinement</text>
</a>
</g>
</g>
<!-- Node14&#45;&gt;Node15 -->
<g id="edge16_Node000014_Node000015" class="edge">
<title>Node14&#45;&gt;Node15</title>
<g id="a_edge16_Node000014_Node000015"><a xlink:title=" ">
<path fill="none" stroke="#63b8ff" d="M278.85,-414.91C285.76,-412.57 292.59,-409.65 298.67,-406 318.63,-394.04 315.06,-380.51 334.67,-368 341.09,-363.91 348.31,-360.47 355.6,-357.59"/>
<polygon fill="#63b8ff" stroke="#63b8ff" points="357.28,-360.71 365.51,-354.02 354.91,-354.12 357.28,-360.71"/>
</a>
</g>
</g>
<!-- Node16 -->
<g id="Node000016" class="node">
<title>Node16</title>
<g id="a_Node000016"><a xlink:href="classepub_1_1metadata.html#ad2453246d1fcc9985ae3584f8c0bba54" target="_top" xlink:title=" ">
<polygon fill="white" stroke="#666666" points="473.12,-54 335.64,-54 335.64,-36 473.12,-36 473.12,-54"/>
<text text-anchor="middle" x="404.38" y="-42" font-family="Helvetica,sans-Serif" font-size="10.00">epub::metadata::collections</text>
</a>
</g>
</g>
<!-- Node14&#45;&gt;Node16 -->
<g id="edge19_Node000014_Node000016" class="edge">
<title>Node14&#45;&gt;Node16</title>
<g id="a_edge19_Node000014_Node000016"><a xlink:title=" ">
<path fill="none" stroke="#63b8ff" d="M287.83,-414.88C291.91,-412.52 295.61,-409.6 298.67,-406 397.87,-289.15 234.81,-179.29 334.67,-63 335.56,-61.97 336.49,-61 337.46,-60.08"/>
<polygon fill="#63b8ff" stroke="#63b8ff" points="339.74,-62.75 345.73,-54.01 335.6,-57.11 339.74,-62.75"/>
</a>
</g>
</g>
<!-- Node17 -->
<g id="Node000017" class="node">
<title>Node17</title>
<g id="a_Node000017"><a xlink:href="classepub_1_1metadata.html#a23875082af22027fce800a2ab4aaa4ed" target="_top" xlink:title=" ">
<polygon fill="white" stroke="#666666" points="468.06,-18 340.7,-18 340.7,0 468.06,0 468.06,-18"/>
<text text-anchor="middle" x="404.38" y="-6" font-family="Helvetica,sans-Serif" font-size="10.00">epub::metadata::creators</text>
</a>
</g>
</g>
<!-- Node14&#45;&gt;Node17 -->
<g id="edge20_Node000014_Node000017" class="edge">
<title>Node14&#45;&gt;Node17</title>
<g id="a_edge20_Node000014_Node000017"><a xlink:title=" ">
<path fill="none" stroke="#63b8ff" d="M287.87,-414.91C291.94,-412.55 295.63,-409.62 298.67,-406 353.11,-341.23 279.87,-91.45 334.67,-27 335.43,-26.11 336.23,-25.26 337.06,-24.45"/>
<polygon fill="#63b8ff" stroke="#63b8ff" points="339.5,-26.99 345.37,-18.16 335.28,-21.4 339.5,-26.99"/>
</a>
</g>
</g>
<!-- Node18 -->
<g id="Node000018" class="node">
<title>Node18</title>
<g id="a_Node000018"><a xlink:href="classepub_1_1metadata.html#ad7b872f750378380d517ad908a8795ea" target="_top" xlink:title=" ">
<polygon fill="white" stroke="#666666" points="474.29,-546 334.47,-546 334.47,-528 474.29,-528 474.29,-546"/>
<text text-anchor="middle" x="404.38" y="-534" font-family="Helvetica,sans-Serif" font-size="10.00">epub::metadata::description</text>
</a>
</g>
</g>
<!-- Node14&#45;&gt;Node18 -->
<g id="edge21_Node000014_Node000018" class="edge">
<title>Node14&#45;&gt;Node18</title>
<g id="a_edge21_Node000014_Node000018"><a xlink:title=" ">
<path fill="none" stroke="#63b8ff" d="M240.1,-433.15C255.28,-452.15 293.01,-496.02 334.67,-519 338.38,-521.04 342.33,-522.86 346.38,-524.48"/>
<polygon fill="#63b8ff" stroke="#63b8ff" points="345.39,-527.84 355.98,-527.9 347.74,-521.25 345.39,-527.84"/>
</a>
</g>
</g>
<!-- Node19 -->
<g id="Node000019" class="node">
<title>Node19</title>
<g id="a_Node000019"><a xlink:href="classepub_1_1creator.html#ad36a867ec5e64f24b7dee7c5b34b9b0b" target="_top" xlink:title=" ">
<polygon fill="white" stroke="#666666" points="459.27,-510 349.49,-510 349.49,-492 459.27,-492 459.27,-510"/>
<text text-anchor="middle" x="404.38" y="-498" font-family="Helvetica,sans-Serif" font-size="10.00">epub::creator::file_as</text>
</a>
</g>
</g>
<!-- Node14&#45;&gt;Node19 -->
<g id="edge22_Node000014_Node000019" class="edge">
<title>Node14&#45;&gt;Node19</title>
<g id="a_edge22_Node000014_Node000019"><a xlink:title=" ">
<path fill="none" stroke="#63b8ff" d="M245.92,-433.02C264.67,-445.78 300.91,-469.08 334.67,-483 340.08,-485.23 345.84,-487.25 351.63,-489.06"/>
<polygon fill="#63b8ff" stroke="#63b8ff" points="350.79,-492.46 361.37,-491.92 352.76,-485.74 350.79,-492.46"/>
</a>
</g>
</g>
<!-- Node20 -->
<g id="Node000020" class="node">
<title>Node20</title>
<g id="a_Node000020"><a xlink:href="namespaceepub.html#a066b00e6e19cee9ebbb898c4182c0ad0" target="_top" xlink:title="Generate a XML ID.">
<polygon fill="white" stroke="#666666" points="452.51,-474 356.25,-474 356.25,-456 452.51,-456 452.51,-474"/>
<text text-anchor="middle" x="404.38" y="-462" font-family="Helvetica,sans-Serif" font-size="10.00">epub::generate_id</text>
</a>
</g>
</g>
<!-- Node14&#45;&gt;Node20 -->
<g id="edge23_Node000014_Node000020" class="edge">
<title>Node14&#45;&gt;Node20</title>
<g id="a_edge23_Node000014_Node000020"><a xlink:title=" ">
<path fill="none" stroke="#63b8ff" d="M270.84,-433.1C295.96,-439.14 329.13,-447.13 356.01,-453.6"/>
<polygon fill="#63b8ff" stroke="#63b8ff" points="355.43,-457.06 365.97,-456 357.07,-450.25 355.43,-457.06"/>
</a>
</g>
</g>
<!-- Node21 -->
<g id="Node000021" class="node">
<title>Node21</title>
<g id="a_Node000021"><a xlink:href="classepub_1_1collection.html#a084ea9195f55d6fb36881731534895b0" target="_top" xlink:title=" ">
<polygon fill="white" stroke="#666666" points="462.51,-438 346.25,-438 346.25,-410 462.51,-410 462.51,-438"/>
<text text-anchor="start" x="354.07" y="-426" font-family="Helvetica,sans-Serif" font-size="10.00">epub::collection::group</text>
<text text-anchor="middle" x="404.38" y="-416" font-family="Helvetica,sans-Serif" font-size="10.00">_position</text>
</a>
</g>
</g>
<!-- Node14&#45;&gt;Node21 -->
<g id="edge24_Node000014_Node000021" class="edge">
<title>Node14&#45;&gt;Node21</title>
<g id="a_edge24_Node000014_Node000021"><a xlink:title=" ">
<path fill="none" stroke="#63b8ff" d="M298.89,-424C311.04,-424 323.73,-424 335.92,-424"/>
<polygon fill="#63b8ff" stroke="#63b8ff" points="336.01,-427.5 346.01,-424 336.01,-420.5 336.01,-427.5"/>
</a>
</g>
</g>
<!-- Node22 -->
<g id="Node000022" class="node">
<title>Node22</title>
<g id="a_Node000022"><a xlink:href="classepub_1_1metadata.html#a38fcb86cf8befa51ab4f54cdd07b2373" target="_top" xlink:title=" ">
<polygon fill="white" stroke="#666666" points="468.73,-318 340.03,-318 340.03,-300 468.73,-300 468.73,-318"/>
<text text-anchor="middle" x="404.38" y="-306" font-family="Helvetica,sans-Serif" font-size="10.00">epub::metadata::identifier</text>
</a>
</g>
</g>
<!-- Node14&#45;&gt;Node22 -->
<g id="edge25_Node000014_Node000022" class="edge">
<title>Node14&#45;&gt;Node22</title>
<g id="a_edge25_Node000014_Node000022"><a xlink:title=" ">
<path fill="none" stroke="#63b8ff" d="M284.06,-414.94C289.35,-412.61 294.36,-409.68 298.67,-406 328.05,-380.98 305.16,-351.85 334.67,-327 336.44,-325.52 338.31,-324.15 340.26,-322.9"/>
<polygon fill="#63b8ff" stroke="#63b8ff" points="342.11,-325.88 349.29,-318.09 338.82,-319.7 342.11,-325.88"/>
</a>
</g>
</g>
<!-- Node23 -->
<g id="Node000023" class="node">
<title>Node23</title>
<g id="a_Node000023"><a xlink:href="classepub_1_1metadata.html#a3f919d886be8df3c5a587d8eb5a6d57e" target="_top" xlink:title=" ">
<polygon fill="white" stroke="#666666" points="470.59,-282 338.17,-282 338.17,-264 470.59,-264 470.59,-282"/>
<text text-anchor="middle" x="404.38" y="-270" font-family="Helvetica,sans-Serif" font-size="10.00">epub::metadata::language</text>
</a>
</g>
</g>
<!-- Node14&#45;&gt;Node23 -->
<g id="edge26_Node000014_Node000023" class="edge">
<title>Node14&#45;&gt;Node23</title>
<g id="a_edge26_Node000014_Node000023"><a xlink:title=" ">
<path fill="none" stroke="#63b8ff" d="M285.5,-415C290.34,-412.64 294.85,-409.69 298.67,-406 337.21,-368.81 295.92,-327.97 334.67,-291 335.99,-289.74 337.39,-288.57 338.85,-287.48"/>
<polygon fill="#63b8ff" stroke="#63b8ff" points="341.07,-290.22 347.81,-282.05 337.44,-284.24 341.07,-290.22"/>
</a>
</g>
</g>
<!-- Node24 -->
<g id="Node000024" class="node">
<title>Node24</title>
<g id="a_Node000024"><a xlink:href="classepub_1_1metadata.html#ae6b011a147727244c2f831b26976c4a8" target="_top" xlink:title="The rendition layout type.">
<polygon fill="white" stroke="#666666" points="463.12,-90 345.64,-90 345.64,-72 463.12,-72 463.12,-90"/>
<text text-anchor="middle" x="404.38" y="-78" font-family="Helvetica,sans-Serif" font-size="10.00">epub::metadata::layout</text>
</a>
</g>
</g>
<!-- Node14&#45;&gt;Node24 -->
<g id="edge27_Node000014_Node000024" class="edge">
<title>Node14&#45;&gt;Node24</title>
<g id="a_edge27_Node000014_Node000024"><a xlink:title=" ">
<path fill="none" stroke="#63b8ff" d="M287.79,-414.84C291.87,-412.49 295.59,-409.58 298.67,-406 388.22,-301.81 244.54,-202.68 334.67,-99 335.56,-97.98 336.5,-97.01 337.48,-96.1"/>
<polygon fill="#63b8ff" stroke="#63b8ff" points="339.76,-98.77 345.77,-90.05 335.63,-93.12 339.76,-98.77"/>
</a>
</g>
</g>
<!-- Node26 -->
<g id="Node000026" class="node">
<title>Node26</title>
<g id="a_Node000026"><a xlink:href="namespaceepub_1_1xml.html#a7c857584a6750e33bf5ccc29f4faf805" target="_top" xlink:title=" ">
<polygon fill="white" stroke="#666666" points="461.16,-246 347.6,-246 347.6,-218 461.16,-218 461.16,-246"/>
<text text-anchor="start" x="355.74" y="-234" font-family="Helvetica,sans-Serif" font-size="10.00">epub::xml::new_cdata</text>
<text text-anchor="middle" x="404.38" y="-224" font-family="Helvetica,sans-Serif" font-size="10.00">_child</text>
</a>
</g>
</g>
<!-- Node14&#45;&gt;Node26 -->
<g id="edge29_Node000014_Node000026" class="edge">
<title>Node14&#45;&gt;Node26</title>
<g id="a_edge29_Node000014_Node000026"><a xlink:title=" ">
<path fill="none" stroke="#63b8ff" d="M286.4,-414.94C290.94,-412.59 295.14,-409.65 298.67,-406 346.63,-356.4 288.11,-305.91 334.67,-255 336.04,-253.5 337.51,-252.1 339.06,-250.8"/>
<polygon fill="#63b8ff" stroke="#63b8ff" points="341.21,-253.57 347.42,-244.98 337.21,-247.82 341.21,-253.57"/>
</a>
</g>
</g>
<!-- Node27 -->
<g id="Node000027" class="node">
<title>Node27</title>
<g id="a_Node000027"><a xlink:href="classepub_1_1creator.html#a2f09ed65b27b1722c0599a1c95b2ecf9" target="_top" xlink:title=" ">
<polygon fill="white" stroke="#666666" points="453.04,-162 355.72,-162 355.72,-144 453.04,-144 453.04,-162"/>
<text text-anchor="middle" x="404.38" y="-150" font-family="Helvetica,sans-Serif" font-size="10.00">epub::creator::role</text>
</a>
</g>
</g>
<!-- Node14&#45;&gt;Node27 -->
<g id="edge32_Node000014_Node000027" class="edge">
<title>Node14&#45;&gt;Node27</title>
<g id="a_edge32_Node000014_Node000027"><a xlink:title=" ">
<path fill="none" stroke="#63b8ff" d="M287.33,-414.88C291.57,-412.53 295.45,-409.61 298.67,-406 367.61,-328.84 267.9,-255.03 334.67,-176 338.04,-172.02 342.11,-168.72 346.58,-166"/>
<polygon fill="#63b8ff" stroke="#63b8ff" points="348.25,-169.08 355.57,-161.42 345.07,-162.84 348.25,-169.08"/>
</a>
</g>
</g>
<!-- Node28 -->
<g id="Node000028" class="node">
<title>Node28</title>
<g id="a_Node000028"><a xlink:href="classepub_1_1metadata.html#a14926d8532fc0e692507fe9fa4964d9f" target="_top" xlink:title=" ">
<polygon fill="white" stroke="#666666" points="457.5,-126 351.26,-126 351.26,-108 457.5,-108 457.5,-126"/>
<text text-anchor="middle" x="404.38" y="-114" font-family="Helvetica,sans-Serif" font-size="10.00">epub::metadata::title</text>
</a>
</g>
</g>
<!-- Node14&#45;&gt;Node28 -->
<g id="edge34_Node000014_Node000028" class="edge">
<title>Node14&#45;&gt;Node28</title>
<g id="a_edge34_Node000014_Node000028"><a xlink:title=" ">
<path fill="none" stroke="#63b8ff" d="M287.42,-414.96C291.64,-412.59 295.49,-409.65 298.67,-406 378.57,-314.46 254.25,-226.08 334.67,-135 336.92,-132.46 339.47,-130.25 342.25,-128.35"/>
<polygon fill="#63b8ff" stroke="#63b8ff" points="344.05,-131.35 351.13,-123.46 340.68,-125.21 344.05,-131.35"/>
</a>
</g>
</g>
<!-- Node15&#45;&gt;Node4 -->
<g id="edge17_Node000015_Node000004" class="edge">
<title>Node15&#45;&gt;Node4</title>
<g id="a_edge17_Node000015_Node000004"><a xlink:title=" ">
<path fill="none" stroke="#63b8ff" d="M454.56,-354.05C461.98,-357.35 468.88,-361.86 474.09,-368 539.32,-444.89 459.67,-504.67 510.09,-592 519.92,-609.04 537.2,-622.95 551.83,-632.53"/>
<polygon fill="#63b8ff" stroke="#63b8ff" points="550.16,-635.61 560.5,-637.92 553.85,-629.67 550.16,-635.61"/>
</a>
</g>
</g>
<!-- Node15&#45;&gt;Node9 -->
<g id="edge18_Node000015_Node000009" class="edge">
<title>Node15&#45;&gt;Node9</title>
<g id="a_edge18_Node000015_Node000009"><a xlink:title=" ">
<path fill="none" stroke="#63b8ff" d="M449.52,-354.1C458.34,-357.41 467.05,-361.9 474.09,-368 533.82,-419.75 563.04,-514.21 573.28,-554.72"/>
<polygon fill="#63b8ff" stroke="#63b8ff" points="569.92,-555.73 575.67,-564.63 576.73,-554.09 569.92,-555.73"/>
</a>
</g>
</g>
<!-- Node25 -->
<g id="Node000025" class="node">
<title>Node25</title>
<g id="a_Node000025"><a xlink:href="classepub_1_1metadata.html#aa104934854caf6b8b77930f1a46640e0" target="_top" xlink:title="Select the rendition layout controlling reflow.">
<polygon fill="white" stroke="#666666" points="631.19,-95 526.17,-95 526.17,-67 631.19,-67 631.19,-95"/>
<text text-anchor="start" x="533.93" y="-83" font-family="Helvetica,sans-Serif" font-size="10.00">epub::metadata::pre</text>
<text text-anchor="middle" x="578.68" y="-73" font-family="Helvetica,sans-Serif" font-size="10.00">_paginated</text>
</a>
</g>
</g>
<!-- Node24&#45;&gt;Node25 -->
<g id="edge28_Node000024_Node000025" class="edge">
<title>Node24&#45;&gt;Node25</title>
<g id="a_edge28_Node000024_Node000025"><a xlink:title=" ">
<path fill="none" stroke="#63b8ff" d="M463.23,-81C480.07,-81 498.54,-81 515.62,-81"/>
<polygon fill="#63b8ff" stroke="#63b8ff" points="516.06,-84.5 526.06,-81 516.06,-77.5 516.06,-84.5"/>
</a>
</g>
</g>
<!-- Node29&#45;&gt;Node4 -->
<g id="edge36_Node000029_Node000004" class="edge">
<title>Node29&#45;&gt;Node4</title>
<g id="a_edge36_Node000029_Node000004"><a xlink:title=" ">
<path fill="none" stroke="#63b8ff" d="M462.28,-647C474.34,-647 487.28,-647 499.97,-647"/>
<polygon fill="#63b8ff" stroke="#63b8ff" points="500.07,-650.5 510.07,-647 500.07,-643.5 500.07,-650.5"/>
</a>
</g>
</g>
<!-- Node29&#45;&gt;Node9 -->
<g id="edge37_Node000029_Node000009" class="edge">
<title>Node29&#45;&gt;Node9</title>
<g id="a_edge37_Node000029_Node000009"><a xlink:title=" ">
<path fill="none" stroke="#63b8ff" d="M446.21,-637.97C455.5,-635.46 465.24,-632.45 474.09,-629 502.87,-617.76 533.94,-600.52 554.46,-588.34"/>
<polygon fill="#63b8ff" stroke="#63b8ff" points="556.34,-591.3 563.1,-583.14 552.73,-585.3 556.34,-591.3"/>
</a>
</g>
</g>
</g>
</svg>
