<?xml version="1.0" encoding="UTF-8" standalone="no"?>
<!DOCTYPE svg PUBLIC "-//W3C//DTD SVG 1.1//EN"
 "http://www.w3.org/Graphics/SVG/1.1/DTD/svg11.dtd">
<!-- Generated by graphviz version 2.48.0 (20210717.1556)
 -->
<!-- Title: epub::xml::add_refinement Pages: 1 -->
<svg width="316pt" height="62pt"
 viewBox="0.00 0.00 315.59 62.00" xmlns="http://www.w3.org/2000/svg" xmlns:xlink="http://www.w3.org/1999/xlink">
<g id="graph0" class="graph" transform="scale(1 1) rotate(0) translate(4 58)">
<title>epub::xml::add_refinement</title>
<!-- Node1 -->
<g id="Node000001" class="node">
<title>Node1</title>
<g id="a_Node000001"><a xlink:title=" ">
<polygon fill="#999999" stroke="#666666" points="134.61,-36 -0.2,-36 -0.2,-18 134.61,-18 134.61,-36"/>
<text text-anchor="middle" x="67.2" y="-24" font-family="Helvetica,sans-Serif" font-size="10.00">epub::xml::add_refinement</text>
</a>
</g>
</g>
<!-- Node2 -->
<g id="Node000002" class="node">
<title>Node2</title>
<g id="a_Node000002"><a xlink:href="namespaceepub_1_1xml.html#aa7f3a8aea8e7def07ed8fe9719aaae2b" target="_top" xlink:title=" ">
<polygon fill="white" stroke="#666666" points="307.69,-54 170.31,-54 170.31,-36 307.69,-36 307.69,-54"/>
<text text-anchor="middle" x="239" y="-42" font-family="Helvetica,sans-Serif" font-size="10.00">epub::xml::new_child_node</text>
</a>
</g>
</g>
<!-- Node1&#45;&gt;Node2 -->
<g id="edge1_Node000001_Node000002" class="edge">
<title>Node1&#45;&gt;Node2</title>
<g id="a_edge1_Node000001_Node000002"><a xlink:title=" ">
<path fill="none" stroke="#63b8ff" d="M134.82,-34.06C143.08,-34.94 151.58,-35.84 159.99,-36.73"/>
<polygon fill="#63b8ff" stroke="#63b8ff" points="159.86,-40.24 170.17,-37.81 160.6,-33.28 159.86,-40.24"/>
</a>
</g>
</g>
<!-- Node3 -->
<g id="Node000003" class="node">
<title>Node3</title>
<g id="a_Node000003"><a xlink:href="namespaceepub_1_1xml.html#a2e514ea095933964359b229c04117a9b" target="_top" xlink:title=" ">
<polygon fill="white" stroke="#666666" points="298.94,-18 179.05,-18 179.05,0 298.94,0 298.94,-18"/>
<text text-anchor="middle" x="239" y="-6" font-family="Helvetica,sans-Serif" font-size="10.00">epub::xml::set_attribute</text>
</a>
</g>
</g>
<!-- Node1&#45;&gt;Node3 -->
<g id="edge2_Node000001_Node000003" class="edge">
<title>Node1&#45;&gt;Node3</title>
<g id="a_edge2_Node000001_Node000003"><a xlink:title=" ">
<path fill="none" stroke="#63b8ff" d="M134.82,-19.94C145.99,-18.75 157.6,-17.52 168.83,-16.33"/>
<polygon fill="#63b8ff" stroke="#63b8ff" points="169.44,-19.79 179.02,-15.25 168.7,-12.83 169.44,-19.79"/>
</a>
</g>
</g>
</g>
</svg>
