<?xml version="1.0" encoding="UTF-8" standalone="no"?>
<!DOCTYPE svg PUBLIC "-//W3C//DTD SVG 1.1//EN"
 "http://www.w3.org/Graphics/SVG/1.1/DTD/svg11.dtd">
<!-- Generated by graphviz version 2.48.0 (20210717.1556)
 -->
<!-- Title: epub::xml::get_xhtml_metadata Pages: 1 -->
<svg width="463pt" height="180pt"
 viewBox="0.00 0.00 463.18 180.00" xmlns="http://www.w3.org/2000/svg" xmlns:xlink="http://www.w3.org/1999/xlink">
<g id="graph0" class="graph" transform="scale(1 1) rotate(0) translate(4 176)">
<title>epub::xml::get_xhtml_metadata</title>
<!-- Node1 -->
<g id="Node000001" class="node">
<title>Node1</title>
<g id="a_Node000001"><a xlink:title=" ">
<polygon fill="#999999" stroke="#666666" points="108.4,-100 -0.13,-100 -0.13,-72 108.4,-72 108.4,-100"/>
<text text-anchor="start" x="8" y="-88" font-family="Helvetica,sans-Serif" font-size="10.00">epub::xml::get_xhtml</text>
<text text-anchor="middle" x="54.13" y="-78" font-family="Helvetica,sans-Serif" font-size="10.00">_metadata</text>
</a>
</g>
</g>
<!-- Node2 -->
<g id="Node000002" class="node">
<title>Node2</title>
<g id="a_Node000002"><a xlink:href="namespaceepub_1_1xml_1_1xpath.html#a3ddb6b7c8b6f479466d5f5e6744ba73f" target="_top" xlink:title=" ">
<polygon fill="white" stroke="#666666" points="273.24,-172 159.69,-172 159.69,-154 273.24,-154 273.24,-172"/>
<text text-anchor="middle" x="216.46" y="-160" font-family="Helvetica,sans-Serif" font-size="10.00">epub::xml::xpath::eval</text>
</a>
</g>
</g>
<!-- Node1&#45;&gt;Node2 -->
<g id="edge1_Node000001_Node000002" class="edge">
<title>Node1&#45;&gt;Node2</title>
<g id="a_edge1_Node000001_Node000002"><a xlink:title=" ">
<path fill="none" stroke="#63b8ff" d="M72.53,-100.11C89.78,-113.45 117.45,-133.15 144.27,-145 149.29,-147.22 154.65,-149.21 160.08,-150.97"/>
<polygon fill="#63b8ff" stroke="#63b8ff" points="159.29,-154.39 169.88,-153.91 161.3,-147.68 159.29,-154.39"/>
</a>
</g>
</g>
<!-- Node4 -->
<g id="Node000004" class="node">
<title>Node4</title>
<g id="a_Node000004"><a xlink:href="namespaceepub_1_1xml.html#adb9b3025131fbd5e1dda00e726b90a2e" target="_top" xlink:title=" ">
<polygon fill="white" stroke="#666666" points="276.47,-136 156.46,-136 156.46,-118 276.47,-118 276.47,-136"/>
<text text-anchor="middle" x="216.46" y="-124" font-family="Helvetica,sans-Serif" font-size="10.00">epub::xml::get_attribute</text>
</a>
</g>
</g>
<!-- Node1&#45;&gt;Node4 -->
<g id="edge3_Node000001_Node000004" class="edge">
<title>Node1&#45;&gt;Node4</title>
<g id="a_edge3_Node000001_Node000004"><a xlink:title=" ">
<path fill="none" stroke="#63b8ff" d="M108.38,-99.79C120.19,-102.83 132.65,-106.03 144.27,-109 152.52,-111.11 161.32,-113.34 169.82,-115.5"/>
<polygon fill="#63b8ff" stroke="#63b8ff" points="169.05,-118.91 179.6,-117.97 170.76,-112.12 169.05,-118.91"/>
</a>
</g>
</g>
<!-- Node5 -->
<g id="Node000005" class="node">
<title>Node5</title>
<g id="a_Node000005"><a xlink:href="namespaceepub_1_1xml_1_1xpath.html#a744d92700f8fe704d7c4171125ffb50e" target="_top" xlink:title=" ">
<polygon fill="white" stroke="#666666" points="273.24,-100 159.69,-100 159.69,-72 273.24,-72 273.24,-100"/>
<text text-anchor="start" x="167.83" y="-88" font-family="Helvetica,sans-Serif" font-size="10.00">epub::xml::xpath::new</text>
<text text-anchor="middle" x="216.46" y="-78" font-family="Helvetica,sans-Serif" font-size="10.00">_context</text>
</a>
</g>
</g>
<!-- Node1&#45;&gt;Node5 -->
<g id="edge4_Node000001_Node000005" class="edge">
<title>Node1&#45;&gt;Node5</title>
<g id="a_edge4_Node000001_Node000005"><a xlink:title=" ">
<path fill="none" stroke="#63b8ff" d="M108.52,-86C121.59,-86 135.73,-86 149.31,-86"/>
<polygon fill="#63b8ff" stroke="#63b8ff" points="149.56,-89.5 159.56,-86 149.56,-82.5 149.56,-89.5"/>
</a>
</g>
</g>
<!-- Node6 -->
<g id="Node000006" class="node">
<title>Node6</title>
<g id="a_Node000006"><a xlink:href="namespaceepub_1_1xml.html#aaf0bffb7886a36821341a97094892086" target="_top" xlink:title=" ">
<polygon fill="white" stroke="#666666" points="268.24,-54 164.69,-54 164.69,-36 268.24,-36 268.24,-54"/>
<text text-anchor="middle" x="216.46" y="-42" font-family="Helvetica,sans-Serif" font-size="10.00">epub::xml::read_file</text>
</a>
</g>
</g>
<!-- Node1&#45;&gt;Node6 -->
<g id="edge5_Node000001_Node000006" class="edge">
<title>Node1&#45;&gt;Node6</title>
<g id="a_edge5_Node000001_Node000006"><a xlink:title=" ">
<path fill="none" stroke="#63b8ff" d="M108.38,-72.21C120.19,-69.17 132.65,-65.97 144.27,-63 152.52,-60.89 161.32,-58.66 169.82,-56.5"/>
<polygon fill="#63b8ff" stroke="#63b8ff" points="170.76,-59.88 179.6,-54.03 169.05,-53.09 170.76,-59.88"/>
</a>
</g>
</g>
<!-- Node7 -->
<g id="Node000007" class="node">
<title>Node7</title>
<g id="a_Node000007"><a xlink:href="namespaceepub_1_1xml_1_1xpath.html#a543037a98da24d06682a680af1173d70" target="_top" xlink:title=" ">
<polygon fill="white" stroke="#666666" points="288.86,-18 144.07,-18 144.07,0 288.86,0 288.86,-18"/>
<text text-anchor="middle" x="216.46" y="-6" font-family="Helvetica,sans-Serif" font-size="10.00">epub::xml::xpath::register_ns</text>
</a>
</g>
</g>
<!-- Node1&#45;&gt;Node7 -->
<g id="edge6_Node000001_Node000007" class="edge">
<title>Node1&#45;&gt;Node7</title>
<g id="a_edge6_Node000001_Node000007"><a xlink:title=" ">
<path fill="none" stroke="#63b8ff" d="M72.53,-71.89C89.78,-58.55 117.45,-38.85 144.27,-27 149.29,-24.78 154.65,-22.79 160.08,-21.03"/>
<polygon fill="#63b8ff" stroke="#63b8ff" points="161.3,-24.32 169.88,-18.09 159.29,-17.61 161.3,-24.32"/>
</a>
</g>
</g>
<!-- Node3 -->
<g id="Node000003" class="node">
<title>Node3</title>
<g id="a_Node000003"><a xlink:href="namespaceepub_1_1xml_1_1xpath.html#aa18238d88cd31a713575de9b3e3892a1" target="_top" xlink:title=" ">
<polygon fill="white" stroke="#666666" points="454.94,-172 324.9,-172 324.9,-154 454.94,-154 454.94,-172"/>
<text text-anchor="middle" x="389.92" y="-160" font-family="Helvetica,sans-Serif" font-size="10.00">epub::xml::xpath::nodeset</text>
</a>
</g>
</g>
<!-- Node2&#45;&gt;Node3 -->
<g id="edge2_Node000002_Node000003" class="edge">
<title>Node2&#45;&gt;Node3</title>
<g id="a_edge2_Node000002_Node000003"><a xlink:title=" ">
<path fill="none" stroke="#63b8ff" d="M273.13,-163C286.43,-163 300.83,-163 314.81,-163"/>
<polygon fill="#63b8ff" stroke="#63b8ff" points="314.9,-166.5 324.9,-163 314.9,-159.5 314.9,-166.5"/>
</a>
</g>
</g>
</g>
</svg>
