<?xml version="1.0" encoding="UTF-8" standalone="no"?>
<!DOCTYPE svg PUBLIC "-//W3C//DTD SVG 1.1//EN"
 "http://www.w3.org/Graphics/SVG/1.1/DTD/svg11.dtd">
<!-- Generated by graphviz version 2.48.0 (20210717.1556)
 -->
<!-- Title: epub::xml::write_container Pages: 1 -->
<svg width="832pt" height="1076pt"
 viewBox="0.00 0.00 831.79 1076.33" xmlns="http://www.w3.org/2000/svg" xmlns:xlink="http://www.w3.org/1999/xlink">
<g id="graph0" class="graph" transform="scale(1 1) rotate(0) translate(4 1072.33)">
<title>epub::xml::write_container</title>
<!-- Node1 -->
<g id="Node000001" class="node">
<title>Node1</title>
<g id="a_Node000001"><a xlink:title=" ">
<polygon fill="#999999" stroke="#666666" points="132.59,-316 0.14,-316 0.14,-298 132.59,-298 132.59,-316"/>
<text text-anchor="middle" x="66.36" y="-304" font-family="Helvetica,sans-Serif" font-size="10.00">epub::xml::write_container</text>
</a>
</g>
</g>
<!-- Node2 -->
<g id="Node000002" class="node">
<title>Node2</title>
<g id="a_Node000002"><a xlink:href="classepub_1_1container.html#a26ba1accaabd175c32cd8f90a0ca6b7c" target="_top" xlink:title="The navigation document.">
<polygon fill="white" stroke="#666666" points="305.4,-795 169.22,-795 169.22,-777 305.4,-777 305.4,-795"/>
<text text-anchor="middle" x="237.31" y="-783" font-family="Helvetica,sans-Serif" font-size="10.00">epub::container::navigation</text>
</a>
</g>
</g>
<!-- Node1&#45;&gt;Node2 -->
<g id="edge1_Node000001_Node000002" class="edge">
<title>Node1&#45;&gt;Node2</title>
<g id="a_edge1_Node000001_Node000002"><a xlink:title=" ">
<path fill="none" stroke="#63b8ff" d="M70.59,-316.14C90.89,-373.71 201.12,-686.23 229.6,-766.96"/>
<polygon fill="#63b8ff" stroke="#63b8ff" points="226.43,-768.5 233.05,-776.76 233.03,-766.17 226.43,-768.5"/>
</a>
</g>
</g>
<!-- Node4 -->
<g id="Node000004" class="node">
<title>Node4</title>
<g id="a_Node000004"><a xlink:href="namespaceepub_1_1xml.html#aa7f3a8aea8e7def07ed8fe9719aaae2b" target="_top" xlink:title=" ">
<polygon fill="white" stroke="#666666" points="823.88,-960 686.5,-960 686.5,-942 823.88,-942 823.88,-960"/>
<text text-anchor="middle" x="755.19" y="-948" font-family="Helvetica,sans-Serif" font-size="10.00">epub::xml::new_child_node</text>
</a>
</g>
</g>
<!-- Node1&#45;&gt;Node4 -->
<g id="edge3_Node000001_Node000004" class="edge">
<title>Node1&#45;&gt;Node4</title>
<g id="a_edge3_Node000001_Node000004"><a xlink:title=" ">
<path fill="none" stroke="#63b8ff" d="M67.81,-316.25C70.58,-367.33 87.95,-619.23 168.72,-804 221.56,-924.85 224.54,-984.81 341.9,-1045 479.19,-1115.41 668.93,-1006.86 732.47,-965.73"/>
<polygon fill="#63b8ff" stroke="#63b8ff" points="734.48,-968.6 740.91,-960.18 730.63,-962.75 734.48,-968.6"/>
</a>
</g>
</g>
<!-- Node5 -->
<g id="Node000005" class="node">
<title>Node5</title>
<g id="a_Node000005"><a xlink:href="namespaceepub_1_1xml.html#aade3eb68257c90e5e2bff8826e31b2ee" target="_top" xlink:title=" ">
<polygon fill="white" stroke="#666666" points="460.98,-444 356.1,-444 356.1,-426 460.98,-426 460.98,-444"/>
<text text-anchor="middle" x="408.54" y="-432" font-family="Helvetica,sans-Serif" font-size="10.00">epub::xml::new_doc</text>
</a>
</g>
</g>
<!-- Node1&#45;&gt;Node5 -->
<g id="edge4_Node000001_Node000005" class="edge">
<title>Node1&#45;&gt;Node5</title>
<g id="a_edge4_Node000001_Node000005"><a xlink:title=" ">
<path fill="none" stroke="#63b8ff" d="M77.5,-316.1C94.89,-331.23 132.08,-361.52 168.72,-378 226.01,-403.76 296.46,-418.75 345.96,-426.84"/>
<polygon fill="#63b8ff" stroke="#63b8ff" points="345.45,-430.3 355.87,-428.41 346.55,-423.39 345.45,-430.3"/>
</a>
</g>
</g>
<!-- Node6 -->
<g id="Node000006" class="node">
<title>Node6</title>
<g id="a_Node000006"><a xlink:href="namespaceepub_1_1xml.html#ab1c1a0b06668a784e601e7c3db4bf717" target="_top" xlink:title=" ">
<polygon fill="white" stroke="#666666" points="464.1,-408 352.98,-408 352.98,-390 464.1,-390 464.1,-408"/>
<text text-anchor="middle" x="408.54" y="-396" font-family="Helvetica,sans-Serif" font-size="10.00">epub::xml::new_node</text>
</a>
</g>
</g>
<!-- Node1&#45;&gt;Node6 -->
<g id="edge5_Node000001_Node000006" class="edge">
<title>Node1&#45;&gt;Node6</title>
<g id="a_edge5_Node000001_Node000006"><a xlink:title=" ">
<path fill="none" stroke="#63b8ff" d="M86.81,-316.05C106.95,-325.14 139.5,-339.04 168.72,-348 226.62,-365.74 294.26,-379.57 342.74,-388.32"/>
<polygon fill="#63b8ff" stroke="#63b8ff" points="342.33,-391.8 352.79,-390.11 343.56,-384.91 342.33,-391.8"/>
</a>
</g>
</g>
<!-- Node7 -->
<g id="Node000007" class="node">
<title>Node7</title>
<g id="a_Node000007"><a xlink:href="namespaceepub_1_1xml.html#a9534079e531f40c861c5f5fb60523655" target="_top" xlink:title=" ">
<polygon fill="white" stroke="#666666" points="630.77,-324 531.01,-324 531.01,-306 630.77,-306 630.77,-324"/>
<text text-anchor="middle" x="580.89" y="-312" font-family="Helvetica,sans-Serif" font-size="10.00">epub::xml::new_ns</text>
</a>
</g>
</g>
<!-- Node1&#45;&gt;Node7 -->
<g id="edge6_Node000001_Node000007" class="edge">
<title>Node1&#45;&gt;Node7</title>
<g id="a_edge6_Node000001_Node000007"><a xlink:title=" ">
<path fill="none" stroke="#63b8ff" d="M71.8,-297.94C83.79,-274.48 119.32,-211.54 168.72,-182 286.3,-111.7 355.23,-82.84 475.18,-149 533.04,-180.91 563.33,-259.74 574.61,-296.09"/>
<polygon fill="#63b8ff" stroke="#63b8ff" points="571.32,-297.31 577.51,-305.91 578.04,-295.32 571.32,-297.31"/>
</a>
</g>
</g>
<!-- Node8 -->
<g id="Node000008" class="node">
<title>Node8</title>
<g id="a_Node000008"><a xlink:href="classepub_1_1container.html#a744c29b0aa74a35021828ba4d7bdb3ce" target="_top" xlink:title="The package document.">
<polygon fill="white" stroke="#666666" points="301.62,-64 173.01,-64 173.01,-46 301.62,-46 301.62,-64"/>
<text text-anchor="middle" x="237.31" y="-52" font-family="Helvetica,sans-Serif" font-size="10.00">epub::container::package</text>
</a>
</g>
</g>
<!-- Node1&#45;&gt;Node8 -->
<g id="edge7_Node000001_Node000008" class="edge">
<title>Node1&#45;&gt;Node8</title>
<g id="a_edge7_Node000001_Node000008"><a xlink:title=" ">
<path fill="none" stroke="#63b8ff" d="M68.78,-297.59C74.46,-263.06 98.8,-141.98 168.72,-78 172.9,-74.18 177.73,-71 182.85,-68.33"/>
<polygon fill="#63b8ff" stroke="#63b8ff" points="184.62,-71.38 192.31,-64.09 181.75,-64.99 184.62,-71.38"/>
</a>
</g>
</g>
<!-- Node9 -->
<g id="Node000009" class="node">
<title>Node9</title>
<g id="a_Node000009"><a xlink:href="namespaceepub_1_1xml.html#ae2081bbf8a83743ac0993dd0631a826f" target="_top" xlink:title=" ">
<polygon fill="white" stroke="#666666" points="460.92,-176 356.16,-176 356.16,-158 460.92,-158 460.92,-176"/>
<text text-anchor="middle" x="408.54" y="-164" font-family="Helvetica,sans-Serif" font-size="10.00">epub::xml::save_file</text>
</a>
</g>
</g>
<!-- Node1&#45;&gt;Node9 -->
<g id="edge8_Node000001_Node000009" class="edge">
<title>Node1&#45;&gt;Node9</title>
<g id="a_edge8_Node000001_Node000009"><a xlink:title=" ">
<path fill="none" stroke="#63b8ff" d="M76.91,-297.99C93.99,-282.33 131.49,-250.05 168.72,-232 225.88,-204.29 296.65,-186.91 346.26,-177.17"/>
<polygon fill="#63b8ff" stroke="#63b8ff" points="347.04,-180.58 356.2,-175.26 345.72,-173.71 347.04,-180.58"/>
</a>
</g>
</g>
<!-- Node10 -->
<g id="Node000010" class="node">
<title>Node10</title>
<g id="a_Node000010"><a xlink:href="namespaceepub_1_1xml.html#a2e514ea095933964359b229c04117a9b" target="_top" xlink:title=" ">
<polygon fill="white" stroke="#666666" points="815.13,-696 695.24,-696 695.24,-678 815.13,-678 815.13,-696"/>
<text text-anchor="middle" x="755.19" y="-684" font-family="Helvetica,sans-Serif" font-size="10.00">epub::xml::set_attribute</text>
</a>
</g>
</g>
<!-- Node1&#45;&gt;Node10 -->
<g id="edge9_Node000001_Node000010" class="edge">
<title>Node1&#45;&gt;Node10</title>
<g id="a_edge9_Node000001_Node000010"><a xlink:title=" ">
<path fill="none" stroke="#63b8ff" d="M68.84,-297.92C74.63,-265.78 98.94,-156.94 168.72,-113 226.36,-76.7 409.76,-88.04 475.18,-107 563.79,-132.68 597.59,-142.49 650.59,-218 653.96,-222.79 731.2,-580.35 750.06,-667.84"/>
<polygon fill="#63b8ff" stroke="#63b8ff" points="746.67,-668.7 752.19,-677.74 753.51,-667.22 746.67,-668.7"/>
</a>
</g>
</g>
<!-- Node11 -->
<g id="Node000011" class="node">
<title>Node11</title>
<g id="a_Node000011"><a xlink:href="namespaceepub_1_1xml.html#a165119af9dcfdf603fda317338dcd8eb" target="_top" xlink:title=" ">
<polygon fill="white" stroke="#666666" points="455.92,-212 361.17,-212 361.17,-194 455.92,-194 455.92,-212"/>
<text text-anchor="middle" x="408.54" y="-200" font-family="Helvetica,sans-Serif" font-size="10.00">epub::xml::set_ns</text>
</a>
</g>
</g>
<!-- Node1&#45;&gt;Node11 -->
<g id="edge10_Node000001_Node000011" class="edge">
<title>Node1&#45;&gt;Node11</title>
<g id="a_edge10_Node000001_Node000011"><a xlink:title=" ">
<path fill="none" stroke="#63b8ff" d="M96.96,-297.95C158.28,-279.21 299.22,-236.11 368.15,-215.04"/>
<polygon fill="#63b8ff" stroke="#63b8ff" points="369.23,-218.37 377.77,-212.1 367.19,-211.68 369.23,-218.37"/>
</a>
</g>
</g>
<!-- Node12 -->
<g id="Node000012" class="node">
<title>Node12</title>
<g id="a_Node000012"><a xlink:href="namespaceepub_1_1xml.html#a8265beb78a012601af7b4efad94a5d24" target="_top" xlink:title=" ">
<polygon fill="white" stroke="#666666" points="459.08,-372 358,-372 358,-344 459.08,-344 459.08,-372"/>
<text text-anchor="start" x="366.02" y="-360" font-family="Helvetica,sans-Serif" font-size="10.00">epub::xml::set_root</text>
<text text-anchor="middle" x="408.54" y="-350" font-family="Helvetica,sans-Serif" font-size="10.00">_element</text>
</a>
</g>
</g>
<!-- Node1&#45;&gt;Node12 -->
<g id="edge11_Node000001_Node000012" class="edge">
<title>Node1&#45;&gt;Node12</title>
<g id="a_edge11_Node000001_Node000012"><a xlink:title=" ">
<path fill="none" stroke="#63b8ff" d="M116.02,-316.03C132.71,-319.03 151.51,-322.28 168.72,-325 229.52,-334.59 299.26,-344.05 347.62,-350.37"/>
<polygon fill="#63b8ff" stroke="#63b8ff" points="347.23,-353.85 357.6,-351.67 348.14,-346.91 347.23,-353.85"/>
</a>
</g>
</g>
<!-- Node13 -->
<g id="Node000013" class="node">
<title>Node13</title>
<g id="a_Node000013"><a xlink:href="classepub_1_1container.html#a33630ae320e3a35034096883bcdaf1d7" target="_top" xlink:title="The stylesheet (if any) to apply to the Table of Contents.">
<polygon fill="white" stroke="#666666" points="289.15,-28 185.47,-28 185.47,0 289.15,0 289.15,-28"/>
<text text-anchor="start" x="193.39" y="-16" font-family="Helvetica,sans-Serif" font-size="10.00">epub::container::toc</text>
<text text-anchor="middle" x="237.31" y="-6" font-family="Helvetica,sans-Serif" font-size="10.00">_stylesheet</text>
</a>
</g>
</g>
<!-- Node1&#45;&gt;Node13 -->
<g id="edge12_Node000001_Node000013" class="edge">
<title>Node1&#45;&gt;Node13</title>
<g id="a_edge12_Node000001_Node000013"><a xlink:title=" ">
<path fill="none" stroke="#63b8ff" d="M68.05,-297.82C71.38,-259.94 89.09,-114.19 168.72,-37 171.13,-34.67 173.77,-32.58 176.59,-30.69"/>
<polygon fill="#63b8ff" stroke="#63b8ff" points="178.49,-33.64 185.45,-25.66 175.03,-27.56 178.49,-33.64"/>
</a>
</g>
</g>
<!-- Node14 -->
<g id="Node000014" class="node">
<title>Node14</title>
<g id="a_Node000014"><a xlink:href="namespaceepub_1_1xml.html#a81f3d8befa9ef4815a18df0e9b7b0193" target="_top" xlink:title=" ">
<polygon fill="white" stroke="#666666" points="305.99,-316 168.64,-316 168.64,-298 305.99,-298 305.99,-316"/>
<text text-anchor="middle" x="237.31" y="-304" font-family="Helvetica,sans-Serif" font-size="10.00">epub::xml::write_navigation</text>
</a>
</g>
</g>
<!-- Node1&#45;&gt;Node14 -->
<g id="edge13_Node000001_Node000014" class="edge">
<title>Node1&#45;&gt;Node14</title>
<g id="a_edge13_Node000001_Node000014"><a xlink:title=" ">
<path fill="none" stroke="#63b8ff" d="M132.68,-307C141.16,-307 149.91,-307 158.56,-307"/>
<polygon fill="#63b8ff" stroke="#63b8ff" points="158.65,-310.5 168.65,-307 158.65,-303.5 158.65,-310.5"/>
</a>
</g>
</g>
<!-- Node15 -->
<g id="Node000015" class="node">
<title>Node15</title>
<g id="a_Node000015"><a xlink:href="namespaceepub_1_1xml.html#a65bb7385eab67a1688e5ab6f6ba2ccd0" target="_top" xlink:title=" ">
<polygon fill="white" stroke="#666666" points="302.21,-518 172.42,-518 172.42,-500 302.21,-500 302.21,-518"/>
<text text-anchor="middle" x="237.31" y="-506" font-family="Helvetica,sans-Serif" font-size="10.00">epub::xml::write_package</text>
</a>
</g>
</g>
<!-- Node1&#45;&gt;Node15 -->
<g id="edge22_Node000001_Node000015" class="edge">
<title>Node1&#45;&gt;Node15</title>
<g id="a_edge22_Node000001_Node000015"><a xlink:title=" ">
<path fill="none" stroke="#63b8ff" d="M72.88,-316.16C87.18,-339.55 127.21,-402.83 168.72,-449 183.49,-465.43 202.46,-481.93 216.54,-493.46"/>
<polygon fill="#63b8ff" stroke="#63b8ff" points="214.61,-496.4 224.59,-499.95 219,-490.95 214.61,-496.4"/>
</a>
</g>
</g>
<!-- Node3 -->
<g id="Node000003" class="node">
<title>Node3</title>
<g id="a_Node000003"><a xlink:href="classepub_1_1package.html#a9161b883051ba7032e7d5e903672e859" target="_top" xlink:title=" ">
<polygon fill="white" stroke="#666666" points="471,-1036 346.08,-1036 346.08,-1018 471,-1018 471,-1036"/>
<text text-anchor="middle" x="408.54" y="-1024" font-family="Helvetica,sans-Serif" font-size="10.00">epub::package::manifest</text>
</a>
</g>
</g>
<!-- Node2&#45;&gt;Node3 -->
<g id="edge2_Node000002_Node000003" class="edge">
<title>Node2&#45;&gt;Node3</title>
<g id="a_edge2_Node000002_Node000003"><a xlink:title=" ">
<path fill="none" stroke="#63b8ff" d="M240.08,-795.4C246.86,-828.84 274.27,-943.22 341.9,-1004 346.27,-1007.93 351.36,-1011.2 356.72,-1013.91"/>
<polygon fill="#63b8ff" stroke="#63b8ff" points="355.38,-1017.14 365.94,-1017.98 358.21,-1010.74 355.38,-1017.14"/>
</a>
</g>
</g>
<!-- Node14&#45;&gt;Node4 -->
<g id="edge14_Node000014_Node000004" class="edge">
<title>Node14&#45;&gt;Node4</title>
<g id="a_edge14_Node000014_Node000004"><a xlink:title=" ">
<path fill="none" stroke="#63b8ff" d="M286,-298C383.02,-280.89 598.65,-249.43 650.59,-297 684.16,-327.73 678.53,-660.21 686.59,-705 702.12,-791.25 734.02,-891.13 747.72,-932.04"/>
<polygon fill="#63b8ff" stroke="#63b8ff" points="744.48,-933.4 751,-941.76 751.11,-931.16 744.48,-933.4"/>
</a>
</g>
</g>
<!-- Node14&#45;&gt;Node5 -->
<g id="edge15_Node000014_Node000005" class="edge">
<title>Node14&#45;&gt;Node5</title>
<g id="a_edge15_Node000014_Node000005"><a xlink:title=" ">
<path fill="none" stroke="#63b8ff" d="M244.35,-316.29C258.63,-337.51 296.72,-389.82 341.9,-417 345.13,-418.94 348.57,-420.68 352.12,-422.23"/>
<polygon fill="#63b8ff" stroke="#63b8ff" points="351.12,-425.6 361.71,-425.93 353.64,-419.07 351.12,-425.6"/>
</a>
</g>
</g>
<!-- Node14&#45;&gt;Node6 -->
<g id="edge16_Node000014_Node000006" class="edge">
<title>Node14&#45;&gt;Node6</title>
<g id="a_edge16_Node000014_Node000006"><a xlink:title=" ">
<path fill="none" stroke="#63b8ff" d="M248.41,-316.11C266.1,-331.61 304.38,-363.15 341.9,-381 346.45,-383.17 351.31,-385.11 356.24,-386.84"/>
<polygon fill="#63b8ff" stroke="#63b8ff" points="355.18,-390.18 365.77,-389.93 357.33,-383.52 355.18,-390.18"/>
</a>
</g>
</g>
<!-- Node14&#45;&gt;Node7 -->
<g id="edge17_Node000014_Node000007" class="edge">
<title>Node14&#45;&gt;Node7</title>
<g id="a_edge17_Node000014_Node000007"><a xlink:title=" ">
<path fill="none" stroke="#63b8ff" d="M306.2,-308.59C369.01,-310.06 461.42,-312.23 521.13,-313.62"/>
<polygon fill="#63b8ff" stroke="#63b8ff" points="521.08,-317.12 531.16,-313.86 521.24,-310.13 521.08,-317.12"/>
</a>
</g>
</g>
<!-- Node14&#45;&gt;Node9 -->
<g id="edge18_Node000014_Node000009" class="edge">
<title>Node14&#45;&gt;Node9</title>
<g id="a_edge18_Node000014_Node000009"><a xlink:title=" ">
<path fill="none" stroke="#63b8ff" d="M243.48,-297.71C256.7,-274.84 294.09,-215.46 341.9,-185 344.88,-183.1 348.06,-181.4 351.35,-179.88"/>
<polygon fill="#63b8ff" stroke="#63b8ff" points="352.89,-183.03 360.86,-176.04 350.27,-176.54 352.89,-183.03"/>
</a>
</g>
</g>
<!-- Node14&#45;&gt;Node10 -->
<g id="edge19_Node000014_Node000010" class="edge">
<title>Node14&#45;&gt;Node10</title>
<g id="a_edge19_Node000014_Node000010"><a xlink:title=" ">
<path fill="none" stroke="#63b8ff" d="M255.13,-297.82C315.96,-265.98 527.45,-167.38 650.59,-264 667.14,-276.98 733.2,-587.03 750.19,-667.87"/>
<polygon fill="#63b8ff" stroke="#63b8ff" points="746.77,-668.63 752.25,-677.7 753.62,-667.19 746.77,-668.63"/>
</a>
</g>
</g>
<!-- Node14&#45;&gt;Node11 -->
<g id="edge20_Node000014_Node000011" class="edge">
<title>Node14&#45;&gt;Node11</title>
<g id="a_edge20_Node000014_Node000011"><a xlink:title=" ">
<path fill="none" stroke="#63b8ff" d="M247.83,-297.77C265.22,-281.35 303.84,-246.81 341.9,-226 349.21,-222.01 357.34,-218.49 365.32,-215.5"/>
<polygon fill="#63b8ff" stroke="#63b8ff" points="366.67,-218.73 374.92,-212.09 364.33,-212.13 366.67,-218.73"/>
</a>
</g>
</g>
<!-- Node14&#45;&gt;Node12 -->
<g id="edge21_Node000014_Node000012" class="edge">
<title>Node14&#45;&gt;Node12</title>
<g id="a_edge21_Node000014_Node000012"><a xlink:title=" ">
<path fill="none" stroke="#63b8ff" d="M268.18,-316C291.18,-322.93 323.64,-332.72 351.45,-341.1"/>
<polygon fill="#63b8ff" stroke="#63b8ff" points="350.48,-344.46 361.07,-343.99 352.5,-337.76 350.48,-344.46"/>
</a>
</g>
</g>
<!-- Node15&#45;&gt;Node3 -->
<g id="edge23_Node000015_Node000003" class="edge">
<title>Node15&#45;&gt;Node3</title>
<g id="a_edge23_Node000015_Node000003"><a xlink:title=" ">
<path fill="none" stroke="#63b8ff" d="M241.12,-518.33C251.13,-551.81 285.54,-669.23 305.9,-768 327.32,-871.92 274.15,-922.34 341.9,-1004 344.84,-1007.55 348.37,-1010.55 352.23,-1013.08"/>
<polygon fill="#63b8ff" stroke="#63b8ff" points="350.69,-1016.23 361.15,-1017.93 354.04,-1010.08 350.69,-1016.23"/>
</a>
</g>
</g>
<!-- Node15&#45;&gt;Node4 -->
<g id="edge25_Node000015_Node000004" class="edge">
<title>Node15&#45;&gt;Node4</title>
<g id="a_edge25_Node000015_Node000004"><a xlink:title=" ">
<path fill="none" stroke="#63b8ff" d="M241,-518.35C250.58,-551.93 283.72,-669.63 305.9,-768 324.71,-851.42 282.43,-895.56 341.9,-957 389.97,-1006.66 582.87,-1008.79 650.59,-995 678.86,-989.25 708.97,-975.5 729.41,-964.89"/>
<polygon fill="#63b8ff" stroke="#63b8ff" points="731.16,-967.92 738.34,-960.13 727.87,-961.74 731.16,-967.92"/>
</a>
</g>
</g>
<!-- Node15&#45;&gt;Node5 -->
<g id="edge26_Node000015_Node000005" class="edge">
<title>Node15&#45;&gt;Node5</title>
<g id="a_edge26_Node000015_Node000005"><a xlink:title=" ">
<path fill="none" stroke="#63b8ff" d="M255.25,-499.87C275.52,-489.13 310.66,-471.11 341.9,-458 350.81,-454.26 360.57,-450.61 369.77,-447.36"/>
<polygon fill="#63b8ff" stroke="#63b8ff" points="371.17,-450.58 379.47,-444 368.88,-443.97 371.17,-450.58"/>
</a>
</g>
</g>
<!-- Node15&#45;&gt;Node6 -->
<g id="edge27_Node000015_Node000006" class="edge">
<title>Node15&#45;&gt;Node6</title>
<g id="a_edge27_Node000015_Node000006"><a xlink:title=" ">
<path fill="none" stroke="#63b8ff" d="M245.89,-499.91C261.75,-481.46 300.46,-439.47 341.9,-417 345.64,-414.97 349.63,-413.16 353.71,-411.54"/>
<polygon fill="#63b8ff" stroke="#63b8ff" points="355.13,-414.75 363.37,-408.1 352.78,-408.16 355.13,-414.75"/>
</a>
</g>
</g>
<!-- Node15&#45;&gt;Node7 -->
<g id="edge28_Node000015_Node000007" class="edge">
<title>Node15&#45;&gt;Node7</title>
<g id="a_edge28_Node000015_Node000007"><a xlink:title=" ">
<path fill="none" stroke="#63b8ff" d="M288.17,-499.96C353.55,-487.69 461.57,-465.82 475.18,-453 515.7,-414.81 471.12,-371.67 511.18,-333 514.32,-329.97 517.91,-327.43 521.77,-325.3"/>
<polygon fill="#63b8ff" stroke="#63b8ff" points="523.47,-328.37 531.15,-321.07 520.59,-321.99 523.47,-328.37"/>
</a>
</g>
</g>
<!-- Node15&#45;&gt;Node9 -->
<g id="edge29_Node000015_Node000009" class="edge">
<title>Node15&#45;&gt;Node9</title>
<g id="a_edge29_Node000015_Node000009"><a xlink:title=" ">
<path fill="none" stroke="#63b8ff" d="M242.02,-499.92C252.78,-473.34 284.65,-393.23 305.9,-325 325,-263.66 296.84,-230.79 341.9,-185 343.55,-183.32 345.34,-181.8 347.24,-180.41"/>
<polygon fill="#63b8ff" stroke="#63b8ff" points="349.31,-183.26 356.16,-175.18 345.76,-177.22 349.31,-183.26"/>
</a>
</g>
</g>
<!-- Node15&#45;&gt;Node10 -->
<g id="edge30_Node000015_Node000010" class="edge">
<title>Node15&#45;&gt;Node10</title>
<g id="a_edge30_Node000015_Node000010"><a xlink:title=" ">
<path fill="none" stroke="#63b8ff" d="M241.85,-518.19C260.62,-565.46 353.68,-782.08 511.18,-859 566.86,-886.19 596.65,-889.48 650.59,-859 709.71,-825.6 738.84,-743.46 749.39,-706.08"/>
<polygon fill="#63b8ff" stroke="#63b8ff" points="752.77,-706.97 751.98,-696.41 746.01,-705.16 752.77,-706.97"/>
</a>
</g>
</g>
<!-- Node15&#45;&gt;Node11 -->
<g id="edge31_Node000015_Node000011" class="edge">
<title>Node15&#45;&gt;Node11</title>
<g id="a_edge31_Node000015_Node000011"><a xlink:title=" ">
<path fill="none" stroke="#63b8ff" d="M243.38,-499.84C266.88,-457.35 365.51,-279 397.49,-221.18"/>
<polygon fill="#63b8ff" stroke="#63b8ff" points="400.72,-222.57 402.5,-212.12 394.59,-219.18 400.72,-222.57"/>
</a>
</g>
</g>
<!-- Node15&#45;&gt;Node12 -->
<g id="edge32_Node000015_Node000012" class="edge">
<title>Node15&#45;&gt;Node12</title>
<g id="a_edge32_Node000015_Node000012"><a xlink:title=" ">
<path fill="none" stroke="#63b8ff" d="M243.3,-499.8C256.39,-476.53 293.99,-414.75 341.9,-381 344.02,-379.51 346.24,-378.11 348.53,-376.79"/>
<polygon fill="#63b8ff" stroke="#63b8ff" points="350.37,-379.78 357.68,-372.11 347.19,-373.55 350.37,-379.78"/>
</a>
</g>
</g>
<!-- Node16 -->
<g id="Node000016" class="node">
<title>Node16</title>
<g id="a_Node000016"><a xlink:href="classepub_1_1package.html#a249684ced04849ef954417851a336a0d" target="_top" xlink:title=" ">
<polygon fill="white" stroke="#666666" points="472.9,-554 344.18,-554 344.18,-536 472.9,-536 472.9,-554"/>
<text text-anchor="middle" x="408.54" y="-542" font-family="Helvetica,sans-Serif" font-size="10.00">epub::package::metadata</text>
</a>
</g>
</g>
<!-- Node15&#45;&gt;Node16 -->
<g id="edge24_Node000015_Node000016" class="edge">
<title>Node15&#45;&gt;Node16</title>
<g id="a_edge24_Node000015_Node000016"><a xlink:title=" ">
<path fill="none" stroke="#63b8ff" d="M281.02,-518.08C303.55,-522.88 331.39,-528.8 355.21,-533.87"/>
<polygon fill="#63b8ff" stroke="#63b8ff" points="354.63,-537.32 365.14,-535.98 356.09,-530.48 354.63,-537.32"/>
</a>
</g>
</g>
<!-- Node17 -->
<g id="Node000017" class="node">
<title>Node17</title>
<g id="a_Node000017"><a xlink:href="classepub_1_1package.html#a09245d687d1cd8352cdcc6e0219c9f13" target="_top" xlink:title=" ">
<polygon fill="white" stroke="#666666" points="464.11,-518 352.97,-518 352.97,-500 464.11,-500 464.11,-518"/>
<text text-anchor="middle" x="408.54" y="-506" font-family="Helvetica,sans-Serif" font-size="10.00">epub::package::spine</text>
</a>
</g>
</g>
<!-- Node15&#45;&gt;Node17 -->
<g id="edge33_Node000015_Node000017" class="edge">
<title>Node15&#45;&gt;Node17</title>
<g id="a_edge33_Node000015_Node000017"><a xlink:title=" ">
<path fill="none" stroke="#63b8ff" d="M302.29,-509C315.57,-509 329.56,-509 342.87,-509"/>
<polygon fill="#63b8ff" stroke="#63b8ff" points="342.88,-512.5 352.88,-509 342.88,-505.5 342.88,-512.5"/>
</a>
</g>
</g>
<!-- Node18 -->
<g id="Node000018" class="node">
<title>Node18</title>
<g id="a_Node000018"><a xlink:href="namespaceepub_1_1xml.html#ae7d7288e9485a8dde5ad1db225ddc18a" target="_top" xlink:title=" ">
<polygon fill="white" stroke="#666666" points="645.77,-924 516.01,-924 516.01,-906 645.77,-906 645.77,-924"/>
<text text-anchor="middle" x="580.89" y="-912" font-family="Helvetica,sans-Serif" font-size="10.00">epub::xml::write_manifest</text>
</a>
</g>
</g>
<!-- Node15&#45;&gt;Node18 -->
<g id="edge34_Node000015_Node000018" class="edge">
<title>Node15&#45;&gt;Node18</title>
<g id="a_edge34_Node000015_Node000018"><a xlink:title=" ">
<path fill="none" stroke="#63b8ff" d="M240.67,-518.25C255.41,-575.88 334.33,-883.56 341.9,-890 392.14,-932.74 471.6,-932.08 524.71,-925.42"/>
<polygon fill="#63b8ff" stroke="#63b8ff" points="525.2,-928.88 534.64,-924.06 524.26,-921.95 525.2,-928.88"/>
</a>
</g>
</g>
<!-- Node19 -->
<g id="Node000019" class="node">
<title>Node19</title>
<g id="a_Node000019"><a xlink:href="namespaceepub_1_1xml.html#a667dc5dbfff6a402c36bceb2f3bc835c" target="_top" xlink:title=" ">
<polygon fill="white" stroke="#666666" points="475.32,-590 341.76,-590 341.76,-572 475.32,-572 475.32,-590"/>
<text text-anchor="middle" x="408.54" y="-578" font-family="Helvetica,sans-Serif" font-size="10.00">epub::xml::write_metadata</text>
</a>
</g>
</g>
<!-- Node15&#45;&gt;Node19 -->
<g id="edge37_Node000015_Node000019" class="edge">
<title>Node15&#45;&gt;Node19</title>
<g id="a_edge37_Node000015_Node000019"><a xlink:title=" ">
<path fill="none" stroke="#63b8ff" d="M253.28,-518.1C273,-529.79 309.05,-550.1 341.9,-563 347.47,-565.19 353.4,-567.21 359.33,-569.05"/>
<polygon fill="#63b8ff" stroke="#63b8ff" points="358.68,-572.51 369.26,-571.98 360.65,-565.79 358.68,-572.51"/>
</a>
</g>
</g>
<!-- Node34 -->
<g id="Node000034" class="node">
<title>Node34</title>
<g id="a_Node000034"><a xlink:href="namespaceepub_1_1xml.html#ac894e86ccd29ead7c97018b770869a91" target="_top" xlink:title=" ">
<polygon fill="white" stroke="#666666" points="638.88,-960 522.89,-960 522.89,-942 638.88,-942 638.88,-960"/>
<text text-anchor="middle" x="580.89" y="-948" font-family="Helvetica,sans-Serif" font-size="10.00">epub::xml::write_spine</text>
</a>
</g>
</g>
<!-- Node15&#45;&gt;Node34 -->
<g id="edge57_Node000015_Node000034" class="edge">
<title>Node15&#45;&gt;Node34</title>
<g id="a_edge57_Node000015_Node000034"><a xlink:title=" ">
<path fill="none" stroke="#63b8ff" d="M240.86,-518.38C249.98,-552.07 281.76,-670.09 305.9,-768 322.83,-836.67 289.19,-875.85 341.9,-923 390.4,-966.39 468.48,-967.21 521.89,-961.28"/>
<polygon fill="#63b8ff" stroke="#63b8ff" points="522.39,-964.75 531.89,-960.06 521.54,-957.8 522.39,-964.75"/>
</a>
</g>
</g>
<!-- Node18&#45;&gt;Node4 -->
<g id="edge35_Node000018_Node000004" class="edge">
<title>Node18&#45;&gt;Node4</title>
<g id="a_edge35_Node000018_Node000004"><a xlink:title=" ">
<path fill="none" stroke="#63b8ff" d="M625.37,-924.08C648.41,-928.9 676.9,-934.85 701.23,-939.94"/>
<polygon fill="#63b8ff" stroke="#63b8ff" points="700.52,-943.36 711.02,-941.98 701.95,-936.51 700.52,-943.36"/>
</a>
</g>
</g>
<!-- Node18&#45;&gt;Node10 -->
<g id="edge36_Node000018_Node000010" class="edge">
<title>Node18&#45;&gt;Node10</title>
<g id="a_edge36_Node000018_Node000010"><a xlink:title=" ">
<path fill="none" stroke="#63b8ff" d="M626.01,-905.89C634.84,-902.58 643.55,-898.09 650.59,-892 710.15,-840.5 739.46,-746.5 749.76,-706.19"/>
<polygon fill="#63b8ff" stroke="#63b8ff" points="753.19,-706.87 752.16,-696.32 746.39,-705.21 753.19,-706.87"/>
</a>
</g>
</g>
<!-- Node19&#45;&gt;Node4 -->
<g id="edge52_Node000019_Node000004" class="edge">
<title>Node19&#45;&gt;Node4</title>
<g id="a_edge52_Node000019_Node000004"><a xlink:title=" ">
<path fill="none" stroke="#63b8ff" d="M410.47,-590.32C416.12,-644.68 447.65,-919.97 511.18,-969 574.47,-1017.85 676.75,-984.77 725.96,-964.1"/>
<polygon fill="#63b8ff" stroke="#63b8ff" points="727.56,-967.22 735.34,-960.03 724.78,-960.8 727.56,-967.22"/>
</a>
</g>
</g>
<!-- Node19&#45;&gt;Node7 -->
<g id="edge53_Node000019_Node000007" class="edge">
<title>Node19&#45;&gt;Node7</title>
<g id="a_edge53_Node000019_Node000007"><a xlink:title=" ">
<path fill="none" stroke="#63b8ff" d="M463.84,-571.88C468.07,-569.53 471.95,-566.61 475.18,-563 544.12,-485.84 441.8,-409.76 511.18,-333 514.29,-329.56 517.96,-326.75 521.97,-324.44"/>
<polygon fill="#63b8ff" stroke="#63b8ff" points="523.59,-327.55 531.19,-320.18 520.65,-321.2 523.59,-327.55"/>
</a>
</g>
</g>
<!-- Node19&#45;&gt;Node10 -->
<g id="edge55_Node000019_Node000010" class="edge">
<title>Node19&#45;&gt;Node10</title>
<g id="a_edge55_Node000019_Node000010"><a xlink:title=" ">
<path fill="none" stroke="#63b8ff" d="M462.94,-571.97C467.47,-569.61 471.66,-566.67 475.18,-563 524.46,-511.67 455.5,-451.3 511.18,-407 559.67,-368.43 599.74,-371.6 650.59,-407 738.98,-468.54 752.13,-614.64 753.95,-667.49"/>
<polygon fill="#63b8ff" stroke="#63b8ff" points="750.46,-667.89 754.2,-677.81 757.46,-667.73 750.46,-667.89"/>
</a>
</g>
</g>
<!-- Node20 -->
<g id="Node000020" class="node">
<title>Node20</title>
<g id="a_Node000020"><a xlink:href="namespaceepub_1_1xml.html#a963274c442c95b1fc19777e4b465affc" target="_top" xlink:title=" ">
<polygon fill="white" stroke="#666666" points="648.29,-696 513.48,-696 513.48,-678 648.29,-678 648.29,-696"/>
<text text-anchor="middle" x="580.89" y="-684" font-family="Helvetica,sans-Serif" font-size="10.00">epub::xml::add_refinement</text>
</a>
</g>
</g>
<!-- Node19&#45;&gt;Node20 -->
<g id="edge38_Node000019_Node000020" class="edge">
<title>Node19&#45;&gt;Node20</title>
<g id="a_edge38_Node000019_Node000020"><a xlink:title=" ">
<path fill="none" stroke="#63b8ff" d="M417.49,-590.27C433.41,-608.24 471.12,-647.89 511.18,-669 515.15,-671.09 519.39,-672.96 523.73,-674.61"/>
<polygon fill="#63b8ff" stroke="#63b8ff" points="522.74,-677.97 533.33,-677.91 525.01,-671.35 522.74,-677.97"/>
</a>
</g>
</g>
<!-- Node21 -->
<g id="Node000021" class="node">
<title>Node21</title>
<g id="a_Node000021"><a xlink:href="classepub_1_1metadata.html#ad2453246d1fcc9985ae3584f8c0bba54" target="_top" xlink:title=" ">
<polygon fill="white" stroke="#666666" points="649.63,-542 512.14,-542 512.14,-524 649.63,-524 649.63,-542"/>
<text text-anchor="middle" x="580.89" y="-530" font-family="Helvetica,sans-Serif" font-size="10.00">epub::metadata::collections</text>
</a>
</g>
</g>
<!-- Node19&#45;&gt;Node21 -->
<g id="edge41_Node000019_Node000021" class="edge">
<title>Node19&#45;&gt;Node21</title>
<g id="a_edge41_Node000019_Node000021"><a xlink:title=" ">
<path fill="none" stroke="#63b8ff" d="M444.05,-571.91C454.12,-569.16 465.12,-566.05 475.18,-563 491.32,-558.1 495.01,-555.81 511.18,-551 518.41,-548.85 526.11,-546.7 533.64,-544.67"/>
<polygon fill="#63b8ff" stroke="#63b8ff" points="534.62,-548.03 543.39,-542.09 532.83,-541.27 534.62,-548.03"/>
</a>
</g>
</g>
<!-- Node22 -->
<g id="Node000022" class="node">
<title>Node22</title>
<g id="a_Node000022"><a xlink:href="classepub_1_1metadata.html#a23875082af22027fce800a2ab4aaa4ed" target="_top" xlink:title=" ">
<polygon fill="white" stroke="#666666" points="644.56,-506 517.21,-506 517.21,-488 644.56,-488 644.56,-506"/>
<text text-anchor="middle" x="580.89" y="-494" font-family="Helvetica,sans-Serif" font-size="10.00">epub::metadata::creators</text>
</a>
</g>
</g>
<!-- Node19&#45;&gt;Node22 -->
<g id="edge42_Node000019_Node000022" class="edge">
<title>Node19&#45;&gt;Node22</title>
<g id="a_edge42_Node000019_Node000022"><a xlink:title=" ">
<path fill="none" stroke="#63b8ff" d="M457.46,-571.9C463.71,-569.57 469.81,-566.66 475.18,-563 497.23,-548 489.05,-529.88 511.18,-515 513.89,-513.18 516.78,-511.54 519.78,-510.07"/>
<polygon fill="#63b8ff" stroke="#63b8ff" points="521.2,-513.27 529.03,-506.13 518.46,-506.82 521.2,-513.27"/>
</a>
</g>
</g>
<!-- Node23 -->
<g id="Node000023" class="node">
<title>Node23</title>
<g id="a_Node000023"><a xlink:href="classepub_1_1metadata.html#ad7b872f750378380d517ad908a8795ea" target="_top" xlink:title=" ">
<polygon fill="white" stroke="#666666" points="650.8,-470 510.97,-470 510.97,-452 650.8,-452 650.8,-470"/>
<text text-anchor="middle" x="580.89" y="-458" font-family="Helvetica,sans-Serif" font-size="10.00">epub::metadata::description</text>
</a>
</g>
</g>
<!-- Node19&#45;&gt;Node23 -->
<g id="edge43_Node000019_Node000023" class="edge">
<title>Node19&#45;&gt;Node23</title>
<g id="a_edge43_Node000019_Node000023"><a xlink:title=" ">
<path fill="none" stroke="#63b8ff" d="M460.98,-571.89C466.13,-569.56 470.99,-566.65 475.18,-563 505.8,-536.32 480.41,-505.51 511.18,-479 512.76,-477.64 514.42,-476.38 516.16,-475.22"/>
<polygon fill="#63b8ff" stroke="#63b8ff" points="518.3,-478.04 525.37,-470.15 514.92,-471.91 518.3,-478.04"/>
</a>
</g>
</g>
<!-- Node24 -->
<g id="Node000024" class="node">
<title>Node24</title>
<g id="a_Node000024"><a xlink:href="classepub_1_1creator.html#ad36a867ec5e64f24b7dee7c5b34b9b0b" target="_top" xlink:title=" ">
<polygon fill="white" stroke="#666666" points="635.78,-434 526,-434 526,-416 635.78,-416 635.78,-434"/>
<text text-anchor="middle" x="580.89" y="-422" font-family="Helvetica,sans-Serif" font-size="10.00">epub::creator::file_as</text>
</a>
</g>
</g>
<!-- Node19&#45;&gt;Node24 -->
<g id="edge44_Node000019_Node000024" class="edge">
<title>Node19&#45;&gt;Node24</title>
<g id="a_edge44_Node000019_Node000024"><a xlink:title=" ">
<path fill="none" stroke="#63b8ff" d="M462.38,-571.89C467.08,-569.55 471.46,-566.63 475.18,-563 515.02,-524.1 471.12,-481.67 511.18,-443 513.04,-441.2 515.06,-439.58 517.2,-438.11"/>
<polygon fill="#63b8ff" stroke="#63b8ff" points="518.95,-441.14 525.95,-433.2 515.52,-435.04 518.95,-441.14"/>
</a>
</g>
</g>
<!-- Node25 -->
<g id="Node000025" class="node">
<title>Node25</title>
<g id="a_Node000025"><a xlink:href="namespaceepub.html#a066b00e6e19cee9ebbb898c4182c0ad0" target="_top" xlink:title="Generate a XML ID.">
<polygon fill="white" stroke="#666666" points="629.01,-850 532.76,-850 532.76,-832 629.01,-832 629.01,-850"/>
<text text-anchor="middle" x="580.89" y="-838" font-family="Helvetica,sans-Serif" font-size="10.00">epub::generate_id</text>
</a>
</g>
</g>
<!-- Node19&#45;&gt;Node25 -->
<g id="edge45_Node000019_Node000025" class="edge">
<title>Node19&#45;&gt;Node25</title>
<g id="a_edge45_Node000019_Node000025"><a xlink:title=" ">
<path fill="none" stroke="#63b8ff" d="M410.51,-590.11C414.82,-625.8 435.46,-757.3 511.18,-823 514.83,-826.17 518.97,-828.79 523.37,-830.95"/>
<polygon fill="#63b8ff" stroke="#63b8ff" points="522.1,-834.21 532.68,-834.79 524.77,-827.74 522.1,-834.21"/>
</a>
</g>
</g>
<!-- Node26 -->
<g id="Node000026" class="node">
<title>Node26</title>
<g id="a_Node000026"><a xlink:href="classepub_1_1collection.html#a084ea9195f55d6fb36881731534895b0" target="_top" xlink:title=" ">
<polygon fill="white" stroke="#666666" points="639.01,-814 522.76,-814 522.76,-786 639.01,-786 639.01,-814"/>
<text text-anchor="start" x="530.57" y="-802" font-family="Helvetica,sans-Serif" font-size="10.00">epub::collection::group</text>
<text text-anchor="middle" x="580.89" y="-792" font-family="Helvetica,sans-Serif" font-size="10.00">_position</text>
</a>
</g>
</g>
<!-- Node19&#45;&gt;Node26 -->
<g id="edge46_Node000019_Node000026" class="edge">
<title>Node19&#45;&gt;Node26</title>
<g id="a_edge46_Node000019_Node000026"><a xlink:title=" ">
<path fill="none" stroke="#63b8ff" d="M411.71,-590.35C419.43,-621.59 448.56,-723.42 511.18,-777 512.69,-778.29 514.27,-779.5 515.91,-780.65"/>
<polygon fill="#63b8ff" stroke="#63b8ff" points="514.17,-783.69 524.54,-785.85 517.78,-777.7 514.17,-783.69"/>
</a>
</g>
</g>
<!-- Node27 -->
<g id="Node000027" class="node">
<title>Node27</title>
<g id="a_Node000027"><a xlink:href="classepub_1_1metadata.html#a38fcb86cf8befa51ab4f54cdd07b2373" target="_top" xlink:title=" ">
<polygon fill="white" stroke="#666666" points="645.24,-768 516.54,-768 516.54,-750 645.24,-750 645.24,-768"/>
<text text-anchor="middle" x="580.89" y="-756" font-family="Helvetica,sans-Serif" font-size="10.00">epub::metadata::identifier</text>
</a>
</g>
</g>
<!-- Node19&#45;&gt;Node27 -->
<g id="edge47_Node000019_Node000027" class="edge">
<title>Node19&#45;&gt;Node27</title>
<g id="a_edge47_Node000019_Node000027"><a xlink:title=" ">
<path fill="none" stroke="#63b8ff" d="M412.66,-590.3C422.42,-617.91 455.1,-700.06 511.18,-741 513.56,-742.74 516.1,-744.31 518.74,-745.73"/>
<polygon fill="#63b8ff" stroke="#63b8ff" points="517.5,-749.01 528.05,-749.99 520.41,-742.64 517.5,-749.01"/>
</a>
</g>
</g>
<!-- Node28 -->
<g id="Node000028" class="node">
<title>Node28</title>
<g id="a_Node000028"><a xlink:href="classepub_1_1metadata.html#a3f919d886be8df3c5a587d8eb5a6d57e" target="_top" xlink:title=" ">
<polygon fill="white" stroke="#666666" points="647.09,-732 514.68,-732 514.68,-714 647.09,-714 647.09,-732"/>
<text text-anchor="middle" x="580.89" y="-720" font-family="Helvetica,sans-Serif" font-size="10.00">epub::metadata::language</text>
</a>
</g>
</g>
<!-- Node19&#45;&gt;Node28 -->
<g id="edge48_Node000019_Node000028" class="edge">
<title>Node19&#45;&gt;Node28</title>
<g id="a_edge48_Node000019_Node000028"><a xlink:title=" ">
<path fill="none" stroke="#63b8ff" d="M414.32,-590.14C426.86,-613.21 463.15,-674.2 511.18,-705 514.12,-706.89 517.26,-708.58 520.51,-710.09"/>
<polygon fill="#63b8ff" stroke="#63b8ff" points="519.31,-713.38 529.89,-713.91 521.94,-706.9 519.31,-713.38"/>
</a>
</g>
</g>
<!-- Node29 -->
<g id="Node000029" class="node">
<title>Node29</title>
<g id="a_Node000029"><a xlink:href="classepub_1_1metadata.html#ae6b011a147727244c2f831b26976c4a8" target="_top" xlink:title="The rendition layout type.">
<polygon fill="white" stroke="#666666" points="639.63,-360 522.15,-360 522.15,-342 639.63,-342 639.63,-360"/>
<text text-anchor="middle" x="580.89" y="-348" font-family="Helvetica,sans-Serif" font-size="10.00">epub::metadata::layout</text>
</a>
</g>
</g>
<!-- Node19&#45;&gt;Node29 -->
<g id="edge49_Node000019_Node000029" class="edge">
<title>Node19&#45;&gt;Node29</title>
<g id="a_edge49_Node000019_Node000029"><a xlink:title=" ">
<path fill="none" stroke="#63b8ff" d="M463.4,-571.94C467.78,-569.58 471.81,-566.65 475.18,-563 533.2,-500.18 454.93,-438.4 511.18,-374 514.37,-370.34 518.17,-367.27 522.3,-364.68"/>
<polygon fill="#63b8ff" stroke="#63b8ff" points="523.97,-367.76 531.2,-360.02 520.72,-361.56 523.97,-367.76"/>
</a>
</g>
</g>
<!-- Node31 -->
<g id="Node000031" class="node">
<title>Node31</title>
<g id="a_Node000031"><a xlink:href="namespaceepub_1_1xml.html#a7c857584a6750e33bf5ccc29f4faf805" target="_top" xlink:title=" ">
<polygon fill="white" stroke="#666666" points="637.67,-660 524.11,-660 524.11,-632 637.67,-632 637.67,-660"/>
<text text-anchor="start" x="532.25" y="-648" font-family="Helvetica,sans-Serif" font-size="10.00">epub::xml::new_cdata</text>
<text text-anchor="middle" x="580.89" y="-638" font-family="Helvetica,sans-Serif" font-size="10.00">_child</text>
</a>
</g>
</g>
<!-- Node19&#45;&gt;Node31 -->
<g id="edge51_Node000019_Node000031" class="edge">
<title>Node19&#45;&gt;Node31</title>
<g id="a_edge51_Node000019_Node000031"><a xlink:title=" ">
<path fill="none" stroke="#63b8ff" d="M430.4,-590.11C450.83,-598.92 482.92,-612.45 511.18,-623 516.26,-624.9 521.58,-626.81 526.91,-628.68"/>
<polygon fill="#63b8ff" stroke="#63b8ff" points="525.88,-632.02 536.48,-631.97 528.17,-625.4 525.88,-632.02"/>
</a>
</g>
</g>
<!-- Node32 -->
<g id="Node000032" class="node">
<title>Node32</title>
<g id="a_Node000032"><a xlink:href="classepub_1_1creator.html#a2f09ed65b27b1722c0599a1c95b2ecf9" target="_top" xlink:title=" ">
<polygon fill="white" stroke="#666666" points="629.54,-614 532.23,-614 532.23,-596 629.54,-596 629.54,-614"/>
<text text-anchor="middle" x="580.89" y="-602" font-family="Helvetica,sans-Serif" font-size="10.00">epub::creator::role</text>
</a>
</g>
</g>
<!-- Node19&#45;&gt;Node32 -->
<g id="edge54_Node000019_Node000032" class="edge">
<title>Node19&#45;&gt;Node32</title>
<g id="a_edge54_Node000019_Node000032"><a xlink:title=" ">
<path fill="none" stroke="#63b8ff" d="M473.46,-590C489.41,-592.25 506.43,-594.65 522.07,-596.85"/>
<polygon fill="#63b8ff" stroke="#63b8ff" points="521.73,-600.34 532.12,-598.27 522.71,-593.41 521.73,-600.34"/>
</a>
</g>
</g>
<!-- Node33 -->
<g id="Node000033" class="node">
<title>Node33</title>
<g id="a_Node000033"><a xlink:href="classepub_1_1metadata.html#a14926d8532fc0e692507fe9fa4964d9f" target="_top" xlink:title=" ">
<polygon fill="white" stroke="#666666" points="634,-578 527.77,-578 527.77,-560 634,-560 634,-578"/>
<text text-anchor="middle" x="580.89" y="-566" font-family="Helvetica,sans-Serif" font-size="10.00">epub::metadata::title</text>
</a>
</g>
</g>
<!-- Node19&#45;&gt;Node33 -->
<g id="edge56_Node000019_Node000033" class="edge">
<title>Node19&#45;&gt;Node33</title>
<g id="a_edge56_Node000019_Node000033"><a xlink:title=" ">
<path fill="none" stroke="#63b8ff" d="M475.4,-576.36C489.2,-575.39 503.72,-574.37 517.39,-573.4"/>
<polygon fill="#63b8ff" stroke="#63b8ff" points="517.93,-576.87 527.66,-572.68 517.44,-569.89 517.93,-576.87"/>
</a>
</g>
</g>
<!-- Node20&#45;&gt;Node4 -->
<g id="edge39_Node000020_Node000004" class="edge">
<title>Node20&#45;&gt;Node4</title>
<g id="a_edge39_Node000020_Node000004"><a xlink:title=" ">
<path fill="none" stroke="#63b8ff" d="M636.43,-696.12C641.56,-698.45 646.4,-701.37 650.59,-705 721.61,-766.56 745.12,-884.98 751.83,-931.53"/>
<polygon fill="#63b8ff" stroke="#63b8ff" points="748.4,-932.29 753.19,-941.74 755.34,-931.36 748.4,-932.29"/>
</a>
</g>
</g>
<!-- Node20&#45;&gt;Node10 -->
<g id="edge40_Node000020_Node000010" class="edge">
<title>Node20&#45;&gt;Node10</title>
<g id="a_edge40_Node000020_Node000010"><a xlink:title=" ">
<path fill="none" stroke="#63b8ff" d="M648.5,-687C660.37,-687 672.76,-687 684.7,-687"/>
<polygon fill="#63b8ff" stroke="#63b8ff" points="685.06,-690.5 695.06,-687 685.06,-683.5 685.06,-690.5"/>
</a>
</g>
</g>
<!-- Node30 -->
<g id="Node000030" class="node">
<title>Node30</title>
<g id="a_Node000030"><a xlink:href="classepub_1_1metadata.html#aa104934854caf6b8b77930f1a46640e0" target="_top" xlink:title="Select the rendition layout controlling reflow.">
<polygon fill="white" stroke="#666666" points="807.7,-365 702.68,-365 702.68,-337 807.7,-337 807.7,-365"/>
<text text-anchor="start" x="710.44" y="-353" font-family="Helvetica,sans-Serif" font-size="10.00">epub::metadata::pre</text>
<text text-anchor="middle" x="755.19" y="-343" font-family="Helvetica,sans-Serif" font-size="10.00">_paginated</text>
</a>
</g>
</g>
<!-- Node29&#45;&gt;Node30 -->
<g id="edge50_Node000029_Node000030" class="edge">
<title>Node29&#45;&gt;Node30</title>
<g id="a_edge50_Node000029_Node000030"><a xlink:title=" ">
<path fill="none" stroke="#63b8ff" d="M639.74,-351C656.58,-351 675.04,-351 692.13,-351"/>
<polygon fill="#63b8ff" stroke="#63b8ff" points="692.57,-354.5 702.57,-351 692.57,-347.5 692.57,-354.5"/>
</a>
</g>
</g>
<!-- Node34&#45;&gt;Node4 -->
<g id="edge58_Node000034_Node000004" class="edge">
<title>Node34&#45;&gt;Node4</title>
<g id="a_edge58_Node000034_Node000004"><a xlink:title=" ">
<path fill="none" stroke="#63b8ff" d="M638.78,-951C650.85,-951 663.78,-951 676.47,-951"/>
<polygon fill="#63b8ff" stroke="#63b8ff" points="676.57,-954.5 686.57,-951 676.57,-947.5 676.57,-954.5"/>
</a>
</g>
</g>
<!-- Node34&#45;&gt;Node10 -->
<g id="edge59_Node000034_Node000010" class="edge">
<title>Node34&#45;&gt;Node10</title>
<g id="a_edge59_Node000034_Node000010"><a xlink:title=" ">
<path fill="none" stroke="#63b8ff" d="M636.43,-941.88C641.56,-939.55 646.4,-936.63 650.59,-933 721.61,-871.44 745.12,-753.02 751.83,-706.47"/>
<polygon fill="#63b8ff" stroke="#63b8ff" points="755.34,-706.64 753.19,-696.26 748.4,-705.71 755.34,-706.64"/>
</a>
</g>
</g>
</g>
</svg>
