<?xml version="1.0" encoding="UTF-8" standalone="no"?>
<!DOCTYPE svg PUBLIC "-//W3C//DTD SVG 1.1//EN"
 "http://www.w3.org/Graphics/SVG/1.1/DTD/svg11.dtd">
<!-- Generated by graphviz version 2.48.0 (20210717.1556)
 -->
<!-- Title: epub::xml::write_spine Pages: 1 -->
<svg width="297pt" height="62pt"
 viewBox="0.00 0.00 296.68 62.00" xmlns="http://www.w3.org/2000/svg" xmlns:xlink="http://www.w3.org/1999/xlink">
<g id="graph0" class="graph" transform="scale(1 1) rotate(0) translate(4 58)">
<title>epub::xml::write_spine</title>
<!-- Node1 -->
<g id="Node000001" class="node">
<title>Node1</title>
<g id="a_Node000001"><a xlink:title=" ">
<polygon fill="#999999" stroke="#666666" points="115.74,-36 -0.25,-36 -0.25,-18 115.74,-18 115.74,-36"/>
<text text-anchor="middle" x="57.75" y="-24" font-family="Helvetica,sans-Serif" font-size="10.00">epub::xml::write_spine</text>
</a>
</g>
</g>
<!-- Node2 -->
<g id="Node000002" class="node">
<title>Node2</title>
<g id="a_Node000002"><a xlink:href="namespaceepub_1_1xml.html#aa7f3a8aea8e7def07ed8fe9719aaae2b" target="_top" xlink:title=" ">
<polygon fill="white" stroke="#666666" points="288.78,-54 151.4,-54 151.4,-36 288.78,-36 288.78,-54"/>
<text text-anchor="middle" x="220.09" y="-42" font-family="Helvetica,sans-Serif" font-size="10.00">epub::xml::new_child_node</text>
</a>
</g>
</g>
<!-- Node1&#45;&gt;Node2 -->
<g id="edge1_Node000001_Node000002" class="edge">
<title>Node1&#45;&gt;Node2</title>
<g id="a_edge1_Node000001_Node000002"><a xlink:title=" ">
<path fill="none" stroke="#63b8ff" d="M115.73,-33.4C124.01,-34.33 132.65,-35.3 141.26,-36.26"/>
<polygon fill="#63b8ff" stroke="#63b8ff" points="140.99,-39.75 151.32,-37.39 141.77,-32.8 140.99,-39.75"/>
</a>
</g>
</g>
<!-- Node3 -->
<g id="Node000003" class="node">
<title>Node3</title>
<g id="a_Node000003"><a xlink:href="namespaceepub_1_1xml.html#a2e514ea095933964359b229c04117a9b" target="_top" xlink:title=" ">
<polygon fill="white" stroke="#666666" points="280.03,-18 160.14,-18 160.14,0 280.03,0 280.03,-18"/>
<text text-anchor="middle" x="220.09" y="-6" font-family="Helvetica,sans-Serif" font-size="10.00">epub::xml::set_attribute</text>
</a>
</g>
</g>
<!-- Node1&#45;&gt;Node3 -->
<g id="edge2_Node000001_Node000003" class="edge">
<title>Node1&#45;&gt;Node3</title>
<g id="a_edge2_Node000001_Node000003"><a xlink:title=" ">
<path fill="none" stroke="#63b8ff" d="M115.73,-20.6C126.87,-19.35 138.66,-18.03 150.14,-16.74"/>
<polygon fill="#63b8ff" stroke="#63b8ff" points="150.58,-20.21 160.12,-15.62 149.79,-13.26 150.58,-20.21"/>
</a>
</g>
</g>
</g>
</svg>
