<?xml version="1.0" encoding="UTF-8" standalone="no"?>
<!DOCTYPE svg PUBLIC "-//W3C//DTD SVG 1.1//EN"
 "http://www.w3.org/Graphics/SVG/1.1/DTD/svg11.dtd">
<!-- Generated by graphviz version 2.48.0 (20210717.1556)
 -->
<!-- Title: navigation.hpp Pages: 1 -->
<svg width="243pt" height="134pt"
 viewBox="0.00 0.00 242.82 134.00" xmlns="http://www.w3.org/2000/svg" xmlns:xlink="http://www.w3.org/1999/xlink">
<g id="graph0" class="graph" transform="scale(1 1) rotate(0) translate(4 130)">
<title>navigation.hpp</title>
<!-- Node1 -->
<g id="Node000001" class="node">
<title>Node1</title>
<g id="a_Node000001"><a xlink:title=" ">
<polygon fill="#999999" stroke="#666666" points="191.63,-126 110.52,-126 110.52,-108 191.63,-108 191.63,-126"/>
<text text-anchor="middle" x="151.08" y="-114" font-family="Helvetica,sans-Serif" font-size="10.00">navigation.hpp</text>
</a>
</g>
</g>
<!-- Node2 -->
<g id="Node000002" class="node">
<title>Node2</title>
<g id="a_Node000002"><a xlink:href="container_8hpp.html" target="_top" xlink:title=" ">
<polygon fill="white" stroke="#666666" points="149.13,-72 73.02,-72 73.02,-54 149.13,-54 149.13,-72"/>
<text text-anchor="middle" x="111.08" y="-60" font-family="Helvetica,sans-Serif" font-size="10.00">container.hpp</text>
</a>
</g>
</g>
<!-- Node1&#45;&gt;Node2 -->
<g id="edge1_Node000001_Node000002" class="edge">
<title>Node1&#45;&gt;Node2</title>
<g id="a_edge1_Node000001_Node000002"><a xlink:title=" ">
<path fill="none" stroke="#63b8ff" d="M138.67,-99.87C131.62,-90.71 123.11,-79.64 117.41,-72.24"/>
<polygon fill="#63b8ff" stroke="#63b8ff" points="135.95,-102.08 144.83,-107.88 141.5,-97.81 135.95,-102.08"/>
</a>
</g>
</g>
<!-- Node6 -->
<g id="Node000006" class="node">
<title>Node6</title>
<g id="a_Node000006"><a xlink:href="xml_8cpp.html" target="_top" xlink:title=" ">
<polygon fill="white" stroke="#666666" points="217.53,-72 166.62,-72 166.62,-54 217.53,-54 217.53,-72"/>
<text text-anchor="middle" x="192.08" y="-60" font-family="Helvetica,sans-Serif" font-size="10.00">xml.cpp</text>
</a>
</g>
</g>
<!-- Node1&#45;&gt;Node6 -->
<g id="edge5_Node000001_Node000006" class="edge">
<title>Node1&#45;&gt;Node6</title>
<g id="a_edge5_Node000001_Node000006"><a xlink:title=" ">
<path fill="none" stroke="#63b8ff" d="M163.8,-99.87C171.02,-90.71 179.75,-79.64 185.58,-72.24"/>
<polygon fill="#63b8ff" stroke="#63b8ff" points="160.93,-97.86 157.48,-107.88 166.42,-102.19 160.93,-97.86"/>
</a>
</g>
</g>
<!-- Node3 -->
<g id="Node000003" class="node">
<title>Node3</title>
<g id="a_Node000003"><a xlink:href="binder_8cpp.html" target="_top" xlink:title=" ">
<polygon fill="white" stroke="#666666" points="62.23,-18 -0.08,-18 -0.08,0 62.23,0 62.23,-18"/>
<text text-anchor="middle" x="31.08" y="-6" font-family="Helvetica,sans-Serif" font-size="10.00">binder.cpp</text>
</a>
</g>
</g>
<!-- Node2&#45;&gt;Node3 -->
<g id="edge2_Node000002_Node000003" class="edge">
<title>Node2&#45;&gt;Node3</title>
<g id="a_edge2_Node000002_Node000003"><a xlink:title=" ">
<path fill="none" stroke="#63b8ff" d="M90.04,-48.33C75.23,-38.7 55.9,-26.14 43.49,-18.07"/>
<polygon fill="#63b8ff" stroke="#63b8ff" points="88.28,-51.36 98.58,-53.88 92.1,-45.49 88.28,-51.36"/>
</a>
</g>
</g>
<!-- Node4 -->
<g id="Node000004" class="node">
<title>Node4</title>
<g id="a_Node000004"><a xlink:href="comic_8cpp.html" target="_top" xlink:title=" ">
<polygon fill="white" stroke="#666666" points="141.59,-18 80.56,-18 80.56,0 141.59,0 141.59,-18"/>
<text text-anchor="middle" x="111.08" y="-6" font-family="Helvetica,sans-Serif" font-size="10.00">comic.cpp</text>
</a>
</g>
</g>
<!-- Node2&#45;&gt;Node4 -->
<g id="edge3_Node000002_Node000004" class="edge">
<title>Node2&#45;&gt;Node4</title>
<g id="a_edge3_Node000002_Node000004"><a xlink:title=" ">
<path fill="none" stroke="#63b8ff" d="M111.08,-43.86C111.08,-35.13 111.08,-25.1 111.08,-18.24"/>
<polygon fill="#63b8ff" stroke="#63b8ff" points="107.58,-43.87 111.08,-53.88 114.58,-43.88 107.58,-43.87"/>
</a>
</g>
</g>
<!-- Node5 -->
<g id="Node000005" class="node">
<title>Node5</title>
<g id="a_Node000005"><a xlink:href="container_8cpp.html" target="_top" xlink:title=" ">
<polygon fill="white" stroke="#666666" points="235.07,-18 159.08,-18 159.08,0 235.07,0 235.07,-18"/>
<text text-anchor="middle" x="197.08" y="-6" font-family="Helvetica,sans-Serif" font-size="10.00">container.cpp</text>
</a>
</g>
</g>
<!-- Node2&#45;&gt;Node5 -->
<g id="edge4_Node000002_Node000005" class="edge">
<title>Node2&#45;&gt;Node5</title>
<g id="a_edge4_Node000002_Node000005"><a xlink:title=" ">
<path fill="none" stroke="#63b8ff" d="M133.24,-48.6C149.22,-38.94 170.26,-26.21 183.73,-18.07"/>
<polygon fill="#63b8ff" stroke="#63b8ff" points="131.26,-45.71 124.51,-53.88 134.88,-51.7 131.26,-45.71"/>
</a>
</g>
</g>
</g>
</svg>
