<?xml version="1.0" encoding="UTF-8" standalone="no"?>
<!DOCTYPE svg PUBLIC "-//W3C//DTD SVG 1.1//EN"
 "http://www.w3.org/Graphics/SVG/1.1/DTD/svg11.dtd">
<!-- Generated by graphviz version 2.48.0 (20210717.1556)
 -->
<!-- Title: navigation.hpp Pages: 1 -->
<svg width="501pt" height="188pt"
 viewBox="0.00 0.00 500.57 188.00" xmlns="http://www.w3.org/2000/svg" xmlns:xlink="http://www.w3.org/1999/xlink">
<g id="graph0" class="graph" transform="scale(1 1) rotate(0) translate(4 184)">
<title>navigation.hpp</title>
<!-- Node1 -->
<g id="Node000001" class="node">
<title>Node1</title>
<g id="a_Node000001"><a xlink:title=" ">
<polygon fill="#999999" stroke="#666666" points="319.07,-180 237.96,-180 237.96,-162 319.07,-162 319.07,-180"/>
<text text-anchor="middle" x="278.51" y="-168" font-family="Helvetica,sans-Serif" font-size="10.00">navigation.hpp</text>
</a>
</g>
</g>
<!-- Node2 -->
<g id="Node000002" class="node">
<title>Node2</title>
<g id="a_Node000002"><a xlink:href="manifest_8hpp.html" target="_top" xlink:title=" ">
<polygon fill="white" stroke="#666666" points="315.27,-126 241.76,-126 241.76,-108 315.27,-108 315.27,-126"/>
<text text-anchor="middle" x="278.51" y="-114" font-family="Helvetica,sans-Serif" font-size="10.00">manifest.hpp</text>
</a>
</g>
</g>
<!-- Node1&#45;&gt;Node2 -->
<g id="edge1_Node000001_Node000002" class="edge">
<title>Node1&#45;&gt;Node2</title>
<g id="a_edge1_Node000001_Node000002"><a xlink:title=" ">
<path fill="none" stroke="#63b8ff" d="M278.51,-161.88C278.51,-155.05 278.51,-145.03 278.51,-136.29"/>
<polygon fill="#63b8ff" stroke="#63b8ff" points="282.01,-136.24 278.51,-126.24 275.01,-136.24 282.01,-136.24"/>
</a>
</g>
</g>
<!-- Node7 -->
<g id="Node000007" class="node">
<title>Node7</title>
<g id="a_Node000007"><a xlink:title=" ">
<polygon fill="#e0e0e0" stroke="#999999" points="243.97,-72 183.06,-72 183.06,-54 243.97,-54 243.97,-72"/>
<text text-anchor="middle" x="213.51" y="-60" font-family="Helvetica,sans-Serif" font-size="10.00">filesystem</text>
</a>
</g>
</g>
<!-- Node1&#45;&gt;Node7 -->
<g id="edge15_Node000001_Node000007" class="edge">
<title>Node1&#45;&gt;Node7</title>
<g id="a_edge15_Node000001_Node000007"><a xlink:title=" ">
<path fill="none" stroke="#63b8ff" d="M267.08,-161.82C256.66,-153.8 241.56,-140.68 232.51,-126 224.2,-112.51 219.28,-95.11 216.54,-82.18"/>
<polygon fill="#63b8ff" stroke="#63b8ff" points="219.95,-81.36 214.66,-72.17 213.07,-82.65 219.95,-81.36"/>
</a>
</g>
</g>
<!-- Node8 -->
<g id="Node000008" class="node">
<title>Node8</title>
<g id="a_Node000008"><a xlink:title=" ">
<polygon fill="#e0e0e0" stroke="#999999" points="492.63,-72 440.4,-72 440.4,-54 492.63,-54 492.63,-72"/>
<text text-anchor="middle" x="466.51" y="-60" font-family="Helvetica,sans-Serif" font-size="10.00">memory</text>
</a>
</g>
</g>
<!-- Node1&#45;&gt;Node8 -->
<g id="edge16_Node000001_Node000008" class="edge">
<title>Node1&#45;&gt;Node8</title>
<g id="a_edge16_Node000001_Node000008"><a xlink:title=" ">
<path fill="none" stroke="#63b8ff" d="M287.83,-161.96C302.82,-149.32 333.54,-124.51 362.51,-108 385.31,-95.01 412.68,-83.58 433.63,-75.63"/>
<polygon fill="#63b8ff" stroke="#63b8ff" points="434.9,-78.89 443.05,-72.12 432.46,-72.33 434.9,-78.89"/>
</a>
</g>
</g>
<!-- Node11 -->
<g id="Node000011" class="node">
<title>Node11</title>
<g id="a_Node000011"><a xlink:href="xml_8hpp.html" target="_top" xlink:title=" ">
<polygon fill="white" stroke="#666666" points="183.03,-126 132,-126 132,-108 183.03,-108 183.03,-126"/>
<text text-anchor="middle" x="157.51" y="-114" font-family="Helvetica,sans-Serif" font-size="10.00">xml.hpp</text>
</a>
</g>
</g>
<!-- Node1&#45;&gt;Node11 -->
<g id="edge11_Node000001_Node000011" class="edge">
<title>Node1&#45;&gt;Node11</title>
<g id="a_edge11_Node000001_Node000011"><a xlink:title=" ">
<path fill="none" stroke="#63b8ff" d="M259.87,-161.99C240.04,-153.46 208.42,-139.88 185.57,-130.06"/>
<polygon fill="#63b8ff" stroke="#63b8ff" points="186.95,-126.84 176.38,-126.11 184.18,-133.27 186.95,-126.84"/>
</a>
</g>
</g>
<!-- Node12 -->
<g id="Node000012" class="node">
<title>Node12</title>
<g id="a_Node000012"><a xlink:title=" ">
<polygon fill="#e0e0e0" stroke="#999999" points="415.25,-126 371.78,-126 371.78,-108 415.25,-108 415.25,-126"/>
<text text-anchor="middle" x="393.51" y="-114" font-family="Helvetica,sans-Serif" font-size="10.00">vector</text>
</a>
</g>
</g>
<!-- Node1&#45;&gt;Node12 -->
<g id="edge17_Node000001_Node000012" class="edge">
<title>Node1&#45;&gt;Node12</title>
<g id="a_edge17_Node000001_Node000012"><a xlink:title=" ">
<path fill="none" stroke="#63b8ff" d="M296.48,-161.88C315.22,-153.4 344.81,-140.02 366.39,-130.27"/>
<polygon fill="#63b8ff" stroke="#63b8ff" points="368,-133.38 375.67,-126.07 365.12,-127 368,-133.38"/>
</a>
</g>
</g>
<!-- Node3 -->
<g id="Node000003" class="node">
<title>Node3</title>
<g id="a_Node000003"><a xlink:href="file__metadata_8hpp.html" target="_top" xlink:title=" ">
<polygon fill="white" stroke="#666666" points="127.02,-72 32.01,-72 32.01,-54 127.02,-54 127.02,-72"/>
<text text-anchor="middle" x="79.51" y="-60" font-family="Helvetica,sans-Serif" font-size="10.00">file_metadata.hpp</text>
</a>
</g>
</g>
<!-- Node2&#45;&gt;Node3 -->
<g id="edge2_Node000002_Node000003" class="edge">
<title>Node2&#45;&gt;Node3</title>
<g id="a_edge2_Node000002_Node000003"><a xlink:title=" ">
<path fill="none" stroke="#63b8ff" d="M247.86,-107.99C213.53,-99.02 157.76,-84.45 119.9,-74.55"/>
<polygon fill="#63b8ff" stroke="#63b8ff" points="120.77,-71.16 110.21,-72.02 119,-77.93 120.77,-71.16"/>
</a>
</g>
</g>
<!-- Node4 -->
<g id="Node000004" class="node">
<title>Node4</title>
<g id="a_Node000004"><a xlink:title=" ">
<polygon fill="#e0e0e0" stroke="#999999" points="173.47,-18 137.56,-18 137.56,0 173.47,0 173.47,-18"/>
<text text-anchor="middle" x="155.51" y="-6" font-family="Helvetica,sans-Serif" font-size="10.00">map</text>
</a>
</g>
</g>
<!-- Node2&#45;&gt;Node4 -->
<g id="edge7_Node000002_Node000004" class="edge">
<title>Node2&#45;&gt;Node4</title>
<g id="a_edge7_Node000002_Node000004"><a xlink:title=" ">
<path fill="none" stroke="#63b8ff" d="M277.05,-107.7C274.36,-94.69 267.48,-69.4 252.51,-54 233.69,-34.62 204.76,-23.03 183.39,-16.65"/>
<polygon fill="#63b8ff" stroke="#63b8ff" points="184.16,-13.23 173.58,-13.93 182.28,-19.98 184.16,-13.23"/>
</a>
</g>
</g>
<!-- Node2&#45;&gt;Node7 -->
<g id="edge6_Node000002_Node000007" class="edge">
<title>Node2&#45;&gt;Node7</title>
<g id="a_edge6_Node000002_Node000007"><a xlink:title=" ">
<path fill="none" stroke="#63b8ff" d="M268.36,-107.88C258.59,-100.06 243.6,-88.07 231.76,-78.6"/>
<polygon fill="#63b8ff" stroke="#63b8ff" points="233.81,-75.75 223.81,-72.24 229.44,-81.22 233.81,-75.75"/>
</a>
</g>
</g>
<!-- Node2&#45;&gt;Node8 -->
<g id="edge8_Node000002_Node000008" class="edge">
<title>Node2&#45;&gt;Node8</title>
<g id="a_edge8_Node000002_Node000008"><a xlink:title=" ">
<path fill="none" stroke="#63b8ff" d="M307.48,-107.99C340.48,-98.86 394.45,-83.93 430.22,-74.04"/>
<polygon fill="#63b8ff" stroke="#63b8ff" points="431.55,-77.3 440.25,-71.26 429.68,-70.56 431.55,-77.3"/>
</a>
</g>
</g>
<!-- Node9 -->
<g id="Node000009" class="node">
<title>Node9</title>
<g id="a_Node000009"><a xlink:title=" ">
<polygon fill="#e0e0e0" stroke="#999999" points="345.59,-72 299.44,-72 299.44,-54 345.59,-54 345.59,-72"/>
<text text-anchor="middle" x="322.51" y="-60" font-family="Helvetica,sans-Serif" font-size="10.00">ranges</text>
</a>
</g>
</g>
<!-- Node2&#45;&gt;Node9 -->
<g id="edge9_Node000002_Node000009" class="edge">
<title>Node2&#45;&gt;Node9</title>
<g id="a_edge9_Node000002_Node000009"><a xlink:title=" ">
<path fill="none" stroke="#63b8ff" d="M285.39,-107.88C291.68,-100.44 301.17,-89.22 308.98,-79.99"/>
<polygon fill="#63b8ff" stroke="#63b8ff" points="311.76,-82.13 315.54,-72.24 306.41,-77.61 311.76,-82.13"/>
</a>
</g>
</g>
<!-- Node10 -->
<g id="Node000010" class="node">
<title>Node10</title>
<g id="a_Node000010"><a xlink:title=" ">
<polygon fill="#e0e0e0" stroke="#999999" points="422.82,-72 364.21,-72 364.21,-54 422.82,-54 422.82,-72"/>
<text text-anchor="middle" x="393.51" y="-60" font-family="Helvetica,sans-Serif" font-size="10.00">stdexcept</text>
</a>
</g>
</g>
<!-- Node2&#45;&gt;Node10 -->
<g id="edge10_Node000002_Node000010" class="edge">
<title>Node2&#45;&gt;Node10</title>
<g id="a_edge10_Node000002_Node000010"><a xlink:title=" ">
<path fill="none" stroke="#63b8ff" d="M296.48,-107.88C315.22,-99.4 344.81,-86.02 366.39,-76.27"/>
<polygon fill="#63b8ff" stroke="#63b8ff" points="368,-79.38 375.67,-72.07 365.12,-73 368,-79.38"/>
</a>
</g>
</g>
<!-- Node3&#45;&gt;Node4 -->
<g id="edge3_Node000003_Node000004" class="edge">
<title>Node3&#45;&gt;Node4</title>
<g id="a_edge3_Node000003_Node000004"><a xlink:title=" ">
<path fill="none" stroke="#63b8ff" d="M91.39,-53.88C103.03,-45.91 121.02,-33.6 134.98,-24.05"/>
<polygon fill="#63b8ff" stroke="#63b8ff" points="137.2,-26.78 143.47,-18.24 133.24,-21 137.2,-26.78"/>
</a>
</g>
</g>
<!-- Node5 -->
<g id="Node000005" class="node">
<title>Node5</title>
<g id="a_Node000005"><a xlink:title=" ">
<polygon fill="#e0e0e0" stroke="#999999" points="51.04,-18 -0.01,-18 -0.01,0 51.04,0 51.04,-18"/>
<text text-anchor="middle" x="25.51" y="-6" font-family="Helvetica,sans-Serif" font-size="10.00">optional</text>
</a>
</g>
</g>
<!-- Node3&#45;&gt;Node5 -->
<g id="edge4_Node000003_Node000005" class="edge">
<title>Node3&#45;&gt;Node5</title>
<g id="a_edge4_Node000003_Node000005"><a xlink:title=" ">
<path fill="none" stroke="#63b8ff" d="M71.08,-53.88C63.2,-46.29 51.23,-34.76 41.54,-25.43"/>
<polygon fill="#63b8ff" stroke="#63b8ff" points="43.7,-22.65 34.07,-18.24 38.85,-27.7 43.7,-22.65"/>
</a>
</g>
</g>
<!-- Node6 -->
<g id="Node000006" class="node">
<title>Node6</title>
<g id="a_Node000006"><a xlink:title=" ">
<polygon fill="#e0e0e0" stroke="#999999" points="109.97,-18 69.06,-18 69.06,0 109.97,0 109.97,-18"/>
<text text-anchor="middle" x="89.51" y="-6" font-family="Helvetica,sans-Serif" font-size="10.00">string</text>
</a>
</g>
</g>
<!-- Node3&#45;&gt;Node6 -->
<g id="edge5_Node000003_Node000006" class="edge">
<title>Node3&#45;&gt;Node6</title>
<g id="a_edge5_Node000003_Node000006"><a xlink:title=" ">
<path fill="none" stroke="#63b8ff" d="M81.08,-53.88C82.39,-47.05 84.32,-37.03 86,-28.29"/>
<polygon fill="#63b8ff" stroke="#63b8ff" points="89.48,-28.72 87.93,-18.24 82.6,-27.4 89.48,-28.72"/>
</a>
</g>
</g>
<!-- Node11&#45;&gt;Node3 -->
<g id="edge12_Node000011_Node000003" class="edge">
<title>Node11&#45;&gt;Node3</title>
<g id="a_edge12_Node000011_Node000003"><a xlink:title=" ">
<path fill="none" stroke="#63b8ff" d="M145.33,-107.88C133.31,-99.86 114.7,-87.46 100.33,-77.88"/>
<polygon fill="#63b8ff" stroke="#63b8ff" points="101.88,-74.7 91.62,-72.07 98,-80.53 101.88,-74.7"/>
</a>
</g>
</g>
<!-- Node11&#45;&gt;Node4 -->
<g id="edge14_Node000011_Node000004" class="edge">
<title>Node11&#45;&gt;Node4</title>
<g id="a_edge14_Node000011_Node000004"><a xlink:title=" ">
<path fill="none" stroke="#63b8ff" d="M157.36,-107.68C157.04,-90.73 156.3,-51.83 155.86,-28.55"/>
<polygon fill="#63b8ff" stroke="#63b8ff" points="159.36,-28.21 155.67,-18.28 152.36,-28.34 159.36,-28.21"/>
</a>
</g>
</g>
<!-- Node11&#45;&gt;Node7 -->
<g id="edge13_Node000011_Node000007" class="edge">
<title>Node11&#45;&gt;Node7</title>
<g id="a_edge13_Node000011_Node000007"><a xlink:title=" ">
<path fill="none" stroke="#63b8ff" d="M166.26,-107.88C174.52,-100.21 187.09,-88.53 197.2,-79.15"/>
<polygon fill="#63b8ff" stroke="#63b8ff" points="199.69,-81.61 204.64,-72.24 194.93,-76.48 199.69,-81.61"/>
</a>
</g>
</g>
</g>
</svg>
