<?xml version="1.0" encoding="UTF-8" standalone="no"?>
<!DOCTYPE svg PUBLIC "-//W3C//DTD SVG 1.1//EN"
 "http://www.w3.org/Graphics/SVG/1.1/DTD/svg11.dtd">
<!-- Generated by graphviz version 2.48.0 (20210717.1556)
 -->
<!-- Title: options.hpp Pages: 1 -->
<svg width="748pt" height="80pt"
 viewBox="0.00 0.00 748.41 80.00" xmlns="http://www.w3.org/2000/svg" xmlns:xlink="http://www.w3.org/1999/xlink">
<g id="graph0" class="graph" transform="scale(1 1) rotate(0) translate(4 76)">
<title>options.hpp</title>
<!-- Node1 -->
<g id="Node000001" class="node">
<title>Node1</title>
<g id="a_Node000001"><a xlink:title=" ">
<polygon fill="#999999" stroke="#666666" points="400.11,-72 332.69,-72 332.69,-54 400.11,-54 400.11,-72"/>
<text text-anchor="middle" x="366.4" y="-60" font-family="Helvetica,sans-Serif" font-size="10.00">options.hpp</text>
</a>
</g>
</g>
<!-- Node2 -->
<g id="Node000002" class="node">
<title>Node2</title>
<g id="a_Node000002"><a xlink:title=" ">
<polygon fill="#e0e0e0" stroke="#999999" points="58.71,-18 0.1,-18 0.1,0 58.71,0 58.71,-18"/>
<text text-anchor="middle" x="29.4" y="-6" font-family="Helvetica,sans-Serif" font-size="10.00">functional</text>
</a>
</g>
</g>
<!-- Node1&#45;&gt;Node2 -->
<g id="edge1_Node000001_Node000002" class="edge">
<title>Node1&#45;&gt;Node2</title>
<g id="a_edge1_Node000001_Node000002"><a xlink:title=" ">
<path fill="none" stroke="#63b8ff" d="M332.34,-57.6C278.61,-50.52 170.7,-35.75 68.62,-17.94"/>
<polygon fill="#63b8ff" stroke="#63b8ff" points="69.21,-14.49 58.76,-16.2 68,-21.38 69.21,-14.49"/>
</a>
</g>
</g>
<!-- Node3 -->
<g id="Node000003" class="node">
<title>Node3</title>
<g id="a_Node000003"><a xlink:title=" ">
<polygon fill="#e0e0e0" stroke="#999999" points="131.75,-18 77.06,-18 77.06,0 131.75,0 131.75,-18"/>
<text text-anchor="middle" x="104.4" y="-6" font-family="Helvetica,sans-Serif" font-size="10.00">iostream</text>
</a>
</g>
</g>
<!-- Node1&#45;&gt;Node3 -->
<g id="edge2_Node000001_Node000003" class="edge">
<title>Node1&#45;&gt;Node3</title>
<g id="a_edge2_Node000001_Node000003"><a xlink:title=" ">
<path fill="none" stroke="#63b8ff" d="M332.65,-55.72C290.33,-47.77 215.3,-33.49 141.79,-18.25"/>
<polygon fill="#63b8ff" stroke="#63b8ff" points="142.41,-14.8 131.91,-16.19 140.98,-21.65 142.41,-14.8"/>
</a>
</g>
</g>
<!-- Node4 -->
<g id="Node000004" class="node">
<title>Node4</title>
<g id="a_Node000004"><a xlink:title=" ">
<polygon fill="#e0e0e0" stroke="#999999" points="185.36,-18 149.45,-18 149.45,0 185.36,0 185.36,-18"/>
<text text-anchor="middle" x="167.4" y="-6" font-family="Helvetica,sans-Serif" font-size="10.00">map</text>
</a>
</g>
</g>
<!-- Node1&#45;&gt;Node4 -->
<g id="edge3_Node000001_Node000004" class="edge">
<title>Node1&#45;&gt;Node4</title>
<g id="a_edge3_Node000001_Node000004"><a xlink:title=" ">
<path fill="none" stroke="#63b8ff" d="M333.33,-53.93C300.6,-45.86 248.82,-32.86 195.08,-18.11"/>
<polygon fill="#63b8ff" stroke="#63b8ff" points="195.96,-14.72 185.39,-15.43 194.09,-21.46 195.96,-14.72"/>
</a>
</g>
</g>
<!-- Node5 -->
<g id="Node000005" class="node">
<title>Node5</title>
<g id="a_Node000005"><a xlink:title=" ">
<polygon fill="#e0e0e0" stroke="#999999" points="255.52,-18 203.29,-18 203.29,0 255.52,0 255.52,-18"/>
<text text-anchor="middle" x="229.4" y="-6" font-family="Helvetica,sans-Serif" font-size="10.00">memory</text>
</a>
</g>
</g>
<!-- Node1&#45;&gt;Node5 -->
<g id="edge4_Node000001_Node000005" class="edge">
<title>Node1&#45;&gt;Node5</title>
<g id="a_edge4_Node000001_Node000005"><a xlink:title=" ">
<path fill="none" stroke="#63b8ff" d="M345.3,-53.99C322.54,-45.35 286.08,-31.51 260.14,-21.67"/>
<polygon fill="#63b8ff" stroke="#63b8ff" points="261.35,-18.38 250.76,-18.11 258.87,-24.93 261.35,-18.38"/>
</a>
</g>
</g>
<!-- Node6 -->
<g id="Node000006" class="node">
<title>Node6</title>
<g id="a_Node000006"><a xlink:title=" ">
<polygon fill="#e0e0e0" stroke="#999999" points="324.93,-18 273.87,-18 273.87,0 324.93,0 324.93,-18"/>
<text text-anchor="middle" x="299.4" y="-6" font-family="Helvetica,sans-Serif" font-size="10.00">optional</text>
</a>
</g>
</g>
<!-- Node1&#45;&gt;Node6 -->
<g id="edge5_Node000001_Node000006" class="edge">
<title>Node1&#45;&gt;Node6</title>
<g id="a_edge5_Node000001_Node000006"><a xlink:title=" ">
<path fill="none" stroke="#63b8ff" d="M355.94,-53.88C345.87,-46.06 330.42,-34.07 318.21,-24.6"/>
<polygon fill="#63b8ff" stroke="#63b8ff" points="320.07,-21.61 310.02,-18.24 315.77,-27.14 320.07,-21.61"/>
</a>
</g>
</g>
<!-- Node7 -->
<g id="Node000007" class="node">
<title>Node7</title>
<g id="a_Node000007"><a xlink:title=" ">
<polygon fill="#e0e0e0" stroke="#999999" points="389.48,-18 343.33,-18 343.33,0 389.48,0 389.48,-18"/>
<text text-anchor="middle" x="366.4" y="-6" font-family="Helvetica,sans-Serif" font-size="10.00">ranges</text>
</a>
</g>
</g>
<!-- Node1&#45;&gt;Node7 -->
<g id="edge6_Node000001_Node000007" class="edge">
<title>Node1&#45;&gt;Node7</title>
<g id="a_edge6_Node000001_Node000007"><a xlink:title=" ">
<path fill="none" stroke="#63b8ff" d="M366.4,-53.88C366.4,-47.05 366.4,-37.03 366.4,-28.29"/>
<polygon fill="#63b8ff" stroke="#63b8ff" points="369.9,-28.24 366.4,-18.24 362.9,-28.24 369.9,-28.24"/>
</a>
</g>
</g>
<!-- Node8 -->
<g id="Node000008" class="node">
<title>Node8</title>
<g id="a_Node000008"><a xlink:title=" ">
<polygon fill="#e0e0e0" stroke="#999999" points="437.25,-18 407.56,-18 407.56,0 437.25,0 437.25,-18"/>
<text text-anchor="middle" x="422.4" y="-6" font-family="Helvetica,sans-Serif" font-size="10.00">set</text>
</a>
</g>
</g>
<!-- Node1&#45;&gt;Node8 -->
<g id="edge7_Node000001_Node000008" class="edge">
<title>Node1&#45;&gt;Node8</title>
<g id="a_edge7_Node000001_Node000008"><a xlink:title=" ">
<path fill="none" stroke="#63b8ff" d="M375.15,-53.88C383.41,-46.21 395.98,-34.53 406.09,-25.15"/>
<polygon fill="#63b8ff" stroke="#63b8ff" points="408.58,-27.61 413.53,-18.24 403.82,-22.48 408.58,-27.61"/>
</a>
</g>
</g>
<!-- Node9 -->
<g id="Node000009" class="node">
<title>Node9</title>
<g id="a_Node000009"><a xlink:title=" ">
<polygon fill="#e0e0e0" stroke="#999999" points="541.45,-18 455.36,-18 455.36,0 541.45,0 541.45,-18"/>
<text text-anchor="middle" x="498.4" y="-6" font-family="Helvetica,sans-Serif" font-size="10.00">source_location</text>
</a>
</g>
</g>
<!-- Node1&#45;&gt;Node9 -->
<g id="edge8_Node000001_Node000009" class="edge">
<title>Node1&#45;&gt;Node9</title>
<g id="a_edge8_Node000001_Node000009"><a xlink:title=" ">
<path fill="none" stroke="#63b8ff" d="M386.74,-53.99C408.57,-45.39 443.49,-31.63 468.46,-21.8"/>
<polygon fill="#63b8ff" stroke="#63b8ff" points="469.81,-25.03 477.83,-18.11 467.24,-18.51 469.81,-25.03"/>
</a>
</g>
</g>
<!-- Node10 -->
<g id="Node000010" class="node">
<title>Node10</title>
<g id="a_Node000010"><a xlink:title=" ">
<polygon fill="#e0e0e0" stroke="#999999" points="617.71,-18 559.1,-18 559.1,0 617.71,0 617.71,-18"/>
<text text-anchor="middle" x="588.4" y="-6" font-family="Helvetica,sans-Serif" font-size="10.00">stdexcept</text>
</a>
</g>
</g>
<!-- Node1&#45;&gt;Node10 -->
<g id="edge9_Node000001_Node000010" class="edge">
<title>Node1&#45;&gt;Node10</title>
<g id="a_edge9_Node000001_Node000010"><a xlink:title=" ">
<path fill="none" stroke="#63b8ff" d="M400.12,-54.1C440.13,-44.73 506.72,-29.13 549.04,-19.22"/>
<polygon fill="#63b8ff" stroke="#63b8ff" points="550.05,-22.58 558.99,-16.89 548.46,-15.76 550.05,-22.58"/>
</a>
</g>
</g>
<!-- Node11 -->
<g id="Node000011" class="node">
<title>Node11</title>
<g id="a_Node000011"><a xlink:title=" ">
<polygon fill="#e0e0e0" stroke="#999999" points="676.86,-18 635.95,-18 635.95,0 676.86,0 676.86,-18"/>
<text text-anchor="middle" x="656.4" y="-6" font-family="Helvetica,sans-Serif" font-size="10.00">string</text>
</a>
</g>
</g>
<!-- Node1&#45;&gt;Node11 -->
<g id="edge10_Node000001_Node000011" class="edge">
<title>Node1&#45;&gt;Node11</title>
<g id="a_edge10_Node000001_Node000011"><a xlink:title=" ">
<path fill="none" stroke="#63b8ff" d="M400.25,-57.3C450.05,-50.15 545.88,-35.51 626.4,-18 626.5,-17.98 626.6,-17.96 626.7,-17.94"/>
<polygon fill="#63b8ff" stroke="#63b8ff" points="627.22,-21.41 636.13,-15.68 625.59,-14.6 627.22,-21.41"/>
</a>
</g>
</g>
<!-- Node12 -->
<g id="Node000012" class="node">
<title>Node12</title>
<g id="a_Node000012"><a xlink:title=" ">
<polygon fill="#e0e0e0" stroke="#999999" points="740.42,-18 694.39,-18 694.39,0 740.42,0 740.42,-18"/>
<text text-anchor="middle" x="717.4" y="-6" font-family="Helvetica,sans-Serif" font-size="10.00">variant</text>
</a>
</g>
</g>
<!-- Node1&#45;&gt;Node12 -->
<g id="edge11_Node000001_Node000012" class="edge">
<title>Node1&#45;&gt;Node12</title>
<g id="a_edge11_Node000001_Node000012"><a xlink:title=" ">
<path fill="none" stroke="#63b8ff" d="M400.13,-58.56C456.83,-52.51 575.02,-38.79 684.19,-18.05"/>
<polygon fill="#63b8ff" stroke="#63b8ff" points="684.89,-21.47 694.05,-16.15 683.57,-14.6 684.89,-21.47"/>
</a>
</g>
</g>
</g>
</svg>
