<?xml version="1.0" encoding="UTF-8" standalone="no"?>
<!DOCTYPE svg PUBLIC "-//W3C//DTD SVG 1.1//EN"
 "http://www.w3.org/Graphics/SVG/1.1/DTD/svg11.dtd">
<!-- Generated by graphviz version 2.48.0 (20210717.1556)
 -->
<!-- Title: options.hpp Pages: 1 -->
<svg width="1161pt" height="80pt"
 viewBox="0.00 0.00 1160.82 80.00" xmlns="http://www.w3.org/2000/svg" xmlns:xlink="http://www.w3.org/1999/xlink">
<g id="graph0" class="graph" transform="scale(1 1) rotate(0) translate(4 76)">
<title>options.hpp</title>
<!-- Node1 -->
<g id="Node000001" class="node">
<title>Node1</title>
<g id="a_Node000001"><a xlink:title=" ">
<polygon fill="#999999" stroke="#666666" points="660.92,-72 593.5,-72 593.5,-54 660.92,-54 660.92,-72"/>
<text text-anchor="middle" x="627.21" y="-60" font-family="Helvetica,sans-Serif" font-size="10.00">options.hpp</text>
</a>
</g>
</g>
<!-- Node2 -->
<g id="Node000002" class="node">
<title>Node2</title>
<g id="a_Node000002"><a xlink:title=" ">
<polygon fill="#e0e0e0" stroke="#999999" points="134.62,-18 -0.21,-18 -0.21,0 134.62,0 134.62,-18"/>
<text text-anchor="middle" x="67.21" y="-6" font-family="Helvetica,sans-Serif" font-size="10.00">__ranges/elements_view.h</text>
</a>
</g>
</g>
<!-- Node1&#45;&gt;Node2 -->
<g id="edge1_Node000001_Node000002" class="edge">
<title>Node1&#45;&gt;Node2</title>
<g id="a_edge1_Node000001_Node000002"><a xlink:title=" ">
<path fill="none" stroke="#63b8ff" d="M593.45,-59.1C516.11,-52.41 319.86,-35.25 144.91,-18.15"/>
<polygon fill="#63b8ff" stroke="#63b8ff" points="145.04,-14.65 134.75,-17.16 144.36,-21.62 145.04,-14.65"/>
</a>
</g>
</g>
<!-- Node3 -->
<g id="Node000003" class="node">
<title>Node3</title>
<g id="a_Node000003"><a xlink:title=" ">
<polygon fill="#e0e0e0" stroke="#999999" points="209.83,-18 152.58,-18 152.58,0 209.83,0 209.83,-18"/>
<text text-anchor="middle" x="181.21" y="-6" font-family="Helvetica,sans-Serif" font-size="10.00">algorithm</text>
</a>
</g>
</g>
<!-- Node1&#45;&gt;Node3 -->
<g id="edge2_Node000001_Node000003" class="edge">
<title>Node1&#45;&gt;Node3</title>
<g id="a_edge2_Node000001_Node000003"><a xlink:title=" ">
<path fill="none" stroke="#63b8ff" d="M593.47,-59.51C525.01,-54.21 364.71,-40.56 219.75,-17.91"/>
<polygon fill="#63b8ff" stroke="#63b8ff" points="220.21,-14.44 209.78,-16.34 219.11,-21.35 220.21,-14.44"/>
</a>
</g>
</g>
<!-- Node4 -->
<g id="Node000004" class="node">
<title>Node4</title>
<g id="a_Node000004"><a xlink:title=" ">
<polygon fill="#e0e0e0" stroke="#999999" points="276.44,-18 227.97,-18 227.97,0 276.44,0 276.44,-18"/>
<text text-anchor="middle" x="252.21" y="-6" font-family="Helvetica,sans-Serif" font-size="10.00">cassert</text>
</a>
</g>
</g>
<!-- Node1&#45;&gt;Node4 -->
<g id="edge3_Node000001_Node000004" class="edge">
<title>Node1&#45;&gt;Node4</title>
<g id="a_edge3_Node000001_Node000004"><a xlink:title=" ">
<path fill="none" stroke="#63b8ff" d="M593.15,-58.78C533.27,-52.86 405.06,-39.05 286.62,-17.87"/>
<polygon fill="#63b8ff" stroke="#63b8ff" points="287.12,-14.41 276.66,-16.07 285.87,-21.3 287.12,-14.41"/>
</a>
</g>
</g>
<!-- Node5 -->
<g id="Node000005" class="node">
<title>Node5</title>
<g id="a_Node000005"><a xlink:title=" ">
<polygon fill="#e0e0e0" stroke="#999999" points="353.51,-18 294.9,-18 294.9,0 353.51,0 353.51,-18"/>
<text text-anchor="middle" x="324.21" y="-6" font-family="Helvetica,sans-Serif" font-size="10.00">functional</text>
</a>
</g>
</g>
<!-- Node1&#45;&gt;Node5 -->
<g id="edge4_Node000001_Node000005" class="edge">
<title>Node1&#45;&gt;Node5</title>
<g id="a_edge4_Node000001_Node000005"><a xlink:title=" ">
<path fill="none" stroke="#63b8ff" d="M593.38,-56.77C544.91,-49.2 452.64,-34.44 363.57,-18"/>
<polygon fill="#63b8ff" stroke="#63b8ff" points="364.04,-14.53 353.57,-16.15 362.76,-21.41 364.04,-14.53"/>
</a>
</g>
</g>
<!-- Node6 -->
<g id="Node000006" class="node">
<title>Node6</title>
<g id="a_Node000006"><a xlink:title=" ">
<polygon fill="#e0e0e0" stroke="#999999" points="426.55,-18 371.86,-18 371.86,0 426.55,0 426.55,-18"/>
<text text-anchor="middle" x="399.21" y="-6" font-family="Helvetica,sans-Serif" font-size="10.00">iostream</text>
</a>
</g>
</g>
<!-- Node1&#45;&gt;Node6 -->
<g id="edge5_Node000001_Node000006" class="edge">
<title>Node1&#45;&gt;Node6</title>
<g id="a_edge5_Node000001_Node000006"><a xlink:title=" ">
<path fill="none" stroke="#63b8ff" d="M593.07,-54.22C550.98,-44.61 479.69,-28.36 436.29,-18.46"/>
<polygon fill="#63b8ff" stroke="#63b8ff" points="436.94,-15.02 426.42,-16.21 435.39,-21.84 436.94,-15.02"/>
</a>
</g>
</g>
<!-- Node7 -->
<g id="Node000007" class="node">
<title>Node7</title>
<g id="a_Node000007"><a xlink:title=" ">
<polygon fill="#e0e0e0" stroke="#999999" points="480.16,-18 444.25,-18 444.25,0 480.16,0 480.16,-18"/>
<text text-anchor="middle" x="462.21" y="-6" font-family="Helvetica,sans-Serif" font-size="10.00">map</text>
</a>
</g>
</g>
<!-- Node1&#45;&gt;Node7 -->
<g id="edge6_Node000001_Node000007" class="edge">
<title>Node1&#45;&gt;Node7</title>
<g id="a_edge6_Node000001_Node000007"><a xlink:title=" ">
<path fill="none" stroke="#63b8ff" d="M601.79,-53.99C571.57,-44.47 521.33,-28.63 490.08,-18.78"/>
<polygon fill="#63b8ff" stroke="#63b8ff" points="490.85,-15.36 480.26,-15.69 488.75,-22.04 490.85,-15.36"/>
</a>
</g>
</g>
<!-- Node8 -->
<g id="Node000008" class="node">
<title>Node8</title>
<g id="a_Node000008"><a xlink:title=" ">
<polygon fill="#e0e0e0" stroke="#999999" points="550.32,-18 498.09,-18 498.09,0 550.32,0 550.32,-18"/>
<text text-anchor="middle" x="524.21" y="-6" font-family="Helvetica,sans-Serif" font-size="10.00">memory</text>
</a>
</g>
</g>
<!-- Node1&#45;&gt;Node8 -->
<g id="edge7_Node000001_Node000008" class="edge">
<title>Node1&#45;&gt;Node8</title>
<g id="a_edge7_Node000001_Node000008"><a xlink:title=" ">
<path fill="none" stroke="#63b8ff" d="M611.11,-53.88C594.56,-45.52 568.55,-32.39 549.29,-22.66"/>
<polygon fill="#63b8ff" stroke="#63b8ff" points="550.69,-19.45 540.19,-18.07 547.54,-25.7 550.69,-19.45"/>
</a>
</g>
</g>
<!-- Node9 -->
<g id="Node000009" class="node">
<title>Node9</title>
<g id="a_Node000009"><a xlink:title=" ">
<polygon fill="#e0e0e0" stroke="#999999" points="619.74,-18 568.68,-18 568.68,0 619.74,0 619.74,-18"/>
<text text-anchor="middle" x="594.21" y="-6" font-family="Helvetica,sans-Serif" font-size="10.00">optional</text>
</a>
</g>
</g>
<!-- Node1&#45;&gt;Node9 -->
<g id="edge8_Node000001_Node000009" class="edge">
<title>Node1&#45;&gt;Node9</title>
<g id="a_edge8_Node000001_Node000009"><a xlink:title=" ">
<path fill="none" stroke="#63b8ff" d="M622.05,-53.88C617.48,-46.67 610.65,-35.91 604.9,-26.85"/>
<polygon fill="#63b8ff" stroke="#63b8ff" points="607.75,-24.81 599.44,-18.24 601.84,-28.56 607.75,-24.81"/>
</a>
</g>
</g>
<!-- Node10 -->
<g id="Node000010" class="node">
<title>Node10</title>
<g id="a_Node000010"><a xlink:title=" ">
<polygon fill="#e0e0e0" stroke="#999999" points="684.28,-18 638.13,-18 638.13,0 684.28,0 684.28,-18"/>
<text text-anchor="middle" x="661.21" y="-6" font-family="Helvetica,sans-Serif" font-size="10.00">ranges</text>
</a>
</g>
</g>
<!-- Node1&#45;&gt;Node10 -->
<g id="edge9_Node000001_Node000010" class="edge">
<title>Node1&#45;&gt;Node10</title>
<g id="a_edge9_Node000001_Node000010"><a xlink:title=" ">
<path fill="none" stroke="#63b8ff" d="M632.52,-53.88C637.23,-46.67 644.27,-35.91 650.19,-26.85"/>
<polygon fill="#63b8ff" stroke="#63b8ff" points="653.28,-28.52 655.82,-18.24 647.42,-24.69 653.28,-28.52"/>
</a>
</g>
</g>
<!-- Node11 -->
<g id="Node000011" class="node">
<title>Node11</title>
<g id="a_Node000011"><a xlink:title=" ">
<polygon fill="#e0e0e0" stroke="#999999" points="732.05,-18 702.36,-18 702.36,0 732.05,0 732.05,-18"/>
<text text-anchor="middle" x="717.21" y="-6" font-family="Helvetica,sans-Serif" font-size="10.00">set</text>
</a>
</g>
</g>
<!-- Node1&#45;&gt;Node11 -->
<g id="edge10_Node000001_Node000011" class="edge">
<title>Node1&#45;&gt;Node11</title>
<g id="a_edge10_Node000001_Node000011"><a xlink:title=" ">
<path fill="none" stroke="#63b8ff" d="M641.27,-53.88C655.4,-45.71 677.43,-32.98 694.13,-23.33"/>
<polygon fill="#63b8ff" stroke="#63b8ff" points="696.34,-26.1 703.24,-18.07 692.83,-20.04 696.34,-26.1"/>
</a>
</g>
</g>
<!-- Node12 -->
<g id="Node000012" class="node">
<title>Node12</title>
<g id="a_Node000012"><a xlink:title=" ">
<polygon fill="#e0e0e0" stroke="#999999" points="836.25,-18 750.16,-18 750.16,0 836.25,0 836.25,-18"/>
<text text-anchor="middle" x="793.21" y="-6" font-family="Helvetica,sans-Serif" font-size="10.00">source_location</text>
</a>
</g>
</g>
<!-- Node1&#45;&gt;Node12 -->
<g id="edge11_Node000001_Node000012" class="edge">
<title>Node1&#45;&gt;Node12</title>
<g id="a_edge11_Node000001_Node000012"><a xlink:title=" ">
<path fill="none" stroke="#63b8ff" d="M652.78,-53.99C680.93,-45.17 726.36,-30.94 757.89,-21.06"/>
<polygon fill="#63b8ff" stroke="#63b8ff" points="759.11,-24.35 767.6,-18.02 757.01,-17.67 759.11,-24.35"/>
</a>
</g>
</g>
<!-- Node13 -->
<g id="Node000013" class="node">
<title>Node13</title>
<g id="a_Node000013"><a xlink:title=" ">
<polygon fill="#e0e0e0" stroke="#999999" points="912.51,-18 853.9,-18 853.9,0 912.51,0 912.51,-18"/>
<text text-anchor="middle" x="883.21" y="-6" font-family="Helvetica,sans-Serif" font-size="10.00">stdexcept</text>
</a>
</g>
</g>
<!-- Node1&#45;&gt;Node13 -->
<g id="edge12_Node000001_Node000013" class="edge">
<title>Node1&#45;&gt;Node13</title>
<g id="a_edge12_Node000001_Node000013"><a xlink:title=" ">
<path fill="none" stroke="#63b8ff" d="M661.21,-55.23C702.19,-47.05 773.4,-32.77 843.82,-18.27"/>
<polygon fill="#63b8ff" stroke="#63b8ff" points="844.67,-21.67 853.75,-16.23 843.25,-14.82 844.67,-21.67"/>
</a>
</g>
</g>
<!-- Node14 -->
<g id="Node000014" class="node">
<title>Node14</title>
<g id="a_Node000014"><a xlink:title=" ">
<polygon fill="#e0e0e0" stroke="#999999" points="971.66,-18 930.75,-18 930.75,0 971.66,0 971.66,-18"/>
<text text-anchor="middle" x="951.21" y="-6" font-family="Helvetica,sans-Serif" font-size="10.00">string</text>
</a>
</g>
</g>
<!-- Node1&#45;&gt;Node14 -->
<g id="edge13_Node000001_Node000014" class="edge">
<title>Node1&#45;&gt;Node14</title>
<g id="a_edge13_Node000001_Node000014"><a xlink:title=" ">
<path fill="none" stroke="#63b8ff" d="M660.93,-58.2C715.81,-51.74 827.72,-37.4 921.21,-18 921.31,-17.98 921.4,-17.96 921.5,-17.94"/>
<polygon fill="#63b8ff" stroke="#63b8ff" points="922.01,-21.42 930.95,-15.73 920.41,-14.6 922.01,-21.42"/>
</a>
</g>
</g>
<!-- Node15 -->
<g id="Node000015" class="node">
<title>Node15</title>
<g id="a_Node000015"><a xlink:title=" ">
<polygon fill="#e0e0e0" stroke="#999999" points="1026.89,-18 989.52,-18 989.52,0 1026.89,0 1026.89,-18"/>
<text text-anchor="middle" x="1008.21" y="-6" font-family="Helvetica,sans-Serif" font-size="10.00">tuple</text>
</a>
</g>
</g>
<!-- Node1&#45;&gt;Node15 -->
<g id="edge14_Node000001_Node000015" class="edge">
<title>Node1&#45;&gt;Node15</title>
<g id="a_edge14_Node000001_Node000015"><a xlink:title=" ">
<path fill="none" stroke="#63b8ff" d="M661.07,-59.53C722.62,-54.66 856.99,-42.3 979.41,-17.84"/>
<polygon fill="#63b8ff" stroke="#63b8ff" points="980.22,-21.24 989.33,-15.82 978.83,-14.38 980.22,-21.24"/>
</a>
</g>
</g>
<!-- Node16 -->
<g id="Node000016" class="node">
<title>Node16</title>
<g id="a_Node000016"><a xlink:title=" ">
<polygon fill="#e0e0e0" stroke="#999999" points="1091.22,-18 1045.19,-18 1045.19,0 1091.22,0 1091.22,-18"/>
<text text-anchor="middle" x="1068.21" y="-6" font-family="Helvetica,sans-Serif" font-size="10.00">variant</text>
</a>
</g>
</g>
<!-- Node1&#45;&gt;Node16 -->
<g id="edge15_Node000001_Node000016" class="edge">
<title>Node1&#45;&gt;Node16</title>
<g id="a_edge15_Node000001_Node000016"><a xlink:title=" ">
<path fill="none" stroke="#63b8ff" d="M661.1,-59.94C729.85,-55.42 890.77,-43.12 1034.96,-17.98"/>
<polygon fill="#63b8ff" stroke="#63b8ff" points="1035.63,-21.42 1044.87,-16.23 1034.41,-14.52 1035.63,-21.42"/>
</a>
</g>
</g>
<!-- Node17 -->
<g id="Node000017" class="node">
<title>Node17</title>
<g id="a_Node000017"><a xlink:title=" ">
<polygon fill="#e0e0e0" stroke="#999999" points="1152.94,-18 1109.47,-18 1109.47,0 1152.94,0 1152.94,-18"/>
<text text-anchor="middle" x="1131.21" y="-6" font-family="Helvetica,sans-Serif" font-size="10.00">vector</text>
</a>
</g>
</g>
<!-- Node1&#45;&gt;Node17 -->
<g id="edge16_Node000001_Node000017" class="edge">
<title>Node1&#45;&gt;Node17</title>
<g id="a_edge16_Node000001_Node000017"><a xlink:title=" ">
<path fill="none" stroke="#63b8ff" d="M661,-60.71C737.46,-57.4 929.6,-46.86 1099.42,-17.83"/>
<polygon fill="#63b8ff" stroke="#63b8ff" points="1100.03,-21.28 1109.29,-16.12 1098.83,-14.38 1100.03,-21.28"/>
</a>
</g>
</g>
</g>
</svg>
