<?xml version="1.0" encoding="UTF-8" standalone="no"?>
<!DOCTYPE svg PUBLIC "-//W3C//DTD SVG 1.1//EN"
 "http://www.w3.org/Graphics/SVG/1.1/DTD/svg11.dtd">
<!-- Generated by graphviz version 2.48.0 (20210717.1556)
 -->
<!-- Title: options.hpp Pages: 1 -->
<svg width="1008pt" height="80pt"
 viewBox="0.00 0.00 1008.18 80.00" xmlns="http://www.w3.org/2000/svg" xmlns:xlink="http://www.w3.org/1999/xlink">
<g id="graph0" class="graph" transform="scale(1 1) rotate(0) translate(4 76)">
<title>options.hpp</title>
<!-- Node1 -->
<g id="Node000001" class="node">
<title>Node1</title>
<g id="a_Node000001"><a xlink:title=" ">
<polygon fill="#999999" stroke="#666666" points="542.27,-72 474.85,-72 474.85,-54 542.27,-54 542.27,-72"/>
<text text-anchor="middle" x="508.56" y="-60" font-family="Helvetica,sans-Serif" font-size="10.00">options.hpp</text>
</a>
</g>
</g>
<!-- Node2 -->
<g id="Node000002" class="node">
<title>Node2</title>
<g id="a_Node000002"><a xlink:title=" ">
<polygon fill="#e0e0e0" stroke="#999999" points="57.19,-18 -0.06,-18 -0.06,0 57.19,0 57.19,-18"/>
<text text-anchor="middle" x="28.56" y="-6" font-family="Helvetica,sans-Serif" font-size="10.00">algorithm</text>
</a>
</g>
</g>
<!-- Node1&#45;&gt;Node2 -->
<g id="edge1_Node000001_Node000002" class="edge">
<title>Node1&#45;&gt;Node2</title>
<g id="a_edge1_Node000001_Node000002"><a xlink:title=" ">
<path fill="none" stroke="#63b8ff" d="M474.58,-59.88C401.79,-55.06 225.28,-41.94 67.05,-17.89"/>
<polygon fill="#63b8ff" stroke="#63b8ff" points="67.55,-14.42 57.14,-16.36 66.49,-21.34 67.55,-14.42"/>
</a>
</g>
</g>
<!-- Node3 -->
<g id="Node000003" class="node">
<title>Node3</title>
<g id="a_Node000003"><a xlink:title=" ">
<polygon fill="#e0e0e0" stroke="#999999" points="123.8,-18 75.33,-18 75.33,0 123.8,0 123.8,-18"/>
<text text-anchor="middle" x="99.56" y="-6" font-family="Helvetica,sans-Serif" font-size="10.00">cassert</text>
</a>
</g>
</g>
<!-- Node1&#45;&gt;Node3 -->
<g id="edge2_Node000001_Node000003" class="edge">
<title>Node1&#45;&gt;Node3</title>
<g id="a_edge2_Node000001_Node000003"><a xlink:title=" ">
<path fill="none" stroke="#63b8ff" d="M474.76,-59.34C410.42,-53.99 265.78,-40.63 133.89,-17.83"/>
<polygon fill="#63b8ff" stroke="#63b8ff" points="134.46,-14.38 124.01,-16.1 133.26,-21.28 134.46,-14.38"/>
</a>
</g>
</g>
<!-- Node4 -->
<g id="Node000004" class="node">
<title>Node4</title>
<g id="a_Node000004"><a xlink:title=" ">
<polygon fill="#e0e0e0" stroke="#999999" points="200.87,-18 142.26,-18 142.26,0 200.87,0 200.87,-18"/>
<text text-anchor="middle" x="171.56" y="-6" font-family="Helvetica,sans-Serif" font-size="10.00">functional</text>
</a>
</g>
</g>
<!-- Node1&#45;&gt;Node4 -->
<g id="edge3_Node000001_Node000004" class="edge">
<title>Node1&#45;&gt;Node4</title>
<g id="a_edge3_Node000001_Node000004"><a xlink:title=" ">
<path fill="none" stroke="#63b8ff" d="M474.5,-57.6C420.77,-50.52 312.86,-35.75 210.78,-17.94"/>
<polygon fill="#63b8ff" stroke="#63b8ff" points="211.37,-14.49 200.92,-16.2 210.16,-21.38 211.37,-14.49"/>
</a>
</g>
</g>
<!-- Node5 -->
<g id="Node000005" class="node">
<title>Node5</title>
<g id="a_Node000005"><a xlink:title=" ">
<polygon fill="#e0e0e0" stroke="#999999" points="273.91,-18 219.22,-18 219.22,0 273.91,0 273.91,-18"/>
<text text-anchor="middle" x="246.56" y="-6" font-family="Helvetica,sans-Serif" font-size="10.00">iostream</text>
</a>
</g>
</g>
<!-- Node1&#45;&gt;Node5 -->
<g id="edge4_Node000001_Node000005" class="edge">
<title>Node1&#45;&gt;Node5</title>
<g id="a_edge4_Node000001_Node000005"><a xlink:title=" ">
<path fill="none" stroke="#63b8ff" d="M474.81,-55.72C432.49,-47.77 357.46,-33.49 283.95,-18.25"/>
<polygon fill="#63b8ff" stroke="#63b8ff" points="284.57,-14.8 274.07,-16.19 283.14,-21.65 284.57,-14.8"/>
</a>
</g>
</g>
<!-- Node6 -->
<g id="Node000006" class="node">
<title>Node6</title>
<g id="a_Node000006"><a xlink:title=" ">
<polygon fill="#e0e0e0" stroke="#999999" points="327.52,-18 291.61,-18 291.61,0 327.52,0 327.52,-18"/>
<text text-anchor="middle" x="309.56" y="-6" font-family="Helvetica,sans-Serif" font-size="10.00">map</text>
</a>
</g>
</g>
<!-- Node1&#45;&gt;Node6 -->
<g id="edge5_Node000001_Node000006" class="edge">
<title>Node1&#45;&gt;Node6</title>
<g id="a_edge5_Node000001_Node000006"><a xlink:title=" ">
<path fill="none" stroke="#63b8ff" d="M475.49,-53.93C442.76,-45.86 390.98,-32.86 337.24,-18.11"/>
<polygon fill="#63b8ff" stroke="#63b8ff" points="338.12,-14.72 327.55,-15.43 336.25,-21.46 338.12,-14.72"/>
</a>
</g>
</g>
<!-- Node7 -->
<g id="Node000007" class="node">
<title>Node7</title>
<g id="a_Node000007"><a xlink:title=" ">
<polygon fill="#e0e0e0" stroke="#999999" points="397.68,-18 345.45,-18 345.45,0 397.68,0 397.68,-18"/>
<text text-anchor="middle" x="371.56" y="-6" font-family="Helvetica,sans-Serif" font-size="10.00">memory</text>
</a>
</g>
</g>
<!-- Node1&#45;&gt;Node7 -->
<g id="edge6_Node000001_Node000007" class="edge">
<title>Node1&#45;&gt;Node7</title>
<g id="a_edge6_Node000001_Node000007"><a xlink:title=" ">
<path fill="none" stroke="#63b8ff" d="M487.46,-53.99C464.7,-45.35 428.24,-31.51 402.3,-21.67"/>
<polygon fill="#63b8ff" stroke="#63b8ff" points="403.51,-18.38 392.92,-18.11 401.03,-24.93 403.51,-18.38"/>
</a>
</g>
</g>
<!-- Node8 -->
<g id="Node000008" class="node">
<title>Node8</title>
<g id="a_Node000008"><a xlink:title=" ">
<polygon fill="#e0e0e0" stroke="#999999" points="467.09,-18 416.03,-18 416.03,0 467.09,0 467.09,-18"/>
<text text-anchor="middle" x="441.56" y="-6" font-family="Helvetica,sans-Serif" font-size="10.00">optional</text>
</a>
</g>
</g>
<!-- Node1&#45;&gt;Node8 -->
<g id="edge7_Node000001_Node000008" class="edge">
<title>Node1&#45;&gt;Node8</title>
<g id="a_edge7_Node000001_Node000008"><a xlink:title=" ">
<path fill="none" stroke="#63b8ff" d="M498.1,-53.88C488.03,-46.06 472.58,-34.07 460.37,-24.6"/>
<polygon fill="#63b8ff" stroke="#63b8ff" points="462.23,-21.61 452.18,-18.24 457.93,-27.14 462.23,-21.61"/>
</a>
</g>
</g>
<!-- Node9 -->
<g id="Node000009" class="node">
<title>Node9</title>
<g id="a_Node000009"><a xlink:title=" ">
<polygon fill="#e0e0e0" stroke="#999999" points="531.64,-18 485.49,-18 485.49,0 531.64,0 531.64,-18"/>
<text text-anchor="middle" x="508.56" y="-6" font-family="Helvetica,sans-Serif" font-size="10.00">ranges</text>
</a>
</g>
</g>
<!-- Node1&#45;&gt;Node9 -->
<g id="edge8_Node000001_Node000009" class="edge">
<title>Node1&#45;&gt;Node9</title>
<g id="a_edge8_Node000001_Node000009"><a xlink:title=" ">
<path fill="none" stroke="#63b8ff" d="M508.56,-53.88C508.56,-47.05 508.56,-37.03 508.56,-28.29"/>
<polygon fill="#63b8ff" stroke="#63b8ff" points="512.06,-28.24 508.56,-18.24 505.06,-28.24 512.06,-28.24"/>
</a>
</g>
</g>
<!-- Node10 -->
<g id="Node000010" class="node">
<title>Node10</title>
<g id="a_Node000010"><a xlink:title=" ">
<polygon fill="#e0e0e0" stroke="#999999" points="579.41,-18 549.72,-18 549.72,0 579.41,0 579.41,-18"/>
<text text-anchor="middle" x="564.56" y="-6" font-family="Helvetica,sans-Serif" font-size="10.00">set</text>
</a>
</g>
</g>
<!-- Node1&#45;&gt;Node10 -->
<g id="edge9_Node000001_Node000010" class="edge">
<title>Node1&#45;&gt;Node10</title>
<g id="a_edge9_Node000001_Node000010"><a xlink:title=" ">
<path fill="none" stroke="#63b8ff" d="M517.31,-53.88C525.57,-46.21 538.14,-34.53 548.25,-25.15"/>
<polygon fill="#63b8ff" stroke="#63b8ff" points="550.74,-27.61 555.69,-18.24 545.98,-22.48 550.74,-27.61"/>
</a>
</g>
</g>
<!-- Node11 -->
<g id="Node000011" class="node">
<title>Node11</title>
<g id="a_Node000011"><a xlink:title=" ">
<polygon fill="#e0e0e0" stroke="#999999" points="683.61,-18 597.52,-18 597.52,0 683.61,0 683.61,-18"/>
<text text-anchor="middle" x="640.56" y="-6" font-family="Helvetica,sans-Serif" font-size="10.00">source_location</text>
</a>
</g>
</g>
<!-- Node1&#45;&gt;Node11 -->
<g id="edge10_Node000001_Node000011" class="edge">
<title>Node1&#45;&gt;Node11</title>
<g id="a_edge10_Node000001_Node000011"><a xlink:title=" ">
<path fill="none" stroke="#63b8ff" d="M528.9,-53.99C550.73,-45.39 585.65,-31.63 610.62,-21.8"/>
<polygon fill="#63b8ff" stroke="#63b8ff" points="611.97,-25.03 619.99,-18.11 609.4,-18.51 611.97,-25.03"/>
</a>
</g>
</g>
<!-- Node12 -->
<g id="Node000012" class="node">
<title>Node12</title>
<g id="a_Node000012"><a xlink:title=" ">
<polygon fill="#e0e0e0" stroke="#999999" points="759.87,-18 701.26,-18 701.26,0 759.87,0 759.87,-18"/>
<text text-anchor="middle" x="730.56" y="-6" font-family="Helvetica,sans-Serif" font-size="10.00">stdexcept</text>
</a>
</g>
</g>
<!-- Node1&#45;&gt;Node12 -->
<g id="edge11_Node000001_Node000012" class="edge">
<title>Node1&#45;&gt;Node12</title>
<g id="a_edge11_Node000001_Node000012"><a xlink:title=" ">
<path fill="none" stroke="#63b8ff" d="M542.28,-54.1C582.29,-44.73 648.88,-29.13 691.2,-19.22"/>
<polygon fill="#63b8ff" stroke="#63b8ff" points="692.21,-22.58 701.15,-16.89 690.62,-15.76 692.21,-22.58"/>
</a>
</g>
</g>
<!-- Node13 -->
<g id="Node000013" class="node">
<title>Node13</title>
<g id="a_Node000013"><a xlink:title=" ">
<polygon fill="#e0e0e0" stroke="#999999" points="819.02,-18 778.11,-18 778.11,0 819.02,0 819.02,-18"/>
<text text-anchor="middle" x="798.56" y="-6" font-family="Helvetica,sans-Serif" font-size="10.00">string</text>
</a>
</g>
</g>
<!-- Node1&#45;&gt;Node13 -->
<g id="edge12_Node000001_Node000013" class="edge">
<title>Node1&#45;&gt;Node13</title>
<g id="a_edge12_Node000001_Node000013"><a xlink:title=" ">
<path fill="none" stroke="#63b8ff" d="M542.41,-57.3C592.21,-50.15 688.04,-35.51 768.56,-18 768.66,-17.98 768.76,-17.96 768.86,-17.94"/>
<polygon fill="#63b8ff" stroke="#63b8ff" points="769.38,-21.41 778.29,-15.68 767.75,-14.6 769.38,-21.41"/>
</a>
</g>
</g>
<!-- Node14 -->
<g id="Node000014" class="node">
<title>Node14</title>
<g id="a_Node000014"><a xlink:title=" ">
<polygon fill="#e0e0e0" stroke="#999999" points="874.25,-18 836.88,-18 836.88,0 874.25,0 874.25,-18"/>
<text text-anchor="middle" x="855.56" y="-6" font-family="Helvetica,sans-Serif" font-size="10.00">tuple</text>
</a>
</g>
</g>
<!-- Node1&#45;&gt;Node14 -->
<g id="edge13_Node000001_Node000014" class="edge">
<title>Node1&#45;&gt;Node14</title>
<g id="a_edge13_Node000001_Node000014"><a xlink:title=" ">
<path fill="none" stroke="#63b8ff" d="M542.36,-58.92C599.17,-53.41 717.52,-40.46 826.81,-17.86"/>
<polygon fill="#63b8ff" stroke="#63b8ff" points="827.61,-21.27 836.68,-15.79 826.17,-14.42 827.61,-21.27"/>
</a>
</g>
</g>
<!-- Node15 -->
<g id="Node000015" class="node">
<title>Node15</title>
<g id="a_Node000015"><a xlink:title=" ">
<polygon fill="#e0e0e0" stroke="#999999" points="938.58,-18 892.55,-18 892.55,0 938.58,0 938.58,-18"/>
<text text-anchor="middle" x="915.56" y="-6" font-family="Helvetica,sans-Serif" font-size="10.00">variant</text>
</a>
</g>
</g>
<!-- Node1&#45;&gt;Node15 -->
<g id="edge14_Node000001_Node000015" class="edge">
<title>Node1&#45;&gt;Node15</title>
<g id="a_edge14_Node000001_Node000015"><a xlink:title=" ">
<path fill="none" stroke="#63b8ff" d="M542.39,-59.49C606.72,-54.41 751.21,-41.5 882.03,-18.06"/>
<polygon fill="#63b8ff" stroke="#63b8ff" points="883.01,-21.44 892.22,-16.2 881.76,-14.55 883.01,-21.44"/>
</a>
</g>
</g>
<!-- Node16 -->
<g id="Node000016" class="node">
<title>Node16</title>
<g id="a_Node000016"><a xlink:title=" ">
<polygon fill="#e0e0e0" stroke="#999999" points="1000.3,-18 956.83,-18 956.83,0 1000.3,0 1000.3,-18"/>
<text text-anchor="middle" x="978.56" y="-6" font-family="Helvetica,sans-Serif" font-size="10.00">vector</text>
</a>
</g>
</g>
<!-- Node1&#45;&gt;Node16 -->
<g id="edge15_Node000001_Node000016" class="edge">
<title>Node1&#45;&gt;Node16</title>
<g id="a_edge15_Node000001_Node000016"><a xlink:title=" ">
<path fill="none" stroke="#63b8ff" d="M542.4,-60.37C614.79,-56.51 790.12,-45.16 946.38,-17.92"/>
<polygon fill="#63b8ff" stroke="#63b8ff" points="947.4,-21.29 956.64,-16.1 946.18,-14.4 947.4,-21.29"/>
</a>
</g>
</g>
</g>
</svg>
