<?xml version="1.0" encoding="UTF-8" standalone="no"?>
<!DOCTYPE svg PUBLIC "-//W3C//DTD SVG 1.1//EN"
 "http://www.w3.org/Graphics/SVG/1.1/DTD/svg11.dtd">
<!-- Generated by graphviz version 2.48.0 (20210717.1556)
 -->
<!-- Title: options.hpp Pages: 1 -->
<svg width="168pt" height="134pt"
 viewBox="0.00 0.00 167.58 134.00" xmlns="http://www.w3.org/2000/svg" xmlns:xlink="http://www.w3.org/1999/xlink">
<g id="graph0" class="graph" transform="scale(1 1) rotate(0) translate(4 130)">
<title>options.hpp</title>
<!-- Node1 -->
<g id="Node000001" class="node">
<title>Node1</title>
<g id="a_Node000001"><a xlink:title=" ">
<polygon fill="#999999" stroke="#666666" points="104.79,-126 37.37,-126 37.37,-108 104.79,-108 104.79,-126"/>
<text text-anchor="middle" x="71.08" y="-114" font-family="Helvetica,sans-Serif" font-size="10.00">options.hpp</text>
</a>
</g>
</g>
<!-- Node2 -->
<g id="Node000002" class="node">
<title>Node2</title>
<g id="a_Node000002"><a xlink:href="binder_8cpp.html" target="_top" xlink:title=" ">
<polygon fill="white" stroke="#666666" points="62.23,-18 -0.08,-18 -0.08,0 62.23,0 62.23,-18"/>
<text text-anchor="middle" x="31.08" y="-6" font-family="Helvetica,sans-Serif" font-size="10.00">binder.cpp</text>
</a>
</g>
</g>
<!-- Node1&#45;&gt;Node2 -->
<g id="edge1_Node000001_Node000002" class="edge">
<title>Node1&#45;&gt;Node2</title>
<g id="a_edge1_Node000001_Node000002"><a xlink:title=" ">
<path fill="none" stroke="#63b8ff" d="M44.9,-102.96C33.19,-95.61 20.58,-85.23 14.08,-72 5.22,-53.97 17.22,-30.64 25.13,-18.38"/>
<polygon fill="#63b8ff" stroke="#63b8ff" points="43.15,-105.99 53.56,-107.98 46.66,-99.94 43.15,-105.99"/>
</a>
</g>
</g>
<!-- Node3 -->
<g id="Node000003" class="node">
<title>Node3</title>
<g id="a_Node000003"><a xlink:href="comic_8cpp.html" target="_top" xlink:title=" ">
<polygon fill="white" stroke="#666666" points="159.59,-18 98.56,-18 98.56,0 159.59,0 159.59,-18"/>
<text text-anchor="middle" x="129.08" y="-6" font-family="Helvetica,sans-Serif" font-size="10.00">comic.cpp</text>
</a>
</g>
</g>
<!-- Node1&#45;&gt;Node3 -->
<g id="edge2_Node000001_Node000003" class="edge">
<title>Node1&#45;&gt;Node3</title>
<g id="a_edge2_Node000001_Node000003"><a xlink:title=" ">
<path fill="none" stroke="#63b8ff" d="M97.16,-102.91C108.85,-95.55 121.47,-85.18 128.08,-72 136.86,-54.49 133.66,-30.54 131.08,-18.16"/>
<polygon fill="#63b8ff" stroke="#63b8ff" points="95.4,-99.89 88.52,-107.95 98.93,-105.94 95.4,-99.89"/>
</a>
</g>
</g>
<!-- Node4 -->
<g id="Node000004" class="node">
<title>Node4</title>
<g id="a_Node000004"><a xlink:href="epub__options_8hpp.html" target="_top" xlink:title=" ">
<polygon fill="white" stroke="#666666" points="118.59,-72 23.56,-72 23.56,-54 118.59,-54 118.59,-72"/>
<text text-anchor="middle" x="71.08" y="-60" font-family="Helvetica,sans-Serif" font-size="10.00">epub_options.hpp</text>
</a>
</g>
</g>
<!-- Node1&#45;&gt;Node4 -->
<g id="edge3_Node000001_Node000004" class="edge">
<title>Node1&#45;&gt;Node4</title>
<g id="a_edge3_Node000001_Node000004"><a xlink:title=" ">
<path fill="none" stroke="#63b8ff" d="M71.08,-97.86C71.08,-89.13 71.08,-79.1 71.08,-72.24"/>
<polygon fill="#63b8ff" stroke="#63b8ff" points="67.58,-97.87 71.08,-107.88 74.58,-97.88 67.58,-97.87"/>
</a>
</g>
</g>
<!-- Node4&#45;&gt;Node2 -->
<g id="edge4_Node000004_Node000002" class="edge">
<title>Node4&#45;&gt;Node2</title>
<g id="a_edge4_Node000004_Node000002"><a xlink:title=" ">
<path fill="none" stroke="#63b8ff" d="M58.67,-45.87C51.62,-36.71 43.11,-25.64 37.41,-18.24"/>
<polygon fill="#63b8ff" stroke="#63b8ff" points="55.95,-48.08 64.83,-53.88 61.5,-43.81 55.95,-48.08"/>
</a>
</g>
</g>
<!-- Node4&#45;&gt;Node3 -->
<g id="edge5_Node000004_Node000003" class="edge">
<title>Node4&#45;&gt;Node3</title>
<g id="a_edge5_Node000004_Node000003"><a xlink:title=" ">
<path fill="none" stroke="#63b8ff" d="M87.82,-46.99C98.26,-37.63 111.29,-25.94 119.89,-18.24"/>
<polygon fill="#63b8ff" stroke="#63b8ff" points="85.25,-44.59 80.14,-53.88 89.92,-49.81 85.25,-44.59"/>
</a>
</g>
</g>
</g>
</svg>
