<?xml version="1.0" encoding="UTF-8" standalone="no"?>
<!DOCTYPE svg PUBLIC "-//W3C//DTD SVG 1.1//EN"
 "http://www.w3.org/Graphics/SVG/1.1/DTD/svg11.dtd">
<!-- Generated by graphviz version 2.48.0 (20210717.1556)
 -->
<!-- Title: package.hpp Pages: 1 -->
<svg width="665pt" height="242pt"
 viewBox="0.00 0.00 664.69 242.00" xmlns="http://www.w3.org/2000/svg" xmlns:xlink="http://www.w3.org/1999/xlink">
<g id="graph0" class="graph" transform="scale(1 1) rotate(0) translate(4 238)">
<title>package.hpp</title>
<!-- Node1 -->
<g id="Node000001" class="node">
<title>Node1</title>
<g id="a_Node000001"><a xlink:title=" ">
<polygon fill="#999999" stroke="#666666" points="290.06,-234 216.52,-234 216.52,-216 290.06,-216 290.06,-234"/>
<text text-anchor="middle" x="253.29" y="-222" font-family="Helvetica,sans-Serif" font-size="10.00">package.hpp</text>
</a>
</g>
</g>
<!-- Node2 -->
<g id="Node000002" class="node">
<title>Node2</title>
<g id="a_Node000002"><a xlink:href="manifest_8hpp.html" target="_top" xlink:title=" ">
<polygon fill="white" stroke="#666666" points="370.04,-126 296.53,-126 296.53,-108 370.04,-108 370.04,-126"/>
<text text-anchor="middle" x="333.29" y="-114" font-family="Helvetica,sans-Serif" font-size="10.00">manifest.hpp</text>
</a>
</g>
</g>
<!-- Node1&#45;&gt;Node2 -->
<g id="edge1_Node000001_Node000002" class="edge">
<title>Node1&#45;&gt;Node2</title>
<g id="a_edge1_Node000001_Node000002"><a xlink:title=" ">
<path fill="none" stroke="#63b8ff" d="M259.57,-215.68C272.77,-198.19 303.61,-157.32 320.93,-134.37"/>
<polygon fill="#63b8ff" stroke="#63b8ff" points="323.81,-136.37 327.04,-126.28 318.22,-132.15 323.81,-136.37"/>
</a>
</g>
</g>
<!-- Node7 -->
<g id="Node000007" class="node">
<title>Node7</title>
<g id="a_Node000007"><a xlink:title=" ">
<polygon fill="#e0e0e0" stroke="#999999" points="239.74,-72 178.83,-72 178.83,-54 239.74,-54 239.74,-72"/>
<text text-anchor="middle" x="209.29" y="-60" font-family="Helvetica,sans-Serif" font-size="10.00">filesystem</text>
</a>
</g>
</g>
<!-- Node1&#45;&gt;Node7 -->
<g id="edge26_Node000001_Node000007" class="edge">
<title>Node1&#45;&gt;Node7</title>
<g id="a_edge26_Node000001_Node000007"><a xlink:title=" ">
<path fill="none" stroke="#63b8ff" d="M249.72,-215.78C242.64,-199.15 226.78,-160.19 218.29,-126 214.67,-111.45 212.34,-94.6 210.96,-82.14"/>
<polygon fill="#63b8ff" stroke="#63b8ff" points="214.44,-81.72 209.95,-72.12 207.47,-82.43 214.44,-81.72"/>
</a>
</g>
</g>
<!-- Node11 -->
<g id="Node000011" class="node">
<title>Node11</title>
<g id="a_Node000011"><a xlink:href="metadata_8hpp.html" target="_top" xlink:title=" ">
<polygon fill="white" stroke="#666666" points="141.95,-126 64.63,-126 64.63,-108 141.95,-108 141.95,-126"/>
<text text-anchor="middle" x="103.29" y="-114" font-family="Helvetica,sans-Serif" font-size="10.00">metadata.hpp</text>
</a>
</g>
</g>
<!-- Node1&#45;&gt;Node11 -->
<g id="edge11_Node000001_Node000011" class="edge">
<title>Node1&#45;&gt;Node11</title>
<g id="a_edge11_Node000001_Node000011"><a xlink:title=" ">
<path fill="none" stroke="#63b8ff" d="M240.06,-215.84C226.22,-207.21 203.95,-193.07 185.29,-180 162.96,-164.37 138.09,-145.32 121.66,-132.5"/>
<polygon fill="#63b8ff" stroke="#63b8ff" points="123.49,-129.49 113.46,-126.08 119.18,-135 123.49,-129.49"/>
</a>
</g>
</g>
<!-- Node13 -->
<g id="Node000013" class="node">
<title>Node13</title>
<g id="a_Node000013"><a xlink:href="spine_8hpp.html" target="_top" xlink:title=" ">
<polygon fill="white" stroke="#666666" points="500.16,-180 440.42,-180 440.42,-162 500.16,-162 500.16,-180"/>
<text text-anchor="middle" x="470.29" y="-168" font-family="Helvetica,sans-Serif" font-size="10.00">spine.hpp</text>
</a>
</g>
</g>
<!-- Node1&#45;&gt;Node13 -->
<g id="edge15_Node000001_Node000013" class="edge">
<title>Node1&#45;&gt;Node13</title>
<g id="a_edge15_Node000001_Node000013"><a xlink:title=" ">
<path fill="none" stroke="#63b8ff" d="M286.72,-215.99C325.41,-206.72 389.07,-191.46 430.34,-181.57"/>
<polygon fill="#63b8ff" stroke="#63b8ff" points="431.41,-184.92 440.32,-179.18 429.78,-178.11 431.41,-184.92"/>
</a>
</g>
</g>
<!-- Node17 -->
<g id="Node000017" class="node">
<title>Node17</title>
<g id="a_Node000017"><a xlink:href="xml_8hpp.html" target="_top" xlink:title=" ">
<polygon fill="white" stroke="#666666" points="278.8,-126 227.77,-126 227.77,-108 278.8,-108 278.8,-126"/>
<text text-anchor="middle" x="253.29" y="-114" font-family="Helvetica,sans-Serif" font-size="10.00">xml.hpp</text>
</a>
</g>
</g>
<!-- Node1&#45;&gt;Node17 -->
<g id="edge22_Node000001_Node000017" class="edge">
<title>Node1&#45;&gt;Node17</title>
<g id="a_edge22_Node000001_Node000017"><a xlink:title=" ">
<path fill="none" stroke="#63b8ff" d="M253.29,-215.68C253.29,-198.73 253.29,-159.83 253.29,-136.55"/>
<polygon fill="#63b8ff" stroke="#63b8ff" points="256.79,-136.28 253.29,-126.28 249.79,-136.28 256.79,-136.28"/>
</a>
</g>
</g>
<!-- Node3 -->
<g id="Node000003" class="node">
<title>Node3</title>
<g id="a_Node000003"><a xlink:href="file__metadata_8hpp.html" target="_top" xlink:title=" ">
<polygon fill="white" stroke="#666666" points="352.79,-72 257.78,-72 257.78,-54 352.79,-54 352.79,-72"/>
<text text-anchor="middle" x="305.29" y="-60" font-family="Helvetica,sans-Serif" font-size="10.00">file_metadata.hpp</text>
</a>
</g>
</g>
<!-- Node2&#45;&gt;Node3 -->
<g id="edge2_Node000002_Node000003" class="edge">
<title>Node2&#45;&gt;Node3</title>
<g id="a_edge2_Node000002_Node000003"><a xlink:title=" ">
<path fill="none" stroke="#63b8ff" d="M328.91,-107.88C325.07,-100.74 319.36,-90.13 314.51,-81.13"/>
<polygon fill="#63b8ff" stroke="#63b8ff" points="317.55,-79.38 309.72,-72.24 311.38,-82.7 317.55,-79.38"/>
</a>
</g>
</g>
<!-- Node4 -->
<g id="Node000004" class="node">
<title>Node4</title>
<g id="a_Node000004"><a xlink:title=" ">
<polygon fill="#e0e0e0" stroke="#999999" points="399.24,-18 363.33,-18 363.33,0 399.24,0 399.24,-18"/>
<text text-anchor="middle" x="381.29" y="-6" font-family="Helvetica,sans-Serif" font-size="10.00">map</text>
</a>
</g>
</g>
<!-- Node2&#45;&gt;Node4 -->
<g id="edge7_Node000002_Node000004" class="edge">
<title>Node2&#45;&gt;Node4</title>
<g id="a_edge7_Node000002_Node000004"><a xlink:title=" ">
<path fill="none" stroke="#63b8ff" d="M353.19,-107.95C367.78,-100.86 386.5,-89 395.29,-72 402.56,-57.92 397.27,-40.13 391.22,-27.22"/>
<polygon fill="#63b8ff" stroke="#63b8ff" points="394.17,-25.31 386.43,-18.07 387.97,-28.56 394.17,-25.31"/>
</a>
</g>
</g>
<!-- Node2&#45;&gt;Node7 -->
<g id="edge6_Node000002_Node000007" class="edge">
<title>Node2&#45;&gt;Node7</title>
<g id="a_edge6_Node000002_Node000007"><a xlink:title=" ">
<path fill="none" stroke="#63b8ff" d="M314.18,-107.99C293.86,-99.46 261.46,-85.88 238.04,-76.06"/>
<polygon fill="#63b8ff" stroke="#63b8ff" points="239.19,-72.75 228.62,-72.11 236.49,-79.2 239.19,-72.75"/>
</a>
</g>
</g>
<!-- Node8 -->
<g id="Node000008" class="node">
<title>Node8</title>
<g id="a_Node000008"><a xlink:title=" ">
<polygon fill="#e0e0e0" stroke="#999999" points="580.4,-72 528.17,-72 528.17,-54 580.4,-54 580.4,-72"/>
<text text-anchor="middle" x="554.29" y="-60" font-family="Helvetica,sans-Serif" font-size="10.00">memory</text>
</a>
</g>
</g>
<!-- Node2&#45;&gt;Node8 -->
<g id="edge8_Node000002_Node000008" class="edge">
<title>Node2&#45;&gt;Node8</title>
<g id="a_edge8_Node000002_Node000008"><a xlink:title=" ">
<path fill="none" stroke="#63b8ff" d="M367.34,-107.99C408.27,-98.36 476.68,-82.26 518.41,-72.44"/>
<polygon fill="#63b8ff" stroke="#63b8ff" points="519.23,-75.84 528.16,-70.15 517.63,-69.03 519.23,-75.84"/>
</a>
</g>
</g>
<!-- Node9 -->
<g id="Node000009" class="node">
<title>Node9</title>
<g id="a_Node000009"><a xlink:title=" ">
<polygon fill="#e0e0e0" stroke="#999999" points="493.37,-72 447.21,-72 447.21,-54 493.37,-54 493.37,-72"/>
<text text-anchor="middle" x="470.29" y="-60" font-family="Helvetica,sans-Serif" font-size="10.00">ranges</text>
</a>
</g>
</g>
<!-- Node2&#45;&gt;Node9 -->
<g id="edge9_Node000002_Node000009" class="edge">
<title>Node2&#45;&gt;Node9</title>
<g id="a_edge9_Node000002_Node000009"><a xlink:title=" ">
<path fill="none" stroke="#63b8ff" d="M354.39,-107.99C377.16,-99.35 413.61,-85.51 439.55,-75.67"/>
<polygon fill="#63b8ff" stroke="#63b8ff" points="440.83,-78.93 448.93,-72.11 438.34,-72.38 440.83,-78.93"/>
</a>
</g>
</g>
<!-- Node10 -->
<g id="Node000010" class="node">
<title>Node10</title>
<g id="a_Node000010"><a xlink:title=" ">
<polygon fill="#e0e0e0" stroke="#999999" points="160.59,-72 101.99,-72 101.99,-54 160.59,-54 160.59,-72"/>
<text text-anchor="middle" x="131.29" y="-60" font-family="Helvetica,sans-Serif" font-size="10.00">stdexcept</text>
</a>
</g>
</g>
<!-- Node2&#45;&gt;Node10 -->
<g id="edge10_Node000002_Node000010" class="edge">
<title>Node2&#45;&gt;Node10</title>
<g id="a_edge10_Node000002_Node000010"><a xlink:title=" ">
<path fill="none" stroke="#63b8ff" d="M302.17,-107.99C266.81,-98.89 209.06,-84.02 170.61,-74.12"/>
<polygon fill="#63b8ff" stroke="#63b8ff" points="171.36,-70.7 160.8,-71.6 169.61,-77.48 171.36,-70.7"/>
</a>
</g>
</g>
<!-- Node3&#45;&gt;Node4 -->
<g id="edge3_Node000003_Node000004" class="edge">
<title>Node3&#45;&gt;Node4</title>
<g id="a_edge3_Node000003_Node000004"><a xlink:title=" ">
<path fill="none" stroke="#63b8ff" d="M317.16,-53.88C328.81,-45.91 346.79,-33.6 360.76,-24.05"/>
<polygon fill="#63b8ff" stroke="#63b8ff" points="362.97,-26.78 369.25,-18.24 359.02,-21 362.97,-26.78"/>
</a>
</g>
</g>
<!-- Node5 -->
<g id="Node000005" class="node">
<title>Node5</title>
<g id="a_Node000005"><a xlink:title=" ">
<polygon fill="#e0e0e0" stroke="#999999" points="330.82,-18 279.76,-18 279.76,0 330.82,0 330.82,-18"/>
<text text-anchor="middle" x="305.29" y="-6" font-family="Helvetica,sans-Serif" font-size="10.00">optional</text>
</a>
</g>
</g>
<!-- Node3&#45;&gt;Node5 -->
<g id="edge4_Node000003_Node000005" class="edge">
<title>Node3&#45;&gt;Node5</title>
<g id="a_edge4_Node000003_Node000005"><a xlink:title=" ">
<path fill="none" stroke="#63b8ff" d="M305.29,-53.88C305.29,-47.05 305.29,-37.03 305.29,-28.29"/>
<polygon fill="#63b8ff" stroke="#63b8ff" points="308.79,-28.24 305.29,-18.24 301.79,-28.24 308.79,-28.24"/>
</a>
</g>
</g>
<!-- Node6 -->
<g id="Node000006" class="node">
<title>Node6</title>
<g id="a_Node000006"><a xlink:title=" ">
<polygon fill="#e0e0e0" stroke="#999999" points="178.74,-18 137.83,-18 137.83,0 178.74,0 178.74,-18"/>
<text text-anchor="middle" x="158.29" y="-6" font-family="Helvetica,sans-Serif" font-size="10.00">string</text>
</a>
</g>
</g>
<!-- Node3&#45;&gt;Node6 -->
<g id="edge5_Node000003_Node000006" class="edge">
<title>Node3&#45;&gt;Node6</title>
<g id="a_edge5_Node000003_Node000006"><a xlink:title=" ">
<path fill="none" stroke="#63b8ff" d="M282.64,-53.99C257.39,-45.06 216.44,-30.57 188.48,-20.68"/>
<polygon fill="#63b8ff" stroke="#63b8ff" points="189.42,-17.3 178.82,-17.26 187.08,-23.9 189.42,-17.3"/>
</a>
</g>
</g>
<!-- Node11&#45;&gt;Node6 -->
<g id="edge14_Node000011_Node000006" class="edge">
<title>Node11&#45;&gt;Node6</title>
<g id="a_edge14_Node000011_Node000006"><a xlink:title=" ">
<path fill="none" stroke="#63b8ff" d="M98.93,-107.85C92.97,-95.47 83.99,-71.53 93.29,-54 100.87,-39.72 115.38,-29.23 128.77,-22.08"/>
<polygon fill="#63b8ff" stroke="#63b8ff" points="130.33,-25.21 137.76,-17.66 127.25,-18.93 130.33,-25.21"/>
</a>
</g>
</g>
<!-- Node11&#45;&gt;Node10 -->
<g id="edge13_Node000011_Node000010" class="edge">
<title>Node11&#45;&gt;Node10</title>
<g id="a_edge13_Node000011_Node000010"><a xlink:title=" ">
<path fill="none" stroke="#63b8ff" d="M107.66,-107.88C111.5,-100.74 117.22,-90.13 122.06,-81.13"/>
<polygon fill="#63b8ff" stroke="#63b8ff" points="125.19,-82.7 126.85,-72.24 119.03,-79.38 125.19,-82.7"/>
</a>
</g>
</g>
<!-- Node12 -->
<g id="Node000012" class="node">
<title>Node12</title>
<g id="a_Node000012"><a xlink:title=" ">
<polygon fill="#e0e0e0" stroke="#999999" points="46.37,-72 0.21,-72 0.21,-54 46.37,-54 46.37,-72"/>
<text text-anchor="middle" x="23.29" y="-60" font-family="Helvetica,sans-Serif" font-size="10.00">chrono</text>
</a>
</g>
</g>
<!-- Node11&#45;&gt;Node12 -->
<g id="edge12_Node000011_Node000012" class="edge">
<title>Node11&#45;&gt;Node12</title>
<g id="a_edge12_Node000011_Node000012"><a xlink:title=" ">
<path fill="none" stroke="#63b8ff" d="M90.79,-107.88C78.34,-99.79 59.01,-87.22 44.22,-77.61"/>
<polygon fill="#63b8ff" stroke="#63b8ff" points="45.99,-74.58 35.7,-72.07 42.18,-80.45 45.99,-74.58"/>
</a>
</g>
</g>
<!-- Node13&#45;&gt;Node2 -->
<g id="edge16_Node000013_Node000002" class="edge">
<title>Node13&#45;&gt;Node2</title>
<g id="a_edge16_Node000013_Node000002"><a xlink:title=" ">
<path fill="none" stroke="#63b8ff" d="M449.18,-161.99C426.42,-153.35 389.96,-139.51 364.02,-129.67"/>
<polygon fill="#63b8ff" stroke="#63b8ff" points="365.24,-126.38 354.64,-126.11 362.75,-132.93 365.24,-126.38"/>
</a>
</g>
</g>
<!-- Node13&#45;&gt;Node8 -->
<g id="edge19_Node000013_Node000008" class="edge">
<title>Node13&#45;&gt;Node8</title>
<g id="a_edge19_Node000013_Node000008"><a xlink:title=" ">
<path fill="none" stroke="#63b8ff" d="M500.17,-161.92C518.22,-155.36 539.88,-144.16 551.29,-126 559.36,-113.15 559.46,-95.69 557.92,-82.57"/>
<polygon fill="#63b8ff" stroke="#63b8ff" points="561.32,-81.71 556.3,-72.38 554.41,-82.81 561.32,-81.71"/>
</a>
</g>
</g>
<!-- Node13&#45;&gt;Node9 -->
<g id="edge20_Node000013_Node000009" class="edge">
<title>Node13&#45;&gt;Node9</title>
<g id="a_edge20_Node000013_Node000009"><a xlink:title=" ">
<path fill="none" stroke="#63b8ff" d="M470.29,-161.68C470.29,-144.73 470.29,-105.83 470.29,-82.55"/>
<polygon fill="#63b8ff" stroke="#63b8ff" points="473.79,-82.28 470.29,-72.28 466.79,-82.28 473.79,-82.28"/>
</a>
</g>
</g>
<!-- Node14 -->
<g id="Node000014" class="node">
<title>Node14</title>
<g id="a_Node000014"><a xlink:title=" ">
<polygon fill="#e0e0e0" stroke="#999999" points="656.6,-126 597.98,-126 597.98,-108 656.6,-108 656.6,-126"/>
<text text-anchor="middle" x="627.29" y="-114" font-family="Helvetica,sans-Serif" font-size="10.00">functional</text>
</a>
</g>
</g>
<!-- Node13&#45;&gt;Node14 -->
<g id="edge17_Node000013_Node000014" class="edge">
<title>Node13&#45;&gt;Node14</title>
<g id="a_edge17_Node000013_Node000014"><a xlink:title=" ">
<path fill="none" stroke="#63b8ff" d="M494.48,-161.99C520.98,-153.21 563.69,-139.06 593.5,-129.19"/>
<polygon fill="#63b8ff" stroke="#63b8ff" points="594.68,-132.49 603.07,-126.02 592.48,-125.84 594.68,-132.49"/>
</a>
</g>
</g>
<!-- Node15 -->
<g id="Node000015" class="node">
<title>Node15</title>
<g id="a_Node000015"><a xlink:title=" ">
<polygon fill="#e0e0e0" stroke="#999999" points="442.63,-126 387.94,-126 387.94,-108 442.63,-108 442.63,-126"/>
<text text-anchor="middle" x="415.29" y="-114" font-family="Helvetica,sans-Serif" font-size="10.00">iostream</text>
</a>
</g>
</g>
<!-- Node13&#45;&gt;Node15 -->
<g id="edge18_Node000013_Node000015" class="edge">
<title>Node13&#45;&gt;Node15</title>
<g id="a_edge18_Node000013_Node000015"><a xlink:title=" ">
<path fill="none" stroke="#63b8ff" d="M461.69,-161.88C453.59,-154.21 441.24,-142.53 431.31,-133.15"/>
<polygon fill="#63b8ff" stroke="#63b8ff" points="433.67,-130.57 424,-126.24 428.86,-135.65 433.67,-130.57"/>
</a>
</g>
</g>
<!-- Node16 -->
<g id="Node000016" class="node">
<title>Node16</title>
<g id="a_Node000016"><a xlink:title=" ">
<polygon fill="#e0e0e0" stroke="#999999" points="542.02,-126 498.56,-126 498.56,-108 542.02,-108 542.02,-126"/>
<text text-anchor="middle" x="520.29" y="-114" font-family="Helvetica,sans-Serif" font-size="10.00">vector</text>
</a>
</g>
</g>
<!-- Node13&#45;&gt;Node16 -->
<g id="edge21_Node000013_Node000016" class="edge">
<title>Node13&#45;&gt;Node16</title>
<g id="a_edge21_Node000013_Node000016"><a xlink:title=" ">
<path fill="none" stroke="#63b8ff" d="M478.1,-161.88C485.32,-154.36 496.26,-142.99 505.18,-133.71"/>
<polygon fill="#63b8ff" stroke="#63b8ff" points="507.96,-135.87 512.37,-126.24 502.91,-131.02 507.96,-135.87"/>
</a>
</g>
</g>
<!-- Node17&#45;&gt;Node3 -->
<g id="edge23_Node000017_Node000003" class="edge">
<title>Node17&#45;&gt;Node3</title>
<g id="a_edge23_Node000017_Node000003"><a xlink:title=" ">
<path fill="none" stroke="#63b8ff" d="M261.41,-107.88C269,-100.29 280.52,-88.76 289.86,-79.43"/>
<polygon fill="#63b8ff" stroke="#63b8ff" points="292.45,-81.79 297.05,-72.24 287.5,-76.84 292.45,-81.79"/>
</a>
</g>
</g>
<!-- Node17&#45;&gt;Node4 -->
<g id="edge25_Node000017_Node000004" class="edge">
<title>Node17&#45;&gt;Node4</title>
<g id="a_edge25_Node000017_Node000004"><a xlink:title=" ">
<path fill="none" stroke="#63b8ff" d="M278.97,-108.46C307.38,-99.63 350.7,-84.63 362.29,-72 373.23,-60.07 377.87,-41.99 379.84,-28.43"/>
<polygon fill="#63b8ff" stroke="#63b8ff" points="383.34,-28.65 380.95,-18.33 376.38,-27.89 383.34,-28.65"/>
</a>
</g>
</g>
<!-- Node17&#45;&gt;Node7 -->
<g id="edge24_Node000017_Node000007" class="edge">
<title>Node17&#45;&gt;Node7</title>
<g id="a_edge24_Node000017_Node000007"><a xlink:title=" ">
<path fill="none" stroke="#63b8ff" d="M246.41,-107.88C240.12,-100.44 230.63,-89.22 222.82,-79.99"/>
<polygon fill="#63b8ff" stroke="#63b8ff" points="225.39,-77.61 216.26,-72.24 220.05,-82.13 225.39,-77.61"/>
</a>
</g>
</g>
</g>
</svg>
