<?xml version="1.0" encoding="UTF-8" standalone="no"?>
<!DOCTYPE svg PUBLIC "-//W3C//DTD SVG 1.1//EN"
 "http://www.w3.org/Graphics/SVG/1.1/DTD/svg11.dtd">
<!-- Generated by graphviz version 2.48.0 (20210717.1556)
 -->
<!-- Title: package.hpp Pages: 1 -->
<svg width="833pt" height="242pt"
 viewBox="0.00 0.00 832.58 242.00" xmlns="http://www.w3.org/2000/svg" xmlns:xlink="http://www.w3.org/1999/xlink">
<g id="graph0" class="graph" transform="scale(1 1) rotate(0) translate(4 238)">
<title>package.hpp</title>
<!-- Node1 -->
<g id="Node000001" class="node">
<title>Node1</title>
<g id="a_Node000001"><a xlink:title=" ">
<polygon fill="#999999" stroke="#666666" points="457.94,-234 384.4,-234 384.4,-216 457.94,-216 457.94,-234"/>
<text text-anchor="middle" x="421.17" y="-222" font-family="Helvetica,sans-Serif" font-size="10.00">package.hpp</text>
</a>
</g>
</g>
<!-- Node2 -->
<g id="Node000002" class="node">
<title>Node2</title>
<g id="a_Node000002"><a xlink:href="manifest_8hpp.html" target="_top" xlink:title=" ">
<polygon fill="white" stroke="#666666" points="537.93,-126 464.42,-126 464.42,-108 537.93,-108 537.93,-126"/>
<text text-anchor="middle" x="501.17" y="-114" font-family="Helvetica,sans-Serif" font-size="10.00">manifest.hpp</text>
</a>
</g>
</g>
<!-- Node1&#45;&gt;Node2 -->
<g id="edge1_Node000001_Node000002" class="edge">
<title>Node1&#45;&gt;Node2</title>
<g id="a_edge1_Node000001_Node000002"><a xlink:title=" ">
<path fill="none" stroke="#63b8ff" d="M427.45,-215.68C440.65,-198.19 471.5,-157.32 488.82,-134.37"/>
<polygon fill="#63b8ff" stroke="#63b8ff" points="491.69,-136.37 494.92,-126.28 486.11,-132.15 491.69,-136.37"/>
</a>
</g>
</g>
<!-- Node7 -->
<g id="Node000007" class="node">
<title>Node7</title>
<g id="a_Node000007"><a xlink:title=" ">
<polygon fill="#e0e0e0" stroke="#999999" points="407.63,-72 346.72,-72 346.72,-54 407.63,-54 407.63,-72"/>
<text text-anchor="middle" x="377.17" y="-60" font-family="Helvetica,sans-Serif" font-size="10.00">filesystem</text>
</a>
</g>
</g>
<!-- Node1&#45;&gt;Node7 -->
<g id="edge28_Node000001_Node000007" class="edge">
<title>Node1&#45;&gt;Node7</title>
<g id="a_edge28_Node000001_Node000007"><a xlink:title=" ">
<path fill="none" stroke="#63b8ff" d="M417.61,-215.78C410.53,-199.15 394.67,-160.19 386.17,-126 382.56,-111.45 380.23,-94.6 378.84,-82.14"/>
<polygon fill="#63b8ff" stroke="#63b8ff" points="382.32,-81.72 377.83,-72.12 375.36,-82.43 382.32,-81.72"/>
</a>
</g>
</g>
<!-- Node11 -->
<g id="Node000011" class="node">
<title>Node11</title>
<g id="a_Node000011"><a xlink:href="metadata_8hpp.html" target="_top" xlink:title=" ">
<polygon fill="white" stroke="#666666" points="231.83,-126 154.51,-126 154.51,-108 231.83,-108 231.83,-126"/>
<text text-anchor="middle" x="193.17" y="-114" font-family="Helvetica,sans-Serif" font-size="10.00">metadata.hpp</text>
</a>
</g>
</g>
<!-- Node1&#45;&gt;Node11 -->
<g id="edge11_Node000001_Node000011" class="edge">
<title>Node1&#45;&gt;Node11</title>
<g id="a_edge11_Node000001_Node000011"><a xlink:title=" ">
<path fill="none" stroke="#63b8ff" d="M403.66,-215.86C363.94,-197.39 266.82,-152.24 219.69,-130.33"/>
<polygon fill="#63b8ff" stroke="#63b8ff" points="220.98,-127.07 210.43,-126.02 218.02,-133.41 220.98,-127.07"/>
</a>
</g>
</g>
<!-- Node15 -->
<g id="Node000015" class="node">
<title>Node15</title>
<g id="a_Node000015"><a xlink:href="spine_8hpp.html" target="_top" xlink:title=" ">
<polygon fill="white" stroke="#666666" points="668.04,-180 608.3,-180 608.3,-162 668.04,-162 668.04,-180"/>
<text text-anchor="middle" x="638.17" y="-168" font-family="Helvetica,sans-Serif" font-size="10.00">spine.hpp</text>
</a>
</g>
</g>
<!-- Node1&#45;&gt;Node15 -->
<g id="edge17_Node000001_Node000015" class="edge">
<title>Node1&#45;&gt;Node15</title>
<g id="a_edge17_Node000001_Node000015"><a xlink:title=" ">
<path fill="none" stroke="#63b8ff" d="M454.6,-215.99C493.29,-206.72 556.96,-191.46 598.22,-181.57"/>
<polygon fill="#63b8ff" stroke="#63b8ff" points="599.29,-184.92 608.2,-179.18 597.66,-178.11 599.29,-184.92"/>
</a>
</g>
</g>
<!-- Node19 -->
<g id="Node000019" class="node">
<title>Node19</title>
<g id="a_Node000019"><a xlink:href="xml_8hpp.html" target="_top" xlink:title=" ">
<polygon fill="white" stroke="#666666" points="446.69,-126 395.66,-126 395.66,-108 446.69,-108 446.69,-126"/>
<text text-anchor="middle" x="421.17" y="-114" font-family="Helvetica,sans-Serif" font-size="10.00">xml.hpp</text>
</a>
</g>
</g>
<!-- Node1&#45;&gt;Node19 -->
<g id="edge24_Node000001_Node000019" class="edge">
<title>Node1&#45;&gt;Node19</title>
<g id="a_edge24_Node000001_Node000019"><a xlink:title=" ">
<path fill="none" stroke="#63b8ff" d="M421.17,-215.68C421.17,-198.73 421.17,-159.83 421.17,-136.55"/>
<polygon fill="#63b8ff" stroke="#63b8ff" points="424.67,-136.28 421.17,-126.28 417.67,-136.28 424.67,-136.28"/>
</a>
</g>
</g>
<!-- Node3 -->
<g id="Node000003" class="node">
<title>Node3</title>
<g id="a_Node000003"><a xlink:href="file__metadata_8hpp.html" target="_top" xlink:title=" ">
<polygon fill="white" stroke="#666666" points="520.68,-72 425.67,-72 425.67,-54 520.68,-54 520.68,-72"/>
<text text-anchor="middle" x="473.17" y="-60" font-family="Helvetica,sans-Serif" font-size="10.00">file_metadata.hpp</text>
</a>
</g>
</g>
<!-- Node2&#45;&gt;Node3 -->
<g id="edge2_Node000002_Node000003" class="edge">
<title>Node2&#45;&gt;Node3</title>
<g id="a_edge2_Node000002_Node000003"><a xlink:title=" ">
<path fill="none" stroke="#63b8ff" d="M496.8,-107.88C492.96,-100.74 487.24,-90.13 482.4,-81.13"/>
<polygon fill="#63b8ff" stroke="#63b8ff" points="485.43,-79.38 477.61,-72.24 479.27,-82.7 485.43,-79.38"/>
</a>
</g>
</g>
<!-- Node4 -->
<g id="Node000004" class="node">
<title>Node4</title>
<g id="a_Node000004"><a xlink:title=" ">
<polygon fill="#e0e0e0" stroke="#999999" points="567.13,-18 531.22,-18 531.22,0 567.13,0 567.13,-18"/>
<text text-anchor="middle" x="549.17" y="-6" font-family="Helvetica,sans-Serif" font-size="10.00">map</text>
</a>
</g>
</g>
<!-- Node2&#45;&gt;Node4 -->
<g id="edge7_Node000002_Node000004" class="edge">
<title>Node2&#45;&gt;Node4</title>
<g id="a_edge7_Node000002_Node000004"><a xlink:title=" ">
<path fill="none" stroke="#63b8ff" d="M521.08,-107.95C535.66,-100.86 554.39,-89 563.17,-72 570.45,-57.92 565.15,-40.13 559.1,-27.22"/>
<polygon fill="#63b8ff" stroke="#63b8ff" points="562.06,-25.31 554.32,-18.07 555.85,-28.56 562.06,-25.31"/>
</a>
</g>
</g>
<!-- Node2&#45;&gt;Node7 -->
<g id="edge6_Node000002_Node000007" class="edge">
<title>Node2&#45;&gt;Node7</title>
<g id="a_edge6_Node000002_Node000007"><a xlink:title=" ">
<path fill="none" stroke="#63b8ff" d="M482.07,-107.99C461.74,-99.46 429.34,-85.88 405.93,-76.06"/>
<polygon fill="#63b8ff" stroke="#63b8ff" points="407.08,-72.75 396.5,-72.11 404.37,-79.2 407.08,-72.75"/>
</a>
</g>
</g>
<!-- Node8 -->
<g id="Node000008" class="node">
<title>Node8</title>
<g id="a_Node000008"><a xlink:title=" ">
<polygon fill="#e0e0e0" stroke="#999999" points="748.29,-72 696.06,-72 696.06,-54 748.29,-54 748.29,-72"/>
<text text-anchor="middle" x="722.17" y="-60" font-family="Helvetica,sans-Serif" font-size="10.00">memory</text>
</a>
</g>
</g>
<!-- Node2&#45;&gt;Node8 -->
<g id="edge8_Node000002_Node000008" class="edge">
<title>Node2&#45;&gt;Node8</title>
<g id="a_edge8_Node000002_Node000008"><a xlink:title=" ">
<path fill="none" stroke="#63b8ff" d="M535.22,-107.99C576.16,-98.36 644.56,-82.26 686.3,-72.44"/>
<polygon fill="#63b8ff" stroke="#63b8ff" points="687.11,-75.84 696.05,-70.15 685.51,-69.03 687.11,-75.84"/>
</a>
</g>
</g>
<!-- Node9 -->
<g id="Node000009" class="node">
<title>Node9</title>
<g id="a_Node000009"><a xlink:title=" ">
<polygon fill="#e0e0e0" stroke="#999999" points="661.25,-72 615.09,-72 615.09,-54 661.25,-54 661.25,-72"/>
<text text-anchor="middle" x="638.17" y="-60" font-family="Helvetica,sans-Serif" font-size="10.00">ranges</text>
</a>
</g>
</g>
<!-- Node2&#45;&gt;Node9 -->
<g id="edge9_Node000002_Node000009" class="edge">
<title>Node2&#45;&gt;Node9</title>
<g id="a_edge9_Node000002_Node000009"><a xlink:title=" ">
<path fill="none" stroke="#63b8ff" d="M522.28,-107.99C545.04,-99.35 581.5,-85.51 607.44,-75.67"/>
<polygon fill="#63b8ff" stroke="#63b8ff" points="608.71,-78.93 616.82,-72.11 606.23,-72.38 608.71,-78.93"/>
</a>
</g>
</g>
<!-- Node10 -->
<g id="Node000010" class="node">
<title>Node10</title>
<g id="a_Node000010"><a xlink:title=" ">
<polygon fill="#e0e0e0" stroke="#999999" points="328.48,-72 269.87,-72 269.87,-54 328.48,-54 328.48,-72"/>
<text text-anchor="middle" x="299.17" y="-60" font-family="Helvetica,sans-Serif" font-size="10.00">stdexcept</text>
</a>
</g>
</g>
<!-- Node2&#45;&gt;Node10 -->
<g id="edge10_Node000002_Node000010" class="edge">
<title>Node2&#45;&gt;Node10</title>
<g id="a_edge10_Node000002_Node000010"><a xlink:title=" ">
<path fill="none" stroke="#63b8ff" d="M470.05,-107.99C434.7,-98.89 376.94,-84.02 338.5,-74.12"/>
<polygon fill="#63b8ff" stroke="#63b8ff" points="339.24,-70.7 328.68,-71.6 337.5,-77.48 339.24,-70.7"/>
</a>
</g>
</g>
<!-- Node3&#45;&gt;Node4 -->
<g id="edge3_Node000003_Node000004" class="edge">
<title>Node3&#45;&gt;Node4</title>
<g id="a_edge3_Node000003_Node000004"><a xlink:title=" ">
<path fill="none" stroke="#63b8ff" d="M485.05,-53.88C496.69,-45.91 514.68,-33.6 528.64,-24.05"/>
<polygon fill="#63b8ff" stroke="#63b8ff" points="530.85,-26.78 537.13,-18.24 526.9,-21 530.85,-26.78"/>
</a>
</g>
</g>
<!-- Node5 -->
<g id="Node000005" class="node">
<title>Node5</title>
<g id="a_Node000005"><a xlink:title=" ">
<polygon fill="#e0e0e0" stroke="#999999" points="498.7,-18 447.64,-18 447.64,0 498.7,0 498.7,-18"/>
<text text-anchor="middle" x="473.17" y="-6" font-family="Helvetica,sans-Serif" font-size="10.00">optional</text>
</a>
</g>
</g>
<!-- Node3&#45;&gt;Node5 -->
<g id="edge4_Node000003_Node000005" class="edge">
<title>Node3&#45;&gt;Node5</title>
<g id="a_edge4_Node000003_Node000005"><a xlink:title=" ">
<path fill="none" stroke="#63b8ff" d="M473.17,-53.88C473.17,-47.05 473.17,-37.03 473.17,-28.29"/>
<polygon fill="#63b8ff" stroke="#63b8ff" points="476.67,-28.24 473.17,-18.24 469.67,-28.24 476.67,-28.24"/>
</a>
</g>
</g>
<!-- Node6 -->
<g id="Node000006" class="node">
<title>Node6</title>
<g id="a_Node000006"><a xlink:title=" ">
<polygon fill="#e0e0e0" stroke="#999999" points="276.63,-18 235.72,-18 235.72,0 276.63,0 276.63,-18"/>
<text text-anchor="middle" x="256.17" y="-6" font-family="Helvetica,sans-Serif" font-size="10.00">string</text>
</a>
</g>
</g>
<!-- Node3&#45;&gt;Node6 -->
<g id="edge5_Node000003_Node000006" class="edge">
<title>Node3&#45;&gt;Node6</title>
<g id="a_edge5_Node000003_Node000006"><a xlink:title=" ">
<path fill="none" stroke="#63b8ff" d="M439.74,-53.99C397.85,-43.95 326.69,-26.9 286.37,-17.24"/>
<polygon fill="#63b8ff" stroke="#63b8ff" points="287.13,-13.82 276.59,-14.89 285.5,-20.63 287.13,-13.82"/>
</a>
</g>
</g>
<!-- Node11&#45;&gt;Node6 -->
<g id="edge15_Node000011_Node000006" class="edge">
<title>Node11&#45;&gt;Node6</title>
<g id="a_edge15_Node000011_Node000006"><a xlink:title=" ">
<path fill="none" stroke="#63b8ff" d="M170.09,-107.96C143.18,-97.29 104.41,-77.1 121.17,-54 144.92,-21.29 193.62,-12.43 225.58,-10.29"/>
<polygon fill="#63b8ff" stroke="#63b8ff" points="225.89,-13.78 235.71,-9.79 225.55,-6.79 225.89,-13.78"/>
</a>
</g>
</g>
<!-- Node11&#45;&gt;Node10 -->
<g id="edge14_Node000011_Node000010" class="edge">
<title>Node11&#45;&gt;Node10</title>
<g id="a_edge14_Node000011_Node000010"><a xlink:title=" ">
<path fill="none" stroke="#63b8ff" d="M209.73,-107.88C226.85,-99.48 253.79,-86.27 273.63,-76.53"/>
<polygon fill="#63b8ff" stroke="#63b8ff" points="275.29,-79.61 282.73,-72.07 272.21,-73.33 275.29,-79.61"/>
</a>
</g>
</g>
<!-- Node12 -->
<g id="Node000012" class="node">
<title>Node12</title>
<g id="a_Node000012"><a xlink:title=" ">
<polygon fill="#e0e0e0" stroke="#999999" points="186.25,-72 130.09,-72 130.09,-54 186.25,-54 186.25,-72"/>
<text text-anchor="middle" x="158.17" y="-60" font-family="Helvetica,sans-Serif" font-size="10.00">charconv</text>
</a>
</g>
</g>
<!-- Node11&#45;&gt;Node12 -->
<g id="edge12_Node000011_Node000012" class="edge">
<title>Node11&#45;&gt;Node12</title>
<g id="a_edge12_Node000011_Node000012"><a xlink:title=" ">
<path fill="none" stroke="#63b8ff" d="M187.7,-107.88C182.8,-100.59 175.46,-89.68 169.32,-80.56"/>
<polygon fill="#63b8ff" stroke="#63b8ff" points="172.21,-78.58 163.72,-72.24 166.4,-82.49 172.21,-78.58"/>
</a>
</g>
</g>
<!-- Node13 -->
<g id="Node000013" class="node">
<title>Node13</title>
<g id="a_Node000013"><a xlink:title=" ">
<polygon fill="#e0e0e0" stroke="#999999" points="251.25,-72 205.09,-72 205.09,-54 251.25,-54 251.25,-72"/>
<text text-anchor="middle" x="228.17" y="-60" font-family="Helvetica,sans-Serif" font-size="10.00">chrono</text>
</a>
</g>
</g>
<!-- Node11&#45;&gt;Node13 -->
<g id="edge13_Node000011_Node000013" class="edge">
<title>Node11&#45;&gt;Node13</title>
<g id="a_edge13_Node000011_Node000013"><a xlink:title=" ">
<path fill="none" stroke="#63b8ff" d="M198.64,-107.88C203.54,-100.59 210.89,-89.68 217.03,-80.56"/>
<polygon fill="#63b8ff" stroke="#63b8ff" points="219.95,-82.49 222.63,-72.24 214.14,-78.58 219.95,-82.49"/>
</a>
</g>
</g>
<!-- Node14 -->
<g id="Node000014" class="node">
<title>Node14</title>
<g id="a_Node000014"><a xlink:title=" ">
<polygon fill="#e0e0e0" stroke="#999999" points="74.52,-72 -0.17,-72 -0.17,-54 74.52,-54 74.52,-72"/>
<text text-anchor="middle" x="37.17" y="-60" font-family="Helvetica,sans-Serif" font-size="10.00">system_error</text>
</a>
</g>
</g>
<!-- Node11&#45;&gt;Node14 -->
<g id="edge16_Node000011_Node000014" class="edge">
<title>Node11&#45;&gt;Node14</title>
<g id="a_edge16_Node000011_Node000014"><a xlink:title=" ">
<path fill="none" stroke="#63b8ff" d="M169.14,-107.99C142.8,-99.21 100.36,-85.06 70.74,-75.19"/>
<polygon fill="#63b8ff" stroke="#63b8ff" points="71.83,-71.86 61.23,-72.02 69.61,-78.5 71.83,-71.86"/>
</a>
</g>
</g>
<!-- Node15&#45;&gt;Node2 -->
<g id="edge18_Node000015_Node000002" class="edge">
<title>Node15&#45;&gt;Node2</title>
<g id="a_edge18_Node000015_Node000002"><a xlink:title=" ">
<path fill="none" stroke="#63b8ff" d="M617.07,-161.99C594.3,-153.35 557.85,-139.51 531.91,-129.67"/>
<polygon fill="#63b8ff" stroke="#63b8ff" points="533.12,-126.38 522.53,-126.11 530.64,-132.93 533.12,-126.38"/>
</a>
</g>
</g>
<!-- Node15&#45;&gt;Node8 -->
<g id="edge21_Node000015_Node000008" class="edge">
<title>Node15&#45;&gt;Node8</title>
<g id="a_edge21_Node000015_Node000008"><a xlink:title=" ">
<path fill="none" stroke="#63b8ff" d="M668.06,-161.92C686.11,-155.36 707.77,-144.16 719.17,-126 727.24,-113.15 727.34,-95.69 725.8,-82.57"/>
<polygon fill="#63b8ff" stroke="#63b8ff" points="729.21,-81.71 724.18,-72.38 722.29,-82.81 729.21,-81.71"/>
</a>
</g>
</g>
<!-- Node15&#45;&gt;Node9 -->
<g id="edge22_Node000015_Node000009" class="edge">
<title>Node15&#45;&gt;Node9</title>
<g id="a_edge22_Node000015_Node000009"><a xlink:title=" ">
<path fill="none" stroke="#63b8ff" d="M638.17,-161.68C638.17,-144.73 638.17,-105.83 638.17,-82.55"/>
<polygon fill="#63b8ff" stroke="#63b8ff" points="641.67,-82.28 638.17,-72.28 634.67,-82.28 641.67,-82.28"/>
</a>
</g>
</g>
<!-- Node16 -->
<g id="Node000016" class="node">
<title>Node16</title>
<g id="a_Node000016"><a xlink:title=" ">
<polygon fill="#e0e0e0" stroke="#999999" points="824.48,-126 765.86,-126 765.86,-108 824.48,-108 824.48,-126"/>
<text text-anchor="middle" x="795.17" y="-114" font-family="Helvetica,sans-Serif" font-size="10.00">functional</text>
</a>
</g>
</g>
<!-- Node15&#45;&gt;Node16 -->
<g id="edge19_Node000015_Node000016" class="edge">
<title>Node15&#45;&gt;Node16</title>
<g id="a_edge19_Node000015_Node000016"><a xlink:title=" ">
<path fill="none" stroke="#63b8ff" d="M662.36,-161.99C688.87,-153.21 731.58,-139.06 761.39,-129.19"/>
<polygon fill="#63b8ff" stroke="#63b8ff" points="762.57,-132.49 770.96,-126.02 760.36,-125.84 762.57,-132.49"/>
</a>
</g>
</g>
<!-- Node17 -->
<g id="Node000017" class="node">
<title>Node17</title>
<g id="a_Node000017"><a xlink:title=" ">
<polygon fill="#e0e0e0" stroke="#999999" points="610.52,-126 555.83,-126 555.83,-108 610.52,-108 610.52,-126"/>
<text text-anchor="middle" x="583.17" y="-114" font-family="Helvetica,sans-Serif" font-size="10.00">iostream</text>
</a>
</g>
</g>
<!-- Node15&#45;&gt;Node17 -->
<g id="edge20_Node000015_Node000017" class="edge">
<title>Node15&#45;&gt;Node17</title>
<g id="a_edge20_Node000015_Node000017"><a xlink:title=" ">
<path fill="none" stroke="#63b8ff" d="M629.58,-161.88C621.47,-154.21 609.12,-142.53 599.2,-133.15"/>
<polygon fill="#63b8ff" stroke="#63b8ff" points="601.56,-130.57 591.89,-126.24 596.75,-135.65 601.56,-130.57"/>
</a>
</g>
</g>
<!-- Node18 -->
<g id="Node000018" class="node">
<title>Node18</title>
<g id="a_Node000018"><a xlink:title=" ">
<polygon fill="#e0e0e0" stroke="#999999" points="709.9,-126 666.44,-126 666.44,-108 709.9,-108 709.9,-126"/>
<text text-anchor="middle" x="688.17" y="-114" font-family="Helvetica,sans-Serif" font-size="10.00">vector</text>
</a>
</g>
</g>
<!-- Node15&#45;&gt;Node18 -->
<g id="edge23_Node000015_Node000018" class="edge">
<title>Node15&#45;&gt;Node18</title>
<g id="a_edge23_Node000015_Node000018"><a xlink:title=" ">
<path fill="none" stroke="#63b8ff" d="M645.98,-161.88C653.21,-154.36 664.14,-142.99 673.07,-133.71"/>
<polygon fill="#63b8ff" stroke="#63b8ff" points="675.84,-135.87 680.25,-126.24 670.8,-131.02 675.84,-135.87"/>
</a>
</g>
</g>
<!-- Node19&#45;&gt;Node3 -->
<g id="edge25_Node000019_Node000003" class="edge">
<title>Node19&#45;&gt;Node3</title>
<g id="a_edge25_Node000019_Node000003"><a xlink:title=" ">
<path fill="none" stroke="#63b8ff" d="M429.3,-107.88C436.88,-100.29 448.41,-88.76 457.74,-79.43"/>
<polygon fill="#63b8ff" stroke="#63b8ff" points="460.34,-81.79 464.93,-72.24 455.39,-76.84 460.34,-81.79"/>
</a>
</g>
</g>
<!-- Node19&#45;&gt;Node4 -->
<g id="edge27_Node000019_Node000004" class="edge">
<title>Node19&#45;&gt;Node4</title>
<g id="a_edge27_Node000019_Node000004"><a xlink:title=" ">
<path fill="none" stroke="#63b8ff" d="M446.85,-108.46C475.26,-99.63 518.59,-84.63 530.17,-72 541.11,-60.07 545.76,-41.99 547.73,-28.43"/>
<polygon fill="#63b8ff" stroke="#63b8ff" points="551.22,-28.65 548.83,-18.33 544.26,-27.89 551.22,-28.65"/>
</a>
</g>
</g>
<!-- Node19&#45;&gt;Node7 -->
<g id="edge26_Node000019_Node000007" class="edge">
<title>Node19&#45;&gt;Node7</title>
<g id="a_edge26_Node000019_Node000007"><a xlink:title=" ">
<path fill="none" stroke="#63b8ff" d="M414.3,-107.88C408.01,-100.44 398.52,-89.22 390.7,-79.99"/>
<polygon fill="#63b8ff" stroke="#63b8ff" points="393.28,-77.61 384.14,-72.24 387.93,-82.13 393.28,-77.61"/>
</a>
</g>
</g>
</g>
</svg>
