<?xml version="1.0" encoding="UTF-8" standalone="no"?>
<!DOCTYPE svg PUBLIC "-//W3C//DTD SVG 1.1//EN"
 "http://www.w3.org/Graphics/SVG/1.1/DTD/svg11.dtd">
<!-- Generated by graphviz version 2.48.0 (20210717.1556)
 -->
<!-- Title: package.hpp Pages: 1 -->
<svg width="700pt" height="188pt"
 viewBox="0.00 0.00 700.40 188.00" xmlns="http://www.w3.org/2000/svg" xmlns:xlink="http://www.w3.org/1999/xlink">
<g id="graph0" class="graph" transform="scale(1 1) rotate(0) translate(4 184)">
<title>package.hpp</title>
<!-- Node1 -->
<g id="Node000001" class="node">
<title>Node1</title>
<g id="a_Node000001"><a xlink:title=" ">
<polygon fill="#999999" stroke="#666666" points="557.94,-180 484.4,-180 484.4,-162 557.94,-162 557.94,-180"/>
<text text-anchor="middle" x="521.17" y="-168" font-family="Helvetica,sans-Serif" font-size="10.00">package.hpp</text>
</a>
</g>
</g>
<!-- Node2 -->
<g id="Node000002" class="node">
<title>Node2</title>
<g id="a_Node000002"><a xlink:href="manifest__item_8hpp.html" target="_top" xlink:title=" ">
<polygon fill="white" stroke="#666666" points="523.88,-126 426.46,-126 426.46,-108 523.88,-108 523.88,-126"/>
<text text-anchor="middle" x="475.17" y="-114" font-family="Helvetica,sans-Serif" font-size="10.00">manifest_item.hpp</text>
</a>
</g>
</g>
<!-- Node1&#45;&gt;Node2 -->
<g id="edge1_Node000001_Node000002" class="edge">
<title>Node1&#45;&gt;Node2</title>
<g id="a_edge1_Node000001_Node000002"><a xlink:title=" ">
<path fill="none" stroke="#63b8ff" d="M513.98,-161.88C507.41,-154.44 497.49,-143.22 489.32,-133.99"/>
<polygon fill="#63b8ff" stroke="#63b8ff" points="491.71,-131.41 482.46,-126.24 486.47,-136.05 491.71,-131.41"/>
</a>
</g>
</g>
<!-- Node7 -->
<g id="Node000007" class="node">
<title>Node7</title>
<g id="a_Node000007"><a xlink:title=" ">
<polygon fill="#e0e0e0" stroke="#999999" points="692.63,-72 631.72,-72 631.72,-54 692.63,-54 692.63,-72"/>
<text text-anchor="middle" x="662.17" y="-60" font-family="Helvetica,sans-Serif" font-size="10.00">filesystem</text>
</a>
</g>
</g>
<!-- Node1&#45;&gt;Node7 -->
<g id="edge20_Node000001_Node000007" class="edge">
<title>Node1&#45;&gt;Node7</title>
<g id="a_edge20_Node000001_Node000007"><a xlink:title=" ">
<path fill="none" stroke="#63b8ff" d="M539.82,-161.86C556.89,-153.97 582.42,-141.01 602.17,-126 619.98,-112.47 637.42,-93.64 648.87,-80.28"/>
<polygon fill="#63b8ff" stroke="#63b8ff" points="651.73,-82.32 655.47,-72.41 646.36,-77.83 651.73,-82.32"/>
</a>
</g>
</g>
<!-- Node11 -->
<g id="Node000011" class="node">
<title>Node11</title>
<g id="a_Node000011"><a xlink:href="metadata_8hpp.html" target="_top" xlink:title=" ">
<polygon fill="white" stroke="#666666" points="231.83,-126 154.51,-126 154.51,-108 231.83,-108 231.83,-126"/>
<text text-anchor="middle" x="193.17" y="-114" font-family="Helvetica,sans-Serif" font-size="10.00">metadata.hpp</text>
</a>
</g>
</g>
<!-- Node1&#45;&gt;Node11 -->
<g id="edge11_Node000001_Node000011" class="edge">
<title>Node1&#45;&gt;Node11</title>
<g id="a_edge11_Node000001_Node000011"><a xlink:title=" ">
<path fill="none" stroke="#63b8ff" d="M484.5,-164.19C425.23,-154.79 308.36,-136.26 242.07,-125.75"/>
<polygon fill="#63b8ff" stroke="#63b8ff" points="242.31,-122.25 231.89,-124.14 241.21,-129.16 242.31,-122.25"/>
</a>
</g>
</g>
<!-- Node15 -->
<g id="Node000015" class="node">
<title>Node15</title>
<g id="a_Node000015"><a xlink:href="xml_8hpp.html" target="_top" xlink:title=" ">
<polygon fill="white" stroke="#666666" points="592.69,-126 541.66,-126 541.66,-108 592.69,-108 592.69,-126"/>
<text text-anchor="middle" x="567.17" y="-114" font-family="Helvetica,sans-Serif" font-size="10.00">xml.hpp</text>
</a>
</g>
</g>
<!-- Node1&#45;&gt;Node15 -->
<g id="edge17_Node000001_Node000015" class="edge">
<title>Node1&#45;&gt;Node15</title>
<g id="a_edge17_Node000001_Node000015"><a xlink:title=" ">
<path fill="none" stroke="#63b8ff" d="M528.36,-161.88C534.94,-154.44 544.86,-143.22 553.02,-133.99"/>
<polygon fill="#63b8ff" stroke="#63b8ff" points="555.88,-136.05 559.88,-126.24 550.64,-131.41 555.88,-136.05"/>
</a>
</g>
</g>
<!-- Node3 -->
<g id="Node000003" class="node">
<title>Node3</title>
<g id="a_Node000003"><a xlink:href="file__metadata_8hpp.html" target="_top" xlink:title=" ">
<polygon fill="white" stroke="#666666" points="613.68,-72 518.67,-72 518.67,-54 613.68,-54 613.68,-72"/>
<text text-anchor="middle" x="566.17" y="-60" font-family="Helvetica,sans-Serif" font-size="10.00">file_metadata.hpp</text>
</a>
</g>
</g>
<!-- Node2&#45;&gt;Node3 -->
<g id="edge2_Node000002_Node000003" class="edge">
<title>Node2&#45;&gt;Node3</title>
<g id="a_edge2_Node000002_Node000003"><a xlink:title=" ">
<path fill="none" stroke="#63b8ff" d="M489.39,-107.88C503.82,-99.63 526.37,-86.74 543.31,-77.07"/>
<polygon fill="#63b8ff" stroke="#63b8ff" points="545.11,-80.07 552.05,-72.07 541.63,-73.99 545.11,-80.07"/>
</a>
</g>
</g>
<!-- Node4 -->
<g id="Node000004" class="node">
<title>Node4</title>
<g id="a_Node000004"><a xlink:title=" ">
<polygon fill="#e0e0e0" stroke="#999999" points="448.13,-18 412.22,-18 412.22,0 448.13,0 448.13,-18"/>
<text text-anchor="middle" x="430.17" y="-6" font-family="Helvetica,sans-Serif" font-size="10.00">map</text>
</a>
</g>
</g>
<!-- Node2&#45;&gt;Node4 -->
<g id="edge7_Node000002_Node000004" class="edge">
<title>Node2&#45;&gt;Node4</title>
<g id="a_edge7_Node000002_Node000004"><a xlink:title=" ">
<path fill="none" stroke="#63b8ff" d="M430.51,-107.92C409.98,-101.74 387.51,-90.9 375.17,-72 363.17,-53.61 385.03,-35.11 404.64,-23.17"/>
<polygon fill="#63b8ff" stroke="#63b8ff" points="406.43,-26.18 413.36,-18.17 402.95,-20.1 406.43,-26.18"/>
</a>
</g>
</g>
<!-- Node2&#45;&gt;Node7 -->
<g id="edge6_Node000002_Node000007" class="edge">
<title>Node2&#45;&gt;Node7</title>
<g id="a_edge6_Node000002_Node000007"><a xlink:title=" ">
<path fill="none" stroke="#63b8ff" d="M503.98,-107.99C535.96,-99.1 587.76,-84.69 623.31,-74.81"/>
<polygon fill="#63b8ff" stroke="#63b8ff" points="624.63,-78.07 633.33,-72.02 622.76,-71.33 624.63,-78.07"/>
</a>
</g>
</g>
<!-- Node8 -->
<g id="Node000008" class="node">
<title>Node8</title>
<g id="a_Node000008"><a xlink:title=" ">
<polygon fill="#e0e0e0" stroke="#999999" points="436.29,-72 384.06,-72 384.06,-54 436.29,-54 436.29,-72"/>
<text text-anchor="middle" x="410.17" y="-60" font-family="Helvetica,sans-Serif" font-size="10.00">memory</text>
</a>
</g>
</g>
<!-- Node2&#45;&gt;Node8 -->
<g id="edge8_Node000002_Node000008" class="edge">
<title>Node2&#45;&gt;Node8</title>
<g id="a_edge8_Node000002_Node000008"><a xlink:title=" ">
<path fill="none" stroke="#63b8ff" d="M465.02,-107.88C455.25,-100.06 440.26,-88.07 428.42,-78.6"/>
<polygon fill="#63b8ff" stroke="#63b8ff" points="430.47,-75.75 420.47,-72.24 426.09,-81.22 430.47,-75.75"/>
</a>
</g>
</g>
<!-- Node9 -->
<g id="Node000009" class="node">
<title>Node9</title>
<g id="a_Node000009"><a xlink:title=" ">
<polygon fill="#e0e0e0" stroke="#999999" points="500.25,-72 454.09,-72 454.09,-54 500.25,-54 500.25,-72"/>
<text text-anchor="middle" x="477.17" y="-60" font-family="Helvetica,sans-Serif" font-size="10.00">ranges</text>
</a>
</g>
</g>
<!-- Node2&#45;&gt;Node9 -->
<g id="edge9_Node000002_Node000009" class="edge">
<title>Node2&#45;&gt;Node9</title>
<g id="a_edge9_Node000002_Node000009"><a xlink:title=" ">
<path fill="none" stroke="#63b8ff" d="M475.48,-107.88C475.75,-101.05 476.13,-91.03 476.47,-82.29"/>
<polygon fill="#63b8ff" stroke="#63b8ff" points="479.97,-82.37 476.86,-72.24 472.97,-82.1 479.97,-82.37"/>
</a>
</g>
</g>
<!-- Node10 -->
<g id="Node000010" class="node">
<title>Node10</title>
<g id="a_Node000010"><a xlink:title=" ">
<polygon fill="#e0e0e0" stroke="#999999" points="328.48,-72 269.87,-72 269.87,-54 328.48,-54 328.48,-72"/>
<text text-anchor="middle" x="299.17" y="-60" font-family="Helvetica,sans-Serif" font-size="10.00">stdexcept</text>
</a>
</g>
</g>
<!-- Node2&#45;&gt;Node10 -->
<g id="edge10_Node000002_Node000010" class="edge">
<title>Node2&#45;&gt;Node10</title>
<g id="a_edge10_Node000002_Node000010"><a xlink:title=" ">
<path fill="none" stroke="#63b8ff" d="M448.06,-107.99C418.09,-99.13 369.63,-84.82 336.18,-74.93"/>
<polygon fill="#63b8ff" stroke="#63b8ff" points="336.9,-71.5 326.32,-72.02 334.92,-78.21 336.9,-71.5"/>
</a>
</g>
</g>
<!-- Node3&#45;&gt;Node4 -->
<g id="edge3_Node000003_Node000004" class="edge">
<title>Node3&#45;&gt;Node4</title>
<g id="a_edge3_Node000003_Node000004"><a xlink:title=" ">
<path fill="none" stroke="#63b8ff" d="M545.22,-53.99C521.8,-45.04 483.79,-30.5 457.92,-20.61"/>
<polygon fill="#63b8ff" stroke="#63b8ff" points="458.91,-17.24 448.32,-16.94 456.41,-23.78 458.91,-17.24"/>
</a>
</g>
</g>
<!-- Node5 -->
<g id="Node000005" class="node">
<title>Node5</title>
<g id="a_Node000005"><a xlink:title=" ">
<polygon fill="#e0e0e0" stroke="#999999" points="591.7,-18 540.64,-18 540.64,0 591.7,0 591.7,-18"/>
<text text-anchor="middle" x="566.17" y="-6" font-family="Helvetica,sans-Serif" font-size="10.00">optional</text>
</a>
</g>
</g>
<!-- Node3&#45;&gt;Node5 -->
<g id="edge4_Node000003_Node000005" class="edge">
<title>Node3&#45;&gt;Node5</title>
<g id="a_edge4_Node000003_Node000005"><a xlink:title=" ">
<path fill="none" stroke="#63b8ff" d="M566.17,-53.88C566.17,-47.05 566.17,-37.03 566.17,-28.29"/>
<polygon fill="#63b8ff" stroke="#63b8ff" points="569.67,-28.24 566.17,-18.24 562.67,-28.24 569.67,-28.24"/>
</a>
</g>
</g>
<!-- Node6 -->
<g id="Node000006" class="node">
<title>Node6</title>
<g id="a_Node000006"><a xlink:title=" ">
<polygon fill="#e0e0e0" stroke="#999999" points="295.63,-18 254.72,-18 254.72,0 295.63,0 295.63,-18"/>
<text text-anchor="middle" x="275.17" y="-6" font-family="Helvetica,sans-Serif" font-size="10.00">string</text>
</a>
</g>
</g>
<!-- Node3&#45;&gt;Node6 -->
<g id="edge5_Node000003_Node000006" class="edge">
<title>Node3&#45;&gt;Node6</title>
<g id="a_edge5_Node000003_Node000006"><a xlink:title=" ">
<path fill="none" stroke="#63b8ff" d="M521.34,-53.99C461.51,-43.3 357.12,-24.64 305.65,-15.45"/>
<polygon fill="#63b8ff" stroke="#63b8ff" points="305.96,-11.95 295.5,-13.63 304.73,-18.84 305.96,-11.95"/>
</a>
</g>
</g>
<!-- Node11&#45;&gt;Node6 -->
<g id="edge15_Node000011_Node000006" class="edge">
<title>Node11&#45;&gt;Node6</title>
<g id="a_edge15_Node000011_Node000006"><a xlink:title=" ">
<path fill="none" stroke="#63b8ff" d="M169.96,-107.86C142.91,-97.09 103.99,-76.78 121.17,-54 136.04,-34.29 204.36,-20.76 244.83,-14.31"/>
<polygon fill="#63b8ff" stroke="#63b8ff" points="245.37,-17.77 254.72,-12.79 244.3,-10.85 245.37,-17.77"/>
</a>
</g>
</g>
<!-- Node11&#45;&gt;Node10 -->
<g id="edge14_Node000011_Node000010" class="edge">
<title>Node11&#45;&gt;Node10</title>
<g id="a_edge14_Node000011_Node000010"><a xlink:title=" ">
<path fill="none" stroke="#63b8ff" d="M209.73,-107.88C226.85,-99.48 253.79,-86.27 273.63,-76.53"/>
<polygon fill="#63b8ff" stroke="#63b8ff" points="275.29,-79.61 282.73,-72.07 272.21,-73.33 275.29,-79.61"/>
</a>
</g>
</g>
<!-- Node12 -->
<g id="Node000012" class="node">
<title>Node12</title>
<g id="a_Node000012"><a xlink:title=" ">
<polygon fill="#e0e0e0" stroke="#999999" points="186.25,-72 130.09,-72 130.09,-54 186.25,-54 186.25,-72"/>
<text text-anchor="middle" x="158.17" y="-60" font-family="Helvetica,sans-Serif" font-size="10.00">charconv</text>
</a>
</g>
</g>
<!-- Node11&#45;&gt;Node12 -->
<g id="edge12_Node000011_Node000012" class="edge">
<title>Node11&#45;&gt;Node12</title>
<g id="a_edge12_Node000011_Node000012"><a xlink:title=" ">
<path fill="none" stroke="#63b8ff" d="M187.7,-107.88C182.8,-100.59 175.46,-89.68 169.32,-80.56"/>
<polygon fill="#63b8ff" stroke="#63b8ff" points="172.21,-78.58 163.72,-72.24 166.4,-82.49 172.21,-78.58"/>
</a>
</g>
</g>
<!-- Node13 -->
<g id="Node000013" class="node">
<title>Node13</title>
<g id="a_Node000013"><a xlink:title=" ">
<polygon fill="#e0e0e0" stroke="#999999" points="251.25,-72 205.09,-72 205.09,-54 251.25,-54 251.25,-72"/>
<text text-anchor="middle" x="228.17" y="-60" font-family="Helvetica,sans-Serif" font-size="10.00">chrono</text>
</a>
</g>
</g>
<!-- Node11&#45;&gt;Node13 -->
<g id="edge13_Node000011_Node000013" class="edge">
<title>Node11&#45;&gt;Node13</title>
<g id="a_edge13_Node000011_Node000013"><a xlink:title=" ">
<path fill="none" stroke="#63b8ff" d="M198.64,-107.88C203.54,-100.59 210.89,-89.68 217.03,-80.56"/>
<polygon fill="#63b8ff" stroke="#63b8ff" points="219.95,-82.49 222.63,-72.24 214.14,-78.58 219.95,-82.49"/>
</a>
</g>
</g>
<!-- Node14 -->
<g id="Node000014" class="node">
<title>Node14</title>
<g id="a_Node000014"><a xlink:title=" ">
<polygon fill="#e0e0e0" stroke="#999999" points="74.52,-72 -0.17,-72 -0.17,-54 74.52,-54 74.52,-72"/>
<text text-anchor="middle" x="37.17" y="-60" font-family="Helvetica,sans-Serif" font-size="10.00">system_error</text>
</a>
</g>
</g>
<!-- Node11&#45;&gt;Node14 -->
<g id="edge16_Node000011_Node000014" class="edge">
<title>Node11&#45;&gt;Node14</title>
<g id="a_edge16_Node000011_Node000014"><a xlink:title=" ">
<path fill="none" stroke="#63b8ff" d="M169.14,-107.99C142.8,-99.21 100.36,-85.06 70.74,-75.19"/>
<polygon fill="#63b8ff" stroke="#63b8ff" points="71.83,-71.86 61.23,-72.02 69.61,-78.5 71.83,-71.86"/>
</a>
</g>
</g>
<!-- Node15&#45;&gt;Node3 -->
<g id="edge18_Node000015_Node000003" class="edge">
<title>Node15&#45;&gt;Node3</title>
<g id="a_edge18_Node000015_Node000003"><a xlink:title=" ">
<path fill="none" stroke="#63b8ff" d="M567.02,-107.88C566.88,-101.05 566.69,-91.03 566.52,-82.29"/>
<polygon fill="#63b8ff" stroke="#63b8ff" points="570.02,-82.17 566.33,-72.24 563.02,-82.31 570.02,-82.17"/>
</a>
</g>
</g>
<!-- Node15&#45;&gt;Node7 -->
<g id="edge19_Node000015_Node000007" class="edge">
<title>Node15&#45;&gt;Node7</title>
<g id="a_edge19_Node000015_Node000007"><a xlink:title=" ">
<path fill="none" stroke="#63b8ff" d="M582.02,-107.88C597.07,-99.63 620.62,-86.74 638.3,-77.07"/>
<polygon fill="#63b8ff" stroke="#63b8ff" points="640.34,-79.94 647.43,-72.07 636.98,-73.8 640.34,-79.94"/>
</a>
</g>
</g>
</g>
</svg>
