<?xml version="1.0" encoding="UTF-8" standalone="no"?>
<!DOCTYPE svg PUBLIC "-//W3C//DTD SVG 1.1//EN"
 "http://www.w3.org/Graphics/SVG/1.1/DTD/svg11.dtd">
<!-- Generated by graphviz version 2.48.0 (20210717.1556)
 -->
<!-- Title: package.hpp Pages: 1 -->
<svg width="311pt" height="134pt"
 viewBox="0.00 0.00 311.30 134.00" xmlns="http://www.w3.org/2000/svg" xmlns:xlink="http://www.w3.org/1999/xlink">
<g id="graph0" class="graph" transform="scale(1 1) rotate(0) translate(4 130)">
<title>package.hpp</title>
<!-- Node1 -->
<g id="Node000001" class="node">
<title>Node1</title>
<g id="a_Node000001"><a xlink:title=" ">
<polygon fill="#999999" stroke="#666666" points="266.85,-126 193.31,-126 193.31,-108 266.85,-108 266.85,-126"/>
<text text-anchor="middle" x="230.08" y="-114" font-family="Helvetica,sans-Serif" font-size="10.00">package.hpp</text>
</a>
</g>
</g>
<!-- Node2 -->
<g id="Node000002" class="node">
<title>Node2</title>
<g id="a_Node000002"><a xlink:href="container_8hpp.html" target="_top" xlink:title=" ">
<polygon fill="white" stroke="#666666" points="235.13,-72 159.02,-72 159.02,-54 235.13,-54 235.13,-72"/>
<text text-anchor="middle" x="197.08" y="-60" font-family="Helvetica,sans-Serif" font-size="10.00">container.hpp</text>
</a>
</g>
</g>
<!-- Node1&#45;&gt;Node2 -->
<g id="edge1_Node000001_Node000002" class="edge">
<title>Node1&#45;&gt;Node2</title>
<g id="a_edge1_Node000001_Node000002"><a xlink:title=" ">
<path fill="none" stroke="#63b8ff" d="M219.48,-99.3C213.74,-90.26 206.9,-79.49 202.31,-72.24"/>
<polygon fill="#63b8ff" stroke="#63b8ff" points="216.61,-101.31 224.92,-107.88 222.52,-97.56 216.61,-101.31"/>
</a>
</g>
</g>
<!-- Node6 -->
<g id="Node000006" class="node">
<title>Node6</title>
<g id="a_Node000006"><a xlink:href="xml_8cpp.html" target="_top" xlink:title=" ">
<polygon fill="white" stroke="#666666" points="303.53,-18 252.62,-18 252.62,0 303.53,0 303.53,-18"/>
<text text-anchor="middle" x="278.08" y="-6" font-family="Helvetica,sans-Serif" font-size="10.00">xml.cpp</text>
</a>
</g>
</g>
<!-- Node1&#45;&gt;Node6 -->
<g id="edge6_Node000001_Node000006" class="edge">
<title>Node1&#45;&gt;Node6</title>
<g id="a_edge6_Node000001_Node000006"><a xlink:title=" ">
<path fill="none" stroke="#63b8ff" d="M238.07,-98.34C248.57,-75.17 266.56,-35.43 274.33,-18.28"/>
<polygon fill="#63b8ff" stroke="#63b8ff" points="234.78,-97.13 233.84,-107.68 241.16,-100.02 234.78,-97.13"/>
</a>
</g>
</g>
<!-- Node3 -->
<g id="Node000003" class="node">
<title>Node3</title>
<g id="a_Node000003"><a xlink:href="binder_8cpp.html" target="_top" xlink:title=" ">
<polygon fill="white" stroke="#666666" points="62.23,-18 -0.08,-18 -0.08,0 62.23,0 62.23,-18"/>
<text text-anchor="middle" x="31.08" y="-6" font-family="Helvetica,sans-Serif" font-size="10.00">binder.cpp</text>
</a>
</g>
</g>
<!-- Node2&#45;&gt;Node3 -->
<g id="edge2_Node000002_Node000003" class="edge">
<title>Node2&#45;&gt;Node3</title>
<g id="a_edge2_Node000002_Node000003"><a xlink:title=" ">
<path fill="none" stroke="#63b8ff" d="M161.8,-50.95C130.27,-41.07 84.84,-26.84 56.68,-18.02"/>
<polygon fill="#63b8ff" stroke="#63b8ff" points="160.91,-54.34 171.5,-53.99 163.01,-47.66 160.91,-54.34"/>
</a>
</g>
</g>
<!-- Node4 -->
<g id="Node000004" class="node">
<title>Node4</title>
<g id="a_Node000004"><a xlink:href="comic_8cpp.html" target="_top" xlink:title=" ">
<polygon fill="white" stroke="#666666" points="141.59,-18 80.56,-18 80.56,0 141.59,0 141.59,-18"/>
<text text-anchor="middle" x="111.08" y="-6" font-family="Helvetica,sans-Serif" font-size="10.00">comic.cpp</text>
</a>
</g>
</g>
<!-- Node2&#45;&gt;Node4 -->
<g id="edge3_Node000002_Node000004" class="edge">
<title>Node2&#45;&gt;Node4</title>
<g id="a_edge3_Node000002_Node000004"><a xlink:title=" ">
<path fill="none" stroke="#63b8ff" d="M174.91,-48.6C158.93,-38.94 137.89,-26.21 124.42,-18.07"/>
<polygon fill="#63b8ff" stroke="#63b8ff" points="173.27,-51.7 183.64,-53.88 176.89,-45.71 173.27,-51.7"/>
</a>
</g>
</g>
<!-- Node5 -->
<g id="Node000005" class="node">
<title>Node5</title>
<g id="a_Node000005"><a xlink:href="container_8cpp.html" target="_top" xlink:title=" ">
<polygon fill="white" stroke="#666666" points="235.07,-18 159.08,-18 159.08,0 235.07,0 235.07,-18"/>
<text text-anchor="middle" x="197.08" y="-6" font-family="Helvetica,sans-Serif" font-size="10.00">container.cpp</text>
</a>
</g>
</g>
<!-- Node2&#45;&gt;Node5 -->
<g id="edge4_Node000002_Node000005" class="edge">
<title>Node2&#45;&gt;Node5</title>
<g id="a_edge4_Node000002_Node000005"><a xlink:title=" ">
<path fill="none" stroke="#63b8ff" d="M197.08,-43.86C197.08,-35.13 197.08,-25.1 197.08,-18.24"/>
<polygon fill="#63b8ff" stroke="#63b8ff" points="193.58,-43.87 197.08,-53.88 200.58,-43.88 193.58,-43.87"/>
</a>
</g>
</g>
<!-- Node2&#45;&gt;Node6 -->
<g id="edge5_Node000002_Node000006" class="edge">
<title>Node2&#45;&gt;Node6</title>
<g id="a_edge5_Node000002_Node000006"><a xlink:title=" ">
<path fill="none" stroke="#63b8ff" d="M218.38,-48.33C233.37,-38.7 252.94,-26.14 265.51,-18.07"/>
<polygon fill="#63b8ff" stroke="#63b8ff" points="216.26,-45.53 209.73,-53.88 220.04,-51.42 216.26,-45.53"/>
</a>
</g>
</g>
</g>
</svg>
