<?xml version="1.0" encoding="UTF-8" standalone="no"?>
<!DOCTYPE svg PUBLIC "-//W3C//DTD SVG 1.1//EN"
 "http://www.w3.org/Graphics/SVG/1.1/DTD/svg11.dtd">
<!-- Generated by graphviz version 2.48.0 (20210717.1556)
 -->
<!-- Title: spine.hpp Pages: 1 -->
<svg width="243pt" height="188pt"
 viewBox="0.00 0.00 243.25 188.00" xmlns="http://www.w3.org/2000/svg" xmlns:xlink="http://www.w3.org/1999/xlink">
<g id="graph0" class="graph" transform="scale(1 1) rotate(0) translate(4 184)">
<title>spine.hpp</title>
<!-- Node1 -->
<g id="Node000001" class="node">
<title>Node1</title>
<g id="a_Node000001"><a xlink:title=" ">
<polygon fill="#999999" stroke="#666666" points="100.38,-180 40.64,-180 40.64,-162 100.38,-162 100.38,-180"/>
<text text-anchor="middle" x="70.51" y="-168" font-family="Helvetica,sans-Serif" font-size="10.00">spine.hpp</text>
</a>
</g>
</g>
<!-- Node2 -->
<g id="Node000002" class="node">
<title>Node2</title>
<g id="a_Node000002"><a xlink:href="comic_8cpp.html" target="_top" xlink:title=" ">
<polygon fill="white" stroke="#666666" points="61.02,-18 -0.01,-18 -0.01,0 61.02,0 61.02,-18"/>
<text text-anchor="middle" x="30.51" y="-6" font-family="Helvetica,sans-Serif" font-size="10.00">comic.cpp</text>
</a>
</g>
</g>
<!-- Node1&#45;&gt;Node2 -->
<g id="edge1_Node000001_Node000002" class="edge">
<title>Node1&#45;&gt;Node2</title>
<g id="a_edge1_Node000001_Node000002"><a xlink:title=" ">
<path fill="none" stroke="#63b8ff" d="M65.94,-151.74C57.29,-117.12 38.8,-43.16 32.59,-18.33"/>
<polygon fill="#63b8ff" stroke="#63b8ff" points="62.65,-152.99 68.47,-161.85 69.44,-151.3 62.65,-152.99"/>
</a>
</g>
</g>
<!-- Node3 -->
<g id="Node000003" class="node">
<title>Node3</title>
<g id="a_Node000003"><a xlink:href="package_8hpp.html" target="_top" xlink:title=" ">
<polygon fill="white" stroke="#666666" points="143.28,-126 69.74,-126 69.74,-108 143.28,-108 143.28,-126"/>
<text text-anchor="middle" x="106.51" y="-114" font-family="Helvetica,sans-Serif" font-size="10.00">package.hpp</text>
</a>
</g>
</g>
<!-- Node1&#45;&gt;Node3 -->
<g id="edge2_Node000001_Node000003" class="edge">
<title>Node1&#45;&gt;Node3</title>
<g id="a_edge2_Node000001_Node000003"><a xlink:title=" ">
<path fill="none" stroke="#63b8ff" d="M81.87,-153.58C88.17,-144.48 95.73,-133.56 100.8,-126.24"/>
<polygon fill="#63b8ff" stroke="#63b8ff" points="78.95,-151.66 76.13,-161.88 84.7,-155.65 78.95,-151.66"/>
</a>
</g>
</g>
<!-- Node4 -->
<g id="Node000004" class="node">
<title>Node4</title>
<g id="a_Node000004"><a xlink:href="container_8hpp.html" target="_top" xlink:title=" ">
<polygon fill="white" stroke="#666666" points="144.56,-72 68.45,-72 68.45,-54 144.56,-54 144.56,-72"/>
<text text-anchor="middle" x="106.51" y="-60" font-family="Helvetica,sans-Serif" font-size="10.00">container.hpp</text>
</a>
</g>
</g>
<!-- Node3&#45;&gt;Node4 -->
<g id="edge3_Node000003_Node000004" class="edge">
<title>Node3&#45;&gt;Node4</title>
<g id="a_edge3_Node000003_Node000004"><a xlink:title=" ">
<path fill="none" stroke="#63b8ff" d="M106.51,-97.86C106.51,-89.13 106.51,-79.1 106.51,-72.24"/>
<polygon fill="#63b8ff" stroke="#63b8ff" points="103.01,-97.87 106.51,-107.88 110.01,-97.88 103.01,-97.87"/>
</a>
</g>
</g>
<!-- Node7 -->
<g id="Node000007" class="node">
<title>Node7</title>
<g id="a_Node000007"><a xlink:href="xml_8cpp.html" target="_top" xlink:title=" ">
<polygon fill="white" stroke="#666666" points="212.96,-72 162.05,-72 162.05,-54 212.96,-54 212.96,-72"/>
<text text-anchor="middle" x="187.51" y="-60" font-family="Helvetica,sans-Serif" font-size="10.00">xml.cpp</text>
</a>
</g>
</g>
<!-- Node3&#45;&gt;Node7 -->
<g id="edge7_Node000003_Node000007" class="edge">
<title>Node3&#45;&gt;Node7</title>
<g id="a_edge7_Node000003_Node000007"><a xlink:title=" ">
<path fill="none" stroke="#63b8ff" d="M127.81,-102.33C142.8,-92.7 162.37,-80.14 174.94,-72.07"/>
<polygon fill="#63b8ff" stroke="#63b8ff" points="125.69,-99.53 119.16,-107.88 129.47,-105.42 125.69,-99.53"/>
</a>
</g>
</g>
<!-- Node4&#45;&gt;Node2 -->
<g id="edge5_Node000004_Node000002" class="edge">
<title>Node4&#45;&gt;Node2</title>
<g id="a_edge5_Node000004_Node000002"><a xlink:title=" ">
<path fill="none" stroke="#63b8ff" d="M86.18,-48.09C72.25,-38.56 54.25,-26.25 42.55,-18.24"/>
<polygon fill="#63b8ff" stroke="#63b8ff" points="84.4,-51.12 94.63,-53.88 88.36,-45.34 84.4,-51.12"/>
</a>
</g>
</g>
<!-- Node5 -->
<g id="Node000005" class="node">
<title>Node5</title>
<g id="a_Node000005"><a xlink:href="binder_8cpp.html" target="_top" xlink:title=" ">
<polygon fill="white" stroke="#666666" points="141.66,-18 79.35,-18 79.35,0 141.66,0 141.66,-18"/>
<text text-anchor="middle" x="110.51" y="-6" font-family="Helvetica,sans-Serif" font-size="10.00">binder.cpp</text>
</a>
</g>
</g>
<!-- Node4&#45;&gt;Node5 -->
<g id="edge4_Node000004_Node000005" class="edge">
<title>Node4&#45;&gt;Node5</title>
<g id="a_edge4_Node000004_Node000005"><a xlink:title=" ">
<path fill="none" stroke="#63b8ff" d="M107.9,-43.86C108.57,-35.13 109.35,-25.1 109.87,-18.24"/>
<polygon fill="#63b8ff" stroke="#63b8ff" points="104.41,-43.64 107.13,-53.88 111.39,-44.17 104.41,-43.64"/>
</a>
</g>
</g>
<!-- Node6 -->
<g id="Node000006" class="node">
<title>Node6</title>
<g id="a_Node000006"><a xlink:href="container_8cpp.html" target="_top" xlink:title=" ">
<polygon fill="white" stroke="#666666" points="235.5,-18 159.51,-18 159.51,0 235.5,0 235.5,-18"/>
<text text-anchor="middle" x="197.51" y="-6" font-family="Helvetica,sans-Serif" font-size="10.00">container.cpp</text>
</a>
</g>
</g>
<!-- Node4&#45;&gt;Node6 -->
<g id="edge6_Node000004_Node000006" class="edge">
<title>Node4&#45;&gt;Node6</title>
<g id="a_edge6_Node000004_Node000006"><a xlink:title=" ">
<path fill="none" stroke="#63b8ff" d="M129.49,-48.87C146.45,-39.17 169,-26.29 183.39,-18.07"/>
<polygon fill="#63b8ff" stroke="#63b8ff" points="127.67,-45.87 120.73,-53.88 131.15,-51.95 127.67,-45.87"/>
</a>
</g>
</g>
</g>
</svg>
