<?xml version="1.0" encoding="UTF-8" standalone="no"?>
<!DOCTYPE svg PUBLIC "-//W3C//DTD SVG 1.1//EN"
 "http://www.w3.org/Graphics/SVG/1.1/DTD/svg11.dtd">
<!-- Generated by graphviz version 2.48.0 (20210717.1556)
 -->
<!-- Title: spine.hpp Pages: 1 -->
<svg width="188pt" height="188pt"
 viewBox="0.00 0.00 188.30 188.00" xmlns="http://www.w3.org/2000/svg" xmlns:xlink="http://www.w3.org/1999/xlink">
<g id="graph0" class="graph" transform="scale(1 1) rotate(0) translate(4 184)">
<title>spine.hpp</title>
<!-- Node1 -->
<g id="Node000001" class="node">
<title>Node1</title>
<g id="a_Node000001"><a xlink:title=" ">
<polygon fill="#999999" stroke="#666666" points="143.95,-180 84.21,-180 84.21,-162 143.95,-162 143.95,-180"/>
<text text-anchor="middle" x="114.08" y="-168" font-family="Helvetica,sans-Serif" font-size="10.00">spine.hpp</text>
</a>
</g>
</g>
<!-- Node2 -->
<g id="Node000002" class="node">
<title>Node2</title>
<g id="a_Node000002"><a xlink:href="package_8hpp.html" target="_top" xlink:title=" ">
<polygon fill="white" stroke="#666666" points="150.85,-126 77.31,-126 77.31,-108 150.85,-108 150.85,-126"/>
<text text-anchor="middle" x="114.08" y="-114" font-family="Helvetica,sans-Serif" font-size="10.00">package.hpp</text>
</a>
</g>
</g>
<!-- Node1&#45;&gt;Node2 -->
<g id="edge1_Node000001_Node000002" class="edge">
<title>Node1&#45;&gt;Node2</title>
<g id="a_edge1_Node000001_Node000002"><a xlink:title=" ">
<path fill="none" stroke="#63b8ff" d="M114.08,-151.86C114.08,-143.13 114.08,-133.1 114.08,-126.24"/>
<polygon fill="#63b8ff" stroke="#63b8ff" points="110.58,-151.87 114.08,-161.88 117.58,-151.88 110.58,-151.87"/>
</a>
</g>
</g>
<!-- Node3 -->
<g id="Node000003" class="node">
<title>Node3</title>
<g id="a_Node000003"><a xlink:href="container_8hpp.html" target="_top" xlink:title=" ">
<polygon fill="white" stroke="#666666" points="112.13,-72 36.02,-72 36.02,-54 112.13,-54 112.13,-72"/>
<text text-anchor="middle" x="74.08" y="-60" font-family="Helvetica,sans-Serif" font-size="10.00">container.hpp</text>
</a>
</g>
</g>
<!-- Node2&#45;&gt;Node3 -->
<g id="edge2_Node000002_Node000003" class="edge">
<title>Node2&#45;&gt;Node3</title>
<g id="a_edge2_Node000002_Node000003"><a xlink:title=" ">
<path fill="none" stroke="#63b8ff" d="M101.67,-99.87C94.62,-90.71 86.11,-79.64 80.41,-72.24"/>
<polygon fill="#63b8ff" stroke="#63b8ff" points="98.95,-102.08 107.83,-107.88 104.5,-97.81 98.95,-102.08"/>
</a>
</g>
</g>
<!-- Node6 -->
<g id="Node000006" class="node">
<title>Node6</title>
<g id="a_Node000006"><a xlink:href="xml_8cpp.html" target="_top" xlink:title=" ">
<polygon fill="white" stroke="#666666" points="180.53,-72 129.62,-72 129.62,-54 180.53,-54 180.53,-72"/>
<text text-anchor="middle" x="155.08" y="-60" font-family="Helvetica,sans-Serif" font-size="10.00">xml.cpp</text>
</a>
</g>
</g>
<!-- Node2&#45;&gt;Node6 -->
<g id="edge5_Node000002_Node000006" class="edge">
<title>Node2&#45;&gt;Node6</title>
<g id="a_edge5_Node000002_Node000006"><a xlink:title=" ">
<path fill="none" stroke="#63b8ff" d="M126.8,-99.87C134.02,-90.71 142.75,-79.64 148.58,-72.24"/>
<polygon fill="#63b8ff" stroke="#63b8ff" points="123.93,-97.86 120.48,-107.88 129.42,-102.19 123.93,-97.86"/>
</a>
</g>
</g>
<!-- Node4 -->
<g id="Node000004" class="node">
<title>Node4</title>
<g id="a_Node000004"><a xlink:href="binder_8cpp.html" target="_top" xlink:title=" ">
<polygon fill="white" stroke="#666666" points="62.23,-18 -0.08,-18 -0.08,0 62.23,0 62.23,-18"/>
<text text-anchor="middle" x="31.08" y="-6" font-family="Helvetica,sans-Serif" font-size="10.00">binder.cpp</text>
</a>
</g>
</g>
<!-- Node3&#45;&gt;Node4 -->
<g id="edge3_Node000003_Node000004" class="edge">
<title>Node3&#45;&gt;Node4</title>
<g id="a_edge3_Node000003_Node000004"><a xlink:title=" ">
<path fill="none" stroke="#63b8ff" d="M60.97,-46.15C53.35,-36.94 44.07,-25.71 37.89,-18.24"/>
<polygon fill="#63b8ff" stroke="#63b8ff" points="58.29,-48.4 67.36,-53.88 63.68,-43.94 58.29,-48.4"/>
</a>
</g>
</g>
<!-- Node5 -->
<g id="Node000005" class="node">
<title>Node5</title>
<g id="a_Node000005"><a xlink:href="container_8cpp.html" target="_top" xlink:title=" ">
<polygon fill="white" stroke="#666666" points="156.07,-18 80.08,-18 80.08,0 156.07,0 156.07,-18"/>
<text text-anchor="middle" x="118.08" y="-6" font-family="Helvetica,sans-Serif" font-size="10.00">container.cpp</text>
</a>
</g>
</g>
<!-- Node3&#45;&gt;Node5 -->
<g id="edge4_Node000003_Node000005" class="edge">
<title>Node3&#45;&gt;Node5</title>
<g id="a_edge4_Node000003_Node000005"><a xlink:title=" ">
<path fill="none" stroke="#63b8ff" d="M87.49,-46.15C95.28,-36.94 104.78,-25.71 111.1,-18.24"/>
<polygon fill="#63b8ff" stroke="#63b8ff" points="84.74,-43.98 80.95,-53.88 90.08,-48.5 84.74,-43.98"/>
</a>
</g>
</g>
</g>
</svg>
