<?xml version="1.0" encoding="UTF-8" standalone="no"?>
<!DOCTYPE svg PUBLIC "-//W3C//DTD SVG 1.1//EN"
 "http://www.w3.org/Graphics/SVG/1.1/DTD/svg11.dtd">
<!-- Generated by graphviz version 2.48.0 (20210717.1556)
 -->
<!-- Title: spine.hpp Pages: 1 -->
<svg width="600pt" height="188pt"
 viewBox="0.00 0.00 599.84 188.00" xmlns="http://www.w3.org/2000/svg" xmlns:xlink="http://www.w3.org/1999/xlink">
<g id="graph0" class="graph" transform="scale(1 1) rotate(0) translate(4 184)">
<title>spine.hpp</title>
<!-- Node1 -->
<g id="Node000001" class="node">
<title>Node1</title>
<g id="a_Node000001"><a xlink:title=" ">
<polygon fill="#999999" stroke="#666666" points="429.1,-180 369.36,-180 369.36,-162 429.1,-162 429.1,-180"/>
<text text-anchor="middle" x="399.23" y="-168" font-family="Helvetica,sans-Serif" font-size="10.00">spine.hpp</text>
</a>
</g>
</g>
<!-- Node2 -->
<g id="Node000002" class="node">
<title>Node2</title>
<g id="a_Node000002"><a xlink:href="manifest_8hpp.html" target="_top" xlink:title=" ">
<polygon fill="white" stroke="#666666" points="277.98,-126 204.47,-126 204.47,-108 277.98,-108 277.98,-126"/>
<text text-anchor="middle" x="241.23" y="-114" font-family="Helvetica,sans-Serif" font-size="10.00">manifest.hpp</text>
</a>
</g>
</g>
<!-- Node1&#45;&gt;Node2 -->
<g id="edge1_Node000001_Node000002" class="edge">
<title>Node1&#45;&gt;Node2</title>
<g id="a_edge1_Node000001_Node000002"><a xlink:title=" ">
<path fill="none" stroke="#63b8ff" d="M374.89,-161.99C348.21,-153.21 305.23,-139.06 275.23,-129.19"/>
<polygon fill="#63b8ff" stroke="#63b8ff" points="276.19,-125.82 265.6,-126.02 274,-132.47 276.19,-125.82"/>
</a>
</g>
</g>
<!-- Node8 -->
<g id="Node000008" class="node">
<title>Node8</title>
<g id="a_Node000008"><a xlink:title=" ">
<polygon fill="#e0e0e0" stroke="#999999" points="359.34,-72 307.11,-72 307.11,-54 359.34,-54 359.34,-72"/>
<text text-anchor="middle" x="333.23" y="-60" font-family="Helvetica,sans-Serif" font-size="10.00">memory</text>
</a>
</g>
</g>
<!-- Node1&#45;&gt;Node8 -->
<g id="edge13_Node000001_Node000008" class="edge">
<title>Node1&#45;&gt;Node8</title>
<g id="a_edge13_Node000001_Node000008"><a xlink:title=" ">
<path fill="none" stroke="#63b8ff" d="M394.05,-161.68C383.25,-144.34 358.16,-104.04 343.8,-80.99"/>
<polygon fill="#63b8ff" stroke="#63b8ff" points="346.64,-78.92 338.38,-72.28 340.7,-82.62 346.64,-78.92"/>
</a>
</g>
</g>
<!-- Node9 -->
<g id="Node000009" class="node">
<title>Node9</title>
<g id="a_Node000009"><a xlink:title=" ">
<polygon fill="#e0e0e0" stroke="#999999" points="423.3,-72 377.15,-72 377.15,-54 423.3,-54 423.3,-72"/>
<text text-anchor="middle" x="400.23" y="-60" font-family="Helvetica,sans-Serif" font-size="10.00">ranges</text>
</a>
</g>
</g>
<!-- Node1&#45;&gt;Node9 -->
<g id="edge14_Node000001_Node000009" class="edge">
<title>Node1&#45;&gt;Node9</title>
<g id="a_edge14_Node000001_Node000009"><a xlink:title=" ">
<path fill="none" stroke="#63b8ff" d="M396.74,-162C393.38,-150.2 388.04,-127.46 390.23,-108 391.2,-99.32 393.22,-89.86 395.19,-81.94"/>
<polygon fill="#63b8ff" stroke="#63b8ff" points="398.65,-82.58 397.84,-72.02 391.88,-80.78 398.65,-82.58"/>
</a>
</g>
</g>
<!-- Node11 -->
<g id="Node000011" class="node">
<title>Node11</title>
<g id="a_Node000011"><a xlink:title=" ">
<polygon fill="#e0e0e0" stroke="#999999" points="457.53,-126 398.92,-126 398.92,-108 457.53,-108 457.53,-126"/>
<text text-anchor="middle" x="428.23" y="-114" font-family="Helvetica,sans-Serif" font-size="10.00">functional</text>
</a>
</g>
</g>
<!-- Node1&#45;&gt;Node11 -->
<g id="edge11_Node000001_Node000011" class="edge">
<title>Node1&#45;&gt;Node11</title>
<g id="a_edge11_Node000001_Node000011"><a xlink:title=" ">
<path fill="none" stroke="#63b8ff" d="M403.76,-161.88C407.74,-154.74 413.65,-144.13 418.67,-135.13"/>
<polygon fill="#63b8ff" stroke="#63b8ff" points="421.82,-136.68 423.63,-126.24 415.7,-133.27 421.82,-136.68"/>
</a>
</g>
</g>
<!-- Node12 -->
<g id="Node000012" class="node">
<title>Node12</title>
<g id="a_Node000012"><a xlink:title=" ">
<polygon fill="#e0e0e0" stroke="#999999" points="530.57,-126 475.88,-126 475.88,-108 530.57,-108 530.57,-126"/>
<text text-anchor="middle" x="503.23" y="-114" font-family="Helvetica,sans-Serif" font-size="10.00">iostream</text>
</a>
</g>
</g>
<!-- Node1&#45;&gt;Node12 -->
<g id="edge12_Node000001_Node000012" class="edge">
<title>Node1&#45;&gt;Node12</title>
<g id="a_edge12_Node000001_Node000012"><a xlink:title=" ">
<path fill="none" stroke="#63b8ff" d="M415.48,-161.88C432.19,-153.52 458.46,-140.39 477.9,-130.66"/>
<polygon fill="#63b8ff" stroke="#63b8ff" points="479.71,-133.67 487.09,-126.07 476.58,-127.41 479.71,-133.67"/>
</a>
</g>
</g>
<!-- Node13 -->
<g id="Node000013" class="node">
<title>Node13</title>
<g id="a_Node000013"><a xlink:title=" ">
<polygon fill="#e0e0e0" stroke="#999999" points="591.96,-126 548.49,-126 548.49,-108 591.96,-108 591.96,-126"/>
<text text-anchor="middle" x="570.23" y="-114" font-family="Helvetica,sans-Serif" font-size="10.00">vector</text>
</a>
</g>
</g>
<!-- Node1&#45;&gt;Node13 -->
<g id="edge15_Node000001_Node000013" class="edge">
<title>Node1&#45;&gt;Node13</title>
<g id="a_edge15_Node000001_Node000013"><a xlink:title=" ">
<path fill="none" stroke="#63b8ff" d="M425.57,-161.99C456,-152.73 506.05,-137.52 538.57,-127.63"/>
<polygon fill="#63b8ff" stroke="#63b8ff" points="539.92,-130.88 548.47,-124.62 537.88,-124.18 539.92,-130.88"/>
</a>
</g>
</g>
<!-- Node3 -->
<g id="Node000003" class="node">
<title>Node3</title>
<g id="a_Node000003"><a xlink:href="file__metadata_8hpp.html" target="_top" xlink:title=" ">
<polygon fill="white" stroke="#666666" points="288.73,-72 193.72,-72 193.72,-54 288.73,-54 288.73,-72"/>
<text text-anchor="middle" x="241.23" y="-60" font-family="Helvetica,sans-Serif" font-size="10.00">file_metadata.hpp</text>
</a>
</g>
</g>
<!-- Node2&#45;&gt;Node3 -->
<g id="edge2_Node000002_Node000003" class="edge">
<title>Node2&#45;&gt;Node3</title>
<g id="a_edge2_Node000002_Node000003"><a xlink:title=" ">
<path fill="none" stroke="#63b8ff" d="M241.23,-107.88C241.23,-101.05 241.23,-91.03 241.23,-82.29"/>
<polygon fill="#63b8ff" stroke="#63b8ff" points="244.73,-82.24 241.23,-72.24 237.73,-82.24 244.73,-82.24"/>
</a>
</g>
</g>
<!-- Node4 -->
<g id="Node000004" class="node">
<title>Node4</title>
<g id="a_Node000004"><a xlink:title=" ">
<polygon fill="#e0e0e0" stroke="#999999" points="193.18,-18 157.27,-18 157.27,0 193.18,0 193.18,-18"/>
<text text-anchor="middle" x="175.23" y="-6" font-family="Helvetica,sans-Serif" font-size="10.00">map</text>
</a>
</g>
</g>
<!-- Node2&#45;&gt;Node4 -->
<g id="edge7_Node000002_Node000004" class="edge">
<title>Node2&#45;&gt;Node4</title>
<g id="a_edge7_Node000002_Node000004"><a xlink:title=" ">
<path fill="none" stroke="#63b8ff" d="M224.87,-107.94C211.63,-100.51 193.69,-88.19 184.23,-72 176.5,-58.78 174.55,-41.35 174.36,-28.34"/>
<polygon fill="#63b8ff" stroke="#63b8ff" points="177.86,-28.32 174.54,-18.26 170.86,-28.2 177.86,-28.32"/>
</a>
</g>
</g>
<!-- Node7 -->
<g id="Node000007" class="node">
<title>Node7</title>
<g id="a_Node000007"><a xlink:title=" ">
<polygon fill="#e0e0e0" stroke="#999999" points="60.68,-72 -0.23,-72 -0.23,-54 60.68,-54 60.68,-72"/>
<text text-anchor="middle" x="30.23" y="-60" font-family="Helvetica,sans-Serif" font-size="10.00">filesystem</text>
</a>
</g>
</g>
<!-- Node2&#45;&gt;Node7 -->
<g id="edge6_Node000002_Node000007" class="edge">
<title>Node2&#45;&gt;Node7</title>
<g id="a_edge6_Node000002_Node000007"><a xlink:title=" ">
<path fill="none" stroke="#63b8ff" d="M208.72,-107.99C171.53,-98.82 110.6,-83.81 70.45,-73.91"/>
<polygon fill="#63b8ff" stroke="#63b8ff" points="71.26,-70.51 60.71,-71.51 69.59,-77.3 71.26,-70.51"/>
</a>
</g>
</g>
<!-- Node2&#45;&gt;Node8 -->
<g id="edge8_Node000002_Node000008" class="edge">
<title>Node2&#45;&gt;Node8</title>
<g id="a_edge8_Node000002_Node000008"><a xlink:title=" ">
<path fill="none" stroke="#63b8ff" d="M255.6,-107.88C270.18,-99.63 292.99,-86.74 310.11,-77.07"/>
<polygon fill="#63b8ff" stroke="#63b8ff" points="311.97,-80.04 318.95,-72.07 308.52,-73.94 311.97,-80.04"/>
</a>
</g>
</g>
<!-- Node2&#45;&gt;Node9 -->
<g id="edge9_Node000002_Node000009" class="edge">
<title>Node2&#45;&gt;Node9</title>
<g id="a_edge9_Node000002_Node000009"><a xlink:title=" ">
<path fill="none" stroke="#63b8ff" d="M265.72,-107.99C292.96,-99.08 337.09,-84.65 367.32,-74.76"/>
<polygon fill="#63b8ff" stroke="#63b8ff" points="368.58,-78.03 377,-71.6 366.4,-71.38 368.58,-78.03"/>
</a>
</g>
</g>
<!-- Node10 -->
<g id="Node000010" class="node">
<title>Node10</title>
<g id="a_Node000010"><a xlink:title=" ">
<polygon fill="#e0e0e0" stroke="#999999" points="137.53,-72 78.92,-72 78.92,-54 137.53,-54 137.53,-72"/>
<text text-anchor="middle" x="108.23" y="-60" font-family="Helvetica,sans-Serif" font-size="10.00">stdexcept</text>
</a>
</g>
</g>
<!-- Node2&#45;&gt;Node10 -->
<g id="edge10_Node000002_Node000010" class="edge">
<title>Node2&#45;&gt;Node10</title>
<g id="a_edge10_Node000002_Node000010"><a xlink:title=" ">
<path fill="none" stroke="#63b8ff" d="M220.74,-107.99C198.74,-99.39 163.56,-85.63 138.4,-75.8"/>
<polygon fill="#63b8ff" stroke="#63b8ff" points="139.55,-72.49 128.96,-72.11 137,-79.01 139.55,-72.49"/>
</a>
</g>
</g>
<!-- Node3&#45;&gt;Node4 -->
<g id="edge3_Node000003_Node000004" class="edge">
<title>Node3&#45;&gt;Node4</title>
<g id="a_edge3_Node000003_Node000004"><a xlink:title=" ">
<path fill="none" stroke="#63b8ff" d="M230.91,-53.88C220.99,-46.06 205.78,-34.07 193.75,-24.6"/>
<polygon fill="#63b8ff" stroke="#63b8ff" points="195.71,-21.68 185.68,-18.24 191.37,-27.18 195.71,-21.68"/>
</a>
</g>
</g>
<!-- Node5 -->
<g id="Node000005" class="node">
<title>Node5</title>
<g id="a_Node000005"><a xlink:title=" ">
<polygon fill="#e0e0e0" stroke="#999999" points="325.76,-18 274.7,-18 274.7,0 325.76,0 325.76,-18"/>
<text text-anchor="middle" x="300.23" y="-6" font-family="Helvetica,sans-Serif" font-size="10.00">optional</text>
</a>
</g>
</g>
<!-- Node3&#45;&gt;Node5 -->
<g id="edge4_Node000003_Node000005" class="edge">
<title>Node3&#45;&gt;Node5</title>
<g id="a_edge4_Node000003_Node000005"><a xlink:title=" ">
<path fill="none" stroke="#63b8ff" d="M250.45,-53.88C259.23,-46.14 272.65,-34.3 283.35,-24.87"/>
<polygon fill="#63b8ff" stroke="#63b8ff" points="285.69,-27.48 290.88,-18.24 281.06,-22.23 285.69,-27.48"/>
</a>
</g>
</g>
<!-- Node6 -->
<g id="Node000006" class="node">
<title>Node6</title>
<g id="a_Node000006"><a xlink:title=" ">
<polygon fill="#e0e0e0" stroke="#999999" points="256.68,-18 215.77,-18 215.77,0 256.68,0 256.68,-18"/>
<text text-anchor="middle" x="236.23" y="-6" font-family="Helvetica,sans-Serif" font-size="10.00">string</text>
</a>
</g>
</g>
<!-- Node3&#45;&gt;Node6 -->
<g id="edge5_Node000003_Node000006" class="edge">
<title>Node3&#45;&gt;Node6</title>
<g id="a_edge5_Node000003_Node000006"><a xlink:title=" ">
<path fill="none" stroke="#63b8ff" d="M240.45,-53.88C239.79,-47.05 238.83,-37.03 237.99,-28.29"/>
<polygon fill="#63b8ff" stroke="#63b8ff" points="241.46,-27.86 237.02,-18.24 234.49,-28.53 241.46,-27.86"/>
</a>
</g>
</g>
</g>
</svg>
