<?xml version="1.0" encoding="UTF-8" standalone="no"?>
<!DOCTYPE svg PUBLIC "-//W3C//DTD SVG 1.1//EN"
 "http://www.w3.org/Graphics/SVG/1.1/DTD/svg11.dtd">
<!-- Generated by graphviz version 2.48.0 (20210717.1556)
 -->
<!-- Title: geom::size Pages: 1 -->
<svg width="120pt" height="92pt"
 viewBox="0.00 0.00 120.00 92.00" xmlns="http://www.w3.org/2000/svg" xmlns:xlink="http://www.w3.org/1999/xlink">
<g id="graph0" class="graph" transform="scale(1 1) rotate(0) translate(4 88)">
<title>geom::size</title>
<!-- Node1 -->
<g id="Node000001" class="node">
<title>Node1</title>
<g id="a_Node000001"><a xlink:title=" ">
<polygon fill="#999999" stroke="transparent" points="112,-84 0,-84 0,0 112,0 112,-84"/>
<text text-anchor="start" x="31.82" y="-72" font-family="Helvetica,sans-Serif" font-size="10.00">geom::size</text>
<text text-anchor="start" x="3.58" y="-58" font-family="Helvetica,sans-Serif" font-size="10.00">+</text>
<text text-anchor="start" x="13" y="-58" font-family="Helvetica,sans-Serif" font-size="10.00">std::size_t w</text>
<text text-anchor="start" x="3.58" y="-44" font-family="Helvetica,sans-Serif" font-size="10.00">+</text>
<text text-anchor="start" x="13" y="-44" font-family="Helvetica,sans-Serif" font-size="10.00">std::size_t h</text>
<text text-anchor="start" x="3.58" y="-30" font-family="Helvetica,sans-Serif" font-size="10.00">+</text>
<text text-anchor="start" x="13" y="-30" font-family="Helvetica,sans-Serif" font-size="10.00">size()</text>
<text text-anchor="start" x="3.58" y="-16" font-family="Helvetica,sans-Serif" font-size="10.00">+</text>
<text text-anchor="start" x="13" y="-16" font-family="Helvetica,sans-Serif" font-size="10.00">size(std::size_t width,</text>
<text text-anchor="start" x="13" y="-6" font-family="Helvetica,sans-Serif" font-size="10.00"> std::size_t height)</text>
<polygon fill="#666666" stroke="#666666" points="0,-68 0,-68 112,-68 112,-68 0,-68"/>
<polygon fill="#666666" stroke="#666666" points="0,-40 0,-40 11,-40 11,-40 0,-40"/>
<polygon fill="#666666" stroke="#666666" points="11,-40 11,-40 112,-40 112,-40 11,-40"/>
<polygon fill="none" stroke="#666666" points="0,0 0,-84 112,-84 112,0 0,0"/>
</a>
</g>
</g>
</g>
</svg>
