<?xml version="1.0" encoding="UTF-8" standalone="no"?>
<!DOCTYPE svg PUBLIC "-//W3C//DTD SVG 1.1//EN"
 "http://www.w3.org/Graphics/SVG/1.1/DTD/svg11.dtd">
<!-- Generated by graphviz version 2.48.0 (20210717.1556)
 -->
<!-- Title: geom::rect Pages: 1 -->
<svg width="236pt" height="390pt"
 viewBox="0.00 0.00 235.50 390.00" xmlns="http://www.w3.org/2000/svg" xmlns:xlink="http://www.w3.org/1999/xlink">
<g id="graph0" class="graph" transform="scale(1 1) rotate(0) translate(4 386)">
<title>geom::rect</title>
<!-- Node1 -->
<g id="Node000001" class="node">
<title>Node1</title>
<g id="a_Node000001"><a xlink:title=" ">
<polygon fill="#999999" stroke="transparent" points="169.5,-252 49.5,-252 49.5,0 169.5,0 169.5,-252"/>
<text text-anchor="start" x="85.88" y="-240" font-family="Helvetica,sans-Serif" font-size="10.00">geom::rect</text>
<text text-anchor="start" x="108.11" y="-226" font-family="Helvetica,sans-Serif" font-size="10.00"> </text>
<text text-anchor="start" x="53.08" y="-212" font-family="Helvetica,sans-Serif" font-size="10.00">+</text>
<text text-anchor="start" x="62.5" y="-212" font-family="Helvetica,sans-Serif" font-size="10.00">rect(point p=point</text>
<text text-anchor="start" x="62.5" y="-202" font-family="Helvetica,sans-Serif" font-size="10.00">(), size sz=size())</text>
<text text-anchor="start" x="53.08" y="-188" font-family="Helvetica,sans-Serif" font-size="10.00">+</text>
<text text-anchor="start" x="62.5" y="-188" font-family="Helvetica,sans-Serif" font-size="10.00">rect(size sz)</text>
<text text-anchor="start" x="53.08" y="-174" font-family="Helvetica,sans-Serif" font-size="10.00">+</text>
<text text-anchor="start" x="62.5" y="-174" font-family="Helvetica,sans-Serif" font-size="10.00">rect(std::size_t x,</text>
<text text-anchor="start" x="62.5" y="-164" font-family="Helvetica,sans-Serif" font-size="10.00"> std::size_t y, std</text>
<text text-anchor="start" x="62.5" y="-154" font-family="Helvetica,sans-Serif" font-size="10.00">::size_t w, std::size_t h)</text>
<text text-anchor="start" x="53.08" y="-140" font-family="Helvetica,sans-Serif" font-size="10.00">+</text>
<text text-anchor="start" x="62.5" y="-140" font-family="Helvetica,sans-Serif" font-size="10.00">rect(const rect &amp;)</text>
<text text-anchor="start" x="62.5" y="-130" font-family="Helvetica,sans-Serif" font-size="10.00">=default</text>
<text text-anchor="start" x="53.08" y="-116" font-family="Helvetica,sans-Serif" font-size="10.00">+</text>
<text text-anchor="start" x="62.5" y="-116" font-family="Helvetica,sans-Serif" font-size="10.00">rect(rect &amp;&amp;)=delete</text>
<text text-anchor="start" x="53.08" y="-102" font-family="Helvetica,sans-Serif" font-size="10.00">+</text>
<text text-anchor="start" x="62.5" y="-102" font-family="Helvetica,sans-Serif" font-size="10.00">~rect()=default</text>
<text text-anchor="start" x="53.08" y="-88" font-family="Helvetica,sans-Serif" font-size="10.00">+</text>
<text text-anchor="start" x="62.5" y="-88" font-family="Helvetica,sans-Serif" font-size="10.00">rect &amp; operator=(const</text>
<text text-anchor="start" x="62.5" y="-78" font-family="Helvetica,sans-Serif" font-size="10.00"> rect &amp;)=default</text>
<text text-anchor="start" x="53.08" y="-64" font-family="Helvetica,sans-Serif" font-size="10.00">+</text>
<text text-anchor="start" x="62.5" y="-64" font-family="Helvetica,sans-Serif" font-size="10.00">rect &amp; operator=(rect</text>
<text text-anchor="start" x="62.5" y="-54" font-family="Helvetica,sans-Serif" font-size="10.00"> &amp;&amp;)=delete</text>
<text text-anchor="start" x="53.08" y="-40" font-family="Helvetica,sans-Serif" font-size="10.00">+</text>
<text text-anchor="start" x="62.5" y="-40" font-family="Helvetica,sans-Serif" font-size="10.00">rect &amp; operator=(const</text>
<text text-anchor="start" x="62.5" y="-30" font-family="Helvetica,sans-Serif" font-size="10.00"> point &amp;rhs)</text>
<text text-anchor="start" x="53.08" y="-16" font-family="Helvetica,sans-Serif" font-size="10.00">+</text>
<text text-anchor="start" x="62.5" y="-16" font-family="Helvetica,sans-Serif" font-size="10.00">rect &amp; operator=(const</text>
<text text-anchor="start" x="62.5" y="-6" font-family="Helvetica,sans-Serif" font-size="10.00"> size &amp;rhs)</text>
<polygon fill="#666666" stroke="#666666" points="49.5,-236 49.5,-236 169.5,-236 169.5,-236 49.5,-236"/>
<polygon fill="#666666" stroke="#666666" points="49.5,-222 49.5,-222 169.5,-222 169.5,-222 49.5,-222"/>
<polygon fill="none" stroke="#666666" points="49.5,0 49.5,-252 169.5,-252 169.5,0 49.5,0"/>
</a>
</g>
</g>
<!-- Node2 -->
<g id="Node000002" class="node">
<title>Node2</title>
<g id="a_Node000002"><a xlink:href="structgeom_1_1point.html" target="_top" xlink:title=" ">
<polygon fill="white" stroke="transparent" points="97,-382 0,-382 0,-288 97,-288 97,-382"/>
<text text-anchor="start" x="22.87" y="-370" font-family="Helvetica,sans-Serif" font-size="10.00">geom::point</text>
<text text-anchor="start" x="4.08" y="-356" font-family="Helvetica,sans-Serif" font-size="10.00">+</text>
<text text-anchor="start" x="13.5" y="-356" font-family="Helvetica,sans-Serif" font-size="10.00">std::size_t x</text>
<text text-anchor="start" x="4.08" y="-342" font-family="Helvetica,sans-Serif" font-size="10.00">+</text>
<text text-anchor="start" x="13.5" y="-342" font-family="Helvetica,sans-Serif" font-size="10.00">std::size_t y</text>
<text text-anchor="start" x="4.08" y="-328" font-family="Helvetica,sans-Serif" font-size="10.00">+</text>
<text text-anchor="start" x="13.5" y="-328" font-family="Helvetica,sans-Serif" font-size="10.00">point()</text>
<text text-anchor="start" x="4.08" y="-314" font-family="Helvetica,sans-Serif" font-size="10.00">+</text>
<text text-anchor="start" x="13.5" y="-314" font-family="Helvetica,sans-Serif" font-size="10.00">point(std::size_t</text>
<text text-anchor="start" x="13.5" y="-304" font-family="Helvetica,sans-Serif" font-size="10.00"> x_pos, std::size_t</text>
<text text-anchor="start" x="13.5" y="-294" font-family="Helvetica,sans-Serif" font-size="10.00"> y_pos)</text>
<polygon fill="#666666" stroke="#666666" points="0.5,-366 0.5,-366 97.5,-366 97.5,-366 0.5,-366"/>
<polygon fill="#666666" stroke="#666666" points="0.5,-338 0.5,-338 11.5,-338 11.5,-338 0.5,-338"/>
<polygon fill="#666666" stroke="#666666" points="11.5,-338 11.5,-338 97.5,-338 97.5,-338 11.5,-338"/>
<polygon fill="none" stroke="#666666" points="0,-288 0,-382 97,-382 97,-288 0,-288"/>
</a>
</g>
</g>
<!-- Node2&#45;&gt;Node1 -->
<g id="edge1_Node000001_Node000002" class="edge">
<title>Node2&#45;&gt;Node1</title>
<g id="a_edge1_Node000001_Node000002"><a xlink:title=" ">
<path fill="none" stroke="#63b8ff" d="M64.97,-278.11C67.38,-269.95 69.93,-261.27 72.55,-252.38"/>
<polygon fill="none" stroke="#63b8ff" points="61.58,-277.22 62.11,-287.8 68.3,-279.2 61.58,-277.22"/>
</a>
</g>
</g>
<!-- Node3 -->
<g id="Node000003" class="node">
<title>Node3</title>
<g id="a_Node000003"><a xlink:href="structgeom_1_1size.html" target="_top" xlink:title=" ">
<polygon fill="white" stroke="transparent" points="227.5,-377 115.5,-377 115.5,-293 227.5,-293 227.5,-377"/>
<text text-anchor="start" x="147.32" y="-365" font-family="Helvetica,sans-Serif" font-size="10.00">geom::size</text>
<text text-anchor="start" x="119.08" y="-351" font-family="Helvetica,sans-Serif" font-size="10.00">+</text>
<text text-anchor="start" x="128.5" y="-351" font-family="Helvetica,sans-Serif" font-size="10.00">std::size_t w</text>
<text text-anchor="start" x="119.08" y="-337" font-family="Helvetica,sans-Serif" font-size="10.00">+</text>
<text text-anchor="start" x="128.5" y="-337" font-family="Helvetica,sans-Serif" font-size="10.00">std::size_t h</text>
<text text-anchor="start" x="119.08" y="-323" font-family="Helvetica,sans-Serif" font-size="10.00">+</text>
<text text-anchor="start" x="128.5" y="-323" font-family="Helvetica,sans-Serif" font-size="10.00">size()</text>
<text text-anchor="start" x="119.08" y="-309" font-family="Helvetica,sans-Serif" font-size="10.00">+</text>
<text text-anchor="start" x="128.5" y="-309" font-family="Helvetica,sans-Serif" font-size="10.00">size(std::size_t width,</text>
<text text-anchor="start" x="128.5" y="-299" font-family="Helvetica,sans-Serif" font-size="10.00"> std::size_t height)</text>
<polygon fill="#666666" stroke="#666666" points="115.5,-361 115.5,-361 227.5,-361 227.5,-361 115.5,-361"/>
<polygon fill="#666666" stroke="#666666" points="115.5,-333 115.5,-333 126.5,-333 126.5,-333 115.5,-333"/>
<polygon fill="#666666" stroke="#666666" points="126.5,-333 126.5,-333 227.5,-333 227.5,-333 126.5,-333"/>
<polygon fill="none" stroke="#666666" points="115.5,-293 115.5,-377 227.5,-377 227.5,-293 115.5,-293"/>
</a>
</g>
</g>
<!-- Node3&#45;&gt;Node1 -->
<g id="edge2_Node000001_Node000003" class="edge">
<title>Node3&#45;&gt;Node1</title>
<g id="a_edge2_Node000001_Node000003"><a xlink:title=" ">
<path fill="none" stroke="#63b8ff" d="M156.21,-282.97C153.35,-273.41 150.25,-263.05 147.05,-252.36"/>
<polygon fill="none" stroke="#63b8ff" points="152.88,-284.03 159.1,-292.61 159.59,-282.02 152.88,-284.03"/>
</a>
</g>
</g>
</g>
</svg>
