<?xml version="1.0" encoding="UTF-8" standalone="no"?>
<!DOCTYPE svg PUBLIC "-//W3C//DTD SVG 1.1//EN"
 "http://www.w3.org/Graphics/SVG/1.1/DTD/svg11.dtd">
<!-- Generated by graphviz version 2.48.0 (20210717.1556)
 -->
<!-- Title: chapter Pages: 1 -->
<svg width="140pt" height="222pt"
 viewBox="0.00 0.00 140.00 222.00" xmlns="http://www.w3.org/2000/svg" xmlns:xlink="http://www.w3.org/1999/xlink">
<g id="graph0" class="graph" transform="scale(1 1) rotate(0) translate(4 218)">
<title>chapter</title>
<!-- Node1 -->
<g id="Node000001" class="node">
<title>Node1</title>
<g id="a_Node000001"><a xlink:title=" ">
<polygon fill="#999999" stroke="transparent" points="132,-132 0,-132 0,0 132,0 132,-132"/>
<text text-anchor="start" x="49.32" y="-120" font-family="Helvetica,sans-Serif" font-size="10.00">chapter</text>
<text text-anchor="start" x="3.58" y="-106" font-family="Helvetica,sans-Serif" font-size="10.00">+</text>
<text text-anchor="start" x="13" y="-106" font-family="Helvetica,sans-Serif" font-size="10.00">const std::u8string name</text>
<text text-anchor="start" x="3.58" y="-92" font-family="Helvetica,sans-Serif" font-size="10.00">+</text>
<text text-anchor="start" x="13" y="-92" font-family="Helvetica,sans-Serif" font-size="10.00">chapter(String &amp;&amp;name)</text>
<text text-anchor="start" x="3.58" y="-78" font-family="Helvetica,sans-Serif" font-size="10.00">+</text>
<text text-anchor="start" x="13" y="-78" font-family="Helvetica,sans-Serif" font-size="10.00">void layout(separation</text>
<text text-anchor="start" x="13" y="-68" font-family="Helvetica,sans-Serif" font-size="10.00">_mode mode, const geom</text>
<text text-anchor="start" x="13" y="-58" font-family="Helvetica,sans-Serif" font-size="10.00">::size &amp;page_size)</text>
<text text-anchor="start" x="3.58" y="-44" font-family="Helvetica,sans-Serif" font-size="10.00">+</text>
<text text-anchor="start" x="13" y="-44" font-family="Helvetica,sans-Serif" font-size="10.00">auto add_blank_page</text>
<text text-anchor="start" x="13" y="-34" font-family="Helvetica,sans-Serif" font-size="10.00">(unsigned page_number)</text>
<text text-anchor="start" x="3.58" y="-20" font-family="Helvetica,sans-Serif" font-size="10.00">+</text>
<text text-anchor="start" x="13" y="-20" font-family="Helvetica,sans-Serif" font-size="10.00">auto pop_blank_page()</text>
<text text-anchor="start" x="3.58" y="-6" font-family="Helvetica,sans-Serif" font-size="10.00">+</text>
<text text-anchor="start" x="13" y="-6" font-family="Helvetica,sans-Serif" font-size="10.00">auto &amp; current_page()</text>
<polygon fill="#666666" stroke="#666666" points="0,-116 0,-116 132,-116 132,-116 0,-116"/>
<polygon fill="#666666" stroke="#666666" points="0,-102 0,-102 11,-102 11,-102 0,-102"/>
<polygon fill="#666666" stroke="#666666" points="11,-102 11,-102 132,-102 132,-102 11,-102"/>
<polygon fill="none" stroke="#666666" points="0,0 0,-132 132,-132 132,0 0,0"/>
</a>
</g>
</g>
<!-- Node2 -->
<g id="Node000002" class="node">
<title>Node2</title>
<g id="a_Node000002"><a xlink:title=" ">
<polygon fill="white" stroke="transparent" points="105.5,-214 26.5,-214 26.5,-168 105.5,-168 105.5,-214"/>
<text text-anchor="start" x="31.94" y="-202" font-family="Helvetica,sans-Serif" font-size="10.00">std::vector&lt; T &gt;</text>
<text text-anchor="start" x="33.58" y="-188" font-family="Helvetica,sans-Serif" font-size="10.00">+</text>
<text text-anchor="start" x="46" y="-188" font-family="Helvetica,sans-Serif" font-size="10.00">T elements</text>
<text text-anchor="start" x="65.11" y="-174" font-family="Helvetica,sans-Serif" font-size="10.00"> </text>
<polygon fill="#666666" stroke="#666666" points="27,-198 27,-198 106,-198 106,-198 27,-198"/>
<polygon fill="#666666" stroke="#666666" points="27,-184 27,-184 44,-184 44,-184 27,-184"/>
<polygon fill="#666666" stroke="#666666" points="44,-184 44,-184 106,-184 106,-184 44,-184"/>
<polygon fill="none" stroke="#666666" points="26.5,-168 26.5,-214 105.5,-214 105.5,-168 26.5,-168"/>
</a>
</g>
</g>
<!-- Node2&#45;&gt;Node1 -->
<g id="edge1_Node000001_Node000002" class="edge">
<title>Node2&#45;&gt;Node1</title>
<g id="a_edge1_Node000001_Node000002"><a xlink:title=" ">
<path fill="none" stroke="#63b8ff" d="M66,-157.53C66,-149.63 66,-140.9 66,-132.07"/>
<polygon fill="none" stroke="#63b8ff" points="62.5,-157.73 66,-167.73 69.5,-157.73 62.5,-157.73"/>
</a>
</g>
</g>
</g>
</svg>
