<?xml version="1.0" encoding="UTF-8" standalone="no"?>
<!DOCTYPE svg PUBLIC "-//W3C//DTD SVG 1.1//EN"
 "http://www.w3.org/Graphics/SVG/1.1/DTD/svg11.dtd">
<!-- Generated by graphviz version 2.48.0 (20210717.1556)
 -->
<!-- Title: epub::file_metadata Pages: 1 -->
<svg width="151pt" height="303pt"
 viewBox="0.00 0.00 151.00 303.00" xmlns="http://www.w3.org/2000/svg" xmlns:xlink="http://www.w3.org/1999/xlink">
<g id="graph0" class="graph" transform="scale(1 1) rotate(0) translate(4 299)">
<title>epub::file_metadata</title>
<!-- Node1 -->
<g id="Node000001" class="node">
<title>Node1</title>
<g id="a_Node000001"><a xlink:title="A class for managing metadata key&#45;value pairs.">
<polygon fill="#999999" stroke="transparent" points="143,-120 0,-120 0,0 143,0 143,-120"/>
<text text-anchor="start" x="28.08" y="-108" font-family="Helvetica,sans-Serif" font-size="10.00">epub::file_metadata</text>
<text text-anchor="start" x="70.61" y="-94" font-family="Helvetica,sans-Serif" font-size="10.00"> </text>
<text text-anchor="start" x="4.08" y="-80" font-family="Helvetica,sans-Serif" font-size="10.00">+</text>
<text text-anchor="start" x="13.5" y="-80" font-family="Helvetica,sans-Serif" font-size="10.00">std::optional&lt; mapped</text>
<text text-anchor="start" x="13.5" y="-70" font-family="Helvetica,sans-Serif" font-size="10.00">_type &gt; get(const key</text>
<text text-anchor="start" x="13.5" y="-60" font-family="Helvetica,sans-Serif" font-size="10.00">_type &amp;key) const noexcept</text>
<text text-anchor="start" x="4.08" y="-46" font-family="Helvetica,sans-Serif" font-size="10.00">+</text>
<text text-anchor="start" x="13.5" y="-46" font-family="Helvetica,sans-Serif" font-size="10.00">mapped_type get(const</text>
<text text-anchor="start" x="13.5" y="-36" font-family="Helvetica,sans-Serif" font-size="10.00"> key_type &amp;key, U &amp;&amp;default</text>
<text text-anchor="start" x="13.5" y="-26" font-family="Helvetica,sans-Serif" font-size="10.00">_value) const noexcept(std</text>
<text text-anchor="start" x="13.5" y="-16" font-family="Helvetica,sans-Serif" font-size="10.00">::is_nothrow_convertible&lt; U,</text>
<text text-anchor="start" x="13.5" y="-6" font-family="Helvetica,sans-Serif" font-size="10.00"> mapped_type &gt;::value)</text>
<polygon fill="#666666" stroke="#666666" points="0.5,-104 0.5,-104 143.5,-104 143.5,-104 0.5,-104"/>
<polygon fill="#666666" stroke="#666666" points="0.5,-90 0.5,-90 143.5,-90 143.5,-90 0.5,-90"/>
<polygon fill="none" stroke="#666666" points="0,0 0,-120 143,-120 143,0 0,0"/>
</a>
</g>
</g>
<!-- Node2 -->
<g id="Node000002" class="node">
<title>Node2</title>
<g id="a_Node000002"><a xlink:title=" ">
<polygon fill="white" stroke="transparent" points="113,-203 30,-203 30,-157 113,-157 113,-203"/>
<text text-anchor="start" x="35.22" y="-191" font-family="Helvetica,sans-Serif" font-size="10.00">std::map&lt; K, T &gt;</text>
<text text-anchor="start" x="70.61" y="-177" font-family="Helvetica,sans-Serif" font-size="10.00"> </text>
<text text-anchor="start" x="70.61" y="-163" font-family="Helvetica,sans-Serif" font-size="10.00"> </text>
<polygon fill="#666666" stroke="#666666" points="30.5,-187 30.5,-187 113.5,-187 113.5,-187 30.5,-187"/>
<polygon fill="#666666" stroke="#666666" points="30.5,-173 30.5,-173 113.5,-173 113.5,-173 30.5,-173"/>
<polygon fill="none" stroke="#666666" points="30,-157 30,-203 113,-203 113,-157 30,-157"/>
</a>
</g>
</g>
<!-- Node2&#45;&gt;Node1 -->
<g id="edge1_Node000001_Node000002" class="edge">
<title>Node2&#45;&gt;Node1</title>
<g id="a_edge1_Node000001_Node000002"><a xlink:title=" ">
<path fill="none" stroke="#63b8ff" d="M71.5,-146.65C71.5,-138.49 71.5,-129.47 71.5,-120.44"/>
<polygon fill="none" stroke="#63b8ff" points="68,-146.81 71.5,-156.81 75,-146.81 68,-146.81"/>
</a>
</g>
</g>
<!-- Node3 -->
<g id="Node000003" class="node">
<title>Node3</title>
<g id="a_Node000003"><a xlink:title=" ">
<polygon fill="white" stroke="transparent" points="53.5,-295 37.5,-295 37.5,-249 53.5,-249 53.5,-295"/>
<text text-anchor="start" x="42.17" y="-283" font-family="Helvetica,sans-Serif" font-size="10.00">K</text>
<text text-anchor="start" x="44.11" y="-269" font-family="Helvetica,sans-Serif" font-size="10.00"> </text>
<text text-anchor="start" x="44.11" y="-255" font-family="Helvetica,sans-Serif" font-size="10.00"> </text>
<polygon fill="#666666" stroke="#666666" points="37.5,-279 37.5,-279 53.5,-279 53.5,-279 37.5,-279"/>
<polygon fill="#666666" stroke="#666666" points="37.5,-265 37.5,-265 53.5,-265 53.5,-265 37.5,-265"/>
<polygon fill="none" stroke="#666666" points="37.5,-249 37.5,-295 53.5,-295 53.5,-249 37.5,-249"/>
</a>
</g>
</g>
<!-- Node3&#45;&gt;Node2 -->
<g id="edge2_Node000002_Node000003" class="edge">
<title>Node3&#45;&gt;Node2</title>
<g id="a_edge2_Node000002_Node000003"><a xlink:title=" ">
<path fill="none" stroke="#63b8ff" d="M43.31,-248.7C43.11,-239.91 43.7,-229.82 46.32,-221 47.03,-218.6 47.93,-216.21 48.97,-213.86"/>
<polygon fill="none" stroke="#63b8ff" points="48.97,-213.85 48.22,-206.67 54.56,-203.22 55.3,-210.4 48.97,-213.85"/>
</a>
</g>
<text text-anchor="middle" x="61.09" y="-223" font-family="Helvetica,sans-Serif" font-size="10.00" fill="grey"> +keys</text>
</g>
<!-- Node4 -->
<g id="Node000004" class="node">
<title>Node4</title>
<g id="a_Node000004"><a xlink:title=" ">
<polygon fill="white" stroke="transparent" points="105.5,-295 89.5,-295 89.5,-249 105.5,-249 105.5,-295"/>
<text text-anchor="start" x="94.45" y="-283" font-family="Helvetica,sans-Serif" font-size="10.00">T</text>
<text text-anchor="start" x="96.11" y="-269" font-family="Helvetica,sans-Serif" font-size="10.00"> </text>
<text text-anchor="start" x="96.11" y="-255" font-family="Helvetica,sans-Serif" font-size="10.00"> </text>
<polygon fill="#666666" stroke="#666666" points="89.5,-279 89.5,-279 105.5,-279 105.5,-279 89.5,-279"/>
<polygon fill="#666666" stroke="#666666" points="89.5,-265 89.5,-265 105.5,-265 105.5,-265 89.5,-265"/>
<polygon fill="none" stroke="#666666" points="89.5,-249 89.5,-295 105.5,-295 105.5,-249 89.5,-249"/>
</a>
</g>
</g>
<!-- Node4&#45;&gt;Node2 -->
<g id="edge3_Node000002_Node000004" class="edge">
<title>Node4&#45;&gt;Node2</title>
<g id="a_edge3_Node000002_Node000004"><a xlink:title=" ">
<path fill="none" stroke="#63b8ff" d="M91.07,-248.75C88.14,-238.58 84.59,-226.31 81.33,-215.02"/>
<polygon fill="none" stroke="#63b8ff" points="81.27,-214.83 75.77,-210.18 77.94,-203.3 83.45,-207.96 81.27,-214.83"/>
</a>
</g>
<text text-anchor="middle" x="109.1" y="-223" font-family="Helvetica,sans-Serif" font-size="10.00" fill="grey"> +elements</text>
</g>
</g>
</svg>
