<?xml version="1.0" encoding="UTF-8" standalone="no"?>
<!DOCTYPE svg PUBLIC "-//W3C//DTD SVG 1.1//EN"
 "http://www.w3.org/Graphics/SVG/1.1/DTD/svg11.dtd">
<!-- Generated by graphviz version 2.48.0 (20210717.1556)
 -->
<!-- Title: epub::xml::ns Pages: 1 -->
<svg width="116pt" height="146pt"
 viewBox="0.00 0.00 116.00 146.00" xmlns="http://www.w3.org/2000/svg" xmlns:xlink="http://www.w3.org/1999/xlink">
<g id="graph0" class="graph" transform="scale(1 1) rotate(0) translate(4 142)">
<title>epub::xml::ns</title>
<!-- Node1 -->
<g id="Node000001" class="node">
<title>Node1</title>
<g id="a_Node000001"><a xlink:title=" ">
<polygon fill="#999999" stroke="transparent" points="108,-56 0,-56 0,0 108,0 108,-56"/>
<text text-anchor="start" x="24.26" y="-44" font-family="Helvetica,sans-Serif" font-size="10.00">epub::xml::ns</text>
<text text-anchor="start" x="3.58" y="-30" font-family="Helvetica,sans-Serif" font-size="10.00">+</text>
<text text-anchor="start" x="13" y="-30" font-family="Helvetica,sans-Serif" font-size="10.00">static constexpr auto</text>
<text text-anchor="start" x="13" y="-20" font-family="Helvetica,sans-Serif" font-size="10.00"> deleter</text>
<text text-anchor="start" x="52.61" y="-6" font-family="Helvetica,sans-Serif" font-size="10.00"> </text>
<polygon fill="#666666" stroke="#666666" points="0,-40 0,-40 108,-40 108,-40 0,-40"/>
<polygon fill="#666666" stroke="#666666" points="0,-16 0,-16 11,-16 11,-16 0,-16"/>
<polygon fill="#666666" stroke="#666666" points="11,-16 11,-16 108,-16 108,-16 11,-16"/>
<polygon fill="none" stroke="#666666" points="0,0 0,-56 108,-56 108,0 0,0"/>
</a>
</g>
</g>
<!-- Node2 -->
<g id="Node000002" class="node">
<title>Node2</title>
<g id="a_Node000002"><a xlink:title=" ">
<polygon fill="white" stroke="transparent" points="72.5,-138 35.5,-138 35.5,-92 72.5,-92 72.5,-138"/>
<text text-anchor="start" x="40.61" y="-126" font-family="Helvetica,sans-Serif" font-size="10.00">xmlNs</text>
<text text-anchor="start" x="53.11" y="-112" font-family="Helvetica,sans-Serif" font-size="10.00"> </text>
<text text-anchor="start" x="53.11" y="-98" font-family="Helvetica,sans-Serif" font-size="10.00"> </text>
<polygon fill="#666666" stroke="#666666" points="36,-122 36,-122 73,-122 73,-122 36,-122"/>
<polygon fill="#666666" stroke="#666666" points="36,-108 36,-108 73,-108 73,-108 36,-108"/>
<polygon fill="none" stroke="#666666" points="35.5,-92 35.5,-138 72.5,-138 72.5,-92 35.5,-92"/>
</a>
</g>
</g>
<!-- Node2&#45;&gt;Node1 -->
<g id="edge1_Node000001_Node000002" class="edge">
<title>Node2&#45;&gt;Node1</title>
<g id="a_edge1_Node000001_Node000002"><a xlink:title=" ">
<path fill="none" stroke="#63b8ff" d="M54,-81.44C54,-73.05 54,-64.11 54,-56.03"/>
<polygon fill="none" stroke="#63b8ff" points="50.5,-81.67 54,-91.67 57.5,-81.67 50.5,-81.67"/>
</a>
</g>
</g>
</g>
</svg>
