<?xml version="1.0" encoding="UTF-8" standalone="no"?>
<!DOCTYPE svg PUBLIC "-//W3C//DTD SVG 1.1//EN"
 "http://www.w3.org/Graphics/SVG/1.1/DTD/svg11.dtd">
<!-- Generated by graphviz version 2.48.0 (20210717.1556)
 -->
<!-- Title: IIRawData Pages: 1 -->
<svg width="78pt" height="68pt"
 viewBox="0.00 0.00 78.00 68.00" xmlns="http://www.w3.org/2000/svg" xmlns:xlink="http://www.w3.org/1999/xlink">
<g id="graph0" class="graph" transform="scale(1 1) rotate(0) translate(4 64)">
<title>IIRawData</title>
<!-- Node1 -->
<g id="Node000001" class="node">
<title>Node1</title>
<g id="a_Node000001"><a xlink:title=" ">
<polygon fill="#999999" stroke="transparent" points="70,-60 0,-60 0,0 70,0 70,-60"/>
<text text-anchor="start" x="11.66" y="-48" font-family="Helvetica,sans-Serif" font-size="10.00">IIRawData</text>
<text text-anchor="start" x="3.58" y="-34" font-family="Helvetica,sans-Serif" font-size="10.00">+</text>
<text text-anchor="start" x="13" y="-34" font-family="Helvetica,sans-Serif" font-size="10.00">data</text>
<text text-anchor="start" x="3.58" y="-20" font-family="Helvetica,sans-Serif" font-size="10.00">+</text>
<text text-anchor="start" x="13" y="-20" font-family="Helvetica,sans-Serif" font-size="10.00">length</text>
<text text-anchor="start" x="3.58" y="-6" font-family="Helvetica,sans-Serif" font-size="10.00">+</text>
<text text-anchor="start" x="13" y="-6" font-family="Helvetica,sans-Serif" font-size="10.00">IIRawData()</text>
<polygon fill="#666666" stroke="#666666" points="0,-44 0,-44 70,-44 70,-44 0,-44"/>
<polygon fill="#666666" stroke="#666666" points="0,-16 0,-16 11,-16 11,-16 0,-16"/>
<polygon fill="#666666" stroke="#666666" points="11,-16 11,-16 70,-16 70,-16 11,-16"/>
<polygon fill="none" stroke="#666666" points="0,0 0,-60 70,-60 70,0 0,0"/>
</a>
</g>
</g>
</g>
</svg>
