<?xml version="1.0" encoding="UTF-8" standalone="no"?>
<!DOCTYPE svg PUBLIC "-//W3C//DTD SVG 1.1//EN"
 "http://www.w3.org/Graphics/SVG/1.1/DTD/svg11.dtd">
<!-- Generated by graphviz version 2.48.0 (20210717.1556)
 -->
<!-- Title: epub::configuration Pages: 1 -->
<svg width="257pt" height="711pt"
 viewBox="0.00 0.00 256.83 711.00" xmlns="http://www.w3.org/2000/svg" xmlns:xlink="http://www.w3.org/1999/xlink">
<g id="graph0" class="graph" transform="scale(1 1) rotate(0) translate(4 707)">
<title>epub::configuration</title>
<!-- Node1 -->
<g id="Node000001" class="node">
<title>Node1</title>
<g id="a_Node000001"><a xlink:title=" ">
<polygon fill="#999999" stroke="transparent" points="132.83,-130 37.83,-130 37.83,0 132.83,0 132.83,-130"/>
<text text-anchor="start" x="43.3" y="-118" font-family="Helvetica,sans-Serif" font-size="10.00">epub::configuration</text>
<text text-anchor="start" x="45.41" y="-104" font-family="Helvetica,sans-Serif" font-size="10.00">+</text>
<text text-anchor="start" x="58.33" y="-104" font-family="Helvetica,sans-Serif" font-size="10.00">output</text>
<text text-anchor="start" x="45.41" y="-90" font-family="Helvetica,sans-Serif" font-size="10.00">+</text>
<text text-anchor="start" x="58.33" y="-90" font-family="Helvetica,sans-Serif" font-size="10.00">overwrite</text>
<text text-anchor="start" x="45.41" y="-76" font-family="Helvetica,sans-Serif" font-size="10.00">+</text>
<text text-anchor="start" x="58.33" y="-76" font-family="Helvetica,sans-Serif" font-size="10.00">toc_stylesheet</text>
<text text-anchor="start" x="45.41" y="-62" font-family="Helvetica,sans-Serif" font-size="10.00">+</text>
<text text-anchor="start" x="58.33" y="-62" font-family="Helvetica,sans-Serif" font-size="10.00">configuration()</text>
<text text-anchor="start" x="45.41" y="-48" font-family="Helvetica,sans-Serif" font-size="10.00">+</text>
<text text-anchor="start" x="58.33" y="-48" font-family="Helvetica,sans-Serif" font-size="10.00">configuration()</text>
<text text-anchor="start" x="45.41" y="-34" font-family="Helvetica,sans-Serif" font-size="10.00">+</text>
<text text-anchor="start" x="58.33" y="-34" font-family="Helvetica,sans-Serif" font-size="10.00">configuration()</text>
<text text-anchor="start" x="45.41" y="-20" font-family="Helvetica,sans-Serif" font-size="10.00">+</text>
<text text-anchor="start" x="58.33" y="-20" font-family="Helvetica,sans-Serif" font-size="10.00">operator=()</text>
<text text-anchor="start" x="45.41" y="-6" font-family="Helvetica,sans-Serif" font-size="10.00">+</text>
<text text-anchor="start" x="58.33" y="-6" font-family="Helvetica,sans-Serif" font-size="10.00">operator=()</text>
<polygon fill="#666666" stroke="#666666" points="38.33,-114 38.33,-114 133.33,-114 133.33,-114 38.33,-114"/>
<polygon fill="#666666" stroke="#666666" points="38.33,-72 38.33,-72 56.33,-72 56.33,-72 38.33,-72"/>
<polygon fill="#666666" stroke="#666666" points="56.33,-72 56.33,-72 133.33,-72 133.33,-72 56.33,-72"/>
<polygon fill="none" stroke="#666666" points="37.83,0 37.83,-130 132.83,-130 132.83,0 37.83,0"/>
</a>
</g>
</g>
<!-- Node2 -->
<g id="Node000002" class="node">
<title>Node2</title>
<g id="a_Node000002"><a xlink:title=" ">
<polygon fill="white" stroke="transparent" points="117.33,-610 53.33,-610 53.33,-564 117.33,-564 117.33,-610"/>
<text text-anchor="start" x="58.1" y="-598" font-family="Helvetica,sans-Serif" font-size="10.00">std::u8string</text>
<text text-anchor="start" x="83.94" y="-584" font-family="Helvetica,sans-Serif" font-size="10.00"> </text>
<text text-anchor="start" x="83.94" y="-570" font-family="Helvetica,sans-Serif" font-size="10.00"> </text>
<polygon fill="#666666" stroke="#666666" points="53.33,-594 53.33,-594 117.33,-594 117.33,-594 53.33,-594"/>
<polygon fill="#666666" stroke="#666666" points="53.33,-580 53.33,-580 117.33,-580 117.33,-580 53.33,-580"/>
<polygon fill="none" stroke="#666666" points="53.33,-564 53.33,-610 117.33,-610 117.33,-564 53.33,-564"/>
</a>
</g>
</g>
<!-- Node2&#45;&gt;Node1 -->
<g id="edge1_Node000001_Node000002" class="edge">
<title>Node2&#45;&gt;Node1</title>
<g id="a_edge1_Node000001_Node000002"><a xlink:title=" ">
<path fill="none" stroke="#63b8ff" d="M65.51,-564C51.83,-547.24 34.8,-522.89 27.33,-498 -13.78,-360.91 -4.41,-314.84 30.33,-176 33.23,-164.43 37.48,-152.67 42.36,-141.35"/>
<polygon fill="none" stroke="#63b8ff" points="42.46,-141.13 41.3,-134.01 47.42,-130.2 48.58,-137.32 42.46,-141.13"/>
</a>
</g>
<text text-anchor="middle" x="35.54" y="-262" font-family="Helvetica,sans-Serif" font-size="10.00" fill="grey"> +identifier</text>
<text text-anchor="middle" x="35.54" y="-252" font-family="Helvetica,sans-Serif" font-size="10.00" fill="grey">+title</text>
</g>
<!-- Node5 -->
<g id="Node000005" class="node">
<title>Node5</title>
<g id="a_Node000005"><a xlink:href="classepub_1_1creator.html" target="_top" xlink:title="An individual or organizational creator.">
<polygon fill="white" stroke="transparent" points="133.83,-456 36.83,-456 36.83,-330 133.83,-330 133.83,-456"/>
<text text-anchor="start" x="56.37" y="-444" font-family="Helvetica,sans-Serif" font-size="10.00">epub::creator</text>
<text text-anchor="start" x="84.44" y="-430" font-family="Helvetica,sans-Serif" font-size="10.00"> </text>
<text text-anchor="start" x="40.91" y="-416" font-family="Helvetica,sans-Serif" font-size="10.00">+</text>
<text text-anchor="start" x="50.33" y="-416" font-family="Helvetica,sans-Serif" font-size="10.00">creator()</text>
<text text-anchor="start" x="40.91" y="-402" font-family="Helvetica,sans-Serif" font-size="10.00">+</text>
<text text-anchor="start" x="50.33" y="-402" font-family="Helvetica,sans-Serif" font-size="10.00">operator const std</text>
<text text-anchor="start" x="50.33" y="-392" font-family="Helvetica,sans-Serif" font-size="10.00">::u8string &amp;()</text>
<text text-anchor="start" x="40.91" y="-378" font-family="Helvetica,sans-Serif" font-size="10.00">+</text>
<text text-anchor="start" x="50.33" y="-378" font-family="Helvetica,sans-Serif" font-size="10.00">file_as()</text>
<text text-anchor="start" x="40.91" y="-364" font-family="Helvetica,sans-Serif" font-size="10.00">+</text>
<text text-anchor="start" x="50.33" y="-364" font-family="Helvetica,sans-Serif" font-size="10.00">file_as()</text>
<text text-anchor="start" x="40.91" y="-350" font-family="Helvetica,sans-Serif" font-size="10.00">+</text>
<text text-anchor="start" x="50.33" y="-350" font-family="Helvetica,sans-Serif" font-size="10.00">role()</text>
<text text-anchor="start" x="40.91" y="-336" font-family="Helvetica,sans-Serif" font-size="10.00">+</text>
<text text-anchor="start" x="50.33" y="-336" font-family="Helvetica,sans-Serif" font-size="10.00">role()</text>
<polygon fill="#666666" stroke="#666666" points="37.33,-440 37.33,-440 134.33,-440 134.33,-440 37.33,-440"/>
<polygon fill="#666666" stroke="#666666" points="37.33,-426 37.33,-426 134.33,-426 134.33,-426 37.33,-426"/>
<polygon fill="none" stroke="#666666" points="36.83,-330 36.83,-456 133.83,-456 133.83,-330 36.83,-330"/>
</a>
</g>
</g>
<!-- Node2&#45;&gt;Node5 -->
<g id="edge5_Node000005_Node000002" class="edge">
<title>Node2&#45;&gt;Node5</title>
<g id="a_edge5_Node000005_Node000002"><a xlink:title=" ">
<path fill="none" stroke="#63b8ff" d="M85.33,-563.98C85.33,-540.73 85.33,-502.79 85.33,-468.65"/>
<polygon fill="none" stroke="#63b8ff" points="85.33,-468.28 81.33,-462.28 85.33,-456.28 89.33,-462.28 85.33,-468.28"/>
</a>
</g>
<text text-anchor="middle" x="105.62" y="-538" font-family="Helvetica,sans-Serif" font-size="10.00" fill="grey"> &#45;_file_as</text>
<text text-anchor="middle" x="105.62" y="-528" font-family="Helvetica,sans-Serif" font-size="10.00" fill="grey">&#45;_name</text>
<text text-anchor="middle" x="105.62" y="-518" font-family="Helvetica,sans-Serif" font-size="10.00" fill="grey">&#45;_role</text>
</g>
<!-- Node7 -->
<g id="Node000007" class="node">
<title>Node7</title>
<g id="a_Node000007"><a xlink:href="classepub_1_1collection.html" target="_top" xlink:title=" ">
<polygon fill="white" stroke="transparent" points="248.83,-498 151.83,-498 151.83,-288 248.83,-288 248.83,-498"/>
<text text-anchor="start" x="166.09" y="-486" font-family="Helvetica,sans-Serif" font-size="10.00">epub::collection</text>
<text text-anchor="start" x="157.17" y="-472" font-family="Helvetica,sans-Serif" font-size="10.00">&#45;</text>
<text text-anchor="start" x="165.33" y="-472" font-family="Helvetica,sans-Serif" font-size="10.00">_type</text>
<text text-anchor="start" x="155.91" y="-458" font-family="Helvetica,sans-Serif" font-size="10.00">+</text>
<text text-anchor="start" x="165.33" y="-458" font-family="Helvetica,sans-Serif" font-size="10.00">collection()</text>
<text text-anchor="start" x="155.91" y="-444" font-family="Helvetica,sans-Serif" font-size="10.00">+</text>
<text text-anchor="start" x="165.33" y="-444" font-family="Helvetica,sans-Serif" font-size="10.00">collection()</text>
<text text-anchor="start" x="155.91" y="-430" font-family="Helvetica,sans-Serif" font-size="10.00">+</text>
<text text-anchor="start" x="165.33" y="-430" font-family="Helvetica,sans-Serif" font-size="10.00">collection()</text>
<text text-anchor="start" x="155.91" y="-416" font-family="Helvetica,sans-Serif" font-size="10.00">+</text>
<text text-anchor="start" x="165.33" y="-416" font-family="Helvetica,sans-Serif" font-size="10.00">~collection()</text>
<text text-anchor="start" x="155.91" y="-402" font-family="Helvetica,sans-Serif" font-size="10.00">+</text>
<text text-anchor="start" x="165.33" y="-402" font-family="Helvetica,sans-Serif" font-size="10.00">operator=()</text>
<text text-anchor="start" x="155.91" y="-388" font-family="Helvetica,sans-Serif" font-size="10.00">+</text>
<text text-anchor="start" x="165.33" y="-388" font-family="Helvetica,sans-Serif" font-size="10.00">operator=()</text>
<text text-anchor="start" x="155.91" y="-374" font-family="Helvetica,sans-Serif" font-size="10.00">+</text>
<text text-anchor="start" x="165.33" y="-374" font-family="Helvetica,sans-Serif" font-size="10.00">operator const std</text>
<text text-anchor="start" x="165.33" y="-364" font-family="Helvetica,sans-Serif" font-size="10.00">::u8string &amp;()</text>
<text text-anchor="start" x="155.91" y="-350" font-family="Helvetica,sans-Serif" font-size="10.00">+</text>
<text text-anchor="start" x="165.33" y="-350" font-family="Helvetica,sans-Serif" font-size="10.00">type()</text>
<text text-anchor="start" x="155.91" y="-336" font-family="Helvetica,sans-Serif" font-size="10.00">+</text>
<text text-anchor="start" x="165.33" y="-336" font-family="Helvetica,sans-Serif" font-size="10.00">type()</text>
<text text-anchor="start" x="155.91" y="-322" font-family="Helvetica,sans-Serif" font-size="10.00">+</text>
<text text-anchor="start" x="165.33" y="-322" font-family="Helvetica,sans-Serif" font-size="10.00">group_position()</text>
<text text-anchor="start" x="155.91" y="-308" font-family="Helvetica,sans-Serif" font-size="10.00">+</text>
<text text-anchor="start" x="165.33" y="-308" font-family="Helvetica,sans-Serif" font-size="10.00">group_position()</text>
<text text-anchor="start" x="155.91" y="-294" font-family="Helvetica,sans-Serif" font-size="10.00">+</text>
<text text-anchor="start" x="165.33" y="-294" font-family="Helvetica,sans-Serif" font-size="10.00">group_position()</text>
<polygon fill="#666666" stroke="#666666" points="152.33,-482 152.33,-482 249.33,-482 249.33,-482 152.33,-482"/>
<polygon fill="#666666" stroke="#666666" points="152.33,-468 152.33,-468 163.33,-468 163.33,-468 152.33,-468"/>
<polygon fill="#666666" stroke="#666666" points="163.33,-468 163.33,-468 249.33,-468 249.33,-468 163.33,-468"/>
<polygon fill="none" stroke="#666666" points="151.83,-288 151.83,-498 248.83,-498 248.83,-288 151.83,-288"/>
</a>
</g>
</g>
<!-- Node2&#45;&gt;Node7 -->
<g id="edge8_Node000007_Node000002" class="edge">
<title>Node2&#45;&gt;Node7</title>
<g id="a_edge8_Node000007_Node000002"><a xlink:title=" ">
<path fill="none" stroke="#63b8ff" d="M113.77,-563.95C119.71,-558.5 125.6,-552.38 130.33,-546 138.78,-534.6 146.55,-522.02 153.6,-509.13"/>
<polygon fill="none" stroke="#63b8ff" points="153.74,-508.85 153.01,-501.68 159.34,-498.24 160.08,-505.41 153.74,-508.85"/>
</a>
</g>
<text text-anchor="middle" x="186.97" y="-533" font-family="Helvetica,sans-Serif" font-size="10.00" fill="grey"> &#45;_group_position</text>
<text text-anchor="middle" x="186.97" y="-523" font-family="Helvetica,sans-Serif" font-size="10.00" fill="grey">&#45;_name</text>
</g>
<!-- Node3 -->
<g id="Node000003" class="node">
<title>Node3</title>
<g id="a_Node000003"><a xlink:title=" ">
<polygon fill="white" stroke="transparent" points="129.33,-703 41.33,-703 41.33,-647 129.33,-647 129.33,-703"/>
<text text-anchor="start" x="46.28" y="-691" font-family="Helvetica,sans-Serif" font-size="10.00">std::basic_string&lt;</text>
<text text-anchor="start" x="68.8" y="-681" font-family="Helvetica,sans-Serif" font-size="10.00"> Char &gt;</text>
<text text-anchor="start" x="83.94" y="-667" font-family="Helvetica,sans-Serif" font-size="10.00"> </text>
<text text-anchor="start" x="83.94" y="-653" font-family="Helvetica,sans-Serif" font-size="10.00"> </text>
<polygon fill="#666666" stroke="#666666" points="41.33,-677 41.33,-677 129.33,-677 129.33,-677 41.33,-677"/>
<polygon fill="#666666" stroke="#666666" points="41.33,-663 41.33,-663 129.33,-663 129.33,-663 41.33,-663"/>
<polygon fill="none" stroke="#666666" points="41.33,-647 41.33,-703 129.33,-703 129.33,-647 41.33,-647"/>
</a>
</g>
</g>
<!-- Node3&#45;&gt;Node2 -->
<g id="edge2_Node000002_Node000003" class="edge">
<title>Node3&#45;&gt;Node2</title>
<g id="a_edge2_Node000002_Node000003"><a xlink:title=" ">
<path fill="none" stroke="#63b8ff" d="M85.33,-636.78C85.33,-627.7 85.33,-618.27 85.33,-610.15"/>
<polygon fill="none" stroke="#63b8ff" points="81.83,-636.79 85.33,-646.79 88.83,-636.79 81.83,-636.79"/>
</a>
</g>
</g>
<!-- Node4 -->
<g id="Node000004" class="node">
<title>Node4</title>
<g id="a_Node000004"><a xlink:title=" ">
<polygon fill="white" stroke="transparent" points="131.33,-232 39.33,-232 39.33,-176 131.33,-176 131.33,-232"/>
<text text-anchor="start" x="44.06" y="-220" font-family="Helvetica,sans-Serif" font-size="10.00">std::vector&lt; epub::</text>
<text text-anchor="start" x="65.46" y="-210" font-family="Helvetica,sans-Serif" font-size="10.00">creator &gt;</text>
<text text-anchor="start" x="83.94" y="-196" font-family="Helvetica,sans-Serif" font-size="10.00"> </text>
<text text-anchor="start" x="83.94" y="-182" font-family="Helvetica,sans-Serif" font-size="10.00"> </text>
<polygon fill="#666666" stroke="#666666" points="39.33,-206 39.33,-206 131.33,-206 131.33,-206 39.33,-206"/>
<polygon fill="#666666" stroke="#666666" points="39.33,-192 39.33,-192 131.33,-192 131.33,-192 39.33,-192"/>
<polygon fill="none" stroke="#666666" points="39.33,-176 39.33,-232 131.33,-232 131.33,-176 39.33,-176"/>
</a>
</g>
</g>
<!-- Node4&#45;&gt;Node1 -->
<g id="edge3_Node000001_Node000004" class="edge">
<title>Node4&#45;&gt;Node1</title>
<g id="a_edge3_Node000001_Node000004"><a xlink:title=" ">
<path fill="none" stroke="#63b8ff" d="M85.33,-175.93C85.33,-166.05 85.33,-154.32 85.33,-142.27"/>
<polygon fill="none" stroke="#63b8ff" points="85.33,-142.16 81.33,-136.16 85.33,-130.16 89.33,-136.16 85.33,-142.16"/>
</a>
</g>
<text text-anchor="middle" x="107.7" y="-150" font-family="Helvetica,sans-Serif" font-size="10.00" fill="grey"> +creators</text>
</g>
<!-- Node5&#45;&gt;Node4 -->
<g id="edge4_Node000004_Node000005" class="edge">
<title>Node5&#45;&gt;Node4</title>
<g id="a_edge4_Node000004_Node000005"><a xlink:title=" ">
<path fill="none" stroke="#63b8ff" d="M85.33,-329.99C85.33,-301.74 85.33,-269.16 85.33,-244.34"/>
<polygon fill="none" stroke="#63b8ff" points="85.33,-244.13 81.33,-238.13 85.33,-232.13 89.33,-238.13 85.33,-244.13"/>
</a>
</g>
<text text-anchor="middle" x="109.93" y="-257" font-family="Helvetica,sans-Serif" font-size="10.00" fill="grey"> +elements</text>
</g>
<!-- Node6 -->
<g id="Node000006" class="node">
<title>Node6</title>
<g id="a_Node000006"><a xlink:title=" ">
<polygon fill="white" stroke="transparent" points="243.33,-232 151.33,-232 151.33,-176 243.33,-176 243.33,-232"/>
<text text-anchor="start" x="156.06" y="-220" font-family="Helvetica,sans-Serif" font-size="10.00">std::vector&lt; epub::</text>
<text text-anchor="start" x="172.18" y="-210" font-family="Helvetica,sans-Serif" font-size="10.00">collection &gt;</text>
<text text-anchor="start" x="195.94" y="-196" font-family="Helvetica,sans-Serif" font-size="10.00"> </text>
<text text-anchor="start" x="195.94" y="-182" font-family="Helvetica,sans-Serif" font-size="10.00"> </text>
<polygon fill="#666666" stroke="#666666" points="151.33,-206 151.33,-206 243.33,-206 243.33,-206 151.33,-206"/>
<polygon fill="#666666" stroke="#666666" points="151.33,-192 151.33,-192 243.33,-192 243.33,-192 151.33,-192"/>
<polygon fill="none" stroke="#666666" points="151.33,-176 151.33,-232 243.33,-232 243.33,-176 151.33,-176"/>
</a>
</g>
</g>
<!-- Node6&#45;&gt;Node1 -->
<g id="edge6_Node000001_Node000006" class="edge">
<title>Node6&#45;&gt;Node1</title>
<g id="a_edge6_Node000001_Node000006"><a xlink:title=" ">
<path fill="none" stroke="#63b8ff" d="M175.2,-175.93C165.17,-163.66 152.82,-148.55 140.52,-133.51"/>
<polygon fill="none" stroke="#63b8ff" points="140.48,-133.46 133.59,-131.35 132.89,-124.17 139.78,-126.29 140.48,-133.46"/>
</a>
</g>
<text text-anchor="middle" x="185.99" y="-150" font-family="Helvetica,sans-Serif" font-size="10.00" fill="grey"> +collections</text>
</g>
<!-- Node7&#45;&gt;Node6 -->
<g id="edge7_Node000006_Node000007" class="edge">
<title>Node7&#45;&gt;Node6</title>
<g id="a_edge7_Node000006_Node000007"><a xlink:title=" ">
<path fill="none" stroke="#63b8ff" d="M198.66,-287.84C198.41,-272.36 198.17,-257.29 197.96,-244.33"/>
<polygon fill="none" stroke="#63b8ff" points="197.96,-244.14 193.86,-238.2 197.77,-232.14 201.86,-238.07 197.96,-244.14"/>
</a>
</g>
<text text-anchor="middle" x="221.93" y="-257" font-family="Helvetica,sans-Serif" font-size="10.00" fill="grey"> +elements</text>
</g>
</g>
</svg>
