<?xml version="1.0" encoding="UTF-8" standalone="no"?>
<!DOCTYPE svg PUBLIC "-//W3C//DTD SVG 1.1//EN"
 "http://www.w3.org/Graphics/SVG/1.1/DTD/svg11.dtd">
<!-- Generated by graphviz version 2.48.0 (20210717.1556)
 -->
<!-- Title: epub::configuration Pages: 1 -->
<svg width="258pt" height="721pt"
 viewBox="0.00 0.00 258.18 721.00" xmlns="http://www.w3.org/2000/svg" xmlns:xlink="http://www.w3.org/1999/xlink">
<g id="graph0" class="graph" transform="scale(1 1) rotate(0) translate(4 717)">
<title>epub::configuration</title>
<!-- Node1 -->
<g id="Node000001" class="node">
<title>Node1</title>
<g id="a_Node000001"><a xlink:title=" ">
<polygon fill="#999999" stroke="transparent" points="137.18,-130 42.18,-130 42.18,0 137.18,0 137.18,-130"/>
<text text-anchor="start" x="47.65" y="-118" font-family="Helvetica,sans-Serif" font-size="10.00">epub::configuration</text>
<text text-anchor="start" x="49.76" y="-104" font-family="Helvetica,sans-Serif" font-size="10.00">+</text>
<text text-anchor="start" x="62.68" y="-104" font-family="Helvetica,sans-Serif" font-size="10.00">output</text>
<text text-anchor="start" x="49.76" y="-90" font-family="Helvetica,sans-Serif" font-size="10.00">+</text>
<text text-anchor="start" x="62.68" y="-90" font-family="Helvetica,sans-Serif" font-size="10.00">overwrite</text>
<text text-anchor="start" x="49.76" y="-76" font-family="Helvetica,sans-Serif" font-size="10.00">+</text>
<text text-anchor="start" x="62.68" y="-76" font-family="Helvetica,sans-Serif" font-size="10.00">toc_stylesheet</text>
<text text-anchor="start" x="49.76" y="-62" font-family="Helvetica,sans-Serif" font-size="10.00">+</text>
<text text-anchor="start" x="62.68" y="-62" font-family="Helvetica,sans-Serif" font-size="10.00">configuration()</text>
<text text-anchor="start" x="49.76" y="-48" font-family="Helvetica,sans-Serif" font-size="10.00">+</text>
<text text-anchor="start" x="62.68" y="-48" font-family="Helvetica,sans-Serif" font-size="10.00">configuration()</text>
<text text-anchor="start" x="49.76" y="-34" font-family="Helvetica,sans-Serif" font-size="10.00">+</text>
<text text-anchor="start" x="62.68" y="-34" font-family="Helvetica,sans-Serif" font-size="10.00">configuration()</text>
<text text-anchor="start" x="49.76" y="-20" font-family="Helvetica,sans-Serif" font-size="10.00">+</text>
<text text-anchor="start" x="62.68" y="-20" font-family="Helvetica,sans-Serif" font-size="10.00">operator=()</text>
<text text-anchor="start" x="49.76" y="-6" font-family="Helvetica,sans-Serif" font-size="10.00">+</text>
<text text-anchor="start" x="62.68" y="-6" font-family="Helvetica,sans-Serif" font-size="10.00">operator=()</text>
<polygon fill="#666666" stroke="#666666" points="42.68,-114 42.68,-114 137.68,-114 137.68,-114 42.68,-114"/>
<polygon fill="#666666" stroke="#666666" points="42.68,-72 42.68,-72 60.68,-72 60.68,-72 42.68,-72"/>
<polygon fill="#666666" stroke="#666666" points="60.68,-72 60.68,-72 137.68,-72 137.68,-72 60.68,-72"/>
<polygon fill="none" stroke="#666666" points="42.18,0 42.18,-130 137.18,-130 137.18,0 42.18,0"/>
</a>
</g>
</g>
<!-- Node2 -->
<g id="Node000002" class="node">
<title>Node2</title>
<g id="a_Node000002"><a xlink:title=" ">
<polygon fill="white" stroke="transparent" points="118.68,-620 54.68,-620 54.68,-574 118.68,-574 118.68,-620"/>
<text text-anchor="start" x="59.45" y="-608" font-family="Helvetica,sans-Serif" font-size="10.00">std::u8string</text>
<text text-anchor="start" x="85.29" y="-594" font-family="Helvetica,sans-Serif" font-size="10.00"> </text>
<text text-anchor="start" x="85.29" y="-580" font-family="Helvetica,sans-Serif" font-size="10.00"> </text>
<polygon fill="#666666" stroke="#666666" points="54.68,-604 54.68,-604 118.68,-604 118.68,-604 54.68,-604"/>
<polygon fill="#666666" stroke="#666666" points="54.68,-590 54.68,-590 118.68,-590 118.68,-590 54.68,-590"/>
<polygon fill="none" stroke="#666666" points="54.68,-574 54.68,-620 118.68,-620 118.68,-574 54.68,-574"/>
</a>
</g>
</g>
<!-- Node2&#45;&gt;Node1 -->
<g id="edge1_Node000001_Node000002" class="edge">
<title>Node2&#45;&gt;Node1</title>
<g id="a_edge1_Node000001_Node000002"><a xlink:title=" ">
<path fill="none" stroke="#63b8ff" d="M66.89,-573.99C53.22,-557.23 36.2,-532.87 28.68,-508 -14.01,-366.73 -5.94,-317.88 34.68,-176 37.99,-164.45 42.5,-152.67 47.52,-141.31"/>
<polygon fill="none" stroke="#63b8ff" points="47.66,-141.01 46.54,-133.89 52.69,-130.12 53.8,-137.24 47.66,-141.01"/>
</a>
</g>
<text text-anchor="middle" x="43.17" y="-272" font-family="Helvetica,sans-Serif" font-size="10.00" fill="grey"> +description</text>
<text text-anchor="middle" x="43.17" y="-262" font-family="Helvetica,sans-Serif" font-size="10.00" fill="grey">+identifier</text>
<text text-anchor="middle" x="43.17" y="-252" font-family="Helvetica,sans-Serif" font-size="10.00" fill="grey">+title</text>
</g>
<!-- Node5 -->
<g id="Node000005" class="node">
<title>Node5</title>
<g id="a_Node000005"><a xlink:href="classepub_1_1creator.html" target="_top" xlink:title="An individual or organizational creator.">
<polygon fill="white" stroke="transparent" points="135.18,-466 38.18,-466 38.18,-340 135.18,-340 135.18,-466"/>
<text text-anchor="start" x="57.72" y="-454" font-family="Helvetica,sans-Serif" font-size="10.00">epub::creator</text>
<text text-anchor="start" x="85.79" y="-440" font-family="Helvetica,sans-Serif" font-size="10.00"> </text>
<text text-anchor="start" x="42.26" y="-426" font-family="Helvetica,sans-Serif" font-size="10.00">+</text>
<text text-anchor="start" x="51.68" y="-426" font-family="Helvetica,sans-Serif" font-size="10.00">creator()</text>
<text text-anchor="start" x="42.26" y="-412" font-family="Helvetica,sans-Serif" font-size="10.00">+</text>
<text text-anchor="start" x="51.68" y="-412" font-family="Helvetica,sans-Serif" font-size="10.00">operator const std</text>
<text text-anchor="start" x="51.68" y="-402" font-family="Helvetica,sans-Serif" font-size="10.00">::u8string &amp;()</text>
<text text-anchor="start" x="42.26" y="-388" font-family="Helvetica,sans-Serif" font-size="10.00">+</text>
<text text-anchor="start" x="51.68" y="-388" font-family="Helvetica,sans-Serif" font-size="10.00">file_as()</text>
<text text-anchor="start" x="42.26" y="-374" font-family="Helvetica,sans-Serif" font-size="10.00">+</text>
<text text-anchor="start" x="51.68" y="-374" font-family="Helvetica,sans-Serif" font-size="10.00">file_as()</text>
<text text-anchor="start" x="42.26" y="-360" font-family="Helvetica,sans-Serif" font-size="10.00">+</text>
<text text-anchor="start" x="51.68" y="-360" font-family="Helvetica,sans-Serif" font-size="10.00">role()</text>
<text text-anchor="start" x="42.26" y="-346" font-family="Helvetica,sans-Serif" font-size="10.00">+</text>
<text text-anchor="start" x="51.68" y="-346" font-family="Helvetica,sans-Serif" font-size="10.00">role()</text>
<polygon fill="#666666" stroke="#666666" points="38.68,-450 38.68,-450 135.68,-450 135.68,-450 38.68,-450"/>
<polygon fill="#666666" stroke="#666666" points="38.68,-436 38.68,-436 135.68,-436 135.68,-436 38.68,-436"/>
<polygon fill="none" stroke="#666666" points="38.18,-340 38.18,-466 135.18,-466 135.18,-340 38.18,-340"/>
</a>
</g>
</g>
<!-- Node2&#45;&gt;Node5 -->
<g id="edge5_Node000005_Node000002" class="edge">
<title>Node2&#45;&gt;Node5</title>
<g id="a_edge5_Node000005_Node000002"><a xlink:title=" ">
<path fill="none" stroke="#63b8ff" d="M86.68,-573.98C86.68,-550.73 86.68,-512.79 86.68,-478.65"/>
<polygon fill="none" stroke="#63b8ff" points="86.68,-478.28 82.68,-472.28 86.68,-466.28 90.68,-472.28 86.68,-478.28"/>
</a>
</g>
<text text-anchor="middle" x="106.97" y="-548" font-family="Helvetica,sans-Serif" font-size="10.00" fill="grey"> &#45;_file_as</text>
<text text-anchor="middle" x="106.97" y="-538" font-family="Helvetica,sans-Serif" font-size="10.00" fill="grey">&#45;_name</text>
<text text-anchor="middle" x="106.97" y="-528" font-family="Helvetica,sans-Serif" font-size="10.00" fill="grey">&#45;_role</text>
</g>
<!-- Node7 -->
<g id="Node000007" class="node">
<title>Node7</title>
<g id="a_Node000007"><a xlink:href="classepub_1_1collection.html" target="_top" xlink:title="An indication that the publication is part of a larger set.">
<polygon fill="white" stroke="transparent" points="250.18,-508 153.18,-508 153.18,-298 250.18,-298 250.18,-508"/>
<text text-anchor="start" x="167.44" y="-496" font-family="Helvetica,sans-Serif" font-size="10.00">epub::collection</text>
<text text-anchor="start" x="158.52" y="-482" font-family="Helvetica,sans-Serif" font-size="10.00">&#45;</text>
<text text-anchor="start" x="166.68" y="-482" font-family="Helvetica,sans-Serif" font-size="10.00">_type</text>
<text text-anchor="start" x="157.26" y="-468" font-family="Helvetica,sans-Serif" font-size="10.00">+</text>
<text text-anchor="start" x="166.68" y="-468" font-family="Helvetica,sans-Serif" font-size="10.00">collection()</text>
<text text-anchor="start" x="157.26" y="-454" font-family="Helvetica,sans-Serif" font-size="10.00">+</text>
<text text-anchor="start" x="166.68" y="-454" font-family="Helvetica,sans-Serif" font-size="10.00">collection()</text>
<text text-anchor="start" x="157.26" y="-440" font-family="Helvetica,sans-Serif" font-size="10.00">+</text>
<text text-anchor="start" x="166.68" y="-440" font-family="Helvetica,sans-Serif" font-size="10.00">collection()</text>
<text text-anchor="start" x="157.26" y="-426" font-family="Helvetica,sans-Serif" font-size="10.00">+</text>
<text text-anchor="start" x="166.68" y="-426" font-family="Helvetica,sans-Serif" font-size="10.00">~collection()</text>
<text text-anchor="start" x="157.26" y="-412" font-family="Helvetica,sans-Serif" font-size="10.00">+</text>
<text text-anchor="start" x="166.68" y="-412" font-family="Helvetica,sans-Serif" font-size="10.00">operator=()</text>
<text text-anchor="start" x="157.26" y="-398" font-family="Helvetica,sans-Serif" font-size="10.00">+</text>
<text text-anchor="start" x="166.68" y="-398" font-family="Helvetica,sans-Serif" font-size="10.00">operator=()</text>
<text text-anchor="start" x="157.26" y="-384" font-family="Helvetica,sans-Serif" font-size="10.00">+</text>
<text text-anchor="start" x="166.68" y="-384" font-family="Helvetica,sans-Serif" font-size="10.00">operator const std</text>
<text text-anchor="start" x="166.68" y="-374" font-family="Helvetica,sans-Serif" font-size="10.00">::u8string &amp;()</text>
<text text-anchor="start" x="157.26" y="-360" font-family="Helvetica,sans-Serif" font-size="10.00">+</text>
<text text-anchor="start" x="166.68" y="-360" font-family="Helvetica,sans-Serif" font-size="10.00">type()</text>
<text text-anchor="start" x="157.26" y="-346" font-family="Helvetica,sans-Serif" font-size="10.00">+</text>
<text text-anchor="start" x="166.68" y="-346" font-family="Helvetica,sans-Serif" font-size="10.00">type()</text>
<text text-anchor="start" x="157.26" y="-332" font-family="Helvetica,sans-Serif" font-size="10.00">+</text>
<text text-anchor="start" x="166.68" y="-332" font-family="Helvetica,sans-Serif" font-size="10.00">group_position()</text>
<text text-anchor="start" x="157.26" y="-318" font-family="Helvetica,sans-Serif" font-size="10.00">+</text>
<text text-anchor="start" x="166.68" y="-318" font-family="Helvetica,sans-Serif" font-size="10.00">group_position()</text>
<text text-anchor="start" x="157.26" y="-304" font-family="Helvetica,sans-Serif" font-size="10.00">+</text>
<text text-anchor="start" x="166.68" y="-304" font-family="Helvetica,sans-Serif" font-size="10.00">group_position()</text>
<polygon fill="#666666" stroke="#666666" points="153.68,-492 153.68,-492 250.68,-492 250.68,-492 153.68,-492"/>
<polygon fill="#666666" stroke="#666666" points="153.68,-478 153.68,-478 164.68,-478 164.68,-478 153.68,-478"/>
<polygon fill="#666666" stroke="#666666" points="164.68,-478 164.68,-478 250.68,-478 250.68,-478 164.68,-478"/>
<polygon fill="none" stroke="#666666" points="153.18,-298 153.18,-508 250.18,-508 250.18,-298 153.18,-298"/>
</a>
</g>
</g>
<!-- Node2&#45;&gt;Node7 -->
<g id="edge8_Node000007_Node000002" class="edge">
<title>Node2&#45;&gt;Node7</title>
<g id="a_edge8_Node000007_Node000002"><a xlink:title=" ">
<path fill="none" stroke="#63b8ff" d="M115.12,-573.95C121.07,-568.5 126.95,-562.38 131.68,-556 140.13,-544.6 147.9,-532.02 154.95,-519.13"/>
<polygon fill="none" stroke="#63b8ff" points="155.09,-518.85 154.36,-511.68 160.7,-508.24 161.43,-515.41 155.09,-518.85"/>
</a>
</g>
<text text-anchor="middle" x="188.32" y="-543" font-family="Helvetica,sans-Serif" font-size="10.00" fill="grey"> &#45;_group_position</text>
<text text-anchor="middle" x="188.32" y="-533" font-family="Helvetica,sans-Serif" font-size="10.00" fill="grey">&#45;_name</text>
</g>
<!-- Node3 -->
<g id="Node000003" class="node">
<title>Node3</title>
<g id="a_Node000003"><a xlink:title=" ">
<polygon fill="white" stroke="transparent" points="130.68,-713 42.68,-713 42.68,-657 130.68,-657 130.68,-713"/>
<text text-anchor="start" x="47.64" y="-701" font-family="Helvetica,sans-Serif" font-size="10.00">std::basic_string&lt;</text>
<text text-anchor="start" x="70.15" y="-691" font-family="Helvetica,sans-Serif" font-size="10.00"> Char &gt;</text>
<text text-anchor="start" x="85.29" y="-677" font-family="Helvetica,sans-Serif" font-size="10.00"> </text>
<text text-anchor="start" x="85.29" y="-663" font-family="Helvetica,sans-Serif" font-size="10.00"> </text>
<polygon fill="#666666" stroke="#666666" points="42.68,-687 42.68,-687 130.68,-687 130.68,-687 42.68,-687"/>
<polygon fill="#666666" stroke="#666666" points="42.68,-673 42.68,-673 130.68,-673 130.68,-673 42.68,-673"/>
<polygon fill="none" stroke="#666666" points="42.68,-657 42.68,-713 130.68,-713 130.68,-657 42.68,-657"/>
</a>
</g>
</g>
<!-- Node3&#45;&gt;Node2 -->
<g id="edge2_Node000002_Node000003" class="edge">
<title>Node3&#45;&gt;Node2</title>
<g id="a_edge2_Node000002_Node000003"><a xlink:title=" ">
<path fill="none" stroke="#63b8ff" d="M86.68,-646.78C86.68,-637.7 86.68,-628.27 86.68,-620.15"/>
<polygon fill="none" stroke="#63b8ff" points="83.18,-646.79 86.68,-656.79 90.18,-646.79 83.18,-646.79"/>
</a>
</g>
</g>
<!-- Node4 -->
<g id="Node000004" class="node">
<title>Node4</title>
<g id="a_Node000004"><a xlink:title=" ">
<polygon fill="white" stroke="transparent" points="135.68,-232 43.68,-232 43.68,-176 135.68,-176 135.68,-232"/>
<text text-anchor="start" x="48.41" y="-220" font-family="Helvetica,sans-Serif" font-size="10.00">std::vector&lt; epub::</text>
<text text-anchor="start" x="69.81" y="-210" font-family="Helvetica,sans-Serif" font-size="10.00">creator &gt;</text>
<text text-anchor="start" x="88.29" y="-196" font-family="Helvetica,sans-Serif" font-size="10.00"> </text>
<text text-anchor="start" x="88.29" y="-182" font-family="Helvetica,sans-Serif" font-size="10.00"> </text>
<polygon fill="#666666" stroke="#666666" points="43.68,-206 43.68,-206 135.68,-206 135.68,-206 43.68,-206"/>
<polygon fill="#666666" stroke="#666666" points="43.68,-192 43.68,-192 135.68,-192 135.68,-192 43.68,-192"/>
<polygon fill="none" stroke="#666666" points="43.68,-176 43.68,-232 135.68,-232 135.68,-176 43.68,-176"/>
</a>
</g>
</g>
<!-- Node4&#45;&gt;Node1 -->
<g id="edge3_Node000001_Node000004" class="edge">
<title>Node4&#45;&gt;Node1</title>
<g id="a_edge3_Node000001_Node000004"><a xlink:title=" ">
<path fill="none" stroke="#63b8ff" d="M89.68,-175.93C89.68,-166.05 89.68,-154.32 89.68,-142.27"/>
<polygon fill="none" stroke="#63b8ff" points="89.68,-142.16 85.68,-136.16 89.68,-130.16 93.68,-136.16 89.68,-142.16"/>
</a>
</g>
<text text-anchor="middle" x="112.05" y="-150" font-family="Helvetica,sans-Serif" font-size="10.00" fill="grey"> +creators</text>
</g>
<!-- Node5&#45;&gt;Node4 -->
<g id="edge4_Node000004_Node000005" class="edge">
<title>Node5&#45;&gt;Node4</title>
<g id="a_edge4_Node000004_Node000005"><a xlink:title=" ">
<path fill="none" stroke="#63b8ff" d="M87.63,-339.94C88.1,-308.68 88.67,-271.73 89.08,-244.41"/>
<polygon fill="none" stroke="#63b8ff" points="89.09,-244.21 85.18,-238.15 89.27,-232.21 93.18,-238.27 89.09,-244.21"/>
</a>
</g>
<text text-anchor="middle" x="114.28" y="-262" font-family="Helvetica,sans-Serif" font-size="10.00" fill="grey"> +elements</text>
</g>
<!-- Node6 -->
<g id="Node000006" class="node">
<title>Node6</title>
<g id="a_Node000006"><a xlink:title=" ">
<polygon fill="white" stroke="transparent" points="246.68,-232 154.68,-232 154.68,-176 246.68,-176 246.68,-232"/>
<text text-anchor="start" x="159.41" y="-220" font-family="Helvetica,sans-Serif" font-size="10.00">std::vector&lt; epub::</text>
<text text-anchor="start" x="175.53" y="-210" font-family="Helvetica,sans-Serif" font-size="10.00">collection &gt;</text>
<text text-anchor="start" x="199.29" y="-196" font-family="Helvetica,sans-Serif" font-size="10.00"> </text>
<text text-anchor="start" x="199.29" y="-182" font-family="Helvetica,sans-Serif" font-size="10.00"> </text>
<polygon fill="#666666" stroke="#666666" points="154.68,-206 154.68,-206 246.68,-206 246.68,-206 154.68,-206"/>
<polygon fill="#666666" stroke="#666666" points="154.68,-192 154.68,-192 246.68,-192 246.68,-192 154.68,-192"/>
<polygon fill="none" stroke="#666666" points="154.68,-176 154.68,-232 246.68,-232 246.68,-176 154.68,-176"/>
</a>
</g>
</g>
<!-- Node6&#45;&gt;Node1 -->
<g id="edge6_Node000001_Node000006" class="edge">
<title>Node6&#45;&gt;Node1</title>
<g id="a_edge6_Node000001_Node000006"><a xlink:title=" ">
<path fill="none" stroke="#63b8ff" d="M178.75,-175.93C169.01,-163.91 157.05,-149.15 145.1,-134.4"/>
<polygon fill="none" stroke="#63b8ff" points="144.83,-134.06 137.94,-131.92 137.28,-124.74 144.16,-126.88 144.83,-134.06"/>
</a>
</g>
<text text-anchor="middle" x="189.34" y="-150" font-family="Helvetica,sans-Serif" font-size="10.00" fill="grey"> +collections</text>
</g>
<!-- Node7&#45;&gt;Node6 -->
<g id="edge7_Node000006_Node000007" class="edge">
<title>Node7&#45;&gt;Node6</title>
<g id="a_edge7_Node000006_Node000007"><a xlink:title=" ">
<path fill="none" stroke="#63b8ff" d="M201.15,-297.73C201.06,-278.7 200.96,-259.95 200.88,-244.35"/>
<polygon fill="none" stroke="#63b8ff" points="200.88,-244.04 196.85,-238.06 200.82,-232.04 204.85,-238.02 200.88,-244.04"/>
</a>
</g>
<text text-anchor="middle" x="225.28" y="-262" font-family="Helvetica,sans-Serif" font-size="10.00" fill="grey"> +elements</text>
</g>
</g>
</svg>
