<?xml version="1.0" encoding="UTF-8" standalone="no"?>
<!DOCTYPE svg PUBLIC "-//W3C//DTD SVG 1.1//EN"
 "http://www.w3.org/Graphics/SVG/1.1/DTD/svg11.dtd">
<!-- Generated by graphviz version 2.48.0 (20210717.1556)
 -->
<!-- Title: epub::file_metadata Pages: 1 -->
<svg width="119pt" height="243pt"
 viewBox="0.00 0.00 118.69 243.00" xmlns="http://www.w3.org/2000/svg" xmlns:xlink="http://www.w3.org/1999/xlink">
<g id="graph0" class="graph" transform="scale(1 1) rotate(0) translate(4 239)">
<title>epub::file_metadata</title>
<!-- Node1 -->
<g id="Node000001" class="node">
<title>Node1</title>
<g id="a_Node000001"><a xlink:title="A class for managing metadata key&#45;value pairs.">
<polygon fill="#999999" stroke="transparent" points="97,-60 0,-60 0,0 97,0 97,-60"/>
<text text-anchor="start" x="5.08" y="-48" font-family="Helvetica,sans-Serif" font-size="10.00">epub::file_metadata</text>
<text text-anchor="start" x="47.61" y="-34" font-family="Helvetica,sans-Serif" font-size="10.00"> </text>
<text text-anchor="start" x="19.08" y="-20" font-family="Helvetica,sans-Serif" font-size="10.00">+</text>
<text text-anchor="start" x="43.5" y="-20" font-family="Helvetica,sans-Serif" font-size="10.00">get()</text>
<text text-anchor="start" x="19.08" y="-6" font-family="Helvetica,sans-Serif" font-size="10.00">+</text>
<text text-anchor="start" x="43.5" y="-6" font-family="Helvetica,sans-Serif" font-size="10.00">get()</text>
<polygon fill="#666666" stroke="#666666" points="0.5,-44 0.5,-44 97.5,-44 97.5,-44 0.5,-44"/>
<polygon fill="#666666" stroke="#666666" points="0.5,-30 0.5,-30 97.5,-30 97.5,-30 0.5,-30"/>
<polygon fill="none" stroke="#666666" points="0,0 0,-60 97,-60 97,0 0,0"/>
</a>
</g>
</g>
<!-- Node2 -->
<g id="Node000002" class="node">
<title>Node2</title>
<g id="a_Node000002"><a xlink:title=" ">
<polygon fill="white" stroke="transparent" points="90,-143 7,-143 7,-97 90,-97 90,-143"/>
<text text-anchor="start" x="12.22" y="-131" font-family="Helvetica,sans-Serif" font-size="10.00">std::map&lt; K, T &gt;</text>
<text text-anchor="start" x="47.61" y="-117" font-family="Helvetica,sans-Serif" font-size="10.00"> </text>
<text text-anchor="start" x="47.61" y="-103" font-family="Helvetica,sans-Serif" font-size="10.00"> </text>
<polygon fill="#666666" stroke="#666666" points="7.5,-127 7.5,-127 90.5,-127 90.5,-127 7.5,-127"/>
<polygon fill="#666666" stroke="#666666" points="7.5,-113 7.5,-113 90.5,-113 90.5,-113 7.5,-113"/>
<polygon fill="none" stroke="#666666" points="7,-97 7,-143 90,-143 90,-97 7,-97"/>
</a>
</g>
</g>
<!-- Node2&#45;&gt;Node1 -->
<g id="edge1_Node000001_Node000002" class="edge">
<title>Node2&#45;&gt;Node1</title>
<g id="a_edge1_Node000001_Node000002"><a xlink:title=" ">
<path fill="none" stroke="#63b8ff" d="M48.5,-86.65C48.5,-77.98 48.5,-68.67 48.5,-60.19"/>
<polygon fill="none" stroke="#63b8ff" points="45,-86.79 48.5,-96.79 52,-86.79 45,-86.79"/>
</a>
</g>
</g>
<!-- Node3 -->
<g id="Node000003" class="node">
<title>Node3</title>
<g id="a_Node000003"><a xlink:title=" ">
<polygon fill="white" stroke="transparent" points="30.5,-235 14.5,-235 14.5,-189 30.5,-189 30.5,-235"/>
<text text-anchor="start" x="19.17" y="-223" font-family="Helvetica,sans-Serif" font-size="10.00">K</text>
<text text-anchor="start" x="21.11" y="-209" font-family="Helvetica,sans-Serif" font-size="10.00"> </text>
<text text-anchor="start" x="21.11" y="-195" font-family="Helvetica,sans-Serif" font-size="10.00"> </text>
<polygon fill="#666666" stroke="#666666" points="14.5,-219 14.5,-219 30.5,-219 30.5,-219 14.5,-219"/>
<polygon fill="#666666" stroke="#666666" points="14.5,-205 14.5,-205 30.5,-205 30.5,-205 14.5,-205"/>
<polygon fill="none" stroke="#666666" points="14.5,-189 14.5,-235 30.5,-235 30.5,-189 14.5,-189"/>
</a>
</g>
</g>
<!-- Node3&#45;&gt;Node2 -->
<g id="edge2_Node000002_Node000003" class="edge">
<title>Node3&#45;&gt;Node2</title>
<g id="a_edge2_Node000002_Node000003"><a xlink:title=" ">
<path fill="none" stroke="#63b8ff" d="M20.31,-188.7C20.11,-179.91 20.7,-169.82 23.32,-161 24.03,-158.6 24.93,-156.21 25.97,-153.86"/>
<polygon fill="none" stroke="#63b8ff" points="25.97,-153.85 25.22,-146.67 31.56,-143.22 32.3,-150.4 25.97,-153.85"/>
</a>
</g>
<text text-anchor="middle" x="38.09" y="-163" font-family="Helvetica,sans-Serif" font-size="10.00" fill="grey"> +keys</text>
</g>
<!-- Node4 -->
<g id="Node000004" class="node">
<title>Node4</title>
<g id="a_Node000004"><a xlink:title=" ">
<polygon fill="white" stroke="transparent" points="82.5,-235 66.5,-235 66.5,-189 82.5,-189 82.5,-235"/>
<text text-anchor="start" x="71.45" y="-223" font-family="Helvetica,sans-Serif" font-size="10.00">T</text>
<text text-anchor="start" x="73.11" y="-209" font-family="Helvetica,sans-Serif" font-size="10.00"> </text>
<text text-anchor="start" x="73.11" y="-195" font-family="Helvetica,sans-Serif" font-size="10.00"> </text>
<polygon fill="#666666" stroke="#666666" points="66.5,-219 66.5,-219 82.5,-219 82.5,-219 66.5,-219"/>
<polygon fill="#666666" stroke="#666666" points="66.5,-205 66.5,-205 82.5,-205 82.5,-205 66.5,-205"/>
<polygon fill="none" stroke="#666666" points="66.5,-189 66.5,-235 82.5,-235 82.5,-189 66.5,-189"/>
</a>
</g>
</g>
<!-- Node4&#45;&gt;Node2 -->
<g id="edge3_Node000002_Node000004" class="edge">
<title>Node4&#45;&gt;Node2</title>
<g id="a_edge3_Node000002_Node000004"><a xlink:title=" ">
<path fill="none" stroke="#63b8ff" d="M68.07,-188.75C65.14,-178.58 61.59,-166.31 58.33,-155.02"/>
<polygon fill="none" stroke="#63b8ff" points="58.27,-154.83 52.77,-150.18 54.94,-143.3 60.45,-147.96 58.27,-154.83"/>
</a>
</g>
<text text-anchor="middle" x="86.1" y="-163" font-family="Helvetica,sans-Serif" font-size="10.00" fill="grey"> +elements</text>
</g>
</g>
</svg>
