<?xml version="1.0" encoding="UTF-8" standalone="no"?>
<!DOCTYPE svg PUBLIC "-//W3C//DTD SVG 1.1//EN"
 "http://www.w3.org/Graphics/SVG/1.1/DTD/svg11.dtd">
<!-- Generated by graphviz version 2.48.0 (20210717.1556)
 -->
<!-- Title: IIDetector Pages: 1 -->
<svg width="75pt" height="110pt"
 viewBox="0.00 0.00 75.00 110.00" xmlns="http://www.w3.org/2000/svg" xmlns:xlink="http://www.w3.org/1999/xlink">
<g id="graph0" class="graph" transform="scale(1 1) rotate(0) translate(4 106)">
<title>IIDetector</title>
<!-- Node1 -->
<g id="Node000001" class="node">
<title>Node1</title>
<g id="a_Node000001"><a xlink:title=" ">
<polygon fill="#999999" stroke="transparent" points="67,-102 0,-102 0,0 67,0 67,-102"/>
<text text-anchor="start" x="12.33" y="-90" font-family="Helvetica,sans-Serif" font-size="10.00">IIDetector</text>
<text text-anchor="start" x="4.08" y="-76" font-family="Helvetica,sans-Serif" font-size="10.00">+</text>
<text text-anchor="start" x="13.5" y="-76" font-family="Helvetica,sans-Serif" font-size="10.00">format</text>
<text text-anchor="start" x="4.08" y="-62" font-family="Helvetica,sans-Serif" font-size="10.00">+</text>
<text text-anchor="start" x="13.5" y="-62" font-family="Helvetica,sans-Serif" font-size="10.00">ext</text>
<text text-anchor="start" x="4.08" y="-48" font-family="Helvetica,sans-Serif" font-size="10.00">+</text>
<text text-anchor="start" x="13.5" y="-48" font-family="Helvetica,sans-Serif" font-size="10.00">fullExt</text>
<text text-anchor="start" x="4.08" y="-34" font-family="Helvetica,sans-Serif" font-size="10.00">+</text>
<text text-anchor="start" x="13.5" y="-34" font-family="Helvetica,sans-Serif" font-size="10.00">mimetype</text>
<text text-anchor="start" x="4.08" y="-20" font-family="Helvetica,sans-Serif" font-size="10.00">+</text>
<text text-anchor="start" x="13.5" y="-20" font-family="Helvetica,sans-Serif" font-size="10.00">process</text>
<text text-anchor="start" x="4.08" y="-6" font-family="Helvetica,sans-Serif" font-size="10.00">+</text>
<text text-anchor="start" x="13.5" y="-6" font-family="Helvetica,sans-Serif" font-size="10.00">IIDetector()</text>
<polygon fill="#666666" stroke="#666666" points="0.5,-86 0.5,-86 67.5,-86 67.5,-86 0.5,-86"/>
<polygon fill="#666666" stroke="#666666" points="0.5,-16 0.5,-16 11.5,-16 11.5,-16 0.5,-16"/>
<polygon fill="#666666" stroke="#666666" points="11.5,-16 11.5,-16 67.5,-16 67.5,-16 11.5,-16"/>
<polygon fill="none" stroke="#666666" points="0,0 0,-102 67,-102 67,0 0,0"/>
</a>
</g>
</g>
</g>
</svg>
