<?xml version="1.0" encoding="UTF-8" standalone="no"?>
<!DOCTYPE svg PUBLIC "-//W3C//DTD SVG 1.1//EN"
 "http://www.w3.org/Graphics/SVG/1.1/DTD/svg11.dtd">
<!-- Generated by graphviz version 2.48.0 (20210717.1556)
 -->
<!-- Title: epub::configuration Pages: 1 -->
<svg width="479pt" height="915pt"
 viewBox="0.00 0.00 478.78 915.00" xmlns="http://www.w3.org/2000/svg" xmlns:xlink="http://www.w3.org/1999/xlink">
<g id="graph0" class="graph" transform="scale(1 1) rotate(0) translate(4 911)">
<title>epub::configuration</title>
<!-- Node1 -->
<g id="Node000001" class="node">
<title>Node1</title>
<g id="a_Node000001"><a xlink:title=" ">
<polygon fill="#999999" stroke="transparent" points="173.78,-224 38.78,-224 38.78,0 173.78,0 173.78,-224"/>
<text text-anchor="start" x="64.25" y="-212" font-family="Helvetica,sans-Serif" font-size="10.00">epub::configuration</text>
<text text-anchor="start" x="42.86" y="-198" font-family="Helvetica,sans-Serif" font-size="10.00">+</text>
<text text-anchor="start" x="52.28" y="-198" font-family="Helvetica,sans-Serif" font-size="10.00">std::filesystem::path</text>
<text text-anchor="start" x="52.28" y="-188" font-family="Helvetica,sans-Serif" font-size="10.00"> output</text>
<text text-anchor="start" x="42.86" y="-174" font-family="Helvetica,sans-Serif" font-size="10.00">+</text>
<text text-anchor="start" x="52.28" y="-174" font-family="Helvetica,sans-Serif" font-size="10.00">bool overwrite</text>
<text text-anchor="start" x="42.86" y="-160" font-family="Helvetica,sans-Serif" font-size="10.00">+</text>
<text text-anchor="start" x="52.28" y="-160" font-family="Helvetica,sans-Serif" font-size="10.00">std::filesystem::path</text>
<text text-anchor="start" x="52.28" y="-150" font-family="Helvetica,sans-Serif" font-size="10.00"> toc_stylesheet</text>
<text text-anchor="start" x="42.86" y="-136" font-family="Helvetica,sans-Serif" font-size="10.00">+</text>
<text text-anchor="start" x="52.28" y="-136" font-family="Helvetica,sans-Serif" font-size="10.00">std::filesystem::path</text>
<text text-anchor="start" x="52.28" y="-126" font-family="Helvetica,sans-Serif" font-size="10.00"> cover_image</text>
<text text-anchor="start" x="42.86" y="-112" font-family="Helvetica,sans-Serif" font-size="10.00">+</text>
<text text-anchor="start" x="52.28" y="-112" font-family="Helvetica,sans-Serif" font-size="10.00">configuration()=default</text>
<text text-anchor="start" x="42.86" y="-98" font-family="Helvetica,sans-Serif" font-size="10.00">+</text>
<text text-anchor="start" x="52.28" y="-98" font-family="Helvetica,sans-Serif" font-size="10.00">configuration(const</text>
<text text-anchor="start" x="52.28" y="-88" font-family="Helvetica,sans-Serif" font-size="10.00"> configuration &amp;)=delete</text>
<text text-anchor="start" x="42.86" y="-74" font-family="Helvetica,sans-Serif" font-size="10.00">+</text>
<text text-anchor="start" x="52.28" y="-74" font-family="Helvetica,sans-Serif" font-size="10.00">configuration(configuration</text>
<text text-anchor="start" x="52.28" y="-64" font-family="Helvetica,sans-Serif" font-size="10.00"> &amp;&amp;)=delete</text>
<text text-anchor="start" x="42.86" y="-50" font-family="Helvetica,sans-Serif" font-size="10.00">+</text>
<text text-anchor="start" x="52.28" y="-50" font-family="Helvetica,sans-Serif" font-size="10.00">configuration &amp; operator</text>
<text text-anchor="start" x="52.28" y="-40" font-family="Helvetica,sans-Serif" font-size="10.00">=(const configuration &amp;)</text>
<text text-anchor="start" x="52.28" y="-30" font-family="Helvetica,sans-Serif" font-size="10.00">=delete</text>
<text text-anchor="start" x="42.86" y="-16" font-family="Helvetica,sans-Serif" font-size="10.00">+</text>
<text text-anchor="start" x="52.28" y="-16" font-family="Helvetica,sans-Serif" font-size="10.00">configuration &amp; operator</text>
<text text-anchor="start" x="52.28" y="-6" font-family="Helvetica,sans-Serif" font-size="10.00">=(configuration &amp;&amp;)=delete</text>
<polygon fill="#666666" stroke="#666666" points="39.28,-208 39.28,-208 174.28,-208 174.28,-208 39.28,-208"/>
<polygon fill="#666666" stroke="#666666" points="39.28,-122 39.28,-122 50.28,-122 50.28,-122 39.28,-122"/>
<polygon fill="#666666" stroke="#666666" points="50.28,-122 50.28,-122 174.28,-122 174.28,-122 50.28,-122"/>
<polygon fill="none" stroke="#666666" points="38.78,0 38.78,-224 173.78,-224 173.78,0 38.78,0"/>
</a>
</g>
</g>
<!-- Node2 -->
<g id="Node000002" class="node">
<title>Node2</title>
<g id="a_Node000002"><a xlink:title=" ">
<polygon fill="white" stroke="transparent" points="138.28,-814 74.28,-814 74.28,-768 138.28,-768 138.28,-814"/>
<text text-anchor="start" x="79.04" y="-802" font-family="Helvetica,sans-Serif" font-size="10.00">std::u8string</text>
<text text-anchor="start" x="104.89" y="-788" font-family="Helvetica,sans-Serif" font-size="10.00"> </text>
<text text-anchor="start" x="104.89" y="-774" font-family="Helvetica,sans-Serif" font-size="10.00"> </text>
<polygon fill="#666666" stroke="#666666" points="74.28,-798 74.28,-798 138.28,-798 138.28,-798 74.28,-798"/>
<polygon fill="#666666" stroke="#666666" points="74.28,-784 74.28,-784 138.28,-784 138.28,-784 74.28,-784"/>
<polygon fill="none" stroke="#666666" points="74.28,-768 74.28,-814 138.28,-814 138.28,-768 74.28,-768"/>
</a>
</g>
</g>
<!-- Node2&#45;&gt;Node1 -->
<g id="edge1_Node000001_Node000002" class="edge">
<title>Node2&#45;&gt;Node1</title>
<g id="a_edge1_Node000001_Node000002"><a xlink:title=" ">
<path fill="none" stroke="#63b8ff" d="M78.21,-767.94C60.16,-751.86 38.27,-728.34 28.28,-702 -30.03,-548.31 14.48,-357.72 56.39,-235.73"/>
<polygon fill="none" stroke="#63b8ff" points="56.48,-235.47 54.68,-228.49 60.44,-224.14 62.24,-231.13 56.48,-235.47"/>
</a>
</g>
<text text-anchor="middle" x="52.77" y="-366" font-family="Helvetica,sans-Serif" font-size="10.00" fill="grey"> +description</text>
<text text-anchor="middle" x="52.77" y="-356" font-family="Helvetica,sans-Serif" font-size="10.00" fill="grey">+identifier</text>
<text text-anchor="middle" x="52.77" y="-346" font-family="Helvetica,sans-Serif" font-size="10.00" fill="grey">+title</text>
</g>
<!-- Node5 -->
<g id="Node000005" class="node">
<title>Node5</title>
<g id="a_Node000005"><a xlink:href="classepub_1_1creator.html" target="_top" xlink:title="An individual or organizational creator.">
<polygon fill="white" stroke="transparent" points="175.28,-625 37.28,-625 37.28,-469 175.28,-469 175.28,-625"/>
<text text-anchor="start" x="76.81" y="-613" font-family="Helvetica,sans-Serif" font-size="10.00">epub::creator</text>
<text text-anchor="start" x="104.89" y="-599" font-family="Helvetica,sans-Serif" font-size="10.00"> </text>
<text text-anchor="start" x="40.86" y="-585" font-family="Helvetica,sans-Serif" font-size="10.00">+</text>
<text text-anchor="start" x="50.28" y="-585" font-family="Helvetica,sans-Serif" font-size="10.00">creator(std::u8string</text>
<text text-anchor="start" x="50.28" y="-575" font-family="Helvetica,sans-Serif" font-size="10.00"> name)</text>
<text text-anchor="start" x="40.86" y="-561" font-family="Helvetica,sans-Serif" font-size="10.00">+</text>
<text text-anchor="start" x="50.28" y="-561" font-family="Helvetica,sans-Serif" font-size="10.00">operator const std</text>
<text text-anchor="start" x="50.28" y="-551" font-family="Helvetica,sans-Serif" font-size="10.00">::u8string &amp;() const</text>
<text text-anchor="start" x="40.86" y="-537" font-family="Helvetica,sans-Serif" font-size="10.00">+</text>
<text text-anchor="start" x="50.28" y="-537" font-family="Helvetica,sans-Serif" font-size="10.00">const std::u8string</text>
<text text-anchor="start" x="50.28" y="-527" font-family="Helvetica,sans-Serif" font-size="10.00"> &amp; file_as() const</text>
<text text-anchor="start" x="40.86" y="-513" font-family="Helvetica,sans-Serif" font-size="10.00">+</text>
<text text-anchor="start" x="50.28" y="-513" font-family="Helvetica,sans-Serif" font-size="10.00">void file_as(auto &amp;&amp;file_as)</text>
<text text-anchor="start" x="40.86" y="-499" font-family="Helvetica,sans-Serif" font-size="10.00">+</text>
<text text-anchor="start" x="50.28" y="-499" font-family="Helvetica,sans-Serif" font-size="10.00">const std::u8string</text>
<text text-anchor="start" x="50.28" y="-489" font-family="Helvetica,sans-Serif" font-size="10.00"> &amp; role() const</text>
<text text-anchor="start" x="40.86" y="-475" font-family="Helvetica,sans-Serif" font-size="10.00">+</text>
<text text-anchor="start" x="50.28" y="-475" font-family="Helvetica,sans-Serif" font-size="10.00">void role(auto &amp;&amp;role)</text>
<polygon fill="#666666" stroke="#666666" points="37.28,-609 37.28,-609 175.28,-609 175.28,-609 37.28,-609"/>
<polygon fill="#666666" stroke="#666666" points="37.28,-595 37.28,-595 175.28,-595 175.28,-595 37.28,-595"/>
<polygon fill="none" stroke="#666666" points="37.28,-469 37.28,-625 175.28,-625 175.28,-469 37.28,-469"/>
</a>
</g>
</g>
<!-- Node2&#45;&gt;Node5 -->
<g id="edge5_Node000005_Node000002" class="edge">
<title>Node2&#45;&gt;Node5</title>
<g id="a_edge5_Node000005_Node000002"><a xlink:title=" ">
<path fill="none" stroke="#63b8ff" d="M106.28,-767.67C106.28,-738.12 106.28,-684.28 106.28,-637.31"/>
<polygon fill="none" stroke="#63b8ff" points="106.28,-637.21 102.28,-631.21 106.28,-625.21 110.28,-631.21 106.28,-637.21"/>
</a>
</g>
<text text-anchor="middle" x="126.57" y="-742" font-family="Helvetica,sans-Serif" font-size="10.00" fill="grey"> &#45;_file_as</text>
<text text-anchor="middle" x="126.57" y="-732" font-family="Helvetica,sans-Serif" font-size="10.00" fill="grey">&#45;_name</text>
<text text-anchor="middle" x="126.57" y="-722" font-family="Helvetica,sans-Serif" font-size="10.00" fill="grey">&#45;_role</text>
</g>
<!-- Node9 -->
<g id="Node000009" class="node">
<title>Node9</title>
<g id="a_Node000009"><a xlink:href="classepub_1_1collection.html" target="_top" xlink:title="An indication that the publication is part of a larger set.">
<polygon fill="white" stroke="transparent" points="323.28,-702 193.28,-702 193.28,-392 323.28,-392 323.28,-702"/>
<text text-anchor="start" x="223.53" y="-690" font-family="Helvetica,sans-Serif" font-size="10.00">epub::collection</text>
<text text-anchor="start" x="198.11" y="-676" font-family="Helvetica,sans-Serif" font-size="10.00">&#45;</text>
<text text-anchor="start" x="206.28" y="-676" font-family="Helvetica,sans-Serif" font-size="10.00">type _type</text>
<text text-anchor="start" x="196.86" y="-662" font-family="Helvetica,sans-Serif" font-size="10.00">+</text>
<text text-anchor="start" x="206.28" y="-662" font-family="Helvetica,sans-Serif" font-size="10.00">collection(std::u8string</text>
<text text-anchor="start" x="206.28" y="-652" font-family="Helvetica,sans-Serif" font-size="10.00"> name)</text>
<text text-anchor="start" x="196.86" y="-638" font-family="Helvetica,sans-Serif" font-size="10.00">+</text>
<text text-anchor="start" x="206.28" y="-638" font-family="Helvetica,sans-Serif" font-size="10.00">collection(const collection</text>
<text text-anchor="start" x="206.28" y="-628" font-family="Helvetica,sans-Serif" font-size="10.00"> &amp;)=default</text>
<text text-anchor="start" x="196.86" y="-614" font-family="Helvetica,sans-Serif" font-size="10.00">+</text>
<text text-anchor="start" x="206.28" y="-614" font-family="Helvetica,sans-Serif" font-size="10.00">collection(collection</text>
<text text-anchor="start" x="206.28" y="-604" font-family="Helvetica,sans-Serif" font-size="10.00"> &amp;&amp;)=default</text>
<text text-anchor="start" x="196.86" y="-590" font-family="Helvetica,sans-Serif" font-size="10.00">+</text>
<text text-anchor="start" x="206.28" y="-590" font-family="Helvetica,sans-Serif" font-size="10.00">~collection()=default</text>
<text text-anchor="start" x="196.86" y="-576" font-family="Helvetica,sans-Serif" font-size="10.00">+</text>
<text text-anchor="start" x="206.28" y="-576" font-family="Helvetica,sans-Serif" font-size="10.00">collection &amp; operator</text>
<text text-anchor="start" x="206.28" y="-566" font-family="Helvetica,sans-Serif" font-size="10.00">=(const collection &amp;)</text>
<text text-anchor="start" x="206.28" y="-556" font-family="Helvetica,sans-Serif" font-size="10.00">=default</text>
<text text-anchor="start" x="196.86" y="-542" font-family="Helvetica,sans-Serif" font-size="10.00">+</text>
<text text-anchor="start" x="206.28" y="-542" font-family="Helvetica,sans-Serif" font-size="10.00">collection &amp; operator</text>
<text text-anchor="start" x="206.28" y="-532" font-family="Helvetica,sans-Serif" font-size="10.00">=(collection &amp;&amp;)=default</text>
<text text-anchor="start" x="196.86" y="-518" font-family="Helvetica,sans-Serif" font-size="10.00">+</text>
<text text-anchor="start" x="206.28" y="-518" font-family="Helvetica,sans-Serif" font-size="10.00">operator const std</text>
<text text-anchor="start" x="206.28" y="-508" font-family="Helvetica,sans-Serif" font-size="10.00">::u8string &amp;() const</text>
<text text-anchor="start" x="196.86" y="-494" font-family="Helvetica,sans-Serif" font-size="10.00">+</text>
<text text-anchor="start" x="206.28" y="-494" font-family="Helvetica,sans-Serif" font-size="10.00">enum type type() const</text>
<text text-anchor="start" x="196.86" y="-480" font-family="Helvetica,sans-Serif" font-size="10.00">+</text>
<text text-anchor="start" x="206.28" y="-480" font-family="Helvetica,sans-Serif" font-size="10.00">void type(enum type</text>
<text text-anchor="start" x="206.28" y="-470" font-family="Helvetica,sans-Serif" font-size="10.00"> type)</text>
<text text-anchor="start" x="196.86" y="-456" font-family="Helvetica,sans-Serif" font-size="10.00">+</text>
<text text-anchor="start" x="206.28" y="-456" font-family="Helvetica,sans-Serif" font-size="10.00">std::u8string group</text>
<text text-anchor="start" x="206.28" y="-446" font-family="Helvetica,sans-Serif" font-size="10.00">_position() const</text>
<text text-anchor="start" x="196.86" y="-432" font-family="Helvetica,sans-Serif" font-size="10.00">+</text>
<text text-anchor="start" x="206.28" y="-432" font-family="Helvetica,sans-Serif" font-size="10.00">void group_position</text>
<text text-anchor="start" x="206.28" y="-422" font-family="Helvetica,sans-Serif" font-size="10.00">(unsigned position)</text>
<text text-anchor="start" x="196.86" y="-408" font-family="Helvetica,sans-Serif" font-size="10.00">+</text>
<text text-anchor="start" x="206.28" y="-408" font-family="Helvetica,sans-Serif" font-size="10.00">void group_position</text>
<text text-anchor="start" x="206.28" y="-398" font-family="Helvetica,sans-Serif" font-size="10.00">(std::u8string position)</text>
<polygon fill="#666666" stroke="#666666" points="193.28,-686 193.28,-686 323.28,-686 323.28,-686 193.28,-686"/>
<polygon fill="#666666" stroke="#666666" points="193.28,-672 193.28,-672 204.28,-672 204.28,-672 193.28,-672"/>
<polygon fill="#666666" stroke="#666666" points="204.28,-672 204.28,-672 323.28,-672 323.28,-672 204.28,-672"/>
<polygon fill="none" stroke="#666666" points="193.28,-392 193.28,-702 323.28,-702 323.28,-392 193.28,-392"/>
</a>
</g>
</g>
<!-- Node2&#45;&gt;Node9 -->
<g id="edge10_Node000009_Node000002" class="edge">
<title>Node2&#45;&gt;Node9</title>
<g id="a_edge10_Node000009_Node000002"><a xlink:title=" ">
<path fill="none" stroke="#63b8ff" d="M133.46,-767.74C139.6,-762.21 145.88,-756.11 151.28,-750 164.11,-735.46 175.94,-719.12 186.69,-702.18"/>
<polygon fill="none" stroke="#63b8ff" points="186.93,-701.78 186.68,-694.58 193.24,-691.57 193.49,-698.78 186.93,-701.78"/>
</a>
</g>
<text text-anchor="middle" x="211.91" y="-737" font-family="Helvetica,sans-Serif" font-size="10.00" fill="grey"> &#45;_group_position</text>
<text text-anchor="middle" x="211.91" y="-727" font-family="Helvetica,sans-Serif" font-size="10.00" fill="grey">&#45;_name</text>
</g>
<!-- Node3 -->
<g id="Node000003" class="node">
<title>Node3</title>
<g id="a_Node000003"><a xlink:title=" ">
<polygon fill="white" stroke="transparent" points="150.28,-907 62.28,-907 62.28,-851 150.28,-851 150.28,-907"/>
<text text-anchor="start" x="67.23" y="-895" font-family="Helvetica,sans-Serif" font-size="10.00">std::basic_string&lt;</text>
<text text-anchor="start" x="89.74" y="-885" font-family="Helvetica,sans-Serif" font-size="10.00"> Char &gt;</text>
<text text-anchor="start" x="104.89" y="-871" font-family="Helvetica,sans-Serif" font-size="10.00"> </text>
<text text-anchor="start" x="104.89" y="-857" font-family="Helvetica,sans-Serif" font-size="10.00"> </text>
<polygon fill="#666666" stroke="#666666" points="62.28,-881 62.28,-881 150.28,-881 150.28,-881 62.28,-881"/>
<polygon fill="#666666" stroke="#666666" points="62.28,-867 62.28,-867 150.28,-867 150.28,-867 62.28,-867"/>
<polygon fill="none" stroke="#666666" points="62.28,-851 62.28,-907 150.28,-907 150.28,-851 62.28,-851"/>
</a>
</g>
</g>
<!-- Node3&#45;&gt;Node2 -->
<g id="edge2_Node000002_Node000003" class="edge">
<title>Node3&#45;&gt;Node2</title>
<g id="a_edge2_Node000002_Node000003"><a xlink:title=" ">
<path fill="none" stroke="#63b8ff" d="M106.28,-840.78C106.28,-831.7 106.28,-822.27 106.28,-814.15"/>
<polygon fill="none" stroke="#63b8ff" points="102.78,-840.79 106.28,-850.79 109.78,-840.79 102.78,-840.79"/>
</a>
</g>
</g>
<!-- Node4 -->
<g id="Node000004" class="node">
<title>Node4</title>
<g id="a_Node000004"><a xlink:title=" ">
<polygon fill="white" stroke="transparent" points="152.28,-326 60.28,-326 60.28,-270 152.28,-270 152.28,-326"/>
<text text-anchor="start" x="65" y="-314" font-family="Helvetica,sans-Serif" font-size="10.00">std::vector&lt; epub::</text>
<text text-anchor="start" x="86.41" y="-304" font-family="Helvetica,sans-Serif" font-size="10.00">creator &gt;</text>
<text text-anchor="start" x="104.89" y="-290" font-family="Helvetica,sans-Serif" font-size="10.00"> </text>
<text text-anchor="start" x="104.89" y="-276" font-family="Helvetica,sans-Serif" font-size="10.00"> </text>
<polygon fill="#666666" stroke="#666666" points="60.28,-300 60.28,-300 152.28,-300 152.28,-300 60.28,-300"/>
<polygon fill="#666666" stroke="#666666" points="60.28,-286 60.28,-286 152.28,-286 152.28,-286 60.28,-286"/>
<polygon fill="none" stroke="#666666" points="60.28,-270 60.28,-326 152.28,-326 152.28,-270 60.28,-270"/>
</a>
</g>
</g>
<!-- Node4&#45;&gt;Node1 -->
<g id="edge3_Node000001_Node000004" class="edge">
<title>Node4&#45;&gt;Node1</title>
<g id="a_edge3_Node000001_Node000004"><a xlink:title=" ">
<path fill="none" stroke="#63b8ff" d="M106.28,-269.85C106.28,-260.23 106.28,-248.68 106.28,-236.28"/>
<polygon fill="none" stroke="#63b8ff" points="106.28,-236.15 102.28,-230.15 106.28,-224.15 110.28,-230.15 106.28,-236.15"/>
</a>
</g>
<text text-anchor="middle" x="128.65" y="-244" font-family="Helvetica,sans-Serif" font-size="10.00" fill="grey"> +creators</text>
</g>
<!-- Node5&#45;&gt;Node4 -->
<g id="edge4_Node000004_Node000005" class="edge">
<title>Node5&#45;&gt;Node4</title>
<g id="a_edge4_Node000004_Node000005"><a xlink:title=" ">
<path fill="none" stroke="#63b8ff" d="M106.28,-468.86C106.28,-425.5 106.28,-373.21 106.28,-338.2"/>
<polygon fill="none" stroke="#63b8ff" points="106.28,-338.14 102.28,-332.14 106.28,-326.14 110.28,-332.14 106.28,-338.14"/>
</a>
</g>
<text text-anchor="middle" x="130.87" y="-356" font-family="Helvetica,sans-Serif" font-size="10.00" fill="grey"> +elements</text>
</g>
<!-- Node6 -->
<g id="Node000006" class="node">
<title>Node6</title>
<g id="a_Node000006"><a xlink:title=" ">
<polygon fill="white" stroke="transparent" points="424.78,-570 345.78,-570 345.78,-524 424.78,-524 424.78,-570"/>
<text text-anchor="start" x="351.22" y="-558" font-family="Helvetica,sans-Serif" font-size="10.00">std::vector&lt; T &gt;</text>
<text text-anchor="start" x="384.39" y="-544" font-family="Helvetica,sans-Serif" font-size="10.00"> </text>
<text text-anchor="start" x="384.39" y="-530" font-family="Helvetica,sans-Serif" font-size="10.00"> </text>
<polygon fill="#666666" stroke="#666666" points="346.28,-554 346.28,-554 425.28,-554 425.28,-554 346.28,-554"/>
<polygon fill="#666666" stroke="#666666" points="346.28,-540 346.28,-540 425.28,-540 425.28,-540 346.28,-540"/>
<polygon fill="none" stroke="#666666" points="345.78,-524 345.78,-570 424.78,-570 424.78,-524 345.78,-524"/>
</a>
</g>
</g>
<!-- Node6&#45;&gt;Node4 -->
<g id="edge6_Node000004_Node000006" class="edge">
<title>Node6&#45;&gt;Node4</title>
<g id="a_edge6_Node000004_Node000006"><a xlink:title=" ">
<path fill="none" stroke="orange" d="M382.32,-513.73C377.5,-479.26 364.92,-425.12 332.28,-392 315.72,-375.2 300.75,-388.75 282.34,-374 270.01,-364.12 276.41,-352.79 263.28,-344 225.02,-318.4 205.04,-340.28 161.28,-326 158.34,-325.04 155.37,-323.96 152.4,-322.78"/>
<polygon fill="orange" stroke="orange" points="378.86,-514.27 383.58,-523.75 385.8,-513.39 378.86,-514.27"/>
</a>
</g>
<text text-anchor="middle" x="321.75" y="-356" font-family="Helvetica,sans-Serif" font-size="10.00" fill="grey"> &lt; epub::creator &gt;</text>
</g>
<!-- Node8 -->
<g id="Node000008" class="node">
<title>Node8</title>
<g id="a_Node000008"><a xlink:title=" ">
<polygon fill="white" stroke="transparent" points="262.28,-326 170.28,-326 170.28,-270 262.28,-270 262.28,-326"/>
<text text-anchor="start" x="175" y="-314" font-family="Helvetica,sans-Serif" font-size="10.00">std::vector&lt; epub::</text>
<text text-anchor="start" x="191.12" y="-304" font-family="Helvetica,sans-Serif" font-size="10.00">collection &gt;</text>
<text text-anchor="start" x="214.89" y="-290" font-family="Helvetica,sans-Serif" font-size="10.00"> </text>
<text text-anchor="start" x="214.89" y="-276" font-family="Helvetica,sans-Serif" font-size="10.00"> </text>
<polygon fill="#666666" stroke="#666666" points="170.28,-300 170.28,-300 262.28,-300 262.28,-300 170.28,-300"/>
<polygon fill="#666666" stroke="#666666" points="170.28,-286 170.28,-286 262.28,-286 262.28,-286 170.28,-286"/>
<polygon fill="none" stroke="#666666" points="170.28,-270 170.28,-326 262.28,-326 262.28,-270 170.28,-270"/>
</a>
</g>
</g>
<!-- Node6&#45;&gt;Node8 -->
<g id="edge11_Node000008_Node000006" class="edge">
<title>Node6&#45;&gt;Node8</title>
<g id="a_edge11_Node000008_Node000006"><a xlink:title=" ">
<path fill="none" stroke="orange" d="M392.07,-513.86C399.29,-470.23 404.87,-392.16 365.28,-344 340.48,-313.84 296.2,-303.39 262.34,-300.01"/>
<polygon fill="orange" stroke="orange" points="388.58,-513.46 390.27,-523.92 395.47,-514.69 388.58,-513.46"/>
</a>
</g>
<text text-anchor="middle" x="426.03" y="-356" font-family="Helvetica,sans-Serif" font-size="10.00" fill="grey"> &lt; epub::collection &gt;</text>
</g>
<!-- Node7 -->
<g id="Node000007" class="node">
<title>Node7</title>
<g id="a_Node000007"><a xlink:title=" ">
<polygon fill="white" stroke="transparent" points="393.28,-814 377.28,-814 377.28,-768 393.28,-768 393.28,-814"/>
<text text-anchor="start" x="382.22" y="-802" font-family="Helvetica,sans-Serif" font-size="10.00">T</text>
<text text-anchor="start" x="383.89" y="-788" font-family="Helvetica,sans-Serif" font-size="10.00"> </text>
<text text-anchor="start" x="383.89" y="-774" font-family="Helvetica,sans-Serif" font-size="10.00"> </text>
<polygon fill="#666666" stroke="#666666" points="377.28,-798 377.28,-798 393.28,-798 393.28,-798 377.28,-798"/>
<polygon fill="#666666" stroke="#666666" points="377.28,-784 377.28,-784 393.28,-784 393.28,-784 377.28,-784"/>
<polygon fill="none" stroke="#666666" points="377.28,-768 377.28,-814 393.28,-814 393.28,-768 377.28,-768"/>
</a>
</g>
</g>
<!-- Node7&#45;&gt;Node6 -->
<g id="edge7_Node000006_Node000007" class="edge">
<title>Node7&#45;&gt;Node6</title>
<g id="a_edge7_Node000006_Node000007"><a xlink:title=" ">
<path fill="none" stroke="#63b8ff" d="M385.28,-767.67C385.28,-725.26 385.28,-632.81 385.28,-582.42"/>
<polygon fill="none" stroke="#63b8ff" points="385.28,-582.28 381.28,-576.28 385.28,-570.28 389.28,-576.28 385.28,-582.28"/>
</a>
</g>
<text text-anchor="middle" x="409.87" y="-732" font-family="Helvetica,sans-Serif" font-size="10.00" fill="grey"> +elements</text>
</g>
<!-- Node8&#45;&gt;Node1 -->
<g id="edge8_Node000001_Node000008" class="edge">
<title>Node8&#45;&gt;Node1</title>
<g id="a_edge8_Node000001_Node000008"><a xlink:title=" ">
<path fill="none" stroke="#63b8ff" d="M200.05,-269.85C194.06,-259.83 186.82,-247.73 179.05,-234.74"/>
<polygon fill="none" stroke="#63b8ff" points="178.88,-234.45 172.37,-231.35 172.73,-224.15 179.24,-227.25 178.88,-234.45"/>
</a>
</g>
<text text-anchor="middle" x="213.93" y="-244" font-family="Helvetica,sans-Serif" font-size="10.00" fill="grey"> +collections</text>
</g>
<!-- Node9&#45;&gt;Node8 -->
<g id="edge9_Node000008_Node000009" class="edge">
<title>Node9&#45;&gt;Node8</title>
<g id="a_edge9_Node000008_Node000009"><a xlink:title=" ">
<path fill="none" stroke="#63b8ff" d="M216.67,-391.64C215.69,-385.71 214.82,-379.81 214.08,-374 212.62,-362.42 212.45,-349.76 212.85,-338.19"/>
<polygon fill="none" stroke="#63b8ff" points="212.85,-338.16 209.16,-331.96 213.46,-326.18 217.15,-332.37 212.85,-338.16"/>
</a>
</g>
<text text-anchor="middle" x="237.87" y="-356" font-family="Helvetica,sans-Serif" font-size="10.00" fill="grey"> +elements</text>
</g>
</g>
</svg>
