<?xml version="1.0" encoding="UTF-8" standalone="no"?>
<!DOCTYPE svg PUBLIC "-//W3C//DTD SVG 1.1//EN"
 "http://www.w3.org/Graphics/SVG/1.1/DTD/svg11.dtd">
<!-- Generated by graphviz version 2.48.0 (20210717.1556)
 -->
<!-- Title: geom::size Pages: 1 -->
<svg width="66pt" height="82pt"
 viewBox="0.00 0.00 66.00 82.00" xmlns="http://www.w3.org/2000/svg" xmlns:xlink="http://www.w3.org/1999/xlink">
<g id="graph0" class="graph" transform="scale(1 1) rotate(0) translate(4 78)">
<title>geom::size</title>
<!-- Node1 -->
<g id="Node000001" class="node">
<title>Node1</title>
<g id="a_Node000001"><a xlink:title=" ">
<polygon fill="#999999" stroke="transparent" points="58,-74 0,-74 0,0 58,0 58,-74"/>
<text text-anchor="start" x="4.82" y="-62" font-family="Helvetica,sans-Serif" font-size="10.00">geom::size</text>
<text text-anchor="start" x="7.58" y="-48" font-family="Helvetica,sans-Serif" font-size="10.00">+</text>
<text text-anchor="start" x="21" y="-48" font-family="Helvetica,sans-Serif" font-size="10.00">w</text>
<text text-anchor="start" x="7.58" y="-34" font-family="Helvetica,sans-Serif" font-size="10.00">+</text>
<text text-anchor="start" x="21" y="-34" font-family="Helvetica,sans-Serif" font-size="10.00">h</text>
<text text-anchor="start" x="7.58" y="-20" font-family="Helvetica,sans-Serif" font-size="10.00">+</text>
<text text-anchor="start" x="21" y="-20" font-family="Helvetica,sans-Serif" font-size="10.00">size()</text>
<text text-anchor="start" x="7.58" y="-6" font-family="Helvetica,sans-Serif" font-size="10.00">+</text>
<text text-anchor="start" x="21" y="-6" font-family="Helvetica,sans-Serif" font-size="10.00">size()</text>
<polygon fill="#666666" stroke="#666666" points="0,-58 0,-58 58,-58 58,-58 0,-58"/>
<polygon fill="#666666" stroke="#666666" points="0,-30 0,-30 19,-30 19,-30 0,-30"/>
<polygon fill="#666666" stroke="#666666" points="19,-30 19,-30 58,-30 58,-30 19,-30"/>
<polygon fill="none" stroke="#666666" points="0,0 0,-74 58,-74 58,0 0,0"/>
</a>
</g>
</g>
</g>
</svg>
