<?xml version="1.0" encoding="UTF-8" standalone="no"?>
<!DOCTYPE svg PUBLIC "-//W3C//DTD SVG 1.1//EN"
 "http://www.w3.org/Graphics/SVG/1.1/DTD/svg11.dtd">
<!-- Generated by graphviz version 2.48.0 (20210717.1556)
 -->
<!-- Title: image_ref Pages: 1 -->
<svg width="252pt" height="509pt"
 viewBox="0.00 0.00 252.00 509.00" xmlns="http://www.w3.org/2000/svg" xmlns:xlink="http://www.w3.org/1999/xlink">
<g id="graph0" class="graph" transform="scale(1 1) rotate(0) translate(4 505)">
<title>image_ref</title>
<!-- Node1 -->
<g id="Node000001" class="node">
<title>Node1</title>
<g id="a_Node000001"><a xlink:title=" ">
<polygon fill="#999999" stroke="transparent" points="126,-172 58,-172 58,0 126,0 126,-172"/>
<text text-anchor="start" x="69.77" y="-160" font-family="Helvetica,sans-Serif" font-size="10.00">image_ref</text>
<text text-anchor="start" x="61.58" y="-146" font-family="Helvetica,sans-Serif" font-size="10.00">+</text>
<text text-anchor="start" x="71" y="-146" font-family="Helvetica,sans-Serif" font-size="10.00">path</text>
<text text-anchor="start" x="61.58" y="-132" font-family="Helvetica,sans-Serif" font-size="10.00">+</text>
<text text-anchor="start" x="71" y="-132" font-family="Helvetica,sans-Serif" font-size="10.00">local</text>
<text text-anchor="start" x="61.58" y="-118" font-family="Helvetica,sans-Serif" font-size="10.00">+</text>
<text text-anchor="start" x="71" y="-118" font-family="Helvetica,sans-Serif" font-size="10.00">upscaled</text>
<text text-anchor="start" x="61.58" y="-104" font-family="Helvetica,sans-Serif" font-size="10.00">+</text>
<text text-anchor="start" x="71" y="-104" font-family="Helvetica,sans-Serif" font-size="10.00">image_ref()</text>
<text text-anchor="start" x="61.58" y="-90" font-family="Helvetica,sans-Serif" font-size="10.00">+</text>
<text text-anchor="start" x="71" y="-90" font-family="Helvetica,sans-Serif" font-size="10.00">image_ref()</text>
<text text-anchor="start" x="61.58" y="-76" font-family="Helvetica,sans-Serif" font-size="10.00">+</text>
<text text-anchor="start" x="71" y="-76" font-family="Helvetica,sans-Serif" font-size="10.00">width()</text>
<text text-anchor="start" x="61.58" y="-62" font-family="Helvetica,sans-Serif" font-size="10.00">+</text>
<text text-anchor="start" x="71" y="-62" font-family="Helvetica,sans-Serif" font-size="10.00">height()</text>
<text text-anchor="start" x="61.58" y="-48" font-family="Helvetica,sans-Serif" font-size="10.00">+</text>
<text text-anchor="start" x="71" y="-48" font-family="Helvetica,sans-Serif" font-size="10.00">metadata()</text>
<text text-anchor="start" x="61.58" y="-34" font-family="Helvetica,sans-Serif" font-size="10.00">+</text>
<text text-anchor="start" x="71" y="-34" font-family="Helvetica,sans-Serif" font-size="10.00">scale()</text>
<text text-anchor="start" x="61.58" y="-20" font-family="Helvetica,sans-Serif" font-size="10.00">+</text>
<text text-anchor="start" x="71" y="-20" font-family="Helvetica,sans-Serif" font-size="10.00">origin()</text>
<text text-anchor="start" x="61.58" y="-6" font-family="Helvetica,sans-Serif" font-size="10.00">+</text>
<text text-anchor="start" x="71" y="-6" font-family="Helvetica,sans-Serif" font-size="10.00">style()</text>
<polygon fill="#666666" stroke="#666666" points="58,-156 58,-156 126,-156 126,-156 58,-156"/>
<polygon fill="#666666" stroke="#666666" points="58,-114 58,-114 69,-114 69,-114 58,-114"/>
<polygon fill="#666666" stroke="#666666" points="69,-114 69,-114 126,-114 126,-114 69,-114"/>
<polygon fill="none" stroke="#666666" points="58,0 58,-172 126,-172 126,0 58,0"/>
</a>
</g>
</g>
<!-- Node2 -->
<g id="Node000002" class="node">
<title>Node2</title>
<g id="a_Node000002"><a xlink:title=" ">
<polygon fill="white" stroke="transparent" points="75.5,-327 22.5,-327 22.5,-281 75.5,-281 75.5,-327"/>
<text text-anchor="start" x="27.83" y="-315" font-family="Helvetica,sans-Serif" font-size="10.00">std::string</text>
<text text-anchor="start" x="48.11" y="-301" font-family="Helvetica,sans-Serif" font-size="10.00"> </text>
<text text-anchor="start" x="48.11" y="-287" font-family="Helvetica,sans-Serif" font-size="10.00"> </text>
<polygon fill="#666666" stroke="#666666" points="23,-311 23,-311 76,-311 76,-311 23,-311"/>
<polygon fill="#666666" stroke="#666666" points="23,-297 23,-297 76,-297 76,-297 23,-297"/>
<polygon fill="none" stroke="#666666" points="22.5,-281 22.5,-327 75.5,-327 75.5,-281 22.5,-281"/>
</a>
</g>
</g>
<!-- Node2&#45;&gt;Node1 -->
<g id="edge1_Node000001_Node000002" class="edge">
<title>Node2&#45;&gt;Node1</title>
<g id="a_edge1_Node000001_Node000002"><a xlink:title=" ">
<path fill="none" stroke="#63b8ff" d="M47.88,-280.67C47.2,-257.69 47.44,-220.99 53.68,-190 54.09,-187.97 54.53,-185.94 55.01,-183.89"/>
<polygon fill="none" stroke="#63b8ff" points="55.04,-183.74 52.66,-176.93 58.02,-172.11 60.41,-178.92 55.04,-183.74"/>
</a>
</g>
<text text-anchor="middle" x="84.16" y="-192" font-family="Helvetica,sans-Serif" font-size="10.00" fill="grey"> +media_type</text>
</g>
<!-- Node3 -->
<g id="Node000003" class="node">
<title>Node3</title>
<g id="a_Node000003"><a xlink:title=" ">
<polygon fill="white" stroke="transparent" points="88,-492 0,-492 0,-436 88,-436 88,-492"/>
<text text-anchor="start" x="4.95" y="-480" font-family="Helvetica,sans-Serif" font-size="10.00">std::basic_string&lt;</text>
<text text-anchor="start" x="27.46" y="-470" font-family="Helvetica,sans-Serif" font-size="10.00"> Char &gt;</text>
<text text-anchor="start" x="42.61" y="-456" font-family="Helvetica,sans-Serif" font-size="10.00"> </text>
<text text-anchor="start" x="42.61" y="-442" font-family="Helvetica,sans-Serif" font-size="10.00"> </text>
<polygon fill="#666666" stroke="#666666" points="0,-466 0,-466 88,-466 88,-466 0,-466"/>
<polygon fill="#666666" stroke="#666666" points="0,-452 0,-452 88,-452 88,-452 0,-452"/>
<polygon fill="none" stroke="#666666" points="0,-436 0,-492 88,-492 88,-436 0,-436"/>
</a>
</g>
</g>
<!-- Node3&#45;&gt;Node2 -->
<g id="edge2_Node000002_Node000003" class="edge">
<title>Node3&#45;&gt;Node2</title>
<g id="a_edge2_Node000002_Node000003"><a xlink:title=" ">
<path fill="none" stroke="#63b8ff" d="M45.19,-425.55C46.15,-394.94 47.49,-352.72 48.3,-327.22"/>
<polygon fill="none" stroke="#63b8ff" points="41.68,-425.73 44.86,-435.84 48.67,-425.95 41.68,-425.73"/>
</a>
</g>
</g>
<!-- Node4 -->
<g id="Node000004" class="node">
<title>Node4</title>
<g id="a_Node000004"><a xlink:href="structgeom_1_1rect.html" target="_top" xlink:title=" ">
<polygon fill="white" stroke="transparent" points="170,-390 104,-390 104,-218 170,-218 170,-390"/>
<text text-anchor="start" x="113.38" y="-378" font-family="Helvetica,sans-Serif" font-size="10.00">geom::rect</text>
<text text-anchor="start" x="135.61" y="-364" font-family="Helvetica,sans-Serif" font-size="10.00"> </text>
<text text-anchor="start" x="107.58" y="-350" font-family="Helvetica,sans-Serif" font-size="10.00">+</text>
<text text-anchor="start" x="117" y="-350" font-family="Helvetica,sans-Serif" font-size="10.00">rect()</text>
<text text-anchor="start" x="107.58" y="-336" font-family="Helvetica,sans-Serif" font-size="10.00">+</text>
<text text-anchor="start" x="117" y="-336" font-family="Helvetica,sans-Serif" font-size="10.00">rect()</text>
<text text-anchor="start" x="107.58" y="-322" font-family="Helvetica,sans-Serif" font-size="10.00">+</text>
<text text-anchor="start" x="117" y="-322" font-family="Helvetica,sans-Serif" font-size="10.00">rect()</text>
<text text-anchor="start" x="107.58" y="-308" font-family="Helvetica,sans-Serif" font-size="10.00">+</text>
<text text-anchor="start" x="117" y="-308" font-family="Helvetica,sans-Serif" font-size="10.00">rect()</text>
<text text-anchor="start" x="107.58" y="-294" font-family="Helvetica,sans-Serif" font-size="10.00">+</text>
<text text-anchor="start" x="117" y="-294" font-family="Helvetica,sans-Serif" font-size="10.00">rect()</text>
<text text-anchor="start" x="107.58" y="-280" font-family="Helvetica,sans-Serif" font-size="10.00">+</text>
<text text-anchor="start" x="117" y="-280" font-family="Helvetica,sans-Serif" font-size="10.00">~rect()</text>
<text text-anchor="start" x="107.58" y="-266" font-family="Helvetica,sans-Serif" font-size="10.00">+</text>
<text text-anchor="start" x="117" y="-266" font-family="Helvetica,sans-Serif" font-size="10.00">operator=()</text>
<text text-anchor="start" x="107.58" y="-252" font-family="Helvetica,sans-Serif" font-size="10.00">+</text>
<text text-anchor="start" x="117" y="-252" font-family="Helvetica,sans-Serif" font-size="10.00">operator=()</text>
<text text-anchor="start" x="107.58" y="-238" font-family="Helvetica,sans-Serif" font-size="10.00">+</text>
<text text-anchor="start" x="117" y="-238" font-family="Helvetica,sans-Serif" font-size="10.00">operator=()</text>
<text text-anchor="start" x="107.58" y="-224" font-family="Helvetica,sans-Serif" font-size="10.00">+</text>
<text text-anchor="start" x="117" y="-224" font-family="Helvetica,sans-Serif" font-size="10.00">operator=()</text>
<polygon fill="#666666" stroke="#666666" points="104,-374 104,-374 170,-374 170,-374 104,-374"/>
<polygon fill="#666666" stroke="#666666" points="104,-360 104,-360 170,-360 170,-360 104,-360"/>
<polygon fill="none" stroke="#666666" points="104,-218 104,-390 170,-390 170,-218 104,-218"/>
</a>
</g>
</g>
<!-- Node4&#45;&gt;Node1 -->
<g id="edge3_Node000001_Node000004" class="edge">
<title>Node4&#45;&gt;Node1</title>
<g id="a_edge3_Node000001_Node000004"><a xlink:title=" ">
<path fill="none" stroke="#63b8ff" d="M119.76,-217.83C117.83,-208.44 115.88,-199.02 114,-190 113.58,-188 113.16,-185.98 112.73,-183.94"/>
<polygon fill="none" stroke="#63b8ff" points="112.72,-183.88 107.57,-178.83 110.25,-172.14 115.4,-177.19 112.72,-183.88"/>
</a>
</g>
<text text-anchor="middle" x="133.09" y="-192" font-family="Helvetica,sans-Serif" font-size="10.00" fill="grey"> +frame</text>
</g>
<!-- Node5 -->
<g id="Node000005" class="node">
<title>Node5</title>
<g id="a_Node000005"><a xlink:href="structgeom_1_1point.html" target="_top" xlink:title=" ">
<polygon fill="white" stroke="transparent" points="168,-501 106,-501 106,-427 168,-427 168,-501"/>
<text text-anchor="start" x="110.87" y="-489" font-family="Helvetica,sans-Serif" font-size="10.00">geom::point</text>
<text text-anchor="start" x="113.58" y="-475" font-family="Helvetica,sans-Serif" font-size="10.00">+</text>
<text text-anchor="start" x="127" y="-475" font-family="Helvetica,sans-Serif" font-size="10.00">x</text>
<text text-anchor="start" x="113.58" y="-461" font-family="Helvetica,sans-Serif" font-size="10.00">+</text>
<text text-anchor="start" x="127" y="-461" font-family="Helvetica,sans-Serif" font-size="10.00">y</text>
<text text-anchor="start" x="113.58" y="-447" font-family="Helvetica,sans-Serif" font-size="10.00">+</text>
<text text-anchor="start" x="127" y="-447" font-family="Helvetica,sans-Serif" font-size="10.00">point()</text>
<text text-anchor="start" x="113.58" y="-433" font-family="Helvetica,sans-Serif" font-size="10.00">+</text>
<text text-anchor="start" x="127" y="-433" font-family="Helvetica,sans-Serif" font-size="10.00">point()</text>
<polygon fill="#666666" stroke="#666666" points="106,-485 106,-485 168,-485 168,-485 106,-485"/>
<polygon fill="#666666" stroke="#666666" points="106,-457 106,-457 125,-457 125,-457 106,-457"/>
<polygon fill="#666666" stroke="#666666" points="125,-457 125,-457 168,-457 168,-457 125,-457"/>
<polygon fill="none" stroke="#666666" points="106,-427 106,-501 168,-501 168,-427 106,-427"/>
</a>
</g>
</g>
<!-- Node5&#45;&gt;Node4 -->
<g id="edge4_Node000004_Node000005" class="edge">
<title>Node5&#45;&gt;Node4</title>
<g id="a_edge4_Node000004_Node000005"><a xlink:title=" ">
<path fill="none" stroke="#63b8ff" d="M137,-416.55C137,-408.22 137,-399.3 137,-390.28"/>
<polygon fill="none" stroke="#63b8ff" points="133.5,-416.75 137,-426.75 140.5,-416.75 133.5,-416.75"/>
</a>
</g>
</g>
<!-- Node6 -->
<g id="Node000006" class="node">
<title>Node6</title>
<g id="a_Node000006"><a xlink:href="structgeom_1_1size.html" target="_top" xlink:title=" ">
<polygon fill="white" stroke="transparent" points="244,-501 186,-501 186,-427 244,-427 244,-501"/>
<text text-anchor="start" x="190.82" y="-489" font-family="Helvetica,sans-Serif" font-size="10.00">geom::size</text>
<text text-anchor="start" x="193.58" y="-475" font-family="Helvetica,sans-Serif" font-size="10.00">+</text>
<text text-anchor="start" x="207" y="-475" font-family="Helvetica,sans-Serif" font-size="10.00">w</text>
<text text-anchor="start" x="193.58" y="-461" font-family="Helvetica,sans-Serif" font-size="10.00">+</text>
<text text-anchor="start" x="207" y="-461" font-family="Helvetica,sans-Serif" font-size="10.00">h</text>
<text text-anchor="start" x="193.58" y="-447" font-family="Helvetica,sans-Serif" font-size="10.00">+</text>
<text text-anchor="start" x="207" y="-447" font-family="Helvetica,sans-Serif" font-size="10.00">size()</text>
<text text-anchor="start" x="193.58" y="-433" font-family="Helvetica,sans-Serif" font-size="10.00">+</text>
<text text-anchor="start" x="207" y="-433" font-family="Helvetica,sans-Serif" font-size="10.00">size()</text>
<polygon fill="#666666" stroke="#666666" points="186,-485 186,-485 244,-485 244,-485 186,-485"/>
<polygon fill="#666666" stroke="#666666" points="186,-457 186,-457 205,-457 205,-457 186,-457"/>
<polygon fill="#666666" stroke="#666666" points="205,-457 205,-457 244,-457 244,-457 205,-457"/>
<polygon fill="none" stroke="#666666" points="186,-427 186,-501 244,-501 244,-427 186,-427"/>
</a>
</g>
</g>
<!-- Node6&#45;&gt;Node4 -->
<g id="edge5_Node000004_Node000006" class="edge">
<title>Node6&#45;&gt;Node4</title>
<g id="a_edge5_Node000004_Node000006"><a xlink:title=" ">
<path fill="none" stroke="#63b8ff" d="M192.64,-417.7C185.63,-403.5 177.73,-387.51 170.14,-372.13"/>
<polygon fill="none" stroke="#63b8ff" points="189.54,-419.33 197.11,-426.75 195.82,-416.24 189.54,-419.33"/>
</a>
</g>
</g>
</g>
</svg>
