<?xml version="1.0" encoding="UTF-8" standalone="no"?>
<!DOCTYPE svg PUBLIC "-//W3C//DTD SVG 1.1//EN"
 "http://www.w3.org/Graphics/SVG/1.1/DTD/svg11.dtd">
<!-- Generated by graphviz version 2.48.0 (20210717.1556)
 -->
<!-- Title: epub::manifest_item Pages: 1 -->
<svg width="246pt" height="443pt"
 viewBox="0.00 0.00 245.50 443.00" xmlns="http://www.w3.org/2000/svg" xmlns:xlink="http://www.w3.org/1999/xlink">
<g id="graph0" class="graph" transform="scale(1 1) rotate(0) translate(4 439)">
<title>epub::manifest_item</title>
<!-- Node1 -->
<g id="Node000001" class="node">
<title>Node1</title>
<g id="a_Node000001"><a xlink:title="An asset of the EPUB.">
<polygon fill="#999999" stroke="transparent" points="167.5,-74 40.5,-74 40.5,0 167.5,0 167.5,-74"/>
<text text-anchor="start" x="59.48" y="-62" font-family="Helvetica,sans-Serif" font-size="10.00">epub::manifest_item</text>
<text text-anchor="start" x="44.58" y="-48" font-family="Helvetica,sans-Serif" font-size="10.00">+</text>
<text text-anchor="start" x="54" y="-48" font-family="Helvetica,sans-Serif" font-size="10.00">std::filesystem::path path</text>
<text text-anchor="start" x="44.58" y="-34" font-family="Helvetica,sans-Serif" font-size="10.00">+</text>
<text text-anchor="start" x="54" y="-34" font-family="Helvetica,sans-Serif" font-size="10.00">bool in_spine</text>
<text text-anchor="start" x="44.58" y="-20" font-family="Helvetica,sans-Serif" font-size="10.00">+</text>
<text text-anchor="start" x="54" y="-20" font-family="Helvetica,sans-Serif" font-size="10.00">bool in_toc</text>
<text text-anchor="start" x="103.11" y="-6" font-family="Helvetica,sans-Serif" font-size="10.00"> </text>
<polygon fill="#666666" stroke="#666666" points="41,-58 41,-58 168,-58 168,-58 41,-58"/>
<polygon fill="#666666" stroke="#666666" points="41,-16 41,-16 52,-16 52,-16 41,-16"/>
<polygon fill="#666666" stroke="#666666" points="52,-16 52,-16 168,-16 168,-16 52,-16"/>
<polygon fill="none" stroke="#666666" points="40.5,0 40.5,-74 167.5,-74 167.5,0 40.5,0"/>
</a>
</g>
</g>
<!-- Node2 -->
<g id="Node000002" class="node">
<title>Node2</title>
<g id="a_Node000002"><a xlink:title=" ">
<polygon fill="white" stroke="transparent" points="76,-213 12,-213 12,-167 76,-167 76,-213"/>
<text text-anchor="start" x="16.76" y="-201" font-family="Helvetica,sans-Serif" font-size="10.00">std::u8string</text>
<text text-anchor="start" x="42.61" y="-187" font-family="Helvetica,sans-Serif" font-size="10.00"> </text>
<text text-anchor="start" x="42.61" y="-173" font-family="Helvetica,sans-Serif" font-size="10.00"> </text>
<polygon fill="#666666" stroke="#666666" points="12,-197 12,-197 76,-197 76,-197 12,-197"/>
<polygon fill="#666666" stroke="#666666" points="12,-183 12,-183 76,-183 76,-183 12,-183"/>
<polygon fill="none" stroke="#666666" points="12,-167 12,-213 76,-213 76,-167 12,-167"/>
</a>
</g>
</g>
<!-- Node2&#45;&gt;Node1 -->
<g id="edge1_Node000001_Node000002" class="edge">
<title>Node2&#45;&gt;Node1</title>
<g id="a_edge1_Node000001_Node000002"><a xlink:title=" ">
<path fill="none" stroke="#63b8ff" d="M52.02,-166.93C59.27,-147.2 70.36,-117.54 80.69,-92 81.57,-89.83 82.47,-87.63 83.4,-85.4"/>
<polygon fill="none" stroke="#63b8ff" points="83.45,-85.28 82.09,-78.19 88.1,-74.21 89.46,-81.29 83.45,-85.28"/>
</a>
</g>
<text text-anchor="middle" x="106.15" y="-104" font-family="Helvetica,sans-Serif" font-size="10.00" fill="grey"> +id</text>
<text text-anchor="middle" x="106.15" y="-94" font-family="Helvetica,sans-Serif" font-size="10.00" fill="grey">+properties</text>
</g>
<!-- Node3 -->
<g id="Node000003" class="node">
<title>Node3</title>
<g id="a_Node000003"><a xlink:title=" ">
<polygon fill="white" stroke="transparent" points="88,-343 0,-343 0,-287 88,-287 88,-343"/>
<text text-anchor="start" x="4.95" y="-331" font-family="Helvetica,sans-Serif" font-size="10.00">std::basic_string&lt;</text>
<text text-anchor="start" x="27.46" y="-321" font-family="Helvetica,sans-Serif" font-size="10.00"> Char &gt;</text>
<text text-anchor="start" x="42.61" y="-307" font-family="Helvetica,sans-Serif" font-size="10.00"> </text>
<text text-anchor="start" x="42.61" y="-293" font-family="Helvetica,sans-Serif" font-size="10.00"> </text>
<polygon fill="#666666" stroke="#666666" points="0,-317 0,-317 88,-317 88,-317 0,-317"/>
<polygon fill="#666666" stroke="#666666" points="0,-303 0,-303 88,-303 88,-303 0,-303"/>
<polygon fill="none" stroke="#666666" points="0,-287 0,-343 88,-343 88,-287 0,-287"/>
</a>
</g>
</g>
<!-- Node3&#45;&gt;Node2 -->
<g id="edge2_Node000002_Node000003" class="edge">
<title>Node3&#45;&gt;Node2</title>
<g id="a_edge2_Node000002_Node000003"><a xlink:title=" ">
<path fill="none" stroke="#63b8ff" d="M44,-276.64C44,-255.95 44,-230.93 44,-213.29"/>
<polygon fill="none" stroke="#63b8ff" points="40.5,-276.7 44,-286.7 47.5,-276.7 40.5,-276.7"/>
</a>
</g>
</g>
<!-- Node4 -->
<g id="Node000004" class="node">
<title>Node4</title>
<g id="a_Node000004"><a xlink:href="structepub_1_1file__metadata.html" target="_top" xlink:title="A class for managing metadata key&#45;value pairs.">
<polygon fill="white" stroke="transparent" points="237.5,-250 94.5,-250 94.5,-130 237.5,-130 237.5,-250"/>
<text text-anchor="start" x="122.58" y="-238" font-family="Helvetica,sans-Serif" font-size="10.00">epub::file_metadata</text>
<text text-anchor="start" x="165.11" y="-224" font-family="Helvetica,sans-Serif" font-size="10.00"> </text>
<text text-anchor="start" x="98.58" y="-210" font-family="Helvetica,sans-Serif" font-size="10.00">+</text>
<text text-anchor="start" x="108" y="-210" font-family="Helvetica,sans-Serif" font-size="10.00">std::optional&lt; mapped</text>
<text text-anchor="start" x="108" y="-200" font-family="Helvetica,sans-Serif" font-size="10.00">_type &gt; get(const key</text>
<text text-anchor="start" x="108" y="-190" font-family="Helvetica,sans-Serif" font-size="10.00">_type &amp;key) const noexcept</text>
<text text-anchor="start" x="98.58" y="-176" font-family="Helvetica,sans-Serif" font-size="10.00">+</text>
<text text-anchor="start" x="108" y="-176" font-family="Helvetica,sans-Serif" font-size="10.00">mapped_type get(const</text>
<text text-anchor="start" x="108" y="-166" font-family="Helvetica,sans-Serif" font-size="10.00"> key_type &amp;key, U &amp;&amp;default</text>
<text text-anchor="start" x="108" y="-156" font-family="Helvetica,sans-Serif" font-size="10.00">_value) const noexcept(std</text>
<text text-anchor="start" x="108" y="-146" font-family="Helvetica,sans-Serif" font-size="10.00">::is_nothrow_convertible&lt; U,</text>
<text text-anchor="start" x="108" y="-136" font-family="Helvetica,sans-Serif" font-size="10.00"> mapped_type &gt;::value)</text>
<polygon fill="#666666" stroke="#666666" points="95,-234 95,-234 238,-234 238,-234 95,-234"/>
<polygon fill="#666666" stroke="#666666" points="95,-220 95,-220 238,-220 238,-220 95,-220"/>
<polygon fill="none" stroke="#666666" points="94.5,-130 94.5,-250 237.5,-250 237.5,-130 94.5,-130"/>
</a>
</g>
</g>
<!-- Node4&#45;&gt;Node1 -->
<g id="edge3_Node000001_Node000004" class="edge">
<title>Node4&#45;&gt;Node1</title>
<g id="a_edge3_Node000001_Node000004"><a xlink:title=" ">
<path fill="none" stroke="#63b8ff" d="M145.9,-129.84C141.28,-117.24 136.18,-104.09 131,-92 130.02,-89.7 128.98,-87.37 127.91,-85.02"/>
<polygon fill="none" stroke="#63b8ff" points="127.85,-84.89 121.68,-81.17 122.75,-74.03 128.92,-77.76 127.85,-84.89"/>
</a>
</g>
<text text-anchor="middle" x="164.16" y="-99" font-family="Helvetica,sans-Serif" font-size="10.00" fill="grey"> +metadata</text>
</g>
<!-- Node5 -->
<g id="Node000005" class="node">
<title>Node5</title>
<g id="a_Node000005"><a xlink:title=" ">
<polygon fill="white" stroke="transparent" points="207.5,-338 124.5,-338 124.5,-292 207.5,-292 207.5,-338"/>
<text text-anchor="start" x="129.72" y="-326" font-family="Helvetica,sans-Serif" font-size="10.00">std::map&lt; K, T &gt;</text>
<text text-anchor="start" x="165.11" y="-312" font-family="Helvetica,sans-Serif" font-size="10.00"> </text>
<text text-anchor="start" x="165.11" y="-298" font-family="Helvetica,sans-Serif" font-size="10.00"> </text>
<polygon fill="#666666" stroke="#666666" points="125,-322 125,-322 208,-322 208,-322 125,-322"/>
<polygon fill="#666666" stroke="#666666" points="125,-308 125,-308 208,-308 208,-308 125,-308"/>
<polygon fill="none" stroke="#666666" points="124.5,-292 124.5,-338 207.5,-338 207.5,-292 124.5,-292"/>
</a>
</g>
</g>
<!-- Node5&#45;&gt;Node4 -->
<g id="edge4_Node000004_Node000005" class="edge">
<title>Node5&#45;&gt;Node4</title>
<g id="a_edge4_Node000004_Node000005"><a xlink:title=" ">
<path fill="none" stroke="#63b8ff" d="M166,-281.72C166,-271.97 166,-260.95 166,-250.03"/>
<polygon fill="none" stroke="#63b8ff" points="162.5,-281.73 166,-291.73 169.5,-281.73 162.5,-281.73"/>
</a>
</g>
</g>
<!-- Node6 -->
<g id="Node000006" class="node">
<title>Node6</title>
<g id="a_Node000006"><a xlink:title=" ">
<polygon fill="white" stroke="transparent" points="148,-435 132,-435 132,-389 148,-389 148,-435"/>
<text text-anchor="start" x="136.67" y="-423" font-family="Helvetica,sans-Serif" font-size="10.00">K</text>
<text text-anchor="start" x="138.61" y="-409" font-family="Helvetica,sans-Serif" font-size="10.00"> </text>
<text text-anchor="start" x="138.61" y="-395" font-family="Helvetica,sans-Serif" font-size="10.00"> </text>
<polygon fill="#666666" stroke="#666666" points="132,-419 132,-419 148,-419 148,-419 132,-419"/>
<polygon fill="#666666" stroke="#666666" points="132,-405 132,-405 148,-405 148,-405 132,-405"/>
<polygon fill="none" stroke="#666666" points="132,-389 132,-435 148,-435 148,-389 132,-389"/>
</a>
</g>
</g>
<!-- Node6&#45;&gt;Node5 -->
<g id="edge5_Node000005_Node000006" class="edge">
<title>Node6&#45;&gt;Node5</title>
<g id="a_edge5_Node000005_Node000006"><a xlink:title=" ">
<path fill="none" stroke="#63b8ff" d="M138.05,-388.77C137.87,-379.99 138.43,-369.89 140.82,-361 141.87,-357.11 143.33,-353.2 145.02,-349.39"/>
<polygon fill="none" stroke="#63b8ff" points="145.16,-349.1 144.32,-341.94 150.61,-338.41 151.45,-345.57 145.16,-349.1"/>
</a>
</g>
<text text-anchor="middle" x="155.59" y="-363" font-family="Helvetica,sans-Serif" font-size="10.00" fill="grey"> +keys</text>
</g>
<!-- Node7 -->
<g id="Node000007" class="node">
<title>Node7</title>
<g id="a_Node000007"><a xlink:title=" ">
<polygon fill="white" stroke="transparent" points="200,-435 184,-435 184,-389 200,-389 200,-435"/>
<text text-anchor="start" x="188.95" y="-423" font-family="Helvetica,sans-Serif" font-size="10.00">T</text>
<text text-anchor="start" x="190.61" y="-409" font-family="Helvetica,sans-Serif" font-size="10.00"> </text>
<text text-anchor="start" x="190.61" y="-395" font-family="Helvetica,sans-Serif" font-size="10.00"> </text>
<polygon fill="#666666" stroke="#666666" points="184,-419 184,-419 200,-419 200,-419 184,-419"/>
<polygon fill="#666666" stroke="#666666" points="184,-405 184,-405 200,-405 200,-405 184,-405"/>
<polygon fill="none" stroke="#666666" points="184,-389 184,-435 200,-435 200,-389 184,-389"/>
</a>
</g>
</g>
<!-- Node7&#45;&gt;Node5 -->
<g id="edge6_Node000005_Node000007" class="edge">
<title>Node7&#45;&gt;Node5</title>
<g id="a_edge6_Node000005_Node000007"><a xlink:title=" ">
<path fill="none" stroke="#63b8ff" d="M185.97,-388.97C182.81,-377.42 178.87,-363.02 175.33,-350.07"/>
<polygon fill="none" stroke="#63b8ff" points="175.26,-349.82 169.81,-345.09 172.09,-338.24 177.53,-342.97 175.26,-349.82"/>
</a>
</g>
<text text-anchor="middle" x="204.6" y="-363" font-family="Helvetica,sans-Serif" font-size="10.00" fill="grey"> +elements</text>
</g>
</g>
</svg>
