<?xml version="1.0" encoding="UTF-8" standalone="no"?>
<!DOCTYPE svg PUBLIC "-//W3C//DTD SVG 1.1//EN"
 "http://www.w3.org/Graphics/SVG/1.1/DTD/svg11.dtd">
<!-- Generated by graphviz version 2.48.0 (20210717.1556)
 -->
<!-- Title: epub::file_metadata Pages: 1 -->
<svg width="151pt" height="224pt"
 viewBox="0.00 0.00 151.00 224.00" xmlns="http://www.w3.org/2000/svg" xmlns:xlink="http://www.w3.org/1999/xlink">
<g id="graph0" class="graph" transform="scale(1 1) rotate(0) translate(4 220)">
<title>epub::file_metadata</title>
<!-- Node1 -->
<g id="Node000001" class="node">
<title>Node1</title>
<g id="a_Node000001"><a xlink:title="A class for managing metadata key&#45;value pairs.">
<polygon fill="#999999" stroke="transparent" points="143,-120 0,-120 0,0 143,0 143,-120"/>
<text text-anchor="start" x="28.08" y="-108" font-family="Helvetica,sans-Serif" font-size="10.00">epub::file_metadata</text>
<text text-anchor="start" x="70.61" y="-94" font-family="Helvetica,sans-Serif" font-size="10.00"> </text>
<text text-anchor="start" x="4.08" y="-80" font-family="Helvetica,sans-Serif" font-size="10.00">+</text>
<text text-anchor="start" x="13.5" y="-80" font-family="Helvetica,sans-Serif" font-size="10.00">std::optional&lt; mapped</text>
<text text-anchor="start" x="13.5" y="-70" font-family="Helvetica,sans-Serif" font-size="10.00">_type &gt; get(const key</text>
<text text-anchor="start" x="13.5" y="-60" font-family="Helvetica,sans-Serif" font-size="10.00">_type &amp;key) const noexcept</text>
<text text-anchor="start" x="4.08" y="-46" font-family="Helvetica,sans-Serif" font-size="10.00">+</text>
<text text-anchor="start" x="13.5" y="-46" font-family="Helvetica,sans-Serif" font-size="10.00">mapped_type get(const</text>
<text text-anchor="start" x="13.5" y="-36" font-family="Helvetica,sans-Serif" font-size="10.00"> key_type &amp;key, U &amp;&amp;default</text>
<text text-anchor="start" x="13.5" y="-26" font-family="Helvetica,sans-Serif" font-size="10.00">_value) const noexcept(std</text>
<text text-anchor="start" x="13.5" y="-16" font-family="Helvetica,sans-Serif" font-size="10.00">::is_nothrow_convertible&lt; U,</text>
<text text-anchor="start" x="13.5" y="-6" font-family="Helvetica,sans-Serif" font-size="10.00"> mapped_type &gt;::value)</text>
<polygon fill="#666666" stroke="#666666" points="0.5,-104 0.5,-104 143.5,-104 143.5,-104 0.5,-104"/>
<polygon fill="#666666" stroke="#666666" points="0.5,-90 0.5,-90 143.5,-90 143.5,-90 0.5,-90"/>
<polygon fill="none" stroke="#666666" points="0,0 0,-120 143,-120 143,0 0,0"/>
</a>
</g>
</g>
<!-- Node2 -->
<g id="Node000002" class="node">
<title>Node2</title>
<g id="a_Node000002"><a xlink:title=" ">
<polygon fill="white" stroke="transparent" points="113,-216 30,-216 30,-156 113,-156 113,-216"/>
<text text-anchor="start" x="35.22" y="-204" font-family="Helvetica,sans-Serif" font-size="10.00">std::map&lt; K, T &gt;</text>
<text text-anchor="start" x="38.08" y="-190" font-family="Helvetica,sans-Serif" font-size="10.00">+</text>
<text text-anchor="start" x="51.5" y="-190" font-family="Helvetica,sans-Serif" font-size="10.00">K keys</text>
<text text-anchor="start" x="38.08" y="-176" font-family="Helvetica,sans-Serif" font-size="10.00">+</text>
<text text-anchor="start" x="51.5" y="-176" font-family="Helvetica,sans-Serif" font-size="10.00">T elements</text>
<text text-anchor="start" x="70.61" y="-162" font-family="Helvetica,sans-Serif" font-size="10.00"> </text>
<polygon fill="#666666" stroke="#666666" points="30.5,-200 30.5,-200 113.5,-200 113.5,-200 30.5,-200"/>
<polygon fill="#666666" stroke="#666666" points="30.5,-172 30.5,-172 49.5,-172 49.5,-172 30.5,-172"/>
<polygon fill="#666666" stroke="#666666" points="49.5,-172 49.5,-172 113.5,-172 113.5,-172 49.5,-172"/>
<polygon fill="none" stroke="#666666" points="30,-156 30,-216 113,-216 113,-156 30,-156"/>
</a>
</g>
</g>
<!-- Node2&#45;&gt;Node1 -->
<g id="edge1_Node000001_Node000002" class="edge">
<title>Node2&#45;&gt;Node1</title>
<g id="a_edge1_Node000001_Node000002"><a xlink:title=" ">
<path fill="none" stroke="#63b8ff" d="M71.5,-145.93C71.5,-137.73 71.5,-128.9 71.5,-120.16"/>
<polygon fill="none" stroke="#63b8ff" points="68,-145.93 71.5,-155.93 75,-145.93 68,-145.93"/>
</a>
</g>
</g>
</g>
</svg>
