<?xml version="1.0" encoding="UTF-8" standalone="no"?>
<!DOCTYPE svg PUBLIC "-//W3C//DTD SVG 1.1//EN"
 "http://www.w3.org/Graphics/SVG/1.1/DTD/svg11.dtd">
<!-- Generated by graphviz version 2.48.0 (20210717.1556)
 -->
<!-- Title: chapter Pages: 1 -->
<svg width="105pt" height="192pt"
 viewBox="0.00 0.00 105.00 192.00" xmlns="http://www.w3.org/2000/svg" xmlns:xlink="http://www.w3.org/1999/xlink">
<g id="graph0" class="graph" transform="scale(1 1) rotate(0) translate(4 188)">
<title>chapter</title>
<!-- Node1 -->
<g id="Node000001" class="node">
<title>Node1</title>
<g id="a_Node000001"><a xlink:title=" ">
<polygon fill="#999999" stroke="transparent" points="97,-102 0,-102 0,0 97,0 97,-102"/>
<text text-anchor="start" x="32.32" y="-90" font-family="Helvetica,sans-Serif" font-size="10.00">chapter</text>
<text text-anchor="start" x="4.08" y="-76" font-family="Helvetica,sans-Serif" font-size="10.00">+</text>
<text text-anchor="start" x="13.5" y="-76" font-family="Helvetica,sans-Serif" font-size="10.00">name</text>
<text text-anchor="start" x="4.08" y="-62" font-family="Helvetica,sans-Serif" font-size="10.00">+</text>
<text text-anchor="start" x="13.5" y="-62" font-family="Helvetica,sans-Serif" font-size="10.00">chapter()</text>
<text text-anchor="start" x="4.08" y="-48" font-family="Helvetica,sans-Serif" font-size="10.00">+</text>
<text text-anchor="start" x="13.5" y="-48" font-family="Helvetica,sans-Serif" font-size="10.00">layout()</text>
<text text-anchor="start" x="4.08" y="-34" font-family="Helvetica,sans-Serif" font-size="10.00">+</text>
<text text-anchor="start" x="13.5" y="-34" font-family="Helvetica,sans-Serif" font-size="10.00">add_blank_page()</text>
<text text-anchor="start" x="4.08" y="-20" font-family="Helvetica,sans-Serif" font-size="10.00">+</text>
<text text-anchor="start" x="13.5" y="-20" font-family="Helvetica,sans-Serif" font-size="10.00">pop_blank_page()</text>
<text text-anchor="start" x="4.08" y="-6" font-family="Helvetica,sans-Serif" font-size="10.00">+</text>
<text text-anchor="start" x="13.5" y="-6" font-family="Helvetica,sans-Serif" font-size="10.00">current_page()</text>
<polygon fill="#666666" stroke="#666666" points="0.5,-86 0.5,-86 97.5,-86 97.5,-86 0.5,-86"/>
<polygon fill="#666666" stroke="#666666" points="0.5,-72 0.5,-72 11.5,-72 11.5,-72 0.5,-72"/>
<polygon fill="#666666" stroke="#666666" points="11.5,-72 11.5,-72 97.5,-72 97.5,-72 11.5,-72"/>
<polygon fill="none" stroke="#666666" points="0,0 0,-102 97,-102 97,0 0,0"/>
</a>
</g>
</g>
<!-- Node2 -->
<g id="Node000002" class="node">
<title>Node2</title>
<g id="a_Node000002"><a xlink:title=" ">
<polygon fill="white" stroke="transparent" points="88,-184 9,-184 9,-138 88,-138 88,-184"/>
<text text-anchor="start" x="14.44" y="-172" font-family="Helvetica,sans-Serif" font-size="10.00">std::vector&lt; T &gt;</text>
<text text-anchor="start" x="18.58" y="-158" font-family="Helvetica,sans-Serif" font-size="10.00">+</text>
<text text-anchor="start" x="33.5" y="-158" font-family="Helvetica,sans-Serif" font-size="10.00">elements</text>
<text text-anchor="start" x="47.61" y="-144" font-family="Helvetica,sans-Serif" font-size="10.00"> </text>
<polygon fill="#666666" stroke="#666666" points="9.5,-168 9.5,-168 88.5,-168 88.5,-168 9.5,-168"/>
<polygon fill="#666666" stroke="#666666" points="9.5,-154 9.5,-154 31.5,-154 31.5,-154 9.5,-154"/>
<polygon fill="#666666" stroke="#666666" points="31.5,-154 31.5,-154 88.5,-154 88.5,-154 31.5,-154"/>
<polygon fill="none" stroke="#666666" points="9,-138 9,-184 88,-184 88,-138 9,-138"/>
</a>
</g>
</g>
<!-- Node2&#45;&gt;Node1 -->
<g id="edge1_Node000001_Node000002" class="edge">
<title>Node2&#45;&gt;Node1</title>
<g id="a_edge1_Node000001_Node000002"><a xlink:title=" ">
<path fill="none" stroke="#63b8ff" d="M48.5,-127.8C48.5,-119.74 48.5,-110.89 48.5,-102.17"/>
<polygon fill="none" stroke="#63b8ff" points="45,-127.88 48.5,-137.88 52,-127.88 45,-127.88"/>
</a>
</g>
</g>
</g>
</svg>
