<?xml version="1.0" encoding="UTF-8" standalone="no"?>
<!DOCTYPE svg PUBLIC "-//W3C//DTD SVG 1.1//EN"
 "http://www.w3.org/Graphics/SVG/1.1/DTD/svg11.dtd">
<!-- Generated by graphviz version 2.48.0 (20210717.1556)
 -->
<!-- Title: cli::option_error Pages: 1 -->
<svg width="96pt" height="218pt"
 viewBox="0.00 0.00 96.00 218.00" xmlns="http://www.w3.org/2000/svg" xmlns:xlink="http://www.w3.org/1999/xlink">
<g id="graph0" class="graph" transform="scale(1 1) rotate(0) translate(4 214)">
<title>cli::option_error</title>
<!-- Node1 -->
<g id="Node000001" class="node">
<title>Node1</title>
<g id="a_Node000001"><a xlink:title=" ">
<polygon fill="#999999" stroke="transparent" points="83,-46 5,-46 5,0 83,0 83,-46"/>
<text text-anchor="start" x="9.54" y="-34" font-family="Helvetica,sans-Serif" font-size="10.00">cli::option_error</text>
<text text-anchor="start" x="42.61" y="-20" font-family="Helvetica,sans-Serif" font-size="10.00"> </text>
<text text-anchor="start" x="42.61" y="-6" font-family="Helvetica,sans-Serif" font-size="10.00"> </text>
<polygon fill="#666666" stroke="#666666" points="5,-30 5,-30 83,-30 83,-30 5,-30"/>
<polygon fill="#666666" stroke="#666666" points="5,-16 5,-16 83,-16 83,-16 5,-16"/>
<polygon fill="none" stroke="#666666" points="5,0 5,-46 83,-46 83,0 5,0"/>
</a>
</g>
</g>
<!-- Node2 -->
<g id="Node000002" class="node">
<title>Node2</title>
<g id="a_Node000002"><a xlink:title=" ">
<polygon fill="white" stroke="transparent" points="88,-128 0,-128 0,-82 88,-82 88,-128"/>
<text text-anchor="start" x="4.54" y="-116" font-family="Helvetica,sans-Serif" font-size="10.00">std::runtime_error</text>
<text text-anchor="start" x="42.61" y="-102" font-family="Helvetica,sans-Serif" font-size="10.00"> </text>
<text text-anchor="start" x="42.61" y="-88" font-family="Helvetica,sans-Serif" font-size="10.00"> </text>
<polygon fill="#666666" stroke="#666666" points="0,-112 0,-112 88,-112 88,-112 0,-112"/>
<polygon fill="#666666" stroke="#666666" points="0,-98 0,-98 88,-98 88,-98 0,-98"/>
<polygon fill="none" stroke="#666666" points="0,-82 0,-128 88,-128 88,-82 0,-82"/>
</a>
</g>
</g>
<!-- Node2&#45;&gt;Node1 -->
<g id="edge1_Node000001_Node000002" class="edge">
<title>Node2&#45;&gt;Node1</title>
<g id="a_edge1_Node000001_Node000002"><a xlink:title=" ">
<path fill="none" stroke="#63b8ff" d="M44,-71.63C44,-63.08 44,-54.04 44,-46.16"/>
<polygon fill="none" stroke="#63b8ff" points="40.5,-71.72 44,-81.72 47.5,-71.72 40.5,-71.72"/>
</a>
</g>
</g>
<!-- Node3 -->
<g id="Node000003" class="node">
<title>Node3</title>
<g id="a_Node000003"><a xlink:title=" ">
<polygon fill="white" stroke="transparent" points="79.5,-210 8.5,-210 8.5,-164 79.5,-164 79.5,-210"/>
<text text-anchor="start" x="13.65" y="-198" font-family="Helvetica,sans-Serif" font-size="10.00">std::exception</text>
<text text-anchor="start" x="43.11" y="-184" font-family="Helvetica,sans-Serif" font-size="10.00"> </text>
<text text-anchor="start" x="43.11" y="-170" font-family="Helvetica,sans-Serif" font-size="10.00"> </text>
<polygon fill="#666666" stroke="#666666" points="9,-194 9,-194 80,-194 80,-194 9,-194"/>
<polygon fill="#666666" stroke="#666666" points="9,-180 9,-180 80,-180 80,-180 9,-180"/>
<polygon fill="none" stroke="#666666" points="8.5,-164 8.5,-210 79.5,-210 79.5,-164 8.5,-164"/>
</a>
</g>
</g>
<!-- Node3&#45;&gt;Node2 -->
<g id="edge2_Node000002_Node000003" class="edge">
<title>Node3&#45;&gt;Node2</title>
<g id="a_edge2_Node000002_Node000003"><a xlink:title=" ">
<path fill="none" stroke="#63b8ff" d="M44,-153.63C44,-145.08 44,-136.04 44,-128.16"/>
<polygon fill="none" stroke="#63b8ff" points="40.5,-153.72 44,-163.72 47.5,-153.72 40.5,-153.72"/>
</a>
</g>
</g>
</g>
</svg>
