<?xml version="1.0" encoding="UTF-8" standalone="no"?>
<!DOCTYPE svg PUBLIC "-//W3C//DTD SVG 1.1//EN"
 "http://www.w3.org/Graphics/SVG/1.1/DTD/svg11.dtd">
<!-- Generated by graphviz version 2.48.0 (20210717.1556)
 -->
<!-- Title: image_ref Pages: 1 -->
<svg width="342pt" height="709pt"
 viewBox="0.00 0.00 342.00 709.00" xmlns="http://www.w3.org/2000/svg" xmlns:xlink="http://www.w3.org/1999/xlink">
<g id="graph0" class="graph" transform="scale(1 1) rotate(0) translate(4 705)">
<title>image_ref</title>
<!-- Node1 -->
<g id="Node000001" class="node">
<title>Node1</title>
<g id="a_Node000001"><a xlink:title=" ">
<polygon fill="#999999" stroke="transparent" points="170,-272 28,-272 28,0 170,0 170,-272"/>
<text text-anchor="start" x="76.77" y="-260" font-family="Helvetica,sans-Serif" font-size="10.00">image_ref</text>
<text text-anchor="start" x="31.58" y="-246" font-family="Helvetica,sans-Serif" font-size="10.00">+</text>
<text text-anchor="start" x="41" y="-246" font-family="Helvetica,sans-Serif" font-size="10.00">fs::path path</text>
<text text-anchor="start" x="31.58" y="-232" font-family="Helvetica,sans-Serif" font-size="10.00">+</text>
<text text-anchor="start" x="41" y="-232" font-family="Helvetica,sans-Serif" font-size="10.00">fs::path local</text>
<text text-anchor="start" x="31.58" y="-218" font-family="Helvetica,sans-Serif" font-size="10.00">+</text>
<text text-anchor="start" x="41" y="-218" font-family="Helvetica,sans-Serif" font-size="10.00">bool upscaled</text>
<text text-anchor="start" x="31.58" y="-204" font-family="Helvetica,sans-Serif" font-size="10.00">+</text>
<text text-anchor="start" x="41" y="-204" font-family="Helvetica,sans-Serif" font-size="10.00">image_ref(const fs</text>
<text text-anchor="start" x="41" y="-194" font-family="Helvetica,sans-Serif" font-size="10.00">::path &amp;path, const</text>
<text text-anchor="start" x="41" y="-184" font-family="Helvetica,sans-Serif" font-size="10.00"> fs::path &amp;local)</text>
<text text-anchor="start" x="31.58" y="-170" font-family="Helvetica,sans-Serif" font-size="10.00">+</text>
<text text-anchor="start" x="41" y="-170" font-family="Helvetica,sans-Serif" font-size="10.00">image_ref(const fs</text>
<text text-anchor="start" x="41" y="-160" font-family="Helvetica,sans-Serif" font-size="10.00">::path &amp;path, unsigned num)</text>
<text text-anchor="start" x="31.58" y="-146" font-family="Helvetica,sans-Serif" font-size="10.00">+</text>
<text text-anchor="start" x="41" y="-146" font-family="Helvetica,sans-Serif" font-size="10.00">auto width() const</text>
<text text-anchor="start" x="31.58" y="-132" font-family="Helvetica,sans-Serif" font-size="10.00">+</text>
<text text-anchor="start" x="41" y="-132" font-family="Helvetica,sans-Serif" font-size="10.00">auto height() const</text>
<text text-anchor="start" x="31.58" y="-118" font-family="Helvetica,sans-Serif" font-size="10.00">+</text>
<text text-anchor="start" x="41" y="-118" font-family="Helvetica,sans-Serif" font-size="10.00">epub::file_metadata</text>
<text text-anchor="start" x="41" y="-108" font-family="Helvetica,sans-Serif" font-size="10.00"> metadata() const</text>
<text text-anchor="start" x="31.58" y="-94" font-family="Helvetica,sans-Serif" font-size="10.00">+</text>
<text text-anchor="start" x="41" y="-94" font-family="Helvetica,sans-Serif" font-size="10.00">image_ref &amp; scale(std</text>
<text text-anchor="start" x="41" y="-84" font-family="Helvetica,sans-Serif" font-size="10.00">::size_t max_width, std</text>
<text text-anchor="start" x="41" y="-74" font-family="Helvetica,sans-Serif" font-size="10.00">::size_t max_height, bool</text>
<text text-anchor="start" x="41" y="-64" font-family="Helvetica,sans-Serif" font-size="10.00"> upscale)</text>
<text text-anchor="start" x="31.58" y="-50" font-family="Helvetica,sans-Serif" font-size="10.00">+</text>
<text text-anchor="start" x="41" y="-50" font-family="Helvetica,sans-Serif" font-size="10.00">auto style() const</text>
<text text-anchor="start" x="32.83" y="-36" font-family="Helvetica,sans-Serif" font-size="10.00">&#45;</text>
<text text-anchor="start" x="41" y="-36" font-family="Helvetica,sans-Serif" font-size="10.00">image_ref(const fs</text>
<text text-anchor="start" x="41" y="-26" font-family="Helvetica,sans-Serif" font-size="10.00">::path &amp;path, const</text>
<text text-anchor="start" x="41" y="-16" font-family="Helvetica,sans-Serif" font-size="10.00"> fs::path &amp;local, const</text>
<text text-anchor="start" x="41" y="-6" font-family="Helvetica,sans-Serif" font-size="10.00"> ImageInfo &amp;info)</text>
<polygon fill="#666666" stroke="#666666" points="28,-256 28,-256 170,-256 170,-256 28,-256"/>
<polygon fill="#666666" stroke="#666666" points="28,-214 28,-214 39,-214 39,-214 28,-214"/>
<polygon fill="#666666" stroke="#666666" points="39,-214 39,-214 170,-214 170,-214 39,-214"/>
<polygon fill="none" stroke="#666666" points="28,0 28,-272 170,-272 170,0 28,0"/>
</a>
</g>
</g>
<!-- Node2 -->
<g id="Node000002" class="node">
<title>Node2</title>
<g id="a_Node000002"><a xlink:title=" ">
<polygon fill="white" stroke="transparent" points="73.5,-467 20.5,-467 20.5,-421 73.5,-421 73.5,-467"/>
<text text-anchor="start" x="25.83" y="-455" font-family="Helvetica,sans-Serif" font-size="10.00">std::string</text>
<text text-anchor="start" x="46.11" y="-441" font-family="Helvetica,sans-Serif" font-size="10.00"> </text>
<text text-anchor="start" x="46.11" y="-427" font-family="Helvetica,sans-Serif" font-size="10.00"> </text>
<polygon fill="#666666" stroke="#666666" points="21,-451 21,-451 74,-451 74,-451 21,-451"/>
<polygon fill="#666666" stroke="#666666" points="21,-437 21,-437 74,-437 74,-437 21,-437"/>
<polygon fill="none" stroke="#666666" points="20.5,-421 20.5,-467 73.5,-467 73.5,-421 20.5,-421"/>
</a>
</g>
</g>
<!-- Node2&#45;&gt;Node1 -->
<g id="edge1_Node000001_Node000002" class="edge">
<title>Node2&#45;&gt;Node1</title>
<g id="a_edge1_Node000001_Node000002"><a xlink:title=" ">
<path fill="none" stroke="#63b8ff" d="M49.05,-420.86C51.96,-391.03 57.83,-336.3 65.68,-290 66.03,-287.97 66.38,-285.93 66.74,-283.88"/>
<polygon fill="none" stroke="#63b8ff" points="66.75,-283.83 63.88,-277.22 68.88,-272.02 71.75,-278.64 66.75,-283.83"/>
</a>
</g>
<text text-anchor="middle" x="96.16" y="-292" font-family="Helvetica,sans-Serif" font-size="10.00" fill="grey"> +media_type</text>
</g>
<!-- Node3 -->
<g id="Node000003" class="node">
<title>Node3</title>
<g id="a_Node000003"><a xlink:title=" ">
<polygon fill="white" stroke="transparent" points="88,-682 0,-682 0,-626 88,-626 88,-682"/>
<text text-anchor="start" x="4.95" y="-670" font-family="Helvetica,sans-Serif" font-size="10.00">std::basic_string&lt;</text>
<text text-anchor="start" x="27.46" y="-660" font-family="Helvetica,sans-Serif" font-size="10.00"> Char &gt;</text>
<text text-anchor="start" x="42.61" y="-646" font-family="Helvetica,sans-Serif" font-size="10.00"> </text>
<text text-anchor="start" x="42.61" y="-632" font-family="Helvetica,sans-Serif" font-size="10.00"> </text>
<polygon fill="#666666" stroke="#666666" points="0,-656 0,-656 88,-656 88,-656 0,-656"/>
<polygon fill="#666666" stroke="#666666" points="0,-642 0,-642 88,-642 88,-642 0,-642"/>
<polygon fill="none" stroke="#666666" points="0,-626 0,-682 88,-682 88,-626 0,-626"/>
</a>
</g>
</g>
<!-- Node3&#45;&gt;Node2 -->
<g id="edge2_Node000002_Node000003" class="edge">
<title>Node3&#45;&gt;Node2</title>
<g id="a_edge2_Node000002_Node000003"><a xlink:title=" ">
<path fill="none" stroke="#63b8ff" d="M44.54,-615.68C45.16,-572.43 46.17,-502.55 46.68,-467.12"/>
<polygon fill="none" stroke="#63b8ff" points="41.04,-615.76 44.39,-625.81 48.04,-615.86 41.04,-615.76"/>
</a>
</g>
</g>
<!-- Node4 -->
<g id="Node000004" class="node">
<title>Node4</title>
<g id="a_Node000004"><a xlink:href="structgeom_1_1rect.html" target="_top" xlink:title=" ">
<polygon fill="white" stroke="transparent" points="215,-570 95,-570 95,-318 215,-318 215,-570"/>
<text text-anchor="start" x="131.38" y="-558" font-family="Helvetica,sans-Serif" font-size="10.00">geom::rect</text>
<text text-anchor="start" x="153.61" y="-544" font-family="Helvetica,sans-Serif" font-size="10.00"> </text>
<text text-anchor="start" x="98.58" y="-530" font-family="Helvetica,sans-Serif" font-size="10.00">+</text>
<text text-anchor="start" x="108" y="-530" font-family="Helvetica,sans-Serif" font-size="10.00">rect(point p=point</text>
<text text-anchor="start" x="108" y="-520" font-family="Helvetica,sans-Serif" font-size="10.00">(), size sz=size())</text>
<text text-anchor="start" x="98.58" y="-506" font-family="Helvetica,sans-Serif" font-size="10.00">+</text>
<text text-anchor="start" x="108" y="-506" font-family="Helvetica,sans-Serif" font-size="10.00">rect(size sz)</text>
<text text-anchor="start" x="98.58" y="-492" font-family="Helvetica,sans-Serif" font-size="10.00">+</text>
<text text-anchor="start" x="108" y="-492" font-family="Helvetica,sans-Serif" font-size="10.00">rect(std::size_t x,</text>
<text text-anchor="start" x="108" y="-482" font-family="Helvetica,sans-Serif" font-size="10.00"> std::size_t y, std</text>
<text text-anchor="start" x="108" y="-472" font-family="Helvetica,sans-Serif" font-size="10.00">::size_t w, std::size_t h)</text>
<text text-anchor="start" x="98.58" y="-458" font-family="Helvetica,sans-Serif" font-size="10.00">+</text>
<text text-anchor="start" x="108" y="-458" font-family="Helvetica,sans-Serif" font-size="10.00">rect(const rect &amp;)</text>
<text text-anchor="start" x="108" y="-448" font-family="Helvetica,sans-Serif" font-size="10.00">=default</text>
<text text-anchor="start" x="98.58" y="-434" font-family="Helvetica,sans-Serif" font-size="10.00">+</text>
<text text-anchor="start" x="108" y="-434" font-family="Helvetica,sans-Serif" font-size="10.00">rect(rect &amp;&amp;)=delete</text>
<text text-anchor="start" x="98.58" y="-420" font-family="Helvetica,sans-Serif" font-size="10.00">+</text>
<text text-anchor="start" x="108" y="-420" font-family="Helvetica,sans-Serif" font-size="10.00">~rect()=default</text>
<text text-anchor="start" x="98.58" y="-406" font-family="Helvetica,sans-Serif" font-size="10.00">+</text>
<text text-anchor="start" x="108" y="-406" font-family="Helvetica,sans-Serif" font-size="10.00">rect &amp; operator=(const</text>
<text text-anchor="start" x="108" y="-396" font-family="Helvetica,sans-Serif" font-size="10.00"> rect &amp;)=default</text>
<text text-anchor="start" x="98.58" y="-382" font-family="Helvetica,sans-Serif" font-size="10.00">+</text>
<text text-anchor="start" x="108" y="-382" font-family="Helvetica,sans-Serif" font-size="10.00">rect &amp; operator=(rect</text>
<text text-anchor="start" x="108" y="-372" font-family="Helvetica,sans-Serif" font-size="10.00"> &amp;&amp;)=delete</text>
<text text-anchor="start" x="98.58" y="-358" font-family="Helvetica,sans-Serif" font-size="10.00">+</text>
<text text-anchor="start" x="108" y="-358" font-family="Helvetica,sans-Serif" font-size="10.00">rect &amp; operator=(const</text>
<text text-anchor="start" x="108" y="-348" font-family="Helvetica,sans-Serif" font-size="10.00"> point &amp;rhs)</text>
<text text-anchor="start" x="98.58" y="-334" font-family="Helvetica,sans-Serif" font-size="10.00">+</text>
<text text-anchor="start" x="108" y="-334" font-family="Helvetica,sans-Serif" font-size="10.00">rect &amp; operator=(const</text>
<text text-anchor="start" x="108" y="-324" font-family="Helvetica,sans-Serif" font-size="10.00"> size &amp;rhs)</text>
<polygon fill="#666666" stroke="#666666" points="95,-554 95,-554 215,-554 215,-554 95,-554"/>
<polygon fill="#666666" stroke="#666666" points="95,-540 95,-540 215,-540 215,-540 95,-540"/>
<polygon fill="none" stroke="#666666" points="95,-318 95,-570 215,-570 215,-318 95,-318"/>
</a>
</g>
</g>
<!-- Node4&#45;&gt;Node1 -->
<g id="edge3_Node000001_Node000004" class="edge">
<title>Node4&#45;&gt;Node1</title>
<g id="a_edge3_Node000001_Node000004"><a xlink:title=" ">
<path fill="none" stroke="#63b8ff" d="M132.06,-317.66C130.04,-306.63 127.99,-295.4 125.94,-284.21"/>
<polygon fill="none" stroke="#63b8ff" points="125.88,-283.9 120.87,-278.72 123.72,-272.1 128.74,-277.28 125.88,-283.9"/>
</a>
</g>
<text text-anchor="middle" x="146.09" y="-292" font-family="Helvetica,sans-Serif" font-size="10.00" fill="grey"> +frame</text>
</g>
<!-- Node5 -->
<g id="Node000005" class="node">
<title>Node5</title>
<g id="a_Node000005"><a xlink:href="structgeom_1_1point.html" target="_top" xlink:title=" ">
<polygon fill="white" stroke="transparent" points="203.5,-701 106.5,-701 106.5,-607 203.5,-607 203.5,-701"/>
<text text-anchor="start" x="129.37" y="-689" font-family="Helvetica,sans-Serif" font-size="10.00">geom::point</text>
<text text-anchor="start" x="110.58" y="-675" font-family="Helvetica,sans-Serif" font-size="10.00">+</text>
<text text-anchor="start" x="120" y="-675" font-family="Helvetica,sans-Serif" font-size="10.00">std::size_t x</text>
<text text-anchor="start" x="110.58" y="-661" font-family="Helvetica,sans-Serif" font-size="10.00">+</text>
<text text-anchor="start" x="120" y="-661" font-family="Helvetica,sans-Serif" font-size="10.00">std::size_t y</text>
<text text-anchor="start" x="110.58" y="-647" font-family="Helvetica,sans-Serif" font-size="10.00">+</text>
<text text-anchor="start" x="120" y="-647" font-family="Helvetica,sans-Serif" font-size="10.00">point()</text>
<text text-anchor="start" x="110.58" y="-633" font-family="Helvetica,sans-Serif" font-size="10.00">+</text>
<text text-anchor="start" x="120" y="-633" font-family="Helvetica,sans-Serif" font-size="10.00">point(std::size_t</text>
<text text-anchor="start" x="120" y="-623" font-family="Helvetica,sans-Serif" font-size="10.00"> x_pos, std::size_t</text>
<text text-anchor="start" x="120" y="-613" font-family="Helvetica,sans-Serif" font-size="10.00"> y_pos)</text>
<polygon fill="#666666" stroke="#666666" points="107,-685 107,-685 204,-685 204,-685 107,-685"/>
<polygon fill="#666666" stroke="#666666" points="107,-657 107,-657 118,-657 118,-657 107,-657"/>
<polygon fill="#666666" stroke="#666666" points="118,-657 118,-657 204,-657 204,-657 118,-657"/>
<polygon fill="none" stroke="#666666" points="106.5,-607 106.5,-701 203.5,-701 203.5,-607 106.5,-607"/>
</a>
</g>
</g>
<!-- Node5&#45;&gt;Node4 -->
<g id="edge4_Node000004_Node000005" class="edge">
<title>Node5&#45;&gt;Node4</title>
<g id="a_edge4_Node000004_Node000005"><a xlink:title=" ">
<path fill="none" stroke="#63b8ff" d="M155,-596.6C155,-588.29 155,-579.46 155,-570.4"/>
<polygon fill="none" stroke="#63b8ff" points="151.5,-596.84 155,-606.84 158.5,-596.84 151.5,-596.84"/>
</a>
</g>
</g>
<!-- Node6 -->
<g id="Node000006" class="node">
<title>Node6</title>
<g id="a_Node000006"><a xlink:href="structgeom_1_1size.html" target="_top" xlink:title=" ">
<polygon fill="white" stroke="transparent" points="334,-696 222,-696 222,-612 334,-612 334,-696"/>
<text text-anchor="start" x="253.82" y="-684" font-family="Helvetica,sans-Serif" font-size="10.00">geom::size</text>
<text text-anchor="start" x="225.58" y="-670" font-family="Helvetica,sans-Serif" font-size="10.00">+</text>
<text text-anchor="start" x="235" y="-670" font-family="Helvetica,sans-Serif" font-size="10.00">std::size_t w</text>
<text text-anchor="start" x="225.58" y="-656" font-family="Helvetica,sans-Serif" font-size="10.00">+</text>
<text text-anchor="start" x="235" y="-656" font-family="Helvetica,sans-Serif" font-size="10.00">std::size_t h</text>
<text text-anchor="start" x="225.58" y="-642" font-family="Helvetica,sans-Serif" font-size="10.00">+</text>
<text text-anchor="start" x="235" y="-642" font-family="Helvetica,sans-Serif" font-size="10.00">size()</text>
<text text-anchor="start" x="225.58" y="-628" font-family="Helvetica,sans-Serif" font-size="10.00">+</text>
<text text-anchor="start" x="235" y="-628" font-family="Helvetica,sans-Serif" font-size="10.00">size(std::size_t width,</text>
<text text-anchor="start" x="235" y="-618" font-family="Helvetica,sans-Serif" font-size="10.00"> std::size_t height)</text>
<polygon fill="#666666" stroke="#666666" points="222,-680 222,-680 334,-680 334,-680 222,-680"/>
<polygon fill="#666666" stroke="#666666" points="222,-652 222,-652 233,-652 233,-652 222,-652"/>
<polygon fill="#666666" stroke="#666666" points="233,-652 233,-652 334,-652 334,-652 233,-652"/>
<polygon fill="none" stroke="#666666" points="222,-612 222,-696 334,-696 334,-612 222,-612"/>
</a>
</g>
</g>
<!-- Node6&#45;&gt;Node4 -->
<g id="edge5_Node000004_Node000006" class="edge">
<title>Node6&#45;&gt;Node4</title>
<g id="a_edge5_Node000004_Node000006"><a xlink:title=" ">
<path fill="none" stroke="#63b8ff" d="M248.58,-603.25C238.49,-586.19 226.8,-566.43 215.18,-546.77"/>
<polygon fill="none" stroke="#63b8ff" points="245.6,-605.08 253.7,-611.91 251.62,-601.52 245.6,-605.08"/>
</a>
</g>
</g>
</g>
</svg>
