<?xml version="1.0" encoding="UTF-8" standalone="no"?>
<!DOCTYPE svg PUBLIC "-//W3C//DTD SVG 1.1//EN"
 "http://www.w3.org/Graphics/SVG/1.1/DTD/svg11.dtd">
<!-- Generated by graphviz version 2.48.0 (20210717.1556)
 -->
<!-- Title: cli::option_error Pages: 1 -->
<svg width="711pt" height="368pt"
 viewBox="0.00 0.00 711.00 368.00" xmlns="http://www.w3.org/2000/svg" xmlns:xlink="http://www.w3.org/1999/xlink">
<g id="graph0" class="graph" transform="scale(1 1) rotate(0) translate(4 364)">
<title>cli::option_error</title>
<!-- Node1 -->
<g id="Node000001" class="node">
<title>Node1</title>
<g id="a_Node000001"><a xlink:title=" ">
<polygon fill="#999999" stroke="transparent" points="442,-196 364,-196 364,-150 442,-150 442,-196"/>
<text text-anchor="start" x="368.54" y="-184" font-family="Helvetica,sans-Serif" font-size="10.00">cli::option_error</text>
<text text-anchor="start" x="401.61" y="-170" font-family="Helvetica,sans-Serif" font-size="10.00"> </text>
<text text-anchor="start" x="401.61" y="-156" font-family="Helvetica,sans-Serif" font-size="10.00"> </text>
<polygon fill="#666666" stroke="#666666" points="364,-180 364,-180 442,-180 442,-180 364,-180"/>
<polygon fill="#666666" stroke="#666666" points="364,-166 364,-166 442,-166 442,-166 364,-166"/>
<polygon fill="none" stroke="#666666" points="364,-150 364,-196 442,-196 442,-150 364,-150"/>
</a>
</g>
</g>
<!-- Node4 -->
<g id="Node000004" class="node">
<title>Node4</title>
<g id="a_Node000004"><a xlink:href="classcli_1_1ambiguous__option.html" target="_top" xlink:title=" ">
<polygon fill="white" stroke="transparent" points="134,-114 0,-114 0,0 134,0 134,-114"/>
<text text-anchor="start" x="18.64" y="-102" font-family="Helvetica,sans-Serif" font-size="10.00">cli::ambiguous_option</text>
<text text-anchor="start" x="65.61" y="-88" font-family="Helvetica,sans-Serif" font-size="10.00"> </text>
<text text-anchor="start" x="3.58" y="-74" font-family="Helvetica,sans-Serif" font-size="10.00">+</text>
<text text-anchor="start" x="13" y="-74" font-family="Helvetica,sans-Serif" font-size="10.00">ambiguous_option(String</text>
<text text-anchor="start" x="13" y="-64" font-family="Helvetica,sans-Serif" font-size="10.00">Like &amp;&amp;s, Range &amp;&amp;r)</text>
<text text-anchor="start" x="3.58" y="-50" font-family="Helvetica,sans-Serif" font-size="10.00">+</text>
<text text-anchor="start" x="13" y="-50" font-family="Helvetica,sans-Serif" font-size="10.00">ambiguous_option(String</text>
<text text-anchor="start" x="13" y="-40" font-family="Helvetica,sans-Serif" font-size="10.00">Like &amp;&amp;s, Iterator begin,</text>
<text text-anchor="start" x="13" y="-30" font-family="Helvetica,sans-Serif" font-size="10.00"> Sentinel end)</text>
<text text-anchor="start" x="4.83" y="-16" font-family="Helvetica,sans-Serif" font-size="10.00">&#45;</text>
<text text-anchor="start" x="13" y="-16" font-family="Helvetica,sans-Serif" font-size="10.00">std::string as_enumeration</text>
<text text-anchor="start" x="13" y="-6" font-family="Helvetica,sans-Serif" font-size="10.00">(Range &amp;&amp;r)</text>
<polygon fill="#666666" stroke="#666666" points="0,-98 0,-98 134,-98 134,-98 0,-98"/>
<polygon fill="#666666" stroke="#666666" points="0,-84 0,-84 134,-84 134,-84 0,-84"/>
<polygon fill="none" stroke="#666666" points="0,0 0,-114 134,-114 134,0 0,0"/>
</a>
</g>
</g>
<!-- Node1&#45;&gt;Node4 -->
<g id="edge3_Node000001_Node000004" class="edge">
<title>Node1&#45;&gt;Node4</title>
<g id="a_edge3_Node000001_Node000004"><a xlink:title=" ">
<path fill="none" stroke="#63b8ff" d="M354,-167.2C300.25,-160.55 212.4,-145.6 143,-114 140.02,-112.64 137.04,-111.15 134.07,-109.57"/>
<polygon fill="none" stroke="#63b8ff" points="353.61,-170.67 363.95,-168.38 354.44,-163.72 353.61,-170.67"/>
</a>
</g>
</g>
<!-- Node5 -->
<g id="Node000005" class="node">
<title>Node5</title>
<g id="a_Node000005"><a xlink:href="structcli_1_1argument__needed.html" target="_top" xlink:title=" ">
<polygon fill="white" stroke="transparent" points="322,-80 152,-80 152,-34 322,-34 322,-80"/>
<text text-anchor="start" x="188.91" y="-68" font-family="Helvetica,sans-Serif" font-size="10.00">cli::argument_needed</text>
<text text-anchor="start" x="235.61" y="-54" font-family="Helvetica,sans-Serif" font-size="10.00"> </text>
<text text-anchor="start" x="155.58" y="-40" font-family="Helvetica,sans-Serif" font-size="10.00">+</text>
<text text-anchor="start" x="165" y="-40" font-family="Helvetica,sans-Serif" font-size="10.00">argument_needed(StringLike &amp;&amp;s)</text>
<polygon fill="#666666" stroke="#666666" points="152,-64 152,-64 322,-64 322,-64 152,-64"/>
<polygon fill="#666666" stroke="#666666" points="152,-50 152,-50 322,-50 322,-50 152,-50"/>
<polygon fill="none" stroke="#666666" points="152,-34 152,-80 322,-80 322,-34 152,-34"/>
</a>
</g>
</g>
<!-- Node1&#45;&gt;Node5 -->
<g id="edge4_Node000001_Node000005" class="edge">
<title>Node1&#45;&gt;Node5</title>
<g id="a_edge4_Node000001_Node000005"><a xlink:title=" ">
<path fill="none" stroke="#63b8ff" d="M362.01,-143.85C333.32,-124.14 295.53,-98.19 269.04,-80"/>
<polygon fill="none" stroke="#63b8ff" points="360.37,-146.97 370.6,-149.75 364.34,-141.2 360.37,-146.97"/>
</a>
</g>
</g>
<!-- Node6 -->
<g id="Node000006" class="node">
<title>Node6</title>
<g id="a_Node000006"><a xlink:href="structcli_1_1argument__not__needed.html" target="_top" xlink:title=" ">
<polygon fill="white" stroke="transparent" points="465.5,-85 340.5,-85 340.5,-29 465.5,-29 465.5,-85"/>
<text text-anchor="start" x="345.68" y="-73" font-family="Helvetica,sans-Serif" font-size="10.00">cli::argument_not_needed</text>
<text text-anchor="start" x="402.11" y="-59" font-family="Helvetica,sans-Serif" font-size="10.00"> </text>
<text text-anchor="start" x="346.58" y="-45" font-family="Helvetica,sans-Serif" font-size="10.00">+</text>
<text text-anchor="start" x="358" y="-45" font-family="Helvetica,sans-Serif" font-size="10.00">argument_not_needed</text>
<text text-anchor="start" x="358" y="-35" font-family="Helvetica,sans-Serif" font-size="10.00">(StringLike &amp;&amp;s)</text>
<polygon fill="#666666" stroke="#666666" points="341,-69 341,-69 466,-69 466,-69 341,-69"/>
<polygon fill="#666666" stroke="#666666" points="341,-55 341,-55 466,-55 466,-55 341,-55"/>
<polygon fill="none" stroke="#666666" points="340.5,-29 340.5,-85 465.5,-85 465.5,-29 340.5,-29"/>
</a>
</g>
</g>
<!-- Node1&#45;&gt;Node6 -->
<g id="edge5_Node000001_Node000006" class="edge">
<title>Node1&#45;&gt;Node6</title>
<g id="a_edge5_Node000001_Node000006"><a xlink:title=" ">
<path fill="none" stroke="#63b8ff" d="M403,-139.57C403,-122.32 403,-101.37 403,-85.02"/>
<polygon fill="none" stroke="#63b8ff" points="399.5,-139.75 403,-149.75 406.5,-139.75 399.5,-139.75"/>
</a>
</g>
</g>
<!-- Node7 -->
<g id="Node000007" class="node">
<title>Node7</title>
<g id="a_Node000007"><a xlink:href="structcli_1_1option__not__found.html" target="_top" xlink:title=" ">
<polygon fill="white" stroke="transparent" points="606.5,-85 483.5,-85 483.5,-29 606.5,-29 606.5,-85"/>
<text text-anchor="start" x="499.35" y="-73" font-family="Helvetica,sans-Serif" font-size="10.00">cli::option_not_found</text>
<text text-anchor="start" x="544.11" y="-59" font-family="Helvetica,sans-Serif" font-size="10.00"> </text>
<text text-anchor="start" x="487.58" y="-45" font-family="Helvetica,sans-Serif" font-size="10.00">+</text>
<text text-anchor="start" x="497" y="-45" font-family="Helvetica,sans-Serif" font-size="10.00">option_not_found(String</text>
<text text-anchor="start" x="497" y="-35" font-family="Helvetica,sans-Serif" font-size="10.00">Like &amp;&amp;s)</text>
<polygon fill="#666666" stroke="#666666" points="484,-69 484,-69 607,-69 607,-69 484,-69"/>
<polygon fill="#666666" stroke="#666666" points="484,-55 484,-55 607,-55 607,-55 484,-55"/>
<polygon fill="none" stroke="#666666" points="483.5,-29 483.5,-85 606.5,-85 606.5,-29 483.5,-29"/>
</a>
</g>
</g>
<!-- Node1&#45;&gt;Node7 -->
<g id="edge6_Node000001_Node000007" class="edge">
<title>Node1&#45;&gt;Node7</title>
<g id="a_edge6_Node000001_Node000007"><a xlink:title=" ">
<path fill="none" stroke="#63b8ff" d="M438.62,-143.4C460.91,-125.51 489.44,-102.6 511.35,-85.02"/>
<polygon fill="none" stroke="#63b8ff" points="436.32,-140.76 430.72,-149.75 440.71,-146.22 436.32,-140.76"/>
</a>
</g>
</g>
<!-- Node8 -->
<g id="Node000008" class="node">
<title>Node8</title>
<g id="a_Node000008"><a xlink:href="structcli_1_1usage__error.html" target="_top" xlink:title=" ">
<polygon fill="white" stroke="transparent" points="703,-80 625,-80 625,-34 703,-34 703,-80"/>
<text text-anchor="start" x="629.54" y="-68" font-family="Helvetica,sans-Serif" font-size="10.00">cli::usage_error</text>
<text text-anchor="start" x="662.61" y="-54" font-family="Helvetica,sans-Serif" font-size="10.00"> </text>
<text text-anchor="start" x="662.61" y="-40" font-family="Helvetica,sans-Serif" font-size="10.00"> </text>
<polygon fill="#666666" stroke="#666666" points="625,-64 625,-64 703,-64 703,-64 625,-64"/>
<polygon fill="#666666" stroke="#666666" points="625,-50 625,-50 703,-50 703,-50 625,-50"/>
<polygon fill="none" stroke="#666666" points="625,-34 625,-80 703,-80 703,-34 625,-34"/>
</a>
</g>
</g>
<!-- Node1&#45;&gt;Node8 -->
<g id="edge7_Node000001_Node000008" class="edge">
<title>Node1&#45;&gt;Node8</title>
<g id="a_edge7_Node000001_Node000008"><a xlink:title=" ">
<path fill="none" stroke="#63b8ff" d="M452.51,-166.92C497.96,-160.39 565.67,-145.84 616,-114 629.53,-105.44 641.29,-91.89 649.78,-80.26"/>
<polygon fill="none" stroke="#63b8ff" points="451.75,-163.49 442.32,-168.3 452.7,-170.43 451.75,-163.49"/>
</a>
</g>
</g>
<!-- Node2 -->
<g id="Node000002" class="node">
<title>Node2</title>
<g id="a_Node000002"><a xlink:title=" ">
<polygon fill="white" stroke="transparent" points="447,-278 359,-278 359,-232 447,-232 447,-278"/>
<text text-anchor="start" x="363.54" y="-266" font-family="Helvetica,sans-Serif" font-size="10.00">std::runtime_error</text>
<text text-anchor="start" x="401.61" y="-252" font-family="Helvetica,sans-Serif" font-size="10.00"> </text>
<text text-anchor="start" x="401.61" y="-238" font-family="Helvetica,sans-Serif" font-size="10.00"> </text>
<polygon fill="#666666" stroke="#666666" points="359,-262 359,-262 447,-262 447,-262 359,-262"/>
<polygon fill="#666666" stroke="#666666" points="359,-248 359,-248 447,-248 447,-248 359,-248"/>
<polygon fill="none" stroke="#666666" points="359,-232 359,-278 447,-278 447,-232 359,-232"/>
</a>
</g>
</g>
<!-- Node2&#45;&gt;Node1 -->
<g id="edge1_Node000001_Node000002" class="edge">
<title>Node2&#45;&gt;Node1</title>
<g id="a_edge1_Node000001_Node000002"><a xlink:title=" ">
<path fill="none" stroke="#63b8ff" d="M403,-221.63C403,-213.08 403,-204.04 403,-196.16"/>
<polygon fill="none" stroke="#63b8ff" points="399.5,-221.72 403,-231.72 406.5,-221.72 399.5,-221.72"/>
</a>
</g>
</g>
<!-- Node3 -->
<g id="Node000003" class="node">
<title>Node3</title>
<g id="a_Node000003"><a xlink:title=" ">
<polygon fill="white" stroke="transparent" points="438.5,-360 367.5,-360 367.5,-314 438.5,-314 438.5,-360"/>
<text text-anchor="start" x="372.65" y="-348" font-family="Helvetica,sans-Serif" font-size="10.00">std::exception</text>
<text text-anchor="start" x="402.11" y="-334" font-family="Helvetica,sans-Serif" font-size="10.00"> </text>
<text text-anchor="start" x="402.11" y="-320" font-family="Helvetica,sans-Serif" font-size="10.00"> </text>
<polygon fill="#666666" stroke="#666666" points="368,-344 368,-344 439,-344 439,-344 368,-344"/>
<polygon fill="#666666" stroke="#666666" points="368,-330 368,-330 439,-330 439,-330 368,-330"/>
<polygon fill="none" stroke="#666666" points="367.5,-314 367.5,-360 438.5,-360 438.5,-314 367.5,-314"/>
</a>
</g>
</g>
<!-- Node3&#45;&gt;Node2 -->
<g id="edge2_Node000002_Node000003" class="edge">
<title>Node3&#45;&gt;Node2</title>
<g id="a_edge2_Node000002_Node000003"><a xlink:title=" ">
<path fill="none" stroke="#63b8ff" d="M403,-303.63C403,-295.08 403,-286.04 403,-278.16"/>
<polygon fill="none" stroke="#63b8ff" points="399.5,-303.72 403,-313.72 406.5,-303.72 399.5,-303.72"/>
</a>
</g>
</g>
</g>
</svg>
