<?xml version="1.0" encoding="UTF-8" standalone="no"?>
<!DOCTYPE svg PUBLIC "-//W3C//DTD SVG 1.1//EN"
 "http://www.w3.org/Graphics/SVG/1.1/DTD/svg11.dtd">
<!-- Generated by graphviz version 2.48.0 (20210717.1556)
 -->
<!-- Title: cli::argument_needed Pages: 1 -->
<svg width="178pt" height="300pt"
 viewBox="0.00 0.00 178.00 300.00" xmlns="http://www.w3.org/2000/svg" xmlns:xlink="http://www.w3.org/1999/xlink">
<g id="graph0" class="graph" transform="scale(1 1) rotate(0) translate(4 296)">
<title>cli::argument_needed</title>
<!-- Node1 -->
<g id="Node000001" class="node">
<title>Node1</title>
<g id="a_Node000001"><a xlink:title=" ">
<polygon fill="#999999" stroke="transparent" points="170,-46 0,-46 0,0 170,0 170,-46"/>
<text text-anchor="start" x="36.91" y="-34" font-family="Helvetica,sans-Serif" font-size="10.00">cli::argument_needed</text>
<text text-anchor="start" x="83.61" y="-20" font-family="Helvetica,sans-Serif" font-size="10.00"> </text>
<text text-anchor="start" x="3.58" y="-6" font-family="Helvetica,sans-Serif" font-size="10.00">+</text>
<text text-anchor="start" x="13" y="-6" font-family="Helvetica,sans-Serif" font-size="10.00">argument_needed(StringLike &amp;&amp;s)</text>
<polygon fill="#666666" stroke="#666666" points="0,-30 0,-30 170,-30 170,-30 0,-30"/>
<polygon fill="#666666" stroke="#666666" points="0,-16 0,-16 170,-16 170,-16 0,-16"/>
<polygon fill="none" stroke="#666666" points="0,0 0,-46 170,-46 170,0 0,0"/>
</a>
</g>
</g>
<!-- Node2 -->
<g id="Node000002" class="node">
<title>Node2</title>
<g id="a_Node000002"><a xlink:href="structcli_1_1option__error.html" target="_top" xlink:title=" ">
<polygon fill="white" stroke="transparent" points="124,-128 46,-128 46,-82 124,-82 124,-128"/>
<text text-anchor="start" x="50.54" y="-116" font-family="Helvetica,sans-Serif" font-size="10.00">cli::option_error</text>
<text text-anchor="start" x="83.61" y="-102" font-family="Helvetica,sans-Serif" font-size="10.00"> </text>
<text text-anchor="start" x="83.61" y="-88" font-family="Helvetica,sans-Serif" font-size="10.00"> </text>
<polygon fill="#666666" stroke="#666666" points="46,-112 46,-112 124,-112 124,-112 46,-112"/>
<polygon fill="#666666" stroke="#666666" points="46,-98 46,-98 124,-98 124,-98 46,-98"/>
<polygon fill="none" stroke="#666666" points="46,-82 46,-128 124,-128 124,-82 46,-82"/>
</a>
</g>
</g>
<!-- Node2&#45;&gt;Node1 -->
<g id="edge1_Node000001_Node000002" class="edge">
<title>Node2&#45;&gt;Node1</title>
<g id="a_edge1_Node000001_Node000002"><a xlink:title=" ">
<path fill="none" stroke="#63b8ff" d="M85,-71.63C85,-63.08 85,-54.04 85,-46.16"/>
<polygon fill="none" stroke="#63b8ff" points="81.5,-71.72 85,-81.72 88.5,-71.72 81.5,-71.72"/>
</a>
</g>
</g>
<!-- Node3 -->
<g id="Node000003" class="node">
<title>Node3</title>
<g id="a_Node000003"><a xlink:title=" ">
<polygon fill="white" stroke="transparent" points="129,-210 41,-210 41,-164 129,-164 129,-210"/>
<text text-anchor="start" x="45.54" y="-198" font-family="Helvetica,sans-Serif" font-size="10.00">std::runtime_error</text>
<text text-anchor="start" x="83.61" y="-184" font-family="Helvetica,sans-Serif" font-size="10.00"> </text>
<text text-anchor="start" x="83.61" y="-170" font-family="Helvetica,sans-Serif" font-size="10.00"> </text>
<polygon fill="#666666" stroke="#666666" points="41,-194 41,-194 129,-194 129,-194 41,-194"/>
<polygon fill="#666666" stroke="#666666" points="41,-180 41,-180 129,-180 129,-180 41,-180"/>
<polygon fill="none" stroke="#666666" points="41,-164 41,-210 129,-210 129,-164 41,-164"/>
</a>
</g>
</g>
<!-- Node3&#45;&gt;Node2 -->
<g id="edge2_Node000002_Node000003" class="edge">
<title>Node3&#45;&gt;Node2</title>
<g id="a_edge2_Node000002_Node000003"><a xlink:title=" ">
<path fill="none" stroke="#63b8ff" d="M85,-153.63C85,-145.08 85,-136.04 85,-128.16"/>
<polygon fill="none" stroke="#63b8ff" points="81.5,-153.72 85,-163.72 88.5,-153.72 81.5,-153.72"/>
</a>
</g>
</g>
<!-- Node4 -->
<g id="Node000004" class="node">
<title>Node4</title>
<g id="a_Node000004"><a xlink:title=" ">
<polygon fill="white" stroke="transparent" points="120.5,-292 49.5,-292 49.5,-246 120.5,-246 120.5,-292"/>
<text text-anchor="start" x="54.65" y="-280" font-family="Helvetica,sans-Serif" font-size="10.00">std::exception</text>
<text text-anchor="start" x="84.11" y="-266" font-family="Helvetica,sans-Serif" font-size="10.00"> </text>
<text text-anchor="start" x="84.11" y="-252" font-family="Helvetica,sans-Serif" font-size="10.00"> </text>
<polygon fill="#666666" stroke="#666666" points="50,-276 50,-276 121,-276 121,-276 50,-276"/>
<polygon fill="#666666" stroke="#666666" points="50,-262 50,-262 121,-262 121,-262 50,-262"/>
<polygon fill="none" stroke="#666666" points="49.5,-246 49.5,-292 120.5,-292 120.5,-246 49.5,-246"/>
</a>
</g>
</g>
<!-- Node4&#45;&gt;Node3 -->
<g id="edge3_Node000003_Node000004" class="edge">
<title>Node4&#45;&gt;Node3</title>
<g id="a_edge3_Node000003_Node000004"><a xlink:title=" ">
<path fill="none" stroke="#63b8ff" d="M85,-235.63C85,-227.08 85,-218.04 85,-210.16"/>
<polygon fill="none" stroke="#63b8ff" points="81.5,-235.72 85,-245.72 88.5,-235.72 81.5,-235.72"/>
</a>
</g>
</g>
</g>
</svg>
