<?xml version="1.0" encoding="UTF-8" standalone="no"?>
<!DOCTYPE svg PUBLIC "-//W3C//DTD SVG 1.1//EN"
 "http://www.w3.org/Graphics/SVG/1.1/DTD/svg11.dtd">
<!-- Generated by graphviz version 2.48.0 (20210717.1556)
 -->
<!-- Title: image_ref Pages: 1 -->
<svg width="252pt" height="495pt"
 viewBox="0.00 0.00 252.00 495.00" xmlns="http://www.w3.org/2000/svg" xmlns:xlink="http://www.w3.org/1999/xlink">
<g id="graph0" class="graph" transform="scale(1 1) rotate(0) translate(4 491)">
<title>image_ref</title>
<!-- Node1 -->
<g id="Node000001" class="node">
<title>Node1</title>
<g id="a_Node000001"><a xlink:title=" ">
<polygon fill="#999999" stroke="transparent" points="126,-158 58,-158 58,0 126,0 126,-158"/>
<text text-anchor="start" x="69.77" y="-146" font-family="Helvetica,sans-Serif" font-size="10.00">image_ref</text>
<text text-anchor="start" x="61.58" y="-132" font-family="Helvetica,sans-Serif" font-size="10.00">+</text>
<text text-anchor="start" x="71" y="-132" font-family="Helvetica,sans-Serif" font-size="10.00">path</text>
<text text-anchor="start" x="61.58" y="-118" font-family="Helvetica,sans-Serif" font-size="10.00">+</text>
<text text-anchor="start" x="71" y="-118" font-family="Helvetica,sans-Serif" font-size="10.00">local</text>
<text text-anchor="start" x="61.58" y="-104" font-family="Helvetica,sans-Serif" font-size="10.00">+</text>
<text text-anchor="start" x="71" y="-104" font-family="Helvetica,sans-Serif" font-size="10.00">upscaled</text>
<text text-anchor="start" x="61.58" y="-90" font-family="Helvetica,sans-Serif" font-size="10.00">+</text>
<text text-anchor="start" x="71" y="-90" font-family="Helvetica,sans-Serif" font-size="10.00">image_ref()</text>
<text text-anchor="start" x="61.58" y="-76" font-family="Helvetica,sans-Serif" font-size="10.00">+</text>
<text text-anchor="start" x="71" y="-76" font-family="Helvetica,sans-Serif" font-size="10.00">image_ref()</text>
<text text-anchor="start" x="61.58" y="-62" font-family="Helvetica,sans-Serif" font-size="10.00">+</text>
<text text-anchor="start" x="71" y="-62" font-family="Helvetica,sans-Serif" font-size="10.00">width()</text>
<text text-anchor="start" x="61.58" y="-48" font-family="Helvetica,sans-Serif" font-size="10.00">+</text>
<text text-anchor="start" x="71" y="-48" font-family="Helvetica,sans-Serif" font-size="10.00">height()</text>
<text text-anchor="start" x="61.58" y="-34" font-family="Helvetica,sans-Serif" font-size="10.00">+</text>
<text text-anchor="start" x="71" y="-34" font-family="Helvetica,sans-Serif" font-size="10.00">metadata()</text>
<text text-anchor="start" x="61.58" y="-20" font-family="Helvetica,sans-Serif" font-size="10.00">+</text>
<text text-anchor="start" x="71" y="-20" font-family="Helvetica,sans-Serif" font-size="10.00">scale()</text>
<text text-anchor="start" x="61.58" y="-6" font-family="Helvetica,sans-Serif" font-size="10.00">+</text>
<text text-anchor="start" x="71" y="-6" font-family="Helvetica,sans-Serif" font-size="10.00">style()</text>
<polygon fill="#666666" stroke="#666666" points="58,-142 58,-142 126,-142 126,-142 58,-142"/>
<polygon fill="#666666" stroke="#666666" points="58,-100 58,-100 69,-100 69,-100 58,-100"/>
<polygon fill="#666666" stroke="#666666" points="69,-100 69,-100 126,-100 126,-100 69,-100"/>
<polygon fill="none" stroke="#666666" points="58,0 58,-158 126,-158 126,0 58,0"/>
</a>
</g>
</g>
<!-- Node2 -->
<g id="Node000002" class="node">
<title>Node2</title>
<g id="a_Node000002"><a xlink:title=" ">
<polygon fill="white" stroke="transparent" points="75.5,-313 22.5,-313 22.5,-267 75.5,-267 75.5,-313"/>
<text text-anchor="start" x="27.83" y="-301" font-family="Helvetica,sans-Serif" font-size="10.00">std::string</text>
<text text-anchor="start" x="48.11" y="-287" font-family="Helvetica,sans-Serif" font-size="10.00"> </text>
<text text-anchor="start" x="48.11" y="-273" font-family="Helvetica,sans-Serif" font-size="10.00"> </text>
<polygon fill="#666666" stroke="#666666" points="23,-297 23,-297 76,-297 76,-297 23,-297"/>
<polygon fill="#666666" stroke="#666666" points="23,-283 23,-283 76,-283 76,-283 23,-283"/>
<polygon fill="none" stroke="#666666" points="22.5,-267 22.5,-313 75.5,-313 75.5,-267 22.5,-267"/>
</a>
</g>
</g>
<!-- Node2&#45;&gt;Node1 -->
<g id="edge1_Node000001_Node000002" class="edge">
<title>Node2&#45;&gt;Node1</title>
<g id="a_edge1_Node000001_Node000002"><a xlink:title=" ">
<path fill="none" stroke="#63b8ff" d="M47.73,-266.64C46.93,-243.64 47.07,-206.91 53.68,-176 54.11,-173.98 54.59,-171.95 55.09,-169.91"/>
<polygon fill="none" stroke="#63b8ff" points="55.13,-169.74 52.88,-162.9 58.33,-158.18 60.59,-165.02 55.13,-169.74"/>
</a>
</g>
<text text-anchor="middle" x="84.16" y="-178" font-family="Helvetica,sans-Serif" font-size="10.00" fill="grey"> +media_type</text>
</g>
<!-- Node3 -->
<g id="Node000003" class="node">
<title>Node3</title>
<g id="a_Node000003"><a xlink:title=" ">
<polygon fill="white" stroke="transparent" points="88,-478 0,-478 0,-422 88,-422 88,-478"/>
<text text-anchor="start" x="4.95" y="-466" font-family="Helvetica,sans-Serif" font-size="10.00">std::basic_string&lt;</text>
<text text-anchor="start" x="27.46" y="-456" font-family="Helvetica,sans-Serif" font-size="10.00"> Char &gt;</text>
<text text-anchor="start" x="42.61" y="-442" font-family="Helvetica,sans-Serif" font-size="10.00"> </text>
<text text-anchor="start" x="42.61" y="-428" font-family="Helvetica,sans-Serif" font-size="10.00"> </text>
<polygon fill="#666666" stroke="#666666" points="0,-452 0,-452 88,-452 88,-452 0,-452"/>
<polygon fill="#666666" stroke="#666666" points="0,-438 0,-438 88,-438 88,-438 0,-438"/>
<polygon fill="none" stroke="#666666" points="0,-422 0,-478 88,-478 88,-422 0,-422"/>
</a>
</g>
</g>
<!-- Node3&#45;&gt;Node2 -->
<g id="edge2_Node000002_Node000003" class="edge">
<title>Node3&#45;&gt;Node2</title>
<g id="a_edge2_Node000002_Node000003"><a xlink:title=" ">
<path fill="none" stroke="#63b8ff" d="M45.19,-411.55C46.15,-380.94 47.49,-338.72 48.3,-313.22"/>
<polygon fill="none" stroke="#63b8ff" points="41.68,-411.73 44.86,-421.84 48.67,-411.95 41.68,-411.73"/>
</a>
</g>
</g>
<!-- Node4 -->
<g id="Node000004" class="node">
<title>Node4</title>
<g id="a_Node000004"><a xlink:href="structgeom_1_1rect.html" target="_top" xlink:title=" ">
<polygon fill="white" stroke="transparent" points="170,-376 104,-376 104,-204 170,-204 170,-376"/>
<text text-anchor="start" x="113.38" y="-364" font-family="Helvetica,sans-Serif" font-size="10.00">geom::rect</text>
<text text-anchor="start" x="135.61" y="-350" font-family="Helvetica,sans-Serif" font-size="10.00"> </text>
<text text-anchor="start" x="107.58" y="-336" font-family="Helvetica,sans-Serif" font-size="10.00">+</text>
<text text-anchor="start" x="117" y="-336" font-family="Helvetica,sans-Serif" font-size="10.00">rect()</text>
<text text-anchor="start" x="107.58" y="-322" font-family="Helvetica,sans-Serif" font-size="10.00">+</text>
<text text-anchor="start" x="117" y="-322" font-family="Helvetica,sans-Serif" font-size="10.00">rect()</text>
<text text-anchor="start" x="107.58" y="-308" font-family="Helvetica,sans-Serif" font-size="10.00">+</text>
<text text-anchor="start" x="117" y="-308" font-family="Helvetica,sans-Serif" font-size="10.00">rect()</text>
<text text-anchor="start" x="107.58" y="-294" font-family="Helvetica,sans-Serif" font-size="10.00">+</text>
<text text-anchor="start" x="117" y="-294" font-family="Helvetica,sans-Serif" font-size="10.00">rect()</text>
<text text-anchor="start" x="107.58" y="-280" font-family="Helvetica,sans-Serif" font-size="10.00">+</text>
<text text-anchor="start" x="117" y="-280" font-family="Helvetica,sans-Serif" font-size="10.00">rect()</text>
<text text-anchor="start" x="107.58" y="-266" font-family="Helvetica,sans-Serif" font-size="10.00">+</text>
<text text-anchor="start" x="117" y="-266" font-family="Helvetica,sans-Serif" font-size="10.00">~rect()</text>
<text text-anchor="start" x="107.58" y="-252" font-family="Helvetica,sans-Serif" font-size="10.00">+</text>
<text text-anchor="start" x="117" y="-252" font-family="Helvetica,sans-Serif" font-size="10.00">operator=()</text>
<text text-anchor="start" x="107.58" y="-238" font-family="Helvetica,sans-Serif" font-size="10.00">+</text>
<text text-anchor="start" x="117" y="-238" font-family="Helvetica,sans-Serif" font-size="10.00">operator=()</text>
<text text-anchor="start" x="107.58" y="-224" font-family="Helvetica,sans-Serif" font-size="10.00">+</text>
<text text-anchor="start" x="117" y="-224" font-family="Helvetica,sans-Serif" font-size="10.00">operator=()</text>
<text text-anchor="start" x="107.58" y="-210" font-family="Helvetica,sans-Serif" font-size="10.00">+</text>
<text text-anchor="start" x="117" y="-210" font-family="Helvetica,sans-Serif" font-size="10.00">operator=()</text>
<polygon fill="#666666" stroke="#666666" points="104,-360 104,-360 170,-360 170,-360 104,-360"/>
<polygon fill="#666666" stroke="#666666" points="104,-346 104,-346 170,-346 170,-346 104,-346"/>
<polygon fill="none" stroke="#666666" points="104,-204 104,-376 170,-376 170,-204 104,-204"/>
</a>
</g>
</g>
<!-- Node4&#45;&gt;Node1 -->
<g id="edge3_Node000001_Node000004" class="edge">
<title>Node4&#45;&gt;Node1</title>
<g id="a_edge3_Node000001_Node000004"><a xlink:title=" ">
<path fill="none" stroke="#63b8ff" d="M119.89,-203.81C117.94,-194.42 115.95,-185 114,-176 113.57,-173.99 113.12,-171.96 112.67,-169.91"/>
<polygon fill="none" stroke="#63b8ff" points="112.64,-169.75 107.44,-164.75 110.05,-158.03 115.25,-163.03 112.64,-169.75"/>
</a>
</g>
<text text-anchor="middle" x="133.09" y="-178" font-family="Helvetica,sans-Serif" font-size="10.00" fill="grey"> +frame</text>
</g>
<!-- Node5 -->
<g id="Node000005" class="node">
<title>Node5</title>
<g id="a_Node000005"><a xlink:href="structgeom_1_1point.html" target="_top" xlink:title=" ">
<polygon fill="white" stroke="transparent" points="168,-487 106,-487 106,-413 168,-413 168,-487"/>
<text text-anchor="start" x="110.87" y="-475" font-family="Helvetica,sans-Serif" font-size="10.00">geom::point</text>
<text text-anchor="start" x="113.58" y="-461" font-family="Helvetica,sans-Serif" font-size="10.00">+</text>
<text text-anchor="start" x="127" y="-461" font-family="Helvetica,sans-Serif" font-size="10.00">x</text>
<text text-anchor="start" x="113.58" y="-447" font-family="Helvetica,sans-Serif" font-size="10.00">+</text>
<text text-anchor="start" x="127" y="-447" font-family="Helvetica,sans-Serif" font-size="10.00">y</text>
<text text-anchor="start" x="113.58" y="-433" font-family="Helvetica,sans-Serif" font-size="10.00">+</text>
<text text-anchor="start" x="127" y="-433" font-family="Helvetica,sans-Serif" font-size="10.00">point()</text>
<text text-anchor="start" x="113.58" y="-419" font-family="Helvetica,sans-Serif" font-size="10.00">+</text>
<text text-anchor="start" x="127" y="-419" font-family="Helvetica,sans-Serif" font-size="10.00">point()</text>
<polygon fill="#666666" stroke="#666666" points="106,-471 106,-471 168,-471 168,-471 106,-471"/>
<polygon fill="#666666" stroke="#666666" points="106,-443 106,-443 125,-443 125,-443 106,-443"/>
<polygon fill="#666666" stroke="#666666" points="125,-443 125,-443 168,-443 168,-443 125,-443"/>
<polygon fill="none" stroke="#666666" points="106,-413 106,-487 168,-487 168,-413 106,-413"/>
</a>
</g>
</g>
<!-- Node5&#45;&gt;Node4 -->
<g id="edge4_Node000004_Node000005" class="edge">
<title>Node5&#45;&gt;Node4</title>
<g id="a_edge4_Node000004_Node000005"><a xlink:title=" ">
<path fill="none" stroke="#63b8ff" d="M137,-402.55C137,-394.22 137,-385.3 137,-376.28"/>
<polygon fill="none" stroke="#63b8ff" points="133.5,-402.75 137,-412.75 140.5,-402.75 133.5,-402.75"/>
</a>
</g>
</g>
<!-- Node6 -->
<g id="Node000006" class="node">
<title>Node6</title>
<g id="a_Node000006"><a xlink:href="structgeom_1_1size.html" target="_top" xlink:title=" ">
<polygon fill="white" stroke="transparent" points="244,-487 186,-487 186,-413 244,-413 244,-487"/>
<text text-anchor="start" x="190.82" y="-475" font-family="Helvetica,sans-Serif" font-size="10.00">geom::size</text>
<text text-anchor="start" x="193.58" y="-461" font-family="Helvetica,sans-Serif" font-size="10.00">+</text>
<text text-anchor="start" x="207" y="-461" font-family="Helvetica,sans-Serif" font-size="10.00">w</text>
<text text-anchor="start" x="193.58" y="-447" font-family="Helvetica,sans-Serif" font-size="10.00">+</text>
<text text-anchor="start" x="207" y="-447" font-family="Helvetica,sans-Serif" font-size="10.00">h</text>
<text text-anchor="start" x="193.58" y="-433" font-family="Helvetica,sans-Serif" font-size="10.00">+</text>
<text text-anchor="start" x="207" y="-433" font-family="Helvetica,sans-Serif" font-size="10.00">size()</text>
<text text-anchor="start" x="193.58" y="-419" font-family="Helvetica,sans-Serif" font-size="10.00">+</text>
<text text-anchor="start" x="207" y="-419" font-family="Helvetica,sans-Serif" font-size="10.00">size()</text>
<polygon fill="#666666" stroke="#666666" points="186,-471 186,-471 244,-471 244,-471 186,-471"/>
<polygon fill="#666666" stroke="#666666" points="186,-443 186,-443 205,-443 205,-443 186,-443"/>
<polygon fill="#666666" stroke="#666666" points="205,-443 205,-443 244,-443 244,-443 205,-443"/>
<polygon fill="none" stroke="#666666" points="186,-413 186,-487 244,-487 244,-413 186,-413"/>
</a>
</g>
</g>
<!-- Node6&#45;&gt;Node4 -->
<g id="edge5_Node000004_Node000006" class="edge">
<title>Node6&#45;&gt;Node4</title>
<g id="a_edge5_Node000004_Node000006"><a xlink:title=" ">
<path fill="none" stroke="#63b8ff" d="M192.64,-403.7C185.63,-389.5 177.73,-373.51 170.14,-358.13"/>
<polygon fill="none" stroke="#63b8ff" points="189.54,-405.33 197.11,-412.75 195.82,-402.24 189.54,-405.33"/>
</a>
</g>
</g>
</g>
</svg>
