<?xml version="1.0" encoding="UTF-8" standalone="no"?>
<!DOCTYPE svg PUBLIC "-//W3C//DTD SVG 1.1//EN"
 "http://www.w3.org/Graphics/SVG/1.1/DTD/svg11.dtd">
<!-- Generated by graphviz version 2.48.0 (20210717.1556)
 -->
<!-- Title: geom::point Pages: 1 -->
<svg width="74pt" height="290pt"
 viewBox="0.00 0.00 74.00 290.00" xmlns="http://www.w3.org/2000/svg" xmlns:xlink="http://www.w3.org/1999/xlink">
<g id="graph0" class="graph" transform="scale(1 1) rotate(0) translate(4 286)">
<title>geom::point</title>
<!-- Node1 -->
<g id="Node000001" class="node">
<title>Node1</title>
<g id="a_Node000001"><a xlink:title=" ">
<polygon fill="#999999" stroke="transparent" points="64,-282 2,-282 2,-208 64,-208 64,-282"/>
<text text-anchor="start" x="6.87" y="-270" font-family="Helvetica,sans-Serif" font-size="10.00">geom::point</text>
<text text-anchor="start" x="9.58" y="-256" font-family="Helvetica,sans-Serif" font-size="10.00">+</text>
<text text-anchor="start" x="23" y="-256" font-family="Helvetica,sans-Serif" font-size="10.00">x</text>
<text text-anchor="start" x="9.58" y="-242" font-family="Helvetica,sans-Serif" font-size="10.00">+</text>
<text text-anchor="start" x="23" y="-242" font-family="Helvetica,sans-Serif" font-size="10.00">y</text>
<text text-anchor="start" x="9.58" y="-228" font-family="Helvetica,sans-Serif" font-size="10.00">+</text>
<text text-anchor="start" x="23" y="-228" font-family="Helvetica,sans-Serif" font-size="10.00">point()</text>
<text text-anchor="start" x="9.58" y="-214" font-family="Helvetica,sans-Serif" font-size="10.00">+</text>
<text text-anchor="start" x="23" y="-214" font-family="Helvetica,sans-Serif" font-size="10.00">point()</text>
<polygon fill="#666666" stroke="#666666" points="2,-266 2,-266 64,-266 64,-266 2,-266"/>
<polygon fill="#666666" stroke="#666666" points="2,-238 2,-238 21,-238 21,-238 2,-238"/>
<polygon fill="#666666" stroke="#666666" points="21,-238 21,-238 64,-238 64,-238 21,-238"/>
<polygon fill="none" stroke="#666666" points="2,-208 2,-282 64,-282 64,-208 2,-208"/>
</a>
</g>
</g>
<!-- Node2 -->
<g id="Node000002" class="node">
<title>Node2</title>
<g id="a_Node000002"><a xlink:href="structgeom_1_1rect.html" target="_top" xlink:title=" ">
<polygon fill="white" stroke="transparent" points="66,-172 0,-172 0,0 66,0 66,-172"/>
<text text-anchor="start" x="9.38" y="-160" font-family="Helvetica,sans-Serif" font-size="10.00">geom::rect</text>
<text text-anchor="start" x="31.61" y="-146" font-family="Helvetica,sans-Serif" font-size="10.00"> </text>
<text text-anchor="start" x="3.58" y="-132" font-family="Helvetica,sans-Serif" font-size="10.00">+</text>
<text text-anchor="start" x="13" y="-132" font-family="Helvetica,sans-Serif" font-size="10.00">rect()</text>
<text text-anchor="start" x="3.58" y="-118" font-family="Helvetica,sans-Serif" font-size="10.00">+</text>
<text text-anchor="start" x="13" y="-118" font-family="Helvetica,sans-Serif" font-size="10.00">rect()</text>
<text text-anchor="start" x="3.58" y="-104" font-family="Helvetica,sans-Serif" font-size="10.00">+</text>
<text text-anchor="start" x="13" y="-104" font-family="Helvetica,sans-Serif" font-size="10.00">rect()</text>
<text text-anchor="start" x="3.58" y="-90" font-family="Helvetica,sans-Serif" font-size="10.00">+</text>
<text text-anchor="start" x="13" y="-90" font-family="Helvetica,sans-Serif" font-size="10.00">rect()</text>
<text text-anchor="start" x="3.58" y="-76" font-family="Helvetica,sans-Serif" font-size="10.00">+</text>
<text text-anchor="start" x="13" y="-76" font-family="Helvetica,sans-Serif" font-size="10.00">rect()</text>
<text text-anchor="start" x="3.58" y="-62" font-family="Helvetica,sans-Serif" font-size="10.00">+</text>
<text text-anchor="start" x="13" y="-62" font-family="Helvetica,sans-Serif" font-size="10.00">~rect()</text>
<text text-anchor="start" x="3.58" y="-48" font-family="Helvetica,sans-Serif" font-size="10.00">+</text>
<text text-anchor="start" x="13" y="-48" font-family="Helvetica,sans-Serif" font-size="10.00">operator=()</text>
<text text-anchor="start" x="3.58" y="-34" font-family="Helvetica,sans-Serif" font-size="10.00">+</text>
<text text-anchor="start" x="13" y="-34" font-family="Helvetica,sans-Serif" font-size="10.00">operator=()</text>
<text text-anchor="start" x="3.58" y="-20" font-family="Helvetica,sans-Serif" font-size="10.00">+</text>
<text text-anchor="start" x="13" y="-20" font-family="Helvetica,sans-Serif" font-size="10.00">operator=()</text>
<text text-anchor="start" x="3.58" y="-6" font-family="Helvetica,sans-Serif" font-size="10.00">+</text>
<text text-anchor="start" x="13" y="-6" font-family="Helvetica,sans-Serif" font-size="10.00">operator=()</text>
<polygon fill="#666666" stroke="#666666" points="0,-156 0,-156 66,-156 66,-156 0,-156"/>
<polygon fill="#666666" stroke="#666666" points="0,-142 0,-142 66,-142 66,-142 0,-142"/>
<polygon fill="none" stroke="#666666" points="0,0 0,-172 66,-172 66,0 0,0"/>
</a>
</g>
</g>
<!-- Node1&#45;&gt;Node2 -->
<g id="edge1_Node000001_Node000002" class="edge">
<title>Node1&#45;&gt;Node2</title>
<g id="a_edge1_Node000001_Node000002"><a xlink:title=" ">
<path fill="none" stroke="#63b8ff" d="M33,-197.93C33,-189.72 33,-180.95 33,-172.05"/>
<polygon fill="none" stroke="#63b8ff" points="29.5,-197.98 33,-207.98 36.5,-197.98 29.5,-197.98"/>
</a>
</g>
</g>
</g>
</svg>
