<?xml version="1.0" encoding="UTF-8" standalone="no"?>
<!DOCTYPE svg PUBLIC "-//W3C//DTD SVG 1.1//EN"
 "http://www.w3.org/Graphics/SVG/1.1/DTD/svg11.dtd">
<!-- Generated by graphviz version 2.48.0 (20210717.1556)
 -->
<!-- Title: epub::xml::xpath::object Pages: 1 -->
<svg width="123pt" height="136pt"
 viewBox="0.00 0.00 123.00 136.00" xmlns="http://www.w3.org/2000/svg" xmlns:xlink="http://www.w3.org/1999/xlink">
<g id="graph0" class="graph" transform="scale(1 1) rotate(0) translate(4 132)">
<title>epub::xml::xpath::object</title>
<!-- Node1 -->
<g id="Node000001" class="node">
<title>Node1</title>
<g id="a_Node000001"><a xlink:title=" ">
<polygon fill="#999999" stroke="transparent" points="115,-46 0,-46 0,0 115,0 115,-46"/>
<text text-anchor="start" x="5.19" y="-34" font-family="Helvetica,sans-Serif" font-size="10.00">epub::xml::xpath::object</text>
<text text-anchor="start" x="21.08" y="-20" font-family="Helvetica,sans-Serif" font-size="10.00">+</text>
<text text-anchor="start" x="47.5" y="-20" font-family="Helvetica,sans-Serif" font-size="10.00">deleter</text>
<text text-anchor="start" x="56.61" y="-6" font-family="Helvetica,sans-Serif" font-size="10.00"> </text>
<polygon fill="#666666" stroke="#666666" points="0.5,-30 0.5,-30 115.5,-30 115.5,-30 0.5,-30"/>
<polygon fill="#666666" stroke="#666666" points="0.5,-16 0.5,-16 45.5,-16 45.5,-16 0.5,-16"/>
<polygon fill="#666666" stroke="#666666" points="45.5,-16 45.5,-16 115.5,-16 115.5,-16 45.5,-16"/>
<polygon fill="none" stroke="#666666" points="0,0 0,-46 115,-46 115,0 0,0"/>
</a>
</g>
</g>
<!-- Node2 -->
<g id="Node000002" class="node">
<title>Node2</title>
<g id="a_Node000002"><a xlink:title=" ">
<polygon fill="white" stroke="transparent" points="98,-128 17,-128 17,-82 98,-82 98,-128"/>
<text text-anchor="start" x="22.15" y="-116" font-family="Helvetica,sans-Serif" font-size="10.00">xmlXPathObject</text>
<text text-anchor="start" x="56.61" y="-102" font-family="Helvetica,sans-Serif" font-size="10.00"> </text>
<text text-anchor="start" x="56.61" y="-88" font-family="Helvetica,sans-Serif" font-size="10.00"> </text>
<polygon fill="#666666" stroke="#666666" points="17.5,-112 17.5,-112 98.5,-112 98.5,-112 17.5,-112"/>
<polygon fill="#666666" stroke="#666666" points="17.5,-98 17.5,-98 98.5,-98 98.5,-98 17.5,-98"/>
<polygon fill="none" stroke="#666666" points="17,-82 17,-128 98,-128 98,-82 17,-82"/>
</a>
</g>
</g>
<!-- Node2&#45;&gt;Node1 -->
<g id="edge1_Node000001_Node000002" class="edge">
<title>Node2&#45;&gt;Node1</title>
<g id="a_edge1_Node000001_Node000002"><a xlink:title=" ">
<path fill="none" stroke="#63b8ff" d="M57.5,-71.63C57.5,-63.08 57.5,-54.04 57.5,-46.16"/>
<polygon fill="none" stroke="#63b8ff" points="54,-71.72 57.5,-81.72 61,-71.72 54,-71.72"/>
</a>
</g>
</g>
</g>
</svg>
