<?xml version="1.0" encoding="UTF-8" standalone="no"?>
<!DOCTYPE svg PUBLIC "-//W3C//DTD SVG 1.1//EN"
 "http://www.w3.org/Graphics/SVG/1.1/DTD/svg11.dtd">
<!-- Generated by graphviz version 2.48.0 (20210717.1556)
 -->
<!-- Title: geom::rect Pages: 1 -->
<svg width="146pt" height="290pt"
 viewBox="0.00 0.00 146.00 290.00" xmlns="http://www.w3.org/2000/svg" xmlns:xlink="http://www.w3.org/1999/xlink">
<g id="graph0" class="graph" transform="scale(1 1) rotate(0) translate(4 286)">
<title>geom::rect</title>
<!-- Node1 -->
<g id="Node000001" class="node">
<title>Node1</title>
<g id="a_Node000001"><a xlink:title=" ">
<polygon fill="#999999" stroke="transparent" points="103,-172 37,-172 37,0 103,0 103,-172"/>
<text text-anchor="start" x="46.38" y="-160" font-family="Helvetica,sans-Serif" font-size="10.00">geom::rect</text>
<text text-anchor="start" x="68.61" y="-146" font-family="Helvetica,sans-Serif" font-size="10.00"> </text>
<text text-anchor="start" x="40.58" y="-132" font-family="Helvetica,sans-Serif" font-size="10.00">+</text>
<text text-anchor="start" x="50" y="-132" font-family="Helvetica,sans-Serif" font-size="10.00">rect()</text>
<text text-anchor="start" x="40.58" y="-118" font-family="Helvetica,sans-Serif" font-size="10.00">+</text>
<text text-anchor="start" x="50" y="-118" font-family="Helvetica,sans-Serif" font-size="10.00">rect()</text>
<text text-anchor="start" x="40.58" y="-104" font-family="Helvetica,sans-Serif" font-size="10.00">+</text>
<text text-anchor="start" x="50" y="-104" font-family="Helvetica,sans-Serif" font-size="10.00">rect()</text>
<text text-anchor="start" x="40.58" y="-90" font-family="Helvetica,sans-Serif" font-size="10.00">+</text>
<text text-anchor="start" x="50" y="-90" font-family="Helvetica,sans-Serif" font-size="10.00">rect()</text>
<text text-anchor="start" x="40.58" y="-76" font-family="Helvetica,sans-Serif" font-size="10.00">+</text>
<text text-anchor="start" x="50" y="-76" font-family="Helvetica,sans-Serif" font-size="10.00">rect()</text>
<text text-anchor="start" x="40.58" y="-62" font-family="Helvetica,sans-Serif" font-size="10.00">+</text>
<text text-anchor="start" x="50" y="-62" font-family="Helvetica,sans-Serif" font-size="10.00">~rect()</text>
<text text-anchor="start" x="40.58" y="-48" font-family="Helvetica,sans-Serif" font-size="10.00">+</text>
<text text-anchor="start" x="50" y="-48" font-family="Helvetica,sans-Serif" font-size="10.00">operator=()</text>
<text text-anchor="start" x="40.58" y="-34" font-family="Helvetica,sans-Serif" font-size="10.00">+</text>
<text text-anchor="start" x="50" y="-34" font-family="Helvetica,sans-Serif" font-size="10.00">operator=()</text>
<text text-anchor="start" x="40.58" y="-20" font-family="Helvetica,sans-Serif" font-size="10.00">+</text>
<text text-anchor="start" x="50" y="-20" font-family="Helvetica,sans-Serif" font-size="10.00">operator=()</text>
<text text-anchor="start" x="40.58" y="-6" font-family="Helvetica,sans-Serif" font-size="10.00">+</text>
<text text-anchor="start" x="50" y="-6" font-family="Helvetica,sans-Serif" font-size="10.00">operator=()</text>
<polygon fill="#666666" stroke="#666666" points="37,-156 37,-156 103,-156 103,-156 37,-156"/>
<polygon fill="#666666" stroke="#666666" points="37,-142 37,-142 103,-142 103,-142 37,-142"/>
<polygon fill="none" stroke="#666666" points="37,0 37,-172 103,-172 103,0 37,0"/>
</a>
</g>
</g>
<!-- Node2 -->
<g id="Node000002" class="node">
<title>Node2</title>
<g id="a_Node000002"><a xlink:href="structgeom_1_1point.html" target="_top" xlink:title=" ">
<polygon fill="white" stroke="transparent" points="62,-282 0,-282 0,-208 62,-208 62,-282"/>
<text text-anchor="start" x="4.87" y="-270" font-family="Helvetica,sans-Serif" font-size="10.00">geom::point</text>
<text text-anchor="start" x="7.58" y="-256" font-family="Helvetica,sans-Serif" font-size="10.00">+</text>
<text text-anchor="start" x="21" y="-256" font-family="Helvetica,sans-Serif" font-size="10.00">x</text>
<text text-anchor="start" x="7.58" y="-242" font-family="Helvetica,sans-Serif" font-size="10.00">+</text>
<text text-anchor="start" x="21" y="-242" font-family="Helvetica,sans-Serif" font-size="10.00">y</text>
<text text-anchor="start" x="7.58" y="-228" font-family="Helvetica,sans-Serif" font-size="10.00">+</text>
<text text-anchor="start" x="21" y="-228" font-family="Helvetica,sans-Serif" font-size="10.00">point()</text>
<text text-anchor="start" x="7.58" y="-214" font-family="Helvetica,sans-Serif" font-size="10.00">+</text>
<text text-anchor="start" x="21" y="-214" font-family="Helvetica,sans-Serif" font-size="10.00">point()</text>
<polygon fill="#666666" stroke="#666666" points="0,-266 0,-266 62,-266 62,-266 0,-266"/>
<polygon fill="#666666" stroke="#666666" points="0,-238 0,-238 19,-238 19,-238 0,-238"/>
<polygon fill="#666666" stroke="#666666" points="19,-238 19,-238 62,-238 62,-238 19,-238"/>
<polygon fill="none" stroke="#666666" points="0,-208 0,-282 62,-282 62,-208 0,-208"/>
</a>
</g>
</g>
<!-- Node2&#45;&gt;Node1 -->
<g id="edge1_Node000001_Node000002" class="edge">
<title>Node2&#45;&gt;Node1</title>
<g id="a_edge1_Node000001_Node000002"><a xlink:title=" ">
<path fill="none" stroke="#63b8ff" d="M42.38,-198.2C44.43,-189.92 46.64,-181.04 48.87,-172.05"/>
<polygon fill="none" stroke="#63b8ff" points="38.96,-197.43 39.95,-207.98 45.76,-199.12 38.96,-197.43"/>
</a>
</g>
</g>
<!-- Node3 -->
<g id="Node000003" class="node">
<title>Node3</title>
<g id="a_Node000003"><a xlink:href="structgeom_1_1size.html" target="_top" xlink:title=" ">
<polygon fill="white" stroke="transparent" points="138,-282 80,-282 80,-208 138,-208 138,-282"/>
<text text-anchor="start" x="84.82" y="-270" font-family="Helvetica,sans-Serif" font-size="10.00">geom::size</text>
<text text-anchor="start" x="87.58" y="-256" font-family="Helvetica,sans-Serif" font-size="10.00">+</text>
<text text-anchor="start" x="101" y="-256" font-family="Helvetica,sans-Serif" font-size="10.00">w</text>
<text text-anchor="start" x="87.58" y="-242" font-family="Helvetica,sans-Serif" font-size="10.00">+</text>
<text text-anchor="start" x="101" y="-242" font-family="Helvetica,sans-Serif" font-size="10.00">h</text>
<text text-anchor="start" x="87.58" y="-228" font-family="Helvetica,sans-Serif" font-size="10.00">+</text>
<text text-anchor="start" x="101" y="-228" font-family="Helvetica,sans-Serif" font-size="10.00">size()</text>
<text text-anchor="start" x="87.58" y="-214" font-family="Helvetica,sans-Serif" font-size="10.00">+</text>
<text text-anchor="start" x="101" y="-214" font-family="Helvetica,sans-Serif" font-size="10.00">size()</text>
<polygon fill="#666666" stroke="#666666" points="80,-266 80,-266 138,-266 138,-266 80,-266"/>
<polygon fill="#666666" stroke="#666666" points="80,-238 80,-238 99,-238 99,-238 80,-238"/>
<polygon fill="#666666" stroke="#666666" points="99,-238 99,-238 138,-238 138,-238 99,-238"/>
<polygon fill="none" stroke="#666666" points="80,-208 80,-282 138,-282 138,-208 80,-208"/>
</a>
</g>
</g>
<!-- Node3&#45;&gt;Node1 -->
<g id="edge2_Node000001_Node000003" class="edge">
<title>Node3&#45;&gt;Node1</title>
<g id="a_edge2_Node000001_Node000003"><a xlink:title=" ">
<path fill="none" stroke="#63b8ff" d="M97.62,-198.2C95.57,-189.92 93.36,-181.04 91.13,-172.05"/>
<polygon fill="none" stroke="#63b8ff" points="94.24,-199.12 100.05,-207.98 101.04,-197.43 94.24,-199.12"/>
</a>
</g>
</g>
</g>
</svg>
