<?xml version="1.0" encoding="UTF-8" standalone="no"?>
<!DOCTYPE svg PUBLIC "-//W3C//DTD SVG 1.1//EN"
 "http://www.w3.org/Graphics/SVG/1.1/DTD/svg11.dtd">
<!-- Generated by graphviz version 2.48.0 (20210717.1556)
 -->
<!-- Title: cli::argument_not_needed Pages: 1 -->
<svg width="133pt" height="300pt"
 viewBox="0.00 0.00 133.00 300.00" xmlns="http://www.w3.org/2000/svg" xmlns:xlink="http://www.w3.org/1999/xlink">
<g id="graph0" class="graph" transform="scale(1 1) rotate(0) translate(4 296)">
<title>cli::argument_not_needed</title>
<!-- Node1 -->
<g id="Node000001" class="node">
<title>Node1</title>
<g id="a_Node000001"><a xlink:title=" ">
<polygon fill="#999999" stroke="transparent" points="125,-46 0,-46 0,0 125,0 125,-46"/>
<text text-anchor="start" x="5.18" y="-34" font-family="Helvetica,sans-Serif" font-size="10.00">cli::argument_not_needed</text>
<text text-anchor="start" x="61.61" y="-20" font-family="Helvetica,sans-Serif" font-size="10.00"> </text>
<text text-anchor="start" x="4.08" y="-6" font-family="Helvetica,sans-Serif" font-size="10.00">+</text>
<text text-anchor="start" x="13.5" y="-6" font-family="Helvetica,sans-Serif" font-size="10.00">argument_not_needed()</text>
<polygon fill="#666666" stroke="#666666" points="0.5,-30 0.5,-30 125.5,-30 125.5,-30 0.5,-30"/>
<polygon fill="#666666" stroke="#666666" points="0.5,-16 0.5,-16 125.5,-16 125.5,-16 0.5,-16"/>
<polygon fill="none" stroke="#666666" points="0,0 0,-46 125,-46 125,0 0,0"/>
</a>
</g>
</g>
<!-- Node2 -->
<g id="Node000002" class="node">
<title>Node2</title>
<g id="a_Node000002"><a xlink:href="structcli_1_1option__error.html" target="_top" xlink:title=" ">
<polygon fill="white" stroke="transparent" points="101.5,-128 23.5,-128 23.5,-82 101.5,-82 101.5,-128"/>
<text text-anchor="start" x="28.04" y="-116" font-family="Helvetica,sans-Serif" font-size="10.00">cli::option_error</text>
<text text-anchor="start" x="61.11" y="-102" font-family="Helvetica,sans-Serif" font-size="10.00"> </text>
<text text-anchor="start" x="61.11" y="-88" font-family="Helvetica,sans-Serif" font-size="10.00"> </text>
<polygon fill="#666666" stroke="#666666" points="23.5,-112 23.5,-112 101.5,-112 101.5,-112 23.5,-112"/>
<polygon fill="#666666" stroke="#666666" points="23.5,-98 23.5,-98 101.5,-98 101.5,-98 23.5,-98"/>
<polygon fill="none" stroke="#666666" points="23.5,-82 23.5,-128 101.5,-128 101.5,-82 23.5,-82"/>
</a>
</g>
</g>
<!-- Node2&#45;&gt;Node1 -->
<g id="edge1_Node000001_Node000002" class="edge">
<title>Node2&#45;&gt;Node1</title>
<g id="a_edge1_Node000001_Node000002"><a xlink:title=" ">
<path fill="none" stroke="#63b8ff" d="M62.5,-71.63C62.5,-63.08 62.5,-54.04 62.5,-46.16"/>
<polygon fill="none" stroke="#63b8ff" points="59,-71.72 62.5,-81.72 66,-71.72 59,-71.72"/>
</a>
</g>
</g>
<!-- Node3 -->
<g id="Node000003" class="node">
<title>Node3</title>
<g id="a_Node000003"><a xlink:title=" ">
<polygon fill="white" stroke="transparent" points="106.5,-210 18.5,-210 18.5,-164 106.5,-164 106.5,-210"/>
<text text-anchor="start" x="23.04" y="-198" font-family="Helvetica,sans-Serif" font-size="10.00">std::runtime_error</text>
<text text-anchor="start" x="61.11" y="-184" font-family="Helvetica,sans-Serif" font-size="10.00"> </text>
<text text-anchor="start" x="61.11" y="-170" font-family="Helvetica,sans-Serif" font-size="10.00"> </text>
<polygon fill="#666666" stroke="#666666" points="18.5,-194 18.5,-194 106.5,-194 106.5,-194 18.5,-194"/>
<polygon fill="#666666" stroke="#666666" points="18.5,-180 18.5,-180 106.5,-180 106.5,-180 18.5,-180"/>
<polygon fill="none" stroke="#666666" points="18.5,-164 18.5,-210 106.5,-210 106.5,-164 18.5,-164"/>
</a>
</g>
</g>
<!-- Node3&#45;&gt;Node2 -->
<g id="edge2_Node000002_Node000003" class="edge">
<title>Node3&#45;&gt;Node2</title>
<g id="a_edge2_Node000002_Node000003"><a xlink:title=" ">
<path fill="none" stroke="#63b8ff" d="M62.5,-153.63C62.5,-145.08 62.5,-136.04 62.5,-128.16"/>
<polygon fill="none" stroke="#63b8ff" points="59,-153.72 62.5,-163.72 66,-153.72 59,-153.72"/>
</a>
</g>
</g>
<!-- Node4 -->
<g id="Node000004" class="node">
<title>Node4</title>
<g id="a_Node000004"><a xlink:title=" ">
<polygon fill="white" stroke="transparent" points="98,-292 27,-292 27,-246 98,-246 98,-292"/>
<text text-anchor="start" x="32.15" y="-280" font-family="Helvetica,sans-Serif" font-size="10.00">std::exception</text>
<text text-anchor="start" x="61.61" y="-266" font-family="Helvetica,sans-Serif" font-size="10.00"> </text>
<text text-anchor="start" x="61.61" y="-252" font-family="Helvetica,sans-Serif" font-size="10.00"> </text>
<polygon fill="#666666" stroke="#666666" points="27.5,-276 27.5,-276 98.5,-276 98.5,-276 27.5,-276"/>
<polygon fill="#666666" stroke="#666666" points="27.5,-262 27.5,-262 98.5,-262 98.5,-262 27.5,-262"/>
<polygon fill="none" stroke="#666666" points="27,-246 27,-292 98,-292 98,-246 27,-246"/>
</a>
</g>
</g>
<!-- Node4&#45;&gt;Node3 -->
<g id="edge3_Node000003_Node000004" class="edge">
<title>Node4&#45;&gt;Node3</title>
<g id="a_edge3_Node000003_Node000004"><a xlink:title=" ">
<path fill="none" stroke="#63b8ff" d="M62.5,-235.63C62.5,-227.08 62.5,-218.04 62.5,-210.16"/>
<polygon fill="none" stroke="#63b8ff" points="59,-235.72 62.5,-245.72 66,-235.72 59,-235.72"/>
</a>
</g>
</g>
</g>
</svg>
