<?xml version="1.0" encoding="UTF-8" standalone="no"?>
<!DOCTYPE svg PUBLIC "-//W3C//DTD SVG 1.1//EN"
 "http://www.w3.org/Graphics/SVG/1.1/DTD/svg11.dtd">
<!-- Generated by graphviz version 2.48.0 (20210717.1556)
 -->
<!-- Title: cli::argument_needed Pages: 1 -->
<svg width="114pt" height="300pt"
 viewBox="0.00 0.00 114.00 300.00" xmlns="http://www.w3.org/2000/svg" xmlns:xlink="http://www.w3.org/1999/xlink">
<g id="graph0" class="graph" transform="scale(1 1) rotate(0) translate(4 296)">
<title>cli::argument_needed</title>
<!-- Node1 -->
<g id="Node000001" class="node">
<title>Node1</title>
<g id="a_Node000001"><a xlink:title=" ">
<polygon fill="#999999" stroke="transparent" points="106,-46 0,-46 0,0 106,0 106,-46"/>
<text text-anchor="start" x="4.91" y="-34" font-family="Helvetica,sans-Serif" font-size="10.00">cli::argument_needed</text>
<text text-anchor="start" x="51.61" y="-20" font-family="Helvetica,sans-Serif" font-size="10.00"> </text>
<text text-anchor="start" x="4.08" y="-6" font-family="Helvetica,sans-Serif" font-size="10.00">+</text>
<text text-anchor="start" x="14" y="-6" font-family="Helvetica,sans-Serif" font-size="10.00">argument_needed()</text>
<polygon fill="#666666" stroke="#666666" points="0,-30 0,-30 106,-30 106,-30 0,-30"/>
<polygon fill="#666666" stroke="#666666" points="0,-16 0,-16 106,-16 106,-16 0,-16"/>
<polygon fill="none" stroke="#666666" points="0,0 0,-46 106,-46 106,0 0,0"/>
</a>
</g>
</g>
<!-- Node2 -->
<g id="Node000002" class="node">
<title>Node2</title>
<g id="a_Node000002"><a xlink:href="structcli_1_1option__error.html" target="_top" xlink:title=" ">
<polygon fill="white" stroke="transparent" points="92,-128 14,-128 14,-82 92,-82 92,-128"/>
<text text-anchor="start" x="18.54" y="-116" font-family="Helvetica,sans-Serif" font-size="10.00">cli::option_error</text>
<text text-anchor="start" x="51.61" y="-102" font-family="Helvetica,sans-Serif" font-size="10.00"> </text>
<text text-anchor="start" x="51.61" y="-88" font-family="Helvetica,sans-Serif" font-size="10.00"> </text>
<polygon fill="#666666" stroke="#666666" points="14,-112 14,-112 92,-112 92,-112 14,-112"/>
<polygon fill="#666666" stroke="#666666" points="14,-98 14,-98 92,-98 92,-98 14,-98"/>
<polygon fill="none" stroke="#666666" points="14,-82 14,-128 92,-128 92,-82 14,-82"/>
</a>
</g>
</g>
<!-- Node2&#45;&gt;Node1 -->
<g id="edge1_Node000001_Node000002" class="edge">
<title>Node2&#45;&gt;Node1</title>
<g id="a_edge1_Node000001_Node000002"><a xlink:title=" ">
<path fill="none" stroke="#63b8ff" d="M53,-71.63C53,-63.08 53,-54.04 53,-46.16"/>
<polygon fill="none" stroke="#63b8ff" points="49.5,-71.72 53,-81.72 56.5,-71.72 49.5,-71.72"/>
</a>
</g>
</g>
<!-- Node3 -->
<g id="Node000003" class="node">
<title>Node3</title>
<g id="a_Node000003"><a xlink:title=" ">
<polygon fill="white" stroke="transparent" points="97,-210 9,-210 9,-164 97,-164 97,-210"/>
<text text-anchor="start" x="13.54" y="-198" font-family="Helvetica,sans-Serif" font-size="10.00">std::runtime_error</text>
<text text-anchor="start" x="51.61" y="-184" font-family="Helvetica,sans-Serif" font-size="10.00"> </text>
<text text-anchor="start" x="51.61" y="-170" font-family="Helvetica,sans-Serif" font-size="10.00"> </text>
<polygon fill="#666666" stroke="#666666" points="9,-194 9,-194 97,-194 97,-194 9,-194"/>
<polygon fill="#666666" stroke="#666666" points="9,-180 9,-180 97,-180 97,-180 9,-180"/>
<polygon fill="none" stroke="#666666" points="9,-164 9,-210 97,-210 97,-164 9,-164"/>
</a>
</g>
</g>
<!-- Node3&#45;&gt;Node2 -->
<g id="edge2_Node000002_Node000003" class="edge">
<title>Node3&#45;&gt;Node2</title>
<g id="a_edge2_Node000002_Node000003"><a xlink:title=" ">
<path fill="none" stroke="#63b8ff" d="M53,-153.63C53,-145.08 53,-136.04 53,-128.16"/>
<polygon fill="none" stroke="#63b8ff" points="49.5,-153.72 53,-163.72 56.5,-153.72 49.5,-153.72"/>
</a>
</g>
</g>
<!-- Node4 -->
<g id="Node000004" class="node">
<title>Node4</title>
<g id="a_Node000004"><a xlink:title=" ">
<polygon fill="white" stroke="transparent" points="88.5,-292 17.5,-292 17.5,-246 88.5,-246 88.5,-292"/>
<text text-anchor="start" x="22.65" y="-280" font-family="Helvetica,sans-Serif" font-size="10.00">std::exception</text>
<text text-anchor="start" x="52.11" y="-266" font-family="Helvetica,sans-Serif" font-size="10.00"> </text>
<text text-anchor="start" x="52.11" y="-252" font-family="Helvetica,sans-Serif" font-size="10.00"> </text>
<polygon fill="#666666" stroke="#666666" points="18,-276 18,-276 89,-276 89,-276 18,-276"/>
<polygon fill="#666666" stroke="#666666" points="18,-262 18,-262 89,-262 89,-262 18,-262"/>
<polygon fill="none" stroke="#666666" points="17.5,-246 17.5,-292 88.5,-292 88.5,-246 17.5,-246"/>
</a>
</g>
</g>
<!-- Node4&#45;&gt;Node3 -->
<g id="edge3_Node000003_Node000004" class="edge">
<title>Node4&#45;&gt;Node3</title>
<g id="a_edge3_Node000003_Node000004"><a xlink:title=" ">
<path fill="none" stroke="#63b8ff" d="M53,-235.63C53,-227.08 53,-218.04 53,-210.16"/>
<polygon fill="none" stroke="#63b8ff" points="49.5,-235.72 53,-245.72 56.5,-235.72 49.5,-235.72"/>
</a>
</g>
</g>
</g>
</svg>
