<?xml version="1.0" encoding="UTF-8" standalone="no"?>
<!DOCTYPE svg PUBLIC "-//W3C//DTD SVG 1.1//EN"
 "http://www.w3.org/Graphics/SVG/1.1/DTD/svg11.dtd">
<!-- Generated by graphviz version 2.48.0 (20210717.1556)
 -->
<!-- Title: cli::option_error Pages: 1 -->
<svg width="598pt" height="328pt"
 viewBox="0.00 0.00 598.00 328.00" xmlns="http://www.w3.org/2000/svg" xmlns:xlink="http://www.w3.org/1999/xlink">
<g id="graph0" class="graph" transform="scale(1 1) rotate(0) translate(4 324)">
<title>cli::option_error</title>
<!-- Node1 -->
<g id="Node000001" class="node">
<title>Node1</title>
<g id="a_Node000001"><a xlink:title=" ">
<polygon fill="#999999" stroke="transparent" points="350,-156 272,-156 272,-110 350,-110 350,-156"/>
<text text-anchor="start" x="276.54" y="-144" font-family="Helvetica,sans-Serif" font-size="10.00">cli::option_error</text>
<text text-anchor="start" x="309.61" y="-130" font-family="Helvetica,sans-Serif" font-size="10.00"> </text>
<text text-anchor="start" x="309.61" y="-116" font-family="Helvetica,sans-Serif" font-size="10.00"> </text>
<polygon fill="#666666" stroke="#666666" points="272,-140 272,-140 350,-140 350,-140 272,-140"/>
<polygon fill="#666666" stroke="#666666" points="272,-126 272,-126 350,-126 350,-126 272,-126"/>
<polygon fill="none" stroke="#666666" points="272,-110 272,-156 350,-156 350,-110 272,-110"/>
</a>
</g>
</g>
<!-- Node4 -->
<g id="Node000004" class="node">
<title>Node4</title>
<g id="a_Node000004"><a xlink:href="classcli_1_1ambiguous__option.html" target="_top" xlink:title=" ">
<polygon fill="white" stroke="transparent" points="106,-74 0,-74 0,0 106,0 106,-74"/>
<text text-anchor="start" x="4.64" y="-62" font-family="Helvetica,sans-Serif" font-size="10.00">cli::ambiguous_option</text>
<text text-anchor="start" x="51.61" y="-48" font-family="Helvetica,sans-Serif" font-size="10.00"> </text>
<text text-anchor="start" x="3.58" y="-34" font-family="Helvetica,sans-Serif" font-size="10.00">+</text>
<text text-anchor="start" x="13" y="-34" font-family="Helvetica,sans-Serif" font-size="10.00">ambiguous_option()</text>
<text text-anchor="start" x="3.58" y="-20" font-family="Helvetica,sans-Serif" font-size="10.00">+</text>
<text text-anchor="start" x="13" y="-20" font-family="Helvetica,sans-Serif" font-size="10.00">ambiguous_option()</text>
<text text-anchor="start" x="4.83" y="-6" font-family="Helvetica,sans-Serif" font-size="10.00">&#45;</text>
<text text-anchor="start" x="13" y="-6" font-family="Helvetica,sans-Serif" font-size="10.00">as_enumeration()</text>
<polygon fill="#666666" stroke="#666666" points="0,-58 0,-58 106,-58 106,-58 0,-58"/>
<polygon fill="#666666" stroke="#666666" points="0,-44 0,-44 106,-44 106,-44 0,-44"/>
<polygon fill="none" stroke="#666666" points="0,0 0,-74 106,-74 106,0 0,0"/>
</a>
</g>
</g>
<!-- Node1&#45;&gt;Node4 -->
<g id="edge3_Node000001_Node000004" class="edge">
<title>Node1&#45;&gt;Node4</title>
<g id="a_edge3_Node000001_Node000004"><a xlink:title=" ">
<path fill="none" stroke="#63b8ff" d="M261.88,-120.92C221.54,-111.01 163.37,-94.84 115,-74 112.03,-72.72 109.02,-71.33 106.01,-69.86"/>
<polygon fill="none" stroke="#63b8ff" points="261.19,-124.36 271.74,-123.31 262.84,-117.55 261.19,-124.36"/>
</a>
</g>
</g>
<!-- Node5 -->
<g id="Node000005" class="node">
<title>Node5</title>
<g id="a_Node000005"><a xlink:href="structcli_1_1argument__needed.html" target="_top" xlink:title=" ">
<polygon fill="white" stroke="transparent" points="230,-60 124,-60 124,-14 230,-14 230,-60"/>
<text text-anchor="start" x="128.91" y="-48" font-family="Helvetica,sans-Serif" font-size="10.00">cli::argument_needed</text>
<text text-anchor="start" x="175.61" y="-34" font-family="Helvetica,sans-Serif" font-size="10.00"> </text>
<text text-anchor="start" x="128.08" y="-20" font-family="Helvetica,sans-Serif" font-size="10.00">+</text>
<text text-anchor="start" x="138" y="-20" font-family="Helvetica,sans-Serif" font-size="10.00">argument_needed()</text>
<polygon fill="#666666" stroke="#666666" points="124,-44 124,-44 230,-44 230,-44 124,-44"/>
<polygon fill="#666666" stroke="#666666" points="124,-30 124,-30 230,-30 230,-30 124,-30"/>
<polygon fill="none" stroke="#666666" points="124,-14 124,-60 230,-60 230,-14 124,-14"/>
</a>
</g>
</g>
<!-- Node1&#45;&gt;Node5 -->
<g id="edge4_Node000001_Node000005" class="edge">
<title>Node1&#45;&gt;Node5</title>
<g id="a_edge4_Node000001_Node000005"><a xlink:title=" ">
<path fill="none" stroke="#63b8ff" d="M271.28,-104.14C251.3,-90.12 227.42,-73.37 208.68,-60.23"/>
<polygon fill="none" stroke="#63b8ff" points="269.39,-107.08 279.58,-109.96 273.41,-101.35 269.39,-107.08"/>
</a>
</g>
</g>
<!-- Node6 -->
<g id="Node000006" class="node">
<title>Node6</title>
<g id="a_Node000006"><a xlink:href="structcli_1_1argument__not__needed.html" target="_top" xlink:title=" ">
<polygon fill="white" stroke="transparent" points="373.5,-60 248.5,-60 248.5,-14 373.5,-14 373.5,-60"/>
<text text-anchor="start" x="253.68" y="-48" font-family="Helvetica,sans-Serif" font-size="10.00">cli::argument_not_needed</text>
<text text-anchor="start" x="310.11" y="-34" font-family="Helvetica,sans-Serif" font-size="10.00"> </text>
<text text-anchor="start" x="252.58" y="-20" font-family="Helvetica,sans-Serif" font-size="10.00">+</text>
<text text-anchor="start" x="262" y="-20" font-family="Helvetica,sans-Serif" font-size="10.00">argument_not_needed()</text>
<polygon fill="#666666" stroke="#666666" points="249,-44 249,-44 374,-44 374,-44 249,-44"/>
<polygon fill="#666666" stroke="#666666" points="249,-30 249,-30 374,-30 374,-30 249,-30"/>
<polygon fill="none" stroke="#666666" points="248.5,-14 248.5,-60 373.5,-60 373.5,-14 248.5,-14"/>
</a>
</g>
</g>
<!-- Node1&#45;&gt;Node6 -->
<g id="edge5_Node000001_Node000006" class="edge">
<title>Node1&#45;&gt;Node6</title>
<g id="a_edge5_Node000001_Node000006"><a xlink:title=" ">
<path fill="none" stroke="#63b8ff" d="M311,-99.7C311,-86.65 311,-71.91 311,-60.12"/>
<polygon fill="none" stroke="#63b8ff" points="307.5,-99.72 311,-109.72 314.5,-99.72 307.5,-99.72"/>
</a>
</g>
</g>
<!-- Node7 -->
<g id="Node000007" class="node">
<title>Node7</title>
<g id="a_Node000007"><a xlink:href="structcli_1_1option__not__found.html" target="_top" xlink:title=" ">
<polygon fill="white" stroke="transparent" points="494,-60 392,-60 392,-14 494,-14 494,-60"/>
<text text-anchor="start" x="396.85" y="-48" font-family="Helvetica,sans-Serif" font-size="10.00">cli::option_not_found</text>
<text text-anchor="start" x="441.61" y="-34" font-family="Helvetica,sans-Serif" font-size="10.00"> </text>
<text text-anchor="start" x="396.08" y="-20" font-family="Helvetica,sans-Serif" font-size="10.00">+</text>
<text text-anchor="start" x="406" y="-20" font-family="Helvetica,sans-Serif" font-size="10.00">option_not_found()</text>
<polygon fill="#666666" stroke="#666666" points="392,-44 392,-44 494,-44 494,-44 392,-44"/>
<polygon fill="#666666" stroke="#666666" points="392,-30 392,-30 494,-30 494,-30 392,-30"/>
<polygon fill="none" stroke="#666666" points="392,-14 392,-60 494,-60 494,-14 392,-14"/>
</a>
</g>
</g>
<!-- Node1&#45;&gt;Node7 -->
<g id="edge6_Node000001_Node000007" class="edge">
<title>Node1&#45;&gt;Node7</title>
<g id="a_edge6_Node000001_Node000007"><a xlink:title=" ">
<path fill="none" stroke="#63b8ff" d="M350.12,-104.14C369.81,-90.12 393.34,-73.37 411.79,-60.23"/>
<polygon fill="none" stroke="#63b8ff" points="348.06,-101.31 341.95,-109.96 352.12,-107.01 348.06,-101.31"/>
</a>
</g>
</g>
<!-- Node8 -->
<g id="Node000008" class="node">
<title>Node8</title>
<g id="a_Node000008"><a xlink:href="structcli_1_1usage__error.html" target="_top" xlink:title=" ">
<polygon fill="white" stroke="transparent" points="590,-60 512,-60 512,-14 590,-14 590,-60"/>
<text text-anchor="start" x="516.54" y="-48" font-family="Helvetica,sans-Serif" font-size="10.00">cli::usage_error</text>
<text text-anchor="start" x="549.61" y="-34" font-family="Helvetica,sans-Serif" font-size="10.00"> </text>
<text text-anchor="start" x="549.61" y="-20" font-family="Helvetica,sans-Serif" font-size="10.00"> </text>
<polygon fill="#666666" stroke="#666666" points="512,-44 512,-44 590,-44 590,-44 512,-44"/>
<polygon fill="#666666" stroke="#666666" points="512,-30 512,-30 590,-30 590,-30 512,-30"/>
<polygon fill="none" stroke="#666666" points="512,-14 512,-60 590,-60 590,-14 512,-14"/>
</a>
</g>
</g>
<!-- Node1&#45;&gt;Node8 -->
<g id="edge7_Node000001_Node000008" class="edge">
<title>Node1&#45;&gt;Node8</title>
<g id="a_edge7_Node000001_Node000008"><a xlink:title=" ">
<path fill="none" stroke="#63b8ff" d="M360.04,-122.18C399.95,-113.04 456.98,-97.28 503,-74 510.53,-70.19 518.1,-65.19 524.93,-60.13"/>
<polygon fill="none" stroke="#63b8ff" points="359.03,-118.83 350.03,-124.42 360.55,-125.66 359.03,-118.83"/>
</a>
</g>
</g>
<!-- Node2 -->
<g id="Node000002" class="node">
<title>Node2</title>
<g id="a_Node000002"><a xlink:title=" ">
<polygon fill="white" stroke="transparent" points="355,-238 267,-238 267,-192 355,-192 355,-238"/>
<text text-anchor="start" x="271.54" y="-226" font-family="Helvetica,sans-Serif" font-size="10.00">std::runtime_error</text>
<text text-anchor="start" x="309.61" y="-212" font-family="Helvetica,sans-Serif" font-size="10.00"> </text>
<text text-anchor="start" x="309.61" y="-198" font-family="Helvetica,sans-Serif" font-size="10.00"> </text>
<polygon fill="#666666" stroke="#666666" points="267,-222 267,-222 355,-222 355,-222 267,-222"/>
<polygon fill="#666666" stroke="#666666" points="267,-208 267,-208 355,-208 355,-208 267,-208"/>
<polygon fill="none" stroke="#666666" points="267,-192 267,-238 355,-238 355,-192 267,-192"/>
</a>
</g>
</g>
<!-- Node2&#45;&gt;Node1 -->
<g id="edge1_Node000001_Node000002" class="edge">
<title>Node2&#45;&gt;Node1</title>
<g id="a_edge1_Node000001_Node000002"><a xlink:title=" ">
<path fill="none" stroke="#63b8ff" d="M311,-181.63C311,-173.08 311,-164.04 311,-156.16"/>
<polygon fill="none" stroke="#63b8ff" points="307.5,-181.72 311,-191.72 314.5,-181.72 307.5,-181.72"/>
</a>
</g>
</g>
<!-- Node3 -->
<g id="Node000003" class="node">
<title>Node3</title>
<g id="a_Node000003"><a xlink:title=" ">
<polygon fill="white" stroke="transparent" points="346.5,-320 275.5,-320 275.5,-274 346.5,-274 346.5,-320"/>
<text text-anchor="start" x="280.65" y="-308" font-family="Helvetica,sans-Serif" font-size="10.00">std::exception</text>
<text text-anchor="start" x="310.11" y="-294" font-family="Helvetica,sans-Serif" font-size="10.00"> </text>
<text text-anchor="start" x="310.11" y="-280" font-family="Helvetica,sans-Serif" font-size="10.00"> </text>
<polygon fill="#666666" stroke="#666666" points="276,-304 276,-304 347,-304 347,-304 276,-304"/>
<polygon fill="#666666" stroke="#666666" points="276,-290 276,-290 347,-290 347,-290 276,-290"/>
<polygon fill="none" stroke="#666666" points="275.5,-274 275.5,-320 346.5,-320 346.5,-274 275.5,-274"/>
</a>
</g>
</g>
<!-- Node3&#45;&gt;Node2 -->
<g id="edge2_Node000002_Node000003" class="edge">
<title>Node3&#45;&gt;Node2</title>
<g id="a_edge2_Node000002_Node000003"><a xlink:title=" ">
<path fill="none" stroke="#63b8ff" d="M311,-263.63C311,-255.08 311,-246.04 311,-238.16"/>
<polygon fill="none" stroke="#63b8ff" points="307.5,-263.72 311,-273.72 314.5,-263.72 307.5,-263.72"/>
</a>
</g>
</g>
</g>
</svg>
