<?xml version="1.0" encoding="UTF-8" standalone="no"?>
<!DOCTYPE svg PUBLIC "-//W3C//DTD SVG 1.1//EN"
 "http://www.w3.org/Graphics/SVG/1.1/DTD/svg11.dtd">
<!-- Generated by graphviz version 2.48.0 (20210717.1556)
 -->
<!-- Title: chapter Pages: 1 -->
<svg width="182pt" height="334pt"
 viewBox="0.00 0.00 181.50 334.00" xmlns="http://www.w3.org/2000/svg" xmlns:xlink="http://www.w3.org/1999/xlink">
<g id="graph0" class="graph" transform="scale(1 1) rotate(0) translate(4 330)">
<title>chapter</title>
<!-- Node1 -->
<g id="Node000001" class="node">
<title>Node1</title>
<g id="a_Node000001"><a xlink:title=" ">
<polygon fill="#999999" stroke="transparent" points="149.5,-132 17.5,-132 17.5,0 149.5,0 149.5,-132"/>
<text text-anchor="start" x="66.82" y="-120" font-family="Helvetica,sans-Serif" font-size="10.00">chapter</text>
<text text-anchor="start" x="82.11" y="-106" font-family="Helvetica,sans-Serif" font-size="10.00"> </text>
<text text-anchor="start" x="21.08" y="-92" font-family="Helvetica,sans-Serif" font-size="10.00">+</text>
<text text-anchor="start" x="30.5" y="-92" font-family="Helvetica,sans-Serif" font-size="10.00">chapter(String &amp;&amp;name)</text>
<text text-anchor="start" x="21.08" y="-78" font-family="Helvetica,sans-Serif" font-size="10.00">+</text>
<text text-anchor="start" x="30.5" y="-78" font-family="Helvetica,sans-Serif" font-size="10.00">void layout(separation</text>
<text text-anchor="start" x="30.5" y="-68" font-family="Helvetica,sans-Serif" font-size="10.00">_mode mode, const geom</text>
<text text-anchor="start" x="30.5" y="-58" font-family="Helvetica,sans-Serif" font-size="10.00">::size &amp;page_size)</text>
<text text-anchor="start" x="21.08" y="-44" font-family="Helvetica,sans-Serif" font-size="10.00">+</text>
<text text-anchor="start" x="30.5" y="-44" font-family="Helvetica,sans-Serif" font-size="10.00">auto add_blank_page</text>
<text text-anchor="start" x="30.5" y="-34" font-family="Helvetica,sans-Serif" font-size="10.00">(unsigned page_number)</text>
<text text-anchor="start" x="21.08" y="-20" font-family="Helvetica,sans-Serif" font-size="10.00">+</text>
<text text-anchor="start" x="30.5" y="-20" font-family="Helvetica,sans-Serif" font-size="10.00">auto pop_blank_page()</text>
<text text-anchor="start" x="21.08" y="-6" font-family="Helvetica,sans-Serif" font-size="10.00">+</text>
<text text-anchor="start" x="30.5" y="-6" font-family="Helvetica,sans-Serif" font-size="10.00">auto &amp; current_page()</text>
<polygon fill="#666666" stroke="#666666" points="17.5,-116 17.5,-116 149.5,-116 149.5,-116 17.5,-116"/>
<polygon fill="#666666" stroke="#666666" points="17.5,-102 17.5,-102 149.5,-102 149.5,-102 17.5,-102"/>
<polygon fill="none" stroke="#666666" points="17.5,0 17.5,-132 149.5,-132 149.5,0 17.5,0"/>
</a>
</g>
</g>
<!-- Node2 -->
<g id="Node000002" class="node">
<title>Node2</title>
<g id="a_Node000002"><a xlink:title=" ">
<polygon fill="white" stroke="transparent" points="79,-224 0,-224 0,-178 79,-178 79,-224"/>
<text text-anchor="start" x="5.44" y="-212" font-family="Helvetica,sans-Serif" font-size="10.00">std::vector&lt; T &gt;</text>
<text text-anchor="start" x="38.61" y="-198" font-family="Helvetica,sans-Serif" font-size="10.00"> </text>
<text text-anchor="start" x="38.61" y="-184" font-family="Helvetica,sans-Serif" font-size="10.00"> </text>
<polygon fill="#666666" stroke="#666666" points="0.5,-208 0.5,-208 79.5,-208 79.5,-208 0.5,-208"/>
<polygon fill="#666666" stroke="#666666" points="0.5,-194 0.5,-194 79.5,-194 79.5,-194 0.5,-194"/>
<polygon fill="none" stroke="#666666" points="0,-178 0,-224 79,-224 79,-178 0,-178"/>
</a>
</g>
</g>
<!-- Node2&#45;&gt;Node1 -->
<g id="edge1_Node000001_Node000002" class="edge">
<title>Node2&#45;&gt;Node1</title>
<g id="a_edge1_Node000001_Node000002"><a xlink:title=" ">
<path fill="none" stroke="#63b8ff" d="M50.11,-167.92C53.7,-157.08 57.84,-144.56 61.96,-132.11"/>
<polygon fill="none" stroke="#63b8ff" points="46.68,-167.15 46.86,-177.74 53.33,-169.34 46.68,-167.15"/>
</a>
</g>
</g>
<!-- Node3 -->
<g id="Node000003" class="node">
<title>Node3</title>
<g id="a_Node000003"><a xlink:title=" ">
<polygon fill="white" stroke="transparent" points="47.5,-321 31.5,-321 31.5,-275 47.5,-275 47.5,-321"/>
<text text-anchor="start" x="36.45" y="-309" font-family="Helvetica,sans-Serif" font-size="10.00">T</text>
<text text-anchor="start" x="38.11" y="-295" font-family="Helvetica,sans-Serif" font-size="10.00"> </text>
<text text-anchor="start" x="38.11" y="-281" font-family="Helvetica,sans-Serif" font-size="10.00"> </text>
<polygon fill="#666666" stroke="#666666" points="31.5,-305 31.5,-305 47.5,-305 47.5,-305 31.5,-305"/>
<polygon fill="#666666" stroke="#666666" points="31.5,-291 31.5,-291 47.5,-291 47.5,-291 31.5,-291"/>
<polygon fill="none" stroke="#666666" points="31.5,-275 31.5,-321 47.5,-321 47.5,-275 31.5,-275"/>
</a>
</g>
</g>
<!-- Node3&#45;&gt;Node2 -->
<g id="edge2_Node000002_Node000003" class="edge">
<title>Node3&#45;&gt;Node2</title>
<g id="a_edge2_Node000002_Node000003"><a xlink:title=" ">
<path fill="none" stroke="#63b8ff" d="M39.5,-274.97C39.5,-263.54 39.5,-249.32 39.5,-236.47"/>
<polygon fill="none" stroke="#63b8ff" points="39.5,-236.24 35.5,-230.24 39.5,-224.24 43.5,-230.24 39.5,-236.24"/>
</a>
</g>
<text text-anchor="middle" x="64.1" y="-244" font-family="Helvetica,sans-Serif" font-size="10.00" fill="grey"> +elements</text>
</g>
<!-- Node4 -->
<g id="Node000004" class="node">
<title>Node4</title>
<g id="a_Node000004"><a xlink:title=" ">
<polygon fill="white" stroke="transparent" points="161.5,-224 97.5,-224 97.5,-178 161.5,-178 161.5,-224"/>
<text text-anchor="start" x="102.26" y="-212" font-family="Helvetica,sans-Serif" font-size="10.00">std::u8string</text>
<text text-anchor="start" x="128.11" y="-198" font-family="Helvetica,sans-Serif" font-size="10.00"> </text>
<text text-anchor="start" x="128.11" y="-184" font-family="Helvetica,sans-Serif" font-size="10.00"> </text>
<polygon fill="#666666" stroke="#666666" points="97.5,-208 97.5,-208 161.5,-208 161.5,-208 97.5,-208"/>
<polygon fill="#666666" stroke="#666666" points="97.5,-194 97.5,-194 161.5,-194 161.5,-194 97.5,-194"/>
<polygon fill="none" stroke="#666666" points="97.5,-178 97.5,-224 161.5,-224 161.5,-178 97.5,-178"/>
</a>
</g>
</g>
<!-- Node4&#45;&gt;Node1 -->
<g id="edge3_Node000001_Node000004" class="edge">
<title>Node4&#45;&gt;Node1</title>
<g id="a_edge3_Node000001_Node000004"><a xlink:title=" ">
<path fill="none" stroke="#63b8ff" d="M121.8,-177.74C118.45,-168.06 114.31,-156.09 110,-143.63"/>
<polygon fill="none" stroke="#63b8ff" points="109.94,-143.45 104.2,-139.08 106.02,-132.11 111.76,-136.47 109.94,-143.45"/>
</a>
</g>
<text text-anchor="middle" x="132.32" y="-152" font-family="Helvetica,sans-Serif" font-size="10.00" fill="grey"> +name</text>
</g>
<!-- Node5 -->
<g id="Node000005" class="node">
<title>Node5</title>
<g id="a_Node000005"><a xlink:title=" ">
<polygon fill="white" stroke="transparent" points="173.5,-326 85.5,-326 85.5,-270 173.5,-270 173.5,-326"/>
<text text-anchor="start" x="90.45" y="-314" font-family="Helvetica,sans-Serif" font-size="10.00">std::basic_string&lt;</text>
<text text-anchor="start" x="112.96" y="-304" font-family="Helvetica,sans-Serif" font-size="10.00"> Char &gt;</text>
<text text-anchor="start" x="128.11" y="-290" font-family="Helvetica,sans-Serif" font-size="10.00"> </text>
<text text-anchor="start" x="128.11" y="-276" font-family="Helvetica,sans-Serif" font-size="10.00"> </text>
<polygon fill="#666666" stroke="#666666" points="85.5,-300 85.5,-300 173.5,-300 173.5,-300 85.5,-300"/>
<polygon fill="#666666" stroke="#666666" points="85.5,-286 85.5,-286 173.5,-286 173.5,-286 85.5,-286"/>
<polygon fill="none" stroke="#666666" points="85.5,-270 85.5,-326 173.5,-326 173.5,-270 85.5,-270"/>
</a>
</g>
</g>
<!-- Node5&#45;&gt;Node4 -->
<g id="edge4_Node000004_Node000005" class="edge">
<title>Node5&#45;&gt;Node4</title>
<g id="a_edge4_Node000004_Node000005"><a xlink:title=" ">
<path fill="none" stroke="#63b8ff" d="M129.5,-259.54C129.5,-247.54 129.5,-234.65 129.5,-224.11"/>
<polygon fill="none" stroke="#63b8ff" points="126,-259.78 129.5,-269.78 133,-259.78 126,-259.78"/>
</a>
</g>
</g>
</g>
</svg>
