<?xml version="1.0" encoding="UTF-8" standalone="no"?>
<!DOCTYPE svg PUBLIC "-//W3C//DTD SVG 1.1//EN"
 "http://www.w3.org/Graphics/SVG/1.1/DTD/svg11.dtd">
<!-- Generated by graphviz version 2.48.0 (20210717.1556)
 -->
<!-- Title: geom::point Pages: 1 -->
<svg width="105pt" height="102pt"
 viewBox="0.00 0.00 105.00 102.00" xmlns="http://www.w3.org/2000/svg" xmlns:xlink="http://www.w3.org/1999/xlink">
<g id="graph0" class="graph" transform="scale(1 1) rotate(0) translate(4 98)">
<title>geom::point</title>
<!-- Node1 -->
<g id="Node000001" class="node">
<title>Node1</title>
<g id="a_Node000001"><a xlink:title=" ">
<polygon fill="#999999" stroke="transparent" points="97,-94 0,-94 0,0 97,0 97,-94"/>
<text text-anchor="start" x="22.87" y="-82" font-family="Helvetica,sans-Serif" font-size="10.00">geom::point</text>
<text text-anchor="start" x="4.08" y="-68" font-family="Helvetica,sans-Serif" font-size="10.00">+</text>
<text text-anchor="start" x="13.5" y="-68" font-family="Helvetica,sans-Serif" font-size="10.00">std::size_t x</text>
<text text-anchor="start" x="4.08" y="-54" font-family="Helvetica,sans-Serif" font-size="10.00">+</text>
<text text-anchor="start" x="13.5" y="-54" font-family="Helvetica,sans-Serif" font-size="10.00">std::size_t y</text>
<text text-anchor="start" x="4.08" y="-40" font-family="Helvetica,sans-Serif" font-size="10.00">+</text>
<text text-anchor="start" x="13.5" y="-40" font-family="Helvetica,sans-Serif" font-size="10.00">point()</text>
<text text-anchor="start" x="4.08" y="-26" font-family="Helvetica,sans-Serif" font-size="10.00">+</text>
<text text-anchor="start" x="13.5" y="-26" font-family="Helvetica,sans-Serif" font-size="10.00">point(std::size_t</text>
<text text-anchor="start" x="13.5" y="-16" font-family="Helvetica,sans-Serif" font-size="10.00"> x_pos, std::size_t</text>
<text text-anchor="start" x="13.5" y="-6" font-family="Helvetica,sans-Serif" font-size="10.00"> y_pos)</text>
<polygon fill="#666666" stroke="#666666" points="0.5,-78 0.5,-78 97.5,-78 97.5,-78 0.5,-78"/>
<polygon fill="#666666" stroke="#666666" points="0.5,-50 0.5,-50 11.5,-50 11.5,-50 0.5,-50"/>
<polygon fill="#666666" stroke="#666666" points="11.5,-50 11.5,-50 97.5,-50 97.5,-50 11.5,-50"/>
<polygon fill="none" stroke="#666666" points="0,0 0,-94 97,-94 97,0 0,0"/>
</a>
</g>
</g>
</g>
</svg>
