<?xml version="1.0" encoding="UTF-8" standalone="no"?>
<!DOCTYPE svg PUBLIC "-//W3C//DTD SVG 1.1//EN"
 "http://www.w3.org/Graphics/SVG/1.1/DTD/svg11.dtd">
<!-- Generated by graphviz version 2.48.0 (20210717.1556)
 -->
<!-- Title: cli::option_not_found Pages: 1 -->
<svg width="110pt" height="300pt"
 viewBox="0.00 0.00 110.00 300.00" xmlns="http://www.w3.org/2000/svg" xmlns:xlink="http://www.w3.org/1999/xlink">
<g id="graph0" class="graph" transform="scale(1 1) rotate(0) translate(4 296)">
<title>cli::option_not_found</title>
<!-- Node1 -->
<g id="Node000001" class="node">
<title>Node1</title>
<g id="a_Node000001"><a xlink:title=" ">
<polygon fill="#999999" stroke="transparent" points="102,-46 0,-46 0,0 102,0 102,-46"/>
<text text-anchor="start" x="4.85" y="-34" font-family="Helvetica,sans-Serif" font-size="10.00">cli::option_not_found</text>
<text text-anchor="start" x="49.61" y="-20" font-family="Helvetica,sans-Serif" font-size="10.00"> </text>
<text text-anchor="start" x="4.08" y="-6" font-family="Helvetica,sans-Serif" font-size="10.00">+</text>
<text text-anchor="start" x="14" y="-6" font-family="Helvetica,sans-Serif" font-size="10.00">option_not_found()</text>
<polygon fill="#666666" stroke="#666666" points="0,-30 0,-30 102,-30 102,-30 0,-30"/>
<polygon fill="#666666" stroke="#666666" points="0,-16 0,-16 102,-16 102,-16 0,-16"/>
<polygon fill="none" stroke="#666666" points="0,0 0,-46 102,-46 102,0 0,0"/>
</a>
</g>
</g>
<!-- Node2 -->
<g id="Node000002" class="node">
<title>Node2</title>
<g id="a_Node000002"><a xlink:href="structcli_1_1option__error.html" target="_top" xlink:title=" ">
<polygon fill="white" stroke="transparent" points="90,-128 12,-128 12,-82 90,-82 90,-128"/>
<text text-anchor="start" x="16.54" y="-116" font-family="Helvetica,sans-Serif" font-size="10.00">cli::option_error</text>
<text text-anchor="start" x="49.61" y="-102" font-family="Helvetica,sans-Serif" font-size="10.00"> </text>
<text text-anchor="start" x="49.61" y="-88" font-family="Helvetica,sans-Serif" font-size="10.00"> </text>
<polygon fill="#666666" stroke="#666666" points="12,-112 12,-112 90,-112 90,-112 12,-112"/>
<polygon fill="#666666" stroke="#666666" points="12,-98 12,-98 90,-98 90,-98 12,-98"/>
<polygon fill="none" stroke="#666666" points="12,-82 12,-128 90,-128 90,-82 12,-82"/>
</a>
</g>
</g>
<!-- Node2&#45;&gt;Node1 -->
<g id="edge1_Node000001_Node000002" class="edge">
<title>Node2&#45;&gt;Node1</title>
<g id="a_edge1_Node000001_Node000002"><a xlink:title=" ">
<path fill="none" stroke="#63b8ff" d="M51,-71.63C51,-63.08 51,-54.04 51,-46.16"/>
<polygon fill="none" stroke="#63b8ff" points="47.5,-71.72 51,-81.72 54.5,-71.72 47.5,-71.72"/>
</a>
</g>
</g>
<!-- Node3 -->
<g id="Node000003" class="node">
<title>Node3</title>
<g id="a_Node000003"><a xlink:title=" ">
<polygon fill="white" stroke="transparent" points="95,-210 7,-210 7,-164 95,-164 95,-210"/>
<text text-anchor="start" x="11.54" y="-198" font-family="Helvetica,sans-Serif" font-size="10.00">std::runtime_error</text>
<text text-anchor="start" x="49.61" y="-184" font-family="Helvetica,sans-Serif" font-size="10.00"> </text>
<text text-anchor="start" x="49.61" y="-170" font-family="Helvetica,sans-Serif" font-size="10.00"> </text>
<polygon fill="#666666" stroke="#666666" points="7,-194 7,-194 95,-194 95,-194 7,-194"/>
<polygon fill="#666666" stroke="#666666" points="7,-180 7,-180 95,-180 95,-180 7,-180"/>
<polygon fill="none" stroke="#666666" points="7,-164 7,-210 95,-210 95,-164 7,-164"/>
</a>
</g>
</g>
<!-- Node3&#45;&gt;Node2 -->
<g id="edge2_Node000002_Node000003" class="edge">
<title>Node3&#45;&gt;Node2</title>
<g id="a_edge2_Node000002_Node000003"><a xlink:title=" ">
<path fill="none" stroke="#63b8ff" d="M51,-153.63C51,-145.08 51,-136.04 51,-128.16"/>
<polygon fill="none" stroke="#63b8ff" points="47.5,-153.72 51,-163.72 54.5,-153.72 47.5,-153.72"/>
</a>
</g>
</g>
<!-- Node4 -->
<g id="Node000004" class="node">
<title>Node4</title>
<g id="a_Node000004"><a xlink:title=" ">
<polygon fill="white" stroke="transparent" points="86.5,-292 15.5,-292 15.5,-246 86.5,-246 86.5,-292"/>
<text text-anchor="start" x="20.65" y="-280" font-family="Helvetica,sans-Serif" font-size="10.00">std::exception</text>
<text text-anchor="start" x="50.11" y="-266" font-family="Helvetica,sans-Serif" font-size="10.00"> </text>
<text text-anchor="start" x="50.11" y="-252" font-family="Helvetica,sans-Serif" font-size="10.00"> </text>
<polygon fill="#666666" stroke="#666666" points="16,-276 16,-276 87,-276 87,-276 16,-276"/>
<polygon fill="#666666" stroke="#666666" points="16,-262 16,-262 87,-262 87,-262 16,-262"/>
<polygon fill="none" stroke="#666666" points="15.5,-246 15.5,-292 86.5,-292 86.5,-246 15.5,-246"/>
</a>
</g>
</g>
<!-- Node4&#45;&gt;Node3 -->
<g id="edge3_Node000003_Node000004" class="edge">
<title>Node4&#45;&gt;Node3</title>
<g id="a_edge3_Node000003_Node000004"><a xlink:title=" ">
<path fill="none" stroke="#63b8ff" d="M51,-235.63C51,-227.08 51,-218.04 51,-210.16"/>
<polygon fill="none" stroke="#63b8ff" points="47.5,-235.72 51,-245.72 54.5,-235.72 47.5,-235.72"/>
</a>
</g>
</g>
</g>
</svg>
