<?xml version="1.0" encoding="UTF-8" standalone="no"?>
<!DOCTYPE svg PUBLIC "-//W3C//DTD SVG 1.1//EN"
 "http://www.w3.org/Graphics/SVG/1.1/DTD/svg11.dtd">
<!-- Generated by graphviz version 2.48.0 (20210717.1556)
 -->
<!-- Title: epub::file_metadata Pages: 1 -->
<svg width="105pt" height="164pt"
 viewBox="0.00 0.00 105.00 164.00" xmlns="http://www.w3.org/2000/svg" xmlns:xlink="http://www.w3.org/1999/xlink">
<g id="graph0" class="graph" transform="scale(1 1) rotate(0) translate(4 160)">
<title>epub::file_metadata</title>
<!-- Node1 -->
<g id="Node000001" class="node">
<title>Node1</title>
<g id="a_Node000001"><a xlink:title="A class for managing metadata key&#45;value pairs.">
<polygon fill="#999999" stroke="transparent" points="97,-60 0,-60 0,0 97,0 97,-60"/>
<text text-anchor="start" x="5.08" y="-48" font-family="Helvetica,sans-Serif" font-size="10.00">epub::file_metadata</text>
<text text-anchor="start" x="47.61" y="-34" font-family="Helvetica,sans-Serif" font-size="10.00"> </text>
<text text-anchor="start" x="19.08" y="-20" font-family="Helvetica,sans-Serif" font-size="10.00">+</text>
<text text-anchor="start" x="43.5" y="-20" font-family="Helvetica,sans-Serif" font-size="10.00">get()</text>
<text text-anchor="start" x="19.08" y="-6" font-family="Helvetica,sans-Serif" font-size="10.00">+</text>
<text text-anchor="start" x="43.5" y="-6" font-family="Helvetica,sans-Serif" font-size="10.00">get()</text>
<polygon fill="#666666" stroke="#666666" points="0.5,-44 0.5,-44 97.5,-44 97.5,-44 0.5,-44"/>
<polygon fill="#666666" stroke="#666666" points="0.5,-30 0.5,-30 97.5,-30 97.5,-30 0.5,-30"/>
<polygon fill="none" stroke="#666666" points="0,0 0,-60 97,-60 97,0 0,0"/>
</a>
</g>
</g>
<!-- Node2 -->
<g id="Node000002" class="node">
<title>Node2</title>
<g id="a_Node000002"><a xlink:title=" ">
<polygon fill="white" stroke="transparent" points="90,-156 7,-156 7,-96 90,-96 90,-156"/>
<text text-anchor="start" x="12.22" y="-144" font-family="Helvetica,sans-Serif" font-size="10.00">std::map&lt; K, T &gt;</text>
<text text-anchor="start" x="17.58" y="-130" font-family="Helvetica,sans-Serif" font-size="10.00">+</text>
<text text-anchor="start" x="33.5" y="-130" font-family="Helvetica,sans-Serif" font-size="10.00">keys</text>
<text text-anchor="start" x="17.58" y="-116" font-family="Helvetica,sans-Serif" font-size="10.00">+</text>
<text text-anchor="start" x="33.5" y="-116" font-family="Helvetica,sans-Serif" font-size="10.00">elements</text>
<text text-anchor="start" x="47.61" y="-102" font-family="Helvetica,sans-Serif" font-size="10.00"> </text>
<polygon fill="#666666" stroke="#666666" points="7.5,-140 7.5,-140 90.5,-140 90.5,-140 7.5,-140"/>
<polygon fill="#666666" stroke="#666666" points="7.5,-112 7.5,-112 31.5,-112 31.5,-112 7.5,-112"/>
<polygon fill="#666666" stroke="#666666" points="31.5,-112 31.5,-112 90.5,-112 90.5,-112 31.5,-112"/>
<polygon fill="none" stroke="#666666" points="7,-96 7,-156 90,-156 90,-96 7,-96"/>
</a>
</g>
</g>
<!-- Node2&#45;&gt;Node1 -->
<g id="edge1_Node000001_Node000002" class="edge">
<title>Node2&#45;&gt;Node1</title>
<g id="a_edge1_Node000001_Node000002"><a xlink:title=" ">
<path fill="none" stroke="#63b8ff" d="M48.5,-85.63C48.5,-77.11 48.5,-68.25 48.5,-60.21"/>
<polygon fill="none" stroke="#63b8ff" points="45,-85.77 48.5,-95.77 52,-85.77 45,-85.77"/>
</a>
</g>
</g>
</g>
</svg>
