<?xml version="1.0" encoding="UTF-8" standalone="no"?>
<!DOCTYPE svg PUBLIC "-//W3C//DTD SVG 1.1//EN"
 "http://www.w3.org/Graphics/SVG/1.1/DTD/svg11.dtd">
<!-- Generated by graphviz version 2.48.0 (20210717.1556)
 -->
<!-- Title: chapter Pages: 1 -->
<svg width="182pt" height="304pt"
 viewBox="0.00 0.00 181.50 304.00" xmlns="http://www.w3.org/2000/svg" xmlns:xlink="http://www.w3.org/1999/xlink">
<g id="graph0" class="graph" transform="scale(1 1) rotate(0) translate(4 300)">
<title>chapter</title>
<!-- Node1 -->
<g id="Node000001" class="node">
<title>Node1</title>
<g id="a_Node000001"><a xlink:title=" ">
<polygon fill="#999999" stroke="transparent" points="132,-102 35,-102 35,0 132,0 132,-102"/>
<text text-anchor="start" x="67.32" y="-90" font-family="Helvetica,sans-Serif" font-size="10.00">chapter</text>
<text text-anchor="start" x="82.61" y="-76" font-family="Helvetica,sans-Serif" font-size="10.00"> </text>
<text text-anchor="start" x="39.08" y="-62" font-family="Helvetica,sans-Serif" font-size="10.00">+</text>
<text text-anchor="start" x="48.5" y="-62" font-family="Helvetica,sans-Serif" font-size="10.00">chapter()</text>
<text text-anchor="start" x="39.08" y="-48" font-family="Helvetica,sans-Serif" font-size="10.00">+</text>
<text text-anchor="start" x="48.5" y="-48" font-family="Helvetica,sans-Serif" font-size="10.00">layout()</text>
<text text-anchor="start" x="39.08" y="-34" font-family="Helvetica,sans-Serif" font-size="10.00">+</text>
<text text-anchor="start" x="48.5" y="-34" font-family="Helvetica,sans-Serif" font-size="10.00">add_blank_page()</text>
<text text-anchor="start" x="39.08" y="-20" font-family="Helvetica,sans-Serif" font-size="10.00">+</text>
<text text-anchor="start" x="48.5" y="-20" font-family="Helvetica,sans-Serif" font-size="10.00">pop_blank_page()</text>
<text text-anchor="start" x="39.08" y="-6" font-family="Helvetica,sans-Serif" font-size="10.00">+</text>
<text text-anchor="start" x="48.5" y="-6" font-family="Helvetica,sans-Serif" font-size="10.00">current_page()</text>
<polygon fill="#666666" stroke="#666666" points="35.5,-86 35.5,-86 132.5,-86 132.5,-86 35.5,-86"/>
<polygon fill="#666666" stroke="#666666" points="35.5,-72 35.5,-72 132.5,-72 132.5,-72 35.5,-72"/>
<polygon fill="none" stroke="#666666" points="35,0 35,-102 132,-102 132,0 35,0"/>
</a>
</g>
</g>
<!-- Node2 -->
<g id="Node000002" class="node">
<title>Node2</title>
<g id="a_Node000002"><a xlink:title=" ">
<polygon fill="white" stroke="transparent" points="79,-194 0,-194 0,-148 79,-148 79,-194"/>
<text text-anchor="start" x="5.44" y="-182" font-family="Helvetica,sans-Serif" font-size="10.00">std::vector&lt; T &gt;</text>
<text text-anchor="start" x="38.61" y="-168" font-family="Helvetica,sans-Serif" font-size="10.00"> </text>
<text text-anchor="start" x="38.61" y="-154" font-family="Helvetica,sans-Serif" font-size="10.00"> </text>
<polygon fill="#666666" stroke="#666666" points="0.5,-178 0.5,-178 79.5,-178 79.5,-178 0.5,-178"/>
<polygon fill="#666666" stroke="#666666" points="0.5,-164 0.5,-164 79.5,-164 79.5,-164 0.5,-164"/>
<polygon fill="none" stroke="#666666" points="0,-148 0,-194 79,-194 79,-148 0,-148"/>
</a>
</g>
</g>
<!-- Node2&#45;&gt;Node1 -->
<g id="edge1_Node000001_Node000002" class="edge">
<title>Node2&#45;&gt;Node1</title>
<g id="a_edge1_Node000001_Node000002"><a xlink:title=" ">
<path fill="none" stroke="#63b8ff" d="M51.35,-138.22C55.45,-127.22 60.16,-114.6 64.68,-102.47"/>
<polygon fill="none" stroke="#63b8ff" points="47.99,-137.21 47.78,-147.81 54.55,-139.66 47.99,-137.21"/>
</a>
</g>
</g>
<!-- Node3 -->
<g id="Node000003" class="node">
<title>Node3</title>
<g id="a_Node000003"><a xlink:title=" ">
<polygon fill="white" stroke="transparent" points="47.5,-291 31.5,-291 31.5,-245 47.5,-245 47.5,-291"/>
<text text-anchor="start" x="36.45" y="-279" font-family="Helvetica,sans-Serif" font-size="10.00">T</text>
<text text-anchor="start" x="38.11" y="-265" font-family="Helvetica,sans-Serif" font-size="10.00"> </text>
<text text-anchor="start" x="38.11" y="-251" font-family="Helvetica,sans-Serif" font-size="10.00"> </text>
<polygon fill="#666666" stroke="#666666" points="31.5,-275 31.5,-275 47.5,-275 47.5,-275 31.5,-275"/>
<polygon fill="#666666" stroke="#666666" points="31.5,-261 31.5,-261 47.5,-261 47.5,-261 31.5,-261"/>
<polygon fill="none" stroke="#666666" points="31.5,-245 31.5,-291 47.5,-291 47.5,-245 31.5,-245"/>
</a>
</g>
</g>
<!-- Node3&#45;&gt;Node2 -->
<g id="edge2_Node000002_Node000003" class="edge">
<title>Node3&#45;&gt;Node2</title>
<g id="a_edge2_Node000002_Node000003"><a xlink:title=" ">
<path fill="none" stroke="#63b8ff" d="M39.5,-244.97C39.5,-233.54 39.5,-219.32 39.5,-206.47"/>
<polygon fill="none" stroke="#63b8ff" points="39.5,-206.24 35.5,-200.24 39.5,-194.24 43.5,-200.24 39.5,-206.24"/>
</a>
</g>
<text text-anchor="middle" x="64.1" y="-214" font-family="Helvetica,sans-Serif" font-size="10.00" fill="grey"> +elements</text>
</g>
<!-- Node4 -->
<g id="Node000004" class="node">
<title>Node4</title>
<g id="a_Node000004"><a xlink:title=" ">
<polygon fill="white" stroke="transparent" points="161.5,-194 97.5,-194 97.5,-148 161.5,-148 161.5,-194"/>
<text text-anchor="start" x="102.26" y="-182" font-family="Helvetica,sans-Serif" font-size="10.00">std::u8string</text>
<text text-anchor="start" x="128.11" y="-168" font-family="Helvetica,sans-Serif" font-size="10.00"> </text>
<text text-anchor="start" x="128.11" y="-154" font-family="Helvetica,sans-Serif" font-size="10.00"> </text>
<polygon fill="#666666" stroke="#666666" points="97.5,-178 97.5,-178 161.5,-178 161.5,-178 97.5,-178"/>
<polygon fill="#666666" stroke="#666666" points="97.5,-164 97.5,-164 161.5,-164 161.5,-164 97.5,-164"/>
<polygon fill="none" stroke="#666666" points="97.5,-148 97.5,-194 161.5,-194 161.5,-148 97.5,-148"/>
</a>
</g>
</g>
<!-- Node4&#45;&gt;Node1 -->
<g id="edge3_Node000001_Node000004" class="edge">
<title>Node4&#45;&gt;Node1</title>
<g id="a_edge3_Node000001_Node000004"><a xlink:title=" ">
<path fill="none" stroke="#63b8ff" d="M120.85,-147.81C117.02,-137.99 112.31,-125.92 107.55,-113.69"/>
<polygon fill="none" stroke="#63b8ff" points="107.53,-113.65 101.63,-109.51 103.17,-102.47 109.08,-106.61 107.53,-113.65"/>
</a>
</g>
<text text-anchor="middle" x="130.32" y="-122" font-family="Helvetica,sans-Serif" font-size="10.00" fill="grey"> +name</text>
</g>
<!-- Node5 -->
<g id="Node000005" class="node">
<title>Node5</title>
<g id="a_Node000005"><a xlink:title=" ">
<polygon fill="white" stroke="transparent" points="173.5,-296 85.5,-296 85.5,-240 173.5,-240 173.5,-296"/>
<text text-anchor="start" x="90.45" y="-284" font-family="Helvetica,sans-Serif" font-size="10.00">std::basic_string&lt;</text>
<text text-anchor="start" x="112.96" y="-274" font-family="Helvetica,sans-Serif" font-size="10.00"> Char &gt;</text>
<text text-anchor="start" x="128.11" y="-260" font-family="Helvetica,sans-Serif" font-size="10.00"> </text>
<text text-anchor="start" x="128.11" y="-246" font-family="Helvetica,sans-Serif" font-size="10.00"> </text>
<polygon fill="#666666" stroke="#666666" points="85.5,-270 85.5,-270 173.5,-270 173.5,-270 85.5,-270"/>
<polygon fill="#666666" stroke="#666666" points="85.5,-256 85.5,-256 173.5,-256 173.5,-256 85.5,-256"/>
<polygon fill="none" stroke="#666666" points="85.5,-240 85.5,-296 173.5,-296 173.5,-240 85.5,-240"/>
</a>
</g>
</g>
<!-- Node5&#45;&gt;Node4 -->
<g id="edge4_Node000004_Node000005" class="edge">
<title>Node5&#45;&gt;Node4</title>
<g id="a_edge4_Node000004_Node000005"><a xlink:title=" ">
<path fill="none" stroke="#63b8ff" d="M129.5,-229.54C129.5,-217.54 129.5,-204.65 129.5,-194.11"/>
<polygon fill="none" stroke="#63b8ff" points="126,-229.78 129.5,-239.78 133,-229.78 126,-229.78"/>
</a>
</g>
</g>
</g>
</svg>
