<?xml version="1.0" encoding="UTF-8" standalone="no"?>
<!DOCTYPE svg PUBLIC "-//W3C//DTD SVG 1.1//EN"
 "http://www.w3.org/Graphics/SVG/1.1/DTD/svg11.dtd">
<!-- Generated by graphviz version 2.48.0 (20210717.1556)
 -->
<!-- Title: epub::xml::xpath::context Pages: 1 -->
<svg width="129pt" height="146pt"
 viewBox="0.00 0.00 129.00 146.00" xmlns="http://www.w3.org/2000/svg" xmlns:xlink="http://www.w3.org/1999/xlink">
<g id="graph0" class="graph" transform="scale(1 1) rotate(0) translate(4 142)">
<title>epub::xml::xpath::context</title>
<!-- Node1 -->
<g id="Node000001" class="node">
<title>Node1</title>
<g id="a_Node000001"><a xlink:title=" ">
<polygon fill="#999999" stroke="transparent" points="121,-56 0,-56 0,0 121,0 121,-56"/>
<text text-anchor="start" x="5.41" y="-44" font-family="Helvetica,sans-Serif" font-size="10.00">epub::xml::xpath::context</text>
<text text-anchor="start" x="7.08" y="-30" font-family="Helvetica,sans-Serif" font-size="10.00">+</text>
<text text-anchor="start" x="19.5" y="-30" font-family="Helvetica,sans-Serif" font-size="10.00">static constexpr auto</text>
<text text-anchor="start" x="19.5" y="-20" font-family="Helvetica,sans-Serif" font-size="10.00"> deleter</text>
<text text-anchor="start" x="59.61" y="-6" font-family="Helvetica,sans-Serif" font-size="10.00"> </text>
<polygon fill="#666666" stroke="#666666" points="0.5,-40 0.5,-40 121.5,-40 121.5,-40 0.5,-40"/>
<polygon fill="#666666" stroke="#666666" points="0.5,-16 0.5,-16 17.5,-16 17.5,-16 0.5,-16"/>
<polygon fill="#666666" stroke="#666666" points="17.5,-16 17.5,-16 121.5,-16 121.5,-16 17.5,-16"/>
<polygon fill="none" stroke="#666666" points="0,0 0,-56 121,-56 121,0 0,0"/>
</a>
</g>
</g>
<!-- Node2 -->
<g id="Node000002" class="node">
<title>Node2</title>
<g id="a_Node000002"><a xlink:title=" ">
<polygon fill="white" stroke="transparent" points="104,-138 17,-138 17,-92 104,-92 104,-138"/>
<text text-anchor="start" x="22.37" y="-126" font-family="Helvetica,sans-Serif" font-size="10.00">xmlXPathContext</text>
<text text-anchor="start" x="59.61" y="-112" font-family="Helvetica,sans-Serif" font-size="10.00"> </text>
<text text-anchor="start" x="59.61" y="-98" font-family="Helvetica,sans-Serif" font-size="10.00"> </text>
<polygon fill="#666666" stroke="#666666" points="17.5,-122 17.5,-122 104.5,-122 104.5,-122 17.5,-122"/>
<polygon fill="#666666" stroke="#666666" points="17.5,-108 17.5,-108 104.5,-108 104.5,-108 17.5,-108"/>
<polygon fill="none" stroke="#666666" points="17,-92 17,-138 104,-138 104,-92 17,-92"/>
</a>
</g>
</g>
<!-- Node2&#45;&gt;Node1 -->
<g id="edge1_Node000001_Node000002" class="edge">
<title>Node2&#45;&gt;Node1</title>
<g id="a_edge1_Node000001_Node000002"><a xlink:title=" ">
<path fill="none" stroke="#63b8ff" d="M60.5,-81.44C60.5,-73.05 60.5,-64.11 60.5,-56.03"/>
<polygon fill="none" stroke="#63b8ff" points="57,-81.67 60.5,-91.67 64,-81.67 57,-81.67"/>
</a>
</g>
</g>
</g>
</svg>
