<?xml version="1.0" encoding="UTF-8" standalone="no"?>
<!DOCTYPE svg PUBLIC "-//W3C//DTD SVG 1.1//EN"
 "http://www.w3.org/Graphics/SVG/1.1/DTD/svg11.dtd">
<!-- Generated by graphviz version 2.48.0 (20210717.1556)
 -->
<!-- Title: cli::option_not_found Pages: 1 -->
<svg width="131pt" height="310pt"
 viewBox="0.00 0.00 131.00 310.00" xmlns="http://www.w3.org/2000/svg" xmlns:xlink="http://www.w3.org/1999/xlink">
<g id="graph0" class="graph" transform="scale(1 1) rotate(0) translate(4 306)">
<title>cli::option_not_found</title>
<!-- Node1 -->
<g id="Node000001" class="node">
<title>Node1</title>
<g id="a_Node000001"><a xlink:title=" ">
<polygon fill="#999999" stroke="transparent" points="123,-56 0,-56 0,0 123,0 123,-56"/>
<text text-anchor="start" x="15.85" y="-44" font-family="Helvetica,sans-Serif" font-size="10.00">cli::option_not_found</text>
<text text-anchor="start" x="60.61" y="-30" font-family="Helvetica,sans-Serif" font-size="10.00"> </text>
<text text-anchor="start" x="4.08" y="-16" font-family="Helvetica,sans-Serif" font-size="10.00">+</text>
<text text-anchor="start" x="13.5" y="-16" font-family="Helvetica,sans-Serif" font-size="10.00">option_not_found(String</text>
<text text-anchor="start" x="13.5" y="-6" font-family="Helvetica,sans-Serif" font-size="10.00">Like &amp;&amp;s)</text>
<polygon fill="#666666" stroke="#666666" points="0.5,-40 0.5,-40 123.5,-40 123.5,-40 0.5,-40"/>
<polygon fill="#666666" stroke="#666666" points="0.5,-26 0.5,-26 123.5,-26 123.5,-26 0.5,-26"/>
<polygon fill="none" stroke="#666666" points="0,0 0,-56 123,-56 123,0 0,0"/>
</a>
</g>
</g>
<!-- Node2 -->
<g id="Node000002" class="node">
<title>Node2</title>
<g id="a_Node000002"><a xlink:href="structcli_1_1option__error.html" target="_top" xlink:title=" ">
<polygon fill="white" stroke="transparent" points="100.5,-138 22.5,-138 22.5,-92 100.5,-92 100.5,-138"/>
<text text-anchor="start" x="27.04" y="-126" font-family="Helvetica,sans-Serif" font-size="10.00">cli::option_error</text>
<text text-anchor="start" x="60.11" y="-112" font-family="Helvetica,sans-Serif" font-size="10.00"> </text>
<text text-anchor="start" x="60.11" y="-98" font-family="Helvetica,sans-Serif" font-size="10.00"> </text>
<polygon fill="#666666" stroke="#666666" points="22.5,-122 22.5,-122 100.5,-122 100.5,-122 22.5,-122"/>
<polygon fill="#666666" stroke="#666666" points="22.5,-108 22.5,-108 100.5,-108 100.5,-108 22.5,-108"/>
<polygon fill="none" stroke="#666666" points="22.5,-92 22.5,-138 100.5,-138 100.5,-92 22.5,-92"/>
</a>
</g>
</g>
<!-- Node2&#45;&gt;Node1 -->
<g id="edge1_Node000001_Node000002" class="edge">
<title>Node2&#45;&gt;Node1</title>
<g id="a_edge1_Node000001_Node000002"><a xlink:title=" ">
<path fill="none" stroke="#63b8ff" d="M61.5,-81.44C61.5,-73.05 61.5,-64.11 61.5,-56.03"/>
<polygon fill="none" stroke="#63b8ff" points="58,-81.67 61.5,-91.67 65,-81.67 58,-81.67"/>
</a>
</g>
</g>
<!-- Node3 -->
<g id="Node000003" class="node">
<title>Node3</title>
<g id="a_Node000003"><a xlink:title=" ">
<polygon fill="white" stroke="transparent" points="105.5,-220 17.5,-220 17.5,-174 105.5,-174 105.5,-220"/>
<text text-anchor="start" x="22.04" y="-208" font-family="Helvetica,sans-Serif" font-size="10.00">std::runtime_error</text>
<text text-anchor="start" x="60.11" y="-194" font-family="Helvetica,sans-Serif" font-size="10.00"> </text>
<text text-anchor="start" x="60.11" y="-180" font-family="Helvetica,sans-Serif" font-size="10.00"> </text>
<polygon fill="#666666" stroke="#666666" points="17.5,-204 17.5,-204 105.5,-204 105.5,-204 17.5,-204"/>
<polygon fill="#666666" stroke="#666666" points="17.5,-190 17.5,-190 105.5,-190 105.5,-190 17.5,-190"/>
<polygon fill="none" stroke="#666666" points="17.5,-174 17.5,-220 105.5,-220 105.5,-174 17.5,-174"/>
</a>
</g>
</g>
<!-- Node3&#45;&gt;Node2 -->
<g id="edge2_Node000002_Node000003" class="edge">
<title>Node3&#45;&gt;Node2</title>
<g id="a_edge2_Node000002_Node000003"><a xlink:title=" ">
<path fill="none" stroke="#63b8ff" d="M61.5,-163.63C61.5,-155.08 61.5,-146.04 61.5,-138.16"/>
<polygon fill="none" stroke="#63b8ff" points="58,-163.72 61.5,-173.72 65,-163.72 58,-163.72"/>
</a>
</g>
</g>
<!-- Node4 -->
<g id="Node000004" class="node">
<title>Node4</title>
<g id="a_Node000004"><a xlink:title=" ">
<polygon fill="white" stroke="transparent" points="97,-302 26,-302 26,-256 97,-256 97,-302"/>
<text text-anchor="start" x="31.15" y="-290" font-family="Helvetica,sans-Serif" font-size="10.00">std::exception</text>
<text text-anchor="start" x="60.61" y="-276" font-family="Helvetica,sans-Serif" font-size="10.00"> </text>
<text text-anchor="start" x="60.61" y="-262" font-family="Helvetica,sans-Serif" font-size="10.00"> </text>
<polygon fill="#666666" stroke="#666666" points="26.5,-286 26.5,-286 97.5,-286 97.5,-286 26.5,-286"/>
<polygon fill="#666666" stroke="#666666" points="26.5,-272 26.5,-272 97.5,-272 97.5,-272 26.5,-272"/>
<polygon fill="none" stroke="#666666" points="26,-256 26,-302 97,-302 97,-256 26,-256"/>
</a>
</g>
</g>
<!-- Node4&#45;&gt;Node3 -->
<g id="edge3_Node000003_Node000004" class="edge">
<title>Node4&#45;&gt;Node3</title>
<g id="a_edge3_Node000003_Node000004"><a xlink:title=" ">
<path fill="none" stroke="#63b8ff" d="M61.5,-245.63C61.5,-237.08 61.5,-228.04 61.5,-220.16"/>
<polygon fill="none" stroke="#63b8ff" points="58,-245.72 61.5,-255.72 65,-245.72 58,-245.72"/>
</a>
</g>
</g>
</g>
</svg>
