<?xml version="1.0" encoding="UTF-8" standalone="no"?>
<!DOCTYPE svg PUBLIC "-//W3C//DTD SVG 1.1//EN"
 "http://www.w3.org/Graphics/SVG/1.1/DTD/svg11.dtd">
<!-- Generated by graphviz version 2.48.0 (20210717.1556)
 -->
<!-- Title: geom::point Pages: 1 -->
<svg width="128pt" height="390pt"
 viewBox="0.00 0.00 128.00 390.00" xmlns="http://www.w3.org/2000/svg" xmlns:xlink="http://www.w3.org/1999/xlink">
<g id="graph0" class="graph" transform="scale(1 1) rotate(0) translate(4 386)">
<title>geom::point</title>
<!-- Node1 -->
<g id="Node000001" class="node">
<title>Node1</title>
<g id="a_Node000001"><a xlink:title=" ">
<polygon fill="#999999" stroke="transparent" points="108.5,-382 11.5,-382 11.5,-288 108.5,-288 108.5,-382"/>
<text text-anchor="start" x="34.37" y="-370" font-family="Helvetica,sans-Serif" font-size="10.00">geom::point</text>
<text text-anchor="start" x="15.58" y="-356" font-family="Helvetica,sans-Serif" font-size="10.00">+</text>
<text text-anchor="start" x="25" y="-356" font-family="Helvetica,sans-Serif" font-size="10.00">std::size_t x</text>
<text text-anchor="start" x="15.58" y="-342" font-family="Helvetica,sans-Serif" font-size="10.00">+</text>
<text text-anchor="start" x="25" y="-342" font-family="Helvetica,sans-Serif" font-size="10.00">std::size_t y</text>
<text text-anchor="start" x="15.58" y="-328" font-family="Helvetica,sans-Serif" font-size="10.00">+</text>
<text text-anchor="start" x="25" y="-328" font-family="Helvetica,sans-Serif" font-size="10.00">point()</text>
<text text-anchor="start" x="15.58" y="-314" font-family="Helvetica,sans-Serif" font-size="10.00">+</text>
<text text-anchor="start" x="25" y="-314" font-family="Helvetica,sans-Serif" font-size="10.00">point(std::size_t</text>
<text text-anchor="start" x="25" y="-304" font-family="Helvetica,sans-Serif" font-size="10.00"> x_pos, std::size_t</text>
<text text-anchor="start" x="25" y="-294" font-family="Helvetica,sans-Serif" font-size="10.00"> y_pos)</text>
<polygon fill="#666666" stroke="#666666" points="12,-366 12,-366 109,-366 109,-366 12,-366"/>
<polygon fill="#666666" stroke="#666666" points="12,-338 12,-338 23,-338 23,-338 12,-338"/>
<polygon fill="#666666" stroke="#666666" points="23,-338 23,-338 109,-338 109,-338 23,-338"/>
<polygon fill="none" stroke="#666666" points="11.5,-288 11.5,-382 108.5,-382 108.5,-288 11.5,-288"/>
</a>
</g>
</g>
<!-- Node2 -->
<g id="Node000002" class="node">
<title>Node2</title>
<g id="a_Node000002"><a xlink:href="structgeom_1_1rect.html" target="_top" xlink:title=" ">
<polygon fill="white" stroke="transparent" points="120,-252 0,-252 0,0 120,0 120,-252"/>
<text text-anchor="start" x="36.38" y="-240" font-family="Helvetica,sans-Serif" font-size="10.00">geom::rect</text>
<text text-anchor="start" x="58.61" y="-226" font-family="Helvetica,sans-Serif" font-size="10.00"> </text>
<text text-anchor="start" x="3.58" y="-212" font-family="Helvetica,sans-Serif" font-size="10.00">+</text>
<text text-anchor="start" x="13" y="-212" font-family="Helvetica,sans-Serif" font-size="10.00">rect(point p=point</text>
<text text-anchor="start" x="13" y="-202" font-family="Helvetica,sans-Serif" font-size="10.00">(), size sz=size())</text>
<text text-anchor="start" x="3.58" y="-188" font-family="Helvetica,sans-Serif" font-size="10.00">+</text>
<text text-anchor="start" x="13" y="-188" font-family="Helvetica,sans-Serif" font-size="10.00">rect(size sz)</text>
<text text-anchor="start" x="3.58" y="-174" font-family="Helvetica,sans-Serif" font-size="10.00">+</text>
<text text-anchor="start" x="13" y="-174" font-family="Helvetica,sans-Serif" font-size="10.00">rect(std::size_t x,</text>
<text text-anchor="start" x="13" y="-164" font-family="Helvetica,sans-Serif" font-size="10.00"> std::size_t y, std</text>
<text text-anchor="start" x="13" y="-154" font-family="Helvetica,sans-Serif" font-size="10.00">::size_t w, std::size_t h)</text>
<text text-anchor="start" x="3.58" y="-140" font-family="Helvetica,sans-Serif" font-size="10.00">+</text>
<text text-anchor="start" x="13" y="-140" font-family="Helvetica,sans-Serif" font-size="10.00">rect(const rect &amp;)</text>
<text text-anchor="start" x="13" y="-130" font-family="Helvetica,sans-Serif" font-size="10.00">=default</text>
<text text-anchor="start" x="3.58" y="-116" font-family="Helvetica,sans-Serif" font-size="10.00">+</text>
<text text-anchor="start" x="13" y="-116" font-family="Helvetica,sans-Serif" font-size="10.00">rect(rect &amp;&amp;)=delete</text>
<text text-anchor="start" x="3.58" y="-102" font-family="Helvetica,sans-Serif" font-size="10.00">+</text>
<text text-anchor="start" x="13" y="-102" font-family="Helvetica,sans-Serif" font-size="10.00">~rect()=default</text>
<text text-anchor="start" x="3.58" y="-88" font-family="Helvetica,sans-Serif" font-size="10.00">+</text>
<text text-anchor="start" x="13" y="-88" font-family="Helvetica,sans-Serif" font-size="10.00">rect &amp; operator=(const</text>
<text text-anchor="start" x="13" y="-78" font-family="Helvetica,sans-Serif" font-size="10.00"> rect &amp;)=default</text>
<text text-anchor="start" x="3.58" y="-64" font-family="Helvetica,sans-Serif" font-size="10.00">+</text>
<text text-anchor="start" x="13" y="-64" font-family="Helvetica,sans-Serif" font-size="10.00">rect &amp; operator=(rect</text>
<text text-anchor="start" x="13" y="-54" font-family="Helvetica,sans-Serif" font-size="10.00"> &amp;&amp;)=delete</text>
<text text-anchor="start" x="3.58" y="-40" font-family="Helvetica,sans-Serif" font-size="10.00">+</text>
<text text-anchor="start" x="13" y="-40" font-family="Helvetica,sans-Serif" font-size="10.00">rect &amp; operator=(const</text>
<text text-anchor="start" x="13" y="-30" font-family="Helvetica,sans-Serif" font-size="10.00"> point &amp;rhs)</text>
<text text-anchor="start" x="3.58" y="-16" font-family="Helvetica,sans-Serif" font-size="10.00">+</text>
<text text-anchor="start" x="13" y="-16" font-family="Helvetica,sans-Serif" font-size="10.00">rect &amp; operator=(const</text>
<text text-anchor="start" x="13" y="-6" font-family="Helvetica,sans-Serif" font-size="10.00"> size &amp;rhs)</text>
<polygon fill="#666666" stroke="#666666" points="0,-236 0,-236 120,-236 120,-236 0,-236"/>
<polygon fill="#666666" stroke="#666666" points="0,-222 0,-222 120,-222 120,-222 0,-222"/>
<polygon fill="none" stroke="#666666" points="0,0 0,-252 120,-252 120,0 0,0"/>
</a>
</g>
</g>
<!-- Node1&#45;&gt;Node2 -->
<g id="edge1_Node000001_Node000002" class="edge">
<title>Node1&#45;&gt;Node2</title>
<g id="a_edge1_Node000001_Node000002"><a xlink:title=" ">
<path fill="none" stroke="#63b8ff" d="M60,-277.57C60,-269.56 60,-261.08 60,-252.38"/>
<polygon fill="none" stroke="#63b8ff" points="56.5,-277.8 60,-287.8 63.5,-277.8 56.5,-277.8"/>
</a>
</g>
</g>
</g>
</svg>
