<?xml version="1.0" encoding="UTF-8" standalone="no"?>
<!DOCTYPE svg PUBLIC "-//W3C//DTD SVG 1.1//EN"
 "http://www.w3.org/Graphics/SVG/1.1/DTD/svg11.dtd">
<!-- Generated by graphviz version 2.48.0 (20210717.1556)
 -->
<!-- Title: epub::xml::ns Pages: 1 -->
<svg width="77pt" height="136pt"
 viewBox="0.00 0.00 77.00 136.00" xmlns="http://www.w3.org/2000/svg" xmlns:xlink="http://www.w3.org/1999/xlink">
<g id="graph0" class="graph" transform="scale(1 1) rotate(0) translate(4 132)">
<title>epub::xml::ns</title>
<!-- Node1 -->
<g id="Node000001" class="node">
<title>Node1</title>
<g id="a_Node000001"><a xlink:title=" ">
<polygon fill="#999999" stroke="transparent" points="69,-46 0,-46 0,0 69,0 69,-46"/>
<text text-anchor="start" x="5.26" y="-34" font-family="Helvetica,sans-Serif" font-size="10.00">epub::xml::ns</text>
<text text-anchor="start" x="9.58" y="-20" font-family="Helvetica,sans-Serif" font-size="10.00">+</text>
<text text-anchor="start" x="24.5" y="-20" font-family="Helvetica,sans-Serif" font-size="10.00">deleter</text>
<text text-anchor="start" x="33.61" y="-6" font-family="Helvetica,sans-Serif" font-size="10.00"> </text>
<polygon fill="#666666" stroke="#666666" points="0.5,-30 0.5,-30 69.5,-30 69.5,-30 0.5,-30"/>
<polygon fill="#666666" stroke="#666666" points="0.5,-16 0.5,-16 22.5,-16 22.5,-16 0.5,-16"/>
<polygon fill="#666666" stroke="#666666" points="22.5,-16 22.5,-16 69.5,-16 69.5,-16 22.5,-16"/>
<polygon fill="none" stroke="#666666" points="0,0 0,-46 69,-46 69,0 0,0"/>
</a>
</g>
</g>
<!-- Node2 -->
<g id="Node000002" class="node">
<title>Node2</title>
<g id="a_Node000002"><a xlink:title=" ">
<polygon fill="white" stroke="transparent" points="53,-128 16,-128 16,-82 53,-82 53,-128"/>
<text text-anchor="start" x="21.11" y="-116" font-family="Helvetica,sans-Serif" font-size="10.00">xmlNs</text>
<text text-anchor="start" x="33.61" y="-102" font-family="Helvetica,sans-Serif" font-size="10.00"> </text>
<text text-anchor="start" x="33.61" y="-88" font-family="Helvetica,sans-Serif" font-size="10.00"> </text>
<polygon fill="#666666" stroke="#666666" points="16.5,-112 16.5,-112 53.5,-112 53.5,-112 16.5,-112"/>
<polygon fill="#666666" stroke="#666666" points="16.5,-98 16.5,-98 53.5,-98 53.5,-98 16.5,-98"/>
<polygon fill="none" stroke="#666666" points="16,-82 16,-128 53,-128 53,-82 16,-82"/>
</a>
</g>
</g>
<!-- Node2&#45;&gt;Node1 -->
<g id="edge1_Node000001_Node000002" class="edge">
<title>Node2&#45;&gt;Node1</title>
<g id="a_edge1_Node000001_Node000002"><a xlink:title=" ">
<path fill="none" stroke="#63b8ff" d="M34.5,-71.63C34.5,-63.08 34.5,-54.04 34.5,-46.16"/>
<polygon fill="none" stroke="#63b8ff" points="31,-71.72 34.5,-81.72 38,-71.72 31,-71.72"/>
</a>
</g>
</g>
</g>
</svg>
