<?xml version="1.0" encoding="UTF-8" standalone="no"?>
<!DOCTYPE svg PUBLIC "-//W3C//DTD SVG 1.1//EN"
 "http://www.w3.org/Graphics/SVG/1.1/DTD/svg11.dtd">
<!-- Generated by graphviz version 2.48.0 (20210717.1556)
 -->
<!-- Title: cli::argument_not_needed Pages: 1 -->
<svg width="133pt" height="310pt"
 viewBox="0.00 0.00 133.00 310.00" xmlns="http://www.w3.org/2000/svg" xmlns:xlink="http://www.w3.org/1999/xlink">
<g id="graph0" class="graph" transform="scale(1 1) rotate(0) translate(4 306)">
<title>cli::argument_not_needed</title>
<!-- Node1 -->
<g id="Node000001" class="node">
<title>Node1</title>
<g id="a_Node000001"><a xlink:title=" ">
<polygon fill="#999999" stroke="transparent" points="125,-56 0,-56 0,0 125,0 125,-56"/>
<text text-anchor="start" x="5.18" y="-44" font-family="Helvetica,sans-Serif" font-size="10.00">cli::argument_not_needed</text>
<text text-anchor="start" x="61.61" y="-30" font-family="Helvetica,sans-Serif" font-size="10.00"> </text>
<text text-anchor="start" x="6.08" y="-16" font-family="Helvetica,sans-Serif" font-size="10.00">+</text>
<text text-anchor="start" x="17.5" y="-16" font-family="Helvetica,sans-Serif" font-size="10.00">argument_not_needed</text>
<text text-anchor="start" x="17.5" y="-6" font-family="Helvetica,sans-Serif" font-size="10.00">(StringLike &amp;&amp;s)</text>
<polygon fill="#666666" stroke="#666666" points="0.5,-40 0.5,-40 125.5,-40 125.5,-40 0.5,-40"/>
<polygon fill="#666666" stroke="#666666" points="0.5,-26 0.5,-26 125.5,-26 125.5,-26 0.5,-26"/>
<polygon fill="none" stroke="#666666" points="0,0 0,-56 125,-56 125,0 0,0"/>
</a>
</g>
</g>
<!-- Node2 -->
<g id="Node000002" class="node">
<title>Node2</title>
<g id="a_Node000002"><a xlink:href="structcli_1_1option__error.html" target="_top" xlink:title=" ">
<polygon fill="white" stroke="transparent" points="101.5,-138 23.5,-138 23.5,-92 101.5,-92 101.5,-138"/>
<text text-anchor="start" x="28.04" y="-126" font-family="Helvetica,sans-Serif" font-size="10.00">cli::option_error</text>
<text text-anchor="start" x="61.11" y="-112" font-family="Helvetica,sans-Serif" font-size="10.00"> </text>
<text text-anchor="start" x="61.11" y="-98" font-family="Helvetica,sans-Serif" font-size="10.00"> </text>
<polygon fill="#666666" stroke="#666666" points="23.5,-122 23.5,-122 101.5,-122 101.5,-122 23.5,-122"/>
<polygon fill="#666666" stroke="#666666" points="23.5,-108 23.5,-108 101.5,-108 101.5,-108 23.5,-108"/>
<polygon fill="none" stroke="#666666" points="23.5,-92 23.5,-138 101.5,-138 101.5,-92 23.5,-92"/>
</a>
</g>
</g>
<!-- Node2&#45;&gt;Node1 -->
<g id="edge1_Node000001_Node000002" class="edge">
<title>Node2&#45;&gt;Node1</title>
<g id="a_edge1_Node000001_Node000002"><a xlink:title=" ">
<path fill="none" stroke="#63b8ff" d="M62.5,-81.44C62.5,-73.05 62.5,-64.11 62.5,-56.03"/>
<polygon fill="none" stroke="#63b8ff" points="59,-81.67 62.5,-91.67 66,-81.67 59,-81.67"/>
</a>
</g>
</g>
<!-- Node3 -->
<g id="Node000003" class="node">
<title>Node3</title>
<g id="a_Node000003"><a xlink:title=" ">
<polygon fill="white" stroke="transparent" points="106.5,-220 18.5,-220 18.5,-174 106.5,-174 106.5,-220"/>
<text text-anchor="start" x="23.04" y="-208" font-family="Helvetica,sans-Serif" font-size="10.00">std::runtime_error</text>
<text text-anchor="start" x="61.11" y="-194" font-family="Helvetica,sans-Serif" font-size="10.00"> </text>
<text text-anchor="start" x="61.11" y="-180" font-family="Helvetica,sans-Serif" font-size="10.00"> </text>
<polygon fill="#666666" stroke="#666666" points="18.5,-204 18.5,-204 106.5,-204 106.5,-204 18.5,-204"/>
<polygon fill="#666666" stroke="#666666" points="18.5,-190 18.5,-190 106.5,-190 106.5,-190 18.5,-190"/>
<polygon fill="none" stroke="#666666" points="18.5,-174 18.5,-220 106.5,-220 106.5,-174 18.5,-174"/>
</a>
</g>
</g>
<!-- Node3&#45;&gt;Node2 -->
<g id="edge2_Node000002_Node000003" class="edge">
<title>Node3&#45;&gt;Node2</title>
<g id="a_edge2_Node000002_Node000003"><a xlink:title=" ">
<path fill="none" stroke="#63b8ff" d="M62.5,-163.63C62.5,-155.08 62.5,-146.04 62.5,-138.16"/>
<polygon fill="none" stroke="#63b8ff" points="59,-163.72 62.5,-173.72 66,-163.72 59,-163.72"/>
</a>
</g>
</g>
<!-- Node4 -->
<g id="Node000004" class="node">
<title>Node4</title>
<g id="a_Node000004"><a xlink:title=" ">
<polygon fill="white" stroke="transparent" points="98,-302 27,-302 27,-256 98,-256 98,-302"/>
<text text-anchor="start" x="32.15" y="-290" font-family="Helvetica,sans-Serif" font-size="10.00">std::exception</text>
<text text-anchor="start" x="61.61" y="-276" font-family="Helvetica,sans-Serif" font-size="10.00"> </text>
<text text-anchor="start" x="61.61" y="-262" font-family="Helvetica,sans-Serif" font-size="10.00"> </text>
<polygon fill="#666666" stroke="#666666" points="27.5,-286 27.5,-286 98.5,-286 98.5,-286 27.5,-286"/>
<polygon fill="#666666" stroke="#666666" points="27.5,-272 27.5,-272 98.5,-272 98.5,-272 27.5,-272"/>
<polygon fill="none" stroke="#666666" points="27,-256 27,-302 98,-302 98,-256 27,-256"/>
</a>
</g>
</g>
<!-- Node4&#45;&gt;Node3 -->
<g id="edge3_Node000003_Node000004" class="edge">
<title>Node4&#45;&gt;Node3</title>
<g id="a_edge3_Node000003_Node000004"><a xlink:title=" ">
<path fill="none" stroke="#63b8ff" d="M62.5,-245.63C62.5,-237.08 62.5,-228.04 62.5,-220.16"/>
<polygon fill="none" stroke="#63b8ff" points="59,-245.72 62.5,-255.72 66,-245.72 59,-245.72"/>
</a>
</g>
</g>
</g>
</svg>
