<?xml version="1.0" encoding="UTF-8" standalone="no"?>
<!DOCTYPE svg PUBLIC "-//W3C//DTD SVG 1.1//EN"
 "http://www.w3.org/Graphics/SVG/1.1/DTD/svg11.dtd">
<!-- Generated by graphviz version 2.48.0 (20210717.1556)
 -->
<!-- Title: geom::size Pages: 1 -->
<svg width="128pt" height="380pt"
 viewBox="0.00 0.00 128.00 380.00" xmlns="http://www.w3.org/2000/svg" xmlns:xlink="http://www.w3.org/1999/xlink">
<g id="graph0" class="graph" transform="scale(1 1) rotate(0) translate(4 376)">
<title>geom::size</title>
<!-- Node1 -->
<g id="Node000001" class="node">
<title>Node1</title>
<g id="a_Node000001"><a xlink:title=" ">
<polygon fill="#999999" stroke="transparent" points="116,-372 4,-372 4,-288 116,-288 116,-372"/>
<text text-anchor="start" x="35.82" y="-360" font-family="Helvetica,sans-Serif" font-size="10.00">geom::size</text>
<text text-anchor="start" x="7.58" y="-346" font-family="Helvetica,sans-Serif" font-size="10.00">+</text>
<text text-anchor="start" x="17" y="-346" font-family="Helvetica,sans-Serif" font-size="10.00">std::size_t w</text>
<text text-anchor="start" x="7.58" y="-332" font-family="Helvetica,sans-Serif" font-size="10.00">+</text>
<text text-anchor="start" x="17" y="-332" font-family="Helvetica,sans-Serif" font-size="10.00">std::size_t h</text>
<text text-anchor="start" x="7.58" y="-318" font-family="Helvetica,sans-Serif" font-size="10.00">+</text>
<text text-anchor="start" x="17" y="-318" font-family="Helvetica,sans-Serif" font-size="10.00">size()</text>
<text text-anchor="start" x="7.58" y="-304" font-family="Helvetica,sans-Serif" font-size="10.00">+</text>
<text text-anchor="start" x="17" y="-304" font-family="Helvetica,sans-Serif" font-size="10.00">size(std::size_t width,</text>
<text text-anchor="start" x="17" y="-294" font-family="Helvetica,sans-Serif" font-size="10.00"> std::size_t height)</text>
<polygon fill="#666666" stroke="#666666" points="4,-356 4,-356 116,-356 116,-356 4,-356"/>
<polygon fill="#666666" stroke="#666666" points="4,-328 4,-328 15,-328 15,-328 4,-328"/>
<polygon fill="#666666" stroke="#666666" points="15,-328 15,-328 116,-328 116,-328 15,-328"/>
<polygon fill="none" stroke="#666666" points="4,-288 4,-372 116,-372 116,-288 4,-288"/>
</a>
</g>
</g>
<!-- Node2 -->
<g id="Node000002" class="node">
<title>Node2</title>
<g id="a_Node000002"><a xlink:href="structgeom_1_1rect.html" target="_top" xlink:title=" ">
<polygon fill="white" stroke="transparent" points="120,-252 0,-252 0,0 120,0 120,-252"/>
<text text-anchor="start" x="36.38" y="-240" font-family="Helvetica,sans-Serif" font-size="10.00">geom::rect</text>
<text text-anchor="start" x="58.61" y="-226" font-family="Helvetica,sans-Serif" font-size="10.00"> </text>
<text text-anchor="start" x="3.58" y="-212" font-family="Helvetica,sans-Serif" font-size="10.00">+</text>
<text text-anchor="start" x="13" y="-212" font-family="Helvetica,sans-Serif" font-size="10.00">rect(point p=point</text>
<text text-anchor="start" x="13" y="-202" font-family="Helvetica,sans-Serif" font-size="10.00">(), size sz=size())</text>
<text text-anchor="start" x="3.58" y="-188" font-family="Helvetica,sans-Serif" font-size="10.00">+</text>
<text text-anchor="start" x="13" y="-188" font-family="Helvetica,sans-Serif" font-size="10.00">rect(size sz)</text>
<text text-anchor="start" x="3.58" y="-174" font-family="Helvetica,sans-Serif" font-size="10.00">+</text>
<text text-anchor="start" x="13" y="-174" font-family="Helvetica,sans-Serif" font-size="10.00">rect(std::size_t x,</text>
<text text-anchor="start" x="13" y="-164" font-family="Helvetica,sans-Serif" font-size="10.00"> std::size_t y, std</text>
<text text-anchor="start" x="13" y="-154" font-family="Helvetica,sans-Serif" font-size="10.00">::size_t w, std::size_t h)</text>
<text text-anchor="start" x="3.58" y="-140" font-family="Helvetica,sans-Serif" font-size="10.00">+</text>
<text text-anchor="start" x="13" y="-140" font-family="Helvetica,sans-Serif" font-size="10.00">rect(const rect &amp;)</text>
<text text-anchor="start" x="13" y="-130" font-family="Helvetica,sans-Serif" font-size="10.00">=default</text>
<text text-anchor="start" x="3.58" y="-116" font-family="Helvetica,sans-Serif" font-size="10.00">+</text>
<text text-anchor="start" x="13" y="-116" font-family="Helvetica,sans-Serif" font-size="10.00">rect(rect &amp;&amp;)=delete</text>
<text text-anchor="start" x="3.58" y="-102" font-family="Helvetica,sans-Serif" font-size="10.00">+</text>
<text text-anchor="start" x="13" y="-102" font-family="Helvetica,sans-Serif" font-size="10.00">~rect()=default</text>
<text text-anchor="start" x="3.58" y="-88" font-family="Helvetica,sans-Serif" font-size="10.00">+</text>
<text text-anchor="start" x="13" y="-88" font-family="Helvetica,sans-Serif" font-size="10.00">rect &amp; operator=(const</text>
<text text-anchor="start" x="13" y="-78" font-family="Helvetica,sans-Serif" font-size="10.00"> rect &amp;)=default</text>
<text text-anchor="start" x="3.58" y="-64" font-family="Helvetica,sans-Serif" font-size="10.00">+</text>
<text text-anchor="start" x="13" y="-64" font-family="Helvetica,sans-Serif" font-size="10.00">rect &amp; operator=(rect</text>
<text text-anchor="start" x="13" y="-54" font-family="Helvetica,sans-Serif" font-size="10.00"> &amp;&amp;)=delete</text>
<text text-anchor="start" x="3.58" y="-40" font-family="Helvetica,sans-Serif" font-size="10.00">+</text>
<text text-anchor="start" x="13" y="-40" font-family="Helvetica,sans-Serif" font-size="10.00">rect &amp; operator=(const</text>
<text text-anchor="start" x="13" y="-30" font-family="Helvetica,sans-Serif" font-size="10.00"> point &amp;rhs)</text>
<text text-anchor="start" x="3.58" y="-16" font-family="Helvetica,sans-Serif" font-size="10.00">+</text>
<text text-anchor="start" x="13" y="-16" font-family="Helvetica,sans-Serif" font-size="10.00">rect &amp; operator=(const</text>
<text text-anchor="start" x="13" y="-6" font-family="Helvetica,sans-Serif" font-size="10.00"> size &amp;rhs)</text>
<polygon fill="#666666" stroke="#666666" points="0,-236 0,-236 120,-236 120,-236 0,-236"/>
<polygon fill="#666666" stroke="#666666" points="0,-222 0,-222 120,-222 120,-222 0,-222"/>
<polygon fill="none" stroke="#666666" points="0,0 0,-252 120,-252 120,0 0,0"/>
</a>
</g>
</g>
<!-- Node1&#45;&gt;Node2 -->
<g id="edge1_Node000001_Node000002" class="edge">
<title>Node1&#45;&gt;Node2</title>
<g id="a_edge1_Node000001_Node000002"><a xlink:title=" ">
<path fill="none" stroke="#63b8ff" d="M60,-277.46C60,-269.46 60,-260.9 60,-252.09"/>
<polygon fill="none" stroke="#63b8ff" points="56.5,-277.63 60,-287.63 63.5,-277.63 56.5,-277.63"/>
</a>
</g>
</g>
</g>
</svg>
