<?xml version="1.0" encoding="UTF-8" standalone="no"?>
<!DOCTYPE svg PUBLIC "-//W3C//DTD SVG 1.1//EN"
 "http://www.w3.org/Graphics/SVG/1.1/DTD/svg11.dtd">
<!-- Generated by graphviz version 2.48.0 (20210717.1556)
 -->
<!-- Title: xml.hpp Pages: 1 -->
<svg width="221pt" height="134pt"
 viewBox="0.00 0.00 220.95 134.00" xmlns="http://www.w3.org/2000/svg" xmlns:xlink="http://www.w3.org/1999/xlink">
<g id="graph0" class="graph" transform="scale(1 1) rotate(0) translate(4 130)">
<title>xml.hpp</title>
<!-- Node1 -->
<g id="Node000001" class="node">
<title>Node1</title>
<g id="a_Node000001"><a xlink:title=" ">
<polygon fill="#999999" stroke="#666666" points="112.24,-126 61.21,-126 61.21,-108 112.24,-108 112.24,-126"/>
<text text-anchor="middle" x="86.73" y="-114" font-family="Helvetica,sans-Serif" font-size="10.00">xml.hpp</text>
</a>
</g>
</g>
<!-- Node2 -->
<g id="Node000002" class="node">
<title>Node2</title>
<g id="a_Node000002"><a xlink:href="file__metadata_8hpp.html" target="_top" xlink:title=" ">
<polygon fill="white" stroke="#666666" points="134.23,-72 39.22,-72 39.22,-54 134.23,-54 134.23,-72"/>
<text text-anchor="middle" x="86.73" y="-60" font-family="Helvetica,sans-Serif" font-size="10.00">file_metadata.hpp</text>
</a>
</g>
</g>
<!-- Node1&#45;&gt;Node2 -->
<g id="edge1_Node000001_Node000002" class="edge">
<title>Node1&#45;&gt;Node2</title>
<g id="a_edge1_Node000001_Node000002"><a xlink:title=" ">
<path fill="none" stroke="#63b8ff" d="M86.73,-107.88C86.73,-101.05 86.73,-91.03 86.73,-82.29"/>
<polygon fill="#63b8ff" stroke="#63b8ff" points="90.23,-82.24 86.73,-72.24 83.23,-82.24 90.23,-82.24"/>
</a>
</g>
</g>
<!-- Node3 -->
<g id="Node000003" class="node">
<title>Node3</title>
<g id="a_Node000003"><a xlink:title=" ">
<polygon fill="#e0e0e0" stroke="#999999" points="35.68,-18 -0.23,-18 -0.23,0 35.68,0 35.68,-18"/>
<text text-anchor="middle" x="17.73" y="-6" font-family="Helvetica,sans-Serif" font-size="10.00">map</text>
</a>
</g>
</g>
<!-- Node1&#45;&gt;Node3 -->
<g id="edge6_Node000001_Node000003" class="edge">
<title>Node1&#45;&gt;Node3</title>
<g id="a_edge6_Node000001_Node000003"><a xlink:title=" ">
<path fill="none" stroke="#63b8ff" d="M70.82,-107.98C57.68,-100.49 39.63,-88.07 29.73,-72 21.63,-58.86 18.81,-41.43 17.91,-28.39"/>
<polygon fill="#63b8ff" stroke="#63b8ff" points="21.4,-28.15 17.53,-18.29 14.41,-28.41 21.4,-28.15"/>
</a>
</g>
</g>
<!-- Node6 -->
<g id="Node000006" class="node">
<title>Node6</title>
<g id="a_Node000006"><a xlink:title=" ">
<polygon fill="#e0e0e0" stroke="#999999" points="213.18,-72 152.27,-72 152.27,-54 213.18,-54 213.18,-72"/>
<text text-anchor="middle" x="182.73" y="-60" font-family="Helvetica,sans-Serif" font-size="10.00">filesystem</text>
</a>
</g>
</g>
<!-- Node1&#45;&gt;Node6 -->
<g id="edge5_Node000001_Node000006" class="edge">
<title>Node1&#45;&gt;Node6</title>
<g id="a_edge5_Node000001_Node000006"><a xlink:title=" ">
<path fill="none" stroke="#63b8ff" d="M101.73,-107.88C116.94,-99.63 140.74,-86.74 158.61,-77.07"/>
<polygon fill="#63b8ff" stroke="#63b8ff" points="160.71,-79.91 167.83,-72.07 157.37,-73.75 160.71,-79.91"/>
</a>
</g>
</g>
<!-- Node2&#45;&gt;Node3 -->
<g id="edge2_Node000002_Node000003" class="edge">
<title>Node2&#45;&gt;Node3</title>
<g id="a_edge2_Node000002_Node000003"><a xlink:title=" ">
<path fill="none" stroke="#63b8ff" d="M75.95,-53.88C65.47,-45.98 49.35,-33.84 36.73,-24.32"/>
<polygon fill="#63b8ff" stroke="#63b8ff" points="38.75,-21.46 28.66,-18.24 34.54,-27.05 38.75,-21.46"/>
</a>
</g>
</g>
<!-- Node4 -->
<g id="Node000004" class="node">
<title>Node4</title>
<g id="a_Node000004"><a xlink:title=" ">
<polygon fill="#e0e0e0" stroke="#999999" points="108.26,-18 57.2,-18 57.2,0 108.26,0 108.26,-18"/>
<text text-anchor="middle" x="82.73" y="-6" font-family="Helvetica,sans-Serif" font-size="10.00">optional</text>
</a>
</g>
</g>
<!-- Node2&#45;&gt;Node4 -->
<g id="edge3_Node000002_Node000004" class="edge">
<title>Node2&#45;&gt;Node4</title>
<g id="a_edge3_Node000002_Node000004"><a xlink:title=" ">
<path fill="none" stroke="#63b8ff" d="M86.1,-53.88C85.58,-47.05 84.81,-37.03 84.13,-28.29"/>
<polygon fill="#63b8ff" stroke="#63b8ff" points="87.62,-27.94 83.36,-18.24 80.64,-28.48 87.62,-27.94"/>
</a>
</g>
</g>
<!-- Node5 -->
<g id="Node000005" class="node">
<title>Node5</title>
<g id="a_Node000005"><a xlink:title=" ">
<polygon fill="#e0e0e0" stroke="#999999" points="167.18,-18 126.27,-18 126.27,0 167.18,0 167.18,-18"/>
<text text-anchor="middle" x="146.73" y="-6" font-family="Helvetica,sans-Serif" font-size="10.00">string</text>
</a>
</g>
</g>
<!-- Node2&#45;&gt;Node5 -->
<g id="edge4_Node000002_Node000005" class="edge">
<title>Node2&#45;&gt;Node5</title>
<g id="a_edge4_Node000002_Node000005"><a xlink:title=" ">
<path fill="none" stroke="#63b8ff" d="M96.1,-53.88C105.03,-46.14 118.69,-34.3 129.57,-24.87"/>
<polygon fill="#63b8ff" stroke="#63b8ff" points="131.95,-27.43 137.22,-18.24 127.37,-22.14 131.95,-27.43"/>
</a>
</g>
</g>
</g>
</svg>
