<?xml version="1.0" encoding="UTF-8" standalone="no"?>
<!DOCTYPE svg PUBLIC "-//W3C//DTD SVG 1.1//EN"
 "http://www.w3.org/Graphics/SVG/1.1/DTD/svg11.dtd">
<!-- Generated by graphviz version 2.48.0 (20210717.1556)
 -->
<!-- Title: xml.cpp Pages: 1 -->
<svg width="1093pt" height="296pt"
 viewBox="0.00 0.00 1092.78 296.00" xmlns="http://www.w3.org/2000/svg" xmlns:xlink="http://www.w3.org/1999/xlink">
<g id="graph0" class="graph" transform="scale(1 1) rotate(0) translate(4 292)">
<title>xml.cpp</title>
<!-- Node1 -->
<g id="Node000001" class="node">
<title>Node1</title>
<g id="a_Node000001"><a xlink:title=" ">
<polygon fill="#999999" stroke="#666666" points="595.46,-288 544.54,-288 544.54,-270 595.46,-270 595.46,-288"/>
<text text-anchor="middle" x="570" y="-276" font-family="Helvetica,sans-Serif" font-size="10.00">xml.cpp</text>
</a>
</g>
</g>
<!-- Node2 -->
<g id="Node000002" class="node">
<title>Node2</title>
<g id="a_Node000002"><a xlink:href="xml_8hpp.html" target="_top" xlink:title=" ">
<polygon fill="white" stroke="#666666" points="521.51,-126 470.49,-126 470.49,-108 521.51,-108 521.51,-126"/>
<text text-anchor="middle" x="496" y="-114" font-family="Helvetica,sans-Serif" font-size="10.00">xml.hpp</text>
</a>
</g>
</g>
<!-- Node1&#45;&gt;Node2 -->
<g id="edge1_Node000001_Node000002" class="edge">
<title>Node1&#45;&gt;Node2</title>
<g id="a_edge1_Node000001_Node000002"><a xlink:title=" ">
<path fill="none" stroke="#63b8ff" d="M544.7,-275.93C518.28,-272.27 478.1,-262.12 459,-234 437.62,-202.53 464.6,-157.96 482.5,-134.28"/>
<polygon fill="#63b8ff" stroke="#63b8ff" points="485.35,-136.31 488.8,-126.29 479.86,-131.98 485.35,-136.31"/>
</a>
</g>
</g>
<!-- Node6 -->
<g id="Node000006" class="node">
<title>Node6</title>
<g id="a_Node000006"><a xlink:title=" ">
<polygon fill="#e0e0e0" stroke="#999999" points="276.46,-18 235.54,-18 235.54,0 276.46,0 276.46,-18"/>
<text text-anchor="middle" x="256" y="-6" font-family="Helvetica,sans-Serif" font-size="10.00">string</text>
</a>
</g>
</g>
<!-- Node1&#45;&gt;Node6 -->
<g id="edge54_Node000001_Node000006" class="edge">
<title>Node1&#45;&gt;Node6</title>
<g id="a_edge54_Node000001_Node000006"><a xlink:title=" ">
<path fill="none" stroke="#63b8ff" d="M544.45,-277.66C479.03,-276.28 300.54,-269.3 157,-234 84.15,-216.09 0,-247.02 0,-172 0,-172 0,-172 0,-116 0,-19.43 157.44,-9.13 225.38,-9.19"/>
<polygon fill="#63b8ff" stroke="#63b8ff" points="225.45,-12.69 235.48,-9.27 225.51,-5.69 225.45,-12.69"/>
</a>
</g>
</g>
<!-- Node7 -->
<g id="Node000007" class="node">
<title>Node7</title>
<g id="a_Node000007"><a xlink:title=" ">
<polygon fill="#e0e0e0" stroke="#999999" points="432.45,-72 371.55,-72 371.55,-54 432.45,-54 432.45,-72"/>
<text text-anchor="middle" x="402" y="-60" font-family="Helvetica,sans-Serif" font-size="10.00">filesystem</text>
</a>
</g>
</g>
<!-- Node1&#45;&gt;Node7 -->
<g id="edge47_Node000001_Node000007" class="edge">
<title>Node1&#45;&gt;Node7</title>
<g id="a_edge47_Node000001_Node000007"><a xlink:title=" ">
<path fill="none" stroke="#63b8ff" d="M544.49,-275.54C517.06,-271.54 474.03,-261.09 449,-234 409.22,-190.95 402.65,-117.22 401.87,-82.77"/>
<polygon fill="#63b8ff" stroke="#63b8ff" points="405.37,-82.31 401.79,-72.34 398.37,-82.37 405.37,-82.31"/>
</a>
</g>
</g>
<!-- Node8 -->
<g id="Node000008" class="node">
<title>Node8</title>
<g id="a_Node000008"><a xlink:href="manifest_8hpp.html" target="_top" xlink:title=" ">
<polygon fill="white" stroke="#666666" points="762.76,-126 689.24,-126 689.24,-108 762.76,-108 762.76,-126"/>
<text text-anchor="middle" x="726" y="-114" font-family="Helvetica,sans-Serif" font-size="10.00">manifest.hpp</text>
</a>
</g>
</g>
<!-- Node1&#45;&gt;Node8 -->
<g id="edge8_Node000001_Node000008" class="edge">
<title>Node1&#45;&gt;Node8</title>
<g id="a_edge8_Node000001_Node000008"><a xlink:title=" ">
<path fill="none" stroke="#63b8ff" d="M570.81,-269.6C572.41,-256.9 576.91,-232.54 589,-216 605.59,-193.31 618.09,-196.28 641,-180 663.82,-163.78 689.79,-144.76 706.95,-132.1"/>
<polygon fill="#63b8ff" stroke="#63b8ff" points="709.09,-134.87 715.06,-126.11 704.94,-129.24 709.09,-134.87"/>
</a>
</g>
</g>
<!-- Node9 -->
<g id="Node000009" class="node">
<title>Node9</title>
<g id="a_Node000009"><a xlink:title=" ">
<polygon fill="#e0e0e0" stroke="#999999" points="316.11,-72 263.89,-72 263.89,-54 316.11,-54 316.11,-72"/>
<text text-anchor="middle" x="290" y="-60" font-family="Helvetica,sans-Serif" font-size="10.00">memory</text>
</a>
</g>
</g>
<!-- Node1&#45;&gt;Node9 -->
<g id="edge51_Node000001_Node000009" class="edge">
<title>Node1&#45;&gt;Node9</title>
<g id="a_edge51_Node000001_Node000009"><a xlink:title=" ">
<path fill="none" stroke="#63b8ff" d="M544.77,-278.62C484.94,-279.31 330.52,-276.46 211,-234 168.47,-218.89 146.84,-219.5 125,-180 93.27,-122.62 196.24,-87.12 253.83,-72.19"/>
<polygon fill="#63b8ff" stroke="#63b8ff" points="254.83,-75.55 263.68,-69.72 253.13,-68.76 254.83,-75.55"/>
</a>
</g>
</g>
<!-- Node12 -->
<g id="Node000012" class="node">
<title>Node12</title>
<g id="a_Node000012"><a xlink:href="minidom_8hpp.html" target="_top" xlink:title=" ">
<polygon fill="white" stroke="#666666" points="207.75,-180 134.25,-180 134.25,-162 207.75,-162 207.75,-180"/>
<text text-anchor="middle" x="171" y="-168" font-family="Helvetica,sans-Serif" font-size="10.00">minidom.hpp</text>
</a>
</g>
</g>
<!-- Node1&#45;&gt;Node12 -->
<g id="edge15_Node000001_Node000012" class="edge">
<title>Node1&#45;&gt;Node12</title>
<g id="a_edge15_Node000001_Node000012"><a xlink:title=" ">
<path fill="none" stroke="#63b8ff" d="M544.59,-276.45C477.5,-272.07 297.08,-258.3 243,-234 219.35,-223.37 197.61,-202.43 184.34,-187.84"/>
<polygon fill="#63b8ff" stroke="#63b8ff" points="186.78,-185.32 177.55,-180.11 181.52,-189.93 186.78,-185.32"/>
</a>
</g>
</g>
<!-- Node13 -->
<g id="Node000013" class="node">
<title>Node13</title>
<g id="a_Node000013"><a xlink:title=" ">
<polygon fill="#e0e0e0" stroke="#999999" points="261.73,-126 218.27,-126 218.27,-108 261.73,-108 261.73,-126"/>
<text text-anchor="middle" x="240" y="-114" font-family="Helvetica,sans-Serif" font-size="10.00">vector</text>
</a>
</g>
</g>
<!-- Node1&#45;&gt;Node13 -->
<g id="edge55_Node000001_Node000013" class="edge">
<title>Node1&#45;&gt;Node13</title>
<g id="a_edge55_Node000001_Node000013"><a xlink:title=" ">
<path fill="none" stroke="#63b8ff" d="M544.58,-275.93C503.81,-271.91 421.9,-260.96 358,-234 318.48,-217.33 307.66,-210.99 278,-180 265.34,-166.77 254.83,-148.63 248.09,-135.39"/>
<polygon fill="#63b8ff" stroke="#63b8ff" points="251.23,-133.84 243.71,-126.39 244.94,-136.91 251.23,-133.84"/>
</a>
</g>
</g>
<!-- Node14 -->
<g id="Node000014" class="node">
<title>Node14</title>
<g id="a_Node000014"><a xlink:href="navigation_8hpp.html" target="_top" xlink:title=" ">
<polygon fill="white" stroke="#666666" points="368.55,-180 287.45,-180 287.45,-162 368.55,-162 368.55,-180"/>
<text text-anchor="middle" x="328" y="-168" font-family="Helvetica,sans-Serif" font-size="10.00">navigation.hpp</text>
</a>
</g>
</g>
<!-- Node1&#45;&gt;Node14 -->
<g id="edge21_Node000001_Node000014" class="edge">
<title>Node1&#45;&gt;Node14</title>
<g id="a_edge21_Node000001_Node000014"><a xlink:title=" ">
<path fill="none" stroke="#63b8ff" d="M544.6,-276.85C506.85,-274.12 434.84,-264.94 383,-234 364.15,-222.75 348.23,-202.88 338.45,-188.67"/>
<polygon fill="#63b8ff" stroke="#63b8ff" points="341.35,-186.72 332.93,-180.3 335.51,-190.57 341.35,-186.72"/>
</a>
</g>
</g>
<!-- Node15 -->
<g id="Node000015" class="node">
<title>Node15</title>
<g id="a_Node000015"><a xlink:href="package_8hpp.html" target="_top" xlink:title=" ">
<polygon fill="white" stroke="#666666" points="541.77,-234 468.23,-234 468.23,-216 541.77,-216 541.77,-234"/>
<text text-anchor="middle" x="505" y="-222" font-family="Helvetica,sans-Serif" font-size="10.00">package.hpp</text>
</a>
</g>
</g>
<!-- Node1&#45;&gt;Node15 -->
<g id="edge27_Node000001_Node000015" class="edge">
<title>Node1&#45;&gt;Node15</title>
<g id="a_edge27_Node000001_Node000015"><a xlink:title=" ">
<path fill="none" stroke="#63b8ff" d="M559.84,-269.88C550.07,-262.06 535.09,-250.07 523.25,-240.6"/>
<polygon fill="#63b8ff" stroke="#63b8ff" points="525.29,-237.75 515.3,-234.24 520.92,-243.22 525.29,-237.75"/>
</a>
</g>
</g>
<!-- Node23 -->
<g id="Node000023" class="node">
<title>Node23</title>
<g id="a_Node000023"><a xlink:title=" ">
<polygon fill="#e0e0e0" stroke="#999999" points="646.23,-234 597.77,-234 597.77,-216 646.23,-216 646.23,-234"/>
<text text-anchor="middle" x="622" y="-222" font-family="Helvetica,sans-Serif" font-size="10.00">cassert</text>
</a>
</g>
</g>
<!-- Node1&#45;&gt;Node23 -->
<g id="edge44_Node000001_Node000023" class="edge">
<title>Node1&#45;&gt;Node23</title>
<g id="a_edge44_Node000001_Node000023"><a xlink:title=" ">
<path fill="none" stroke="#63b8ff" d="M578.12,-269.88C585.71,-262.29 597.24,-250.76 606.57,-241.43"/>
<polygon fill="#63b8ff" stroke="#63b8ff" points="609.16,-243.79 613.76,-234.24 604.21,-238.84 609.16,-243.79"/>
</a>
</g>
</g>
<!-- Node24 -->
<g id="Node000024" class="node">
<title>Node24</title>
<g id="a_Node000024"><a xlink:title=" ">
<polygon fill="#e0e0e0" stroke="#999999" points="706.12,-234 663.88,-234 663.88,-216 706.12,-216 706.12,-234"/>
<text text-anchor="middle" x="685" y="-222" font-family="Helvetica,sans-Serif" font-size="10.00">cstdio</text>
</a>
</g>
</g>
<!-- Node1&#45;&gt;Node24 -->
<g id="edge45_Node000001_Node000024" class="edge">
<title>Node1&#45;&gt;Node24</title>
<g id="a_edge45_Node000001_Node000024"><a xlink:title=" ">
<path fill="none" stroke="#63b8ff" d="M587.97,-269.88C606.7,-261.4 636.29,-248.02 657.87,-238.27"/>
<polygon fill="#63b8ff" stroke="#63b8ff" points="659.49,-241.38 667.16,-234.07 656.6,-235 659.49,-241.38"/>
</a>
</g>
</g>
<!-- Node25 -->
<g id="Node000025" class="node">
<title>Node25</title>
<g id="a_Node000025"><a xlink:title=" ">
<polygon fill="#e0e0e0" stroke="#999999" points="763.89,-234 724.11,-234 724.11,-216 763.89,-216 763.89,-234"/>
<text text-anchor="middle" x="744" y="-222" font-family="Helvetica,sans-Serif" font-size="10.00">ctime</text>
</a>
</g>
</g>
<!-- Node1&#45;&gt;Node25 -->
<g id="edge46_Node000001_Node000025" class="edge">
<title>Node1&#45;&gt;Node25</title>
<g id="a_edge46_Node000001_Node000025"><a xlink:title=" ">
<path fill="none" stroke="#63b8ff" d="M595.3,-270.44C626.91,-260.99 680.89,-244.86 714.39,-234.85"/>
<polygon fill="#63b8ff" stroke="#63b8ff" points="715.5,-238.17 724.08,-231.95 713.49,-231.46 715.5,-238.17"/>
</a>
</g>
</g>
<!-- Node26 -->
<g id="Node000026" class="node">
<title>Node26</title>
<g id="a_Node000026"><a xlink:title=" ">
<polygon fill="#e0e0e0" stroke="#999999" points="831.84,-234 782.16,-234 782.16,-216 831.84,-216 831.84,-234"/>
<text text-anchor="middle" x="807" y="-222" font-family="Helvetica,sans-Serif" font-size="10.00">fstream</text>
</a>
</g>
</g>
<!-- Node1&#45;&gt;Node26 -->
<g id="edge48_Node000001_Node000026" class="edge">
<title>Node1&#45;&gt;Node26</title>
<g id="a_edge48_Node000001_Node000026"><a xlink:title=" ">
<path fill="none" stroke="#63b8ff" d="M595.35,-272.66C632.08,-264.88 702.46,-249.86 772.28,-234.13"/>
<polygon fill="#63b8ff" stroke="#63b8ff" points="773.15,-237.52 782.13,-231.91 771.6,-230.69 773.15,-237.52"/>
</a>
</g>
</g>
<!-- Node27 -->
<g id="Node000027" class="node">
<title>Node27</title>
<g id="a_Node000027"><a xlink:title=" ">
<polygon fill="#e0e0e0" stroke="#999999" points="890.57,-234 849.43,-234 849.43,-216 890.57,-216 890.57,-234"/>
<text text-anchor="middle" x="870" y="-222" font-family="Helvetica,sans-Serif" font-size="10.00">future</text>
</a>
</g>
</g>
<!-- Node1&#45;&gt;Node27 -->
<g id="edge49_Node000001_Node000027" class="edge">
<title>Node1&#45;&gt;Node27</title>
<g id="a_edge49_Node000001_Node000027"><a xlink:title=" ">
<path fill="none" stroke="#63b8ff" d="M595.58,-274.79C642.21,-268.73 744.3,-254.54 839.12,-234.22"/>
<polygon fill="#63b8ff" stroke="#63b8ff" points="840.13,-237.58 849.16,-232.04 838.64,-230.74 840.13,-237.58"/>
</a>
</g>
</g>
<!-- Node28 -->
<g id="Node000028" class="node">
<title>Node28</title>
<g id="a_Node000028"><a xlink:title=" ">
<polygon fill="#e0e0e0" stroke="#999999" points="959.52,-234 908.48,-234 908.48,-216 959.52,-216 959.52,-234"/>
<text text-anchor="middle" x="934" y="-222" font-family="Helvetica,sans-Serif" font-size="10.00">iomanip</text>
</a>
</g>
</g>
<!-- Node1&#45;&gt;Node28 -->
<g id="edge50_Node000001_Node000028" class="edge">
<title>Node1&#45;&gt;Node28</title>
<g id="a_edge50_Node000001_Node000028"><a xlink:title=" ">
<path fill="none" stroke="#63b8ff" d="M595.39,-275.48C649.39,-269.93 779.77,-255.56 898.46,-234.12"/>
<polygon fill="#63b8ff" stroke="#63b8ff" points="899.23,-237.54 908.44,-232.3 897.97,-230.66 899.23,-237.54"/>
</a>
</g>
</g>
<!-- Node29 -->
<g id="Node000029" class="node">
<title>Node29</title>
<g id="a_Node000029"><a xlink:title=" ">
<polygon fill="#e0e0e0" stroke="#999999" points="1014.69,-234 977.31,-234 977.31,-216 1014.69,-216 1014.69,-234"/>
<text text-anchor="middle" x="996" y="-222" font-family="Helvetica,sans-Serif" font-size="10.00">span</text>
</a>
</g>
</g>
<!-- Node1&#45;&gt;Node29 -->
<g id="edge52_Node000001_Node000029" class="edge">
<title>Node1&#45;&gt;Node29</title>
<g id="a_edge52_Node000001_Node000029"><a xlink:title=" ">
<path fill="none" stroke="#63b8ff" d="M595.45,-276.77C657.59,-273.43 822.02,-262.6 967.25,-234.03"/>
<polygon fill="#63b8ff" stroke="#63b8ff" points="968.11,-237.42 977.22,-232.03 966.73,-230.56 968.11,-237.42"/>
</a>
</g>
</g>
<!-- Node30 -->
<g id="Node000030" class="node">
<title>Node30</title>
<g id="a_Node000030"><a xlink:title=" ">
<polygon fill="#e0e0e0" stroke="#999999" points="1084.56,-234 1033.44,-234 1033.44,-216 1084.56,-216 1084.56,-234"/>
<text text-anchor="middle" x="1059" y="-222" font-family="Helvetica,sans-Serif" font-size="10.00">sstream</text>
</a>
</g>
</g>
<!-- Node1&#45;&gt;Node30 -->
<g id="edge53_Node000001_Node000030" class="edge">
<title>Node1&#45;&gt;Node30</title>
<g id="a_edge53_Node000001_Node000030"><a xlink:title=" ">
<path fill="none" stroke="#63b8ff" d="M595.25,-276.69C662.92,-272.94 854.13,-260.77 1023.01,-233.94"/>
<polygon fill="#63b8ff" stroke="#63b8ff" points="1023.76,-237.36 1033.08,-232.31 1022.65,-230.45 1023.76,-237.36"/>
</a>
</g>
</g>
<!-- Node3 -->
<g id="Node000003" class="node">
<title>Node3</title>
<g id="a_Node000003"><a xlink:href="file__metadata_8hpp.html" target="_top" xlink:title=" ">
<polygon fill="white" stroke="#666666" points="545.5,-72 450.5,-72 450.5,-54 545.5,-54 545.5,-72"/>
<text text-anchor="middle" x="498" y="-60" font-family="Helvetica,sans-Serif" font-size="10.00">file_metadata.hpp</text>
</a>
</g>
</g>
<!-- Node2&#45;&gt;Node3 -->
<g id="edge2_Node000002_Node000003" class="edge">
<title>Node2&#45;&gt;Node3</title>
<g id="a_edge2_Node000002_Node000003"><a xlink:title=" ">
<path fill="none" stroke="#63b8ff" d="M496.31,-107.88C496.58,-101.05 496.96,-91.03 497.3,-82.29"/>
<polygon fill="#63b8ff" stroke="#63b8ff" points="500.8,-82.37 497.68,-72.24 493.8,-82.1 500.8,-82.37"/>
</a>
</g>
</g>
<!-- Node4 -->
<g id="Node000004" class="node">
<title>Node4</title>
<g id="a_Node000004"><a xlink:title=" ">
<polygon fill="#e0e0e0" stroke="#999999" points="591.96,-18 556.04,-18 556.04,0 591.96,0 591.96,-18"/>
<text text-anchor="middle" x="574" y="-6" font-family="Helvetica,sans-Serif" font-size="10.00">map</text>
</a>
</g>
</g>
<!-- Node2&#45;&gt;Node4 -->
<g id="edge7_Node000002_Node000004" class="edge">
<title>Node2&#45;&gt;Node4</title>
<g id="a_edge7_Node000002_Node000004"><a xlink:title=" ">
<path fill="none" stroke="#63b8ff" d="M511.76,-107.98C525.11,-100.41 543.81,-87.88 555,-72 564.13,-59.04 568.96,-41.59 571.46,-28.5"/>
<polygon fill="#63b8ff" stroke="#63b8ff" points="574.96,-28.78 573.11,-18.35 568.06,-27.66 574.96,-28.78"/>
</a>
</g>
</g>
<!-- Node2&#45;&gt;Node7 -->
<g id="edge6_Node000002_Node000007" class="edge">
<title>Node2&#45;&gt;Node7</title>
<g id="a_edge6_Node000002_Node000007"><a xlink:title=" ">
<path fill="none" stroke="#63b8ff" d="M481.31,-107.88C466.41,-99.63 443.11,-86.74 425.62,-77.07"/>
<polygon fill="#63b8ff" stroke="#63b8ff" points="427.03,-73.85 416.58,-72.07 423.64,-79.97 427.03,-73.85"/>
</a>
</g>
</g>
<!-- Node3&#45;&gt;Node4 -->
<g id="edge3_Node000003_Node000004" class="edge">
<title>Node3&#45;&gt;Node4</title>
<g id="a_edge3_Node000003_Node000004"><a xlink:title=" ">
<path fill="none" stroke="#63b8ff" d="M509.88,-53.88C521.52,-45.91 539.51,-33.6 553.47,-24.05"/>
<polygon fill="#63b8ff" stroke="#63b8ff" points="555.68,-26.78 561.96,-18.24 551.73,-21 555.68,-26.78"/>
</a>
</g>
</g>
<!-- Node5 -->
<g id="Node000005" class="node">
<title>Node5</title>
<g id="a_Node000005"><a xlink:title=" ">
<polygon fill="#e0e0e0" stroke="#999999" points="435.53,-18 384.47,-18 384.47,0 435.53,0 435.53,-18"/>
<text text-anchor="middle" x="410" y="-6" font-family="Helvetica,sans-Serif" font-size="10.00">optional</text>
</a>
</g>
</g>
<!-- Node3&#45;&gt;Node5 -->
<g id="edge4_Node000003_Node000005" class="edge">
<title>Node3&#45;&gt;Node5</title>
<g id="a_edge4_Node000003_Node000005"><a xlink:title=" ">
<path fill="none" stroke="#63b8ff" d="M484.25,-53.88C470.43,-45.71 448.89,-32.98 432.57,-23.33"/>
<polygon fill="#63b8ff" stroke="#63b8ff" points="434.04,-20.14 423.65,-18.07 430.48,-26.17 434.04,-20.14"/>
</a>
</g>
</g>
<!-- Node3&#45;&gt;Node6 -->
<g id="edge5_Node000003_Node000006" class="edge">
<title>Node3&#45;&gt;Node6</title>
<g id="a_edge5_Node000003_Node000006"><a xlink:title=" ">
<path fill="none" stroke="#63b8ff" d="M460.72,-53.99C412.85,-43.7 330.69,-26.05 286.41,-16.53"/>
<polygon fill="#63b8ff" stroke="#63b8ff" points="287.04,-13.09 276.52,-14.41 285.57,-19.93 287.04,-13.09"/>
</a>
</g>
</g>
<!-- Node8&#45;&gt;Node3 -->
<g id="edge9_Node000008_Node000003" class="edge">
<title>Node8&#45;&gt;Node3</title>
<g id="a_edge9_Node000008_Node000003"><a xlink:title=" ">
<path fill="none" stroke="#63b8ff" d="M690.87,-107.99C651.21,-98.94 586.56,-84.2 543.17,-74.3"/>
<polygon fill="#63b8ff" stroke="#63b8ff" points="543.69,-70.83 533.17,-72.02 542.14,-77.66 543.69,-70.83"/>
</a>
</g>
</g>
<!-- Node8&#45;&gt;Node4 -->
<g id="edge11_Node000008_Node000004" class="edge">
<title>Node8&#45;&gt;Node4</title>
<g id="a_edge11_Node000008_Node000004"><a xlink:title=" ">
<path fill="none" stroke="#63b8ff" d="M709.4,-107.96C693.02,-99.75 667.51,-86.22 647,-72 626.21,-57.59 604.35,-38.41 590.03,-25.22"/>
<polygon fill="#63b8ff" stroke="#63b8ff" points="592.24,-22.49 582.54,-18.22 587.46,-27.61 592.24,-22.49"/>
</a>
</g>
</g>
<!-- Node8&#45;&gt;Node7 -->
<g id="edge10_Node000008_Node000007" class="edge">
<title>Node8&#45;&gt;Node7</title>
<g id="a_edge10_Node000008_Node000007"><a xlink:title=" ">
<path fill="none" stroke="#63b8ff" d="M689.35,-109.55C686.19,-109.02 683.04,-108.49 680,-108 577.18,-91.32 548.48,-90.81 442.76,-72.24"/>
<polygon fill="#63b8ff" stroke="#63b8ff" points="443.08,-68.74 432.63,-70.44 441.86,-75.63 443.08,-68.74"/>
</a>
</g>
</g>
<!-- Node8&#45;&gt;Node9 -->
<g id="edge12_Node000008_Node000009" class="edge">
<title>Node8&#45;&gt;Node9</title>
<g id="a_edge12_Node000008_Node000009"><a xlink:title=" ">
<path fill="none" stroke="#63b8ff" d="M688.87,-109.35C685.87,-108.87 682.89,-108.41 680,-108 645.45,-103.05 416.39,-77.84 326.3,-67.97"/>
<polygon fill="#63b8ff" stroke="#63b8ff" points="326.59,-64.48 316.27,-66.87 325.83,-71.44 326.59,-64.48"/>
</a>
</g>
</g>
<!-- Node10 -->
<g id="Node000010" class="node">
<title>Node10</title>
<g id="a_Node000010"><a xlink:title=" ">
<polygon fill="#e0e0e0" stroke="#999999" points="702.08,-72 655.92,-72 655.92,-54 702.08,-54 702.08,-72"/>
<text text-anchor="middle" x="679" y="-60" font-family="Helvetica,sans-Serif" font-size="10.00">ranges</text>
</a>
</g>
</g>
<!-- Node8&#45;&gt;Node10 -->
<g id="edge13_Node000008_Node000010" class="edge">
<title>Node8&#45;&gt;Node10</title>
<g id="a_edge13_Node000008_Node000010"><a xlink:title=" ">
<path fill="none" stroke="#63b8ff" d="M718.66,-107.88C711.87,-100.36 701.59,-88.99 693.2,-79.71"/>
<polygon fill="#63b8ff" stroke="#63b8ff" points="695.75,-77.31 686.45,-72.24 690.56,-82.01 695.75,-77.31"/>
</a>
</g>
</g>
<!-- Node11 -->
<g id="Node000011" class="node">
<title>Node11</title>
<g id="a_Node000011"><a xlink:title=" ">
<polygon fill="#e0e0e0" stroke="#999999" points="779.3,-72 720.7,-72 720.7,-54 779.3,-54 779.3,-72"/>
<text text-anchor="middle" x="750" y="-60" font-family="Helvetica,sans-Serif" font-size="10.00">stdexcept</text>
</a>
</g>
</g>
<!-- Node8&#45;&gt;Node11 -->
<g id="edge14_Node000008_Node000011" class="edge">
<title>Node8&#45;&gt;Node11</title>
<g id="a_edge14_Node000008_Node000011"><a xlink:title=" ">
<path fill="none" stroke="#63b8ff" d="M729.75,-107.88C733.01,-100.82 737.83,-90.36 741.96,-81.42"/>
<polygon fill="#63b8ff" stroke="#63b8ff" points="745.18,-82.79 746.2,-72.24 738.83,-79.85 745.18,-82.79"/>
</a>
</g>
</g>
<!-- Node12&#45;&gt;Node5 -->
<g id="edge18_Node000012_Node000005" class="edge">
<title>Node12&#45;&gt;Node5</title>
<g id="a_edge18_Node000012_Node000005"><a xlink:title=" ">
<path fill="none" stroke="#63b8ff" d="M167.36,-161.75C162.43,-149.24 155.3,-125.13 165,-108 206.97,-33.88 317.21,-15.73 374.41,-11.35"/>
<polygon fill="#63b8ff" stroke="#63b8ff" points="374.7,-14.84 384.45,-10.68 374.24,-7.85 374.7,-14.84"/>
</a>
</g>
</g>
<!-- Node12&#45;&gt;Node6 -->
<g id="edge19_Node000012_Node000006" class="edge">
<title>Node12&#45;&gt;Node6</title>
<g id="a_edge19_Node000012_Node000006"><a xlink:title=" ">
<path fill="none" stroke="#63b8ff" d="M146.21,-161.86C129.89,-155.07 109.81,-143.61 100,-126 84.43,-98.04 80.69,-79.51 100,-54 115.12,-34.03 184.63,-20.56 225.59,-14.2"/>
<polygon fill="#63b8ff" stroke="#63b8ff" points="226.21,-17.65 235.58,-12.71 225.18,-10.73 226.21,-17.65"/>
</a>
</g>
</g>
<!-- Node12&#45;&gt;Node7 -->
<g id="edge16_Node000012_Node000007" class="edge">
<title>Node12&#45;&gt;Node7</title>
<g id="a_edge16_Node000012_Node000007"><a xlink:title=" ">
<path fill="none" stroke="#63b8ff" d="M173.69,-161.7C178.51,-148.22 189.92,-121.69 209,-108 233.11,-90.69 312.54,-76.71 361.66,-69.45"/>
<polygon fill="#63b8ff" stroke="#63b8ff" points="362.26,-72.9 371.66,-68 361.26,-65.97 362.26,-72.9"/>
</a>
</g>
</g>
<!-- Node12&#45;&gt;Node9 -->
<g id="edge17_Node000012_Node000009" class="edge">
<title>Node12&#45;&gt;Node9</title>
<g id="a_edge17_Node000012_Node000009"><a xlink:title=" ">
<path fill="none" stroke="#63b8ff" d="M169.14,-161.82C166.73,-148.98 164.11,-123.92 176,-108 194.15,-83.69 227.6,-72.81 253.59,-67.94"/>
<polygon fill="#63b8ff" stroke="#63b8ff" points="254.2,-71.39 263.49,-66.3 253.06,-64.48 254.2,-71.39"/>
</a>
</g>
</g>
<!-- Node12&#45;&gt;Node13 -->
<g id="edge20_Node000012_Node000013" class="edge">
<title>Node12&#45;&gt;Node13</title>
<g id="a_edge20_Node000012_Node000013"><a xlink:title=" ">
<path fill="none" stroke="#63b8ff" d="M181.78,-161.88C192.25,-153.98 208.37,-141.84 221,-132.32"/>
<polygon fill="#63b8ff" stroke="#63b8ff" points="223.19,-135.05 229.07,-126.24 218.97,-129.46 223.19,-135.05"/>
</a>
</g>
</g>
<!-- Node14&#45;&gt;Node2 -->
<g id="edge23_Node000014_Node000002" class="edge">
<title>Node14&#45;&gt;Node2</title>
<g id="a_edge23_Node000014_Node000002"><a xlink:title=" ">
<path fill="none" stroke="#63b8ff" d="M353.88,-161.99C382.45,-153.15 428.62,-138.86 460.54,-128.98"/>
<polygon fill="#63b8ff" stroke="#63b8ff" points="461.85,-132.24 470.36,-125.93 459.78,-125.55 461.85,-132.24"/>
</a>
</g>
</g>
<!-- Node14&#45;&gt;Node7 -->
<g id="edge24_Node000014_Node000007" class="edge">
<title>Node14&#45;&gt;Node7</title>
<g id="a_edge24_Node000014_Node000007"><a xlink:title=" ">
<path fill="none" stroke="#63b8ff" d="M333.81,-161.68C345.96,-144.27 374.3,-103.68 390.36,-80.68"/>
<polygon fill="#63b8ff" stroke="#63b8ff" points="393.37,-82.48 396.22,-72.28 387.63,-78.48 393.37,-82.48"/>
</a>
</g>
</g>
<!-- Node14&#45;&gt;Node8 -->
<g id="edge22_Node000014_Node000008" class="edge">
<title>Node14&#45;&gt;Node8</title>
<g id="a_edge22_Node000014_Node000008"><a xlink:title=" ">
<path fill="none" stroke="#63b8ff" d="M368.74,-165.55C432.6,-158.43 560.38,-143.62 679.36,-126.02"/>
<polygon fill="#63b8ff" stroke="#63b8ff" points="679.99,-129.47 689.37,-124.53 678.96,-122.54 679.99,-129.47"/>
</a>
</g>
</g>
<!-- Node14&#45;&gt;Node9 -->
<g id="edge25_Node000014_Node000009" class="edge">
<title>Node14&#45;&gt;Node9</title>
<g id="a_edge25_Node000014_Node000009"><a xlink:title=" ">
<path fill="none" stroke="#63b8ff" d="M325.02,-161.68C318.89,-144.58 304.74,-105.11 296.42,-81.92"/>
<polygon fill="#63b8ff" stroke="#63b8ff" points="299.64,-80.51 292.97,-72.28 293.05,-82.87 299.64,-80.51"/>
</a>
</g>
</g>
<!-- Node14&#45;&gt;Node13 -->
<g id="edge26_Node000014_Node000013" class="edge">
<title>Node14&#45;&gt;Node13</title>
<g id="a_edge26_Node000014_Node000013"><a xlink:title=" ">
<path fill="none" stroke="#63b8ff" d="M314.25,-161.88C300.43,-153.71 278.89,-140.98 262.57,-131.33"/>
<polygon fill="#63b8ff" stroke="#63b8ff" points="264.04,-128.14 253.65,-126.07 260.48,-134.17 264.04,-128.14"/>
</a>
</g>
</g>
<!-- Node15&#45;&gt;Node2 -->
<g id="edge42_Node000015_Node000002" class="edge">
<title>Node15&#45;&gt;Node2</title>
<g id="a_edge42_Node000015_Node000002"><a xlink:title=" ">
<path fill="none" stroke="#63b8ff" d="M504.29,-215.68C502.85,-198.73 499.55,-159.83 497.58,-136.55"/>
<polygon fill="#63b8ff" stroke="#63b8ff" points="501.04,-135.95 496.7,-126.28 494.06,-136.54 501.04,-135.95"/>
</a>
</g>
</g>
<!-- Node15&#45;&gt;Node7 -->
<g id="edge43_Node000015_Node000007" class="edge">
<title>Node15&#45;&gt;Node7</title>
<g id="a_edge43_Node000015_Node000007"><a xlink:title=" ">
<path fill="none" stroke="#63b8ff" d="M499.75,-215.85C483.71,-190.92 435.08,-115.38 413.05,-81.17"/>
<polygon fill="#63b8ff" stroke="#63b8ff" points="415.72,-78.84 407.36,-72.33 409.83,-82.63 415.72,-78.84"/>
</a>
</g>
</g>
<!-- Node15&#45;&gt;Node8 -->
<g id="edge28_Node000015_Node000008" class="edge">
<title>Node15&#45;&gt;Node8</title>
<g id="a_edge28_Node000015_Node000008"><a xlink:title=" ">
<path fill="none" stroke="#63b8ff" d="M525.34,-215.87C546.28,-207.38 579.73,-193.44 608,-180 641.43,-164.11 679.16,-143.87 702.75,-130.92"/>
<polygon fill="#63b8ff" stroke="#63b8ff" points="704.59,-133.91 711.66,-126.01 701.21,-127.78 704.59,-133.91"/>
</a>
</g>
</g>
<!-- Node16 -->
<g id="Node000016" class="node">
<title>Node16</title>
<g id="a_Node000016"><a xlink:href="metadata_8hpp.html" target="_top" xlink:title=" ">
<polygon fill="white" stroke="#666666" points="896.66,-126 819.34,-126 819.34,-108 896.66,-108 896.66,-126"/>
<text text-anchor="middle" x="858" y="-114" font-family="Helvetica,sans-Serif" font-size="10.00">metadata.hpp</text>
</a>
</g>
</g>
<!-- Node15&#45;&gt;Node16 -->
<g id="edge29_Node000015_Node000016" class="edge">
<title>Node15&#45;&gt;Node16</title>
<g id="a_edge29_Node000015_Node000016"><a xlink:title=" ">
<path fill="none" stroke="#63b8ff" d="M531.82,-215.95C594.39,-197.16 750.08,-150.41 821.34,-129.01"/>
<polygon fill="#63b8ff" stroke="#63b8ff" points="822.65,-132.27 831.22,-126.04 820.63,-125.57 822.65,-132.27"/>
</a>
</g>
</g>
<!-- Node20 -->
<g id="Node000020" class="node">
<title>Node20</title>
<g id="a_Node000020"><a xlink:href="spine_8hpp.html" target="_top" xlink:title=" ">
<polygon fill="white" stroke="#666666" points="598.87,-180 539.13,-180 539.13,-162 598.87,-162 598.87,-180"/>
<text text-anchor="middle" x="569" y="-168" font-family="Helvetica,sans-Serif" font-size="10.00">spine.hpp</text>
</a>
</g>
</g>
<!-- Node15&#45;&gt;Node20 -->
<g id="edge35_Node000015_Node000020" class="edge">
<title>Node15&#45;&gt;Node20</title>
<g id="a_edge35_Node000015_Node000020"><a xlink:title=" ">
<path fill="none" stroke="#63b8ff" d="M515,-215.88C524.62,-208.06 539.38,-196.07 551.04,-186.6"/>
<polygon fill="#63b8ff" stroke="#63b8ff" points="553.3,-189.26 558.86,-180.24 548.89,-183.83 553.3,-189.26"/>
</a>
</g>
</g>
<!-- Node16&#45;&gt;Node6 -->
<g id="edge33_Node000016_Node000006" class="edge">
<title>Node16&#45;&gt;Node6</title>
<g id="a_edge33_Node000016_Node000006"><a xlink:title=" ">
<path fill="none" stroke="#63b8ff" d="M851.75,-107.74C840.66,-93.81 816.07,-65.99 788,-54 776.38,-49.03 397.96,-20.56 286.56,-12.27"/>
<polygon fill="#63b8ff" stroke="#63b8ff" points="286.58,-8.76 276.34,-11.51 286.06,-15.74 286.58,-8.76"/>
</a>
</g>
</g>
<!-- Node16&#45;&gt;Node11 -->
<g id="edge32_Node000016_Node000011" class="edge">
<title>Node16&#45;&gt;Node11</title>
<g id="a_edge32_Node000016_Node000011"><a xlink:title=" ">
<path fill="none" stroke="#63b8ff" d="M841.12,-107.88C823.69,-99.48 796.24,-86.27 776.03,-76.53"/>
<polygon fill="#63b8ff" stroke="#63b8ff" points="777.28,-73.25 766.76,-72.07 774.25,-79.56 777.28,-73.25"/>
</a>
</g>
</g>
<!-- Node17 -->
<g id="Node000017" class="node">
<title>Node17</title>
<g id="a_Node000017"><a xlink:title=" ">
<polygon fill="#e0e0e0" stroke="#999999" points="1047.08,-72 990.92,-72 990.92,-54 1047.08,-54 1047.08,-72"/>
<text text-anchor="middle" x="1019" y="-60" font-family="Helvetica,sans-Serif" font-size="10.00">charconv</text>
</a>
</g>
</g>
<!-- Node16&#45;&gt;Node17 -->
<g id="edge30_Node000016_Node000017" class="edge">
<title>Node16&#45;&gt;Node17</title>
<g id="a_edge30_Node000016_Node000017"><a xlink:title=" ">
<path fill="none" stroke="#63b8ff" d="M882.8,-107.99C909.99,-99.21 953.79,-85.06 984.35,-75.19"/>
<polygon fill="#63b8ff" stroke="#63b8ff" points="985.73,-78.42 994.17,-72.02 983.58,-71.76 985.73,-78.42"/>
</a>
</g>
</g>
<!-- Node18 -->
<g id="Node000018" class="node">
<title>Node18</title>
<g id="a_Node000018"><a xlink:title=" ">
<polygon fill="#e0e0e0" stroke="#999999" points="881.08,-72 834.92,-72 834.92,-54 881.08,-54 881.08,-72"/>
<text text-anchor="middle" x="858" y="-60" font-family="Helvetica,sans-Serif" font-size="10.00">chrono</text>
</a>
</g>
</g>
<!-- Node16&#45;&gt;Node18 -->
<g id="edge31_Node000016_Node000018" class="edge">
<title>Node16&#45;&gt;Node18</title>
<g id="a_edge31_Node000016_Node000018"><a xlink:title=" ">
<path fill="none" stroke="#63b8ff" d="M858,-107.88C858,-101.05 858,-91.03 858,-82.29"/>
<polygon fill="#63b8ff" stroke="#63b8ff" points="861.5,-82.24 858,-72.24 854.5,-82.24 861.5,-82.24"/>
</a>
</g>
</g>
<!-- Node19 -->
<g id="Node000019" class="node">
<title>Node19</title>
<g id="a_Node000019"><a xlink:title=" ">
<polygon fill="#e0e0e0" stroke="#999999" points="973.35,-72 898.65,-72 898.65,-54 973.35,-54 973.35,-72"/>
<text text-anchor="middle" x="936" y="-60" font-family="Helvetica,sans-Serif" font-size="10.00">system_error</text>
</a>
</g>
</g>
<!-- Node16&#45;&gt;Node19 -->
<g id="edge34_Node000016_Node000019" class="edge">
<title>Node16&#45;&gt;Node19</title>
<g id="a_edge34_Node000016_Node000019"><a xlink:title=" ">
<path fill="none" stroke="#63b8ff" d="M870.19,-107.88C882.21,-99.86 900.82,-87.46 915.18,-77.88"/>
<polygon fill="#63b8ff" stroke="#63b8ff" points="917.52,-80.53 923.9,-72.07 913.64,-74.7 917.52,-80.53"/>
</a>
</g>
</g>
<!-- Node20&#45;&gt;Node8 -->
<g id="edge36_Node000020_Node000008" class="edge">
<title>Node20&#45;&gt;Node8</title>
<g id="a_edge36_Node000020_Node000008"><a xlink:title=" ">
<path fill="none" stroke="#63b8ff" d="M593.19,-161.99C619.69,-153.21 662.41,-139.06 692.21,-129.19"/>
<polygon fill="#63b8ff" stroke="#63b8ff" points="693.39,-132.49 701.79,-126.02 691.19,-125.84 693.39,-132.49"/>
</a>
</g>
</g>
<!-- Node20&#45;&gt;Node9 -->
<g id="edge39_Node000020_Node000009" class="edge">
<title>Node20&#45;&gt;Node9</title>
<g id="a_edge39_Node000020_Node000009"><a xlink:title=" ">
<path fill="none" stroke="#63b8ff" d="M547.57,-161.86C498.46,-143.2 377.63,-97.29 320.66,-75.65"/>
<polygon fill="#63b8ff" stroke="#63b8ff" points="321.71,-72.3 311.12,-72.02 319.23,-78.85 321.71,-72.3"/>
</a>
</g>
</g>
<!-- Node20&#45;&gt;Node10 -->
<g id="edge40_Node000020_Node000010" class="edge">
<title>Node20&#45;&gt;Node10</title>
<g id="a_edge40_Node000020_Node000010"><a xlink:title=" ">
<path fill="none" stroke="#63b8ff" d="M599.1,-165.59C652.95,-157.39 761.16,-139.44 772,-126 792.4,-100.7 746.31,-81.97 711.99,-72.04"/>
<polygon fill="#63b8ff" stroke="#63b8ff" points="712.82,-68.64 702.25,-69.36 710.96,-75.39 712.82,-68.64"/>
</a>
</g>
</g>
<!-- Node20&#45;&gt;Node13 -->
<g id="edge41_Node000020_Node000013" class="edge">
<title>Node20&#45;&gt;Node13</title>
<g id="a_edge41_Node000020_Node000013"><a xlink:title=" ">
<path fill="none" stroke="#63b8ff" d="M539.22,-165.29C477.47,-155.53 335.91,-133.16 272.16,-123.08"/>
<polygon fill="#63b8ff" stroke="#63b8ff" points="272.33,-119.57 261.91,-121.46 271.24,-126.48 272.33,-119.57"/>
</a>
</g>
</g>
<!-- Node21 -->
<g id="Node000021" class="node">
<title>Node21</title>
<g id="a_Node000021"><a xlink:title=" ">
<polygon fill="#e0e0e0" stroke="#999999" points="598.31,-126 539.69,-126 539.69,-108 598.31,-108 598.31,-126"/>
<text text-anchor="middle" x="569" y="-114" font-family="Helvetica,sans-Serif" font-size="10.00">functional</text>
</a>
</g>
</g>
<!-- Node20&#45;&gt;Node21 -->
<g id="edge37_Node000020_Node000021" class="edge">
<title>Node20&#45;&gt;Node21</title>
<g id="a_edge37_Node000020_Node000021"><a xlink:title=" ">
<path fill="none" stroke="#63b8ff" d="M569,-161.88C569,-155.05 569,-145.03 569,-136.29"/>
<polygon fill="#63b8ff" stroke="#63b8ff" points="572.5,-136.24 569,-126.24 565.5,-136.24 572.5,-136.24"/>
</a>
</g>
</g>
<!-- Node22 -->
<g id="Node000022" class="node">
<title>Node22</title>
<g id="a_Node000022"><a xlink:title=" ">
<polygon fill="#e0e0e0" stroke="#999999" points="671.35,-126 616.65,-126 616.65,-108 671.35,-108 671.35,-126"/>
<text text-anchor="middle" x="644" y="-114" font-family="Helvetica,sans-Serif" font-size="10.00">iostream</text>
</a>
</g>
</g>
<!-- Node20&#45;&gt;Node22 -->
<g id="edge38_Node000020_Node000022" class="edge">
<title>Node20&#45;&gt;Node22</title>
<g id="a_edge38_Node000020_Node000022"><a xlink:title=" ">
<path fill="none" stroke="#63b8ff" d="M580.72,-161.88C592.21,-153.91 609.96,-141.6 623.74,-132.05"/>
<polygon fill="#63b8ff" stroke="#63b8ff" points="625.89,-134.81 632.12,-126.24 621.9,-129.06 625.89,-134.81"/>
</a>
</g>
</g>
</g>
</svg>
