<?xml version="1.0" encoding="UTF-8" standalone="no"?>
<!DOCTYPE svg PUBLIC "-//W3C//DTD SVG 1.1//EN"
 "http://www.w3.org/Graphics/SVG/1.1/DTD/svg11.dtd">
<!-- Generated by graphviz version 2.48.0 (20210717.1556)
 -->
<!-- Title: xml.hpp Pages: 1 -->
<svg width="259pt" height="188pt"
 viewBox="0.00 0.00 259.21 188.00" xmlns="http://www.w3.org/2000/svg" xmlns:xlink="http://www.w3.org/1999/xlink">
<g id="graph0" class="graph" transform="scale(1 1) rotate(0) translate(4 184)">
<title>xml.hpp</title>
<!-- Node1 -->
<g id="Node000001" class="node">
<title>Node1</title>
<g id="a_Node000001"><a xlink:title=" ">
<polygon fill="#999999" stroke="#666666" points="179.26,-180 128.23,-180 128.23,-162 179.26,-162 179.26,-180"/>
<text text-anchor="middle" x="153.75" y="-168" font-family="Helvetica,sans-Serif" font-size="10.00">xml.hpp</text>
</a>
</g>
</g>
<!-- Node2 -->
<g id="Node000002" class="node">
<title>Node2</title>
<g id="a_Node000002"><a xlink:href="container_8cpp.html" target="_top" xlink:title=" ">
<polygon fill="white" stroke="#666666" points="75.74,-18 -0.25,-18 -0.25,0 75.74,0 75.74,-18"/>
<text text-anchor="middle" x="37.75" y="-6" font-family="Helvetica,sans-Serif" font-size="10.00">container.cpp</text>
</a>
</g>
</g>
<!-- Node1&#45;&gt;Node2 -->
<g id="edge1_Node000001_Node000002" class="edge">
<title>Node1&#45;&gt;Node2</title>
<g id="a_edge1_Node000001_Node000002"><a xlink:title=" ">
<path fill="none" stroke="#63b8ff" d="M118.13,-162.72C97.05,-156.53 71.63,-145.43 56.75,-126 31.31,-92.79 34.43,-38.38 36.68,-18.02"/>
<polygon fill="#63b8ff" stroke="#63b8ff" points="117.5,-166.17 128.07,-165.38 119.31,-159.41 117.5,-166.17"/>
</a>
</g>
</g>
<!-- Node3 -->
<g id="Node000003" class="node">
<title>Node3</title>
<g id="a_Node000003"><a xlink:href="navigation_8hpp.html" target="_top" xlink:title=" ">
<polygon fill="white" stroke="#666666" points="147.3,-126 66.19,-126 66.19,-108 147.3,-108 147.3,-126"/>
<text text-anchor="middle" x="106.75" y="-114" font-family="Helvetica,sans-Serif" font-size="10.00">navigation.hpp</text>
</a>
</g>
</g>
<!-- Node1&#45;&gt;Node3 -->
<g id="edge2_Node000001_Node000003" class="edge">
<title>Node1&#45;&gt;Node3</title>
<g id="a_edge2_Node000001_Node000003"><a xlink:title=" ">
<path fill="none" stroke="#63b8ff" d="M139.67,-154.43C131.3,-145.17 121.02,-133.79 114.19,-126.24"/>
<polygon fill="#63b8ff" stroke="#63b8ff" points="137.1,-156.8 146.4,-161.88 142.29,-152.11 137.1,-156.8"/>
</a>
</g>
</g>
<!-- Node6 -->
<g id="Node000006" class="node">
<title>Node6</title>
<g id="a_Node000006"><a xlink:href="xml_8cpp.html" target="_top" xlink:title=" ">
<polygon fill="white" stroke="#666666" points="227.2,-72 176.29,-72 176.29,-54 227.2,-54 227.2,-72"/>
<text text-anchor="middle" x="201.75" y="-60" font-family="Helvetica,sans-Serif" font-size="10.00">xml.cpp</text>
</a>
</g>
</g>
<!-- Node1&#45;&gt;Node6 -->
<g id="edge10_Node000001_Node000006" class="edge">
<title>Node1&#45;&gt;Node6</title>
<g id="a_edge10_Node000001_Node000006"><a xlink:title=" ">
<path fill="none" stroke="#63b8ff" d="M189.4,-163.2C210.26,-157.2 234.95,-146.12 247.75,-126 260.55,-105.87 233.31,-83.76 215.52,-72.15"/>
<polygon fill="#63b8ff" stroke="#63b8ff" points="188.33,-159.86 179.53,-165.76 190.09,-166.64 188.33,-159.86"/>
</a>
</g>
</g>
<!-- Node7 -->
<g id="Node000007" class="node">
<title>Node7</title>
<g id="a_Node000007"><a xlink:href="package_8hpp.html" target="_top" xlink:title=" ">
<polygon fill="white" stroke="#666666" points="238.52,-126 164.98,-126 164.98,-108 238.52,-108 238.52,-126"/>
<text text-anchor="middle" x="201.75" y="-114" font-family="Helvetica,sans-Serif" font-size="10.00">package.hpp</text>
</a>
</g>
</g>
<!-- Node1&#45;&gt;Node7 -->
<g id="edge7_Node000001_Node000007" class="edge">
<title>Node1&#45;&gt;Node7</title>
<g id="a_edge7_Node000001_Node000007"><a xlink:title=" ">
<path fill="none" stroke="#63b8ff" d="M168.12,-154.43C176.67,-145.17 187.17,-133.79 194.14,-126.24"/>
<polygon fill="#63b8ff" stroke="#63b8ff" points="165.46,-152.15 161.25,-161.88 170.6,-156.9 165.46,-152.15"/>
</a>
</g>
</g>
<!-- Node4 -->
<g id="Node000004" class="node">
<title>Node4</title>
<g id="a_Node000004"><a xlink:href="container_8hpp.html" target="_top" xlink:title=" ">
<polygon fill="white" stroke="#666666" points="151.8,-72 75.69,-72 75.69,-54 151.8,-54 151.8,-72"/>
<text text-anchor="middle" x="113.75" y="-60" font-family="Helvetica,sans-Serif" font-size="10.00">container.hpp</text>
</a>
</g>
</g>
<!-- Node3&#45;&gt;Node4 -->
<g id="edge3_Node000003_Node000004" class="edge">
<title>Node3&#45;&gt;Node4</title>
<g id="a_edge3_Node000003_Node000004"><a xlink:title=" ">
<path fill="none" stroke="#63b8ff" d="M109.19,-97.86C110.36,-89.13 111.71,-79.1 112.64,-72.24"/>
<polygon fill="#63b8ff" stroke="#63b8ff" points="105.71,-97.5 107.84,-107.88 112.64,-98.43 105.71,-97.5"/>
</a>
</g>
</g>
<!-- Node3&#45;&gt;Node6 -->
<g id="edge6_Node000003_Node000006" class="edge">
<title>Node3&#45;&gt;Node6</title>
<g id="a_edge6_Node000003_Node000006"><a xlink:title=" ">
<path fill="none" stroke="#63b8ff" d="M130.74,-102.87C148.45,-93.17 171.99,-80.29 187.01,-72.07"/>
<polygon fill="#63b8ff" stroke="#63b8ff" points="128.68,-100 121.59,-107.88 132.04,-106.14 128.68,-100"/>
</a>
</g>
</g>
<!-- Node4&#45;&gt;Node2 -->
<g id="edge5_Node000004_Node000002" class="edge">
<title>Node4&#45;&gt;Node2</title>
<g id="a_edge5_Node000004_Node000002"><a xlink:title=" ">
<path fill="none" stroke="#63b8ff" d="M93.42,-48.09C79.49,-38.56 61.49,-26.25 49.79,-18.24"/>
<polygon fill="#63b8ff" stroke="#63b8ff" points="91.64,-51.12 101.87,-53.88 95.59,-45.34 91.64,-51.12"/>
</a>
</g>
</g>
<!-- Node5 -->
<g id="Node000005" class="node">
<title>Node5</title>
<g id="a_Node000005"><a xlink:href="binder_8cpp.html" target="_top" xlink:title=" ">
<polygon fill="white" stroke="#666666" points="155.9,-18 93.59,-18 93.59,0 155.9,0 155.9,-18"/>
<text text-anchor="middle" x="124.75" y="-6" font-family="Helvetica,sans-Serif" font-size="10.00">binder.cpp</text>
</a>
</g>
</g>
<!-- Node4&#45;&gt;Node5 -->
<g id="edge4_Node000004_Node000005" class="edge">
<title>Node4&#45;&gt;Node5</title>
<g id="a_edge4_Node000004_Node000005"><a xlink:title=" ">
<path fill="none" stroke="#63b8ff" d="M117.58,-43.86C119.43,-35.13 121.55,-25.1 123,-18.24"/>
<polygon fill="#63b8ff" stroke="#63b8ff" points="114.11,-43.37 115.46,-53.88 120.96,-44.82 114.11,-43.37"/>
</a>
</g>
</g>
<!-- Node7&#45;&gt;Node4 -->
<g id="edge8_Node000007_Node000004" class="edge">
<title>Node7&#45;&gt;Node4</title>
<g id="a_edge8_Node000007_Node000004"><a xlink:title=" ">
<path fill="none" stroke="#63b8ff" d="M179.07,-102.6C162.71,-92.94 141.18,-80.21 127.4,-72.07"/>
<polygon fill="#63b8ff" stroke="#63b8ff" points="177.61,-105.8 188,-107.88 181.17,-99.77 177.61,-105.8"/>
</a>
</g>
</g>
<!-- Node7&#45;&gt;Node6 -->
<g id="edge9_Node000007_Node000006" class="edge">
<title>Node7&#45;&gt;Node6</title>
<g id="a_edge9_Node000007_Node000006"><a xlink:title=" ">
<path fill="none" stroke="#63b8ff" d="M201.75,-97.86C201.75,-89.13 201.75,-79.1 201.75,-72.24"/>
<polygon fill="#63b8ff" stroke="#63b8ff" points="198.25,-97.87 201.75,-107.88 205.25,-97.88 198.25,-97.87"/>
</a>
</g>
</g>
</g>
</svg>
