<?xml version="1.0" encoding="UTF-8" standalone="no"?>
<!DOCTYPE svg PUBLIC "-//W3C//DTD SVG 1.1//EN"
 "http://www.w3.org/Graphics/SVG/1.1/DTD/svg11.dtd">
<!-- Generated by graphviz version 2.48.0 (20210717.1556)
 -->
<!-- Title: xml.cpp Pages: 1 -->
<svg width="825pt" height="296pt"
 viewBox="0.00 0.00 825.26 296.00" xmlns="http://www.w3.org/2000/svg" xmlns:xlink="http://www.w3.org/1999/xlink">
<g id="graph0" class="graph" transform="scale(1 1) rotate(0) translate(4 292)">
<title>xml.cpp</title>
<!-- Node1 -->
<g id="Node000001" class="node">
<title>Node1</title>
<g id="a_Node000001"><a xlink:title=" ">
<polygon fill="#999999" stroke="#666666" points="719.53,-288 668.62,-288 668.62,-270 719.53,-270 719.53,-288"/>
<text text-anchor="middle" x="694.08" y="-276" font-family="Helvetica,sans-Serif" font-size="10.00">xml.cpp</text>
</a>
</g>
</g>
<!-- Node2 -->
<g id="Node000002" class="node">
<title>Node2</title>
<g id="a_Node000002"><a xlink:href="xml_8hpp.html" target="_top" xlink:title=" ">
<polygon fill="white" stroke="#666666" points="589.59,-126 538.56,-126 538.56,-108 589.59,-108 589.59,-126"/>
<text text-anchor="middle" x="564.08" y="-114" font-family="Helvetica,sans-Serif" font-size="10.00">xml.hpp</text>
</a>
</g>
</g>
<!-- Node1&#45;&gt;Node2 -->
<g id="edge1_Node000001_Node000002" class="edge">
<title>Node1&#45;&gt;Node2</title>
<g id="a_edge1_Node000001_Node000002"><a xlink:title=" ">
<path fill="none" stroke="#63b8ff" d="M691.81,-269.76C685.85,-249.36 668.03,-195.72 637.08,-162 624.85,-148.67 607.65,-138.04 593.02,-130.57"/>
<polygon fill="#63b8ff" stroke="#63b8ff" points="594.38,-127.34 583.86,-126.12 591.33,-133.64 594.38,-127.34"/>
</a>
</g>
</g>
<!-- Node8 -->
<g id="Node000008" class="node">
<title>Node8</title>
<g id="a_Node000008"><a xlink:href="container_8hpp.html" target="_top" xlink:title=" ">
<polygon fill="white" stroke="#666666" points="635.13,-234 559.02,-234 559.02,-216 635.13,-216 635.13,-234"/>
<text text-anchor="middle" x="597.08" y="-222" font-family="Helvetica,sans-Serif" font-size="10.00">container.hpp</text>
</a>
</g>
</g>
<!-- Node1&#45;&gt;Node8 -->
<g id="edge7_Node000001_Node000008" class="edge">
<title>Node1&#45;&gt;Node8</title>
<g id="a_edge7_Node000001_Node000008"><a xlink:title=" ">
<path fill="none" stroke="#63b8ff" d="M678.92,-269.88C663.4,-261.56 639.06,-248.51 620.95,-238.8"/>
<polygon fill="#63b8ff" stroke="#63b8ff" points="622.59,-235.71 612.13,-234.07 619.29,-241.88 622.59,-235.71"/>
</a>
</g>
</g>
<!-- Node9 -->
<g id="Node000009" class="node">
<title>Node9</title>
<g id="a_Node000009"><a xlink:href="package_8hpp.html" target="_top" xlink:title=" ">
<polygon fill="white" stroke="#666666" points="547.85,-180 474.3,-180 474.3,-162 547.85,-162 547.85,-180"/>
<text text-anchor="middle" x="511.08" y="-168" font-family="Helvetica,sans-Serif" font-size="10.00">package.hpp</text>
</a>
</g>
</g>
<!-- Node1&#45;&gt;Node9 -->
<g id="edge33_Node000001_Node000009" class="edge">
<title>Node1&#45;&gt;Node9</title>
<g id="a_edge33_Node000001_Node000009"><a xlink:title=" ">
<path fill="none" stroke="#63b8ff" d="M668.74,-275.65C637.9,-271.67 585.58,-261.16 550.08,-234 535.1,-222.55 524.4,-203.57 518.03,-189.63"/>
<polygon fill="#63b8ff" stroke="#63b8ff" points="521.14,-187.99 514.01,-180.15 514.69,-190.72 521.14,-187.99"/>
</a>
</g>
</g>
<!-- Node19 -->
<g id="Node000019" class="node">
<title>Node19</title>
<g id="a_Node000019"><a xlink:href="minidom_8hpp.html" target="_top" xlink:title=" ">
<polygon fill="white" stroke="#666666" points="768.83,-126 695.32,-126 695.32,-108 768.83,-108 768.83,-126"/>
<text text-anchor="middle" x="732.08" y="-114" font-family="Helvetica,sans-Serif" font-size="10.00">minidom.hpp</text>
</a>
</g>
</g>
<!-- Node1&#45;&gt;Node19 -->
<g id="edge27_Node000001_Node000019" class="edge">
<title>Node1&#45;&gt;Node19</title>
<g id="a_edge27_Node000001_Node000019"><a xlink:title=" ">
<path fill="none" stroke="#63b8ff" d="M696.91,-269.96C699.94,-261.2 704.75,-246.72 708.08,-234 717.03,-199.79 724.78,-159.2 728.91,-136.24"/>
<polygon fill="#63b8ff" stroke="#63b8ff" points="732.39,-136.68 730.68,-126.22 725.49,-135.46 732.39,-136.68"/>
</a>
</g>
</g>
<!-- Node21 -->
<g id="Node000021" class="node">
<title>Node21</title>
<g id="a_Node000021"><a xlink:title=" ">
<polygon fill="#e0e0e0" stroke="#999999" points="811.64,-234 760.51,-234 760.51,-216 811.64,-216 811.64,-234"/>
<text text-anchor="middle" x="786.08" y="-222" font-family="Helvetica,sans-Serif" font-size="10.00">sstream</text>
</a>
</g>
</g>
<!-- Node1&#45;&gt;Node21 -->
<g id="edge34_Node000001_Node000021" class="edge">
<title>Node1&#45;&gt;Node21</title>
<g id="a_edge34_Node000001_Node000021"><a xlink:title=" ">
<path fill="none" stroke="#63b8ff" d="M708.45,-269.88C723.03,-261.63 745.84,-248.74 762.96,-239.07"/>
<polygon fill="#63b8ff" stroke="#63b8ff" points="764.82,-242.04 771.8,-234.07 761.37,-235.94 764.82,-242.04"/>
</a>
</g>
</g>
<!-- Node3 -->
<g id="Node000003" class="node">
<title>Node3</title>
<g id="a_Node000003"><a xlink:href="file__metadata_8hpp.html" target="_top" xlink:title=" ">
<polygon fill="white" stroke="#666666" points="555.58,-72 460.57,-72 460.57,-54 555.58,-54 555.58,-72"/>
<text text-anchor="middle" x="508.08" y="-60" font-family="Helvetica,sans-Serif" font-size="10.00">file_metadata.hpp</text>
</a>
</g>
</g>
<!-- Node2&#45;&gt;Node3 -->
<g id="edge2_Node000002_Node000003" class="edge">
<title>Node2&#45;&gt;Node3</title>
<g id="a_edge2_Node000002_Node000003"><a xlink:title=" ">
<path fill="none" stroke="#63b8ff" d="M555.33,-107.88C547.07,-100.21 534.5,-88.53 524.39,-79.15"/>
<polygon fill="#63b8ff" stroke="#63b8ff" points="526.66,-76.48 516.95,-72.24 521.9,-81.61 526.66,-76.48"/>
</a>
</g>
</g>
<!-- Node7 -->
<g id="Node000007" class="node">
<title>Node7</title>
<g id="a_Node000007"><a xlink:title=" ">
<polygon fill="#e0e0e0" stroke="#999999" points="704.53,-72 643.62,-72 643.62,-54 704.53,-54 704.53,-72"/>
<text text-anchor="middle" x="674.08" y="-60" font-family="Helvetica,sans-Serif" font-size="10.00">filesystem</text>
</a>
</g>
</g>
<!-- Node2&#45;&gt;Node7 -->
<g id="edge6_Node000002_Node000007" class="edge">
<title>Node2&#45;&gt;Node7</title>
<g id="a_edge6_Node000002_Node000007"><a xlink:title=" ">
<path fill="none" stroke="#63b8ff" d="M581.26,-107.88C599.1,-99.44 627.23,-86.15 647.85,-76.4"/>
<polygon fill="#63b8ff" stroke="#63b8ff" points="649.46,-79.51 657.01,-72.07 646.47,-73.18 649.46,-79.51"/>
</a>
</g>
</g>
<!-- Node4 -->
<g id="Node000004" class="node">
<title>Node4</title>
<g id="a_Node000004"><a xlink:title=" ">
<polygon fill="#e0e0e0" stroke="#999999" points="386.03,-18 350.12,-18 350.12,0 386.03,0 386.03,-18"/>
<text text-anchor="middle" x="368.08" y="-6" font-family="Helvetica,sans-Serif" font-size="10.00">map</text>
</a>
</g>
</g>
<!-- Node3&#45;&gt;Node4 -->
<g id="edge3_Node000003_Node000004" class="edge">
<title>Node3&#45;&gt;Node4</title>
<g id="a_edge3_Node000003_Node000004"><a xlink:title=" ">
<path fill="none" stroke="#63b8ff" d="M486.51,-53.99C462.02,-44.89 422.03,-30.04 395.39,-20.14"/>
<polygon fill="#63b8ff" stroke="#63b8ff" points="396.48,-16.82 385.89,-16.62 394.05,-23.38 396.48,-16.82"/>
</a>
</g>
</g>
<!-- Node5 -->
<g id="Node000005" class="node">
<title>Node5</title>
<g id="a_Node000005"><a xlink:title=" ">
<polygon fill="#e0e0e0" stroke="#999999" points="727.6,-18 676.55,-18 676.55,0 727.6,0 727.6,-18"/>
<text text-anchor="middle" x="702.08" y="-6" font-family="Helvetica,sans-Serif" font-size="10.00">optional</text>
</a>
</g>
</g>
<!-- Node3&#45;&gt;Node5 -->
<g id="edge4_Node000003_Node000005" class="edge">
<title>Node3&#45;&gt;Node5</title>
<g id="a_edge4_Node000003_Node000005"><a xlink:title=" ">
<path fill="none" stroke="#63b8ff" d="M537.96,-53.99C572.65,-44.69 629.78,-29.38 666.66,-19.49"/>
<polygon fill="#63b8ff" stroke="#63b8ff" points="667.74,-22.83 676.49,-16.86 665.93,-16.07 667.74,-22.83"/>
</a>
</g>
</g>
<!-- Node6 -->
<g id="Node000006" class="node">
<title>Node6</title>
<g id="a_Node000006"><a xlink:title=" ">
<polygon fill="#e0e0e0" stroke="#999999" points="528.53,-18 487.62,-18 487.62,0 528.53,0 528.53,-18"/>
<text text-anchor="middle" x="508.08" y="-6" font-family="Helvetica,sans-Serif" font-size="10.00">string</text>
</a>
</g>
</g>
<!-- Node3&#45;&gt;Node6 -->
<g id="edge5_Node000003_Node000006" class="edge">
<title>Node3&#45;&gt;Node6</title>
<g id="a_edge5_Node000003_Node000006"><a xlink:title=" ">
<path fill="none" stroke="#63b8ff" d="M508.08,-53.88C508.08,-47.05 508.08,-37.03 508.08,-28.29"/>
<polygon fill="#63b8ff" stroke="#63b8ff" points="511.58,-28.24 508.08,-18.24 504.58,-28.24 511.58,-28.24"/>
</a>
</g>
</g>
<!-- Node8&#45;&gt;Node4 -->
<g id="edge25_Node000008_Node000004" class="edge">
<title>Node8&#45;&gt;Node4</title>
<g id="a_edge25_Node000008_Node000004"><a xlink:title=" ">
<path fill="none" stroke="#63b8ff" d="M559.01,-220.39C438.77,-208.12 71.06,-163.57 4.08,-72 -36.62,-16.38 247.81,-10.45 339.94,-9.98"/>
<polygon fill="#63b8ff" stroke="#63b8ff" points="340.2,-13.48 350.18,-9.95 340.17,-6.48 340.2,-13.48"/>
</a>
</g>
</g>
<!-- Node8&#45;&gt;Node7 -->
<g id="edge24_Node000008_Node000007" class="edge">
<title>Node8&#45;&gt;Node7</title>
<g id="a_edge24_Node000008_Node000007"><a xlink:title=" ">
<path fill="none" stroke="#63b8ff" d="M606.59,-215.8C615.6,-207.58 628.92,-194.13 637.08,-180 655.5,-148.06 666,-105.78 670.81,-82.09"/>
<polygon fill="#63b8ff" stroke="#63b8ff" points="674.29,-82.56 672.73,-72.08 667.41,-81.24 674.29,-82.56"/>
</a>
</g>
</g>
<!-- Node8&#45;&gt;Node9 -->
<g id="edge8_Node000008_Node000009" class="edge">
<title>Node8&#45;&gt;Node9</title>
<g id="a_edge8_Node000008_Node000009"><a xlink:title=" ">
<path fill="none" stroke="#63b8ff" d="M583.64,-215.88C570.13,-207.71 549.08,-194.98 533.13,-185.33"/>
<polygon fill="#63b8ff" stroke="#63b8ff" points="534.79,-182.25 524.42,-180.07 531.16,-188.24 534.79,-182.25"/>
</a>
</g>
</g>
<!-- Node18 -->
<g id="Node000018" class="node">
<title>Node18</title>
<g id="a_Node000018"><a xlink:title=" ">
<polygon fill="#e0e0e0" stroke="#999999" points="628.21,-180 565.94,-180 565.94,-162 628.21,-162 628.21,-180"/>
<text text-anchor="middle" x="597.08" y="-168" font-family="Helvetica,sans-Serif" font-size="10.00">type_traits</text>
</a>
</g>
</g>
<!-- Node8&#45;&gt;Node18 -->
<g id="edge26_Node000008_Node000018" class="edge">
<title>Node8&#45;&gt;Node18</title>
<g id="a_edge26_Node000008_Node000018"><a xlink:title=" ">
<path fill="none" stroke="#63b8ff" d="M597.08,-215.88C597.08,-209.05 597.08,-199.03 597.08,-190.29"/>
<polygon fill="#63b8ff" stroke="#63b8ff" points="600.58,-190.24 597.08,-180.24 593.58,-190.24 600.58,-190.24"/>
</a>
</g>
</g>
<!-- Node9&#45;&gt;Node2 -->
<g id="edge22_Node000009_Node000002" class="edge">
<title>Node9&#45;&gt;Node2</title>
<g id="a_edge22_Node000009_Node000002"><a xlink:title=" ">
<path fill="none" stroke="#63b8ff" d="M519.36,-161.88C527.09,-154.29 538.84,-142.76 548.35,-133.43"/>
<polygon fill="#63b8ff" stroke="#63b8ff" points="550.99,-135.74 555.68,-126.24 546.09,-130.74 550.99,-135.74"/>
</a>
</g>
</g>
<!-- Node9&#45;&gt;Node7 -->
<g id="edge23_Node000009_Node000007" class="edge">
<title>Node9&#45;&gt;Node7</title>
<g id="a_edge23_Node000009_Node000007"><a xlink:title=" ">
<path fill="none" stroke="#63b8ff" d="M530.3,-161.91C548.6,-153.87 576.6,-140.63 599.08,-126 620.61,-111.97 643.04,-92.72 657.69,-79.41"/>
<polygon fill="#63b8ff" stroke="#63b8ff" points="660.38,-81.69 665.36,-72.34 655.63,-76.55 660.38,-81.69"/>
</a>
</g>
</g>
<!-- Node10 -->
<g id="Node000010" class="node">
<title>Node10</title>
<g id="a_Node000010"><a xlink:href="manifest__item_8hpp.html" target="_top" xlink:title=" ">
<polygon fill="white" stroke="#666666" points="520.78,-126 423.37,-126 423.37,-108 520.78,-108 520.78,-126"/>
<text text-anchor="middle" x="472.08" y="-114" font-family="Helvetica,sans-Serif" font-size="10.00">manifest_item.hpp</text>
</a>
</g>
</g>
<!-- Node9&#45;&gt;Node10 -->
<g id="edge9_Node000009_Node000010" class="edge">
<title>Node9&#45;&gt;Node10</title>
<g id="a_edge9_Node000009_Node000010"><a xlink:title=" ">
<path fill="none" stroke="#63b8ff" d="M504.98,-161.88C499.46,-154.52 491.16,-143.45 484.28,-134.28"/>
<polygon fill="#63b8ff" stroke="#63b8ff" points="487.06,-132.14 478.26,-126.24 481.46,-136.34 487.06,-132.14"/>
</a>
</g>
</g>
<!-- Node14 -->
<g id="Node000014" class="node">
<title>Node14</title>
<g id="a_Node000014"><a xlink:href="metadata_8hpp.html" target="_top" xlink:title=" ">
<polygon fill="white" stroke="#666666" points="260.73,-126 183.42,-126 183.42,-108 260.73,-108 260.73,-126"/>
<text text-anchor="middle" x="222.08" y="-114" font-family="Helvetica,sans-Serif" font-size="10.00">metadata.hpp</text>
</a>
</g>
</g>
<!-- Node9&#45;&gt;Node14 -->
<g id="edge16_Node000009_Node000014" class="edge">
<title>Node9&#45;&gt;Node14</title>
<g id="a_edge16_Node000009_Node000014"><a xlink:title=" ">
<path fill="none" stroke="#63b8ff" d="M474.18,-163.36C422.5,-154.06 328.46,-137.14 270.99,-126.8"/>
<polygon fill="#63b8ff" stroke="#63b8ff" points="271.52,-123.34 261.06,-125.01 270.28,-130.23 271.52,-123.34"/>
</a>
</g>
</g>
<!-- Node10&#45;&gt;Node3 -->
<g id="edge10_Node000010_Node000003" class="edge">
<title>Node10&#45;&gt;Node3</title>
<g id="a_edge10_Node000010_Node000003"><a xlink:title=" ">
<path fill="none" stroke="#63b8ff" d="M477.7,-107.88C482.74,-100.59 490.3,-89.68 496.61,-80.56"/>
<polygon fill="#63b8ff" stroke="#63b8ff" points="499.56,-82.45 502.37,-72.24 493.8,-78.47 499.56,-82.45"/>
</a>
</g>
</g>
<!-- Node10&#45;&gt;Node4 -->
<g id="edge12_Node000010_Node000004" class="edge">
<title>Node10&#45;&gt;Node4</title>
<g id="a_edge12_Node000010_Node000004"><a xlink:title=" ">
<path fill="none" stroke="#63b8ff" d="M444.31,-107.94C425.66,-101.18 401.87,-89.74 387.08,-72 376.71,-59.57 371.99,-41.55 369.85,-28.14"/>
<polygon fill="#63b8ff" stroke="#63b8ff" points="373.32,-27.66 368.59,-18.18 366.37,-28.54 373.32,-27.66"/>
</a>
</g>
</g>
<!-- Node10&#45;&gt;Node7 -->
<g id="edge11_Node000010_Node000007" class="edge">
<title>Node10&#45;&gt;Node7</title>
<g id="a_edge11_Node000010_Node000007"><a xlink:title=" ">
<path fill="none" stroke="#63b8ff" d="M503.2,-107.99C538.24,-98.97 595.31,-84.28 633.75,-74.38"/>
<polygon fill="#63b8ff" stroke="#63b8ff" points="634.77,-77.73 643.58,-71.85 633.03,-70.95 634.77,-77.73"/>
</a>
</g>
</g>
<!-- Node11 -->
<g id="Node000011" class="node">
<title>Node11</title>
<g id="a_Node000011"><a xlink:title=" ">
<polygon fill="#e0e0e0" stroke="#999999" points="626.19,-72 573.96,-72 573.96,-54 626.19,-54 626.19,-72"/>
<text text-anchor="middle" x="600.08" y="-60" font-family="Helvetica,sans-Serif" font-size="10.00">memory</text>
</a>
</g>
</g>
<!-- Node10&#45;&gt;Node11 -->
<g id="edge13_Node000010_Node000011" class="edge">
<title>Node10&#45;&gt;Node11</title>
<g id="a_edge13_Node000010_Node000011"><a xlink:title=" ">
<path fill="none" stroke="#63b8ff" d="M491.79,-107.99C512.87,-99.43 546.52,-85.76 570.72,-75.93"/>
<polygon fill="#63b8ff" stroke="#63b8ff" points="572.18,-79.11 580.12,-72.11 569.54,-72.63 572.18,-79.11"/>
</a>
</g>
</g>
<!-- Node12 -->
<g id="Node000012" class="node">
<title>Node12</title>
<g id="a_Node000012"><a xlink:title=" ">
<polygon fill="#e0e0e0" stroke="#999999" points="442.15,-72 396,-72 396,-54 442.15,-54 442.15,-72"/>
<text text-anchor="middle" x="419.08" y="-60" font-family="Helvetica,sans-Serif" font-size="10.00">ranges</text>
</a>
</g>
</g>
<!-- Node10&#45;&gt;Node12 -->
<g id="edge14_Node000010_Node000012" class="edge">
<title>Node10&#45;&gt;Node12</title>
<g id="a_edge14_Node000010_Node000012"><a xlink:title=" ">
<path fill="none" stroke="#63b8ff" d="M463.79,-107.88C456.06,-100.29 444.32,-88.76 434.8,-79.43"/>
<polygon fill="#63b8ff" stroke="#63b8ff" points="437.06,-76.74 427.47,-72.24 432.16,-81.74 437.06,-76.74"/>
</a>
</g>
</g>
<!-- Node13 -->
<g id="Node000013" class="node">
<title>Node13</title>
<g id="a_Node000013"><a xlink:title=" ">
<polygon fill="#e0e0e0" stroke="#999999" points="340.38,-72 281.77,-72 281.77,-54 340.38,-54 340.38,-72"/>
<text text-anchor="middle" x="311.08" y="-60" font-family="Helvetica,sans-Serif" font-size="10.00">stdexcept</text>
</a>
</g>
</g>
<!-- Node10&#45;&gt;Node13 -->
<g id="edge15_Node000010_Node000013" class="edge">
<title>Node10&#45;&gt;Node13</title>
<g id="a_edge15_Node000010_Node000013"><a xlink:title=" ">
<path fill="none" stroke="#63b8ff" d="M447.27,-107.99C420.09,-99.21 376.29,-85.06 345.72,-75.19"/>
<polygon fill="#63b8ff" stroke="#63b8ff" points="346.5,-71.76 335.91,-72.02 344.35,-78.42 346.5,-71.76"/>
</a>
</g>
</g>
<!-- Node14&#45;&gt;Node6 -->
<g id="edge20_Node000014_Node000006" class="edge">
<title>Node14&#45;&gt;Node6</title>
<g id="a_edge20_Node000014_Node000006"><a xlink:title=" ">
<path fill="none" stroke="#63b8ff" d="M226.42,-107.59C233.95,-93.94 250.76,-67.19 273.08,-54 307.33,-33.76 422.08,-19.16 477.55,-13.1"/>
<polygon fill="#63b8ff" stroke="#63b8ff" points="478.24,-16.55 487.81,-12 477.49,-9.59 478.24,-16.55"/>
</a>
</g>
</g>
<!-- Node14&#45;&gt;Node13 -->
<g id="edge19_Node000014_Node000013" class="edge">
<title>Node14&#45;&gt;Node13</title>
<g id="a_edge19_Node000014_Node000013"><a xlink:title=" ">
<path fill="none" stroke="#63b8ff" d="M235.98,-107.88C249.96,-99.71 271.74,-86.98 288.25,-77.33"/>
<polygon fill="#63b8ff" stroke="#63b8ff" points="290.4,-80.13 297.27,-72.07 286.87,-74.09 290.4,-80.13"/>
</a>
</g>
</g>
<!-- Node15 -->
<g id="Node000015" class="node">
<title>Node15</title>
<g id="a_Node000015"><a xlink:title=" ">
<polygon fill="#e0e0e0" stroke="#999999" points="69.15,-72 13,-72 13,-54 69.15,-54 69.15,-72"/>
<text text-anchor="middle" x="41.08" y="-60" font-family="Helvetica,sans-Serif" font-size="10.00">charconv</text>
</a>
</g>
</g>
<!-- Node14&#45;&gt;Node15 -->
<g id="edge17_Node000014_Node000015" class="edge">
<title>Node14&#45;&gt;Node15</title>
<g id="a_edge17_Node000014_Node000015"><a xlink:title=" ">
<path fill="none" stroke="#63b8ff" d="M194.19,-107.99C163.23,-99.1 113.1,-84.69 78.69,-74.81"/>
<polygon fill="#63b8ff" stroke="#63b8ff" points="79.57,-71.42 68.99,-72.02 77.64,-78.15 79.57,-71.42"/>
</a>
</g>
</g>
<!-- Node16 -->
<g id="Node000016" class="node">
<title>Node16</title>
<g id="a_Node000016"><a xlink:title=" ">
<polygon fill="#e0e0e0" stroke="#999999" points="134.15,-72 88,-72 88,-54 134.15,-54 134.15,-72"/>
<text text-anchor="middle" x="111.08" y="-60" font-family="Helvetica,sans-Serif" font-size="10.00">chrono</text>
</a>
</g>
</g>
<!-- Node14&#45;&gt;Node16 -->
<g id="edge18_Node000014_Node000016" class="edge">
<title>Node14&#45;&gt;Node16</title>
<g id="a_edge18_Node000014_Node000016"><a xlink:title=" ">
<path fill="none" stroke="#63b8ff" d="M204.73,-107.88C186.73,-99.44 158.35,-86.15 137.54,-76.4"/>
<polygon fill="#63b8ff" stroke="#63b8ff" points="138.84,-73.14 128.3,-72.07 135.87,-79.48 138.84,-73.14"/>
</a>
</g>
</g>
<!-- Node17 -->
<g id="Node000017" class="node">
<title>Node17</title>
<g id="a_Node000017"><a xlink:title=" ">
<polygon fill="#e0e0e0" stroke="#999999" points="226.42,-72 151.73,-72 151.73,-54 226.42,-54 226.42,-72"/>
<text text-anchor="middle" x="189.08" y="-60" font-family="Helvetica,sans-Serif" font-size="10.00">system_error</text>
</a>
</g>
</g>
<!-- Node14&#45;&gt;Node17 -->
<g id="edge21_Node000014_Node000017" class="edge">
<title>Node14&#45;&gt;Node17</title>
<g id="a_edge21_Node000014_Node000017"><a xlink:title=" ">
<path fill="none" stroke="#63b8ff" d="M216.92,-107.88C212.34,-100.67 205.52,-89.91 199.77,-80.85"/>
<polygon fill="#63b8ff" stroke="#63b8ff" points="202.62,-78.81 194.3,-72.24 196.71,-82.56 202.62,-78.81"/>
</a>
</g>
</g>
<!-- Node19&#45;&gt;Node5 -->
<g id="edge30_Node000019_Node000005" class="edge">
<title>Node19&#45;&gt;Node5</title>
<g id="a_edge30_Node000019_Node000005"><a xlink:title=" ">
<path fill="none" stroke="#63b8ff" d="M759.61,-107.96C789.21,-97.85 829.89,-78.76 813.08,-54 796.39,-29.43 763.62,-18.58 737.99,-13.79"/>
<polygon fill="#63b8ff" stroke="#63b8ff" points="738.3,-10.3 727.86,-12.14 737.17,-17.2 738.3,-10.3"/>
</a>
</g>
</g>
<!-- Node19&#45;&gt;Node6 -->
<g id="edge31_Node000019_Node000006" class="edge">
<title>Node19&#45;&gt;Node6</title>
<g id="a_edge31_Node000019_Node000006"><a xlink:title=" ">
<path fill="none" stroke="#63b8ff" d="M732.05,-107.8C731.54,-94.47 728.5,-68.16 713.08,-54 687.85,-30.85 589,-17.96 538.35,-12.76"/>
<polygon fill="#63b8ff" stroke="#63b8ff" points="538.62,-9.27 528.32,-11.76 537.92,-16.23 538.62,-9.27"/>
</a>
</g>
</g>
<!-- Node19&#45;&gt;Node7 -->
<g id="edge28_Node000019_Node000007" class="edge">
<title>Node19&#45;&gt;Node7</title>
<g id="a_edge28_Node000019_Node000007"><a xlink:title=" ">
<path fill="none" stroke="#63b8ff" d="M723.01,-107.88C714.47,-100.21 701.44,-88.53 690.97,-79.15"/>
<polygon fill="#63b8ff" stroke="#63b8ff" points="693.05,-76.31 683.27,-72.24 688.38,-81.52 693.05,-76.31"/>
</a>
</g>
</g>
<!-- Node19&#45;&gt;Node11 -->
<g id="edge29_Node000019_Node000011" class="edge">
<title>Node19&#45;&gt;Node11</title>
<g id="a_edge29_Node000019_Node000011"><a xlink:title=" ">
<path fill="none" stroke="#63b8ff" d="M711.74,-107.99C689.91,-99.39 654.99,-85.63 630.02,-75.8"/>
<polygon fill="#63b8ff" stroke="#63b8ff" points="631.24,-72.51 620.65,-72.11 628.67,-79.03 631.24,-72.51"/>
</a>
</g>
</g>
<!-- Node20 -->
<g id="Node000020" class="node">
<title>Node20</title>
<g id="a_Node000020"><a xlink:title=" ">
<polygon fill="#e0e0e0" stroke="#999999" points="803.81,-72 760.34,-72 760.34,-54 803.81,-54 803.81,-72"/>
<text text-anchor="middle" x="782.08" y="-60" font-family="Helvetica,sans-Serif" font-size="10.00">vector</text>
</a>
</g>
</g>
<!-- Node19&#45;&gt;Node20 -->
<g id="edge32_Node000019_Node000020" class="edge">
<title>Node19&#45;&gt;Node20</title>
<g id="a_edge32_Node000019_Node000020"><a xlink:title=" ">
<path fill="none" stroke="#63b8ff" d="M739.89,-107.88C747.11,-100.36 758.04,-88.99 766.97,-79.71"/>
<polygon fill="#63b8ff" stroke="#63b8ff" points="769.74,-81.87 774.15,-72.24 764.7,-77.02 769.74,-81.87"/>
</a>
</g>
</g>
</g>
</svg>
