<?xml version="1.0" encoding="UTF-8" standalone="no"?>
<!DOCTYPE svg PUBLIC "-//W3C//DTD SVG 1.1//EN"
 "http://www.w3.org/Graphics/SVG/1.1/DTD/svg11.dtd">
<!-- Generated by graphviz version 2.48.0 (20210717.1556)
 -->
<!-- Title: xml.hpp Pages: 1 -->
<svg width="311pt" height="188pt"
 viewBox="0.00 0.00 310.73 188.00" xmlns="http://www.w3.org/2000/svg" xmlns:xlink="http://www.w3.org/1999/xlink">
<g id="graph0" class="graph" transform="scale(1 1) rotate(0) translate(4 184)">
<title>xml.hpp</title>
<!-- Node1 -->
<g id="Node000001" class="node">
<title>Node1</title>
<g id="a_Node000001"><a xlink:title=" ">
<polygon fill="#999999" stroke="#666666" points="170.02,-180 118.99,-180 118.99,-162 170.02,-162 170.02,-180"/>
<text text-anchor="middle" x="144.51" y="-168" font-family="Helvetica,sans-Serif" font-size="10.00">xml.hpp</text>
</a>
</g>
</g>
<!-- Node2 -->
<g id="Node000002" class="node">
<title>Node2</title>
<g id="a_Node000002"><a xlink:href="comic_8cpp.html" target="_top" xlink:title=" ">
<polygon fill="white" stroke="#666666" points="61.02,-18 -0.01,-18 -0.01,0 61.02,0 61.02,-18"/>
<text text-anchor="middle" x="30.51" y="-6" font-family="Helvetica,sans-Serif" font-size="10.00">comic.cpp</text>
</a>
</g>
</g>
<!-- Node1&#45;&gt;Node2 -->
<g id="edge1_Node000001_Node000002" class="edge">
<title>Node1&#45;&gt;Node2</title>
<g id="a_edge1_Node000001_Node000002"><a xlink:title=" ">
<path fill="none" stroke="#63b8ff" d="M132.76,-153.51C108.67,-119.7 54.44,-43.6 36.44,-18.33"/>
<polygon fill="#63b8ff" stroke="#63b8ff" points="130.04,-155.73 138.7,-161.85 135.75,-151.67 130.04,-155.73"/>
</a>
</g>
</g>
<!-- Node3 -->
<g id="Node000003" class="node">
<title>Node3</title>
<g id="a_Node000003"><a xlink:href="container_8cpp.html" target="_top" xlink:title=" ">
<polygon fill="white" stroke="#666666" points="154.5,-18 78.51,-18 78.51,0 154.5,0 154.5,-18"/>
<text text-anchor="middle" x="116.51" y="-6" font-family="Helvetica,sans-Serif" font-size="10.00">container.cpp</text>
</a>
</g>
</g>
<!-- Node1&#45;&gt;Node3 -->
<g id="edge2_Node000001_Node000003" class="edge">
<title>Node1&#45;&gt;Node3</title>
<g id="a_edge2_Node000001_Node000003"><a xlink:title=" ">
<path fill="none" stroke="#63b8ff" d="M138.59,-152.34C136.1,-144.37 133.36,-134.79 131.51,-126 123.08,-86.06 118.64,-37.33 117.12,-18.23"/>
<polygon fill="#63b8ff" stroke="#63b8ff" points="135.31,-153.56 141.72,-161.99 141.97,-151.4 135.31,-153.56"/>
</a>
</g>
</g>
<!-- Node4 -->
<g id="Node000004" class="node">
<title>Node4</title>
<g id="a_Node000004"><a xlink:href="package_8hpp.html" target="_top" xlink:title=" ">
<polygon fill="white" stroke="#666666" points="214.28,-126 140.74,-126 140.74,-108 214.28,-108 214.28,-126"/>
<text text-anchor="middle" x="177.51" y="-114" font-family="Helvetica,sans-Serif" font-size="10.00">package.hpp</text>
</a>
</g>
</g>
<!-- Node1&#45;&gt;Node4 -->
<g id="edge3_Node000001_Node000004" class="edge">
<title>Node1&#45;&gt;Node4</title>
<g id="a_edge3_Node000001_Node000004"><a xlink:title=" ">
<path fill="none" stroke="#63b8ff" d="M155.11,-153.3C160.85,-144.26 167.68,-133.49 172.28,-126.24"/>
<polygon fill="#63b8ff" stroke="#63b8ff" points="152.07,-151.56 149.66,-161.88 157.98,-155.31 152.07,-151.56"/>
</a>
</g>
</g>
<!-- Node7 -->
<g id="Node000007" class="node">
<title>Node7</title>
<g id="a_Node000007"><a xlink:href="xml_8cpp.html" target="_top" xlink:title=" ">
<polygon fill="white" stroke="#666666" points="302.96,-18 252.05,-18 252.05,0 302.96,0 302.96,-18"/>
<text text-anchor="middle" x="277.51" y="-6" font-family="Helvetica,sans-Serif" font-size="10.00">xml.cpp</text>
</a>
</g>
</g>
<!-- Node1&#45;&gt;Node7 -->
<g id="edge10_Node000001_Node000007" class="edge">
<title>Node1&#45;&gt;Node7</title>
<g id="a_edge10_Node000001_Node000007"><a xlink:title=" ">
<path fill="none" stroke="#63b8ff" d="M176.49,-157.78C192.24,-150.48 210.58,-139.9 223.51,-126 254.52,-92.65 270.49,-38.33 275.62,-18.01"/>
<polygon fill="#63b8ff" stroke="#63b8ff" points="174.84,-154.69 167.08,-161.91 177.65,-161.1 174.84,-154.69"/>
</a>
</g>
</g>
<!-- Node5 -->
<g id="Node000005" class="node">
<title>Node5</title>
<g id="a_Node000005"><a xlink:href="container_8hpp.html" target="_top" xlink:title=" ">
<polygon fill="white" stroke="#666666" points="215.56,-72 139.45,-72 139.45,-54 215.56,-54 215.56,-72"/>
<text text-anchor="middle" x="177.51" y="-60" font-family="Helvetica,sans-Serif" font-size="10.00">container.hpp</text>
</a>
</g>
</g>
<!-- Node4&#45;&gt;Node5 -->
<g id="edge4_Node000004_Node000005" class="edge">
<title>Node4&#45;&gt;Node5</title>
<g id="a_edge4_Node000004_Node000005"><a xlink:title=" ">
<path fill="none" stroke="#63b8ff" d="M177.51,-97.86C177.51,-89.13 177.51,-79.1 177.51,-72.24"/>
<polygon fill="#63b8ff" stroke="#63b8ff" points="174.01,-97.87 177.51,-107.88 181.01,-97.88 174.01,-97.87"/>
</a>
</g>
</g>
<!-- Node4&#45;&gt;Node7 -->
<g id="edge9_Node000004_Node000007" class="edge">
<title>Node4&#45;&gt;Node7</title>
<g id="a_edge9_Node000004_Node000007"><a xlink:title=" ">
<path fill="none" stroke="#63b8ff" d="M194.46,-100.97C203.6,-92.66 214.93,-82.02 224.51,-72 242.12,-53.57 261.17,-30.41 270.92,-18.28"/>
<polygon fill="#63b8ff" stroke="#63b8ff" points="191.9,-98.57 186.8,-107.85 196.58,-103.77 191.9,-98.57"/>
</a>
</g>
</g>
<!-- Node5&#45;&gt;Node2 -->
<g id="edge6_Node000005_Node000002" class="edge">
<title>Node5&#45;&gt;Node2</title>
<g id="a_edge6_Node000005_Node000002"><a xlink:title=" ">
<path fill="none" stroke="#63b8ff" d="M145.2,-50.57C117.43,-40.75 78.06,-26.82 53.42,-18.11"/>
<polygon fill="#63b8ff" stroke="#63b8ff" points="144.27,-53.95 154.86,-53.99 146.6,-47.35 144.27,-53.95"/>
</a>
</g>
</g>
<!-- Node5&#45;&gt;Node3 -->
<g id="edge7_Node000005_Node000003" class="edge">
<title>Node5&#45;&gt;Node3</title>
<g id="a_edge7_Node000005_Node000003"><a xlink:title=" ">
<path fill="none" stroke="#63b8ff" d="M160.22,-47.27C149.19,-37.86 135.3,-26.02 126.17,-18.24"/>
<polygon fill="#63b8ff" stroke="#63b8ff" points="158.1,-50.05 167.98,-53.88 162.64,-44.72 158.1,-50.05"/>
</a>
</g>
</g>
<!-- Node6 -->
<g id="Node000006" class="node">
<title>Node6</title>
<g id="a_Node000006"><a xlink:href="binder_8cpp.html" target="_top" xlink:title=" ">
<polygon fill="white" stroke="#666666" points="234.66,-18 172.35,-18 172.35,0 234.66,0 234.66,-18"/>
<text text-anchor="middle" x="203.51" y="-6" font-family="Helvetica,sans-Serif" font-size="10.00">binder.cpp</text>
</a>
</g>
</g>
<!-- Node5&#45;&gt;Node6 -->
<g id="edge5_Node000005_Node000006" class="edge">
<title>Node5&#45;&gt;Node6</title>
<g id="a_edge5_Node000005_Node000006"><a xlink:title=" ">
<path fill="none" stroke="#63b8ff" d="M186.15,-44.72C190.61,-35.8 195.84,-25.33 199.39,-18.24"/>
<polygon fill="#63b8ff" stroke="#63b8ff" points="182.91,-43.37 181.57,-53.88 189.17,-46.5 182.91,-43.37"/>
</a>
</g>
</g>
<!-- Node5&#45;&gt;Node7 -->
<g id="edge8_Node000005_Node000007" class="edge">
<title>Node5&#45;&gt;Node7</title>
<g id="a_edge8_Node000005_Node000007"><a xlink:title=" ">
<path fill="none" stroke="#63b8ff" d="M202.25,-49.14C220.94,-39.41 246.04,-26.37 261.99,-18.07"/>
<polygon fill="#63b8ff" stroke="#63b8ff" points="200.39,-46.16 193.13,-53.88 203.62,-52.37 200.39,-46.16"/>
</a>
</g>
</g>
</g>
</svg>
