<?xml version="1.0" encoding="UTF-8" standalone="no"?>
<!DOCTYPE svg PUBLIC "-//W3C//DTD SVG 1.1//EN"
 "http://www.w3.org/Graphics/SVG/1.1/DTD/svg11.dtd">
<!-- Generated by graphviz version 2.48.0 (20210717.1556)
 -->
<!-- Title: xml.cpp Pages: 1 -->
<svg width="1508pt" height="296pt"
 viewBox="0.00 0.00 1507.51 296.00" xmlns="http://www.w3.org/2000/svg" xmlns:xlink="http://www.w3.org/1999/xlink">
<g id="graph0" class="graph" transform="scale(1 1) rotate(0) translate(4 292)">
<title>xml.cpp</title>
<!-- Node1 -->
<g id="Node000001" class="node">
<title>Node1</title>
<g id="a_Node000001"><a xlink:title=" ">
<polygon fill="#999999" stroke="#666666" points="868.18,-288 817.27,-288 817.27,-270 868.18,-270 868.18,-288"/>
<text text-anchor="middle" x="842.73" y="-276" font-family="Helvetica,sans-Serif" font-size="10.00">xml.cpp</text>
</a>
</g>
</g>
<!-- Node2 -->
<g id="Node000002" class="node">
<title>Node2</title>
<g id="a_Node000002"><a xlink:href="xml_8hpp.html" target="_top" xlink:title=" ">
<polygon fill="white" stroke="#666666" points="63.24,-126 12.21,-126 12.21,-108 63.24,-108 63.24,-126"/>
<text text-anchor="middle" x="37.73" y="-114" font-family="Helvetica,sans-Serif" font-size="10.00">xml.hpp</text>
</a>
</g>
</g>
<!-- Node1&#45;&gt;Node2 -->
<g id="edge1_Node000001_Node000002" class="edge">
<title>Node1&#45;&gt;Node2</title>
<g id="a_edge1_Node000001_Node000002"><a xlink:title=" ">
<path fill="none" stroke="#63b8ff" d="M817.25,-278.44C731.94,-279.43 448.83,-278.9 220.73,-234 145.43,-219.18 110.42,-234.82 56.73,-180 45.28,-168.31 40.71,-149.92 38.89,-136.19"/>
<polygon fill="#63b8ff" stroke="#63b8ff" points="42.35,-135.64 37.92,-126.02 35.38,-136.3 42.35,-135.64"/>
</a>
</g>
</g>
<!-- Node6 -->
<g id="Node000006" class="node">
<title>Node6</title>
<g id="a_Node000006"><a xlink:title=" ">
<polygon fill="#e0e0e0" stroke="#999999" points="533.18,-18 492.27,-18 492.27,0 533.18,0 533.18,-18"/>
<text text-anchor="middle" x="512.73" y="-6" font-family="Helvetica,sans-Serif" font-size="10.00">string</text>
</a>
</g>
</g>
<!-- Node1&#45;&gt;Node6 -->
<g id="edge51_Node000001_Node000006" class="edge">
<title>Node1&#45;&gt;Node6</title>
<g id="a_edge51_Node000001_Node000006"><a xlink:title=" ">
<path fill="none" stroke="#63b8ff" d="M817.14,-276.31C767.85,-272.46 662.62,-261.18 640.73,-234 580.1,-158.74 824.86,-128.02 762.73,-54 735,-20.96 603.51,-12.72 543.15,-10.67"/>
<polygon fill="#63b8ff" stroke="#63b8ff" points="543.18,-7.17 533.08,-10.37 542.97,-14.17 543.18,-7.17"/>
</a>
</g>
</g>
<!-- Node7 -->
<g id="Node000007" class="node">
<title>Node7</title>
<g id="a_Node000007"><a xlink:title=" ">
<polygon fill="#e0e0e0" stroke="#999999" points="122.18,-72 61.27,-72 61.27,-54 122.18,-54 122.18,-72"/>
<text text-anchor="middle" x="91.73" y="-60" font-family="Helvetica,sans-Serif" font-size="10.00">filesystem</text>
</a>
</g>
</g>
<!-- Node1&#45;&gt;Node7 -->
<g id="edge44_Node000001_Node000007" class="edge">
<title>Node1&#45;&gt;Node7</title>
<g id="a_edge44_Node000001_Node000007"><a xlink:title=" ">
<path fill="none" stroke="#63b8ff" d="M817.14,-277.41C694.94,-274.49 173.91,-260.56 106.73,-234 44.76,-209.5 23.23,-189.4 2.73,-126 0.26,-118.39 -1.5,-114.8 2.73,-108 13.52,-90.62 33.43,-79.9 51.69,-73.4"/>
<polygon fill="#63b8ff" stroke="#63b8ff" points="52.87,-76.7 61.31,-70.29 50.72,-70.04 52.87,-76.7"/>
</a>
</g>
</g>
<!-- Node8 -->
<g id="Node000008" class="node">
<title>Node8</title>
<g id="a_Node000008"><a xlink:href="manifest_8hpp.html" target="_top" xlink:title=" ">
<polygon fill="white" stroke="#666666" points="330.48,-126 256.97,-126 256.97,-108 330.48,-108 330.48,-126"/>
<text text-anchor="middle" x="293.73" y="-114" font-family="Helvetica,sans-Serif" font-size="10.00">manifest.hpp</text>
</a>
</g>
</g>
<!-- Node1&#45;&gt;Node8 -->
<g id="edge8_Node000001_Node000008" class="edge">
<title>Node1&#45;&gt;Node8</title>
<g id="a_edge8_Node000001_Node000008"><a xlink:title=" ">
<path fill="none" stroke="#63b8ff" d="M817.36,-277.48C719.09,-275.22 366.98,-265.03 328.73,-234 299.27,-210.1 293.94,-162.32 293.37,-136.16"/>
<polygon fill="#63b8ff" stroke="#63b8ff" points="296.87,-136.11 293.37,-126.11 289.87,-136.11 296.87,-136.11"/>
</a>
</g>
</g>
<!-- Node9 -->
<g id="Node000009" class="node">
<title>Node9</title>
<g id="a_Node000009"><a xlink:title=" ">
<polygon fill="#e0e0e0" stroke="#999999" points="343.84,-72 291.61,-72 291.61,-54 343.84,-54 343.84,-72"/>
<text text-anchor="middle" x="317.73" y="-60" font-family="Helvetica,sans-Serif" font-size="10.00">memory</text>
</a>
</g>
</g>
<!-- Node1&#45;&gt;Node9 -->
<g id="edge48_Node000001_Node000009" class="edge">
<title>Node1&#45;&gt;Node9</title>
<g id="a_edge48_Node000001_Node000009"><a xlink:title=" ">
<path fill="none" stroke="#63b8ff" d="M817.25,-275.78C763.75,-270.72 641.82,-256.94 607.73,-234 552.49,-196.84 581.61,-145.69 526.73,-108 464.17,-65.04 432.42,-86.91 353.9,-72.08"/>
<polygon fill="#63b8ff" stroke="#63b8ff" points="354.58,-68.65 344.09,-70.09 353.19,-75.51 354.58,-68.65"/>
</a>
</g>
</g>
<!-- Node12 -->
<g id="Node000012" class="node">
<title>Node12</title>
<g id="a_Node000012"><a xlink:href="navigation_8hpp.html" target="_top" xlink:title=" ">
<polygon fill="white" stroke="#666666" points="170.28,-180 89.17,-180 89.17,-162 170.28,-162 170.28,-180"/>
<text text-anchor="middle" x="129.73" y="-168" font-family="Helvetica,sans-Serif" font-size="10.00">navigation.hpp</text>
</a>
</g>
</g>
<!-- Node1&#45;&gt;Node12 -->
<g id="edge15_Node000001_Node000012" class="edge">
<title>Node1&#45;&gt;Node12</title>
<g id="a_edge15_Node000001_Node000012"><a xlink:title=" ">
<path fill="none" stroke="#63b8ff" d="M817.39,-277.07C721.92,-273.43 384.13,-258.99 279.73,-234 233.44,-222.92 182.93,-199.47 153.92,-184.8"/>
<polygon fill="#63b8ff" stroke="#63b8ff" points="155.44,-181.64 144.95,-180.19 152.25,-187.87 155.44,-181.64"/>
</a>
</g>
</g>
<!-- Node14 -->
<g id="Node000014" class="node">
<title>Node14</title>
<g id="a_Node000014"><a xlink:href="package_8hpp.html" target="_top" xlink:title=" ">
<polygon fill="white" stroke="#666666" points="411.5,-234 337.95,-234 337.95,-216 411.5,-216 411.5,-234"/>
<text text-anchor="middle" x="374.73" y="-222" font-family="Helvetica,sans-Serif" font-size="10.00">package.hpp</text>
</a>
</g>
</g>
<!-- Node1&#45;&gt;Node14 -->
<g id="edge21_Node000001_Node000014" class="edge">
<title>Node1&#45;&gt;Node14</title>
<g id="a_edge21_Node000001_Node000014"><a xlink:title=" ">
<path fill="none" stroke="#63b8ff" d="M817.23,-275.17C741.87,-266.79 519.31,-242.06 421.61,-231.21"/>
<polygon fill="#63b8ff" stroke="#63b8ff" points="421.76,-227.7 411.44,-230.08 420.99,-234.66 421.76,-227.7"/>
</a>
</g>
</g>
<!-- Node22 -->
<g id="Node000022" class="node">
<title>Node22</title>
<g id="a_Node000022"><a xlink:title=" ">
<polygon fill="#e0e0e0" stroke="#999999" points="743.49,-234 649.96,-234 649.96,-216 743.49,-216 743.49,-234"/>
<text text-anchor="middle" x="696.73" y="-222" font-family="Helvetica,sans-Serif" font-size="10.00">libxml/encoding.h</text>
</a>
</g>
</g>
<!-- Node1&#45;&gt;Node22 -->
<g id="edge38_Node000001_Node000022" class="edge">
<title>Node1&#45;&gt;Node22</title>
<g id="a_edge38_Node000001_Node000022"><a xlink:title=" ">
<path fill="none" stroke="#63b8ff" d="M820.23,-269.99C795.87,-261.31 756.78,-247.39 729.11,-237.54"/>
<polygon fill="#63b8ff" stroke="#63b8ff" points="730.08,-234.16 719.48,-234.11 727.73,-240.76 730.08,-234.16"/>
</a>
</g>
</g>
<!-- Node23 -->
<g id="Node000023" class="node">
<title>Node23</title>
<g id="a_Node000023"><a xlink:title=" ">
<polygon fill="#e0e0e0" stroke="#999999" points="831.63,-234 761.82,-234 761.82,-216 831.63,-216 831.63,-234"/>
<text text-anchor="middle" x="796.73" y="-222" font-family="Helvetica,sans-Serif" font-size="10.00">libxml/tree.h</text>
</a>
</g>
</g>
<!-- Node1&#45;&gt;Node23 -->
<g id="edge39_Node000001_Node000023" class="edge">
<title>Node1&#45;&gt;Node23</title>
<g id="a_edge39_Node000001_Node000023"><a xlink:title=" ">
<path fill="none" stroke="#63b8ff" d="M835.54,-269.88C828.96,-262.44 819.04,-251.22 810.87,-241.99"/>
<polygon fill="#63b8ff" stroke="#63b8ff" points="813.26,-239.41 804.01,-234.24 808.02,-244.05 813.26,-239.41"/>
</a>
</g>
</g>
<!-- Node24 -->
<g id="Node000024" class="node">
<title>Node24</title>
<g id="a_Node000024"><a xlink:title=" ">
<polygon fill="#e0e0e0" stroke="#999999" points="927.36,-234 850.09,-234 850.09,-216 927.36,-216 927.36,-234"/>
<text text-anchor="middle" x="888.73" y="-222" font-family="Helvetica,sans-Serif" font-size="10.00">libxml/xpath.h</text>
</a>
</g>
</g>
<!-- Node1&#45;&gt;Node24 -->
<g id="edge40_Node000001_Node000024" class="edge">
<title>Node1&#45;&gt;Node24</title>
<g id="a_edge40_Node000001_Node000024"><a xlink:title=" ">
<path fill="none" stroke="#63b8ff" d="M849.91,-269.88C856.49,-262.44 866.41,-251.22 874.58,-241.99"/>
<polygon fill="#63b8ff" stroke="#63b8ff" points="877.43,-244.05 881.44,-234.24 872.19,-239.41 877.43,-244.05"/>
</a>
</g>
</g>
<!-- Node25 -->
<g id="Node000025" class="node">
<title>Node25</title>
<g id="a_Node000025"><a xlink:title=" ">
<polygon fill="#e0e0e0" stroke="#999999" points="1060.72,-234 944.73,-234 944.73,-216 1060.72,-216 1060.72,-234"/>
<text text-anchor="middle" x="1002.73" y="-222" font-family="Helvetica,sans-Serif" font-size="10.00">libxml/xpathInternals.h</text>
</a>
</g>
</g>
<!-- Node1&#45;&gt;Node25 -->
<g id="edge41_Node000001_Node000025" class="edge">
<title>Node1&#45;&gt;Node25</title>
<g id="a_edge41_Node000001_Node000025"><a xlink:title=" ">
<path fill="none" stroke="#63b8ff" d="M867.38,-269.99C894.39,-261.21 937.92,-247.06 968.29,-237.19"/>
<polygon fill="#63b8ff" stroke="#63b8ff" points="969.62,-240.44 978.05,-234.02 967.46,-233.78 969.62,-240.44"/>
</a>
</g>
</g>
<!-- Node26 -->
<g id="Node000026" class="node">
<title>Node26</title>
<g id="a_Node000026"><a xlink:title=" ">
<polygon fill="#e0e0e0" stroke="#999999" points="1120.85,-234 1078.6,-234 1078.6,-216 1120.85,-216 1120.85,-234"/>
<text text-anchor="middle" x="1099.73" y="-222" font-family="Helvetica,sans-Serif" font-size="10.00">cstdio</text>
</a>
</g>
</g>
<!-- Node1&#45;&gt;Node26 -->
<g id="edge42_Node000001_Node000026" class="edge">
<title>Node1&#45;&gt;Node26</title>
<g id="a_edge42_Node000001_Node000026"><a xlink:title=" ">
<path fill="none" stroke="#63b8ff" d="M868.04,-273.68C908.37,-266.68 989.91,-252 1068.41,-234.17"/>
<polygon fill="#63b8ff" stroke="#63b8ff" points="1069.5,-237.51 1078.47,-231.86 1067.94,-230.69 1069.5,-237.51"/>
</a>
</g>
</g>
<!-- Node27 -->
<g id="Node000027" class="node">
<title>Node27</title>
<g id="a_Node000027"><a xlink:title=" ">
<polygon fill="#e0e0e0" stroke="#999999" points="1178.62,-234 1138.83,-234 1138.83,-216 1178.62,-216 1178.62,-234"/>
<text text-anchor="middle" x="1158.73" y="-222" font-family="Helvetica,sans-Serif" font-size="10.00">ctime</text>
</a>
</g>
</g>
<!-- Node1&#45;&gt;Node27 -->
<g id="edge43_Node000001_Node000027" class="edge">
<title>Node1&#45;&gt;Node27</title>
<g id="a_edge43_Node000001_Node000027"><a xlink:title=" ">
<path fill="none" stroke="#63b8ff" d="M868.25,-275.11C917.01,-269.36 1026.94,-255.36 1128.98,-233.92"/>
<polygon fill="#63b8ff" stroke="#63b8ff" points="1129.78,-237.32 1138.83,-231.82 1128.32,-230.48 1129.78,-237.32"/>
</a>
</g>
</g>
<!-- Node28 -->
<g id="Node000028" class="node">
<title>Node28</title>
<g id="a_Node000028"><a xlink:title=" ">
<polygon fill="#e0e0e0" stroke="#999999" points="1246.57,-234 1196.88,-234 1196.88,-216 1246.57,-216 1246.57,-234"/>
<text text-anchor="middle" x="1221.73" y="-222" font-family="Helvetica,sans-Serif" font-size="10.00">fstream</text>
</a>
</g>
</g>
<!-- Node1&#45;&gt;Node28 -->
<g id="edge45_Node000001_Node000028" class="edge">
<title>Node1&#45;&gt;Node28</title>
<g id="a_edge45_Node000001_Node000028"><a xlink:title=" ">
<path fill="none" stroke="#63b8ff" d="M867.97,-275.69C923.66,-270.4 1061.37,-256.27 1186.75,-233.98"/>
<polygon fill="#63b8ff" stroke="#63b8ff" points="1187.68,-237.37 1196.91,-232.16 1186.44,-230.48 1187.68,-237.37"/>
</a>
</g>
</g>
<!-- Node29 -->
<g id="Node000029" class="node">
<title>Node29</title>
<g id="a_Node000029"><a xlink:title=" ">
<polygon fill="#e0e0e0" stroke="#999999" points="1305.3,-234 1264.15,-234 1264.15,-216 1305.3,-216 1305.3,-234"/>
<text text-anchor="middle" x="1284.73" y="-222" font-family="Helvetica,sans-Serif" font-size="10.00">future</text>
</a>
</g>
</g>
<!-- Node1&#45;&gt;Node29 -->
<g id="edge46_Node000001_Node000029" class="edge">
<title>Node1&#45;&gt;Node29</title>
<g id="a_edge46_Node000001_Node000029"><a xlink:title=" ">
<path fill="none" stroke="#63b8ff" d="M868.08,-276.74C931.63,-273.28 1102.93,-262.07 1253.99,-234.05"/>
<polygon fill="#63b8ff" stroke="#63b8ff" points="1254.73,-237.47 1263.91,-232.18 1253.44,-230.59 1254.73,-237.47"/>
</a>
</g>
</g>
<!-- Node30 -->
<g id="Node000030" class="node">
<title>Node30</title>
<g id="a_Node000030"><a xlink:title=" ">
<polygon fill="#e0e0e0" stroke="#999999" points="1374.25,-234 1323.21,-234 1323.21,-216 1374.25,-216 1374.25,-234"/>
<text text-anchor="middle" x="1348.73" y="-222" font-family="Helvetica,sans-Serif" font-size="10.00">iomanip</text>
</a>
</g>
</g>
<!-- Node1&#45;&gt;Node30 -->
<g id="edge47_Node000001_Node000030" class="edge">
<title>Node1&#45;&gt;Node30</title>
<g id="a_edge47_Node000001_Node000030"><a xlink:title=" ">
<path fill="none" stroke="#63b8ff" d="M867.95,-276.88C937.47,-273.52 1137.76,-262.11 1313.26,-234.02"/>
<polygon fill="#63b8ff" stroke="#63b8ff" points="1313.87,-237.47 1323.18,-232.41 1312.75,-230.56 1313.87,-237.47"/>
</a>
</g>
</g>
<!-- Node31 -->
<g id="Node000031" class="node">
<title>Node31</title>
<g id="a_Node000031"><a xlink:title=" ">
<polygon fill="#e0e0e0" stroke="#999999" points="1429.41,-234 1392.04,-234 1392.04,-216 1429.41,-216 1429.41,-234"/>
<text text-anchor="middle" x="1410.73" y="-222" font-family="Helvetica,sans-Serif" font-size="10.00">span</text>
</a>
</g>
</g>
<!-- Node1&#45;&gt;Node31 -->
<g id="edge49_Node000001_Node000031" class="edge">
<title>Node1&#45;&gt;Node31</title>
<g id="a_edge49_Node000001_Node000031"><a xlink:title=" ">
<path fill="none" stroke="#63b8ff" d="M868.05,-277.79C944.53,-276.78 1179.83,-270.82 1382.06,-233.94"/>
<polygon fill="#63b8ff" stroke="#63b8ff" points="1382.77,-237.36 1391.96,-232.1 1381.49,-230.48 1382.77,-237.36"/>
</a>
</g>
</g>
<!-- Node32 -->
<g id="Node000032" class="node">
<title>Node32</title>
<g id="a_Node000032"><a xlink:title=" ">
<polygon fill="#e0e0e0" stroke="#999999" points="1499.29,-234 1448.16,-234 1448.16,-216 1499.29,-216 1499.29,-234"/>
<text text-anchor="middle" x="1473.73" y="-222" font-family="Helvetica,sans-Serif" font-size="10.00">sstream</text>
</a>
</g>
</g>
<!-- Node1&#45;&gt;Node32 -->
<g id="edge50_Node000001_Node000032" class="edge">
<title>Node1&#45;&gt;Node32</title>
<g id="a_edge50_Node000001_Node000032"><a xlink:title=" ">
<path fill="none" stroke="#63b8ff" d="M868.15,-277.49C949.62,-275.58 1211.59,-267.22 1437.75,-233.88"/>
<polygon fill="#63b8ff" stroke="#63b8ff" points="1438.44,-237.32 1447.82,-232.38 1437.41,-230.4 1438.44,-237.32"/>
</a>
</g>
</g>
<!-- Node3 -->
<g id="Node000003" class="node">
<title>Node3</title>
<g id="a_Node000003"><a xlink:href="file__metadata_8hpp.html" target="_top" xlink:title=" ">
<polygon fill="white" stroke="#666666" points="273.23,-72 178.22,-72 178.22,-54 273.23,-54 273.23,-72"/>
<text text-anchor="middle" x="225.73" y="-60" font-family="Helvetica,sans-Serif" font-size="10.00">file_metadata.hpp</text>
</a>
</g>
</g>
<!-- Node2&#45;&gt;Node3 -->
<g id="edge2_Node000002_Node000003" class="edge">
<title>Node2&#45;&gt;Node3</title>
<g id="a_edge2_Node000002_Node000003"><a xlink:title=" ">
<path fill="none" stroke="#63b8ff" d="M63.47,-108.88C95.28,-100.08 149.7,-85.03 186.66,-74.8"/>
<polygon fill="#63b8ff" stroke="#63b8ff" points="187.89,-78.1 196.59,-72.06 186.02,-71.35 187.89,-78.1"/>
</a>
</g>
</g>
<!-- Node4 -->
<g id="Node000004" class="node">
<title>Node4</title>
<g id="a_Node000004"><a xlink:title=" ">
<polygon fill="#e0e0e0" stroke="#999999" points="167.68,-18 131.77,-18 131.77,0 167.68,0 167.68,-18"/>
<text text-anchor="middle" x="149.73" y="-6" font-family="Helvetica,sans-Serif" font-size="10.00">map</text>
</a>
</g>
</g>
<!-- Node2&#45;&gt;Node4 -->
<g id="edge7_Node000002_Node000004" class="edge">
<title>Node2&#45;&gt;Node4</title>
<g id="a_edge7_Node000002_Node000004"><a xlink:title=" ">
<path fill="none" stroke="#63b8ff" d="M37.54,-107.77C37.67,-94.86 39.74,-69.7 52.73,-54 70.23,-32.84 100.06,-21.43 122.03,-15.57"/>
<polygon fill="#63b8ff" stroke="#63b8ff" points="122.91,-18.96 131.8,-13.19 121.25,-12.16 122.91,-18.96"/>
</a>
</g>
</g>
<!-- Node2&#45;&gt;Node7 -->
<g id="edge6_Node000002_Node000007" class="edge">
<title>Node2&#45;&gt;Node7</title>
<g id="a_edge6_Node000002_Node000007"><a xlink:title=" ">
<path fill="none" stroke="#63b8ff" d="M46.16,-107.88C54.04,-100.29 66.01,-88.76 75.7,-79.43"/>
<polygon fill="#63b8ff" stroke="#63b8ff" points="78.39,-81.7 83.17,-72.24 73.54,-76.65 78.39,-81.7"/>
</a>
</g>
</g>
<!-- Node3&#45;&gt;Node4 -->
<g id="edge3_Node000003_Node000004" class="edge">
<title>Node3&#45;&gt;Node4</title>
<g id="a_edge3_Node000003_Node000004"><a xlink:title=" ">
<path fill="none" stroke="#63b8ff" d="M213.85,-53.88C202.21,-45.91 184.22,-33.6 170.26,-24.05"/>
<polygon fill="#63b8ff" stroke="#63b8ff" points="172,-21 161.77,-18.24 168.05,-26.78 172,-21"/>
</a>
</g>
</g>
<!-- Node5 -->
<g id="Node000005" class="node">
<title>Node5</title>
<g id="a_Node000005"><a xlink:title=" ">
<polygon fill="#e0e0e0" stroke="#999999" points="251.26,-18 200.2,-18 200.2,0 251.26,0 251.26,-18"/>
<text text-anchor="middle" x="225.73" y="-6" font-family="Helvetica,sans-Serif" font-size="10.00">optional</text>
</a>
</g>
</g>
<!-- Node3&#45;&gt;Node5 -->
<g id="edge4_Node000003_Node000005" class="edge">
<title>Node3&#45;&gt;Node5</title>
<g id="a_edge4_Node000003_Node000005"><a xlink:title=" ">
<path fill="none" stroke="#63b8ff" d="M225.73,-53.88C225.73,-47.05 225.73,-37.03 225.73,-28.29"/>
<polygon fill="#63b8ff" stroke="#63b8ff" points="229.23,-28.24 225.73,-18.24 222.23,-28.24 229.23,-28.24"/>
</a>
</g>
</g>
<!-- Node3&#45;&gt;Node6 -->
<g id="edge5_Node000003_Node000006" class="edge">
<title>Node3&#45;&gt;Node6</title>
<g id="a_edge5_Node000003_Node000006"><a xlink:title=" ">
<path fill="none" stroke="#63b8ff" d="M269.94,-53.99C328.81,-43.32 431.39,-24.74 482.29,-15.51"/>
<polygon fill="#63b8ff" stroke="#63b8ff" points="483.12,-18.92 492.33,-13.7 481.87,-12.03 483.12,-18.92"/>
</a>
</g>
</g>
<!-- Node8&#45;&gt;Node3 -->
<g id="edge9_Node000008_Node000003" class="edge">
<title>Node8&#45;&gt;Node3</title>
<g id="a_edge9_Node000008_Node000003"><a xlink:title=" ">
<path fill="none" stroke="#63b8ff" d="M283.1,-107.88C272.78,-99.98 256.9,-87.84 244.45,-78.32"/>
<polygon fill="#63b8ff" stroke="#63b8ff" points="246.57,-75.53 236.5,-72.24 242.32,-81.09 246.57,-75.53"/>
</a>
</g>
</g>
<!-- Node8&#45;&gt;Node4 -->
<g id="edge11_Node000008_Node000004" class="edge">
<title>Node8&#45;&gt;Node4</title>
<g id="a_edge11_Node000008_Node000004"><a xlink:title=" ">
<path fill="none" stroke="#63b8ff" d="M260.76,-108C228.26,-99.49 181.63,-85.45 168.73,-72 157.52,-60.32 152.91,-42.21 151.02,-28.57"/>
<polygon fill="#63b8ff" stroke="#63b8ff" points="154.48,-28 149.99,-18.41 147.51,-28.71 154.48,-28"/>
</a>
</g>
</g>
<!-- Node8&#45;&gt;Node7 -->
<g id="edge10_Node000008_Node000007" class="edge">
<title>Node8&#45;&gt;Node7</title>
<g id="a_edge10_Node000008_Node000007"><a xlink:title=" ">
<path fill="none" stroke="#63b8ff" d="M262.61,-107.99C227.56,-98.97 170.49,-84.28 132.05,-74.38"/>
<polygon fill="#63b8ff" stroke="#63b8ff" points="132.78,-70.95 122.22,-71.85 131.03,-77.73 132.78,-70.95"/>
</a>
</g>
</g>
<!-- Node8&#45;&gt;Node9 -->
<g id="edge12_Node000008_Node000009" class="edge">
<title>Node8&#45;&gt;Node9</title>
<g id="a_edge12_Node000008_Node000009"><a xlink:title=" ">
<path fill="none" stroke="#63b8ff" d="M297.48,-107.88C300.73,-100.82 305.56,-90.36 309.69,-81.42"/>
<polygon fill="#63b8ff" stroke="#63b8ff" points="312.91,-82.79 313.92,-72.24 306.55,-79.85 312.91,-82.79"/>
</a>
</g>
</g>
<!-- Node10 -->
<g id="Node000010" class="node">
<title>Node10</title>
<g id="a_Node000010"><a xlink:title=" ">
<polygon fill="#e0e0e0" stroke="#999999" points="407.8,-72 361.65,-72 361.65,-54 407.8,-54 407.8,-72"/>
<text text-anchor="middle" x="384.73" y="-60" font-family="Helvetica,sans-Serif" font-size="10.00">ranges</text>
</a>
</g>
</g>
<!-- Node8&#45;&gt;Node10 -->
<g id="edge13_Node000008_Node000010" class="edge">
<title>Node8&#45;&gt;Node10</title>
<g id="a_edge13_Node000008_Node000010"><a xlink:title=" ">
<path fill="none" stroke="#63b8ff" d="M307.94,-107.88C322.37,-99.63 344.92,-86.74 361.86,-77.07"/>
<polygon fill="#63b8ff" stroke="#63b8ff" points="363.66,-80.07 370.61,-72.07 360.19,-73.99 363.66,-80.07"/>
</a>
</g>
</g>
<!-- Node11 -->
<g id="Node000011" class="node">
<title>Node11</title>
<g id="a_Node000011"><a xlink:title=" ">
<polygon fill="#e0e0e0" stroke="#999999" points="485.03,-72 426.42,-72 426.42,-54 485.03,-54 485.03,-72"/>
<text text-anchor="middle" x="455.73" y="-60" font-family="Helvetica,sans-Serif" font-size="10.00">stdexcept</text>
</a>
</g>
</g>
<!-- Node8&#45;&gt;Node11 -->
<g id="edge14_Node000008_Node000011" class="edge">
<title>Node8&#45;&gt;Node11</title>
<g id="a_edge14_Node000008_Node000011"><a xlink:title=" ">
<path fill="none" stroke="#63b8ff" d="M318.68,-107.99C346.03,-99.21 390.11,-85.06 420.86,-75.19"/>
<polygon fill="#63b8ff" stroke="#63b8ff" points="422.29,-78.41 430.74,-72.02 420.15,-71.74 422.29,-78.41"/>
</a>
</g>
</g>
<!-- Node12&#45;&gt;Node2 -->
<g id="edge17_Node000012_Node000002" class="edge">
<title>Node12&#45;&gt;Node2</title>
<g id="a_edge17_Node000012_Node000002"><a xlink:title=" ">
<path fill="none" stroke="#63b8ff" d="M115.35,-161.88C100.77,-153.63 77.97,-140.74 60.84,-131.07"/>
<polygon fill="#63b8ff" stroke="#63b8ff" points="62.43,-127.94 52,-126.07 58.98,-134.04 62.43,-127.94"/>
</a>
</g>
</g>
<!-- Node12&#45;&gt;Node7 -->
<g id="edge18_Node000012_Node000007" class="edge">
<title>Node12&#45;&gt;Node7</title>
<g id="a_edge18_Node000012_Node000007"><a xlink:title=" ">
<path fill="none" stroke="#63b8ff" d="M126.74,-161.68C120.61,-144.58 106.47,-105.11 98.15,-81.92"/>
<polygon fill="#63b8ff" stroke="#63b8ff" points="101.36,-80.51 94.69,-72.28 94.77,-82.87 101.36,-80.51"/>
</a>
</g>
</g>
<!-- Node12&#45;&gt;Node8 -->
<g id="edge16_Node000012_Node000008" class="edge">
<title>Node12&#45;&gt;Node8</title>
<g id="a_edge16_Node000012_Node000008"><a xlink:title=" ">
<path fill="none" stroke="#63b8ff" d="M154.99,-161.99C182.8,-153.17 227.68,-138.94 258.84,-129.06"/>
<polygon fill="#63b8ff" stroke="#63b8ff" points="259.96,-132.38 268.43,-126.02 257.84,-125.71 259.96,-132.38"/>
</a>
</g>
</g>
<!-- Node12&#45;&gt;Node9 -->
<g id="edge19_Node000012_Node000009" class="edge">
<title>Node12&#45;&gt;Node9</title>
<g id="a_edge19_Node000012_Node000009"><a xlink:title=" ">
<path fill="none" stroke="#63b8ff" d="M135.06,-161.95C144.16,-148.83 163.91,-122.81 186.73,-108 202.59,-97.7 248.62,-83.4 281.62,-73.93"/>
<polygon fill="#63b8ff" stroke="#63b8ff" points="282.74,-77.25 291.4,-71.15 280.83,-70.51 282.74,-77.25"/>
</a>
</g>
</g>
<!-- Node13 -->
<g id="Node000013" class="node">
<title>Node13</title>
<g id="a_Node000013"><a xlink:title=" ">
<polygon fill="#e0e0e0" stroke="#999999" points="239.46,-126 195.99,-126 195.99,-108 239.46,-108 239.46,-126"/>
<text text-anchor="middle" x="217.73" y="-114" font-family="Helvetica,sans-Serif" font-size="10.00">vector</text>
</a>
</g>
</g>
<!-- Node12&#45;&gt;Node13 -->
<g id="edge20_Node000012_Node000013" class="edge">
<title>Node12&#45;&gt;Node13</title>
<g id="a_edge20_Node000012_Node000013"><a xlink:title=" ">
<path fill="none" stroke="#63b8ff" d="M143.48,-161.88C157.3,-153.71 178.83,-140.98 195.16,-131.33"/>
<polygon fill="#63b8ff" stroke="#63b8ff" points="197.24,-134.17 204.07,-126.07 193.68,-128.14 197.24,-134.17"/>
</a>
</g>
</g>
<!-- Node14&#45;&gt;Node2 -->
<g id="edge36_Node000014_Node000002" class="edge">
<title>Node14&#45;&gt;Node2</title>
<g id="a_edge36_Node000014_Node000002"><a xlink:title=" ">
<path fill="none" stroke="#63b8ff" d="M337.87,-222.17C268.59,-218.14 122.07,-206.65 79.73,-180 63.08,-169.52 51.44,-149.78 44.7,-135.38"/>
<polygon fill="#63b8ff" stroke="#63b8ff" points="47.85,-133.83 40.66,-126.04 41.42,-136.61 47.85,-133.83"/>
</a>
</g>
</g>
<!-- Node14&#45;&gt;Node7 -->
<g id="edge37_Node000014_Node000007" class="edge">
<title>Node14&#45;&gt;Node7</title>
<g id="a_edge37_Node000014_Node000007"><a xlink:title=" ">
<path fill="none" stroke="#63b8ff" d="M357.83,-215.88C324.54,-199.75 248.36,-162.06 186.73,-126 160.14,-110.44 130.58,-90.75 111.6,-77.79"/>
<polygon fill="#63b8ff" stroke="#63b8ff" points="113.42,-74.79 103.2,-72.01 109.45,-80.56 113.42,-74.79"/>
</a>
</g>
</g>
<!-- Node14&#45;&gt;Node8 -->
<g id="edge22_Node000014_Node000008" class="edge">
<title>Node14&#45;&gt;Node8</title>
<g id="a_edge22_Node000014_Node000008"><a xlink:title=" ">
<path fill="none" stroke="#63b8ff" d="M368.37,-215.68C355,-198.19 323.77,-157.32 306.24,-134.37"/>
<polygon fill="#63b8ff" stroke="#63b8ff" points="308.91,-132.1 300.05,-126.28 303.34,-136.35 308.91,-132.1"/>
</a>
</g>
</g>
<!-- Node15 -->
<g id="Node000015" class="node">
<title>Node15</title>
<g id="a_Node000015"><a xlink:href="metadata_8hpp.html" target="_top" xlink:title=" ">
<polygon fill="white" stroke="#666666" points="689.38,-126 612.07,-126 612.07,-108 689.38,-108 689.38,-126"/>
<text text-anchor="middle" x="650.73" y="-114" font-family="Helvetica,sans-Serif" font-size="10.00">metadata.hpp</text>
</a>
</g>
</g>
<!-- Node14&#45;&gt;Node15 -->
<g id="edge23_Node000014_Node000015" class="edge">
<title>Node14&#45;&gt;Node15</title>
<g id="a_edge23_Node000014_Node000015"><a xlink:title=" ">
<path fill="none" stroke="#63b8ff" d="M395.92,-215.86C444.51,-197.2 564.04,-151.29 620.39,-129.65"/>
<polygon fill="#63b8ff" stroke="#63b8ff" points="621.75,-132.88 629.83,-126.02 619.24,-126.34 621.75,-132.88"/>
</a>
</g>
</g>
<!-- Node19 -->
<g id="Node000019" class="node">
<title>Node19</title>
<g id="a_Node000019"><a xlink:href="spine_8hpp.html" target="_top" xlink:title=" ">
<polygon fill="white" stroke="#666666" points="419.6,-180 359.86,-180 359.86,-162 419.6,-162 419.6,-180"/>
<text text-anchor="middle" x="389.73" y="-168" font-family="Helvetica,sans-Serif" font-size="10.00">spine.hpp</text>
</a>
</g>
</g>
<!-- Node14&#45;&gt;Node19 -->
<g id="edge29_Node000014_Node000019" class="edge">
<title>Node14&#45;&gt;Node19</title>
<g id="a_edge29_Node000014_Node000019"><a xlink:title=" ">
<path fill="none" stroke="#63b8ff" d="M377.07,-215.88C379.06,-208.97 381.99,-198.81 384.53,-190"/>
<polygon fill="#63b8ff" stroke="#63b8ff" points="387.94,-190.82 387.35,-180.24 381.21,-188.88 387.94,-190.82"/>
</a>
</g>
</g>
<!-- Node15&#45;&gt;Node6 -->
<g id="edge27_Node000015_Node000006" class="edge">
<title>Node15&#45;&gt;Node6</title>
<g id="a_edge27_Node000015_Node000006"><a xlink:title=" ">
<path fill="none" stroke="#63b8ff" d="M612.05,-110.78C586.03,-105.31 552.75,-94.26 531.73,-72 520.61,-60.24 515.99,-42.13 514.07,-28.52"/>
<polygon fill="#63b8ff" stroke="#63b8ff" points="517.53,-27.96 513.01,-18.38 510.57,-28.69 517.53,-27.96"/>
</a>
</g>
</g>
<!-- Node15&#45;&gt;Node11 -->
<g id="edge26_Node000015_Node000011" class="edge">
<title>Node15&#45;&gt;Node11</title>
<g id="a_edge26_Node000015_Node000011"><a xlink:title=" ">
<path fill="none" stroke="#63b8ff" d="M620.68,-107.99C586.99,-99 532.23,-84.4 495.13,-74.51"/>
<polygon fill="#63b8ff" stroke="#63b8ff" points="495.73,-71.04 485.16,-71.85 493.92,-77.81 495.73,-71.04"/>
</a>
</g>
</g>
<!-- Node16 -->
<g id="Node000016" class="node">
<title>Node16</title>
<g id="a_Node000016"><a xlink:title=" ">
<polygon fill="#e0e0e0" stroke="#999999" points="596.8,-72 540.65,-72 540.65,-54 596.8,-54 596.8,-72"/>
<text text-anchor="middle" x="568.73" y="-60" font-family="Helvetica,sans-Serif" font-size="10.00">charconv</text>
</a>
</g>
</g>
<!-- Node15&#45;&gt;Node16 -->
<g id="edge24_Node000015_Node000016" class="edge">
<title>Node15&#45;&gt;Node16</title>
<g id="a_edge24_Node000015_Node000016"><a xlink:title=" ">
<path fill="none" stroke="#63b8ff" d="M637.91,-107.88C625.16,-99.79 605.34,-87.22 590.18,-77.61"/>
<polygon fill="#63b8ff" stroke="#63b8ff" points="591.77,-74.47 581.45,-72.07 588.02,-80.38 591.77,-74.47"/>
</a>
</g>
</g>
<!-- Node17 -->
<g id="Node000017" class="node">
<title>Node17</title>
<g id="a_Node000017"><a xlink:title=" ">
<polygon fill="#e0e0e0" stroke="#999999" points="661.8,-72 615.65,-72 615.65,-54 661.8,-54 661.8,-72"/>
<text text-anchor="middle" x="638.73" y="-60" font-family="Helvetica,sans-Serif" font-size="10.00">chrono</text>
</a>
</g>
</g>
<!-- Node15&#45;&gt;Node17 -->
<g id="edge25_Node000015_Node000017" class="edge">
<title>Node15&#45;&gt;Node17</title>
<g id="a_edge25_Node000015_Node000017"><a xlink:title=" ">
<path fill="none" stroke="#63b8ff" d="M648.85,-107.88C647.26,-100.97 644.91,-90.81 642.88,-82"/>
<polygon fill="#63b8ff" stroke="#63b8ff" points="646.29,-81.2 640.63,-72.24 639.47,-82.77 646.29,-81.2"/>
</a>
</g>
</g>
<!-- Node18 -->
<g id="Node000018" class="node">
<title>Node18</title>
<g id="a_Node000018"><a xlink:title=" ">
<polygon fill="#e0e0e0" stroke="#999999" points="754.07,-72 679.38,-72 679.38,-54 754.07,-54 754.07,-72"/>
<text text-anchor="middle" x="716.73" y="-60" font-family="Helvetica,sans-Serif" font-size="10.00">system_error</text>
</a>
</g>
</g>
<!-- Node15&#45;&gt;Node18 -->
<g id="edge28_Node000015_Node000018" class="edge">
<title>Node15&#45;&gt;Node18</title>
<g id="a_edge28_Node000015_Node000018"><a xlink:title=" ">
<path fill="none" stroke="#63b8ff" d="M661.04,-107.88C670.96,-100.06 686.18,-88.07 698.2,-78.6"/>
<polygon fill="#63b8ff" stroke="#63b8ff" points="700.58,-81.18 706.27,-72.24 696.25,-75.68 700.58,-81.18"/>
</a>
</g>
</g>
<!-- Node19&#45;&gt;Node8 -->
<g id="edge30_Node000019_Node000008" class="edge">
<title>Node19&#45;&gt;Node8</title>
<g id="a_edge30_Node000019_Node000008"><a xlink:title=" ">
<path fill="none" stroke="#63b8ff" d="M374.73,-161.88C359.51,-153.63 335.72,-140.74 317.85,-131.07"/>
<polygon fill="#63b8ff" stroke="#63b8ff" points="319.08,-127.75 308.62,-126.07 315.75,-133.91 319.08,-127.75"/>
</a>
</g>
</g>
<!-- Node19&#45;&gt;Node9 -->
<g id="edge33_Node000019_Node000009" class="edge">
<title>Node19&#45;&gt;Node9</title>
<g id="a_edge33_Node000019_Node000009"><a xlink:title=" ">
<path fill="none" stroke="#63b8ff" d="M384.08,-161.68C372.25,-144.27 344.68,-103.68 329.05,-80.68"/>
<polygon fill="#63b8ff" stroke="#63b8ff" points="331.86,-78.58 323.35,-72.28 326.07,-82.52 331.86,-78.58"/>
</a>
</g>
</g>
<!-- Node19&#45;&gt;Node10 -->
<g id="edge34_Node000019_Node000010" class="edge">
<title>Node19&#45;&gt;Node10</title>
<g id="a_edge34_Node000019_Node000010"><a xlink:title=" ">
<path fill="none" stroke="#63b8ff" d="M419.75,-167.56C468.31,-162.43 555.85,-147.51 526.73,-108 520.11,-99.02 457.62,-82.09 417.78,-72.05"/>
<polygon fill="#63b8ff" stroke="#63b8ff" points="418.49,-68.62 407.94,-69.6 416.79,-75.41 418.49,-68.62"/>
</a>
</g>
</g>
<!-- Node19&#45;&gt;Node13 -->
<g id="edge35_Node000019_Node000013" class="edge">
<title>Node19&#45;&gt;Node13</title>
<g id="a_edge35_Node000019_Node000013"><a xlink:title=" ">
<path fill="none" stroke="#63b8ff" d="M363.23,-161.99C332.53,-152.71 282,-137.43 249.3,-127.54"/>
<polygon fill="#63b8ff" stroke="#63b8ff" points="249.94,-124.08 239.35,-124.54 247.91,-130.78 249.94,-124.08"/>
</a>
</g>
</g>
<!-- Node20 -->
<g id="Node000020" class="node">
<title>Node20</title>
<g id="a_Node000020"><a xlink:title=" ">
<polygon fill="#e0e0e0" stroke="#999999" points="445.03,-126 386.42,-126 386.42,-108 445.03,-108 445.03,-126"/>
<text text-anchor="middle" x="415.73" y="-114" font-family="Helvetica,sans-Serif" font-size="10.00">functional</text>
</a>
</g>
</g>
<!-- Node19&#45;&gt;Node20 -->
<g id="edge31_Node000019_Node000020" class="edge">
<title>Node19&#45;&gt;Node20</title>
<g id="a_edge31_Node000019_Node000020"><a xlink:title=" ">
<path fill="none" stroke="#63b8ff" d="M393.79,-161.88C397.32,-154.82 402.55,-144.36 407.02,-135.42"/>
<polygon fill="#63b8ff" stroke="#63b8ff" points="410.26,-136.75 411.61,-126.24 404,-133.62 410.26,-136.75"/>
</a>
</g>
</g>
<!-- Node21 -->
<g id="Node000021" class="node">
<title>Node21</title>
<g id="a_Node000021"><a xlink:title=" ">
<polygon fill="#e0e0e0" stroke="#999999" points="518.07,-126 463.38,-126 463.38,-108 518.07,-108 518.07,-126"/>
<text text-anchor="middle" x="490.73" y="-114" font-family="Helvetica,sans-Serif" font-size="10.00">iostream</text>
</a>
</g>
</g>
<!-- Node19&#45;&gt;Node21 -->
<g id="edge32_Node000019_Node000021" class="edge">
<title>Node19&#45;&gt;Node21</title>
<g id="a_edge32_Node000019_Node000021"><a xlink:title=" ">
<path fill="none" stroke="#63b8ff" d="M405.51,-161.88C421.74,-153.52 447.25,-140.39 466.13,-130.66"/>
<polygon fill="#63b8ff" stroke="#63b8ff" points="467.77,-133.76 475.06,-126.07 464.56,-127.53 467.77,-133.76"/>
</a>
</g>
</g>
</g>
</svg>
