<?xml version="1.0" encoding="UTF-8" standalone="no"?>
<!DOCTYPE svg PUBLIC "-//W3C//DTD SVG 1.1//EN"
 "http://www.w3.org/Graphics/SVG/1.1/DTD/svg11.dtd">
<!-- Generated by graphviz version 2.48.0 (20210717.1556)
 -->
<!-- Title: xml.hpp Pages: 1 -->
<svg width="213pt" height="134pt"
 viewBox="0.00 0.00 212.95 134.00" xmlns="http://www.w3.org/2000/svg" xmlns:xlink="http://www.w3.org/1999/xlink">
<g id="graph0" class="graph" transform="scale(1 1) rotate(0) translate(4 130)">
<title>xml.hpp</title>
<!-- Node1 -->
<g id="Node000001" class="node">
<title>Node1</title>
<g id="a_Node000001"><a xlink:title=" ">
<polygon fill="#999999" stroke="#666666" points="152.24,-126 101.21,-126 101.21,-108 152.24,-108 152.24,-126"/>
<text text-anchor="middle" x="126.73" y="-114" font-family="Helvetica,sans-Serif" font-size="10.00">xml.hpp</text>
</a>
</g>
</g>
<!-- Node2 -->
<g id="Node000002" class="node">
<title>Node2</title>
<g id="a_Node000002"><a xlink:href="file__metadata_8hpp.html" target="_top" xlink:title=" ">
<polygon fill="white" stroke="#666666" points="126.23,-72 31.22,-72 31.22,-54 126.23,-54 126.23,-72"/>
<text text-anchor="middle" x="78.73" y="-60" font-family="Helvetica,sans-Serif" font-size="10.00">file_metadata.hpp</text>
</a>
</g>
</g>
<!-- Node1&#45;&gt;Node2 -->
<g id="edge1_Node000001_Node000002" class="edge">
<title>Node1&#45;&gt;Node2</title>
<g id="a_edge1_Node000001_Node000002"><a xlink:title=" ">
<path fill="none" stroke="#63b8ff" d="M119.23,-107.88C112.29,-100.36 101.8,-88.99 93.23,-79.71"/>
<polygon fill="#63b8ff" stroke="#63b8ff" points="95.69,-77.21 86.33,-72.24 90.54,-81.96 95.69,-77.21"/>
</a>
</g>
</g>
<!-- Node6 -->
<g id="Node000006" class="node">
<title>Node6</title>
<g id="a_Node000006"><a xlink:title=" ">
<polygon fill="#e0e0e0" stroke="#999999" points="205.18,-72 144.27,-72 144.27,-54 205.18,-54 205.18,-72"/>
<text text-anchor="middle" x="174.73" y="-60" font-family="Helvetica,sans-Serif" font-size="10.00">filesystem</text>
</a>
</g>
</g>
<!-- Node1&#45;&gt;Node6 -->
<g id="edge5_Node000001_Node000006" class="edge">
<title>Node1&#45;&gt;Node6</title>
<g id="a_edge5_Node000001_Node000006"><a xlink:title=" ">
<path fill="none" stroke="#63b8ff" d="M134.23,-107.88C141.16,-100.36 151.66,-88.99 160.22,-79.71"/>
<polygon fill="#63b8ff" stroke="#63b8ff" points="162.91,-81.96 167.12,-72.24 157.77,-77.21 162.91,-81.96"/>
</a>
</g>
</g>
<!-- Node3 -->
<g id="Node000003" class="node">
<title>Node3</title>
<g id="a_Node000003"><a xlink:title=" ">
<polygon fill="#e0e0e0" stroke="#999999" points="35.68,-18 -0.23,-18 -0.23,0 35.68,0 35.68,-18"/>
<text text-anchor="middle" x="17.73" y="-6" font-family="Helvetica,sans-Serif" font-size="10.00">map</text>
</a>
</g>
</g>
<!-- Node2&#45;&gt;Node3 -->
<g id="edge2_Node000002_Node000003" class="edge">
<title>Node2&#45;&gt;Node3</title>
<g id="a_edge2_Node000002_Node000003"><a xlink:title=" ">
<path fill="none" stroke="#63b8ff" d="M69.2,-53.88C60.12,-46.14 46.23,-34.3 35.17,-24.87"/>
<polygon fill="#63b8ff" stroke="#63b8ff" points="37.27,-22.06 27.39,-18.24 32.73,-27.39 37.27,-22.06"/>
</a>
</g>
</g>
<!-- Node4 -->
<g id="Node000004" class="node">
<title>Node4</title>
<g id="a_Node000004"><a xlink:title=" ">
<polygon fill="#e0e0e0" stroke="#999999" points="104.26,-18 53.2,-18 53.2,0 104.26,0 104.26,-18"/>
<text text-anchor="middle" x="78.73" y="-6" font-family="Helvetica,sans-Serif" font-size="10.00">optional</text>
</a>
</g>
</g>
<!-- Node2&#45;&gt;Node4 -->
<g id="edge3_Node000002_Node000004" class="edge">
<title>Node2&#45;&gt;Node4</title>
<g id="a_edge3_Node000002_Node000004"><a xlink:title=" ">
<path fill="none" stroke="#63b8ff" d="M78.73,-53.88C78.73,-47.05 78.73,-37.03 78.73,-28.29"/>
<polygon fill="#63b8ff" stroke="#63b8ff" points="82.23,-28.24 78.73,-18.24 75.23,-28.24 82.23,-28.24"/>
</a>
</g>
</g>
<!-- Node5 -->
<g id="Node000005" class="node">
<title>Node5</title>
<g id="a_Node000005"><a xlink:title=" ">
<polygon fill="#e0e0e0" stroke="#999999" points="163.18,-18 122.27,-18 122.27,0 163.18,0 163.18,-18"/>
<text text-anchor="middle" x="142.73" y="-6" font-family="Helvetica,sans-Serif" font-size="10.00">string</text>
</a>
</g>
</g>
<!-- Node2&#45;&gt;Node5 -->
<g id="edge4_Node000002_Node000005" class="edge">
<title>Node2&#45;&gt;Node5</title>
<g id="a_edge4_Node000002_Node000005"><a xlink:title=" ">
<path fill="none" stroke="#63b8ff" d="M88.73,-53.88C98.35,-46.06 113.1,-34.07 124.76,-24.6"/>
<polygon fill="#63b8ff" stroke="#63b8ff" points="127.03,-27.26 132.59,-18.24 122.62,-21.83 127.03,-27.26"/>
</a>
</g>
</g>
</g>
</svg>
