<?xml version="1.0" encoding="UTF-8" standalone="no"?>
<!DOCTYPE svg PUBLIC "-//W3C//DTD SVG 1.1//EN"
 "http://www.w3.org/Graphics/SVG/1.1/DTD/svg11.dtd">
<!-- Generated by graphviz version 2.48.0 (20210717.1556)
 -->
<!-- Title: xml.cpp Pages: 1 -->
<svg width="1507pt" height="296pt"
 viewBox="0.00 0.00 1507.47 296.00" xmlns="http://www.w3.org/2000/svg" xmlns:xlink="http://www.w3.org/1999/xlink">
<g id="graph0" class="graph" transform="scale(1 1) rotate(0) translate(4 292)">
<title>xml.cpp</title>
<!-- Node1 -->
<g id="Node000001" class="node">
<title>Node1</title>
<g id="a_Node000001"><a xlink:title=" ">
<polygon fill="#999999" stroke="#666666" points="868.14,-288 817.23,-288 817.23,-270 868.14,-270 868.14,-288"/>
<text text-anchor="middle" x="842.69" y="-276" font-family="Helvetica,sans-Serif" font-size="10.00">xml.cpp</text>
</a>
</g>
</g>
<!-- Node2 -->
<g id="Node000002" class="node">
<title>Node2</title>
<g id="a_Node000002"><a xlink:href="xml_8hpp.html" target="_top" xlink:title=" ">
<polygon fill="white" stroke="#666666" points="62.2,-126 11.17,-126 11.17,-108 62.2,-108 62.2,-126"/>
<text text-anchor="middle" x="36.69" y="-114" font-family="Helvetica,sans-Serif" font-size="10.00">xml.hpp</text>
</a>
</g>
</g>
<!-- Node1&#45;&gt;Node2 -->
<g id="edge1_Node000001_Node000002" class="edge">
<title>Node1&#45;&gt;Node2</title>
<g id="a_edge1_Node000001_Node000002"><a xlink:title=" ">
<path fill="none" stroke="#63b8ff" d="M817.39,-277.29C713.66,-274.21 320.64,-260.97 199.69,-234 135,-219.57 107.52,-226.89 60.69,-180 48.96,-168.26 42.84,-150.16 39.72,-136.54"/>
<polygon fill="#63b8ff" stroke="#63b8ff" points="43.09,-135.54 37.75,-126.39 36.22,-136.87 43.09,-135.54"/>
</a>
</g>
</g>
<!-- Node6 -->
<g id="Node000006" class="node">
<title>Node6</title>
<g id="a_Node000006"><a xlink:title=" ">
<polygon fill="#e0e0e0" stroke="#999999" points="628.14,-18 587.23,-18 587.23,0 628.14,0 628.14,-18"/>
<text text-anchor="middle" x="607.69" y="-6" font-family="Helvetica,sans-Serif" font-size="10.00">string</text>
</a>
</g>
</g>
<!-- Node1&#45;&gt;Node6 -->
<g id="edge49_Node000001_Node000006" class="edge">
<title>Node1&#45;&gt;Node6</title>
<g id="a_edge49_Node000001_Node000006"><a xlink:title=" ">
<path fill="none" stroke="#63b8ff" d="M817.11,-276.31C767.81,-272.46 662.58,-261.18 640.69,-234 635.67,-227.77 638.43,-223.67 640.69,-216 654.12,-170.35 685.25,-171.65 698.69,-126 700.95,-118.33 699.27,-115.98 698.69,-108 696.9,-83.8 704.69,-73.81 690.69,-54 678.06,-36.13 655.87,-24.91 637.61,-18.27"/>
<polygon fill="#63b8ff" stroke="#63b8ff" points="638.55,-14.89 627.96,-15.04 636.33,-21.53 638.55,-14.89"/>
</a>
</g>
</g>
<!-- Node7 -->
<g id="Node000007" class="node">
<title>Node7</title>
<g id="a_Node000007"><a xlink:title=" ">
<polygon fill="#e0e0e0" stroke="#999999" points="123.14,-72 62.23,-72 62.23,-54 123.14,-54 123.14,-72"/>
<text text-anchor="middle" x="92.69" y="-60" font-family="Helvetica,sans-Serif" font-size="10.00">filesystem</text>
</a>
</g>
</g>
<!-- Node1&#45;&gt;Node7 -->
<g id="edge42_Node000001_Node000007" class="edge">
<title>Node1&#45;&gt;Node7</title>
<g id="a_edge42_Node000001_Node000007"><a xlink:title=" ">
<path fill="none" stroke="#63b8ff" d="M817.28,-277.39C695.95,-274.34 178.61,-259.9 111.69,-234 47.79,-209.27 24.29,-190.68 1.69,-126 -7.62,-99.36 24.05,-82.83 52.55,-73.61"/>
<polygon fill="#63b8ff" stroke="#63b8ff" points="53.85,-76.87 62.42,-70.65 51.84,-70.17 53.85,-76.87"/>
</a>
</g>
</g>
<!-- Node8 -->
<g id="Node000008" class="node">
<title>Node8</title>
<g id="a_Node000008"><a xlink:href="manifest_8hpp.html" target="_top" xlink:title=" ">
<polygon fill="white" stroke="#666666" points="230.44,-126 156.93,-126 156.93,-108 230.44,-108 230.44,-126"/>
<text text-anchor="middle" x="193.69" y="-114" font-family="Helvetica,sans-Serif" font-size="10.00">manifest.hpp</text>
</a>
</g>
</g>
<!-- Node1&#45;&gt;Node8 -->
<g id="edge8_Node000001_Node000008" class="edge">
<title>Node1&#45;&gt;Node8</title>
<g id="a_edge8_Node000001_Node000008"><a xlink:title=" ">
<path fill="none" stroke="#63b8ff" d="M817.39,-275.11C743.51,-266.24 522.16,-236.46 346.69,-180 301.58,-165.49 250.93,-143.86 220.7,-130.37"/>
<polygon fill="#63b8ff" stroke="#63b8ff" points="221.83,-127.03 211.27,-126.12 218.96,-133.42 221.83,-127.03"/>
</a>
</g>
</g>
<!-- Node9 -->
<g id="Node000009" class="node">
<title>Node9</title>
<g id="a_Node000009"><a xlink:title=" ">
<polygon fill="#e0e0e0" stroke="#999999" points="455.8,-72 403.57,-72 403.57,-54 455.8,-54 455.8,-72"/>
<text text-anchor="middle" x="429.69" y="-60" font-family="Helvetica,sans-Serif" font-size="10.00">memory</text>
</a>
</g>
</g>
<!-- Node1&#45;&gt;Node9 -->
<g id="edge46_Node000001_Node000009" class="edge">
<title>Node1&#45;&gt;Node9</title>
<g id="a_edge46_Node000001_Node000009"><a xlink:title=" ">
<path fill="none" stroke="#63b8ff" d="M817.45,-276.06C763.82,-271.5 640.74,-258.6 607.69,-234 557.14,-196.38 589.52,-150.16 542.69,-108 521.06,-88.53 489.83,-77.25 465.69,-71"/>
<polygon fill="#63b8ff" stroke="#63b8ff" points="466.36,-67.57 455.82,-68.62 464.72,-74.37 466.36,-67.57"/>
</a>
</g>
</g>
<!-- Node12 -->
<g id="Node000012" class="node">
<title>Node12</title>
<g id="a_Node000012"><a xlink:href="navigation_8hpp.html" target="_top" xlink:title=" ">
<polygon fill="white" stroke="#666666" points="234.24,-180 153.13,-180 153.13,-162 234.24,-162 234.24,-180"/>
<text text-anchor="middle" x="193.69" y="-168" font-family="Helvetica,sans-Serif" font-size="10.00">navigation.hpp</text>
</a>
</g>
</g>
<!-- Node1&#45;&gt;Node12 -->
<g id="edge15_Node000001_Node000012" class="edge">
<title>Node1&#45;&gt;Node12</title>
<g id="a_edge15_Node000001_Node000012"><a xlink:title=" ">
<path fill="none" stroke="#63b8ff" d="M817.34,-277.82C706.2,-276.8 265.41,-270.49 216.69,-234 203.06,-223.79 197.5,-204.59 195.24,-190.25"/>
<polygon fill="#63b8ff" stroke="#63b8ff" points="198.68,-189.58 194.04,-180.06 191.73,-190.4 198.68,-189.58"/>
</a>
</g>
</g>
<!-- Node14 -->
<g id="Node000014" class="node">
<title>Node14</title>
<g id="a_Node000014"><a xlink:href="package_8hpp.html" target="_top" xlink:title=" ">
<polygon fill="white" stroke="#666666" points="299.46,-234 225.92,-234 225.92,-216 299.46,-216 299.46,-234"/>
<text text-anchor="middle" x="262.69" y="-222" font-family="Helvetica,sans-Serif" font-size="10.00">package.hpp</text>
</a>
</g>
</g>
<!-- Node1&#45;&gt;Node14 -->
<g id="edge21_Node000001_Node000014" class="edge">
<title>Node1&#45;&gt;Node14</title>
<g id="a_edge21_Node000001_Node000014"><a xlink:title=" ">
<path fill="none" stroke="#63b8ff" d="M817.29,-276.54C740.93,-272.03 506.76,-257.14 313.69,-234 312.39,-233.84 311.07,-233.68 309.74,-233.51"/>
<polygon fill="#63b8ff" stroke="#63b8ff" points="309.8,-229.98 299.41,-232.09 308.84,-236.92 309.8,-229.98"/>
</a>
</g>
</g>
<!-- Node20 -->
<g id="Node000020" class="node">
<title>Node20</title>
<g id="a_Node000020"><a xlink:title=" ">
<polygon fill="#e0e0e0" stroke="#999999" points="743.45,-234 649.92,-234 649.92,-216 743.45,-216 743.45,-234"/>
<text text-anchor="middle" x="696.69" y="-222" font-family="Helvetica,sans-Serif" font-size="10.00">libxml/encoding.h</text>
</a>
</g>
</g>
<!-- Node1&#45;&gt;Node20 -->
<g id="edge36_Node000001_Node000020" class="edge">
<title>Node1&#45;&gt;Node20</title>
<g id="a_edge36_Node000001_Node000020"><a xlink:title=" ">
<path fill="none" stroke="#63b8ff" d="M820.19,-269.99C795.83,-261.31 756.74,-247.39 729.07,-237.54"/>
<polygon fill="#63b8ff" stroke="#63b8ff" points="730.04,-234.16 719.45,-234.11 727.69,-240.76 730.04,-234.16"/>
</a>
</g>
</g>
<!-- Node21 -->
<g id="Node000021" class="node">
<title>Node21</title>
<g id="a_Node000021"><a xlink:title=" ">
<polygon fill="#e0e0e0" stroke="#999999" points="831.59,-234 761.78,-234 761.78,-216 831.59,-216 831.59,-234"/>
<text text-anchor="middle" x="796.69" y="-222" font-family="Helvetica,sans-Serif" font-size="10.00">libxml/tree.h</text>
</a>
</g>
</g>
<!-- Node1&#45;&gt;Node21 -->
<g id="edge37_Node000001_Node000021" class="edge">
<title>Node1&#45;&gt;Node21</title>
<g id="a_edge37_Node000001_Node000021"><a xlink:title=" ">
<path fill="none" stroke="#63b8ff" d="M835.5,-269.88C828.92,-262.44 819,-251.22 810.83,-241.99"/>
<polygon fill="#63b8ff" stroke="#63b8ff" points="813.22,-239.41 803.98,-234.24 807.98,-244.05 813.22,-239.41"/>
</a>
</g>
</g>
<!-- Node22 -->
<g id="Node000022" class="node">
<title>Node22</title>
<g id="a_Node000022"><a xlink:title=" ">
<polygon fill="#e0e0e0" stroke="#999999" points="927.32,-234 850.05,-234 850.05,-216 927.32,-216 927.32,-234"/>
<text text-anchor="middle" x="888.69" y="-222" font-family="Helvetica,sans-Serif" font-size="10.00">libxml/xpath.h</text>
</a>
</g>
</g>
<!-- Node1&#45;&gt;Node22 -->
<g id="edge38_Node000001_Node000022" class="edge">
<title>Node1&#45;&gt;Node22</title>
<g id="a_edge38_Node000001_Node000022"><a xlink:title=" ">
<path fill="none" stroke="#63b8ff" d="M849.87,-269.88C856.45,-262.44 866.37,-251.22 874.54,-241.99"/>
<polygon fill="#63b8ff" stroke="#63b8ff" points="877.39,-244.05 881.4,-234.24 872.15,-239.41 877.39,-244.05"/>
</a>
</g>
</g>
<!-- Node23 -->
<g id="Node000023" class="node">
<title>Node23</title>
<g id="a_Node000023"><a xlink:title=" ">
<polygon fill="#e0e0e0" stroke="#999999" points="1060.68,-234 944.69,-234 944.69,-216 1060.68,-216 1060.68,-234"/>
<text text-anchor="middle" x="1002.69" y="-222" font-family="Helvetica,sans-Serif" font-size="10.00">libxml/xpathInternals.h</text>
</a>
</g>
</g>
<!-- Node1&#45;&gt;Node23 -->
<g id="edge39_Node000001_Node000023" class="edge">
<title>Node1&#45;&gt;Node23</title>
<g id="a_edge39_Node000001_Node000023"><a xlink:title=" ">
<path fill="none" stroke="#63b8ff" d="M867.34,-269.99C894.35,-261.21 937.88,-247.06 968.25,-237.19"/>
<polygon fill="#63b8ff" stroke="#63b8ff" points="969.58,-240.44 978.01,-234.02 967.42,-233.78 969.58,-240.44"/>
</a>
</g>
</g>
<!-- Node24 -->
<g id="Node000024" class="node">
<title>Node24</title>
<g id="a_Node000024"><a xlink:title=" ">
<polygon fill="#e0e0e0" stroke="#999999" points="1120.81,-234 1078.56,-234 1078.56,-216 1120.81,-216 1120.81,-234"/>
<text text-anchor="middle" x="1099.69" y="-222" font-family="Helvetica,sans-Serif" font-size="10.00">cstdio</text>
</a>
</g>
</g>
<!-- Node1&#45;&gt;Node24 -->
<g id="edge40_Node000001_Node000024" class="edge">
<title>Node1&#45;&gt;Node24</title>
<g id="a_edge40_Node000001_Node000024"><a xlink:title=" ">
<path fill="none" stroke="#63b8ff" d="M868,-273.68C908.34,-266.68 989.87,-252 1068.37,-234.17"/>
<polygon fill="#63b8ff" stroke="#63b8ff" points="1069.46,-237.51 1078.43,-231.86 1067.9,-230.69 1069.46,-237.51"/>
</a>
</g>
</g>
<!-- Node25 -->
<g id="Node000025" class="node">
<title>Node25</title>
<g id="a_Node000025"><a xlink:title=" ">
<polygon fill="#e0e0e0" stroke="#999999" points="1178.58,-234 1138.8,-234 1138.8,-216 1178.58,-216 1178.58,-234"/>
<text text-anchor="middle" x="1158.69" y="-222" font-family="Helvetica,sans-Serif" font-size="10.00">ctime</text>
</a>
</g>
</g>
<!-- Node1&#45;&gt;Node25 -->
<g id="edge41_Node000001_Node000025" class="edge">
<title>Node1&#45;&gt;Node25</title>
<g id="a_edge41_Node000001_Node000025"><a xlink:title=" ">
<path fill="none" stroke="#63b8ff" d="M868.21,-275.11C916.97,-269.36 1026.9,-255.36 1128.95,-233.92"/>
<polygon fill="#63b8ff" stroke="#63b8ff" points="1129.74,-237.32 1138.79,-231.82 1128.28,-230.48 1129.74,-237.32"/>
</a>
</g>
</g>
<!-- Node26 -->
<g id="Node000026" class="node">
<title>Node26</title>
<g id="a_Node000026"><a xlink:title=" ">
<polygon fill="#e0e0e0" stroke="#999999" points="1246.53,-234 1196.85,-234 1196.85,-216 1246.53,-216 1246.53,-234"/>
<text text-anchor="middle" x="1221.69" y="-222" font-family="Helvetica,sans-Serif" font-size="10.00">fstream</text>
</a>
</g>
</g>
<!-- Node1&#45;&gt;Node26 -->
<g id="edge43_Node000001_Node000026" class="edge">
<title>Node1&#45;&gt;Node26</title>
<g id="a_edge43_Node000001_Node000026"><a xlink:title=" ">
<path fill="none" stroke="#63b8ff" d="M867.93,-275.69C923.62,-270.4 1061.33,-256.27 1186.71,-233.98"/>
<polygon fill="#63b8ff" stroke="#63b8ff" points="1187.65,-237.37 1196.87,-232.16 1186.41,-230.48 1187.65,-237.37"/>
</a>
</g>
</g>
<!-- Node27 -->
<g id="Node000027" class="node">
<title>Node27</title>
<g id="a_Node000027"><a xlink:title=" ">
<polygon fill="#e0e0e0" stroke="#999999" points="1305.26,-234 1264.11,-234 1264.11,-216 1305.26,-216 1305.26,-234"/>
<text text-anchor="middle" x="1284.69" y="-222" font-family="Helvetica,sans-Serif" font-size="10.00">future</text>
</a>
</g>
</g>
<!-- Node1&#45;&gt;Node27 -->
<g id="edge44_Node000001_Node000027" class="edge">
<title>Node1&#45;&gt;Node27</title>
<g id="a_edge44_Node000001_Node000027"><a xlink:title=" ">
<path fill="none" stroke="#63b8ff" d="M868.04,-276.74C931.59,-273.28 1102.89,-262.07 1253.95,-234.05"/>
<polygon fill="#63b8ff" stroke="#63b8ff" points="1254.7,-237.47 1263.87,-232.18 1253.4,-230.59 1254.7,-237.47"/>
</a>
</g>
</g>
<!-- Node28 -->
<g id="Node000028" class="node">
<title>Node28</title>
<g id="a_Node000028"><a xlink:title=" ">
<polygon fill="#e0e0e0" stroke="#999999" points="1374.21,-234 1323.17,-234 1323.17,-216 1374.21,-216 1374.21,-234"/>
<text text-anchor="middle" x="1348.69" y="-222" font-family="Helvetica,sans-Serif" font-size="10.00">iomanip</text>
</a>
</g>
</g>
<!-- Node1&#45;&gt;Node28 -->
<g id="edge45_Node000001_Node000028" class="edge">
<title>Node1&#45;&gt;Node28</title>
<g id="a_edge45_Node000001_Node000028"><a xlink:title=" ">
<path fill="none" stroke="#63b8ff" d="M867.92,-276.88C937.44,-273.52 1137.72,-262.11 1313.22,-234.02"/>
<polygon fill="#63b8ff" stroke="#63b8ff" points="1313.83,-237.47 1323.14,-232.41 1312.71,-230.56 1313.83,-237.47"/>
</a>
</g>
</g>
<!-- Node29 -->
<g id="Node000029" class="node">
<title>Node29</title>
<g id="a_Node000029"><a xlink:title=" ">
<polygon fill="#e0e0e0" stroke="#999999" points="1429.37,-234 1392,-234 1392,-216 1429.37,-216 1429.37,-234"/>
<text text-anchor="middle" x="1410.69" y="-222" font-family="Helvetica,sans-Serif" font-size="10.00">span</text>
</a>
</g>
</g>
<!-- Node1&#45;&gt;Node29 -->
<g id="edge47_Node000001_Node000029" class="edge">
<title>Node1&#45;&gt;Node29</title>
<g id="a_edge47_Node000001_Node000029"><a xlink:title=" ">
<path fill="none" stroke="#63b8ff" d="M868.01,-277.79C944.49,-276.78 1179.79,-270.82 1382.02,-233.94"/>
<polygon fill="#63b8ff" stroke="#63b8ff" points="1382.73,-237.36 1391.93,-232.1 1381.46,-230.48 1382.73,-237.36"/>
</a>
</g>
</g>
<!-- Node30 -->
<g id="Node000030" class="node">
<title>Node30</title>
<g id="a_Node000030"><a xlink:title=" ">
<polygon fill="#e0e0e0" stroke="#999999" points="1499.25,-234 1448.12,-234 1448.12,-216 1499.25,-216 1499.25,-234"/>
<text text-anchor="middle" x="1473.69" y="-222" font-family="Helvetica,sans-Serif" font-size="10.00">sstream</text>
</a>
</g>
</g>
<!-- Node1&#45;&gt;Node30 -->
<g id="edge48_Node000001_Node000030" class="edge">
<title>Node1&#45;&gt;Node30</title>
<g id="a_edge48_Node000001_Node000030"><a xlink:title=" ">
<path fill="none" stroke="#63b8ff" d="M868.11,-277.49C949.58,-275.58 1211.55,-267.22 1437.71,-233.88"/>
<polygon fill="#63b8ff" stroke="#63b8ff" points="1438.4,-237.32 1447.78,-232.38 1437.37,-230.4 1438.4,-237.32"/>
</a>
</g>
</g>
<!-- Node3 -->
<g id="Node000003" class="node">
<title>Node3</title>
<g id="a_Node000003"><a xlink:href="file__metadata_8hpp.html" target="_top" xlink:title=" ">
<polygon fill="white" stroke="#666666" points="274.19,-72 179.18,-72 179.18,-54 274.19,-54 274.19,-72"/>
<text text-anchor="middle" x="226.69" y="-60" font-family="Helvetica,sans-Serif" font-size="10.00">file_metadata.hpp</text>
</a>
</g>
</g>
<!-- Node2&#45;&gt;Node3 -->
<g id="edge2_Node000002_Node000003" class="edge">
<title>Node2&#45;&gt;Node3</title>
<g id="a_edge2_Node000002_Node000003"><a xlink:title=" ">
<path fill="none" stroke="#63b8ff" d="M62.31,-108.99C94.44,-100.19 149.84,-85.03 187.36,-74.76"/>
<polygon fill="#63b8ff" stroke="#63b8ff" points="188.71,-78.02 197.43,-72.01 186.86,-71.27 188.71,-78.02"/>
</a>
</g>
</g>
<!-- Node4 -->
<g id="Node000004" class="node">
<title>Node4</title>
<g id="a_Node000004"><a xlink:title=" ">
<polygon fill="#e0e0e0" stroke="#999999" points="168.64,-18 132.73,-18 132.73,0 168.64,0 168.64,-18"/>
<text text-anchor="middle" x="150.69" y="-6" font-family="Helvetica,sans-Serif" font-size="10.00">map</text>
</a>
</g>
</g>
<!-- Node2&#45;&gt;Node4 -->
<g id="edge7_Node000002_Node000004" class="edge">
<title>Node2&#45;&gt;Node4</title>
<g id="a_edge7_Node000002_Node000004"><a xlink:title=" ">
<path fill="none" stroke="#63b8ff" d="M36.8,-107.75C37.41,-94.82 40.36,-69.62 53.69,-54 71.51,-33.11 101.29,-21.65 123.16,-15.71"/>
<polygon fill="#63b8ff" stroke="#63b8ff" points="124.02,-19.1 132.88,-13.29 122.33,-12.31 124.02,-19.1"/>
</a>
</g>
</g>
<!-- Node2&#45;&gt;Node7 -->
<g id="edge6_Node000002_Node000007" class="edge">
<title>Node2&#45;&gt;Node7</title>
<g id="a_edge6_Node000002_Node000007"><a xlink:title=" ">
<path fill="none" stroke="#63b8ff" d="M45.44,-107.88C53.69,-100.21 66.27,-88.53 76.37,-79.15"/>
<polygon fill="#63b8ff" stroke="#63b8ff" points="78.87,-81.61 83.81,-72.24 74.1,-76.48 78.87,-81.61"/>
</a>
</g>
</g>
<!-- Node3&#45;&gt;Node4 -->
<g id="edge3_Node000003_Node000004" class="edge">
<title>Node3&#45;&gt;Node4</title>
<g id="a_edge3_Node000003_Node000004"><a xlink:title=" ">
<path fill="none" stroke="#63b8ff" d="M214.81,-53.88C203.17,-45.91 185.18,-33.6 171.22,-24.05"/>
<polygon fill="#63b8ff" stroke="#63b8ff" points="172.96,-21 162.73,-18.24 169.01,-26.78 172.96,-21"/>
</a>
</g>
</g>
<!-- Node5 -->
<g id="Node000005" class="node">
<title>Node5</title>
<g id="a_Node000005"><a xlink:title=" ">
<polygon fill="#e0e0e0" stroke="#999999" points="252.22,-18 201.16,-18 201.16,0 252.22,0 252.22,-18"/>
<text text-anchor="middle" x="226.69" y="-6" font-family="Helvetica,sans-Serif" font-size="10.00">optional</text>
</a>
</g>
</g>
<!-- Node3&#45;&gt;Node5 -->
<g id="edge4_Node000003_Node000005" class="edge">
<title>Node3&#45;&gt;Node5</title>
<g id="a_edge4_Node000003_Node000005"><a xlink:title=" ">
<path fill="none" stroke="#63b8ff" d="M226.69,-53.88C226.69,-47.05 226.69,-37.03 226.69,-28.29"/>
<polygon fill="#63b8ff" stroke="#63b8ff" points="230.19,-28.24 226.69,-18.24 223.19,-28.24 230.19,-28.24"/>
</a>
</g>
</g>
<!-- Node3&#45;&gt;Node6 -->
<g id="edge5_Node000003_Node000006" class="edge">
<title>Node3&#45;&gt;Node6</title>
<g id="a_edge5_Node000003_Node000006"><a xlink:title=" ">
<path fill="none" stroke="#63b8ff" d="M274.56,-55.47C354.07,-44.61 511.16,-23.17 577.25,-14.15"/>
<polygon fill="#63b8ff" stroke="#63b8ff" points="577.98,-17.59 587.42,-12.77 577.03,-10.65 577.98,-17.59"/>
</a>
</g>
</g>
<!-- Node8&#45;&gt;Node3 -->
<g id="edge9_Node000008_Node000003" class="edge">
<title>Node8&#45;&gt;Node3</title>
<g id="a_edge9_Node000008_Node000003"><a xlink:title=" ">
<path fill="none" stroke="#63b8ff" d="M198.84,-107.88C203.42,-100.67 210.25,-89.91 216,-80.85"/>
<polygon fill="#63b8ff" stroke="#63b8ff" points="219.05,-82.56 221.46,-72.24 213.14,-78.81 219.05,-82.56"/>
</a>
</g>
</g>
<!-- Node8&#45;&gt;Node4 -->
<g id="edge11_Node000008_Node000004" class="edge">
<title>Node8&#45;&gt;Node4</title>
<g id="a_edge11_Node000008_Node000004"><a xlink:title=" ">
<path fill="none" stroke="#63b8ff" d="M188.57,-107.81C183.31,-99.16 175.15,-84.99 169.69,-72 163.61,-57.55 158.52,-40.48 155.15,-27.92"/>
<polygon fill="#63b8ff" stroke="#63b8ff" points="158.53,-27.02 152.64,-18.21 151.75,-28.77 158.53,-27.02"/>
</a>
</g>
</g>
<!-- Node8&#45;&gt;Node7 -->
<g id="edge10_Node000008_Node000007" class="edge">
<title>Node8&#45;&gt;Node7</title>
<g id="a_edge10_Node000008_Node000007"><a xlink:title=" ">
<path fill="none" stroke="#63b8ff" d="M177.91,-107.88C161.67,-99.52 136.17,-86.39 117.28,-76.66"/>
<polygon fill="#63b8ff" stroke="#63b8ff" points="118.85,-73.53 108.36,-72.07 115.65,-79.76 118.85,-73.53"/>
</a>
</g>
</g>
<!-- Node8&#45;&gt;Node9 -->
<g id="edge12_Node000008_Node000009" class="edge">
<title>Node8&#45;&gt;Node9</title>
<g id="a_edge12_Node000008_Node000009"><a xlink:title=" ">
<path fill="none" stroke="#63b8ff" d="M230.04,-107.99C274.55,-98.18 349.44,-81.68 393.75,-71.92"/>
<polygon fill="#63b8ff" stroke="#63b8ff" points="394.51,-75.34 403.52,-69.77 393,-68.5 394.51,-75.34"/>
</a>
</g>
</g>
<!-- Node10 -->
<g id="Node000010" class="node">
<title>Node10</title>
<g id="a_Node000010"><a xlink:title=" ">
<polygon fill="#e0e0e0" stroke="#999999" points="358.77,-72 312.61,-72 312.61,-54 358.77,-54 358.77,-72"/>
<text text-anchor="middle" x="335.69" y="-60" font-family="Helvetica,sans-Serif" font-size="10.00">ranges</text>
</a>
</g>
</g>
<!-- Node8&#45;&gt;Node10 -->
<g id="edge13_Node000008_Node000010" class="edge">
<title>Node8&#45;&gt;Node10</title>
<g id="a_edge13_Node000008_Node000010"><a xlink:title=" ">
<path fill="none" stroke="#63b8ff" d="M215.56,-107.99C239.16,-99.35 276.94,-85.51 303.83,-75.67"/>
<polygon fill="#63b8ff" stroke="#63b8ff" points="305.37,-78.83 313.55,-72.11 302.96,-72.26 305.37,-78.83"/>
</a>
</g>
</g>
<!-- Node11 -->
<g id="Node000011" class="node">
<title>Node11</title>
<g id="a_Node000011"><a xlink:title=" ">
<polygon fill="#e0e0e0" stroke="#999999" points="563.99,-72 505.38,-72 505.38,-54 563.99,-54 563.99,-72"/>
<text text-anchor="middle" x="534.69" y="-60" font-family="Helvetica,sans-Serif" font-size="10.00">stdexcept</text>
</a>
</g>
</g>
<!-- Node8&#45;&gt;Node11 -->
<g id="edge14_Node000008_Node000011" class="edge">
<title>Node8&#45;&gt;Node11</title>
<g id="a_edge14_Node000008_Node000011"><a xlink:title=" ">
<path fill="none" stroke="#63b8ff" d="M230.5,-110.39C295.08,-100.54 428.2,-80.24 494.85,-70.08"/>
<polygon fill="#63b8ff" stroke="#63b8ff" points="495.59,-73.5 504.95,-68.53 494.54,-66.58 495.59,-73.5"/>
</a>
</g>
</g>
<!-- Node12&#45;&gt;Node2 -->
<g id="edge17_Node000012_Node000002" class="edge">
<title>Node12&#45;&gt;Node2</title>
<g id="a_edge17_Node000012_Node000002"><a xlink:title=" ">
<path fill="none" stroke="#63b8ff" d="M169.5,-161.99C142.99,-153.21 100.28,-139.06 70.47,-129.19"/>
<polygon fill="#63b8ff" stroke="#63b8ff" points="71.5,-125.84 60.9,-126.02 69.29,-132.49 71.5,-125.84"/>
</a>
</g>
</g>
<!-- Node12&#45;&gt;Node7 -->
<g id="edge18_Node000012_Node000007" class="edge">
<title>Node12&#45;&gt;Node7</title>
<g id="a_edge18_Node000012_Node000007"><a xlink:title=" ">
<path fill="none" stroke="#63b8ff" d="M184.66,-161.78C175.23,-153.09 160.11,-138.89 147.69,-126 133.09,-110.84 117.22,-92.77 106.3,-80.06"/>
<polygon fill="#63b8ff" stroke="#63b8ff" points="108.76,-77.55 99.6,-72.22 103.43,-82.09 108.76,-77.55"/>
</a>
</g>
</g>
<!-- Node12&#45;&gt;Node8 -->
<g id="edge16_Node000012_Node000008" class="edge">
<title>Node12&#45;&gt;Node8</title>
<g id="a_edge16_Node000012_Node000008"><a xlink:title=" ">
<path fill="none" stroke="#63b8ff" d="M193.69,-161.88C193.69,-155.05 193.69,-145.03 193.69,-136.29"/>
<polygon fill="#63b8ff" stroke="#63b8ff" points="197.19,-136.24 193.69,-126.24 190.19,-136.24 197.19,-136.24"/>
</a>
</g>
</g>
<!-- Node12&#45;&gt;Node9 -->
<g id="edge19_Node000012_Node000009" class="edge">
<title>Node12&#45;&gt;Node9</title>
<g id="a_edge19_Node000012_Node000009"><a xlink:title=" ">
<path fill="none" stroke="#63b8ff" d="M202.31,-161.98C216.81,-148.89 247.46,-122.93 277.69,-108 315.09,-89.53 361.59,-77.49 393.25,-70.75"/>
<polygon fill="#63b8ff" stroke="#63b8ff" points="394.29,-74.11 403.38,-68.67 392.88,-67.25 394.29,-74.11"/>
</a>
</g>
</g>
<!-- Node13 -->
<g id="Node000013" class="node">
<title>Node13</title>
<g id="a_Node000013"><a xlink:title=" ">
<polygon fill="#e0e0e0" stroke="#999999" points="330.42,-126 286.95,-126 286.95,-108 330.42,-108 330.42,-126"/>
<text text-anchor="middle" x="308.69" y="-114" font-family="Helvetica,sans-Serif" font-size="10.00">vector</text>
</a>
</g>
</g>
<!-- Node12&#45;&gt;Node13 -->
<g id="edge20_Node000012_Node000013" class="edge">
<title>Node12&#45;&gt;Node13</title>
<g id="a_edge20_Node000012_Node000013"><a xlink:title=" ">
<path fill="none" stroke="#63b8ff" d="M211.66,-161.88C230.39,-153.4 259.98,-140.02 281.56,-130.27"/>
<polygon fill="#63b8ff" stroke="#63b8ff" points="283.17,-133.38 290.84,-126.07 280.29,-127 283.17,-133.38"/>
</a>
</g>
</g>
<!-- Node14&#45;&gt;Node2 -->
<g id="edge34_Node000014_Node000002" class="edge">
<title>Node14&#45;&gt;Node2</title>
<g id="a_edge34_Node000014_Node000002"><a xlink:title=" ">
<path fill="none" stroke="#63b8ff" d="M225.98,-222.28C187.4,-218.91 126.37,-209 82.69,-180 65.97,-168.9 53.08,-149.59 45.25,-135.46"/>
<polygon fill="#63b8ff" stroke="#63b8ff" points="48.19,-133.53 40.47,-126.28 41.99,-136.76 48.19,-133.53"/>
</a>
</g>
</g>
<!-- Node14&#45;&gt;Node7 -->
<g id="edge35_Node000014_Node000007" class="edge">
<title>Node14&#45;&gt;Node7</title>
<g id="a_edge35_Node000014_Node000007"><a xlink:title=" ">
<path fill="none" stroke="#63b8ff" d="M225.91,-218.23C200.1,-212.48 166.3,-201.29 143.69,-180 115.21,-153.19 101.69,-107.68 96.09,-82.36"/>
<polygon fill="#63b8ff" stroke="#63b8ff" points="99.46,-81.4 94.04,-72.3 92.6,-82.79 99.46,-81.4"/>
</a>
</g>
</g>
<!-- Node14&#45;&gt;Node8 -->
<g id="edge22_Node000014_Node000008" class="edge">
<title>Node14&#45;&gt;Node8</title>
<g id="a_edge22_Node000014_Node000008"><a xlink:title=" ">
<path fill="none" stroke="#63b8ff" d="M261.63,-215.77C259.71,-203.29 254.8,-179.21 243.69,-162 236.22,-150.43 224.87,-140.1 214.88,-132.36"/>
<polygon fill="#63b8ff" stroke="#63b8ff" points="216.71,-129.36 206.57,-126.26 212.56,-135 216.71,-129.36"/>
</a>
</g>
</g>
<!-- Node15 -->
<g id="Node000015" class="node">
<title>Node15</title>
<g id="a_Node000015"><a xlink:href="metadata_8hpp.html" target="_top" xlink:title=" ">
<polygon fill="white" stroke="#666666" points="689.34,-126 612.03,-126 612.03,-108 689.34,-108 689.34,-126"/>
<text text-anchor="middle" x="650.69" y="-114" font-family="Helvetica,sans-Serif" font-size="10.00">metadata.hpp</text>
</a>
</g>
</g>
<!-- Node14&#45;&gt;Node15 -->
<g id="edge23_Node000014_Node000015" class="edge">
<title>Node14&#45;&gt;Node15</title>
<g id="a_edge23_Node000014_Node000015"><a xlink:title=" ">
<path fill="none" stroke="#63b8ff" d="M292.25,-215.99C324.73,-207.19 378.44,-192.62 424.69,-180 490.37,-162.07 566.75,-141.09 611.78,-128.71"/>
<polygon fill="#63b8ff" stroke="#63b8ff" points="612.72,-132.08 621.44,-126.05 610.87,-125.33 612.72,-132.08"/>
</a>
</g>
</g>
<!-- Node17 -->
<g id="Node000017" class="node">
<title>Node17</title>
<g id="a_Node000017"><a xlink:href="spine_8hpp.html" target="_top" xlink:title=" ">
<polygon fill="white" stroke="#666666" points="415.56,-180 355.82,-180 355.82,-162 415.56,-162 415.56,-180"/>
<text text-anchor="middle" x="385.69" y="-168" font-family="Helvetica,sans-Serif" font-size="10.00">spine.hpp</text>
</a>
</g>
</g>
<!-- Node14&#45;&gt;Node17 -->
<g id="edge27_Node000014_Node000017" class="edge">
<title>Node14&#45;&gt;Node17</title>
<g id="a_edge27_Node000014_Node000017"><a xlink:title=" ">
<path fill="none" stroke="#63b8ff" d="M281.64,-215.99C301.8,-207.46 333.94,-193.88 357.17,-184.06"/>
<polygon fill="#63b8ff" stroke="#63b8ff" points="358.67,-187.22 366.51,-180.11 355.94,-180.78 358.67,-187.22"/>
</a>
</g>
</g>
<!-- Node15&#45;&gt;Node6 -->
<g id="edge26_Node000015_Node000006" class="edge">
<title>Node15&#45;&gt;Node6</title>
<g id="a_edge26_Node000015_Node000006"><a xlink:title=" ">
<path fill="none" stroke="#63b8ff" d="M645.57,-107.81C640.31,-99.16 632.15,-84.99 626.69,-72 620.61,-57.55 615.52,-40.48 612.15,-27.92"/>
<polygon fill="#63b8ff" stroke="#63b8ff" points="615.53,-27.02 609.64,-18.21 608.75,-28.77 615.53,-27.02"/>
</a>
</g>
</g>
<!-- Node15&#45;&gt;Node11 -->
<g id="edge25_Node000015_Node000011" class="edge">
<title>Node15&#45;&gt;Node11</title>
<g id="a_edge25_Node000015_Node000011"><a xlink:title=" ">
<path fill="none" stroke="#63b8ff" d="M632.82,-107.99C613.97,-99.54 584.03,-86.12 562.17,-76.32"/>
<polygon fill="#63b8ff" stroke="#63b8ff" points="563.33,-73 552.77,-72.11 560.46,-79.39 563.33,-73"/>
</a>
</g>
</g>
<!-- Node16 -->
<g id="Node000016" class="node">
<title>Node16</title>
<g id="a_Node000016"><a xlink:title=" ">
<polygon fill="#e0e0e0" stroke="#999999" points="681.77,-72 635.61,-72 635.61,-54 681.77,-54 681.77,-72"/>
<text text-anchor="middle" x="658.69" y="-60" font-family="Helvetica,sans-Serif" font-size="10.00">chrono</text>
</a>
</g>
</g>
<!-- Node15&#45;&gt;Node16 -->
<g id="edge24_Node000015_Node000016" class="edge">
<title>Node15&#45;&gt;Node16</title>
<g id="a_edge24_Node000015_Node000016"><a xlink:title=" ">
<path fill="none" stroke="#63b8ff" d="M651.94,-107.88C652.99,-101.05 654.53,-91.03 655.87,-82.29"/>
<polygon fill="#63b8ff" stroke="#63b8ff" points="659.36,-82.66 657.42,-72.24 652.44,-81.59 659.36,-82.66"/>
</a>
</g>
</g>
<!-- Node17&#45;&gt;Node8 -->
<g id="edge28_Node000017_Node000008" class="edge">
<title>Node17&#45;&gt;Node8</title>
<g id="a_edge28_Node000017_Node000008"><a xlink:title=" ">
<path fill="none" stroke="#63b8ff" d="M356.11,-161.99C323.13,-153.06 269.64,-138.57 233.12,-128.68"/>
<polygon fill="#63b8ff" stroke="#63b8ff" points="233.87,-125.26 223.3,-126.02 232.04,-132.01 233.87,-125.26"/>
</a>
</g>
</g>
<!-- Node17&#45;&gt;Node9 -->
<g id="edge31_Node000017_Node000009" class="edge">
<title>Node17&#45;&gt;Node9</title>
<g id="a_edge31_Node000017_Node000009"><a xlink:title=" ">
<path fill="none" stroke="#63b8ff" d="M415.46,-170.27C448.73,-168.76 501.24,-160.6 526.69,-126 546.09,-99.62 500.93,-81.61 465.9,-72.07"/>
<polygon fill="#63b8ff" stroke="#63b8ff" points="466.45,-68.59 455.89,-69.49 464.7,-75.37 466.45,-68.59"/>
</a>
</g>
</g>
<!-- Node17&#45;&gt;Node10 -->
<g id="edge32_Node000017_Node000010" class="edge">
<title>Node17&#45;&gt;Node10</title>
<g id="a_edge32_Node000017_Node000010"><a xlink:title=" ">
<path fill="none" stroke="#63b8ff" d="M381.76,-161.68C373.66,-144.5 354.91,-104.76 343.99,-81.61"/>
<polygon fill="#63b8ff" stroke="#63b8ff" points="347.02,-79.83 339.59,-72.28 340.69,-82.82 347.02,-79.83"/>
</a>
</g>
</g>
<!-- Node17&#45;&gt;Node13 -->
<g id="edge33_Node000017_Node000013" class="edge">
<title>Node17&#45;&gt;Node13</title>
<g id="a_edge33_Node000017_Node000013"><a xlink:title=" ">
<path fill="none" stroke="#63b8ff" d="M373.66,-161.88C361.79,-153.86 343.42,-141.46 329.24,-131.88"/>
<polygon fill="#63b8ff" stroke="#63b8ff" points="330.88,-128.76 320.63,-126.07 326.96,-134.57 330.88,-128.76"/>
</a>
</g>
</g>
<!-- Node18 -->
<g id="Node000018" class="node">
<title>Node18</title>
<g id="a_Node000018"><a xlink:title=" ">
<polygon fill="#e0e0e0" stroke="#999999" points="444.99,-126 386.38,-126 386.38,-108 444.99,-108 444.99,-126"/>
<text text-anchor="middle" x="415.69" y="-114" font-family="Helvetica,sans-Serif" font-size="10.00">functional</text>
</a>
</g>
</g>
<!-- Node17&#45;&gt;Node18 -->
<g id="edge29_Node000017_Node000018" class="edge">
<title>Node17&#45;&gt;Node18</title>
<g id="a_edge29_Node000017_Node000018"><a xlink:title=" ">
<path fill="none" stroke="#63b8ff" d="M390.37,-161.88C394.49,-154.74 400.61,-144.13 405.8,-135.13"/>
<polygon fill="#63b8ff" stroke="#63b8ff" points="408.97,-136.65 410.93,-126.24 402.9,-133.15 408.97,-136.65"/>
</a>
</g>
</g>
<!-- Node19 -->
<g id="Node000019" class="node">
<title>Node19</title>
<g id="a_Node000019"><a xlink:title=" ">
<polygon fill="#e0e0e0" stroke="#999999" points="518.03,-126 463.34,-126 463.34,-108 518.03,-108 518.03,-126"/>
<text text-anchor="middle" x="490.69" y="-114" font-family="Helvetica,sans-Serif" font-size="10.00">iostream</text>
</a>
</g>
</g>
<!-- Node17&#45;&gt;Node19 -->
<g id="edge30_Node000017_Node000019" class="edge">
<title>Node17&#45;&gt;Node19</title>
<g id="a_edge30_Node000017_Node000019"><a xlink:title=" ">
<path fill="none" stroke="#63b8ff" d="M402.09,-161.88C419.05,-153.48 445.73,-140.27 465.38,-130.53"/>
<polygon fill="#63b8ff" stroke="#63b8ff" points="466.99,-133.64 474.4,-126.07 463.88,-127.37 466.99,-133.64"/>
</a>
</g>
</g>
</g>
</svg>
