<?xml version="1.0" encoding="UTF-8" standalone="no"?>
<!DOCTYPE svg PUBLIC "-//W3C//DTD SVG 1.1//EN"
 "http://www.w3.org/Graphics/SVG/1.1/DTD/svg11.dtd">
<!-- Generated by graphviz version 2.48.0 (20210717.1556)
 -->
<!-- Title: xml.hpp Pages: 1 -->
<svg width="293pt" height="188pt"
 viewBox="0.00 0.00 293.25 188.00" xmlns="http://www.w3.org/2000/svg" xmlns:xlink="http://www.w3.org/1999/xlink">
<g id="graph0" class="graph" transform="scale(1 1) rotate(0) translate(4 184)">
<title>xml.hpp</title>
<!-- Node1 -->
<g id="Node000001" class="node">
<title>Node1</title>
<g id="a_Node000001"><a xlink:title=" ">
<polygon fill="#999999" stroke="#666666" points="216.02,-180 164.99,-180 164.99,-162 216.02,-162 216.02,-180"/>
<text text-anchor="middle" x="190.51" y="-168" font-family="Helvetica,sans-Serif" font-size="10.00">xml.hpp</text>
</a>
</g>
</g>
<!-- Node2 -->
<g id="Node000002" class="node">
<title>Node2</title>
<g id="a_Node000002"><a xlink:href="comic_8cpp.html" target="_top" xlink:title=" ">
<polygon fill="white" stroke="#666666" points="61.02,-18 -0.01,-18 -0.01,0 61.02,0 61.02,-18"/>
<text text-anchor="middle" x="30.51" y="-6" font-family="Helvetica,sans-Serif" font-size="10.00">comic.cpp</text>
</a>
</g>
</g>
<!-- Node1&#45;&gt;Node2 -->
<g id="edge1_Node000001_Node000002" class="edge">
<title>Node1&#45;&gt;Node2</title>
<g id="a_edge1_Node000001_Node000002"><a xlink:title=" ">
<path fill="none" stroke="#63b8ff" d="M154.85,-168.93C122.43,-165.94 75.76,-156.22 49.51,-126 22.07,-94.42 26.39,-39.03 29.2,-18.22"/>
<polygon fill="#63b8ff" stroke="#63b8ff" points="154.59,-172.42 164.83,-169.68 155.12,-165.44 154.59,-172.42"/>
</a>
</g>
</g>
<!-- Node3 -->
<g id="Node000003" class="node">
<title>Node3</title>
<g id="a_Node000003"><a xlink:href="container_8cpp.html" target="_top" xlink:title=" ">
<polygon fill="white" stroke="#666666" points="285.5,-18 209.51,-18 209.51,0 285.5,0 285.5,-18"/>
<text text-anchor="middle" x="247.51" y="-6" font-family="Helvetica,sans-Serif" font-size="10.00">container.cpp</text>
</a>
</g>
</g>
<!-- Node1&#45;&gt;Node3 -->
<g id="edge2_Node000001_Node000003" class="edge">
<title>Node1&#45;&gt;Node3</title>
<g id="a_edge2_Node000001_Node000003"><a xlink:title=" ">
<path fill="none" stroke="#63b8ff" d="M221.23,-157.27C234.28,-150.14 248.16,-139.85 255.51,-126 274.72,-89.8 258.43,-38.07 250.86,-18.2"/>
<polygon fill="#63b8ff" stroke="#63b8ff" points="219.35,-154.3 211.98,-161.91 222.49,-160.56 219.35,-154.3"/>
</a>
</g>
</g>
<!-- Node4 -->
<g id="Node000004" class="node">
<title>Node4</title>
<g id="a_Node000004"><a xlink:href="navigation_8hpp.html" target="_top" xlink:title=" ">
<polygon fill="white" stroke="#666666" points="231.06,-126 149.95,-126 149.95,-108 231.06,-108 231.06,-126"/>
<text text-anchor="middle" x="190.51" y="-114" font-family="Helvetica,sans-Serif" font-size="10.00">navigation.hpp</text>
</a>
</g>
</g>
<!-- Node1&#45;&gt;Node4 -->
<g id="edge3_Node000001_Node000004" class="edge">
<title>Node1&#45;&gt;Node4</title>
<g id="a_edge3_Node000001_Node000004"><a xlink:title=" ">
<path fill="none" stroke="#63b8ff" d="M190.51,-151.86C190.51,-143.13 190.51,-133.1 190.51,-126.24"/>
<polygon fill="#63b8ff" stroke="#63b8ff" points="187.01,-151.87 190.51,-161.88 194.01,-151.88 187.01,-151.87"/>
</a>
</g>
</g>
<!-- Node7 -->
<g id="Node000007" class="node">
<title>Node7</title>
<g id="a_Node000007"><a xlink:href="xml_8cpp.html" target="_top" xlink:title=" ">
<polygon fill="white" stroke="#666666" points="215.96,-72 165.05,-72 165.05,-54 215.96,-54 215.96,-72"/>
<text text-anchor="middle" x="190.51" y="-60" font-family="Helvetica,sans-Serif" font-size="10.00">xml.cpp</text>
</a>
</g>
</g>
<!-- Node1&#45;&gt;Node7 -->
<g id="edge12_Node000001_Node000007" class="edge">
<title>Node1&#45;&gt;Node7</title>
<g id="a_edge12_Node000001_Node000007"><a xlink:title=" ">
<path fill="none" stroke="#63b8ff" d="M213.85,-156.41C230.66,-144.7 249,-126.78 240.51,-108 233.36,-92.2 217.42,-79.81 205.45,-72.25"/>
<polygon fill="#63b8ff" stroke="#63b8ff" points="211.83,-153.55 205.35,-161.93 215.64,-159.41 211.83,-153.55"/>
</a>
</g>
</g>
<!-- Node8 -->
<g id="Node000008" class="node">
<title>Node8</title>
<g id="a_Node000008"><a xlink:href="package_8hpp.html" target="_top" xlink:title=" ">
<polygon fill="white" stroke="#666666" points="132.28,-126 58.74,-126 58.74,-108 132.28,-108 132.28,-126"/>
<text text-anchor="middle" x="95.51" y="-114" font-family="Helvetica,sans-Serif" font-size="10.00">package.hpp</text>
</a>
</g>
</g>
<!-- Node1&#45;&gt;Node8 -->
<g id="edge9_Node000001_Node000008" class="edge">
<title>Node1&#45;&gt;Node8</title>
<g id="a_edge9_Node000001_Node000008"><a xlink:title=" ">
<path fill="none" stroke="#63b8ff" d="M166.52,-156.87C148.81,-147.17 125.27,-134.29 110.25,-126.07"/>
<polygon fill="#63b8ff" stroke="#63b8ff" points="165.21,-160.14 175.66,-161.88 168.57,-154 165.21,-160.14"/>
</a>
</g>
</g>
<!-- Node5 -->
<g id="Node000005" class="node">
<title>Node5</title>
<g id="a_Node000005"><a xlink:href="container_8hpp.html" target="_top" xlink:title=" ">
<polygon fill="white" stroke="#666666" points="147.56,-72 71.45,-72 71.45,-54 147.56,-54 147.56,-72"/>
<text text-anchor="middle" x="109.51" y="-60" font-family="Helvetica,sans-Serif" font-size="10.00">container.hpp</text>
</a>
</g>
</g>
<!-- Node4&#45;&gt;Node5 -->
<g id="edge4_Node000004_Node000005" class="edge">
<title>Node4&#45;&gt;Node5</title>
<g id="a_edge4_Node000004_Node000005"><a xlink:title=" ">
<path fill="none" stroke="#63b8ff" d="M169.21,-102.33C154.21,-92.7 134.64,-80.14 122.07,-72.07"/>
<polygon fill="#63b8ff" stroke="#63b8ff" points="167.55,-105.42 177.85,-107.88 171.33,-99.53 167.55,-105.42"/>
</a>
</g>
</g>
<!-- Node4&#45;&gt;Node7 -->
<g id="edge8_Node000004_Node000007" class="edge">
<title>Node4&#45;&gt;Node7</title>
<g id="a_edge8_Node000004_Node000007"><a xlink:title=" ">
<path fill="none" stroke="#63b8ff" d="M190.51,-97.86C190.51,-89.13 190.51,-79.1 190.51,-72.24"/>
<polygon fill="#63b8ff" stroke="#63b8ff" points="187.01,-97.87 190.51,-107.88 194.01,-97.88 187.01,-97.87"/>
</a>
</g>
</g>
<!-- Node5&#45;&gt;Node2 -->
<g id="edge6_Node000005_Node000002" class="edge">
<title>Node5&#45;&gt;Node2</title>
<g id="a_edge6_Node000005_Node000002"><a xlink:title=" ">
<path fill="none" stroke="#63b8ff" d="M88.73,-48.33C74.11,-38.7 55.02,-26.14 42.76,-18.07"/>
<polygon fill="#63b8ff" stroke="#63b8ff" points="86.89,-51.3 97.16,-53.88 90.74,-45.45 86.89,-51.3"/>
</a>
</g>
</g>
<!-- Node5&#45;&gt;Node3 -->
<g id="edge7_Node000005_Node000003" class="edge">
<title>Node5&#45;&gt;Node3</title>
<g id="a_edge7_Node000005_Node000003"><a xlink:title=" ">
<path fill="none" stroke="#63b8ff" d="M140.18,-50.44C166.23,-40.62 202.97,-26.78 226,-18.11"/>
<polygon fill="#63b8ff" stroke="#63b8ff" points="138.89,-47.19 130.77,-53.99 141.36,-53.74 138.89,-47.19"/>
</a>
</g>
</g>
<!-- Node6 -->
<g id="Node000006" class="node">
<title>Node6</title>
<g id="a_Node000006"><a xlink:href="binder_8cpp.html" target="_top" xlink:title=" ">
<polygon fill="white" stroke="#666666" points="141.66,-18 79.35,-18 79.35,0 141.66,0 141.66,-18"/>
<text text-anchor="middle" x="110.51" y="-6" font-family="Helvetica,sans-Serif" font-size="10.00">binder.cpp</text>
</a>
</g>
</g>
<!-- Node5&#45;&gt;Node6 -->
<g id="edge5_Node000005_Node000006" class="edge">
<title>Node5&#45;&gt;Node6</title>
<g id="a_edge5_Node000005_Node000006"><a xlink:title=" ">
<path fill="none" stroke="#63b8ff" d="M109.86,-43.86C110.02,-35.13 110.22,-25.1 110.35,-18.24"/>
<polygon fill="#63b8ff" stroke="#63b8ff" points="106.36,-43.81 109.66,-53.88 113.36,-43.94 106.36,-43.81"/>
</a>
</g>
</g>
<!-- Node8&#45;&gt;Node5 -->
<g id="edge10_Node000008_Node000005" class="edge">
<title>Node8&#45;&gt;Node5</title>
<g id="a_edge10_Node000008_Node000005"><a xlink:title=" ">
<path fill="none" stroke="#63b8ff" d="M100.31,-98.15C102.68,-89.35 105.42,-79.18 107.29,-72.24"/>
<polygon fill="#63b8ff" stroke="#63b8ff" points="96.91,-97.31 97.69,-107.88 103.67,-99.13 96.91,-97.31"/>
</a>
</g>
</g>
<!-- Node8&#45;&gt;Node7 -->
<g id="edge11_Node000008_Node000007" class="edge">
<title>Node8&#45;&gt;Node7</title>
<g id="a_edge11_Node000008_Node000007"><a xlink:title=" ">
<path fill="none" stroke="#63b8ff" d="M119.5,-102.87C137.21,-93.17 160.75,-80.29 175.77,-72.07"/>
<polygon fill="#63b8ff" stroke="#63b8ff" points="117.44,-100 110.35,-107.88 120.8,-106.14 117.44,-100"/>
</a>
</g>
</g>
</g>
</svg>
